<?xml version="1.0" encoding="UTF-8"?>
<svg xmlns="http://www.w3.org/2000/svg" xmlns:xlink="http://www.w3.org/1999/xlink" width="390.168427pt" height="37.88504pt" viewBox="0 0 390.168427 37.88504">
<defs>
<clipPath id="clip-0">
<path clip-rule="nonzero" d="M 0 18 L 20 18 L 20 37.886719 L 0 37.886719 Z M 0 18 "/>
</clipPath>
<clipPath id="clip-1">
<path clip-rule="nonzero" d="M 50 21 L 76 21 L 76 37.886719 L 50 37.886719 Z M 50 21 "/>
</clipPath>
<clipPath id="clip-2">
<path clip-rule="nonzero" d="M 279 21 L 305 21 L 305 37.886719 L 279 37.886719 Z M 279 21 "/>
</clipPath>
<clipPath id="clip-3">
<path clip-rule="nonzero" d="M 331 21 L 368 21 L 368 37.886719 L 331 37.886719 Z M 331 21 "/>
</clipPath>
<clipPath id="clip-4">
<path clip-rule="nonzero" d="M 371 18 L 390.167969 18 L 390.167969 37.886719 L 371 37.886719 Z M 371 18 "/>
</clipPath>
<clipPath id="clip-5">
<path clip-rule="nonzero" d="M 307 18 L 329 18 L 329 37.886719 L 307 37.886719 Z M 307 18 "/>
</clipPath>
<clipPath id="clip-6">
<path clip-rule="nonzero" d="M 78 18 L 100 18 L 100 37.886719 L 78 37.886719 Z M 78 18 "/>
</clipPath>
</defs>
<path fill="none" stroke-width="0.49145" stroke-linecap="butt" stroke-linejoin="miter" stroke="rgb(46.273804%, 52.940369%, 54.901123%)" stroke-opacity="1" stroke-miterlimit="4" d="M 8.433594 21.566406 L 8.421875 8.398438 L 14.371094 8.398438 "/>
<path fill-rule="evenodd" fill="rgb(46.273804%, 52.940369%, 54.901123%)" fill-opacity="1" stroke-width="0.262107" stroke-linecap="butt" stroke-linejoin="miter" stroke="rgb(46.273804%, 52.940369%, 54.901123%)" stroke-opacity="1" stroke-miterlimit="4" d="M -12.40625 -8.398438 L -11.421875 -9.382812 L -14.863281 -8.398438 L -11.421875 -7.417969 Z M -12.40625 -8.398438 " transform="matrix(-1, 0, 0, -1, 0, 0)"/>
<path fill="none" stroke-width="0.49145" stroke-linecap="butt" stroke-linejoin="miter" stroke="rgb(46.273804%, 52.940369%, 54.901123%)" stroke-opacity="1" stroke-miterlimit="4" d="M 74.996094 29.578125 L 79.882812 29.589844 "/>
<path fill-rule="evenodd" fill="rgb(46.273804%, 52.940369%, 54.901123%)" fill-opacity="1" stroke-width="0.262106" stroke-linecap="butt" stroke-linejoin="miter" stroke="rgb(46.273804%, 52.940369%, 54.901123%)" stroke-opacity="1" stroke-miterlimit="4" d="M -77.998042 -29.37331 L -77.016347 -30.356455 L -80.455076 -29.374425 L -77.014897 -28.391615 Z M -77.998042 -29.37331 " transform="matrix(-1, -0.00272606, 0.00272606, -1, 0, 0)"/>
<path fill="none" stroke-width="0.49145" stroke-linecap="butt" stroke-linejoin="miter" stroke="rgb(46.273804%, 52.940369%, 54.901123%)" stroke-opacity="1" stroke-miterlimit="4" d="M 16.332031 29.578125 L 49.925781 29.589844 "/>
<path fill-rule="evenodd" fill="rgb(46.273804%, 52.940369%, 54.901123%)" fill-opacity="1" stroke-width="0.262107" stroke-linecap="butt" stroke-linejoin="miter" stroke="rgb(46.273804%, 52.940369%, 54.901123%)" stroke-opacity="1" stroke-miterlimit="4" d="M -47.972665 -29.570819 L -46.98868 -30.555584 L -50.429696 -29.569844 L -46.9879 -28.586834 Z M -47.972665 -29.570819 " transform="matrix(-1, -0.000396585, 0.000396585, -1, 0, 0)"/>
<g clip-path="url(#clip-0)">
<path fill="none" stroke-width="0.491606" stroke-linecap="butt" stroke-linejoin="miter" stroke="rgb(0%, 0%, 0%)" stroke-opacity="1" stroke-miterlimit="4" d="M 16.359375 29.574219 C 16.359375 34.023438 12.753906 37.632812 8.304688 37.632812 C 3.851562 37.632812 0.246094 34.023438 0.246094 29.574219 C 0.246094 25.125 3.851562 21.515625 8.304688 21.515625 C 12.753906 21.515625 16.359375 25.125 16.359375 29.574219 Z M 16.359375 29.574219 "/>
</g>
<path fill-rule="nonzero" fill="rgb(0%, 0%, 0%)" fill-opacity="1" d="M 100.878906 12.65625 C 100.878906 12.628906 100.878906 12.617188 100.734375 12.472656 C 99.714844 11.441406 99.441406 9.875 99.441406 8.609375 C 99.441406 7.175781 99.753906 5.742188 100.773438 4.71875 C 100.878906 4.617188 100.878906 4.605469 100.878906 4.578125 C 100.878906 4.511719 100.851562 4.488281 100.800781 4.488281 C 100.710938 4.488281 99.972656 5.054688 99.480469 6.101562 C 99.066406 7.007812 98.964844 7.925781 98.964844 8.609375 C 98.964844 9.253906 99.054688 10.25 99.507812 11.195312 C 100.011719 12.203125 100.710938 12.746094 100.800781 12.746094 C 100.851562 12.746094 100.878906 12.71875 100.878906 12.65625 Z M 100.878906 12.65625 "/>
<path fill-rule="nonzero" fill="rgb(0%, 0%, 0%)" fill-opacity="1" d="M 105.011719 8.609375 C 105.011719 7.730469 104.277344 7.019531 103.421875 7.019531 C 102.53125 7.019531 101.808594 7.757812 101.808594 8.609375 C 101.808594 9.488281 102.53125 10.210938 103.421875 10.210938 C 104.277344 10.210938 105.011719 9.5 105.011719 8.609375 Z M 105.011719 8.609375 "/>
<path fill-rule="nonzero" fill="rgb(0%, 0%, 0%)" fill-opacity="1" d="M 107.851562 8.609375 C 107.851562 7.976562 107.761719 6.980469 107.308594 6.039062 C 106.820312 5.03125 106.109375 4.488281 106.03125 4.488281 C 105.980469 4.488281 105.941406 4.527344 105.941406 4.578125 C 105.941406 4.605469 105.941406 4.617188 106.09375 4.773438 C 106.910156 5.585938 107.375 6.890625 107.375 8.609375 C 107.375 10.03125 107.078125 11.480469 106.058594 12.511719 C 105.941406 12.617188 105.941406 12.628906 105.941406 12.65625 C 105.941406 12.707031 105.980469 12.746094 106.03125 12.746094 C 106.109375 12.746094 106.859375 12.175781 107.335938 11.128906 C 107.761719 10.226562 107.851562 9.308594 107.851562 8.609375 Z M 107.851562 8.609375 "/>
<path fill-rule="nonzero" fill="rgb(0%, 0%, 0%)" fill-opacity="1" d="M 111.585938 6.640625 L 111.394531 6.640625 C 111.378906 6.769531 111.316406 7.105469 111.238281 7.15625 C 111.199219 7.195312 110.761719 7.195312 110.667969 7.195312 L 109.609375 7.195312 C 110.21875 6.664062 110.425781 6.496094 110.761719 6.226562 C 111.1875 5.890625 111.585938 5.527344 111.585938 4.984375 C 111.585938 4.289062 110.980469 3.863281 110.242188 3.863281 C 109.53125 3.863281 109.042969 4.367188 109.042969 4.894531 C 109.042969 5.179688 109.285156 5.21875 109.351562 5.21875 C 109.480469 5.21875 109.648438 5.113281 109.648438 4.910156 C 109.648438 4.804688 109.609375 4.597656 109.3125 4.597656 C 109.492188 4.199219 109.882812 4.066406 110.152344 4.066406 C 110.734375 4.066406 111.03125 4.519531 111.03125 4.984375 C 111.03125 5.488281 110.667969 5.878906 110.488281 6.085938 L 109.105469 7.46875 C 109.042969 7.519531 109.042969 7.53125 109.042969 7.6875 L 111.417969 7.6875 Z M 111.585938 6.640625 "/>
<g clip-path="url(#clip-1)">
<path fill="none" stroke-width="0.49145" stroke-linecap="butt" stroke-linejoin="miter" stroke="rgb(0%, 0%, 0%)" stroke-opacity="1" stroke-miterlimit="4" d="M 50.945312 22.066406 L 75.234375 22.066406 L 75.234375 37.082031 L 50.945312 37.082031 Z M 50.945312 22.066406 "/>
</g>
<path fill-rule="nonzero" fill="rgb(0%, 0%, 0%)" fill-opacity="1" d="M 49.363281 7.070312 L 50.074219 7.070312 C 50.242188 7.070312 50.316406 7.070312 50.316406 6.902344 C 50.316406 6.8125 50.242188 6.8125 50.097656 6.8125 L 49.414062 6.8125 L 49.582031 5.867188 C 49.621094 5.699219 49.738281 5.117188 49.789062 5.015625 C 49.851562 4.859375 49.996094 4.730469 50.175781 4.730469 C 50.203125 4.730469 50.421875 4.730469 50.578125 4.886719 C 50.214844 4.910156 50.125 5.207031 50.125 5.324219 C 50.125 5.519531 50.28125 5.621094 50.433594 5.621094 C 50.652344 5.621094 50.886719 5.429688 50.886719 5.117188 C 50.886719 4.742188 50.511719 4.550781 50.175781 4.550781 C 49.890625 4.550781 49.375 4.703125 49.128906 5.519531 C 49.078125 5.6875 49.050781 5.777344 48.859375 6.8125 L 48.289062 6.8125 C 48.121094 6.8125 48.03125 6.8125 48.03125 6.964844 C 48.03125 7.070312 48.109375 7.070312 48.261719 7.070312 L 48.804688 7.070312 L 48.199219 10.324219 C 48.042969 11.125 47.902344 11.875 47.476562 11.875 C 47.4375 11.875 47.242188 11.875 47.074219 11.722656 C 47.460938 11.695312 47.539062 11.398438 47.539062 11.28125 C 47.539062 11.089844 47.382812 10.984375 47.230469 10.984375 C 47.011719 10.984375 46.777344 11.179688 46.777344 11.488281 C 46.777344 11.851562 47.140625 12.058594 47.476562 12.058594 C 47.925781 12.058594 48.261719 11.566406 48.40625 11.257812 C 48.675781 10.738281 48.859375 9.746094 48.871094 9.679688 Z M 49.363281 7.070312 "/>
<path fill-rule="nonzero" fill="rgb(0%, 0%, 0%)" fill-opacity="1" d="M 52.296875 7.929688 C 52.296875 7.773438 52.296875 7.773438 52.128906 7.773438 C 51.753906 8.136719 51.238281 8.136719 51.003906 8.136719 L 51.003906 8.34375 C 51.132812 8.34375 51.523438 8.34375 51.832031 8.1875 L 51.832031 11.121094 C 51.832031 11.316406 51.832031 11.394531 51.265625 11.394531 L 51.042969 11.394531 L 51.042969 11.601562 C 51.148438 11.601562 51.859375 11.574219 52.066406 11.574219 C 52.246094 11.574219 52.96875 11.601562 53.097656 11.601562 L 53.097656 11.394531 L 52.878906 11.394531 C 52.296875 11.394531 52.296875 11.316406 52.296875 11.121094 Z M 52.296875 7.929688 "/>
<path fill-rule="nonzero" fill="rgb(0%, 0%, 0%)" fill-opacity="1" d="M 176.839844 7.070312 L 177.550781 7.070312 C 177.71875 7.070312 177.796875 7.070312 177.796875 6.902344 C 177.796875 6.8125 177.71875 6.8125 177.578125 6.8125 L 176.890625 6.8125 L 177.0625 5.867188 C 177.097656 5.699219 177.214844 5.117188 177.265625 5.015625 C 177.332031 4.859375 177.472656 4.730469 177.65625 4.730469 C 177.679688 4.730469 177.902344 4.730469 178.054688 4.886719 C 177.695312 4.910156 177.601562 5.207031 177.601562 5.324219 C 177.601562 5.519531 177.757812 5.621094 177.914062 5.621094 C 178.132812 5.621094 178.367188 5.429688 178.367188 5.117188 C 178.367188 4.742188 177.992188 4.550781 177.65625 4.550781 C 177.371094 4.550781 176.855469 4.703125 176.609375 5.519531 C 176.554688 5.6875 176.53125 5.777344 176.335938 6.8125 L 175.769531 6.8125 C 175.601562 6.8125 175.511719 6.8125 175.511719 6.964844 C 175.511719 7.070312 175.585938 7.070312 175.742188 7.070312 L 176.285156 7.070312 L 175.679688 10.324219 C 175.523438 11.125 175.378906 11.875 174.953125 11.875 C 174.914062 11.875 174.722656 11.875 174.554688 11.722656 C 174.941406 11.695312 175.019531 11.398438 175.019531 11.28125 C 175.019531 11.089844 174.863281 10.984375 174.707031 10.984375 C 174.488281 10.984375 174.257812 11.179688 174.257812 11.488281 C 174.257812 11.851562 174.617188 12.058594 174.953125 12.058594 C 175.40625 12.058594 175.742188 11.566406 175.882812 11.257812 C 176.15625 10.738281 176.335938 9.746094 176.351562 9.679688 Z M 176.839844 7.070312 "/>
<path fill-rule="nonzero" fill="rgb(0%, 0%, 0%)" fill-opacity="1" d="M 180.902344 10.65625 L 180.902344 10.449219 L 180.253906 10.449219 L 180.253906 7.878906 C 180.253906 7.761719 180.253906 7.710938 180.140625 7.710938 C 180.0625 7.710938 180.035156 7.710938 179.984375 7.800781 L 178.070312 10.449219 L 178.070312 10.65625 L 179.777344 10.65625 L 179.777344 11.121094 C 179.777344 11.328125 179.777344 11.394531 179.296875 11.394531 L 179.144531 11.394531 L 179.144531 11.601562 C 179.441406 11.585938 179.800781 11.574219 180.007812 11.574219 C 180.230469 11.574219 180.589844 11.585938 180.886719 11.601562 L 180.886719 11.394531 L 180.734375 11.394531 C 180.253906 11.394531 180.253906 11.328125 180.253906 11.121094 L 180.253906 10.65625 Z M 179.816406 8.34375 L 179.816406 10.449219 L 178.289062 10.449219 Z M 179.816406 8.34375 "/>
<path fill-rule="nonzero" fill="rgb(0%, 0%, 0%)" fill-opacity="1" d="M 235.304688 7.070312 L 236.015625 7.070312 C 236.183594 7.070312 236.261719 7.070312 236.261719 6.902344 C 236.261719 6.8125 236.183594 6.8125 236.042969 6.8125 L 235.359375 6.8125 L 235.527344 5.867188 C 235.566406 5.699219 235.679688 5.117188 235.734375 5.015625 C 235.796875 4.859375 235.941406 4.730469 236.121094 4.730469 C 236.148438 4.730469 236.367188 4.730469 236.519531 4.886719 C 236.160156 4.910156 236.070312 5.207031 236.070312 5.324219 C 236.070312 5.519531 236.222656 5.621094 236.378906 5.621094 C 236.597656 5.621094 236.832031 5.429688 236.832031 5.117188 C 236.832031 4.742188 236.457031 4.550781 236.121094 4.550781 C 235.835938 4.550781 235.320312 4.703125 235.074219 5.519531 C 235.023438 5.6875 234.996094 5.777344 234.800781 6.8125 L 234.234375 6.8125 C 234.066406 6.8125 233.976562 6.8125 233.976562 6.964844 C 233.976562 7.070312 234.054688 7.070312 234.207031 7.070312 L 234.75 7.070312 L 234.144531 10.324219 C 233.988281 11.125 233.847656 11.875 233.417969 11.875 C 233.382812 11.875 233.1875 11.875 233.019531 11.722656 C 233.40625 11.695312 233.484375 11.398438 233.484375 11.28125 C 233.484375 11.089844 233.328125 10.984375 233.175781 10.984375 C 232.953125 10.984375 232.722656 11.179688 232.722656 11.488281 C 232.722656 11.851562 233.082031 12.058594 233.417969 12.058594 C 233.871094 12.058594 234.207031 11.566406 234.351562 11.257812 C 234.621094 10.738281 234.800781 9.746094 234.816406 9.679688 Z M 235.304688 7.070312 "/>
<path fill-rule="nonzero" fill="rgb(0%, 0%, 0%)" fill-opacity="1" d="M 237.207031 8.382812 C 237.507812 8.460938 237.675781 8.460938 237.765625 8.460938 C 238.527344 8.460938 238.980469 7.941406 238.980469 7.851562 C 238.980469 7.789062 238.941406 7.773438 238.914062 7.773438 C 238.902344 7.773438 238.890625 7.773438 238.863281 7.789062 C 238.722656 7.839844 238.421875 7.957031 237.996094 7.957031 C 237.828125 7.957031 237.53125 7.941406 237.15625 7.800781 C 237.09375 7.773438 237.078125 7.773438 237.078125 7.773438 C 237.003906 7.773438 237.003906 7.839844 237.003906 7.929688 L 237.003906 9.621094 C 237.003906 9.726562 237.003906 9.789062 237.09375 9.789062 C 237.144531 9.789062 237.15625 9.789062 237.207031 9.714844 C 237.453125 9.402344 237.816406 9.351562 238.011719 9.351562 C 238.359375 9.351562 238.515625 9.621094 238.539062 9.675781 C 238.644531 9.867188 238.683594 10.089844 238.683594 10.425781 C 238.683594 10.59375 238.683594 10.929688 238.5 11.1875 C 238.359375 11.394531 238.113281 11.535156 237.828125 11.535156 C 237.453125 11.535156 237.066406 11.328125 236.925781 10.941406 C 237.144531 10.953125 237.261719 10.8125 237.261719 10.65625 C 237.261719 10.410156 237.039062 10.371094 236.964844 10.371094 C 236.964844 10.371094 236.679688 10.371094 236.679688 10.683594 C 236.679688 11.199219 237.15625 11.714844 237.84375 11.714844 C 238.578125 11.714844 239.226562 11.171875 239.226562 10.4375 C 239.226562 9.789062 238.734375 9.195312 238.023438 9.195312 C 237.765625 9.195312 237.46875 9.25 237.207031 9.46875 Z M 237.207031 8.382812 "/>
<path fill-rule="nonzero" fill="rgb(0%, 0%, 0%)" fill-opacity="1" d="M 88.453125 28.347656 L 89.164062 28.347656 C 89.332031 28.347656 89.410156 28.347656 89.410156 28.179688 C 89.410156 28.089844 89.332031 28.089844 89.191406 28.089844 L 88.503906 28.089844 L 88.671875 27.144531 C 88.710938 26.976562 88.828125 26.394531 88.878906 26.292969 C 88.945312 26.136719 89.085938 26.007812 89.269531 26.007812 C 89.292969 26.007812 89.515625 26.007812 89.667969 26.164062 C 89.308594 26.191406 89.214844 26.488281 89.214844 26.601562 C 89.214844 26.796875 89.371094 26.898438 89.527344 26.898438 C 89.746094 26.898438 89.980469 26.707031 89.980469 26.394531 C 89.980469 26.023438 89.605469 25.828125 89.269531 25.828125 C 88.984375 25.828125 88.46875 25.984375 88.222656 26.796875 C 88.167969 26.964844 88.144531 27.054688 87.949219 28.089844 L 87.382812 28.089844 C 87.214844 28.089844 87.121094 28.089844 87.121094 28.246094 C 87.121094 28.347656 87.199219 28.347656 87.355469 28.347656 L 87.898438 28.347656 L 87.289062 31.605469 C 87.136719 32.40625 86.992188 33.15625 86.566406 33.15625 C 86.527344 33.15625 86.335938 33.15625 86.167969 33 C 86.554688 32.972656 86.632812 32.675781 86.632812 32.558594 C 86.632812 32.367188 86.476562 32.261719 86.320312 32.261719 C 86.101562 32.261719 85.871094 32.457031 85.871094 32.765625 C 85.871094 33.128906 86.230469 33.335938 86.566406 33.335938 C 87.019531 33.335938 87.355469 32.84375 87.496094 32.535156 C 87.769531 32.019531 87.949219 31.023438 87.964844 30.957031 Z M 88.453125 28.347656 "/>
<path fill-rule="nonzero" fill="rgb(0%, 0%, 0%)" fill-opacity="1" d="M 92.371094 31.832031 L 92.179688 31.832031 C 92.164062 31.960938 92.101562 32.296875 92.023438 32.347656 C 91.984375 32.386719 91.546875 32.386719 91.453125 32.386719 L 90.394531 32.386719 C 91.003906 31.859375 91.210938 31.691406 91.546875 31.417969 C 91.972656 31.082031 92.371094 30.71875 92.371094 30.175781 C 92.371094 29.480469 91.765625 29.054688 91.027344 29.054688 C 90.316406 29.054688 89.828125 29.558594 89.828125 30.085938 C 89.828125 30.371094 90.070312 30.410156 90.136719 30.410156 C 90.265625 30.410156 90.433594 30.308594 90.433594 30.101562 C 90.433594 29.996094 90.394531 29.789062 90.097656 29.789062 C 90.277344 29.390625 90.667969 29.261719 90.9375 29.261719 C 91.519531 29.261719 91.816406 29.710938 91.816406 30.175781 C 91.816406 30.683594 91.453125 31.070312 91.273438 31.277344 L 89.890625 32.660156 C 89.828125 32.710938 89.828125 32.722656 89.828125 32.878906 L 92.203125 32.878906 Z M 92.371094 31.832031 "/>
<path fill-rule="nonzero" fill="rgb(0%, 0%, 0%)" fill-opacity="1" d="M 127.667969 7.070312 L 128.378906 7.070312 C 128.546875 7.070312 128.625 7.070312 128.625 6.902344 C 128.625 6.8125 128.546875 6.8125 128.40625 6.8125 L 127.722656 6.8125 L 127.890625 5.867188 C 127.929688 5.699219 128.042969 5.117188 128.097656 5.015625 C 128.160156 4.859375 128.304688 4.730469 128.484375 4.730469 C 128.511719 4.730469 128.730469 4.730469 128.882812 4.886719 C 128.523438 4.910156 128.433594 5.207031 128.433594 5.324219 C 128.433594 5.519531 128.585938 5.621094 128.742188 5.621094 C 128.960938 5.621094 129.195312 5.429688 129.195312 5.117188 C 129.195312 4.742188 128.820312 4.550781 128.484375 4.550781 C 128.199219 4.550781 127.683594 4.703125 127.4375 5.519531 C 127.386719 5.6875 127.359375 5.777344 127.164062 6.8125 L 126.597656 6.8125 C 126.429688 6.8125 126.339844 6.8125 126.339844 6.964844 C 126.339844 7.070312 126.417969 7.070312 126.570312 7.070312 L 127.113281 7.070312 L 126.507812 10.324219 C 126.351562 11.125 126.210938 11.875 125.78125 11.875 C 125.746094 11.875 125.550781 11.875 125.382812 11.722656 C 125.769531 11.695312 125.847656 11.398438 125.847656 11.28125 C 125.847656 11.089844 125.691406 10.984375 125.539062 10.984375 C 125.316406 10.984375 125.085938 11.179688 125.085938 11.488281 C 125.085938 11.851562 125.445312 12.058594 125.78125 12.058594 C 126.234375 12.058594 126.570312 11.566406 126.714844 11.257812 C 126.984375 10.738281 127.164062 9.746094 127.179688 9.679688 Z M 127.667969 7.070312 "/>
<path fill-rule="nonzero" fill="rgb(0%, 0%, 0%)" fill-opacity="1" d="M 130.257812 9.675781 C 130.710938 9.675781 131.03125 9.984375 131.03125 10.605469 C 131.03125 11.316406 130.605469 11.535156 130.28125 11.535156 C 130.050781 11.535156 129.53125 11.472656 129.300781 11.121094 C 129.570312 11.121094 129.636719 10.929688 129.636719 10.800781 C 129.636719 10.617188 129.496094 10.488281 129.3125 10.488281 C 129.160156 10.488281 128.992188 10.59375 128.992188 10.824219 C 128.992188 11.367188 129.585938 11.714844 130.28125 11.714844 C 131.082031 11.714844 131.640625 11.171875 131.640625 10.605469 C 131.640625 10.152344 131.277344 9.699219 130.644531 9.570312 C 131.238281 9.351562 131.457031 8.925781 131.457031 8.5625 C 131.457031 8.109375 130.941406 7.773438 130.296875 7.773438 C 129.664062 7.773438 129.171875 8.085938 129.171875 8.550781 C 129.171875 8.746094 129.300781 8.847656 129.46875 8.847656 C 129.648438 8.847656 129.765625 8.71875 129.765625 8.5625 C 129.765625 8.394531 129.648438 8.265625 129.46875 8.253906 C 129.675781 8.007812 130.0625 7.941406 130.28125 7.941406 C 130.542969 7.941406 130.902344 8.070312 130.902344 8.5625 C 130.902344 8.808594 130.824219 9.082031 130.671875 9.25 C 130.488281 9.46875 130.320312 9.480469 130.039062 9.507812 C 129.894531 9.519531 129.882812 9.519531 129.855469 9.519531 C 129.84375 9.519531 129.792969 9.53125 129.792969 9.597656 C 129.792969 9.675781 129.84375 9.675781 129.945312 9.675781 Z M 130.257812 9.675781 "/>
<path fill="none" stroke-width="0.49145" stroke-linecap="butt" stroke-linejoin="miter" stroke="rgb(0%, 0%, 0%)" stroke-opacity="1" stroke-miterlimit="4" d="M 15.523438 0.796875 L 35.78125 0.796875 L 35.78125 15.8125 L 15.523438 15.8125 Z M 15.523438 0.796875 "/>
<path fill-rule="nonzero" fill="rgb(0%, 0%, 0%)" fill-opacity="1" d="M 57.597656 29.566406 C 57.597656 28.6875 56.863281 27.976562 56.007812 27.976562 C 55.117188 27.976562 54.394531 28.714844 54.394531 29.566406 C 54.394531 30.445312 55.117188 31.171875 56.007812 31.171875 C 56.863281 31.171875 57.597656 30.460938 57.597656 29.566406 Z M 57.597656 29.566406 "/>
<path fill-rule="nonzero" fill="rgb(0%, 0%, 0%)" fill-opacity="1" d="M 65.316406 29.734375 C 65.460938 29.734375 65.617188 29.734375 65.617188 29.566406 C 65.617188 29.414062 65.460938 29.414062 65.316406 29.414062 L 60.859375 29.414062 C 60.71875 29.414062 60.574219 29.414062 60.574219 29.566406 C 60.574219 29.734375 60.71875 29.734375 60.859375 29.734375 Z M 65.316406 29.734375 "/>
<path fill-rule="nonzero" fill="rgb(0%, 0%, 0%)" fill-opacity="1" d="M 71.785156 29.566406 C 71.785156 28.6875 71.050781 27.976562 70.195312 27.976562 C 69.304688 27.976562 68.582031 28.714844 68.582031 29.566406 C 68.582031 30.445312 69.304688 31.171875 70.195312 31.171875 C 71.050781 31.171875 71.785156 30.460938 71.785156 29.566406 Z M 71.785156 29.566406 "/>
<path fill="none" stroke-width="0.49145" stroke-linecap="butt" stroke-linejoin="miter" stroke="rgb(46.273804%, 52.940369%, 54.901123%)" stroke-opacity="1" stroke-miterlimit="4" d="M 114.292969 8.300781 L 119.179688 8.3125 "/>
<path fill-rule="evenodd" fill="rgb(46.273804%, 52.940369%, 54.901123%)" fill-opacity="1" stroke-width="0.262106" stroke-linecap="butt" stroke-linejoin="miter" stroke="rgb(46.273804%, 52.940369%, 54.901123%)" stroke-opacity="1" stroke-miterlimit="4" d="M -117.236622 -7.989001 L -116.251021 -8.972156 L -119.693646 -7.986209 L -116.253467 -7.0034 Z M -117.236622 -7.989001 " transform="matrix(-1, -0.00272605, 0.00272605, -1, 0, 0)"/>
<path fill="none" stroke-width="0.49145" stroke-linecap="butt" stroke-linejoin="miter" stroke="rgb(46.273804%, 52.940369%, 54.901123%)" stroke-opacity="1" stroke-miterlimit="4" d="M 136.519531 8.300781 L 141.40625 8.3125 "/>
<path fill-rule="evenodd" fill="rgb(46.273804%, 52.940369%, 54.901123%)" fill-opacity="1" stroke-width="0.262106" stroke-linecap="butt" stroke-linejoin="miter" stroke="rgb(46.273804%, 52.940369%, 54.901123%)" stroke-opacity="1" stroke-miterlimit="4" d="M -139.459113 -7.928421 L -138.477418 -8.911566 L -141.916137 -7.92563 L -138.475958 -6.94282 Z M -139.459113 -7.928421 " transform="matrix(-1, -0.00272605, 0.00272605, -1, 0, 0)"/>
<path fill="none" stroke-width="0.49145" stroke-linecap="butt" stroke-linejoin="miter" stroke="rgb(46.273804%, 52.940369%, 54.901123%)" stroke-opacity="1" stroke-miterlimit="4" d="M 162.773438 8.296875 L 168.324219 8.3125 "/>
<path fill-rule="evenodd" fill="rgb(46.273804%, 52.940369%, 54.901123%)" fill-opacity="1" stroke-width="0.262106" stroke-linecap="butt" stroke-linejoin="miter" stroke="rgb(46.273804%, 52.940369%, 54.901123%)" stroke-opacity="1" stroke-miterlimit="4" d="M -166.378362 -7.909183 L -165.396346 -8.892009 L -168.835388 -7.90719 L -165.395526 -6.923261 Z M -166.378362 -7.909183 " transform="matrix(-1, -0.00240062, 0.00240062, -1, 0, 0)"/>
<path fill="none" stroke-width="0.49145" stroke-linecap="butt" stroke-linejoin="miter" stroke="rgb(46.273804%, 52.940369%, 54.901123%)" stroke-opacity="1" stroke-miterlimit="4" d="M 185.738281 8.296875 L 191.171875 8.3125 "/>
<path fill-rule="evenodd" fill="rgb(46.273804%, 52.940369%, 54.901123%)" fill-opacity="1" stroke-width="0.262106" stroke-linecap="butt" stroke-linejoin="miter" stroke="rgb(46.273804%, 52.940369%, 54.901123%)" stroke-opacity="1" stroke-miterlimit="4" d="M -189.226265 -7.844632 L -188.2443 -8.827508 L -191.683291 -7.842514 L -188.243379 -6.85876 Z M -189.226265 -7.844632 " transform="matrix(-1, -0.00245189, 0.00245189, -1, 0, 0)"/>
<path fill-rule="nonzero" fill="rgb(0%, 0%, 0%)" fill-opacity="1" d="M 197.679688 11.558594 L 196.234375 8.355469 C 196.167969 8.226562 196.128906 8.226562 196.105469 8.226562 C 196.105469 8.226562 196.050781 8.226562 195.960938 8.289062 L 195.1875 8.886719 C 195.082031 8.976562 195.082031 8.988281 195.082031 9.015625 C 195.082031 9.066406 195.09375 9.105469 195.160156 9.105469 C 195.210938 9.105469 195.355469 8.988281 195.445312 8.921875 C 195.484375 8.886719 195.613281 8.792969 195.703125 8.730469 L 197.332031 12.296875 C 197.382812 12.425781 197.421875 12.425781 197.5 12.425781 C 197.628906 12.425781 197.65625 12.386719 197.707031 12.269531 L 201.453125 4.515625 C 201.503906 4.402344 201.503906 4.375 201.503906 4.347656 C 201.503906 4.269531 201.441406 4.179688 201.335938 4.179688 C 201.273438 4.179688 201.222656 4.234375 201.15625 4.363281 Z M 197.679688 11.558594 "/>
<path fill="none" stroke-width="0.329171" stroke-linecap="butt" stroke-linejoin="miter" stroke="rgb(0%, 0%, 0%)" stroke-opacity="1" stroke-miterlimit="10" d="M 201.34375 -4.351562 L 218.878906 -4.351562 " transform="matrix(1, 0, 0, -1, 0, 0)"/>
<path fill-rule="nonzero" fill="rgb(0%, 0%, 0%)" fill-opacity="1" d="M 205 8.671875 C 205 7.792969 204.261719 7.082031 203.410156 7.082031 C 202.519531 7.082031 201.792969 7.816406 201.792969 8.671875 C 201.792969 9.550781 202.519531 10.273438 203.410156 10.273438 C 204.261719 10.273438 205 9.5625 205 8.671875 Z M 205 8.671875 "/>
<path fill-rule="nonzero" fill="rgb(0%, 0%, 0%)" fill-opacity="1" d="M 210.667969 8.839844 L 212.964844 8.839844 C 213.082031 8.839844 213.238281 8.839844 213.238281 8.671875 C 213.238281 8.515625 213.082031 8.515625 212.964844 8.515625 L 210.667969 8.515625 L 210.667969 6.203125 C 210.667969 6.085938 210.667969 5.929688 210.496094 5.929688 C 210.328125 5.929688 210.328125 6.085938 210.328125 6.203125 L 210.328125 8.515625 L 208.03125 8.515625 C 207.914062 8.515625 207.757812 8.515625 207.757812 8.671875 C 207.757812 8.839844 207.914062 8.839844 208.03125 8.839844 L 210.328125 8.839844 L 210.328125 11.152344 C 210.328125 11.269531 210.328125 11.421875 210.496094 11.421875 C 210.667969 11.421875 210.667969 11.269531 210.667969 11.152344 Z M 210.667969 8.839844 "/>
<path fill-rule="nonzero" fill="rgb(0%, 0%, 0%)" fill-opacity="1" d="M 217.988281 8.878906 C 218.117188 8.878906 218.273438 8.878906 218.273438 8.734375 C 218.273438 8.617188 218.167969 8.617188 218.027344 8.617188 L 216.695312 8.617188 C 216.890625 7.921875 217.355469 7.441406 218.105469 7.441406 L 218.363281 7.441406 C 218.503906 7.441406 218.632812 7.441406 218.632812 7.300781 C 218.632812 7.183594 218.53125 7.183594 218.386719 7.183594 L 218.089844 7.183594 C 217.019531 7.183594 215.921875 8.011719 215.921875 9.265625 C 215.921875 10.183594 216.539062 10.828125 217.40625 10.828125 C 217.949219 10.828125 218.480469 10.492188 218.480469 10.402344 C 218.480469 10.390625 218.480469 10.296875 218.402344 10.296875 C 218.386719 10.296875 218.363281 10.296875 218.296875 10.335938 C 218.039062 10.503906 217.730469 10.648438 217.433594 10.648438 C 216.953125 10.648438 216.539062 10.296875 216.539062 9.574219 C 216.539062 9.289062 216.605469 8.96875 216.628906 8.878906 Z M 217.988281 8.878906 "/>
<path fill="none" stroke-width="0.49145" stroke-linecap="butt" stroke-linejoin="miter" stroke="rgb(46.273804%, 52.940369%, 54.901123%)" stroke-opacity="1" stroke-miterlimit="4" d="M 243.820312 8.296875 L 249.253906 8.3125 "/>
<path fill-rule="evenodd" fill="rgb(46.273804%, 52.940369%, 54.901123%)" fill-opacity="1" stroke-width="0.262106" stroke-linecap="butt" stroke-linejoin="miter" stroke="rgb(46.273804%, 52.940369%, 54.901123%)" stroke-opacity="1" stroke-miterlimit="4" d="M -247.307948 -7.702219 L -246.325982 -8.685096 L -249.764974 -7.700101 L -246.325062 -6.716348 Z M -247.307948 -7.702219 " transform="matrix(-1, -0.0024519, 0.0024519, -1, 0, 0)"/>
<path fill="none" stroke-width="0.49145" stroke-linecap="butt" stroke-linejoin="miter" stroke="rgb(46.273804%, 52.940369%, 54.901123%)" stroke-opacity="1" stroke-miterlimit="4" d="M 221.648438 8.296875 L 227.082031 8.3125 "/>
<path fill-rule="evenodd" fill="rgb(46.273804%, 52.940369%, 54.901123%)" fill-opacity="1" stroke-width="0.262106" stroke-linecap="butt" stroke-linejoin="miter" stroke="rgb(46.273804%, 52.940369%, 54.901123%)" stroke-opacity="1" stroke-miterlimit="4" d="M -225.136206 -7.756582 L -224.154241 -8.739459 L -227.593232 -7.754464 L -224.15332 -6.770711 Z M -225.136206 -7.756582 " transform="matrix(-1, -0.0024519, 0.0024519, -1, 0, 0)"/>
<path fill-rule="nonzero" fill="rgb(0%, 0%, 0%)" fill-opacity="1" d="M 257.386719 3.605469 C 257.386719 3.453125 257.386719 3.453125 257.21875 3.453125 C 256.84375 3.8125 256.324219 3.8125 256.09375 3.8125 L 256.09375 4.019531 C 256.222656 4.019531 256.609375 4.019531 256.917969 3.863281 L 256.917969 6.796875 C 256.917969 6.992188 256.917969 7.070312 256.351562 7.070312 L 256.132812 7.070312 L 256.132812 7.277344 C 256.234375 7.277344 256.945312 7.25 257.152344 7.25 C 257.332031 7.25 258.058594 7.277344 258.1875 7.277344 L 258.1875 7.070312 L 257.964844 7.070312 C 257.386719 7.070312 257.386719 6.992188 257.386719 6.796875 Z M 257.386719 3.605469 "/>
<path fill="none" stroke-width="0.329171" stroke-linecap="butt" stroke-linejoin="miter" stroke="rgb(0%, 0%, 0%)" stroke-opacity="1" stroke-miterlimit="10" d="M 255.414062 -8.460938 L 258.789062 -8.460938 " transform="matrix(1, 0, 0, -1, 0, 0)"/>
<path fill-rule="nonzero" fill="rgb(0%, 0%, 0%)" fill-opacity="1" d="M 258.335938 11.925781 C 258.335938 11.230469 257.777344 10.6875 257.09375 10.6875 C 256.410156 10.6875 255.851562 11.242188 255.851562 11.914062 C 255.851562 12.613281 256.421875 13.15625 257.09375 13.15625 C 257.792969 13.15625 258.335938 12.597656 258.335938 11.925781 Z M 258.335938 11.925781 "/>
<path fill="none" stroke-width="0.49145" stroke-linecap="butt" stroke-linejoin="miter" stroke="rgb(46.273804%, 52.940369%, 54.901123%)" stroke-opacity="1" stroke-miterlimit="4" d="M 264.117188 8.296875 L 269.550781 8.3125 "/>
<path fill-rule="evenodd" fill="rgb(46.273804%, 52.940369%, 54.901123%)" fill-opacity="1" stroke-width="0.262106" stroke-linecap="butt" stroke-linejoin="miter" stroke="rgb(46.273804%, 52.940369%, 54.901123%)" stroke-opacity="1" stroke-miterlimit="4" d="M -267.604701 -7.652454 L -266.622735 -8.63533 L -270.061727 -7.650336 L -266.621815 -6.666582 Z M -267.604701 -7.652454 " transform="matrix(-1, -0.0024519, 0.0024519, -1, 0, 0)"/>
<path fill-rule="nonzero" fill="rgb(0%, 0%, 0%)" fill-opacity="1" d="M 278.0625 7.070312 L 278.773438 7.070312 C 278.941406 7.070312 279.019531 7.070312 279.019531 6.902344 C 279.019531 6.8125 278.941406 6.8125 278.796875 6.8125 L 278.113281 6.8125 L 278.28125 5.867188 C 278.320312 5.699219 278.4375 5.117188 278.488281 5.015625 C 278.554688 4.859375 278.695312 4.730469 278.875 4.730469 C 278.902344 4.730469 279.121094 4.730469 279.277344 4.886719 C 278.914062 4.910156 278.824219 5.207031 278.824219 5.324219 C 278.824219 5.519531 278.980469 5.621094 279.132812 5.621094 C 279.355469 5.621094 279.585938 5.429688 279.585938 5.117188 C 279.585938 4.742188 279.210938 4.550781 278.875 4.550781 C 278.589844 4.550781 278.074219 4.703125 277.828125 5.519531 C 277.777344 5.6875 277.75 5.777344 277.558594 6.8125 L 276.988281 6.8125 C 276.820312 6.8125 276.730469 6.8125 276.730469 6.964844 C 276.730469 7.070312 276.808594 7.070312 276.964844 7.070312 L 277.507812 7.070312 L 276.898438 10.324219 C 276.742188 11.125 276.601562 11.875 276.175781 11.875 C 276.136719 11.875 275.941406 11.875 275.773438 11.722656 C 276.164062 11.695312 276.238281 11.398438 276.238281 11.28125 C 276.238281 11.089844 276.085938 10.984375 275.929688 10.984375 C 275.710938 10.984375 275.476562 11.179688 275.476562 11.488281 C 275.476562 11.851562 275.839844 12.058594 276.175781 12.058594 C 276.628906 12.058594 276.964844 11.566406 277.105469 11.257812 C 277.378906 10.738281 277.558594 9.746094 277.570312 9.679688 Z M 278.0625 7.070312 "/>
<path fill-rule="nonzero" fill="rgb(0%, 0%, 0%)" fill-opacity="1" d="M 279.9375 9.714844 C 279.9375 9.25 279.976562 8.820312 280.195312 8.460938 C 280.390625 8.148438 280.699219 7.941406 281.074219 7.941406 C 281.242188 7.941406 281.476562 7.980469 281.59375 8.136719 C 281.449219 8.148438 281.320312 8.253906 281.320312 8.421875 C 281.320312 8.5625 281.425781 8.691406 281.59375 8.691406 C 281.773438 8.691406 281.875 8.574219 281.875 8.40625 C 281.875 8.070312 281.632812 7.773438 281.0625 7.773438 C 280.234375 7.773438 279.382812 8.539062 279.382812 9.777344 C 279.382812 11.265625 280.082031 11.714844 280.726562 11.714844 C 281.425781 11.714844 282.03125 11.171875 282.03125 10.425781 C 282.03125 9.6875 281.449219 9.144531 280.777344 9.144531 C 280.3125 9.144531 280.066406 9.453125 279.9375 9.714844 Z M 280.726562 11.535156 C 280.429688 11.535156 280.210938 11.367188 280.082031 11.109375 C 280.003906 10.941406 279.949219 10.644531 279.949219 10.308594 C 279.949219 9.738281 280.289062 9.3125 280.753906 9.3125 C 281.011719 9.3125 281.191406 9.417969 281.332031 9.621094 C 281.476562 9.84375 281.476562 10.089844 281.476562 10.425781 C 281.476562 10.746094 281.476562 10.992188 281.320312 11.226562 C 281.191406 11.417969 280.996094 11.535156 280.726562 11.535156 Z M 280.726562 11.535156 "/>
<path fill="none" stroke-width="0.49145" stroke-linecap="butt" stroke-linejoin="miter" stroke="rgb(46.273804%, 52.940369%, 54.901123%)" stroke-opacity="1" stroke-miterlimit="4" d="M 304.261719 29.578125 L 309.148438 29.589844 "/>
<path fill-rule="evenodd" fill="rgb(46.273804%, 52.940369%, 54.901123%)" fill-opacity="1" stroke-width="0.262106" stroke-linecap="butt" stroke-linejoin="miter" stroke="rgb(46.273804%, 52.940369%, 54.901123%)" stroke-opacity="1" stroke-miterlimit="4" d="M -307.261963 -28.748323 L -306.280269 -29.731468 L -309.718998 -28.749437 L -306.278818 -27.766628 Z M -307.261963 -28.748323 " transform="matrix(-1, -0.00272606, 0.00272606, -1, 0, 0)"/>
<g clip-path="url(#clip-2)">
<path fill="none" stroke-width="0.49145" stroke-linecap="butt" stroke-linejoin="miter" stroke="rgb(0%, 0%, 0%)" stroke-opacity="1" stroke-miterlimit="4" d="M 279.742188 22.066406 L 304.03125 22.066406 L 304.03125 37.082031 L 279.742188 37.082031 Z M 279.742188 22.066406 "/>
</g>
<path fill-rule="nonzero" fill="rgb(0%, 0%, 0%)" fill-opacity="1" d="M 286.394531 29.566406 C 286.394531 28.6875 285.65625 27.976562 284.804688 27.976562 C 283.914062 27.976562 283.191406 28.714844 283.191406 29.566406 C 283.191406 30.445312 283.914062 31.171875 284.804688 31.171875 C 285.65625 31.171875 286.394531 30.460938 286.394531 29.566406 Z M 286.394531 29.566406 "/>
<path fill-rule="nonzero" fill="rgb(0%, 0%, 0%)" fill-opacity="1" d="M 291.890625 29.347656 L 290.25 27.707031 C 290.148438 27.605469 290.132812 27.589844 290.070312 27.589844 C 289.980469 27.589844 289.902344 27.65625 289.902344 27.757812 C 289.902344 27.808594 289.914062 27.824219 290.003906 27.914062 L 291.660156 29.566406 L 290.003906 31.234375 C 289.914062 31.324219 289.902344 31.339844 289.902344 31.390625 C 289.902344 31.492188 289.980469 31.558594 290.070312 31.558594 C 290.132812 31.558594 290.148438 31.546875 290.25 31.441406 L 291.890625 29.800781 L 293.597656 31.507812 C 293.609375 31.519531 293.660156 31.558594 293.714844 31.558594 C 293.816406 31.558594 293.882812 31.492188 293.882812 31.390625 C 293.882812 31.378906 293.882812 31.351562 293.855469 31.300781 C 293.84375 31.285156 292.539062 29.996094 292.125 29.566406 L 293.636719 28.070312 C 293.675781 28.015625 293.804688 27.914062 293.84375 27.863281 C 293.84375 27.847656 293.882812 27.808594 293.882812 27.757812 C 293.882812 27.65625 293.816406 27.589844 293.714844 27.589844 C 293.648438 27.589844 293.621094 27.617188 293.53125 27.707031 Z M 291.890625 29.347656 "/>
<path fill-rule="nonzero" fill="rgb(0%, 0%, 0%)" fill-opacity="1" d="M 300.582031 29.566406 C 300.582031 28.6875 299.84375 27.976562 298.992188 27.976562 C 298.101562 27.976562 297.375 28.714844 297.375 29.566406 C 297.375 30.445312 298.101562 31.171875 298.992188 31.171875 C 299.84375 31.171875 300.582031 30.460938 300.582031 29.566406 Z M 300.582031 29.566406 "/>
<path fill-rule="nonzero" fill="rgb(0%, 0%, 0%)" fill-opacity="1" d="M 317.363281 28.347656 L 318.074219 28.347656 C 318.242188 28.347656 318.320312 28.347656 318.320312 28.179688 C 318.320312 28.089844 318.242188 28.089844 318.097656 28.089844 L 317.414062 28.089844 L 317.582031 27.144531 C 317.621094 26.976562 317.738281 26.394531 317.789062 26.292969 C 317.851562 26.136719 317.996094 26.007812 318.175781 26.007812 C 318.203125 26.007812 318.421875 26.007812 318.578125 26.164062 C 318.214844 26.191406 318.125 26.488281 318.125 26.601562 C 318.125 26.796875 318.28125 26.898438 318.433594 26.898438 C 318.65625 26.898438 318.886719 26.707031 318.886719 26.394531 C 318.886719 26.023438 318.511719 25.828125 318.175781 25.828125 C 317.890625 25.828125 317.375 25.984375 317.128906 26.796875 C 317.078125 26.964844 317.050781 27.054688 316.859375 28.089844 L 316.289062 28.089844 C 316.121094 28.089844 316.03125 28.089844 316.03125 28.246094 C 316.03125 28.347656 316.109375 28.347656 316.265625 28.347656 L 316.804688 28.347656 L 316.199219 31.605469 C 316.042969 32.40625 315.902344 33.15625 315.476562 33.15625 C 315.4375 33.15625 315.242188 33.15625 315.074219 33 C 315.460938 32.972656 315.539062 32.675781 315.539062 32.558594 C 315.539062 32.367188 315.386719 32.261719 315.230469 32.261719 C 315.011719 32.261719 314.777344 32.457031 314.777344 32.765625 C 314.777344 33.128906 315.140625 33.335938 315.476562 33.335938 C 315.925781 33.335938 316.265625 32.84375 316.40625 32.535156 C 316.675781 32.019531 316.859375 31.023438 316.871094 30.957031 Z M 317.363281 28.347656 "/>
<path fill-rule="nonzero" fill="rgb(0%, 0%, 0%)" fill-opacity="1" d="M 321.460938 29.402344 C 321.511719 29.324219 321.511719 29.3125 321.511719 29.167969 L 320 29.167969 C 319.769531 29.167969 319.703125 29.15625 319.496094 29.144531 C 319.199219 29.117188 319.1875 29.078125 319.175781 28.988281 L 318.980469 28.988281 L 318.773438 30.214844 L 318.96875 30.214844 C 318.980469 30.125 319.042969 29.75 319.136719 29.6875 C 319.175781 29.660156 319.652344 29.660156 319.730469 29.660156 L 320.984375 29.660156 C 320.800781 29.894531 320.503906 30.253906 320.386719 30.421875 C 319.640625 31.40625 319.5625 32.324219 319.5625 32.660156 C 319.5625 32.722656 319.5625 32.996094 319.832031 32.996094 C 320.117188 32.996094 320.117188 32.738281 320.117188 32.660156 L 320.117188 32.425781 C 320.117188 31.316406 320.351562 30.796875 320.59375 30.488281 Z M 321.460938 29.402344 "/>
<path fill="none" stroke-width="0.49145" stroke-linecap="butt" stroke-linejoin="miter" stroke="rgb(46.273804%, 52.940369%, 54.901123%)" stroke-opacity="1" stroke-miterlimit="4" d="M 97.277344 29.578125 L 278.554688 29.589844 "/>
<path fill-rule="evenodd" fill="rgb(46.273804%, 52.940369%, 54.901123%)" fill-opacity="1" stroke-width="0.262107" stroke-linecap="butt" stroke-linejoin="miter" stroke="rgb(46.273804%, 52.940369%, 54.901123%)" stroke-opacity="1" stroke-miterlimit="4" d="M -276.588111 -29.569516 L -275.607714 -30.553963 L -279.045142 -29.569335 L -275.60757 -28.589119 Z M -276.588111 -29.569516 " transform="matrix(-1, -0.0000734947, 0.0000734947, -1, 0, 0)"/>
<path fill="none" stroke-width="0.49145" stroke-linecap="butt" stroke-linejoin="miter" stroke="rgb(46.273804%, 52.940369%, 54.901123%)" stroke-opacity="1" stroke-miterlimit="4" d="M 367.898438 29.578125 L 372.785156 29.589844 "/>
<path fill-rule="evenodd" fill="rgb(46.273804%, 52.940369%, 54.901123%)" fill-opacity="1" stroke-width="0.262106" stroke-linecap="butt" stroke-linejoin="miter" stroke="rgb(46.273804%, 52.940369%, 54.901123%)" stroke-opacity="1" stroke-miterlimit="4" d="M -370.898209 -28.574847 L -369.912608 -29.558002 L -373.355244 -28.575961 L -369.915064 -27.593152 Z M -370.898209 -28.574847 " transform="matrix(-1, -0.00272606, 0.00272606, -1, 0, 0)"/>
<g clip-path="url(#clip-3)">
<path fill="none" stroke-width="0.49145" stroke-linecap="butt" stroke-linejoin="miter" stroke="rgb(0%, 0%, 0%)" stroke-opacity="1" stroke-miterlimit="4" d="M 331.984375 22.066406 L 367.671875 22.066406 L 367.671875 37.082031 L 331.984375 37.082031 Z M 331.984375 22.066406 "/>
</g>
<g clip-path="url(#clip-4)">
<path fill="none" stroke-width="0.491606" stroke-linecap="butt" stroke-linejoin="miter" stroke="rgb(0%, 0%, 0%)" stroke-opacity="1" stroke-miterlimit="4" d="M 389.921875 29.582031 C 389.921875 34.03125 386.316406 37.640625 381.863281 37.640625 C 377.414062 37.640625 373.808594 34.03125 373.808594 29.582031 C 373.808594 25.132812 377.414062 21.523438 381.863281 21.523438 C 386.316406 21.523438 389.921875 25.132812 389.921875 29.582031 Z M 389.921875 29.582031 "/>
</g>
<path fill="none" stroke-width="0.49145" stroke-linecap="butt" stroke-linejoin="miter" stroke="rgb(46.273804%, 52.940369%, 54.901123%)" stroke-opacity="1" stroke-miterlimit="4" d="M 326.015625 29.578125 L 330.902344 29.589844 "/>
<path fill-rule="evenodd" fill="rgb(46.273804%, 52.940369%, 54.901123%)" fill-opacity="1" stroke-width="0.262106" stroke-linecap="butt" stroke-linejoin="miter" stroke="rgb(46.273804%, 52.940369%, 54.901123%)" stroke-opacity="1" stroke-miterlimit="4" d="M -329.011802 -28.689032 L -328.030107 -29.672176 L -331.468836 -28.690146 L -328.028657 -27.707337 Z M -329.011802 -28.689032 " transform="matrix(-1, -0.00272606, 0.00272606, -1, 0, 0)"/>
<path fill-rule="nonzero" fill="rgb(0%, 0%, 0%)" fill-opacity="1" d="M 336.515625 29.554688 C 336.515625 28.675781 335.777344 27.964844 334.925781 27.964844 C 334.035156 27.964844 333.308594 28.703125 333.308594 29.554688 C 333.308594 30.433594 334.035156 31.15625 334.925781 31.15625 C 335.777344 31.15625 336.515625 30.445312 336.515625 29.554688 Z M 336.515625 29.554688 "/>
<path fill-rule="nonzero" fill="rgb(0%, 0%, 0%)" fill-opacity="1" d="M 342.011719 29.335938 L 340.371094 27.695312 C 340.265625 27.589844 340.253906 27.578125 340.191406 27.578125 C 340.097656 27.578125 340.023438 27.640625 340.023438 27.746094 C 340.023438 27.796875 340.035156 27.808594 340.125 27.902344 L 341.777344 29.554688 L 340.125 31.222656 C 340.035156 31.3125 340.023438 31.324219 340.023438 31.378906 C 340.023438 31.480469 340.097656 31.546875 340.191406 31.546875 C 340.253906 31.546875 340.265625 31.53125 340.371094 31.429688 L 342.011719 29.789062 L 343.71875 31.492188 C 343.730469 31.507812 343.78125 31.546875 343.832031 31.546875 C 343.9375 31.546875 344 31.480469 344 31.378906 C 344 31.363281 344 31.339844 343.976562 31.285156 C 343.964844 31.273438 342.65625 29.980469 342.246094 29.554688 L 343.757812 28.054688 C 343.796875 28.003906 343.925781 27.902344 343.964844 27.847656 C 343.964844 27.835938 344 27.796875 344 27.746094 C 344 27.640625 343.9375 27.578125 343.832031 27.578125 C 343.769531 27.578125 343.742188 27.605469 343.652344 27.695312 Z M 342.011719 29.335938 "/>
<path fill-rule="nonzero" fill="rgb(0%, 0%, 0%)" fill-opacity="1" d="M 347.382812 29.527344 C 347.707031 28.585938 348.613281 28.574219 348.703125 28.574219 C 349.941406 28.574219 350.035156 30.019531 350.035156 30.667969 C 350.035156 31.171875 349.996094 31.3125 349.929688 31.480469 C 349.75 32.074219 349.503906 33.03125 349.503906 33.25 C 349.503906 33.339844 349.542969 33.394531 349.605469 33.394531 C 349.722656 33.394531 349.789062 33.210938 349.878906 32.902344 C 350.074219 32.203125 350.148438 31.738281 350.175781 31.480469 C 350.203125 31.378906 350.214844 31.273438 350.253906 31.15625 C 350.511719 30.34375 351.042969 29.117188 351.363281 28.46875 C 351.429688 28.367188 351.519531 28.183594 351.519531 28.148438 C 351.519531 28.070312 351.441406 28.070312 351.429688 28.070312 C 351.402344 28.070312 351.351562 28.070312 351.324219 28.121094 C 350.898438 28.910156 350.5625 29.734375 350.242188 30.5625 C 350.226562 30.316406 350.226562 29.683594 349.90625 28.882812 C 349.699219 28.378906 349.375 27.976562 348.804688 27.976562 C 347.773438 27.976562 347.191406 29.230469 347.191406 29.492188 C 347.191406 29.566406 347.269531 29.566406 347.359375 29.566406 Z M 347.382812 29.527344 "/>
<path fill-rule="nonzero" fill="rgb(0%, 0%, 0%)" fill-opacity="1" d="M 356.976562 29.722656 L 359.277344 29.722656 C 359.390625 29.722656 359.546875 29.722656 359.546875 29.554688 C 359.546875 29.398438 359.390625 29.398438 359.277344 29.398438 L 356.976562 29.398438 L 356.976562 27.085938 C 356.976562 26.96875 356.976562 26.816406 356.808594 26.816406 C 356.640625 26.816406 356.640625 26.96875 356.640625 27.085938 L 356.640625 29.398438 L 354.339844 29.398438 C 354.222656 29.398438 354.066406 29.398438 354.066406 29.554688 C 354.066406 29.722656 354.222656 29.722656 354.339844 29.722656 L 356.640625 29.722656 L 356.640625 32.035156 C 356.640625 32.152344 356.640625 32.308594 356.808594 32.308594 C 356.976562 32.308594 356.976562 32.152344 356.976562 32.035156 Z M 356.976562 29.722656 "/>
<path fill-rule="nonzero" fill="rgb(0%, 0%, 0%)" fill-opacity="1" d="M 364.015625 28.015625 C 362.992188 28.261719 362.191406 29.335938 362.191406 30.332031 C 362.191406 31.132812 362.722656 31.726562 363.496094 31.726562 C 364.453125 31.726562 365.136719 30.421875 365.136719 29.285156 C 365.136719 28.535156 364.816406 28.121094 364.53125 27.757812 C 364.234375 27.382812 363.742188 26.765625 363.742188 26.402344 C 363.742188 26.222656 363.910156 26.027344 364.195312 26.027344 C 364.453125 26.027344 364.609375 26.128906 364.789062 26.246094 C 364.957031 26.351562 365.113281 26.453125 365.242188 26.453125 C 365.449219 26.453125 365.566406 26.261719 365.566406 26.117188 C 365.566406 25.9375 365.433594 25.921875 365.136719 25.847656 C 364.710938 25.753906 364.59375 25.753906 364.464844 25.753906 C 363.820312 25.753906 363.523438 26.117188 363.523438 26.609375 C 363.523438 27.0625 363.769531 27.511719 364.015625 28.015625 Z M 364.117188 28.199219 C 364.324219 28.585938 364.570312 29.023438 364.570312 29.621094 C 364.570312 30.164062 364.257812 31.546875 363.496094 31.546875 C 363.042969 31.546875 362.695312 31.195312 362.695312 30.5625 C 362.695312 30.046875 363.007812 28.496094 364.117188 28.199219 Z M 364.117188 28.199219 "/>
<path fill-rule="nonzero" fill="rgb(0%, 0%, 0%)" fill-opacity="1" d="M 379.832031 30.902344 C 380.273438 30.425781 380.515625 30.21875 380.8125 29.960938 C 380.8125 29.960938 381.320312 29.519531 381.617188 29.222656 C 382.402344 28.460938 382.585938 28.058594 382.585938 28.019531 C 382.585938 27.945312 382.507812 27.945312 382.496094 27.945312 C 382.429688 27.945312 382.417969 27.957031 382.363281 28.035156 C 382.121094 28.433594 381.953125 28.5625 381.757812 28.5625 C 381.550781 28.5625 381.460938 28.433594 381.332031 28.292969 C 381.175781 28.113281 381.035156 27.945312 380.761719 27.945312 C 380.140625 27.945312 379.769531 28.707031 379.769531 28.886719 C 379.769531 28.925781 379.792969 28.976562 379.859375 28.976562 C 379.9375 28.976562 379.949219 28.9375 379.972656 28.886719 C 380.128906 28.5 380.609375 28.5 380.671875 28.5 C 380.839844 28.5 380.996094 28.550781 381.1875 28.617188 C 381.523438 28.746094 381.617188 28.746094 381.824219 28.746094 C 381.523438 29.09375 380.839844 29.6875 380.683594 29.816406 L 379.9375 30.515625 C 379.378906 31.070312 379.082031 31.535156 379.082031 31.601562 C 379.082031 31.679688 379.171875 31.679688 379.1875 31.679688 C 379.25 31.679688 379.261719 31.664062 379.316406 31.574219 C 379.507812 31.277344 379.753906 31.058594 380.027344 31.058594 C 380.207031 31.058594 380.296875 31.136719 380.503906 31.367188 C 380.632812 31.550781 380.789062 31.679688 381.019531 31.679688 C 381.847656 31.679688 382.328125 30.632812 382.328125 30.410156 C 382.328125 30.375 382.289062 30.320312 382.222656 30.320312 C 382.144531 30.320312 382.132812 30.375 382.105469 30.4375 C 381.914062 30.96875 381.382812 31.121094 381.113281 31.121094 C 380.957031 31.121094 380.800781 31.070312 380.632812 31.019531 C 380.347656 30.914062 380.21875 30.878906 380.050781 30.878906 C 380.039062 30.878906 379.910156 30.878906 379.832031 30.902344 Z M 379.832031 30.902344 "/>
<path fill-rule="nonzero" fill="rgb(0%, 0%, 0%)" fill-opacity="1" d="M 384.597656 25.871094 C 384.648438 25.78125 384.648438 25.726562 384.648438 25.691406 C 384.648438 25.507812 384.492188 25.378906 384.3125 25.378906 C 384.089844 25.378906 384.027344 25.558594 384 25.652344 L 383.238281 28.144531 C 383.226562 28.15625 383.199219 28.222656 383.199219 28.234375 C 383.199219 28.300781 383.382812 28.363281 383.433594 28.363281 C 383.472656 28.363281 383.472656 28.351562 383.511719 28.261719 Z M 384.597656 25.871094 "/>
<path fill-rule="nonzero" fill="rgb(0%, 0%, 0%)" fill-opacity="1" d="M 384.4375 30.125 C 384.4375 30.035156 384.363281 29.90625 384.207031 29.90625 C 384.050781 29.90625 383.882812 30.0625 383.882812 30.230469 C 383.882812 30.320312 383.949219 30.449219 384.117188 30.449219 C 384.269531 30.449219 384.4375 30.28125 384.4375 30.125 Z M 383.261719 33.058594 C 383.238281 33.136719 383.210938 33.203125 383.210938 33.304688 C 383.210938 33.578125 383.429688 33.785156 383.753906 33.785156 C 384.324219 33.785156 384.582031 32.996094 384.582031 32.90625 C 384.582031 32.828125 384.503906 32.828125 384.492188 32.828125 C 384.414062 32.828125 384.402344 32.867188 384.375 32.929688 C 384.246094 33.394531 384 33.628906 383.765625 33.628906 C 383.652344 33.628906 383.625 33.550781 383.625 33.421875 C 383.625 33.292969 383.664062 33.191406 383.714844 33.058594 C 383.78125 32.90625 383.84375 32.75 383.898438 32.59375 C 383.949219 32.453125 384.167969 31.9375 384.179688 31.859375 C 384.207031 31.808594 384.21875 31.742188 384.21875 31.675781 C 384.21875 31.40625 383.988281 31.1875 383.675781 31.1875 C 383.09375 31.1875 382.835938 31.976562 382.835938 32.078125 C 382.835938 32.144531 382.914062 32.144531 382.941406 32.144531 C 383.019531 32.144531 383.019531 32.117188 383.042969 32.050781 C 383.1875 31.5625 383.445312 31.355469 383.652344 31.355469 C 383.742188 31.355469 383.792969 31.394531 383.792969 31.546875 C 383.792969 31.691406 383.765625 31.769531 383.625 32.128906 Z M 383.261719 33.058594 "/>
<path fill-rule="nonzero" fill="rgb(0%, 0%, 0%)" fill-opacity="1" d="M 6.304688 30.066406 C 6.742188 29.589844 6.988281 29.382812 7.285156 29.125 C 7.285156 29.125 7.789062 28.683594 8.085938 28.386719 C 8.875 27.625 9.054688 27.226562 9.054688 27.1875 C 9.054688 27.109375 8.976562 27.109375 8.964844 27.109375 C 8.902344 27.109375 8.886719 27.121094 8.835938 27.199219 C 8.589844 27.601562 8.421875 27.730469 8.230469 27.730469 C 8.023438 27.730469 7.933594 27.601562 7.800781 27.457031 C 7.648438 27.277344 7.503906 27.109375 7.234375 27.109375 C 6.613281 27.109375 6.238281 27.871094 6.238281 28.050781 C 6.238281 28.089844 6.265625 28.140625 6.328125 28.140625 C 6.40625 28.140625 6.417969 28.105469 6.445312 28.050781 C 6.601562 27.664062 7.078125 27.664062 7.144531 27.664062 C 7.3125 27.664062 7.464844 27.714844 7.660156 27.78125 C 7.996094 27.910156 8.085938 27.910156 8.292969 27.910156 C 7.996094 28.257812 7.3125 28.851562 7.15625 28.984375 L 6.40625 29.679688 C 5.851562 30.234375 5.554688 30.703125 5.554688 30.765625 C 5.554688 30.84375 5.644531 30.84375 5.65625 30.84375 C 5.722656 30.84375 5.734375 30.832031 5.785156 30.738281 C 5.980469 30.441406 6.226562 30.222656 6.496094 30.222656 C 6.679688 30.222656 6.769531 30.300781 6.976562 30.535156 C 7.105469 30.714844 7.257812 30.84375 7.492188 30.84375 C 8.320312 30.84375 8.796875 29.796875 8.796875 29.578125 C 8.796875 29.539062 8.757812 29.488281 8.695312 29.488281 C 8.617188 29.488281 8.605469 29.539062 8.578125 29.601562 C 8.382812 30.132812 7.855469 30.289062 7.582031 30.289062 C 7.425781 30.289062 7.273438 30.234375 7.105469 30.183594 C 6.820312 30.082031 6.691406 30.042969 6.523438 30.042969 C 6.511719 30.042969 6.382812 30.042969 6.304688 30.066406 Z M 6.304688 30.066406 "/>
<path fill-rule="nonzero" fill="rgb(0%, 0%, 0%)" fill-opacity="1" d="M 10.910156 28.382812 C 10.910156 28.292969 10.832031 28.164062 10.679688 28.164062 C 10.523438 28.164062 10.355469 28.320312 10.355469 28.488281 C 10.355469 28.578125 10.417969 28.707031 10.585938 28.707031 C 10.742188 28.707031 10.910156 28.539062 10.910156 28.382812 Z M 9.734375 31.316406 C 9.707031 31.394531 9.683594 31.457031 9.683594 31.5625 C 9.683594 31.832031 9.902344 32.039062 10.226562 32.039062 C 10.792969 32.039062 11.050781 31.253906 11.050781 31.160156 C 11.050781 31.082031 10.976562 31.082031 10.960938 31.082031 C 10.882812 31.082031 10.871094 31.121094 10.847656 31.1875 C 10.714844 31.652344 10.472656 31.886719 10.238281 31.886719 C 10.121094 31.886719 10.097656 31.808594 10.097656 31.679688 C 10.097656 31.550781 10.136719 31.445312 10.1875 31.316406 C 10.25 31.160156 10.316406 31.007812 10.367188 30.851562 C 10.417969 30.710938 10.640625 30.191406 10.652344 30.113281 C 10.679688 30.0625 10.691406 30 10.691406 29.933594 C 10.691406 29.664062 10.457031 29.441406 10.148438 29.441406 C 9.566406 29.441406 9.308594 30.230469 9.308594 30.335938 C 9.308594 30.398438 9.386719 30.398438 9.410156 30.398438 C 9.488281 30.398438 9.488281 30.375 9.515625 30.308594 C 9.65625 29.816406 9.914062 29.609375 10.121094 29.609375 C 10.210938 29.609375 10.265625 29.648438 10.265625 29.804688 C 10.265625 29.945312 10.238281 30.023438 10.097656 30.386719 Z M 9.734375 31.316406 "/>
<path fill-rule="nonzero" fill="rgb(0%, 0%, 0%)" fill-opacity="1" d="M 20.945312 7.597656 C 21.152344 7.597656 21.550781 7.597656 21.835938 7.765625 C 22.238281 8.027344 22.261719 8.464844 22.261719 8.515625 C 22.273438 8.632812 22.273438 8.734375 22.417969 8.734375 C 22.558594 8.734375 22.558594 8.621094 22.558594 8.476562 L 22.558594 6.242188 C 22.558594 6.113281 22.558594 5.984375 22.417969 5.984375 C 22.273438 5.984375 22.261719 6.101562 22.261719 6.164062 C 22.210938 7.238281 21.371094 7.289062 20.945312 7.300781 L 20.945312 5.558594 C 20.945312 5 21.097656 5 21.304688 5 L 21.695312 5 C 22.804688 5 23.359375 5.570312 23.414062 6.140625 C 23.425781 6.203125 23.425781 6.332031 23.554688 6.332031 C 23.695312 6.332031 23.695312 6.203125 23.695312 6.0625 L 23.695312 4.988281 C 23.695312 4.730469 23.683594 4.71875 23.425781 4.71875 L 19.210938 4.71875 C 19.058594 4.71875 18.929688 4.71875 18.929688 4.859375 C 18.929688 5 19.082031 5 19.148438 5 C 19.625 5 19.652344 5.066406 19.652344 5.480469 L 19.652344 9.601562 C 19.652344 9.988281 19.625 10.082031 19.1875 10.082031 C 19.070312 10.082031 18.929688 10.082031 18.929688 10.222656 C 18.929688 10.363281 19.058594 10.363281 19.210938 10.363281 L 23.582031 10.363281 C 23.734375 10.363281 23.8125 10.363281 23.839844 10.25 C 23.851562 10.234375 24.085938 8.867188 24.085938 8.828125 C 24.085938 8.734375 24.007812 8.671875 23.941406 8.671875 C 23.824219 8.671875 23.789062 8.789062 23.789062 8.789062 C 23.75 9.007812 23.65625 9.355469 23.0625 9.707031 C 22.625 9.964844 22.210938 10.082031 21.757812 10.082031 L 21.304688 10.082031 C 21.097656 10.082031 20.945312 10.082031 20.945312 9.523438 Z M 23.414062 5 L 23.414062 5.402344 C 23.269531 5.246094 23.117188 5.117188 22.949219 5 Z M 21.808594 7.417969 C 21.9375 7.367188 22.121094 7.238281 22.261719 7.070312 L 22.261719 7.753906 C 22.070312 7.535156 21.808594 7.429688 21.808594 7.429688 Z M 19.9375 5.453125 C 19.9375 5.363281 19.9375 5.15625 19.871094 5 L 20.75 5 C 20.660156 5.195312 20.660156 5.464844 20.660156 5.542969 L 20.660156 9.539062 C 20.660156 9.835938 20.710938 10.003906 20.75 10.082031 L 19.871094 10.082031 C 19.9375 9.925781 19.9375 9.71875 19.9375 9.628906 Z M 23.011719 10.082031 L 23.011719 10.066406 C 23.269531 9.9375 23.488281 9.757812 23.65625 9.613281 C 23.65625 9.640625 23.59375 10.015625 23.582031 10.082031 Z M 23.011719 10.082031 "/>
<path fill-rule="nonzero" fill="rgb(0%, 0%, 0%)" fill-opacity="1" d="M 26.410156 12.433594 L 26.410156 12.097656 L 25.609375 12.097656 L 25.609375 4.511719 L 26.410156 4.511719 L 26.410156 4.175781 L 25.273438 4.175781 L 25.273438 12.433594 Z M 26.410156 12.433594 "/>
<path fill-rule="nonzero" fill="rgb(0%, 0%, 0%)" fill-opacity="1" d="M 30.25 8.296875 C 30.25 7.417969 29.515625 6.707031 28.660156 6.707031 C 27.769531 6.707031 27.046875 7.445312 27.046875 8.296875 C 27.046875 9.175781 27.769531 9.898438 28.660156 9.898438 C 29.515625 9.898438 30.25 9.1875 30.25 8.296875 Z M 30.25 8.296875 "/>
<path fill-rule="nonzero" fill="rgb(0%, 0%, 0%)" fill-opacity="1" d="M 32.019531 4.175781 L 30.894531 4.175781 L 30.894531 4.511719 L 31.695312 4.511719 L 31.695312 12.097656 L 30.894531 12.097656 L 30.894531 12.433594 L 32.019531 12.433594 Z M 32.019531 4.175781 "/>
<path fill="none" stroke-width="0.49145" stroke-linecap="butt" stroke-linejoin="miter" stroke="rgb(0%, 0%, 0%)" stroke-opacity="1" stroke-miterlimit="4" d="M 142.550781 0.796875 L 162.808594 0.796875 L 162.808594 15.8125 L 142.550781 15.8125 Z M 142.550781 0.796875 "/>
<path fill-rule="nonzero" fill="rgb(0%, 0%, 0%)" fill-opacity="1" d="M 147.972656 7.597656 C 148.179688 7.597656 148.582031 7.597656 148.863281 7.765625 C 149.265625 8.027344 149.292969 8.464844 149.292969 8.515625 C 149.304688 8.632812 149.304688 8.734375 149.445312 8.734375 C 149.589844 8.734375 149.589844 8.621094 149.589844 8.476562 L 149.589844 6.242188 C 149.589844 6.113281 149.589844 5.984375 149.445312 5.984375 C 149.304688 5.984375 149.292969 6.101562 149.292969 6.164062 C 149.238281 7.238281 148.398438 7.289062 147.972656 7.300781 L 147.972656 5.558594 C 147.972656 5 148.128906 5 148.335938 5 L 148.722656 5 C 149.835938 5 150.390625 5.570312 150.441406 6.140625 C 150.453125 6.203125 150.453125 6.332031 150.582031 6.332031 C 150.726562 6.332031 150.726562 6.203125 150.726562 6.0625 L 150.726562 4.988281 C 150.726562 4.730469 150.710938 4.71875 150.453125 4.71875 L 146.242188 4.71875 C 146.085938 4.71875 145.957031 4.71875 145.957031 4.859375 C 145.957031 5 146.113281 5 146.175781 5 C 146.65625 5 146.679688 5.066406 146.679688 5.480469 L 146.679688 9.601562 C 146.679688 9.988281 146.65625 10.082031 146.214844 10.082031 C 146.097656 10.082031 145.957031 10.082031 145.957031 10.222656 C 145.957031 10.363281 146.085938 10.363281 146.242188 10.363281 L 150.609375 10.363281 C 150.765625 10.363281 150.84375 10.363281 150.867188 10.25 C 150.878906 10.234375 151.113281 8.867188 151.113281 8.828125 C 151.113281 8.734375 151.035156 8.671875 150.972656 8.671875 C 150.855469 8.671875 150.816406 8.789062 150.816406 8.789062 C 150.777344 9.007812 150.6875 9.355469 150.09375 9.707031 C 149.652344 9.964844 149.238281 10.082031 148.789062 10.082031 L 148.335938 10.082031 C 148.128906 10.082031 147.972656 10.082031 147.972656 9.523438 Z M 150.441406 5 L 150.441406 5.402344 C 150.300781 5.246094 150.144531 5.117188 149.976562 5 Z M 148.839844 7.417969 C 148.96875 7.367188 149.148438 7.238281 149.292969 7.070312 L 149.292969 7.753906 C 149.097656 7.535156 148.839844 7.429688 148.839844 7.429688 Z M 146.964844 5.453125 C 146.964844 5.363281 146.964844 5.15625 146.902344 5 L 147.777344 5 C 147.6875 5.195312 147.6875 5.464844 147.6875 5.542969 L 147.6875 9.539062 C 147.6875 9.835938 147.742188 10.003906 147.777344 10.082031 L 146.902344 10.082031 C 146.964844 9.925781 146.964844 9.71875 146.964844 9.628906 Z M 150.039062 10.082031 L 150.039062 10.066406 C 150.300781 9.9375 150.519531 9.757812 150.6875 9.613281 C 150.6875 9.640625 150.621094 10.015625 150.609375 10.082031 Z M 150.039062 10.082031 "/>
<path fill-rule="nonzero" fill="rgb(0%, 0%, 0%)" fill-opacity="1" d="M 153.441406 12.433594 L 153.441406 12.097656 L 152.640625 12.097656 L 152.640625 4.511719 L 153.441406 4.511719 L 153.441406 4.175781 L 152.304688 4.175781 L 152.304688 12.433594 Z M 153.441406 12.433594 "/>
<path fill-rule="nonzero" fill="rgb(0%, 0%, 0%)" fill-opacity="1" d="M 157.28125 8.296875 C 157.28125 7.417969 156.542969 6.707031 155.691406 6.707031 C 154.796875 6.707031 154.074219 7.445312 154.074219 8.296875 C 154.074219 9.175781 154.796875 9.898438 155.691406 9.898438 C 156.542969 9.898438 157.28125 9.1875 157.28125 8.296875 Z M 157.28125 8.296875 "/>
<path fill-rule="nonzero" fill="rgb(0%, 0%, 0%)" fill-opacity="1" d="M 159.046875 4.175781 L 157.925781 4.175781 L 157.925781 4.511719 L 158.726562 4.511719 L 158.726562 12.097656 L 157.925781 12.097656 L 157.925781 12.433594 L 159.046875 12.433594 Z M 159.046875 4.175781 "/>
<path fill="none" stroke-width="0.490092" stroke-linecap="butt" stroke-linejoin="miter" stroke="rgb(46.273804%, 52.940369%, 54.901123%)" stroke-opacity="1" stroke-miterlimit="4" d="M 291.785156 20.8125 L 291.800781 8.398438 L 286.769531 8.398438 "/>
<path fill-rule="evenodd" fill="rgb(46.273804%, 52.940369%, 54.901123%)" fill-opacity="1" stroke-width="0.261382" stroke-linecap="butt" stroke-linejoin="miter" stroke="rgb(46.273804%, 52.940369%, 54.901123%)" stroke-opacity="1" stroke-miterlimit="4" d="M -18.518328 291.806304 L -17.538976 290.828623 L -20.967544 291.809101 L -17.536737 292.789558 Z M -18.518328 291.806304 " transform="matrix(0.00114197, -1, 1, 0.00114197, 0, 0)"/>
<path fill="none" stroke-width="0.49145" stroke-linecap="butt" stroke-linejoin="miter" stroke="rgb(46.273804%, 52.940369%, 54.901123%)" stroke-opacity="1" stroke-miterlimit="4" d="M 35.988281 8.300781 L 40.878906 8.3125 "/>
<path fill-rule="evenodd" fill="rgb(46.273804%, 52.940369%, 54.901123%)" fill-opacity="1" stroke-width="0.262106" stroke-linecap="butt" stroke-linejoin="miter" stroke="rgb(46.273804%, 52.940369%, 54.901123%)" stroke-opacity="1" stroke-miterlimit="4" d="M -38.932517 -8.202461 L -37.950822 -9.185606 L -41.38954 -8.19967 L -37.949361 -7.21686 Z M -38.932517 -8.202461 " transform="matrix(-1, -0.00272606, 0.00272606, -1, 0, 0)"/>
<path fill="none" stroke-width="0.49145" stroke-linecap="butt" stroke-linejoin="miter" stroke="rgb(46.273804%, 52.940369%, 54.901123%)" stroke-opacity="1" stroke-miterlimit="4" d="M 89.175781 21.566406 L 89.160156 8.398438 L 95.113281 8.398438 "/>
<path fill-rule="evenodd" fill="rgb(46.273804%, 52.940369%, 54.901123%)" fill-opacity="1" stroke-width="0.262107" stroke-linecap="butt" stroke-linejoin="miter" stroke="rgb(46.273804%, 52.940369%, 54.901123%)" stroke-opacity="1" stroke-miterlimit="4" d="M -93.148438 -8.398438 L -92.164062 -9.382812 L -95.605469 -8.398438 L -92.164062 -7.417969 Z M -93.148438 -8.398438 " transform="matrix(-1, 0, 0, -1, 0, 0)"/>
<path fill="none" stroke-width="0.490092" stroke-linecap="butt" stroke-linejoin="miter" stroke="rgb(46.273804%, 52.940369%, 54.901123%)" stroke-opacity="1" stroke-miterlimit="4" d="M 62.578125 20.8125 L 62.589844 8.398438 L 57.960938 8.398438 "/>
<path fill-rule="evenodd" fill="rgb(46.273804%, 52.940369%, 54.901123%)" fill-opacity="1" stroke-width="0.261382" stroke-linecap="butt" stroke-linejoin="miter" stroke="rgb(46.273804%, 52.940369%, 54.901123%)" stroke-opacity="1" stroke-miterlimit="4" d="M -18.780076 62.599571 L -17.800723 61.62189 L -21.229291 62.602368 L -17.798484 63.582825 Z M -18.780076 62.599571 " transform="matrix(0.00114197, -1, 1, 0.00114197, 0, 0)"/>
<path fill="none" stroke-width="0.49145" stroke-linecap="butt" stroke-linejoin="miter" stroke="rgb(0%, 0%, 0%)" stroke-opacity="1" stroke-miterlimit="4" d="M 96.097656 0.796875 L 114.453125 0.796875 L 114.453125 15.8125 L 96.097656 15.8125 Z M 96.097656 0.796875 "/>
<path fill="none" stroke-width="0.491606" stroke-linecap="butt" stroke-linejoin="miter" stroke="rgb(0%, 0%, 0%)" stroke-opacity="1" stroke-miterlimit="4" d="M 185.636719 8.304688 C 185.636719 12.753906 182.027344 16.359375 177.578125 16.359375 C 173.128906 16.359375 169.519531 12.753906 169.519531 8.304688 C 169.519531 3.851562 173.128906 0.246094 177.578125 0.246094 C 182.027344 0.246094 185.636719 3.851562 185.636719 8.304688 Z M 185.636719 8.304688 "/>
<path fill="none" stroke-width="0.49145" stroke-linecap="butt" stroke-linejoin="miter" stroke="rgb(0%, 0%, 0%)" stroke-opacity="1" stroke-miterlimit="4" d="M 192.40625 0.796875 L 221.554688 0.796875 L 221.554688 15.8125 L 192.40625 15.8125 Z M 192.40625 0.796875 "/>
<path fill="none" stroke-width="0.491606" stroke-linecap="butt" stroke-linejoin="miter" stroke="rgb(0%, 0%, 0%)" stroke-opacity="1" stroke-miterlimit="4" d="M 244.03125 8.304688 C 244.03125 12.753906 240.421875 16.359375 235.972656 16.359375 C 231.523438 16.359375 227.914062 12.753906 227.914062 8.304688 C 227.914062 3.851562 231.523438 0.246094 235.972656 0.246094 C 240.421875 0.246094 244.03125 3.851562 244.03125 8.304688 Z M 244.03125 8.304688 "/>
<path fill="none" stroke-width="0.49145" stroke-linecap="butt" stroke-linejoin="miter" stroke="rgb(0%, 0%, 0%)" stroke-opacity="1" stroke-miterlimit="4" d="M 250.488281 1.578125 L 264.179688 1.578125 L 264.179688 15.03125 L 250.488281 15.03125 Z M 250.488281 1.578125 "/>
<path fill="none" stroke-width="0.491606" stroke-linecap="butt" stroke-linejoin="miter" stroke="rgb(0%, 0%, 0%)" stroke-opacity="1" stroke-miterlimit="4" d="M 286.8125 8.304688 C 286.8125 12.753906 283.203125 16.359375 278.753906 16.359375 C 274.304688 16.359375 270.695312 12.753906 270.695312 8.304688 C 270.695312 3.851562 274.304688 0.246094 278.753906 0.246094 C 283.203125 0.246094 286.8125 3.851562 286.8125 8.304688 Z M 286.8125 8.304688 "/>
<g clip-path="url(#clip-5)">
<path fill="none" stroke-width="0.491606" stroke-linecap="butt" stroke-linejoin="miter" stroke="rgb(0%, 0%, 0%)" stroke-opacity="1" stroke-miterlimit="4" d="M 326.203125 29.582031 C 326.203125 34.03125 322.59375 37.640625 318.144531 37.640625 C 313.695312 37.640625 310.085938 34.03125 310.085938 29.582031 C 310.085938 25.132812 313.695312 21.523438 318.144531 21.523438 C 322.59375 21.523438 326.203125 25.132812 326.203125 29.582031 Z M 326.203125 29.582031 "/>
</g>
<path fill="none" stroke-width="0.491606" stroke-linecap="butt" stroke-linejoin="miter" stroke="rgb(0%, 0%, 0%)" stroke-opacity="1" stroke-miterlimit="4" d="M 136.417969 8.304688 C 136.417969 12.753906 132.8125 16.359375 128.363281 16.359375 C 123.914062 16.359375 120.304688 12.753906 120.304688 8.304688 C 120.304688 3.851562 123.914062 0.246094 128.363281 0.246094 C 132.8125 0.246094 136.417969 3.851562 136.417969 8.304688 Z M 136.417969 8.304688 "/>
<g clip-path="url(#clip-6)">
<path fill="none" stroke-width="0.491606" stroke-linecap="butt" stroke-linejoin="miter" stroke="rgb(0%, 0%, 0%)" stroke-opacity="1" stroke-miterlimit="4" d="M 97.179688 29.582031 C 97.179688 34.03125 93.570312 37.640625 89.121094 37.640625 C 84.671875 37.640625 81.0625 34.03125 81.0625 29.582031 C 81.0625 25.132812 84.671875 21.523438 89.121094 21.523438 C 93.570312 21.523438 97.179688 25.132812 97.179688 29.582031 Z M 97.179688 29.582031 "/>
</g>
<path fill="none" stroke-width="0.491606" stroke-linecap="butt" stroke-linejoin="miter" stroke="rgb(0%, 0%, 0%)" stroke-opacity="1" stroke-miterlimit="4" d="M 57.996094 8.304688 C 57.996094 12.753906 54.386719 16.359375 49.9375 16.359375 C 45.488281 16.359375 41.878906 12.753906 41.878906 8.304688 C 41.878906 3.851562 45.488281 0.246094 49.9375 0.246094 C 54.386719 0.246094 57.996094 3.851562 57.996094 8.304688 Z M 57.996094 8.304688 "/>
</svg>
