<?xml version="1.0" encoding="UTF-8"?>
<svg xmlns="http://www.w3.org/2000/svg" xmlns:xlink="http://www.w3.org/1999/xlink" width="190.12941pt" height="125.8937pt" viewBox="0 0 190.12941 125.8937">
<defs>
<clipPath id="clip-0">
<path clip-rule="nonzero" d="M 63 110 L 92 110 L 92 125.894531 L 63 125.894531 Z M 63 110 "/>
</clipPath>
<clipPath id="clip-1">
<path clip-rule="nonzero" d="M 62 110 L 92 110 L 92 125.894531 L 62 125.894531 Z M 62 110 "/>
</clipPath>
<clipPath id="clip-2">
<path clip-rule="nonzero" d="M 32 110 L 55 110 L 55 125.894531 L 32 125.894531 Z M 32 110 "/>
</clipPath>
<clipPath id="clip-3">
<path clip-rule="nonzero" d="M 31 110 L 55 110 L 55 125.894531 L 31 125.894531 Z M 31 110 "/>
</clipPath>
<clipPath id="clip-4">
<path clip-rule="nonzero" d="M 130 110 L 160 110 L 160 125.894531 L 130 125.894531 Z M 130 110 "/>
</clipPath>
<clipPath id="clip-5">
<path clip-rule="nonzero" d="M 100 110 L 123 110 L 123 125.894531 L 100 125.894531 Z M 100 110 "/>
</clipPath>
<clipPath id="clip-6">
<path clip-rule="nonzero" d="M 99 110 L 123 110 L 123 125.894531 L 99 125.894531 Z M 99 110 "/>
</clipPath>
</defs>
<path fill-rule="nonzero" fill="rgb(0%, 0%, 0%)" fill-opacity="1" d="M 176.34375 73.253906 C 176.34375 70.9375 174.445312 69.058594 172.128906 69.058594 C 169.792969 69.058594 167.910156 70.957031 167.910156 73.253906 C 167.910156 75.589844 169.8125 77.46875 172.128906 77.46875 C 174.464844 77.46875 176.34375 75.570312 176.34375 73.253906 Z M 168.230469 73.09375 C 168.347656 70.976562 169.988281 69.472656 171.96875 69.375 L 171.96875 73.09375 Z M 172.285156 69.375 C 174.265625 69.472656 175.886719 70.996094 176.027344 73.09375 L 172.285156 73.09375 Z M 171.96875 77.152344 C 170.011719 77.054688 168.347656 75.570312 168.230469 73.410156 L 171.96875 73.410156 Z M 176.027344 73.410156 C 175.886719 75.570312 174.226562 77.054688 172.285156 77.152344 L 172.285156 73.410156 Z M 176.027344 73.410156 "/>
<path fill="none" stroke-width="0.75" stroke-linecap="butt" stroke-linejoin="miter" stroke="rgb(0%, 0%, 0%)" stroke-opacity="1" stroke-miterlimit="4" d="M 76.117188 73.421875 L 76.117188 56.089844 L 172.105469 56.089844 L 172.105469 67.949219 "/>
<path fill-rule="evenodd" fill="rgb(0%, 0%, 0%)" fill-opacity="1" stroke-width="0.28125" stroke-linecap="butt" stroke-linejoin="round" stroke="rgb(0%, 0%, 0%)" stroke-opacity="1" stroke-miterlimit="4" d="M -64.027344 173.921875 L -68.945312 172.113281 L -64.027344 170.304688 C -64.8125 171.375 -64.808594 172.832031 -64.027344 173.921875 Z M -64.027344 173.921875 " transform="matrix(0, -1, 1, 0, 0, 0)"/>
<path fill-rule="nonzero" fill="rgb(81.959534%, 51.371765%, 38.430786%)" fill-opacity="1" stroke-width="0.372301" stroke-linecap="butt" stroke-linejoin="round" stroke="rgb(0%, 0%, 0%)" stroke-opacity="1" stroke-miterlimit="4" d="M 126.546875 65.734375 L 149.882812 65.734375 C 151.234375 65.734375 152.328125 66.828125 152.328125 68.183594 L 152.328125 78.34375 C 152.328125 79.699219 151.234375 80.789062 149.882812 80.789062 L 126.546875 80.789062 C 125.191406 80.789062 124.097656 79.699219 124.097656 78.34375 L 124.097656 68.183594 C 124.097656 66.828125 125.191406 65.734375 126.546875 65.734375 Z M 126.546875 65.734375 "/>
<path fill-rule="nonzero" fill="rgb(0%, 0%, 0%)" fill-opacity="1" d="M 130.308594 76.496094 L 130.308594 75.808594 L 127.257812 75.808594 L 127.257812 69.910156 L 126.527344 69.910156 L 126.527344 76.496094 Z M 130.308594 76.496094 "/>
<path fill-rule="nonzero" fill="rgb(0%, 0%, 0%)" fill-opacity="1" d="M 131.722656 76.496094 L 131.722656 72.195312 L 131.003906 72.195312 L 131.003906 76.496094 Z M 131.363281 69.910156 C 131.140625 69.910156 130.945312 70.117188 130.945312 70.34375 C 130.945312 70.582031 131.140625 70.789062 131.363281 70.789062 C 131.601562 70.789062 131.78125 70.582031 131.78125 70.34375 C 131.78125 70.117188 131.601562 69.910156 131.363281 69.910156 Z M 131.363281 69.910156 "/>
<path fill-rule="nonzero" fill="rgb(0%, 0%, 0%)" fill-opacity="1" d="M 136.738281 76.496094 L 136.738281 73.898438 C 136.738281 72.882812 136.304688 72.089844 135.199219 72.089844 C 134.648438 72.089844 134.078125 72.300781 133.734375 72.777344 L 133.734375 72.195312 L 133.035156 72.195312 L 133.035156 76.496094 L 133.734375 76.496094 L 133.734375 74.0625 C 133.765625 73.242188 134.273438 72.71875 135.035156 72.71875 C 135.78125 72.71875 136.050781 73.164062 136.050781 73.925781 L 136.050781 76.496094 Z M 136.738281 76.496094 "/>
<path fill-rule="nonzero" fill="rgb(0%, 0%, 0%)" fill-opacity="1" d="M 141.6875 74.347656 L 141.6875 74.269531 C 141.6875 73.03125 141.179688 72.121094 139.757812 72.089844 C 138.488281 72.089844 137.773438 73.195312 137.773438 74.390625 C 137.773438 75.691406 138.5625 76.617188 139.878906 76.617188 C 140.476562 76.617188 141.015625 76.484375 141.539062 76.289062 L 141.539062 75.570312 C 140.851562 75.898438 140.746094 75.972656 139.9375 75.972656 C 139.042969 75.972656 138.503906 75.4375 138.503906 74.421875 L 138.503906 74.347656 Z M 140.984375 73.761719 L 138.535156 73.761719 C 138.625 73.195312 139.042969 72.703125 139.757812 72.703125 C 140.507812 72.703125 140.984375 73.164062 140.984375 73.761719 Z M 140.984375 73.761719 "/>
<path fill-rule="nonzero" fill="rgb(0%, 0%, 0%)" fill-opacity="1" d="M 146.023438 76.496094 L 146.023438 74.046875 C 146.023438 72.808594 145.5 72.089844 144.214844 72.089844 C 143.753906 72.089844 143.183594 72.238281 142.765625 72.390625 L 142.765625 73.089844 C 143.199219 72.851562 143.558594 72.703125 144.15625 72.703125 C 144.84375 72.71875 145.367188 73.0625 145.367188 73.777344 L 144.378906 73.777344 C 143.363281 73.777344 142.46875 74.121094 142.46875 75.242188 C 142.496094 76.109375 143.003906 76.617188 143.871094 76.617188 C 144.484375 76.617188 145.039062 76.363281 145.367188 75.929688 L 145.367188 76.496094 Z M 145.367188 74.496094 C 145.367188 75.332031 144.976562 76.003906 144.082031 76.003906 C 143.558594 76.003906 143.125 75.765625 143.125 75.199219 C 143.125 74.359375 143.917969 74.359375 144.664062 74.359375 L 145.367188 74.359375 Z M 145.367188 74.496094 "/>
<path fill-rule="nonzero" fill="rgb(0%, 0%, 0%)" fill-opacity="1" d="M 149.675781 73.0625 L 149.898438 72.375 C 149.792969 72.253906 149.332031 72.136719 149.015625 72.136719 C 148.570312 72.148438 148.195312 72.375 148 72.777344 L 148 72.195312 L 147.285156 72.195312 L 147.285156 76.496094 L 148 76.496094 L 148 74.226562 C 148 74.210938 148 74.195312 148 74.195312 C 148 73.570312 148.332031 72.746094 149.003906 72.746094 L 149.046875 72.746094 C 149.269531 72.746094 149.449219 72.882812 149.675781 73.0625 Z M 149.675781 73.0625 "/>
<path fill-rule="nonzero" fill="rgb(62.744141%, 85.096741%, 82.743835%)" fill-opacity="1" stroke-width="0.372301" stroke-linecap="butt" stroke-linejoin="round" stroke="rgb(0%, 0%, 0%)" stroke-opacity="1" stroke-miterlimit="4" d="M 87.90625 65.714844 L 106.546875 65.714844 C 107.628906 65.714844 108.5 66.808594 108.5 68.167969 L 108.5 78.355469 C 108.5 79.714844 107.628906 80.808594 106.546875 80.808594 L 87.90625 80.808594 C 86.824219 80.808594 85.953125 79.714844 85.953125 78.355469 L 85.953125 68.167969 C 85.953125 66.808594 86.824219 65.714844 87.90625 65.714844 Z M 87.90625 65.714844 "/>
<path fill-rule="nonzero" fill="rgb(0%, 0%, 0%)" fill-opacity="1" d="M 92.476562 76.488281 C 91.804688 75.726562 91.667969 73.964844 90.699219 73.367188 C 91.742188 73.082031 91.921875 72.546875 91.921875 71.769531 C 91.921875 70.453125 91.160156 69.902344 89.90625 69.902344 L 88.054688 69.902344 L 88.054688 76.488281 L 88.769531 76.488281 L 88.769531 73.667969 L 89.816406 73.667969 C 90.25 73.667969 90.621094 74.039062 90.980469 74.785156 C 91.207031 75.371094 91.265625 76.070312 91.730469 76.488281 Z M 91.21875 71.769531 C 91.21875 72.605469 90.710938 73.007812 89.90625 73.007812 L 88.769531 73.007812 L 88.769531 70.558594 L 89.90625 70.558594 C 90.699219 70.574219 91.21875 70.886719 91.21875 71.769531 Z M 91.21875 71.769531 "/>
<path fill-rule="nonzero" fill="rgb(0%, 0%, 0%)" fill-opacity="1" d="M 96.792969 74.339844 L 96.792969 74.265625 C 96.792969 73.023438 96.285156 72.113281 94.863281 72.082031 C 93.59375 72.082031 92.878906 73.1875 92.878906 74.382812 C 92.878906 75.683594 93.667969 76.609375 94.984375 76.609375 C 95.582031 76.609375 96.121094 76.476562 96.644531 76.28125 L 96.644531 75.5625 C 95.957031 75.890625 95.851562 75.96875 95.042969 75.96875 C 94.148438 75.96875 93.609375 75.429688 93.609375 74.414062 L 93.609375 74.339844 Z M 96.089844 73.757812 L 93.640625 73.757812 C 93.730469 73.1875 94.148438 72.695312 94.863281 72.695312 C 95.613281 72.695312 96.089844 73.160156 96.089844 73.757812 Z M 96.089844 73.757812 "/>
<path fill-rule="nonzero" fill="rgb(0%, 0%, 0%)" fill-opacity="1" d="M 101.605469 76.488281 L 101.605469 75.800781 L 98.558594 75.800781 L 98.558594 69.902344 L 97.828125 69.902344 L 97.828125 76.488281 Z M 101.605469 76.488281 "/>
<path fill-rule="nonzero" fill="rgb(0%, 0%, 0%)" fill-opacity="1" d="M 106.398438 74.023438 L 106.398438 69.902344 L 105.695312 69.902344 L 105.695312 73.921875 C 105.695312 75.128906 105.414062 75.980469 104.113281 75.980469 C 102.785156 75.980469 102.484375 75.160156 102.484375 73.921875 L 102.484375 69.902344 L 101.769531 69.902344 L 101.769531 74.023438 C 101.769531 75.625 102.46875 76.625 104.113281 76.625 C 105.742188 76.625 106.398438 75.59375 106.398438 74.023438 Z M 106.398438 74.023438 "/>
<path fill-rule="nonzero" fill="rgb(81.959534%, 51.371765%, 38.430786%)" fill-opacity="1" stroke-width="0.372301" stroke-linecap="butt" stroke-linejoin="round" stroke="rgb(0%, 0%, 0%)" stroke-opacity="1" stroke-miterlimit="4" d="M 44.246094 65.734375 L 67.582031 65.734375 C 68.9375 65.734375 70.027344 66.828125 70.027344 68.183594 L 70.027344 78.34375 C 70.027344 79.699219 68.9375 80.789062 67.582031 80.789062 L 44.246094 80.789062 C 42.890625 80.789062 41.800781 79.699219 41.800781 78.34375 L 41.800781 68.183594 C 41.800781 66.828125 42.890625 65.734375 44.246094 65.734375 Z M 44.246094 65.734375 "/>
<path fill-rule="nonzero" fill="rgb(0%, 0%, 0%)" fill-opacity="1" d="M 48.007812 76.496094 L 48.007812 75.808594 L 44.960938 75.808594 L 44.960938 69.910156 L 44.230469 69.910156 L 44.230469 76.496094 Z M 48.007812 76.496094 "/>
<path fill-rule="nonzero" fill="rgb(0%, 0%, 0%)" fill-opacity="1" d="M 49.421875 76.496094 L 49.421875 72.195312 L 48.707031 72.195312 L 48.707031 76.496094 Z M 49.0625 69.910156 C 48.839844 69.910156 48.644531 70.117188 48.644531 70.34375 C 48.644531 70.582031 48.839844 70.789062 49.0625 70.789062 C 49.304688 70.789062 49.484375 70.582031 49.484375 70.34375 C 49.484375 70.117188 49.304688 69.910156 49.0625 69.910156 Z M 49.0625 69.910156 "/>
<path fill-rule="nonzero" fill="rgb(0%, 0%, 0%)" fill-opacity="1" d="M 54.441406 76.496094 L 54.441406 73.898438 C 54.441406 72.882812 54.007812 72.089844 52.902344 72.089844 C 52.347656 72.089844 51.78125 72.300781 51.4375 72.777344 L 51.4375 72.195312 L 50.734375 72.195312 L 50.734375 76.496094 L 51.4375 76.496094 L 51.4375 74.0625 C 51.464844 73.242188 51.976562 72.71875 52.738281 72.71875 C 53.484375 72.71875 53.753906 73.164062 53.753906 73.925781 L 53.753906 76.496094 Z M 54.441406 76.496094 "/>
<path fill-rule="nonzero" fill="rgb(0%, 0%, 0%)" fill-opacity="1" d="M 59.386719 74.347656 L 59.386719 74.269531 C 59.386719 73.03125 58.878906 72.121094 57.460938 72.089844 C 56.191406 72.089844 55.472656 73.195312 55.472656 74.390625 C 55.472656 75.691406 56.265625 76.617188 57.578125 76.617188 C 58.175781 76.617188 58.714844 76.484375 59.238281 76.289062 L 59.238281 75.570312 C 58.550781 75.898438 58.445312 75.972656 57.640625 75.972656 C 56.742188 75.972656 56.207031 75.4375 56.207031 74.421875 L 56.207031 74.347656 Z M 58.6875 73.761719 L 56.234375 73.761719 C 56.324219 73.195312 56.742188 72.703125 57.460938 72.703125 C 58.207031 72.703125 58.6875 73.164062 58.6875 73.761719 Z M 58.6875 73.761719 "/>
<path fill-rule="nonzero" fill="rgb(0%, 0%, 0%)" fill-opacity="1" d="M 63.722656 76.496094 L 63.722656 74.046875 C 63.722656 72.808594 63.203125 72.089844 61.917969 72.089844 C 61.453125 72.089844 60.886719 72.238281 60.46875 72.390625 L 60.46875 73.089844 C 60.902344 72.851562 61.257812 72.703125 61.855469 72.703125 C 62.542969 72.71875 63.066406 73.0625 63.066406 73.777344 L 62.082031 73.777344 C 61.066406 73.777344 60.167969 74.121094 60.167969 75.242188 C 60.199219 76.109375 60.707031 76.617188 61.574219 76.617188 C 62.183594 76.617188 62.738281 76.363281 63.066406 75.929688 L 63.066406 76.496094 Z M 63.066406 74.496094 C 63.066406 75.332031 62.679688 76.003906 61.78125 76.003906 C 61.257812 76.003906 60.824219 75.765625 60.824219 75.199219 C 60.824219 74.359375 61.617188 74.359375 62.363281 74.359375 L 63.066406 74.359375 Z M 63.066406 74.496094 "/>
<path fill-rule="nonzero" fill="rgb(0%, 0%, 0%)" fill-opacity="1" d="M 67.375 73.0625 L 67.601562 72.375 C 67.496094 72.253906 67.03125 72.136719 66.71875 72.136719 C 66.269531 72.148438 65.898438 72.375 65.703125 72.777344 L 65.703125 72.195312 L 64.984375 72.195312 L 64.984375 76.496094 L 65.703125 76.496094 L 65.703125 74.226562 C 65.703125 74.210938 65.703125 74.195312 65.703125 74.195312 C 65.703125 73.570312 66.03125 72.746094 66.703125 72.746094 L 66.75 72.746094 C 66.972656 72.746094 67.152344 72.882812 67.375 73.0625 Z M 67.375 73.0625 "/>
<path fill="none" stroke-width="0.75" stroke-linecap="butt" stroke-linejoin="miter" stroke="rgb(0%, 0%, 0%)" stroke-opacity="1" stroke-miterlimit="4" d="M 25.828125 73.269531 L 40.332031 73.269531 "/>
<path fill-rule="evenodd" fill="rgb(0%, 0%, 0%)" fill-opacity="1" stroke-width="0.28125" stroke-linecap="butt" stroke-linejoin="round" stroke="rgb(0%, 0%, 0%)" stroke-opacity="1" stroke-miterlimit="4" d="M -36.40625 -71.453125 L -41.324219 -73.261719 L -36.40625 -75.070312 C -37.191406 -74.003906 -37.1875 -72.542969 -36.40625 -71.453125 Z M -36.40625 -71.453125 " transform="matrix(-1, 0, 0, -1, 0, 0)"/>
<path fill="none" stroke-width="0.75" stroke-linecap="butt" stroke-linejoin="miter" stroke="rgb(0%, 0%, 0%)" stroke-opacity="1" stroke-miterlimit="4" d="M 69.996094 73.269531 L 84.613281 73.269531 "/>
<path fill-rule="evenodd" fill="rgb(0%, 0%, 0%)" fill-opacity="1" stroke-width="0.28125" stroke-linecap="butt" stroke-linejoin="round" stroke="rgb(0%, 0%, 0%)" stroke-opacity="1" stroke-miterlimit="4" d="M -80.691406 -71.453125 L -85.609375 -73.261719 L -80.691406 -75.070312 C -81.476562 -74.003906 -81.472656 -72.542969 -80.691406 -71.453125 Z M -80.691406 -71.453125 " transform="matrix(-1, 0, 0, -1, 0, 0)"/>
<path fill="none" stroke-width="0.75" stroke-linecap="butt" stroke-linejoin="miter" stroke="rgb(0%, 0%, 0%)" stroke-opacity="1" stroke-miterlimit="4" d="M 108.433594 73.269531 L 122.773438 73.269531 "/>
<path fill-rule="evenodd" fill="rgb(0%, 0%, 0%)" fill-opacity="1" stroke-width="0.28125" stroke-linecap="butt" stroke-linejoin="round" stroke="rgb(0%, 0%, 0%)" stroke-opacity="1" stroke-miterlimit="4" d="M -118.851562 -71.453125 L -123.769531 -73.261719 L -118.851562 -75.070312 C -119.636719 -74.003906 -119.632812 -72.542969 -118.851562 -71.453125 Z M -118.851562 -71.453125 " transform="matrix(-1, 0, 0, -1, 0, 0)"/>
<path fill="none" stroke-width="0.75" stroke-linecap="butt" stroke-linejoin="miter" stroke="rgb(0%, 0%, 0%)" stroke-opacity="1" stroke-miterlimit="4" d="M 152.429688 73.269531 L 166.789062 73.269531 "/>
<path fill-rule="evenodd" fill="rgb(0%, 0%, 0%)" fill-opacity="1" stroke-width="0.28125" stroke-linecap="butt" stroke-linejoin="round" stroke="rgb(0%, 0%, 0%)" stroke-opacity="1" stroke-miterlimit="4" d="M -162.863281 -71.453125 L -167.78125 -73.261719 L -162.863281 -75.070312 C -163.652344 -74.003906 -163.644531 -72.542969 -162.863281 -71.453125 Z M -162.863281 -71.453125 " transform="matrix(-1, 0, 0, -1, 0, 0)"/>
<path fill="none" stroke-width="0.75" stroke-linecap="butt" stroke-linejoin="miter" stroke="rgb(0%, 0%, 0%)" stroke-opacity="1" stroke-miterlimit="4" d="M 176.230469 73.269531 L 185.105469 73.269531 "/>
<path fill-rule="evenodd" fill="rgb(0%, 0%, 0%)" fill-opacity="1" stroke-width="0.28125" stroke-linecap="butt" stroke-linejoin="round" stroke="rgb(0%, 0%, 0%)" stroke-opacity="1" stroke-miterlimit="4" d="M -181.183594 -71.453125 L -186.101562 -73.261719 L -181.183594 -75.070312 C -181.96875 -74.003906 -181.964844 -72.542969 -181.183594 -71.453125 Z M -181.183594 -71.453125 " transform="matrix(-1, 0, 0, -1, 0, 0)"/>
<path fill-rule="nonzero" fill="rgb(0%, 0%, 0%)" fill-opacity="1" d="M 176.34375 28.683594 C 176.34375 26.367188 174.445312 24.488281 172.128906 24.488281 C 169.792969 24.488281 167.910156 26.386719 167.910156 28.683594 C 167.910156 31.019531 169.8125 32.898438 172.128906 32.898438 C 174.464844 32.898438 176.34375 31 176.34375 28.683594 Z M 168.230469 28.523438 C 168.347656 26.40625 169.988281 24.902344 171.96875 24.804688 L 171.96875 28.523438 Z M 172.285156 24.804688 C 174.265625 24.902344 175.886719 26.425781 176.027344 28.523438 L 172.285156 28.523438 Z M 171.96875 32.582031 C 170.011719 32.484375 168.347656 31 168.230469 28.839844 L 171.96875 28.839844 Z M 176.027344 28.839844 C 175.886719 31 174.226562 32.484375 172.285156 32.582031 L 172.285156 28.839844 Z M 176.027344 28.839844 "/>
<path fill="none" stroke-width="0.75" stroke-linecap="butt" stroke-linejoin="miter" stroke="rgb(0%, 0%, 0%)" stroke-opacity="1" stroke-miterlimit="4" d="M 48.839844 28.851562 L 48.839844 11.519531 L 172.09375 11.519531 L 172.09375 23.34375 "/>
<path fill-rule="evenodd" fill="rgb(0%, 0%, 0%)" fill-opacity="1" stroke-width="0.28125" stroke-linecap="butt" stroke-linejoin="round" stroke="rgb(0%, 0%, 0%)" stroke-opacity="1" stroke-miterlimit="4" d="M -19.421875 173.910156 L -24.339844 172.101562 L -19.421875 170.292969 C -20.207031 171.359375 -20.203125 172.820312 -19.421875 173.910156 Z M -19.421875 173.910156 " transform="matrix(0, -1, 1, 0, 0, 0)"/>
<path fill="none" stroke-width="0.75" stroke-linecap="butt" stroke-linejoin="miter" stroke="rgb(0%, 0%, 0%)" stroke-opacity="1" stroke-miterlimit="4" d="M 138.882812 28.699219 L 166.785156 28.699219 "/>
<path fill-rule="evenodd" fill="rgb(0%, 0%, 0%)" fill-opacity="1" stroke-width="0.28125" stroke-linecap="butt" stroke-linejoin="round" stroke="rgb(0%, 0%, 0%)" stroke-opacity="1" stroke-miterlimit="4" d="M -162.863281 -26.886719 L -167.777344 -28.691406 L -162.863281 -30.5 C -163.648438 -29.433594 -163.640625 -27.972656 -162.863281 -26.886719 Z M -162.863281 -26.886719 " transform="matrix(-1, 0, 0, -1, 0, 0)"/>
<path fill-rule="nonzero" fill="rgb(81.959534%, 51.371765%, 38.430786%)" fill-opacity="1" stroke-width="0.372301" stroke-linecap="butt" stroke-linejoin="round" stroke="rgb(0%, 0%, 0%)" stroke-opacity="1" stroke-miterlimit="4" d="M 74.535156 21.164062 L 97.871094 21.164062 C 99.226562 21.164062 100.316406 22.257812 100.316406 23.613281 L 100.316406 33.773438 C 100.316406 35.128906 99.226562 36.21875 97.871094 36.21875 L 74.535156 36.21875 C 73.179688 36.21875 72.089844 35.128906 72.089844 33.773438 L 72.089844 23.613281 C 72.089844 22.257812 73.179688 21.164062 74.535156 21.164062 Z M 74.535156 21.164062 "/>
<path fill-rule="nonzero" fill="rgb(0%, 0%, 0%)" fill-opacity="1" d="M 78.296875 31.925781 L 78.296875 31.242188 L 75.25 31.242188 L 75.25 25.339844 L 74.519531 25.339844 L 74.519531 31.925781 Z M 78.296875 31.925781 "/>
<path fill-rule="nonzero" fill="rgb(0%, 0%, 0%)" fill-opacity="1" d="M 79.710938 31.925781 L 79.710938 27.625 L 78.996094 27.625 L 78.996094 31.925781 Z M 79.351562 25.339844 C 79.128906 25.339844 78.933594 25.546875 78.933594 25.773438 C 78.933594 26.011719 79.128906 26.21875 79.351562 26.21875 C 79.59375 26.21875 79.773438 26.011719 79.773438 25.773438 C 79.773438 25.546875 79.59375 25.339844 79.351562 25.339844 Z M 79.351562 25.339844 "/>
<path fill-rule="nonzero" fill="rgb(0%, 0%, 0%)" fill-opacity="1" d="M 84.730469 31.925781 L 84.730469 29.328125 C 84.730469 28.3125 84.296875 27.519531 83.191406 27.519531 C 82.636719 27.519531 82.070312 27.730469 81.726562 28.207031 L 81.726562 27.625 L 81.023438 27.625 L 81.023438 31.925781 L 81.726562 31.925781 L 81.726562 29.492188 C 81.753906 28.671875 82.265625 28.148438 83.027344 28.148438 C 83.773438 28.148438 84.042969 28.597656 84.042969 29.359375 L 84.042969 31.925781 Z M 84.730469 31.925781 "/>
<path fill-rule="nonzero" fill="rgb(0%, 0%, 0%)" fill-opacity="1" d="M 89.675781 29.777344 L 89.675781 29.703125 C 89.675781 28.460938 89.167969 27.550781 87.75 27.519531 C 86.480469 27.519531 85.761719 28.625 85.761719 29.820312 C 85.761719 31.121094 86.554688 32.046875 87.867188 32.046875 C 88.464844 32.046875 89.003906 31.914062 89.527344 31.71875 L 89.527344 31 C 88.839844 31.328125 88.734375 31.40625 87.929688 31.40625 C 87.03125 31.40625 86.496094 30.867188 86.496094 29.851562 L 86.496094 29.777344 Z M 88.976562 29.195312 L 86.523438 29.195312 C 86.613281 28.625 87.03125 28.132812 87.75 28.132812 C 88.496094 28.132812 88.976562 28.597656 88.976562 29.195312 Z M 88.976562 29.195312 "/>
<path fill-rule="nonzero" fill="rgb(0%, 0%, 0%)" fill-opacity="1" d="M 94.011719 31.925781 L 94.011719 29.476562 C 94.011719 28.238281 93.492188 27.519531 92.207031 27.519531 C 91.742188 27.519531 91.175781 27.667969 90.757812 27.820312 L 90.757812 28.519531 C 91.191406 28.28125 91.546875 28.132812 92.144531 28.132812 C 92.832031 28.148438 93.355469 28.492188 93.355469 29.207031 L 92.371094 29.207031 C 91.355469 29.207031 90.457031 29.550781 90.457031 30.671875 C 90.488281 31.539062 90.996094 32.046875 91.863281 32.046875 C 92.472656 32.046875 93.027344 31.792969 93.355469 31.359375 L 93.355469 31.925781 Z M 93.355469 29.925781 C 93.355469 30.761719 92.96875 31.433594 92.070312 31.433594 C 91.546875 31.433594 91.113281 31.195312 91.113281 30.628906 C 91.113281 29.792969 91.90625 29.792969 92.652344 29.792969 L 93.355469 29.792969 Z M 93.355469 29.925781 "/>
<path fill-rule="nonzero" fill="rgb(0%, 0%, 0%)" fill-opacity="1" d="M 97.664062 28.492188 L 97.890625 27.804688 C 97.785156 27.683594 97.320312 27.566406 97.007812 27.566406 C 96.558594 27.578125 96.1875 27.804688 95.992188 28.207031 L 95.992188 27.625 L 95.273438 27.625 L 95.273438 31.925781 L 95.992188 31.925781 L 95.992188 29.65625 C 95.992188 29.640625 95.992188 29.625 95.992188 29.625 C 95.992188 29 96.320312 28.175781 96.992188 28.175781 L 97.039062 28.175781 C 97.261719 28.175781 97.441406 28.3125 97.664062 28.492188 Z M 97.664062 28.492188 "/>
<path fill-rule="nonzero" fill="rgb(62.744141%, 85.096741%, 82.743835%)" fill-opacity="1" stroke-width="0.372301" stroke-linecap="butt" stroke-linejoin="round" stroke="rgb(0%, 0%, 0%)" stroke-opacity="1" stroke-miterlimit="4" d="M 118.476562 21.144531 L 137.117188 21.144531 C 138.199219 21.144531 139.070312 22.238281 139.070312 23.597656 L 139.070312 33.789062 C 139.070312 35.144531 138.199219 36.242188 137.117188 36.242188 L 118.476562 36.242188 C 117.394531 36.242188 116.523438 35.144531 116.523438 33.789062 L 116.523438 23.597656 C 116.523438 22.238281 117.394531 21.144531 118.476562 21.144531 Z M 118.476562 21.144531 "/>
<path fill-rule="nonzero" fill="rgb(0%, 0%, 0%)" fill-opacity="1" d="M 123.046875 31.921875 C 122.375 31.15625 122.238281 29.394531 121.269531 28.796875 C 122.3125 28.515625 122.492188 27.976562 122.492188 27.199219 C 122.492188 25.882812 121.730469 25.332031 120.476562 25.332031 L 118.625 25.332031 L 118.625 31.921875 L 119.339844 31.921875 L 119.339844 29.097656 L 120.386719 29.097656 C 120.820312 29.097656 121.191406 29.46875 121.550781 30.21875 C 121.777344 30.800781 121.835938 31.5 122.296875 31.921875 Z M 121.789062 27.199219 C 121.789062 28.035156 121.28125 28.4375 120.476562 28.4375 L 119.339844 28.4375 L 119.339844 25.988281 L 120.476562 25.988281 C 121.269531 26.003906 121.789062 26.316406 121.789062 27.199219 Z M 121.789062 27.199219 "/>
<path fill-rule="nonzero" fill="rgb(0%, 0%, 0%)" fill-opacity="1" d="M 127.363281 29.769531 L 127.363281 29.695312 C 127.363281 28.453125 126.855469 27.542969 125.433594 27.511719 C 124.164062 27.511719 123.449219 28.617188 123.449219 29.8125 C 123.449219 31.113281 124.238281 32.039062 125.554688 32.039062 C 126.152344 32.039062 126.691406 31.90625 127.210938 31.710938 L 127.210938 30.992188 C 126.527344 31.324219 126.421875 31.398438 125.613281 31.398438 C 124.71875 31.398438 124.179688 30.859375 124.179688 29.84375 L 124.179688 29.769531 Z M 126.660156 29.1875 L 124.210938 29.1875 C 124.300781 28.617188 124.71875 28.125 125.433594 28.125 C 126.183594 28.125 126.660156 28.589844 126.660156 29.1875 Z M 126.660156 29.1875 "/>
<path fill-rule="nonzero" fill="rgb(0%, 0%, 0%)" fill-opacity="1" d="M 132.175781 31.921875 L 132.175781 31.234375 L 129.128906 31.234375 L 129.128906 25.332031 L 128.398438 25.332031 L 128.398438 31.921875 Z M 132.175781 31.921875 "/>
<path fill-rule="nonzero" fill="rgb(0%, 0%, 0%)" fill-opacity="1" d="M 136.96875 29.453125 L 136.96875 25.332031 L 136.265625 25.332031 L 136.265625 29.351562 C 136.265625 30.5625 135.984375 31.414062 134.683594 31.414062 C 133.355469 31.414062 133.054688 30.589844 133.054688 29.351562 L 133.054688 25.332031 L 132.335938 25.332031 L 132.335938 29.453125 C 132.335938 31.054688 133.039062 32.054688 134.683594 32.054688 C 136.3125 32.054688 136.96875 31.023438 136.96875 29.453125 Z M 136.96875 29.453125 "/>
<path fill="none" stroke-width="0.75" stroke-linecap="butt" stroke-linejoin="miter" stroke="rgb(0%, 0%, 0%)" stroke-opacity="1" stroke-miterlimit="4" d="M 100.421875 28.699219 L 115.203125 28.699219 "/>
<path fill-rule="evenodd" fill="rgb(0%, 0%, 0%)" fill-opacity="1" stroke-width="0.28125" stroke-linecap="butt" stroke-linejoin="round" stroke="rgb(0%, 0%, 0%)" stroke-opacity="1" stroke-miterlimit="4" d="M -111.28125 -26.886719 L -116.195312 -28.691406 L -111.28125 -30.5 C -112.066406 -29.433594 -112.0625 -27.972656 -111.28125 -26.886719 Z M -111.28125 -26.886719 " transform="matrix(-1, 0, 0, -1, 0, 0)"/>
<path fill="none" stroke-width="0.75" stroke-linecap="butt" stroke-linejoin="miter" stroke="rgb(0%, 0%, 0%)" stroke-opacity="1" stroke-miterlimit="4" d="M 25.296875 28.699219 L 70.671875 28.699219 "/>
<path fill-rule="evenodd" fill="rgb(0%, 0%, 0%)" fill-opacity="1" stroke-width="0.28125" stroke-linecap="butt" stroke-linejoin="round" stroke="rgb(0%, 0%, 0%)" stroke-opacity="1" stroke-miterlimit="4" d="M -66.75 -26.886719 L -71.664062 -28.691406 L -66.75 -30.5 C -67.535156 -29.433594 -67.53125 -27.972656 -66.75 -26.886719 Z M -66.75 -26.886719 " transform="matrix(-1, 0, 0, -1, 0, 0)"/>
<path fill="none" stroke-width="0.75" stroke-linecap="butt" stroke-linejoin="miter" stroke="rgb(0%, 0%, 0%)" stroke-opacity="1" stroke-miterlimit="4" d="M 176.230469 28.699219 L 185.105469 28.699219 "/>
<path fill-rule="evenodd" fill="rgb(0%, 0%, 0%)" fill-opacity="1" stroke-width="0.28125" stroke-linecap="butt" stroke-linejoin="round" stroke="rgb(0%, 0%, 0%)" stroke-opacity="1" stroke-miterlimit="4" d="M -181.183594 -26.886719 L -186.101562 -28.691406 L -181.183594 -30.5 C -181.96875 -29.433594 -181.964844 -27.972656 -181.183594 -26.886719 Z M -181.183594 -26.886719 " transform="matrix(-1, 0, 0, -1, 0, 0)"/>
<path fill-rule="nonzero" fill="rgb(0%, 0%, 0%)" fill-opacity="1" d="M 176.222656 117.824219 C 176.222656 115.507812 174.324219 113.625 172.007812 113.625 C 169.671875 113.625 167.792969 115.527344 167.792969 117.824219 C 167.792969 120.160156 169.691406 122.039062 172.007812 122.039062 C 174.34375 122.039062 176.222656 120.136719 176.222656 117.824219 Z M 168.109375 117.664062 C 168.226562 115.546875 169.871094 114.042969 171.847656 113.945312 L 171.847656 117.664062 Z M 172.164062 113.945312 C 174.144531 114.042969 175.769531 115.566406 175.90625 117.664062 L 172.164062 117.664062 Z M 171.847656 121.722656 C 169.890625 121.621094 168.226562 120.136719 168.109375 117.980469 L 171.847656 117.980469 Z M 175.90625 117.980469 C 175.769531 120.136719 174.105469 121.621094 172.164062 121.722656 L 172.164062 117.980469 Z M 175.90625 117.980469 "/>
<path fill="none" stroke-width="0.751181" stroke-linecap="butt" stroke-linejoin="miter" stroke="rgb(0%, 0%, 0%)" stroke-opacity="1" stroke-miterlimit="4" d="M 22.167969 117.992188 L 22.167969 100.660156 L 171.984375 100.660156 L 171.984375 112.539062 "/>
<path fill-rule="evenodd" fill="rgb(0%, 0%, 0%)" fill-opacity="1" stroke-width="0.281693" stroke-linecap="butt" stroke-linejoin="round" stroke="rgb(0%, 0%, 0%)" stroke-opacity="1" stroke-miterlimit="4" d="M -108.609375 173.800781 L -113.535156 171.992188 L -108.609375 170.179688 C -109.394531 171.25 -109.390625 172.710938 -108.609375 173.800781 Z M -108.609375 173.800781 " transform="matrix(0, -1, 1, 0, 0, 0)"/>
<g clip-path="url(#clip-0)">
<path fill-rule="nonzero" fill="rgb(81.959534%, 51.371765%, 38.430786%)" fill-opacity="1" d="M 65.566406 110.304688 L 88.902344 110.304688 C 90.257812 110.304688 91.351562 111.394531 91.351562 112.75 L 91.351562 122.914062 C 91.351562 124.269531 90.257812 125.359375 88.902344 125.359375 L 65.566406 125.359375 C 64.210938 125.359375 63.121094 124.269531 63.121094 122.914062 L 63.121094 112.75 C 63.121094 111.394531 64.210938 110.304688 65.566406 110.304688 Z M 65.566406 110.304688 "/>
</g>
<g clip-path="url(#clip-1)">
<path fill="none" stroke-width="0.372301" stroke-linecap="butt" stroke-linejoin="round" stroke="rgb(0%, 0%, 0%)" stroke-opacity="1" stroke-miterlimit="4" d="M 65.566406 110.304688 L 88.902344 110.304688 C 90.257812 110.304688 91.351562 111.394531 91.351562 112.75 L 91.351562 122.914062 C 91.351562 124.269531 90.257812 125.359375 88.902344 125.359375 L 65.566406 125.359375 C 64.210938 125.359375 63.121094 124.269531 63.121094 122.914062 L 63.121094 112.75 C 63.121094 111.394531 64.210938 110.304688 65.566406 110.304688 Z M 65.566406 110.304688 "/>
</g>
<path fill-rule="nonzero" fill="rgb(0%, 0%, 0%)" fill-opacity="1" d="M 69.328125 121.066406 L 69.328125 120.378906 L 66.28125 120.378906 L 66.28125 114.480469 L 65.550781 114.480469 L 65.550781 121.066406 Z M 69.328125 121.066406 "/>
<path fill-rule="nonzero" fill="rgb(0%, 0%, 0%)" fill-opacity="1" d="M 70.746094 121.066406 L 70.746094 116.765625 L 70.027344 116.765625 L 70.027344 121.066406 Z M 70.386719 114.480469 C 70.160156 114.480469 69.96875 114.6875 69.96875 114.910156 C 69.96875 115.152344 70.160156 115.359375 70.386719 115.359375 C 70.625 115.359375 70.804688 115.152344 70.804688 114.910156 C 70.804688 114.6875 70.625 114.480469 70.386719 114.480469 Z M 70.386719 114.480469 "/>
<path fill-rule="nonzero" fill="rgb(0%, 0%, 0%)" fill-opacity="1" d="M 75.761719 121.066406 L 75.761719 118.46875 C 75.761719 117.453125 75.328125 116.660156 74.222656 116.660156 C 73.667969 116.660156 73.101562 116.867188 72.757812 117.347656 L 72.757812 116.765625 L 72.054688 116.765625 L 72.054688 121.066406 L 72.757812 121.066406 L 72.757812 118.632812 C 72.789062 117.808594 73.296875 117.289062 74.058594 117.289062 C 74.804688 117.289062 75.074219 117.734375 75.074219 118.496094 L 75.074219 121.066406 Z M 75.761719 121.066406 "/>
<path fill-rule="nonzero" fill="rgb(0%, 0%, 0%)" fill-opacity="1" d="M 80.710938 118.914062 L 80.710938 118.839844 C 80.710938 117.601562 80.203125 116.691406 78.78125 116.660156 C 77.511719 116.660156 76.792969 117.765625 76.792969 118.960938 C 76.792969 120.261719 77.585938 121.1875 78.902344 121.1875 C 79.5 121.1875 80.035156 121.050781 80.558594 120.859375 L 80.558594 120.140625 C 79.871094 120.46875 79.769531 120.542969 78.960938 120.542969 C 78.066406 120.542969 77.527344 120.007812 77.527344 118.992188 L 77.527344 118.914062 Z M 80.007812 118.332031 L 77.558594 118.332031 C 77.644531 117.765625 78.066406 117.273438 78.78125 117.273438 C 79.527344 117.273438 80.007812 117.734375 80.007812 118.332031 Z M 80.007812 118.332031 "/>
<path fill-rule="nonzero" fill="rgb(0%, 0%, 0%)" fill-opacity="1" d="M 85.046875 121.066406 L 85.046875 118.617188 C 85.046875 117.378906 84.523438 116.660156 83.238281 116.660156 C 82.773438 116.660156 82.207031 116.808594 81.789062 116.957031 L 81.789062 117.660156 C 82.222656 117.421875 82.582031 117.273438 83.179688 117.273438 C 83.867188 117.289062 84.386719 117.632812 84.386719 118.347656 L 83.402344 118.347656 C 82.386719 118.347656 81.488281 118.691406 81.488281 119.8125 C 81.519531 120.679688 82.027344 121.1875 82.894531 121.1875 C 83.507812 121.1875 84.058594 120.933594 84.386719 120.5 L 84.386719 121.066406 Z M 84.386719 119.066406 C 84.386719 119.902344 84 120.574219 83.101562 120.574219 C 82.582031 120.574219 82.148438 120.335938 82.148438 119.765625 C 82.148438 118.929688 82.9375 118.929688 83.6875 118.929688 L 84.386719 118.929688 Z M 84.386719 119.066406 "/>
<path fill-rule="nonzero" fill="rgb(0%, 0%, 0%)" fill-opacity="1" d="M 88.695312 117.632812 L 88.921875 116.945312 C 88.816406 116.824219 88.351562 116.703125 88.039062 116.703125 C 87.589844 116.71875 87.21875 116.945312 87.023438 117.347656 L 87.023438 116.765625 L 86.304688 116.765625 L 86.304688 121.066406 L 87.023438 121.066406 L 87.023438 118.796875 C 87.023438 118.78125 87.023438 118.765625 87.023438 118.765625 C 87.023438 118.140625 87.351562 117.316406 88.023438 117.316406 L 88.070312 117.316406 C 88.292969 117.316406 88.472656 117.453125 88.695312 117.632812 Z M 88.695312 117.632812 "/>
<g clip-path="url(#clip-2)">
<path fill-rule="nonzero" fill="rgb(62.744141%, 85.096741%, 82.743835%)" fill-opacity="1" d="M 34.121094 110.285156 L 52.761719 110.285156 C 53.84375 110.285156 54.714844 111.378906 54.714844 112.738281 L 54.714844 122.925781 C 54.714844 124.285156 53.84375 125.378906 52.761719 125.378906 L 34.121094 125.378906 C 33.039062 125.378906 32.164062 124.285156 32.164062 122.925781 L 32.164062 112.738281 C 32.164062 111.378906 33.039062 110.285156 34.121094 110.285156 Z M 34.121094 110.285156 "/>
</g>
<g clip-path="url(#clip-3)">
<path fill="none" stroke-width="0.372301" stroke-linecap="butt" stroke-linejoin="round" stroke="rgb(0%, 0%, 0%)" stroke-opacity="1" stroke-miterlimit="4" d="M 34.121094 110.285156 L 52.761719 110.285156 C 53.84375 110.285156 54.714844 111.378906 54.714844 112.738281 L 54.714844 122.925781 C 54.714844 124.285156 53.84375 125.378906 52.761719 125.378906 L 34.121094 125.378906 C 33.039062 125.378906 32.164062 124.285156 32.164062 122.925781 L 32.164062 112.738281 C 32.164062 111.378906 33.039062 110.285156 34.121094 110.285156 Z M 34.121094 110.285156 "/>
</g>
<path fill-rule="nonzero" fill="rgb(0%, 0%, 0%)" fill-opacity="1" d="M 38.691406 121.058594 C 38.015625 120.296875 37.882812 118.535156 36.910156 117.9375 C 37.957031 117.652344 38.136719 117.117188 38.136719 116.339844 C 38.136719 115.023438 37.375 114.472656 36.121094 114.472656 L 34.269531 114.472656 L 34.269531 121.058594 L 34.984375 121.058594 L 34.984375 118.234375 L 36.03125 118.234375 C 36.464844 118.234375 36.835938 118.609375 37.195312 119.355469 C 37.417969 119.9375 37.480469 120.640625 37.941406 121.058594 Z M 37.433594 116.339844 C 37.433594 117.175781 36.925781 117.578125 36.121094 117.578125 L 34.984375 117.578125 L 34.984375 115.128906 L 36.121094 115.128906 C 36.910156 115.144531 37.433594 115.457031 37.433594 116.339844 Z M 37.433594 116.339844 "/>
<path fill-rule="nonzero" fill="rgb(0%, 0%, 0%)" fill-opacity="1" d="M 43.007812 118.910156 L 43.007812 118.832031 C 43.007812 117.59375 42.5 116.683594 41.078125 116.652344 C 39.808594 116.652344 39.09375 117.757812 39.09375 118.953125 C 39.09375 120.253906 39.882812 121.179688 41.199219 121.179688 C 41.796875 121.179688 42.335938 121.042969 42.855469 120.851562 L 42.855469 120.132812 C 42.167969 120.460938 42.066406 120.535156 41.257812 120.535156 C 40.363281 120.535156 39.824219 120 39.824219 118.984375 L 39.824219 118.910156 Z M 42.304688 118.324219 L 39.855469 118.324219 C 39.945312 117.757812 40.363281 117.265625 41.078125 117.265625 C 41.824219 117.265625 42.304688 117.726562 42.304688 118.324219 Z M 42.304688 118.324219 "/>
<path fill-rule="nonzero" fill="rgb(0%, 0%, 0%)" fill-opacity="1" d="M 47.820312 121.058594 L 47.820312 120.371094 L 44.773438 120.371094 L 44.773438 114.472656 L 44.042969 114.472656 L 44.042969 121.058594 Z M 47.820312 121.058594 "/>
<path fill-rule="nonzero" fill="rgb(0%, 0%, 0%)" fill-opacity="1" d="M 52.613281 118.59375 L 52.613281 114.472656 L 51.910156 114.472656 L 51.910156 118.488281 C 51.910156 119.699219 51.628906 120.550781 50.328125 120.550781 C 48.996094 120.550781 48.699219 119.730469 48.699219 118.488281 L 48.699219 114.472656 L 47.980469 114.472656 L 47.980469 118.59375 C 47.980469 120.191406 48.683594 121.195312 50.328125 121.195312 C 51.957031 121.195312 52.613281 120.164062 52.613281 118.59375 Z M 52.613281 118.59375 "/>
<g clip-path="url(#clip-4)">
<path fill-rule="nonzero" fill="rgb(81.959534%, 51.371765%, 38.430786%)" fill-opacity="1" stroke-width="0.372301" stroke-linecap="butt" stroke-linejoin="round" stroke="rgb(0%, 0%, 0%)" stroke-opacity="1" stroke-miterlimit="4" d="M 133.402344 110.304688 L 156.738281 110.304688 C 158.09375 110.304688 159.183594 111.394531 159.183594 112.75 L 159.183594 122.914062 C 159.183594 124.269531 158.09375 125.359375 156.738281 125.359375 L 133.402344 125.359375 C 132.046875 125.359375 130.957031 124.269531 130.957031 122.914062 L 130.957031 112.75 C 130.957031 111.394531 132.046875 110.304688 133.402344 110.304688 Z M 133.402344 110.304688 "/>
</g>
<path fill-rule="nonzero" fill="rgb(0%, 0%, 0%)" fill-opacity="1" d="M 137.164062 121.066406 L 137.164062 120.378906 L 134.117188 120.378906 L 134.117188 114.480469 L 133.386719 114.480469 L 133.386719 121.066406 Z M 137.164062 121.066406 "/>
<path fill-rule="nonzero" fill="rgb(0%, 0%, 0%)" fill-opacity="1" d="M 138.578125 121.066406 L 138.578125 116.765625 L 137.863281 116.765625 L 137.863281 121.066406 Z M 138.222656 114.480469 C 137.996094 114.480469 137.800781 114.6875 137.800781 114.910156 C 137.800781 115.152344 137.996094 115.359375 138.222656 115.359375 C 138.460938 115.359375 138.640625 115.152344 138.640625 114.910156 C 138.640625 114.6875 138.460938 114.480469 138.222656 114.480469 Z M 138.222656 114.480469 "/>
<path fill-rule="nonzero" fill="rgb(0%, 0%, 0%)" fill-opacity="1" d="M 143.597656 121.066406 L 143.597656 118.46875 C 143.597656 117.453125 143.164062 116.660156 142.058594 116.660156 C 141.503906 116.660156 140.9375 116.867188 140.59375 117.347656 L 140.59375 116.765625 L 139.890625 116.765625 L 139.890625 121.066406 L 140.59375 121.066406 L 140.59375 118.632812 C 140.625 117.808594 141.132812 117.289062 141.894531 117.289062 C 142.640625 117.289062 142.910156 117.734375 142.910156 118.496094 L 142.910156 121.066406 Z M 143.597656 121.066406 "/>
<path fill-rule="nonzero" fill="rgb(0%, 0%, 0%)" fill-opacity="1" d="M 148.542969 118.914062 L 148.542969 118.839844 C 148.542969 117.601562 148.035156 116.691406 146.617188 116.660156 C 145.347656 116.660156 144.628906 117.765625 144.628906 118.960938 C 144.628906 120.261719 145.421875 121.1875 146.738281 121.1875 C 147.335938 121.1875 147.871094 121.050781 148.394531 120.859375 L 148.394531 120.140625 C 147.707031 120.46875 147.601562 120.542969 146.796875 120.542969 C 145.898438 120.542969 145.363281 120.007812 145.363281 118.992188 L 145.363281 118.914062 Z M 147.84375 118.332031 L 145.390625 118.332031 C 145.480469 117.765625 145.898438 117.273438 146.617188 117.273438 C 147.363281 117.273438 147.84375 117.734375 147.84375 118.332031 Z M 147.84375 118.332031 "/>
<path fill-rule="nonzero" fill="rgb(0%, 0%, 0%)" fill-opacity="1" d="M 152.878906 121.066406 L 152.878906 118.617188 C 152.878906 117.378906 152.359375 116.660156 151.074219 116.660156 C 150.609375 116.660156 150.042969 116.808594 149.625 116.957031 L 149.625 117.660156 C 150.058594 117.421875 150.414062 117.273438 151.011719 117.273438 C 151.699219 117.289062 152.222656 117.632812 152.222656 118.347656 L 151.238281 118.347656 C 150.222656 118.347656 149.324219 118.691406 149.324219 119.8125 C 149.355469 120.679688 149.863281 121.1875 150.730469 121.1875 C 151.34375 121.1875 151.894531 120.933594 152.222656 120.5 L 152.222656 121.066406 Z M 152.222656 119.066406 C 152.222656 119.902344 151.835938 120.574219 150.9375 120.574219 C 150.414062 120.574219 149.984375 120.335938 149.984375 119.765625 C 149.984375 118.929688 150.773438 118.929688 151.519531 118.929688 L 152.222656 118.929688 Z M 152.222656 119.066406 "/>
<path fill-rule="nonzero" fill="rgb(0%, 0%, 0%)" fill-opacity="1" d="M 156.53125 117.632812 L 156.757812 116.945312 C 156.652344 116.824219 156.1875 116.703125 155.875 116.703125 C 155.425781 116.71875 155.054688 116.945312 154.859375 117.347656 L 154.859375 116.765625 L 154.140625 116.765625 L 154.140625 121.066406 L 154.859375 121.066406 L 154.859375 118.796875 C 154.859375 118.78125 154.859375 118.765625 154.859375 118.765625 C 154.859375 118.140625 155.1875 117.316406 155.859375 117.316406 L 155.90625 117.316406 C 156.128906 117.316406 156.308594 117.453125 156.53125 117.632812 Z M 156.53125 117.632812 "/>
<g clip-path="url(#clip-5)">
<path fill-rule="nonzero" fill="rgb(62.744141%, 85.096741%, 82.743835%)" fill-opacity="1" d="M 101.988281 110.285156 L 120.628906 110.285156 C 121.710938 110.285156 122.582031 111.378906 122.582031 112.738281 L 122.582031 122.925781 C 122.582031 124.285156 121.710938 125.378906 120.628906 125.378906 L 101.988281 125.378906 C 100.90625 125.378906 100.035156 124.285156 100.035156 122.925781 L 100.035156 112.738281 C 100.035156 111.378906 100.90625 110.285156 101.988281 110.285156 Z M 101.988281 110.285156 "/>
</g>
<g clip-path="url(#clip-6)">
<path fill="none" stroke-width="0.372301" stroke-linecap="butt" stroke-linejoin="round" stroke="rgb(0%, 0%, 0%)" stroke-opacity="1" stroke-miterlimit="4" d="M 101.988281 110.285156 L 120.628906 110.285156 C 121.710938 110.285156 122.582031 111.378906 122.582031 112.738281 L 122.582031 122.925781 C 122.582031 124.285156 121.710938 125.378906 120.628906 125.378906 L 101.988281 125.378906 C 100.90625 125.378906 100.035156 124.285156 100.035156 122.925781 L 100.035156 112.738281 C 100.035156 111.378906 100.90625 110.285156 101.988281 110.285156 Z M 101.988281 110.285156 "/>
</g>
<path fill-rule="nonzero" fill="rgb(0%, 0%, 0%)" fill-opacity="1" d="M 106.558594 121.058594 C 105.886719 120.296875 105.75 118.535156 104.78125 117.9375 C 105.824219 117.652344 106.003906 117.117188 106.003906 116.339844 C 106.003906 115.023438 105.242188 114.472656 103.988281 114.472656 L 102.136719 114.472656 L 102.136719 121.058594 L 102.851562 121.058594 L 102.851562 118.234375 L 103.898438 118.234375 C 104.332031 118.234375 104.707031 118.609375 105.0625 119.355469 C 105.289062 119.9375 105.347656 120.640625 105.8125 121.058594 Z M 105.304688 116.339844 C 105.304688 117.175781 104.796875 117.578125 103.988281 117.578125 L 102.851562 117.578125 L 102.851562 115.128906 L 103.988281 115.128906 C 104.78125 115.144531 105.304688 115.457031 105.304688 116.339844 Z M 105.304688 116.339844 "/>
<path fill-rule="nonzero" fill="rgb(0%, 0%, 0%)" fill-opacity="1" d="M 110.875 118.910156 L 110.875 118.832031 C 110.875 117.59375 110.367188 116.683594 108.949219 116.652344 C 107.675781 116.652344 106.960938 117.757812 106.960938 118.953125 C 106.960938 120.253906 107.753906 121.179688 109.066406 121.179688 C 109.664062 121.179688 110.203125 121.042969 110.726562 120.851562 L 110.726562 120.132812 C 110.039062 120.460938 109.933594 120.535156 109.125 120.535156 C 108.230469 120.535156 107.691406 120 107.691406 118.984375 L 107.691406 118.910156 Z M 110.171875 118.324219 L 107.722656 118.324219 C 107.8125 117.757812 108.230469 117.265625 108.949219 117.265625 C 109.695312 117.265625 110.171875 117.726562 110.171875 118.324219 Z M 110.171875 118.324219 "/>
<path fill-rule="nonzero" fill="rgb(0%, 0%, 0%)" fill-opacity="1" d="M 115.6875 121.058594 L 115.6875 120.371094 L 112.640625 120.371094 L 112.640625 114.472656 L 111.910156 114.472656 L 111.910156 121.058594 Z M 115.6875 121.058594 "/>
<path fill-rule="nonzero" fill="rgb(0%, 0%, 0%)" fill-opacity="1" d="M 120.480469 118.59375 L 120.480469 114.472656 L 119.78125 114.472656 L 119.78125 118.488281 C 119.78125 119.699219 119.496094 120.550781 118.195312 120.550781 C 116.867188 120.550781 116.566406 119.730469 116.566406 118.488281 L 116.566406 114.472656 L 115.851562 114.472656 L 115.851562 118.59375 C 115.851562 120.191406 116.550781 121.195312 118.195312 121.195312 C 119.824219 121.195312 120.480469 120.164062 120.480469 118.59375 Z M 120.480469 118.59375 "/>
<path fill="none" stroke-width="0.75" stroke-linecap="butt" stroke-linejoin="miter" stroke="rgb(0%, 0%, 0%)" stroke-opacity="1" stroke-miterlimit="4" d="M 54.523438 117.839844 L 61.792969 117.839844 "/>
<path fill-rule="evenodd" fill="rgb(0%, 0%, 0%)" fill-opacity="1" stroke-width="0.28125" stroke-linecap="butt" stroke-linejoin="round" stroke="rgb(0%, 0%, 0%)" stroke-opacity="1" stroke-miterlimit="4" d="M -57.871094 -116.023438 L -62.785156 -117.832031 L -57.871094 -119.640625 C -58.65625 -118.574219 -58.652344 -117.113281 -57.871094 -116.023438 Z M -57.871094 -116.023438 " transform="matrix(-1, 0, 0, -1, 0, 0)"/>
<path fill="none" stroke-width="0.75" stroke-linecap="butt" stroke-linejoin="miter" stroke="rgb(0%, 0%, 0%)" stroke-opacity="1" stroke-miterlimit="4" d="M 176.09375 117.839844 L 185.105469 117.839844 "/>
<path fill-rule="evenodd" fill="rgb(0%, 0%, 0%)" fill-opacity="1" stroke-width="0.28125" stroke-linecap="butt" stroke-linejoin="round" stroke="rgb(0%, 0%, 0%)" stroke-opacity="1" stroke-miterlimit="4" d="M -181.183594 -116.023438 L -186.101562 -117.832031 L -181.183594 -119.640625 C -181.96875 -118.574219 -181.964844 -117.113281 -181.183594 -116.023438 Z M -181.183594 -116.023438 " transform="matrix(-1, 0, 0, -1, 0, 0)"/>
<path fill="none" stroke-width="0.75" stroke-linecap="butt" stroke-linejoin="miter" stroke="rgb(0%, 0%, 0%)" stroke-opacity="1" stroke-miterlimit="4" d="M 16.125 117.839844 L 30.988281 117.839844 "/>
<path fill-rule="evenodd" fill="rgb(0%, 0%, 0%)" fill-opacity="1" stroke-width="0.28125" stroke-linecap="butt" stroke-linejoin="round" stroke="rgb(0%, 0%, 0%)" stroke-opacity="1" stroke-miterlimit="4" d="M -27.066406 -116.023438 L -31.984375 -117.832031 L -27.066406 -119.640625 C -27.851562 -118.574219 -27.847656 -117.113281 -27.066406 -116.023438 Z M -27.066406 -116.023438 " transform="matrix(-1, 0, 0, -1, 0, 0)"/>
<path fill="none" stroke-width="0.75" stroke-linecap="butt" stroke-linejoin="miter" stroke="rgb(0%, 0%, 0%)" stroke-opacity="1" stroke-miterlimit="4" d="M 159.242188 117.839844 L 166.660156 117.839844 "/>
<path fill-rule="evenodd" fill="rgb(0%, 0%, 0%)" fill-opacity="1" stroke-width="0.28125" stroke-linecap="butt" stroke-linejoin="round" stroke="rgb(0%, 0%, 0%)" stroke-opacity="1" stroke-miterlimit="4" d="M -162.734375 -116.023438 L -167.652344 -117.832031 L -162.734375 -119.640625 C -163.523438 -118.574219 -163.515625 -117.113281 -162.734375 -116.023438 Z M -162.734375 -116.023438 " transform="matrix(-1, 0, 0, -1, 0, 0)"/>
<path fill="none" stroke-width="0.75" stroke-linecap="butt" stroke-linejoin="miter" stroke="rgb(0%, 0%, 0%)" stroke-opacity="1" stroke-miterlimit="4" d="M 122.558594 117.839844 L 129.828125 117.839844 "/>
<path fill-rule="evenodd" fill="rgb(0%, 0%, 0%)" fill-opacity="1" stroke-width="0.28125" stroke-linecap="butt" stroke-linejoin="round" stroke="rgb(0%, 0%, 0%)" stroke-opacity="1" stroke-miterlimit="4" d="M -125.90625 -116.023438 L -130.824219 -117.832031 L -125.90625 -119.640625 C -126.691406 -118.574219 -126.6875 -117.113281 -125.90625 -116.023438 Z M -125.90625 -116.023438 " transform="matrix(-1, 0, 0, -1, 0, 0)"/>
<path fill="none" stroke-width="0.75" stroke-linecap="butt" stroke-linejoin="miter" stroke="rgb(0%, 0%, 0%)" stroke-opacity="1" stroke-miterlimit="4" d="M 91.402344 117.839844 L 98.890625 117.839844 "/>
<path fill-rule="evenodd" fill="rgb(0%, 0%, 0%)" fill-opacity="1" stroke-width="0.28125" stroke-linecap="butt" stroke-linejoin="round" stroke="rgb(0%, 0%, 0%)" stroke-opacity="1" stroke-miterlimit="4" d="M -94.96875 -116.023438 L -99.886719 -117.832031 L -94.96875 -119.640625 C -95.753906 -118.574219 -95.75 -117.113281 -94.96875 -116.023438 Z M -94.96875 -116.023438 " transform="matrix(-1, 0, 0, -1, 0, 0)"/>
<path fill-rule="nonzero" fill="rgb(0%, 0%, 0%)" fill-opacity="1" d="M 20.371094 28.296875 L 21.667969 26.84375 C 21.824219 26.6875 21.894531 26.617188 22.804688 26.617188 L 22.804688 26.09375 C 22.417969 26.109375 21.839844 26.128906 21.789062 26.128906 C 21.507812 26.128906 20.949219 26.09375 20.632812 26.09375 L 20.632812 26.617188 C 20.792969 26.617188 20.929688 26.636719 21.054688 26.707031 C 21.019531 26.777344 21.019531 26.8125 20.964844 26.84375 L 20.039062 27.894531 L 18.9375 26.617188 L 19.390625 26.617188 L 19.390625 26.09375 C 19.09375 26.09375 18.394531 26.128906 18.027344 26.128906 C 17.675781 26.128906 17.167969 26.09375 16.800781 26.09375 L 16.800781 26.617188 L 17.605469 26.617188 L 19.339844 28.664062 L 17.867188 30.3125 C 17.695312 30.519531 17.292969 30.519531 16.75 30.519531 L 16.75 31.046875 C 17.132812 31.027344 17.730469 31.011719 17.78125 31.011719 C 18.0625 31.011719 18.707031 31.027344 18.917969 31.046875 L 18.917969 30.519531 C 18.726562 30.519531 18.515625 30.46875 18.515625 30.398438 C 18.515625 30.378906 18.515625 30.378906 18.585938 30.292969 L 19.671875 29.066406 L 20.894531 30.519531 L 20.457031 30.519531 L 20.457031 31.046875 C 20.757812 31.027344 21.4375 31.011719 21.804688 31.011719 C 22.15625 31.011719 22.664062 31.027344 23.03125 31.046875 L 23.03125 30.519531 L 22.242188 30.519531 Z M 20.371094 28.296875 "/>
<path fill-rule="nonzero" fill="rgb(0%, 0%, 0%)" fill-opacity="1" d="M 20.371094 72.867188 L 21.667969 71.414062 C 21.824219 71.257812 21.894531 71.1875 22.804688 71.1875 L 22.804688 70.664062 C 22.417969 70.679688 21.839844 70.699219 21.789062 70.699219 C 21.507812 70.699219 20.949219 70.664062 20.632812 70.664062 L 20.632812 71.1875 C 20.792969 71.1875 20.929688 71.207031 21.054688 71.277344 C 21.019531 71.34375 21.019531 71.378906 20.964844 71.414062 L 20.039062 72.464844 L 18.9375 71.1875 L 19.390625 71.1875 L 19.390625 70.664062 C 19.09375 70.664062 18.394531 70.699219 18.027344 70.699219 C 17.675781 70.699219 17.167969 70.664062 16.800781 70.664062 L 16.800781 71.1875 L 17.605469 71.1875 L 19.339844 73.234375 L 17.867188 74.878906 C 17.695312 75.089844 17.292969 75.089844 16.75 75.089844 L 16.75 75.617188 C 17.132812 75.597656 17.730469 75.582031 17.78125 75.582031 C 18.0625 75.582031 18.707031 75.597656 18.917969 75.617188 L 18.917969 75.089844 C 18.726562 75.089844 18.515625 75.039062 18.515625 74.96875 C 18.515625 74.949219 18.515625 74.949219 18.585938 74.863281 L 19.671875 73.636719 L 20.894531 75.089844 L 20.457031 75.089844 L 20.457031 75.617188 C 20.757812 75.597656 21.4375 75.582031 21.804688 75.582031 C 22.15625 75.582031 22.664062 75.597656 23.03125 75.617188 L 23.03125 75.089844 L 22.242188 75.089844 Z M 20.371094 72.867188 "/>
<path fill-rule="nonzero" fill="rgb(0%, 0%, 0%)" fill-opacity="1" d="M 5.191406 6.738281 C 5.191406 5.453125 4.261719 4.5625 3.09375 4.5625 C 2.28125 4.5625 1.707031 4.757812 1.113281 5.09375 L 1.191406 5.925781 C 1.84375 5.472656 2.480469 5.3125 3.09375 5.3125 C 3.6875 5.3125 4.199219 5.808594 4.199219 6.738281 L 4.199219 7.292969 C 2.300781 7.3125 0.699219 7.847656 0.699219 8.953125 C 0.699219 9.488281 1.035156 10.519531 2.140625 10.519531 C 2.320312 10.519531 3.507812 10.5 4.242188 9.925781 L 4.242188 10.378906 L 5.191406 10.378906 Z M 4.199219 8.71875 C 4.199219 8.953125 4.199219 9.273438 3.765625 9.507812 C 3.410156 9.726562 2.914062 9.746094 2.777344 9.746094 C 2.183594 9.746094 1.609375 9.449219 1.609375 8.933594 C 1.609375 8.042969 3.648438 7.964844 4.199219 7.925781 Z M 4.199219 8.71875 "/>
<path fill-rule="nonzero" fill="rgb(0%, 0%, 0%)" fill-opacity="1" d="M 7.691406 13.546875 C 8.089844 13.152344 8.941406 12.378906 9.515625 10.835938 C 10.027344 9.488281 10.109375 8.144531 10.109375 7.214844 C 10.109375 3.136719 8.285156 1.472656 7.691406 0.898438 L 6.921875 0.898438 C 7.515625 1.511719 9.117188 3.136719 9.117188 7.214844 C 9.117188 7.925781 9.078125 9.410156 8.5625 10.894531 C 8.050781 12.359375 7.335938 13.113281 6.921875 13.546875 Z M 7.691406 13.546875 "/>
<path fill-rule="nonzero" fill="rgb(0%, 0%, 0%)" fill-opacity="1" d="M 1.667969 49.695312 L 0.714844 49.695312 L 0.714844 58.464844 L 1.707031 58.464844 L 1.707031 57.890625 C 2.003906 58.167969 2.558594 58.605469 3.410156 58.605469 C 4.65625 58.605469 5.742188 57.335938 5.742188 55.65625 C 5.742188 54.089844 4.894531 52.726562 3.707031 52.726562 C 3.210938 52.726562 2.417969 52.84375 1.667969 53.457031 Z M 1.707031 54.230469 C 1.902344 53.933594 2.359375 53.496094 3.050781 53.496094 C 3.804688 53.496094 4.753906 54.03125 4.753906 55.65625 C 4.753906 57.296875 3.707031 57.832031 2.933594 57.832031 C 2.4375 57.832031 2.023438 57.613281 1.707031 57.019531 Z M 1.707031 54.230469 "/>
<path fill-rule="nonzero" fill="rgb(0%, 0%, 0%)" fill-opacity="1" d="M 7.691406 61.632812 C 8.089844 61.234375 8.941406 60.464844 9.515625 58.921875 C 10.027344 57.574219 10.109375 56.230469 10.109375 55.296875 C 10.109375 51.222656 8.285156 49.558594 7.691406 48.984375 L 6.921875 48.984375 C 7.515625 49.597656 9.117188 51.222656 9.117188 55.296875 C 9.117188 56.011719 9.078125 57.496094 8.5625 58.980469 C 8.050781 60.445312 7.335938 61.195312 6.921875 61.632812 Z M 7.691406 61.632812 "/>
<path fill-rule="nonzero" fill="rgb(0%, 0%, 0%)" fill-opacity="1" d="M 5.785156 90.28125 C 5.035156 89.867188 4.597656 89.75 3.828125 89.75 C 2.085938 89.75 1.054688 91.273438 1.054688 92.757812 C 1.054688 94.320312 2.203125 95.707031 3.789062 95.707031 C 4.460938 95.707031 5.152344 95.527344 5.84375 95.054688 L 5.765625 94.222656 C 5.113281 94.714844 4.441406 94.894531 3.789062 94.894531 C 2.738281 94.894531 2.046875 93.984375 2.046875 92.757812 C 2.046875 91.769531 2.5 90.558594 3.847656 90.558594 C 4.5 90.558594 4.933594 90.660156 5.628906 91.113281 Z M 5.785156 90.28125 "/>
<path fill-rule="nonzero" fill="rgb(0%, 0%, 0%)" fill-opacity="1" d="M 7.691406 98.734375 C 8.089844 98.339844 8.941406 97.566406 9.515625 96.023438 C 10.027344 94.675781 10.109375 93.332031 10.109375 92.402344 C 10.109375 88.324219 8.285156 86.660156 7.691406 86.085938 L 6.921875 86.085938 C 7.515625 86.699219 9.117188 88.324219 9.117188 92.402344 C 9.117188 93.113281 9.078125 94.597656 8.5625 96.082031 C 8.050781 97.546875 7.335938 98.300781 6.921875 98.734375 Z M 7.691406 98.734375 "/>
</svg>
