<?xml version="1.0" encoding="UTF-8"?>
<svg xmlns="http://www.w3.org/2000/svg" xmlns:xlink="http://www.w3.org/1999/xlink" width="410.036896pt" height="21.917713pt" viewBox="0 0 410.036896 21.917713">
<path fill-rule="nonzero" fill="rgb(62.744141%, 85.096741%, 82.743835%)" fill-opacity="1" stroke-width="0.494399" stroke-linecap="butt" stroke-linejoin="round" stroke="rgb(0%, 0%, 0%)" stroke-opacity="1" stroke-miterlimit="4" d="M 71.277344 0.6875 L 102.191406 0.6875 C 103.988281 0.6875 105.433594 2.132812 105.433594 3.929688 L 105.433594 17.390625 C 105.433594 19.1875 103.988281 20.632812 102.191406 20.632812 L 71.277344 20.632812 C 69.480469 20.632812 68.035156 19.1875 68.035156 17.390625 L 68.035156 3.929688 C 68.035156 2.132812 69.480469 0.6875 71.277344 0.6875 Z M 71.277344 0.6875 "/>
<path fill-rule="nonzero" fill="rgb(62.744141%, 85.096741%, 82.743835%)" fill-opacity="1" stroke-width="0.494399" stroke-linecap="butt" stroke-linejoin="round" stroke="rgb(0%, 0%, 0%)" stroke-opacity="1" stroke-miterlimit="4" d="M 227.730469 0.6875 L 258.644531 0.6875 C 260.441406 0.6875 261.886719 2.132812 261.886719 3.929688 L 261.886719 17.390625 C 261.886719 19.1875 260.441406 20.632812 258.644531 20.632812 L 227.730469 20.632812 C 225.933594 20.632812 224.488281 19.1875 224.488281 17.390625 L 224.488281 3.929688 C 224.488281 2.132812 225.933594 0.6875 227.730469 0.6875 Z M 227.730469 0.6875 "/>
<path fill-rule="nonzero" fill="rgb(62.744141%, 85.096741%, 82.743835%)" fill-opacity="1" stroke-width="0.494399" stroke-linecap="butt" stroke-linejoin="round" stroke="rgb(0%, 0%, 0%)" stroke-opacity="1" stroke-miterlimit="4" d="M 149.503906 0.6875 L 180.417969 0.6875 C 182.214844 0.6875 183.660156 2.132812 183.660156 3.929688 L 183.660156 17.390625 C 183.660156 19.1875 182.214844 20.632812 180.417969 20.632812 L 149.503906 20.632812 C 147.707031 20.632812 146.261719 19.1875 146.261719 17.390625 L 146.261719 3.929688 C 146.261719 2.132812 147.707031 0.6875 149.503906 0.6875 Z M 149.503906 0.6875 "/>
<path fill-rule="nonzero" fill="rgb(62.744141%, 85.096741%, 82.743835%)" fill-opacity="1" stroke-width="0.494399" stroke-linecap="butt" stroke-linejoin="round" stroke="rgb(0%, 0%, 0%)" stroke-opacity="1" stroke-miterlimit="4" d="M 305.957031 0.6875 L 336.871094 0.6875 C 338.667969 0.6875 340.113281 2.132812 340.113281 3.929688 L 340.113281 17.390625 C 340.113281 19.1875 338.667969 20.632812 336.871094 20.632812 L 305.957031 20.632812 C 304.160156 20.632812 302.714844 19.1875 302.714844 17.390625 L 302.714844 3.929688 C 302.714844 2.132812 304.160156 0.6875 305.957031 0.6875 Z M 305.957031 0.6875 "/>
<path fill="none" stroke-width="0.749999" stroke-linecap="butt" stroke-linejoin="miter" stroke="rgb(0%, 0%, 0%)" stroke-opacity="1" stroke-miterlimit="4" d="M 105.429688 11.003906 L 144.84375 11.003906 "/>
<path fill-rule="evenodd" fill="rgb(0%, 0%, 0%)" fill-opacity="1" stroke-width="0.28125" stroke-linecap="butt" stroke-linejoin="round" stroke="rgb(0%, 0%, 0%)" stroke-opacity="1" stroke-miterlimit="4" d="M -140.917969 -9.191406 L -145.835938 -11 L -140.917969 -12.804688 C -141.707031 -11.738281 -141.699219 -10.277344 -140.917969 -9.191406 Z M -140.917969 -9.191406 " transform="matrix(-1, 0, 0, -1, 0, 0)"/>
<path fill="none" stroke-width="0.749999" stroke-linecap="butt" stroke-linejoin="miter" stroke="rgb(0%, 0%, 0%)" stroke-opacity="1" stroke-miterlimit="4" d="M 183.921875 11.003906 L 223 11.003906 "/>
<path fill-rule="evenodd" fill="rgb(0%, 0%, 0%)" fill-opacity="1" stroke-width="0.28125" stroke-linecap="butt" stroke-linejoin="round" stroke="rgb(0%, 0%, 0%)" stroke-opacity="1" stroke-miterlimit="4" d="M -219.078125 -9.191406 L -223.996094 -11 L -219.078125 -12.804688 C -219.863281 -11.738281 -219.859375 -10.277344 -219.078125 -9.191406 Z M -219.078125 -9.191406 " transform="matrix(-1, 0, 0, -1, 0, 0)"/>
<path fill="none" stroke-width="0.749999" stroke-linecap="butt" stroke-linejoin="miter" stroke="rgb(0%, 0%, 0%)" stroke-opacity="1" stroke-miterlimit="4" d="M 261.746094 11.003906 L 301.363281 11.003906 "/>
<path fill-rule="evenodd" fill="rgb(0%, 0%, 0%)" fill-opacity="1" stroke-width="0.28125" stroke-linecap="butt" stroke-linejoin="round" stroke="rgb(0%, 0%, 0%)" stroke-opacity="1" stroke-miterlimit="4" d="M -297.4375 -9.191406 L -302.355469 -11 L -297.4375 -12.804688 C -298.222656 -11.738281 -298.21875 -10.277344 -297.4375 -9.191406 Z M -297.4375 -9.191406 " transform="matrix(-1, 0, 0, -1, 0, 0)"/>
<path fill="none" stroke-width="0.749999" stroke-linecap="butt" stroke-linejoin="miter" stroke="rgb(0%, 0%, 0%)" stroke-opacity="1" stroke-miterlimit="4" d="M 340.1875 11.003906 L 379.847656 11.003906 "/>
<path fill-rule="evenodd" fill="rgb(0%, 0%, 0%)" fill-opacity="1" stroke-width="0.28125" stroke-linecap="butt" stroke-linejoin="round" stroke="rgb(0%, 0%, 0%)" stroke-opacity="1" stroke-miterlimit="4" d="M -375.925781 -9.191406 L -380.84375 -11 L -375.925781 -12.804688 C -376.710938 -11.738281 -376.707031 -10.277344 -375.925781 -9.191406 Z M -375.925781 -9.191406 " transform="matrix(-1, 0, 0, -1, 0, 0)"/>
<path fill-rule="nonzero" fill="rgb(0%, 0%, 0%)" fill-opacity="1" d="M 23.359375 10.390625 L 24.65625 8.9375 C 24.8125 8.777344 24.882812 8.710938 25.792969 8.710938 L 25.792969 8.183594 C 25.410156 8.203125 24.832031 8.21875 24.777344 8.21875 C 24.5 8.21875 23.9375 8.183594 23.625 8.183594 L 23.625 8.710938 C 23.78125 8.710938 23.921875 8.726562 24.042969 8.796875 C 24.007812 8.867188 24.007812 8.902344 23.957031 8.9375 L 23.027344 9.988281 L 21.925781 8.710938 L 22.382812 8.710938 L 22.382812 8.183594 C 22.082031 8.183594 21.382812 8.21875 21.015625 8.21875 C 20.667969 8.21875 20.160156 8.183594 19.792969 8.183594 L 19.792969 8.710938 L 20.597656 8.710938 L 22.328125 10.757812 L 20.859375 12.402344 C 20.683594 12.613281 20.28125 12.613281 19.738281 12.613281 L 19.738281 13.136719 C 20.125 13.121094 20.71875 13.101562 20.769531 13.101562 C 21.050781 13.101562 21.699219 13.121094 21.910156 13.136719 L 21.910156 12.613281 C 21.714844 12.613281 21.507812 12.558594 21.507812 12.488281 C 21.507812 12.472656 21.507812 12.472656 21.578125 12.382812 L 22.660156 11.160156 L 23.886719 12.613281 L 23.449219 12.613281 L 23.449219 13.136719 C 23.746094 13.121094 24.429688 13.101562 24.796875 13.101562 C 25.144531 13.101562 25.652344 13.121094 26.019531 13.136719 L 26.019531 12.613281 L 25.234375 12.613281 Z M 23.359375 10.390625 "/>
<path fill-rule="nonzero" fill="rgb(0%, 0%, 0%)" fill-opacity="1" d="M 389.074219 8.980469 C 389.144531 8.824219 389.179688 8.753906 389.898438 8.753906 L 389.898438 8.230469 C 389.636719 8.246094 389.304688 8.265625 389.023438 8.265625 C 388.742188 8.265625 388.234375 8.230469 388.007812 8.230469 L 388.007812 8.753906 C 388.027344 8.753906 388.535156 8.753906 388.535156 8.875 C 388.535156 8.894531 388.480469 9 388.464844 9.015625 L 387.1875 11.765625 L 385.769531 8.753906 L 386.363281 8.753906 L 386.363281 8.230469 C 385.996094 8.246094 385 8.265625 384.980469 8.265625 C 384.667969 8.265625 384.175781 8.230469 383.722656 8.230469 L 383.722656 8.753906 L 384.421875 8.753906 L 386.519531 13.179688 L 386.257812 13.722656 C 386.011719 14.25 385.664062 15.019531 384.859375 15.019531 C 384.699219 15.019531 384.683594 15 384.597656 14.964844 C 384.699219 14.929688 384.945312 14.773438 384.945312 14.371094 C 384.945312 14.003906 384.683594 13.742188 384.296875 13.742188 C 384 13.742188 383.667969 13.953125 383.667969 14.390625 C 383.667969 14.949219 384.195312 15.421875 384.859375 15.421875 C 385.714844 15.421875 386.363281 14.722656 386.679688 14.089844 Z M 389.074219 8.980469 "/>
<path fill-rule="nonzero" fill="rgb(0%, 0%, 0%)" fill-opacity="1" d="M 86.476562 9.535156 L 86.476562 8.644531 L 85.113281 8.644531 L 85.113281 7.925781 C 85.113281 7.121094 85.601562 6.945312 85.742188 6.945312 L 86.703125 6.945312 L 86.703125 5.964844 L 85.742188 5.964844 C 84.847656 5.964844 83.886719 6.507812 83.851562 8.03125 L 83.851562 8.644531 L 83.082031 8.644531 L 83.082031 9.535156 L 83.851562 9.535156 L 83.851562 13.683594 L 85.113281 13.683594 L 85.113281 9.535156 Z M 86.476562 9.535156 "/>
<path fill-rule="nonzero" fill="rgb(0%, 0%, 0%)" fill-opacity="1" d="M 89.300781 10.386719 C 89.300781 10.175781 89.300781 10.175781 89.074219 10.175781 C 88.566406 10.664062 87.867188 10.664062 87.550781 10.664062 L 87.550781 10.945312 C 87.726562 10.945312 88.253906 10.945312 88.671875 10.734375 L 88.671875 14.707031 C 88.671875 14.972656 88.671875 15.074219 87.902344 15.074219 L 87.605469 15.074219 L 87.605469 15.355469 C 87.746094 15.355469 88.707031 15.320312 88.988281 15.320312 C 89.230469 15.320312 90.210938 15.355469 90.386719 15.355469 L 90.386719 15.074219 L 90.089844 15.074219 C 89.300781 15.074219 89.300781 14.972656 89.300781 14.707031 Z M 89.300781 10.386719 "/>
<path fill-rule="nonzero" fill="rgb(0%, 0%, 0%)" fill-opacity="1" d="M 164.582031 9.535156 L 164.582031 8.644531 L 163.214844 8.644531 L 163.214844 7.925781 C 163.214844 7.121094 163.707031 6.945312 163.847656 6.945312 L 164.808594 6.945312 L 164.808594 5.964844 L 163.847656 5.964844 C 162.953125 5.964844 161.992188 6.507812 161.957031 8.03125 L 161.957031 8.644531 L 161.1875 8.644531 L 161.1875 9.535156 L 161.957031 9.535156 L 161.957031 13.683594 L 163.214844 13.683594 L 163.214844 9.535156 Z M 164.582031 9.535156 "/>
<path fill-rule="nonzero" fill="rgb(0%, 0%, 0%)" fill-opacity="1" d="M 168.734375 13.9375 L 168.472656 13.9375 C 168.457031 14.113281 168.367188 14.570312 168.265625 14.636719 C 168.210938 14.691406 167.617188 14.691406 167.492188 14.691406 L 166.058594 14.691406 C 166.882812 13.972656 167.160156 13.746094 167.617188 13.378906 C 168.195312 12.921875 168.734375 12.433594 168.734375 11.699219 C 168.734375 10.753906 167.914062 10.175781 166.917969 10.175781 C 165.953125 10.175781 165.289062 10.859375 165.289062 11.574219 C 165.289062 11.960938 165.621094 12.011719 165.707031 12.011719 C 165.882812 12.011719 166.109375 11.875 166.109375 11.59375 C 166.109375 11.453125 166.058594 11.171875 165.65625 11.171875 C 165.902344 10.632812 166.425781 10.457031 166.792969 10.457031 C 167.582031 10.457031 167.984375 11.070312 167.984375 11.699219 C 167.984375 12.382812 167.492188 12.90625 167.25 13.1875 L 165.375 15.058594 C 165.289062 15.128906 165.289062 15.144531 165.289062 15.355469 L 168.507812 15.355469 Z M 168.734375 13.9375 "/>
<path fill-rule="nonzero" fill="rgb(0%, 0%, 0%)" fill-opacity="1" d="M 242.773438 9.457031 L 242.773438 8.5625 L 241.40625 8.5625 L 241.40625 7.847656 C 241.40625 7.042969 241.898438 6.867188 242.039062 6.867188 L 243 6.867188 L 243 5.886719 L 242.039062 5.886719 C 241.144531 5.886719 240.183594 6.429688 240.148438 7.953125 L 240.148438 8.5625 L 239.378906 8.5625 L 239.378906 9.457031 L 240.148438 9.457031 L 240.148438 13.605469 L 241.40625 13.605469 L 241.40625 9.457031 Z M 242.773438 9.457031 "/>
<path fill-rule="nonzero" fill="rgb(0%, 0%, 0%)" fill-opacity="1" d="M 245.125 12.667969 C 245.738281 12.667969 246.175781 13.089844 246.175781 13.929688 C 246.175781 14.890625 245.597656 15.191406 245.160156 15.191406 C 244.84375 15.191406 244.144531 15.101562 243.832031 14.628906 C 244.199219 14.628906 244.285156 14.367188 244.285156 14.191406 C 244.285156 13.945312 244.09375 13.773438 243.847656 13.773438 C 243.636719 13.773438 243.410156 13.914062 243.410156 14.226562 C 243.410156 14.960938 244.214844 15.433594 245.160156 15.433594 C 246.246094 15.433594 246.996094 14.699219 246.996094 13.929688 C 246.996094 13.316406 246.507812 12.703125 245.648438 12.53125 C 246.457031 12.230469 246.753906 11.65625 246.753906 11.164062 C 246.753906 10.550781 246.054688 10.097656 245.179688 10.097656 C 244.320312 10.097656 243.65625 10.515625 243.65625 11.148438 C 243.65625 11.410156 243.832031 11.550781 244.058594 11.550781 C 244.304688 11.550781 244.460938 11.375 244.460938 11.164062 C 244.460938 10.9375 244.304688 10.761719 244.058594 10.746094 C 244.335938 10.414062 244.863281 10.324219 245.160156 10.324219 C 245.511719 10.324219 246 10.5 246 11.164062 C 246 11.496094 245.894531 11.863281 245.683594 12.09375 C 245.441406 12.390625 245.210938 12.40625 244.828125 12.441406 C 244.636719 12.460938 244.617188 12.460938 244.582031 12.460938 C 244.566406 12.460938 244.496094 12.476562 244.496094 12.566406 C 244.496094 12.667969 244.566406 12.667969 244.707031 12.667969 Z M 245.125 12.667969 "/>
<path fill-rule="nonzero" fill="rgb(0%, 0%, 0%)" fill-opacity="1" d="M 320.9375 9.535156 L 320.9375 8.644531 L 319.574219 8.644531 L 319.574219 7.925781 C 319.574219 7.121094 320.0625 6.945312 320.203125 6.945312 L 321.164062 6.945312 L 321.164062 5.964844 L 320.203125 5.964844 C 319.308594 5.964844 318.347656 6.507812 318.3125 8.03125 L 318.3125 8.644531 L 317.542969 8.644531 L 317.542969 9.535156 L 318.3125 9.535156 L 318.3125 13.683594 L 319.574219 13.683594 L 319.574219 9.535156 Z M 320.9375 9.535156 "/>
<path fill-rule="nonzero" fill="rgb(0%, 0%, 0%)" fill-opacity="1" d="M 325.285156 14.078125 L 325.285156 13.796875 L 324.410156 13.796875 L 324.410156 10.316406 C 324.410156 10.160156 324.410156 10.089844 324.253906 10.089844 C 324.148438 10.089844 324.113281 10.089844 324.042969 10.210938 L 321.453125 13.796875 L 321.453125 14.078125 L 323.761719 14.078125 L 323.761719 14.707031 C 323.761719 14.988281 323.761719 15.074219 323.117188 15.074219 L 322.90625 15.074219 L 322.90625 15.355469 C 323.308594 15.339844 323.796875 15.320312 324.078125 15.320312 C 324.375 15.320312 324.867188 15.339844 325.269531 15.355469 L 325.269531 15.074219 L 325.058594 15.074219 C 324.410156 15.074219 324.410156 14.988281 324.410156 14.707031 L 324.410156 14.078125 Z M 323.816406 10.945312 L 323.816406 13.796875 L 321.75 13.796875 Z M 323.816406 10.945312 "/>
<path fill="none" stroke-width="0.749999" stroke-linecap="butt" stroke-linejoin="miter" stroke="rgb(0%, 0%, 0%)" stroke-opacity="1" stroke-miterlimit="4" d="M 27.195312 11.003906 L 66.605469 11.003906 "/>
<path fill-rule="evenodd" fill="rgb(0%, 0%, 0%)" fill-opacity="1" stroke-width="0.28125" stroke-linecap="butt" stroke-linejoin="round" stroke="rgb(0%, 0%, 0%)" stroke-opacity="1" stroke-miterlimit="4" d="M -62.683594 -9.191406 L -67.601562 -11 L -62.683594 -12.804688 C -63.46875 -11.738281 -63.464844 -10.277344 -62.683594 -9.191406 Z M -62.683594 -9.191406 " transform="matrix(-1, 0, 0, -1, 0, 0)"/>
</svg>
