<?xml version="1.0" encoding="UTF-8"?>
<svg xmlns="http://www.w3.org/2000/svg" xmlns:xlink="http://www.w3.org/1999/xlink" width="405.798065pt" height="122.349091pt" viewBox="0 0 405.798065 122.349091">
<defs>
<clipPath id="clip-0">
<path clip-rule="nonzero" d="M 268.863281 8 L 402.417969 8 L 402.417969 98 L 268.863281 98 Z M 268.863281 8 "/>
</clipPath>
<clipPath id="clip-1">
<path clip-rule="nonzero" d="M 268.773438 8 L 401.722656 8 L 401.722656 98 L 268.773438 98 Z M 268.773438 8 "/>
</clipPath>
<clipPath id="clip-2">
<path clip-rule="nonzero" d="M 177.289062 27.089844 L 229.058594 27.089844 L 229.058594 68.386719 L 177.289062 68.386719 Z M 177.289062 27.089844 "/>
</clipPath>
<clipPath id="clip-3">
<path clip-rule="nonzero" d="M 84 114 L 90 114 L 90 122.347656 L 84 122.347656 Z M 84 114 "/>
</clipPath>
<clipPath id="clip-4">
<path clip-rule="nonzero" d="M 325 114 L 331 114 L 331 122.347656 L 325 122.347656 Z M 325 114 "/>
</clipPath>
<clipPath id="clip-5">
<path clip-rule="nonzero" d="M 402 103 L 405.796875 103 L 405.796875 110 L 402 110 Z M 402 103 "/>
</clipPath>
<clipPath id="clip-6">
<path clip-rule="nonzero" d="M 27.0625 10 L 160.457031 10 L 160.457031 91 L 27.0625 91 Z M 27.0625 10 "/>
</clipPath>
</defs>
<g clip-path="url(#clip-0)">
<path fill="none" stroke-width="1.522187" stroke-linecap="square" stroke-linejoin="round" stroke="rgb(62.744141%, 85.096741%, 82.743835%)" stroke-opacity="1" stroke-dasharray="4.566562 4.566562" stroke-dashoffset="0.914668" stroke-miterlimit="4" d="M 268.863281 -13.877451 L 270.199219 -14.670448 L 271.535156 -15.53103 L 272.871094 -16.468208 L 274.207031 -17.477477 L 275.542969 -18.57686 L 276.878906 -19.757344 L 278.210938 -21.032448 L 279.546875 -22.397664 L 280.882812 -23.862006 L 282.21875 -25.429977 L 283.554688 -27.097074 L 284.890625 -28.872306 L 286.226562 -30.746663 L 287.5625 -32.729156 L 288.898438 -34.810774 L 290.234375 -36.991516 L 291.566406 -39.262371 L 292.902344 -41.627846 L 294.238281 -44.069917 L 295.574219 -46.584078 L 296.910156 -51.792628 L 298.246094 -57.15437 L 299.582031 -62.57018 L 300.917969 -67.931922 L 302.253906 -73.140472 L 303.585938 -78.096704 L 304.921875 -82.733034 L 306.257812 -86.995394 L 307.59375 -90.852244 L 308.929688 -94.294573 L 310.265625 -97.326886 L 311.601562 -99.967206 L 312.9375 -102.242567 L 314.273438 -104.19352 L 315.609375 -105.8471 L 316.941406 -107.243856 L 318.277344 -108.419835 L 319.613281 -109.397564 L 320.949219 -110.217596 L 322.285156 -110.893445 L 323.621094 -110.569037 L 324.957031 -110.217596 L 326.292969 -109.825603 L 327.628906 -109.397564 L 328.960938 -108.928975 L 330.296875 -108.419835 L 331.632812 -107.856627 L 332.96875 -107.243856 L 334.304688 -106.577018 L 335.640625 -105.8471 L 336.976562 -105.054103 L 338.3125 -104.19352 L 339.648438 -103.256342 L 340.980469 -102.242567 L 342.316406 -101.14769 L 343.652344 -98.692103 L 344.988281 -95.858039 L 346.324219 -92.622971 L 347.660156 -88.977887 L 348.996094 -84.913777 L 350.332031 -80.457673 L 351.667969 -75.654634 L 353.003906 -70.563231 L 354.335938 -65.264568 L 357.007812 -54.459982 L 358.34375 -49.161319 L 359.679688 -44.069917 L 361.015625 -39.262371 L 362.351562 -34.810774 L 363.6875 -30.746663 L 365.023438 -27.097074 L 366.355469 -23.862006 L 367.691406 -21.032448 L 369.027344 -18.57686 L 370.363281 -16.468208 L 371.699219 -14.670448 L 373.035156 -13.147533 L 374.371094 -11.867924 L 375.707031 -10.791069 L 377.042969 -11.867924 L 378.378906 -13.147533 L 379.710938 -14.670448 L 381.046875 -16.468208 L 382.382812 -18.57686 L 383.71875 -21.032448 L 385.054688 -23.862006 L 386.390625 -27.097074 L 387.726562 -30.746663 L 389.0625 -34.810774 L 390.398438 -39.262371 L 391.730469 -44.069917 L 393.066406 -49.161319 L 394.402344 -54.459982 L 397.074219 -65.264568 L 398.410156 -70.563231 L 399.746094 -75.654634 L 401.082031 -80.457673 " transform="matrix(1, 0, 0, -0.866964, 0, 0)"/>
</g>
<path fill="none" stroke-width="1.31811" stroke-linecap="butt" stroke-linejoin="miter" stroke="rgb(50.195312%, 50.195312%, 50.195312%)" stroke-opacity="1" stroke-dasharray="1.31811 1.31811" stroke-miterlimit="4" d="M 342.632812 100.886719 L 342.632812 6.160156 "/>
<path fill="none" stroke-width="1.31811" stroke-linecap="butt" stroke-linejoin="miter" stroke="rgb(50.195312%, 50.195312%, 50.195312%)" stroke-opacity="1" stroke-dasharray="1.31811 1.31811" stroke-miterlimit="4" d="M 321.875 100.886719 L 321.875 6.160156 "/>
<path fill="none" stroke-width="1.31811" stroke-linecap="butt" stroke-linejoin="miter" stroke="rgb(50.195312%, 50.195312%, 50.195312%)" stroke-opacity="1" stroke-dasharray="1.31811 1.31811" stroke-miterlimit="4" d="M 295.757812 100.886719 L 295.757812 6.160156 "/>
<path fill="none" stroke-width="1.31811" stroke-linecap="butt" stroke-linejoin="miter" stroke="rgb(50.195312%, 50.195312%, 50.195312%)" stroke-opacity="1" stroke-dasharray="1.31811 1.31811" stroke-miterlimit="4" d="M 375.445312 100.886719 L 375.445312 6.160156 "/>
<path fill="none" stroke-width="1.31811" stroke-linecap="butt" stroke-linejoin="miter" stroke="rgb(50.195312%, 50.195312%, 50.195312%)" stroke-opacity="1" stroke-dasharray="1.31811 1.31811" stroke-miterlimit="4" d="M 101.132812 100.644531 L 101.132812 5.917969 "/>
<path fill="none" stroke-width="1.31811" stroke-linecap="butt" stroke-linejoin="miter" stroke="rgb(50.195312%, 50.195312%, 50.195312%)" stroke-opacity="1" stroke-dasharray="1.31811 1.31811" stroke-miterlimit="4" d="M 80.371094 100.644531 L 80.371094 5.917969 "/>
<path fill="none" stroke-width="1.31811" stroke-linecap="butt" stroke-linejoin="miter" stroke="rgb(50.195312%, 50.195312%, 50.195312%)" stroke-opacity="1" stroke-dasharray="1.31811 1.31811" stroke-miterlimit="4" d="M 54.257812 100.644531 L 54.257812 5.917969 "/>
<path fill="none" stroke-width="1.31811" stroke-linecap="butt" stroke-linejoin="miter" stroke="rgb(50.195312%, 50.195312%, 50.195312%)" stroke-opacity="1" stroke-dasharray="1.31811 1.31811" stroke-miterlimit="4" d="M 133.945312 100.644531 L 133.945312 5.917969 "/>
<path fill="none" stroke-width="0.850394" stroke-linecap="butt" stroke-linejoin="miter" stroke="rgb(50.195312%, 50.195312%, 50.195312%)" stroke-opacity="1" stroke-miterlimit="4" d="M 268.65625 101.59375 L 268.65625 103.476562 "/>
<path fill="none" stroke-width="0.850394" stroke-linecap="butt" stroke-linejoin="miter" stroke="rgb(50.195312%, 50.195312%, 50.195312%)" stroke-opacity="1" stroke-miterlimit="4" d="M 335.101562 101.59375 L 335.101562 103.476562 "/>
<path fill="none" stroke-width="0.850394" stroke-linecap="butt" stroke-linejoin="miter" stroke="rgb(50.195312%, 50.195312%, 50.195312%)" stroke-opacity="1" stroke-miterlimit="4" d="M 401.542969 101.59375 L 401.542969 103.476562 "/>
<path fill="none" stroke-width="0.850394" stroke-linecap="butt" stroke-linejoin="miter" stroke="rgb(50.195312%, 50.195312%, 50.195312%)" stroke-opacity="1" stroke-miterlimit="4" d="M 281.945312 102.878906 L 281.945312 101.59375 "/>
<path fill="none" stroke-width="0.850394" stroke-linecap="butt" stroke-linejoin="miter" stroke="rgb(50.195312%, 50.195312%, 50.195312%)" stroke-opacity="1" stroke-miterlimit="4" d="M 295.234375 102.878906 L 295.234375 101.59375 "/>
<path fill="none" stroke-width="0.850394" stroke-linecap="butt" stroke-linejoin="miter" stroke="rgb(50.195312%, 50.195312%, 50.195312%)" stroke-opacity="1" stroke-miterlimit="4" d="M 308.523438 102.878906 L 308.523438 101.59375 "/>
<path fill="none" stroke-width="0.850394" stroke-linecap="butt" stroke-linejoin="miter" stroke="rgb(50.195312%, 50.195312%, 50.195312%)" stroke-opacity="1" stroke-miterlimit="4" d="M 321.8125 102.878906 L 321.8125 101.59375 "/>
<path fill="none" stroke-width="0.850394" stroke-linecap="butt" stroke-linejoin="miter" stroke="rgb(50.195312%, 50.195312%, 50.195312%)" stroke-opacity="1" stroke-miterlimit="4" d="M 348.390625 102.878906 L 348.390625 101.59375 "/>
<path fill="none" stroke-width="0.850394" stroke-linecap="butt" stroke-linejoin="miter" stroke="rgb(50.195312%, 50.195312%, 50.195312%)" stroke-opacity="1" stroke-miterlimit="4" d="M 361.675781 102.878906 L 361.675781 101.59375 "/>
<path fill="none" stroke-width="0.850394" stroke-linecap="butt" stroke-linejoin="miter" stroke="rgb(50.195312%, 50.195312%, 50.195312%)" stroke-opacity="1" stroke-miterlimit="4" d="M 388.253906 102.878906 L 388.253906 101.59375 "/>
<path fill="none" stroke-width="0.850394" stroke-linecap="butt" stroke-linejoin="miter" stroke="rgb(50.195312%, 50.195312%, 50.195312%)" stroke-opacity="1" stroke-miterlimit="4" d="M 374.964844 102.878906 L 374.964844 101.59375 "/>
<path fill="none" stroke-width="0.850394" stroke-linecap="butt" stroke-linejoin="miter" stroke="rgb(50.195312%, 50.195312%, 50.195312%)" stroke-opacity="1" stroke-miterlimit="4" d="M 268.339844 5.929688 L 266.457031 5.929688 "/>
<path fill="none" stroke-width="0.850394" stroke-linecap="butt" stroke-linejoin="miter" stroke="rgb(50.195312%, 50.195312%, 50.195312%)" stroke-opacity="1" stroke-miterlimit="4" d="M 268.339844 53.707031 L 266.457031 53.707031 "/>
<path fill="none" stroke-width="0.850394" stroke-linecap="butt" stroke-linejoin="miter" stroke="rgb(50.195312%, 50.195312%, 50.195312%)" stroke-opacity="1" stroke-miterlimit="4" d="M 268.253906 101.484375 L 266.371094 101.484375 "/>
<path fill="none" stroke-width="0.850394" stroke-linecap="butt" stroke-linejoin="miter" stroke="rgb(50.195312%, 50.195312%, 50.195312%)" stroke-opacity="1" stroke-miterlimit="4" d="M 268.339844 15.484375 L 267.058594 15.484375 "/>
<path fill="none" stroke-width="0.850394" stroke-linecap="butt" stroke-linejoin="miter" stroke="rgb(50.195312%, 50.195312%, 50.195312%)" stroke-opacity="1" stroke-miterlimit="4" d="M 268.339844 25.042969 L 267.058594 25.042969 "/>
<path fill="none" stroke-width="0.850394" stroke-linecap="butt" stroke-linejoin="miter" stroke="rgb(50.195312%, 50.195312%, 50.195312%)" stroke-opacity="1" stroke-miterlimit="4" d="M 268.339844 34.597656 L 267.058594 34.597656 "/>
<path fill="none" stroke-width="0.850394" stroke-linecap="butt" stroke-linejoin="miter" stroke="rgb(50.195312%, 50.195312%, 50.195312%)" stroke-opacity="1" stroke-miterlimit="4" d="M 268.339844 44.152344 L 267.058594 44.152344 "/>
<path fill="none" stroke-width="0.850394" stroke-linecap="butt" stroke-linejoin="miter" stroke="rgb(50.195312%, 50.195312%, 50.195312%)" stroke-opacity="1" stroke-miterlimit="4" d="M 268.339844 63.261719 L 267.058594 63.261719 "/>
<path fill="none" stroke-width="0.850394" stroke-linecap="butt" stroke-linejoin="miter" stroke="rgb(50.195312%, 50.195312%, 50.195312%)" stroke-opacity="1" stroke-miterlimit="4" d="M 268.339844 72.820312 L 267.058594 72.820312 "/>
<path fill="none" stroke-width="0.850394" stroke-linecap="butt" stroke-linejoin="miter" stroke="rgb(50.195312%, 50.195312%, 50.195312%)" stroke-opacity="1" stroke-miterlimit="4" d="M 268.339844 82.375 L 267.058594 82.375 "/>
<path fill="none" stroke-width="0.850394" stroke-linecap="butt" stroke-linejoin="miter" stroke="rgb(50.195312%, 50.195312%, 50.195312%)" stroke-opacity="1" stroke-miterlimit="4" d="M 268.339844 91.929688 L 267.058594 91.929688 "/>
<path fill="none" stroke-width="0.850394" stroke-linecap="butt" stroke-linejoin="miter" stroke="rgb(50.195312%, 50.195312%, 50.195312%)" stroke-opacity="1" stroke-miterlimit="4" d="M 27.117188 101.597656 L 27.117188 103.480469 "/>
<path fill="none" stroke-width="0.850394" stroke-linecap="butt" stroke-linejoin="miter" stroke="rgb(50.195312%, 50.195312%, 50.195312%)" stroke-opacity="1" stroke-miterlimit="4" d="M 93.5625 101.597656 L 93.5625 103.480469 "/>
<path fill="none" stroke-width="0.850394" stroke-linecap="butt" stroke-linejoin="miter" stroke="rgb(50.195312%, 50.195312%, 50.195312%)" stroke-opacity="1" stroke-miterlimit="4" d="M 160.011719 101.597656 L 160.011719 103.480469 "/>
<path fill="none" stroke-width="0.850394" stroke-linecap="butt" stroke-linejoin="miter" stroke="rgb(50.195312%, 50.195312%, 50.195312%)" stroke-opacity="1" stroke-miterlimit="4" d="M 40.40625 102.878906 L 40.40625 101.597656 "/>
<path fill="none" stroke-width="0.850394" stroke-linecap="butt" stroke-linejoin="miter" stroke="rgb(50.195312%, 50.195312%, 50.195312%)" stroke-opacity="1" stroke-miterlimit="4" d="M 53.695312 102.878906 L 53.695312 101.597656 "/>
<path fill="none" stroke-width="0.850394" stroke-linecap="butt" stroke-linejoin="miter" stroke="rgb(50.195312%, 50.195312%, 50.195312%)" stroke-opacity="1" stroke-miterlimit="4" d="M 66.984375 102.878906 L 66.984375 101.597656 "/>
<path fill="none" stroke-width="0.850394" stroke-linecap="butt" stroke-linejoin="miter" stroke="rgb(50.195312%, 50.195312%, 50.195312%)" stroke-opacity="1" stroke-miterlimit="4" d="M 80.273438 102.878906 L 80.273438 101.597656 "/>
<path fill="none" stroke-width="0.850394" stroke-linecap="butt" stroke-linejoin="miter" stroke="rgb(50.195312%, 50.195312%, 50.195312%)" stroke-opacity="1" stroke-miterlimit="4" d="M 106.855469 102.878906 L 106.855469 101.597656 "/>
<path fill="none" stroke-width="0.850394" stroke-linecap="butt" stroke-linejoin="miter" stroke="rgb(50.195312%, 50.195312%, 50.195312%)" stroke-opacity="1" stroke-miterlimit="4" d="M 120.144531 102.878906 L 120.144531 101.597656 "/>
<path fill="none" stroke-width="0.850394" stroke-linecap="butt" stroke-linejoin="miter" stroke="rgb(50.195312%, 50.195312%, 50.195312%)" stroke-opacity="1" stroke-miterlimit="4" d="M 146.722656 102.878906 L 146.722656 101.597656 "/>
<path fill="none" stroke-width="0.850394" stroke-linecap="butt" stroke-linejoin="miter" stroke="rgb(50.195312%, 50.195312%, 50.195312%)" stroke-opacity="1" stroke-miterlimit="4" d="M 133.433594 102.878906 L 133.433594 101.597656 "/>
<path fill="none" stroke-width="0.850394" stroke-linecap="butt" stroke-linejoin="miter" stroke="rgb(50.195312%, 50.195312%, 50.195312%)" stroke-opacity="1" stroke-miterlimit="4" d="M 26.800781 5.929688 L 24.917969 5.929688 "/>
<path fill="none" stroke-width="0.850394" stroke-linecap="butt" stroke-linejoin="miter" stroke="rgb(50.195312%, 50.195312%, 50.195312%)" stroke-opacity="1" stroke-miterlimit="4" d="M 26.800781 53.707031 L 24.917969 53.707031 "/>
<path fill="none" stroke-width="0.850394" stroke-linecap="butt" stroke-linejoin="miter" stroke="rgb(50.195312%, 50.195312%, 50.195312%)" stroke-opacity="1" stroke-miterlimit="4" d="M 26.710938 101.484375 L 24.828125 101.484375 "/>
<path fill="none" stroke-width="0.850394" stroke-linecap="butt" stroke-linejoin="miter" stroke="rgb(50.195312%, 50.195312%, 50.195312%)" stroke-opacity="1" stroke-miterlimit="4" d="M 26.800781 17.875 L 25.515625 17.875 "/>
<path fill="none" stroke-width="0.850394" stroke-linecap="butt" stroke-linejoin="miter" stroke="rgb(50.195312%, 50.195312%, 50.195312%)" stroke-opacity="1" stroke-miterlimit="4" d="M 26.800781 29.820312 L 25.515625 29.820312 "/>
<path fill="none" stroke-width="0.850394" stroke-linecap="butt" stroke-linejoin="miter" stroke="rgb(50.195312%, 50.195312%, 50.195312%)" stroke-opacity="1" stroke-miterlimit="4" d="M 26.800781 41.761719 L 25.515625 41.761719 "/>
<path fill="none" stroke-width="0.850394" stroke-linecap="butt" stroke-linejoin="miter" stroke="rgb(50.195312%, 50.195312%, 50.195312%)" stroke-opacity="1" stroke-miterlimit="4" d="M 26.800781 65.652344 L 25.515625 65.652344 "/>
<path fill="none" stroke-width="0.850394" stroke-linecap="butt" stroke-linejoin="miter" stroke="rgb(50.195312%, 50.195312%, 50.195312%)" stroke-opacity="1" stroke-miterlimit="4" d="M 26.800781 77.597656 L 25.515625 77.597656 "/>
<path fill="none" stroke-width="0.850394" stroke-linecap="butt" stroke-linejoin="miter" stroke="rgb(50.195312%, 50.195312%, 50.195312%)" stroke-opacity="1" stroke-miterlimit="4" d="M 26.800781 89.539062 L 25.515625 89.539062 "/>
<g clip-path="url(#clip-1)">
<path fill="none" stroke-width="2.126305" stroke-linecap="square" stroke-linejoin="round" stroke="rgb(68.234253%, 76.469421%, 81.175232%)" stroke-opacity="1" stroke-miterlimit="4" d="M 268.773438 107.330728 L 270.101562 106.541268 L 271.433594 105.680038 L 272.761719 104.751525 L 274.089844 103.742272 L 275.421875 102.652278 L 276.75 101.472573 L 278.078125 100.207642 L 279.410156 98.844029 L 280.738281 97.386219 L 282.066406 95.82524 L 283.398438 94.165579 L 284.726562 92.40275 L 286.054688 90.532267 L 287.386719 88.563102 L 288.714844 86.490768 L 290.046875 84.319752 L 291.375 82.054539 L 292.703125 79.7041 L 294.035156 77.272921 L 295.363281 74.765487 L 296.691406 69.584653 L 298.023438 64.246825 L 299.351562 58.855169 L 300.679688 53.51734 L 302.011719 48.332021 L 303.339844 43.397893 L 304.667969 38.782242 L 306 34.538892 L 307.328125 30.699244 L 308.660156 27.272268 L 309.988281 24.253479 L 311.316406 21.624935 L 312.648438 19.359722 L 313.976562 17.41747 L 315.304688 15.771265 L 316.636719 14.380739 L 317.964844 13.21449 L 319.292969 12.236636 L 320.625 11.420262 L 321.953125 10.747427 L 323.28125 11.070388 L 324.613281 11.420262 L 325.941406 11.810507 L 327.269531 12.236636 L 328.601562 12.703135 L 329.929688 13.21449 L 331.261719 13.770701 L 332.589844 14.380739 L 333.917969 15.044603 L 335.25 15.771265 L 336.578125 16.560726 L 337.90625 17.41747 L 339.238281 18.350468 L 340.566406 19.359722 L 341.894531 20.449715 L 343.226562 22.894351 L 344.554688 25.715775 L 345.882812 28.936415 L 347.214844 32.565241 L 348.542969 36.611225 L 349.875 41.047455 L 351.203125 45.829073 L 352.53125 50.897767 L 353.863281 56.172798 L 356.519531 66.929196 L 357.851562 72.199741 L 359.179688 77.272921 L 360.507812 82.054539 L 361.839844 86.490768 L 363.167969 90.532267 L 364.496094 94.165579 L 365.828125 97.386219 L 367.15625 100.207642 L 368.488281 102.652278 L 369.816406 104.751525 L 371.144531 106.541268 L 372.476562 108.052905 L 373.804688 109.331293 L 375.132812 110.398858 L 376.464844 109.331293 L 377.792969 108.052905 L 379.121094 106.541268 L 380.453125 104.751525 L 381.78125 102.652278 L 383.109375 100.207642 L 384.441406 97.386219 L 385.769531 94.165579 L 387.097656 90.532267 L 388.429688 86.490768 L 389.757812 82.054539 L 391.089844 77.272921 L 392.417969 72.199741 L 393.746094 66.929196 L 395.078125 61.550997 L 396.40625 56.172798 L 397.734375 50.897767 L 399.066406 45.829073 L 400.394531 41.047455 " transform="matrix(1, 0, 0, 0.870848, 0, 0)"/>
</g>
<g clip-path="url(#clip-2)">
<path fill="none" stroke-width="2.085877" stroke-linecap="square" stroke-linejoin="round" stroke="rgb(81.959534%, 51.371765%, 38.430786%)" stroke-opacity="1" stroke-miterlimit="4" d="M 177.289062 69.319274 L 179 69.207956 L 180.5 69.080735 L 181.792969 68.933636 L 182.984375 68.76666 L 184.019531 68.587756 L 185.003906 68.381022 L 185.882812 68.162362 L 186.710938 67.923824 L 187.488281 67.661431 L 188.214844 67.387112 L 188.9375 67.073037 L 189.613281 66.747034 L 190.285156 66.381275 L 190.90625 66.007565 L 191.527344 65.594098 L 192.148438 65.136899 L 192.769531 64.635969 L 193.390625 64.083355 L 193.960938 63.534716 L 194.53125 62.942346 L 195.097656 62.302268 L 195.71875 61.550871 L 196.339844 60.739841 L 196.960938 59.873151 L 197.582031 58.946827 L 198.257812 57.877379 L 198.929688 56.748297 L 199.65625 55.468141 L 200.484375 53.929568 L 201.414062 52.124627 L 202.65625 49.635876 L 205.140625 44.638495 L 206.125 42.754042 L 206.953125 41.239322 L 207.679688 39.979044 L 208.402344 38.790328 L 209.078125 37.756661 L 209.699219 36.858166 L 210.320312 36.019306 L 210.941406 35.24008 L 211.5625 34.516514 L 212.183594 33.848606 L 212.804688 33.232382 L 213.425781 32.671816 L 214.046875 32.154983 L 214.667969 31.689833 L 215.289062 31.26444 L 215.910156 30.878802 L 216.582031 30.505092 L 217.257812 30.167163 L 217.980469 29.849111 L 218.707031 29.562865 L 219.484375 29.300473 L 220.3125 29.053983 L 221.191406 28.827372 L 222.121094 28.624614 L 223.160156 28.437759 L 224.246094 28.278733 L 225.488281 28.127659 L 226.886719 27.996463 L 228.4375 27.88912 L 229.007812 27.857315 " transform="matrix(1, 0, 0, 0.982546, 0, 0)"/>
</g>
<path fill="none" stroke-width="0.566929" stroke-linecap="butt" stroke-linejoin="round" stroke="rgb(0%, 0%, 0%)" stroke-opacity="1" stroke-miterlimit="4" d="M 177.289062 27.097656 L 228.882812 27.097656 L 228.882812 68.351562 L 177.289062 68.351562 Z M 177.289062 27.097656 "/>
<path fill="none" stroke-width="0.75" stroke-linecap="butt" stroke-linejoin="miter" stroke="rgb(81.959534%, 51.371765%, 38.430786%)" stroke-opacity="1" stroke-miterlimit="4" d="M 180.832031 74.671875 L 224.394531 74.671875 "/>
<path fill-rule="evenodd" fill="rgb(81.959534%, 51.371765%, 38.430786%)" fill-opacity="1" stroke-width="0.4" stroke-linecap="butt" stroke-linejoin="round" stroke="rgb(81.959534%, 51.371765%, 38.430786%)" stroke-opacity="1" stroke-miterlimit="4" d="M -221.394531 -74.671875 L -219.894531 -76.171875 L -225.144531 -74.671875 L -219.894531 -73.171875 Z M -221.394531 -74.671875 " transform="matrix(-1, 0, 0, -1, 0, 0)"/>
<path fill-rule="nonzero" fill="rgb(27.058411%, 40.391541%, 47.058105%)" fill-opacity="0.639216" d="M 327.144531 17.527344 C 327.660156 18.855469 328.273438 20.773438 328.472656 21.070312 C 328.671875 21.347656 328.789062 21.347656 329.144531 21.347656 L 329.421875 21.347656 C 329.542969 21.328125 329.5625 21.269531 329.5625 21.230469 C 329.5625 21.191406 329.519531 21.148438 329.480469 21.109375 C 329.363281 20.972656 329.285156 20.773438 329.203125 20.535156 L 326.632812 13.351562 C 326.355469 12.621094 325.679688 12.441406 325.085938 12.441406 C 325.027344 12.441406 324.851562 12.441406 324.851562 12.578125 C 324.851562 12.679688 324.949219 12.71875 324.96875 12.71875 C 325.382812 12.777344 325.484375 12.855469 325.800781 13.726562 L 327.007812 17.152344 L 323.523438 20.617188 C 323.386719 20.773438 323.304688 20.832031 323.304688 21.011719 C 323.304688 21.230469 323.484375 21.367188 323.683594 21.367188 C 323.878906 21.367188 324 21.230469 324.097656 21.109375 Z M 327.144531 17.527344 "/>
<path fill-rule="nonzero" fill="rgb(37.254333%, 74.900818%, 70.979309%)" fill-opacity="1" d="M 317.363281 81.128906 C 317.363281 80.8125 317.363281 80.792969 317.066406 80.792969 C 316.273438 81.605469 315.164062 81.605469 314.769531 81.605469 L 314.769531 82 C 315.027344 82 315.761719 82 316.414062 81.664062 L 316.414062 88.214844 C 316.414062 88.671875 316.375 88.808594 315.246094 88.808594 L 314.847656 88.808594 L 314.847656 89.207031 C 315.285156 89.164062 316.375 89.164062 316.886719 89.164062 C 317.382812 89.164062 318.492188 89.164062 318.925781 89.207031 L 318.925781 88.808594 L 318.53125 88.808594 C 317.382812 88.808594 317.363281 88.671875 317.363281 88.214844 Z M 317.363281 81.128906 "/>
<path fill-rule="nonzero" fill="rgb(37.254333%, 74.900818%, 70.979309%)" fill-opacity="1" d="M 328.964844 86.296875 C 329.183594 86.296875 329.421875 86.296875 329.421875 86.039062 C 329.421875 85.800781 329.183594 85.800781 328.964844 85.800781 L 322.136719 85.800781 C 321.921875 85.800781 321.703125 85.800781 321.703125 86.039062 C 321.703125 86.296875 321.921875 86.296875 322.136719 86.296875 Z M 328.964844 86.296875 "/>
<path fill-rule="nonzero" fill="rgb(37.254333%, 74.900818%, 70.979309%)" fill-opacity="1" d="M 335.683594 85.523438 C 336.195312 86.851562 336.808594 88.769531 337.007812 89.066406 C 337.207031 89.34375 337.324219 89.34375 337.679688 89.34375 L 337.957031 89.34375 C 338.078125 89.324219 338.097656 89.265625 338.097656 89.226562 C 338.097656 89.183594 338.058594 89.144531 338.019531 89.105469 C 337.898438 88.96875 337.820312 88.769531 337.742188 88.53125 L 335.167969 81.347656 C 334.890625 80.617188 334.21875 80.4375 333.625 80.4375 C 333.566406 80.4375 333.386719 80.4375 333.386719 80.574219 C 333.386719 80.675781 333.484375 80.714844 333.503906 80.714844 C 333.921875 80.773438 334.019531 80.851562 334.335938 81.722656 L 335.542969 85.148438 L 332.058594 88.613281 C 331.921875 88.769531 331.84375 88.828125 331.84375 89.007812 C 331.84375 89.226562 332.019531 89.363281 332.21875 89.363281 C 332.417969 89.363281 332.535156 89.226562 332.632812 89.105469 Z M 335.683594 85.523438 "/>
<path fill-rule="nonzero" fill="rgb(0%, 0%, 0%)" fill-opacity="1" d="M 76.140625 111.878906 L 76.984375 111.878906 L 76.984375 119.640625 L 76.140625 119.640625 Z M 76.140625 111.878906 "/>
<path fill-rule="nonzero" fill="rgb(0%, 0%, 0%)" fill-opacity="1" d="M 82.894531 119.640625 L 82.894531 116.578125 C 82.894531 115.382812 82.382812 114.449219 81.082031 114.449219 C 80.429688 114.449219 79.761719 114.695312 79.359375 115.257812 L 79.359375 114.570312 L 78.53125 114.570312 L 78.53125 119.640625 L 79.359375 119.640625 L 79.359375 116.769531 C 79.394531 115.804688 79.992188 115.1875 80.890625 115.1875 C 81.769531 115.1875 82.085938 115.714844 82.085938 116.613281 L 82.085938 119.640625 Z M 82.894531 119.640625 "/>
<g clip-path="url(#clip-3)">
<path fill-rule="nonzero" fill="rgb(0%, 0%, 0%)" fill-opacity="1" d="M 89.023438 117.105469 C 89.023438 115.628906 88.035156 114.570312 86.539062 114.570312 L 84.375 114.570312 L 84.375 122.347656 L 85.222656 122.347656 L 85.222656 119.640625 L 86.46875 119.640625 C 88.105469 119.640625 89.023438 118.617188 89.023438 117.105469 Z M 88.210938 117.105469 C 88.210938 118.109375 87.578125 118.898438 86.46875 118.898438 L 85.222656 118.898438 L 85.222656 115.3125 L 86.46875 115.3125 C 87.5625 115.3125 88.210938 116.03125 88.210938 117.105469 Z M 88.210938 117.105469 "/>
</g>
<path fill-rule="nonzero" fill="rgb(0%, 0%, 0%)" fill-opacity="1" d="M 94.640625 119.640625 L 94.640625 114.570312 L 93.777344 114.570312 L 93.777344 117.441406 C 93.777344 118.390625 93.300781 119.042969 92.28125 119.042969 C 91.382812 119.042969 91.066406 118.476562 91.066406 117.617188 L 91.066406 114.570312 L 90.257812 114.570312 L 90.257812 117.632812 C 90.257812 118.828125 90.820312 119.78125 92.089844 119.78125 C 92.738281 119.78125 93.410156 119.410156 93.777344 118.96875 L 93.777344 119.640625 Z M 94.640625 119.640625 "/>
<path fill-rule="nonzero" fill="rgb(0%, 0%, 0%)" fill-opacity="1" d="M 99.023438 119.640625 L 99.023438 118.917969 L 98.144531 118.917969 C 97.351562 118.917969 97.210938 118.722656 97.210938 117.984375 L 97.210938 115.242188 L 98.707031 115.242188 L 98.707031 114.570312 L 97.210938 114.570312 L 97.210938 113.128906 L 96.859375 113.128906 L 96.382812 114.570312 L 95.785156 114.570312 L 95.785156 115.242188 L 96.382812 115.242188 L 96.382812 117.984375 C 96.382812 119.253906 96.894531 119.640625 98.144531 119.640625 Z M 99.023438 119.640625 "/>
<path fill-rule="nonzero" fill="rgb(0%, 0%, 0%)" fill-opacity="1" d="M 101.152344 118.496094 L 100.132812 118.496094 L 100.132812 119.269531 C 100.203125 119.410156 100.21875 119.550781 100.21875 119.691406 C 100.21875 120.097656 100.007812 120.519531 99.710938 120.710938 C 100.289062 120.695312 101.132812 119.832031 101.152344 119.289062 Z M 101.152344 118.496094 "/>
<path fill-rule="nonzero" fill="rgb(0%, 0%, 0%)" fill-opacity="1" d="M 108.902344 116.242188 C 108.972656 115.960938 109.238281 114.921875 110.011719 114.921875 C 110.0625 114.921875 110.347656 114.921875 110.574219 115.0625 C 110.257812 115.132812 110.046875 115.398438 110.046875 115.679688 C 110.046875 115.855469 110.167969 116.066406 110.46875 116.066406 C 110.714844 116.066406 111.066406 115.875 111.066406 115.417969 C 111.066406 114.835938 110.417969 114.675781 110.027344 114.675781 C 109.378906 114.675781 108.992188 115.277344 108.851562 115.523438 C 108.570312 114.78125 107.96875 114.675781 107.636719 114.675781 C 106.472656 114.675781 105.824219 116.121094 105.824219 116.402344 C 105.824219 116.523438 105.945312 116.523438 105.964844 116.523438 C 106.050781 116.523438 106.085938 116.488281 106.105469 116.402344 C 106.492188 115.203125 107.230469 114.921875 107.617188 114.921875 C 107.828125 114.921875 108.214844 115.027344 108.214844 115.679688 C 108.214844 116.03125 108.023438 116.769531 107.617188 118.355469 C 107.441406 119.042969 107.039062 119.515625 106.546875 119.515625 C 106.472656 119.515625 106.226562 119.515625 105.980469 119.375 C 106.261719 119.304688 106.511719 119.078125 106.511719 118.757812 C 106.511719 118.460938 106.261719 118.371094 106.105469 118.371094 C 105.753906 118.371094 105.488281 118.652344 105.488281 119.023438 C 105.488281 119.535156 106.035156 119.761719 106.527344 119.761719 C 107.285156 119.761719 107.6875 118.96875 107.707031 118.917969 C 107.847656 119.324219 108.25 119.761719 108.921875 119.761719 C 110.082031 119.761719 110.714844 118.320312 110.714844 118.039062 C 110.714844 117.914062 110.628906 117.914062 110.59375 117.914062 C 110.488281 117.914062 110.46875 117.96875 110.433594 118.039062 C 110.0625 119.253906 109.308594 119.515625 108.957031 119.515625 C 108.515625 119.515625 108.339844 119.164062 108.339844 118.777344 C 108.339844 118.53125 108.390625 118.285156 108.515625 117.792969 Z M 108.902344 116.242188 "/>
<path fill-rule="nonzero" fill="rgb(0%, 0%, 0%)" fill-opacity="1" d="M 317.683594 111.878906 L 318.527344 111.878906 L 318.527344 119.640625 L 317.683594 119.640625 Z M 317.683594 111.878906 "/>
<path fill-rule="nonzero" fill="rgb(0%, 0%, 0%)" fill-opacity="1" d="M 324.4375 119.640625 L 324.4375 116.578125 C 324.4375 115.382812 323.925781 114.449219 322.625 114.449219 C 321.972656 114.449219 321.304688 114.695312 320.898438 115.257812 L 320.898438 114.570312 L 320.074219 114.570312 L 320.074219 119.640625 L 320.898438 119.640625 L 320.898438 116.769531 C 320.933594 115.804688 321.535156 115.1875 322.429688 115.1875 C 323.3125 115.1875 323.628906 115.714844 323.628906 116.613281 L 323.628906 119.640625 Z M 324.4375 119.640625 "/>
<g clip-path="url(#clip-4)">
<path fill-rule="nonzero" fill="rgb(0%, 0%, 0%)" fill-opacity="1" d="M 330.5625 117.105469 C 330.5625 115.628906 329.578125 114.570312 328.082031 114.570312 L 325.917969 114.570312 L 325.917969 122.347656 L 326.761719 122.347656 L 326.761719 119.640625 L 328.011719 119.640625 C 329.648438 119.640625 330.5625 118.617188 330.5625 117.105469 Z M 329.753906 117.105469 C 329.753906 118.109375 329.121094 118.898438 328.011719 118.898438 L 326.761719 118.898438 L 326.761719 115.3125 L 328.011719 115.3125 C 329.101562 115.3125 329.753906 116.03125 329.753906 117.105469 Z M 329.753906 117.105469 "/>
</g>
<path fill-rule="nonzero" fill="rgb(0%, 0%, 0%)" fill-opacity="1" d="M 336.183594 119.640625 L 336.183594 114.570312 L 335.320312 114.570312 L 335.320312 117.441406 C 335.320312 118.390625 334.84375 119.042969 333.824219 119.042969 C 332.925781 119.042969 332.609375 118.476562 332.609375 117.617188 L 332.609375 114.570312 L 331.800781 114.570312 L 331.800781 117.632812 C 331.800781 118.828125 332.363281 119.78125 333.628906 119.78125 C 334.28125 119.78125 334.949219 119.410156 335.320312 118.96875 L 335.320312 119.640625 Z M 336.183594 119.640625 "/>
<path fill-rule="nonzero" fill="rgb(0%, 0%, 0%)" fill-opacity="1" d="M 340.566406 119.640625 L 340.566406 118.917969 L 339.683594 118.917969 C 338.894531 118.917969 338.753906 118.722656 338.753906 117.984375 L 338.753906 115.242188 L 340.25 115.242188 L 340.25 114.570312 L 338.753906 114.570312 L 338.753906 113.128906 L 338.402344 113.128906 L 337.925781 114.570312 L 337.328125 114.570312 L 337.328125 115.242188 L 337.925781 115.242188 L 337.925781 117.984375 C 337.925781 119.253906 338.4375 119.640625 339.683594 119.640625 Z M 340.566406 119.640625 "/>
<path fill-rule="nonzero" fill="rgb(0%, 0%, 0%)" fill-opacity="1" d="M 342.695312 118.496094 L 341.671875 118.496094 L 341.671875 119.269531 C 341.742188 119.410156 341.761719 119.550781 341.761719 119.691406 C 341.761719 120.097656 341.550781 120.519531 341.25 120.710938 C 341.832031 120.695312 342.675781 119.832031 342.695312 119.289062 Z M 342.695312 118.496094 "/>
<path fill-rule="nonzero" fill="rgb(0%, 0%, 0%)" fill-opacity="1" d="M 350.445312 116.242188 C 350.515625 115.960938 350.777344 114.921875 351.554688 114.921875 C 351.605469 114.921875 351.886719 114.921875 352.117188 115.0625 C 351.800781 115.132812 351.589844 115.398438 351.589844 115.679688 C 351.589844 115.855469 351.710938 116.066406 352.011719 116.066406 C 352.257812 116.066406 352.609375 115.875 352.609375 115.417969 C 352.609375 114.835938 351.957031 114.675781 351.570312 114.675781 C 350.917969 114.675781 350.53125 115.277344 350.390625 115.523438 C 350.109375 114.78125 349.511719 114.675781 349.179688 114.675781 C 348.015625 114.675781 347.367188 116.121094 347.367188 116.402344 C 347.367188 116.523438 347.488281 116.523438 347.507812 116.523438 C 347.59375 116.523438 347.628906 116.488281 347.648438 116.402344 C 348.035156 115.203125 348.773438 114.921875 349.160156 114.921875 C 349.371094 114.921875 349.757812 115.027344 349.757812 115.679688 C 349.757812 116.03125 349.566406 116.769531 349.160156 118.355469 C 348.984375 119.042969 348.578125 119.515625 348.085938 119.515625 C 348.015625 119.515625 347.769531 119.515625 347.523438 119.375 C 347.804688 119.304688 348.050781 119.078125 348.050781 118.757812 C 348.050781 118.460938 347.804688 118.371094 347.648438 118.371094 C 347.296875 118.371094 347.03125 118.652344 347.03125 119.023438 C 347.03125 119.535156 347.578125 119.761719 348.070312 119.761719 C 348.824219 119.761719 349.230469 118.96875 349.25 118.917969 C 349.390625 119.324219 349.792969 119.761719 350.460938 119.761719 C 351.625 119.761719 352.257812 118.320312 352.257812 118.039062 C 352.257812 117.914062 352.167969 117.914062 352.132812 117.914062 C 352.027344 117.914062 352.011719 117.96875 351.976562 118.039062 C 351.605469 119.253906 350.847656 119.515625 350.496094 119.515625 C 350.058594 119.515625 349.882812 119.164062 349.882812 118.777344 C 349.882812 118.53125 349.933594 118.285156 350.058594 117.792969 Z M 350.445312 116.242188 "/>
<path fill-rule="nonzero" fill="rgb(0%, 0%, 0%)" fill-opacity="1" d="M 1.371094 64.253906 L 0.667969 64.253906 L 0.667969 65.0625 C 0.667969 65.875 1.214844 66.683594 2.691406 66.71875 L 3.359375 66.71875 L 3.359375 67.546875 L 4.046875 67.546875 L 4.046875 66.71875 L 8.429688 66.71875 L 8.429688 65.875 L 4.046875 65.875 L 4.046875 64.449219 L 3.359375 64.449219 L 3.359375 65.875 L 2.585938 65.875 C 1.601562 65.875 1.371094 65.308594 1.371094 65.082031 Z M 1.371094 64.253906 "/>
<path fill-rule="nonzero" fill="rgb(0%, 0%, 0%)" fill-opacity="1" d="M 11.242188 61.375 L 10.785156 61.375 L 10.785156 62.464844 L 0.457031 62.464844 L 0.457031 61.375 L 0 61.375 L 0 62.921875 L 11.242188 62.921875 Z M 11.242188 61.375 "/>
<path fill-rule="nonzero" fill="rgb(0%, 0%, 0%)" fill-opacity="1" d="M 5.03125 57.378906 C 4.75 57.308594 3.710938 57.042969 3.710938 56.269531 C 3.710938 56.214844 3.710938 55.933594 3.855469 55.707031 C 3.925781 56.023438 4.1875 56.234375 4.46875 56.234375 C 4.644531 56.234375 4.855469 56.109375 4.855469 55.8125 C 4.855469 55.566406 4.664062 55.214844 4.207031 55.214844 C 3.625 55.214844 3.464844 55.863281 3.464844 56.25 C 3.464844 56.902344 4.066406 57.289062 4.3125 57.429688 C 3.570312 57.710938 3.464844 58.308594 3.464844 58.644531 C 3.464844 59.804688 4.910156 60.457031 5.191406 60.457031 C 5.3125 60.457031 5.3125 60.332031 5.3125 60.316406 C 5.3125 60.226562 5.277344 60.191406 5.191406 60.175781 C 3.996094 59.789062 3.710938 59.050781 3.710938 58.660156 C 3.710938 58.449219 3.816406 58.0625 4.46875 58.0625 C 4.820312 58.0625 5.558594 58.257812 7.144531 58.660156 C 7.832031 58.839844 8.304688 59.242188 8.304688 59.734375 C 8.304688 59.804688 8.304688 60.050781 8.164062 60.296875 C 8.09375 60.015625 7.867188 59.769531 7.546875 59.769531 C 7.25 59.769531 7.160156 60.015625 7.160156 60.175781 C 7.160156 60.527344 7.441406 60.792969 7.8125 60.792969 C 8.324219 60.792969 8.550781 60.246094 8.550781 59.753906 C 8.550781 58.996094 7.761719 58.589844 7.707031 58.574219 C 8.113281 58.433594 8.550781 58.027344 8.550781 57.359375 C 8.550781 56.199219 7.109375 55.566406 6.828125 55.566406 C 6.703125 55.566406 6.703125 55.652344 6.703125 55.6875 C 6.703125 55.792969 6.757812 55.8125 6.828125 55.847656 C 8.042969 56.214844 8.304688 56.972656 8.304688 57.324219 C 8.304688 57.765625 7.953125 57.941406 7.566406 57.941406 C 7.320312 57.941406 7.074219 57.886719 6.582031 57.765625 Z M 5.03125 57.378906 "/>
<path fill-rule="nonzero" fill="rgb(0%, 0%, 0%)" fill-opacity="1" d="M 8.410156 52.425781 C 7.671875 52.425781 7.230469 52.707031 7.230469 53.148438 C 7.230469 53.515625 7.511719 53.746094 7.832031 53.746094 C 8.128906 53.746094 8.429688 53.515625 8.429688 53.148438 C 8.429688 53.023438 8.375 52.867188 8.289062 52.761719 C 8.253906 52.726562 8.253906 52.707031 8.253906 52.707031 C 8.253906 52.691406 8.253906 52.691406 8.410156 52.691406 C 9.253906 52.691406 9.925781 53.078125 10.292969 53.445312 C 10.417969 53.570312 10.433594 53.570312 10.46875 53.570312 C 10.558594 53.570312 10.59375 53.515625 10.59375 53.464844 C 10.59375 53.339844 9.730469 52.425781 8.410156 52.425781 Z M 8.410156 52.425781 "/>
<path fill-rule="nonzero" fill="rgb(0%, 0%, 0%)" fill-opacity="1" d="M 0.96875 44.042969 C 0.828125 44.007812 0.808594 44.007812 0.792969 44.007812 C 0.632812 44.007812 0.632812 44.167969 0.632812 44.273438 C 0.632812 44.5 0.667969 44.5 0.898438 44.570312 L 3.113281 45.117188 C 3.273438 45.171875 3.273438 45.171875 3.289062 45.1875 C 3.289062 45.207031 3.308594 45.222656 3.324219 45.398438 C 3.449219 47.722656 5.050781 49.09375 6.476562 49.09375 C 7.671875 49.09375 8.5 48.125 8.550781 46.488281 L 10.539062 46.964844 C 10.699219 46.964844 10.699219 46.808594 10.699219 46.699219 C 10.699219 46.523438 10.679688 46.472656 10.488281 46.417969 L 8.921875 46.03125 C 8.605469 45.960938 8.585938 45.945312 8.570312 45.925781 C 8.570312 45.910156 8.570312 45.890625 8.550781 45.714844 C 8.410156 43.429688 6.84375 42.019531 5.402344 42.019531 C 4.1875 42.019531 3.378906 42.988281 3.324219 44.625 Z M 8.148438 46.382812 C 8.09375 47.351562 7.671875 47.949219 6.773438 47.949219 C 6.457031 47.949219 5.417969 47.828125 4.679688 47.230469 C 4.1875 46.84375 3.800781 46.191406 3.730469 45.277344 Z M 3.730469 44.730469 C 3.78125 43.761719 4.1875 43.164062 5.101562 43.164062 C 5.417969 43.164062 6.457031 43.289062 7.195312 43.886719 C 7.691406 44.273438 8.078125 44.925781 8.148438 45.839844 Z M 3.730469 44.730469 "/>
<path fill-rule="nonzero" fill="rgb(0%, 0%, 0%)" fill-opacity="1" d="M 0 39.957031 L 0 41.488281 L 0.457031 41.488281 L 0.457031 40.394531 L 10.785156 40.394531 L 10.785156 41.488281 L 11.242188 41.488281 L 11.242188 39.957031 Z M 0 39.957031 "/>
<path fill-rule="nonzero" fill="rgb(0%, 0%, 0%)" fill-opacity="1" d="M 246.125 70.667969 L 246.125 68.75 C 246.125 67.164062 244.964844 65.597656 243.714844 65.597656 C 242.835938 65.597656 242.007812 66.339844 242.007812 67.816406 L 242.007812 71.441406 C 242.007812 71.652344 242.007812 71.777344 242.21875 71.777344 C 242.359375 71.777344 242.359375 71.6875 242.359375 71.457031 C 242.359375 71.316406 242.378906 71.105469 242.378906 70.984375 C 242.414062 70.789062 242.429688 70.738281 242.570312 70.738281 C 242.605469 70.738281 242.640625 70.738281 242.78125 70.773438 L 248.800781 72.285156 C 249.238281 72.390625 249.328125 72.410156 249.328125 73.304688 C 249.328125 73.480469 249.328125 73.605469 249.539062 73.605469 C 249.679688 73.605469 249.679688 73.480469 249.679688 73.445312 C 249.679688 73.128906 249.644531 72.339844 249.644531 72.023438 C 249.644531 71.777344 249.664062 71.527344 249.664062 71.300781 C 249.664062 71.054688 249.679688 70.808594 249.679688 70.578125 C 249.679688 70.492188 249.679688 70.351562 249.453125 70.351562 C 249.328125 70.351562 249.328125 70.457031 249.328125 70.667969 C 249.328125 71.070312 249.328125 71.386719 249.132812 71.386719 C 249.0625 71.386719 249.011719 71.371094 248.941406 71.351562 Z M 242.78125 69.859375 C 242.394531 69.75 242.359375 69.734375 242.359375 69.242188 L 242.359375 68.167969 C 242.359375 67.234375 242.660156 66.636719 243.433594 66.636719 C 243.875 66.636719 244.839844 66.867188 245.246094 67.304688 C 245.757812 67.867188 245.84375 68.539062 245.84375 69.03125 L 245.84375 70.613281 Z M 242.78125 69.859375 "/>
<path fill-rule="nonzero" fill="rgb(0%, 0%, 0%)" fill-opacity="1" d="M 249.011719 64.316406 C 249.1875 64.351562 249.453125 64.421875 249.503906 64.421875 C 249.699219 64.421875 249.804688 64.261719 249.804688 64.085938 C 249.804688 63.945312 249.714844 63.753906 249.488281 63.664062 C 249.453125 63.648438 247.921875 63.277344 247.710938 63.222656 C 247.339844 63.136719 246.566406 62.925781 246.25 62.871094 C 246.109375 62.820312 245.582031 62.503906 245.332031 62.238281 C 245.261719 62.152344 244.964844 61.816406 244.964844 61.339844 C 244.964844 61.042969 245.105469 60.882812 245.105469 60.867188 C 245.15625 61.199219 245.421875 61.445312 245.722656 61.445312 C 245.898438 61.445312 246.109375 61.324219 246.109375 61.023438 C 246.109375 60.726562 245.84375 60.410156 245.4375 60.410156 C 245.050781 60.410156 244.71875 60.761719 244.71875 61.339844 C 244.71875 62.0625 245.261719 62.554688 245.582031 62.765625 C 245.070312 62.871094 244.71875 63.277344 244.71875 63.804688 C 244.71875 64.316406 245.15625 64.527344 245.351562 64.632812 C 245.738281 64.824219 246.40625 64.964844 246.441406 64.964844 C 246.566406 64.964844 246.566406 64.859375 246.566406 64.84375 C 246.566406 64.71875 246.546875 64.71875 246.300781 64.648438 C 245.511719 64.457031 244.964844 64.226562 244.964844 63.824219 C 244.964844 63.648438 245.050781 63.488281 245.472656 63.488281 C 245.722656 63.488281 245.84375 63.523438 246.425781 63.664062 Z M 249.011719 64.316406 "/>
<path fill-rule="nonzero" fill="rgb(0%, 0%, 0%)" fill-opacity="1" d="M 252.371094 56.214844 C 252.335938 56.214844 252.320312 56.214844 252.125 56.410156 C 250.71875 57.796875 248.589844 58.167969 246.863281 58.167969 C 244.910156 58.167969 242.957031 57.746094 241.566406 56.355469 C 241.425781 56.214844 241.410156 56.214844 241.375 56.214844 C 241.285156 56.214844 241.25 56.25 241.25 56.320312 C 241.25 56.445312 242.027344 57.445312 243.449219 58.113281 C 244.683594 58.679688 245.933594 58.820312 246.863281 58.820312 C 247.746094 58.820312 249.097656 58.695312 250.382812 58.078125 C 251.757812 57.394531 252.496094 56.445312 252.496094 56.320312 C 252.496094 56.25 252.460938 56.214844 252.371094 56.214844 Z M 252.371094 56.214844 "/>
<path fill-rule="nonzero" fill="rgb(0%, 0%, 0%)" fill-opacity="1" d="M 245.402344 50.109375 C 245.246094 50.058594 245.226562 50.058594 245.140625 50.058594 C 244.945312 50.058594 244.839844 50.214844 244.839844 50.390625 C 244.839844 50.496094 244.910156 50.671875 245.070312 50.777344 C 245.140625 50.796875 245.472656 50.902344 245.6875 50.9375 C 245.96875 51.023438 246.285156 51.09375 246.582031 51.164062 L 248.605469 51.675781 C 248.765625 51.710938 249.558594 52.203125 249.558594 52.941406 C 249.558594 53.507812 249.0625 53.628906 248.640625 53.628906 C 248.132812 53.628906 247.429688 53.4375 246.441406 53.066406 C 245.984375 52.890625 245.863281 52.835938 245.632812 52.835938 C 245.140625 52.835938 244.71875 53.1875 244.71875 53.753906 C 244.71875 54.824219 246.355469 55.230469 246.441406 55.230469 C 246.566406 55.230469 246.566406 55.125 246.566406 55.105469 C 246.566406 54.984375 246.53125 54.984375 246.355469 54.929688 C 245.296875 54.613281 244.964844 54.175781 244.964844 53.789062 C 244.964844 53.699219 244.964844 53.507812 245.316406 53.507812 C 245.597656 53.507812 245.898438 53.628906 246.109375 53.699219 C 247.304688 54.15625 247.9375 54.351562 248.464844 54.351562 C 249.46875 54.351562 249.804688 53.648438 249.804688 52.976562 C 249.804688 52.539062 249.609375 52.167969 249.292969 51.851562 C 249.875 51.992188 250.4375 52.132812 251.035156 52.574219 C 251.40625 52.871094 251.738281 53.292969 251.738281 53.804688 C 251.738281 53.964844 251.703125 54.472656 251.265625 54.667969 C 251.265625 54.492188 251.265625 54.332031 251.121094 54.191406 C 251.035156 54.070312 250.875 53.964844 250.664062 53.964844 C 250.3125 53.964844 250.277344 54.261719 250.277344 54.367188 C 250.277344 54.632812 250.453125 55 251 55 C 251.5625 55 251.984375 54.507812 251.984375 53.804688 C 251.984375 52.660156 250.964844 51.5 249.699219 51.183594 Z M 245.402344 50.109375 "/>
<path fill-rule="nonzero" fill="rgb(0%, 0%, 0%)" fill-opacity="1" d="M 241.65625 47.882812 C 241.460938 47.882812 241.25 47.882812 241.25 48.09375 C 241.25 48.324219 241.460938 48.324219 241.65625 48.324219 L 252.089844 48.324219 C 252.285156 48.324219 252.496094 48.324219 252.496094 48.09375 C 252.496094 47.882812 252.285156 47.882812 252.089844 47.882812 Z M 241.65625 47.882812 "/>
<path fill-rule="nonzero" fill="rgb(0%, 0%, 0%)" fill-opacity="1" d="M 246.285156 42.796875 C 246.003906 42.726562 244.964844 42.464844 244.964844 41.6875 C 244.964844 41.636719 244.964844 41.355469 245.105469 41.125 C 245.175781 41.441406 245.4375 41.652344 245.722656 41.652344 C 245.898438 41.652344 246.109375 41.53125 246.109375 41.230469 C 246.109375 40.984375 245.914062 40.632812 245.457031 40.632812 C 244.875 40.632812 244.71875 41.285156 244.71875 41.671875 C 244.71875 42.324219 245.316406 42.710938 245.5625 42.851562 C 244.824219 43.132812 244.71875 43.730469 244.71875 44.0625 C 244.71875 45.226562 246.160156 45.875 246.441406 45.875 C 246.566406 45.875 246.566406 45.753906 246.566406 45.734375 C 246.566406 45.648438 246.53125 45.613281 246.441406 45.59375 C 245.246094 45.207031 244.964844 44.46875 244.964844 44.082031 C 244.964844 43.871094 245.070312 43.484375 245.722656 43.484375 C 246.074219 43.484375 246.8125 43.675781 248.394531 44.082031 C 249.082031 44.257812 249.558594 44.664062 249.558594 45.15625 C 249.558594 45.226562 249.558594 45.472656 249.417969 45.71875 C 249.347656 45.4375 249.117188 45.191406 248.800781 45.191406 C 248.5 45.191406 248.414062 45.4375 248.414062 45.59375 C 248.414062 45.945312 248.695312 46.210938 249.0625 46.210938 C 249.574219 46.210938 249.804688 45.664062 249.804688 45.171875 C 249.804688 44.417969 249.011719 44.011719 248.957031 43.992188 C 249.363281 43.851562 249.804688 43.449219 249.804688 42.78125 C 249.804688 41.617188 248.359375 40.984375 248.078125 40.984375 C 247.957031 40.984375 247.957031 41.074219 247.957031 41.109375 C 247.957031 41.214844 248.007812 41.230469 248.078125 41.265625 C 249.292969 41.636719 249.558594 42.394531 249.558594 42.746094 C 249.558594 43.183594 249.203125 43.359375 248.816406 43.359375 C 248.570312 43.359375 248.324219 43.308594 247.832031 43.183594 Z M 246.285156 42.796875 "/>
<path fill-rule="nonzero" fill="rgb(0%, 0%, 0%)" fill-opacity="1" d="M 246.863281 36.894531 C 246.003906 36.894531 244.648438 37.019531 243.363281 37.632812 C 241.992188 38.304688 241.25 39.269531 241.25 39.375 C 241.25 39.445312 241.304688 39.5 241.375 39.5 C 241.410156 39.5 241.425781 39.5 241.636719 39.289062 C 242.746094 38.179688 244.523438 37.546875 246.863281 37.546875 C 248.800781 37.546875 250.769531 37.953125 252.179688 39.339844 C 252.320312 39.5 252.335938 39.5 252.371094 39.5 C 252.441406 39.5 252.496094 39.445312 252.496094 39.375 C 252.496094 39.269531 251.722656 38.25 250.296875 37.597656 C 249.0625 37.019531 247.816406 36.894531 246.863281 36.894531 Z M 246.863281 36.894531 "/>
<path fill-rule="nonzero" fill="rgb(81.959534%, 51.371765%, 38.430786%)" fill-opacity="1" d="M 183.070312 86.382812 C 183.070312 85.378906 182.382812 85.0625 181.46875 84.886719 L 181.117188 84.816406 C 180.625 84.710938 179.902344 84.605469 179.902344 84.058594 C 179.9375 83.425781 180.675781 83.300781 181.238281 83.300781 C 182.136719 83.335938 182.066406 83.390625 182.824219 83.707031 L 182.824219 82.878906 C 182.347656 82.6875 181.75 82.597656 181.132812 82.597656 C 180.132812 82.597656 179.144531 82.96875 179.144531 84.09375 C 179.164062 85.007812 179.777344 85.359375 180.625 85.519531 L 180.941406 85.589844 C 181.554688 85.730469 182.261719 85.800781 182.261719 86.453125 C 182.226562 87.085938 181.503906 87.207031 180.941406 87.207031 C 180.007812 87.191406 179.867188 87.085938 179.058594 86.699219 L 179.058594 87.613281 C 179.53125 87.738281 180.359375 87.929688 180.921875 87.929688 C 181.90625 87.929688 183.070312 87.558594 183.070312 86.382812 Z M 183.070312 86.382812 "/>
<path fill-rule="nonzero" fill="rgb(81.959534%, 51.371765%, 38.430786%)" fill-opacity="1" d="M 185.148438 87.789062 L 185.148438 82.722656 L 184.304688 82.722656 L 184.304688 87.789062 Z M 184.726562 80.027344 C 184.460938 80.027344 184.234375 80.277344 184.234375 80.539062 C 184.234375 80.820312 184.460938 81.066406 184.726562 81.066406 C 185.007812 81.066406 185.21875 80.820312 185.21875 80.539062 C 185.21875 80.277344 185.007812 80.027344 184.726562 80.027344 Z M 184.726562 80.027344 "/>
<path fill-rule="nonzero" fill="rgb(81.959534%, 51.371765%, 38.430786%)" fill-opacity="1" d="M 188.226562 87.664062 C 189.175781 87.664062 189.828125 88.125 189.828125 88.738281 C 189.828125 89.355469 189.175781 89.796875 188.226562 89.796875 C 187.273438 89.796875 186.746094 89.355469 186.746094 88.738281 C 186.746094 88.125 187.273438 87.664062 188.226562 87.664062 Z M 188.226562 86.945312 C 188.136719 86.945312 188.050781 86.945312 187.945312 86.960938 C 187.414062 86.960938 186.957031 86.644531 186.957031 86.433594 C 186.957031 86.1875 187.238281 86.101562 187.449219 86.101562 L 187.519531 86.101562 C 187.695312 86.257812 188.226562 86.3125 188.382812 86.3125 C 189.351562 86.3125 190.125 85.484375 190.125 84.464844 C 190.125 84.058594 189.984375 83.671875 189.757812 83.371094 L 190.582031 83.371094 L 190.582031 82.738281 L 189.15625 82.738281 C 188.929688 82.667969 188.613281 82.632812 188.4375 82.632812 C 187.46875 82.632812 186.660156 83.460938 186.625 84.464844 C 186.625 84.957031 186.800781 85.394531 187.117188 85.710938 C 186.746094 85.785156 186.34375 86.03125 186.34375 86.503906 C 186.34375 86.804688 186.535156 87.085938 186.941406 87.261719 C 186.289062 87.59375 185.902344 88.140625 185.902344 88.722656 C 185.902344 89.636719 186.835938 90.480469 188.226562 90.480469 C 189.632812 90.480469 190.777344 89.636719 190.777344 88.738281 C 190.777344 87.558594 189.402344 86.945312 188.226562 86.945312 Z M 188.382812 83.335938 C 188.980469 83.335938 189.472656 83.828125 189.472656 84.445312 C 189.472656 85.042969 188.980469 85.535156 188.382812 85.535156 C 187.769531 85.535156 187.292969 85.042969 187.292969 84.445312 C 187.292969 83.828125 187.769531 83.335938 188.382812 83.335938 Z M 188.382812 83.335938 "/>
<path fill-rule="nonzero" fill="rgb(81.959534%, 51.371765%, 38.430786%)" fill-opacity="1" d="M 195.863281 90.605469 L 195.863281 90.148438 L 194.773438 90.148438 L 194.773438 79.816406 L 195.863281 79.816406 L 195.863281 79.359375 L 194.316406 79.359375 L 194.316406 90.605469 Z M 195.863281 90.605469 "/>
<path fill-rule="nonzero" fill="rgb(81.959534%, 51.371765%, 38.430786%)" fill-opacity="1" d="M 199.703125 80.734375 L 199.703125 80.027344 L 198.890625 80.027344 C 198.082031 80.027344 197.273438 80.574219 197.238281 82.054688 L 197.238281 82.722656 L 196.410156 82.722656 L 196.410156 83.40625 L 197.238281 83.40625 L 197.238281 87.789062 L 198.082031 87.789062 L 198.082031 83.40625 L 199.507812 83.40625 L 199.507812 82.722656 L 198.082031 82.722656 L 198.082031 81.949219 C 198.082031 80.960938 198.644531 80.734375 198.875 80.734375 Z M 199.703125 80.734375 "/>
<path fill-rule="nonzero" fill="rgb(81.959534%, 51.371765%, 38.430786%)" fill-opacity="1" d="M 202.582031 90.605469 L 202.582031 90.148438 L 201.492188 90.148438 L 201.492188 79.816406 L 202.582031 79.816406 L 202.582031 79.359375 L 201.035156 79.359375 L 201.035156 90.605469 Z M 202.582031 90.605469 "/>
<path fill-rule="nonzero" fill="rgb(81.959534%, 51.371765%, 38.430786%)" fill-opacity="1" d="M 206.578125 84.394531 C 206.648438 84.113281 206.914062 83.074219 207.6875 83.074219 C 207.738281 83.074219 208.023438 83.074219 208.25 83.214844 C 207.933594 83.285156 207.722656 83.546875 207.722656 83.828125 C 207.722656 84.007812 207.84375 84.21875 208.144531 84.21875 C 208.390625 84.21875 208.742188 84.023438 208.742188 83.566406 C 208.742188 82.984375 208.09375 82.828125 207.703125 82.828125 C 207.054688 82.828125 206.667969 83.425781 206.527344 83.671875 C 206.246094 82.933594 205.644531 82.828125 205.3125 82.828125 C 204.152344 82.828125 203.5 84.269531 203.5 84.550781 C 203.5 84.675781 203.621094 84.675781 203.640625 84.675781 C 203.726562 84.675781 203.761719 84.640625 203.78125 84.550781 C 204.167969 83.355469 204.90625 83.074219 205.292969 83.074219 C 205.503906 83.074219 205.890625 83.179688 205.890625 83.828125 C 205.890625 84.183594 205.699219 84.921875 205.292969 86.503906 C 205.117188 87.191406 204.714844 87.664062 204.222656 87.664062 C 204.152344 87.664062 203.902344 87.664062 203.65625 87.523438 C 203.9375 87.453125 204.1875 87.226562 204.1875 86.910156 C 204.1875 86.609375 203.9375 86.523438 203.78125 86.523438 C 203.429688 86.523438 203.164062 86.804688 203.164062 87.171875 C 203.164062 87.683594 203.710938 87.914062 204.203125 87.914062 C 204.960938 87.914062 205.363281 87.121094 205.382812 87.066406 C 205.523438 87.472656 205.925781 87.914062 206.597656 87.914062 C 207.757812 87.914062 208.390625 86.46875 208.390625 86.1875 C 208.390625 86.066406 208.304688 86.066406 208.269531 86.066406 C 208.164062 86.066406 208.144531 86.117188 208.109375 86.1875 C 207.738281 87.402344 206.984375 87.664062 206.632812 87.664062 C 206.191406 87.664062 206.015625 87.3125 206.015625 86.925781 C 206.015625 86.679688 206.070312 86.433594 206.191406 85.941406 Z M 206.578125 84.394531 "/>
<path fill-rule="nonzero" fill="rgb(81.959534%, 51.371765%, 38.430786%)" fill-opacity="1" d="M 211.53125 87.773438 C 211.53125 87.03125 211.25 86.59375 210.808594 86.59375 C 210.4375 86.59375 210.210938 86.875 210.210938 87.191406 C 210.210938 87.488281 210.4375 87.789062 210.808594 87.789062 C 210.933594 87.789062 211.089844 87.738281 211.195312 87.648438 C 211.230469 87.613281 211.25 87.613281 211.25 87.613281 C 211.265625 87.613281 211.265625 87.613281 211.265625 87.773438 C 211.265625 88.617188 210.878906 89.285156 210.507812 89.65625 C 210.386719 89.777344 210.386719 89.796875 210.386719 89.832031 C 210.386719 89.917969 210.4375 89.953125 210.492188 89.953125 C 210.613281 89.953125 211.53125 89.089844 211.53125 87.773438 Z M 211.53125 87.773438 "/>
<path fill-rule="nonzero" fill="rgb(81.959534%, 51.371765%, 38.430786%)" fill-opacity="1" d="M 219.914062 80.328125 C 219.949219 80.1875 219.949219 80.171875 219.949219 80.152344 C 219.949219 79.992188 219.789062 79.992188 219.683594 79.992188 C 219.453125 79.992188 219.453125 80.027344 219.382812 80.257812 L 218.839844 82.476562 C 218.785156 82.632812 218.785156 82.632812 218.769531 82.652344 C 218.75 82.652344 218.734375 82.667969 218.558594 82.6875 C 216.234375 82.808594 214.863281 84.410156 214.863281 85.835938 C 214.863281 87.03125 215.828125 87.859375 217.464844 87.914062 L 216.992188 89.902344 C 216.992188 90.058594 217.148438 90.058594 217.253906 90.058594 C 217.429688 90.058594 217.484375 90.042969 217.535156 89.847656 L 217.921875 88.28125 C 217.996094 87.964844 218.011719 87.949219 218.03125 87.929688 C 218.046875 87.929688 218.066406 87.929688 218.242188 87.914062 C 220.527344 87.773438 221.9375 86.207031 221.9375 84.761719 C 221.9375 83.546875 220.96875 82.738281 219.332031 82.6875 Z M 217.570312 87.507812 C 216.605469 87.453125 216.003906 87.03125 216.003906 86.136719 C 216.003906 85.820312 216.128906 84.78125 216.726562 84.042969 C 217.113281 83.546875 217.765625 83.160156 218.679688 83.089844 Z M 219.226562 83.089844 C 220.195312 83.144531 220.792969 83.546875 220.792969 84.464844 C 220.792969 84.78125 220.667969 85.820312 220.070312 86.558594 C 219.683594 87.050781 219.03125 87.4375 218.117188 87.507812 Z M 219.226562 83.089844 "/>
<path fill-rule="nonzero" fill="rgb(81.959534%, 51.371765%, 38.430786%)" fill-opacity="1" d="M 224 79.359375 L 222.46875 79.359375 L 222.46875 79.816406 L 223.558594 79.816406 L 223.558594 90.148438 L 222.46875 90.148438 L 222.46875 90.605469 L 224 90.605469 Z M 224 79.359375 "/>
<path fill-rule="nonzero" fill="rgb(81.959534%, 51.371765%, 38.430786%)" fill-opacity="1" d="M 227.117188 79.359375 L 225.585938 79.359375 L 225.585938 79.816406 L 226.675781 79.816406 L 226.675781 90.148438 L 225.585938 90.148438 L 225.585938 90.605469 L 227.117188 90.605469 Z M 227.117188 79.359375 "/>
<path fill-rule="nonzero" fill="rgb(50.195312%, 50.195312%, 50.195312%)" fill-opacity="1" d="M 157.828125 109.609375 L 157.828125 109.039062 L 155.375 109.039062 L 157.246094 106.933594 C 157.554688 106.5 157.789062 106.164062 157.789062 105.597656 C 157.789062 104.582031 157.046875 104.046875 156.105469 104.046875 C 155.574219 104.046875 155.128906 104.207031 154.679688 104.394531 L 154.679688 105.101562 C 155.128906 104.816406 155.574219 104.605469 156.117188 104.605469 C 156.738281 104.605469 157.222656 104.988281 157.222656 105.632812 C 157.222656 106.066406 156.875 106.597656 156.589844 106.894531 C 156.503906 107.019531 154.78125 108.902344 154.644531 109.039062 L 154.644531 109.609375 Z M 157.828125 109.609375 "/>
<path fill-rule="nonzero" fill="rgb(50.195312%, 50.195312%, 50.195312%)" fill-opacity="1" d="M 158.738281 108.804688 L 159.492188 108.804688 L 159.492188 109.609375 L 158.738281 109.609375 Z M 158.738281 108.804688 "/>
<path fill-rule="nonzero" fill="rgb(50.195312%, 50.195312%, 50.195312%)" fill-opacity="1" d="M 163.972656 106.894531 C 163.960938 105.730469 163.699219 104.046875 162.226562 104.046875 C 160.75 104.046875 160.503906 105.757812 160.503906 106.894531 C 160.503906 108.046875 160.765625 109.71875 162.226562 109.71875 C 163.6875 109.71875 163.972656 108.046875 163.972656 106.894531 Z M 163.402344 106.894531 C 163.402344 107.652344 163.339844 109.199219 162.226562 109.199219 C 161.109375 109.199219 161.074219 107.628906 161.074219 106.894531 C 161.074219 106.152344 161.097656 104.554688 162.226562 104.554688 C 163.339844 104.554688 163.402344 106.164062 163.402344 106.894531 Z M 163.402344 106.894531 "/>
<path fill-rule="nonzero" fill="rgb(50.195312%, 50.195312%, 50.195312%)" fill-opacity="1" d="M 399.359375 109.273438 L 399.359375 108.703125 L 396.90625 108.703125 L 398.777344 106.597656 C 399.085938 106.164062 399.320312 105.832031 399.320312 105.261719 C 399.320312 104.246094 398.578125 103.710938 397.636719 103.710938 C 397.105469 103.710938 396.65625 103.875 396.210938 104.058594 L 396.210938 104.765625 C 396.65625 104.480469 397.105469 104.269531 397.648438 104.269531 C 398.269531 104.269531 398.75 104.652344 398.75 105.296875 C 398.75 105.730469 398.40625 106.265625 398.121094 106.5625 C 398.03125 106.683594 396.3125 108.566406 396.175781 108.703125 L 396.175781 109.273438 Z M 399.359375 109.273438 "/>
<path fill-rule="nonzero" fill="rgb(50.195312%, 50.195312%, 50.195312%)" fill-opacity="1" d="M 400.269531 108.46875 L 401.023438 108.46875 L 401.023438 109.273438 L 400.269531 109.273438 Z M 400.269531 108.46875 "/>
<g clip-path="url(#clip-5)">
<path fill-rule="nonzero" fill="rgb(50.195312%, 50.195312%, 50.195312%)" fill-opacity="1" d="M 405.503906 106.5625 C 405.492188 105.398438 405.230469 103.710938 403.757812 103.710938 C 402.28125 103.710938 402.035156 105.421875 402.035156 106.5625 C 402.035156 107.714844 402.292969 109.386719 403.757812 109.386719 C 405.21875 109.386719 405.503906 107.714844 405.503906 106.5625 Z M 404.933594 106.5625 C 404.933594 107.316406 404.871094 108.867188 403.757812 108.867188 C 402.640625 108.867188 402.605469 107.292969 402.605469 106.5625 C 402.605469 105.820312 402.628906 104.21875 403.757812 104.21875 C 404.871094 104.21875 404.933594 105.832031 404.933594 106.5625 Z M 404.933594 106.5625 "/>
</g>
<path fill-rule="nonzero" fill="rgb(50.195312%, 50.195312%, 50.195312%)" fill-opacity="1" d="M 267.140625 106.894531 C 267.128906 105.730469 266.867188 104.046875 265.394531 104.046875 C 263.921875 104.046875 263.671875 105.757812 263.671875 106.894531 C 263.671875 108.046875 263.933594 109.71875 265.394531 109.71875 C 266.855469 109.71875 267.140625 108.046875 267.140625 106.894531 Z M 266.570312 106.894531 C 266.570312 107.652344 266.507812 109.199219 265.394531 109.199219 C 264.28125 109.199219 264.242188 107.628906 264.242188 106.894531 C 264.242188 106.152344 264.269531 104.554688 265.394531 104.554688 C 266.507812 104.554688 266.570312 106.164062 266.570312 106.894531 Z M 266.570312 106.894531 "/>
<path fill-rule="nonzero" fill="rgb(50.195312%, 50.195312%, 50.195312%)" fill-opacity="1" d="M 268.152344 108.804688 L 268.910156 108.804688 L 268.910156 109.609375 L 268.152344 109.609375 Z M 268.152344 108.804688 "/>
<path fill-rule="nonzero" fill="rgb(50.195312%, 50.195312%, 50.195312%)" fill-opacity="1" d="M 273.386719 106.894531 C 273.375 105.730469 273.117188 104.046875 271.640625 104.046875 C 270.167969 104.046875 269.921875 105.757812 269.921875 106.894531 C 269.921875 108.046875 270.179688 109.71875 271.640625 109.71875 C 273.101562 109.71875 273.386719 108.046875 273.386719 106.894531 Z M 272.820312 106.894531 C 272.820312 107.652344 272.757812 109.199219 271.640625 109.199219 C 270.527344 109.199219 270.488281 107.628906 270.488281 106.894531 C 270.488281 106.152344 270.515625 104.554688 271.640625 104.554688 C 272.757812 104.554688 272.820312 106.164062 272.820312 106.894531 Z M 272.820312 106.894531 "/>
<path fill-rule="nonzero" fill="rgb(50.195312%, 50.195312%, 50.195312%)" fill-opacity="1" d="M 258.789062 101.09375 C 258.777344 99.929688 258.515625 98.246094 257.042969 98.246094 C 255.566406 98.246094 255.320312 99.953125 255.320312 101.09375 C 255.320312 102.246094 255.582031 103.917969 257.042969 103.917969 C 258.503906 103.917969 258.789062 102.246094 258.789062 101.09375 Z M 258.21875 101.09375 C 258.21875 101.847656 258.15625 103.398438 257.042969 103.398438 C 255.925781 103.398438 255.890625 101.824219 255.890625 101.09375 C 255.890625 100.351562 255.914062 98.753906 257.042969 98.753906 C 258.15625 98.753906 258.21875 100.363281 258.21875 101.09375 Z M 258.21875 101.09375 "/>
<path fill-rule="nonzero" fill="rgb(50.195312%, 50.195312%, 50.195312%)" fill-opacity="1" d="M 259.800781 103 L 260.558594 103 L 260.558594 103.804688 L 259.800781 103.804688 Z M 259.800781 103 "/>
<path fill-rule="nonzero" fill="rgb(50.195312%, 50.195312%, 50.195312%)" fill-opacity="1" d="M 265.035156 101.09375 C 265.023438 99.929688 264.761719 98.246094 263.289062 98.246094 C 261.816406 98.246094 261.566406 99.953125 261.566406 101.09375 C 261.566406 102.246094 261.828125 103.917969 263.289062 103.917969 C 264.75 103.917969 265.035156 102.246094 265.035156 101.09375 Z M 264.464844 101.09375 C 264.464844 101.847656 264.402344 103.398438 263.289062 103.398438 C 262.175781 103.398438 262.136719 101.824219 262.136719 101.09375 C 262.136719 100.351562 262.160156 98.753906 263.289062 98.753906 C 264.402344 98.753906 264.464844 100.363281 264.464844 101.09375 Z M 264.464844 101.09375 "/>
<path fill-rule="nonzero" fill="rgb(50.195312%, 50.195312%, 50.195312%)" fill-opacity="1" d="M 25.597656 106.894531 C 25.585938 105.730469 25.328125 104.046875 23.851562 104.046875 C 22.378906 104.046875 22.132812 105.757812 22.132812 106.894531 C 22.132812 108.046875 22.390625 109.71875 23.851562 109.71875 C 25.316406 109.71875 25.597656 108.046875 25.597656 106.894531 Z M 25.03125 106.894531 C 25.03125 107.652344 24.96875 109.199219 23.851562 109.199219 C 22.738281 109.199219 22.699219 107.628906 22.699219 106.894531 C 22.699219 106.152344 22.726562 104.554688 23.851562 104.554688 C 24.96875 104.554688 25.03125 106.164062 25.03125 106.894531 Z M 25.03125 106.894531 "/>
<path fill-rule="nonzero" fill="rgb(50.195312%, 50.195312%, 50.195312%)" fill-opacity="1" d="M 26.613281 108.804688 L 27.367188 108.804688 L 27.367188 109.609375 L 26.613281 109.609375 Z M 26.613281 108.804688 "/>
<path fill-rule="nonzero" fill="rgb(50.195312%, 50.195312%, 50.195312%)" fill-opacity="1" d="M 31.847656 106.894531 C 31.832031 105.730469 31.574219 104.046875 30.101562 104.046875 C 28.625 104.046875 28.378906 105.757812 28.378906 106.894531 C 28.378906 108.046875 28.636719 109.71875 30.101562 109.71875 C 31.5625 109.71875 31.847656 108.046875 31.847656 106.894531 Z M 31.277344 106.894531 C 31.277344 107.652344 31.214844 109.199219 30.101562 109.199219 C 28.984375 109.199219 28.949219 107.628906 28.949219 106.894531 C 28.949219 106.152344 28.972656 104.554688 30.101562 104.554688 C 31.214844 104.554688 31.277344 106.164062 31.277344 106.894531 Z M 31.277344 106.894531 "/>
<path fill-rule="nonzero" fill="rgb(50.195312%, 50.195312%, 50.195312%)" fill-opacity="1" d="M 17.394531 52.984375 C 17.382812 51.820312 17.121094 50.136719 15.648438 50.136719 C 14.175781 50.136719 13.925781 51.847656 13.925781 52.984375 C 13.925781 54.136719 14.1875 55.808594 15.648438 55.808594 C 17.109375 55.808594 17.394531 54.136719 17.394531 52.984375 Z M 16.824219 52.984375 C 16.824219 53.742188 16.761719 55.289062 15.648438 55.289062 C 14.53125 55.289062 14.496094 53.714844 14.496094 52.984375 C 14.496094 52.242188 14.519531 50.644531 15.648438 50.644531 C 16.761719 50.644531 16.824219 52.253906 16.824219 52.984375 Z M 16.824219 52.984375 "/>
<path fill-rule="nonzero" fill="rgb(50.195312%, 50.195312%, 50.195312%)" fill-opacity="1" d="M 18.40625 54.894531 L 19.164062 54.894531 L 19.164062 55.699219 L 18.40625 55.699219 Z M 18.40625 54.894531 "/>
<path fill-rule="nonzero" fill="rgb(50.195312%, 50.195312%, 50.195312%)" fill-opacity="1" d="M 23.640625 52.984375 C 23.628906 51.820312 23.367188 50.136719 21.894531 50.136719 C 20.421875 50.136719 20.171875 51.847656 20.171875 52.984375 C 20.171875 54.136719 20.433594 55.808594 21.894531 55.808594 C 23.355469 55.808594 23.640625 54.136719 23.640625 52.984375 Z M 23.070312 52.984375 C 23.070312 53.742188 23.007812 55.289062 21.894531 55.289062 C 20.78125 55.289062 20.742188 53.714844 20.742188 52.984375 C 20.742188 52.242188 20.769531 50.644531 21.894531 50.644531 C 23.007812 50.644531 23.070312 52.253906 23.070312 52.984375 Z M 23.070312 52.984375 "/>
<path fill-rule="nonzero" fill="rgb(50.195312%, 50.195312%, 50.195312%)" fill-opacity="1" d="M 17.675781 6.753906 L 17.675781 6.1875 L 16.933594 6.1875 L 16.933594 2.59375 L 16.140625 2.59375 L 14.019531 6.0625 L 14.019531 6.753906 L 16.335938 6.753906 L 16.335938 8.054688 L 16.933594 8.054688 L 16.933594 6.753906 Z M 16.335938 6.1875 L 14.46875 6.1875 L 16.335938 3.175781 Z M 16.335938 6.1875 "/>
<path fill-rule="nonzero" fill="rgb(50.195312%, 50.195312%, 50.195312%)" fill-opacity="1" d="M 18.40625 7.25 L 19.164062 7.25 L 19.164062 8.054688 L 18.40625 8.054688 Z M 18.40625 7.25 "/>
<path fill-rule="nonzero" fill="rgb(50.195312%, 50.195312%, 50.195312%)" fill-opacity="1" d="M 23.640625 5.34375 C 23.628906 4.179688 23.367188 2.496094 21.894531 2.496094 C 20.421875 2.496094 20.171875 4.203125 20.171875 5.34375 C 20.171875 6.496094 20.433594 8.167969 21.894531 8.167969 C 23.355469 8.167969 23.640625 6.496094 23.640625 5.34375 Z M 23.070312 5.34375 C 23.070312 6.097656 23.007812 7.648438 21.894531 7.648438 C 20.78125 7.648438 20.742188 6.074219 20.742188 5.34375 C 20.742188 4.601562 20.769531 3.003906 21.894531 3.003906 C 23.007812 3.003906 23.070312 4.613281 23.070312 5.34375 Z M 23.070312 5.34375 "/>
<path fill-rule="nonzero" fill="rgb(50.195312%, 50.195312%, 50.195312%)" fill-opacity="1" d="M 11.464844 100.882812 L 13.261719 100.882812 L 13.261719 101.402344 L 11.464844 101.402344 Z M 11.464844 100.882812 "/>
<path fill-rule="nonzero" fill="rgb(50.195312%, 50.195312%, 50.195312%)" fill-opacity="1" d="M 17.675781 101.625 L 17.675781 101.054688 L 16.933594 101.054688 L 16.933594 97.464844 L 16.140625 97.464844 L 14.019531 100.929688 L 14.019531 101.625 L 16.335938 101.625 L 16.335938 102.925781 L 16.933594 102.925781 L 16.933594 101.625 Z M 16.335938 101.054688 L 14.46875 101.054688 L 16.335938 98.046875 Z M 16.335938 101.054688 "/>
<path fill-rule="nonzero" fill="rgb(50.195312%, 50.195312%, 50.195312%)" fill-opacity="1" d="M 18.40625 102.121094 L 19.164062 102.121094 L 19.164062 102.925781 L 18.40625 102.925781 Z M 18.40625 102.121094 "/>
<path fill-rule="nonzero" fill="rgb(50.195312%, 50.195312%, 50.195312%)" fill-opacity="1" d="M 23.640625 100.214844 C 23.628906 99.046875 23.367188 97.363281 21.894531 97.363281 C 20.421875 97.363281 20.171875 99.074219 20.171875 100.214844 C 20.171875 101.363281 20.433594 103.035156 21.894531 103.035156 C 23.355469 103.035156 23.640625 101.363281 23.640625 100.214844 Z M 23.070312 100.214844 C 23.070312 100.96875 23.007812 102.515625 21.894531 102.515625 C 20.78125 102.515625 20.742188 100.945312 20.742188 100.214844 C 20.742188 99.46875 20.769531 97.871094 21.894531 97.871094 C 23.007812 97.871094 23.070312 99.480469 23.070312 100.214844 Z M 23.070312 100.214844 "/>
<path fill-rule="nonzero" fill="rgb(50.195312%, 50.195312%, 50.195312%)" fill-opacity="1" d="M 91.113281 109.277344 L 91.113281 103.816406 L 90.457031 103.816406 L 89.675781 104.445312 L 89.675781 105.066406 L 90.492188 104.398438 L 90.492188 109.277344 Z M 91.113281 109.277344 "/>
<path fill-rule="nonzero" fill="rgb(50.195312%, 50.195312%, 50.195312%)" fill-opacity="1" d="M 92.300781 108.472656 L 93.054688 108.472656 L 93.054688 109.277344 L 92.300781 109.277344 Z M 92.300781 108.472656 "/>
<path fill-rule="nonzero" fill="rgb(50.195312%, 50.195312%, 50.195312%)" fill-opacity="1" d="M 97.53125 106.566406 C 97.519531 105.402344 97.261719 103.714844 95.785156 103.714844 C 94.3125 103.714844 94.066406 105.425781 94.066406 106.566406 C 94.066406 107.71875 94.324219 109.390625 95.785156 109.390625 C 97.25 109.390625 97.53125 107.71875 97.53125 106.566406 Z M 96.964844 106.566406 C 96.964844 107.320312 96.902344 108.867188 95.785156 108.867188 C 94.671875 108.867188 94.632812 107.296875 94.632812 106.566406 C 94.632812 105.820312 94.660156 104.222656 95.785156 104.222656 C 96.902344 104.222656 96.964844 105.835938 96.964844 106.566406 Z M 96.964844 106.566406 "/>
<path fill-rule="nonzero" fill="rgb(50.195312%, 50.195312%, 50.195312%)" fill-opacity="1" d="M 258.144531 8.445312 L 258.144531 2.984375 L 257.488281 2.984375 L 256.710938 3.617188 L 256.710938 4.234375 L 257.527344 3.566406 L 257.527344 8.445312 Z M 258.144531 8.445312 "/>
<path fill-rule="nonzero" fill="rgb(50.195312%, 50.195312%, 50.195312%)" fill-opacity="1" d="M 259.332031 7.640625 L 260.089844 7.640625 L 260.089844 8.445312 L 259.332031 8.445312 Z M 259.332031 7.640625 "/>
<path fill-rule="nonzero" fill="rgb(50.195312%, 50.195312%, 50.195312%)" fill-opacity="1" d="M 264.566406 5.734375 C 264.554688 4.570312 264.292969 2.886719 262.820312 2.886719 C 261.347656 2.886719 261.097656 4.59375 261.097656 5.734375 C 261.097656 6.886719 261.359375 8.558594 262.820312 8.558594 C 264.28125 8.558594 264.566406 6.886719 264.566406 5.734375 Z M 263.996094 5.734375 C 263.996094 6.488281 263.933594 8.039062 262.820312 8.039062 C 261.707031 8.039062 261.667969 6.464844 261.667969 5.734375 C 261.667969 4.992188 261.691406 3.394531 262.820312 3.394531 C 263.933594 3.394531 263.996094 5.003906 263.996094 5.734375 Z M 263.996094 5.734375 "/>
<path fill-rule="nonzero" fill="rgb(50.195312%, 50.195312%, 50.195312%)" fill-opacity="1" d="M 332.652344 109.273438 L 332.652344 103.8125 L 331.996094 103.8125 L 331.21875 104.445312 L 331.21875 105.0625 L 332.035156 104.394531 L 332.035156 109.273438 Z M 332.652344 109.273438 "/>
<path fill-rule="nonzero" fill="rgb(50.195312%, 50.195312%, 50.195312%)" fill-opacity="1" d="M 333.839844 108.46875 L 334.597656 108.46875 L 334.597656 109.273438 L 333.839844 109.273438 Z M 333.839844 108.46875 "/>
<path fill-rule="nonzero" fill="rgb(50.195312%, 50.195312%, 50.195312%)" fill-opacity="1" d="M 339.074219 106.5625 C 339.0625 105.398438 338.800781 103.710938 337.328125 103.710938 C 335.855469 103.710938 335.605469 105.421875 335.605469 106.5625 C 335.605469 107.714844 335.867188 109.386719 337.328125 109.386719 C 338.789062 109.386719 339.074219 107.714844 339.074219 106.5625 Z M 338.503906 106.5625 C 338.503906 107.316406 338.441406 108.867188 337.328125 108.867188 C 336.214844 108.867188 336.175781 107.292969 336.175781 106.5625 C 336.175781 105.820312 336.203125 104.21875 337.328125 104.21875 C 338.441406 104.21875 338.503906 105.832031 338.503906 106.5625 Z M 338.503906 106.5625 "/>
<path fill-rule="nonzero" fill="rgb(50.195312%, 50.195312%, 50.195312%)" fill-opacity="1" d="M 258.296875 54.132812 C 258.285156 52.96875 258.023438 51.285156 256.550781 51.285156 C 255.078125 51.285156 254.828125 52.992188 254.828125 54.132812 C 254.828125 55.285156 255.089844 56.957031 256.550781 56.957031 C 258.011719 56.957031 258.296875 55.285156 258.296875 54.132812 Z M 257.726562 54.132812 C 257.726562 54.890625 257.664062 56.4375 256.550781 56.4375 C 255.4375 56.4375 255.398438 54.863281 255.398438 54.132812 C 255.398438 53.390625 255.421875 51.792969 256.550781 51.792969 C 257.664062 51.792969 257.726562 53.402344 257.726562 54.132812 Z M 257.726562 54.132812 "/>
<path fill-rule="nonzero" fill="rgb(50.195312%, 50.195312%, 50.195312%)" fill-opacity="1" d="M 259.308594 56.039062 L 260.066406 56.039062 L 260.066406 56.847656 L 259.308594 56.847656 Z M 259.308594 56.039062 "/>
<path fill-rule="nonzero" fill="rgb(50.195312%, 50.195312%, 50.195312%)" fill-opacity="1" d="M 264.148438 55.113281 C 264.136719 53.996094 263.441406 53.265625 262.328125 53.265625 C 262.179688 53.277344 261.84375 53.316406 261.644531 53.390625 L 261.84375 51.953125 L 263.777344 51.953125 L 263.777344 51.382812 L 261.449219 51.382812 L 261.113281 54.082031 C 261.546875 53.875 261.644531 53.824219 262.203125 53.824219 C 263.007812 53.824219 263.578125 54.269531 263.578125 55.113281 C 263.578125 55.980469 263.019531 56.398438 262.203125 56.398438 C 261.660156 56.398438 261.300781 56.289062 260.902344 56.039062 L 260.902344 56.722656 C 261.261719 56.859375 261.792969 56.957031 262.214844 56.957031 C 263.390625 56.957031 264.148438 56.3125 264.148438 55.113281 Z M 264.148438 55.113281 "/>
<g clip-path="url(#clip-6)">
<path fill="none" stroke-width="2.114398" stroke-linecap="square" stroke-linejoin="round" stroke="rgb(68.234253%, 76.469421%, 81.175232%)" stroke-opacity="1" stroke-miterlimit="4" d="M 27.0625 94.817104 L 28.394531 93.464285 L 29.730469 92.111465 L 31.0625 90.758646 L 32.398438 89.401391 L 33.730469 88.048572 L 35.066406 86.695753 L 37.730469 83.990115 L 39.066406 82.63286 L 40.398438 81.280041 L 41.734375 79.927221 L 43.066406 78.574402 L 44.402344 77.221583 L 45.734375 75.864328 L 47.070312 74.511509 L 48.402344 73.15869 L 49.738281 71.80587 L 51.070312 70.453051 L 52.40625 69.095797 L 53.738281 67.742977 L 55.074219 65.037339 L 56.40625 62.327265 L 57.742188 59.621626 L 59.074219 56.915988 L 60.410156 54.205914 L 61.742188 51.500276 L 63.078125 48.794637 L 64.410156 46.084563 L 65.746094 43.378925 L 67.078125 40.668851 L 68.414062 37.963212 L 69.746094 35.257574 L 71.082031 32.5475 L 72.414062 29.841862 L 73.75 27.131788 L 75.082031 24.426149 L 76.417969 21.720511 L 77.75 19.010437 L 79.085938 16.304798 L 80.417969 13.594724 L 81.753906 14.951979 L 83.085938 16.304798 L 84.421875 17.657618 L 85.753906 19.010437 L 87.089844 20.363256 L 88.421875 21.720511 L 89.757812 23.07333 L 91.089844 24.426149 L 92.425781 25.778968 L 93.757812 27.131788 L 95.09375 28.489042 L 96.425781 29.841862 L 97.761719 31.194681 L 99.09375 32.5475 L 100.429688 33.900319 L 101.761719 36.610393 L 103.097656 39.316032 L 104.429688 42.026106 L 105.765625 44.731744 L 107.097656 47.437382 L 108.433594 50.147456 L 109.765625 52.853095 L 111.101562 55.558733 L 112.433594 58.268807 L 113.769531 60.974446 L 115.101562 63.68452 L 116.4375 66.390158 L 117.769531 69.095797 L 119.105469 71.80587 L 120.4375 74.511509 L 121.773438 77.221583 L 123.105469 79.927221 L 124.441406 82.63286 L 125.773438 85.342934 L 127.109375 88.048572 L 128.441406 90.758646 L 129.777344 93.464285 L 131.109375 96.169923 L 132.445312 98.879997 L 133.777344 101.585635 L 135.113281 98.879997 L 136.445312 96.169923 L 137.78125 93.464285 L 139.113281 90.758646 L 140.449219 88.048572 L 141.78125 85.342934 L 143.113281 82.63286 L 144.449219 79.927221 L 145.78125 77.221583 L 147.117188 74.511509 L 148.449219 71.80587 L 149.785156 69.095797 L 151.117188 66.390158 L 152.453125 63.68452 L 153.785156 60.974446 L 155.121094 58.268807 L 156.453125 55.558733 L 157.789062 52.853095 L 159.121094 50.147456 " transform="matrix(1, 0, 0, 0.880684, 0, 0)"/>
</g>
<path fill="none" stroke-width="0.850394" stroke-linecap="butt" stroke-linejoin="round" stroke="rgb(0%, 0%, 0%)" stroke-opacity="1" stroke-miterlimit="4" d="M 27.144531 5.957031 L 160.0625 5.957031 L 160.0625 101.542969 L 27.144531 101.542969 Z M 27.144531 5.957031 "/>
<path fill="none" stroke-width="0.850394" stroke-linecap="butt" stroke-linejoin="round" stroke="rgb(0%, 0%, 0%)" stroke-opacity="1" stroke-miterlimit="4" d="M 268.6875 5.957031 L 401.605469 5.957031 L 401.605469 101.542969 L 268.6875 101.542969 Z M 268.6875 5.957031 "/>
<path fill-rule="nonzero" fill="rgb(0%, 0%, 0%)" fill-opacity="1" d="M 4.703125 5.839844 C 4.703125 4.550781 3.773438 3.660156 2.605469 3.660156 C 1.792969 3.660156 1.21875 3.859375 0.625 4.195312 L 0.707031 5.027344 C 1.359375 4.570312 1.992188 4.414062 2.605469 4.414062 C 3.199219 4.414062 3.714844 4.910156 3.714844 5.839844 L 3.714844 6.394531 C 1.8125 6.414062 0.210938 6.945312 0.210938 8.054688 C 0.210938 8.589844 0.546875 9.621094 1.65625 9.621094 C 1.832031 9.621094 3.019531 9.597656 3.753906 9.027344 L 3.753906 9.480469 L 4.703125 9.480469 Z M 3.714844 7.816406 C 3.714844 8.054688 3.714844 8.371094 3.277344 8.609375 C 2.921875 8.828125 2.425781 8.847656 2.289062 8.847656 C 1.695312 8.847656 1.121094 8.550781 1.121094 8.035156 C 1.121094 7.144531 3.160156 7.066406 3.714844 7.027344 Z M 3.714844 7.816406 "/>
<path fill-rule="nonzero" fill="rgb(0%, 0%, 0%)" fill-opacity="1" d="M 7.207031 12.648438 C 7.601562 12.25 8.453125 11.480469 9.027344 9.9375 C 9.542969 8.589844 9.621094 7.242188 9.621094 6.3125 C 9.621094 2.238281 7.800781 0.574219 7.207031 0 L 6.433594 0 C 7.027344 0.613281 8.632812 2.238281 8.632812 6.3125 C 8.632812 7.027344 8.589844 8.511719 8.078125 9.996094 C 7.5625 11.460938 6.851562 12.210938 6.433594 12.648438 Z M 7.207031 12.648438 "/>
<path fill-rule="nonzero" fill="rgb(0%, 0%, 0%)" fill-opacity="1" d="M 170.019531 0.710938 L 169.066406 0.710938 L 169.066406 9.480469 L 170.058594 9.480469 L 170.058594 8.90625 C 170.355469 9.183594 170.910156 9.621094 171.757812 9.621094 C 173.007812 9.621094 174.09375 8.351562 174.09375 6.671875 C 174.09375 5.105469 173.242188 3.742188 172.054688 3.742188 C 171.5625 3.742188 170.769531 3.859375 170.019531 4.472656 Z M 170.058594 5.246094 C 170.253906 4.949219 170.710938 4.511719 171.402344 4.511719 C 172.15625 4.511719 173.105469 5.046875 173.105469 6.671875 C 173.105469 8.3125 172.054688 8.847656 171.285156 8.847656 C 170.789062 8.847656 170.375 8.628906 170.058594 8.035156 Z M 170.058594 5.246094 "/>
<path fill-rule="nonzero" fill="rgb(0%, 0%, 0%)" fill-opacity="1" d="M 176.042969 12.648438 C 176.441406 12.25 177.289062 11.480469 177.863281 9.9375 C 178.378906 8.589844 178.457031 7.242188 178.457031 6.3125 C 178.457031 2.238281 176.636719 0.574219 176.042969 0 L 175.273438 0 C 175.867188 0.613281 177.46875 2.238281 177.46875 6.3125 C 177.46875 7.027344 177.429688 8.511719 176.914062 9.996094 C 176.398438 11.460938 175.6875 12.210938 175.273438 12.648438 Z M 176.042969 12.648438 "/>
<path fill-rule="nonzero" fill="rgb(0%, 0%, 0%)" fill-opacity="1" d="M 240.503906 4.195312 C 239.75 3.78125 239.316406 3.660156 238.542969 3.660156 C 236.800781 3.660156 235.773438 5.1875 235.773438 6.671875 C 235.773438 8.234375 236.921875 9.621094 238.503906 9.621094 C 239.175781 9.621094 239.871094 9.441406 240.5625 8.964844 L 240.484375 8.132812 C 239.832031 8.628906 239.15625 8.808594 238.503906 8.808594 C 237.457031 8.808594 236.761719 7.898438 236.761719 6.671875 C 236.761719 5.679688 237.21875 4.472656 238.5625 4.472656 C 239.214844 4.472656 239.652344 4.570312 240.34375 5.027344 Z M 240.503906 4.195312 "/>
<path fill-rule="nonzero" fill="rgb(0%, 0%, 0%)" fill-opacity="1" d="M 242.410156 12.648438 C 242.804688 12.25 243.65625 11.480469 244.230469 9.9375 C 244.746094 8.589844 244.824219 7.242188 244.824219 6.3125 C 244.824219 2.238281 243.003906 0.574219 242.410156 0 L 241.636719 0 C 242.230469 0.613281 243.835938 2.238281 243.835938 6.3125 C 243.835938 7.027344 243.796875 8.511719 243.28125 9.996094 C 242.765625 11.460938 242.054688 12.210938 241.636719 12.648438 Z M 242.410156 12.648438 "/>
</svg>
