<?xml version="1.0" encoding="UTF-8"?>
<svg xmlns="http://www.w3.org/2000/svg" xmlns:xlink="http://www.w3.org/1999/xlink" width="434.612946pt" height="158.691956pt" viewBox="0 0 434.612946 158.691956">
<defs>
<clipPath id="clip-0">
<path clip-rule="nonzero" d="M 168.019531 35 L 292.894531 35 L 292.894531 139.269531 L 168.019531 139.269531 Z M 168.019531 35 "/>
</clipPath>
<clipPath id="clip-1">
<path clip-rule="nonzero" d="M 304.402344 27 L 429.339844 27 L 429.339844 141 L 304.402344 141 Z M 304.402344 27 "/>
</clipPath>
<clipPath id="clip-2">
<path clip-rule="nonzero" d="M 304.402344 79 L 429.339844 79 L 429.339844 141 L 304.402344 141 Z M 304.402344 79 "/>
</clipPath>
<clipPath id="clip-3">
<path clip-rule="nonzero" d="M 304.402344 75 L 429.339844 75 L 429.339844 141 L 304.402344 141 Z M 304.402344 75 "/>
</clipPath>
<clipPath id="clip-4">
<path clip-rule="nonzero" d="M 168.019531 64 L 292.894531 64 L 292.894531 139.269531 L 168.019531 139.269531 Z M 168.019531 64 "/>
</clipPath>
<clipPath id="clip-5">
<path clip-rule="nonzero" d="M 168.019531 39 L 292.894531 39 L 292.894531 139.269531 L 168.019531 139.269531 Z M 168.019531 39 "/>
</clipPath>
<clipPath id="clip-6">
<path clip-rule="nonzero" d="M 71 150 L 76 150 L 76 158.691406 L 71 158.691406 Z M 71 150 "/>
</clipPath>
<clipPath id="clip-7">
<path clip-rule="nonzero" d="M 431 142 L 434.613281 142 L 434.613281 149 L 431 149 Z M 431 142 "/>
</clipPath>
</defs>
<g clip-path="url(#clip-0)">
<path fill="none" stroke-width="3.377653" stroke-linecap="square" stroke-linejoin="round" stroke="rgb(62.744141%, 84.70459%, 82.743835%)" stroke-opacity="1" stroke-miterlimit="4" d="M 238.557027 139.109375 L 242.278501 138.941406 L 245.201328 138.710938 L 247.59727 138.425781 L 249.726996 138.070312 L 251.58496 137.65625 L 253.270993 137.179688 L 254.868287 136.625 L 256.371297 135.984375 L 257.791114 135.273438 L 259.122193 134.492188 L 260.453271 133.59375 L 261.690065 132.632812 L 262.932405 131.550781 L 264.174745 130.332031 L 265.417086 128.976562 L 266.659426 127.46875 L 267.89622 125.808594 L 269.227298 123.855469 L 270.558377 121.714844 L 271.978194 119.230469 L 273.392465 116.539062 L 274.901021 113.464844 L 276.587054 109.789062 L 278.445018 105.46875 L 280.663482 100.058594 L 287.9345 82.089844 L 289.526248 78.539062 L 290.857326 75.800781 L 292.099667 73.472656 L 293.253268 71.53125 L 294.229392 70.070312 L 295.199971 68.792969 L 296.087356 67.800781 L 296.886004 67.046875 L 297.684651 66.4375 L 298.394559 66.011719 L 299.104468 65.703125 L 299.814377 65.511719 L 300.430001 65.441406 L 301.051171 65.460938 L 301.672341 65.570312 L 302.382249 65.804688 L 303.092158 66.15625 L 303.802066 66.621094 L 304.600714 67.28125 L 305.399361 68.074219 L 306.2812 69.117188 L 307.168586 70.3125 L 308.144711 71.796875 L 309.209574 73.601562 L 310.363175 75.753906 L 311.688708 78.449219 L 313.286002 81.921875 L 315.859421 87.808594 L 318.249816 93.203125 L 319.580895 95.96875 L 320.645758 97.972656 L 321.533144 99.449219 L 322.331791 100.59375 L 323.036153 101.4375 L 323.657323 102.03125 L 324.189755 102.410156 L 324.722186 102.671875 L 325.165879 102.785156 L 325.609572 102.800781 L 326.053265 102.714844 L 326.496958 102.523438 L 326.940651 102.21875 L 327.384343 101.796875 L 327.916775 101.128906 L 328.44366 100.285156 L 328.976092 99.261719 L 329.597262 97.828125 L 330.218432 96.140625 L 330.92834 93.902344 L 331.726988 91 L 332.525635 87.710938 L 333.413021 83.648438 L 334.472337 78.285156 L 335.892155 70.5625 L 338.909266 53.984375 L 339.879844 49.238281 L 340.678492 45.796875 L 341.3884 43.152344 L 342.00957 41.210938 L 342.542002 39.847656 L 342.985695 38.9375 L 343.429388 38.242188 L 343.784342 37.847656 L 344.139296 37.597656 L 344.405512 37.507812 L 344.671728 37.503906 L 344.932397 37.582031 L 345.287351 37.820312 L 345.642306 38.207031 L 345.99726 38.746094 L 346.440953 39.625 L 346.884646 40.730469 L 347.417077 42.347656 L 348.038247 44.613281 L 348.659417 47.261719 L 349.369326 50.710938 L 350.256712 55.578125 L 351.316029 62.070312 L 352.735846 71.453125 L 356.45732 96.464844 L 357.69966 103.949219 L 358.764523 109.773438 L 359.740647 114.574219 L 360.628033 118.476562 L 361.509873 121.933594 L 362.30852 124.675781 L 363.107167 127.082031 L 363.905814 129.171875 L 364.704461 130.972656 L 365.503109 132.503906 L 366.213017 133.667969 L 366.922926 134.65625 L 367.716027 135.589844 L 368.514674 136.359375 L 369.313321 136.988281 L 370.111969 137.492188 L 370.999354 137.9375 L 371.975479 138.308594 L 373.034795 138.605469 L 374.277136 138.847656 L 375.785691 139.03125 L 377.73794 139.160156 L 380.572028 139.238281 L 386.245751 139.269531 L 415.767967 139.269531 " transform="matrix(0.704316, 0, 0, 1, 0, 0)"/>
</g>
<g clip-path="url(#clip-1)">
<path fill="none" stroke-width="3.327341" stroke-linecap="square" stroke-linejoin="round" stroke="rgb(62.744141%, 84.70459%, 82.743835%)" stroke-opacity="1" stroke-miterlimit="4" d="M 419.415804 138.414062 L 425.271597 138.257812 L 429.744174 138.042969 L 433.360988 137.777344 L 436.547228 137.445312 L 439.383628 137.050781 L 441.880951 136.605469 L 444.206046 136.097656 L 446.358911 135.53125 L 448.425661 134.886719 L 450.400915 134.167969 L 452.295436 133.375 L 454.103843 132.515625 L 455.91225 131.542969 L 457.634542 130.507812 L 459.27072 129.414062 L 460.906897 128.199219 L 462.451578 126.921875 L 463.915526 125.585938 L 465.207245 124.273438 L 466.41285 122.921875 L 467.532339 121.527344 L 468.651829 119.976562 L 469.685205 118.375 L 470.71858 116.585938 L 471.665841 114.746094 L 472.607719 112.695312 L 473.55498 110.402344 L 474.50224 107.839844 L 475.449501 104.984375 L 476.396762 101.8125 L 477.344022 98.3125 L 478.377398 94.109375 L 479.496887 89.113281 L 480.702492 83.257812 L 482.080326 76.0625 L 484.141694 64.679688 L 486.294559 52.945312 L 487.500164 46.882812 L 488.447424 42.566406 L 489.30857 39.078125 L 490.083602 36.347656 L 490.772519 34.28125 L 491.375321 32.773438 L 491.892008 31.714844 L 492.408696 30.871094 L 492.839269 30.335938 L 493.269842 29.957031 L 493.608918 29.761719 L 493.953377 29.664062 L 494.297835 29.664062 L 494.642294 29.757812 L 494.986752 29.941406 L 495.417325 30.296875 L 495.847898 30.785156 L 496.364586 31.539062 L 496.881273 32.460938 L 497.484076 33.734375 L 498.172993 35.417969 L 499.034139 37.808594 L 500.067514 40.992188 L 501.617577 46.140625 L 504.195633 54.742188 L 505.487352 58.683594 L 506.606842 61.796875 L 507.640217 64.386719 L 508.587478 66.515625 L 509.534738 68.421875 L 510.481999 70.117188 L 511.42926 71.628906 L 512.462635 73.089844 L 513.582125 74.5 L 514.873844 75.957031 L 516.504639 77.644531 L 522.015974 83.191406 L 523.910495 85.308594 L 525.799634 87.578125 L 527.78027 90.105469 L 530.01925 93.125 L 532.861032 97.128906 L 542.500486 110.875 L 544.997809 114.175781 L 547.236789 116.976562 L 549.298157 119.398438 L 551.278793 121.570312 L 553.173315 123.496094 L 554.981721 125.199219 L 556.790128 126.769531 L 558.593153 128.203125 L 560.315445 129.449219 L 562.123851 130.632812 L 563.932258 131.695312 L 565.740665 132.644531 L 567.635186 133.527344 L 569.524325 134.300781 L 571.504961 135 L 573.571712 135.628906 L 575.724577 136.179688 L 578.049671 136.671875 L 580.541613 137.101562 L 583.29728 137.476562 L 586.397406 137.792969 L 589.928105 138.050781 L 591.472785 138.136719 " transform="matrix(0.725777, 0, 0, 1, 0, 0)"/>
</g>
<g clip-path="url(#clip-2)">
<path fill="none" stroke-width="1.830038" stroke-linecap="square" stroke-linejoin="round" stroke="rgb(27.842712%, 39.99939%, 47.450256%)" stroke-opacity="1" stroke-dasharray="3.660075 3.660075" stroke-miterlimit="4" d="M 419.415804 138.953125 L 460.131866 138.902344 L 462.968265 138.792969 L 464.776672 138.632812 L 466.24062 138.410156 L 467.446225 138.128906 L 468.4796 137.792969 L 469.426861 137.382812 L 470.288007 136.90625 L 471.149153 136.316406 L 471.918802 135.667969 L 472.693834 134.894531 L 473.468865 133.976562 L 474.243897 132.898438 L 475.018928 131.652344 L 475.793959 130.214844 L 476.568991 128.582031 L 477.430137 126.523438 L 478.291283 124.207031 L 479.238544 121.359375 L 480.271919 117.914062 L 481.391409 113.832031 L 482.76386 108.414062 L 486.811247 92.226562 L 487.758507 88.957031 L 488.533539 86.585938 L 489.222456 84.753906 L 489.825258 83.390625 L 490.42806 82.269531 L 490.944748 81.515625 L 491.375321 81.039062 L 491.805894 80.707031 L 492.150352 80.542969 L 492.494811 80.472656 L 492.839269 80.496094 L 493.183728 80.613281 L 493.522804 80.824219 L 493.953377 81.214844 L 494.38395 81.746094 L 494.900638 82.5625 L 495.417325 83.570312 L 496.020127 84.964844 L 496.709044 86.832031 L 497.484076 89.238281 L 498.431336 92.542969 L 499.550826 96.824219 L 501.445348 104.542969 L 503.512098 112.84375 L 504.798435 117.613281 L 505.83181 121.085938 L 506.779071 123.960938 L 507.726332 126.523438 L 508.587478 128.582031 L 509.448624 130.382812 L 510.223655 131.800781 L 510.998687 133.027344 L 511.773718 134.085938 L 512.548749 134.988281 L 513.323781 135.746094 L 514.098812 136.382812 L 514.954576 136.960938 L 515.815722 137.425781 L 516.762983 137.824219 L 517.796358 138.152344 L 519.001963 138.425781 L 520.379796 138.632812 L 522.102089 138.789062 L 524.427183 138.890625 L 528.210843 138.941406 L 539.658704 138.953125 L 591.472785 138.953125 " transform="matrix(0.725777, 0, 0, 1, 0, 0)"/>
</g>
<g clip-path="url(#clip-3)">
<path fill="none" stroke-width="1.830038" stroke-linecap="square" stroke-linejoin="round" stroke="rgb(81.959534%, 51.371765%, 38.430786%)" stroke-opacity="1" stroke-dasharray="3.660075 3.660075" stroke-miterlimit="4" d="M 419.415804 138.816406 L 425.271597 138.660156 L 429.744174 138.445312 L 433.360988 138.179688 L 436.547228 137.847656 L 439.383628 137.453125 L 441.880951 137.007812 L 444.206046 136.5 L 446.358911 135.933594 L 448.425661 135.289062 L 450.400915 134.570312 L 452.295436 133.777344 L 454.103843 132.917969 L 455.91225 131.953125 L 457.720657 130.871094 L 459.442949 129.730469 L 461.159859 128.472656 L 462.882151 127.097656 L 464.604443 125.601562 L 466.41285 123.898438 L 468.221256 122.0625 L 470.115778 119.996094 L 472.091031 117.6875 L 474.157782 115.128906 L 476.396762 112.203125 L 478.9802 108.664062 L 482.338669 103.878906 L 489.394685 93.769531 L 491.805894 90.523438 L 493.781148 88.015625 L 495.50344 85.984375 L 497.139617 84.203125 L 498.603566 82.753906 L 499.981399 81.519531 L 501.273118 80.492188 L 502.478723 79.648438 L 503.684327 78.925781 L 504.798435 78.363281 L 505.917925 77.910156 L 506.9513 77.59375 L 507.984675 77.371094 L 509.018051 77.25 L 510.051426 77.222656 L 511.084801 77.296875 L 512.118176 77.46875 L 513.151552 77.742188 L 514.184927 78.105469 L 515.299035 78.609375 L 516.418525 79.222656 L 517.624129 79.996094 L 518.829734 80.886719 L 520.121453 81.96875 L 521.499286 83.25 L 522.963235 84.75 L 524.513297 86.476562 L 526.230207 88.546875 L 528.210843 91.085938 L 530.449823 94.125 L 533.37772 98.273438 L 541.897683 110.453125 L 544.395007 113.796875 L 546.633987 116.640625 L 548.695355 119.109375 L 550.675991 121.328125 L 552.570512 123.300781 L 554.378919 125.046875 L 556.187326 126.660156 L 557.995733 128.140625 L 559.798757 129.488281 L 561.607164 130.707031 L 563.41557 131.804688 L 565.223977 132.789062 L 567.032384 133.660156 L 568.921523 134.464844 L 570.902159 135.199219 L 572.96891 135.855469 L 575.121775 136.4375 L 577.446869 136.957031 L 579.93881 137.410156 L 582.608363 137.792969 L 585.622374 138.125 L 588.980844 138.390625 L 591.472785 138.535156 " transform="matrix(0.725777, 0, 0, 1, 0, 0)"/>
</g>
<path fill="none" stroke-width="0.850394" stroke-linecap="butt" stroke-linejoin="miter" stroke="rgb(50.195312%, 50.195312%, 50.195312%)" stroke-opacity="1" stroke-miterlimit="4" d="M 167.976562 15.738281 L 165.445312 15.738281 "/>
<path fill="none" stroke-width="0.850394" stroke-linecap="butt" stroke-linejoin="miter" stroke="rgb(50.195312%, 50.195312%, 50.195312%)" stroke-opacity="1" stroke-miterlimit="4" d="M 167.976562 77.742188 L 165.445312 77.742188 "/>
<path fill="none" stroke-width="0.850394" stroke-linecap="butt" stroke-linejoin="miter" stroke="rgb(50.195312%, 50.195312%, 50.195312%)" stroke-opacity="1" stroke-miterlimit="4" d="M 167.90625 139.746094 L 165.378906 139.746094 "/>
<path fill="none" stroke-width="0.850394" stroke-linecap="butt" stroke-linejoin="miter" stroke="rgb(50.195312%, 50.195312%, 50.195312%)" stroke-opacity="1" stroke-miterlimit="4" d="M 167.976562 28.136719 L 166.25 28.136719 "/>
<path fill="none" stroke-width="0.850394" stroke-linecap="butt" stroke-linejoin="miter" stroke="rgb(50.195312%, 50.195312%, 50.195312%)" stroke-opacity="1" stroke-miterlimit="4" d="M 167.976562 52.941406 L 166.25 52.941406 "/>
<path fill="none" stroke-width="0.850394" stroke-linecap="butt" stroke-linejoin="miter" stroke="rgb(50.195312%, 50.195312%, 50.195312%)" stroke-opacity="1" stroke-miterlimit="4" d="M 167.976562 90.144531 L 166.25 90.144531 "/>
<path fill="none" stroke-width="0.850394" stroke-linecap="butt" stroke-linejoin="miter" stroke="rgb(50.195312%, 50.195312%, 50.195312%)" stroke-opacity="1" stroke-miterlimit="4" d="M 167.976562 102.542969 L 166.25 102.542969 "/>
<path fill="none" stroke-width="0.850394" stroke-linecap="butt" stroke-linejoin="miter" stroke="rgb(50.195312%, 50.195312%, 50.195312%)" stroke-opacity="1" stroke-miterlimit="4" d="M 167.976562 127.347656 L 166.25 127.347656 "/>
<path fill="none" stroke-width="0.850394" stroke-linecap="butt" stroke-linejoin="miter" stroke="rgb(50.195312%, 50.195312%, 50.195312%)" stroke-opacity="1" stroke-miterlimit="4" d="M 167.976562 114.945312 L 166.25 114.945312 "/>
<path fill="none" stroke-width="0.850394" stroke-linecap="butt" stroke-linejoin="miter" stroke="rgb(50.195312%, 50.195312%, 50.195312%)" stroke-opacity="1" stroke-miterlimit="4" d="M 167.976562 40.539062 L 166.25 40.539062 "/>
<path fill="none" stroke-width="0.850394" stroke-linecap="butt" stroke-linejoin="miter" stroke="rgb(50.195312%, 50.195312%, 50.195312%)" stroke-opacity="1" stroke-miterlimit="4" d="M 167.976562 65.339844 L 166.25 65.339844 "/>
<path fill="none" stroke-width="0.850394" stroke-linecap="butt" stroke-linejoin="miter" stroke="rgb(50.195312%, 50.195312%, 50.195312%)" stroke-opacity="1" stroke-miterlimit="4" d="M 167.984375 139.636719 L 167.984375 142.167969 "/>
<path fill="none" stroke-width="0.850394" stroke-linecap="butt" stroke-linejoin="miter" stroke="rgb(50.195312%, 50.195312%, 50.195312%)" stroke-opacity="1" stroke-miterlimit="4" d="M 230.6875 139.636719 L 230.6875 142.167969 "/>
<path fill="none" stroke-width="0.850394" stroke-linecap="butt" stroke-linejoin="miter" stroke="rgb(50.195312%, 50.195312%, 50.195312%)" stroke-opacity="1" stroke-miterlimit="4" d="M 293.261719 139.636719 L 293.261719 142.167969 "/>
<path fill="none" stroke-width="0.850394" stroke-linecap="butt" stroke-linejoin="miter" stroke="rgb(50.195312%, 50.195312%, 50.195312%)" stroke-opacity="1" stroke-miterlimit="4" d="M -139.636719 181.085938 L -141.363281 181.085938 " transform="matrix(0, -1, 1, 0, 0, 0)"/>
<path fill="none" stroke-width="0.850394" stroke-linecap="butt" stroke-linejoin="miter" stroke="rgb(50.195312%, 50.195312%, 50.195312%)" stroke-opacity="1" stroke-miterlimit="4" d="M -139.636719 205.886719 L -141.363281 205.886719 " transform="matrix(0, -1, 1, 0, 0, 0)"/>
<path fill="none" stroke-width="0.850394" stroke-linecap="butt" stroke-linejoin="miter" stroke="rgb(50.195312%, 50.195312%, 50.195312%)" stroke-opacity="1" stroke-miterlimit="4" d="M -139.636719 243.089844 L -141.363281 243.089844 " transform="matrix(0, -1, 1, 0, 0, 0)"/>
<path fill="none" stroke-width="0.850394" stroke-linecap="butt" stroke-linejoin="miter" stroke="rgb(50.195312%, 50.195312%, 50.195312%)" stroke-opacity="1" stroke-miterlimit="4" d="M -139.636719 255.492188 L -141.363281 255.492188 " transform="matrix(0, -1, 1, 0, 0, 0)"/>
<path fill="none" stroke-width="0.850394" stroke-linecap="butt" stroke-linejoin="miter" stroke="rgb(50.195312%, 50.195312%, 50.195312%)" stroke-opacity="1" stroke-miterlimit="4" d="M -139.636719 280.292969 L -141.363281 280.292969 " transform="matrix(0, -1, 1, 0, 0, 0)"/>
<path fill="none" stroke-width="0.850394" stroke-linecap="butt" stroke-linejoin="miter" stroke="rgb(50.195312%, 50.195312%, 50.195312%)" stroke-opacity="1" stroke-miterlimit="4" d="M -139.636719 267.890625 L -141.363281 267.890625 " transform="matrix(0, -1, 1, 0, 0, 0)"/>
<path fill="none" stroke-width="0.850394" stroke-linecap="butt" stroke-linejoin="miter" stroke="rgb(50.195312%, 50.195312%, 50.195312%)" stroke-opacity="1" stroke-miterlimit="4" d="M -139.636719 193.484375 L -141.363281 193.484375 " transform="matrix(0, -1, 1, 0, 0, 0)"/>
<path fill="none" stroke-width="0.850394" stroke-linecap="butt" stroke-linejoin="miter" stroke="rgb(50.195312%, 50.195312%, 50.195312%)" stroke-opacity="1" stroke-miterlimit="4" d="M -139.636719 218.289062 L -141.363281 218.289062 " transform="matrix(0, -1, 1, 0, 0, 0)"/>
<path fill="none" stroke-width="0.850394" stroke-linecap="butt" stroke-linejoin="miter" stroke="rgb(50.195312%, 50.195312%, 50.195312%)" stroke-opacity="1" stroke-miterlimit="4" d="M 304.386719 139.636719 L 304.386719 142.167969 "/>
<path fill="none" stroke-width="0.850394" stroke-linecap="butt" stroke-linejoin="miter" stroke="rgb(50.195312%, 50.195312%, 50.195312%)" stroke-opacity="1" stroke-miterlimit="4" d="M 367.089844 139.636719 L 367.089844 142.167969 "/>
<path fill="none" stroke-width="0.850394" stroke-linecap="butt" stroke-linejoin="miter" stroke="rgb(50.195312%, 50.195312%, 50.195312%)" stroke-opacity="1" stroke-miterlimit="4" d="M 429.746094 139.636719 L 429.746094 142.167969 "/>
<path fill="none" stroke-width="0.850394" stroke-linecap="butt" stroke-linejoin="miter" stroke="rgb(50.195312%, 50.195312%, 50.195312%)" stroke-opacity="1" stroke-miterlimit="4" d="M -139.636719 317.484375 L -141.363281 317.484375 " transform="matrix(0, -1, 1, 0, 0, 0)"/>
<path fill="none" stroke-width="0.850394" stroke-linecap="butt" stroke-linejoin="miter" stroke="rgb(50.195312%, 50.195312%, 50.195312%)" stroke-opacity="1" stroke-miterlimit="4" d="M -139.636719 342.289062 L -141.363281 342.289062 " transform="matrix(0, -1, 1, 0, 0, 0)"/>
<path fill="none" stroke-width="0.850394" stroke-linecap="butt" stroke-linejoin="miter" stroke="rgb(50.195312%, 50.195312%, 50.195312%)" stroke-opacity="1" stroke-miterlimit="4" d="M -139.636719 379.492188 L -141.363281 379.492188 " transform="matrix(0, -1, 1, 0, 0, 0)"/>
<path fill="none" stroke-width="0.850394" stroke-linecap="butt" stroke-linejoin="miter" stroke="rgb(50.195312%, 50.195312%, 50.195312%)" stroke-opacity="1" stroke-miterlimit="4" d="M -139.636719 391.890625 L -141.363281 391.890625 " transform="matrix(0, -1, 1, 0, 0, 0)"/>
<path fill="none" stroke-width="0.850394" stroke-linecap="butt" stroke-linejoin="miter" stroke="rgb(50.195312%, 50.195312%, 50.195312%)" stroke-opacity="1" stroke-miterlimit="4" d="M -139.636719 416.695312 L -141.363281 416.695312 " transform="matrix(0, -1, 1, 0, 0, 0)"/>
<path fill="none" stroke-width="0.850394" stroke-linecap="butt" stroke-linejoin="miter" stroke="rgb(50.195312%, 50.195312%, 50.195312%)" stroke-opacity="1" stroke-miterlimit="4" d="M -139.636719 404.292969 L -141.363281 404.292969 " transform="matrix(0, -1, 1, 0, 0, 0)"/>
<path fill="none" stroke-width="0.850394" stroke-linecap="butt" stroke-linejoin="miter" stroke="rgb(50.195312%, 50.195312%, 50.195312%)" stroke-opacity="1" stroke-miterlimit="4" d="M -139.636719 329.886719 L -141.363281 329.886719 " transform="matrix(0, -1, 1, 0, 0, 0)"/>
<path fill="none" stroke-width="0.850394" stroke-linecap="butt" stroke-linejoin="miter" stroke="rgb(50.195312%, 50.195312%, 50.195312%)" stroke-opacity="1" stroke-miterlimit="4" d="M -139.636719 354.6875 L -141.363281 354.6875 " transform="matrix(0, -1, 1, 0, 0, 0)"/>
<path fill="none" stroke-width="0.850394" stroke-linecap="butt" stroke-linejoin="miter" stroke="rgb(50.195312%, 50.195312%, 50.195312%)" stroke-opacity="1" stroke-miterlimit="4" d="M 17.867188 139.636719 L 17.867188 142.167969 "/>
<path fill="none" stroke-width="0.850394" stroke-linecap="butt" stroke-linejoin="miter" stroke="rgb(50.195312%, 50.195312%, 50.195312%)" stroke-opacity="1" stroke-miterlimit="4" d="M 80.566406 139.636719 L 80.566406 142.167969 "/>
<path fill="none" stroke-width="0.850394" stroke-linecap="butt" stroke-linejoin="miter" stroke="rgb(50.195312%, 50.195312%, 50.195312%)" stroke-opacity="1" stroke-miterlimit="4" d="M 143.222656 139.636719 L 143.222656 142.167969 "/>
<path fill="none" stroke-width="0.850394" stroke-linecap="butt" stroke-linejoin="miter" stroke="rgb(50.195312%, 50.195312%, 50.195312%)" stroke-opacity="1" stroke-miterlimit="4" d="M 17.976562 15.738281 L 15.445312 15.738281 "/>
<path fill="none" stroke-width="0.850394" stroke-linecap="butt" stroke-linejoin="miter" stroke="rgb(50.195312%, 50.195312%, 50.195312%)" stroke-opacity="1" stroke-miterlimit="4" d="M 17.976562 77.742188 L 15.445312 77.742188 "/>
<path fill="none" stroke-width="0.850394" stroke-linecap="butt" stroke-linejoin="miter" stroke="rgb(50.195312%, 50.195312%, 50.195312%)" stroke-opacity="1" stroke-miterlimit="4" d="M 17.90625 139.746094 L 15.375 139.746094 "/>
<path fill="none" stroke-width="0.850394" stroke-linecap="butt" stroke-linejoin="miter" stroke="rgb(50.195312%, 50.195312%, 50.195312%)" stroke-opacity="1" stroke-miterlimit="4" d="M 17.976562 28.136719 L 16.25 28.136719 "/>
<path fill="none" stroke-width="0.850394" stroke-linecap="butt" stroke-linejoin="miter" stroke="rgb(50.195312%, 50.195312%, 50.195312%)" stroke-opacity="1" stroke-miterlimit="4" d="M 17.976562 52.941406 L 16.25 52.941406 "/>
<path fill="none" stroke-width="0.850394" stroke-linecap="butt" stroke-linejoin="miter" stroke="rgb(50.195312%, 50.195312%, 50.195312%)" stroke-opacity="1" stroke-miterlimit="4" d="M 17.976562 90.144531 L 16.25 90.144531 "/>
<path fill="none" stroke-width="0.850394" stroke-linecap="butt" stroke-linejoin="miter" stroke="rgb(50.195312%, 50.195312%, 50.195312%)" stroke-opacity="1" stroke-miterlimit="4" d="M 17.976562 102.542969 L 16.25 102.542969 "/>
<path fill="none" stroke-width="0.850394" stroke-linecap="butt" stroke-linejoin="miter" stroke="rgb(50.195312%, 50.195312%, 50.195312%)" stroke-opacity="1" stroke-miterlimit="4" d="M 17.976562 127.347656 L 16.25 127.347656 "/>
<path fill="none" stroke-width="0.850394" stroke-linecap="butt" stroke-linejoin="miter" stroke="rgb(50.195312%, 50.195312%, 50.195312%)" stroke-opacity="1" stroke-miterlimit="4" d="M 17.976562 114.945312 L 16.25 114.945312 "/>
<path fill="none" stroke-width="0.850394" stroke-linecap="butt" stroke-linejoin="miter" stroke="rgb(50.195312%, 50.195312%, 50.195312%)" stroke-opacity="1" stroke-miterlimit="4" d="M 17.976562 40.539062 L 16.25 40.539062 "/>
<path fill="none" stroke-width="0.850394" stroke-linecap="butt" stroke-linejoin="miter" stroke="rgb(50.195312%, 50.195312%, 50.195312%)" stroke-opacity="1" stroke-miterlimit="4" d="M 17.976562 65.339844 L 16.25 65.339844 "/>
<path fill="none" stroke-width="0.850394" stroke-linecap="butt" stroke-linejoin="round" stroke="rgb(1.176453%, 0%, 0%)" stroke-opacity="1" stroke-miterlimit="4" d="M 304.433594 15.773438 L 429.699219 15.773438 L 429.699219 139.726562 L 304.433594 139.726562 Z M 304.433594 15.773438 "/>
<path fill-rule="nonzero" fill="rgb(81.959534%, 51.371765%, 38.430786%)" fill-opacity="1" stroke-width="0.283465" stroke-linecap="butt" stroke-linejoin="round" stroke="rgb(46.665955%, 23.529053%, 13.725281%)" stroke-opacity="1" stroke-miterlimit="4" d="M 24.808594 56.050781 C 24.808594 57.660156 23.503906 58.96875 21.894531 58.96875 C 20.28125 58.96875 18.976562 57.660156 18.976562 56.050781 C 18.976562 54.441406 20.28125 53.132812 21.894531 53.132812 C 23.503906 53.132812 24.808594 54.441406 24.808594 56.050781 Z M 24.808594 56.050781 "/>
<path fill-rule="nonzero" fill="rgb(81.959534%, 51.371765%, 38.430786%)" fill-opacity="1" stroke-width="0.283465" stroke-linecap="butt" stroke-linejoin="round" stroke="rgb(46.665955%, 23.529053%, 13.725281%)" stroke-opacity="1" stroke-miterlimit="4" d="M 28.402344 65.402344 C 28.402344 67.011719 27.097656 68.320312 25.488281 68.320312 C 23.875 68.320312 22.570312 67.011719 22.570312 65.402344 C 22.570312 63.792969 23.875 62.484375 25.488281 62.484375 C 27.097656 62.484375 28.402344 63.792969 28.402344 65.402344 Z M 28.402344 65.402344 "/>
<path fill-rule="nonzero" fill="rgb(81.959534%, 51.371765%, 38.430786%)" fill-opacity="1" stroke-width="0.283465" stroke-linecap="butt" stroke-linejoin="round" stroke="rgb(46.665955%, 23.529053%, 13.725281%)" stroke-opacity="1" stroke-miterlimit="4" d="M 33.761719 60.847656 C 33.761719 62.460938 32.453125 63.765625 30.84375 63.765625 C 29.234375 63.765625 27.925781 62.460938 27.925781 60.847656 C 27.925781 59.238281 29.234375 57.933594 30.84375 57.933594 C 32.453125 57.933594 33.761719 59.238281 33.761719 60.847656 Z M 33.761719 60.847656 "/>
<path fill-rule="nonzero" fill="rgb(81.959534%, 51.371765%, 38.430786%)" fill-opacity="1" stroke-width="0.283465" stroke-linecap="butt" stroke-linejoin="round" stroke="rgb(46.665955%, 23.529053%, 13.725281%)" stroke-opacity="1" stroke-miterlimit="4" d="M 42.0625 74.777344 C 42.0625 76.386719 40.757812 77.695312 39.148438 77.695312 C 37.535156 77.695312 36.230469 76.386719 36.230469 74.777344 C 36.230469 73.167969 37.535156 71.859375 39.148438 71.859375 C 40.757812 71.859375 42.0625 73.167969 42.0625 74.777344 Z M 42.0625 74.777344 "/>
<path fill-rule="nonzero" fill="rgb(81.959534%, 51.371765%, 38.430786%)" fill-opacity="1" stroke-width="0.283465" stroke-linecap="butt" stroke-linejoin="round" stroke="rgb(46.665955%, 23.529053%, 13.725281%)" stroke-opacity="1" stroke-miterlimit="4" d="M 62.140625 66.074219 C 62.140625 67.75 60.839844 69.109375 59.234375 69.109375 C 57.632812 69.109375 56.332031 67.75 56.332031 66.074219 C 56.332031 64.394531 57.632812 63.035156 59.234375 63.035156 C 60.839844 63.035156 62.140625 64.394531 62.140625 66.074219 Z M 62.140625 66.074219 "/>
<path fill-rule="nonzero" fill="rgb(81.959534%, 51.371765%, 38.430786%)" fill-opacity="1" stroke-width="0.283465" stroke-linecap="butt" stroke-linejoin="round" stroke="rgb(46.665955%, 23.529053%, 13.725281%)" stroke-opacity="1" stroke-miterlimit="4" d="M 59.742188 90.847656 C 59.742188 92.460938 58.4375 93.765625 56.824219 93.765625 C 55.214844 93.765625 53.910156 92.460938 53.910156 90.847656 C 53.910156 89.238281 55.214844 87.933594 56.824219 87.933594 C 58.4375 87.933594 59.742188 89.238281 59.742188 90.847656 Z M 59.742188 90.847656 "/>
<path fill-rule="nonzero" fill="rgb(81.959534%, 51.371765%, 38.430786%)" fill-opacity="1" stroke-width="0.283465" stroke-linecap="butt" stroke-linejoin="round" stroke="rgb(46.665955%, 23.529053%, 13.725281%)" stroke-opacity="1" stroke-miterlimit="4" d="M 56.261719 75.046875 C 56.261719 76.65625 54.953125 77.960938 53.34375 77.960938 C 51.734375 77.960938 50.425781 76.65625 50.425781 75.046875 C 50.425781 73.433594 51.734375 72.128906 53.34375 72.128906 C 54.953125 72.128906 56.261719 73.433594 56.261719 75.046875 Z M 56.261719 75.046875 "/>
<path fill-rule="nonzero" fill="rgb(81.959534%, 51.371765%, 38.430786%)" fill-opacity="1" stroke-width="0.283465" stroke-linecap="butt" stroke-linejoin="round" stroke="rgb(46.665955%, 23.529053%, 13.725281%)" stroke-opacity="1" stroke-miterlimit="4" d="M 70.722656 97.277344 C 70.722656 98.886719 69.417969 100.195312 67.808594 100.195312 C 66.195312 100.195312 64.890625 98.886719 64.890625 97.277344 C 64.890625 95.667969 66.195312 94.359375 67.808594 94.359375 C 69.417969 94.359375 70.722656 95.667969 70.722656 97.277344 Z M 70.722656 97.277344 "/>
<path fill-rule="nonzero" fill="rgb(81.959534%, 51.371765%, 38.430786%)" fill-opacity="1" stroke-width="0.283465" stroke-linecap="butt" stroke-linejoin="round" stroke="rgb(46.665955%, 23.529053%, 13.725281%)" stroke-opacity="1" stroke-miterlimit="4" d="M 79.027344 104.242188 C 79.027344 105.851562 77.722656 107.160156 76.113281 107.160156 C 74.5 107.160156 73.195312 105.851562 73.195312 104.242188 C 73.195312 102.632812 74.5 101.324219 76.113281 101.324219 C 77.722656 101.324219 79.027344 102.632812 79.027344 104.242188 Z M 79.027344 104.242188 "/>
<path fill-rule="nonzero" fill="rgb(81.959534%, 51.371765%, 38.430786%)" fill-opacity="1" stroke-width="0.283465" stroke-linecap="butt" stroke-linejoin="round" stroke="rgb(46.665955%, 23.529053%, 13.725281%)" stroke-opacity="1" stroke-miterlimit="4" d="M 95.636719 98.886719 C 95.636719 100.496094 94.328125 101.800781 92.71875 101.800781 C 91.109375 101.800781 89.800781 100.496094 89.800781 98.886719 C 89.800781 97.273438 91.109375 95.96875 92.71875 95.96875 C 94.328125 95.96875 95.636719 97.273438 95.636719 98.886719 Z M 95.636719 98.886719 "/>
<path fill-rule="nonzero" fill="rgb(81.959534%, 51.371765%, 38.430786%)" fill-opacity="1" stroke-width="0.283465" stroke-linecap="butt" stroke-linejoin="round" stroke="rgb(46.665955%, 23.529053%, 13.725281%)" stroke-opacity="1" stroke-miterlimit="4" d="M 94.296875 92.457031 C 94.296875 94.066406 92.988281 95.371094 91.378906 95.371094 C 89.769531 95.371094 88.460938 94.066406 88.460938 92.457031 C 88.460938 90.84375 89.769531 89.539062 91.378906 89.539062 C 92.988281 89.539062 94.296875 90.84375 94.296875 92.457031 Z M 94.296875 92.457031 "/>
<path fill-rule="nonzero" fill="rgb(81.959534%, 51.371765%, 38.430786%)" fill-opacity="1" stroke-width="0.283465" stroke-linecap="butt" stroke-linejoin="round" stroke="rgb(46.665955%, 23.529053%, 13.725281%)" stroke-opacity="1" stroke-miterlimit="4" d="M 105.011719 88.171875 C 105.011719 89.78125 103.703125 91.085938 102.09375 91.085938 C 100.484375 91.085938 99.175781 89.78125 99.175781 88.171875 C 99.175781 86.558594 100.484375 85.253906 102.09375 85.253906 C 103.703125 85.253906 105.011719 86.558594 105.011719 88.171875 Z M 105.011719 88.171875 "/>
<path fill-rule="nonzero" fill="rgb(81.959534%, 51.371765%, 38.430786%)" fill-opacity="1" stroke-width="0.283465" stroke-linecap="butt" stroke-linejoin="round" stroke="rgb(46.665955%, 23.529053%, 13.725281%)" stroke-opacity="1" stroke-miterlimit="4" d="M 120.8125 65.671875 C 120.8125 67.28125 119.507812 68.585938 117.898438 68.585938 C 116.285156 68.585938 114.980469 67.28125 114.980469 65.671875 C 114.980469 64.058594 116.285156 62.753906 117.898438 62.753906 C 119.507812 62.753906 120.8125 64.058594 120.8125 65.671875 Z M 120.8125 65.671875 "/>
<path fill-rule="nonzero" fill="rgb(81.959534%, 51.371765%, 38.430786%)" fill-opacity="1" stroke-width="0.283465" stroke-linecap="butt" stroke-linejoin="round" stroke="rgb(46.665955%, 23.529053%, 13.725281%)" stroke-opacity="1" stroke-miterlimit="4" d="M 125.902344 67.546875 C 125.902344 69.15625 124.597656 70.460938 122.988281 70.460938 C 121.375 70.460938 120.070312 69.15625 120.070312 67.546875 C 120.070312 65.933594 121.375 64.628906 122.988281 64.628906 C 124.597656 64.628906 125.902344 65.933594 125.902344 67.546875 Z M 125.902344 67.546875 "/>
<path fill-rule="nonzero" fill="rgb(81.959534%, 51.371765%, 38.430786%)" fill-opacity="1" stroke-width="0.283465" stroke-linecap="butt" stroke-linejoin="round" stroke="rgb(46.665955%, 23.529053%, 13.725281%)" stroke-opacity="1" stroke-miterlimit="4" d="M 141.117188 82.652344 C 141.117188 84.261719 139.8125 85.570312 138.199219 85.570312 C 136.589844 85.570312 135.285156 84.261719 135.285156 82.652344 C 135.285156 81.042969 136.589844 79.734375 138.199219 79.734375 C 139.8125 79.734375 141.117188 81.042969 141.117188 82.652344 Z M 141.117188 82.652344 "/>
<path fill-rule="nonzero" fill="rgb(81.959534%, 51.371765%, 38.430786%)" fill-opacity="1" stroke-width="0.283465" stroke-linecap="butt" stroke-linejoin="round" stroke="rgb(46.665955%, 23.529053%, 13.725281%)" stroke-opacity="1" stroke-miterlimit="4" d="M 138.222656 72.636719 C 138.222656 74.246094 136.917969 75.550781 135.308594 75.550781 C 133.695312 75.550781 132.390625 74.246094 132.390625 72.636719 C 132.390625 71.023438 133.695312 69.71875 135.308594 69.71875 C 136.917969 69.71875 138.222656 71.023438 138.222656 72.636719 Z M 138.222656 72.636719 "/>
<path fill-rule="nonzero" fill="rgb(81.959534%, 51.371765%, 38.430786%)" fill-opacity="1" stroke-width="0.283465" stroke-linecap="butt" stroke-linejoin="round" stroke="rgb(46.665955%, 23.529053%, 13.725281%)" stroke-opacity="1" stroke-miterlimit="4" d="M 129.386719 76.652344 C 129.386719 78.261719 128.078125 79.570312 126.46875 79.570312 C 124.859375 79.570312 123.550781 78.261719 123.550781 76.652344 C 123.550781 75.042969 124.859375 73.734375 126.46875 73.734375 C 128.078125 73.734375 129.386719 75.042969 129.386719 76.652344 Z M 129.386719 76.652344 "/>
<path fill-rule="nonzero" fill="rgb(81.959534%, 51.371765%, 38.430786%)" fill-opacity="1" stroke-width="0.283465" stroke-linecap="butt" stroke-linejoin="round" stroke="rgb(46.665955%, 23.529053%, 13.725281%)" stroke-opacity="1" stroke-miterlimit="4" d="M 116.796875 75.046875 C 116.796875 76.65625 115.488281 77.960938 113.878906 77.960938 C 112.269531 77.960938 110.960938 76.65625 110.960938 75.046875 C 110.960938 73.433594 112.269531 72.128906 113.878906 72.128906 C 115.488281 72.128906 116.796875 73.433594 116.796875 75.046875 Z M 116.796875 75.046875 "/>
<path fill-rule="nonzero" fill="rgb(81.959534%, 51.371765%, 38.430786%)" fill-opacity="1" stroke-width="0.283465" stroke-linecap="butt" stroke-linejoin="round" stroke="rgb(46.665955%, 23.529053%, 13.725281%)" stroke-opacity="1" stroke-miterlimit="4" d="M 107.6875 65.9375 C 107.6875 67.550781 106.382812 68.855469 104.773438 68.855469 C 103.160156 68.855469 101.855469 67.550781 101.855469 65.9375 C 101.855469 64.328125 103.160156 63.023438 104.773438 63.023438 C 106.382812 63.023438 107.6875 64.328125 107.6875 65.9375 Z M 107.6875 65.9375 "/>
<path fill-rule="nonzero" fill="rgb(81.959534%, 51.371765%, 38.430786%)" fill-opacity="1" stroke-width="0.283465" stroke-linecap="butt" stroke-linejoin="round" stroke="rgb(46.665955%, 23.529053%, 13.725281%)" stroke-opacity="1" stroke-miterlimit="4" d="M 99.386719 51.207031 C 99.386719 52.816406 98.078125 54.121094 96.46875 54.121094 C 94.859375 54.121094 93.550781 52.816406 93.550781 51.207031 C 93.550781 49.59375 94.859375 48.289062 96.46875 48.289062 C 98.078125 48.289062 99.386719 49.59375 99.386719 51.207031 Z M 99.386719 51.207031 "/>
<path fill-rule="nonzero" fill="rgb(81.959534%, 51.371765%, 38.430786%)" fill-opacity="1" stroke-width="0.283465" stroke-linecap="butt" stroke-linejoin="round" stroke="rgb(46.665955%, 23.529053%, 13.725281%)" stroke-opacity="1" stroke-miterlimit="4" d="M 86.527344 42.367188 C 86.527344 43.976562 85.222656 45.285156 83.613281 45.285156 C 82 45.285156 80.695312 43.976562 80.695312 42.367188 C 80.695312 40.757812 82 39.449219 83.613281 39.449219 C 85.222656 39.449219 86.527344 40.757812 86.527344 42.367188 Z M 86.527344 42.367188 "/>
<path fill-rule="nonzero" fill="rgb(81.959534%, 51.371765%, 38.430786%)" fill-opacity="1" stroke-width="0.283465" stroke-linecap="butt" stroke-linejoin="round" stroke="rgb(46.665955%, 23.529053%, 13.725281%)" stroke-opacity="1" stroke-miterlimit="4" d="M 70.992188 51.742188 C 70.992188 53.351562 69.6875 54.660156 68.074219 54.660156 C 66.464844 54.660156 65.160156 53.351562 65.160156 51.742188 C 65.160156 50.132812 66.464844 48.824219 68.074219 48.824219 C 69.6875 48.824219 70.992188 50.132812 70.992188 51.742188 Z M 70.992188 51.742188 "/>
<path fill-rule="nonzero" fill="rgb(81.959534%, 51.371765%, 38.430786%)" fill-opacity="1" stroke-width="0.283465" stroke-linecap="butt" stroke-linejoin="round" stroke="rgb(46.665955%, 23.529053%, 13.725281%)" stroke-opacity="1" stroke-miterlimit="4" d="M 75.546875 42.367188 C 75.546875 43.976562 74.238281 45.285156 72.628906 45.285156 C 71.019531 45.285156 69.710938 43.976562 69.710938 42.367188 C 69.710938 40.757812 71.019531 39.449219 72.628906 39.449219 C 74.238281 39.449219 75.546875 40.757812 75.546875 42.367188 Z M 75.546875 42.367188 "/>
<path fill-rule="nonzero" fill="rgb(81.959534%, 51.371765%, 38.430786%)" fill-opacity="1" stroke-width="0.283465" stroke-linecap="butt" stroke-linejoin="round" stroke="rgb(46.665955%, 23.529053%, 13.725281%)" stroke-opacity="1" stroke-miterlimit="4" d="M 39.652344 66.742188 C 39.652344 68.351562 38.347656 69.660156 36.738281 69.660156 C 35.125 69.660156 33.820312 68.351562 33.820312 66.742188 C 33.820312 65.132812 35.125 63.824219 36.738281 63.824219 C 38.347656 63.824219 39.652344 65.132812 39.652344 66.742188 Z M 39.652344 66.742188 "/>
<path fill-rule="nonzero" fill="rgb(81.959534%, 51.371765%, 38.430786%)" fill-opacity="1" stroke-width="0.283465" stroke-linecap="butt" stroke-linejoin="round" stroke="rgb(46.665955%, 23.529053%, 13.725281%)" stroke-opacity="1" stroke-miterlimit="4" d="M 59.742188 -57.636719 C 59.742188 -56.023438 58.4375 -54.71875 56.824219 -54.71875 C 55.214844 -54.71875 53.910156 -56.023438 53.910156 -57.636719 C 53.910156 -59.246094 55.214844 -60.550781 56.824219 -60.550781 C 58.4375 -60.550781 59.742188 -59.246094 59.742188 -57.636719 Z M 59.742188 -57.636719 " transform="matrix(1, 0, 0, -1, 0, 0)"/>
<path fill-rule="nonzero" fill="rgb(81.959534%, 51.371765%, 38.430786%)" fill-opacity="1" stroke-width="0.283465" stroke-linecap="butt" stroke-linejoin="round" stroke="rgb(46.665955%, 23.529053%, 13.725281%)" stroke-opacity="1" stroke-miterlimit="4" d="M 69.652344 48.527344 C 69.652344 50.136719 68.347656 51.445312 66.738281 51.445312 C 65.125 51.445312 63.820312 50.136719 63.820312 48.527344 C 63.820312 46.917969 65.125 45.609375 66.738281 45.609375 C 68.347656 45.609375 69.652344 46.917969 69.652344 48.527344 Z M 69.652344 48.527344 "/>
<path fill-rule="nonzero" fill="rgb(81.959534%, 51.371765%, 38.430786%)" fill-opacity="1" stroke-width="0.283465" stroke-linecap="butt" stroke-linejoin="round" stroke="rgb(46.665955%, 23.529053%, 13.725281%)" stroke-opacity="1" stroke-miterlimit="4" d="M 111.972656 52.546875 C 111.972656 54.15625 110.667969 55.460938 109.058594 55.460938 C 107.445312 55.460938 106.140625 54.15625 106.140625 52.546875 C 106.140625 50.933594 107.445312 49.628906 109.058594 49.628906 C 110.667969 49.628906 111.972656 50.933594 111.972656 52.546875 Z M 111.972656 52.546875 "/>
<path fill-rule="nonzero" fill="rgb(81.959534%, 51.371765%, 38.430786%)" fill-opacity="1" stroke-width="0.283465" stroke-linecap="butt" stroke-linejoin="round" stroke="rgb(46.665955%, 23.529053%, 13.725281%)" stroke-opacity="1" stroke-miterlimit="4" d="M 50.367188 80.9375 C 50.367188 82.550781 49.0625 83.855469 47.449219 83.855469 C 45.839844 83.855469 44.535156 82.550781 44.535156 80.9375 C 44.535156 79.328125 45.839844 78.023438 47.449219 78.023438 C 49.0625 78.023438 50.367188 79.328125 50.367188 80.9375 Z M 50.367188 80.9375 "/>
<path fill-rule="nonzero" fill="rgb(81.959534%, 51.371765%, 38.430786%)" fill-opacity="1" stroke-width="0.283465" stroke-linecap="butt" stroke-linejoin="round" stroke="rgb(46.665955%, 23.529053%, 13.725281%)" stroke-opacity="1" stroke-miterlimit="4" d="M 83.3125 51.472656 C 83.3125 53.085938 82.007812 54.390625 80.398438 54.390625 C 78.785156 54.390625 77.480469 53.085938 77.480469 51.472656 C 77.480469 49.863281 78.785156 48.558594 80.398438 48.558594 C 82.007812 48.558594 83.3125 49.863281 83.3125 51.472656 Z M 83.3125 51.472656 "/>
<path fill-rule="nonzero" fill="rgb(81.959534%, 51.371765%, 38.430786%)" fill-opacity="1" stroke-width="0.283465" stroke-linecap="butt" stroke-linejoin="round" stroke="rgb(46.665955%, 23.529053%, 13.725281%)" stroke-opacity="1" stroke-miterlimit="4" d="M 83.3125 95.9375 C 83.3125 97.550781 82.007812 98.855469 80.398438 98.855469 C 78.785156 98.855469 77.480469 97.550781 77.480469 95.9375 C 77.480469 94.328125 78.785156 93.023438 80.398438 93.023438 C 82.007812 93.023438 83.3125 94.328125 83.3125 95.9375 Z M 83.3125 95.9375 "/>
<path fill="none" stroke-width="0.850394" stroke-linecap="butt" stroke-linejoin="miter" stroke="rgb(50.195312%, 50.195312%, 50.195312%)" stroke-opacity="1" stroke-miterlimit="4" d="M -139.636719 30.964844 L -141.363281 30.964844 " transform="matrix(0, -1, 1, 0, 0, 0)"/>
<path fill="none" stroke-width="0.850394" stroke-linecap="butt" stroke-linejoin="miter" stroke="rgb(50.195312%, 50.195312%, 50.195312%)" stroke-opacity="1" stroke-miterlimit="4" d="M -139.636719 55.765625 L -141.363281 55.765625 " transform="matrix(0, -1, 1, 0, 0, 0)"/>
<path fill="none" stroke-width="0.850394" stroke-linecap="butt" stroke-linejoin="miter" stroke="rgb(50.195312%, 50.195312%, 50.195312%)" stroke-opacity="1" stroke-miterlimit="4" d="M -139.636719 92.96875 L -141.363281 92.96875 " transform="matrix(0, -1, 1, 0, 0, 0)"/>
<path fill="none" stroke-width="0.850394" stroke-linecap="butt" stroke-linejoin="miter" stroke="rgb(50.195312%, 50.195312%, 50.195312%)" stroke-opacity="1" stroke-miterlimit="4" d="M -139.636719 105.371094 L -141.363281 105.371094 " transform="matrix(0, -1, 1, 0, 0, 0)"/>
<path fill="none" stroke-width="0.850394" stroke-linecap="butt" stroke-linejoin="miter" stroke="rgb(50.195312%, 50.195312%, 50.195312%)" stroke-opacity="1" stroke-miterlimit="4" d="M -139.636719 130.171875 L -141.363281 130.171875 " transform="matrix(0, -1, 1, 0, 0, 0)"/>
<path fill="none" stroke-width="0.850394" stroke-linecap="butt" stroke-linejoin="miter" stroke="rgb(50.195312%, 50.195312%, 50.195312%)" stroke-opacity="1" stroke-miterlimit="4" d="M -139.636719 117.769531 L -141.363281 117.769531 " transform="matrix(0, -1, 1, 0, 0, 0)"/>
<path fill="none" stroke-width="0.850394" stroke-linecap="butt" stroke-linejoin="miter" stroke="rgb(50.195312%, 50.195312%, 50.195312%)" stroke-opacity="1" stroke-miterlimit="4" d="M -139.636719 43.363281 L -141.363281 43.363281 " transform="matrix(0, -1, 1, 0, 0, 0)"/>
<path fill="none" stroke-width="0.850394" stroke-linecap="butt" stroke-linejoin="miter" stroke="rgb(50.195312%, 50.195312%, 50.195312%)" stroke-opacity="1" stroke-miterlimit="4" d="M -139.636719 68.167969 L -141.363281 68.167969 " transform="matrix(0, -1, 1, 0, 0, 0)"/>
<path fill-rule="nonzero" fill="rgb(0%, 0%, 0%)" fill-opacity="1" d="M 155.863281 88.308594 L 155.863281 86.390625 C 155.863281 84.804688 154.699219 83.238281 153.453125 83.238281 C 152.570312 83.238281 151.746094 83.976562 151.746094 85.457031 L 151.746094 89.082031 C 151.746094 89.292969 151.746094 89.414062 151.957031 89.414062 C 152.097656 89.414062 152.097656 89.328125 152.097656 89.097656 C 152.097656 88.957031 152.113281 88.746094 152.113281 88.625 C 152.148438 88.429688 152.167969 88.378906 152.308594 88.378906 C 152.34375 88.378906 152.378906 88.378906 152.519531 88.414062 L 158.535156 89.925781 C 158.976562 90.03125 159.066406 90.046875 159.066406 90.945312 C 159.066406 91.121094 159.066406 91.246094 159.277344 91.246094 C 159.417969 91.246094 159.417969 91.121094 159.417969 91.085938 C 159.417969 90.769531 159.382812 89.976562 159.382812 89.660156 C 159.382812 89.414062 159.398438 89.167969 159.398438 88.941406 C 159.398438 88.695312 159.417969 88.449219 159.417969 88.21875 C 159.417969 88.128906 159.417969 87.988281 159.1875 87.988281 C 159.066406 87.988281 159.066406 88.09375 159.066406 88.308594 C 159.066406 88.710938 159.066406 89.027344 158.871094 89.027344 C 158.800781 89.027344 158.746094 89.011719 158.675781 88.992188 Z M 152.519531 87.496094 C 152.132812 87.390625 152.097656 87.375 152.097656 86.882812 L 152.097656 85.808594 C 152.097656 84.875 152.394531 84.277344 153.171875 84.277344 C 153.609375 84.277344 154.578125 84.507812 154.980469 84.945312 C 155.492188 85.507812 155.582031 86.175781 155.582031 86.671875 L 155.582031 88.253906 Z M 152.519531 87.496094 "/>
<path fill-rule="nonzero" fill="rgb(0%, 0%, 0%)" fill-opacity="1" d="M 158.746094 81.953125 C 158.925781 81.988281 159.1875 82.0625 159.242188 82.0625 C 159.433594 82.0625 159.539062 81.902344 159.539062 81.726562 C 159.539062 81.585938 159.453125 81.390625 159.222656 81.304688 C 159.1875 81.285156 157.65625 80.917969 157.445312 80.863281 C 157.078125 80.777344 156.300781 80.566406 155.984375 80.511719 C 155.84375 80.460938 155.316406 80.144531 155.070312 79.878906 C 155 79.789062 154.699219 79.457031 154.699219 78.980469 C 154.699219 78.683594 154.839844 78.523438 154.839844 78.507812 C 154.894531 78.839844 155.160156 79.085938 155.457031 79.085938 C 155.632812 79.085938 155.84375 78.964844 155.84375 78.664062 C 155.84375 78.367188 155.582031 78.046875 155.175781 78.046875 C 154.789062 78.046875 154.453125 78.402344 154.453125 78.980469 C 154.453125 79.703125 155 80.195312 155.316406 80.40625 C 154.804688 80.511719 154.453125 80.917969 154.453125 81.445312 C 154.453125 81.953125 154.894531 82.167969 155.089844 82.273438 C 155.476562 82.464844 156.144531 82.605469 156.179688 82.605469 C 156.300781 82.605469 156.300781 82.5 156.300781 82.484375 C 156.300781 82.359375 156.285156 82.359375 156.039062 82.289062 C 155.246094 82.097656 154.699219 81.867188 154.699219 81.460938 C 154.699219 81.285156 154.789062 81.128906 155.210938 81.128906 C 155.457031 81.128906 155.582031 81.164062 156.160156 81.304688 Z M 158.746094 81.953125 "/>
<path fill-rule="nonzero" fill="rgb(0%, 0%, 0%)" fill-opacity="1" d="M 162.109375 73.855469 C 162.074219 73.855469 162.054688 73.855469 161.863281 74.046875 C 160.453125 75.4375 158.324219 75.808594 156.601562 75.808594 C 154.648438 75.808594 152.695312 75.386719 151.304688 73.996094 C 151.164062 73.855469 151.144531 73.855469 151.109375 73.855469 C 151.023438 73.855469 150.988281 73.890625 150.988281 73.960938 C 150.988281 74.082031 151.761719 75.085938 153.1875 75.753906 C 154.417969 76.316406 155.667969 76.457031 156.601562 76.457031 C 157.480469 76.457031 158.835938 76.335938 160.121094 75.71875 C 161.492188 75.035156 162.230469 74.082031 162.230469 73.960938 C 162.230469 73.890625 162.195312 73.855469 162.109375 73.855469 Z M 162.109375 73.855469 "/>
<path fill-rule="nonzero" fill="rgb(0%, 0%, 0%)" fill-opacity="1" d="M 158.484375 71.707031 C 157.832031 71.109375 157.550781 70.777344 157.199219 70.371094 C 157.199219 70.371094 156.601562 69.683594 156.195312 69.28125 C 155.160156 68.207031 154.613281 67.960938 154.558594 67.960938 C 154.453125 67.960938 154.453125 68.066406 154.453125 68.085938 C 154.453125 68.171875 154.472656 68.191406 154.578125 68.261719 C 155.125 68.59375 155.300781 68.824219 155.300781 69.085938 C 155.300781 69.367188 155.125 69.492188 154.929688 69.667969 C 154.683594 69.878906 154.453125 70.074219 154.453125 70.441406 C 154.453125 71.285156 155.492188 71.796875 155.738281 71.796875 C 155.792969 71.796875 155.863281 71.761719 155.863281 71.671875 C 155.863281 71.566406 155.808594 71.550781 155.738281 71.515625 C 155.210938 71.304688 155.210938 70.652344 155.210938 70.566406 C 155.210938 70.335938 155.28125 70.125 155.371094 69.859375 C 155.546875 69.402344 155.546875 69.28125 155.546875 69 C 156.019531 69.402344 156.828125 70.335938 157.007812 70.546875 L 157.957031 71.566406 C 158.710938 72.324219 159.347656 72.730469 159.433594 72.730469 C 159.539062 72.730469 159.539062 72.605469 159.539062 72.589844 C 159.539062 72.5 159.523438 72.484375 159.398438 72.414062 C 158.996094 72.148438 158.695312 71.816406 158.695312 71.445312 C 158.695312 71.199219 158.800781 71.074219 159.117188 70.792969 C 159.363281 70.617188 159.539062 70.40625 159.539062 70.089844 C 159.539062 68.964844 158.113281 68.3125 157.816406 68.3125 C 157.761719 68.3125 157.691406 68.367188 157.691406 68.453125 C 157.691406 68.558594 157.761719 68.578125 157.851562 68.613281 C 158.570312 68.875 158.78125 69.597656 158.78125 69.96875 C 158.78125 70.179688 158.710938 70.390625 158.640625 70.617188 C 158.5 71.003906 158.449219 71.179688 158.449219 71.410156 C 158.449219 71.425781 158.449219 71.601562 158.484375 71.707031 Z M 158.484375 71.707031 "/>
<path fill-rule="nonzero" fill="rgb(0%, 0%, 0%)" fill-opacity="1" d="M 156.601562 64.257812 C 155.738281 64.257812 154.382812 64.378906 153.097656 64.996094 C 151.726562 65.664062 150.988281 66.632812 150.988281 66.738281 C 150.988281 66.808594 151.039062 66.859375 151.109375 66.859375 C 151.144531 66.859375 151.164062 66.859375 151.375 66.648438 C 152.484375 65.539062 154.261719 64.90625 156.601562 64.90625 C 158.535156 64.90625 160.507812 65.3125 161.914062 66.703125 C 162.054688 66.859375 162.074219 66.859375 162.109375 66.859375 C 162.179688 66.859375 162.230469 66.808594 162.230469 66.738281 C 162.230469 66.632812 161.457031 65.609375 160.03125 64.960938 C 158.800781 64.378906 157.550781 64.257812 156.601562 64.257812 Z M 156.601562 64.257812 "/>
<path fill-rule="nonzero" fill="rgb(0%, 0%, 0%)" fill-opacity="1" d="M 229.261719 154.945312 C 229.863281 154.292969 230.195312 154.011719 230.601562 153.660156 C 230.601562 153.660156 231.285156 153.0625 231.691406 152.65625 C 232.765625 151.617188 233.011719 151.074219 233.011719 151.019531 C 233.011719 150.914062 232.90625 150.914062 232.886719 150.914062 C 232.800781 150.914062 232.78125 150.933594 232.710938 151.039062 C 232.378906 151.582031 232.148438 151.757812 231.886719 151.757812 C 231.601562 151.757812 231.480469 151.582031 231.304688 151.390625 C 231.09375 151.144531 230.898438 150.914062 230.53125 150.914062 C 229.683594 150.914062 229.175781 151.953125 229.175781 152.199219 C 229.175781 152.25 229.210938 152.320312 229.296875 152.320312 C 229.402344 152.320312 229.421875 152.269531 229.457031 152.199219 C 229.667969 151.671875 230.320312 151.671875 230.40625 151.671875 C 230.636719 151.671875 230.847656 151.742188 231.109375 151.828125 C 231.566406 152.003906 231.691406 152.003906 231.972656 152.003906 C 231.566406 152.480469 230.636719 153.289062 230.425781 153.464844 L 229.402344 154.417969 C 228.648438 155.171875 228.242188 155.804688 228.242188 155.894531 C 228.242188 156 228.367188 156 228.382812 156 C 228.472656 156 228.488281 155.980469 228.558594 155.859375 C 228.824219 155.453125 229.15625 155.15625 229.527344 155.15625 C 229.773438 155.15625 229.898438 155.261719 230.179688 155.578125 C 230.355469 155.824219 230.566406 156 230.882812 156 C 232.007812 156 232.660156 154.574219 232.660156 154.277344 C 232.660156 154.222656 232.605469 154.152344 232.519531 154.152344 C 232.414062 154.152344 232.394531 154.222656 232.359375 154.3125 C 232.097656 155.03125 231.375 155.242188 231.003906 155.242188 C 230.792969 155.242188 230.582031 155.171875 230.355469 155.101562 C 229.96875 154.960938 229.792969 154.910156 229.5625 154.910156 C 229.542969 154.910156 229.367188 154.910156 229.261719 154.945312 Z M 229.261719 154.945312 "/>
<path fill-rule="nonzero" fill="rgb(0%, 0%, 0%)" fill-opacity="1" d="M 365.703125 154.945312 C 366.300781 154.292969 366.636719 154.011719 367.039062 153.660156 C 367.039062 153.660156 367.726562 153.0625 368.132812 152.65625 C 369.203125 151.617188 369.449219 151.074219 369.449219 151.019531 C 369.449219 150.914062 369.34375 150.914062 369.328125 150.914062 C 369.238281 150.914062 369.222656 150.933594 369.152344 151.039062 C 368.816406 151.582031 368.589844 151.757812 368.324219 151.757812 C 368.042969 151.757812 367.921875 151.582031 367.746094 151.390625 C 367.53125 151.144531 367.339844 150.914062 366.96875 150.914062 C 366.125 150.914062 365.613281 151.953125 365.613281 152.199219 C 365.613281 152.25 365.648438 152.320312 365.738281 152.320312 C 365.84375 152.320312 365.863281 152.269531 365.898438 152.199219 C 366.109375 151.671875 366.757812 151.671875 366.847656 151.671875 C 367.074219 151.671875 367.285156 151.742188 367.550781 151.828125 C 368.007812 152.003906 368.132812 152.003906 368.414062 152.003906 C 368.007812 152.480469 367.074219 153.289062 366.863281 153.464844 L 365.84375 154.417969 C 365.085938 155.171875 364.683594 155.804688 364.683594 155.894531 C 364.683594 156 364.804688 156 364.824219 156 C 364.910156 156 364.929688 155.980469 365 155.859375 C 365.261719 155.453125 365.597656 155.15625 365.96875 155.15625 C 366.214844 155.15625 366.335938 155.261719 366.617188 155.578125 C 366.792969 155.824219 367.003906 156 367.320312 156 C 368.449219 156 369.097656 154.574219 369.097656 154.277344 C 369.097656 154.222656 369.046875 154.152344 368.957031 154.152344 C 368.851562 154.152344 368.835938 154.222656 368.800781 154.3125 C 368.535156 155.03125 367.816406 155.242188 367.445312 155.242188 C 367.234375 155.242188 367.023438 155.171875 366.792969 155.101562 C 366.40625 154.960938 366.230469 154.910156 366.003906 154.910156 C 365.984375 154.910156 365.808594 154.910156 365.703125 154.945312 Z M 365.703125 154.945312 "/>
<g clip-path="url(#clip-4)">
<path fill="none" stroke-width="1.857709" stroke-linecap="square" stroke-linejoin="round" stroke="rgb(27.842712%, 39.99939%, 47.450256%)" stroke-opacity="1" stroke-dasharray="3.715418 3.715418" stroke-miterlimit="4" d="M 238.557027 139.109375 L 242.278501 138.941406 L 245.201328 138.710938 L 247.59727 138.425781 L 249.726996 138.070312 L 251.58496 137.65625 L 253.270993 137.179688 L 254.868287 136.625 L 256.371297 135.984375 L 257.791114 135.273438 L 259.122193 134.492188 L 260.453271 133.59375 L 261.690065 132.632812 L 262.932405 131.550781 L 264.174745 130.332031 L 265.417086 128.976562 L 266.659426 127.46875 L 267.89622 125.808594 L 269.227298 123.855469 L 270.558377 121.714844 L 271.978194 119.230469 L 273.392465 116.539062 L 274.901021 113.464844 L 276.587054 109.789062 L 278.445018 105.46875 L 280.663482 100.058594 L 287.9345 82.089844 L 289.526248 78.539062 L 290.857326 75.800781 L 292.099667 73.472656 L 293.253268 71.53125 L 294.229392 70.070312 L 295.199971 68.792969 L 296.087356 67.800781 L 296.886004 67.046875 L 297.684651 66.4375 L 298.394559 66.011719 L 299.104468 65.703125 L 299.814377 65.511719 L 300.430001 65.441406 L 301.051171 65.460938 L 301.672341 65.570312 L 302.382249 65.804688 L 303.092158 66.15625 L 303.802066 66.625 L 304.600714 67.285156 L 305.399361 68.082031 L 306.2812 69.125 L 307.168586 70.324219 L 308.144711 71.8125 L 309.209574 73.628906 L 310.363175 75.800781 L 311.688708 78.539062 L 313.197263 81.886719 L 314.972035 86.085938 L 317.451169 92.25 L 322.331791 104.40625 L 324.367232 109.1875 L 326.142003 113.089844 L 327.739298 116.367188 L 329.242307 119.230469 L 330.662125 121.714844 L 331.993203 123.855469 L 333.324282 125.808594 L 334.649815 127.582031 L 335.892155 129.078125 L 337.134495 130.425781 L 338.376835 131.632812 L 339.613629 132.707031 L 340.944707 133.71875 L 342.275786 134.605469 L 343.606865 135.367188 L 345.021136 136.066406 L 346.529692 136.691406 L 348.126986 137.234375 L 349.813019 137.699219 L 351.670983 138.105469 L 353.71197 138.4375 L 356.013627 138.710938 L 358.764523 138.929688 L 362.131043 139.089844 L 366.65671 139.199219 L 373.833443 139.257812 L 393.073076 139.269531 L 415.767967 139.269531 " transform="matrix(0.704316, 0, 0, 1, 0, 0)"/>
</g>
<g clip-path="url(#clip-5)">
<path fill="none" stroke-width="1.857709" stroke-linecap="square" stroke-linejoin="round" stroke="rgb(81.959534%, 51.371765%, 38.430786%)" stroke-opacity="1" stroke-dasharray="3.715418 3.715418" stroke-miterlimit="4" d="M 238.557027 139.269531 L 310.363175 139.222656 L 313.108525 139.113281 L 314.972035 138.945312 L 316.391852 138.71875 L 317.539908 138.441406 L 318.60477 138.074219 L 319.492156 137.667969 L 320.379542 137.148438 L 321.178189 136.558594 L 321.976836 135.832031 L 322.681199 135.050781 L 323.391107 134.132812 L 324.101016 133.046875 L 324.810925 131.785156 L 325.520833 130.324219 L 326.230742 128.644531 L 327.029389 126.472656 L 327.828036 123.984375 L 328.621137 121.15625 L 329.508523 117.605469 L 330.395909 113.617188 L 331.372033 108.730469 L 332.436896 102.839844 L 333.590498 95.878906 L 335.093507 86.105469 L 338.731789 62.21875 L 339.791106 56.066406 L 340.678492 51.539062 L 341.3884 48.394531 L 342.00957 46.042969 L 342.63074 44.097656 L 343.163172 42.777344 L 343.606865 41.929688 L 343.961819 41.421875 L 344.316773 41.066406 L 344.671728 40.871094 L 344.932397 40.828125 L 345.198613 40.871094 L 345.464829 41.003906 L 345.819783 41.316406 L 346.174737 41.789062 L 346.61843 42.589844 L 347.062123 43.621094 L 347.594555 45.160156 L 348.126986 47.003906 L 348.748156 49.519531 L 349.458065 52.832031 L 350.256712 57.042969 L 351.22729 62.761719 L 352.46963 70.675781 L 357.07849 100.757812 L 358.232091 107.3125 L 359.296954 112.765625 L 360.273079 117.226562 L 361.160465 120.820312 L 362.042304 123.984375 L 362.840951 126.472656 L 363.639599 128.644531 L 364.438246 130.515625 L 365.236893 132.117188 L 366.03554 133.472656 L 366.745449 134.496094 L 367.53855 135.457031 L 368.337197 136.253906 L 369.135844 136.902344 L 369.934491 137.425781 L 370.821877 137.886719 L 371.798002 138.273438 L 372.857318 138.582031 L 374.099658 138.832031 L 375.608214 139.023438 L 377.471724 139.152344 L 380.217074 139.234375 L 385.447104 139.269531 L 415.767967 139.269531 " transform="matrix(0.704316, 0, 0, 1, 0, 0)"/>
</g>
<path fill-rule="nonzero" fill="rgb(0%, 0%, 0%)" fill-opacity="1" d="M 63.105469 148.222656 L 63.949219 148.222656 L 63.949219 155.980469 L 63.105469 155.980469 Z M 63.105469 148.222656 "/>
<path fill-rule="nonzero" fill="rgb(0%, 0%, 0%)" fill-opacity="1" d="M 69.859375 155.980469 L 69.859375 152.921875 C 69.859375 151.722656 69.347656 150.792969 68.046875 150.792969 C 67.394531 150.792969 66.726562 151.039062 66.320312 151.601562 L 66.320312 150.914062 L 65.496094 150.914062 L 65.496094 155.980469 L 66.320312 155.980469 L 66.320312 153.113281 C 66.355469 152.144531 66.957031 151.53125 67.851562 151.53125 C 68.734375 151.53125 69.050781 152.058594 69.050781 152.957031 L 69.050781 155.980469 Z M 69.859375 155.980469 "/>
<g clip-path="url(#clip-6)">
<path fill-rule="nonzero" fill="rgb(0%, 0%, 0%)" fill-opacity="1" d="M 75.984375 153.449219 C 75.984375 151.96875 75 150.914062 73.503906 150.914062 L 71.339844 150.914062 L 71.339844 158.691406 L 72.183594 158.691406 L 72.183594 155.980469 L 73.433594 155.980469 C 75.070312 155.980469 75.984375 154.960938 75.984375 153.449219 Z M 75.175781 153.449219 C 75.175781 154.453125 74.542969 155.242188 73.433594 155.242188 L 72.183594 155.242188 L 72.183594 151.652344 L 73.433594 151.652344 C 74.523438 151.652344 75.175781 152.375 75.175781 153.449219 Z M 75.175781 153.449219 "/>
</g>
<path fill-rule="nonzero" fill="rgb(0%, 0%, 0%)" fill-opacity="1" d="M 81.605469 155.980469 L 81.605469 150.914062 L 80.742188 150.914062 L 80.742188 153.78125 C 80.742188 154.734375 80.265625 155.382812 79.246094 155.382812 C 78.347656 155.382812 78.03125 154.820312 78.03125 153.957031 L 78.03125 150.914062 L 77.222656 150.914062 L 77.222656 153.976562 C 77.222656 155.171875 77.785156 156.121094 79.050781 156.121094 C 79.703125 156.121094 80.371094 155.753906 80.742188 155.3125 L 80.742188 155.980469 Z M 81.605469 155.980469 "/>
<path fill-rule="nonzero" fill="rgb(0%, 0%, 0%)" fill-opacity="1" d="M 85.988281 155.980469 L 85.988281 155.261719 L 85.105469 155.261719 C 84.316406 155.261719 84.175781 155.066406 84.175781 154.328125 L 84.175781 151.582031 L 85.671875 151.582031 L 85.671875 150.914062 L 84.175781 150.914062 L 84.175781 149.472656 L 83.824219 149.472656 L 83.347656 150.914062 L 82.75 150.914062 L 82.75 151.582031 L 83.347656 151.582031 L 83.347656 154.328125 C 83.347656 155.59375 83.859375 155.980469 85.105469 155.980469 Z M 85.988281 155.980469 "/>
<path fill-rule="nonzero" fill="rgb(0%, 0%, 0%)" fill-opacity="1" d="M 88.117188 154.839844 L 87.09375 154.839844 L 87.09375 155.613281 C 87.164062 155.753906 87.183594 155.894531 87.183594 156.035156 C 87.183594 156.441406 86.972656 156.863281 86.671875 157.054688 C 87.253906 157.039062 88.097656 156.175781 88.117188 155.628906 Z M 88.117188 154.839844 "/>
<path fill-rule="nonzero" fill="rgb(0%, 0%, 0%)" fill-opacity="1" d="M 95.867188 152.585938 C 95.9375 152.304688 96.199219 151.265625 96.976562 151.265625 C 97.027344 151.265625 97.308594 151.265625 97.539062 151.40625 C 97.222656 151.476562 97.011719 151.742188 97.011719 152.023438 C 97.011719 152.199219 97.132812 152.410156 97.433594 152.410156 C 97.679688 152.410156 98.03125 152.214844 98.03125 151.757812 C 98.03125 151.179688 97.378906 151.019531 96.992188 151.019531 C 96.339844 151.019531 95.953125 151.617188 95.8125 151.863281 C 95.53125 151.125 94.933594 151.019531 94.601562 151.019531 C 93.4375 151.019531 92.789062 152.464844 92.789062 152.746094 C 92.789062 152.867188 92.910156 152.867188 92.929688 152.867188 C 93.015625 152.867188 93.050781 152.832031 93.070312 152.746094 C 93.457031 151.546875 94.195312 151.265625 94.582031 151.265625 C 94.792969 151.265625 95.179688 151.371094 95.179688 152.023438 C 95.179688 152.375 94.988281 153.113281 94.582031 154.699219 C 94.40625 155.382812 94 155.859375 93.507812 155.859375 C 93.4375 155.859375 93.191406 155.859375 92.945312 155.71875 C 93.226562 155.648438 93.472656 155.417969 93.472656 155.101562 C 93.472656 154.804688 93.226562 154.714844 93.070312 154.714844 C 92.71875 154.714844 92.453125 154.996094 92.453125 155.367188 C 92.453125 155.875 93 156.105469 93.492188 156.105469 C 94.246094 156.105469 94.652344 155.3125 94.671875 155.261719 C 94.8125 155.664062 95.214844 156.105469 95.882812 156.105469 C 97.046875 156.105469 97.679688 154.664062 97.679688 154.382812 C 97.679688 154.257812 97.589844 154.257812 97.554688 154.257812 C 97.449219 154.257812 97.433594 154.308594 97.398438 154.382812 C 97.027344 155.59375 96.269531 155.859375 95.917969 155.859375 C 95.480469 155.859375 95.304688 155.507812 95.304688 155.121094 C 95.304688 154.875 95.355469 154.628906 95.480469 154.132812 Z M 95.867188 152.585938 "/>
<path fill-rule="nonzero" fill="rgb(0%, 0%, 0%)" fill-opacity="1" d="M 4.046875 93.109375 C 1.917969 93.109375 0 94.09375 0 96.417969 C 0 98.6875 1.972656 99.691406 4.046875 99.691406 C 6.125 99.691406 8.058594 98.671875 8.058594 96.417969 C 8.058594 94.113281 6.175781 93.109375 4.046875 93.109375 Z M 4.046875 93.9375 C 5.613281 93.9375 7.300781 94.625 7.300781 96.417969 C 7.300781 98.179688 5.59375 98.863281 4.046875 98.863281 C 2.445312 98.863281 0.757812 98.214844 0.757812 96.417969 C 0.757812 94.589844 2.429688 93.9375 4.046875 93.9375 Z M 4.046875 93.9375 "/>
<path fill-rule="nonzero" fill="rgb(0%, 0%, 0%)" fill-opacity="1" d="M 7.902344 87.515625 L 2.832031 87.515625 L 2.832031 88.378906 L 5.699219 88.378906 C 6.652344 88.378906 7.300781 88.855469 7.300781 89.875 C 7.300781 90.773438 6.738281 91.089844 5.878906 91.089844 L 2.832031 91.089844 L 2.832031 91.898438 L 5.894531 91.898438 C 7.089844 91.898438 8.042969 91.335938 8.042969 90.070312 C 8.042969 89.417969 7.671875 88.75 7.230469 88.378906 L 7.902344 88.378906 Z M 7.902344 87.515625 "/>
<path fill-rule="nonzero" fill="rgb(0%, 0%, 0%)" fill-opacity="1" d="M 7.902344 83.132812 L 7.179688 83.132812 L 7.179688 84.015625 C 7.179688 84.804688 6.984375 84.945312 6.246094 84.945312 L 3.5 84.945312 L 3.5 83.449219 L 2.832031 83.449219 L 2.832031 84.945312 L 1.390625 84.945312 L 1.390625 85.296875 L 2.832031 85.773438 L 2.832031 86.371094 L 3.5 86.371094 L 3.5 85.773438 L 6.246094 85.773438 C 7.511719 85.773438 7.902344 85.261719 7.902344 84.015625 Z M 7.902344 83.132812 "/>
<path fill-rule="nonzero" fill="rgb(0%, 0%, 0%)" fill-opacity="1" d="M 5.367188 77.449219 C 3.890625 77.449219 2.832031 78.4375 2.832031 79.933594 L 2.832031 82.097656 L 10.609375 82.097656 L 10.609375 81.25 L 7.902344 81.25 L 7.902344 80.003906 C 7.902344 78.367188 6.878906 77.449219 5.367188 77.449219 Z M 5.367188 78.261719 C 6.371094 78.261719 7.160156 78.894531 7.160156 80.003906 L 7.160156 81.25 L 3.570312 81.25 L 3.570312 80.003906 C 3.570312 78.910156 4.292969 78.261719 5.367188 78.261719 Z M 5.367188 78.261719 "/>
<path fill-rule="nonzero" fill="rgb(0%, 0%, 0%)" fill-opacity="1" d="M 7.902344 71.832031 L 2.832031 71.832031 L 2.832031 72.695312 L 5.699219 72.695312 C 6.652344 72.695312 7.300781 73.171875 7.300781 74.191406 C 7.300781 75.089844 6.738281 75.40625 5.878906 75.40625 L 2.832031 75.40625 L 2.832031 76.214844 L 5.894531 76.214844 C 7.089844 76.214844 8.042969 75.652344 8.042969 74.382812 C 8.042969 73.734375 7.671875 73.066406 7.230469 72.695312 L 7.902344 72.695312 Z M 7.902344 71.832031 "/>
<path fill-rule="nonzero" fill="rgb(0%, 0%, 0%)" fill-opacity="1" d="M 7.902344 67.449219 L 7.179688 67.449219 L 7.179688 68.328125 C 7.179688 69.121094 6.984375 69.261719 6.246094 69.261719 L 3.5 69.261719 L 3.5 67.765625 L 2.832031 67.765625 L 2.832031 69.261719 L 1.390625 69.261719 L 1.390625 69.613281 L 2.832031 70.089844 L 2.832031 70.6875 L 3.5 70.6875 L 3.5 70.089844 L 6.246094 70.089844 C 7.511719 70.089844 7.902344 69.578125 7.902344 68.328125 Z M 7.902344 67.449219 "/>
<path fill-rule="nonzero" fill="rgb(0%, 0%, 0%)" fill-opacity="1" d="M 6.757812 65.320312 L 6.757812 66.339844 L 7.53125 66.339844 C 7.671875 66.269531 7.8125 66.253906 7.953125 66.253906 C 8.359375 66.253906 8.78125 66.464844 8.972656 66.765625 C 8.957031 66.183594 8.09375 65.339844 7.546875 65.320312 Z M 6.757812 65.320312 "/>
<path fill-rule="nonzero" fill="rgb(0%, 0%, 0%)" fill-opacity="1" d="M 3.625 55.863281 C 3.464844 55.808594 3.449219 55.808594 3.359375 55.808594 C 3.167969 55.808594 3.0625 55.96875 3.0625 56.144531 C 3.0625 56.25 3.132812 56.425781 3.289062 56.53125 C 3.359375 56.550781 3.695312 56.65625 3.90625 56.691406 C 4.1875 56.777344 4.503906 56.847656 4.804688 56.917969 L 6.828125 57.429688 C 6.984375 57.464844 7.777344 57.957031 7.777344 58.695312 C 7.777344 59.257812 7.285156 59.382812 6.863281 59.382812 C 6.351562 59.382812 5.648438 59.1875 4.664062 58.820312 C 4.207031 58.644531 4.082031 58.589844 3.855469 58.589844 C 3.359375 58.589844 2.9375 58.941406 2.9375 59.503906 C 2.9375 60.578125 4.574219 60.984375 4.664062 60.984375 C 4.785156 60.984375 4.785156 60.878906 4.785156 60.859375 C 4.785156 60.738281 4.75 60.738281 4.574219 60.683594 C 3.519531 60.367188 3.183594 59.925781 3.183594 59.539062 C 3.183594 59.453125 3.183594 59.257812 3.535156 59.257812 C 3.816406 59.257812 4.117188 59.382812 4.328125 59.453125 C 5.523438 59.910156 6.160156 60.105469 6.6875 60.105469 C 7.691406 60.105469 8.023438 59.398438 8.023438 58.730469 C 8.023438 58.292969 7.832031 57.921875 7.511719 57.605469 C 8.09375 57.746094 8.65625 57.886719 9.253906 58.328125 C 9.625 58.625 9.960938 59.046875 9.960938 59.558594 C 9.960938 59.714844 9.925781 60.226562 9.484375 60.421875 C 9.484375 60.246094 9.484375 60.085938 9.34375 59.945312 C 9.253906 59.820312 9.097656 59.714844 8.886719 59.714844 C 8.535156 59.714844 8.5 60.015625 8.5 60.121094 C 8.5 60.386719 8.675781 60.753906 9.21875 60.753906 C 9.785156 60.753906 10.207031 60.261719 10.207031 59.558594 C 10.207031 58.414062 9.183594 57.253906 7.917969 56.9375 Z M 3.625 55.863281 "/>
<path fill-rule="nonzero" fill="rgb(50.195312%, 50.195312%, 50.195312%)" fill-opacity="1" d="M 79.179688 145.539062 C 79.167969 144.375 78.90625 142.691406 77.433594 142.691406 C 75.957031 142.691406 75.710938 144.398438 75.710938 145.539062 C 75.710938 146.691406 75.972656 148.363281 77.433594 148.363281 C 78.894531 148.363281 79.179688 146.691406 79.179688 145.539062 Z M 78.609375 145.539062 C 78.609375 146.292969 78.546875 147.84375 77.433594 147.84375 C 76.316406 147.84375 76.28125 146.269531 76.28125 145.539062 C 76.28125 144.796875 76.304688 143.199219 77.433594 143.199219 C 78.546875 143.199219 78.609375 144.808594 78.609375 145.539062 Z M 78.609375 145.539062 "/>
<path fill-rule="nonzero" fill="rgb(50.195312%, 50.195312%, 50.195312%)" fill-opacity="1" d="M 80.191406 147.445312 L 80.949219 147.445312 L 80.949219 148.25 L 80.191406 148.25 Z M 80.191406 147.445312 "/>
<path fill-rule="nonzero" fill="rgb(50.195312%, 50.195312%, 50.195312%)" fill-opacity="1" d="M 85.425781 145.539062 C 85.414062 144.375 85.152344 142.691406 83.679688 142.691406 C 82.207031 142.691406 81.957031 144.398438 81.957031 145.539062 C 81.957031 146.691406 82.21875 148.363281 83.679688 148.363281 C 85.140625 148.363281 85.425781 146.691406 85.425781 145.539062 Z M 84.855469 145.539062 C 84.855469 146.292969 84.792969 147.84375 83.679688 147.84375 C 82.566406 147.84375 82.527344 146.269531 82.527344 145.539062 C 82.527344 144.796875 82.550781 143.199219 83.679688 143.199219 C 84.792969 143.199219 84.855469 144.808594 84.855469 145.539062 Z M 84.855469 145.539062 "/>
<path fill-rule="nonzero" fill="rgb(50.195312%, 50.195312%, 50.195312%)" fill-opacity="1" d="M 158.230469 139.808594 C 158.21875 138.644531 157.957031 136.960938 156.484375 136.960938 C 155.011719 136.960938 154.761719 138.667969 154.761719 139.808594 C 154.761719 140.960938 155.023438 142.632812 156.484375 142.632812 C 157.945312 142.632812 158.230469 140.960938 158.230469 139.808594 Z M 157.660156 139.808594 C 157.660156 140.5625 157.597656 142.113281 156.484375 142.113281 C 155.367188 142.113281 155.332031 140.539062 155.332031 139.808594 C 155.332031 139.066406 155.355469 137.46875 156.484375 137.46875 C 157.597656 137.46875 157.660156 139.078125 157.660156 139.808594 Z M 157.660156 139.808594 "/>
<path fill-rule="nonzero" fill="rgb(50.195312%, 50.195312%, 50.195312%)" fill-opacity="1" d="M 159.242188 141.714844 L 160 141.714844 L 160 142.519531 L 159.242188 142.519531 Z M 159.242188 141.714844 "/>
<path fill-rule="nonzero" fill="rgb(50.195312%, 50.195312%, 50.195312%)" fill-opacity="1" d="M 164.476562 139.808594 C 164.464844 138.644531 164.203125 136.960938 162.730469 136.960938 C 161.257812 136.960938 161.007812 138.667969 161.007812 139.808594 C 161.007812 140.960938 161.269531 142.632812 162.730469 142.632812 C 164.191406 142.632812 164.476562 140.960938 164.476562 139.808594 Z M 163.90625 139.808594 C 163.90625 140.5625 163.84375 142.113281 162.730469 142.113281 C 161.617188 142.113281 161.578125 140.539062 161.578125 139.808594 C 161.578125 139.066406 161.605469 137.46875 162.730469 137.46875 C 163.84375 137.46875 163.90625 139.078125 163.90625 139.808594 Z M 163.90625 139.808594 "/>
<path fill-rule="nonzero" fill="rgb(50.195312%, 50.195312%, 50.195312%)" fill-opacity="1" d="M 229.300781 145.539062 C 229.289062 144.375 229.027344 142.691406 227.554688 142.691406 C 226.078125 142.691406 225.832031 144.398438 225.832031 145.539062 C 225.832031 146.691406 226.089844 148.363281 227.554688 148.363281 C 229.015625 148.363281 229.300781 146.691406 229.300781 145.539062 Z M 228.730469 145.539062 C 228.730469 146.292969 228.667969 147.84375 227.554688 147.84375 C 226.4375 147.84375 226.402344 146.269531 226.402344 145.539062 C 226.402344 144.796875 226.425781 143.199219 227.554688 143.199219 C 228.667969 143.199219 228.730469 144.808594 228.730469 145.539062 Z M 228.730469 145.539062 "/>
<path fill-rule="nonzero" fill="rgb(50.195312%, 50.195312%, 50.195312%)" fill-opacity="1" d="M 230.3125 147.445312 L 231.066406 147.445312 L 231.066406 148.25 L 230.3125 148.25 Z M 230.3125 147.445312 "/>
<path fill-rule="nonzero" fill="rgb(50.195312%, 50.195312%, 50.195312%)" fill-opacity="1" d="M 235.546875 145.539062 C 235.535156 144.375 235.273438 142.691406 233.800781 142.691406 C 232.328125 142.691406 232.078125 144.398438 232.078125 145.539062 C 232.078125 146.691406 232.339844 148.363281 233.800781 148.363281 C 235.261719 148.363281 235.546875 146.691406 235.546875 145.539062 Z M 234.976562 145.539062 C 234.976562 146.292969 234.914062 147.84375 233.800781 147.84375 C 232.683594 147.84375 232.648438 146.269531 232.648438 145.539062 C 232.648438 144.796875 232.671875 143.199219 233.800781 143.199219 C 234.914062 143.199219 234.976562 144.808594 234.976562 145.539062 Z M 234.976562 145.539062 "/>
<path fill-rule="nonzero" fill="rgb(50.195312%, 50.195312%, 50.195312%)" fill-opacity="1" d="M 365.699219 145.539062 C 365.6875 144.375 365.429688 142.691406 363.953125 142.691406 C 362.480469 142.691406 362.230469 144.398438 362.230469 145.539062 C 362.230469 146.691406 362.492188 148.363281 363.953125 148.363281 C 365.414062 148.363281 365.699219 146.691406 365.699219 145.539062 Z M 365.128906 145.539062 C 365.128906 146.292969 365.070312 147.84375 363.953125 147.84375 C 362.839844 147.84375 362.800781 146.269531 362.800781 145.539062 C 362.800781 144.796875 362.828125 143.199219 363.953125 143.199219 C 365.070312 143.199219 365.128906 144.808594 365.128906 145.539062 Z M 365.128906 145.539062 "/>
<path fill-rule="nonzero" fill="rgb(50.195312%, 50.195312%, 50.195312%)" fill-opacity="1" d="M 366.714844 147.445312 L 367.46875 147.445312 L 367.46875 148.25 L 366.714844 148.25 Z M 366.714844 147.445312 "/>
<path fill-rule="nonzero" fill="rgb(50.195312%, 50.195312%, 50.195312%)" fill-opacity="1" d="M 371.949219 145.539062 C 371.933594 144.375 371.675781 142.691406 370.199219 142.691406 C 368.726562 142.691406 368.480469 144.398438 368.480469 145.539062 C 368.480469 146.691406 368.738281 148.363281 370.199219 148.363281 C 371.664062 148.363281 371.949219 146.691406 371.949219 145.539062 Z M 371.378906 145.539062 C 371.378906 146.292969 371.316406 147.84375 370.199219 147.84375 C 369.085938 147.84375 369.050781 146.269531 369.050781 145.539062 C 369.050781 144.796875 369.074219 143.199219 370.199219 143.199219 C 371.316406 143.199219 371.378906 144.808594 371.378906 145.539062 Z M 371.378906 145.539062 "/>
<path fill-rule="nonzero" fill="rgb(50.195312%, 50.195312%, 50.195312%)" fill-opacity="1" d="M 428.484375 146.554688 C 428.46875 145.4375 427.777344 144.707031 426.664062 144.707031 C 426.511719 144.71875 426.179688 144.757812 425.980469 144.832031 L 426.179688 143.394531 L 428.113281 143.394531 L 428.113281 142.824219 L 425.78125 142.824219 L 425.449219 145.523438 C 425.882812 145.3125 425.980469 145.265625 426.539062 145.265625 C 427.34375 145.265625 427.914062 145.710938 427.914062 146.554688 C 427.914062 147.421875 427.355469 147.839844 426.539062 147.839844 C 425.992188 147.839844 425.632812 147.730469 425.238281 147.480469 L 425.238281 148.164062 C 425.597656 148.300781 426.128906 148.398438 426.550781 148.398438 C 427.726562 148.398438 428.484375 147.753906 428.484375 146.554688 Z M 428.484375 146.554688 "/>
<path fill-rule="nonzero" fill="rgb(50.195312%, 50.195312%, 50.195312%)" fill-opacity="1" d="M 429.378906 147.480469 L 430.132812 147.480469 L 430.132812 148.285156 L 429.378906 148.285156 Z M 429.378906 147.480469 "/>
<g clip-path="url(#clip-7)">
<path fill-rule="nonzero" fill="rgb(50.195312%, 50.195312%, 50.195312%)" fill-opacity="1" d="M 434.613281 145.574219 C 434.601562 144.410156 434.339844 142.726562 432.867188 142.726562 C 431.390625 142.726562 431.144531 144.433594 431.144531 145.574219 C 431.144531 146.726562 431.40625 148.398438 432.867188 148.398438 C 434.328125 148.398438 434.613281 146.726562 434.613281 145.574219 Z M 434.042969 145.574219 C 434.042969 146.328125 433.980469 147.878906 432.867188 147.878906 C 431.75 147.878906 431.714844 146.304688 431.714844 145.574219 C 431.714844 144.832031 431.738281 143.234375 432.867188 143.234375 C 433.980469 143.234375 434.042969 144.84375 434.042969 145.574219 Z M 434.042969 145.574219 "/>
</g>
<path fill-rule="nonzero" fill="rgb(50.195312%, 50.195312%, 50.195312%)" fill-opacity="1" d="M 290.582031 146.554688 C 290.570312 145.4375 289.875 144.707031 288.761719 144.707031 C 288.613281 144.71875 288.277344 144.757812 288.082031 144.832031 L 288.277344 143.394531 L 290.210938 143.394531 L 290.210938 142.824219 L 287.882812 142.824219 L 287.546875 145.523438 C 287.980469 145.3125 288.082031 145.265625 288.636719 145.265625 C 289.441406 145.265625 290.011719 145.710938 290.011719 146.554688 C 290.011719 147.421875 289.453125 147.839844 288.636719 147.839844 C 288.09375 147.839844 287.734375 147.730469 287.335938 147.480469 L 287.335938 148.164062 C 287.695312 148.300781 288.230469 148.398438 288.648438 148.398438 C 289.828125 148.398438 290.582031 147.753906 290.582031 146.554688 Z M 290.582031 146.554688 "/>
<path fill-rule="nonzero" fill="rgb(50.195312%, 50.195312%, 50.195312%)" fill-opacity="1" d="M 291.476562 147.480469 L 292.234375 147.480469 L 292.234375 148.285156 L 291.476562 148.285156 Z M 291.476562 147.480469 "/>
<path fill-rule="nonzero" fill="rgb(50.195312%, 50.195312%, 50.195312%)" fill-opacity="1" d="M 296.710938 145.574219 C 296.699219 144.410156 296.441406 142.726562 294.964844 142.726562 C 293.492188 142.726562 293.242188 144.433594 293.242188 145.574219 C 293.242188 146.726562 293.503906 148.398438 294.964844 148.398438 C 296.425781 148.398438 296.710938 146.726562 296.710938 145.574219 Z M 296.140625 145.574219 C 296.140625 146.328125 296.082031 147.878906 294.964844 147.878906 C 293.851562 147.878906 293.8125 146.304688 293.8125 145.574219 C 293.8125 144.832031 293.839844 143.234375 294.964844 143.234375 C 296.082031 143.234375 296.140625 144.84375 296.140625 145.574219 Z M 296.140625 145.574219 "/>
<path fill-rule="nonzero" fill="rgb(50.195312%, 50.195312%, 50.195312%)" fill-opacity="1" d="M 8.152344 16.820312 C 8.140625 15.703125 7.445312 14.972656 6.332031 14.972656 C 6.183594 14.984375 5.847656 15.023438 5.648438 15.097656 L 5.847656 13.660156 L 7.78125 13.660156 L 7.78125 13.089844 L 5.453125 13.089844 L 5.117188 15.789062 C 5.550781 15.582031 5.648438 15.53125 6.207031 15.53125 C 7.011719 15.53125 7.582031 15.976562 7.582031 16.820312 C 7.582031 17.6875 7.023438 18.105469 6.207031 18.105469 C 5.664062 18.105469 5.304688 17.996094 4.90625 17.746094 L 4.90625 18.429688 C 5.265625 18.566406 5.800781 18.664062 6.21875 18.664062 C 7.398438 18.664062 8.152344 18.019531 8.152344 16.820312 Z M 8.152344 16.820312 "/>
<path fill-rule="nonzero" fill="rgb(50.195312%, 50.195312%, 50.195312%)" fill-opacity="1" d="M 9.046875 17.746094 L 9.804688 17.746094 L 9.804688 18.554688 L 9.046875 18.554688 Z M 9.046875 17.746094 "/>
<path fill-rule="nonzero" fill="rgb(50.195312%, 50.195312%, 50.195312%)" fill-opacity="1" d="M 14.28125 15.839844 C 14.269531 14.675781 14.007812 12.992188 12.535156 12.992188 C 11.0625 12.992188 10.8125 14.699219 10.8125 15.839844 C 10.8125 16.992188 11.074219 18.664062 12.535156 18.664062 C 13.996094 18.664062 14.28125 16.992188 14.28125 15.839844 Z M 13.710938 15.839844 C 13.710938 16.597656 13.652344 18.144531 12.535156 18.144531 C 11.421875 18.144531 11.382812 16.570312 11.382812 15.839844 C 11.382812 15.097656 11.410156 13.5 12.535156 13.5 C 13.652344 13.5 13.710938 15.109375 13.710938 15.839844 Z M 13.710938 15.839844 "/>
<path fill-rule="nonzero" fill="rgb(50.195312%, 50.195312%, 50.195312%)" fill-opacity="1" d="M 298.476562 146.242188 L 300.273438 146.242188 L 300.273438 146.761719 L 298.476562 146.761719 Z M 298.476562 146.242188 "/>
<path fill-rule="nonzero" fill="rgb(50.195312%, 50.195312%, 50.195312%)" fill-opacity="1" d="M 304.367188 146.554688 C 304.351562 145.4375 303.660156 144.707031 302.546875 144.707031 C 302.394531 144.71875 302.0625 144.757812 301.863281 144.832031 L 302.0625 143.394531 L 303.996094 143.394531 L 303.996094 142.824219 L 301.664062 142.824219 L 301.332031 145.523438 C 301.765625 145.3125 301.863281 145.265625 302.421875 145.265625 C 303.226562 145.265625 303.796875 145.710938 303.796875 146.554688 C 303.796875 147.421875 303.238281 147.839844 302.421875 147.839844 C 301.875 147.839844 301.515625 147.730469 301.121094 147.480469 L 301.121094 148.164062 C 301.480469 148.300781 302.011719 148.398438 302.433594 148.398438 C 303.609375 148.398438 304.367188 147.753906 304.367188 146.554688 Z M 304.367188 146.554688 "/>
<path fill-rule="nonzero" fill="rgb(50.195312%, 50.195312%, 50.195312%)" fill-opacity="1" d="M 305.261719 147.480469 L 306.015625 147.480469 L 306.015625 148.285156 L 305.261719 148.285156 Z M 305.261719 147.480469 "/>
<path fill-rule="nonzero" fill="rgb(50.195312%, 50.195312%, 50.195312%)" fill-opacity="1" d="M 310.496094 145.574219 C 310.484375 144.410156 310.222656 142.726562 308.75 142.726562 C 307.273438 142.726562 307.027344 144.433594 307.027344 145.574219 C 307.027344 146.726562 307.289062 148.398438 308.75 148.398438 C 310.210938 148.398438 310.496094 146.726562 310.496094 145.574219 Z M 309.925781 145.574219 C 309.925781 146.328125 309.863281 147.878906 308.75 147.878906 C 307.632812 147.878906 307.597656 146.304688 307.597656 145.574219 C 307.597656 144.832031 307.621094 143.234375 308.75 143.234375 C 309.863281 143.234375 309.925781 144.84375 309.925781 145.574219 Z M 309.925781 145.574219 "/>
<path fill-rule="nonzero" fill="rgb(50.195312%, 50.195312%, 50.195312%)" fill-opacity="1" d="M 162.078125 146.242188 L 163.871094 146.242188 L 163.871094 146.761719 L 162.078125 146.761719 Z M 162.078125 146.242188 "/>
<path fill-rule="nonzero" fill="rgb(50.195312%, 50.195312%, 50.195312%)" fill-opacity="1" d="M 167.964844 146.554688 C 167.953125 145.4375 167.257812 144.707031 166.144531 144.707031 C 165.996094 144.71875 165.660156 144.757812 165.464844 144.832031 L 165.660156 143.394531 L 167.59375 143.394531 L 167.59375 142.824219 L 165.265625 142.824219 L 164.929688 145.523438 C 165.363281 145.3125 165.464844 145.265625 166.019531 145.265625 C 166.824219 145.265625 167.394531 145.710938 167.394531 146.554688 C 167.394531 147.421875 166.835938 147.839844 166.019531 147.839844 C 165.476562 147.839844 165.117188 147.730469 164.71875 147.480469 L 164.71875 148.164062 C 165.078125 148.300781 165.613281 148.398438 166.03125 148.398438 C 167.210938 148.398438 167.964844 147.753906 167.964844 146.554688 Z M 167.964844 146.554688 "/>
<path fill-rule="nonzero" fill="rgb(50.195312%, 50.195312%, 50.195312%)" fill-opacity="1" d="M 168.859375 147.480469 L 169.617188 147.480469 L 169.617188 148.285156 L 168.859375 148.285156 Z M 168.859375 147.480469 "/>
<path fill-rule="nonzero" fill="rgb(50.195312%, 50.195312%, 50.195312%)" fill-opacity="1" d="M 174.09375 145.574219 C 174.082031 144.410156 173.824219 142.726562 172.347656 142.726562 C 170.875 142.726562 170.625 144.433594 170.625 145.574219 C 170.625 146.726562 170.886719 148.398438 172.347656 148.398438 C 173.808594 148.398438 174.09375 146.726562 174.09375 145.574219 Z M 173.523438 145.574219 C 173.523438 146.328125 173.464844 147.878906 172.347656 147.878906 C 171.234375 147.878906 171.195312 146.304688 171.195312 145.574219 C 171.195312 144.832031 171.222656 143.234375 172.347656 143.234375 C 173.464844 143.234375 173.523438 144.84375 173.523438 145.574219 Z M 173.523438 145.574219 "/>
<path fill-rule="nonzero" fill="rgb(50.195312%, 50.195312%, 50.195312%)" fill-opacity="1" d="M 2.25 140.511719 L 4.046875 140.511719 L 4.046875 141.03125 L 2.25 141.03125 Z M 2.25 140.511719 "/>
<path fill-rule="nonzero" fill="rgb(50.195312%, 50.195312%, 50.195312%)" fill-opacity="1" d="M 8.136719 140.820312 C 8.125 139.707031 7.429688 138.976562 6.316406 138.976562 C 6.167969 138.988281 5.832031 139.027344 5.636719 139.101562 L 5.832031 137.664062 L 7.765625 137.664062 L 7.765625 137.09375 L 5.4375 137.09375 L 5.101562 139.792969 C 5.535156 139.582031 5.636719 139.535156 6.191406 139.535156 C 7 139.535156 7.566406 139.980469 7.566406 140.820312 C 7.566406 141.6875 7.011719 142.109375 6.191406 142.109375 C 5.648438 142.109375 5.289062 142 4.890625 141.75 L 4.890625 142.433594 C 5.25 142.566406 5.785156 142.667969 6.207031 142.667969 C 7.382812 142.667969 8.136719 142.023438 8.136719 140.820312 Z M 8.136719 140.820312 "/>
<path fill-rule="nonzero" fill="rgb(50.195312%, 50.195312%, 50.195312%)" fill-opacity="1" d="M 9.035156 141.75 L 9.789062 141.75 L 9.789062 142.554688 L 9.035156 142.554688 Z M 9.035156 141.75 "/>
<path fill-rule="nonzero" fill="rgb(50.195312%, 50.195312%, 50.195312%)" fill-opacity="1" d="M 14.269531 139.84375 C 14.253906 138.679688 13.996094 136.996094 12.519531 136.996094 C 11.046875 136.996094 10.800781 138.703125 10.800781 139.84375 C 10.800781 140.996094 11.058594 142.667969 12.519531 142.667969 C 13.984375 142.667969 14.269531 140.996094 14.269531 139.84375 Z M 13.699219 139.84375 C 13.699219 140.597656 13.636719 142.148438 12.519531 142.148438 C 11.40625 142.148438 11.371094 140.574219 11.371094 139.84375 C 11.371094 139.101562 11.394531 137.503906 12.519531 137.503906 C 13.636719 137.503906 13.699219 139.113281 13.699219 139.84375 Z M 13.699219 139.84375 "/>
<path fill-rule="nonzero" fill="rgb(50.195312%, 50.195312%, 50.195312%)" fill-opacity="1" d="M 140.96875 148.257812 L 140.96875 142.796875 L 140.3125 142.796875 L 139.53125 143.429688 L 139.53125 144.046875 L 140.347656 143.378906 L 140.347656 148.257812 Z M 140.96875 148.257812 "/>
<path fill-rule="nonzero" fill="rgb(50.195312%, 50.195312%, 50.195312%)" fill-opacity="1" d="M 142.15625 147.453125 L 142.910156 147.453125 L 142.910156 148.257812 L 142.15625 148.257812 Z M 142.15625 147.453125 "/>
<path fill-rule="nonzero" fill="rgb(50.195312%, 50.195312%, 50.195312%)" fill-opacity="1" d="M 147.390625 145.546875 C 147.375 144.382812 147.117188 142.699219 145.640625 142.699219 C 144.167969 142.699219 143.921875 144.40625 143.921875 145.546875 C 143.921875 146.699219 144.179688 148.371094 145.640625 148.371094 C 147.105469 148.371094 147.390625 146.699219 147.390625 145.546875 Z M 146.820312 145.546875 C 146.820312 146.300781 146.757812 147.851562 145.640625 147.851562 C 144.527344 147.851562 144.492188 146.277344 144.492188 145.546875 C 144.492188 144.804688 144.515625 143.207031 145.640625 143.207031 C 146.757812 143.207031 146.820312 144.816406 146.820312 145.546875 Z M 146.820312 145.546875 "/>
<path fill-rule="nonzero" fill="rgb(50.195312%, 50.195312%, 50.195312%)" fill-opacity="1" d="M 12.191406 146.214844 L 13.988281 146.214844 L 13.988281 146.734375 L 12.191406 146.734375 Z M 12.191406 146.214844 "/>
<path fill-rule="nonzero" fill="rgb(50.195312%, 50.195312%, 50.195312%)" fill-opacity="1" d="M 16.210938 148.257812 L 16.210938 142.796875 L 15.554688 142.796875 L 14.773438 143.429688 L 14.773438 144.046875 L 15.589844 143.378906 L 15.589844 148.257812 Z M 16.210938 148.257812 "/>
<path fill-rule="nonzero" fill="rgb(50.195312%, 50.195312%, 50.195312%)" fill-opacity="1" d="M 17.398438 147.453125 L 18.152344 147.453125 L 18.152344 148.257812 L 17.398438 148.257812 Z M 17.398438 147.453125 "/>
<path fill-rule="nonzero" fill="rgb(50.195312%, 50.195312%, 50.195312%)" fill-opacity="1" d="M 22.632812 145.546875 C 22.617188 144.382812 22.359375 142.699219 20.886719 142.699219 C 19.410156 142.699219 19.164062 144.40625 19.164062 145.546875 C 19.164062 146.699219 19.421875 148.371094 20.886719 148.371094 C 22.347656 148.371094 22.632812 146.699219 22.632812 145.546875 Z M 22.0625 145.546875 C 22.0625 146.300781 22 147.851562 20.886719 147.851562 C 19.769531 147.851562 19.734375 146.277344 19.734375 145.546875 C 19.734375 144.804688 19.757812 143.207031 20.886719 143.207031 C 22 143.207031 22.0625 144.816406 22.0625 145.546875 Z M 22.0625 145.546875 "/>
<path fill-rule="nonzero" fill="rgb(50.195312%, 50.195312%, 50.195312%)" fill-opacity="1" d="M 158.6875 15.808594 C 158.675781 14.644531 158.417969 12.960938 156.941406 12.960938 C 155.46875 12.960938 155.21875 14.667969 155.21875 15.808594 C 155.21875 16.960938 155.480469 18.632812 156.941406 18.632812 C 158.402344 18.632812 158.6875 16.960938 158.6875 15.808594 Z M 158.117188 15.808594 C 158.117188 16.566406 158.058594 18.113281 156.941406 18.113281 C 155.828125 18.113281 155.789062 16.539062 155.789062 15.808594 C 155.789062 15.066406 155.816406 13.46875 156.941406 13.46875 C 158.058594 13.46875 158.117188 15.078125 158.117188 15.808594 Z M 158.117188 15.808594 "/>
<path fill-rule="nonzero" fill="rgb(50.195312%, 50.195312%, 50.195312%)" fill-opacity="1" d="M 159.703125 17.714844 L 160.457031 17.714844 L 160.457031 18.523438 L 159.703125 18.523438 Z M 159.703125 17.714844 "/>
<path fill-rule="nonzero" fill="rgb(50.195312%, 50.195312%, 50.195312%)" fill-opacity="1" d="M 164.476562 18.523438 L 164.476562 17.953125 L 162.023438 17.953125 L 163.894531 15.847656 C 164.203125 15.414062 164.441406 15.078125 164.441406 14.507812 C 164.441406 13.492188 163.695312 12.960938 162.753906 12.960938 C 162.222656 12.960938 161.777344 13.121094 161.332031 13.308594 L 161.332031 14.011719 C 161.777344 13.726562 162.222656 13.519531 162.769531 13.519531 C 163.386719 13.519531 163.871094 13.902344 163.871094 14.546875 C 163.871094 14.980469 163.523438 15.511719 163.238281 15.808594 C 163.152344 15.933594 161.429688 17.816406 161.292969 17.953125 L 161.292969 18.523438 Z M 164.476562 18.523438 "/>
<path fill="none" stroke-width="0.850394" stroke-linecap="butt" stroke-linejoin="round" stroke="rgb(1.176453%, 0%, 0%)" stroke-opacity="1" stroke-miterlimit="4" d="M 17.933594 15.773438 L 143.203125 15.773438 L 143.203125 139.726562 L 17.933594 139.726562 Z M 17.933594 15.773438 "/>
<path fill="none" stroke-width="0.850394" stroke-linecap="butt" stroke-linejoin="round" stroke="rgb(1.176453%, 0%, 0%)" stroke-opacity="1" stroke-miterlimit="4" d="M 167.992188 15.734375 L 293.261719 15.734375 L 293.261719 139.691406 L 167.992188 139.691406 Z M 167.992188 15.734375 "/>
<path fill-rule="nonzero" fill="rgb(0%, 0%, 0%)" fill-opacity="1" d="M 5.800781 5.839844 C 5.800781 4.550781 4.871094 3.660156 3.703125 3.660156 C 2.890625 3.660156 2.316406 3.859375 1.722656 4.195312 L 1.804688 5.027344 C 2.457031 4.570312 3.089844 4.414062 3.703125 4.414062 C 4.296875 4.414062 4.8125 4.910156 4.8125 5.839844 L 4.8125 6.394531 C 2.910156 6.414062 1.308594 6.945312 1.308594 8.054688 C 1.308594 8.589844 1.644531 9.621094 2.753906 9.621094 C 2.929688 9.621094 4.117188 9.597656 4.851562 9.027344 L 4.851562 9.480469 L 5.800781 9.480469 Z M 4.8125 7.816406 C 4.8125 8.054688 4.8125 8.371094 4.375 8.609375 C 4.019531 8.828125 3.523438 8.847656 3.386719 8.847656 C 2.792969 8.847656 2.21875 8.550781 2.21875 8.035156 C 2.21875 7.144531 4.257812 7.066406 4.8125 7.027344 Z M 4.8125 7.816406 "/>
<path fill-rule="nonzero" fill="rgb(0%, 0%, 0%)" fill-opacity="1" d="M 8.304688 12.648438 C 8.699219 12.25 9.550781 11.480469 10.125 9.9375 C 10.640625 8.589844 10.71875 7.242188 10.71875 6.3125 C 10.71875 2.238281 8.898438 0.574219 8.304688 0 L 7.53125 0 C 8.125 0.613281 9.726562 2.238281 9.726562 6.3125 C 9.726562 7.027344 9.6875 8.511719 9.175781 9.996094 C 8.660156 11.460938 7.945312 12.210938 7.53125 12.648438 Z M 8.304688 12.648438 "/>
<path fill-rule="nonzero" fill="rgb(0%, 0%, 0%)" fill-opacity="1" d="M 151.304688 0.710938 L 150.355469 0.710938 L 150.355469 9.480469 L 151.34375 9.480469 L 151.34375 8.90625 C 151.640625 9.183594 152.195312 9.621094 153.046875 9.621094 C 154.292969 9.621094 155.382812 8.351562 155.382812 6.671875 C 155.382812 5.105469 154.53125 3.742188 153.34375 3.742188 C 152.847656 3.742188 152.054688 3.859375 151.304688 4.472656 Z M 151.34375 5.246094 C 151.542969 4.949219 151.996094 4.511719 152.6875 4.511719 C 153.441406 4.511719 154.390625 5.046875 154.390625 6.671875 C 154.390625 8.3125 153.34375 8.847656 152.570312 8.847656 C 152.074219 8.847656 151.660156 8.628906 151.34375 8.035156 Z M 151.34375 5.246094 "/>
<path fill-rule="nonzero" fill="rgb(0%, 0%, 0%)" fill-opacity="1" d="M 157.332031 12.648438 C 157.726562 12.25 158.578125 11.480469 159.152344 9.9375 C 159.664062 8.589844 159.746094 7.242188 159.746094 6.3125 C 159.746094 2.238281 157.925781 0.574219 157.332031 0 L 156.558594 0 C 157.152344 0.613281 158.753906 2.238281 158.753906 6.3125 C 158.753906 7.027344 158.714844 8.511719 158.199219 9.996094 C 157.6875 11.460938 156.972656 12.210938 156.558594 12.648438 Z M 157.332031 12.648438 "/>
<path fill-rule="nonzero" fill="rgb(0%, 0%, 0%)" fill-opacity="1" d="M 298.53125 4.195312 C 297.78125 3.78125 297.34375 3.660156 296.574219 3.660156 C 294.832031 3.660156 293.800781 5.1875 293.800781 6.671875 C 293.800781 8.234375 294.949219 9.621094 296.53125 9.621094 C 297.207031 9.621094 297.898438 9.441406 298.589844 8.964844 L 298.511719 8.132812 C 297.859375 8.628906 297.1875 8.808594 296.53125 8.808594 C 295.484375 8.808594 294.792969 7.898438 294.792969 6.671875 C 294.792969 5.679688 295.246094 4.472656 296.59375 4.472656 C 297.246094 4.472656 297.679688 4.570312 298.375 5.027344 Z M 298.53125 4.195312 "/>
<path fill-rule="nonzero" fill="rgb(0%, 0%, 0%)" fill-opacity="1" d="M 300.4375 12.648438 C 300.835938 12.25 301.683594 11.480469 302.257812 9.9375 C 302.773438 8.589844 302.851562 7.242188 302.851562 6.3125 C 302.851562 2.238281 301.03125 0.574219 300.4375 0 L 299.667969 0 C 300.261719 0.613281 301.863281 2.238281 301.863281 6.3125 C 301.863281 7.027344 301.824219 8.511719 301.308594 9.996094 C 300.792969 11.460938 300.082031 12.210938 299.667969 12.648438 Z M 300.4375 12.648438 "/>
</svg>
