<?xml version="1.0" encoding="UTF-8"?>
<svg xmlns="http://www.w3.org/2000/svg" xmlns:xlink="http://www.w3.org/1999/xlink" width="184.161133pt" height="147.476151pt" viewBox="0 0 184.161133 147.476151">
<defs>
<clipPath id="clip-0">
<path clip-rule="nonzero" d="M 98 142 L 104 142 L 104 147.476562 L 98 147.476562 Z M 98 142 "/>
</clipPath>
<clipPath id="clip-1">
<path clip-rule="nonzero" d="M 21.472656 14 L 180.609375 14 L 180.609375 131 L 21.472656 131 Z M 21.472656 14 "/>
</clipPath>
<clipPath id="clip-2">
<path clip-rule="nonzero" d="M 21.472656 99 L 180.609375 99 L 180.609375 130 L 21.472656 130 Z M 21.472656 99 "/>
</clipPath>
<clipPath id="clip-3">
<path clip-rule="nonzero" d="M 21.472656 71 L 180.609375 71 L 180.609375 131 L 21.472656 131 Z M 21.472656 71 "/>
</clipPath>
</defs>
<path fill="none" stroke-width="0.751181" stroke-linecap="butt" stroke-linejoin="miter" stroke="rgb(25.881958%, 29.411316%, 30.979919%)" stroke-opacity="1" stroke-dasharray="0.751181 0.751181" stroke-miterlimit="4" d="M 135.441406 129.816406 L 135.441406 73.574219 "/>
<path fill="none" stroke-width="0.850394" stroke-linecap="butt" stroke-linejoin="miter" stroke="rgb(50.195312%, 50.195312%, 50.195312%)" stroke-opacity="1" stroke-miterlimit="4" d="M 21.730469 129.835938 L 21.730469 132.367188 "/>
<path fill="none" stroke-width="0.850394" stroke-linecap="butt" stroke-linejoin="miter" stroke="rgb(50.195312%, 50.195312%, 50.195312%)" stroke-opacity="1" stroke-miterlimit="4" d="M 101.171875 129.835938 L 101.171875 132.367188 "/>
<path fill="none" stroke-width="0.850394" stroke-linecap="butt" stroke-linejoin="miter" stroke="rgb(50.195312%, 50.195312%, 50.195312%)" stroke-opacity="1" stroke-miterlimit="4" d="M 180.613281 129.835938 L 180.613281 132.367188 "/>
<path fill="none" stroke-width="0.850394" stroke-linecap="butt" stroke-linejoin="miter" stroke="rgb(50.195312%, 50.195312%, 50.195312%)" stroke-opacity="1" stroke-miterlimit="4" d="M 48.210938 131.5625 L 48.210938 129.835938 "/>
<path fill="none" stroke-width="0.850394" stroke-linecap="butt" stroke-linejoin="miter" stroke="rgb(50.195312%, 50.195312%, 50.195312%)" stroke-opacity="1" stroke-miterlimit="4" d="M 74.691406 131.5625 L 74.691406 129.835938 "/>
<path fill="none" stroke-width="0.850394" stroke-linecap="butt" stroke-linejoin="miter" stroke="rgb(50.195312%, 50.195312%, 50.195312%)" stroke-opacity="1" stroke-miterlimit="4" d="M 127.652344 131.5625 L 127.652344 129.835938 "/>
<path fill="none" stroke-width="0.850394" stroke-linecap="butt" stroke-linejoin="miter" stroke="rgb(50.195312%, 50.195312%, 50.195312%)" stroke-opacity="1" stroke-miterlimit="4" d="M 154.132812 131.5625 L 154.132812 129.835938 "/>
<path fill="none" stroke-width="0.850394" stroke-linecap="butt" stroke-linejoin="miter" stroke="rgb(50.195312%, 50.195312%, 50.195312%)" stroke-opacity="1" stroke-miterlimit="4" d="M 21.851562 2.800781 L 19.320312 2.800781 "/>
<path fill="none" stroke-width="0.850394" stroke-linecap="butt" stroke-linejoin="miter" stroke="rgb(50.195312%, 50.195312%, 50.195312%)" stroke-opacity="1" stroke-miterlimit="4" d="M 21.851562 45.144531 L 19.320312 45.144531 "/>
<path fill="none" stroke-width="0.850394" stroke-linecap="butt" stroke-linejoin="miter" stroke="rgb(50.195312%, 50.195312%, 50.195312%)" stroke-opacity="1" stroke-miterlimit="4" d="M 21.734375 129.835938 L 19.203125 129.835938 "/>
<path fill="none" stroke-width="0.850394" stroke-linecap="butt" stroke-linejoin="miter" stroke="rgb(50.195312%, 50.195312%, 50.195312%)" stroke-opacity="1" stroke-miterlimit="4" d="M 21.851562 23.972656 L 20.125 23.972656 "/>
<path fill="none" stroke-width="0.850394" stroke-linecap="butt" stroke-linejoin="miter" stroke="rgb(50.195312%, 50.195312%, 50.195312%)" stroke-opacity="1" stroke-miterlimit="4" d="M 21.851562 66.316406 L 20.125 66.316406 "/>
<path fill="none" stroke-width="0.850394" stroke-linecap="butt" stroke-linejoin="miter" stroke="rgb(50.195312%, 50.195312%, 50.195312%)" stroke-opacity="1" stroke-miterlimit="4" d="M 21.851562 108.664062 L 20.125 108.664062 "/>
<g clip-path="url(#clip-0)">
<path fill-rule="nonzero" fill="rgb(0%, 0%, 0%)" fill-opacity="1" d="M 99.808594 146.421875 C 100.40625 145.769531 100.742188 145.488281 101.144531 145.136719 C 101.144531 145.136719 101.832031 144.539062 102.238281 144.132812 C 103.308594 143.09375 103.554688 142.550781 103.554688 142.496094 C 103.554688 142.390625 103.449219 142.390625 103.433594 142.390625 C 103.34375 142.390625 103.328125 142.410156 103.257812 142.515625 C 102.921875 143.058594 102.695312 143.234375 102.429688 143.234375 C 102.148438 143.234375 102.027344 143.058594 101.847656 142.867188 C 101.636719 142.621094 101.445312 142.390625 101.074219 142.390625 C 100.230469 142.390625 99.71875 143.429688 99.71875 143.675781 C 99.71875 143.726562 99.753906 143.796875 99.84375 143.796875 C 99.949219 143.796875 99.964844 143.746094 100 143.675781 C 100.214844 143.148438 100.863281 143.148438 100.953125 143.148438 C 101.179688 143.148438 101.390625 143.21875 101.65625 143.304688 C 102.113281 143.480469 102.238281 143.480469 102.519531 143.480469 C 102.113281 143.957031 101.179688 144.765625 100.96875 144.941406 L 99.949219 145.890625 C 99.191406 146.648438 98.789062 147.28125 98.789062 147.371094 C 98.789062 147.476562 98.910156 147.476562 98.929688 147.476562 C 99.015625 147.476562 99.035156 147.457031 99.105469 147.335938 C 99.367188 146.929688 99.703125 146.632812 100.074219 146.632812 C 100.320312 146.632812 100.441406 146.738281 100.722656 147.054688 C 100.898438 147.300781 101.109375 147.476562 101.425781 147.476562 C 102.554688 147.476562 103.203125 146.050781 103.203125 145.75 C 103.203125 145.699219 103.152344 145.628906 103.0625 145.628906 C 102.957031 145.628906 102.941406 145.699219 102.90625 145.785156 C 102.640625 146.507812 101.917969 146.71875 101.550781 146.71875 C 101.339844 146.71875 101.128906 146.648438 100.898438 146.578125 C 100.511719 146.4375 100.335938 146.386719 100.109375 146.386719 C 100.089844 146.386719 99.914062 146.386719 99.808594 146.421875 Z M 99.808594 146.421875 "/>
</g>
<path fill-rule="nonzero" fill="rgb(0%, 0%, 0%)" fill-opacity="1" d="M 6.375 76.875 L 6.375 74.957031 C 6.375 73.371094 5.210938 71.804688 3.964844 71.804688 C 3.082031 71.804688 2.257812 72.546875 2.257812 74.023438 L 2.257812 77.648438 C 2.257812 77.859375 2.257812 77.980469 2.46875 77.980469 C 2.609375 77.980469 2.609375 77.894531 2.609375 77.664062 C 2.609375 77.523438 2.625 77.3125 2.625 77.191406 C 2.660156 76.996094 2.679688 76.945312 2.820312 76.945312 C 2.855469 76.945312 2.890625 76.945312 3.03125 76.980469 L 9.046875 78.492188 C 9.488281 78.597656 9.578125 78.617188 9.578125 79.511719 C 9.578125 79.6875 9.578125 79.8125 9.789062 79.8125 C 9.929688 79.8125 9.929688 79.6875 9.929688 79.652344 C 9.929688 79.335938 9.894531 78.546875 9.894531 78.230469 C 9.894531 77.980469 9.910156 77.734375 9.910156 77.507812 C 9.910156 77.261719 9.929688 77.015625 9.929688 76.785156 C 9.929688 76.699219 9.929688 76.558594 9.699219 76.558594 C 9.578125 76.558594 9.578125 76.664062 9.578125 76.875 C 9.578125 77.277344 9.578125 77.59375 9.382812 77.59375 C 9.3125 77.59375 9.261719 77.578125 9.191406 77.558594 Z M 3.03125 76.0625 C 2.644531 75.957031 2.609375 75.941406 2.609375 75.449219 L 2.609375 74.375 C 2.609375 73.441406 2.90625 72.84375 3.683594 72.84375 C 4.121094 72.84375 5.089844 73.074219 5.496094 73.511719 C 6.003906 74.074219 6.09375 74.746094 6.09375 75.238281 L 6.09375 76.820312 Z M 3.03125 76.0625 "/>
<path fill-rule="nonzero" fill="rgb(0%, 0%, 0%)" fill-opacity="1" d="M 9.261719 70.523438 C 9.4375 70.558594 9.699219 70.628906 9.753906 70.628906 C 9.945312 70.628906 10.050781 70.46875 10.050781 70.292969 C 10.050781 70.152344 9.964844 69.957031 9.734375 69.871094 C 9.699219 69.851562 8.167969 69.484375 7.957031 69.429688 C 7.589844 69.34375 6.8125 69.132812 6.496094 69.078125 C 6.355469 69.027344 5.828125 68.710938 5.582031 68.445312 C 5.511719 68.359375 5.210938 68.023438 5.210938 67.546875 C 5.210938 67.25 5.355469 67.089844 5.355469 67.074219 C 5.40625 67.40625 5.671875 67.652344 5.96875 67.652344 C 6.144531 67.652344 6.355469 67.53125 6.355469 67.230469 C 6.355469 66.933594 6.09375 66.617188 5.6875 66.617188 C 5.300781 66.617188 4.964844 66.96875 4.964844 67.546875 C 4.964844 68.269531 5.511719 68.761719 5.828125 68.972656 C 5.316406 69.078125 4.964844 69.484375 4.964844 70.011719 C 4.964844 70.523438 5.40625 70.734375 5.601562 70.839844 C 5.988281 71.03125 6.65625 71.171875 6.691406 71.171875 C 6.8125 71.171875 6.8125 71.066406 6.8125 71.050781 C 6.8125 70.925781 6.796875 70.925781 6.550781 70.855469 C 5.757812 70.664062 5.210938 70.433594 5.210938 70.027344 C 5.210938 69.851562 5.300781 69.695312 5.722656 69.695312 C 5.96875 69.695312 6.09375 69.730469 6.671875 69.871094 Z M 9.261719 70.523438 "/>
<path fill-rule="nonzero" fill="rgb(0%, 0%, 0%)" fill-opacity="1" d="M 12.621094 62.421875 C 12.585938 62.421875 12.566406 62.421875 12.375 62.613281 C 10.964844 64.003906 8.835938 64.375 7.113281 64.375 C 5.160156 64.375 3.207031 63.953125 1.816406 62.5625 C 1.675781 62.421875 1.660156 62.421875 1.625 62.421875 C 1.535156 62.421875 1.5 62.457031 1.5 62.527344 C 1.5 62.648438 2.273438 63.652344 3.699219 64.320312 C 4.929688 64.886719 6.179688 65.027344 7.113281 65.027344 C 7.992188 65.027344 9.347656 64.902344 10.632812 64.285156 C 12.003906 63.601562 12.742188 62.648438 12.742188 62.527344 C 12.742188 62.457031 12.707031 62.421875 12.621094 62.421875 Z M 12.621094 62.421875 "/>
<path fill-rule="nonzero" fill="rgb(0%, 0%, 0%)" fill-opacity="1" d="M 8.996094 60.277344 C 8.34375 59.675781 8.0625 59.34375 7.710938 58.9375 C 7.710938 58.9375 7.113281 58.253906 6.707031 57.847656 C 5.671875 56.773438 5.125 56.527344 5.070312 56.527344 C 4.964844 56.527344 4.964844 56.632812 4.964844 56.652344 C 4.964844 56.738281 4.984375 56.757812 5.089844 56.828125 C 5.636719 57.160156 5.8125 57.390625 5.8125 57.652344 C 5.8125 57.9375 5.636719 58.058594 5.441406 58.234375 C 5.195312 58.445312 4.964844 58.640625 4.964844 59.007812 C 4.964844 59.855469 6.003906 60.363281 6.25 60.363281 C 6.304688 60.363281 6.375 60.328125 6.375 60.242188 C 6.375 60.136719 6.320312 60.117188 6.25 60.082031 C 5.722656 59.871094 5.722656 59.21875 5.722656 59.132812 C 5.722656 58.902344 5.792969 58.691406 5.882812 58.429688 C 6.058594 57.972656 6.058594 57.847656 6.058594 57.566406 C 6.53125 57.972656 7.34375 58.902344 7.519531 59.113281 L 8.46875 60.136719 C 9.226562 60.890625 9.859375 61.296875 9.945312 61.296875 C 10.050781 61.296875 10.050781 61.171875 10.050781 61.15625 C 10.050781 61.066406 10.035156 61.050781 9.910156 60.980469 C 9.507812 60.714844 9.207031 60.382812 9.207031 60.011719 C 9.207031 59.765625 9.3125 59.640625 9.628906 59.359375 C 9.875 59.183594 10.050781 58.972656 10.050781 58.65625 C 10.050781 57.53125 8.625 56.878906 8.328125 56.878906 C 8.273438 56.878906 8.203125 56.933594 8.203125 57.019531 C 8.203125 57.125 8.273438 57.144531 8.363281 57.179688 C 9.082031 57.441406 9.296875 58.164062 9.296875 58.535156 C 9.296875 58.746094 9.226562 58.957031 9.15625 59.183594 C 9.011719 59.570312 8.960938 59.746094 8.960938 59.976562 C 8.960938 59.996094 8.960938 60.171875 8.996094 60.277344 Z M 8.996094 60.277344 "/>
<path fill-rule="nonzero" fill="rgb(0%, 0%, 0%)" fill-opacity="1" d="M 7.113281 52.824219 C 6.25 52.824219 4.894531 52.945312 3.613281 53.5625 C 2.238281 54.230469 1.5 55.199219 1.5 55.304688 C 1.5 55.375 1.554688 55.425781 1.625 55.425781 C 1.660156 55.425781 1.675781 55.425781 1.886719 55.214844 C 2.996094 54.109375 4.773438 53.472656 7.113281 53.472656 C 9.046875 53.472656 11.019531 53.878906 12.425781 55.269531 C 12.566406 55.425781 12.585938 55.425781 12.621094 55.425781 C 12.691406 55.425781 12.742188 55.375 12.742188 55.304688 C 12.742188 55.199219 11.96875 54.179688 10.542969 53.527344 C 9.3125 52.945312 8.0625 52.824219 7.113281 52.824219 Z M 7.113281 52.824219 "/>
<g clip-path="url(#clip-1)">
<path fill="none" stroke-width="1.95706" stroke-linecap="square" stroke-linejoin="round" stroke="rgb(81.959534%, 51.371765%, 38.430786%)" stroke-opacity="1" stroke-miterlimit="4" d="M 21.472656 134.245971 L 23.0625 134.099415 L 24.386719 133.87958 L 25.449219 133.606821 L 26.511719 133.207861 L 27.304688 132.796688 L 28.101562 132.267455 L 28.898438 131.587595 L 29.691406 130.724539 L 30.488281 129.641647 L 31.285156 128.306353 L 32.078125 126.669802 L 32.875 124.687215 L 33.671875 122.321952 L 34.46875 119.525161 L 35.261719 116.268345 L 36.058594 112.510793 L 36.855469 108.240293 L 37.648438 103.448701 L 38.710938 96.259279 L 39.773438 88.227156 L 41.097656 77.219117 L 43.21875 58.411002 L 44.8125 44.630598 L 45.871094 36.289077 L 46.667969 30.740276 L 47.464844 25.96904 L 47.992188 23.286237 L 48.523438 21.043105 L 49.054688 19.26814 L 49.585938 17.981697 L 49.851562 17.525743 L 50.117188 17.200062 L 50.378906 17.004653 L 50.644531 16.939516 L 50.910156 17.004653 L 51.175781 17.200062 L 51.441406 17.525743 L 51.707031 17.981697 L 52.238281 19.26814 L 52.769531 21.043105 L 53.296875 23.286237 L 53.828125 25.96904 L 54.625 30.740276 L 55.421875 36.289077 L 56.480469 44.630598 L 57.808594 56.053881 L 60.988281 83.9363 L 62.050781 92.342958 L 63.113281 99.963908 L 64.171875 106.701447 L 64.96875 111.147001 L 65.765625 115.071465 L 66.558594 118.495193 L 67.355469 121.438541 L 68.152344 123.94629 L 68.945312 126.051007 L 69.742188 127.797475 L 70.539062 129.226403 L 71.335938 130.390715 L 72.128906 131.318908 L 72.925781 132.059833 L 73.722656 132.637918 L 74.515625 133.085731 L 75.3125 133.427696 L 76.375 133.757449 L 77.433594 133.981355 L 78.761719 134.16048 L 80.617188 134.290753 L 83.535156 134.364031 L 90.164062 134.388457 L 180.34375 134.388457 " transform="matrix(1, 0, 0, 0.959526, 0, 0)"/>
</g>
<g clip-path="url(#clip-2)">
<path fill="none" stroke-width="1.95706" stroke-linecap="square" stroke-linejoin="round" stroke="rgb(62.744141%, 85.096741%, 82.743835%)" stroke-opacity="1" stroke-miterlimit="4" d="M 21.472656 131.038007 L 24.652344 130.280797 L 27.570312 129.482877 L 30.488281 128.579111 L 33.40625 127.565427 L 36.324219 126.441825 L 39.242188 125.208306 L 42.425781 123.750881 L 45.871094 122.049194 L 49.851562 119.952619 L 55.15625 117.025555 L 62.582031 112.926037 L 66.03125 111.138859 L 68.945312 109.742499 L 71.597656 108.586329 L 73.984375 107.658137 L 76.109375 106.933495 L 78.230469 106.318771 L 80.351562 105.813964 L 82.472656 105.431288 L 84.332031 105.19924 L 86.1875 105.064897 L 88.042969 105.028257 L 89.898438 105.093394 L 91.757812 105.256235 L 93.613281 105.51678 L 95.734375 105.927953 L 97.855469 106.461257 L 99.980469 107.108549 L 102.101562 107.853546 L 104.488281 108.806164 L 107.140625 109.98676 L 110.058594 111.407547 L 113.503906 113.211009 L 118.28125 115.836817 L 126.765625 120.522561 L 130.746094 122.582498 L 134.195312 124.251616 L 137.375 125.668331 L 140.292969 126.86114 L 143.210938 127.944032 L 146.128906 128.921077 L 149.046875 129.784133 L 151.964844 130.545414 L 155.148438 131.261913 L 158.328125 131.872567 L 161.777344 132.422154 L 165.492188 132.898464 L 169.46875 133.297424 L 173.976562 133.639389 L 179.015625 133.908077 L 180.34375 133.961 " transform="matrix(1, 0, 0, 0.959526, 0, 0)"/>
</g>
<g clip-path="url(#clip-3)">
<path fill="none" stroke-width="1.95706" stroke-linecap="square" stroke-linejoin="round" stroke="rgb(25.881958%, 29.411316%, 30.979919%)" stroke-opacity="1" stroke-miterlimit="4" d="M 21.472656 134.388457 L 75.84375 134.335534 L 81.148438 134.217474 L 84.59375 134.038349 L 87.246094 133.798159 L 89.371094 133.513188 L 91.226562 133.167151 L 93.082031 132.711197 L 94.675781 132.210461 L 96.265625 131.587595 L 97.589844 130.956587 L 98.917969 130.219732 L 100.242188 129.356676 L 101.570312 128.355205 L 102.894531 127.207177 L 104.222656 125.896308 L 105.546875 124.422599 L 106.875 122.765694 L 108.199219 120.933734 L 109.527344 118.918579 L 110.851562 116.724299 L 112.445312 113.866443 L 114.035156 110.780609 L 115.894531 106.941637 L 118.28125 101.730731 L 123.320312 90.616845 L 124.910156 87.3641 L 126.238281 84.85228 L 127.5625 82.564366 L 128.625 80.927816 L 129.683594 79.482604 L 130.746094 78.249085 L 131.542969 77.47152 L 132.335938 76.828299 L 133.132812 76.323492 L 133.929688 75.9571 L 134.722656 75.737265 L 135.519531 75.663987 L 136.316406 75.737265 L 137.109375 75.9571 L 137.90625 76.323492 L 138.703125 76.828299 L 139.5 77.47152 L 140.292969 78.249085 L 141.089844 79.152851 L 142.152344 80.549211 L 143.210938 82.136909 L 144.273438 83.907803 L 145.597656 86.334131 L 147.191406 89.509527 L 149.046875 93.47063 L 152.757812 101.730731 L 155.410156 107.503438 L 157.269531 111.309842 L 158.859375 114.359036 L 160.453125 117.176183 L 161.777344 119.333823 L 163.105469 121.31641 L 164.429688 123.11173 L 165.757812 124.727926 L 167.082031 126.173138 L 168.40625 127.447367 L 169.734375 128.566898 L 171.058594 129.539872 L 172.386719 130.374431 L 173.710938 131.090931 L 175.039062 131.697513 L 176.628906 132.300024 L 178.222656 132.784475 L 180.078125 133.224145 L 180.34375 133.277069 " transform="matrix(1, 0, 0, 0.959526, 0, 0)"/>
</g>
<path fill="none" stroke-width="0.751181" stroke-linecap="butt" stroke-linejoin="miter" stroke="rgb(25.881958%, 29.411316%, 30.979919%)" stroke-opacity="1" stroke-dasharray="0.751181 0.751181" stroke-miterlimit="4" d="M 136.933594 97.832031 L 150.984375 97.832031 "/>
<path fill-rule="evenodd" fill="rgb(25.881958%, 29.411316%, 30.979919%)" fill-opacity="1" stroke-width="0.200315" stroke-linecap="butt" stroke-linejoin="round" stroke="rgb(25.881958%, 29.411316%, 30.979919%)" stroke-opacity="1" stroke-miterlimit="4" d="M 137.835938 97.832031 L 138.585938 97.078125 L 135.957031 97.832031 L 138.585938 98.582031 Z M 137.835938 97.832031 "/>
<path fill-rule="evenodd" fill="rgb(25.881958%, 29.411316%, 30.979919%)" fill-opacity="1" stroke-width="0.200315" stroke-linecap="butt" stroke-linejoin="round" stroke="rgb(25.881958%, 29.411316%, 30.979919%)" stroke-opacity="1" stroke-miterlimit="4" d="M -150.082031 -97.832031 L -149.332031 -98.582031 L -151.960938 -97.832031 L -149.332031 -97.078125 Z M -150.082031 -97.832031 " transform="matrix(-1, 0, 0, -1, 0, 0)"/>
<path fill-rule="nonzero" fill="rgb(25.881958%, 29.411316%, 30.979919%)" fill-opacity="1" d="M 133.941406 132.816406 C 134.003906 132.617188 134.09375 132.230469 134.09375 132.183594 C 134.09375 132.015625 133.972656 131.921875 133.800781 131.921875 C 133.785156 131.921875 133.507812 131.9375 133.417969 132.277344 L 132 137.964844 C 131.96875 138.085938 131.96875 138.101562 131.96875 138.132812 C 131.96875 138.273438 132.074219 138.394531 132.246094 138.394531 C 132.445312 138.394531 132.570312 138.210938 132.585938 138.179688 C 132.628906 138.101562 132.753906 137.578125 133.125 136.070312 C 133.449219 136.332031 133.894531 136.378906 134.078125 136.378906 C 134.773438 136.378906 135.160156 135.929688 135.390625 135.652344 C 135.480469 136.097656 135.851562 136.378906 136.285156 136.378906 C 136.621094 136.378906 136.855469 136.144531 137.007812 135.835938 C 137.175781 135.484375 137.300781 134.882812 137.300781 134.867188 C 137.300781 134.757812 137.207031 134.757812 137.175781 134.757812 C 137.085938 134.757812 137.070312 134.804688 137.039062 134.945312 C 136.886719 135.574219 136.699219 136.160156 136.300781 136.160156 C 136.035156 136.160156 136.007812 135.898438 136.007812 135.714844 C 136.007812 135.5 136.113281 135.035156 136.191406 134.679688 L 136.46875 133.617188 C 136.5 133.480469 136.605469 133.109375 136.636719 132.957031 C 136.683594 132.722656 136.792969 132.355469 136.792969 132.292969 C 136.792969 132.125 136.652344 132.03125 136.5 132.03125 C 136.453125 132.03125 136.191406 132.046875 136.113281 132.371094 L 135.652344 134.21875 C 135.542969 134.710938 135.4375 135.113281 135.40625 135.222656 C 135.390625 135.265625 134.925781 136.160156 134.125 136.160156 C 133.632812 136.160156 133.402344 135.835938 133.402344 135.296875 C 133.402344 135.019531 133.464844 134.742188 133.539062 134.464844 Z M 133.941406 132.816406 "/>
<path fill-rule="nonzero" fill="rgb(25.881958%, 29.411316%, 30.979919%)" fill-opacity="1" d="M 146.082031 100.394531 C 146.21875 100.394531 146.574219 100.394531 146.574219 100.054688 C 146.574219 99.824219 146.359375 99.824219 146.1875 99.824219 L 143.9375 99.824219 C 142.457031 99.824219 141.363281 101.441406 141.363281 102.613281 C 141.363281 103.476562 141.949219 104.167969 142.84375 104.167969 C 144 104.167969 145.308594 102.984375 145.308594 101.472656 C 145.308594 101.300781 145.308594 100.824219 145 100.394531 Z M 142.859375 103.953125 C 142.367188 103.953125 141.980469 103.597656 141.980469 102.890625 C 141.980469 102.597656 142.089844 101.796875 142.441406 101.210938 C 142.859375 100.53125 143.445312 100.394531 143.785156 100.394531 C 144.601562 100.394531 144.679688 101.039062 144.679688 101.347656 C 144.679688 101.8125 144.476562 102.613281 144.152344 103.121094 C 143.769531 103.691406 143.230469 103.953125 142.859375 103.953125 Z M 142.859375 103.953125 "/>
<path fill-rule="nonzero" fill="rgb(81.959534%, 51.371765%, 38.430786%)" fill-opacity="1" d="M 60.824219 20.066406 C 60.886719 19.878906 60.980469 19.519531 60.980469 19.476562 C 60.980469 19.316406 60.855469 19.230469 60.6875 19.230469 C 60.671875 19.230469 60.394531 19.246094 60.300781 19.5625 L 58.882812 24.871094 C 58.851562 24.988281 58.851562 25 58.851562 25.03125 C 58.851562 25.160156 58.960938 25.273438 59.128906 25.273438 C 59.328125 25.273438 59.453125 25.101562 59.46875 25.074219 C 59.515625 25 59.636719 24.511719 60.007812 23.101562 C 60.332031 23.347656 60.777344 23.390625 60.964844 23.390625 C 61.65625 23.390625 62.042969 22.972656 62.273438 22.714844 C 62.367188 23.128906 62.734375 23.390625 63.167969 23.390625 C 63.507812 23.390625 63.738281 23.175781 63.890625 22.886719 C 64.0625 22.554688 64.183594 21.996094 64.183594 21.980469 C 64.183594 21.878906 64.09375 21.878906 64.0625 21.878906 C 63.96875 21.878906 63.953125 21.921875 63.921875 22.050781 C 63.769531 22.640625 63.582031 23.1875 63.183594 23.1875 C 62.921875 23.1875 62.890625 22.945312 62.890625 22.769531 C 62.890625 22.570312 62.996094 22.136719 63.074219 21.808594 L 63.351562 20.816406 C 63.382812 20.683594 63.492188 20.339844 63.523438 20.195312 C 63.566406 19.980469 63.675781 19.636719 63.675781 19.578125 C 63.675781 19.417969 63.539062 19.332031 63.382812 19.332031 C 63.335938 19.332031 63.074219 19.347656 62.996094 19.648438 L 62.535156 21.375 C 62.425781 21.835938 62.320312 22.210938 62.289062 22.3125 C 62.273438 22.355469 61.8125 23.1875 61.007812 23.1875 C 60.515625 23.1875 60.285156 22.886719 60.285156 22.382812 C 60.285156 22.125 60.347656 21.863281 60.425781 21.605469 Z M 60.824219 20.066406 "/>
<path fill-rule="nonzero" fill="rgb(81.959534%, 51.371765%, 38.430786%)" fill-opacity="1" d="M 72.324219 20.28125 C 72.476562 20.28125 72.664062 20.28125 72.664062 20.109375 C 72.664062 19.921875 72.476562 19.921875 72.339844 19.921875 L 66.449219 19.921875 C 66.3125 19.921875 66.128906 19.921875 66.128906 20.109375 C 66.128906 20.28125 66.3125 20.28125 66.449219 20.28125 Z M 72.339844 22.066406 C 72.476562 22.066406 72.664062 22.066406 72.664062 21.878906 C 72.664062 21.707031 72.476562 21.707031 72.324219 21.707031 L 66.449219 21.707031 C 66.3125 21.707031 66.128906 21.707031 66.128906 21.878906 C 66.128906 22.066406 66.3125 22.066406 66.449219 22.066406 Z M 72.339844 22.066406 "/>
<path fill-rule="nonzero" fill="rgb(81.959534%, 51.371765%, 38.430786%)" fill-opacity="1" d="M 80.78125 21.175781 C 80.953125 21.175781 81.136719 21.175781 81.136719 20.988281 C 81.136719 20.816406 80.953125 20.816406 80.78125 20.816406 L 75.464844 20.816406 C 75.292969 20.816406 75.125 20.816406 75.125 20.988281 C 75.125 21.175781 75.292969 21.175781 75.464844 21.175781 Z M 80.78125 21.175781 "/>
<path fill-rule="nonzero" fill="rgb(81.959534%, 51.371765%, 38.430786%)" fill-opacity="1" d="M 84.851562 17.417969 C 84.851562 17.1875 84.851562 17.175781 84.617188 17.175781 C 84.003906 17.765625 83.140625 17.765625 82.832031 17.765625 L 82.832031 18.050781 C 83.03125 18.050781 83.601562 18.050781 84.109375 17.808594 L 84.109375 22.570312 C 84.109375 22.902344 84.078125 23 83.199219 23 L 82.890625 23 L 82.890625 23.289062 C 83.230469 23.261719 84.078125 23.261719 84.480469 23.261719 C 84.863281 23.261719 85.726562 23.261719 86.066406 23.289062 L 86.066406 23 L 85.757812 23 C 84.863281 23 84.851562 22.902344 84.851562 22.570312 Z M 84.851562 17.417969 "/>
<path fill-rule="nonzero" fill="rgb(81.959534%, 51.371765%, 38.430786%)" fill-opacity="1" d="M 88.746094 22.800781 C 88.746094 22.539062 88.515625 22.3125 88.238281 22.3125 C 87.945312 22.3125 87.714844 22.539062 87.714844 22.800781 C 87.714844 23.074219 87.945312 23.289062 88.238281 23.289062 C 88.515625 23.289062 88.746094 23.074219 88.746094 22.800781 Z M 88.746094 22.800781 "/>
<path fill-rule="nonzero" fill="rgb(81.959534%, 51.371765%, 38.430786%)" fill-opacity="1" d="M 93.203125 20.367188 L 93.203125 20.671875 C 93.203125 22.8125 92.183594 23.230469 91.613281 23.230469 C 91.445312 23.230469 90.90625 23.21875 90.644531 22.902344 C 91.074219 22.902344 91.152344 22.640625 91.152344 22.484375 C 91.152344 22.195312 90.921875 22.066406 90.703125 22.066406 C 90.550781 22.066406 90.257812 22.136719 90.257812 22.496094 C 90.257812 23.117188 90.78125 23.492188 91.613281 23.492188 C 92.894531 23.492188 94.09375 22.238281 94.09375 20.269531 C 94.09375 17.792969 92.953125 17.175781 92.078125 17.175781 C 91.535156 17.175781 91.058594 17.347656 90.644531 17.75 C 90.226562 18.167969 90.011719 18.554688 90.011719 19.246094 C 90.011719 20.382812 90.875 21.289062 91.96875 21.289062 C 92.570312 21.289062 92.96875 20.902344 93.203125 20.367188 Z M 91.984375 21.074219 C 91.828125 21.074219 91.367188 21.074219 91.074219 20.496094 C 90.890625 20.152344 90.890625 19.707031 90.890625 19.246094 C 90.890625 18.757812 90.890625 18.324219 91.105469 17.980469 C 91.367188 17.519531 91.738281 17.40625 92.078125 17.40625 C 92.539062 17.40625 92.863281 17.722656 93.03125 18.125 C 93.140625 18.425781 93.1875 19 93.1875 19.417969 C 93.1875 20.179688 92.847656 21.074219 91.984375 21.074219 Z M 91.984375 21.074219 "/>
<path fill-rule="nonzero" fill="rgb(81.959534%, 51.371765%, 38.430786%)" fill-opacity="1" d="M 63.644531 30.871094 C 63.785156 30.871094 64.136719 30.871094 64.136719 30.554688 C 64.136719 30.339844 63.921875 30.339844 63.753906 30.339844 L 61.503906 30.339844 C 60.023438 30.339844 58.929688 31.851562 58.929688 32.945312 C 58.929688 33.75 59.515625 34.398438 60.410156 34.398438 C 61.566406 34.398438 62.875 33.289062 62.875 31.878906 C 62.875 31.722656 62.875 31.273438 62.566406 30.871094 Z M 60.425781 34.195312 C 59.929688 34.195312 59.546875 33.863281 59.546875 33.203125 C 59.546875 32.929688 59.652344 32.179688 60.007812 31.636719 C 60.425781 31 61.007812 30.871094 61.347656 30.871094 C 62.164062 30.871094 62.242188 31.476562 62.242188 31.765625 C 62.242188 32.195312 62.042969 32.945312 61.71875 33.417969 C 61.332031 33.949219 60.792969 34.195312 60.425781 34.195312 Z M 60.425781 34.195312 "/>
<path fill-rule="nonzero" fill="rgb(81.959534%, 51.371765%, 38.430786%)" fill-opacity="1" d="M 72.371094 31.289062 C 72.523438 31.289062 72.707031 31.289062 72.707031 31.117188 C 72.707031 30.929688 72.523438 30.929688 72.386719 30.929688 L 66.496094 30.929688 C 66.359375 30.929688 66.171875 30.929688 66.171875 31.117188 C 66.171875 31.289062 66.359375 31.289062 66.496094 31.289062 Z M 72.386719 33.074219 C 72.523438 33.074219 72.707031 33.074219 72.707031 32.886719 C 72.707031 32.714844 72.523438 32.714844 72.371094 32.714844 L 66.496094 32.714844 C 66.359375 32.714844 66.171875 32.714844 66.171875 32.886719 C 66.171875 33.074219 66.359375 33.074219 66.496094 33.074219 Z M 72.386719 33.074219 "/>
<path fill-rule="nonzero" fill="rgb(81.959534%, 51.371765%, 38.430786%)" fill-opacity="1" d="M 78.871094 31.363281 C 78.871094 30.628906 78.824219 29.894531 78.484375 29.21875 C 78.035156 28.324219 77.21875 28.183594 76.820312 28.183594 C 76.21875 28.183594 75.507812 28.425781 75.09375 29.277344 C 74.785156 29.910156 74.738281 30.628906 74.738281 31.363281 C 74.738281 32.050781 74.769531 32.871094 75.1875 33.578125 C 75.601562 34.3125 76.328125 34.496094 76.804688 34.496094 C 77.328125 34.496094 78.082031 34.3125 78.515625 33.433594 C 78.824219 32.800781 78.871094 32.082031 78.871094 31.363281 Z M 76.804688 34.296875 C 76.417969 34.296875 75.832031 34.066406 75.664062 33.1875 C 75.554688 32.640625 75.554688 31.792969 75.554688 31.246094 C 75.554688 30.65625 75.554688 30.050781 75.632812 29.5625 C 75.816406 28.46875 76.558594 28.382812 76.804688 28.382812 C 77.128906 28.382812 77.773438 28.554688 77.960938 29.460938 C 78.066406 29.980469 78.066406 30.671875 78.066406 31.246094 C 78.066406 31.9375 78.066406 32.554688 77.960938 33.144531 C 77.804688 34.023438 77.25 34.296875 76.804688 34.296875 Z M 76.804688 34.296875 "/>
<path fill-rule="nonzero" fill="rgb(81.959534%, 51.371765%, 38.430786%)" fill-opacity="1" d="M 81.148438 33.808594 C 81.148438 33.546875 80.917969 33.316406 80.640625 33.316406 C 80.347656 33.316406 80.117188 33.546875 80.117188 33.808594 C 80.117188 34.082031 80.347656 34.296875 80.640625 34.296875 C 80.917969 34.296875 81.148438 34.082031 81.148438 33.808594 Z M 81.148438 33.808594 "/>
<path fill-rule="nonzero" fill="rgb(81.959534%, 51.371765%, 38.430786%)" fill-opacity="1" d="M 84.851562 31.058594 C 85.652344 30.816406 86.222656 30.183594 86.222656 29.449219 C 86.222656 28.699219 85.359375 28.183594 84.417969 28.183594 C 83.433594 28.183594 82.675781 28.730469 82.675781 29.433594 C 82.675781 29.734375 82.890625 29.910156 83.183594 29.910156 C 83.476562 29.910156 83.679688 29.707031 83.679688 29.433594 C 83.679688 28.988281 83.214844 28.988281 83.078125 28.988281 C 83.371094 28.527344 84.015625 28.414062 84.371094 28.414062 C 84.789062 28.414062 85.328125 28.613281 85.328125 29.433594 C 85.328125 29.546875 85.296875 30.082031 85.050781 30.484375 C 84.757812 30.929688 84.417969 30.957031 84.171875 30.957031 C 84.09375 30.972656 83.863281 30.988281 83.785156 30.988281 C 83.710938 31 83.648438 31.015625 83.648438 31.101562 C 83.648438 31.203125 83.710938 31.203125 83.878906 31.203125 L 84.308594 31.203125 C 85.113281 31.203125 85.480469 31.820312 85.480469 32.726562 C 85.480469 33.980469 84.804688 34.238281 84.371094 34.238281 C 83.941406 34.238281 83.199219 34.082031 82.863281 33.546875 C 83.199219 33.589844 83.507812 33.390625 83.507812 33.042969 C 83.507812 32.714844 83.246094 32.527344 82.96875 32.527344 C 82.722656 32.527344 82.414062 32.65625 82.414062 33.058594 C 82.414062 33.894531 83.324219 34.496094 84.402344 34.496094 C 85.605469 34.496094 86.5 33.664062 86.5 32.726562 C 86.5 31.980469 85.867188 31.261719 84.851562 31.058594 Z M 84.851562 31.058594 "/>
<path fill-rule="nonzero" fill="rgb(26.66626%, 67.0578%, 62.744141%)" fill-opacity="1" d="M 78.375 80.515625 C 78.4375 80.316406 78.53125 79.929688 78.53125 79.882812 C 78.53125 79.714844 78.40625 79.621094 78.238281 79.621094 C 78.222656 79.621094 77.945312 79.636719 77.851562 79.976562 L 76.433594 85.664062 C 76.402344 85.789062 76.402344 85.804688 76.402344 85.835938 C 76.402344 85.972656 76.511719 86.097656 76.679688 86.097656 C 76.878906 86.097656 77.003906 85.910156 77.019531 85.878906 C 77.066406 85.804688 77.1875 85.277344 77.558594 83.769531 C 77.882812 84.03125 78.328125 84.078125 78.515625 84.078125 C 79.207031 84.078125 79.59375 83.628906 79.824219 83.351562 C 79.917969 83.800781 80.285156 84.078125 80.71875 84.078125 C 81.058594 84.078125 81.289062 83.847656 81.441406 83.539062 C 81.613281 83.183594 81.734375 82.582031 81.734375 82.566406 C 81.734375 82.457031 81.644531 82.457031 81.613281 82.457031 C 81.519531 82.457031 81.503906 82.503906 81.472656 82.644531 C 81.320312 83.277344 81.132812 83.859375 80.734375 83.859375 C 80.472656 83.859375 80.441406 83.597656 80.441406 83.414062 C 80.441406 83.199219 80.546875 82.734375 80.625 82.382812 L 80.902344 81.316406 C 80.933594 81.179688 81.042969 80.808594 81.074219 80.65625 C 81.117188 80.425781 81.226562 80.054688 81.226562 79.992188 C 81.226562 79.824219 81.089844 79.730469 80.933594 79.730469 C 80.886719 79.730469 80.625 79.746094 80.546875 80.070312 L 80.085938 81.917969 C 79.976562 82.414062 79.871094 82.8125 79.839844 82.921875 C 79.824219 82.96875 79.363281 83.859375 78.558594 83.859375 C 78.066406 83.859375 77.835938 83.539062 77.835938 82.996094 C 77.835938 82.71875 77.898438 82.441406 77.976562 82.164062 Z M 78.375 80.515625 "/>
<path fill-rule="nonzero" fill="rgb(26.66626%, 67.0578%, 62.744141%)" fill-opacity="1" d="M 89.875 80.746094 C 90.027344 80.746094 90.214844 80.746094 90.214844 80.5625 C 90.214844 80.363281 90.027344 80.363281 89.890625 80.363281 L 84 80.363281 C 83.863281 80.363281 83.679688 80.363281 83.679688 80.5625 C 83.679688 80.746094 83.863281 80.746094 84 80.746094 Z M 89.890625 82.660156 C 90.027344 82.660156 90.214844 82.660156 90.214844 82.457031 C 90.214844 82.273438 90.027344 82.273438 89.875 82.273438 L 84 82.273438 C 83.863281 82.273438 83.679688 82.273438 83.679688 82.457031 C 83.679688 82.660156 83.863281 82.660156 84 82.660156 Z M 89.890625 82.660156 "/>
<path fill-rule="nonzero" fill="rgb(26.66626%, 67.0578%, 62.744141%)" fill-opacity="1" d="M 98.332031 81.703125 C 98.503906 81.703125 98.6875 81.703125 98.6875 81.503906 C 98.6875 81.316406 98.503906 81.316406 98.332031 81.316406 L 93.015625 81.316406 C 92.84375 81.316406 92.675781 81.316406 92.675781 81.503906 C 92.675781 81.703125 92.84375 81.703125 93.015625 81.703125 Z M 98.332031 81.703125 "/>
<path fill-rule="nonzero" fill="rgb(26.66626%, 67.0578%, 62.744141%)" fill-opacity="1" d="M 104.019531 80.824219 C 104.019531 80.039062 103.972656 79.253906 103.632812 78.527344 C 103.1875 77.574219 102.371094 77.417969 101.96875 77.417969 C 101.367188 77.417969 100.660156 77.679688 100.242188 78.589844 C 99.933594 79.269531 99.886719 80.039062 99.886719 80.824219 C 99.886719 81.566406 99.917969 82.441406 100.335938 83.199219 C 100.75 83.984375 101.476562 84.183594 101.953125 84.183594 C 102.476562 84.183594 103.234375 83.984375 103.664062 83.042969 C 103.972656 82.367188 104.019531 81.59375 104.019531 80.824219 Z M 101.953125 83.96875 C 101.566406 83.96875 100.984375 83.722656 100.8125 82.78125 C 100.703125 82.195312 100.703125 81.289062 100.703125 80.703125 C 100.703125 80.070312 100.703125 79.421875 100.78125 78.898438 C 100.96875 77.726562 101.707031 77.632812 101.953125 77.632812 C 102.277344 77.632812 102.925781 77.820312 103.109375 78.789062 C 103.21875 79.34375 103.21875 80.085938 103.21875 80.703125 C 103.21875 81.441406 103.21875 82.105469 103.109375 82.734375 C 102.957031 83.675781 102.402344 83.96875 101.953125 83.96875 Z M 101.953125 83.96875 "/>
<path fill-rule="nonzero" fill="rgb(26.66626%, 67.0578%, 62.744141%)" fill-opacity="1" d="M 106.296875 83.445312 C 106.296875 83.167969 106.066406 82.921875 105.789062 82.921875 C 105.496094 82.921875 105.265625 83.167969 105.265625 83.445312 C 105.265625 83.738281 105.496094 83.96875 105.789062 83.96875 C 106.066406 83.96875 106.296875 83.738281 106.296875 83.445312 Z M 106.296875 83.445312 "/>
<path fill-rule="nonzero" fill="rgb(26.66626%, 67.0578%, 62.744141%)" fill-opacity="1" d="M 111.554688 81.996094 C 111.554688 80.824219 110.753906 79.839844 109.6875 79.839844 C 109.226562 79.839844 108.792969 79.992188 108.441406 80.347656 L 108.441406 78.421875 C 108.640625 78.480469 108.964844 78.542969 109.273438 78.542969 C 110.488281 78.542969 111.183594 77.648438 111.183594 77.527344 C 111.183594 77.464844 111.152344 77.417969 111.074219 77.417969 C 111.074219 77.417969 111.046875 77.417969 111 77.449219 C 110.796875 77.542969 110.320312 77.742188 109.65625 77.742188 C 109.273438 77.742188 108.808594 77.664062 108.347656 77.464844 C 108.269531 77.433594 108.253906 77.433594 108.238281 77.433594 C 108.132812 77.433594 108.132812 77.511719 108.132812 77.664062 L 108.132812 80.578125 C 108.132812 80.746094 108.132812 80.824219 108.269531 80.824219 C 108.347656 80.824219 108.363281 80.808594 108.410156 80.746094 C 108.515625 80.59375 108.871094 80.054688 109.671875 80.054688 C 110.183594 80.054688 110.429688 80.5 110.503906 80.6875 C 110.660156 81.054688 110.691406 81.425781 110.691406 81.917969 C 110.691406 82.273438 110.691406 82.859375 110.445312 83.277344 C 110.210938 83.660156 109.84375 83.90625 109.394531 83.90625 C 108.6875 83.90625 108.117188 83.382812 107.945312 82.8125 C 107.976562 82.8125 108.007812 82.828125 108.117188 82.828125 C 108.441406 82.828125 108.609375 82.582031 108.609375 82.351562 C 108.609375 82.105469 108.441406 81.859375 108.117188 81.859375 C 107.976562 81.859375 107.640625 81.933594 107.640625 82.382812 C 107.640625 83.230469 108.316406 84.183594 109.410156 84.183594 C 110.550781 84.183594 111.554688 83.246094 111.554688 81.996094 Z M 111.554688 81.996094 "/>
<path fill-rule="nonzero" fill="rgb(26.66626%, 67.0578%, 62.744141%)" fill-opacity="1" d="M 81.195312 92.09375 C 81.335938 92.09375 81.6875 92.09375 81.6875 91.753906 C 81.6875 91.523438 81.472656 91.523438 81.304688 91.523438 L 79.054688 91.523438 C 77.574219 91.523438 76.480469 93.140625 76.480469 94.3125 C 76.480469 95.175781 77.066406 95.871094 77.960938 95.871094 C 79.117188 95.871094 80.425781 94.683594 80.425781 93.171875 C 80.425781 93.003906 80.425781 92.523438 80.117188 92.09375 Z M 77.976562 95.652344 C 77.480469 95.652344 77.097656 95.300781 77.097656 94.589844 C 77.097656 94.296875 77.203125 93.496094 77.558594 92.910156 C 77.976562 92.230469 78.558594 92.09375 78.898438 92.09375 C 79.714844 92.09375 79.792969 92.742188 79.792969 93.050781 C 79.792969 93.511719 79.59375 94.3125 79.269531 94.820312 C 78.882812 95.390625 78.34375 95.652344 77.976562 95.652344 Z M 77.976562 95.652344 "/>
<path fill-rule="nonzero" fill="rgb(26.66626%, 67.0578%, 62.744141%)" fill-opacity="1" d="M 89.921875 92.539062 C 90.074219 92.539062 90.257812 92.539062 90.257812 92.355469 C 90.257812 92.15625 90.074219 92.15625 89.9375 92.15625 L 84.046875 92.15625 C 83.910156 92.15625 83.722656 92.15625 83.722656 92.355469 C 83.722656 92.539062 83.910156 92.539062 84.046875 92.539062 Z M 89.9375 94.453125 C 90.074219 94.453125 90.257812 94.453125 90.257812 94.25 C 90.257812 94.066406 90.074219 94.066406 89.921875 94.066406 L 84.046875 94.066406 C 83.910156 94.066406 83.722656 94.066406 83.722656 94.25 C 83.722656 94.453125 83.910156 94.453125 84.046875 94.453125 Z M 89.9375 94.453125 "/>
<path fill-rule="nonzero" fill="rgb(26.66626%, 67.0578%, 62.744141%)" fill-opacity="1" d="M 94.800781 89.472656 C 94.800781 89.226562 94.800781 89.210938 94.570312 89.210938 C 93.953125 89.84375 93.089844 89.84375 92.78125 89.84375 L 92.78125 90.152344 C 92.984375 90.152344 93.554688 90.152344 94.0625 89.890625 L 94.0625 94.992188 C 94.0625 95.34375 94.03125 95.453125 93.152344 95.453125 L 92.84375 95.453125 L 92.84375 95.761719 C 93.183594 95.730469 94.03125 95.730469 94.433594 95.730469 C 94.816406 95.730469 95.679688 95.730469 96.019531 95.761719 L 96.019531 95.453125 L 95.710938 95.453125 C 94.816406 95.453125 94.800781 95.34375 94.800781 94.992188 Z M 94.800781 89.472656 "/>
<path fill-rule="nonzero" fill="rgb(26.66626%, 67.0578%, 62.744141%)" fill-opacity="1" d="M 98.699219 95.238281 C 98.699219 94.960938 98.46875 94.714844 98.191406 94.714844 C 97.898438 94.714844 97.667969 94.960938 97.667969 95.238281 C 97.667969 95.53125 97.898438 95.761719 98.191406 95.761719 C 98.46875 95.761719 98.699219 95.53125 98.699219 95.238281 Z M 98.699219 95.238281 "/>
<path fill-rule="nonzero" fill="rgb(26.66626%, 67.0578%, 62.744141%)" fill-opacity="1" d="M 100.796875 95.007812 L 101.84375 93.988281 C 103.371094 92.632812 103.957031 92.109375 103.957031 91.121094 C 103.957031 89.996094 103.078125 89.210938 101.875 89.210938 C 100.765625 89.210938 100.042969 90.121094 100.042969 91 C 100.042969 91.539062 100.535156 91.539062 100.566406 91.539062 C 100.734375 91.539062 101.074219 91.429688 101.074219 91.015625 C 101.074219 90.769531 100.890625 90.507812 100.550781 90.507812 C 100.472656 90.507812 100.457031 90.507812 100.425781 90.519531 C 100.644531 89.875 101.183594 89.519531 101.753906 89.519531 C 102.648438 89.519531 103.0625 90.320312 103.0625 91.121094 C 103.0625 91.910156 102.585938 92.679688 102.03125 93.296875 L 100.148438 95.390625 C 100.042969 95.5 100.042969 95.53125 100.042969 95.761719 L 103.695312 95.761719 L 103.957031 94.050781 L 103.726562 94.050781 C 103.664062 94.34375 103.601562 94.773438 103.496094 94.929688 C 103.433594 95.007812 102.785156 95.007812 102.570312 95.007812 Z M 100.796875 95.007812 "/>
<path fill-rule="nonzero" fill="rgb(25.881958%, 29.411316%, 30.979919%)" fill-opacity="1" d="M 149.503906 64.8125 C 149.566406 64.613281 149.65625 64.226562 149.65625 64.179688 C 149.65625 64.011719 149.535156 63.917969 149.363281 63.917969 C 149.351562 63.917969 149.074219 63.933594 148.980469 64.273438 L 147.5625 69.960938 C 147.53125 70.085938 147.53125 70.101562 147.53125 70.128906 C 147.53125 70.269531 147.640625 70.394531 147.808594 70.394531 C 148.007812 70.394531 148.132812 70.207031 148.148438 70.175781 C 148.195312 70.101562 148.316406 69.574219 148.6875 68.066406 C 149.011719 68.328125 149.457031 68.375 149.644531 68.375 C 150.335938 68.375 150.722656 67.925781 150.953125 67.648438 C 151.046875 68.097656 151.414062 68.375 151.847656 68.375 C 152.1875 68.375 152.417969 68.140625 152.570312 67.835938 C 152.742188 67.480469 152.863281 66.878906 152.863281 66.863281 C 152.863281 66.753906 152.769531 66.753906 152.742188 66.753906 C 152.648438 66.753906 152.632812 66.800781 152.601562 66.941406 C 152.449219 67.570312 152.261719 68.15625 151.863281 68.15625 C 151.601562 68.15625 151.570312 67.894531 151.570312 67.710938 C 151.570312 67.496094 151.675781 67.03125 151.753906 66.679688 L 152.03125 65.613281 C 152.0625 65.476562 152.171875 65.105469 152.203125 64.953125 C 152.246094 64.722656 152.355469 64.351562 152.355469 64.289062 C 152.355469 64.121094 152.214844 64.027344 152.0625 64.027344 C 152.015625 64.027344 151.753906 64.042969 151.675781 64.367188 L 151.214844 66.214844 C 151.105469 66.710938 151 67.109375 150.96875 67.21875 C 150.953125 67.265625 150.492188 68.15625 149.6875 68.15625 C 149.195312 68.15625 148.964844 67.835938 148.964844 67.292969 C 148.964844 67.015625 149.027344 66.738281 149.101562 66.460938 Z M 149.503906 64.8125 "/>
<path fill-rule="nonzero" fill="rgb(25.881958%, 29.411316%, 30.979919%)" fill-opacity="1" d="M 161.003906 65.042969 C 161.15625 65.042969 161.339844 65.042969 161.339844 64.859375 C 161.339844 64.660156 161.15625 64.660156 161.019531 64.660156 L 155.128906 64.660156 C 154.992188 64.660156 154.804688 64.660156 154.804688 64.859375 C 154.804688 65.042969 154.992188 65.042969 155.128906 65.042969 Z M 161.019531 66.957031 C 161.15625 66.957031 161.339844 66.957031 161.339844 66.753906 C 161.339844 66.570312 161.15625 66.570312 161.003906 66.570312 L 155.128906 66.570312 C 154.992188 66.570312 154.804688 66.570312 154.804688 66.753906 C 154.804688 66.957031 154.992188 66.957031 155.128906 66.957031 Z M 161.019531 66.957031 "/>
<path fill-rule="nonzero" fill="rgb(25.881958%, 29.411316%, 30.979919%)" fill-opacity="1" d="M 165.882812 61.976562 C 165.882812 61.730469 165.882812 61.714844 165.652344 61.714844 C 165.035156 62.347656 164.171875 62.347656 163.863281 62.347656 L 163.863281 62.65625 C 164.066406 62.65625 164.636719 62.65625 165.144531 62.394531 L 165.144531 67.496094 C 165.144531 67.847656 165.113281 67.957031 164.234375 67.957031 L 163.925781 67.957031 L 163.925781 68.265625 C 164.265625 68.234375 165.113281 68.234375 165.515625 68.234375 C 165.898438 68.234375 166.761719 68.234375 167.101562 68.265625 L 167.101562 67.957031 L 166.792969 67.957031 C 165.898438 67.957031 165.882812 67.847656 165.882812 67.496094 Z M 165.882812 61.976562 "/>
<path fill-rule="nonzero" fill="rgb(25.881958%, 29.411316%, 30.979919%)" fill-opacity="1" d="M 169.78125 67.742188 C 169.78125 67.464844 169.550781 67.21875 169.273438 67.21875 C 168.980469 67.21875 168.75 67.464844 168.75 67.742188 C 168.75 68.035156 168.980469 68.265625 169.273438 68.265625 C 169.550781 68.265625 169.78125 68.035156 169.78125 67.742188 Z M 169.78125 67.742188 "/>
<path fill-rule="nonzero" fill="rgb(25.881958%, 29.411316%, 30.979919%)" fill-opacity="1" d="M 173.484375 64.796875 C 174.285156 64.535156 174.855469 63.859375 174.855469 63.070312 C 174.855469 62.269531 173.992188 61.714844 173.050781 61.714844 C 172.066406 61.714844 171.308594 62.300781 171.308594 63.054688 C 171.308594 63.378906 171.523438 63.566406 171.816406 63.566406 C 172.109375 63.566406 172.3125 63.347656 172.3125 63.054688 C 172.3125 62.578125 171.847656 62.578125 171.710938 62.578125 C 172.003906 62.085938 172.652344 61.960938 173.003906 61.960938 C 173.421875 61.960938 173.960938 62.175781 173.960938 63.054688 C 173.960938 63.179688 173.929688 63.75 173.683594 64.179688 C 173.390625 64.660156 173.050781 64.691406 172.804688 64.691406 C 172.726562 64.707031 172.496094 64.722656 172.417969 64.722656 C 172.34375 64.734375 172.28125 64.75 172.28125 64.84375 C 172.28125 64.953125 172.34375 64.953125 172.511719 64.953125 L 172.941406 64.953125 C 173.746094 64.953125 174.113281 65.613281 174.113281 66.585938 C 174.113281 67.925781 173.4375 68.203125 173.003906 68.203125 C 172.574219 68.203125 171.832031 68.035156 171.496094 67.464844 C 171.832031 67.511719 172.140625 67.292969 172.140625 66.925781 C 172.140625 66.570312 171.878906 66.371094 171.601562 66.371094 C 171.355469 66.371094 171.046875 66.507812 171.046875 66.941406 C 171.046875 67.835938 171.957031 68.480469 173.035156 68.480469 C 174.238281 68.480469 175.132812 67.585938 175.132812 66.585938 C 175.132812 65.785156 174.5 65.011719 173.484375 64.796875 Z M 173.484375 64.796875 "/>
<path fill-rule="nonzero" fill="rgb(25.881958%, 29.411316%, 30.979919%)" fill-opacity="1" d="M 152.324219 76.390625 C 152.464844 76.390625 152.816406 76.390625 152.816406 76.050781 C 152.816406 75.820312 152.601562 75.820312 152.433594 75.820312 L 150.183594 75.820312 C 148.703125 75.820312 147.609375 77.4375 147.609375 78.609375 C 147.609375 79.472656 148.195312 80.167969 149.085938 80.167969 C 150.242188 80.167969 151.554688 78.980469 151.554688 77.46875 C 151.554688 77.300781 151.554688 76.820312 151.246094 76.390625 Z M 149.101562 79.949219 C 148.609375 79.949219 148.226562 79.597656 148.226562 78.886719 C 148.226562 78.59375 148.332031 77.792969 148.6875 77.207031 C 149.101562 76.527344 149.6875 76.390625 150.027344 76.390625 C 150.84375 76.390625 150.921875 77.039062 150.921875 77.347656 C 150.921875 77.808594 150.722656 78.609375 150.398438 79.117188 C 150.011719 79.6875 149.472656 79.949219 149.101562 79.949219 Z M 149.101562 79.949219 "/>
<path fill-rule="nonzero" fill="rgb(25.881958%, 29.411316%, 30.979919%)" fill-opacity="1" d="M 161.050781 76.835938 C 161.203125 76.835938 161.386719 76.835938 161.386719 76.652344 C 161.386719 76.453125 161.203125 76.453125 161.0625 76.453125 L 155.175781 76.453125 C 155.039062 76.453125 154.851562 76.453125 154.851562 76.652344 C 154.851562 76.835938 155.039062 76.835938 155.175781 76.835938 Z M 161.0625 78.75 C 161.203125 78.75 161.386719 78.75 161.386719 78.546875 C 161.386719 78.363281 161.203125 78.363281 161.050781 78.363281 L 155.175781 78.363281 C 155.039062 78.363281 154.851562 78.363281 154.851562 78.546875 C 154.851562 78.75 155.039062 78.75 155.175781 78.75 Z M 161.0625 78.75 "/>
<path fill-rule="nonzero" fill="rgb(25.881958%, 29.411316%, 30.979919%)" fill-opacity="1" d="M 167.546875 76.914062 C 167.546875 76.128906 167.503906 75.34375 167.164062 74.617188 C 166.714844 73.660156 165.898438 73.507812 165.5 73.507812 C 164.898438 73.507812 164.1875 73.769531 163.773438 74.679688 C 163.464844 75.359375 163.417969 76.128906 163.417969 76.914062 C 163.417969 77.652344 163.449219 78.53125 163.863281 79.289062 C 164.28125 80.074219 165.003906 80.273438 165.484375 80.273438 C 166.007812 80.273438 166.761719 80.074219 167.195312 79.132812 C 167.503906 78.457031 167.546875 77.683594 167.546875 76.914062 Z M 165.484375 80.058594 C 165.097656 80.058594 164.511719 79.8125 164.34375 78.871094 C 164.234375 78.285156 164.234375 77.375 164.234375 76.789062 C 164.234375 76.160156 164.234375 75.511719 164.3125 74.988281 C 164.496094 73.816406 165.238281 73.722656 165.484375 73.722656 C 165.808594 73.722656 166.453125 73.910156 166.640625 74.878906 C 166.746094 75.433594 166.746094 76.175781 166.746094 76.789062 C 166.746094 77.53125 166.746094 78.195312 166.640625 78.824219 C 166.484375 79.765625 165.929688 80.058594 165.484375 80.058594 Z M 165.484375 80.058594 "/>
<path fill-rule="nonzero" fill="rgb(25.881958%, 29.411316%, 30.979919%)" fill-opacity="1" d="M 169.828125 79.535156 C 169.828125 79.257812 169.597656 79.011719 169.320312 79.011719 C 169.027344 79.011719 168.796875 79.257812 168.796875 79.535156 C 168.796875 79.828125 169.027344 80.058594 169.320312 80.058594 C 169.597656 80.058594 169.828125 79.828125 169.828125 79.535156 Z M 169.828125 79.535156 "/>
<path fill-rule="nonzero" fill="rgb(25.881958%, 29.411316%, 30.979919%)" fill-opacity="1" d="M 171.972656 76.835938 L 171.972656 76.589844 C 171.972656 74.109375 173.191406 73.753906 173.699219 73.753906 C 173.929688 73.753906 174.347656 73.816406 174.5625 74.15625 C 174.40625 74.15625 174.023438 74.15625 174.023438 74.585938 C 174.023438 74.894531 174.253906 75.050781 174.46875 75.050781 C 174.625 75.050781 174.933594 74.957031 174.933594 74.570312 C 174.933594 73.984375 174.5 73.507812 173.683594 73.507812 C 172.417969 73.507812 171.09375 74.773438 171.09375 76.945312 C 171.09375 79.582031 172.234375 80.273438 173.144531 80.273438 C 174.238281 80.273438 175.179688 79.347656 175.179688 78.054688 C 175.179688 76.804688 174.300781 75.867188 173.207031 75.867188 C 172.542969 75.867188 172.171875 76.359375 171.972656 76.835938 Z M 173.144531 79.996094 C 172.527344 79.996094 172.234375 79.410156 172.171875 79.257812 C 171.988281 78.792969 171.988281 78.007812 171.988281 77.839844 C 171.988281 77.066406 172.3125 76.082031 173.191406 76.082031 C 173.359375 76.082031 173.804688 76.082031 174.113281 76.699219 C 174.285156 77.054688 174.285156 77.5625 174.285156 78.039062 C 174.285156 78.515625 174.285156 79.011719 174.113281 79.363281 C 173.820312 79.949219 173.375 79.996094 173.144531 79.996094 Z M 173.144531 79.996094 "/>
<path fill="none" stroke-width="0.850394" stroke-linecap="butt" stroke-linejoin="miter" stroke="rgb(50.195312%, 50.195312%, 50.195312%)" stroke-opacity="1" stroke-miterlimit="4" d="M 21.851562 87.148438 L 19.320312 87.148438 "/>
<path fill="none" stroke-width="0.850394" stroke-linecap="butt" stroke-linejoin="round" stroke="rgb(1.176453%, 0%, 0%)" stroke-opacity="1" stroke-miterlimit="4" d="M 21.730469 2.800781 L 180.613281 2.800781 L 180.613281 129.835938 L 21.730469 129.835938 Z M 21.730469 2.800781 "/>
<path fill-rule="nonzero" fill="rgb(50.195312%, 50.195312%, 50.195312%)" fill-opacity="1" d="M 11.019531 6.039062 L 11.019531 0.574219 L 10.363281 0.574219 L 9.582031 1.207031 L 9.582031 1.824219 L 10.402344 1.15625 L 10.402344 6.039062 Z M 11.019531 6.039062 "/>
<path fill-rule="nonzero" fill="rgb(50.195312%, 50.195312%, 50.195312%)" fill-opacity="1" d="M 12.207031 5.230469 L 12.960938 5.230469 L 12.960938 6.039062 L 12.207031 6.039062 Z M 12.207031 5.230469 "/>
<path fill-rule="nonzero" fill="rgb(50.195312%, 50.195312%, 50.195312%)" fill-opacity="1" d="M 17.042969 4.304688 C 17.03125 3.1875 16.339844 2.457031 15.222656 2.457031 C 15.074219 2.46875 14.742188 2.507812 14.542969 2.582031 L 14.742188 1.144531 L 16.671875 1.144531 L 16.671875 0.574219 L 14.34375 0.574219 L 14.007812 3.273438 C 14.441406 3.066406 14.542969 3.015625 15.097656 3.015625 C 15.90625 3.015625 16.472656 3.460938 16.472656 4.304688 C 16.472656 5.171875 15.917969 5.589844 15.097656 5.589844 C 14.554688 5.589844 14.195312 5.480469 13.800781 5.230469 L 13.800781 5.914062 C 14.15625 6.050781 14.691406 6.148438 15.113281 6.148438 C 16.289062 6.148438 17.042969 5.503906 17.042969 4.304688 Z M 17.042969 4.304688 "/>
<path fill-rule="nonzero" fill="rgb(50.195312%, 50.195312%, 50.195312%)" fill-opacity="1" d="M 10.949219 47.871094 L 10.949219 42.40625 L 10.292969 42.40625 L 9.515625 43.039062 L 9.515625 43.660156 L 10.332031 42.988281 L 10.332031 47.871094 Z M 10.949219 47.871094 "/>
<path fill-rule="nonzero" fill="rgb(50.195312%, 50.195312%, 50.195312%)" fill-opacity="1" d="M 12.136719 47.066406 L 12.894531 47.066406 L 12.894531 47.871094 L 12.136719 47.871094 Z M 12.136719 47.066406 "/>
<path fill-rule="nonzero" fill="rgb(50.195312%, 50.195312%, 50.195312%)" fill-opacity="1" d="M 17.371094 45.15625 C 17.359375 43.992188 17.097656 42.308594 15.625 42.308594 C 14.152344 42.308594 13.902344 44.019531 13.902344 45.15625 C 13.902344 46.308594 14.164062 47.980469 15.625 47.980469 C 17.085938 47.980469 17.371094 46.308594 17.371094 45.15625 Z M 16.800781 45.15625 C 16.800781 45.914062 16.738281 47.460938 15.625 47.460938 C 14.511719 47.460938 14.472656 45.886719 14.472656 45.15625 C 14.472656 44.414062 14.496094 42.816406 15.625 42.816406 C 16.738281 42.816406 16.800781 44.425781 16.800781 45.15625 Z M 16.800781 45.15625 "/>
<path fill-rule="nonzero" fill="rgb(50.195312%, 50.195312%, 50.195312%)" fill-opacity="1" d="M 11.4375 87.164062 C 11.425781 86 11.164062 84.3125 9.691406 84.3125 C 8.214844 84.3125 7.96875 86.023438 7.96875 87.164062 C 7.96875 88.3125 8.230469 89.988281 9.691406 89.988281 C 11.152344 89.988281 11.4375 88.3125 11.4375 87.164062 Z M 10.867188 87.164062 C 10.867188 87.917969 10.804688 89.464844 9.691406 89.464844 C 8.574219 89.464844 8.539062 87.894531 8.539062 87.164062 C 8.539062 86.417969 8.5625 84.820312 9.691406 84.820312 C 10.804688 84.820312 10.867188 86.433594 10.867188 87.164062 Z M 10.867188 87.164062 "/>
<path fill-rule="nonzero" fill="rgb(50.195312%, 50.195312%, 50.195312%)" fill-opacity="1" d="M 12.449219 89.070312 L 13.207031 89.070312 L 13.207031 89.875 L 12.449219 89.875 Z M 12.449219 89.070312 "/>
<path fill-rule="nonzero" fill="rgb(50.195312%, 50.195312%, 50.195312%)" fill-opacity="1" d="M 17.289062 88.140625 C 17.273438 87.027344 16.582031 86.296875 15.464844 86.296875 C 15.316406 86.308594 14.984375 86.34375 14.785156 86.417969 L 14.984375 84.984375 L 16.914062 84.984375 L 16.914062 84.414062 L 14.585938 84.414062 L 14.253906 87.113281 C 14.6875 86.902344 14.785156 86.851562 15.34375 86.851562 C 16.148438 86.851562 16.71875 87.296875 16.71875 88.140625 C 16.71875 89.007812 16.160156 89.429688 15.34375 89.429688 C 14.796875 89.429688 14.4375 89.316406 14.042969 89.070312 L 14.042969 89.75 C 14.402344 89.886719 14.933594 89.988281 15.355469 89.988281 C 16.53125 89.988281 17.289062 89.34375 17.289062 88.140625 Z M 17.289062 88.140625 "/>
<path fill-rule="nonzero" fill="rgb(50.195312%, 50.195312%, 50.195312%)" fill-opacity="1" d="M 11.238281 129.816406 C 11.226562 128.652344 10.964844 126.96875 9.492188 126.96875 C 8.019531 126.96875 7.769531 128.679688 7.769531 129.816406 C 7.769531 130.96875 8.03125 132.640625 9.492188 132.640625 C 10.953125 132.640625 11.238281 130.96875 11.238281 129.816406 Z M 10.667969 129.816406 C 10.667969 130.574219 10.605469 132.121094 9.492188 132.121094 C 8.378906 132.121094 8.339844 130.546875 8.339844 129.816406 C 8.339844 129.074219 8.363281 127.476562 9.492188 127.476562 C 10.605469 127.476562 10.667969 129.085938 10.667969 129.816406 Z M 10.667969 129.816406 "/>
<path fill-rule="nonzero" fill="rgb(50.195312%, 50.195312%, 50.195312%)" fill-opacity="1" d="M 12.25 131.726562 L 13.007812 131.726562 L 13.007812 132.53125 L 12.25 132.53125 Z M 12.25 131.726562 "/>
<path fill-rule="nonzero" fill="rgb(50.195312%, 50.195312%, 50.195312%)" fill-opacity="1" d="M 17.484375 129.816406 C 17.472656 128.652344 17.214844 126.96875 15.738281 126.96875 C 14.265625 126.96875 14.015625 128.679688 14.015625 129.816406 C 14.015625 130.96875 14.277344 132.640625 15.738281 132.640625 C 17.199219 132.640625 17.484375 130.96875 17.484375 129.816406 Z M 16.914062 129.816406 C 16.914062 130.574219 16.855469 132.121094 15.738281 132.121094 C 14.625 132.121094 14.585938 130.546875 14.585938 129.816406 C 14.585938 129.074219 14.613281 127.476562 15.738281 127.476562 C 16.855469 127.476562 16.914062 129.085938 16.914062 129.816406 Z M 16.914062 129.816406 "/>
<path fill-rule="nonzero" fill="rgb(50.195312%, 50.195312%, 50.195312%)" fill-opacity="1" d="M 17.621094 136.40625 L 19.417969 136.40625 L 19.417969 136.925781 L 17.621094 136.925781 Z M 17.621094 136.40625 "/>
<path fill-rule="nonzero" fill="rgb(50.195312%, 50.195312%, 50.195312%)" fill-opacity="1" d="M 23.507812 136.867188 C 23.507812 136.257812 23.136719 135.699219 22.445312 135.503906 C 23.039062 135.28125 23.386719 134.847656 23.386719 134.277344 C 23.386719 133.324219 22.59375 132.890625 21.726562 132.890625 C 21.292969 132.890625 20.757812 132.988281 20.375 133.113281 L 20.375 133.71875 C 20.796875 133.570312 21.15625 133.445312 21.664062 133.445312 C 22.308594 133.445312 22.828125 133.683594 22.828125 134.375 C 22.816406 135.007812 22.308594 135.265625 21.6875 135.265625 L 21.105469 135.265625 L 21.105469 135.800781 L 21.664062 135.800781 C 22.382812 135.800781 22.953125 136.109375 22.953125 136.867188 C 22.953125 137.757812 22.332031 138.003906 21.527344 138.003906 C 20.957031 138.003906 20.609375 137.90625 20.214844 137.632812 L 20.214844 138.300781 C 20.609375 138.4375 21.070312 138.5625 21.539062 138.5625 C 22.640625 138.5625 23.507812 138.066406 23.507812 136.867188 Z M 23.507812 136.867188 "/>
<path fill-rule="nonzero" fill="rgb(50.195312%, 50.195312%, 50.195312%)" fill-opacity="1" d="M 182.261719 136.867188 C 182.261719 136.257812 181.886719 135.699219 181.195312 135.503906 C 181.789062 135.28125 182.136719 134.847656 182.136719 134.277344 C 182.136719 133.324219 181.34375 132.890625 180.476562 132.890625 C 180.042969 132.890625 179.511719 132.988281 179.125 133.113281 L 179.125 133.71875 C 179.546875 133.570312 179.90625 133.445312 180.414062 133.445312 C 181.058594 133.445312 181.578125 133.683594 181.578125 134.375 C 181.566406 135.007812 181.058594 135.265625 180.4375 135.265625 L 179.855469 135.265625 L 179.855469 135.800781 L 180.414062 135.800781 C 181.132812 135.800781 181.703125 136.109375 181.703125 136.867188 C 181.703125 137.757812 181.082031 138.003906 180.277344 138.003906 C 179.707031 138.003906 179.363281 137.90625 178.964844 137.632812 L 178.964844 138.300781 C 179.363281 138.4375 179.820312 138.5625 180.289062 138.5625 C 181.394531 138.5625 182.261719 138.066406 182.261719 136.867188 Z M 182.261719 136.867188 "/>
<path fill-rule="nonzero" fill="rgb(50.195312%, 50.195312%, 50.195312%)" fill-opacity="1" d="M 102.957031 135.738281 C 102.945312 134.574219 102.6875 132.890625 101.210938 132.890625 C 99.738281 132.890625 99.492188 134.597656 99.492188 135.738281 C 99.492188 136.890625 99.75 138.5625 101.210938 138.5625 C 102.675781 138.5625 102.957031 136.890625 102.957031 135.738281 Z M 102.390625 135.738281 C 102.390625 136.492188 102.328125 138.042969 101.210938 138.042969 C 100.097656 138.042969 100.058594 136.46875 100.058594 135.738281 C 100.058594 134.996094 100.085938 133.398438 101.210938 133.398438 C 102.328125 133.398438 102.390625 135.007812 102.390625 135.738281 Z M 102.390625 135.738281 "/>
</svg>
