<?xml version="1.0" encoding="UTF-8"?>
<svg xmlns="http://www.w3.org/2000/svg" xmlns:xlink="http://www.w3.org/1999/xlink" width="184.161133pt" height="110.625763pt" viewBox="0 0 184.161133 110.625763">
<defs>
<clipPath id="clip-0">
<path clip-rule="nonzero" d="M 58 105 L 64 105 L 64 110.625 L 58 110.625 Z M 58 105 "/>
</clipPath>
<clipPath id="clip-1">
<path clip-rule="nonzero" d="M 79 102 L 84 102 L 84 110.625 L 79 110.625 Z M 79 102 "/>
</clipPath>
<clipPath id="clip-2">
<path clip-rule="nonzero" d="M 111 105 L 117 105 L 117 110.625 L 111 110.625 Z M 111 105 "/>
</clipPath>
<clipPath id="clip-3">
<path clip-rule="nonzero" d="M 132 102 L 137 102 L 137 110.625 L 132 110.625 Z M 132 102 "/>
</clipPath>
</defs>
<path fill="none" stroke-width="0.566929" stroke-linecap="butt" stroke-linejoin="miter" stroke="rgb(25.881958%, 29.411316%, 30.979919%)" stroke-opacity="1" stroke-dasharray="0.566929 0.566929" stroke-miterlimit="4" d="M -94.253906 24.921875 L -90.519531 24.921875 " transform="matrix(-1, 0, 0, 1, 0, 0)"/>
<path fill="none" stroke-width="0.850394" stroke-linecap="butt" stroke-linejoin="miter" stroke="rgb(50.195312%, 50.195312%, 50.195312%)" stroke-opacity="1" stroke-miterlimit="4" d="M 37.335938 4.558594 L 34.804688 4.558594 "/>
<path fill="none" stroke-width="0.850394" stroke-linecap="butt" stroke-linejoin="miter" stroke="rgb(50.195312%, 50.195312%, 50.195312%)" stroke-opacity="1" stroke-miterlimit="4" d="M 37.601562 47.445312 L 35.070312 47.445312 "/>
<path fill="none" stroke-width="0.850394" stroke-linecap="butt" stroke-linejoin="miter" stroke="rgb(50.195312%, 50.195312%, 50.195312%)" stroke-opacity="1" stroke-miterlimit="4" d="M 37.484375 101.117188 L 34.953125 101.117188 "/>
<path fill="none" stroke-width="0.850394" stroke-linecap="butt" stroke-linejoin="miter" stroke="rgb(50.195312%, 50.195312%, 50.195312%)" stroke-opacity="1" stroke-miterlimit="4" d="M 37.601562 36.722656 L 35.875 36.722656 "/>
<path fill="none" stroke-width="0.850394" stroke-linecap="butt" stroke-linejoin="miter" stroke="rgb(50.195312%, 50.195312%, 50.195312%)" stroke-opacity="1" stroke-miterlimit="4" d="M 37.601562 58.164062 L 35.875 58.164062 "/>
<path fill="none" stroke-width="0.850394" stroke-linecap="butt" stroke-linejoin="miter" stroke="rgb(50.195312%, 50.195312%, 50.195312%)" stroke-opacity="1" stroke-miterlimit="4" d="M 37.601562 68.886719 L 35.875 68.886719 "/>
<path fill="none" stroke-width="0.850394" stroke-linecap="butt" stroke-linejoin="miter" stroke="rgb(50.195312%, 50.195312%, 50.195312%)" stroke-opacity="1" stroke-miterlimit="4" d="M 37.601562 79.605469 L 35.875 79.605469 "/>
<path fill="none" stroke-width="0.850394" stroke-linecap="butt" stroke-linejoin="miter" stroke="rgb(50.195312%, 50.195312%, 50.195312%)" stroke-opacity="1" stroke-miterlimit="4" d="M 37.601562 90.328125 L 35.875 90.328125 "/>
<path fill-rule="nonzero" fill="rgb(0%, 0%, 0%)" fill-opacity="1" d="M 24.9375 63.390625 L 24.9375 61.472656 C 24.9375 59.890625 23.773438 58.324219 22.527344 58.324219 C 21.644531 58.324219 20.820312 59.0625 20.820312 60.539062 L 20.820312 64.164062 C 20.820312 64.375 20.820312 64.5 21.03125 64.5 C 21.171875 64.5 21.171875 64.410156 21.171875 64.183594 C 21.171875 64.042969 21.1875 63.832031 21.1875 63.707031 C 21.222656 63.515625 21.242188 63.460938 21.382812 63.460938 C 21.417969 63.460938 21.453125 63.460938 21.59375 63.496094 L 27.609375 65.011719 C 28.050781 65.117188 28.140625 65.132812 28.140625 66.03125 C 28.140625 66.207031 28.140625 66.328125 28.351562 66.328125 C 28.492188 66.328125 28.492188 66.207031 28.492188 66.171875 C 28.492188 65.855469 28.457031 65.0625 28.457031 64.746094 C 28.457031 64.5 28.472656 64.253906 28.472656 64.023438 C 28.472656 63.777344 28.492188 63.53125 28.492188 63.304688 C 28.492188 63.214844 28.492188 63.074219 28.261719 63.074219 C 28.140625 63.074219 28.140625 63.179688 28.140625 63.390625 C 28.140625 63.796875 28.140625 64.113281 27.945312 64.113281 C 27.875 64.113281 27.824219 64.09375 27.753906 64.078125 Z M 21.59375 62.582031 C 21.207031 62.476562 21.171875 62.457031 21.171875 61.964844 L 21.171875 60.894531 C 21.171875 59.960938 21.46875 59.363281 22.246094 59.363281 C 22.683594 59.363281 23.652344 59.589844 24.058594 60.03125 C 24.566406 60.59375 24.65625 61.261719 24.65625 61.753906 L 24.65625 63.339844 Z M 21.59375 62.582031 "/>
<path fill-rule="nonzero" fill="rgb(0%, 0%, 0%)" fill-opacity="1" d="M 27.824219 57.039062 C 28 57.074219 28.261719 57.144531 28.316406 57.144531 C 28.507812 57.144531 28.613281 56.988281 28.613281 56.8125 C 28.613281 56.671875 28.527344 56.476562 28.296875 56.386719 C 28.261719 56.371094 26.730469 56 26.519531 55.949219 C 26.152344 55.859375 25.375 55.648438 25.058594 55.597656 C 24.917969 55.542969 24.390625 55.226562 24.144531 54.964844 C 24.074219 54.875 23.773438 54.539062 23.773438 54.066406 C 23.773438 53.765625 23.917969 53.609375 23.917969 53.589844 C 23.96875 53.925781 24.234375 54.171875 24.53125 54.171875 C 24.707031 54.171875 24.917969 54.046875 24.917969 53.75 C 24.917969 53.449219 24.65625 53.132812 24.25 53.132812 C 23.863281 53.132812 23.527344 53.484375 23.527344 54.066406 C 23.527344 54.789062 24.074219 55.28125 24.390625 55.492188 C 23.878906 55.597656 23.527344 56 23.527344 56.53125 C 23.527344 57.039062 23.96875 57.25 24.164062 57.355469 C 24.550781 57.550781 25.21875 57.691406 25.253906 57.691406 C 25.375 57.691406 25.375 57.585938 25.375 57.566406 C 25.375 57.445312 25.359375 57.445312 25.113281 57.375 C 24.320312 57.179688 23.773438 56.953125 23.773438 56.546875 C 23.773438 56.371094 23.863281 56.210938 24.285156 56.210938 C 24.53125 56.210938 24.65625 56.246094 25.234375 56.386719 Z M 27.824219 57.039062 "/>
<path fill-rule="nonzero" fill="rgb(0%, 0%, 0%)" fill-opacity="1" d="M 31.183594 48.9375 C 31.148438 48.9375 31.128906 48.9375 30.9375 49.132812 C 29.527344 50.523438 27.398438 50.890625 25.675781 50.890625 C 23.722656 50.890625 21.769531 50.46875 20.378906 49.078125 C 20.238281 48.9375 20.222656 48.9375 20.1875 48.9375 C 20.097656 48.9375 20.0625 48.972656 20.0625 49.042969 C 20.0625 49.167969 20.835938 50.171875 22.261719 50.839844 C 23.492188 51.402344 24.742188 51.542969 25.675781 51.542969 C 26.554688 51.542969 27.910156 51.421875 29.195312 50.804688 C 30.566406 50.117188 31.304688 49.167969 31.304688 49.042969 C 31.304688 48.972656 31.269531 48.9375 31.183594 48.9375 Z M 31.183594 48.9375 "/>
<path fill-rule="nonzero" fill="rgb(0%, 0%, 0%)" fill-opacity="1" d="M 27.558594 46.792969 C 26.90625 46.195312 26.625 45.859375 26.273438 45.457031 C 26.273438 45.457031 25.675781 44.769531 25.269531 44.367188 C 24.234375 43.292969 23.6875 43.046875 23.632812 43.046875 C 23.527344 43.046875 23.527344 43.152344 23.527344 43.167969 C 23.527344 43.257812 23.546875 43.273438 23.652344 43.34375 C 24.199219 43.679688 24.375 43.90625 24.375 44.171875 C 24.375 44.453125 24.199219 44.578125 24.003906 44.753906 C 23.757812 44.964844 23.527344 45.15625 23.527344 45.527344 C 23.527344 46.371094 24.566406 46.882812 24.8125 46.882812 C 24.867188 46.882812 24.9375 46.847656 24.9375 46.757812 C 24.9375 46.652344 24.882812 46.636719 24.8125 46.601562 C 24.285156 46.390625 24.285156 45.738281 24.285156 45.648438 C 24.285156 45.421875 24.355469 45.210938 24.445312 44.945312 C 24.621094 44.488281 24.621094 44.367188 24.621094 44.082031 C 25.09375 44.488281 25.90625 45.421875 26.082031 45.632812 L 27.03125 46.652344 C 27.789062 47.410156 28.421875 47.8125 28.507812 47.8125 C 28.613281 47.8125 28.613281 47.691406 28.613281 47.671875 C 28.613281 47.585938 28.597656 47.566406 28.472656 47.496094 C 28.070312 47.234375 27.769531 46.898438 27.769531 46.53125 C 27.769531 46.285156 27.875 46.160156 28.191406 45.878906 C 28.4375 45.703125 28.613281 45.492188 28.613281 45.175781 C 28.613281 44.046875 27.1875 43.398438 26.890625 43.398438 C 26.835938 43.398438 26.765625 43.449219 26.765625 43.539062 C 26.765625 43.644531 26.835938 43.660156 26.925781 43.695312 C 27.644531 43.960938 27.859375 44.683594 27.859375 45.050781 C 27.859375 45.261719 27.789062 45.472656 27.71875 45.703125 C 27.574219 46.089844 27.523438 46.265625 27.523438 46.496094 C 27.523438 46.511719 27.523438 46.6875 27.558594 46.792969 Z M 27.558594 46.792969 "/>
<path fill-rule="nonzero" fill="rgb(0%, 0%, 0%)" fill-opacity="1" d="M 25.675781 39.339844 C 24.8125 39.339844 23.457031 39.464844 22.175781 40.078125 C 20.800781 40.75 20.0625 41.714844 20.0625 41.820312 C 20.0625 41.890625 20.117188 41.945312 20.1875 41.945312 C 20.222656 41.945312 20.238281 41.945312 20.449219 41.734375 C 21.558594 40.625 23.335938 39.992188 25.675781 39.992188 C 27.609375 39.992188 29.582031 40.398438 30.988281 41.785156 C 31.128906 41.945312 31.148438 41.945312 31.183594 41.945312 C 31.253906 41.945312 31.304688 41.890625 31.304688 41.820312 C 31.304688 41.714844 30.53125 40.695312 29.105469 40.042969 C 27.875 39.464844 26.625 39.339844 25.675781 39.339844 Z M 25.675781 39.339844 "/>
<path fill="none" stroke-width="0.850394" stroke-linecap="butt" stroke-linejoin="miter" stroke="rgb(50.195312%, 50.195312%, 50.195312%)" stroke-opacity="1" stroke-miterlimit="4" d="M 37.601562 26 L 35.875 26 "/>
<path fill="none" stroke-width="0.850394" stroke-linecap="butt" stroke-linejoin="miter" stroke="rgb(50.195312%, 50.195312%, 50.195312%)" stroke-opacity="1" stroke-miterlimit="4" d="M 37.601562 15.28125 L 35.875 15.28125 "/>
<g clip-path="url(#clip-0)">
<path fill-rule="nonzero" fill="rgb(0%, 0%, 0%)" fill-opacity="1" d="M 59.535156 109.394531 C 60.132812 108.746094 60.464844 108.464844 60.871094 108.109375 C 60.871094 108.109375 61.558594 107.511719 61.960938 107.109375 C 63.035156 106.070312 63.28125 105.523438 63.28125 105.472656 C 63.28125 105.367188 63.175781 105.367188 63.160156 105.367188 C 63.070312 105.367188 63.054688 105.382812 62.984375 105.488281 C 62.648438 106.035156 62.417969 106.210938 62.15625 106.210938 C 61.875 106.210938 61.75 106.035156 61.574219 105.839844 C 61.363281 105.59375 61.171875 105.367188 60.800781 105.367188 C 59.957031 105.367188 59.445312 106.402344 59.445312 106.652344 C 59.445312 106.703125 59.480469 106.773438 59.570312 106.773438 C 59.675781 106.773438 59.691406 106.722656 59.726562 106.652344 C 59.9375 106.121094 60.589844 106.121094 60.675781 106.121094 C 60.90625 106.121094 61.117188 106.191406 61.382812 106.28125 C 61.839844 106.457031 61.960938 106.457031 62.242188 106.457031 C 61.839844 106.933594 60.90625 107.742188 60.695312 107.917969 L 59.675781 108.867188 C 58.917969 109.625 58.511719 110.257812 58.511719 110.347656 C 58.511719 110.453125 58.636719 110.453125 58.652344 110.453125 C 58.742188 110.453125 58.757812 110.433594 58.828125 110.3125 C 59.09375 109.90625 59.429688 109.605469 59.796875 109.605469 C 60.042969 109.605469 60.167969 109.710938 60.449219 110.027344 C 60.625 110.277344 60.835938 110.453125 61.152344 110.453125 C 62.277344 110.453125 62.929688 109.027344 62.929688 108.726562 C 62.929688 108.675781 62.875 108.605469 62.789062 108.605469 C 62.683594 108.605469 62.664062 108.675781 62.628906 108.761719 C 62.367188 109.484375 61.644531 109.695312 61.277344 109.695312 C 61.066406 109.695312 60.851562 109.625 60.625 109.554688 C 60.238281 109.414062 60.0625 109.359375 59.832031 109.359375 C 59.816406 109.359375 59.640625 109.359375 59.535156 109.394531 Z M 59.535156 109.394531 "/>
</g>
<path fill-rule="nonzero" fill="rgb(0%, 0%, 0%)" fill-opacity="1" d="M 74.574219 106.652344 C 74.75 106.652344 74.960938 106.652344 74.960938 106.4375 C 74.960938 106.210938 74.75 106.210938 74.589844 106.210938 L 67.867188 106.210938 C 67.710938 106.210938 67.5 106.210938 67.5 106.4375 C 67.5 106.652344 67.710938 106.652344 67.867188 106.652344 Z M 74.589844 108.832031 C 74.75 108.832031 74.960938 108.832031 74.960938 108.605469 C 74.960938 108.394531 74.75 108.394531 74.574219 108.394531 L 67.867188 108.394531 C 67.710938 108.394531 67.5 108.394531 67.5 108.605469 C 67.5 108.832031 67.710938 108.832031 67.867188 108.832031 Z M 74.589844 108.832031 "/>
<g clip-path="url(#clip-1)">
<path fill-rule="nonzero" fill="rgb(0%, 0%, 0%)" fill-opacity="1" d="M 83.867188 106.738281 C 83.867188 105.839844 83.8125 104.945312 83.425781 104.117188 C 82.917969 103.027344 81.984375 102.851562 81.527344 102.851562 C 80.839844 102.851562 80.03125 103.148438 79.554688 104.1875 C 79.203125 104.960938 79.152344 105.839844 79.152344 106.738281 C 79.152344 107.582031 79.1875 108.585938 79.660156 109.449219 C 80.136719 110.347656 80.964844 110.574219 81.507812 110.574219 C 82.105469 110.574219 82.96875 110.347656 83.460938 109.273438 C 83.8125 108.5 83.867188 107.617188 83.867188 106.738281 Z M 81.507812 110.328125 C 81.070312 110.328125 80.402344 110.046875 80.207031 108.972656 C 80.082031 108.304688 80.082031 107.265625 80.082031 106.597656 C 80.082031 105.875 80.082031 105.136719 80.171875 104.539062 C 80.382812 103.203125 81.226562 103.097656 81.507812 103.097656 C 81.878906 103.097656 82.617188 103.308594 82.828125 104.414062 C 82.953125 105.050781 82.953125 105.894531 82.953125 106.597656 C 82.953125 107.441406 82.953125 108.199219 82.828125 108.921875 C 82.652344 109.992188 82.019531 110.328125 81.507812 110.328125 Z M 81.507812 110.328125 "/>
</g>
<g clip-path="url(#clip-2)">
<path fill-rule="nonzero" fill="rgb(0%, 0%, 0%)" fill-opacity="1" d="M 112.722656 109.457031 C 113.320312 108.804688 113.65625 108.523438 114.058594 108.171875 C 114.058594 108.171875 114.746094 107.574219 115.152344 107.167969 C 116.226562 106.132812 116.472656 105.585938 116.472656 105.535156 C 116.472656 105.425781 116.367188 105.425781 116.347656 105.425781 C 116.261719 105.425781 116.242188 105.445312 116.171875 105.550781 C 115.835938 106.097656 115.609375 106.273438 115.34375 106.273438 C 115.0625 106.273438 114.941406 106.097656 114.765625 105.902344 C 114.554688 105.65625 114.359375 105.425781 113.988281 105.425781 C 113.144531 105.425781 112.636719 106.464844 112.636719 106.710938 C 112.636719 106.765625 112.671875 106.835938 112.757812 106.835938 C 112.863281 106.835938 112.882812 106.78125 112.917969 106.710938 C 113.128906 106.183594 113.777344 106.183594 113.867188 106.183594 C 114.09375 106.183594 114.308594 106.253906 114.570312 106.34375 C 115.027344 106.519531 115.152344 106.519531 115.433594 106.519531 C 115.027344 106.992188 114.09375 107.804688 113.882812 107.980469 L 112.863281 108.929688 C 112.105469 109.6875 111.703125 110.320312 111.703125 110.40625 C 111.703125 110.511719 111.824219 110.511719 111.84375 110.511719 C 111.929688 110.511719 111.949219 110.496094 112.019531 110.371094 C 112.285156 109.96875 112.617188 109.667969 112.988281 109.667969 C 113.234375 109.667969 113.355469 109.773438 113.636719 110.089844 C 113.8125 110.335938 114.023438 110.511719 114.34375 110.511719 C 115.46875 110.511719 116.121094 109.085938 116.121094 108.789062 C 116.121094 108.734375 116.066406 108.664062 115.976562 108.664062 C 115.871094 108.664062 115.855469 108.734375 115.820312 108.824219 C 115.554688 109.546875 114.835938 109.757812 114.464844 109.757812 C 114.253906 109.757812 114.042969 109.6875 113.8125 109.617188 C 113.425781 109.476562 113.25 109.421875 113.023438 109.421875 C 113.003906 109.421875 112.828125 109.421875 112.722656 109.457031 Z M 112.722656 109.457031 "/>
</g>
<path fill-rule="nonzero" fill="rgb(0%, 0%, 0%)" fill-opacity="1" d="M 127.761719 106.710938 C 127.9375 106.710938 128.148438 106.710938 128.148438 106.5 C 128.148438 106.273438 127.9375 106.273438 127.78125 106.273438 L 121.058594 106.273438 C 120.898438 106.273438 120.6875 106.273438 120.6875 106.5 C 120.6875 106.710938 120.898438 106.710938 121.058594 106.710938 Z M 127.78125 108.894531 C 127.9375 108.894531 128.148438 108.894531 128.148438 108.664062 C 128.148438 108.453125 127.9375 108.453125 127.761719 108.453125 L 121.058594 108.453125 C 120.898438 108.453125 120.6875 108.453125 120.6875 108.664062 C 120.6875 108.894531 120.898438 108.894531 121.058594 108.894531 Z M 127.78125 108.894531 "/>
<g clip-path="url(#clip-3)">
<path fill-rule="nonzero" fill="rgb(0%, 0%, 0%)" fill-opacity="1" d="M 135.207031 103.210938 C 135.207031 102.929688 135.207031 102.910156 134.945312 102.910156 C 134.242188 103.632812 133.253906 103.632812 132.902344 103.632812 L 132.902344 103.984375 C 133.132812 103.984375 133.785156 103.984375 134.363281 103.6875 L 134.363281 109.511719 C 134.363281 109.914062 134.328125 110.039062 133.324219 110.039062 L 132.972656 110.039062 L 132.972656 110.390625 C 133.359375 110.355469 134.328125 110.355469 134.785156 110.355469 C 135.226562 110.355469 136.210938 110.355469 136.597656 110.390625 L 136.597656 110.039062 L 136.246094 110.039062 C 135.226562 110.039062 135.207031 109.914062 135.207031 109.511719 Z M 135.207031 103.210938 "/>
</g>
<path fill-rule="nonzero" fill="rgb(81.959534%, 51.371765%, 38.430786%)" fill-opacity="1" d="M 52.332031 24.921875 L 90.300781 24.921875 L 90.300781 100.859375 L 52.332031 100.859375 Z M 52.332031 24.921875 "/>
<path fill="none" stroke-width="0.566929" stroke-linecap="butt" stroke-linejoin="miter" stroke="rgb(46.665955%, 23.529053%, 13.725281%)" stroke-opacity="1" stroke-miterlimit="4" d="M 52.332031 100.859375 L 52.332031 24.921875 L 90.300781 24.921875 L 90.300781 100.859375 "/>
<path fill-rule="nonzero" fill="rgb(81.959534%, 51.371765%, 38.430786%)" fill-opacity="1" d="M 105.292969 80.292969 L 143.261719 80.292969 L 143.261719 100.859375 L 105.292969 100.859375 Z M 105.292969 80.292969 "/>
<path fill="none" stroke-width="0.566929" stroke-linecap="butt" stroke-linejoin="miter" stroke="rgb(46.665955%, 23.529053%, 13.725281%)" stroke-opacity="1" stroke-miterlimit="4" d="M 105.292969 100.859375 L 105.292969 80.347656 L 143.261719 80.347656 L 143.261719 100.859375 "/>
<path fill-rule="nonzero" fill="rgb(25.881958%, 29.411316%, 30.979919%)" fill-opacity="1" d="M 98.117188 21.863281 C 98.117188 21.582031 98.117188 21.5625 97.855469 21.5625 C 97.148438 22.285156 96.164062 22.285156 95.8125 22.285156 L 95.8125 22.636719 C 96.042969 22.636719 96.691406 22.636719 97.273438 22.335938 L 97.273438 28.160156 C 97.273438 28.566406 97.238281 28.691406 96.234375 28.691406 L 95.882812 28.691406 L 95.882812 29.042969 C 96.269531 29.007812 97.238281 29.007812 97.695312 29.007812 C 98.136719 29.007812 99.121094 29.007812 99.507812 29.042969 L 99.507812 28.691406 L 99.15625 28.691406 C 98.136719 28.691406 98.117188 28.566406 98.117188 28.160156 Z M 98.117188 21.863281 "/>
<path fill-rule="nonzero" fill="rgb(25.881958%, 29.411316%, 30.979919%)" fill-opacity="1" d="M 110.304688 26.453125 C 110.496094 26.453125 110.707031 26.453125 110.707031 26.226562 C 110.707031 26.015625 110.496094 26.015625 110.304688 26.015625 L 104.234375 26.015625 C 104.039062 26.015625 103.847656 26.015625 103.847656 26.226562 C 103.847656 26.453125 104.039062 26.453125 104.234375 26.453125 Z M 110.304688 26.453125 "/>
<path fill-rule="nonzero" fill="rgb(25.881958%, 29.411316%, 30.979919%)" fill-opacity="1" d="M 118.144531 25.769531 C 118.601562 26.949219 119.148438 28.652344 119.324219 28.917969 C 119.5 29.164062 119.605469 29.164062 119.921875 29.164062 L 120.167969 29.164062 C 120.273438 29.148438 120.292969 29.09375 120.292969 29.058594 C 120.292969 29.023438 120.257812 28.988281 120.222656 28.953125 C 120.113281 28.832031 120.042969 28.652344 119.972656 28.441406 L 117.6875 22.054688 C 117.441406 21.40625 116.84375 21.246094 116.3125 21.246094 C 116.261719 21.246094 116.101562 21.246094 116.101562 21.371094 C 116.101562 21.457031 116.191406 21.492188 116.207031 21.492188 C 116.578125 21.546875 116.667969 21.617188 116.949219 22.390625 L 118.019531 25.433594 L 114.925781 28.511719 C 114.800781 28.652344 114.730469 28.707031 114.730469 28.867188 C 114.730469 29.058594 114.890625 29.183594 115.066406 29.183594 C 115.242188 29.183594 115.347656 29.058594 115.433594 28.953125 Z M 118.144531 25.769531 "/>
<path fill-rule="nonzero" fill="rgb(25.881958%, 29.411316%, 30.979919%)" fill-opacity="1" d="M 151.363281 80.773438 C 151.820312 81.949219 152.367188 83.65625 152.542969 83.921875 C 152.71875 84.167969 152.824219 84.167969 153.140625 84.167969 L 153.386719 84.167969 C 153.492188 84.148438 153.511719 84.097656 153.511719 84.0625 C 153.511719 84.027344 153.476562 83.992188 153.441406 83.957031 C 153.332031 83.832031 153.261719 83.65625 153.191406 83.445312 L 150.90625 77.058594 C 150.660156 76.40625 150.0625 76.25 149.535156 76.25 C 149.480469 76.25 149.320312 76.25 149.320312 76.371094 C 149.320312 76.460938 149.410156 76.496094 149.425781 76.496094 C 149.796875 76.546875 149.886719 76.617188 150.167969 77.394531 L 151.238281 80.4375 L 148.144531 83.515625 C 148.019531 83.65625 147.949219 83.710938 147.949219 83.867188 C 147.949219 84.0625 148.109375 84.183594 148.285156 84.183594 C 148.460938 84.183594 148.566406 84.0625 148.652344 83.957031 Z M 151.363281 80.773438 "/>
<path fill="none" stroke-width="0.850394" stroke-linecap="butt" stroke-linejoin="round" stroke="rgb(1.176453%, 0%, 0%)" stroke-opacity="1" stroke-miterlimit="4" d="M 37.414062 4.554688 L 158.179688 4.554688 L 158.179688 101.117188 L 37.414062 101.117188 Z M 37.414062 4.554688 "/>
<path fill="none" stroke-width="0.566929" stroke-linecap="butt" stroke-linejoin="miter" stroke="rgb(25.881958%, 29.411316%, 30.979919%)" stroke-opacity="1" stroke-dasharray="0.566929 0.566929" stroke-miterlimit="4" d="M 143.261719 80.347656 L 147 80.347656 "/>
<path fill-rule="nonzero" fill="rgb(50.195312%, 50.195312%, 50.195312%)" fill-opacity="1" d="M 27.402344 7.175781 L 27.402344 1.714844 L 26.746094 1.714844 L 25.96875 2.347656 L 25.96875 2.964844 L 26.785156 2.296875 L 26.785156 7.175781 Z M 27.402344 7.175781 "/>
<path fill-rule="nonzero" fill="rgb(50.195312%, 50.195312%, 50.195312%)" fill-opacity="1" d="M 28.589844 6.371094 L 29.347656 6.371094 L 29.347656 7.175781 L 28.589844 7.175781 Z M 28.589844 6.371094 "/>
<path fill-rule="nonzero" fill="rgb(50.195312%, 50.195312%, 50.195312%)" fill-opacity="1" d="M 33.824219 4.464844 C 33.8125 3.300781 33.550781 1.617188 32.078125 1.617188 C 30.605469 1.617188 30.355469 3.324219 30.355469 4.464844 C 30.355469 5.617188 30.617188 7.289062 32.078125 7.289062 C 33.539062 7.289062 33.824219 5.617188 33.824219 4.464844 Z M 33.253906 4.464844 C 33.253906 5.21875 33.191406 6.769531 32.078125 6.769531 C 30.964844 6.769531 30.925781 5.195312 30.925781 4.464844 C 30.925781 3.722656 30.953125 2.125 32.078125 2.125 C 33.191406 2.125 33.253906 3.734375 33.253906 4.464844 Z M 33.253906 4.464844 "/>
<path fill-rule="nonzero" fill="rgb(50.195312%, 50.195312%, 50.195312%)" fill-opacity="1" d="M 27.578125 101.027344 C 27.566406 99.863281 27.304688 98.179688 25.832031 98.179688 C 24.359375 98.179688 24.109375 99.886719 24.109375 101.027344 C 24.109375 102.179688 24.371094 103.851562 25.832031 103.851562 C 27.292969 103.851562 27.578125 102.179688 27.578125 101.027344 Z M 27.007812 101.027344 C 27.007812 101.78125 26.945312 103.332031 25.832031 103.332031 C 24.714844 103.332031 24.679688 101.757812 24.679688 101.027344 C 24.679688 100.285156 24.703125 98.6875 25.832031 98.6875 C 26.945312 98.6875 27.007812 100.296875 27.007812 101.027344 Z M 27.007812 101.027344 "/>
<path fill-rule="nonzero" fill="rgb(50.195312%, 50.195312%, 50.195312%)" fill-opacity="1" d="M 28.589844 102.933594 L 29.347656 102.933594 L 29.347656 103.738281 L 28.589844 103.738281 Z M 28.589844 102.933594 "/>
<path fill-rule="nonzero" fill="rgb(50.195312%, 50.195312%, 50.195312%)" fill-opacity="1" d="M 33.824219 101.027344 C 33.8125 99.863281 33.550781 98.179688 32.078125 98.179688 C 30.605469 98.179688 30.355469 99.886719 30.355469 101.027344 C 30.355469 102.179688 30.617188 103.851562 32.078125 103.851562 C 33.539062 103.851562 33.824219 102.179688 33.824219 101.027344 Z M 33.253906 101.027344 C 33.253906 101.78125 33.191406 103.332031 32.078125 103.332031 C 30.964844 103.332031 30.925781 101.757812 30.925781 101.027344 C 30.925781 100.285156 30.953125 98.6875 32.078125 98.6875 C 33.191406 98.6875 33.253906 100.296875 33.253906 101.027344 Z M 33.253906 101.027344 "/>
</svg>
