<?xml version="1.0" encoding="UTF-8"?>
<svg xmlns="http://www.w3.org/2000/svg" xmlns:xlink="http://www.w3.org/1999/xlink" width="184.161133pt" height="121.96434pt" viewBox="0 0 184.161133 121.96434">
<defs>
<clipPath id="clip-0">
<path clip-rule="nonzero" d="M 94 116 L 100 116 L 100 121.964844 L 94 121.964844 Z M 94 116 "/>
</clipPath>
<clipPath id="clip-1">
<path clip-rule="nonzero" d="M 32.628906 3.363281 L 161.46875 3.363281 L 161.46875 105.203125 L 32.628906 105.203125 Z M 32.628906 3.363281 "/>
</clipPath>
</defs>
<path fill="none" stroke-width="0.751181" stroke-linecap="butt" stroke-linejoin="miter" stroke="rgb(77.645874%, 80.39093%, 81.175232%)" stroke-opacity="1" stroke-dasharray="0.751181 0.751181" stroke-miterlimit="4" d="M 96.820312 105.082031 L 96.820312 53.757812 "/>
<path fill="none" stroke-width="0.751181" stroke-linecap="butt" stroke-linejoin="miter" stroke="rgb(77.645874%, 80.39093%, 81.175232%)" stroke-opacity="1" stroke-dasharray="0.751181 0.751181" stroke-miterlimit="4" d="M 32.824219 54.050781 L 97.015625 54.050781 "/>
<path fill="none" stroke-width="0.850394" stroke-linecap="butt" stroke-linejoin="miter" stroke="rgb(50.195312%, 50.195312%, 50.195312%)" stroke-opacity="1" stroke-miterlimit="4" d="M 32.707031 105.082031 L 32.707031 107.613281 "/>
<path fill="none" stroke-width="0.850394" stroke-linecap="butt" stroke-linejoin="miter" stroke="rgb(50.195312%, 50.195312%, 50.195312%)" stroke-opacity="1" stroke-miterlimit="4" d="M 96.785156 105.082031 L 96.785156 107.613281 "/>
<path fill="none" stroke-width="0.850394" stroke-linecap="butt" stroke-linejoin="miter" stroke="rgb(50.195312%, 50.195312%, 50.195312%)" stroke-opacity="1" stroke-miterlimit="4" d="M 161.035156 105.082031 L 161.035156 107.613281 "/>
<path fill="none" stroke-width="0.850394" stroke-linecap="butt" stroke-linejoin="miter" stroke="rgb(50.195312%, 50.195312%, 50.195312%)" stroke-opacity="1" stroke-miterlimit="4" d="M 54.066406 106.808594 L 54.066406 105.082031 "/>
<path fill="none" stroke-width="0.850394" stroke-linecap="butt" stroke-linejoin="miter" stroke="rgb(50.195312%, 50.195312%, 50.195312%)" stroke-opacity="1" stroke-miterlimit="4" d="M 75.425781 106.808594 L 75.425781 105.082031 "/>
<path fill="none" stroke-width="0.850394" stroke-linecap="butt" stroke-linejoin="miter" stroke="rgb(50.195312%, 50.195312%, 50.195312%)" stroke-opacity="1" stroke-miterlimit="4" d="M 139.503906 106.808594 L 139.503906 105.082031 "/>
<path fill="none" stroke-width="0.850394" stroke-linecap="butt" stroke-linejoin="miter" stroke="rgb(50.195312%, 50.195312%, 50.195312%)" stroke-opacity="1" stroke-miterlimit="4" d="M 118.144531 106.808594 L 118.144531 105.082031 "/>
<path fill="none" stroke-width="0.850394" stroke-linecap="butt" stroke-linejoin="miter" stroke="rgb(50.195312%, 50.195312%, 50.195312%)" stroke-opacity="1" stroke-miterlimit="4" d="M 32.824219 3.332031 L 30.296875 3.332031 "/>
<path fill="none" stroke-width="0.850394" stroke-linecap="butt" stroke-linejoin="miter" stroke="rgb(50.195312%, 50.195312%, 50.195312%)" stroke-opacity="1" stroke-miterlimit="4" d="M 32.707031 105.082031 L 30.175781 105.082031 "/>
<path fill="none" stroke-width="0.850394" stroke-linecap="butt" stroke-linejoin="miter" stroke="rgb(50.195312%, 50.195312%, 50.195312%)" stroke-opacity="1" stroke-miterlimit="4" d="M 32.824219 44.03125 L 31.101562 44.03125 "/>
<path fill="none" stroke-width="0.850394" stroke-linecap="butt" stroke-linejoin="miter" stroke="rgb(50.195312%, 50.195312%, 50.195312%)" stroke-opacity="1" stroke-miterlimit="4" d="M 32.824219 33.859375 L 31.101562 33.859375 "/>
<path fill="none" stroke-width="0.850394" stroke-linecap="butt" stroke-linejoin="miter" stroke="rgb(50.195312%, 50.195312%, 50.195312%)" stroke-opacity="1" stroke-miterlimit="4" d="M 32.824219 64.382812 L 31.101562 64.382812 "/>
<path fill="none" stroke-width="0.850394" stroke-linecap="butt" stroke-linejoin="miter" stroke="rgb(50.195312%, 50.195312%, 50.195312%)" stroke-opacity="1" stroke-miterlimit="4" d="M 32.824219 84.730469 L 31.101562 84.730469 "/>
<g clip-path="url(#clip-0)">
<path fill-rule="nonzero" fill="rgb(0%, 0%, 0%)" fill-opacity="1" d="M 95.457031 120.53125 C 96.054688 119.878906 96.390625 119.597656 96.792969 119.246094 C 96.792969 119.246094 97.480469 118.648438 97.882812 118.242188 C 98.957031 117.203125 99.203125 116.660156 99.203125 116.605469 C 99.203125 116.5 99.097656 116.5 99.082031 116.5 C 98.992188 116.5 98.976562 116.519531 98.90625 116.625 C 98.570312 117.167969 98.34375 117.34375 98.078125 117.34375 C 97.796875 117.34375 97.671875 117.167969 97.496094 116.976562 C 97.285156 116.730469 97.09375 116.5 96.722656 116.5 C 95.878906 116.5 95.367188 117.539062 95.367188 117.785156 C 95.367188 117.839844 95.402344 117.910156 95.492188 117.910156 C 95.597656 117.910156 95.613281 117.855469 95.648438 117.785156 C 95.859375 117.257812 96.511719 117.257812 96.601562 117.257812 C 96.828125 117.257812 97.039062 117.328125 97.304688 117.414062 C 97.761719 117.589844 97.882812 117.589844 98.167969 117.589844 C 97.761719 118.066406 96.828125 118.875 96.617188 119.050781 L 95.597656 120.003906 C 94.839844 120.757812 94.4375 121.390625 94.4375 121.480469 C 94.4375 121.585938 94.558594 121.585938 94.578125 121.585938 C 94.664062 121.585938 94.683594 121.566406 94.753906 121.445312 C 95.015625 121.039062 95.351562 120.742188 95.71875 120.742188 C 95.964844 120.742188 96.089844 120.847656 96.371094 121.164062 C 96.546875 121.410156 96.757812 121.585938 97.074219 121.585938 C 98.203125 121.585938 98.851562 120.160156 98.851562 119.863281 C 98.851562 119.808594 98.800781 119.738281 98.710938 119.738281 C 98.605469 119.738281 98.589844 119.808594 98.554688 119.898438 C 98.289062 120.617188 97.566406 120.828125 97.199219 120.828125 C 96.988281 120.828125 96.777344 120.757812 96.546875 120.6875 C 96.160156 120.546875 95.984375 120.496094 95.753906 120.496094 C 95.738281 120.496094 95.5625 120.496094 95.457031 120.53125 Z M 95.457031 120.53125 "/>
</g>
<g clip-path="url(#clip-1)">
<path fill="none" stroke-width="2.010927" stroke-linecap="square" stroke-linejoin="round" stroke="rgb(81.959534%, 51.371765%, 38.430786%)" stroke-opacity="1" stroke-miterlimit="4" d="M 32.628906 107.348596 L 36.882812 107.075781 L 40.617188 106.754823 L 43.839844 106.393744 L 46.804688 105.972486 L 49.378906 105.527156 L 51.828125 105.013623 L 54.019531 104.467993 L 56.078125 103.87422 L 58.011719 103.228291 L 59.816406 102.542242 L 61.621094 101.763918 L 63.292969 100.949485 L 64.96875 100.042777 L 66.515625 99.107986 L 68.0625 98.076906 L 69.605469 96.937503 L 71.152344 95.689777 L 72.699219 94.321691 L 74.117188 92.953606 L 75.535156 91.477196 L 76.949219 89.888452 L 78.496094 88.014856 L 80.042969 85.996829 L 81.589844 83.838383 L 83.136719 81.535505 L 84.808594 78.879574 L 86.484375 76.067174 L 88.289062 72.877649 L 90.351562 69.050218 L 92.667969 64.556799 L 95.761719 58.366311 L 101.945312 45.933179 L 104.394531 41.239161 L 106.453125 37.467898 L 108.257812 34.338552 L 110.0625 31.377709 L 111.738281 28.798005 L 113.285156 26.567343 L 114.828125 24.477101 L 116.375 22.535302 L 117.921875 20.733922 L 119.46875 19.072961 L 121.011719 17.544396 L 122.558594 16.144215 L 124.105469 14.864392 L 125.652344 13.700918 L 127.199219 12.645767 L 128.742188 11.686903 L 130.417969 10.752111 L 132.09375 9.917619 L 133.898438 9.119235 L 135.699219 8.417138 L 137.632812 7.751149 L 139.695312 7.141328 L 141.886719 6.57965 L 144.203125 6.078152 L 146.78125 5.612762 L 149.488281 5.211564 L 152.578125 4.842462 L 156.058594 4.517491 L 159.921875 4.244677 L 161.339844 4.160425 " transform="matrix(1, 0, 0, 0.973646, 0, 0)"/>
</g>
<path fill-rule="nonzero" fill="rgb(0%, 0%, 0%)" fill-opacity="1" d="M 19.496094 61.566406 C 18.492188 61.566406 18.175781 62.25 18 63.167969 L 17.929688 63.519531 C 17.824219 64.011719 17.71875 64.730469 17.171875 64.730469 C 16.539062 64.695312 16.417969 63.957031 16.417969 63.394531 C 16.453125 62.496094 16.503906 62.566406 16.820312 61.8125 L 15.992188 61.8125 C 15.800781 62.285156 15.710938 62.882812 15.710938 63.5 C 15.710938 64.503906 16.082031 65.488281 17.207031 65.488281 C 18.121094 65.472656 18.476562 64.855469 18.632812 64.011719 L 18.703125 63.695312 C 18.84375 63.078125 18.914062 62.375 19.566406 62.375 C 20.199219 62.410156 20.324219 63.132812 20.324219 63.695312 C 20.304688 64.625 20.199219 64.765625 19.8125 65.578125 L 20.726562 65.578125 C 20.851562 65.101562 21.042969 64.273438 21.042969 63.710938 C 21.042969 62.726562 20.675781 61.566406 19.496094 61.566406 Z M 19.496094 61.566406 "/>
<path fill-rule="nonzero" fill="rgb(0%, 0%, 0%)" fill-opacity="1" d="M 20.902344 59.484375 L 15.835938 59.484375 L 15.835938 60.328125 L 20.902344 60.328125 Z M 13.144531 59.90625 C 13.144531 60.171875 13.390625 60.402344 13.652344 60.402344 C 13.933594 60.402344 14.179688 60.171875 14.179688 59.90625 C 14.179688 59.625 13.933594 59.414062 13.652344 59.414062 C 13.390625 59.414062 13.144531 59.625 13.144531 59.90625 Z M 13.144531 59.90625 "/>
<path fill-rule="nonzero" fill="rgb(0%, 0%, 0%)" fill-opacity="1" d="M 20.78125 56.410156 C 20.78125 55.460938 21.238281 54.808594 21.851562 54.808594 C 22.46875 54.808594 22.910156 55.460938 22.910156 56.410156 C 22.910156 57.359375 22.46875 57.886719 21.851562 57.886719 C 21.238281 57.886719 20.78125 57.359375 20.78125 56.410156 Z M 20.058594 56.410156 C 20.058594 56.496094 20.058594 56.585938 20.074219 56.691406 C 20.074219 57.21875 19.757812 57.675781 19.546875 57.675781 C 19.300781 57.675781 19.214844 57.394531 19.214844 57.183594 L 19.214844 57.113281 C 19.371094 56.9375 19.425781 56.410156 19.425781 56.25 C 19.425781 55.285156 18.597656 54.507812 17.578125 54.507812 C 17.171875 54.507812 16.785156 54.648438 16.488281 54.878906 L 16.488281 54.050781 L 15.851562 54.050781 L 15.851562 55.476562 C 15.78125 55.707031 15.746094 56.023438 15.746094 56.199219 C 15.746094 57.167969 16.574219 57.976562 17.578125 58.011719 C 18.070312 58.011719 18.511719 57.835938 18.828125 57.519531 C 18.898438 57.886719 19.144531 58.292969 19.617188 58.292969 C 19.917969 58.292969 20.199219 58.097656 20.375 57.695312 C 20.710938 58.34375 21.253906 58.730469 21.835938 58.730469 C 22.75 58.730469 23.59375 57.800781 23.59375 56.410156 C 23.59375 55 22.75 53.859375 21.851562 53.859375 C 20.675781 53.859375 20.058594 55.230469 20.058594 56.410156 Z M 16.453125 56.25 C 16.453125 55.652344 16.945312 55.160156 17.558594 55.160156 C 18.15625 55.160156 18.652344 55.652344 18.652344 56.25 C 18.652344 56.867188 18.15625 57.34375 17.558594 57.34375 C 16.945312 57.34375 16.453125 56.867188 16.453125 56.25 Z M 16.453125 56.25 "/>
<path fill-rule="nonzero" fill="rgb(0%, 0%, 0%)" fill-opacity="1" d="M 23.71875 50.640625 L 23.261719 50.640625 L 23.261719 51.730469 L 12.933594 51.730469 L 12.933594 50.640625 L 12.476562 50.640625 L 12.476562 52.1875 L 23.71875 52.1875 Z M 23.71875 50.640625 "/>
<path fill-rule="nonzero" fill="rgb(0%, 0%, 0%)" fill-opacity="1" d="M 19.96875 48.894531 C 19.320312 48.296875 19.039062 47.964844 18.6875 47.558594 C 18.6875 47.558594 18.085938 46.871094 17.683594 46.46875 C 16.644531 45.394531 16.097656 45.148438 16.046875 45.148438 C 15.941406 45.148438 15.941406 45.253906 15.941406 45.269531 C 15.941406 45.359375 15.957031 45.375 16.0625 45.445312 C 16.609375 45.78125 16.785156 46.011719 16.785156 46.273438 C 16.785156 46.554688 16.609375 46.679688 16.417969 46.855469 C 16.167969 47.066406 15.941406 47.257812 15.941406 47.628906 C 15.941406 48.472656 16.980469 48.984375 17.226562 48.984375 C 17.277344 48.984375 17.347656 48.949219 17.347656 48.859375 C 17.347656 48.753906 17.296875 48.738281 17.226562 48.703125 C 16.699219 48.492188 16.699219 47.839844 16.699219 47.753906 C 16.699219 47.523438 16.769531 47.3125 16.855469 47.046875 C 17.03125 46.589844 17.03125 46.46875 17.03125 46.1875 C 17.507812 46.589844 18.316406 47.523438 18.492188 47.734375 L 19.441406 48.753906 C 20.199219 49.511719 20.832031 49.917969 20.921875 49.917969 C 21.027344 49.917969 21.027344 49.792969 21.027344 49.777344 C 21.027344 49.6875 21.007812 49.671875 20.886719 49.601562 C 20.480469 49.335938 20.183594 49 20.183594 48.632812 C 20.183594 48.386719 20.289062 48.261719 20.605469 47.980469 C 20.851562 47.804688 21.027344 47.59375 21.027344 47.277344 C 21.027344 46.152344 19.601562 45.5 19.300781 45.5 C 19.25 45.5 19.179688 45.554688 19.179688 45.640625 C 19.179688 45.746094 19.25 45.765625 19.335938 45.800781 C 20.058594 46.0625 20.269531 46.785156 20.269531 47.152344 C 20.269531 47.363281 20.199219 47.578125 20.128906 47.804688 C 19.988281 48.191406 19.933594 48.367188 19.933594 48.597656 C 19.933594 48.613281 19.933594 48.789062 19.96875 48.894531 Z M 19.96875 48.894531 "/>
<path fill-rule="nonzero" fill="rgb(0%, 0%, 0%)" fill-opacity="1" d="M 12.476562 42.902344 L 12.476562 44.433594 L 12.933594 44.433594 L 12.933594 43.34375 L 23.261719 43.34375 L 23.261719 44.433594 L 23.71875 44.433594 L 23.71875 42.902344 Z M 12.476562 42.902344 "/>
<path fill="none" stroke-width="0.850394" stroke-linecap="butt" stroke-linejoin="miter" stroke="rgb(50.195312%, 50.195312%, 50.195312%)" stroke-opacity="1" stroke-miterlimit="4" d="M 32.824219 23.683594 L 31.101562 23.683594 "/>
<path fill="none" stroke-width="0.850394" stroke-linecap="butt" stroke-linejoin="miter" stroke="rgb(50.195312%, 50.195312%, 50.195312%)" stroke-opacity="1" stroke-miterlimit="4" d="M 32.824219 13.507812 L 31.101562 13.507812 "/>
<path fill="none" stroke-width="0.850394" stroke-linecap="butt" stroke-linejoin="miter" stroke="rgb(50.195312%, 50.195312%, 50.195312%)" stroke-opacity="1" stroke-miterlimit="4" d="M 32.824219 74.558594 L 31.101562 74.558594 "/>
<path fill="none" stroke-width="0.850394" stroke-linecap="butt" stroke-linejoin="miter" stroke="rgb(50.195312%, 50.195312%, 50.195312%)" stroke-opacity="1" stroke-miterlimit="4" d="M 32.824219 94.90625 L 31.101562 94.90625 "/>
<path fill="none" stroke-width="0.850394" stroke-linecap="butt" stroke-linejoin="miter" stroke="rgb(50.195312%, 50.195312%, 50.195312%)" stroke-opacity="1" stroke-miterlimit="4" d="M 32.824219 54.207031 L 30.296875 54.207031 "/>
<path fill="none" stroke-width="0.850394" stroke-linecap="butt" stroke-linejoin="round" stroke="rgb(1.176453%, 0%, 0%)" stroke-opacity="1" stroke-miterlimit="4" d="M 32.625 3.332031 L 161.035156 3.332031 L 161.035156 105.148438 L 32.625 105.148438 Z M 32.625 3.332031 "/>
<path fill-rule="nonzero" fill="rgb(0%, 0%, 0%)" fill-opacity="1" d="M 83.003906 8.628906 C 83.003906 8.363281 83.003906 8.363281 82.714844 8.363281 C 82.070312 8.984375 81.179688 8.984375 80.78125 8.984375 L 80.78125 9.339844 C 81.003906 9.339844 81.671875 9.339844 82.203125 9.074219 L 82.203125 14.117188 C 82.203125 14.449219 82.203125 14.585938 81.226562 14.585938 L 80.847656 14.585938 L 80.847656 14.941406 C 81.027344 14.941406 82.246094 14.894531 82.601562 14.894531 C 82.914062 14.894531 84.160156 14.941406 84.378906 14.941406 L 84.378906 14.585938 L 84.003906 14.585938 C 83.003906 14.585938 83.003906 14.449219 83.003906 14.117188 Z M 83.003906 8.628906 "/>
<path fill="none" stroke-width="0.56584" stroke-linecap="butt" stroke-linejoin="miter" stroke="rgb(0%, 0%, 0%)" stroke-opacity="1" stroke-miterlimit="10" d="M 56.183594 16.972656 L 108.847656 16.972656 "/>
<path fill-rule="nonzero" fill="rgb(0%, 0%, 0%)" fill-opacity="1" d="M 59.492188 19.089844 C 59.492188 18.824219 59.492188 18.824219 59.203125 18.824219 C 58.558594 19.445312 57.671875 19.445312 57.269531 19.445312 L 57.269531 19.800781 C 57.492188 19.800781 58.160156 19.800781 58.691406 19.535156 L 58.691406 24.578125 C 58.691406 24.910156 58.691406 25.046875 57.714844 25.046875 L 57.335938 25.046875 L 57.335938 25.402344 C 57.515625 25.402344 58.738281 25.355469 59.09375 25.355469 C 59.402344 25.355469 60.648438 25.402344 60.871094 25.402344 L 60.871094 25.046875 L 60.492188 25.046875 C 59.492188 25.046875 59.492188 24.910156 59.492188 24.578125 Z M 59.492188 19.089844 "/>
<path fill-rule="nonzero" fill="rgb(0%, 0%, 0%)" fill-opacity="1" d="M 66.40625 23.15625 L 69.449219 23.15625 C 69.582031 23.15625 69.804688 23.15625 69.804688 22.933594 C 69.804688 22.667969 69.582031 22.667969 69.449219 22.667969 L 66.40625 22.667969 L 66.40625 19.625 C 66.40625 19.511719 66.40625 19.269531 66.183594 19.269531 C 65.9375 19.269531 65.9375 19.492188 65.9375 19.625 L 65.9375 22.667969 L 62.894531 22.667969 C 62.761719 22.667969 62.515625 22.667969 62.515625 22.914062 C 62.515625 23.15625 62.738281 23.15625 62.894531 23.15625 L 65.9375 23.15625 L 65.9375 26.199219 C 65.9375 26.332031 65.9375 26.578125 66.160156 26.578125 C 66.40625 26.578125 66.40625 26.332031 66.40625 26.199219 Z M 66.40625 23.15625 "/>
<path fill-rule="nonzero" fill="rgb(0%, 0%, 0%)" fill-opacity="1" d="M 74.878906 23.132812 C 75.101562 23.132812 75.167969 23.132812 75.167969 22.933594 C 75.167969 22.046875 74.679688 20.980469 73.191406 20.980469 C 71.902344 20.980469 70.902344 22 70.902344 23.222656 C 70.902344 24.488281 72.011719 25.488281 73.324219 25.488281 C 74.65625 25.488281 75.167969 24.421875 75.167969 24.199219 C 75.167969 24.179688 75.144531 24.066406 74.988281 24.066406 C 74.855469 24.066406 74.832031 24.132812 74.8125 24.222656 C 74.5 25.023438 73.746094 25.179688 73.390625 25.179688 C 72.921875 25.179688 72.480469 24.976562 72.191406 24.601562 C 71.8125 24.132812 71.8125 23.535156 71.8125 23.132812 Z M 71.8125 22.890625 C 71.921875 21.492188 72.8125 21.269531 73.191406 21.269531 C 74.410156 21.269531 74.457031 22.644531 74.476562 22.890625 Z M 71.8125 22.890625 "/>
<path fill-rule="nonzero" fill="rgb(0%, 0%, 0%)" fill-opacity="1" d="M 78.914062 23.179688 C 78.914062 23.179688 78.847656 23.089844 78.847656 23.089844 C 78.847656 23.046875 79.492188 22.355469 79.582031 22.269531 C 79.9375 21.867188 80.269531 21.492188 81.070312 21.492188 L 81.070312 21.136719 C 80.78125 21.15625 80.492188 21.179688 80.226562 21.179688 C 79.9375 21.179688 79.535156 21.15625 79.246094 21.136719 L 79.246094 21.492188 C 79.402344 21.511719 79.445312 21.625 79.445312 21.710938 C 79.445312 21.734375 79.445312 21.890625 79.292969 22.046875 L 78.601562 22.824219 L 77.78125 21.890625 C 77.671875 21.78125 77.671875 21.734375 77.671875 21.691406 C 77.671875 21.558594 77.804688 21.492188 77.9375 21.492188 L 77.9375 21.136719 C 77.582031 21.15625 77.203125 21.179688 76.824219 21.179688 C 76.539062 21.179688 76.160156 21.15625 75.871094 21.136719 L 75.871094 21.492188 C 76.316406 21.492188 76.582031 21.492188 76.847656 21.78125 L 78.070312 23.203125 C 78.09375 23.222656 78.160156 23.289062 78.160156 23.3125 C 78.160156 23.335938 77.402344 24.15625 77.316406 24.265625 C 76.9375 24.667969 76.605469 25.023438 75.828125 25.046875 L 75.828125 25.402344 C 76.113281 25.378906 76.335938 25.355469 76.648438 25.355469 C 76.9375 25.355469 77.335938 25.378906 77.625 25.402344 L 77.625 25.046875 C 77.515625 25.023438 77.425781 24.957031 77.425781 24.824219 C 77.425781 24.621094 77.535156 24.488281 77.691406 24.335938 L 78.402344 23.558594 L 79.246094 24.554688 C 79.445312 24.757812 79.445312 24.777344 79.445312 24.84375 C 79.445312 25.023438 79.226562 25.046875 79.179688 25.046875 L 79.179688 25.402344 C 79.269531 25.402344 79.980469 25.355469 80.292969 25.355469 C 80.601562 25.355469 80.9375 25.378906 81.246094 25.402344 L 81.246094 25.046875 C 80.582031 25.046875 80.511719 24.976562 80.269531 24.734375 Z M 78.914062 23.179688 "/>
<path fill-rule="nonzero" fill="rgb(0%, 0%, 0%)" fill-opacity="1" d="M 84.265625 26.957031 C 83.621094 26.957031 83.53125 26.957031 83.53125 26.535156 L 83.53125 24.933594 C 83.578125 24.976562 84.042969 25.488281 84.863281 25.488281 C 86.175781 25.488281 87.285156 24.511719 87.285156 23.269531 C 87.285156 22.046875 86.285156 21.023438 85.019531 21.023438 C 84.464844 21.023438 83.886719 21.246094 83.488281 21.644531 L 83.488281 21.023438 L 82 21.136719 L 82 21.492188 C 82.6875 21.492188 82.730469 21.558594 82.730469 21.957031 L 82.730469 26.535156 C 82.730469 26.957031 82.644531 26.957031 82 26.957031 L 82 27.332031 C 82.023438 27.332031 82.710938 27.289062 83.132812 27.289062 C 83.488281 27.289062 84.175781 27.3125 84.265625 27.332031 Z M 83.53125 22.089844 C 83.820312 21.601562 84.398438 21.359375 84.910156 21.359375 C 85.753906 21.359375 86.398438 22.222656 86.398438 23.269531 C 86.398438 24.402344 85.640625 25.222656 84.820312 25.222656 C 83.933594 25.222656 83.554688 24.46875 83.53125 24.402344 Z M 83.53125 22.089844 "/>
<path fill-rule="nonzero" fill="rgb(0%, 0%, 0%)" fill-opacity="1" d="M 90.632812 27.867188 L 90.632812 27.398438 L 89.609375 27.398438 L 89.609375 18.449219 L 90.632812 18.449219 L 90.632812 17.980469 L 89.121094 17.980469 L 89.121094 27.867188 Z M 90.632812 27.867188 "/>
<path fill-rule="nonzero" fill="rgb(0%, 0%, 0%)" fill-opacity="1" d="M 98.347656 23.15625 C 98.503906 23.15625 98.75 23.15625 98.75 22.933594 C 98.75 22.667969 98.503906 22.667969 98.347656 22.667969 L 92.4375 22.667969 C 92.285156 22.667969 92.039062 22.667969 92.039062 22.914062 C 92.039062 23.15625 92.261719 23.15625 92.4375 23.15625 Z M 98.347656 23.15625 "/>
<path fill-rule="nonzero" fill="rgb(0%, 0%, 0%)" fill-opacity="1" d="M 101.492188 24.535156 C 101.757812 24.265625 101.933594 24.089844 102.757812 23.402344 C 102.980469 23.246094 103.710938 22.644531 104 22.378906 C 104.601562 21.78125 104.976562 21.269531 104.976562 21.15625 C 104.976562 21.023438 104.867188 21.023438 104.824219 21.023438 C 104.734375 21.023438 104.691406 21.046875 104.644531 21.136719 C 104.335938 21.578125 104.132812 21.734375 103.890625 21.734375 C 103.777344 21.734375 103.625 21.734375 103.335938 21.445312 C 103 21.089844 102.777344 21.023438 102.558594 21.023438 C 101.757812 21.023438 101.222656 21.890625 101.222656 22.179688 C 101.222656 22.289062 101.3125 22.3125 101.378906 22.3125 C 101.511719 22.3125 101.535156 22.289062 101.558594 22.179688 C 101.710938 21.824219 102.269531 21.800781 102.421875 21.800781 C 102.667969 21.800781 102.914062 21.867188 103.046875 21.890625 C 103.601562 22 103.667969 22 103.910156 22 C 103.667969 22.289062 103.488281 22.46875 102.535156 23.203125 C 101.757812 23.824219 101.492188 24.066406 101.3125 24.265625 C 100.714844 24.84375 100.425781 25.289062 100.425781 25.378906 C 100.425781 25.488281 100.558594 25.488281 100.601562 25.488281 C 100.691406 25.488281 100.714844 25.488281 100.757812 25.402344 C 101.023438 25.023438 101.335938 24.800781 101.667969 24.800781 C 101.800781 24.800781 101.933594 24.800781 102.203125 25.046875 C 102.511719 25.355469 102.710938 25.488281 103.046875 25.488281 C 104.089844 25.488281 104.757812 24.289062 104.757812 23.957031 C 104.757812 23.84375 104.644531 23.84375 104.601562 23.84375 C 104.46875 23.84375 104.445312 23.890625 104.402344 24 C 104.222656 24.488281 103.644531 24.734375 103.15625 24.734375 C 102.933594 24.734375 102.667969 24.667969 102.421875 24.621094 C 101.980469 24.511719 101.890625 24.511719 101.710938 24.511719 C 101.691406 24.511719 101.558594 24.511719 101.492188 24.535156 Z M 101.492188 24.535156 "/>
<path fill-rule="nonzero" fill="rgb(0%, 0%, 0%)" fill-opacity="1" d="M 107.488281 17.980469 L 105.953125 17.980469 L 105.953125 18.449219 L 107 18.449219 L 107 27.398438 L 105.953125 27.398438 L 105.953125 27.867188 L 107.488281 27.867188 Z M 107.488281 17.980469 "/>
<path fill-rule="nonzero" fill="rgb(50.195312%, 50.195312%, 50.195312%)" fill-opacity="1" d="M 22.492188 6.058594 L 22.492188 0.597656 L 21.835938 0.597656 L 21.054688 1.226562 L 21.054688 1.847656 L 21.875 1.179688 L 21.875 6.058594 Z M 22.492188 6.058594 "/>
<path fill-rule="nonzero" fill="rgb(50.195312%, 50.195312%, 50.195312%)" fill-opacity="1" d="M 23.679688 5.253906 L 24.433594 5.253906 L 24.433594 6.058594 L 23.679688 6.058594 Z M 23.679688 5.253906 "/>
<path fill-rule="nonzero" fill="rgb(50.195312%, 50.195312%, 50.195312%)" fill-opacity="1" d="M 28.914062 3.347656 C 28.902344 2.183594 28.640625 0.496094 27.167969 0.496094 C 25.691406 0.496094 25.445312 2.207031 25.445312 3.347656 C 25.445312 4.5 25.707031 6.171875 27.167969 6.171875 C 28.628906 6.171875 28.914062 4.5 28.914062 3.347656 Z M 28.34375 3.347656 C 28.34375 4.101562 28.28125 5.648438 27.167969 5.648438 C 26.050781 5.648438 26.015625 4.078125 26.015625 3.347656 C 26.015625 2.601562 26.039062 1.003906 27.167969 1.003906 C 28.28125 1.003906 28.34375 2.617188 28.34375 3.347656 Z M 28.34375 3.347656 "/>
<path fill-rule="nonzero" fill="rgb(50.195312%, 50.195312%, 50.195312%)" fill-opacity="1" d="M 23.035156 104.875 C 23.019531 103.710938 22.761719 102.023438 21.289062 102.023438 C 19.8125 102.023438 19.566406 103.734375 19.566406 104.875 C 19.566406 106.023438 19.824219 107.699219 21.289062 107.699219 C 22.75 107.699219 23.035156 106.023438 23.035156 104.875 Z M 22.464844 104.875 C 22.464844 105.628906 22.402344 107.175781 21.289062 107.175781 C 20.171875 107.175781 20.136719 105.605469 20.136719 104.875 C 20.136719 104.128906 20.160156 102.53125 21.289062 102.53125 C 22.402344 102.53125 22.464844 104.144531 22.464844 104.875 Z M 22.464844 104.875 "/>
<path fill-rule="nonzero" fill="rgb(50.195312%, 50.195312%, 50.195312%)" fill-opacity="1" d="M 24.046875 106.78125 L 24.800781 106.78125 L 24.800781 107.585938 L 24.046875 107.585938 Z M 24.046875 106.78125 "/>
<path fill-rule="nonzero" fill="rgb(50.195312%, 50.195312%, 50.195312%)" fill-opacity="1" d="M 29.28125 104.875 C 29.269531 103.710938 29.007812 102.023438 27.535156 102.023438 C 26.058594 102.023438 25.8125 103.734375 25.8125 104.875 C 25.8125 106.023438 26.074219 107.699219 27.535156 107.699219 C 28.996094 107.699219 29.28125 106.023438 29.28125 104.875 Z M 28.710938 104.875 C 28.710938 105.628906 28.648438 107.175781 27.535156 107.175781 C 26.417969 107.175781 26.382812 105.605469 26.382812 104.875 C 26.382812 104.128906 26.40625 102.53125 27.535156 102.53125 C 28.648438 102.53125 28.710938 104.144531 28.710938 104.875 Z M 28.710938 104.875 "/>
<path fill-rule="nonzero" fill="rgb(50.195312%, 50.195312%, 50.195312%)" fill-opacity="1" d="M 25.210938 111.6875 L 27.003906 111.6875 L 27.003906 112.207031 L 25.210938 112.207031 Z M 25.210938 111.6875 "/>
<path fill-rule="nonzero" fill="rgb(50.195312%, 50.195312%, 50.195312%)" fill-opacity="1" d="M 31.097656 111.996094 C 31.085938 110.882812 30.390625 110.152344 29.277344 110.152344 C 29.128906 110.164062 28.792969 110.199219 28.59375 110.273438 L 28.792969 108.839844 L 30.726562 108.839844 L 30.726562 108.269531 L 28.398438 108.269531 L 28.0625 110.96875 C 28.496094 110.757812 28.59375 110.707031 29.152344 110.707031 C 29.957031 110.707031 30.527344 111.15625 30.527344 111.996094 C 30.527344 112.863281 29.96875 113.285156 29.152344 113.285156 C 28.609375 113.285156 28.25 113.171875 27.851562 112.925781 L 27.851562 113.605469 C 28.210938 113.742188 28.742188 113.84375 29.164062 113.84375 C 30.339844 113.84375 31.097656 113.199219 31.097656 111.996094 Z M 31.097656 111.996094 "/>
<path fill-rule="nonzero" fill="rgb(50.195312%, 50.195312%, 50.195312%)" fill-opacity="1" d="M 31.992188 112.925781 L 32.75 112.925781 L 32.75 113.730469 L 31.992188 113.730469 Z M 31.992188 112.925781 "/>
<path fill-rule="nonzero" fill="rgb(50.195312%, 50.195312%, 50.195312%)" fill-opacity="1" d="M 37.226562 111.019531 C 37.214844 109.855469 36.953125 108.167969 35.480469 108.167969 C 34.007812 108.167969 33.757812 109.878906 33.757812 111.019531 C 33.757812 112.171875 34.019531 113.84375 35.480469 113.84375 C 36.941406 113.84375 37.226562 112.171875 37.226562 111.019531 Z M 36.65625 111.019531 C 36.65625 111.773438 36.59375 113.324219 35.480469 113.324219 C 34.367188 113.324219 34.328125 111.75 34.328125 111.019531 C 34.328125 110.273438 34.355469 108.675781 35.480469 108.675781 C 36.59375 108.675781 36.65625 110.289062 36.65625 111.019531 Z M 36.65625 111.019531 "/>
<path fill-rule="nonzero" fill="rgb(50.195312%, 50.195312%, 50.195312%)" fill-opacity="1" d="M 159.421875 111.996094 C 159.410156 110.882812 158.714844 110.152344 157.601562 110.152344 C 157.453125 110.164062 157.117188 110.199219 156.921875 110.273438 L 157.117188 108.839844 L 159.050781 108.839844 L 159.050781 108.269531 L 156.722656 108.269531 L 156.386719 110.96875 C 156.820312 110.757812 156.921875 110.707031 157.476562 110.707031 C 158.28125 110.707031 158.851562 111.15625 158.851562 111.996094 C 158.851562 112.863281 158.292969 113.285156 157.476562 113.285156 C 156.933594 113.285156 156.574219 113.171875 156.175781 112.925781 L 156.175781 113.605469 C 156.535156 113.742188 157.070312 113.84375 157.488281 113.84375 C 158.667969 113.84375 159.421875 113.199219 159.421875 111.996094 Z M 159.421875 111.996094 "/>
<path fill-rule="nonzero" fill="rgb(50.195312%, 50.195312%, 50.195312%)" fill-opacity="1" d="M 160.316406 112.925781 L 161.074219 112.925781 L 161.074219 113.730469 L 160.316406 113.730469 Z M 160.316406 112.925781 "/>
<path fill-rule="nonzero" fill="rgb(50.195312%, 50.195312%, 50.195312%)" fill-opacity="1" d="M 165.550781 111.019531 C 165.539062 109.855469 165.28125 108.167969 163.804688 108.167969 C 162.332031 108.167969 162.082031 109.878906 162.082031 111.019531 C 162.082031 112.171875 162.34375 113.84375 163.804688 113.84375 C 165.265625 113.84375 165.550781 112.171875 165.550781 111.019531 Z M 164.980469 111.019531 C 164.980469 111.773438 164.921875 113.324219 163.804688 113.324219 C 162.691406 113.324219 162.652344 111.75 162.652344 111.019531 C 162.652344 110.273438 162.679688 108.675781 163.804688 108.675781 C 164.921875 108.675781 164.980469 110.289062 164.980469 111.019531 Z M 164.980469 111.019531 "/>
<path fill-rule="nonzero" fill="rgb(50.195312%, 50.195312%, 50.195312%)" fill-opacity="1" d="M 95.429688 110.984375 C 95.417969 109.820312 95.15625 108.132812 93.683594 108.132812 C 92.210938 108.132812 91.960938 109.84375 91.960938 110.984375 C 91.960938 112.136719 92.222656 113.808594 93.683594 113.808594 C 95.144531 113.808594 95.429688 112.136719 95.429688 110.984375 Z M 94.859375 110.984375 C 94.859375 111.738281 94.800781 113.285156 93.683594 113.285156 C 92.570312 113.285156 92.53125 111.714844 92.53125 110.984375 C 92.53125 110.238281 92.558594 108.640625 93.683594 108.640625 C 94.800781 108.640625 94.859375 110.253906 94.859375 110.984375 Z M 94.859375 110.984375 "/>
<path fill-rule="nonzero" fill="rgb(50.195312%, 50.195312%, 50.195312%)" fill-opacity="1" d="M 96.445312 112.890625 L 97.199219 112.890625 L 97.199219 113.695312 L 96.445312 113.695312 Z M 96.445312 112.890625 "/>
<path fill-rule="nonzero" fill="rgb(50.195312%, 50.195312%, 50.195312%)" fill-opacity="1" d="M 101.675781 110.984375 C 101.664062 109.820312 101.40625 108.132812 99.929688 108.132812 C 98.457031 108.132812 98.210938 109.84375 98.210938 110.984375 C 98.210938 112.136719 98.46875 113.808594 99.929688 113.808594 C 101.394531 113.808594 101.675781 112.136719 101.675781 110.984375 Z M 101.109375 110.984375 C 101.109375 111.738281 101.046875 113.285156 99.929688 113.285156 C 98.816406 113.285156 98.777344 111.714844 98.777344 110.984375 C 98.777344 110.238281 98.804688 108.640625 99.929688 108.640625 C 101.046875 108.640625 101.109375 110.253906 101.109375 110.984375 Z M 101.109375 110.984375 "/>
</svg>
