<?xml version="1.0" encoding="UTF-8"?>
<svg xmlns="http://www.w3.org/2000/svg" xmlns:xlink="http://www.w3.org/1999/xlink" width="181.259338pt" height="130.46434pt" viewBox="0 0 181.259338 130.46434">
<defs>
<clipPath id="clip-0">
<path clip-rule="nonzero" d="M 32.335938 10 L 168.125 10 L 168.125 111 L 32.335938 111 Z M 32.335938 10 "/>
</clipPath>
<clipPath id="clip-1">
<path clip-rule="nonzero" d="M 97 125 L 103 125 L 103 130.464844 L 97 130.464844 Z M 97 125 "/>
</clipPath>
</defs>
<path fill="none" stroke-width="0.751535" stroke-linecap="butt" stroke-linejoin="miter" stroke="rgb(0%, 0%, 0%)" stroke-opacity="1" stroke-dasharray="0.751535 0.751535" stroke-miterlimit="4" d="M 143.53125 112.930712 L 143.53125 11.565594 " transform="matrix(1, 0, 0, 0.999057, 0, 0)"/>
<g clip-path="url(#clip-0)">
<path fill="none" stroke-width="2.134595" stroke-linecap="square" stroke-linejoin="round" stroke="rgb(81.959534%, 51.371765%, 38.430786%)" stroke-opacity="1" stroke-miterlimit="4" d="M 36.888662 75.480469 L 38.341393 78.777344 L 39.749561 81.746094 L 41.130992 84.457031 L 42.458949 86.882812 L 43.76908 89.082031 L 45.074755 91.113281 L 46.358149 92.945312 L 47.637086 94.625 L 48.92048 96.160156 L 50.226155 97.589844 L 51.53183 98.890625 L 52.864243 100.089844 L 54.223393 101.191406 L 55.600367 102.203125 L 57.030817 103.136719 L 58.510285 103.996094 L 60.038771 104.785156 L 61.643014 105.507812 L 63.318556 106.167969 L 65.096591 106.773438 L 66.968207 107.316406 L 68.964598 107.800781 L 71.1125 108.234375 L 73.429739 108.609375 L 75.920771 108.921875 L 78.607877 109.167969 L 81.468776 109.34375 L 84.449993 109.433594 L 87.506966 109.441406 L 90.541658 109.359375 L 93.451575 109.191406 L 96.209981 108.949219 L 98.776769 108.636719 L 101.143026 108.257812 L 103.335491 107.820312 L 105.385356 107.324219 L 107.305991 106.769531 L 109.106307 106.15625 L 110.808587 105.480469 L 112.412829 104.753906 L 113.941316 103.960938 L 115.420784 103.097656 L 116.846777 102.15625 L 118.228208 101.144531 L 119.56062 100.054688 L 120.866295 98.875 L 122.149689 97.601562 L 123.433083 96.203125 L 124.68974 94.699219 L 125.946396 93.058594 L 127.203053 91.273438 L 128.486447 89.296875 L 129.76984 87.15625 L 131.075515 84.800781 L 132.407928 82.214844 L 133.762621 79.386719 L 135.17079 76.25 L 136.645802 72.726562 L 138.201025 68.792969 L 139.876567 64.300781 L 141.774921 58.953125 L 144.118897 52.074219 L 150.134806 34.273438 L 151.788067 29.746094 L 153.169498 26.210938 L 154.377136 23.347656 L 155.46 20.996094 L 156.471564 19.011719 L 157.385091 17.410156 L 158.245143 16.070312 L 159.033895 15 L 159.773629 14.140625 L 160.464345 13.46875 L 161.132779 12.941406 L 161.747739 12.558594 L 162.340417 12.292969 L 162.906358 12.128906 L 163.472299 12.054688 L 164.042697 12.070312 L 164.608638 12.175781 L 165.174579 12.375 L 165.767257 12.675781 L 166.382217 13.089844 L 167.023914 13.632812 L 167.692348 14.3125 L 168.405345 15.167969 L 169.171816 16.226562 L 169.98285 17.507812 L 170.869639 19.078125 L 171.809903 20.914062 L 172.843749 23.148438 L 173.975631 25.808594 L 175.236743 28.992188 L 176.689474 32.921875 L 178.467509 37.984375 L 181.029841 45.601562 L 185.321189 58.34375 L 187.366598 64.125 L 189.140177 68.882812 L 190.74442 72.933594 L 191.778265 75.414062 " transform="matrix(0.876582, 0, 0, 1, 0, 0)"/>
</g>
<path fill="none" stroke-width="0.751535" stroke-linecap="butt" stroke-linejoin="miter" stroke="rgb(0%, 0%, 38.430786%)" stroke-opacity="1" stroke-dasharray="0.751535 0.751535" stroke-miterlimit="4" d="M 125.800781 58.871922 L 141.957031 58.871922 " transform="matrix(1, 0, 0, 0.999057, 0, 0)"/>
<path fill-rule="evenodd" fill="rgb(0%, 0%, 38.430786%)" fill-opacity="1" stroke-width="0.200409" stroke-linecap="butt" stroke-linejoin="round" stroke="rgb(0%, 0%, 38.430786%)" stroke-opacity="1" stroke-miterlimit="4" d="M 126.703125 58.871922 L 127.453125 58.117305 L 124.824219 58.871922 L 127.453125 59.62263 Z M 126.703125 58.871922 " transform="matrix(1, 0, 0, 0.999057, 0, 0)"/>
<path fill-rule="evenodd" fill="rgb(0%, 0%, 38.430786%)" fill-opacity="1" stroke-width="0.200409" stroke-linecap="butt" stroke-linejoin="round" stroke="rgb(0%, 0%, 38.430786%)" stroke-opacity="1" stroke-miterlimit="4" d="M -141.054688 -58.871922 L -140.300781 -59.62263 L -142.933594 -58.871922 L -140.300781 -58.117305 Z M -141.054688 -58.871922 " transform="matrix(-1, 0, 0, -0.999057, 0, 0)"/>
<path fill="none" stroke-width="0.850394" stroke-linecap="butt" stroke-linejoin="miter" stroke="rgb(50.195312%, 50.195312%, 50.195312%)" stroke-opacity="1" stroke-miterlimit="4" d="M 32.730469 112.824219 L 32.730469 115.355469 "/>
<path fill="none" stroke-width="0.850394" stroke-linecap="butt" stroke-linejoin="miter" stroke="rgb(50.195312%, 50.195312%, 50.195312%)" stroke-opacity="1" stroke-miterlimit="4" d="M 100.320312 112.824219 L 100.320312 115.355469 "/>
<path fill="none" stroke-width="0.850394" stroke-linecap="butt" stroke-linejoin="miter" stroke="rgb(50.195312%, 50.195312%, 50.195312%)" stroke-opacity="1" stroke-miterlimit="4" d="M 167.910156 112.824219 L 167.910156 115.355469 "/>
<path fill="none" stroke-width="0.850394" stroke-linecap="butt" stroke-linejoin="miter" stroke="rgb(50.195312%, 50.195312%, 50.195312%)" stroke-opacity="1" stroke-miterlimit="4" d="M 32.851562 4.804688 L 30.320312 4.804688 "/>
<path fill="none" stroke-width="0.850394" stroke-linecap="butt" stroke-linejoin="miter" stroke="rgb(50.195312%, 50.195312%, 50.195312%)" stroke-opacity="1" stroke-miterlimit="4" d="M 32.734375 112.824219 L 30.203125 112.824219 "/>
<path fill="none" stroke-width="0.850394" stroke-linecap="butt" stroke-linejoin="miter" stroke="rgb(50.195312%, 50.195312%, 50.195312%)" stroke-opacity="1" stroke-miterlimit="4" d="M 32.851562 26.410156 L 31.125 26.410156 "/>
<path fill="none" stroke-width="0.850394" stroke-linecap="butt" stroke-linejoin="miter" stroke="rgb(50.195312%, 50.195312%, 50.195312%)" stroke-opacity="1" stroke-miterlimit="4" d="M 32.851562 48.011719 L 31.125 48.011719 "/>
<path fill="none" stroke-width="0.850394" stroke-linecap="butt" stroke-linejoin="miter" stroke="rgb(50.195312%, 50.195312%, 50.195312%)" stroke-opacity="1" stroke-miterlimit="4" d="M 32.851562 69.617188 L 31.125 69.617188 "/>
<path fill="none" stroke-width="0.850394" stroke-linecap="butt" stroke-linejoin="miter" stroke="rgb(50.195312%, 50.195312%, 50.195312%)" stroke-opacity="1" stroke-miterlimit="4" d="M 32.851562 91.222656 L 31.125 91.222656 "/>
<g clip-path="url(#clip-1)">
<path fill-rule="nonzero" fill="rgb(0%, 0%, 0%)" fill-opacity="1" d="M 98.933594 129.410156 C 99.53125 128.757812 99.863281 128.476562 100.269531 128.125 C 100.269531 128.125 100.957031 127.527344 101.359375 127.121094 C 102.433594 126.082031 102.679688 125.539062 102.679688 125.484375 C 102.679688 125.378906 102.574219 125.378906 102.558594 125.378906 C 102.46875 125.378906 102.453125 125.398438 102.382812 125.503906 C 102.046875 126.046875 101.816406 126.222656 101.554688 126.222656 C 101.273438 126.222656 101.148438 126.046875 100.972656 125.855469 C 100.761719 125.609375 100.570312 125.378906 100.199219 125.378906 C 99.355469 125.378906 98.84375 126.417969 98.84375 126.664062 C 98.84375 126.714844 98.878906 126.785156 98.96875 126.785156 C 99.074219 126.785156 99.089844 126.734375 99.125 126.664062 C 99.335938 126.136719 99.988281 126.136719 100.078125 126.136719 C 100.304688 126.136719 100.515625 126.207031 100.78125 126.292969 C 101.238281 126.46875 101.359375 126.46875 101.640625 126.46875 C 101.238281 126.945312 100.304688 127.753906 100.09375 127.929688 L 99.074219 128.878906 C 98.316406 129.636719 97.910156 130.269531 97.910156 130.359375 C 97.910156 130.464844 98.035156 130.464844 98.050781 130.464844 C 98.140625 130.464844 98.160156 130.445312 98.230469 130.324219 C 98.492188 129.917969 98.828125 129.621094 99.195312 129.621094 C 99.441406 129.621094 99.566406 129.726562 99.847656 130.042969 C 100.023438 130.289062 100.234375 130.464844 100.550781 130.464844 C 101.675781 130.464844 102.328125 129.039062 102.328125 128.738281 C 102.328125 128.6875 102.277344 128.617188 102.1875 128.617188 C 102.082031 128.617188 102.066406 128.6875 102.03125 128.773438 C 101.765625 129.496094 101.042969 129.707031 100.675781 129.707031 C 100.464844 129.707031 100.253906 129.636719 100.023438 129.566406 C 99.636719 129.425781 99.460938 129.375 99.230469 129.375 C 99.214844 129.375 99.039062 129.375 98.933594 129.410156 Z M 98.933594 129.410156 "/>
</g>
<path fill="none" stroke-width="0.850795" stroke-linecap="butt" stroke-linejoin="round" stroke="rgb(1.176453%, 0%, 0%)" stroke-opacity="1" stroke-miterlimit="4" d="M 32.683594 4.809223 L 167.910156 4.809223 L 167.910156 112.930712 L 32.683594 112.930712 Z M 32.683594 4.809223 " transform="matrix(1, 0, 0, 0.999057, 0, 0)"/>
<path fill-rule="nonzero" fill="rgb(0%, 0%, 0%)" fill-opacity="1" d="M 152.863281 8.75 C 152.9375 8.496094 153.054688 8.011719 153.054688 7.953125 C 153.054688 7.742188 152.902344 7.625 152.6875 7.625 C 152.667969 7.625 152.320312 7.644531 152.203125 8.070312 L 150.417969 15.226562 C 150.378906 15.378906 150.378906 15.398438 150.378906 15.4375 C 150.378906 15.613281 150.515625 15.769531 150.730469 15.769531 C 150.980469 15.769531 151.136719 15.535156 151.15625 15.496094 C 151.214844 15.398438 151.367188 14.742188 151.835938 12.839844 C 152.242188 13.171875 152.804688 13.226562 153.035156 13.226562 C 153.910156 13.226562 154.394531 12.664062 154.683594 12.316406 C 154.800781 12.878906 155.265625 13.226562 155.808594 13.226562 C 156.234375 13.226562 156.527344 12.9375 156.71875 12.550781 C 156.933594 12.105469 157.089844 11.347656 157.089844 11.328125 C 157.089844 11.191406 156.972656 11.191406 156.933594 11.191406 C 156.816406 11.191406 156.796875 11.25 156.757812 11.425781 C 156.566406 12.21875 156.332031 12.957031 155.828125 12.957031 C 155.5 12.957031 155.460938 12.628906 155.460938 12.394531 C 155.460938 12.121094 155.597656 11.542969 155.691406 11.09375 L 156.042969 9.757812 C 156.082031 9.582031 156.214844 9.117188 156.253906 8.921875 C 156.3125 8.632812 156.449219 8.167969 156.449219 8.089844 C 156.449219 7.875 156.273438 7.761719 156.082031 7.761719 C 156.023438 7.761719 155.691406 7.78125 155.597656 8.1875 L 155.015625 10.511719 C 154.878906 11.132812 154.742188 11.636719 154.703125 11.773438 C 154.683594 11.832031 154.101562 12.957031 153.09375 12.957031 C 152.472656 12.957031 152.183594 12.550781 152.183594 11.871094 C 152.183594 11.523438 152.261719 11.171875 152.359375 10.824219 Z M 152.863281 8.75 "/>
<path fill-rule="nonzero" fill="rgb(0%, 0%, 0%)" fill-opacity="1" d="M 153.128906 50.769531 C 153.128906 50.539062 153.128906 50.539062 152.878906 50.539062 C 152.316406 51.082031 151.539062 51.082031 151.191406 51.082031 L 151.191406 51.390625 C 151.386719 51.390625 151.96875 51.390625 152.433594 51.15625 L 152.433594 55.558594 C 152.433594 55.851562 152.433594 55.964844 151.578125 55.964844 L 151.25 55.964844 L 151.25 56.277344 C 151.40625 56.277344 152.472656 56.238281 152.78125 56.238281 C 153.054688 56.238281 154.140625 56.277344 154.332031 56.277344 L 154.332031 55.964844 L 154.003906 55.964844 C 153.128906 55.964844 153.128906 55.851562 153.128906 55.558594 Z M 153.128906 50.769531 "/>
<path fill="none" stroke-width="0.49391" stroke-linecap="butt" stroke-linejoin="miter" stroke="rgb(27.842712%, 40.391541%, 47.450256%)" stroke-opacity="1" stroke-miterlimit="10" d="M 145.75 -58.054688 L 159.660156 -58.054688 " transform="matrix(1, 0, 0, -1, 0, 0)"/>
<path fill-rule="nonzero" fill="rgb(0%, 0%, 0%)" fill-opacity="1" d="M 149.589844 66.925781 L 147.882812 63.554688 C 147.84375 63.476562 147.824219 63.417969 147.746094 63.417969 C 147.707031 63.417969 147.6875 63.417969 147.613281 63.476562 L 146.679688 64.097656 C 146.566406 64.171875 146.566406 64.210938 146.566406 64.25 C 146.566406 64.289062 146.601562 64.367188 146.679688 64.367188 C 146.71875 64.367188 146.738281 64.367188 146.855469 64.289062 C 146.953125 64.210938 147.183594 64.039062 147.300781 63.980469 L 149.203125 67.722656 C 149.261719 67.839844 149.28125 67.859375 149.394531 67.859375 C 149.472656 67.859375 149.570312 67.859375 149.648438 67.703125 L 153.992188 59.597656 C 154.070312 59.480469 154.070312 59.480469 154.070312 59.421875 C 154.070312 59.289062 153.953125 59.210938 153.855469 59.210938 C 153.738281 59.210938 153.679688 59.289062 153.640625 59.402344 Z M 149.589844 66.925781 "/>
<path fill="none" stroke-width="0.420692" stroke-linecap="butt" stroke-linejoin="miter" stroke="rgb(27.842712%, 40.391541%, 47.450256%)" stroke-opacity="1" stroke-miterlimit="10" d="M 153.871094 -59.425781 L 159.660156 -59.425781 " transform="matrix(1, 0, 0, -1, 0, 0)"/>
<path fill-rule="nonzero" fill="rgb(0%, 0%, 0%)" fill-opacity="1" d="M 156.160156 63.6875 C 156.488281 63.496094 156.898438 63.183594 156.957031 63.144531 C 157.558594 62.699219 157.75 62.582031 158.042969 62.484375 C 158.023438 62.523438 158.003906 62.582031 158.003906 62.621094 C 158.003906 62.835938 158.136719 62.953125 158.351562 62.953125 C 158.625 62.953125 158.835938 62.71875 158.835938 62.484375 C 158.835938 62.273438 158.679688 62.15625 158.46875 62.15625 C 157.886719 62.15625 157.304688 62.601562 156.839844 62.953125 C 156.160156 63.457031 155.929688 63.554688 155.714844 63.609375 C 155.8125 63.203125 155.832031 63.125 155.871094 62.972656 C 155.929688 62.757812 156.023438 62.390625 156.023438 62.351562 C 156.023438 62.195312 155.910156 62.058594 155.734375 62.058594 C 155.558594 62.058594 155.421875 62.195312 155.367188 62.292969 C 155.328125 62.390625 154.511719 65.628906 154.511719 65.6875 C 154.511719 65.878906 154.667969 65.957031 154.824219 65.957031 C 155.132812 65.957031 155.191406 65.6875 155.230469 65.53125 C 155.25 65.492188 155.421875 64.773438 155.636719 63.921875 C 156.082031 63.921875 157.285156 63.960938 157.285156 64.621094 C 157.285156 64.621094 157.265625 64.695312 157.246094 64.8125 C 157.226562 64.949219 157.226562 64.988281 157.226562 65.085938 C 157.226562 65.6875 157.710938 65.957031 158.136719 65.957031 C 158.992188 65.957031 159.242188 64.65625 159.242188 64.636719 C 159.242188 64.523438 159.128906 64.523438 159.089844 64.523438 C 158.972656 64.523438 158.972656 64.582031 158.914062 64.734375 C 158.835938 65.085938 158.605469 65.722656 158.15625 65.722656 C 157.925781 65.722656 157.867188 65.511719 157.867188 65.277344 C 157.867188 65.125 157.867188 65.105469 157.90625 64.890625 C 157.945312 64.792969 157.964844 64.695312 157.964844 64.601562 C 157.964844 63.6875 156.433594 63.6875 156.160156 63.6875 Z M 156.160156 63.6875 "/>
<path fill-rule="nonzero" fill="rgb(0%, 0%, 0%)" fill-opacity="1" d="M 17.375 69.371094 L 17.375 67.453125 C 17.375 65.871094 16.214844 64.304688 14.964844 64.304688 C 14.085938 64.304688 13.257812 65.042969 13.257812 66.519531 L 13.257812 70.144531 C 13.257812 70.355469 13.257812 70.480469 13.46875 70.480469 C 13.609375 70.480469 13.609375 70.390625 13.609375 70.164062 C 13.609375 70.023438 13.625 69.8125 13.625 69.6875 C 13.660156 69.492188 13.679688 69.441406 13.820312 69.441406 C 13.855469 69.441406 13.890625 69.441406 14.03125 69.476562 L 20.050781 70.988281 C 20.488281 71.09375 20.578125 71.113281 20.578125 72.011719 C 20.578125 72.1875 20.578125 72.308594 20.789062 72.308594 C 20.929688 72.308594 20.929688 72.1875 20.929688 72.152344 C 20.929688 71.835938 20.894531 71.042969 20.894531 70.726562 C 20.894531 70.480469 20.910156 70.234375 20.910156 70.003906 C 20.910156 69.757812 20.929688 69.511719 20.929688 69.28125 C 20.929688 69.195312 20.929688 69.054688 20.699219 69.054688 C 20.578125 69.054688 20.578125 69.160156 20.578125 69.371094 C 20.578125 69.777344 20.578125 70.09375 20.382812 70.09375 C 20.3125 70.09375 20.261719 70.074219 20.191406 70.058594 Z M 14.03125 68.5625 C 13.644531 68.457031 13.609375 68.4375 13.609375 67.945312 L 13.609375 66.871094 C 13.609375 65.941406 13.910156 65.339844 14.683594 65.339844 C 15.121094 65.339844 16.089844 65.570312 16.496094 66.011719 C 17.003906 66.574219 17.09375 67.242188 17.09375 67.734375 L 17.09375 69.316406 Z M 14.03125 68.5625 "/>
<path fill-rule="nonzero" fill="rgb(0%, 0%, 0%)" fill-opacity="1" d="M 20.261719 63.019531 C 20.4375 63.054688 20.699219 63.125 20.753906 63.125 C 20.945312 63.125 21.050781 62.964844 21.050781 62.789062 C 21.050781 62.648438 20.964844 62.457031 20.734375 62.367188 C 20.699219 62.351562 19.167969 61.980469 18.957031 61.929688 C 18.589844 61.839844 17.816406 61.628906 17.496094 61.578125 C 17.355469 61.523438 16.828125 61.207031 16.582031 60.941406 C 16.511719 60.855469 16.214844 60.519531 16.214844 60.046875 C 16.214844 59.746094 16.355469 59.585938 16.355469 59.570312 C 16.40625 59.90625 16.671875 60.152344 16.96875 60.152344 C 17.144531 60.152344 17.355469 60.027344 17.355469 59.730469 C 17.355469 59.429688 17.09375 59.113281 16.6875 59.113281 C 16.300781 59.113281 15.96875 59.464844 15.96875 60.046875 C 15.96875 60.765625 16.511719 61.257812 16.828125 61.46875 C 16.320312 61.578125 15.96875 61.980469 15.96875 62.507812 C 15.96875 63.019531 16.40625 63.230469 16.601562 63.335938 C 16.988281 63.53125 17.65625 63.671875 17.691406 63.671875 C 17.816406 63.671875 17.816406 63.566406 17.816406 63.546875 C 17.816406 63.425781 17.796875 63.425781 17.550781 63.351562 C 16.757812 63.160156 16.214844 62.929688 16.214844 62.527344 C 16.214844 62.351562 16.300781 62.191406 16.722656 62.191406 C 16.96875 62.191406 17.09375 62.226562 17.675781 62.367188 Z M 20.261719 63.019531 "/>
<path fill-rule="nonzero" fill="rgb(0%, 0%, 0%)" fill-opacity="1" d="M 23.621094 54.917969 C 23.585938 54.917969 23.570312 54.917969 23.375 55.113281 C 21.96875 56.503906 19.839844 56.871094 18.113281 56.871094 C 16.160156 56.871094 14.207031 56.449219 12.816406 55.058594 C 12.675781 54.917969 12.660156 54.917969 12.625 54.917969 C 12.535156 54.917969 12.5 54.953125 12.5 55.023438 C 12.5 55.148438 13.273438 56.148438 14.699219 56.820312 C 15.933594 57.382812 17.179688 57.523438 18.113281 57.523438 C 18.992188 57.523438 20.347656 57.398438 21.632812 56.785156 C 23.003906 56.097656 23.746094 55.148438 23.746094 55.023438 C 23.746094 54.953125 23.710938 54.917969 23.621094 54.917969 Z M 23.621094 54.917969 "/>
<path fill-rule="nonzero" fill="rgb(0%, 0%, 0%)" fill-opacity="1" d="M 19.996094 52.773438 C 19.34375 52.175781 19.0625 51.839844 18.710938 51.4375 C 18.710938 51.4375 18.113281 50.75 17.710938 50.34375 C 16.671875 49.269531 16.125 49.023438 16.074219 49.023438 C 15.96875 49.023438 15.96875 49.128906 15.96875 49.148438 C 15.96875 49.234375 15.984375 49.253906 16.089844 49.324219 C 16.636719 49.660156 16.8125 49.886719 16.8125 50.152344 C 16.8125 50.433594 16.636719 50.554688 16.441406 50.730469 C 16.195312 50.941406 15.96875 51.136719 15.96875 51.507812 C 15.96875 52.351562 17.003906 52.859375 17.25 52.859375 C 17.304688 52.859375 17.375 52.824219 17.375 52.738281 C 17.375 52.632812 17.320312 52.613281 17.25 52.578125 C 16.722656 52.367188 16.722656 51.71875 16.722656 51.628906 C 16.722656 51.402344 16.792969 51.1875 16.882812 50.925781 C 17.058594 50.46875 17.058594 50.34375 17.058594 50.0625 C 17.53125 50.46875 18.34375 51.402344 18.519531 51.613281 L 19.46875 52.632812 C 20.226562 53.390625 20.859375 53.792969 20.945312 53.792969 C 21.050781 53.792969 21.050781 53.671875 21.050781 53.652344 C 21.050781 53.566406 21.035156 53.546875 20.910156 53.476562 C 20.507812 53.214844 20.207031 52.878906 20.207031 52.507812 C 20.207031 52.261719 20.3125 52.140625 20.628906 51.859375 C 20.875 51.683594 21.050781 51.472656 21.050781 51.152344 C 21.050781 50.027344 19.628906 49.378906 19.328125 49.378906 C 19.273438 49.378906 19.203125 49.429688 19.203125 49.519531 C 19.203125 49.625 19.273438 49.640625 19.363281 49.675781 C 20.085938 49.941406 20.296875 50.660156 20.296875 51.03125 C 20.296875 51.242188 20.226562 51.453125 20.15625 51.683594 C 20.015625 52.070312 19.960938 52.246094 19.960938 52.472656 C 19.960938 52.492188 19.960938 52.667969 19.996094 52.773438 Z M 19.996094 52.773438 "/>
<path fill-rule="nonzero" fill="rgb(0%, 0%, 0%)" fill-opacity="1" d="M 18.113281 45.320312 C 17.25 45.320312 15.898438 45.445312 14.613281 46.058594 C 13.238281 46.726562 12.5 47.695312 12.5 47.800781 C 12.5 47.871094 12.554688 47.925781 12.625 47.925781 C 12.660156 47.925781 12.675781 47.925781 12.886719 47.714844 C 13.996094 46.605469 15.773438 45.972656 18.113281 45.972656 C 20.050781 45.972656 22.019531 46.375 23.429688 47.765625 C 23.570312 47.925781 23.585938 47.925781 23.621094 47.925781 C 23.691406 47.925781 23.746094 47.871094 23.746094 47.800781 C 23.746094 47.695312 22.96875 46.675781 21.546875 46.023438 C 20.3125 45.445312 19.0625 45.320312 18.113281 45.320312 Z M 18.113281 45.320312 "/>
<path fill-rule="nonzero" fill="rgb(50.195312%, 50.195312%, 50.195312%)" fill-opacity="1" d="M 98.929688 119.292969 C 98.917969 118.128906 98.660156 116.445312 97.183594 116.445312 C 95.710938 116.445312 95.460938 118.15625 95.460938 119.292969 C 95.460938 120.445312 95.722656 122.117188 97.183594 122.117188 C 98.644531 122.117188 98.929688 120.445312 98.929688 119.292969 Z M 98.359375 119.292969 C 98.359375 120.050781 98.300781 121.597656 97.183594 121.597656 C 96.070312 121.597656 96.03125 120.027344 96.03125 119.292969 C 96.03125 118.550781 96.058594 116.953125 97.183594 116.953125 C 98.300781 116.953125 98.359375 118.5625 98.359375 119.292969 Z M 98.359375 119.292969 "/>
<path fill-rule="nonzero" fill="rgb(50.195312%, 50.195312%, 50.195312%)" fill-opacity="1" d="M 99.945312 121.203125 L 100.699219 121.203125 L 100.699219 122.007812 L 99.945312 122.007812 Z M 99.945312 121.203125 "/>
<path fill-rule="nonzero" fill="rgb(50.195312%, 50.195312%, 50.195312%)" fill-opacity="1" d="M 105.179688 119.292969 C 105.164062 118.128906 104.90625 116.445312 103.429688 116.445312 C 101.957031 116.445312 101.710938 118.15625 101.710938 119.292969 C 101.710938 120.445312 101.96875 122.117188 103.429688 122.117188 C 104.894531 122.117188 105.179688 120.445312 105.179688 119.292969 Z M 104.609375 119.292969 C 104.609375 120.050781 104.546875 121.597656 103.429688 121.597656 C 102.316406 121.597656 102.28125 120.027344 102.28125 119.292969 C 102.28125 118.550781 102.304688 116.953125 103.429688 116.953125 C 104.546875 116.953125 104.609375 118.5625 104.609375 119.292969 Z M 104.609375 119.292969 "/>
<path fill-rule="nonzero" fill="rgb(50.195312%, 50.195312%, 50.195312%)" fill-opacity="1" d="M 31.480469 118.03125 C 31.617188 118.03125 31.765625 118.03125 31.765625 117.871094 C 31.765625 117.722656 31.617188 117.722656 31.480469 117.722656 L 27.207031 117.722656 C 27.070312 117.722656 26.933594 117.722656 26.933594 117.871094 C 26.933594 118.03125 27.070312 118.03125 27.207031 118.03125 Z M 31.480469 118.03125 "/>
<path fill-rule="nonzero" fill="rgb(50.195312%, 50.195312%, 50.195312%)" fill-opacity="1" d="M 34.515625 116.902344 L 35.40625 116.902344 C 35.144531 118.070312 35.070312 118.414062 35.070312 118.949219 C 35.070312 119.058594 35.070312 119.269531 35.132812 119.542969 C 35.21875 119.890625 35.308594 119.9375 35.417969 119.9375 C 35.578125 119.9375 35.753906 119.800781 35.753906 119.640625 C 35.753906 119.59375 35.753906 119.578125 35.703125 119.46875 C 35.46875 118.898438 35.46875 118.378906 35.46875 118.15625 C 35.46875 117.746094 35.53125 117.3125 35.617188 116.902344 L 36.507812 116.902344 C 36.621094 116.902344 36.90625 116.902344 36.90625 116.632812 C 36.90625 116.445312 36.730469 116.445312 36.582031 116.445312 L 33.933594 116.445312 C 33.757812 116.445312 33.460938 116.445312 33.113281 116.816406 C 32.84375 117.128906 32.632812 117.484375 32.632812 117.523438 C 32.632812 117.535156 32.632812 117.609375 32.730469 117.609375 C 32.792969 117.609375 32.804688 117.574219 32.855469 117.511719 C 33.238281 116.902344 33.695312 116.902344 33.859375 116.902344 L 34.304688 116.902344 C 34.054688 117.859375 33.632812 118.8125 33.300781 119.53125 C 33.238281 119.652344 33.238281 119.667969 33.238281 119.726562 C 33.238281 119.875 33.363281 119.9375 33.460938 119.9375 C 33.695312 119.9375 33.757812 119.714844 33.859375 119.429688 C 33.96875 119.058594 33.96875 119.046875 34.066406 118.652344 Z M 34.515625 116.902344 "/>
<path fill-rule="nonzero" fill="rgb(50.195312%, 50.195312%, 50.195312%)" fill-opacity="1" d="M 167.605469 116.902344 L 168.496094 116.902344 C 168.238281 118.070312 168.164062 118.414062 168.164062 118.949219 C 168.164062 119.058594 168.164062 119.269531 168.222656 119.542969 C 168.3125 119.890625 168.398438 119.9375 168.507812 119.9375 C 168.671875 119.9375 168.84375 119.800781 168.84375 119.640625 C 168.84375 119.59375 168.84375 119.578125 168.792969 119.46875 C 168.558594 118.898438 168.558594 118.378906 168.558594 118.15625 C 168.558594 117.746094 168.621094 117.3125 168.707031 116.902344 L 169.597656 116.902344 C 169.710938 116.902344 169.996094 116.902344 169.996094 116.632812 C 169.996094 116.445312 169.820312 116.445312 169.671875 116.445312 L 167.023438 116.445312 C 166.847656 116.445312 166.550781 116.445312 166.207031 116.816406 C 165.933594 117.128906 165.722656 117.484375 165.722656 117.523438 C 165.722656 117.535156 165.722656 117.609375 165.820312 117.609375 C 165.882812 117.609375 165.894531 117.574219 165.945312 117.511719 C 166.328125 116.902344 166.789062 116.902344 166.949219 116.902344 L 167.394531 116.902344 C 167.148438 117.859375 166.726562 118.8125 166.390625 119.53125 C 166.328125 119.652344 166.328125 119.667969 166.328125 119.726562 C 166.328125 119.875 166.453125 119.9375 166.550781 119.9375 C 166.789062 119.9375 166.847656 119.714844 166.949219 119.429688 C 167.058594 119.058594 167.058594 119.046875 167.160156 118.652344 Z M 167.605469 116.902344 "/>
<path fill-rule="nonzero" fill="rgb(50.195312%, 50.195312%, 50.195312%)" fill-opacity="1" d="M 22.679688 112.804688 C 22.667969 111.640625 22.410156 109.957031 20.933594 109.957031 C 19.460938 109.957031 19.214844 111.667969 19.214844 112.804688 C 19.214844 113.957031 19.472656 115.628906 20.933594 115.628906 C 22.394531 115.628906 22.679688 113.957031 22.679688 112.804688 Z M 22.113281 112.804688 C 22.113281 113.5625 22.050781 115.109375 20.933594 115.109375 C 19.820312 115.109375 19.78125 113.535156 19.78125 112.804688 C 19.78125 112.0625 19.808594 110.464844 20.933594 110.464844 C 22.050781 110.464844 22.113281 112.074219 22.113281 112.804688 Z M 22.113281 112.804688 "/>
<path fill-rule="nonzero" fill="rgb(50.195312%, 50.195312%, 50.195312%)" fill-opacity="1" d="M 23.695312 114.714844 L 24.449219 114.714844 L 24.449219 115.519531 L 23.695312 115.519531 Z M 23.695312 114.714844 "/>
<path fill-rule="nonzero" fill="rgb(50.195312%, 50.195312%, 50.195312%)" fill-opacity="1" d="M 28.929688 112.804688 C 28.914062 111.640625 28.65625 109.957031 27.183594 109.957031 C 25.707031 109.957031 25.460938 111.667969 25.460938 112.804688 C 25.460938 113.957031 25.71875 115.628906 27.183594 115.628906 C 28.644531 115.628906 28.929688 113.957031 28.929688 112.804688 Z M 28.359375 112.804688 C 28.359375 113.5625 28.296875 115.109375 27.183594 115.109375 C 26.066406 115.109375 26.03125 113.535156 26.03125 112.804688 C 26.03125 112.0625 26.054688 110.464844 27.183594 110.464844 C 28.296875 110.464844 28.359375 112.074219 28.359375 112.804688 Z M 28.359375 112.804688 "/>
<path fill-rule="nonzero" fill="rgb(50.195312%, 50.195312%, 50.195312%)" fill-opacity="1" d="M 22.878906 5.117188 C 22.867188 3.953125 22.605469 2.269531 21.132812 2.269531 C 19.660156 2.269531 19.410156 3.980469 19.410156 5.117188 C 19.410156 6.269531 19.671875 7.941406 21.132812 7.941406 C 22.59375 7.941406 22.878906 6.269531 22.878906 5.117188 Z M 22.308594 5.117188 C 22.308594 5.875 22.246094 7.421875 21.132812 7.421875 C 20.019531 7.421875 19.980469 5.847656 19.980469 5.117188 C 19.980469 4.375 20.003906 2.777344 21.132812 2.777344 C 22.246094 2.777344 22.308594 4.386719 22.308594 5.117188 Z M 22.308594 5.117188 "/>
<path fill-rule="nonzero" fill="rgb(50.195312%, 50.195312%, 50.195312%)" fill-opacity="1" d="M 23.890625 7.027344 L 24.648438 7.027344 L 24.648438 7.832031 L 23.890625 7.832031 Z M 23.890625 7.027344 "/>
<path fill-rule="nonzero" fill="rgb(50.195312%, 50.195312%, 50.195312%)" fill-opacity="1" d="M 28.730469 6.097656 C 28.71875 4.980469 28.023438 4.25 26.910156 4.25 C 26.761719 4.265625 26.425781 4.300781 26.226562 4.375 L 26.425781 2.9375 L 28.359375 2.9375 L 28.359375 2.367188 L 26.03125 2.367188 L 25.695312 5.070312 C 26.128906 4.859375 26.226562 4.808594 26.785156 4.808594 C 27.589844 4.808594 28.160156 5.253906 28.160156 6.097656 C 28.160156 6.964844 27.601562 7.386719 26.785156 7.386719 C 26.242188 7.386719 25.882812 7.273438 25.484375 7.027344 L 25.484375 7.707031 C 25.84375 7.84375 26.375 7.941406 26.796875 7.941406 C 27.972656 7.941406 28.730469 7.296875 28.730469 6.097656 Z M 28.730469 6.097656 "/>
</svg>
