<?xml version="1.0" encoding="UTF-8"?>
<svg xmlns="http://www.w3.org/2000/svg" xmlns:xlink="http://www.w3.org/1999/xlink" width="411.857025pt" height="126.349167pt" viewBox="0 0 411.857025 126.349167">
<defs>
<clipPath id="clip-0">
<path clip-rule="nonzero" d="M 20.214844 37 L 126.210938 37 L 126.210938 111 L 20.214844 111 Z M 20.214844 37 "/>
</clipPath>
<clipPath id="clip-1">
<path clip-rule="nonzero" d="M 160.164062 38 L 266.097656 38 L 266.097656 108 L 160.164062 108 Z M 160.164062 38 "/>
</clipPath>
<clipPath id="clip-2">
<path clip-rule="nonzero" d="M 302.679688 37 L 408.613281 37 L 408.613281 108 L 302.679688 108 Z M 302.679688 37 "/>
</clipPath>
<clipPath id="clip-3">
<path clip-rule="nonzero" d="M 70 121 L 76 121 L 76 126.347656 L 70 126.347656 Z M 70 121 "/>
</clipPath>
<clipPath id="clip-4">
<path clip-rule="nonzero" d="M 210 121 L 216 121 L 216 126.347656 L 210 126.347656 Z M 210 121 "/>
</clipPath>
<clipPath id="clip-5">
<path clip-rule="nonzero" d="M 353 121 L 359 121 L 359 126.347656 L 353 126.347656 Z M 353 121 "/>
</clipPath>
<clipPath id="clip-6">
<path clip-rule="nonzero" d="M 408 113 L 411.855469 113 L 411.855469 119 L 408 119 Z M 408 113 "/>
</clipPath>
</defs>
<path fill="none" stroke-width="0.751181" stroke-linecap="butt" stroke-linejoin="miter" stroke="rgb(77.645874%, 80.39093%, 81.175232%)" stroke-opacity="1" stroke-dasharray="0.751181 0.751181" stroke-miterlimit="4" d="M 302.933594 86.410156 L 408.65625 86.410156 "/>
<path fill="none" stroke-width="0.751181" stroke-linecap="butt" stroke-linejoin="miter" stroke="rgb(77.645874%, 80.39093%, 81.175232%)" stroke-opacity="1" stroke-dasharray="0.751181 0.751181" stroke-miterlimit="4" d="M 159.980469 100.679688 L 265.707031 100.679688 "/>
<path fill="none" stroke-width="0.751181" stroke-linecap="butt" stroke-linejoin="miter" stroke="rgb(77.645874%, 80.39093%, 81.175232%)" stroke-opacity="1" stroke-dasharray="0.751181 0.751181" stroke-miterlimit="4" d="M 30.648438 62.285156 C 30.648438 62.285156 31.183594 100.007812 30.648438 110.441406 "/>
<path fill="none" stroke-width="0.751181" stroke-linecap="butt" stroke-linejoin="miter" stroke="rgb(77.645874%, 80.39093%, 81.175232%)" stroke-opacity="1" stroke-dasharray="0.751181 0.751181" stroke-miterlimit="4" d="M 20.351562 62.429688 L 30.425781 62.429688 "/>
<g clip-path="url(#clip-0)">
<path fill="none" stroke-width="2.224217" stroke-linecap="square" stroke-linejoin="round" stroke="rgb(81.959534%, 51.371765%, 38.430786%)" stroke-opacity="1" stroke-miterlimit="4" d="M 20.320312 137.841374 L 20.425781 128.898667 L 20.640625 119.951052 L 20.851562 114.71893 L 21.167969 109.4819 L 21.488281 105.771315 L 21.804688 102.890212 L 22.230469 99.837323 L 22.652344 97.373416 L 23.183594 94.835886 L 23.714844 92.715552 L 24.347656 90.555952 L 24.984375 88.710475 L 25.726562 86.845366 L 26.46875 85.21585 L 27.316406 83.571609 L 28.164062 82.118787 L 29.117188 80.656149 L 30.074219 79.340757 L 31.132812 78.020456 L 32.300781 76.709971 L 33.570312 75.419119 L 34.84375 74.246064 L 36.21875 73.082825 L 37.703125 71.939219 L 39.292969 70.815245 L 41.097656 69.652006 L 43.003906 68.523124 L 45.019531 67.4286 L 47.242188 66.319351 L 49.574219 65.254275 L 52.121094 64.179383 L 54.875 63.1094 L 57.84375 62.049233 L 61.023438 61.00379 L 64.519531 59.943623 L 68.335938 58.873639 L 72.363281 57.838013 L 76.816406 56.782754 L 81.585938 55.737311 L 86.78125 54.68696 L 92.398438 53.641517 L 98.4375 52.605891 L 105.011719 51.565357 L 112.113281 50.524822 L 119.742188 49.494104 L 126.101562 48.69407 " transform="matrix(1, 0, 0, 0.795865, 0, 0)"/>
</g>
<g clip-path="url(#clip-1)">
<path fill="none" stroke-width="2.055178" stroke-linecap="square" stroke-linejoin="round" stroke="rgb(62.744141%, 85.096741%, 82.743835%)" stroke-opacity="1" stroke-miterlimit="4" d="M 160.164062 114.232907 L 162.28125 113.478618 L 164.398438 112.632138 L 166.519531 111.693467 L 168.585938 110.683558 L 170.542969 109.635934 L 172.292969 108.605072 L 173.667969 107.704115 L 174.78125 106.874397 L 175.734375 106.057251 L 176.527344 105.269437 L 177.269531 104.410386 L 177.960938 103.471715 L 178.59375 102.461805 L 179.230469 101.280086 L 179.8125 100.018747 L 180.394531 98.560454 L 180.976562 96.880065 L 181.613281 94.768056 L 182.25 92.341759 L 182.886719 89.588603 L 183.574219 86.227826 L 184.316406 82.192379 L 185.164062 77.113498 L 186.328125 69.558035 L 188.234375 57.141597 L 189.027344 52.557195 L 189.664062 49.376608 L 190.195312 47.143074 L 190.671875 45.49621 L 191.042969 44.48211 L 191.414062 43.702678 L 191.730469 43.233342 L 191.996094 42.981912 L 192.207031 42.872959 L 192.417969 42.843626 L 192.632812 42.898102 L 192.84375 43.032198 L 193.109375 43.308771 L 193.371094 43.706868 L 193.691406 44.331252 L 194.0625 45.253161 L 194.484375 46.548024 L 195.015625 48.471461 L 195.648438 51.149188 L 196.496094 55.146921 L 199.039062 67.425073 L 199.78125 70.467372 L 200.417969 72.738621 L 201 74.527962 L 201.53125 75.894064 L 202.007812 76.920735 L 202.484375 77.754644 L 202.90625 78.345504 L 203.332031 78.793887 L 203.753906 79.116555 L 204.125 79.300937 L 204.496094 79.397318 L 204.867188 79.418271 L 205.289062 79.351223 L 205.714844 79.200365 L 206.191406 78.940554 L 206.71875 78.555029 L 207.355469 77.980931 L 208.097656 77.180546 L 208.945312 76.137113 L 210.058594 74.628534 L 211.753906 72.160333 L 214.398438 68.313458 L 215.671875 66.624688 L 216.679688 65.417825 L 217.578125 64.466583 L 218.371094 63.741627 L 219.113281 63.17172 L 219.804688 62.75267 L 220.4375 62.459335 L 221.074219 62.262382 L 221.65625 62.170191 L 222.238281 62.16181 L 222.820312 62.24562 L 223.40625 62.421621 L 223.988281 62.685622 L 224.570312 63.037624 L 225.207031 63.523721 L 225.894531 64.169058 L 226.582031 64.927537 L 227.324219 65.874589 L 228.117188 67.018595 L 229.019531 68.468506 L 230.027344 70.262038 L 231.191406 72.516525 L 232.621094 75.483395 L 234.84375 80.327608 L 237.601562 86.286493 L 239.242188 89.634699 L 240.671875 92.358521 L 241.996094 94.692627 L 243.214844 96.678922 L 244.433594 98.505978 L 245.652344 100.173795 L 246.867188 101.694945 L 248.085938 103.081999 L 249.304688 104.339147 L 250.578125 105.533439 L 251.902344 106.664872 L 253.277344 107.729258 L 254.761719 108.764311 L 256.296875 109.740696 L 257.9375 110.679367 L 259.6875 111.584514 L 261.539062 112.451947 L 263.5 113.273284 L 265.511719 114.023383 L 266.042969 114.207764 " transform="matrix(1, 0, 0, 0.932169, 0, 0)"/>
</g>
<g clip-path="url(#clip-2)">
<path fill="none" stroke-width="2.06245" stroke-linecap="square" stroke-linejoin="round" stroke="rgb(62.744141%, 85.096741%, 82.743835%)" stroke-opacity="1" stroke-miterlimit="4" d="M 302.679688 114.726111 L 304.90625 110.484811 L 307.128906 106.420759 L 309.300781 102.631021 L 311.523438 98.917245 L 314.171875 94.671725 L 316.769531 90.481068 L 317.988281 88.345647 L 318.941406 86.50564 L 319.789062 84.686734 L 320.582031 82.783425 L 321.378906 80.652224 L 322.171875 78.276252 L 323.019531 75.461379 L 323.972656 71.983935 L 325.191406 67.181349 L 328.210938 55.103139 L 329.164062 51.72276 L 329.957031 49.19908 L 330.644531 47.27045 L 331.28125 45.721636 L 331.863281 44.506219 L 332.394531 43.581996 L 332.871094 42.902544 L 333.347656 42.362358 L 333.769531 42.003641 L 334.195312 41.76309 L 334.566406 41.640704 L 334.9375 41.606942 L 335.308594 41.657585 L 335.679688 41.788411 L 336.101562 42.041623 L 336.527344 42.391899 L 337.003906 42.898323 L 337.53125 43.594656 L 338.113281 44.510439 L 338.804688 45.755398 L 339.652344 47.48568 L 341.027344 50.536884 L 342.351562 53.398179 L 343.148438 54.92167 L 343.835938 56.061124 L 344.417969 56.867182 L 344.949219 57.46645 L 345.476562 57.934893 L 345.953125 58.242967 L 346.429688 58.449757 L 346.90625 58.563702 L 347.382812 58.589023 L 347.914062 58.52572 L 348.441406 58.378013 L 349.078125 58.107921 L 349.820312 57.694341 L 350.722656 57.082412 L 351.9375 56.137088 L 356.917969 52.16166 L 358.1875 51.3134 L 359.300781 50.66349 L 360.359375 50.144405 L 361.367188 49.747706 L 362.320312 49.460733 L 363.222656 49.283484 L 364.070312 49.19908 L 364.914062 49.19908 L 365.761719 49.283484 L 366.609375 49.456513 L 367.457031 49.718165 L 368.304688 50.072662 L 369.152344 50.515783 L 370.054688 51.085509 L 370.953125 51.756521 L 371.90625 52.57524 L 372.914062 53.554326 L 373.972656 54.714881 L 375.085938 56.056904 L 376.25 57.601497 L 377.523438 59.428843 L 378.898438 61.555823 L 380.488281 64.172347 L 382.394531 67.480983 L 385.042969 72.266688 L 391.609375 84.188751 L 395.265625 90.590793 L 402.308594 102.888453 L 405.066406 107.906269 L 407.554688 112.616012 L 408.5625 114.574184 " transform="matrix(1, 0, 0, 0.925608, 0, 0)"/>
</g>
<path fill="none" stroke-width="0.850394" stroke-linecap="butt" stroke-linejoin="miter" stroke="rgb(50.195312%, 50.195312%, 50.195312%)" stroke-opacity="1" stroke-miterlimit="4" d="M 20.230469 110.210938 L 20.230469 112.738281 "/>
<path fill="none" stroke-width="0.850394" stroke-linecap="butt" stroke-linejoin="miter" stroke="rgb(50.195312%, 50.195312%, 50.195312%)" stroke-opacity="1" stroke-miterlimit="4" d="M 73.21875 110.210938 L 73.21875 112.738281 "/>
<path fill="none" stroke-width="0.850394" stroke-linecap="butt" stroke-linejoin="miter" stroke="rgb(50.195312%, 50.195312%, 50.195312%)" stroke-opacity="1" stroke-miterlimit="4" d="M 126.253906 110.210938 L 126.253906 112.738281 "/>
<path fill="none" stroke-width="0.850394" stroke-linecap="butt" stroke-linejoin="miter" stroke="rgb(50.195312%, 50.195312%, 50.195312%)" stroke-opacity="1" stroke-miterlimit="4" d="M 30.828125 111.9375 L 30.828125 110.210938 "/>
<path fill="none" stroke-width="0.850394" stroke-linecap="butt" stroke-linejoin="miter" stroke="rgb(50.195312%, 50.195312%, 50.195312%)" stroke-opacity="1" stroke-miterlimit="4" d="M 41.425781 111.9375 L 41.425781 110.210938 "/>
<path fill="none" stroke-width="0.850394" stroke-linecap="butt" stroke-linejoin="miter" stroke="rgb(50.195312%, 50.195312%, 50.195312%)" stroke-opacity="1" stroke-miterlimit="4" d="M 62.621094 111.9375 L 62.621094 110.210938 "/>
<path fill="none" stroke-width="0.850394" stroke-linecap="butt" stroke-linejoin="miter" stroke="rgb(50.195312%, 50.195312%, 50.195312%)" stroke-opacity="1" stroke-miterlimit="4" d="M 94.410156 111.9375 L 94.410156 110.210938 "/>
<path fill="none" stroke-width="0.850394" stroke-linecap="butt" stroke-linejoin="miter" stroke="rgb(50.195312%, 50.195312%, 50.195312%)" stroke-opacity="1" stroke-miterlimit="4" d="M 52.023438 111.9375 L 52.023438 110.210938 "/>
<path fill="none" stroke-width="0.850394" stroke-linecap="butt" stroke-linejoin="miter" stroke="rgb(50.195312%, 50.195312%, 50.195312%)" stroke-opacity="1" stroke-miterlimit="4" d="M 83.816406 111.9375 L 83.816406 110.210938 "/>
<path fill="none" stroke-width="0.850394" stroke-linecap="butt" stroke-linejoin="miter" stroke="rgb(50.195312%, 50.195312%, 50.195312%)" stroke-opacity="1" stroke-miterlimit="4" d="M 105.007812 111.9375 L 105.007812 110.210938 "/>
<path fill="none" stroke-width="0.850394" stroke-linecap="butt" stroke-linejoin="miter" stroke="rgb(50.195312%, 50.195312%, 50.195312%)" stroke-opacity="1" stroke-miterlimit="4" d="M 115.605469 111.9375 L 115.605469 110.210938 "/>
<path fill="none" stroke-width="0.850394" stroke-linecap="butt" stroke-linejoin="miter" stroke="rgb(50.195312%, 50.195312%, 50.195312%)" stroke-opacity="1" stroke-miterlimit="4" d="M 20.351562 14.492188 L 17.820312 14.492188 "/>
<path fill="none" stroke-width="0.850394" stroke-linecap="butt" stroke-linejoin="miter" stroke="rgb(50.195312%, 50.195312%, 50.195312%)" stroke-opacity="1" stroke-miterlimit="4" d="M 20.351562 62.429688 L 17.820312 62.429688 "/>
<path fill="none" stroke-width="0.850394" stroke-linecap="butt" stroke-linejoin="miter" stroke="rgb(50.195312%, 50.195312%, 50.195312%)" stroke-opacity="1" stroke-miterlimit="4" d="M 20.234375 110.242188 L 17.703125 110.242188 "/>
<path fill="none" stroke-width="0.850394" stroke-linecap="butt" stroke-linejoin="miter" stroke="rgb(50.195312%, 50.195312%, 50.195312%)" stroke-opacity="1" stroke-miterlimit="4" d="M 20.351562 24.175781 L 18.625 24.175781 "/>
<path fill="none" stroke-width="0.850394" stroke-linecap="butt" stroke-linejoin="miter" stroke="rgb(50.195312%, 50.195312%, 50.195312%)" stroke-opacity="1" stroke-miterlimit="4" d="M 20.351562 43.300781 L 18.625 43.300781 "/>
<path fill="none" stroke-width="0.850394" stroke-linecap="butt" stroke-linejoin="miter" stroke="rgb(50.195312%, 50.195312%, 50.195312%)" stroke-opacity="1" stroke-miterlimit="4" d="M 20.351562 71.992188 L 18.625 71.992188 "/>
<path fill="none" stroke-width="0.850394" stroke-linecap="butt" stroke-linejoin="miter" stroke="rgb(50.195312%, 50.195312%, 50.195312%)" stroke-opacity="1" stroke-miterlimit="4" d="M 20.351562 81.554688 L 18.625 81.554688 "/>
<path fill="none" stroke-width="0.850394" stroke-linecap="butt" stroke-linejoin="miter" stroke="rgb(50.195312%, 50.195312%, 50.195312%)" stroke-opacity="1" stroke-miterlimit="4" d="M 20.351562 100.679688 L 18.625 100.679688 "/>
<path fill="none" stroke-width="0.850394" stroke-linecap="butt" stroke-linejoin="miter" stroke="rgb(50.195312%, 50.195312%, 50.195312%)" stroke-opacity="1" stroke-miterlimit="4" d="M 20.351562 91.117188 L 18.625 91.117188 "/>
<g clip-path="url(#clip-3)">
<path fill-rule="nonzero" fill="rgb(0%, 0%, 0%)" fill-opacity="1" d="M 71.816406 125.292969 C 72.417969 124.640625 72.75 124.359375 73.15625 124.007812 C 73.15625 124.007812 73.839844 123.410156 74.246094 123.007812 C 75.320312 121.96875 75.566406 121.421875 75.566406 121.371094 C 75.566406 121.265625 75.460938 121.265625 75.441406 121.265625 C 75.355469 121.265625 75.335938 121.28125 75.265625 121.386719 C 74.933594 121.933594 74.703125 122.109375 74.441406 122.109375 C 74.15625 122.109375 74.035156 121.933594 73.859375 121.738281 C 73.648438 121.492188 73.453125 121.265625 73.085938 121.265625 C 72.238281 121.265625 71.730469 122.300781 71.730469 122.546875 C 71.730469 122.601562 71.765625 122.671875 71.851562 122.671875 C 71.957031 122.671875 71.976562 122.617188 72.011719 122.546875 C 72.222656 122.019531 72.875 122.019531 72.960938 122.019531 C 73.191406 122.019531 73.402344 122.089844 73.664062 122.179688 C 74.121094 122.355469 74.246094 122.355469 74.527344 122.355469 C 74.121094 122.828125 73.191406 123.640625 72.980469 123.816406 L 71.957031 124.765625 C 71.203125 125.523438 70.796875 126.15625 70.796875 126.242188 C 70.796875 126.347656 70.921875 126.347656 70.9375 126.347656 C 71.027344 126.347656 71.042969 126.332031 71.113281 126.207031 C 71.378906 125.804688 71.710938 125.503906 72.082031 125.503906 C 72.328125 125.503906 72.453125 125.609375 72.734375 125.925781 C 72.910156 126.171875 73.121094 126.347656 73.4375 126.347656 C 74.5625 126.347656 75.214844 124.925781 75.214844 124.625 C 75.214844 124.570312 75.160156 124.5 75.074219 124.5 C 74.96875 124.5 74.949219 124.570312 74.914062 124.660156 C 74.652344 125.382812 73.929688 125.59375 73.558594 125.59375 C 73.347656 125.59375 73.136719 125.523438 72.910156 125.453125 C 72.523438 125.3125 72.347656 125.257812 72.117188 125.257812 C 72.097656 125.257812 71.921875 125.257812 71.816406 125.292969 Z M 71.816406 125.292969 "/>
</g>
<path fill-rule="nonzero" fill="rgb(0%, 0%, 0%)" fill-opacity="1" d="M 0.632812 72.957031 L 0.757812 74.574219 L 1.109375 74.574219 C 1.109375 73.78125 1.179688 73.695312 1.742188 73.695312 L 7.582031 73.695312 C 8.078125 73.695312 8.078125 73.816406 8.078125 74.574219 L 8.429688 74.574219 C 8.410156 74.203125 8.394531 73.605469 8.394531 73.324219 C 8.394531 73.042969 8.410156 72.5 8.429688 72.074219 L 8.078125 72.074219 C 8.078125 72.832031 8.078125 72.957031 7.582031 72.957031 Z M 0.632812 72.957031 "/>
<path fill-rule="nonzero" fill="rgb(0%, 0%, 0%)" fill-opacity="1" d="M 6.019531 66.546875 C 4.59375 66.546875 3.394531 67.65625 3.394531 69.011719 C 3.394531 70.417969 4.628906 71.511719 6.019531 71.511719 C 7.476562 71.511719 8.550781 70.347656 8.550781 69.03125 C 8.550781 67.675781 7.441406 66.546875 6.019531 66.546875 Z M 8.269531 69.011719 C 8.269531 69.503906 8.042969 69.996094 7.511719 70.296875 C 7.019531 70.578125 6.335938 70.578125 5.929688 70.578125 C 5.488281 70.578125 4.890625 70.578125 4.398438 70.3125 C 3.890625 70.015625 3.640625 69.488281 3.640625 69.03125 C 3.640625 68.535156 3.890625 68.0625 4.382812 67.761719 C 4.855469 67.464844 5.507812 67.464844 5.929688 67.464844 C 6.335938 67.464844 6.949219 67.464844 7.441406 67.710938 C 7.953125 67.972656 8.269531 68.464844 8.269531 69.011719 Z M 8.269531 69.011719 "/>
<path fill-rule="nonzero" fill="rgb(0%, 0%, 0%)" fill-opacity="1" d="M 6.492188 63.71875 C 6.492188 64.703125 5.367188 64.703125 5.121094 64.703125 C 4.820312 64.703125 4.453125 64.6875 4.171875 64.527344 C 4.046875 64.441406 3.730469 64.175781 3.730469 63.71875 C 3.730469 62.75 4.839844 62.75 5.101562 62.75 C 5.402344 62.75 5.773438 62.75 6.054688 62.925781 C 6.175781 63.015625 6.492188 63.277344 6.492188 63.71875 Z M 6.933594 65.019531 C 6.898438 65.019531 6.632812 65.019531 6.40625 64.84375 C 6.722656 64.40625 6.757812 63.929688 6.757812 63.71875 C 6.757812 62.679688 5.984375 61.90625 5.121094 61.90625 C 4.699219 61.90625 4.292969 62.082031 4.03125 62.363281 C 3.640625 61.960938 3.589844 61.554688 3.589844 61.359375 C 3.589844 61.324219 3.589844 61.273438 3.605469 61.238281 C 3.640625 61.359375 3.765625 61.429688 3.90625 61.429688 C 4.101562 61.429688 4.222656 61.273438 4.222656 61.097656 C 4.222656 60.992188 4.152344 60.78125 3.890625 60.78125 C 3.695312 60.78125 3.34375 60.902344 3.34375 61.34375 C 3.34375 61.574219 3.414062 62.066406 3.871094 62.539062 C 3.5 63.015625 3.464844 63.472656 3.464844 63.71875 C 3.464844 64.773438 4.242188 65.550781 5.101562 65.550781 C 5.59375 65.550781 6.019531 65.300781 6.265625 65.019531 C 6.421875 65.160156 6.792969 65.371094 7.195312 65.371094 C 7.546875 65.371094 7.972656 65.214844 8.199219 64.863281 C 8.375 65.550781 8.867188 65.902344 9.308594 65.902344 C 10.117188 65.902344 10.734375 64.792969 10.734375 63.417969 C 10.734375 62.101562 10.171875 60.9375 9.289062 60.9375 C 8.902344 60.9375 8.324219 61.078125 8.007812 61.660156 C 7.707031 62.257812 7.707031 62.910156 7.707031 63.597656 C 7.707031 63.878906 7.707031 64.351562 7.691406 64.441406 C 7.636719 64.792969 7.300781 65.019531 6.933594 65.019531 Z M 10.488281 63.402344 C 10.488281 64.546875 9.90625 65.320312 9.308594 65.320312 C 8.796875 65.320312 8.375 64.898438 8.359375 64.40625 L 8.359375 63.738281 C 8.359375 62.769531 8.359375 61.519531 9.308594 61.519531 C 9.925781 61.519531 10.488281 62.3125 10.488281 63.402344 Z M 10.488281 63.402344 "/>
<path fill-rule="nonzero" fill="rgb(0%, 0%, 0%)" fill-opacity="1" d="M 11.242188 57.582031 L 10.785156 57.582031 L 10.785156 58.671875 L 0.457031 58.671875 L 0.457031 57.582031 L 0 57.582031 L 0 59.132812 L 11.242188 59.132812 Z M 11.242188 57.582031 "/>
<path fill-rule="nonzero" fill="rgb(0%, 0%, 0%)" fill-opacity="1" d="M 7.496094 55.839844 C 6.84375 55.242188 6.5625 54.90625 6.210938 54.503906 C 6.210938 54.503906 5.613281 53.816406 5.207031 53.410156 C 4.171875 52.339844 3.625 52.09375 3.570312 52.09375 C 3.464844 52.09375 3.464844 52.199219 3.464844 52.214844 C 3.464844 52.304688 3.484375 52.320312 3.589844 52.390625 C 4.136719 52.726562 4.3125 52.953125 4.3125 53.21875 C 4.3125 53.5 4.136719 53.621094 3.941406 53.796875 C 3.695312 54.011719 3.464844 54.203125 3.464844 54.574219 C 3.464844 55.417969 4.503906 55.929688 4.75 55.929688 C 4.804688 55.929688 4.875 55.894531 4.875 55.804688 C 4.875 55.699219 4.820312 55.679688 4.75 55.644531 C 4.222656 55.433594 4.222656 54.785156 4.222656 54.695312 C 4.222656 54.46875 4.292969 54.257812 4.382812 53.992188 C 4.558594 53.535156 4.558594 53.410156 4.558594 53.128906 C 5.03125 53.535156 5.84375 54.46875 6.019531 54.679688 L 6.96875 55.699219 C 7.726562 56.457031 8.359375 56.859375 8.445312 56.859375 C 8.550781 56.859375 8.550781 56.738281 8.550781 56.71875 C 8.550781 56.632812 8.535156 56.613281 8.410156 56.542969 C 8.007812 56.28125 7.707031 55.945312 7.707031 55.574219 C 7.707031 55.328125 7.8125 55.207031 8.128906 54.925781 C 8.375 54.75 8.550781 54.539062 8.550781 54.222656 C 8.550781 53.09375 7.125 52.445312 6.828125 52.445312 C 6.773438 52.445312 6.703125 52.496094 6.703125 52.585938 C 6.703125 52.691406 6.773438 52.707031 6.863281 52.742188 C 7.582031 53.007812 7.796875 53.726562 7.796875 54.097656 C 7.796875 54.308594 7.726562 54.519531 7.65625 54.75 C 7.511719 55.136719 7.460938 55.3125 7.460938 55.539062 C 7.460938 55.558594 7.460938 55.734375 7.496094 55.839844 Z M 7.496094 55.839844 "/>
<path fill-rule="nonzero" fill="rgb(0%, 0%, 0%)" fill-opacity="1" d="M 0 49.847656 L 0 51.378906 L 0.457031 51.378906 L 0.457031 50.289062 L 10.785156 50.289062 L 10.785156 51.378906 L 11.242188 51.378906 L 11.242188 49.847656 Z M 0 49.847656 "/>
<path fill="none" stroke-width="0.850394" stroke-linecap="butt" stroke-linejoin="miter" stroke="rgb(50.195312%, 50.195312%, 50.195312%)" stroke-opacity="1" stroke-miterlimit="4" d="M 159.859375 110.210938 L 159.859375 112.738281 "/>
<path fill="none" stroke-width="0.850394" stroke-linecap="butt" stroke-linejoin="miter" stroke="rgb(50.195312%, 50.195312%, 50.195312%)" stroke-opacity="1" stroke-miterlimit="4" d="M 212.847656 110.210938 L 212.847656 112.738281 "/>
<path fill="none" stroke-width="0.850394" stroke-linecap="butt" stroke-linejoin="miter" stroke="rgb(50.195312%, 50.195312%, 50.195312%)" stroke-opacity="1" stroke-miterlimit="4" d="M 265.832031 110.210938 L 265.832031 112.738281 "/>
<path fill="none" stroke-width="0.850394" stroke-linecap="butt" stroke-linejoin="miter" stroke="rgb(50.195312%, 50.195312%, 50.195312%)" stroke-opacity="1" stroke-miterlimit="4" d="M 170.457031 111.9375 L 170.457031 110.210938 "/>
<path fill="none" stroke-width="0.850394" stroke-linecap="butt" stroke-linejoin="miter" stroke="rgb(50.195312%, 50.195312%, 50.195312%)" stroke-opacity="1" stroke-miterlimit="4" d="M 181.054688 111.9375 L 181.054688 110.210938 "/>
<path fill="none" stroke-width="0.850394" stroke-linecap="butt" stroke-linejoin="miter" stroke="rgb(50.195312%, 50.195312%, 50.195312%)" stroke-opacity="1" stroke-miterlimit="4" d="M 202.25 111.9375 L 202.25 110.210938 "/>
<path fill="none" stroke-width="0.850394" stroke-linecap="butt" stroke-linejoin="miter" stroke="rgb(50.195312%, 50.195312%, 50.195312%)" stroke-opacity="1" stroke-miterlimit="4" d="M 234.042969 111.9375 L 234.042969 110.210938 "/>
<path fill="none" stroke-width="0.850394" stroke-linecap="butt" stroke-linejoin="miter" stroke="rgb(50.195312%, 50.195312%, 50.195312%)" stroke-opacity="1" stroke-miterlimit="4" d="M 191.652344 111.9375 L 191.652344 110.210938 "/>
<path fill="none" stroke-width="0.850394" stroke-linecap="butt" stroke-linejoin="miter" stroke="rgb(50.195312%, 50.195312%, 50.195312%)" stroke-opacity="1" stroke-miterlimit="4" d="M 223.445312 111.9375 L 223.445312 110.210938 "/>
<path fill="none" stroke-width="0.850394" stroke-linecap="butt" stroke-linejoin="miter" stroke="rgb(50.195312%, 50.195312%, 50.195312%)" stroke-opacity="1" stroke-miterlimit="4" d="M 244.636719 111.9375 L 244.636719 110.210938 "/>
<path fill="none" stroke-width="0.850394" stroke-linecap="butt" stroke-linejoin="miter" stroke="rgb(50.195312%, 50.195312%, 50.195312%)" stroke-opacity="1" stroke-miterlimit="4" d="M 255.234375 111.9375 L 255.234375 110.210938 "/>
<path fill="none" stroke-width="0.850394" stroke-linecap="butt" stroke-linejoin="miter" stroke="rgb(50.195312%, 50.195312%, 50.195312%)" stroke-opacity="1" stroke-miterlimit="4" d="M 159.980469 14.492188 L 157.449219 14.492188 "/>
<path fill="none" stroke-width="0.850394" stroke-linecap="butt" stroke-linejoin="miter" stroke="rgb(50.195312%, 50.195312%, 50.195312%)" stroke-opacity="1" stroke-miterlimit="4" d="M 159.980469 62.429688 L 157.449219 62.429688 "/>
<path fill="none" stroke-width="0.850394" stroke-linecap="butt" stroke-linejoin="miter" stroke="rgb(50.195312%, 50.195312%, 50.195312%)" stroke-opacity="1" stroke-miterlimit="4" d="M 159.863281 110.242188 L 157.332031 110.242188 "/>
<path fill="none" stroke-width="0.850394" stroke-linecap="butt" stroke-linejoin="miter" stroke="rgb(50.195312%, 50.195312%, 50.195312%)" stroke-opacity="1" stroke-miterlimit="4" d="M 159.980469 24.175781 L 158.253906 24.175781 "/>
<path fill="none" stroke-width="0.850394" stroke-linecap="butt" stroke-linejoin="miter" stroke="rgb(50.195312%, 50.195312%, 50.195312%)" stroke-opacity="1" stroke-miterlimit="4" d="M 159.980469 43.300781 L 158.253906 43.300781 "/>
<path fill="none" stroke-width="0.850394" stroke-linecap="butt" stroke-linejoin="miter" stroke="rgb(50.195312%, 50.195312%, 50.195312%)" stroke-opacity="1" stroke-miterlimit="4" d="M 159.980469 71.992188 L 158.253906 71.992188 "/>
<path fill="none" stroke-width="0.850394" stroke-linecap="butt" stroke-linejoin="miter" stroke="rgb(50.195312%, 50.195312%, 50.195312%)" stroke-opacity="1" stroke-miterlimit="4" d="M 159.980469 81.554688 L 158.253906 81.554688 "/>
<path fill="none" stroke-width="0.850394" stroke-linecap="butt" stroke-linejoin="miter" stroke="rgb(50.195312%, 50.195312%, 50.195312%)" stroke-opacity="1" stroke-miterlimit="4" d="M 159.980469 100.679688 L 158.253906 100.679688 "/>
<path fill="none" stroke-width="0.850394" stroke-linecap="butt" stroke-linejoin="miter" stroke="rgb(50.195312%, 50.195312%, 50.195312%)" stroke-opacity="1" stroke-miterlimit="4" d="M 159.980469 91.117188 L 158.253906 91.117188 "/>
<path fill="none" stroke-width="0.850394" stroke-linecap="butt" stroke-linejoin="miter" stroke="rgb(50.195312%, 50.195312%, 50.195312%)" stroke-opacity="1" stroke-miterlimit="4" d="M 159.980469 33.738281 L 158.253906 33.738281 "/>
<path fill="none" stroke-width="0.850394" stroke-linecap="butt" stroke-linejoin="miter" stroke="rgb(50.195312%, 50.195312%, 50.195312%)" stroke-opacity="1" stroke-miterlimit="4" d="M 159.980469 52.867188 L 158.253906 52.867188 "/>
<g clip-path="url(#clip-4)">
<path fill-rule="nonzero" fill="rgb(0%, 0%, 0%)" fill-opacity="1" d="M 211.445312 125.292969 C 212.046875 124.640625 212.378906 124.359375 212.785156 124.007812 C 212.785156 124.007812 213.46875 123.410156 213.875 123.007812 C 214.949219 121.96875 215.195312 121.421875 215.195312 121.371094 C 215.195312 121.265625 215.089844 121.265625 215.070312 121.265625 C 214.984375 121.265625 214.964844 121.28125 214.894531 121.386719 C 214.5625 121.933594 214.332031 122.109375 214.070312 122.109375 C 213.789062 122.109375 213.664062 121.933594 213.488281 121.738281 C 213.277344 121.492188 213.082031 121.265625 212.714844 121.265625 C 211.871094 121.265625 211.359375 122.300781 211.359375 122.546875 C 211.359375 122.601562 211.394531 122.671875 211.480469 122.671875 C 211.585938 122.671875 211.605469 122.617188 211.640625 122.546875 C 211.851562 122.019531 212.503906 122.019531 212.589844 122.019531 C 212.820312 122.019531 213.03125 122.089844 213.292969 122.179688 C 213.753906 122.355469 213.875 122.355469 214.15625 122.355469 C 213.753906 122.828125 212.820312 123.640625 212.609375 123.816406 L 211.585938 124.765625 C 210.832031 125.523438 210.425781 126.15625 210.425781 126.242188 C 210.425781 126.347656 210.550781 126.347656 210.566406 126.347656 C 210.65625 126.347656 210.671875 126.332031 210.742188 126.207031 C 211.007812 125.804688 211.339844 125.503906 211.710938 125.503906 C 211.957031 125.503906 212.082031 125.609375 212.363281 125.925781 C 212.539062 126.171875 212.75 126.347656 213.066406 126.347656 C 214.191406 126.347656 214.84375 124.925781 214.84375 124.625 C 214.84375 124.570312 214.789062 124.5 214.703125 124.5 C 214.597656 124.5 214.578125 124.570312 214.542969 124.660156 C 214.28125 125.382812 213.558594 125.59375 213.1875 125.59375 C 212.976562 125.59375 212.765625 125.523438 212.539062 125.453125 C 212.152344 125.3125 211.976562 125.257812 211.746094 125.257812 C 211.730469 125.257812 211.550781 125.257812 211.445312 125.292969 Z M 211.445312 125.292969 "/>
</g>
<path fill-rule="nonzero" fill="rgb(0%, 0%, 0%)" fill-opacity="1" d="M 147.933594 67.804688 C 147.933594 66.851562 148.390625 66.203125 149.007812 66.203125 C 149.625 66.203125 150.0625 66.851562 150.0625 67.804688 C 150.0625 68.753906 149.625 69.28125 149.007812 69.28125 C 148.390625 69.28125 147.933594 68.753906 147.933594 67.804688 Z M 147.214844 67.804688 C 147.214844 67.890625 147.214844 67.980469 147.230469 68.085938 C 147.230469 68.613281 146.914062 69.070312 146.703125 69.070312 C 146.457031 69.070312 146.367188 68.789062 146.367188 68.578125 L 146.367188 68.507812 C 146.527344 68.332031 146.578125 67.804688 146.578125 67.644531 C 146.578125 66.675781 145.753906 65.902344 144.730469 65.902344 C 144.328125 65.902344 143.941406 66.042969 143.640625 66.273438 L 143.640625 65.445312 L 143.007812 65.445312 L 143.007812 66.871094 C 142.9375 67.097656 142.902344 67.414062 142.902344 67.589844 C 142.902344 68.558594 143.730469 69.367188 144.730469 69.402344 C 145.226562 69.402344 145.664062 69.226562 145.980469 68.910156 C 146.050781 69.28125 146.296875 69.6875 146.773438 69.6875 C 147.074219 69.6875 147.355469 69.492188 147.53125 69.085938 C 147.863281 69.738281 148.410156 70.125 148.992188 70.125 C 149.90625 70.125 150.75 69.191406 150.75 67.804688 C 150.75 66.394531 149.90625 65.25 149.007812 65.25 C 147.828125 65.25 147.214844 66.625 147.214844 67.804688 Z M 143.605469 67.644531 C 143.605469 67.046875 144.097656 66.554688 144.714844 66.554688 C 145.3125 66.554688 145.804688 67.046875 145.804688 67.644531 C 145.804688 68.261719 145.3125 68.734375 144.714844 68.734375 C 144.097656 68.734375 143.605469 68.261719 143.605469 67.644531 Z M 143.605469 67.644531 "/>
<path fill-rule="nonzero" fill="rgb(0%, 0%, 0%)" fill-opacity="1" d="M 150.871094 62.035156 L 150.414062 62.035156 L 150.414062 63.125 L 140.085938 63.125 L 140.085938 62.035156 L 139.628906 62.035156 L 139.628906 63.582031 L 150.871094 63.582031 Z M 150.871094 62.035156 "/>
<path fill-rule="nonzero" fill="rgb(0%, 0%, 0%)" fill-opacity="1" d="M 147.125 60.289062 C 146.472656 59.691406 146.191406 59.359375 145.839844 58.953125 C 145.839844 58.953125 145.242188 58.265625 144.835938 57.863281 C 143.800781 56.789062 143.253906 56.542969 143.199219 56.542969 C 143.09375 56.542969 143.09375 56.648438 143.09375 56.664062 C 143.09375 56.753906 143.113281 56.769531 143.21875 56.839844 C 143.765625 57.175781 143.941406 57.402344 143.941406 57.667969 C 143.941406 57.949219 143.765625 58.074219 143.570312 58.25 C 143.324219 58.460938 143.09375 58.652344 143.09375 59.023438 C 143.09375 59.867188 144.132812 60.378906 144.378906 60.378906 C 144.433594 60.378906 144.503906 60.34375 144.503906 60.253906 C 144.503906 60.148438 144.449219 60.132812 144.378906 60.097656 C 143.851562 59.886719 143.851562 59.234375 143.851562 59.144531 C 143.851562 58.917969 143.921875 58.707031 144.011719 58.441406 C 144.1875 57.984375 144.1875 57.863281 144.1875 57.582031 C 144.660156 57.984375 145.472656 58.917969 145.648438 59.128906 L 146.597656 60.148438 C 147.355469 60.90625 147.988281 61.3125 148.074219 61.3125 C 148.179688 61.3125 148.179688 61.1875 148.179688 61.167969 C 148.179688 61.082031 148.164062 61.0625 148.039062 60.992188 C 147.636719 60.730469 147.335938 60.394531 147.335938 60.027344 C 147.335938 59.78125 147.441406 59.65625 147.757812 59.375 C 148.003906 59.199219 148.179688 58.988281 148.179688 58.671875 C 148.179688 57.546875 146.753906 56.894531 146.457031 56.894531 C 146.402344 56.894531 146.332031 56.945312 146.332031 57.035156 C 146.332031 57.140625 146.402344 57.15625 146.492188 57.191406 C 147.214844 57.457031 147.425781 58.179688 147.425781 58.546875 C 147.425781 58.757812 147.355469 58.96875 147.285156 59.199219 C 147.144531 59.585938 147.089844 59.761719 147.089844 59.992188 C 147.089844 60.007812 147.089844 60.183594 147.125 60.289062 Z M 147.125 60.289062 "/>
<path fill-rule="nonzero" fill="rgb(0%, 0%, 0%)" fill-opacity="1" d="M 139.628906 54.296875 L 139.628906 55.828125 L 140.085938 55.828125 L 140.085938 54.738281 L 150.414062 54.738281 L 150.414062 55.828125 L 150.871094 55.828125 L 150.871094 54.296875 Z M 139.628906 54.296875 "/>
<path fill="none" stroke-width="0.850394" stroke-linecap="butt" stroke-linejoin="miter" stroke="rgb(50.195312%, 50.195312%, 50.195312%)" stroke-opacity="1" stroke-miterlimit="4" d="M 302.671875 110.210938 L 302.671875 112.738281 "/>
<path fill="none" stroke-width="0.850394" stroke-linecap="butt" stroke-linejoin="miter" stroke="rgb(50.195312%, 50.195312%, 50.195312%)" stroke-opacity="1" stroke-miterlimit="4" d="M 355.796875 110.210938 L 355.796875 112.738281 "/>
<path fill="none" stroke-width="0.850394" stroke-linecap="butt" stroke-linejoin="miter" stroke="rgb(50.195312%, 50.195312%, 50.195312%)" stroke-opacity="1" stroke-miterlimit="4" d="M 408.785156 110.210938 L 408.785156 112.738281 "/>
<path fill="none" stroke-width="0.850394" stroke-linecap="butt" stroke-linejoin="miter" stroke="rgb(50.195312%, 50.195312%, 50.195312%)" stroke-opacity="1" stroke-miterlimit="4" d="M 313.410156 111.9375 L 313.410156 110.210938 "/>
<path fill="none" stroke-width="0.850394" stroke-linecap="butt" stroke-linejoin="miter" stroke="rgb(50.195312%, 50.195312%, 50.195312%)" stroke-opacity="1" stroke-miterlimit="4" d="M 324.007812 111.9375 L 324.007812 110.210938 "/>
<path fill="none" stroke-width="0.850394" stroke-linecap="butt" stroke-linejoin="miter" stroke="rgb(50.195312%, 50.195312%, 50.195312%)" stroke-opacity="1" stroke-miterlimit="4" d="M 345.203125 111.9375 L 345.203125 110.210938 "/>
<path fill="none" stroke-width="0.850394" stroke-linecap="butt" stroke-linejoin="miter" stroke="rgb(50.195312%, 50.195312%, 50.195312%)" stroke-opacity="1" stroke-miterlimit="4" d="M 376.992188 111.9375 L 376.992188 110.210938 "/>
<path fill="none" stroke-width="0.850394" stroke-linecap="butt" stroke-linejoin="miter" stroke="rgb(50.195312%, 50.195312%, 50.195312%)" stroke-opacity="1" stroke-miterlimit="4" d="M 334.605469 111.9375 L 334.605469 110.210938 "/>
<path fill="none" stroke-width="0.850394" stroke-linecap="butt" stroke-linejoin="miter" stroke="rgb(50.195312%, 50.195312%, 50.195312%)" stroke-opacity="1" stroke-miterlimit="4" d="M 366.394531 111.9375 L 366.394531 110.210938 "/>
<path fill="none" stroke-width="0.850394" stroke-linecap="butt" stroke-linejoin="miter" stroke="rgb(50.195312%, 50.195312%, 50.195312%)" stroke-opacity="1" stroke-miterlimit="4" d="M 387.589844 111.9375 L 387.589844 110.210938 "/>
<path fill="none" stroke-width="0.850394" stroke-linecap="butt" stroke-linejoin="miter" stroke="rgb(50.195312%, 50.195312%, 50.195312%)" stroke-opacity="1" stroke-miterlimit="4" d="M 398.1875 111.9375 L 398.1875 110.210938 "/>
<path fill="none" stroke-width="0.850394" stroke-linecap="butt" stroke-linejoin="miter" stroke="rgb(50.195312%, 50.195312%, 50.195312%)" stroke-opacity="1" stroke-miterlimit="4" d="M 302.933594 14.492188 L 300.402344 14.492188 "/>
<path fill="none" stroke-width="0.850394" stroke-linecap="butt" stroke-linejoin="miter" stroke="rgb(50.195312%, 50.195312%, 50.195312%)" stroke-opacity="1" stroke-miterlimit="4" d="M 302.933594 62.4375 L 300.402344 62.4375 "/>
<path fill="none" stroke-width="0.850394" stroke-linecap="butt" stroke-linejoin="miter" stroke="rgb(50.195312%, 50.195312%, 50.195312%)" stroke-opacity="1" stroke-miterlimit="4" d="M 302.683594 110.382812 L 300.15625 110.382812 "/>
<path fill="none" stroke-width="0.850394" stroke-linecap="butt" stroke-linejoin="miter" stroke="rgb(50.195312%, 50.195312%, 50.195312%)" stroke-opacity="1" stroke-miterlimit="4" d="M 302.933594 26.476562 L 301.207031 26.476562 "/>
<path fill="none" stroke-width="0.850394" stroke-linecap="butt" stroke-linejoin="miter" stroke="rgb(50.195312%, 50.195312%, 50.195312%)" stroke-opacity="1" stroke-miterlimit="4" d="M 302.933594 38.464844 L 301.207031 38.464844 "/>
<path fill="none" stroke-width="0.850394" stroke-linecap="butt" stroke-linejoin="miter" stroke="rgb(50.195312%, 50.195312%, 50.195312%)" stroke-opacity="1" stroke-miterlimit="4" d="M 302.933594 74.425781 L 301.207031 74.425781 "/>
<path fill="none" stroke-width="0.850394" stroke-linecap="butt" stroke-linejoin="miter" stroke="rgb(50.195312%, 50.195312%, 50.195312%)" stroke-opacity="1" stroke-miterlimit="4" d="M 302.933594 98.398438 L 301.207031 98.398438 "/>
<path fill="none" stroke-width="0.850394" stroke-linecap="butt" stroke-linejoin="miter" stroke="rgb(50.195312%, 50.195312%, 50.195312%)" stroke-opacity="1" stroke-miterlimit="4" d="M 302.933594 86.410156 L 301.207031 86.410156 "/>
<path fill="none" stroke-width="0.850394" stroke-linecap="butt" stroke-linejoin="round" stroke="rgb(1.176453%, 0%, 0%)" stroke-opacity="1" stroke-miterlimit="4" d="M 302.6875 14.492188 L 408.835938 14.492188 L 408.835938 110.363281 L 302.6875 110.363281 Z M 302.6875 14.492188 "/>
<path fill="none" stroke-width="0.850394" stroke-linecap="butt" stroke-linejoin="miter" stroke="rgb(50.195312%, 50.195312%, 50.195312%)" stroke-opacity="1" stroke-miterlimit="4" d="M 302.933594 50.449219 L 301.207031 50.449219 "/>
<g clip-path="url(#clip-5)">
<path fill-rule="nonzero" fill="rgb(0%, 0%, 0%)" fill-opacity="1" d="M 354.398438 125.292969 C 354.996094 124.640625 355.332031 124.359375 355.734375 124.007812 C 355.734375 124.007812 356.421875 123.410156 356.828125 123.007812 C 357.902344 121.96875 358.148438 121.421875 358.148438 121.371094 C 358.148438 121.265625 358.042969 121.265625 358.023438 121.265625 C 357.9375 121.265625 357.917969 121.28125 357.847656 121.386719 C 357.511719 121.933594 357.285156 122.109375 357.019531 122.109375 C 356.738281 122.109375 356.617188 121.933594 356.441406 121.738281 C 356.230469 121.492188 356.035156 121.265625 355.664062 121.265625 C 354.820312 121.265625 354.3125 122.300781 354.3125 122.546875 C 354.3125 122.601562 354.347656 122.671875 354.433594 122.671875 C 354.539062 122.671875 354.558594 122.617188 354.59375 122.546875 C 354.804688 122.019531 355.453125 122.019531 355.542969 122.019531 C 355.773438 122.019531 355.984375 122.089844 356.246094 122.179688 C 356.703125 122.355469 356.828125 122.355469 357.109375 122.355469 C 356.703125 122.828125 355.773438 123.640625 355.558594 123.816406 L 354.539062 124.765625 C 353.78125 125.523438 353.378906 126.15625 353.378906 126.242188 C 353.378906 126.347656 353.5 126.347656 353.519531 126.347656 C 353.605469 126.347656 353.625 126.332031 353.695312 126.207031 C 353.960938 125.804688 354.292969 125.503906 354.664062 125.503906 C 354.910156 125.503906 355.03125 125.609375 355.3125 125.925781 C 355.488281 126.171875 355.699219 126.347656 356.019531 126.347656 C 357.144531 126.347656 357.796875 124.925781 357.796875 124.625 C 357.796875 124.570312 357.742188 124.5 357.652344 124.5 C 357.546875 124.5 357.53125 124.570312 357.496094 124.660156 C 357.230469 125.382812 356.511719 125.59375 356.140625 125.59375 C 355.929688 125.59375 355.71875 125.523438 355.488281 125.453125 C 355.101562 125.3125 354.925781 125.257812 354.699219 125.257812 C 354.679688 125.257812 354.503906 125.257812 354.398438 125.292969 Z M 354.398438 125.292969 "/>
</g>
<path fill-rule="nonzero" fill="rgb(0%, 0%, 0%)" fill-opacity="1" d="M 283.214844 78.675781 L 283.335938 80.292969 L 283.691406 80.292969 C 283.691406 79.503906 283.761719 79.414062 284.324219 79.414062 L 290.164062 79.414062 C 290.65625 79.414062 290.65625 79.539062 290.65625 80.292969 L 291.007812 80.292969 C 290.992188 79.925781 290.972656 79.328125 290.972656 79.042969 C 290.972656 78.761719 290.992188 78.21875 291.007812 77.796875 L 290.65625 77.796875 C 290.65625 78.550781 290.65625 78.675781 290.164062 78.675781 Z M 283.214844 78.675781 "/>
<path fill-rule="nonzero" fill="rgb(0%, 0%, 0%)" fill-opacity="1" d="M 288.597656 72.269531 C 287.171875 72.269531 285.976562 73.375 285.976562 74.730469 C 285.976562 76.140625 287.207031 77.230469 288.597656 77.230469 C 290.058594 77.230469 291.132812 76.070312 291.132812 74.75 C 291.132812 73.394531 290.023438 72.269531 288.597656 72.269531 Z M 290.851562 74.730469 C 290.851562 75.222656 290.621094 75.71875 290.09375 76.015625 C 289.601562 76.296875 288.914062 76.296875 288.511719 76.296875 C 288.070312 76.296875 287.472656 76.296875 286.980469 76.035156 C 286.46875 75.734375 286.222656 75.207031 286.222656 74.75 C 286.222656 74.257812 286.46875 73.78125 286.960938 73.480469 C 287.4375 73.183594 288.089844 73.183594 288.511719 73.183594 C 288.914062 73.183594 289.53125 73.183594 290.023438 73.429688 C 290.535156 73.691406 290.851562 74.1875 290.851562 74.730469 Z M 290.851562 74.730469 "/>
<path fill-rule="nonzero" fill="rgb(0%, 0%, 0%)" fill-opacity="1" d="M 289.074219 69.4375 C 289.074219 70.425781 287.949219 70.425781 287.703125 70.425781 C 287.402344 70.425781 287.03125 70.40625 286.75 70.246094 C 286.628906 70.160156 286.3125 69.894531 286.3125 69.4375 C 286.3125 68.472656 287.421875 68.472656 287.683594 68.472656 C 287.984375 68.472656 288.351562 68.472656 288.632812 68.648438 C 288.757812 68.734375 289.074219 69 289.074219 69.4375 Z M 289.515625 70.742188 C 289.480469 70.742188 289.214844 70.742188 288.984375 70.566406 C 289.304688 70.125 289.339844 69.648438 289.339844 69.4375 C 289.339844 68.398438 288.5625 67.625 287.703125 67.625 C 287.277344 67.625 286.875 67.800781 286.609375 68.082031 C 286.222656 67.679688 286.171875 67.273438 286.171875 67.082031 C 286.171875 67.046875 286.171875 66.992188 286.1875 66.957031 C 286.222656 67.082031 286.347656 67.152344 286.488281 67.152344 C 286.679688 67.152344 286.804688 66.992188 286.804688 66.816406 C 286.804688 66.710938 286.734375 66.5 286.46875 66.5 C 286.277344 66.5 285.925781 66.625 285.925781 67.0625 C 285.925781 67.292969 285.996094 67.785156 286.453125 68.257812 C 286.082031 68.734375 286.046875 69.191406 286.046875 69.4375 C 286.046875 70.496094 286.820312 71.269531 287.683594 71.269531 C 288.175781 71.269531 288.597656 71.023438 288.84375 70.742188 C 289.003906 70.882812 289.375 71.09375 289.777344 71.09375 C 290.128906 71.09375 290.550781 70.933594 290.78125 70.582031 C 290.957031 71.269531 291.449219 71.621094 291.890625 71.621094 C 292.699219 71.621094 293.316406 70.511719 293.316406 69.140625 C 293.316406 67.820312 292.75 66.660156 291.871094 66.660156 C 291.484375 66.660156 290.902344 66.800781 290.585938 67.378906 C 290.289062 67.976562 290.289062 68.628906 290.289062 69.316406 C 290.289062 69.597656 290.289062 70.070312 290.269531 70.160156 C 290.21875 70.511719 289.882812 70.742188 289.515625 70.742188 Z M 293.070312 69.121094 C 293.070312 70.265625 292.488281 71.039062 291.890625 71.039062 C 291.378906 71.039062 290.957031 70.617188 290.9375 70.125 L 290.9375 69.457031 C 290.9375 68.488281 290.9375 67.238281 291.890625 67.238281 C 292.503906 67.238281 293.070312 68.03125 293.070312 69.121094 Z M 293.070312 69.121094 "/>
<path fill-rule="nonzero" fill="rgb(0%, 0%, 0%)" fill-opacity="1" d="M 293.824219 63.300781 L 293.367188 63.300781 L 293.367188 64.394531 L 283.039062 64.394531 L 283.039062 63.300781 L 282.582031 63.300781 L 282.582031 64.851562 L 293.824219 64.851562 Z M 293.824219 63.300781 "/>
<path fill-rule="nonzero" fill="rgb(0%, 0%, 0%)" fill-opacity="1" d="M 290.886719 60.75 C 290.886719 59.800781 291.34375 59.148438 291.960938 59.148438 C 292.574219 59.148438 293.015625 59.800781 293.015625 60.75 C 293.015625 61.699219 292.574219 62.226562 291.960938 62.226562 C 291.34375 62.226562 290.886719 61.699219 290.886719 60.75 Z M 290.164062 60.75 C 290.164062 60.839844 290.164062 60.925781 290.183594 61.03125 C 290.183594 61.558594 289.867188 62.015625 289.65625 62.015625 C 289.410156 62.015625 289.320312 61.734375 289.320312 61.523438 L 289.320312 61.453125 C 289.480469 61.277344 289.53125 60.75 289.53125 60.589844 C 289.53125 59.625 288.703125 58.851562 287.683594 58.851562 C 287.277344 58.851562 286.890625 58.992188 286.59375 59.21875 L 286.59375 58.390625 L 285.960938 58.390625 L 285.960938 59.816406 C 285.890625 60.046875 285.855469 60.363281 285.855469 60.539062 C 285.855469 61.507812 286.679688 62.316406 287.683594 62.351562 C 288.175781 62.351562 288.617188 62.175781 288.933594 61.859375 C 289.003906 62.226562 289.25 62.632812 289.726562 62.632812 C 290.023438 62.632812 290.304688 62.4375 290.480469 62.035156 C 290.816406 62.6875 291.363281 63.074219 291.941406 63.074219 C 292.855469 63.074219 293.703125 62.140625 293.703125 60.75 C 293.703125 59.34375 292.855469 58.199219 291.960938 58.199219 C 290.78125 58.199219 290.164062 59.570312 290.164062 60.75 Z M 286.558594 60.589844 C 286.558594 59.992188 287.050781 59.5 287.667969 59.5 C 288.265625 59.5 288.757812 59.992188 288.757812 60.589844 C 288.757812 61.207031 288.265625 61.683594 287.667969 61.683594 C 287.050781 61.683594 286.558594 61.207031 286.558594 60.589844 Z M 286.558594 60.589844 "/>
<path fill-rule="nonzero" fill="rgb(0%, 0%, 0%)" fill-opacity="1" d="M 293.824219 54.980469 L 293.367188 54.980469 L 293.367188 56.070312 L 283.039062 56.070312 L 283.039062 54.980469 L 282.582031 54.980469 L 282.582031 56.527344 L 293.824219 56.527344 Z M 293.824219 54.980469 "/>
<path fill-rule="nonzero" fill="rgb(0%, 0%, 0%)" fill-opacity="1" d="M 290.078125 53.238281 C 289.425781 52.640625 289.144531 52.304688 288.792969 51.898438 C 288.792969 51.898438 288.195312 51.214844 287.789062 50.808594 C 286.75 49.734375 286.207031 49.488281 286.152344 49.488281 C 286.046875 49.488281 286.046875 49.59375 286.046875 49.613281 C 286.046875 49.699219 286.066406 49.71875 286.171875 49.789062 C 286.714844 50.121094 286.890625 50.351562 286.890625 50.617188 C 286.890625 50.898438 286.714844 51.019531 286.523438 51.195312 C 286.277344 51.40625 286.046875 51.601562 286.046875 51.96875 C 286.046875 52.816406 287.085938 53.324219 287.332031 53.324219 C 287.386719 53.324219 287.457031 53.289062 287.457031 53.203125 C 287.457031 53.097656 287.402344 53.078125 287.332031 53.042969 C 286.804688 52.832031 286.804688 52.179688 286.804688 52.09375 C 286.804688 51.863281 286.875 51.652344 286.960938 51.390625 C 287.136719 50.933594 287.136719 50.808594 287.136719 50.527344 C 287.613281 50.933594 288.421875 51.863281 288.597656 52.074219 L 289.550781 53.097656 C 290.304688 53.851562 290.9375 54.257812 291.027344 54.257812 C 291.132812 54.257812 291.132812 54.132812 291.132812 54.117188 C 291.132812 54.027344 291.113281 54.011719 290.992188 53.941406 C 290.585938 53.675781 290.289062 53.34375 290.289062 52.972656 C 290.289062 52.726562 290.394531 52.605469 290.710938 52.320312 C 290.957031 52.144531 291.132812 51.933594 291.132812 51.617188 C 291.132812 50.492188 289.707031 49.839844 289.410156 49.839844 C 289.355469 49.839844 289.285156 49.894531 289.285156 49.980469 C 289.285156 50.085938 289.355469 50.105469 289.445312 50.140625 C 290.164062 50.402344 290.375 51.125 290.375 51.496094 C 290.375 51.707031 290.304688 51.917969 290.234375 52.144531 C 290.09375 52.535156 290.042969 52.710938 290.042969 52.9375 C 290.042969 52.957031 290.042969 53.132812 290.078125 53.238281 Z M 290.078125 53.238281 "/>
<path fill-rule="nonzero" fill="rgb(0%, 0%, 0%)" fill-opacity="1" d="M 282.582031 47.246094 L 282.582031 48.777344 L 283.039062 48.777344 L 283.039062 47.683594 L 293.367188 47.683594 L 293.367188 48.777344 L 293.824219 48.777344 L 293.824219 47.246094 Z M 282.582031 47.246094 "/>
<path fill-rule="nonzero" fill="rgb(0%, 0%, 0%)" fill-opacity="1" d="M 282.582031 44.128906 L 282.582031 45.660156 L 283.039062 45.660156 L 283.039062 44.566406 L 293.367188 44.566406 L 293.367188 45.660156 L 293.824219 45.660156 L 293.824219 44.128906 Z M 282.582031 44.128906 "/>
<path fill="none" stroke-width="0.850394" stroke-linecap="butt" stroke-linejoin="miter" stroke="rgb(50.195312%, 50.195312%, 50.195312%)" stroke-opacity="1" stroke-miterlimit="4" d="M 20.351562 33.738281 L 18.625 33.738281 "/>
<path fill="none" stroke-width="0.850394" stroke-linecap="butt" stroke-linejoin="miter" stroke="rgb(50.195312%, 50.195312%, 50.195312%)" stroke-opacity="1" stroke-miterlimit="4" d="M 20.351562 52.867188 L 18.625 52.867188 "/>
<path fill-rule="nonzero" fill="rgb(50.195312%, 50.195312%, 50.195312%)" fill-opacity="1" d="M 156.085938 110.128906 C 156.074219 108.964844 155.8125 107.28125 154.339844 107.28125 C 152.867188 107.28125 152.617188 108.988281 152.617188 110.128906 C 152.617188 111.28125 152.878906 112.953125 154.339844 112.953125 C 155.800781 112.953125 156.085938 111.28125 156.085938 110.128906 Z M 155.515625 110.128906 C 155.515625 110.886719 155.453125 112.433594 154.339844 112.433594 C 153.222656 112.433594 153.1875 110.859375 153.1875 110.128906 C 153.1875 109.386719 153.210938 107.789062 154.339844 107.789062 C 155.453125 107.789062 155.515625 109.398438 155.515625 110.128906 Z M 155.515625 110.128906 "/>
<path fill-rule="nonzero" fill="rgb(50.195312%, 50.195312%, 50.195312%)" fill-opacity="1" d="M 18.703125 116.054688 C 18.6875 114.890625 18.429688 113.207031 16.957031 113.207031 C 15.480469 113.207031 15.234375 114.914062 15.234375 116.054688 C 15.234375 117.207031 15.492188 118.878906 16.957031 118.878906 C 18.417969 118.878906 18.703125 117.207031 18.703125 116.054688 Z M 18.132812 116.054688 C 18.132812 116.808594 18.070312 118.359375 16.957031 118.359375 C 15.839844 118.359375 15.804688 116.785156 15.804688 116.054688 C 15.804688 115.3125 15.828125 113.714844 16.957031 113.714844 C 18.070312 113.714844 18.132812 115.324219 18.132812 116.054688 Z M 18.132812 116.054688 "/>
<path fill-rule="nonzero" fill="rgb(50.195312%, 50.195312%, 50.195312%)" fill-opacity="1" d="M 357.585938 116.109375 C 357.574219 114.945312 357.3125 113.261719 355.839844 113.261719 C 354.363281 113.261719 354.117188 114.972656 354.117188 116.109375 C 354.117188 117.261719 354.378906 118.933594 355.839844 118.933594 C 357.300781 118.933594 357.585938 117.261719 357.585938 116.109375 Z M 357.015625 116.109375 C 357.015625 116.867188 356.953125 118.414062 355.839844 118.414062 C 354.722656 118.414062 354.6875 116.84375 354.6875 116.109375 C 354.6875 115.367188 354.710938 113.769531 355.839844 113.769531 C 356.953125 113.769531 357.015625 115.378906 357.015625 116.109375 Z M 357.015625 116.109375 "/>
<path fill-rule="nonzero" fill="rgb(50.195312%, 50.195312%, 50.195312%)" fill-opacity="1" d="M 214.632812 116.109375 C 214.621094 114.945312 214.359375 113.261719 212.886719 113.261719 C 211.414062 113.261719 211.164062 114.972656 211.164062 116.109375 C 211.164062 117.261719 211.425781 118.933594 212.886719 118.933594 C 214.347656 118.933594 214.632812 117.261719 214.632812 116.109375 Z M 214.0625 116.109375 C 214.0625 116.867188 214 118.414062 212.886719 118.414062 C 211.773438 118.414062 211.734375 116.84375 211.734375 116.109375 C 211.734375 115.367188 211.757812 113.769531 212.886719 113.769531 C 214 113.769531 214.0625 115.378906 214.0625 116.109375 Z M 214.0625 116.109375 "/>
<path fill-rule="nonzero" fill="rgb(50.195312%, 50.195312%, 50.195312%)" fill-opacity="1" d="M 264.261719 118.632812 L 264.261719 113.171875 L 263.605469 113.171875 L 262.824219 113.804688 L 262.824219 114.421875 L 263.640625 113.753906 L 263.640625 118.632812 Z M 264.261719 118.632812 "/>
<path fill-rule="nonzero" fill="rgb(50.195312%, 50.195312%, 50.195312%)" fill-opacity="1" d="M 268.839844 115.921875 C 268.828125 114.757812 268.570312 113.074219 267.09375 113.074219 C 265.621094 113.074219 265.375 114.78125 265.375 115.921875 C 265.375 117.074219 265.632812 118.746094 267.09375 118.746094 C 268.554688 118.746094 268.839844 117.074219 268.839844 115.921875 Z M 268.273438 115.921875 C 268.273438 116.675781 268.210938 118.226562 267.09375 118.226562 C 265.980469 118.226562 265.941406 116.652344 265.941406 115.921875 C 265.941406 115.179688 265.96875 113.582031 267.09375 113.582031 C 268.210938 113.582031 268.273438 115.191406 268.273438 115.921875 Z M 268.273438 115.921875 "/>
<path fill-rule="nonzero" fill="rgb(50.195312%, 50.195312%, 50.195312%)" fill-opacity="1" d="M 124.632812 118.632812 L 124.632812 113.171875 L 123.976562 113.171875 L 123.195312 113.804688 L 123.195312 114.421875 L 124.011719 113.753906 L 124.011719 118.632812 Z M 124.632812 118.632812 "/>
<path fill-rule="nonzero" fill="rgb(50.195312%, 50.195312%, 50.195312%)" fill-opacity="1" d="M 129.210938 115.921875 C 129.199219 114.757812 128.941406 113.074219 127.464844 113.074219 C 125.992188 113.074219 125.746094 114.78125 125.746094 115.921875 C 125.746094 117.074219 126.003906 118.746094 127.464844 118.746094 C 128.925781 118.746094 129.210938 117.074219 129.210938 115.921875 Z M 128.640625 115.921875 C 128.640625 116.675781 128.582031 118.226562 127.464844 118.226562 C 126.351562 118.226562 126.3125 116.652344 126.3125 115.921875 C 126.3125 115.179688 126.339844 113.582031 127.464844 113.582031 C 128.582031 113.582031 128.640625 115.191406 128.640625 115.921875 Z M 128.640625 115.921875 "/>
<path fill-rule="nonzero" fill="rgb(50.195312%, 50.195312%, 50.195312%)" fill-opacity="1" d="M 407.210938 118.632812 L 407.210938 113.171875 L 406.554688 113.171875 L 405.777344 113.804688 L 405.777344 114.421875 L 406.59375 113.753906 L 406.59375 118.632812 Z M 407.210938 118.632812 "/>
<g clip-path="url(#clip-6)">
<path fill-rule="nonzero" fill="rgb(50.195312%, 50.195312%, 50.195312%)" fill-opacity="1" d="M 411.792969 115.921875 C 411.78125 114.757812 411.519531 113.074219 410.046875 113.074219 C 408.574219 113.074219 408.324219 114.78125 408.324219 115.921875 C 408.324219 117.074219 408.585938 118.746094 410.046875 118.746094 C 411.507812 118.746094 411.792969 117.074219 411.792969 115.921875 Z M 411.222656 115.921875 C 411.222656 116.675781 411.160156 118.226562 410.046875 118.226562 C 408.933594 118.226562 408.894531 116.652344 408.894531 115.921875 C 408.894531 115.179688 408.917969 113.582031 410.046875 113.582031 C 411.160156 113.582031 411.222656 115.191406 411.222656 115.921875 Z M 411.222656 115.921875 "/>
</g>
<path fill-rule="nonzero" fill="rgb(50.195312%, 50.195312%, 50.195312%)" fill-opacity="1" d="M 151.464844 17.339844 L 151.464844 11.875 L 150.808594 11.875 L 150.027344 12.507812 L 150.027344 13.128906 L 150.847656 12.460938 L 150.847656 17.339844 Z M 151.464844 17.339844 "/>
<path fill-rule="nonzero" fill="rgb(50.195312%, 50.195312%, 50.195312%)" fill-opacity="1" d="M 156.046875 14.625 C 156.035156 13.460938 155.773438 11.777344 154.300781 11.777344 C 152.824219 11.777344 152.578125 13.488281 152.578125 14.625 C 152.578125 15.777344 152.839844 17.449219 154.300781 17.449219 C 155.761719 17.449219 156.046875 15.777344 156.046875 14.625 Z M 155.476562 14.625 C 155.476562 15.382812 155.414062 16.929688 154.300781 16.929688 C 153.183594 16.929688 153.148438 15.355469 153.148438 14.625 C 153.148438 13.882812 153.171875 12.285156 154.300781 12.285156 C 155.414062 12.285156 155.476562 13.894531 155.476562 14.625 Z M 155.476562 14.625 "/>
<path fill-rule="nonzero" fill="rgb(50.195312%, 50.195312%, 50.195312%)" fill-opacity="1" d="M 156.179688 63.402344 C 156.167969 62.285156 155.472656 61.554688 154.359375 61.554688 C 154.210938 61.566406 153.875 61.605469 153.675781 61.679688 L 153.875 60.242188 L 155.808594 60.242188 L 155.808594 59.671875 L 153.480469 59.671875 L 153.144531 62.371094 C 153.578125 62.160156 153.675781 62.113281 154.234375 62.113281 C 155.039062 62.113281 155.609375 62.558594 155.609375 63.402344 C 155.609375 64.269531 155.050781 64.6875 154.234375 64.6875 C 153.691406 64.6875 153.332031 64.578125 152.933594 64.328125 L 152.933594 65.011719 C 153.292969 65.148438 153.824219 65.246094 154.246094 65.246094 C 155.421875 65.246094 156.179688 64.601562 156.179688 63.402344 Z M 156.179688 63.402344 "/>
<path fill-rule="nonzero" fill="rgb(50.195312%, 50.195312%, 50.195312%)" fill-opacity="1" d="M 16 15.589844 C 15.988281 14.476562 15.292969 13.746094 14.179688 13.746094 C 14.03125 13.757812 13.695312 13.792969 13.496094 13.867188 L 13.695312 12.433594 L 15.628906 12.433594 L 15.628906 11.863281 L 13.300781 11.863281 L 12.964844 14.5625 C 13.398438 14.351562 13.496094 14.300781 14.054688 14.300781 C 14.859375 14.300781 15.429688 14.75 15.429688 15.589844 C 15.429688 16.457031 14.871094 16.878906 14.054688 16.878906 C 13.507812 16.878906 13.152344 16.765625 12.753906 16.519531 L 12.753906 17.199219 C 13.113281 17.335938 13.644531 17.4375 14.066406 17.4375 C 15.242188 17.4375 16 16.792969 16 15.589844 Z M 16 15.589844 "/>
<path fill-rule="nonzero" fill="rgb(50.195312%, 50.195312%, 50.195312%)" fill-opacity="1" d="M 74.839844 117.074219 C 74.828125 115.960938 74.132812 115.230469 73.019531 115.230469 C 72.871094 115.242188 72.535156 115.28125 72.339844 115.355469 L 72.535156 113.917969 L 74.46875 113.917969 L 74.46875 113.347656 L 72.140625 113.347656 L 71.804688 116.046875 C 72.238281 115.835938 72.339844 115.789062 72.894531 115.789062 C 73.699219 115.789062 74.269531 116.234375 74.269531 117.074219 C 74.269531 117.941406 73.710938 118.363281 72.894531 118.363281 C 72.351562 118.363281 71.992188 118.253906 71.59375 118.003906 L 71.59375 118.6875 C 71.953125 118.820312 72.488281 118.921875 72.90625 118.921875 C 74.085938 118.921875 74.839844 118.277344 74.839844 117.074219 Z M 74.839844 117.074219 "/>
<path fill-rule="nonzero" fill="rgb(50.195312%, 50.195312%, 50.195312%)" fill-opacity="1" d="M 297.257812 116.722656 L 299.054688 116.722656 L 299.054688 117.242188 L 297.257812 117.242188 Z M 297.257812 116.722656 "/>
<path fill-rule="nonzero" fill="rgb(50.195312%, 50.195312%, 50.195312%)" fill-opacity="1" d="M 301.277344 118.765625 L 301.277344 113.304688 L 300.621094 113.304688 L 299.839844 113.9375 L 299.839844 114.554688 L 300.65625 113.886719 L 300.65625 118.765625 Z M 301.277344 118.765625 "/>
<path fill-rule="nonzero" fill="rgb(50.195312%, 50.195312%, 50.195312%)" fill-opacity="1" d="M 305.859375 116.054688 C 305.84375 114.890625 305.585938 113.207031 304.109375 113.207031 C 302.636719 113.207031 302.390625 114.914062 302.390625 116.054688 C 302.390625 117.207031 302.648438 118.878906 304.109375 118.878906 C 305.574219 118.878906 305.859375 117.207031 305.859375 116.054688 Z M 305.289062 116.054688 C 305.289062 116.808594 305.226562 118.359375 304.109375 118.359375 C 302.996094 118.359375 302.960938 116.785156 302.960938 116.054688 C 302.960938 115.3125 302.984375 113.714844 304.109375 113.714844 C 305.226562 113.714844 305.289062 115.324219 305.289062 116.054688 Z M 305.289062 116.054688 "/>
<path fill-rule="nonzero" fill="rgb(50.195312%, 50.195312%, 50.195312%)" fill-opacity="1" d="M 154.308594 116.722656 L 156.101562 116.722656 L 156.101562 117.242188 L 154.308594 117.242188 Z M 154.308594 116.722656 "/>
<path fill-rule="nonzero" fill="rgb(50.195312%, 50.195312%, 50.195312%)" fill-opacity="1" d="M 158.324219 118.765625 L 158.324219 113.304688 L 157.667969 113.304688 L 156.886719 113.9375 L 156.886719 114.554688 L 157.707031 113.886719 L 157.707031 118.765625 Z M 158.324219 118.765625 "/>
<path fill-rule="nonzero" fill="rgb(50.195312%, 50.195312%, 50.195312%)" fill-opacity="1" d="M 162.90625 116.054688 C 162.894531 114.890625 162.632812 113.207031 161.160156 113.207031 C 159.683594 113.207031 159.4375 114.914062 159.4375 116.054688 C 159.4375 117.207031 159.699219 118.878906 161.160156 118.878906 C 162.621094 118.878906 162.90625 117.207031 162.90625 116.054688 Z M 162.335938 116.054688 C 162.335938 116.808594 162.273438 118.359375 161.160156 118.359375 C 160.042969 118.359375 160.007812 116.785156 160.007812 116.054688 C 160.007812 115.3125 160.03125 113.714844 161.160156 113.714844 C 162.273438 113.714844 162.335938 115.324219 162.335938 116.054688 Z M 162.335938 116.054688 "/>
<path fill-rule="nonzero" fill="rgb(50.195312%, 50.195312%, 50.195312%)" fill-opacity="1" d="M 299.148438 15.753906 C 299.148438 15.148438 298.777344 14.589844 298.082031 14.390625 C 298.679688 14.167969 299.023438 13.734375 299.023438 13.164062 C 299.023438 12.210938 298.230469 11.777344 297.363281 11.777344 C 296.929688 11.777344 296.398438 11.875 296.015625 12 L 296.015625 12.609375 C 296.4375 12.460938 296.796875 12.335938 297.304688 12.335938 C 297.945312 12.335938 298.46875 12.570312 298.46875 13.265625 C 298.453125 13.894531 297.945312 14.15625 297.328125 14.15625 L 296.746094 14.15625 L 296.746094 14.6875 L 297.304688 14.6875 C 298.019531 14.6875 298.589844 15 298.589844 15.753906 C 298.589844 16.644531 297.972656 16.894531 297.167969 16.894531 C 296.597656 16.894531 296.25 16.792969 295.855469 16.523438 L 295.855469 17.191406 C 296.25 17.328125 296.707031 17.449219 297.179688 17.449219 C 298.28125 17.449219 299.148438 16.957031 299.148438 15.753906 Z M 299.148438 15.753906 "/>
<path fill-rule="nonzero" fill="rgb(50.195312%, 50.195312%, 50.195312%)" fill-opacity="1" d="M 298.277344 65.164062 L 298.277344 59.699219 L 297.621094 59.699219 L 296.839844 60.332031 L 296.839844 60.953125 L 297.65625 60.28125 L 297.65625 65.164062 Z M 298.277344 65.164062 "/>
<path fill-rule="nonzero" fill="rgb(50.195312%, 50.195312%, 50.195312%)" fill-opacity="1" d="M 293.304688 110.8125 L 295.097656 110.8125 L 295.097656 111.332031 L 293.304688 111.332031 Z M 293.304688 110.8125 "/>
<path fill-rule="nonzero" fill="rgb(50.195312%, 50.195312%, 50.195312%)" fill-opacity="1" d="M 297.320312 112.855469 L 297.320312 107.394531 L 296.664062 107.394531 L 295.882812 108.027344 L 295.882812 108.644531 L 296.703125 107.976562 L 296.703125 112.855469 Z M 297.320312 112.855469 "/>
<path fill-rule="nonzero" fill="rgb(50.195312%, 50.195312%, 50.195312%)" fill-opacity="1" d="M 9.984375 110.785156 L 11.78125 110.785156 L 11.78125 111.304688 L 9.984375 111.304688 Z M 9.984375 110.785156 "/>
<path fill-rule="nonzero" fill="rgb(50.195312%, 50.195312%, 50.195312%)" fill-opacity="1" d="M 15.871094 111.09375 C 15.859375 109.980469 15.164062 109.25 14.050781 109.25 C 13.902344 109.261719 13.566406 109.296875 13.371094 109.371094 L 13.566406 107.933594 L 15.5 107.933594 L 15.5 107.367188 L 13.171875 107.367188 L 12.835938 110.066406 C 13.269531 109.855469 13.371094 109.804688 13.925781 109.804688 C 14.730469 109.804688 15.300781 110.25 15.300781 111.09375 C 15.300781 111.960938 14.746094 112.382812 13.925781 112.382812 C 13.382812 112.382812 13.023438 112.269531 12.625 112.023438 L 12.625 112.703125 C 12.984375 112.839844 13.519531 112.9375 13.9375 112.9375 C 15.117188 112.9375 15.871094 112.296875 15.871094 111.09375 Z M 15.871094 111.09375 "/>
<path fill="none" stroke-width="0.850394" stroke-linecap="butt" stroke-linejoin="round" stroke="rgb(1.176453%, 0%, 0%)" stroke-opacity="1" stroke-miterlimit="4" d="M 20.109375 14.492188 L 126.253906 14.492188 L 126.253906 110.363281 L 20.109375 110.363281 Z M 20.109375 14.492188 "/>
<path fill="none" stroke-width="0.850394" stroke-linecap="butt" stroke-linejoin="round" stroke="rgb(1.176453%, 0%, 0%)" stroke-opacity="1" stroke-miterlimit="4" d="M 159.738281 14.492188 L 265.882812 14.492188 L 265.882812 110.363281 L 159.738281 110.363281 Z M 159.738281 14.492188 "/>
<path fill-rule="nonzero" fill="rgb(0%, 0%, 0%)" fill-opacity="1" d="M 5.574219 5.839844 C 5.574219 4.550781 4.644531 3.660156 3.476562 3.660156 C 2.664062 3.660156 2.089844 3.859375 1.496094 4.195312 L 1.574219 5.027344 C 2.226562 4.570312 2.863281 4.414062 3.476562 4.414062 C 4.070312 4.414062 4.582031 4.910156 4.582031 5.839844 L 4.582031 6.394531 C 2.683594 6.414062 1.082031 6.945312 1.082031 8.054688 C 1.082031 8.589844 1.417969 9.621094 2.523438 9.621094 C 2.703125 9.621094 3.890625 9.597656 4.625 9.027344 L 4.625 9.480469 L 5.574219 9.480469 Z M 4.582031 7.816406 C 4.582031 8.054688 4.582031 8.371094 4.148438 8.609375 C 3.792969 8.828125 3.296875 8.847656 3.160156 8.847656 C 2.566406 8.847656 1.992188 8.550781 1.992188 8.035156 C 1.992188 7.144531 4.03125 7.066406 4.582031 7.027344 Z M 4.582031 7.816406 "/>
<path fill-rule="nonzero" fill="rgb(0%, 0%, 0%)" fill-opacity="1" d="M 8.074219 12.648438 C 8.472656 12.25 9.324219 11.480469 9.898438 9.9375 C 10.410156 8.589844 10.492188 7.242188 10.492188 6.3125 C 10.492188 2.238281 8.667969 0.574219 8.074219 0 L 7.304688 0 C 7.898438 0.613281 9.5 2.238281 9.5 6.3125 C 9.5 7.027344 9.460938 8.511719 8.945312 9.996094 C 8.433594 11.460938 7.71875 12.210938 7.304688 12.648438 Z M 8.074219 12.648438 "/>
<path fill-rule="nonzero" fill="rgb(0%, 0%, 0%)" fill-opacity="1" d="M 138.648438 0.710938 L 137.699219 0.710938 L 137.699219 9.480469 L 138.691406 9.480469 L 138.691406 8.90625 C 138.988281 9.183594 139.539062 9.621094 140.390625 9.621094 C 141.640625 9.621094 142.726562 8.351562 142.726562 6.671875 C 142.726562 5.105469 141.875 3.742188 140.6875 3.742188 C 140.195312 3.742188 139.402344 3.859375 138.648438 4.472656 Z M 138.691406 5.246094 C 138.886719 4.949219 139.34375 4.511719 140.035156 4.511719 C 140.789062 4.511719 141.738281 5.046875 141.738281 6.671875 C 141.738281 8.3125 140.6875 8.847656 139.917969 8.847656 C 139.421875 8.847656 139.007812 8.628906 138.691406 8.035156 Z M 138.691406 5.246094 "/>
<path fill-rule="nonzero" fill="rgb(0%, 0%, 0%)" fill-opacity="1" d="M 144.675781 12.648438 C 145.074219 12.25 145.921875 11.480469 146.496094 9.9375 C 147.011719 8.589844 147.089844 7.242188 147.089844 6.3125 C 147.089844 2.238281 145.269531 0.574219 144.675781 0 L 143.90625 0 C 144.5 0.613281 146.101562 2.238281 146.101562 6.3125 C 146.101562 7.027344 146.0625 8.511719 145.546875 9.996094 C 145.03125 11.460938 144.320312 12.210938 143.90625 12.648438 Z M 144.675781 12.648438 "/>
<path fill-rule="nonzero" fill="rgb(0%, 0%, 0%)" fill-opacity="1" d="M 284.886719 4.195312 C 284.132812 3.78125 283.699219 3.660156 282.925781 3.660156 C 281.183594 3.660156 280.15625 5.1875 280.15625 6.671875 C 280.15625 8.234375 281.304688 9.621094 282.886719 9.621094 C 283.558594 9.621094 284.253906 9.441406 284.945312 8.964844 L 284.867188 8.132812 C 284.214844 8.628906 283.539062 8.808594 282.886719 8.808594 C 281.839844 8.808594 281.144531 7.898438 281.144531 6.671875 C 281.144531 5.679688 281.601562 4.472656 282.945312 4.472656 C 283.601562 4.472656 284.035156 4.570312 284.726562 5.027344 Z M 284.886719 4.195312 "/>
<path fill-rule="nonzero" fill="rgb(0%, 0%, 0%)" fill-opacity="1" d="M 286.792969 12.648438 C 287.1875 12.25 288.039062 11.480469 288.613281 9.9375 C 289.128906 8.589844 289.207031 7.242188 289.207031 6.3125 C 289.207031 2.238281 287.386719 0.574219 286.792969 0 L 286.019531 0 C 286.613281 0.613281 288.21875 2.238281 288.21875 6.3125 C 288.21875 7.027344 288.179688 8.511719 287.664062 9.996094 C 287.148438 11.460938 286.4375 12.210938 286.019531 12.648438 Z M 286.792969 12.648438 "/>
</svg>
