<?xml version="1.0" encoding="UTF-8"?>
<svg xmlns="http://www.w3.org/2000/svg" xmlns:xlink="http://www.w3.org/1999/xlink" width="413.740143pt" height="155.401093pt" viewBox="0 0 413.740143 155.401093">
<defs>
<clipPath id="clip-0">
<path clip-rule="nonzero" d="M 81 150 L 87 150 L 87 155.402344 L 81 155.402344 Z M 81 150 "/>
</clipPath>
<clipPath id="clip-1">
<path clip-rule="nonzero" d="M 25 63 L 32 63 L 32 139.628906 L 25 139.628906 Z M 25 63 "/>
</clipPath>
<clipPath id="clip-2">
<path clip-rule="nonzero" d="M 33 33 L 40 33 L 40 139.628906 L 33 139.628906 Z M 33 33 "/>
</clipPath>
<clipPath id="clip-3">
<path clip-rule="nonzero" d="M 32 33 L 40 33 L 40 139.628906 L 32 139.628906 Z M 32 33 "/>
</clipPath>
<clipPath id="clip-4">
<path clip-rule="nonzero" d="M 41 65 L 48 65 L 48 139.628906 L 41 139.628906 Z M 41 65 "/>
</clipPath>
<clipPath id="clip-5">
<path clip-rule="nonzero" d="M 40 65 L 48 65 L 48 139.628906 L 40 139.628906 Z M 40 65 "/>
</clipPath>
<clipPath id="clip-6">
<path clip-rule="nonzero" d="M 48 104 L 56 104 L 56 139.628906 L 48 139.628906 Z M 48 104 "/>
</clipPath>
<clipPath id="clip-7">
<path clip-rule="nonzero" d="M 56 127 L 64 127 L 64 139.628906 L 56 139.628906 Z M 56 127 "/>
</clipPath>
<clipPath id="clip-8">
<path clip-rule="nonzero" d="M 64 136 L 71 136 L 71 139.628906 L 64 139.628906 Z M 64 136 "/>
</clipPath>
<clipPath id="clip-9">
<path clip-rule="nonzero" d="M 64 136 L 72 136 L 72 139.628906 L 64 139.628906 Z M 64 136 "/>
</clipPath>
<clipPath id="clip-10">
<path clip-rule="nonzero" d="M 72 138 L 79 138 L 79 139.628906 L 72 139.628906 Z M 72 138 "/>
</clipPath>
<clipPath id="clip-11">
<path clip-rule="nonzero" d="M 159 120 L 166 120 L 166 139.429688 L 159 139.429688 Z M 159 120 "/>
</clipPath>
<clipPath id="clip-12">
<path clip-rule="nonzero" d="M 167 87 L 174 87 L 174 139.429688 L 167 139.429688 Z M 167 87 "/>
</clipPath>
<clipPath id="clip-13">
<path clip-rule="nonzero" d="M 166 86 L 174 86 L 174 139.429688 L 166 139.429688 Z M 166 86 "/>
</clipPath>
<clipPath id="clip-14">
<path clip-rule="nonzero" d="M 175 66 L 182 66 L 182 139.429688 L 175 139.429688 Z M 175 66 "/>
</clipPath>
<clipPath id="clip-15">
<path clip-rule="nonzero" d="M 174 66 L 182 66 L 182 139.429688 L 174 139.429688 Z M 174 66 "/>
</clipPath>
<clipPath id="clip-16">
<path clip-rule="nonzero" d="M 182 71 L 190 71 L 190 139.429688 L 182 139.429688 Z M 182 71 "/>
</clipPath>
<clipPath id="clip-17">
<path clip-rule="nonzero" d="M 182 70 L 190 70 L 190 139.429688 L 182 139.429688 Z M 182 70 "/>
</clipPath>
<clipPath id="clip-18">
<path clip-rule="nonzero" d="M 190 91 L 198 91 L 198 139.429688 L 190 139.429688 Z M 190 91 "/>
</clipPath>
<clipPath id="clip-19">
<path clip-rule="nonzero" d="M 198 112 L 205 112 L 205 139.429688 L 198 139.429688 Z M 198 112 "/>
</clipPath>
<clipPath id="clip-20">
<path clip-rule="nonzero" d="M 198 112 L 206 112 L 206 139.429688 L 198 139.429688 Z M 198 112 "/>
</clipPath>
<clipPath id="clip-21">
<path clip-rule="nonzero" d="M 206 126 L 213 126 L 213 139.429688 L 206 139.429688 Z M 206 126 "/>
</clipPath>
<clipPath id="clip-22">
<path clip-rule="nonzero" d="M 214 134 L 221 134 L 221 139.429688 L 214 139.429688 Z M 214 134 "/>
</clipPath>
<clipPath id="clip-23">
<path clip-rule="nonzero" d="M 222 137 L 229 137 L 229 139.429688 L 222 139.429688 Z M 222 137 "/>
</clipPath>
<clipPath id="clip-24">
<path clip-rule="nonzero" d="M 230 138 L 237 138 L 237 139.429688 L 230 139.429688 Z M 230 138 "/>
</clipPath>
<clipPath id="clip-25">
<path clip-rule="nonzero" d="M 229 138 L 237 138 L 237 139.429688 L 229 139.429688 Z M 229 138 "/>
</clipPath>
<clipPath id="clip-26">
<path clip-rule="nonzero" d="M 237 139 L 245 139 L 245 139.429688 L 237 139.429688 Z M 237 139 "/>
</clipPath>
<clipPath id="clip-27">
<path clip-rule="nonzero" d="M 245 139 L 253 139 L 253 139.429688 L 245 139.429688 Z M 245 139 "/>
</clipPath>
<clipPath id="clip-28">
<path clip-rule="nonzero" d="M 300 135 L 307 135 L 307 139.628906 L 300 139.628906 Z M 300 135 "/>
</clipPath>
<clipPath id="clip-29">
<path clip-rule="nonzero" d="M 300 134 L 307 134 L 307 139.628906 L 300 139.628906 Z M 300 134 "/>
</clipPath>
<clipPath id="clip-30">
<path clip-rule="nonzero" d="M 308 125 L 315 125 L 315 139.628906 L 308 139.628906 Z M 308 125 "/>
</clipPath>
<clipPath id="clip-31">
<path clip-rule="nonzero" d="M 316 112 L 323 112 L 323 139.628906 L 316 139.628906 Z M 316 112 "/>
</clipPath>
<clipPath id="clip-32">
<path clip-rule="nonzero" d="M 324 98 L 331 98 L 331 139.628906 L 324 139.628906 Z M 324 98 "/>
</clipPath>
<clipPath id="clip-33">
<path clip-rule="nonzero" d="M 323 98 L 331 98 L 331 139.628906 L 323 139.628906 Z M 323 98 "/>
</clipPath>
<clipPath id="clip-34">
<path clip-rule="nonzero" d="M 331 90 L 339 90 L 339 139.628906 L 331 139.628906 Z M 331 90 "/>
</clipPath>
<clipPath id="clip-35">
<path clip-rule="nonzero" d="M 339 90 L 347 90 L 347 139.628906 L 339 139.628906 Z M 339 90 "/>
</clipPath>
<clipPath id="clip-36">
<path clip-rule="nonzero" d="M 347 97 L 354 97 L 354 139.628906 L 347 139.628906 Z M 347 97 "/>
</clipPath>
<clipPath id="clip-37">
<path clip-rule="nonzero" d="M 347 97 L 355 97 L 355 139.628906 L 347 139.628906 Z M 347 97 "/>
</clipPath>
<clipPath id="clip-38">
<path clip-rule="nonzero" d="M 355 107 L 362 107 L 362 139.628906 L 355 139.628906 Z M 355 107 "/>
</clipPath>
<clipPath id="clip-39">
<path clip-rule="nonzero" d="M 355 107 L 363 107 L 363 139.628906 L 355 139.628906 Z M 355 107 "/>
</clipPath>
<clipPath id="clip-40">
<path clip-rule="nonzero" d="M 363 118 L 370 118 L 370 139.628906 L 363 139.628906 Z M 363 118 "/>
</clipPath>
<clipPath id="clip-41">
<path clip-rule="nonzero" d="M 371 126 L 378 126 L 378 139.628906 L 371 139.628906 Z M 371 126 "/>
</clipPath>
<clipPath id="clip-42">
<path clip-rule="nonzero" d="M 379 132 L 386 132 L 386 139.628906 L 379 139.628906 Z M 379 132 "/>
</clipPath>
<clipPath id="clip-43">
<path clip-rule="nonzero" d="M 378 132 L 386 132 L 386 139.628906 L 378 139.628906 Z M 378 132 "/>
</clipPath>
<clipPath id="clip-44">
<path clip-rule="nonzero" d="M 387 136 L 394 136 L 394 139.628906 L 387 139.628906 Z M 387 136 "/>
</clipPath>
<clipPath id="clip-45">
<path clip-rule="nonzero" d="M 386 135 L 394 135 L 394 139.628906 L 386 139.628906 Z M 386 135 "/>
</clipPath>
<clipPath id="clip-46">
<path clip-rule="nonzero" d="M 292 138 L 299 138 L 299 139.628906 L 292 139.628906 Z M 292 138 "/>
</clipPath>
<clipPath id="clip-47">
<path clip-rule="nonzero" d="M 292 138 L 300 138 L 300 139.628906 L 292 139.628906 Z M 292 138 "/>
</clipPath>
<clipPath id="clip-48">
<path clip-rule="nonzero" d="M 394 138 L 402 138 L 402 139.628906 L 394 139.628906 Z M 394 138 "/>
</clipPath>
<clipPath id="clip-49">
<path clip-rule="nonzero" d="M 394 137 L 402 137 L 402 139.628906 L 394 139.628906 Z M 394 137 "/>
</clipPath>
<clipPath id="clip-50">
<path clip-rule="nonzero" d="M 402 138 L 410 138 L 410 139.628906 L 402 139.628906 Z M 402 138 "/>
</clipPath>
<clipPath id="clip-51">
<path clip-rule="nonzero" d="M 215 150 L 220 150 L 220 155.402344 L 215 155.402344 Z M 215 150 "/>
</clipPath>
<clipPath id="clip-52">
<path clip-rule="nonzero" d="M 348 150 L 354 150 L 354 155.402344 L 348 155.402344 Z M 348 150 "/>
</clipPath>
<clipPath id="clip-53">
<path clip-rule="nonzero" d="M 287 15 L 413.738281 15 L 413.738281 141 L 287 141 Z M 287 15 "/>
</clipPath>
</defs>
<path fill="none" stroke-width="0.850394" stroke-linecap="butt" stroke-linejoin="miter" stroke="rgb(50.195312%, 50.195312%, 50.195312%)" stroke-opacity="1" stroke-miterlimit="4" d="M 272.429688 139.90625 L 272.429688 141.632812 "/>
<path fill="none" stroke-width="0.850394" stroke-linecap="butt" stroke-linejoin="miter" stroke="rgb(50.195312%, 50.195312%, 50.195312%)" stroke-opacity="1" stroke-miterlimit="4" d="M 240.957031 139.90625 L 240.957031 141.632812 "/>
<path fill="none" stroke-width="0.850394" stroke-linecap="butt" stroke-linejoin="miter" stroke="rgb(50.195312%, 50.195312%, 50.195312%)" stroke-opacity="1" stroke-miterlimit="4" d="M 209.484375 139.90625 L 209.484375 141.632812 "/>
<path fill="none" stroke-width="0.850394" stroke-linecap="butt" stroke-linejoin="miter" stroke="rgb(50.195312%, 50.195312%, 50.195312%)" stroke-opacity="1" stroke-miterlimit="4" d="M 193.75 139.90625 L 193.75 141.632812 "/>
<path fill="none" stroke-width="0.850394" stroke-linecap="butt" stroke-linejoin="miter" stroke="rgb(50.195312%, 50.195312%, 50.195312%)" stroke-opacity="1" stroke-miterlimit="4" d="M 162.277344 139.90625 L 162.277344 141.632812 "/>
<path fill="none" stroke-width="0.850394" stroke-linecap="butt" stroke-linejoin="miter" stroke="rgb(50.195312%, 50.195312%, 50.195312%)" stroke-opacity="1" stroke-miterlimit="4" d="M 178.011719 139.90625 L 178.011719 141.632812 "/>
<path fill="none" stroke-width="0.850394" stroke-linecap="butt" stroke-linejoin="miter" stroke="rgb(50.195312%, 50.195312%, 50.195312%)" stroke-opacity="1" stroke-miterlimit="4" d="M 256.691406 139.90625 L 256.691406 141.632812 "/>
<path fill="none" stroke-width="0.850394" stroke-linecap="butt" stroke-linejoin="miter" stroke="rgb(50.195312%, 50.195312%, 50.195312%)" stroke-opacity="1" stroke-miterlimit="4" d="M 225.21875 139.90625 L 225.21875 141.632812 "/>
<path fill="none" stroke-width="0.850394" stroke-linecap="butt" stroke-linejoin="miter" stroke="rgb(50.195312%, 50.195312%, 50.195312%)" stroke-opacity="1" stroke-miterlimit="4" d="M 405.996094 139.90625 L 405.996094 141.632812 "/>
<path fill="none" stroke-width="0.850394" stroke-linecap="butt" stroke-linejoin="miter" stroke="rgb(50.195312%, 50.195312%, 50.195312%)" stroke-opacity="1" stroke-miterlimit="4" d="M 374.523438 139.90625 L 374.523438 141.632812 "/>
<path fill="none" stroke-width="0.850394" stroke-linecap="butt" stroke-linejoin="miter" stroke="rgb(50.195312%, 50.195312%, 50.195312%)" stroke-opacity="1" stroke-miterlimit="4" d="M 343.054688 139.90625 L 343.054688 141.632812 "/>
<path fill="none" stroke-width="0.850394" stroke-linecap="butt" stroke-linejoin="miter" stroke="rgb(50.195312%, 50.195312%, 50.195312%)" stroke-opacity="1" stroke-miterlimit="4" d="M 327.316406 139.90625 L 327.316406 141.632812 "/>
<path fill="none" stroke-width="0.850394" stroke-linecap="butt" stroke-linejoin="miter" stroke="rgb(50.195312%, 50.195312%, 50.195312%)" stroke-opacity="1" stroke-miterlimit="4" d="M 295.84375 139.90625 L 295.84375 141.632812 "/>
<path fill="none" stroke-width="0.850394" stroke-linecap="butt" stroke-linejoin="miter" stroke="rgb(50.195312%, 50.195312%, 50.195312%)" stroke-opacity="1" stroke-miterlimit="4" d="M 311.582031 139.90625 L 311.582031 141.632812 "/>
<path fill="none" stroke-width="0.850394" stroke-linecap="butt" stroke-linejoin="miter" stroke="rgb(50.195312%, 50.195312%, 50.195312%)" stroke-opacity="1" stroke-miterlimit="4" d="M 390.261719 139.90625 L 390.261719 141.632812 "/>
<path fill="none" stroke-width="0.850394" stroke-linecap="butt" stroke-linejoin="miter" stroke="rgb(50.195312%, 50.195312%, 50.195312%)" stroke-opacity="1" stroke-miterlimit="4" d="M 358.789062 139.90625 L 358.789062 141.632812 "/>
<g clip-path="url(#clip-0)">
<path fill-rule="nonzero" fill="rgb(0%, 0%, 0%)" fill-opacity="1" d="M 82.519531 154.34375 C 83.121094 153.695312 83.453125 153.414062 83.859375 153.0625 C 83.859375 153.0625 84.542969 152.460938 84.949219 152.058594 C 86.023438 151.019531 86.269531 150.472656 86.269531 150.421875 C 86.269531 150.316406 86.164062 150.316406 86.144531 150.316406 C 86.058594 150.316406 86.039062 150.332031 85.96875 150.4375 C 85.636719 150.984375 85.40625 151.160156 85.144531 151.160156 C 84.863281 151.160156 84.738281 150.984375 84.5625 150.789062 C 84.351562 150.542969 84.15625 150.316406 83.789062 150.316406 C 82.945312 150.316406 82.433594 151.355469 82.433594 151.601562 C 82.433594 151.652344 82.46875 151.722656 82.554688 151.722656 C 82.660156 151.722656 82.679688 151.671875 82.714844 151.601562 C 82.925781 151.074219 83.578125 151.074219 83.664062 151.074219 C 83.894531 151.074219 84.105469 151.144531 84.367188 151.230469 C 84.828125 151.40625 84.949219 151.40625 85.230469 151.40625 C 84.828125 151.882812 83.894531 152.691406 83.683594 152.867188 L 82.660156 153.816406 C 81.90625 154.574219 81.5 155.207031 81.5 155.296875 C 81.5 155.402344 81.625 155.402344 81.640625 155.402344 C 81.730469 155.402344 81.746094 155.382812 81.816406 155.261719 C 82.082031 154.855469 82.414062 154.554688 82.785156 154.554688 C 83.03125 154.554688 83.15625 154.660156 83.4375 154.980469 C 83.613281 155.226562 83.824219 155.402344 84.140625 155.402344 C 85.265625 155.402344 85.917969 153.976562 85.917969 153.675781 C 85.917969 153.625 85.863281 153.554688 85.777344 153.554688 C 85.671875 153.554688 85.652344 153.625 85.617188 153.710938 C 85.355469 154.433594 84.632812 154.644531 84.261719 154.644531 C 84.050781 154.644531 83.839844 154.574219 83.613281 154.503906 C 83.226562 154.363281 83.050781 154.308594 82.820312 154.308594 C 82.800781 154.308594 82.625 154.308594 82.519531 154.34375 Z M 82.519531 154.34375 "/>
</g>
<g clip-path="url(#clip-1)">
<path fill-rule="nonzero" fill="rgb(81.959534%, 51.371765%, 38.430786%)" fill-opacity="1" stroke-width="0.395548" stroke-linecap="butt" stroke-linejoin="round" stroke="rgb(46.665955%, 23.529053%, 13.725281%)" stroke-opacity="1" stroke-miterlimit="4" d="M 30.479517 63.882812 L 38.07466 63.882812 L 38.07466 139.628906 L 30.479517 139.628906 Z M 30.479517 63.882812 " transform="matrix(0.829066, 0, 0, 1, 0, 0)"/>
</g>
<g clip-path="url(#clip-2)">
<path fill-rule="nonzero" fill="rgb(81.959534%, 51.371765%, 38.430786%)" fill-opacity="1" d="M 33.136719 33.582031 L 39.433594 33.582031 L 39.433594 139.628906 L 33.136719 139.628906 Z M 33.136719 33.582031 "/>
</g>
<g clip-path="url(#clip-3)">
<path fill="none" stroke-width="0.395548" stroke-linecap="butt" stroke-linejoin="round" stroke="rgb(46.665955%, 23.529053%, 13.725281%)" stroke-opacity="1" stroke-miterlimit="4" d="M 39.968734 33.582031 L 47.563878 33.582031 L 47.563878 139.628906 L 39.968734 139.628906 Z M 39.968734 33.582031 " transform="matrix(0.829066, 0, 0, 1, 0, 0)"/>
</g>
<g clip-path="url(#clip-4)">
<path fill-rule="nonzero" fill="rgb(81.959534%, 51.371765%, 38.430786%)" fill-opacity="1" d="M 41.007812 65.398438 L 47.300781 65.398438 L 47.300781 139.628906 L 41.007812 139.628906 Z M 41.007812 65.398438 "/>
</g>
<g clip-path="url(#clip-5)">
<path fill="none" stroke-width="0.395548" stroke-linecap="butt" stroke-linejoin="round" stroke="rgb(46.665955%, 23.529053%, 13.725281%)" stroke-opacity="1" stroke-miterlimit="4" d="M 49.462663 65.398438 L 57.053095 65.398438 L 57.053095 139.628906 L 49.462663 139.628906 Z M 49.462663 65.398438 " transform="matrix(0.829066, 0, 0, 1, 0, 0)"/>
</g>
<g clip-path="url(#clip-6)">
<path fill-rule="nonzero" fill="rgb(81.959534%, 51.371765%, 38.430786%)" fill-opacity="1" stroke-width="0.395548" stroke-linecap="butt" stroke-linejoin="round" stroke="rgb(46.665955%, 23.529053%, 13.725281%)" stroke-opacity="1" stroke-miterlimit="4" d="M 58.951881 104.988281 L 66.542312 104.988281 L 66.542312 139.628906 L 58.951881 139.628906 Z M 58.951881 104.988281 " transform="matrix(0.829066, 0, 0, 1, 0, 0)"/>
</g>
<g clip-path="url(#clip-7)">
<path fill-rule="nonzero" fill="rgb(81.959534%, 51.371765%, 38.430786%)" fill-opacity="1" stroke-width="0.395548" stroke-linecap="butt" stroke-linejoin="round" stroke="rgb(46.665955%, 23.529053%, 13.725281%)" stroke-opacity="1" stroke-miterlimit="4" d="M 68.441098 127.503906 L 76.03153 127.503906 L 76.03153 139.628906 L 68.441098 139.628906 Z M 68.441098 127.503906 " transform="matrix(0.829066, 0, 0, 1, 0, 0)"/>
</g>
<g clip-path="url(#clip-8)">
<path fill-rule="nonzero" fill="rgb(81.959534%, 51.371765%, 38.430786%)" fill-opacity="1" d="M 64.609375 136.234375 L 70.90625 136.234375 L 70.90625 139.628906 L 64.609375 139.628906 Z M 64.609375 136.234375 "/>
</g>
<g clip-path="url(#clip-9)">
<path fill="none" stroke-width="0.395548" stroke-linecap="butt" stroke-linejoin="round" stroke="rgb(46.665955%, 23.529053%, 13.725281%)" stroke-opacity="1" stroke-miterlimit="4" d="M 77.930316 136.234375 L 85.525459 136.234375 L 85.525459 139.628906 L 77.930316 139.628906 Z M 77.930316 136.234375 " transform="matrix(0.829066, 0, 0, 1, 0, 0)"/>
</g>
<g clip-path="url(#clip-10)">
<path fill-rule="nonzero" fill="rgb(81.959534%, 51.371765%, 38.430786%)" fill-opacity="1" stroke-width="0.395548" stroke-linecap="butt" stroke-linejoin="round" stroke="rgb(46.665955%, 23.529053%, 13.725281%)" stroke-opacity="1" stroke-miterlimit="4" d="M 87.419533 138.835938 L 95.014676 138.835938 L 95.014676 139.628906 L 87.419533 139.628906 Z M 87.419533 138.835938 " transform="matrix(0.829066, 0, 0, 1, 0, 0)"/>
</g>
<g clip-path="url(#clip-11)">
<path fill-rule="nonzero" fill="rgb(81.959534%, 51.371765%, 38.430786%)" fill-opacity="1" stroke-width="0.395548" stroke-linecap="butt" stroke-linejoin="round" stroke="rgb(46.665955%, 23.529053%, 13.725281%)" stroke-opacity="1" stroke-miterlimit="4" d="M 192.111892 120.75 L 199.702323 120.75 L 199.702323 139.429688 L 192.111892 139.429688 Z M 192.111892 120.75 " transform="matrix(0.829066, 0, 0, 1, 0, 0)"/>
</g>
<g clip-path="url(#clip-12)">
<path fill-rule="nonzero" fill="rgb(81.959534%, 51.371765%, 38.430786%)" fill-opacity="1" d="M 167.140625 87.128906 L 173.433594 87.128906 L 173.433594 139.429688 L 167.140625 139.429688 Z M 167.140625 87.128906 "/>
</g>
<g clip-path="url(#clip-13)">
<path fill="none" stroke-width="0.395548" stroke-linecap="butt" stroke-linejoin="round" stroke="rgb(46.665955%, 23.529053%, 13.725281%)" stroke-opacity="1" stroke-miterlimit="4" d="M 201.601109 87.128906 L 209.191541 87.128906 L 209.191541 139.429688 L 201.601109 139.429688 Z M 201.601109 87.128906 " transform="matrix(0.829066, 0, 0, 1, 0, 0)"/>
</g>
<g clip-path="url(#clip-14)">
<path fill-rule="nonzero" fill="rgb(81.959534%, 51.371765%, 38.430786%)" fill-opacity="1" d="M 175.007812 66.207031 L 181.300781 66.207031 L 181.300781 139.429688 L 175.007812 139.429688 Z M 175.007812 66.207031 "/>
</g>
<g clip-path="url(#clip-15)">
<path fill="none" stroke-width="0.395548" stroke-linecap="butt" stroke-linejoin="round" stroke="rgb(46.665955%, 23.529053%, 13.725281%)" stroke-opacity="1" stroke-miterlimit="4" d="M 211.090326 66.207031 L 218.680758 66.207031 L 218.680758 139.429688 L 211.090326 139.429688 Z M 211.090326 66.207031 " transform="matrix(0.829066, 0, 0, 1, 0, 0)"/>
</g>
<g clip-path="url(#clip-16)">
<path fill-rule="nonzero" fill="rgb(81.959534%, 51.371765%, 38.430786%)" fill-opacity="1" d="M 182.875 71.089844 L 189.171875 71.089844 L 189.171875 139.429688 L 182.875 139.429688 Z M 182.875 71.089844 "/>
</g>
<g clip-path="url(#clip-17)">
<path fill="none" stroke-width="0.395548" stroke-linecap="butt" stroke-linejoin="round" stroke="rgb(46.665955%, 23.529053%, 13.725281%)" stroke-opacity="1" stroke-miterlimit="4" d="M 220.579544 71.089844 L 228.174687 71.089844 L 228.174687 139.429688 L 220.579544 139.429688 Z M 220.579544 71.089844 " transform="matrix(0.829066, 0, 0, 1, 0, 0)"/>
</g>
<g clip-path="url(#clip-18)">
<path fill-rule="nonzero" fill="rgb(81.959534%, 51.371765%, 38.430786%)" fill-opacity="1" stroke-width="0.395548" stroke-linecap="butt" stroke-linejoin="round" stroke="rgb(46.665955%, 23.529053%, 13.725281%)" stroke-opacity="1" stroke-miterlimit="4" d="M 230.073473 91.589844 L 237.663904 91.589844 L 237.663904 139.429688 L 230.073473 139.429688 Z M 230.073473 91.589844 " transform="matrix(0.829066, 0, 0, 1, 0, 0)"/>
</g>
<g clip-path="url(#clip-19)">
<path fill-rule="nonzero" fill="rgb(81.959534%, 51.371765%, 38.430786%)" fill-opacity="1" d="M 198.613281 112.640625 L 204.90625 112.640625 L 204.90625 139.429688 L 198.613281 139.429688 Z M 198.613281 112.640625 "/>
</g>
<g clip-path="url(#clip-20)">
<path fill="none" stroke-width="0.395548" stroke-linecap="butt" stroke-linejoin="round" stroke="rgb(46.665955%, 23.529053%, 13.725281%)" stroke-opacity="1" stroke-miterlimit="4" d="M 239.56269 112.640625 L 247.153122 112.640625 L 247.153122 139.429688 L 239.56269 139.429688 Z M 239.56269 112.640625 " transform="matrix(0.829066, 0, 0, 1, 0, 0)"/>
</g>
<g clip-path="url(#clip-21)">
<path fill-rule="nonzero" fill="rgb(81.959534%, 51.371765%, 38.430786%)" fill-opacity="1" stroke-width="0.395548" stroke-linecap="butt" stroke-linejoin="round" stroke="rgb(46.665955%, 23.529053%, 13.725281%)" stroke-opacity="1" stroke-miterlimit="4" d="M 249.051908 126.925781 L 256.642339 126.925781 L 256.642339 139.429688 L 249.051908 139.429688 Z M 249.051908 126.925781 " transform="matrix(0.829066, 0, 0, 1, 0, 0)"/>
</g>
<g clip-path="url(#clip-22)">
<path fill-rule="nonzero" fill="rgb(81.959534%, 51.371765%, 38.430786%)" fill-opacity="1" stroke-width="0.395548" stroke-linecap="butt" stroke-linejoin="round" stroke="rgb(46.665955%, 23.529053%, 13.725281%)" stroke-opacity="1" stroke-miterlimit="4" d="M 258.541125 134.429688 L 266.136268 134.429688 L 266.136268 139.429688 L 258.541125 139.429688 Z M 258.541125 134.429688 " transform="matrix(0.829066, 0, 0, 1, 0, 0)"/>
</g>
<g clip-path="url(#clip-23)">
<path fill-rule="nonzero" fill="rgb(81.959534%, 51.371765%, 38.430786%)" fill-opacity="1" stroke-width="0.395548" stroke-linecap="butt" stroke-linejoin="round" stroke="rgb(46.665955%, 23.529053%, 13.725281%)" stroke-opacity="1" stroke-miterlimit="4" d="M 268.030342 137.679688 L 275.625485 137.679688 L 275.625485 139.429688 L 268.030342 139.429688 Z M 268.030342 137.679688 " transform="matrix(0.829066, 0, 0, 1, 0, 0)"/>
</g>
<g clip-path="url(#clip-24)">
<path fill-rule="nonzero" fill="rgb(81.959534%, 51.371765%, 38.430786%)" fill-opacity="1" d="M 230.085938 138.882812 L 236.378906 138.882812 L 236.378906 139.429688 L 230.085938 139.429688 Z M 230.085938 138.882812 "/>
</g>
<g clip-path="url(#clip-25)">
<path fill="none" stroke-width="0.395548" stroke-linecap="butt" stroke-linejoin="round" stroke="rgb(46.665955%, 23.529053%, 13.725281%)" stroke-opacity="1" stroke-miterlimit="4" d="M 277.524271 138.882812 L 285.114703 138.882812 L 285.114703 139.429688 L 277.524271 139.429688 Z M 277.524271 138.882812 " transform="matrix(0.829066, 0, 0, 1, 0, 0)"/>
</g>
<g clip-path="url(#clip-26)">
<path fill-rule="nonzero" fill="rgb(81.959534%, 51.371765%, 38.430786%)" fill-opacity="1" stroke-width="0.395548" stroke-linecap="butt" stroke-linejoin="round" stroke="rgb(46.665955%, 23.529053%, 13.725281%)" stroke-opacity="1" stroke-miterlimit="4" d="M 287.013489 139.277344 L 294.60392 139.277344 L 294.60392 139.429688 L 287.013489 139.429688 Z M 287.013489 139.277344 " transform="matrix(0.829066, 0, 0, 1, 0, 0)"/>
</g>
<g clip-path="url(#clip-27)">
<path fill-rule="nonzero" fill="rgb(81.959534%, 51.371765%, 38.430786%)" fill-opacity="1" stroke-width="0.395548" stroke-linecap="butt" stroke-linejoin="round" stroke="rgb(46.665955%, 23.529053%, 13.725281%)" stroke-opacity="1" stroke-miterlimit="4" d="M 296.502706 139.390625 L 304.093138 139.390625 L 304.093138 139.429688 L 296.502706 139.429688 Z M 296.502706 139.390625 " transform="matrix(0.829066, 0, 0, 1, 0, 0)"/>
</g>
<g clip-path="url(#clip-28)">
<path fill-rule="nonzero" fill="rgb(81.959534%, 51.371765%, 38.430786%)" fill-opacity="1" d="M 300.46875 135.0625 L 306.761719 135.0625 L 306.761719 139.628906 L 300.46875 139.628906 Z M 300.46875 135.0625 "/>
</g>
<g clip-path="url(#clip-29)">
<path fill="none" stroke-width="0.395548" stroke-linecap="butt" stroke-linejoin="round" stroke="rgb(46.665955%, 23.529053%, 13.725281%)" stroke-opacity="1" stroke-miterlimit="4" d="M 362.418372 135.0625 L 370.008804 135.0625 L 370.008804 139.628906 L 362.418372 139.628906 Z M 362.418372 135.0625 " transform="matrix(0.829066, 0, 0, 1, 0, 0)"/>
</g>
<g clip-path="url(#clip-30)">
<path fill-rule="nonzero" fill="rgb(81.959534%, 51.371765%, 38.430786%)" fill-opacity="1" stroke-width="0.395548" stroke-linecap="butt" stroke-linejoin="round" stroke="rgb(46.665955%, 23.529053%, 13.725281%)" stroke-opacity="1" stroke-miterlimit="4" d="M 371.907589 125.925781 L 379.502733 125.925781 L 379.502733 139.628906 L 371.907589 139.628906 Z M 371.907589 125.925781 " transform="matrix(0.829066, 0, 0, 1, 0, 0)"/>
</g>
<g clip-path="url(#clip-31)">
<path fill-rule="nonzero" fill="rgb(81.959534%, 51.371765%, 38.430786%)" fill-opacity="1" stroke-width="0.395548" stroke-linecap="butt" stroke-linejoin="round" stroke="rgb(46.665955%, 23.529053%, 13.725281%)" stroke-opacity="1" stroke-miterlimit="4" d="M 381.396807 112.21875 L 388.99195 112.21875 L 388.99195 139.628906 L 381.396807 139.628906 Z M 381.396807 112.21875 " transform="matrix(0.829066, 0, 0, 1, 0, 0)"/>
</g>
<g clip-path="url(#clip-32)">
<path fill-rule="nonzero" fill="rgb(81.959534%, 51.371765%, 38.430786%)" fill-opacity="1" d="M 324.074219 98.515625 L 330.367188 98.515625 L 330.367188 139.628906 L 324.074219 139.628906 Z M 324.074219 98.515625 "/>
</g>
<g clip-path="url(#clip-33)">
<path fill="none" stroke-width="0.395548" stroke-linecap="butt" stroke-linejoin="round" stroke="rgb(46.665955%, 23.529053%, 13.725281%)" stroke-opacity="1" stroke-miterlimit="4" d="M 390.890736 98.515625 L 398.481167 98.515625 L 398.481167 139.628906 L 390.890736 139.628906 Z M 390.890736 98.515625 " transform="matrix(0.829066, 0, 0, 1, 0, 0)"/>
</g>
<g clip-path="url(#clip-34)">
<path fill-rule="nonzero" fill="rgb(81.959534%, 51.371765%, 38.430786%)" fill-opacity="1" stroke-width="0.395548" stroke-linecap="butt" stroke-linejoin="round" stroke="rgb(46.665955%, 23.529053%, 13.725281%)" stroke-opacity="1" stroke-miterlimit="4" d="M 400.379953 90.292969 L 407.970385 90.292969 L 407.970385 139.628906 L 400.379953 139.628906 Z M 400.379953 90.292969 " transform="matrix(0.829066, 0, 0, 1, 0, 0)"/>
</g>
<g clip-path="url(#clip-35)">
<path fill-rule="nonzero" fill="rgb(81.959534%, 51.371765%, 38.430786%)" fill-opacity="1" stroke-width="0.395548" stroke-linecap="butt" stroke-linejoin="round" stroke="rgb(46.665955%, 23.529053%, 13.725281%)" stroke-opacity="1" stroke-miterlimit="4" d="M 409.869171 90.292969 L 417.459602 90.292969 L 417.459602 139.628906 L 409.869171 139.628906 Z M 409.869171 90.292969 " transform="matrix(0.829066, 0, 0, 1, 0, 0)"/>
</g>
<g clip-path="url(#clip-36)">
<path fill-rule="nonzero" fill="rgb(81.959534%, 51.371765%, 38.430786%)" fill-opacity="1" d="M 347.675781 97.339844 L 353.972656 97.339844 L 353.972656 139.628906 L 347.675781 139.628906 Z M 347.675781 97.339844 "/>
</g>
<g clip-path="url(#clip-37)">
<path fill="none" stroke-width="0.395548" stroke-linecap="butt" stroke-linejoin="round" stroke="rgb(46.665955%, 23.529053%, 13.725281%)" stroke-opacity="1" stroke-miterlimit="4" d="M 419.358388 97.339844 L 426.953531 97.339844 L 426.953531 139.628906 L 419.358388 139.628906 Z M 419.358388 97.339844 " transform="matrix(0.829066, 0, 0, 1, 0, 0)"/>
</g>
<g clip-path="url(#clip-38)">
<path fill-rule="nonzero" fill="rgb(81.959534%, 51.371765%, 38.430786%)" fill-opacity="1" d="M 355.546875 107.910156 L 361.839844 107.910156 L 361.839844 139.628906 L 355.546875 139.628906 Z M 355.546875 107.910156 "/>
</g>
<g clip-path="url(#clip-39)">
<path fill="none" stroke-width="0.395548" stroke-linecap="butt" stroke-linejoin="round" stroke="rgb(46.665955%, 23.529053%, 13.725281%)" stroke-opacity="1" stroke-miterlimit="4" d="M 428.852317 107.910156 L 436.442749 107.910156 L 436.442749 139.628906 L 428.852317 139.628906 Z M 428.852317 107.910156 " transform="matrix(0.829066, 0, 0, 1, 0, 0)"/>
</g>
<g clip-path="url(#clip-40)">
<path fill-rule="nonzero" fill="rgb(81.959534%, 51.371765%, 38.430786%)" fill-opacity="1" stroke-width="0.395548" stroke-linecap="butt" stroke-linejoin="round" stroke="rgb(46.665955%, 23.529053%, 13.725281%)" stroke-opacity="1" stroke-miterlimit="4" d="M 438.341534 118.484375 L 445.931966 118.484375 L 445.931966 139.628906 L 438.341534 139.628906 Z M 438.341534 118.484375 " transform="matrix(0.829066, 0, 0, 1, 0, 0)"/>
</g>
<g clip-path="url(#clip-41)">
<path fill-rule="nonzero" fill="rgb(81.959534%, 51.371765%, 38.430786%)" fill-opacity="1" stroke-width="0.395548" stroke-linecap="butt" stroke-linejoin="round" stroke="rgb(46.665955%, 23.529053%, 13.725281%)" stroke-opacity="1" stroke-miterlimit="4" d="M 447.830752 126.941406 L 455.421183 126.941406 L 455.421183 139.628906 L 447.830752 139.628906 Z M 447.830752 126.941406 " transform="matrix(0.829066, 0, 0, 1, 0, 0)"/>
</g>
<g clip-path="url(#clip-42)">
<path fill-rule="nonzero" fill="rgb(81.959534%, 51.371765%, 38.430786%)" fill-opacity="1" d="M 379.148438 132.710938 L 385.445312 132.710938 L 385.445312 139.628906 L 379.148438 139.628906 Z M 379.148438 132.710938 "/>
</g>
<g clip-path="url(#clip-43)">
<path fill="none" stroke-width="0.395548" stroke-linecap="butt" stroke-linejoin="round" stroke="rgb(46.665955%, 23.529053%, 13.725281%)" stroke-opacity="1" stroke-miterlimit="4" d="M 457.319969 132.710938 L 464.915112 132.710938 L 464.915112 139.628906 L 457.319969 139.628906 Z M 457.319969 132.710938 " transform="matrix(0.829066, 0, 0, 1, 0, 0)"/>
</g>
<g clip-path="url(#clip-44)">
<path fill-rule="nonzero" fill="rgb(81.959534%, 51.371765%, 38.430786%)" fill-opacity="1" d="M 387.015625 136.167969 L 393.3125 136.167969 L 393.3125 139.628906 L 387.015625 139.628906 Z M 387.015625 136.167969 "/>
</g>
<g clip-path="url(#clip-45)">
<path fill="none" stroke-width="0.395548" stroke-linecap="butt" stroke-linejoin="round" stroke="rgb(46.665955%, 23.529053%, 13.725281%)" stroke-opacity="1" stroke-miterlimit="4" d="M 466.809186 136.167969 L 474.40433 136.167969 L 474.40433 139.628906 L 466.809186 139.628906 Z M 466.809186 136.167969 " transform="matrix(0.829066, 0, 0, 1, 0, 0)"/>
</g>
<g clip-path="url(#clip-46)">
<path fill-rule="nonzero" fill="rgb(81.959534%, 51.371765%, 38.430786%)" fill-opacity="1" d="M 292.601562 138.867188 L 298.894531 138.867188 L 298.894531 139.628906 L 292.601562 139.628906 Z M 292.601562 138.867188 "/>
</g>
<g clip-path="url(#clip-47)">
<path fill="none" stroke-width="0.395548" stroke-linecap="butt" stroke-linejoin="round" stroke="rgb(46.665955%, 23.529053%, 13.725281%)" stroke-opacity="1" stroke-miterlimit="4" d="M 352.929155 138.867188 L 360.519586 138.867188 L 360.519586 139.628906 L 352.929155 139.628906 Z M 352.929155 138.867188 " transform="matrix(0.829066, 0, 0, 1, 0, 0)"/>
</g>
<g clip-path="url(#clip-48)">
<path fill-rule="nonzero" fill="rgb(81.959534%, 51.371765%, 38.430786%)" fill-opacity="1" d="M 394.886719 138.03125 L 401.179688 138.03125 L 401.179688 139.628906 L 394.886719 139.628906 Z M 394.886719 138.03125 "/>
</g>
<g clip-path="url(#clip-49)">
<path fill="none" stroke-width="0.395548" stroke-linecap="butt" stroke-linejoin="round" stroke="rgb(46.665955%, 23.529053%, 13.725281%)" stroke-opacity="1" stroke-miterlimit="4" d="M 476.303115 138.03125 L 483.893547 138.03125 L 483.893547 139.628906 L 476.303115 139.628906 Z M 476.303115 138.03125 " transform="matrix(0.829066, 0, 0, 1, 0, 0)"/>
</g>
<g clip-path="url(#clip-50)">
<path fill-rule="nonzero" fill="rgb(81.959534%, 51.371765%, 38.430786%)" fill-opacity="1" stroke-width="0.395548" stroke-linecap="butt" stroke-linejoin="round" stroke="rgb(46.665955%, 23.529053%, 13.725281%)" stroke-opacity="1" stroke-miterlimit="4" d="M 485.792333 138.945312 L 493.382764 138.945312 L 493.382764 139.628906 L 485.792333 139.628906 Z M 485.792333 138.945312 " transform="matrix(0.829066, 0, 0, 1, 0, 0)"/>
</g>
<path fill="none" stroke-width="0.850394" stroke-linecap="butt" stroke-linejoin="miter" stroke="rgb(50.195312%, 50.195312%, 50.195312%)" stroke-opacity="1" stroke-miterlimit="4" d="M 138.960938 139.90625 L 138.960938 141.632812 "/>
<path fill="none" stroke-width="0.850394" stroke-linecap="butt" stroke-linejoin="miter" stroke="rgb(50.195312%, 50.195312%, 50.195312%)" stroke-opacity="1" stroke-miterlimit="4" d="M 107.488281 139.90625 L 107.488281 141.632812 "/>
<path fill="none" stroke-width="0.850394" stroke-linecap="butt" stroke-linejoin="miter" stroke="rgb(50.195312%, 50.195312%, 50.195312%)" stroke-opacity="1" stroke-miterlimit="4" d="M 76.015625 139.90625 L 76.015625 141.632812 "/>
<path fill="none" stroke-width="0.850394" stroke-linecap="butt" stroke-linejoin="miter" stroke="rgb(50.195312%, 50.195312%, 50.195312%)" stroke-opacity="1" stroke-miterlimit="4" d="M 60.28125 139.90625 L 60.28125 141.632812 "/>
<path fill="none" stroke-width="0.850394" stroke-linecap="butt" stroke-linejoin="miter" stroke="rgb(50.195312%, 50.195312%, 50.195312%)" stroke-opacity="1" stroke-miterlimit="4" d="M 28.808594 139.90625 L 28.808594 141.632812 "/>
<path fill="none" stroke-width="0.850394" stroke-linecap="butt" stroke-linejoin="miter" stroke="rgb(50.195312%, 50.195312%, 50.195312%)" stroke-opacity="1" stroke-miterlimit="4" d="M 44.546875 139.90625 L 44.546875 141.632812 "/>
<path fill="none" stroke-width="0.850394" stroke-linecap="butt" stroke-linejoin="miter" stroke="rgb(50.195312%, 50.195312%, 50.195312%)" stroke-opacity="1" stroke-miterlimit="4" d="M 123.222656 139.90625 L 123.222656 141.632812 "/>
<path fill="none" stroke-width="0.850394" stroke-linecap="butt" stroke-linejoin="miter" stroke="rgb(50.195312%, 50.195312%, 50.195312%)" stroke-opacity="1" stroke-miterlimit="4" d="M 91.753906 139.90625 L 91.753906 141.632812 "/>
<path fill-rule="nonzero" fill="rgb(0%, 0%, 0%)" fill-opacity="1" d="M 7.335938 88.304688 L 7.335938 86.386719 C 7.335938 84.804688 6.175781 83.238281 4.925781 83.238281 C 4.046875 83.238281 3.21875 83.976562 3.21875 85.457031 L 3.21875 89.082031 C 3.21875 89.292969 3.21875 89.414062 3.429688 89.414062 C 3.570312 89.414062 3.570312 89.328125 3.570312 89.097656 C 3.570312 88.957031 3.589844 88.746094 3.589844 88.625 C 3.625 88.429688 3.640625 88.378906 3.78125 88.378906 C 3.816406 88.378906 3.851562 88.378906 3.992188 88.414062 L 10.011719 89.925781 C 10.449219 90.03125 10.539062 90.046875 10.539062 90.945312 C 10.539062 91.121094 10.539062 91.246094 10.75 91.246094 C 10.890625 91.246094 10.890625 91.121094 10.890625 91.085938 C 10.890625 90.769531 10.855469 89.976562 10.855469 89.660156 C 10.855469 89.414062 10.875 89.167969 10.875 88.941406 C 10.875 88.695312 10.890625 88.449219 10.890625 88.21875 C 10.890625 88.128906 10.890625 87.988281 10.660156 87.988281 C 10.539062 87.988281 10.539062 88.09375 10.539062 88.304688 C 10.539062 88.710938 10.539062 89.027344 10.34375 89.027344 C 10.273438 89.027344 10.222656 89.011719 10.152344 88.992188 Z M 3.992188 87.496094 C 3.605469 87.390625 3.570312 87.375 3.570312 86.882812 L 3.570312 85.808594 C 3.570312 84.875 3.871094 84.277344 4.644531 84.277344 C 5.085938 84.277344 6.050781 84.507812 6.457031 84.945312 C 6.96875 85.507812 7.054688 86.175781 7.054688 86.671875 L 7.054688 88.253906 Z M 3.992188 87.496094 "/>
<path fill-rule="nonzero" fill="rgb(0%, 0%, 0%)" fill-opacity="1" d="M 10.222656 81.953125 C 10.398438 81.988281 10.660156 82.058594 10.714844 82.058594 C 10.910156 82.058594 11.015625 81.902344 11.015625 81.726562 C 11.015625 81.585938 10.925781 81.390625 10.695312 81.304688 C 10.660156 81.285156 9.132812 80.917969 8.921875 80.863281 C 8.550781 80.777344 7.777344 80.566406 7.460938 80.511719 C 7.320312 80.460938 6.789062 80.140625 6.542969 79.878906 C 6.472656 79.789062 6.175781 79.457031 6.175781 78.980469 C 6.175781 78.683594 6.316406 78.523438 6.316406 78.507812 C 6.367188 78.839844 6.632812 79.085938 6.933594 79.085938 C 7.109375 79.085938 7.320312 78.964844 7.320312 78.664062 C 7.320312 78.367188 7.054688 78.046875 6.648438 78.046875 C 6.261719 78.046875 5.929688 78.402344 5.929688 78.980469 C 5.929688 79.703125 6.472656 80.195312 6.789062 80.40625 C 6.28125 80.511719 5.929688 80.917969 5.929688 81.445312 C 5.929688 81.953125 6.367188 82.167969 6.5625 82.273438 C 6.949219 82.464844 7.617188 82.605469 7.652344 82.605469 C 7.777344 82.605469 7.777344 82.5 7.777344 82.484375 C 7.777344 82.359375 7.757812 82.359375 7.511719 82.289062 C 6.71875 82.097656 6.175781 81.867188 6.175781 81.460938 C 6.175781 81.285156 6.261719 81.128906 6.683594 81.128906 C 6.933594 81.128906 7.054688 81.164062 7.636719 81.304688 Z M 10.222656 81.953125 "/>
<path fill-rule="nonzero" fill="rgb(0%, 0%, 0%)" fill-opacity="1" d="M 13.582031 73.855469 C 13.546875 73.855469 13.53125 73.855469 13.335938 74.046875 C 11.929688 75.4375 9.800781 75.808594 8.074219 75.808594 C 6.121094 75.808594 4.167969 75.386719 2.777344 73.996094 C 2.636719 73.855469 2.621094 73.855469 2.585938 73.855469 C 2.496094 73.855469 2.460938 73.890625 2.460938 73.960938 C 2.460938 74.082031 3.238281 75.085938 4.660156 75.753906 C 5.894531 76.316406 7.144531 76.457031 8.074219 76.457031 C 8.957031 76.457031 10.308594 76.335938 11.59375 75.71875 C 12.96875 75.035156 13.707031 74.082031 13.707031 73.960938 C 13.707031 73.890625 13.671875 73.855469 13.582031 73.855469 Z M 13.582031 73.855469 "/>
<path fill-rule="nonzero" fill="rgb(0%, 0%, 0%)" fill-opacity="1" d="M 9.957031 71.707031 C 9.308594 71.109375 9.027344 70.777344 8.671875 70.371094 C 8.671875 70.371094 8.074219 69.683594 7.671875 69.28125 C 6.632812 68.207031 6.085938 67.960938 6.035156 67.960938 C 5.929688 67.960938 5.929688 68.066406 5.929688 68.085938 C 5.929688 68.171875 5.945312 68.191406 6.050781 68.261719 C 6.597656 68.59375 6.773438 68.824219 6.773438 69.085938 C 6.773438 69.367188 6.597656 69.492188 6.402344 69.667969 C 6.15625 69.878906 5.929688 70.074219 5.929688 70.441406 C 5.929688 71.285156 6.96875 71.796875 7.214844 71.796875 C 7.265625 71.796875 7.335938 71.761719 7.335938 71.671875 C 7.335938 71.566406 7.285156 71.550781 7.214844 71.515625 C 6.683594 71.304688 6.683594 70.652344 6.683594 70.566406 C 6.683594 70.335938 6.753906 70.125 6.84375 69.859375 C 7.019531 69.402344 7.019531 69.28125 7.019531 69 C 7.496094 69.402344 8.304688 70.335938 8.480469 70.546875 L 9.429688 71.566406 C 10.1875 72.324219 10.820312 72.730469 10.910156 72.730469 C 11.015625 72.730469 11.015625 72.605469 11.015625 72.589844 C 11.015625 72.5 10.996094 72.484375 10.875 72.414062 C 10.46875 72.148438 10.167969 71.8125 10.167969 71.445312 C 10.167969 71.199219 10.273438 71.074219 10.589844 70.792969 C 10.839844 70.617188 11.015625 70.40625 11.015625 70.089844 C 11.015625 68.964844 9.589844 68.3125 9.289062 68.3125 C 9.238281 68.3125 9.167969 68.367188 9.167969 68.453125 C 9.167969 68.558594 9.238281 68.578125 9.324219 68.613281 C 10.046875 68.875 10.257812 69.597656 10.257812 69.96875 C 10.257812 70.179688 10.1875 70.390625 10.117188 70.617188 C 9.976562 71.003906 9.921875 71.179688 9.921875 71.410156 C 9.921875 71.425781 9.921875 71.601562 9.957031 71.707031 Z M 9.957031 71.707031 "/>
<path fill-rule="nonzero" fill="rgb(0%, 0%, 0%)" fill-opacity="1" d="M 8.074219 64.257812 C 7.214844 64.257812 5.859375 64.378906 4.574219 64.996094 C 3.203125 65.664062 2.460938 66.632812 2.460938 66.738281 C 2.460938 66.808594 2.515625 66.859375 2.585938 66.859375 C 2.621094 66.859375 2.636719 66.859375 2.847656 66.648438 C 3.957031 65.539062 5.734375 64.90625 8.074219 64.90625 C 10.011719 64.90625 11.980469 65.3125 13.390625 66.703125 C 13.53125 66.859375 13.546875 66.859375 13.582031 66.859375 C 13.652344 66.859375 13.707031 66.808594 13.707031 66.738281 C 13.707031 66.632812 12.933594 65.609375 11.507812 64.960938 C 10.273438 64.378906 9.027344 64.257812 8.074219 64.257812 Z M 8.074219 64.257812 "/>
<g clip-path="url(#clip-51)">
<path fill-rule="nonzero" fill="rgb(0%, 0%, 0%)" fill-opacity="1" d="M 216.078125 154.34375 C 216.679688 153.695312 217.011719 153.414062 217.417969 153.0625 C 217.417969 153.0625 218.101562 152.460938 218.507812 152.058594 C 219.582031 151.019531 219.828125 150.472656 219.828125 150.421875 C 219.828125 150.316406 219.722656 150.316406 219.703125 150.316406 C 219.617188 150.316406 219.597656 150.332031 219.527344 150.4375 C 219.195312 150.984375 218.964844 151.160156 218.703125 151.160156 C 218.421875 151.160156 218.296875 150.984375 218.121094 150.789062 C 217.910156 150.542969 217.714844 150.316406 217.347656 150.316406 C 216.503906 150.316406 215.992188 151.355469 215.992188 151.601562 C 215.992188 151.652344 216.027344 151.722656 216.113281 151.722656 C 216.21875 151.722656 216.238281 151.671875 216.273438 151.601562 C 216.484375 151.074219 217.136719 151.074219 217.222656 151.074219 C 217.453125 151.074219 217.664062 151.144531 217.925781 151.230469 C 218.386719 151.40625 218.507812 151.40625 218.789062 151.40625 C 218.386719 151.882812 217.453125 152.691406 217.242188 152.867188 L 216.21875 153.816406 C 215.464844 154.574219 215.058594 155.207031 215.058594 155.296875 C 215.058594 155.402344 215.183594 155.402344 215.199219 155.402344 C 215.289062 155.402344 215.304688 155.382812 215.375 155.261719 C 215.640625 154.855469 215.972656 154.554688 216.34375 154.554688 C 216.589844 154.554688 216.714844 154.660156 216.996094 154.980469 C 217.171875 155.226562 217.382812 155.402344 217.699219 155.402344 C 218.824219 155.402344 219.476562 153.976562 219.476562 153.675781 C 219.476562 153.625 219.421875 153.554688 219.335938 153.554688 C 219.230469 153.554688 219.210938 153.625 219.175781 153.710938 C 218.914062 154.433594 218.191406 154.644531 217.820312 154.644531 C 217.609375 154.644531 217.398438 154.574219 217.171875 154.503906 C 216.785156 154.363281 216.609375 154.308594 216.378906 154.308594 C 216.359375 154.308594 216.183594 154.308594 216.078125 154.34375 Z M 216.078125 154.34375 "/>
</g>
<g clip-path="url(#clip-52)">
<path fill-rule="nonzero" fill="rgb(0%, 0%, 0%)" fill-opacity="1" d="M 349.457031 154.34375 C 350.058594 153.695312 350.390625 153.414062 350.796875 153.0625 C 350.796875 153.0625 351.480469 152.460938 351.886719 152.058594 C 352.960938 151.019531 353.207031 150.472656 353.207031 150.421875 C 353.207031 150.316406 353.101562 150.316406 353.082031 150.316406 C 352.996094 150.316406 352.976562 150.332031 352.90625 150.4375 C 352.574219 150.984375 352.34375 151.160156 352.082031 151.160156 C 351.800781 151.160156 351.675781 150.984375 351.5 150.789062 C 351.289062 150.542969 351.09375 150.316406 350.726562 150.316406 C 349.882812 150.316406 349.371094 151.355469 349.371094 151.601562 C 349.371094 151.652344 349.40625 151.722656 349.492188 151.722656 C 349.597656 151.722656 349.617188 151.671875 349.652344 151.601562 C 349.863281 151.074219 350.515625 151.074219 350.601562 151.074219 C 350.832031 151.074219 351.042969 151.144531 351.304688 151.230469 C 351.765625 151.40625 351.886719 151.40625 352.167969 151.40625 C 351.765625 151.882812 350.832031 152.691406 350.621094 152.867188 L 349.597656 153.816406 C 348.84375 154.574219 348.4375 155.207031 348.4375 155.296875 C 348.4375 155.402344 348.5625 155.402344 348.578125 155.402344 C 348.667969 155.402344 348.683594 155.382812 348.753906 155.261719 C 349.019531 154.855469 349.351562 154.554688 349.722656 154.554688 C 349.96875 154.554688 350.09375 154.660156 350.375 154.980469 C 350.550781 155.226562 350.761719 155.402344 351.078125 155.402344 C 352.203125 155.402344 352.855469 153.976562 352.855469 153.675781 C 352.855469 153.625 352.800781 153.554688 352.714844 153.554688 C 352.609375 153.554688 352.589844 153.625 352.554688 153.710938 C 352.292969 154.433594 351.570312 154.644531 351.199219 154.644531 C 350.988281 154.644531 350.777344 154.574219 350.550781 154.503906 C 350.164062 154.363281 349.988281 154.308594 349.757812 154.308594 C 349.742188 154.308594 349.5625 154.308594 349.457031 154.34375 Z M 349.457031 154.34375 "/>
</g>
<path fill-rule="nonzero" fill="rgb(0%, 0%, 0%)" fill-opacity="1" d="M 115.550781 23.34375 C 115.9375 24.332031 116.394531 25.765625 116.542969 25.984375 C 116.6875 26.191406 116.777344 26.191406 117.042969 26.191406 L 117.25 26.191406 C 117.339844 26.175781 117.351562 26.132812 117.351562 26.101562 C 117.351562 26.074219 117.324219 26.042969 117.292969 26.015625 C 117.207031 25.910156 117.148438 25.765625 117.085938 25.585938 L 115.167969 20.230469 C 114.960938 19.683594 114.460938 19.550781 114.019531 19.550781 C 113.972656 19.550781 113.839844 19.550781 113.839844 19.652344 C 113.839844 19.726562 113.914062 19.757812 113.929688 19.757812 C 114.238281 19.800781 114.3125 19.859375 114.550781 20.507812 L 115.449219 23.0625 L 112.851562 25.644531 C 112.75 25.765625 112.6875 25.808594 112.6875 25.941406 C 112.6875 26.101562 112.820312 26.207031 112.96875 26.207031 C 113.117188 26.207031 113.207031 26.101562 113.28125 26.015625 Z M 115.550781 23.34375 "/>
<path fill-rule="nonzero" fill="rgb(0%, 0%, 0%)" fill-opacity="1" d="M 126.757812 23.003906 C 126.902344 23.003906 127.082031 23.003906 127.082031 22.828125 C 127.082031 22.636719 126.902344 22.636719 126.769531 22.636719 L 121.132812 22.636719 C 121 22.636719 120.824219 22.636719 120.824219 22.828125 C 120.824219 23.003906 121 23.003906 121.132812 23.003906 Z M 126.769531 24.835938 C 126.902344 24.835938 127.082031 24.835938 127.082031 24.640625 C 127.082031 24.464844 126.902344 24.464844 126.757812 24.464844 L 121.132812 24.464844 C 121 24.464844 120.824219 24.464844 120.824219 24.640625 C 120.824219 24.835938 121 24.835938 121.132812 24.835938 Z M 126.769531 24.835938 "/>
<path fill-rule="nonzero" fill="rgb(0%, 0%, 0%)" fill-opacity="1" d="M 133 20.066406 C 133 19.832031 133 19.816406 132.78125 19.816406 C 132.191406 20.421875 131.363281 20.421875 131.070312 20.421875 L 131.070312 20.714844 C 131.261719 20.714844 131.804688 20.714844 132.292969 20.464844 L 132.292969 25.351562 C 132.292969 25.691406 132.265625 25.792969 131.421875 25.792969 L 131.128906 25.792969 L 131.128906 26.089844 C 131.453125 26.058594 132.265625 26.058594 132.648438 26.058594 C 133.015625 26.058594 133.84375 26.058594 134.167969 26.089844 L 134.167969 25.792969 L 133.871094 25.792969 C 133.015625 25.792969 133 25.691406 133 25.351562 Z M 133 20.066406 "/>
<path fill-rule="nonzero" fill="rgb(0%, 0%, 0%)" fill-opacity="1" d="M 136.730469 25.585938 C 136.730469 25.320312 136.511719 25.085938 136.246094 25.085938 C 135.964844 25.085938 135.742188 25.320312 135.742188 25.585938 C 135.742188 25.867188 135.964844 26.089844 136.246094 26.089844 C 136.511719 26.089844 136.730469 25.867188 136.730469 25.585938 Z M 136.730469 25.585938 "/>
<path fill-rule="nonzero" fill="rgb(0%, 0%, 0%)" fill-opacity="1" d="M 140.320312 24.539062 L 140.320312 25.351562 C 140.320312 25.691406 140.289062 25.792969 139.597656 25.792969 L 139.402344 25.792969 L 139.402344 26.089844 C 139.789062 26.058594 140.273438 26.058594 140.671875 26.058594 C 141.070312 26.058594 141.558594 26.058594 141.957031 26.089844 L 141.957031 25.792969 L 141.75 25.792969 C 141.058594 25.792969 141.042969 25.691406 141.042969 25.351562 L 141.042969 24.539062 L 141.972656 24.539062 L 141.972656 24.242188 L 141.042969 24.242188 L 141.042969 19.964844 C 141.042969 19.773438 141.042969 19.710938 140.878906 19.710938 C 140.804688 19.710938 140.777344 19.710938 140.703125 19.832031 L 137.808594 24.242188 L 137.808594 24.539062 Z M 140.363281 24.242188 L 138.074219 24.242188 L 140.363281 20.730469 Z M 140.363281 24.242188 "/>
<path fill-rule="nonzero" fill="rgb(0%, 0%, 0%)" fill-opacity="1" d="M 381.136719 23.300781 C 381.519531 24.289062 381.976562 25.71875 382.125 25.941406 C 382.273438 26.148438 382.363281 26.148438 382.628906 26.148438 L 382.832031 26.148438 C 382.921875 26.132812 382.9375 26.089844 382.9375 26.058594 C 382.9375 26.03125 382.90625 26 382.878906 25.96875 C 382.789062 25.867188 382.730469 25.71875 382.671875 25.542969 L 380.753906 20.183594 C 380.546875 19.640625 380.042969 19.507812 379.601562 19.507812 C 379.558594 19.507812 379.425781 19.507812 379.425781 19.609375 C 379.425781 19.683594 379.5 19.710938 379.511719 19.710938 C 379.824219 19.757812 379.898438 19.816406 380.132812 20.464844 L 381.03125 23.019531 L 378.433594 25.601562 C 378.332031 25.71875 378.273438 25.765625 378.273438 25.898438 C 378.273438 26.058594 378.40625 26.164062 378.554688 26.164062 C 378.699219 26.164062 378.789062 26.058594 378.863281 25.96875 Z M 381.136719 23.300781 "/>
<path fill-rule="nonzero" fill="rgb(0%, 0%, 0%)" fill-opacity="1" d="M 392.339844 22.960938 C 392.488281 22.960938 392.664062 22.960938 392.664062 22.78125 C 392.664062 22.589844 392.488281 22.589844 392.355469 22.589844 L 386.714844 22.589844 C 386.582031 22.589844 386.40625 22.589844 386.40625 22.78125 C 386.40625 22.960938 386.582031 22.960938 386.714844 22.960938 Z M 392.355469 24.789062 C 392.488281 24.789062 392.664062 24.789062 392.664062 24.597656 C 392.664062 24.421875 392.488281 24.421875 392.339844 24.421875 L 386.714844 24.421875 C 386.582031 24.421875 386.40625 24.421875 386.40625 24.597656 C 386.40625 24.789062 386.582031 24.789062 386.714844 24.789062 Z M 392.355469 24.789062 "/>
<path fill-rule="nonzero" fill="rgb(0%, 0%, 0%)" fill-opacity="1" d="M 397.050781 22.960938 L 397.050781 22.722656 C 397.050781 20.347656 398.214844 20.007812 398.703125 20.007812 C 398.925781 20.007812 399.324219 20.066406 399.53125 20.390625 C 399.382812 20.390625 399.011719 20.390625 399.011719 20.804688 C 399.011719 21.101562 399.234375 21.246094 399.441406 21.246094 C 399.589844 21.246094 399.882812 21.160156 399.882812 20.789062 C 399.882812 20.230469 399.472656 19.773438 398.6875 19.773438 C 397.480469 19.773438 396.210938 20.980469 396.210938 23.0625 C 396.210938 25.585938 397.300781 26.25 398.171875 26.25 C 399.21875 26.25 400.121094 25.367188 400.121094 24.125 C 400.121094 22.929688 399.28125 22.03125 398.230469 22.03125 C 397.597656 22.03125 397.242188 22.503906 397.050781 22.960938 Z M 398.171875 25.984375 C 397.582031 25.984375 397.300781 25.425781 397.242188 25.277344 C 397.066406 24.835938 397.066406 24.082031 397.066406 23.917969 C 397.066406 23.179688 397.375 22.238281 398.214844 22.238281 C 398.378906 22.238281 398.808594 22.238281 399.101562 22.828125 C 399.265625 23.167969 399.265625 23.652344 399.265625 24.109375 C 399.265625 24.570312 399.265625 25.039062 399.101562 25.378906 C 398.820312 25.941406 398.394531 25.984375 398.171875 25.984375 Z M 398.171875 25.984375 "/>
<path fill-rule="nonzero" fill="rgb(0%, 0%, 0%)" fill-opacity="1" d="M 402.316406 25.542969 C 402.316406 25.277344 402.09375 25.039062 401.828125 25.039062 C 401.546875 25.039062 401.328125 25.277344 401.328125 25.542969 C 401.328125 25.824219 401.546875 26.042969 401.828125 26.042969 C 402.09375 26.042969 402.316406 25.824219 402.316406 25.542969 Z M 402.316406 25.542969 "/>
<path fill-rule="nonzero" fill="rgb(0%, 0%, 0%)" fill-opacity="1" d="M 407.453125 23.035156 C 407.453125 22.28125 407.410156 21.527344 407.082031 20.835938 C 406.65625 19.917969 405.875 19.773438 405.488281 19.773438 C 404.914062 19.773438 404.234375 20.023438 403.835938 20.894531 C 403.542969 21.542969 403.496094 22.28125 403.496094 23.035156 C 403.496094 23.742188 403.527344 24.582031 403.925781 25.304688 C 404.324219 26.058594 405.015625 26.25 405.476562 26.25 C 405.976562 26.25 406.699219 26.058594 407.113281 25.160156 C 407.410156 24.507812 407.453125 23.769531 407.453125 23.035156 Z M 405.476562 26.042969 C 405.105469 26.042969 404.546875 25.808594 404.382812 24.90625 C 404.28125 24.347656 404.28125 23.476562 404.28125 22.914062 C 404.28125 22.308594 404.28125 21.691406 404.351562 21.1875 C 404.53125 20.066406 405.238281 19.976562 405.476562 19.976562 C 405.785156 19.976562 406.40625 20.15625 406.582031 21.085938 C 406.683594 21.617188 406.683594 22.324219 406.683594 22.914062 C 406.683594 23.625 406.683594 24.257812 406.582031 24.863281 C 406.433594 25.765625 405.902344 26.042969 405.476562 26.042969 Z M 405.476562 26.042969 "/>
<path fill-rule="nonzero" fill="rgb(0%, 0%, 0%)" fill-opacity="1" d="M 248.515625 23.300781 C 248.898438 24.289062 249.355469 25.71875 249.503906 25.941406 C 249.652344 26.148438 249.742188 26.148438 250.007812 26.148438 L 250.214844 26.148438 C 250.300781 26.132812 250.316406 26.089844 250.316406 26.058594 C 250.316406 26.03125 250.289062 26 250.257812 25.96875 C 250.167969 25.867188 250.109375 25.71875 250.050781 25.542969 L 248.132812 20.183594 C 247.925781 19.640625 247.425781 19.507812 246.980469 19.507812 C 246.9375 19.507812 246.804688 19.507812 246.804688 19.609375 C 246.804688 19.683594 246.878906 19.710938 246.894531 19.710938 C 247.203125 19.757812 247.277344 19.816406 247.511719 20.464844 L 248.414062 23.019531 L 245.816406 25.601562 C 245.710938 25.71875 245.652344 25.765625 245.652344 25.898438 C 245.652344 26.058594 245.785156 26.164062 245.933594 26.164062 C 246.082031 26.164062 246.167969 26.058594 246.242188 25.96875 Z M 248.515625 23.300781 "/>
<path fill-rule="nonzero" fill="rgb(0%, 0%, 0%)" fill-opacity="1" d="M 259.71875 22.960938 C 259.867188 22.960938 260.042969 22.960938 260.042969 22.78125 C 260.042969 22.589844 259.867188 22.589844 259.734375 22.589844 L 254.097656 22.589844 C 253.964844 22.589844 253.785156 22.589844 253.785156 22.78125 C 253.785156 22.960938 253.964844 22.960938 254.097656 22.960938 Z M 259.734375 24.789062 C 259.867188 24.789062 260.042969 24.789062 260.042969 24.597656 C 260.042969 24.421875 259.867188 24.421875 259.71875 24.421875 L 254.097656 24.421875 C 253.964844 24.421875 253.785156 24.421875 253.785156 24.597656 C 253.785156 24.789062 253.964844 24.789062 254.097656 24.789062 Z M 259.734375 24.789062 "/>
<path fill-rule="nonzero" fill="rgb(0%, 0%, 0%)" fill-opacity="1" d="M 264.386719 25.320312 L 265.390625 24.347656 C 266.851562 23.046875 267.410156 22.546875 267.410156 21.601562 C 267.410156 20.523438 266.570312 19.773438 265.417969 19.773438 C 264.355469 19.773438 263.664062 20.640625 263.664062 21.484375 C 263.664062 22 264.136719 22 264.164062 22 C 264.328125 22 264.652344 21.898438 264.652344 21.5 C 264.652344 21.261719 264.472656 21.011719 264.148438 21.011719 C 264.074219 21.011719 264.0625 21.011719 264.03125 21.027344 C 264.238281 20.40625 264.753906 20.066406 265.300781 20.066406 C 266.15625 20.066406 266.554688 20.835938 266.554688 21.601562 C 266.554688 22.355469 266.097656 23.09375 265.566406 23.683594 L 263.765625 25.691406 C 263.664062 25.792969 263.664062 25.824219 263.664062 26.042969 L 267.160156 26.042969 L 267.410156 24.40625 L 267.191406 24.40625 C 267.132812 24.6875 267.070312 25.101562 266.96875 25.246094 C 266.910156 25.320312 266.289062 25.320312 266.082031 25.320312 Z M 264.386719 25.320312 "/>
<path fill-rule="nonzero" fill="rgb(0%, 0%, 0%)" fill-opacity="1" d="M 269.695312 25.542969 C 269.695312 25.277344 269.472656 25.039062 269.207031 25.039062 C 268.925781 25.039062 268.707031 25.277344 268.707031 25.542969 C 268.707031 25.824219 268.925781 26.042969 269.207031 26.042969 C 269.472656 26.042969 269.695312 25.824219 269.695312 25.542969 Z M 269.695312 25.542969 "/>
<path fill-rule="nonzero" fill="rgb(0%, 0%, 0%)" fill-opacity="1" d="M 272.042969 21.734375 C 271.613281 21.453125 271.570312 21.144531 271.570312 20.980469 C 271.570312 20.40625 272.191406 20.007812 272.855469 20.007812 C 273.535156 20.007812 274.140625 20.496094 274.140625 21.171875 C 274.140625 21.71875 273.769531 22.164062 273.207031 22.488281 Z M 273.414062 22.636719 C 274.09375 22.28125 274.550781 21.792969 274.550781 21.171875 C 274.550781 20.304688 273.726562 19.773438 272.871094 19.773438 C 271.925781 19.773438 271.15625 20.464844 271.15625 21.351562 C 271.15625 21.511719 271.171875 21.941406 271.570312 22.382812 C 271.675781 22.488281 272.027344 22.722656 272.265625 22.886719 C 271.71875 23.167969 270.90625 23.683594 270.90625 24.628906 C 270.90625 25.617188 271.867188 26.25 272.855469 26.25 C 273.917969 26.25 274.816406 25.46875 274.816406 24.464844 C 274.816406 24.125 274.714844 23.699219 274.34375 23.300781 C 274.167969 23.105469 274.019531 23.019531 273.414062 22.636719 Z M 272.472656 23.035156 L 273.636719 23.769531 C 273.902344 23.949219 274.34375 24.230469 274.34375 24.804688 C 274.34375 25.5 273.636719 25.984375 272.871094 25.984375 C 272.058594 25.984375 271.378906 25.410156 271.378906 24.628906 C 271.378906 24.082031 271.675781 23.476562 272.472656 23.035156 Z M 272.472656 23.035156 "/>
<path fill="none" stroke-width="0.850394" stroke-linecap="butt" stroke-linejoin="miter" stroke="rgb(50.195312%, 50.195312%, 50.195312%)" stroke-opacity="1" stroke-miterlimit="4" d="M 21.101562 15.773438 L 18.570312 15.773438 "/>
<path fill="none" stroke-width="0.850394" stroke-linecap="butt" stroke-linejoin="miter" stroke="rgb(50.195312%, 50.195312%, 50.195312%)" stroke-opacity="1" stroke-miterlimit="4" d="M 21.101562 46.765625 L 18.570312 46.765625 "/>
<path fill="none" stroke-width="0.850394" stroke-linecap="butt" stroke-linejoin="miter" stroke="rgb(50.195312%, 50.195312%, 50.195312%)" stroke-opacity="1" stroke-miterlimit="4" d="M 21.03125 139.746094 L 18.503906 139.746094 "/>
<path fill="none" stroke-width="0.850394" stroke-linecap="butt" stroke-linejoin="miter" stroke="rgb(50.195312%, 50.195312%, 50.195312%)" stroke-opacity="1" stroke-miterlimit="4" d="M 21.101562 62.261719 L 19.375 62.261719 "/>
<path fill="none" stroke-width="0.850394" stroke-linecap="butt" stroke-linejoin="miter" stroke="rgb(50.195312%, 50.195312%, 50.195312%)" stroke-opacity="1" stroke-miterlimit="4" d="M 21.101562 124.25 L 19.375 124.25 "/>
<path fill="none" stroke-width="0.850394" stroke-linecap="butt" stroke-linejoin="miter" stroke="rgb(50.195312%, 50.195312%, 50.195312%)" stroke-opacity="1" stroke-miterlimit="4" d="M 21.101562 93.257812 L 19.375 93.257812 "/>
<path fill="none" stroke-width="0.850394" stroke-linecap="butt" stroke-linejoin="miter" stroke="rgb(50.195312%, 50.195312%, 50.195312%)" stroke-opacity="1" stroke-miterlimit="4" d="M 21.101562 31.269531 L 19.375 31.269531 "/>
<path fill="none" stroke-width="0.850394" stroke-linecap="butt" stroke-linejoin="miter" stroke="rgb(50.195312%, 50.195312%, 50.195312%)" stroke-opacity="1" stroke-miterlimit="4" d="M 21.101562 108.753906 L 18.570312 108.753906 "/>
<path fill="none" stroke-width="0.850394" stroke-linecap="butt" stroke-linejoin="miter" stroke="rgb(50.195312%, 50.195312%, 50.195312%)" stroke-opacity="1" stroke-miterlimit="4" d="M 21.101562 77.761719 L 18.570312 77.761719 "/>
<path fill="none" stroke-width="0.850394" stroke-linecap="butt" stroke-linejoin="miter" stroke="rgb(50.195312%, 50.195312%, 50.195312%)" stroke-opacity="1" stroke-miterlimit="4" d="M 154.660156 15.734375 L 152.128906 15.734375 "/>
<path fill="none" stroke-width="0.850394" stroke-linecap="butt" stroke-linejoin="miter" stroke="rgb(50.195312%, 50.195312%, 50.195312%)" stroke-opacity="1" stroke-miterlimit="4" d="M 154.660156 46.765625 L 152.128906 46.765625 "/>
<path fill="none" stroke-width="0.850394" stroke-linecap="butt" stroke-linejoin="miter" stroke="rgb(50.195312%, 50.195312%, 50.195312%)" stroke-opacity="1" stroke-miterlimit="4" d="M 154.589844 139.746094 L 152.0625 139.746094 "/>
<path fill="none" stroke-width="0.850394" stroke-linecap="butt" stroke-linejoin="miter" stroke="rgb(50.195312%, 50.195312%, 50.195312%)" stroke-opacity="1" stroke-miterlimit="4" d="M 154.660156 62.261719 L 152.933594 62.261719 "/>
<path fill="none" stroke-width="0.850394" stroke-linecap="butt" stroke-linejoin="miter" stroke="rgb(50.195312%, 50.195312%, 50.195312%)" stroke-opacity="1" stroke-miterlimit="4" d="M 154.660156 124.25 L 152.933594 124.25 "/>
<path fill="none" stroke-width="0.850394" stroke-linecap="butt" stroke-linejoin="miter" stroke="rgb(50.195312%, 50.195312%, 50.195312%)" stroke-opacity="1" stroke-miterlimit="4" d="M 154.660156 93.257812 L 152.933594 93.257812 "/>
<path fill="none" stroke-width="0.850394" stroke-linecap="butt" stroke-linejoin="miter" stroke="rgb(50.195312%, 50.195312%, 50.195312%)" stroke-opacity="1" stroke-miterlimit="4" d="M 154.660156 31.269531 L 152.933594 31.269531 "/>
<path fill="none" stroke-width="0.850394" stroke-linecap="butt" stroke-linejoin="miter" stroke="rgb(50.195312%, 50.195312%, 50.195312%)" stroke-opacity="1" stroke-miterlimit="4" d="M 154.660156 108.753906 L 152.128906 108.753906 "/>
<path fill="none" stroke-width="0.850394" stroke-linecap="butt" stroke-linejoin="miter" stroke="rgb(50.195312%, 50.195312%, 50.195312%)" stroke-opacity="1" stroke-miterlimit="4" d="M 154.660156 77.761719 L 152.128906 77.761719 "/>
<path fill="none" stroke-width="0.850394" stroke-linecap="butt" stroke-linejoin="miter" stroke="rgb(50.195312%, 50.195312%, 50.195312%)" stroke-opacity="1" stroke-miterlimit="4" d="M 288.09375 15.773438 L 285.5625 15.773438 "/>
<path fill="none" stroke-width="0.850394" stroke-linecap="butt" stroke-linejoin="miter" stroke="rgb(50.195312%, 50.195312%, 50.195312%)" stroke-opacity="1" stroke-miterlimit="4" d="M 288.09375 46.765625 L 285.5625 46.765625 "/>
<path fill="none" stroke-width="0.850394" stroke-linecap="butt" stroke-linejoin="miter" stroke="rgb(50.195312%, 50.195312%, 50.195312%)" stroke-opacity="1" stroke-miterlimit="4" d="M 288.027344 139.746094 L 285.496094 139.746094 "/>
<path fill="none" stroke-width="0.850394" stroke-linecap="butt" stroke-linejoin="miter" stroke="rgb(50.195312%, 50.195312%, 50.195312%)" stroke-opacity="1" stroke-miterlimit="4" d="M 288.09375 62.261719 L 286.367188 62.261719 "/>
<path fill="none" stroke-width="0.850394" stroke-linecap="butt" stroke-linejoin="miter" stroke="rgb(50.195312%, 50.195312%, 50.195312%)" stroke-opacity="1" stroke-miterlimit="4" d="M 288.09375 124.25 L 286.367188 124.25 "/>
<path fill="none" stroke-width="0.850394" stroke-linecap="butt" stroke-linejoin="miter" stroke="rgb(50.195312%, 50.195312%, 50.195312%)" stroke-opacity="1" stroke-miterlimit="4" d="M 288.09375 93.257812 L 286.367188 93.257812 "/>
<path fill="none" stroke-width="0.850394" stroke-linecap="butt" stroke-linejoin="miter" stroke="rgb(50.195312%, 50.195312%, 50.195312%)" stroke-opacity="1" stroke-miterlimit="4" d="M 288.09375 31.269531 L 286.367188 31.269531 "/>
<path fill="none" stroke-width="0.850394" stroke-linecap="butt" stroke-linejoin="miter" stroke="rgb(50.195312%, 50.195312%, 50.195312%)" stroke-opacity="1" stroke-miterlimit="4" d="M 288.09375 108.753906 L 285.5625 108.753906 "/>
<path fill="none" stroke-width="0.850394" stroke-linecap="butt" stroke-linejoin="miter" stroke="rgb(50.195312%, 50.195312%, 50.195312%)" stroke-opacity="1" stroke-miterlimit="4" d="M 288.09375 77.761719 L 285.5625 77.761719 "/>
<path fill-rule="nonzero" fill="rgb(50.195312%, 50.195312%, 50.195312%)" fill-opacity="1" d="M 11.667969 15.808594 C 11.65625 14.644531 11.394531 12.960938 9.921875 12.960938 C 8.445312 12.960938 8.199219 14.667969 8.199219 15.808594 C 8.199219 16.960938 8.460938 18.632812 9.921875 18.632812 C 11.382812 18.632812 11.667969 16.960938 11.667969 15.808594 Z M 11.097656 15.808594 C 11.097656 16.566406 11.035156 18.113281 9.921875 18.113281 C 8.804688 18.113281 8.769531 16.539062 8.769531 15.808594 C 8.769531 15.066406 8.792969 13.46875 9.921875 13.46875 C 11.035156 13.46875 11.097656 15.078125 11.097656 15.808594 Z M 11.097656 15.808594 "/>
<path fill-rule="nonzero" fill="rgb(50.195312%, 50.195312%, 50.195312%)" fill-opacity="1" d="M 12.679688 17.714844 L 13.4375 17.714844 L 13.4375 18.523438 L 12.679688 18.523438 Z M 12.679688 17.714844 "/>
<path fill-rule="nonzero" fill="rgb(50.195312%, 50.195312%, 50.195312%)" fill-opacity="1" d="M 17.839844 17.222656 L 17.839844 16.652344 L 17.097656 16.652344 L 17.097656 13.058594 L 16.304688 13.058594 L 14.1875 16.527344 L 14.1875 17.222656 L 16.503906 17.222656 L 16.503906 18.523438 L 17.097656 18.523438 L 17.097656 17.222656 Z M 16.503906 16.652344 L 14.632812 16.652344 L 16.503906 13.640625 Z M 16.503906 16.652344 "/>
<path fill-rule="nonzero" fill="rgb(50.195312%, 50.195312%, 50.195312%)" fill-opacity="1" d="M 11.59375 139.808594 C 11.582031 138.644531 11.320312 136.960938 9.847656 136.960938 C 8.371094 136.960938 8.125 138.667969 8.125 139.808594 C 8.125 140.960938 8.386719 142.632812 9.847656 142.632812 C 11.308594 142.632812 11.59375 140.960938 11.59375 139.808594 Z M 11.023438 139.808594 C 11.023438 140.5625 10.960938 142.113281 9.847656 142.113281 C 8.730469 142.113281 8.695312 140.539062 8.695312 139.808594 C 8.695312 139.066406 8.71875 137.46875 9.847656 137.46875 C 10.960938 137.46875 11.023438 139.078125 11.023438 139.808594 Z M 11.023438 139.808594 "/>
<path fill-rule="nonzero" fill="rgb(50.195312%, 50.195312%, 50.195312%)" fill-opacity="1" d="M 12.605469 141.714844 L 13.363281 141.714844 L 13.363281 142.519531 L 12.605469 142.519531 Z M 12.605469 141.714844 "/>
<path fill-rule="nonzero" fill="rgb(50.195312%, 50.195312%, 50.195312%)" fill-opacity="1" d="M 17.839844 139.808594 C 17.828125 138.644531 17.566406 136.960938 16.09375 136.960938 C 14.621094 136.960938 14.371094 138.667969 14.371094 139.808594 C 14.371094 140.960938 14.632812 142.632812 16.09375 142.632812 C 17.554688 142.632812 17.839844 140.960938 17.839844 139.808594 Z M 17.269531 139.808594 C 17.269531 140.5625 17.207031 142.113281 16.09375 142.113281 C 14.980469 142.113281 14.941406 140.539062 14.941406 139.808594 C 14.941406 139.066406 14.964844 137.46875 16.09375 137.46875 C 17.207031 137.46875 17.269531 139.078125 17.269531 139.808594 Z M 17.269531 139.808594 "/>
<path fill-rule="nonzero" fill="rgb(50.195312%, 50.195312%, 50.195312%)" fill-opacity="1" d="M 30.542969 145.464844 C 30.53125 144.300781 30.269531 142.617188 28.796875 142.617188 C 27.324219 142.617188 27.074219 144.328125 27.074219 145.464844 C 27.074219 146.617188 27.335938 148.289062 28.796875 148.289062 C 30.257812 148.289062 30.542969 146.617188 30.542969 145.464844 Z M 29.972656 145.464844 C 29.972656 146.222656 29.910156 147.769531 28.796875 147.769531 C 27.683594 147.769531 27.644531 146.195312 27.644531 145.464844 C 27.644531 144.722656 27.667969 143.125 28.796875 143.125 C 29.910156 143.125 29.972656 144.734375 29.972656 145.464844 Z M 29.972656 145.464844 "/>
<path fill-rule="nonzero" fill="rgb(50.195312%, 50.195312%, 50.195312%)" fill-opacity="1" d="M 46.136719 148.207031 L 46.136719 147.636719 L 43.683594 147.636719 L 45.554688 145.53125 C 45.863281 145.097656 46.101562 144.761719 46.101562 144.195312 C 46.101562 143.179688 45.355469 142.644531 44.414062 142.644531 C 43.882812 142.644531 43.4375 142.804688 42.992188 142.992188 L 42.992188 143.699219 C 43.4375 143.414062 43.882812 143.203125 44.425781 143.203125 C 45.046875 143.203125 45.53125 143.585938 45.53125 144.230469 C 45.53125 144.664062 45.183594 145.195312 44.898438 145.492188 C 44.8125 145.617188 43.089844 147.5 42.953125 147.636719 L 42.953125 148.207031 Z M 46.136719 148.207031 "/>
<path fill-rule="nonzero" fill="rgb(50.195312%, 50.195312%, 50.195312%)" fill-opacity="1" d="M 62.109375 146.855469 L 62.109375 146.285156 L 61.363281 146.285156 L 61.363281 142.695312 L 60.570312 142.695312 L 58.453125 146.164062 L 58.453125 146.855469 L 60.769531 146.855469 L 60.769531 148.15625 L 61.363281 148.15625 L 61.363281 146.855469 Z M 60.769531 146.285156 L 58.898438 146.285156 L 60.769531 143.277344 Z M 60.769531 146.285156 "/>
<path fill-rule="nonzero" fill="rgb(50.195312%, 50.195312%, 50.195312%)" fill-opacity="1" d="M 74.28125 145.742188 L 74.28125 145.828125 C 74.28125 147.453125 74.730469 148.292969 76.089844 148.292969 C 77.019531 148.28125 77.75 147.585938 77.75 146.546875 C 77.75 145.507812 77.21875 144.703125 76.128906 144.703125 C 75.621094 144.726562 75.261719 144.8125 74.890625 145.246094 C 74.902344 143.710938 75.980469 143.128906 77.058594 143.128906 L 77.09375 143.128906 L 77.105469 142.621094 C 75.769531 142.632812 74.28125 143.339844 74.28125 145.742188 Z M 74.902344 146.546875 C 74.925781 145.792969 75.324219 145.222656 76.089844 145.222656 C 76.835938 145.222656 77.179688 145.816406 77.179688 146.546875 C 77.179688 147.277344 76.835938 147.773438 76.089844 147.773438 C 75.347656 147.773438 74.902344 147.304688 74.902344 146.546875 Z M 74.902344 146.546875 "/>
<path fill-rule="nonzero" fill="rgb(50.195312%, 50.195312%, 50.195312%)" fill-opacity="1" d="M 93.46875 146.660156 C 93.457031 146.015625 93.160156 145.507812 92.488281 145.269531 C 92.984375 145.046875 93.367188 144.703125 93.367188 144.09375 C 93.355469 143.140625 92.636719 142.621094 91.769531 142.621094 C 90.890625 142.621094 90.160156 143.140625 90.160156 144.09375 C 90.160156 144.738281 90.496094 145.046875 91.128906 145.269531 C 90.421875 145.496094 90.039062 146.003906 90.039062 146.660156 C 90.039062 147.761719 90.707031 148.292969 91.769531 148.292969 C 92.824219 148.292969 93.46875 147.761719 93.46875 146.660156 Z M 92.800781 144.09375 C 92.800781 144.652344 92.328125 145.023438 91.769531 145.023438 L 91.746094 145.023438 C 91.203125 145.023438 90.730469 144.601562 90.71875 144.09375 C 90.769531 143.375 91.152344 143.128906 91.769531 143.128906 C 92.304688 143.128906 92.773438 143.363281 92.800781 144.09375 Z M 92.921875 146.660156 C 92.921875 147.390625 92.453125 147.773438 91.769531 147.773438 C 91.054688 147.773438 90.605469 147.402344 90.605469 146.660156 C 90.605469 145.929688 91.066406 145.554688 91.769531 145.554688 C 92.464844 145.554688 92.921875 145.953125 92.921875 146.660156 Z M 92.921875 146.660156 "/>
<path fill-rule="nonzero" fill="rgb(50.195312%, 50.195312%, 50.195312%)" fill-opacity="1" d="M 105.917969 148.179688 L 105.917969 142.714844 L 105.261719 142.714844 L 104.480469 143.347656 L 104.480469 143.96875 L 105.296875 143.296875 L 105.296875 148.179688 Z M 105.917969 148.179688 "/>
<path fill-rule="nonzero" fill="rgb(50.195312%, 50.195312%, 50.195312%)" fill-opacity="1" d="M 110.496094 145.464844 C 110.484375 144.300781 110.226562 142.617188 108.75 142.617188 C 107.277344 142.617188 107.027344 144.328125 107.027344 145.464844 C 107.027344 146.617188 107.289062 148.289062 108.75 148.289062 C 110.210938 148.289062 110.496094 146.617188 110.496094 145.464844 Z M 109.925781 145.464844 C 109.925781 146.222656 109.867188 147.769531 108.75 147.769531 C 107.636719 147.769531 107.597656 146.195312 107.597656 145.464844 C 107.597656 144.722656 107.625 143.125 108.75 143.125 C 109.867188 143.125 109.925781 144.734375 109.925781 145.464844 Z M 109.925781 145.464844 "/>
<path fill-rule="nonzero" fill="rgb(50.195312%, 50.195312%, 50.195312%)" fill-opacity="1" d="M 121.882812 148.207031 L 121.882812 142.746094 L 121.226562 142.746094 L 120.445312 143.375 L 120.445312 143.996094 L 121.261719 143.328125 L 121.261719 148.207031 Z M 121.882812 148.207031 "/>
<path fill-rule="nonzero" fill="rgb(50.195312%, 50.195312%, 50.195312%)" fill-opacity="1" d="M 126.003906 148.207031 L 126.003906 147.636719 L 123.550781 147.636719 L 125.421875 145.53125 C 125.730469 145.097656 125.96875 144.761719 125.96875 144.195312 C 125.96875 143.179688 125.222656 142.644531 124.28125 142.644531 C 123.75 142.644531 123.304688 142.804688 122.859375 142.992188 L 122.859375 143.699219 C 123.304688 143.414062 123.75 143.203125 124.292969 143.203125 C 124.914062 143.203125 125.398438 143.585938 125.398438 144.230469 C 125.398438 144.664062 125.050781 145.195312 124.765625 145.492188 C 124.679688 145.617188 122.957031 147.5 122.820312 147.636719 L 122.820312 148.207031 Z M 126.003906 148.207031 "/>
<path fill-rule="nonzero" fill="rgb(50.195312%, 50.195312%, 50.195312%)" fill-opacity="1" d="M 137.425781 148.15625 L 137.425781 142.695312 L 136.769531 142.695312 L 135.988281 143.328125 L 135.988281 143.945312 L 136.804688 143.277344 L 136.804688 148.15625 Z M 137.425781 148.15625 "/>
<path fill-rule="nonzero" fill="rgb(50.195312%, 50.195312%, 50.195312%)" fill-opacity="1" d="M 141.933594 146.855469 L 141.933594 146.285156 L 141.1875 146.285156 L 141.1875 142.695312 L 140.394531 142.695312 L 138.277344 146.164062 L 138.277344 146.855469 L 140.59375 146.855469 L 140.59375 148.15625 L 141.1875 148.15625 L 141.1875 146.855469 Z M 140.59375 146.285156 L 138.722656 146.285156 L 140.59375 143.277344 Z M 140.59375 146.285156 "/>
<path fill="none" stroke-width="0.850394" stroke-linecap="butt" stroke-linejoin="round" stroke="rgb(1.176453%, 0%, 0%)" stroke-opacity="1" stroke-miterlimit="4" d="M 21.25 15.773438 L 146.519531 15.773438 L 146.519531 139.726562 L 21.25 139.726562 Z M 21.25 15.773438 "/>
<path fill="none" stroke-width="0.850394" stroke-linecap="butt" stroke-linejoin="round" stroke="rgb(1.176453%, 0%, 0%)" stroke-opacity="1" stroke-miterlimit="4" d="M 154.808594 15.734375 L 280.078125 15.734375 L 280.078125 139.691406 L 154.808594 139.691406 Z M 154.808594 15.734375 "/>
<g clip-path="url(#clip-53)">
<path fill="none" stroke-width="0.850394" stroke-linecap="butt" stroke-linejoin="round" stroke="rgb(1.176453%, 0%, 0%)" stroke-opacity="1" stroke-miterlimit="4" d="M 288.1875 15.773438 L 413.457031 15.773438 L 413.457031 139.726562 L 288.1875 139.726562 Z M 288.1875 15.773438 "/>
</g>
<path fill-rule="nonzero" fill="rgb(50.195312%, 50.195312%, 50.195312%)" fill-opacity="1" d="M 164.042969 145.464844 C 164.03125 144.300781 163.773438 142.617188 162.296875 142.617188 C 160.824219 142.617188 160.578125 144.328125 160.578125 145.464844 C 160.578125 146.617188 160.835938 148.289062 162.296875 148.289062 C 163.757812 148.289062 164.042969 146.617188 164.042969 145.464844 Z M 163.472656 145.464844 C 163.472656 146.222656 163.414062 147.769531 162.296875 147.769531 C 161.183594 147.769531 161.144531 146.195312 161.144531 145.464844 C 161.144531 144.722656 161.171875 143.125 162.296875 143.125 C 163.414062 143.125 163.472656 144.734375 163.472656 145.464844 Z M 163.472656 145.464844 "/>
<path fill-rule="nonzero" fill="rgb(50.195312%, 50.195312%, 50.195312%)" fill-opacity="1" d="M 179.636719 148.207031 L 179.636719 147.636719 L 177.183594 147.636719 L 179.054688 145.53125 C 179.363281 145.097656 179.601562 144.761719 179.601562 144.195312 C 179.601562 143.179688 178.855469 142.644531 177.914062 142.644531 C 177.382812 142.644531 176.9375 142.804688 176.492188 142.992188 L 176.492188 143.699219 C 176.9375 143.414062 177.382812 143.203125 177.929688 143.203125 C 178.546875 143.203125 179.03125 143.585938 179.03125 144.230469 C 179.03125 144.664062 178.683594 145.195312 178.398438 145.492188 C 178.3125 145.617188 176.589844 147.5 176.453125 147.636719 L 176.453125 148.207031 Z M 179.636719 148.207031 "/>
<path fill-rule="nonzero" fill="rgb(50.195312%, 50.195312%, 50.195312%)" fill-opacity="1" d="M 195.609375 146.855469 L 195.609375 146.285156 L 194.867188 146.285156 L 194.867188 142.695312 L 194.074219 142.695312 L 191.953125 146.164062 L 191.953125 146.855469 L 194.269531 146.855469 L 194.269531 148.15625 L 194.867188 148.15625 L 194.867188 146.855469 Z M 194.269531 146.285156 L 192.402344 146.285156 L 194.269531 143.277344 Z M 194.269531 146.285156 "/>
<path fill-rule="nonzero" fill="rgb(50.195312%, 50.195312%, 50.195312%)" fill-opacity="1" d="M 207.785156 145.742188 L 207.785156 145.828125 C 207.785156 147.453125 208.230469 148.292969 209.59375 148.292969 C 210.519531 148.28125 211.25 147.585938 211.25 146.546875 C 211.25 145.507812 210.71875 144.703125 209.628906 144.703125 C 209.121094 144.726562 208.761719 144.8125 208.390625 145.246094 C 208.402344 143.710938 209.480469 143.128906 210.558594 143.128906 L 210.59375 143.128906 L 210.609375 142.621094 C 209.269531 142.632812 207.785156 143.339844 207.785156 145.742188 Z M 208.402344 146.546875 C 208.425781 145.792969 208.824219 145.222656 209.59375 145.222656 C 210.335938 145.222656 210.683594 145.816406 210.683594 146.546875 C 210.683594 147.277344 210.335938 147.773438 209.59375 147.773438 C 208.847656 147.773438 208.402344 147.304688 208.402344 146.546875 Z M 208.402344 146.546875 "/>
<path fill-rule="nonzero" fill="rgb(50.195312%, 50.195312%, 50.195312%)" fill-opacity="1" d="M 226.96875 146.660156 C 226.957031 146.015625 226.660156 145.507812 225.992188 145.269531 C 226.484375 145.046875 226.871094 144.703125 226.871094 144.09375 C 226.859375 143.140625 226.140625 142.621094 225.273438 142.621094 C 224.394531 142.621094 223.660156 143.140625 223.660156 144.09375 C 223.660156 144.738281 223.996094 145.046875 224.628906 145.269531 C 223.921875 145.496094 223.539062 146.003906 223.539062 146.660156 C 223.539062 147.761719 224.207031 148.292969 225.273438 148.292969 C 226.324219 148.292969 226.96875 147.761719 226.96875 146.660156 Z M 226.300781 144.09375 C 226.300781 144.652344 225.828125 145.023438 225.273438 145.023438 L 225.246094 145.023438 C 224.703125 145.023438 224.230469 144.601562 224.21875 144.09375 C 224.269531 143.375 224.652344 143.128906 225.273438 143.128906 C 225.804688 143.128906 226.273438 143.363281 226.300781 144.09375 Z M 226.425781 146.660156 C 226.425781 147.390625 225.953125 147.773438 225.273438 147.773438 C 224.554688 147.773438 224.109375 147.402344 224.109375 146.660156 C 224.109375 145.929688 224.566406 145.554688 225.273438 145.554688 C 225.964844 145.554688 226.425781 145.953125 226.425781 146.660156 Z M 226.425781 146.660156 "/>
<path fill-rule="nonzero" fill="rgb(50.195312%, 50.195312%, 50.195312%)" fill-opacity="1" d="M 239.417969 148.179688 L 239.417969 142.714844 L 238.761719 142.714844 L 237.980469 143.347656 L 237.980469 143.96875 L 238.796875 143.296875 L 238.796875 148.179688 Z M 239.417969 148.179688 "/>
<path fill-rule="nonzero" fill="rgb(50.195312%, 50.195312%, 50.195312%)" fill-opacity="1" d="M 244 145.464844 C 243.984375 144.300781 243.726562 142.617188 242.25 142.617188 C 240.777344 142.617188 240.53125 144.328125 240.53125 145.464844 C 240.53125 146.617188 240.789062 148.289062 242.25 148.289062 C 243.714844 148.289062 244 146.617188 244 145.464844 Z M 243.429688 145.464844 C 243.429688 146.222656 243.367188 147.769531 242.25 147.769531 C 241.136719 147.769531 241.101562 146.195312 241.101562 145.464844 C 241.101562 144.722656 241.125 143.125 242.25 143.125 C 243.367188 143.125 243.429688 144.734375 243.429688 145.464844 Z M 243.429688 145.464844 "/>
<path fill-rule="nonzero" fill="rgb(50.195312%, 50.195312%, 50.195312%)" fill-opacity="1" d="M 255.382812 148.207031 L 255.382812 142.746094 L 254.726562 142.746094 L 253.945312 143.375 L 253.945312 143.996094 L 254.761719 143.328125 L 254.761719 148.207031 Z M 255.382812 148.207031 "/>
<path fill-rule="nonzero" fill="rgb(50.195312%, 50.195312%, 50.195312%)" fill-opacity="1" d="M 259.503906 148.207031 L 259.503906 147.636719 L 257.050781 147.636719 L 258.921875 145.53125 C 259.230469 145.097656 259.46875 144.761719 259.46875 144.195312 C 259.46875 143.179688 258.722656 142.644531 257.785156 142.644531 C 257.25 142.644531 256.804688 142.804688 256.359375 142.992188 L 256.359375 143.699219 C 256.804688 143.414062 257.25 143.203125 257.796875 143.203125 C 258.414062 143.203125 258.898438 143.585938 258.898438 144.230469 C 258.898438 144.664062 258.550781 145.195312 258.265625 145.492188 C 258.179688 145.617188 256.457031 147.5 256.320312 147.636719 L 256.320312 148.207031 Z M 259.503906 148.207031 "/>
<path fill-rule="nonzero" fill="rgb(50.195312%, 50.195312%, 50.195312%)" fill-opacity="1" d="M 270.925781 148.15625 L 270.925781 142.695312 L 270.269531 142.695312 L 269.488281 143.328125 L 269.488281 143.945312 L 270.308594 143.277344 L 270.308594 148.15625 Z M 270.925781 148.15625 "/>
<path fill-rule="nonzero" fill="rgb(50.195312%, 50.195312%, 50.195312%)" fill-opacity="1" d="M 275.433594 146.855469 L 275.433594 146.285156 L 274.691406 146.285156 L 274.691406 142.695312 L 273.898438 142.695312 L 271.777344 146.164062 L 271.777344 146.855469 L 274.09375 146.855469 L 274.09375 148.15625 L 274.691406 148.15625 L 274.691406 146.855469 Z M 274.09375 146.285156 L 272.226562 146.285156 L 274.09375 143.277344 Z M 274.09375 146.285156 "/>
<path fill-rule="nonzero" fill="rgb(50.195312%, 50.195312%, 50.195312%)" fill-opacity="1" d="M 297.546875 145.464844 C 297.53125 144.300781 297.273438 142.617188 295.796875 142.617188 C 294.324219 142.617188 294.078125 144.328125 294.078125 145.464844 C 294.078125 146.617188 294.335938 148.289062 295.796875 148.289062 C 297.261719 148.289062 297.546875 146.617188 297.546875 145.464844 Z M 296.976562 145.464844 C 296.976562 146.222656 296.914062 147.769531 295.796875 147.769531 C 294.683594 147.769531 294.648438 146.195312 294.648438 145.464844 C 294.648438 144.722656 294.671875 143.125 295.796875 143.125 C 296.914062 143.125 296.976562 144.734375 296.976562 145.464844 Z M 296.976562 145.464844 "/>
<path fill-rule="nonzero" fill="rgb(50.195312%, 50.195312%, 50.195312%)" fill-opacity="1" d="M 313.136719 148.207031 L 313.136719 147.636719 L 310.6875 147.636719 L 312.554688 145.53125 C 312.867188 145.097656 313.101562 144.761719 313.101562 144.195312 C 313.101562 143.179688 312.359375 142.644531 311.417969 142.644531 C 310.882812 142.644531 310.4375 142.804688 309.992188 142.992188 L 309.992188 143.699219 C 310.4375 143.414062 310.882812 143.203125 311.429688 143.203125 C 312.046875 143.203125 312.53125 143.585938 312.53125 144.230469 C 312.53125 144.664062 312.183594 145.195312 311.898438 145.492188 C 311.8125 145.617188 310.089844 147.5 309.957031 147.636719 L 309.957031 148.207031 Z M 313.136719 148.207031 "/>
<path fill-rule="nonzero" fill="rgb(50.195312%, 50.195312%, 50.195312%)" fill-opacity="1" d="M 329.109375 146.855469 L 329.109375 146.285156 L 328.367188 146.285156 L 328.367188 142.695312 L 327.574219 142.695312 L 325.457031 146.164062 L 325.457031 146.855469 L 327.773438 146.855469 L 327.773438 148.15625 L 328.367188 148.15625 L 328.367188 146.855469 Z M 327.773438 146.285156 L 325.902344 146.285156 L 327.773438 143.277344 Z M 327.773438 146.285156 "/>
<path fill-rule="nonzero" fill="rgb(50.195312%, 50.195312%, 50.195312%)" fill-opacity="1" d="M 341.285156 145.742188 L 341.285156 145.828125 C 341.285156 147.453125 341.730469 148.292969 343.09375 148.292969 C 344.023438 148.28125 344.753906 147.585938 344.753906 146.546875 C 344.753906 145.507812 344.21875 144.703125 343.128906 144.703125 C 342.621094 144.726562 342.261719 144.8125 341.890625 145.246094 C 341.902344 143.710938 342.980469 143.128906 344.058594 143.128906 L 344.097656 143.128906 L 344.109375 142.621094 C 342.769531 142.632812 341.285156 143.339844 341.285156 145.742188 Z M 341.902344 146.546875 C 341.929688 145.792969 342.324219 145.222656 343.09375 145.222656 C 343.835938 145.222656 344.183594 145.816406 344.183594 146.546875 C 344.183594 147.277344 343.835938 147.773438 343.09375 147.773438 C 342.351562 147.773438 341.902344 147.304688 341.902344 146.546875 Z M 341.902344 146.546875 "/>
<path fill-rule="nonzero" fill="rgb(50.195312%, 50.195312%, 50.195312%)" fill-opacity="1" d="M 360.46875 146.660156 C 360.457031 146.015625 360.160156 145.507812 359.492188 145.269531 C 359.988281 145.046875 360.371094 144.703125 360.371094 144.09375 C 360.359375 143.140625 359.640625 142.621094 358.773438 142.621094 C 357.894531 142.621094 357.164062 143.140625 357.164062 144.09375 C 357.164062 144.738281 357.496094 145.046875 358.128906 145.269531 C 357.421875 145.496094 357.039062 146.003906 357.039062 146.660156 C 357.039062 147.761719 357.707031 148.292969 358.773438 148.292969 C 359.824219 148.292969 360.46875 147.761719 360.46875 146.660156 Z M 359.800781 144.09375 C 359.800781 144.652344 359.332031 145.023438 358.773438 145.023438 L 358.75 145.023438 C 358.203125 145.023438 357.734375 144.601562 357.71875 144.09375 C 357.769531 143.375 358.152344 143.128906 358.773438 143.128906 C 359.304688 143.128906 359.777344 143.363281 359.800781 144.09375 Z M 359.925781 146.660156 C 359.925781 147.390625 359.453125 147.773438 358.773438 147.773438 C 358.054688 147.773438 357.609375 147.402344 357.609375 146.660156 C 357.609375 145.929688 358.066406 145.554688 358.773438 145.554688 C 359.464844 145.554688 359.925781 145.953125 359.925781 146.660156 Z M 359.925781 146.660156 "/>
<path fill-rule="nonzero" fill="rgb(50.195312%, 50.195312%, 50.195312%)" fill-opacity="1" d="M 372.917969 148.179688 L 372.917969 142.714844 L 372.261719 142.714844 L 371.480469 143.347656 L 371.480469 143.96875 L 372.300781 143.296875 L 372.300781 148.179688 Z M 372.917969 148.179688 "/>
<path fill-rule="nonzero" fill="rgb(50.195312%, 50.195312%, 50.195312%)" fill-opacity="1" d="M 377.5 145.464844 C 377.488281 144.300781 377.226562 142.617188 375.753906 142.617188 C 374.277344 142.617188 374.03125 144.328125 374.03125 145.464844 C 374.03125 146.617188 374.289062 148.289062 375.753906 148.289062 C 377.214844 148.289062 377.5 146.617188 377.5 145.464844 Z M 376.929688 145.464844 C 376.929688 146.222656 376.867188 147.769531 375.753906 147.769531 C 374.636719 147.769531 374.601562 146.195312 374.601562 145.464844 C 374.601562 144.722656 374.625 143.125 375.753906 143.125 C 376.867188 143.125 376.929688 144.734375 376.929688 145.464844 Z M 376.929688 145.464844 "/>
<path fill-rule="nonzero" fill="rgb(50.195312%, 50.195312%, 50.195312%)" fill-opacity="1" d="M 388.882812 148.207031 L 388.882812 142.746094 L 388.226562 142.746094 L 387.445312 143.375 L 387.445312 143.996094 L 388.265625 143.328125 L 388.265625 148.207031 Z M 388.882812 148.207031 "/>
<path fill-rule="nonzero" fill="rgb(50.195312%, 50.195312%, 50.195312%)" fill-opacity="1" d="M 393.003906 148.207031 L 393.003906 147.636719 L 390.554688 147.636719 L 392.421875 145.53125 C 392.734375 145.097656 392.96875 144.761719 392.96875 144.195312 C 392.96875 143.179688 392.226562 142.644531 391.285156 142.644531 C 390.75 142.644531 390.304688 142.804688 389.859375 142.992188 L 389.859375 143.699219 C 390.304688 143.414062 390.75 143.203125 391.296875 143.203125 C 391.914062 143.203125 392.398438 143.585938 392.398438 144.230469 C 392.398438 144.664062 392.050781 145.195312 391.765625 145.492188 C 391.679688 145.617188 389.957031 147.5 389.824219 147.636719 L 389.824219 148.207031 Z M 393.003906 148.207031 "/>
<path fill-rule="nonzero" fill="rgb(50.195312%, 50.195312%, 50.195312%)" fill-opacity="1" d="M 404.425781 148.15625 L 404.425781 142.695312 L 403.769531 142.695312 L 402.992188 143.328125 L 402.992188 143.945312 L 403.808594 143.277344 L 403.808594 148.15625 Z M 404.425781 148.15625 "/>
<path fill-rule="nonzero" fill="rgb(50.195312%, 50.195312%, 50.195312%)" fill-opacity="1" d="M 408.933594 146.855469 L 408.933594 146.285156 L 408.191406 146.285156 L 408.191406 142.695312 L 407.398438 142.695312 L 405.28125 146.164062 L 405.28125 146.855469 L 407.597656 146.855469 L 407.597656 148.15625 L 408.191406 148.15625 L 408.191406 146.855469 Z M 407.597656 146.285156 L 405.726562 146.285156 L 407.597656 143.277344 Z M 407.597656 146.285156 "/>
<path fill-rule="nonzero" fill="rgb(0%, 0%, 0%)" fill-opacity="1" d="M 11.976562 5.839844 C 11.976562 4.550781 11.046875 3.660156 9.878906 3.660156 C 9.066406 3.660156 8.492188 3.859375 7.898438 4.195312 L 7.976562 5.027344 C 8.628906 4.570312 9.265625 4.414062 9.878906 4.414062 C 10.472656 4.414062 10.984375 4.910156 10.984375 5.839844 L 10.984375 6.394531 C 9.085938 6.414062 7.484375 6.945312 7.484375 8.054688 C 7.484375 8.589844 7.820312 9.621094 8.925781 9.621094 C 9.105469 9.621094 10.292969 9.597656 11.027344 9.027344 L 11.027344 9.480469 L 11.976562 9.480469 Z M 10.984375 7.816406 C 10.984375 8.054688 10.984375 8.371094 10.550781 8.609375 C 10.195312 8.828125 9.699219 8.847656 9.5625 8.847656 C 8.96875 8.847656 8.394531 8.550781 8.394531 8.035156 C 8.394531 7.144531 10.433594 7.066406 10.984375 7.027344 Z M 10.984375 7.816406 "/>
<path fill-rule="nonzero" fill="rgb(0%, 0%, 0%)" fill-opacity="1" d="M 14.476562 12.648438 C 14.875 12.25 15.726562 11.480469 16.300781 9.9375 C 16.8125 8.589844 16.894531 7.242188 16.894531 6.3125 C 16.894531 2.238281 15.070312 0.574219 14.476562 0 L 13.707031 0 C 14.300781 0.613281 15.902344 2.238281 15.902344 6.3125 C 15.902344 7.027344 15.863281 8.511719 15.347656 9.996094 C 14.835938 11.460938 14.121094 12.210938 13.707031 12.648438 Z M 14.476562 12.648438 "/>
<path fill-rule="nonzero" fill="rgb(0%, 0%, 0%)" fill-opacity="1" d="M 147.121094 0.710938 L 146.171875 0.710938 L 146.171875 9.480469 L 147.160156 9.480469 L 147.160156 8.90625 C 147.457031 9.183594 148.011719 9.621094 148.863281 9.621094 C 150.109375 9.621094 151.199219 8.351562 151.199219 6.671875 C 151.199219 5.105469 150.347656 3.742188 149.160156 3.742188 C 148.664062 3.742188 147.871094 3.859375 147.121094 4.472656 Z M 147.160156 5.246094 C 147.359375 4.949219 147.8125 4.511719 148.507812 4.511719 C 149.257812 4.511719 150.207031 5.046875 150.207031 6.671875 C 150.207031 8.3125 149.160156 8.847656 148.386719 8.847656 C 147.890625 8.847656 147.476562 8.628906 147.160156 8.035156 Z M 147.160156 5.246094 "/>
<path fill-rule="nonzero" fill="rgb(0%, 0%, 0%)" fill-opacity="1" d="M 153.148438 12.648438 C 153.542969 12.25 154.394531 11.480469 154.96875 9.9375 C 155.480469 8.589844 155.5625 7.242188 155.5625 6.3125 C 155.5625 2.238281 153.742188 0.574219 153.148438 0 L 152.375 0 C 152.96875 0.613281 154.570312 2.238281 154.570312 6.3125 C 154.570312 7.027344 154.53125 8.511719 154.019531 9.996094 C 153.503906 11.460938 152.789062 12.210938 152.375 12.648438 Z M 153.148438 12.648438 "/>
<path fill-rule="nonzero" fill="rgb(0%, 0%, 0%)" fill-opacity="1" d="M 283.789062 4.195312 C 283.035156 3.78125 282.601562 3.660156 281.828125 3.660156 C 280.085938 3.660156 279.058594 5.1875 279.058594 6.671875 C 279.058594 8.234375 280.207031 9.621094 281.789062 9.621094 C 282.460938 9.621094 283.15625 9.441406 283.847656 8.964844 L 283.769531 8.132812 C 283.113281 8.628906 282.441406 8.808594 281.789062 8.808594 C 280.738281 8.808594 280.046875 7.898438 280.046875 6.671875 C 280.046875 5.679688 280.503906 4.472656 281.847656 4.472656 C 282.5 4.472656 282.9375 4.570312 283.628906 5.027344 Z M 283.789062 4.195312 "/>
<path fill-rule="nonzero" fill="rgb(0%, 0%, 0%)" fill-opacity="1" d="M 285.695312 12.648438 C 286.089844 12.25 286.941406 11.480469 287.515625 9.9375 C 288.03125 8.589844 288.109375 7.242188 288.109375 6.3125 C 288.109375 2.238281 286.289062 0.574219 285.695312 0 L 284.921875 0 C 285.515625 0.613281 287.121094 2.238281 287.121094 6.3125 C 287.121094 7.027344 287.078125 8.511719 286.566406 9.996094 C 286.050781 11.460938 285.339844 12.210938 284.921875 12.648438 Z M 285.695312 12.648438 "/>
</svg>
