<?xml version="1.0" encoding="UTF-8"?>
<svg xmlns="http://www.w3.org/2000/svg" xmlns:xlink="http://www.w3.org/1999/xlink" width="209.672943pt" height="147.476151pt" viewBox="0 0 209.672943 147.476151">
<path fill="none" stroke-width="0.751181" stroke-linecap="butt" stroke-linejoin="miter" stroke="rgb(25.881958%, 29.411316%, 30.979919%)" stroke-opacity="1" stroke-dasharray="0.751181 0.751181" stroke-miterlimit="4" d="M 162.332031 63.335938 L 148.285156 63.335938 "/>
<path fill-rule="nonzero" fill="rgb(25.881958%, 29.411316%, 30.979919%)" fill-opacity="1" d="M 166 63.257812 C 166.457031 64.4375 167.003906 66.144531 167.179688 66.410156 C 167.355469 66.65625 167.460938 66.65625 167.777344 66.65625 L 168.023438 66.65625 C 168.128906 66.636719 168.148438 66.585938 168.148438 66.550781 C 168.148438 66.515625 168.113281 66.480469 168.078125 66.445312 C 167.96875 66.320312 167.898438 66.144531 167.828125 65.933594 L 165.542969 59.546875 C 165.296875 58.894531 164.699219 58.738281 164.167969 58.738281 C 164.117188 58.738281 163.957031 58.738281 163.957031 58.859375 C 163.957031 58.949219 164.046875 58.984375 164.0625 58.984375 C 164.433594 59.035156 164.523438 59.105469 164.804688 59.882812 L 165.875 62.925781 L 162.78125 66.003906 C 162.65625 66.144531 162.585938 66.199219 162.585938 66.355469 C 162.585938 66.550781 162.746094 66.671875 162.921875 66.671875 C 163.097656 66.671875 163.203125 66.550781 163.289062 66.445312 Z M 166 63.257812 "/>
<path fill-rule="nonzero" fill="rgb(25.881958%, 29.411316%, 30.979919%)" fill-opacity="1" d="M 172.6875 66.929688 L 172.6875 66.648438 L 171.804688 66.648438 L 171.804688 63.148438 C 171.804688 62.988281 171.804688 62.917969 171.648438 62.917969 C 171.542969 62.917969 171.507812 62.917969 171.4375 63.042969 L 168.832031 66.648438 L 168.832031 66.929688 L 171.15625 66.929688 L 171.15625 67.5625 C 171.15625 67.84375 171.15625 67.933594 170.503906 67.933594 L 170.292969 67.933594 L 170.292969 68.214844 C 170.699219 68.195312 171.191406 68.179688 171.472656 68.179688 C 171.769531 68.179688 172.261719 68.195312 172.667969 68.214844 L 172.667969 67.933594 L 172.457031 67.933594 C 171.804688 67.933594 171.804688 67.84375 171.804688 67.5625 L 171.804688 66.929688 Z M 171.207031 63.78125 L 171.207031 66.648438 L 169.132812 66.648438 Z M 171.207031 63.78125 "/>
<path fill="none" stroke-width="0.751181" stroke-linecap="butt" stroke-linejoin="miter" stroke="rgb(25.881958%, 29.411316%, 30.979919%)" stroke-opacity="1" stroke-dasharray="0.751181 0.751181" stroke-miterlimit="4" d="M 100.96875 28.648438 L 86.921875 28.648438 "/>
<path fill-rule="nonzero" fill="rgb(25.881958%, 29.411316%, 30.979919%)" fill-opacity="1" d="M 104.917969 28.699219 C 105.375 29.878906 105.921875 31.585938 106.097656 31.847656 C 106.273438 32.09375 106.378906 32.09375 106.695312 32.09375 L 106.941406 32.09375 C 107.046875 32.078125 107.066406 32.023438 107.066406 31.988281 C 107.066406 31.953125 107.03125 31.917969 106.996094 31.882812 C 106.890625 31.761719 106.820312 31.585938 106.75 31.375 L 104.460938 24.988281 C 104.214844 24.335938 103.617188 24.175781 103.089844 24.175781 C 103.035156 24.175781 102.878906 24.175781 102.878906 24.300781 C 102.878906 24.386719 102.964844 24.421875 102.984375 24.421875 C 103.351562 24.476562 103.441406 24.546875 103.722656 25.320312 L 104.796875 28.363281 L 101.699219 31.445312 C 101.574219 31.585938 101.503906 31.636719 101.503906 31.796875 C 101.503906 31.988281 101.664062 32.113281 101.839844 32.113281 C 102.015625 32.113281 102.121094 31.988281 102.210938 31.882812 Z M 104.917969 28.699219 "/>
<path fill-rule="nonzero" fill="rgb(25.881958%, 29.411316%, 30.979919%)" fill-opacity="1" d="M 111.410156 32.230469 L 111.148438 32.230469 C 111.128906 32.40625 111.042969 32.863281 110.9375 32.933594 C 110.882812 32.984375 110.285156 32.984375 110.160156 32.984375 L 108.71875 32.984375 C 109.546875 32.265625 109.828125 32.035156 110.285156 31.667969 C 110.867188 31.207031 111.410156 30.714844 111.410156 29.976562 C 111.410156 29.027344 110.585938 28.445312 109.582031 28.445312 C 108.613281 28.445312 107.945312 29.132812 107.945312 29.855469 C 107.945312 30.242188 108.277344 30.292969 108.367188 30.292969 C 108.542969 30.292969 108.773438 30.152344 108.773438 29.871094 C 108.773438 29.730469 108.71875 29.449219 108.3125 29.449219 C 108.5625 28.902344 109.089844 28.726562 109.457031 28.726562 C 110.25 28.726562 110.65625 29.34375 110.65625 29.976562 C 110.65625 30.664062 110.160156 31.191406 109.914062 31.472656 L 108.03125 33.355469 C 107.945312 33.425781 107.945312 33.445312 107.945312 33.65625 L 111.183594 33.65625 Z M 111.410156 32.230469 "/>
<path fill-rule="nonzero" fill="rgb(81.959534%, 51.371765%, 38.430786%)" fill-opacity="1" d="M 36.691406 116.726562 L 63.957031 116.726562 L 63.957031 129.632812 L 36.691406 129.632812 Z M 36.691406 116.726562 "/>
<path fill="none" stroke-width="1.034646" stroke-linecap="butt" stroke-linejoin="miter" stroke="rgb(46.665955%, 23.529053%, 13.725281%)" stroke-opacity="1" stroke-miterlimit="4" d="M 36.503906 129.632812 L 36.503906 116.726562 L 63.957031 116.726562 L 63.957031 129.632812 "/>
<path fill-rule="nonzero" fill="rgb(81.959534%, 51.371765%, 38.430786%)" fill-opacity="1" d="M 159.128906 105.476562 L 186.394531 105.476562 L 186.394531 129.632812 L 159.128906 129.632812 Z M 159.128906 105.476562 "/>
<path fill="none" stroke-width="1.034646" stroke-linecap="butt" stroke-linejoin="miter" stroke="rgb(46.665955%, 23.529053%, 13.725281%)" stroke-opacity="1" stroke-miterlimit="4" d="M 158.941406 129.632812 L 158.941406 105.476562 L 186.394531 105.476562 L 186.394531 129.632812 "/>
<path fill-rule="nonzero" fill="rgb(81.959534%, 51.371765%, 38.430786%)" fill-opacity="1" d="M 97.910156 78.664062 L 125.175781 78.664062 L 125.175781 129.632812 L 97.910156 129.632812 Z M 97.910156 78.664062 "/>
<path fill="none" stroke-width="1.034646" stroke-linecap="butt" stroke-linejoin="miter" stroke="rgb(46.665955%, 23.529053%, 13.725281%)" stroke-opacity="1" stroke-miterlimit="4" d="M 97.722656 129.632812 L 97.722656 78.851562 L 125.175781 78.851562 L 125.175781 129.632812 "/>
<path fill-rule="nonzero" fill="rgb(81.959534%, 51.371765%, 38.430786%)" fill-opacity="1" d="M 128.519531 63.289062 L 155.785156 63.289062 L 155.785156 129.632812 L 128.519531 129.632812 Z M 128.519531 63.289062 "/>
<path fill="none" stroke-width="1.034646" stroke-linecap="butt" stroke-linejoin="miter" stroke="rgb(46.665955%, 23.529053%, 13.725281%)" stroke-opacity="1" stroke-miterlimit="4" d="M 128.332031 129.632812 L 128.332031 63.476562 L 155.785156 63.476562 L 155.785156 129.632812 "/>
<path fill-rule="nonzero" fill="rgb(81.959534%, 51.371765%, 38.430786%)" fill-opacity="1" d="M 66.953125 28.457031 L 94.566406 28.457031 L 94.566406 129.632812 L 66.953125 129.632812 Z M 66.953125 28.457031 "/>
<path fill="none" stroke-width="1.034646" stroke-linecap="butt" stroke-linejoin="miter" stroke="rgb(46.665955%, 23.529053%, 13.725281%)" stroke-opacity="1" stroke-miterlimit="4" d="M 67.113281 129.632812 L 67.113281 28.789062 L 94.566406 28.789062 L 94.566406 129.632812 "/>
<path fill="none" stroke-width="0.850394" stroke-linecap="butt" stroke-linejoin="miter" stroke="rgb(50.195312%, 50.195312%, 50.195312%)" stroke-opacity="1" stroke-miterlimit="4" d="M 32.019531 2.800781 L 29.488281 2.800781 "/>
<path fill="none" stroke-width="0.850394" stroke-linecap="butt" stroke-linejoin="miter" stroke="rgb(50.195312%, 50.195312%, 50.195312%)" stroke-opacity="1" stroke-miterlimit="4" d="M 31.902344 129.835938 L 29.371094 129.835938 "/>
<path fill="none" stroke-width="0.850394" stroke-linecap="butt" stroke-linejoin="miter" stroke="rgb(50.195312%, 50.195312%, 50.195312%)" stroke-opacity="1" stroke-miterlimit="4" d="M 32.019531 53.613281 L 30.292969 53.613281 "/>
<path fill="none" stroke-width="0.850394" stroke-linecap="butt" stroke-linejoin="miter" stroke="rgb(50.195312%, 50.195312%, 50.195312%)" stroke-opacity="1" stroke-miterlimit="4" d="M 32.019531 79.019531 L 30.292969 79.019531 "/>
<path fill="none" stroke-width="0.850394" stroke-linecap="butt" stroke-linejoin="miter" stroke="rgb(50.195312%, 50.195312%, 50.195312%)" stroke-opacity="1" stroke-miterlimit="4" d="M 32.019531 104.429688 L 30.292969 104.429688 "/>
<path fill-rule="nonzero" fill="rgb(0%, 0%, 0%)" fill-opacity="1" d="M 16.875 76.875 L 16.875 74.957031 C 16.875 73.371094 15.710938 71.804688 14.464844 71.804688 C 13.582031 71.804688 12.757812 72.546875 12.757812 74.023438 L 12.757812 77.648438 C 12.757812 77.859375 12.757812 77.980469 12.96875 77.980469 C 13.109375 77.980469 13.109375 77.894531 13.109375 77.664062 C 13.109375 77.523438 13.125 77.3125 13.125 77.191406 C 13.160156 76.996094 13.179688 76.945312 13.320312 76.945312 C 13.355469 76.945312 13.390625 76.945312 13.53125 76.980469 L 19.546875 78.492188 C 19.988281 78.597656 20.078125 78.617188 20.078125 79.511719 C 20.078125 79.6875 20.078125 79.8125 20.289062 79.8125 C 20.429688 79.8125 20.429688 79.6875 20.429688 79.652344 C 20.429688 79.335938 20.394531 78.546875 20.394531 78.230469 C 20.394531 77.980469 20.410156 77.734375 20.410156 77.507812 C 20.410156 77.261719 20.429688 77.015625 20.429688 76.785156 C 20.429688 76.699219 20.429688 76.558594 20.199219 76.558594 C 20.078125 76.558594 20.078125 76.664062 20.078125 76.875 C 20.078125 77.277344 20.078125 77.59375 19.882812 77.59375 C 19.8125 77.59375 19.761719 77.578125 19.691406 77.558594 Z M 13.53125 76.0625 C 13.144531 75.957031 13.109375 75.941406 13.109375 75.449219 L 13.109375 74.375 C 13.109375 73.441406 13.40625 72.84375 14.183594 72.84375 C 14.621094 72.84375 15.589844 73.074219 15.996094 73.511719 C 16.503906 74.074219 16.59375 74.746094 16.59375 75.238281 L 16.59375 76.820312 Z M 13.53125 76.0625 "/>
<path fill-rule="nonzero" fill="rgb(0%, 0%, 0%)" fill-opacity="1" d="M 19.761719 70.523438 C 19.9375 70.558594 20.199219 70.628906 20.253906 70.628906 C 20.445312 70.628906 20.550781 70.46875 20.550781 70.292969 C 20.550781 70.152344 20.464844 69.957031 20.234375 69.871094 C 20.199219 69.851562 18.667969 69.484375 18.457031 69.429688 C 18.089844 69.34375 17.3125 69.132812 16.996094 69.078125 C 16.855469 69.027344 16.328125 68.710938 16.082031 68.445312 C 16.011719 68.359375 15.710938 68.023438 15.710938 67.546875 C 15.710938 67.25 15.855469 67.089844 15.855469 67.074219 C 15.90625 67.40625 16.171875 67.652344 16.46875 67.652344 C 16.644531 67.652344 16.855469 67.53125 16.855469 67.230469 C 16.855469 66.933594 16.59375 66.617188 16.1875 66.617188 C 15.800781 66.617188 15.464844 66.96875 15.464844 67.546875 C 15.464844 68.269531 16.011719 68.761719 16.328125 68.972656 C 15.820312 69.078125 15.464844 69.484375 15.464844 70.011719 C 15.464844 70.523438 15.90625 70.734375 16.101562 70.839844 C 16.488281 71.03125 17.15625 71.171875 17.191406 71.171875 C 17.3125 71.171875 17.3125 71.066406 17.3125 71.050781 C 17.3125 70.925781 17.296875 70.925781 17.050781 70.855469 C 16.257812 70.664062 15.710938 70.433594 15.710938 70.027344 C 15.710938 69.851562 15.800781 69.695312 16.222656 69.695312 C 16.46875 69.695312 16.59375 69.730469 17.171875 69.871094 Z M 19.761719 70.523438 "/>
<path fill-rule="nonzero" fill="rgb(0%, 0%, 0%)" fill-opacity="1" d="M 23.121094 62.421875 C 23.085938 62.421875 23.066406 62.421875 22.875 62.613281 C 21.464844 64.003906 19.335938 64.375 17.613281 64.375 C 15.660156 64.375 13.707031 63.953125 12.316406 62.5625 C 12.175781 62.421875 12.160156 62.421875 12.125 62.421875 C 12.035156 62.421875 12 62.457031 12 62.527344 C 12 62.648438 12.773438 63.652344 14.199219 64.320312 C 15.429688 64.886719 16.679688 65.027344 17.613281 65.027344 C 18.492188 65.027344 19.847656 64.902344 21.132812 64.285156 C 22.503906 63.601562 23.242188 62.648438 23.242188 62.527344 C 23.242188 62.457031 23.207031 62.421875 23.121094 62.421875 Z M 23.121094 62.421875 "/>
<path fill-rule="nonzero" fill="rgb(0%, 0%, 0%)" fill-opacity="1" d="M 19.496094 60.277344 C 18.84375 59.675781 18.5625 59.34375 18.210938 58.9375 C 18.210938 58.9375 17.613281 58.253906 17.207031 57.847656 C 16.171875 56.773438 15.625 56.527344 15.570312 56.527344 C 15.464844 56.527344 15.464844 56.632812 15.464844 56.652344 C 15.464844 56.738281 15.484375 56.757812 15.589844 56.828125 C 16.136719 57.160156 16.3125 57.390625 16.3125 57.652344 C 16.3125 57.9375 16.136719 58.058594 15.941406 58.234375 C 15.695312 58.445312 15.464844 58.640625 15.464844 59.007812 C 15.464844 59.855469 16.503906 60.363281 16.75 60.363281 C 16.804688 60.363281 16.875 60.328125 16.875 60.242188 C 16.875 60.136719 16.820312 60.117188 16.75 60.082031 C 16.222656 59.871094 16.222656 59.21875 16.222656 59.132812 C 16.222656 58.902344 16.292969 58.691406 16.382812 58.429688 C 16.558594 57.972656 16.558594 57.847656 16.558594 57.566406 C 17.03125 57.972656 17.84375 58.902344 18.019531 59.113281 L 18.96875 60.136719 C 19.726562 60.890625 20.359375 61.296875 20.445312 61.296875 C 20.550781 61.296875 20.550781 61.171875 20.550781 61.15625 C 20.550781 61.066406 20.535156 61.050781 20.410156 60.980469 C 20.007812 60.714844 19.707031 60.382812 19.707031 60.011719 C 19.707031 59.765625 19.8125 59.640625 20.128906 59.359375 C 20.375 59.183594 20.550781 58.972656 20.550781 58.65625 C 20.550781 57.53125 19.125 56.878906 18.828125 56.878906 C 18.773438 56.878906 18.703125 56.933594 18.703125 57.019531 C 18.703125 57.125 18.773438 57.144531 18.863281 57.179688 C 19.582031 57.441406 19.796875 58.164062 19.796875 58.535156 C 19.796875 58.746094 19.726562 58.957031 19.65625 59.183594 C 19.511719 59.570312 19.460938 59.746094 19.460938 59.976562 C 19.460938 59.996094 19.460938 60.171875 19.496094 60.277344 Z M 19.496094 60.277344 "/>
<path fill-rule="nonzero" fill="rgb(0%, 0%, 0%)" fill-opacity="1" d="M 17.613281 52.824219 C 16.75 52.824219 15.394531 52.945312 14.113281 53.5625 C 12.738281 54.230469 12 55.199219 12 55.304688 C 12 55.375 12.054688 55.425781 12.125 55.425781 C 12.160156 55.425781 12.175781 55.425781 12.386719 55.214844 C 13.496094 54.109375 15.273438 53.472656 17.613281 53.472656 C 19.546875 53.472656 21.519531 53.878906 22.925781 55.269531 C 23.066406 55.425781 23.085938 55.425781 23.121094 55.425781 C 23.191406 55.425781 23.242188 55.375 23.242188 55.304688 C 23.242188 55.199219 22.46875 54.179688 21.042969 53.527344 C 19.8125 52.945312 18.5625 52.824219 17.613281 52.824219 Z M 17.613281 52.824219 "/>
<path fill="none" stroke-width="0.850394" stroke-linecap="butt" stroke-linejoin="miter" stroke="rgb(50.195312%, 50.195312%, 50.195312%)" stroke-opacity="1" stroke-miterlimit="4" d="M 32.019531 28.207031 L 30.292969 28.207031 "/>
<path fill-rule="nonzero" fill="rgb(0%, 0%, 0%)" fill-opacity="1" d="M 110.308594 145.238281 C 110.90625 144.585938 111.242188 144.304688 111.644531 143.953125 C 111.644531 143.953125 112.332031 143.355469 112.738281 142.949219 C 113.808594 141.910156 114.054688 141.367188 114.054688 141.3125 C 114.054688 141.207031 113.949219 141.207031 113.933594 141.207031 C 113.84375 141.207031 113.828125 141.226562 113.757812 141.332031 C 113.421875 141.875 113.195312 142.050781 112.929688 142.050781 C 112.648438 142.050781 112.527344 141.875 112.347656 141.683594 C 112.136719 141.4375 111.945312 141.207031 111.574219 141.207031 C 110.730469 141.207031 110.21875 142.246094 110.21875 142.492188 C 110.21875 142.542969 110.253906 142.613281 110.34375 142.613281 C 110.449219 142.613281 110.464844 142.5625 110.5 142.492188 C 110.714844 141.964844 111.363281 141.964844 111.453125 141.964844 C 111.679688 141.964844 111.890625 142.035156 112.15625 142.121094 C 112.613281 142.296875 112.738281 142.296875 113.019531 142.296875 C 112.613281 142.773438 111.679688 143.582031 111.46875 143.757812 L 110.449219 144.710938 C 109.691406 145.464844 109.289062 146.097656 109.289062 146.1875 C 109.289062 146.292969 109.410156 146.292969 109.429688 146.292969 C 109.515625 146.292969 109.535156 146.273438 109.605469 146.152344 C 109.867188 145.746094 110.203125 145.449219 110.574219 145.449219 C 110.820312 145.449219 110.941406 145.554688 111.222656 145.871094 C 111.398438 146.117188 111.609375 146.292969 111.925781 146.292969 C 113.054688 146.292969 113.703125 144.867188 113.703125 144.566406 C 113.703125 144.515625 113.652344 144.445312 113.5625 144.445312 C 113.457031 144.445312 113.441406 144.515625 113.40625 144.601562 C 113.140625 145.324219 112.417969 145.535156 112.050781 145.535156 C 111.839844 145.535156 111.628906 145.464844 111.398438 145.394531 C 111.011719 145.253906 110.835938 145.203125 110.609375 145.203125 C 110.589844 145.203125 110.414062 145.203125 110.308594 145.238281 Z M 110.308594 145.238281 "/>
<path fill-rule="nonzero" fill="rgb(50.195312%, 50.195312%, 50.195312%)" fill-opacity="1" d="M 21.824219 129.8125 C 21.8125 128.648438 21.554688 126.964844 20.078125 126.964844 C 18.605469 126.964844 18.355469 128.675781 18.355469 129.8125 C 18.355469 130.964844 18.617188 132.636719 20.078125 132.636719 C 21.539062 132.636719 21.824219 130.964844 21.824219 129.8125 Z M 21.253906 129.8125 C 21.253906 130.570312 21.195312 132.117188 20.078125 132.117188 C 18.964844 132.117188 18.925781 130.542969 18.925781 129.8125 C 18.925781 129.070312 18.953125 127.472656 20.078125 127.472656 C 21.195312 127.472656 21.253906 129.082031 21.253906 129.8125 Z M 21.253906 129.8125 "/>
<path fill-rule="nonzero" fill="rgb(50.195312%, 50.195312%, 50.195312%)" fill-opacity="1" d="M 22.839844 131.722656 L 23.59375 131.722656 L 23.59375 132.527344 L 22.839844 132.527344 Z M 22.839844 131.722656 "/>
<path fill-rule="nonzero" fill="rgb(50.195312%, 50.195312%, 50.195312%)" fill-opacity="1" d="M 28.074219 129.8125 C 28.058594 128.648438 27.800781 126.964844 26.324219 126.964844 C 24.851562 126.964844 24.605469 128.675781 24.605469 129.8125 C 24.605469 130.964844 24.863281 132.636719 26.324219 132.636719 C 27.789062 132.636719 28.074219 130.964844 28.074219 129.8125 Z M 27.503906 129.8125 C 27.503906 130.570312 27.441406 132.117188 26.324219 132.117188 C 25.210938 132.117188 25.175781 130.542969 25.175781 129.8125 C 25.175781 129.070312 25.199219 127.472656 26.324219 127.472656 C 27.441406 127.472656 27.503906 129.082031 27.503906 129.8125 Z M 27.503906 129.8125 "/>
<path fill-rule="nonzero" fill="rgb(50.195312%, 50.195312%, 50.195312%)" fill-opacity="1" d="M 22.023438 2.808594 C 22.011719 1.644531 21.75 -0.0429688 20.277344 -0.0429688 C 18.804688 -0.0429688 18.554688 1.667969 18.554688 2.808594 C 18.554688 3.960938 18.816406 5.632812 20.277344 5.632812 C 21.738281 5.632812 22.023438 3.960938 22.023438 2.808594 Z M 21.453125 2.808594 C 21.453125 3.5625 21.390625 5.109375 20.277344 5.109375 C 19.164062 5.109375 19.125 3.539062 19.125 2.808594 C 19.125 2.0625 19.148438 0.464844 20.277344 0.464844 C 21.390625 0.464844 21.453125 2.078125 21.453125 2.808594 Z M 21.453125 2.808594 "/>
<path fill-rule="nonzero" fill="rgb(50.195312%, 50.195312%, 50.195312%)" fill-opacity="1" d="M 23.035156 4.714844 L 23.792969 4.714844 L 23.792969 5.519531 L 23.035156 5.519531 Z M 23.035156 4.714844 "/>
<path fill-rule="nonzero" fill="rgb(50.195312%, 50.195312%, 50.195312%)" fill-opacity="1" d="M 27.875 3.785156 C 27.863281 2.671875 27.167969 1.941406 26.054688 1.941406 C 25.90625 1.953125 25.570312 1.988281 25.371094 2.0625 L 25.570312 0.628906 L 27.503906 0.628906 L 27.503906 0.0585938 L 25.175781 0.0585938 L 24.839844 2.757812 C 25.273438 2.546875 25.371094 2.496094 25.929688 2.496094 C 26.734375 2.496094 27.304688 2.945312 27.304688 3.785156 C 27.304688 4.652344 26.746094 5.074219 25.929688 5.074219 C 25.382812 5.074219 25.023438 4.960938 24.628906 4.714844 L 24.628906 5.394531 C 24.988281 5.53125 25.519531 5.632812 25.941406 5.632812 C 27.117188 5.632812 27.875 4.988281 27.875 3.785156 Z M 27.875 3.785156 "/>
<path fill-rule="nonzero" fill="rgb(50.195312%, 50.195312%, 50.195312%)" fill-opacity="1" d="M 50.953125 137.601562 L 50.953125 132.140625 L 50.296875 132.140625 L 49.515625 132.773438 L 49.515625 133.390625 L 50.332031 132.722656 L 50.332031 137.601562 Z M 50.953125 137.601562 "/>
<path fill-rule="nonzero" fill="rgb(50.195312%, 50.195312%, 50.195312%)" fill-opacity="1" d="M 82.425781 137.652344 L 82.425781 137.082031 L 79.976562 137.082031 L 81.84375 134.976562 C 82.15625 134.542969 82.390625 134.207031 82.390625 133.640625 C 82.390625 132.625 81.648438 132.089844 80.707031 132.089844 C 80.171875 132.089844 79.726562 132.25 79.28125 132.4375 L 79.28125 133.144531 C 79.726562 132.859375 80.171875 132.648438 80.71875 132.648438 C 81.335938 132.648438 81.820312 133.03125 81.820312 133.675781 C 81.820312 134.109375 81.472656 134.640625 81.1875 134.941406 C 81.101562 135.0625 79.378906 136.945312 79.246094 137.082031 L 79.246094 137.652344 Z M 82.425781 137.652344 "/>
<path fill-rule="nonzero" fill="rgb(50.195312%, 50.195312%, 50.195312%)" fill-opacity="1" d="M 113.042969 136.011719 C 113.042969 135.402344 112.671875 134.847656 111.980469 134.648438 C 112.574219 134.425781 112.917969 133.992188 112.917969 133.421875 C 112.917969 132.46875 112.128906 132.035156 111.261719 132.035156 C 110.828125 132.035156 110.292969 132.132812 109.910156 132.257812 L 109.910156 132.863281 C 110.332031 132.714844 110.691406 132.59375 111.199219 132.59375 C 111.84375 132.59375 112.363281 132.828125 112.363281 133.523438 C 112.351562 134.152344 111.84375 134.414062 111.222656 134.414062 L 110.640625 134.414062 L 110.640625 134.945312 L 111.199219 134.945312 C 111.917969 134.945312 112.488281 135.253906 112.488281 136.011719 C 112.488281 136.902344 111.867188 137.152344 111.0625 137.152344 C 110.492188 137.152344 110.144531 137.050781 109.75 136.777344 L 109.75 137.449219 C 110.144531 137.585938 110.605469 137.707031 111.074219 137.707031 C 112.175781 137.707031 113.042969 137.210938 113.042969 136.011719 Z M 113.042969 136.011719 "/>
<path fill-rule="nonzero" fill="rgb(50.195312%, 50.195312%, 50.195312%)" fill-opacity="1" d="M 143.8125 136.300781 L 143.8125 135.730469 L 143.066406 135.730469 L 143.066406 132.140625 L 142.273438 132.140625 L 140.15625 135.609375 L 140.15625 136.300781 L 142.472656 136.300781 L 142.472656 137.601562 L 143.066406 137.601562 L 143.066406 136.300781 Z M 142.472656 135.730469 L 140.601562 135.730469 L 142.472656 132.722656 Z M 142.472656 135.730469 "/>
<path fill-rule="nonzero" fill="rgb(50.195312%, 50.195312%, 50.195312%)" fill-opacity="1" d="M 174.238281 135.8125 C 174.226562 134.699219 173.53125 133.96875 172.417969 133.96875 C 172.269531 133.980469 171.933594 134.015625 171.734375 134.089844 L 171.933594 132.65625 L 173.867188 132.65625 L 173.867188 132.085938 L 171.539062 132.085938 L 171.203125 134.785156 C 171.636719 134.574219 171.734375 134.523438 172.292969 134.523438 C 173.097656 134.523438 173.667969 134.96875 173.667969 135.8125 C 173.667969 136.679688 173.109375 137.101562 172.292969 137.101562 C 171.75 137.101562 171.390625 136.988281 170.992188 136.742188 L 170.992188 137.421875 C 171.351562 137.558594 171.882812 137.660156 172.304688 137.660156 C 173.480469 137.660156 174.238281 137.015625 174.238281 135.8125 Z M 174.238281 135.8125 "/>
<path fill="none" stroke-width="0.850394" stroke-linecap="butt" stroke-linejoin="round" stroke="rgb(1.176453%, 0%, 0%)" stroke-opacity="1" stroke-miterlimit="4" d="M 32.230469 2.800781 L 191.113281 2.800781 L 191.113281 129.835938 L 32.230469 129.835938 Z M 32.230469 2.800781 "/>
</svg>
