<?xml version="1.0" encoding="UTF-8"?>
<svg xmlns="http://www.w3.org/2000/svg" xmlns:xlink="http://www.w3.org/1999/xlink" width="405.86026pt" height="116.654732pt" viewBox="0 0 405.86026 116.654732">
<defs>
<clipPath id="clip-0">
<path clip-rule="nonzero" d="M 165 69 L 273 69 L 273 116.65625 L 165 116.65625 Z M 165 69 "/>
</clipPath>
<clipPath id="clip-1">
<path clip-rule="nonzero" d="M 161 65 L 277 65 L 277 116.65625 L 161 116.65625 Z M 161 65 "/>
</clipPath>
<clipPath id="clip-2">
<path clip-rule="nonzero" d="M 0 34 L 132 34 L 132 116.65625 L 0 116.65625 Z M 0 34 "/>
</clipPath>
<clipPath id="clip-3">
<path clip-rule="nonzero" d="M 0 29 L 136 29 L 136 116.65625 L 0 116.65625 Z M 0 29 "/>
</clipPath>
<clipPath id="clip-4">
<path clip-rule="nonzero" d="M 397 82 L 405.859375 82 L 405.859375 92 L 397 92 Z M 397 82 "/>
</clipPath>
</defs>
<path fill-rule="nonzero" fill="rgb(0%, 0%, 0%)" fill-opacity="1" d="M 330.117188 0 L 329.226562 0 L 329.226562 3.039062 L 325.824219 3.039062 L 325.824219 0 L 324.929688 0 L 324.929688 6.941406 L 325.824219 6.941406 L 325.824219 3.636719 L 329.226562 3.636719 L 329.226562 6.941406 L 330.117188 6.941406 Z M 330.117188 0 "/>
<path fill-rule="nonzero" fill="rgb(0%, 0%, 0%)" fill-opacity="1" d="M 332.699219 0.140625 L 331.804688 0.140625 L 331.804688 1.035156 L 332.699219 1.035156 Z M 332.636719 2.507812 L 331.882812 2.507812 L 331.882812 6.941406 L 332.636719 6.941406 Z M 332.636719 2.507812 "/>
<path fill-rule="nonzero" fill="rgb(0%, 0%, 0%)" fill-opacity="1" d="M 337.796875 0 L 337.046875 0 L 337.046875 2.945312 C 336.511719 2.507812 335.964844 2.398438 335.589844 2.398438 C 334.601562 2.398438 333.816406 3.429688 333.816406 4.714844 C 333.816406 6.03125 334.585938 7.050781 335.542969 7.050781 C 335.871094 7.050781 336.449219 6.957031 337.015625 6.425781 L 337.015625 6.941406 L 337.796875 6.941406 Z M 337.015625 5.546875 C 337.015625 5.6875 337 5.875 336.683594 6.160156 C 336.449219 6.363281 336.199219 6.441406 335.949219 6.441406 C 335.320312 6.441406 334.601562 5.96875 334.601562 4.730469 C 334.601562 3.414062 335.460938 3.007812 336.042969 3.007812 C 336.496094 3.007812 336.796875 3.226562 337.015625 3.558594 Z M 337.015625 5.546875 "/>
<path fill-rule="nonzero" fill="rgb(0%, 0%, 0%)" fill-opacity="1" d="M 342.960938 0 L 342.207031 0 L 342.207031 2.945312 C 341.675781 2.507812 341.128906 2.398438 340.75 2.398438 C 339.765625 2.398438 338.980469 3.429688 338.980469 4.714844 C 338.980469 6.03125 339.75 7.050781 340.703125 7.050781 C 341.035156 7.050781 341.613281 6.957031 342.175781 6.425781 L 342.175781 6.941406 L 342.960938 6.941406 Z M 342.175781 5.546875 C 342.175781 5.6875 342.160156 5.875 341.847656 6.160156 C 341.613281 6.363281 341.363281 6.441406 341.113281 6.441406 C 340.484375 6.441406 339.765625 5.96875 339.765625 4.730469 C 339.765625 3.414062 340.625 3.007812 341.207031 3.007812 C 341.660156 3.007812 341.957031 3.226562 342.175781 3.558594 Z M 342.175781 5.546875 "/>
<path fill-rule="nonzero" fill="rgb(0%, 0%, 0%)" fill-opacity="1" d="M 347.921875 4.746094 C 347.921875 4.417969 347.90625 3.667969 347.53125 3.054688 C 347.105469 2.445312 346.511719 2.335938 346.152344 2.335938 C 345.039062 2.335938 344.128906 3.398438 344.128906 4.683594 C 344.128906 6 345.101562 7.050781 346.292969 7.050781 C 346.917969 7.050781 347.5 6.816406 347.890625 6.535156 L 347.828125 5.875 C 347.199219 6.410156 346.527344 6.441406 346.308594 6.441406 C 345.507812 6.441406 344.867188 5.734375 344.832031 4.746094 Z M 344.882812 4.199219 C 345.039062 3.445312 345.570312 2.945312 346.152344 2.945312 C 346.667969 2.945312 347.214844 3.273438 347.355469 4.199219 Z M 344.882812 4.199219 "/>
<path fill-rule="nonzero" fill="rgb(0%, 0%, 0%)" fill-opacity="1" d="M 352.582031 3.964844 C 352.582031 3.304688 352.425781 2.398438 351.203125 2.398438 C 350.308594 2.398438 349.808594 3.070312 349.761719 3.148438 L 349.761719 2.445312 L 349.039062 2.445312 L 349.039062 6.941406 L 349.808594 6.941406 L 349.808594 4.496094 C 349.808594 3.839844 350.058594 3.007812 350.828125 3.007812 C 351.78125 3.007812 351.796875 3.714844 351.796875 4.027344 L 351.796875 6.941406 L 352.582031 6.941406 Z M 352.582031 3.964844 "/>
<path fill-rule="nonzero" fill="rgb(0%, 0%, 0%)" fill-opacity="1" d="M 357.53125 0 L 358.285156 0 L 358.285156 6.941406 L 357.53125 6.941406 Z M 357.53125 0 "/>
<path fill-rule="nonzero" fill="rgb(0%, 0%, 0%)" fill-opacity="1" d="M 363.101562 4.058594 C 363.101562 3.039062 362.363281 2.335938 361.441406 2.335938 C 360.796875 2.335938 360.34375 2.492188 359.871094 2.757812 L 359.933594 3.414062 C 360.453125 3.054688 360.953125 2.929688 361.441406 2.929688 C 361.910156 2.929688 362.316406 3.320312 362.316406 4.058594 L 362.316406 4.496094 C 360.8125 4.511719 359.542969 4.9375 359.542969 5.8125 C 359.542969 6.238281 359.808594 7.050781 360.6875 7.050781 C 360.828125 7.050781 361.769531 7.035156 362.347656 6.582031 L 362.347656 6.941406 L 363.101562 6.941406 Z M 362.316406 5.625 C 362.316406 5.8125 362.316406 6.066406 361.972656 6.253906 C 361.691406 6.425781 361.296875 6.441406 361.1875 6.441406 C 360.71875 6.441406 360.265625 6.207031 360.265625 5.796875 C 360.265625 5.09375 361.878906 5.03125 362.316406 5 Z M 362.316406 5.625 "/>
<path fill-rule="nonzero" fill="rgb(0%, 0%, 0%)" fill-opacity="1" d="M 368.105469 2.507812 L 367.351562 2.507812 C 366.050781 5.6875 366.019531 6.144531 366.019531 6.378906 L 366.003906 6.378906 C 365.941406 5.703125 365.140625 3.839844 365.109375 3.746094 L 364.5625 2.507812 L 363.777344 2.507812 L 365.722656 6.941406 C 365.597656 7.253906 365.394531 7.757812 365.363281 7.835938 C 365.09375 8.414062 364.921875 8.414062 364.78125 8.414062 C 364.625 8.414062 364.3125 8.382812 364.015625 8.257812 L 364.0625 8.917969 C 364.28125 8.964844 364.5625 8.996094 364.78125 8.996094 C 365.140625 8.996094 365.503906 8.871094 365.910156 7.851562 Z M 368.105469 2.507812 "/>
<path fill-rule="nonzero" fill="rgb(0%, 0%, 0%)" fill-opacity="1" d="M 372.101562 4.746094 C 372.101562 4.417969 372.085938 3.667969 371.710938 3.054688 C 371.289062 2.445312 370.691406 2.335938 370.332031 2.335938 C 369.21875 2.335938 368.308594 3.398438 368.308594 4.683594 C 368.308594 6 369.28125 7.050781 370.472656 7.050781 C 371.101562 7.050781 371.679688 6.816406 372.070312 6.535156 L 372.007812 5.875 C 371.382812 6.410156 370.707031 6.441406 370.488281 6.441406 C 369.6875 6.441406 369.046875 5.734375 369.015625 4.746094 Z M 369.0625 4.199219 C 369.21875 3.445312 369.75 2.945312 370.332031 2.945312 C 370.847656 2.945312 371.398438 3.273438 371.539062 4.199219 Z M 369.0625 4.199219 "/>
<path fill-rule="nonzero" fill="rgb(0%, 0%, 0%)" fill-opacity="1" d="M 373.972656 4.796875 C 373.972656 3.808594 374.695312 3.085938 375.683594 3.054688 L 375.683594 2.398438 C 374.789062 2.398438 374.242188 2.898438 373.925781 3.351562 L 373.925781 2.445312 L 373.222656 2.445312 L 373.222656 6.941406 L 373.972656 6.941406 Z M 373.972656 4.796875 "/>
<path fill-rule="nonzero" fill="rgb(0%, 0%, 0%)" fill-opacity="1" d="M 380.890625 5.0625 L 379.652344 6.300781 L 379.652344 6.941406 L 383.632812 6.941406 L 383.632812 6.238281 L 381.8125 6.238281 C 381.703125 6.238281 381.578125 6.238281 381.453125 6.238281 L 380.371094 6.238281 C 380.6875 5.953125 381.453125 5.21875 381.765625 4.921875 C 381.957031 4.746094 382.457031 4.324219 382.644531 4.136719 C 383.097656 3.699219 383.632812 3.164062 383.632812 2.320312 C 383.632812 1.160156 382.832031 0.15625 381.515625 0.15625 C 380.371094 0.15625 379.808594 0.9375 379.574219 1.800781 C 379.683594 1.972656 379.746094 2.035156 379.761719 2.066406 C 379.777344 2.082031 379.886719 2.207031 379.980469 2.351562 C 380.183594 1.582031 380.464844 0.796875 381.375 0.796875 C 382.316406 0.796875 382.816406 1.550781 382.816406 2.335938 C 382.816406 3.179688 382.253906 3.746094 381.65625 4.355469 Z M 380.890625 5.0625 "/>
<path fill-rule="nonzero" fill="rgb(0%, 0%, 0%)" fill-opacity="1" d="M 187.890625 0 L 186.996094 0 L 186.996094 3.039062 L 183.59375 3.039062 L 183.59375 0 L 182.699219 0 L 182.699219 6.941406 L 183.59375 6.941406 L 183.59375 3.636719 L 186.996094 3.636719 L 186.996094 6.941406 L 187.890625 6.941406 Z M 187.890625 0 "/>
<path fill-rule="nonzero" fill="rgb(0%, 0%, 0%)" fill-opacity="1" d="M 190.46875 0.140625 L 189.578125 0.140625 L 189.578125 1.035156 L 190.46875 1.035156 Z M 190.40625 2.507812 L 189.65625 2.507812 L 189.65625 6.941406 L 190.40625 6.941406 Z M 190.40625 2.507812 "/>
<path fill-rule="nonzero" fill="rgb(0%, 0%, 0%)" fill-opacity="1" d="M 195.570312 0 L 194.816406 0 L 194.816406 2.945312 C 194.285156 2.507812 193.734375 2.398438 193.359375 2.398438 C 192.371094 2.398438 191.585938 3.429688 191.585938 4.714844 C 191.585938 6.03125 192.355469 7.050781 193.3125 7.050781 C 193.640625 7.050781 194.21875 6.957031 194.785156 6.425781 L 194.785156 6.941406 L 195.570312 6.941406 Z M 194.785156 5.546875 C 194.785156 5.6875 194.769531 5.875 194.457031 6.160156 C 194.21875 6.363281 193.96875 6.441406 193.71875 6.441406 C 193.09375 6.441406 192.371094 5.96875 192.371094 4.730469 C 192.371094 3.414062 193.234375 3.007812 193.8125 3.007812 C 194.269531 3.007812 194.566406 3.226562 194.785156 3.558594 Z M 194.785156 5.546875 "/>
<path fill-rule="nonzero" fill="rgb(0%, 0%, 0%)" fill-opacity="1" d="M 200.730469 0 L 199.980469 0 L 199.980469 2.945312 C 199.445312 2.507812 198.898438 2.398438 198.523438 2.398438 C 197.535156 2.398438 196.75 3.429688 196.75 4.714844 C 196.75 6.03125 197.519531 7.050781 198.476562 7.050781 C 198.804688 7.050781 199.382812 6.957031 199.949219 6.425781 L 199.949219 6.941406 L 200.730469 6.941406 Z M 199.949219 5.546875 C 199.949219 5.6875 199.933594 5.875 199.617188 6.160156 C 199.382812 6.363281 199.132812 6.441406 198.882812 6.441406 C 198.253906 6.441406 197.535156 5.96875 197.535156 4.730469 C 197.535156 3.414062 198.394531 3.007812 198.976562 3.007812 C 199.429688 3.007812 199.730469 3.226562 199.949219 3.558594 Z M 199.949219 5.546875 "/>
<path fill-rule="nonzero" fill="rgb(0%, 0%, 0%)" fill-opacity="1" d="M 205.691406 4.746094 C 205.691406 4.417969 205.675781 3.667969 205.300781 3.054688 C 204.875 2.445312 204.28125 2.335938 203.921875 2.335938 C 202.808594 2.335938 201.898438 3.398438 201.898438 4.683594 C 201.898438 6 202.871094 7.050781 204.0625 7.050781 C 204.6875 7.050781 205.269531 6.816406 205.660156 6.535156 L 205.597656 5.875 C 204.972656 6.410156 204.296875 6.441406 204.078125 6.441406 C 203.277344 6.441406 202.636719 5.734375 202.605469 4.746094 Z M 202.652344 4.199219 C 202.808594 3.445312 203.339844 2.945312 203.921875 2.945312 C 204.4375 2.945312 204.988281 3.273438 205.128906 4.199219 Z M 202.652344 4.199219 "/>
<path fill-rule="nonzero" fill="rgb(0%, 0%, 0%)" fill-opacity="1" d="M 210.351562 3.964844 C 210.351562 3.304688 210.195312 2.398438 208.972656 2.398438 C 208.078125 2.398438 207.578125 3.070312 207.53125 3.148438 L 207.53125 2.445312 L 206.808594 2.445312 L 206.808594 6.941406 L 207.578125 6.941406 L 207.578125 4.496094 C 207.578125 3.839844 207.828125 3.007812 208.597656 3.007812 C 209.554688 3.007812 209.570312 3.714844 209.570312 4.027344 L 209.570312 6.941406 L 210.351562 6.941406 Z M 210.351562 3.964844 "/>
<path fill-rule="nonzero" fill="rgb(0%, 0%, 0%)" fill-opacity="1" d="M 215.300781 0 L 216.054688 0 L 216.054688 6.941406 L 215.300781 6.941406 Z M 215.300781 0 "/>
<path fill-rule="nonzero" fill="rgb(0%, 0%, 0%)" fill-opacity="1" d="M 220.871094 4.058594 C 220.871094 3.039062 220.136719 2.335938 219.210938 2.335938 C 218.566406 2.335938 218.113281 2.492188 217.644531 2.757812 L 217.707031 3.414062 C 218.222656 3.054688 218.722656 2.929688 219.210938 2.929688 C 219.679688 2.929688 220.089844 3.320312 220.089844 4.058594 L 220.089844 4.496094 C 218.582031 4.511719 217.3125 4.9375 217.3125 5.8125 C 217.3125 6.238281 217.582031 7.050781 218.457031 7.050781 C 218.597656 7.050781 219.539062 7.035156 220.121094 6.582031 L 220.121094 6.941406 L 220.871094 6.941406 Z M 220.089844 5.625 C 220.089844 5.8125 220.089844 6.066406 219.742188 6.253906 C 219.460938 6.425781 219.070312 6.441406 218.960938 6.441406 C 218.488281 6.441406 218.035156 6.207031 218.035156 5.796875 C 218.035156 5.09375 219.648438 5.03125 220.089844 5 Z M 220.089844 5.625 "/>
<path fill-rule="nonzero" fill="rgb(0%, 0%, 0%)" fill-opacity="1" d="M 225.875 2.507812 L 225.121094 2.507812 C 223.820312 5.6875 223.789062 6.144531 223.789062 6.378906 L 223.773438 6.378906 C 223.710938 5.703125 222.914062 3.839844 222.882812 3.746094 L 222.332031 2.507812 L 221.550781 2.507812 L 223.492188 6.941406 C 223.367188 7.253906 223.164062 7.757812 223.132812 7.835938 C 222.867188 8.414062 222.691406 8.414062 222.550781 8.414062 C 222.394531 8.414062 222.082031 8.382812 221.785156 8.257812 L 221.832031 8.917969 C 222.050781 8.964844 222.332031 8.996094 222.550781 8.996094 C 222.914062 8.996094 223.273438 8.871094 223.679688 7.851562 Z M 225.875 2.507812 "/>
<path fill-rule="nonzero" fill="rgb(0%, 0%, 0%)" fill-opacity="1" d="M 229.875 4.746094 C 229.875 4.417969 229.859375 3.667969 229.480469 3.054688 C 229.058594 2.445312 228.460938 2.335938 228.101562 2.335938 C 226.988281 2.335938 226.082031 3.398438 226.082031 4.683594 C 226.082031 6 227.050781 7.050781 228.242188 7.050781 C 228.871094 7.050781 229.449219 6.816406 229.84375 6.535156 L 229.777344 5.875 C 229.152344 6.410156 228.476562 6.441406 228.257812 6.441406 C 227.460938 6.441406 226.816406 5.734375 226.785156 4.746094 Z M 226.832031 4.199219 C 226.988281 3.445312 227.523438 2.945312 228.101562 2.945312 C 228.621094 2.945312 229.167969 3.273438 229.308594 4.199219 Z M 226.832031 4.199219 "/>
<path fill-rule="nonzero" fill="rgb(0%, 0%, 0%)" fill-opacity="1" d="M 231.746094 4.796875 C 231.746094 3.808594 232.464844 3.085938 233.453125 3.054688 L 233.453125 2.398438 C 232.558594 2.398438 232.011719 2.898438 231.699219 3.351562 L 231.699219 2.445312 L 230.992188 2.445312 L 230.992188 6.941406 L 231.746094 6.941406 Z M 231.746094 4.796875 "/>
<path fill-rule="nonzero" fill="rgb(0%, 0%, 0%)" fill-opacity="1" d="M 239.914062 0.15625 L 239.710938 0.15625 C 239.113281 0.765625 238.285156 0.796875 237.8125 0.828125 L 237.8125 1.410156 C 238.144531 1.394531 238.613281 1.378906 239.113281 1.160156 L 239.113281 6.363281 L 237.875 6.363281 L 237.875 6.941406 L 241.167969 6.941406 L 241.167969 6.363281 L 239.914062 6.363281 Z M 239.914062 0.15625 "/>
<path fill-rule="nonzero" fill="rgb(0%, 0%, 0%)" fill-opacity="1" d="M 59.261719 0.0507812 L 60.15625 0.0507812 L 60.15625 6.996094 L 59.261719 6.996094 Z M 59.261719 0.0507812 "/>
<path fill-rule="nonzero" fill="rgb(0%, 0%, 0%)" fill-opacity="1" d="M 65.457031 4.015625 C 65.457031 3.359375 65.296875 2.449219 64.078125 2.449219 C 63.183594 2.449219 62.679688 3.125 62.632812 3.203125 L 62.632812 2.496094 L 61.914062 2.496094 L 61.914062 6.996094 L 62.679688 6.996094 L 62.679688 4.550781 C 62.679688 3.890625 62.933594 3.0625 63.699219 3.0625 C 64.65625 3.0625 64.671875 3.765625 64.671875 4.078125 L 64.671875 6.996094 L 65.457031 6.996094 Z M 65.457031 4.015625 "/>
<path fill-rule="nonzero" fill="rgb(0%, 0%, 0%)" fill-opacity="1" d="M 67.859375 6.539062 C 68.171875 6.824219 68.613281 7.105469 69.207031 7.105469 C 70.179688 7.105469 71.058594 6.117188 71.058594 4.769531 C 71.058594 3.5625 70.429688 2.449219 69.472656 2.449219 C 68.878906 2.449219 68.300781 2.652344 67.828125 3.046875 L 67.828125 2.558594 L 67.078125 2.558594 L 67.078125 8.9375 L 67.859375 8.9375 Z M 67.859375 3.671875 C 68.09375 3.3125 68.488281 3.09375 68.925781 3.09375 C 69.679688 3.09375 70.273438 3.84375 70.273438 4.769531 C 70.273438 5.789062 69.570312 6.492188 68.816406 6.492188 C 68.425781 6.492188 68.15625 6.289062 67.953125 6.023438 C 67.859375 5.882812 67.859375 5.851562 67.859375 5.679688 Z M 67.859375 3.671875 "/>
<path fill-rule="nonzero" fill="rgb(0%, 0%, 0%)" fill-opacity="1" d="M 75.78125 2.558594 L 75 2.558594 L 75 5.457031 C 75 6.210938 74.433594 6.554688 73.792969 6.554688 C 73.085938 6.554688 73.007812 6.289062 73.007812 5.867188 L 73.007812 2.558594 L 72.242188 2.558594 L 72.242188 5.898438 C 72.242188 6.617188 72.460938 7.105469 73.289062 7.105469 C 73.824219 7.105469 74.527344 6.949219 75.03125 6.507812 L 75.03125 6.996094 L 75.78125 6.996094 Z M 75.78125 2.558594 "/>
<path fill-rule="nonzero" fill="rgb(0%, 0%, 0%)" fill-opacity="1" d="M 78.34375 3.140625 L 79.753906 3.140625 L 79.753906 2.558594 L 78.34375 2.558594 L 78.34375 1.289062 L 77.65625 1.289062 L 77.65625 2.558594 L 76.777344 2.558594 L 76.777344 3.140625 L 77.625 3.140625 L 77.625 5.804688 C 77.625 6.398438 77.765625 7.105469 78.453125 7.105469 C 79.144531 7.105469 79.660156 6.855469 79.914062 6.726562 L 79.753906 6.132812 C 79.488281 6.351562 79.175781 6.460938 78.847656 6.460938 C 78.484375 6.460938 78.34375 6.164062 78.34375 5.632812 Z M 78.34375 3.140625 "/>
<g clip-path="url(#clip-0)">
<path fill-rule="nonzero" fill="rgb(92.155457%, 96.861267%, 96.076965%)" fill-opacity="1" d="M 179.339844 107.933594 C 190.398438 114.878906 204.566406 115.84375 217.617188 116.257812 C 229.539062 116.632812 241.140625 112.261719 252.898438 110.265625 C 264.660156 108.269531 274.363281 96.15625 272.164062 86.300781 C 269.457031 74.160156 267.992188 70.292969 258.226562 69.65625 C 248.792969 69.042969 239.707031 77.222656 229.933594 78.976562 C 221.082031 80.566406 211.292969 81.640625 202.972656 79.976562 C 194.652344 78.3125 183.425781 76.878906 176.34375 76.980469 C 155.441406 78.757812 171.070312 102.734375 179.339844 107.933594 Z M 179.339844 107.933594 "/>
</g>
<g clip-path="url(#clip-1)">
<path fill="none" stroke-width="0.751181" stroke-linecap="butt" stroke-linejoin="miter" stroke="rgb(0%, 0%, 0%)" stroke-opacity="1" stroke-dasharray="0.751181 1.502362" stroke-miterlimit="4" d="M 179.339844 107.933594 C 190.398438 114.878906 204.566406 115.84375 217.617188 116.257812 C 229.539062 116.632812 241.140625 112.261719 252.898438 110.265625 C 264.660156 108.269531 274.363281 96.15625 272.164062 86.300781 C 269.457031 74.160156 267.992188 70.292969 258.226562 69.65625 C 248.792969 69.042969 239.707031 77.222656 229.933594 78.976562 C 221.082031 80.566406 211.292969 81.640625 202.972656 79.976562 C 194.652344 78.3125 183.425781 76.878906 176.34375 76.980469 C 155.441406 78.757812 171.070312 102.734375 179.339844 107.933594 Z M 179.339844 107.933594 "/>
</g>
<g clip-path="url(#clip-2)">
<path fill-rule="nonzero" fill="rgb(92.155457%, 96.861267%, 96.076965%)" fill-opacity="1" d="M 12.398438 47.355469 C 24.601562 47.910156 38.671875 49.074219 49.011719 49.019531 C 59.347656 48.964844 62.363281 49.8125 74.308594 47.023438 C 116.835938 4.554688 139.570312 78.492188 129.226562 98.28125 C 120.242188 111.261719 108.257812 115.589844 98.9375 115.921875 C 33.769531 119.941406 -25.863281 55.300781 12.398438 47.355469 Z M 12.398438 47.355469 "/>
</g>
<g clip-path="url(#clip-3)">
<path fill="none" stroke-width="0.751181" stroke-linecap="butt" stroke-linejoin="miter" stroke="rgb(0%, 0%, 0%)" stroke-opacity="1" stroke-dasharray="0.751181 1.502362" stroke-miterlimit="4" d="M 12.398438 47.355469 C 24.601562 47.910156 38.671875 49.074219 49.011719 49.019531 C 59.347656 48.964844 62.363281 49.8125 74.308594 47.023438 C 116.835938 4.554688 139.570312 78.492188 129.226562 98.28125 C 120.242188 111.261719 108.257812 115.589844 98.9375 115.921875 C 33.769531 119.941406 -25.863281 55.300781 12.398438 47.355469 Z M 12.398438 47.355469 "/>
</g>
<path fill="none" stroke-width="1.984252" stroke-linecap="butt" stroke-linejoin="miter" stroke="rgb(77.645874%, 80.39093%, 81.175232%)" stroke-opacity="1" stroke-miterlimit="4" d="M 137.1875 59.867188 L 151.308594 59.867188 "/>
<path fill-rule="evenodd" fill="rgb(77.645874%, 80.39093%, 81.175232%)" fill-opacity="1" stroke-width="0.529134" stroke-linecap="butt" stroke-linejoin="miter" stroke="rgb(77.645874%, 80.39093%, 81.175232%)" stroke-opacity="1" stroke-miterlimit="4" d="M 153.597656 59.867188 L 150.164062 61.851562 L 150.164062 57.882812 Z M 153.597656 59.867188 "/>
<path fill="none" stroke-width="1.984252" stroke-linecap="butt" stroke-linejoin="miter" stroke="rgb(77.645874%, 80.39093%, 81.175232%)" stroke-opacity="1" stroke-miterlimit="4" d="M 272.5625 60.578125 L 286.6875 60.578125 "/>
<path fill-rule="evenodd" fill="rgb(77.645874%, 80.39093%, 81.175232%)" fill-opacity="1" stroke-width="0.529134" stroke-linecap="butt" stroke-linejoin="miter" stroke="rgb(77.645874%, 80.39093%, 81.175232%)" stroke-opacity="1" stroke-miterlimit="4" d="M 288.976562 60.578125 L 285.542969 62.5625 L 285.542969 58.59375 Z M 288.976562 60.578125 "/>
<path fill-rule="nonzero" fill="rgb(62.744141%, 85.096741%, 82.743835%)" fill-opacity="1" stroke-width="0.482671" stroke-linecap="butt" stroke-linejoin="round" stroke="rgb(0%, 0%, 0%)" stroke-opacity="0.984314" stroke-miterlimit="4" d="M -5.566629 50.796834 C -5.567205 52.687104 -7.099021 54.215974 -8.986459 54.217142 C -10.876729 54.216566 -12.410175 52.685837 -12.409598 50.795567 C -12.409022 48.905297 -10.877207 47.376428 -8.986937 47.377004 C -7.099498 47.375836 -5.566053 48.906564 -5.566629 50.796834 Z M -5.566629 50.796834 " transform="matrix(1, -0.616123, 0.616123, 1, 0, 0)"/>
<path fill-rule="nonzero" fill="rgb(62.744141%, 85.096741%, 82.743835%)" fill-opacity="1" stroke-width="0.482671" stroke-linecap="butt" stroke-linejoin="round" stroke="rgb(0%, 0%, 0%)" stroke-opacity="0.984314" stroke-miterlimit="4" d="M 14.784457 69.589513 C 14.783881 71.479783 13.250321 73.011484 11.362882 73.012652 C 9.472612 73.012076 7.940911 71.478516 7.939743 69.591077 C 7.940319 67.700807 9.473879 66.169106 11.364149 66.169682 C 13.251588 66.168514 14.783289 67.702074 14.784457 69.589513 Z M 14.784457 69.589513 " transform="matrix(1, -0.616123, 0.616123, 1, 0, 0)"/>
<path fill-rule="nonzero" fill="rgb(62.744141%, 85.096741%, 82.743835%)" fill-opacity="1" stroke-width="0.482671" stroke-linecap="butt" stroke-linejoin="round" stroke="rgb(0%, 0%, 0%)" stroke-opacity="0.984314" stroke-miterlimit="4" d="M 36.385129 88.636465 C 36.384553 90.526735 34.852737 92.055604 32.965299 92.056773 C 31.075029 92.056196 29.544415 90.527212 29.544991 88.636942 C 29.543823 86.749504 31.074551 85.216058 32.964821 85.216635 C 34.85226 85.215466 36.383961 86.749026 36.385129 88.636465 Z M 36.385129 88.636465 " transform="matrix(1, -0.616123, 0.616123, 1, 0, 0)"/>
<path fill-rule="nonzero" fill="rgb(62.744141%, 85.096741%, 82.743835%)" fill-opacity="1" stroke-width="0.482671" stroke-linecap="butt" stroke-linejoin="round" stroke="rgb(0%, 0%, 0%)" stroke-opacity="0.984314" stroke-miterlimit="4" d="M 49.220573 115.341552 C 49.219997 117.231822 47.691013 118.762436 45.800743 118.76186 C 43.910473 118.761284 42.379859 117.2323 42.380435 115.34203 C 42.379267 113.454591 43.909995 111.921146 45.800265 111.921722 C 47.690535 111.922298 49.219405 113.454114 49.220573 115.341552 Z M 49.220573 115.341552 " transform="matrix(1, -0.616123, 0.616123, 1, 0, 0)"/>
<path fill-rule="nonzero" fill="rgb(62.744141%, 85.096741%, 82.743835%)" fill-opacity="1" stroke-width="0.482671" stroke-linecap="butt" stroke-linejoin="round" stroke="rgb(0%, 0%, 0%)" stroke-opacity="0.984314" stroke-miterlimit="4" d="M 60.824264 79.998665 C 60.823687 81.888935 59.291872 83.417805 57.404433 83.418973 C 55.514163 83.418397 53.980718 81.887668 53.981294 79.997398 C 53.981871 78.107128 55.513686 76.578259 57.401125 76.577091 C 59.291394 76.577667 60.82484 78.108395 60.824264 79.998665 Z M 60.824264 79.998665 " transform="matrix(1, -0.616123, 0.616123, 1, 0, 0)"/>
<path fill="none" stroke-width="0.751181" stroke-linecap="butt" stroke-linejoin="miter" stroke="rgb(0%, 0%, 0%)" stroke-opacity="0.984314" stroke-miterlimit="4" d="M 23.207031 60.402344 L 33.800781 88.667969 "/>
<path fill="none" stroke-width="0.751181" stroke-linecap="butt" stroke-linejoin="miter" stroke="rgb(0%, 0%, 0%)" stroke-opacity="0.984314" stroke-miterlimit="4" d="M 37.457031 88.9375 L 51.796875 65.8125 "/>
<path fill="none" stroke-width="0.751181" stroke-linecap="butt" stroke-linejoin="miter" stroke="rgb(0%, 0%, 0%)" stroke-opacity="0.984314" stroke-miterlimit="4" d="M 90.210938 65.316406 L 104.871094 48.328125 "/>
<path fill="none" stroke-width="0.751181" stroke-linecap="butt" stroke-linejoin="miter" stroke="rgb(0%, 0%, 0%)" stroke-opacity="0.984314" stroke-miterlimit="4" d="M 115.5 83.398438 L 107.222656 48.320312 "/>
<path fill="none" stroke-width="0.751181" stroke-linecap="butt" stroke-linejoin="miter" stroke="rgb(0%, 0%, 0%)" stroke-opacity="0.984314" stroke-miterlimit="4" d="M 86.695312 100.140625 L 39.925781 92.546875 "/>
<path fill="none" stroke-width="0.751181" stroke-linecap="butt" stroke-linejoin="miter" stroke="rgb(0%, 0%, 0%)" stroke-opacity="0.984314" stroke-miterlimit="4" d="M 26.433594 56.570312 L 50.511719 61.230469 "/>
<path fill="none" stroke-width="0.751181" stroke-linecap="butt" stroke-linejoin="miter" stroke="rgb(0%, 0%, 0%)" stroke-opacity="0.984314" stroke-miterlimit="4" d="M 102.78125 46.28125 L 58.015625 60.40625 "/>
<path fill="none" stroke-width="0.751181" stroke-linecap="butt" stroke-linejoin="miter" stroke="rgb(0%, 0%, 0%)" stroke-opacity="0.984314" stroke-miterlimit="4" d="M 83.695312 67.566406 L 58.367188 63.695312 "/>
<path fill-rule="nonzero" fill="rgb(81.959534%, 51.371765%, 38.430786%)" fill-opacity="1" stroke-width="0.482671" stroke-linecap="butt" stroke-linejoin="round" stroke="rgb(0%, 0%, 0%)" stroke-opacity="0.984314" stroke-miterlimit="4" d="M 24.583648 112.919988 C 24.584816 114.807427 23.054088 116.340872 21.163818 116.340296 C 19.276379 116.341464 17.744678 114.807904 17.74351 112.920466 C 17.744086 111.030196 19.275902 109.501326 21.16334 109.500158 C 23.05361 109.500734 24.584224 111.029718 24.583648 112.919988 Z M 24.583648 112.919988 " transform="matrix(1, -0.616123, 0.616123, 1, 0, 0)"/>
<path fill-rule="nonzero" fill="rgb(62.744141%, 85.096741%, 82.743835%)" fill-opacity="1" stroke-width="0.482671" stroke-linecap="butt" stroke-linejoin="round" stroke="rgb(0%, 0%, 0%)" stroke-opacity="0.984314" stroke-miterlimit="4" d="M -11.889675 82.799498 C -11.890251 84.689768 -13.42098 86.223213 -15.31125 86.222637 C -17.198688 86.223805 -18.730389 84.690245 -18.729813 82.799975 C -18.730981 80.912537 -17.197421 79.380836 -15.309983 79.379668 C -13.419713 79.380244 -11.890843 80.912059 -11.889675 82.799498 Z M -11.889675 82.799498 " transform="matrix(1, -0.616123, 0.616123, 1, 0, 0)"/>
<path fill="none" stroke-width="0.751181" stroke-linecap="butt" stroke-linejoin="miter" stroke="rgb(0%, 0%, 0%)" stroke-opacity="0.984314" stroke-miterlimit="4" d="M 94.597656 99.523438 L 113.984375 89.847656 "/>
<path fill="none" stroke-width="0.751181" stroke-linecap="butt" stroke-linejoin="miter" stroke="rgb(0%, 0%, 0%)" stroke-opacity="0.984314" stroke-miterlimit="4" d="M 90.890625 70.589844 L 113.210938 85.542969 "/>
<path fill="none" stroke-width="0.482671" stroke-linecap="butt" stroke-linejoin="round" stroke="rgb(0%, 0%, 0%)" stroke-opacity="0.984314" stroke-miterlimit="4" d="M 40.702633 42.827829 C 40.702057 44.718099 39.173073 46.248713 37.282803 46.248136 C 35.395365 46.249305 33.861919 44.718576 33.862496 42.828306 C 33.863072 40.938036 35.394887 39.409167 37.282326 39.407998 C 39.172596 39.408575 40.70321 40.937559 40.702633 42.827829 Z M 40.702633 42.827829 " transform="matrix(1, -0.616123, 0.616123, 1, 0, 0)"/>
<path fill="none" stroke-width="0.751181" stroke-linecap="butt" stroke-linejoin="miter" stroke="rgb(0%, 0%, 0%)" stroke-opacity="0.984314" stroke-miterlimit="4" d="M 103.484375 42.75 L 67.546875 21.574219 "/>
<path fill="none" stroke-width="0.751181" stroke-linecap="butt" stroke-linejoin="miter" stroke="rgb(0%, 0%, 0%)" stroke-opacity="0.984314" stroke-miterlimit="4" d="M 54.648438 58.871094 L 62.605469 23.925781 "/>
<path fill="none" stroke-width="0.751181" stroke-linecap="butt" stroke-linejoin="miter" stroke="rgb(0%, 0%, 0%)" stroke-opacity="0.984314" stroke-miterlimit="4" d="M 25.226562 53.691406 L 60.605469 22.164062 "/>
<path fill="none" stroke-width="0.482671" stroke-linecap="butt" stroke-linejoin="round" stroke="rgb(0%, 0%, 0%)" stroke-opacity="0.984314" stroke-miterlimit="4" d="M 12.96633 31.285729 C 12.967498 33.173168 11.433938 34.704869 9.543668 34.704292 C 7.65623 34.705461 6.124529 33.171901 6.123361 31.284462 C 6.123937 29.394192 7.657497 27.862491 9.544936 27.861323 C 11.435205 27.861899 12.966906 29.395459 12.96633 31.285729 Z M 12.96633 31.285729 " transform="matrix(1, -0.616123, 0.616123, 1, 0, 0)"/>
<path fill="none" stroke-width="0.751181" stroke-linecap="butt" stroke-linejoin="miter" stroke="rgb(0%, 0%, 0%)" stroke-opacity="0.984314" stroke-miterlimit="4" d="M 22.875 52.046875 L 27.417969 29.457031 "/>
<path fill="none" stroke-width="0.751181" stroke-linecap="butt" stroke-linejoin="miter" stroke="rgb(0%, 0%, 0%)" stroke-opacity="0.984314" stroke-miterlimit="4" d="M 59.589844 20.035156 L 32.832031 24.28125 "/>
<path fill="none" stroke-width="0.482671" stroke-linecap="butt" stroke-linejoin="round" stroke="rgb(0%, 0%, 0%)" stroke-opacity="0.984314" stroke-miterlimit="4" d="M 97.613189 114.368293 C 97.612613 116.258563 96.080797 117.787433 94.193359 117.788601 C 92.303089 117.788025 90.769643 116.257296 90.77022 114.367026 C 90.770796 112.476756 92.302611 110.947887 94.19005 110.946719 C 96.08032 110.947295 97.613765 112.478023 97.613189 114.368293 Z M 97.613189 114.368293 " transform="matrix(1, -0.616123, 0.616123, 1, 0, 0)"/>
<path fill="none" stroke-width="0.482671" stroke-linecap="butt" stroke-linejoin="round" stroke="rgb(0%, 0%, 0%)" stroke-opacity="0.984314" stroke-miterlimit="4" d="M 117.964275 133.160972 C 117.963699 135.051242 116.430139 136.582943 114.5427 136.584111 C 112.65243 136.583535 111.120729 135.049975 111.119561 133.162536 C 111.120138 131.272266 112.653697 129.740565 114.541136 129.739397 C 116.431406 129.739973 117.963107 131.273533 117.964275 133.160972 Z M 117.964275 133.160972 " transform="matrix(1, -0.616123, 0.616123, 1, 0, 0)"/>
<path fill="none" stroke-width="0.482671" stroke-linecap="butt" stroke-linejoin="round" stroke="rgb(0%, 0%, 0%)" stroke-opacity="0.984314" stroke-miterlimit="4" d="M 139.564947 152.207924 C 139.564371 154.098194 138.032556 155.627063 136.145117 155.628232 C 134.254847 155.627655 132.721402 154.096927 132.721978 152.206657 C 132.72081 150.319218 134.25437 148.787517 136.14464 148.788094 C 138.032078 148.786926 139.563779 150.320485 139.564947 152.207924 Z M 139.564947 152.207924 " transform="matrix(1, -0.616123, 0.616123, 1, 0, 0)"/>
<path fill-rule="nonzero" fill="rgb(62.744141%, 85.096741%, 82.743835%)" fill-opacity="1" stroke-width="0.482671" stroke-linecap="butt" stroke-linejoin="round" stroke="rgb(0%, 0%, 0%)" stroke-opacity="0.984314" stroke-miterlimit="4" d="M 152.400391 178.913011 C 152.399815 180.803281 150.870831 182.333895 148.980561 182.333319 C 147.090291 182.332743 145.559677 180.803759 145.560253 178.913489 C 145.559085 177.02605 147.089814 175.492605 148.980084 175.493181 C 150.870354 175.493757 152.399223 177.025573 152.400391 178.913011 Z M 152.400391 178.913011 " transform="matrix(1, -0.616123, 0.616123, 1, 0, 0)"/>
<path fill="none" stroke-width="0.482671" stroke-linecap="butt" stroke-linejoin="round" stroke="rgb(0%, 0%, 0%)" stroke-opacity="0.984314" stroke-miterlimit="4" d="M 164.004082 143.570124 C 164.003505 145.460394 162.47169 146.989264 160.58142 146.988688 C 158.693982 146.989856 157.160536 145.459127 157.161112 143.568857 C 157.161689 141.678587 158.693504 140.149718 160.580943 140.14855 C 162.471213 140.149126 164.004658 141.679854 164.004082 143.570124 Z M 164.004082 143.570124 " transform="matrix(1, -0.616123, 0.616123, 1, 0, 0)"/>
<path fill="none" stroke-width="0.751181" stroke-linecap="butt" stroke-linejoin="miter" stroke="rgb(0%, 0%, 0%)" stroke-opacity="0.984314" stroke-miterlimit="4" d="M 165.554688 60.402344 L 176.148438 88.667969 "/>
<path fill="none" stroke-width="0.751181" stroke-linecap="butt" stroke-linejoin="miter" stroke="rgb(0%, 0%, 0%)" stroke-opacity="0.984314" stroke-miterlimit="4" d="M 179.804688 88.9375 L 194.144531 65.8125 "/>
<path fill="none" stroke-width="0.751181" stroke-linecap="butt" stroke-linejoin="miter" stroke="rgb(0%, 0%, 0%)" stroke-opacity="0.984314" stroke-miterlimit="4" d="M 232.558594 65.316406 L 247.21875 48.328125 "/>
<path fill="none" stroke-width="0.751181" stroke-linecap="butt" stroke-linejoin="miter" stroke="rgb(0%, 0%, 0%)" stroke-opacity="0.984314" stroke-miterlimit="4" d="M 257.847656 83.398438 L 249.570312 48.320312 "/>
<path fill="none" stroke-width="0.751181" stroke-linecap="butt" stroke-linejoin="miter" stroke="rgb(0%, 0%, 0%)" stroke-opacity="0.984314" stroke-miterlimit="4" d="M 229.042969 100.140625 L 182.273438 92.546875 "/>
<path fill="none" stroke-width="0.751181" stroke-linecap="butt" stroke-linejoin="miter" stroke="rgb(0%, 0%, 0%)" stroke-opacity="0.984314" stroke-miterlimit="4" d="M 168.777344 56.570312 L 192.859375 61.230469 "/>
<path fill="none" stroke-width="0.751181" stroke-linecap="butt" stroke-linejoin="miter" stroke="rgb(0%, 0%, 0%)" stroke-opacity="0.984314" stroke-miterlimit="4" d="M 245.125 46.28125 L 200.363281 60.40625 "/>
<path fill="none" stroke-width="0.751181" stroke-linecap="butt" stroke-linejoin="miter" stroke="rgb(0%, 0%, 0%)" stroke-opacity="0.984314" stroke-miterlimit="4" d="M 226.039062 67.566406 L 200.714844 63.695312 "/>
<path fill-rule="nonzero" fill="rgb(81.959534%, 51.371765%, 38.430786%)" fill-opacity="1" stroke-width="0.482671" stroke-linecap="butt" stroke-linejoin="round" stroke="rgb(0%, 0%, 0%)" stroke-opacity="0.984314" stroke-miterlimit="4" d="M 127.763466 176.491448 C 127.764634 178.378886 126.233906 179.912332 124.343636 179.911755 C 122.453366 179.911179 120.924496 178.379364 120.923328 176.491925 C 120.923904 174.601655 122.452888 173.071041 124.343158 173.071617 C 126.233428 173.072194 127.764042 174.601178 127.763466 176.491448 Z M 127.763466 176.491448 " transform="matrix(1, -0.616123, 0.616123, 1, 0, 0)"/>
<path fill-rule="nonzero" fill="rgb(62.744141%, 85.096741%, 82.743835%)" fill-opacity="1" stroke-width="0.482671" stroke-linecap="butt" stroke-linejoin="round" stroke="rgb(0%, 0%, 0%)" stroke-opacity="0.984314" stroke-miterlimit="4" d="M 91.290143 146.370957 C 91.289567 148.261227 89.758838 149.794672 87.868568 149.794096 C 85.978299 149.79352 84.449429 148.261704 84.450005 146.371434 C 84.448837 144.483996 85.979566 142.95055 87.869835 142.951127 C 89.760105 142.951703 91.288975 144.483518 91.290143 146.370957 Z M 91.290143 146.370957 " transform="matrix(1, -0.616123, 0.616123, 1, 0, 0)"/>
<path fill="none" stroke-width="0.751181" stroke-linecap="butt" stroke-linejoin="miter" stroke="rgb(0%, 0%, 0%)" stroke-opacity="0.984314" stroke-miterlimit="4" d="M 236.945312 99.523438 L 256.332031 89.847656 "/>
<path fill="none" stroke-width="0.751181" stroke-linecap="butt" stroke-linejoin="miter" stroke="rgb(0%, 0%, 0%)" stroke-opacity="0.984314" stroke-miterlimit="4" d="M 233.238281 70.589844 L 255.558594 85.542969 "/>
<path fill="none" stroke-width="0.482671" stroke-linecap="butt" stroke-linejoin="round" stroke="rgb(0%, 0%, 0%)" stroke-opacity="0.984314" stroke-miterlimit="4" d="M 143.882452 106.399288 C 143.881875 108.289558 142.352891 109.820172 140.462621 109.819595 C 138.572351 109.819019 137.041737 108.290035 137.042314 106.399765 C 137.04289 104.509495 138.571874 102.978881 140.462144 102.979458 C 142.352414 102.980034 143.883028 104.509018 143.882452 106.399288 Z M 143.882452 106.399288 " transform="matrix(1, -0.616123, 0.616123, 1, 0, 0)"/>
<path fill="none" stroke-width="0.751181" stroke-linecap="butt" stroke-linejoin="miter" stroke="rgb(0%, 0%, 0%)" stroke-opacity="0.984314" stroke-miterlimit="4" d="M 245.832031 42.75 L 209.894531 21.574219 "/>
<path fill="none" stroke-width="0.751181" stroke-linecap="butt" stroke-linejoin="miter" stroke="rgb(0%, 0%, 0%)" stroke-opacity="0.984314" stroke-miterlimit="4" d="M 196.996094 58.871094 L 204.953125 23.925781 "/>
<path fill="none" stroke-width="0.751181" stroke-linecap="butt" stroke-linejoin="miter" stroke="rgb(0%, 0%, 0%)" stroke-opacity="0.984314" stroke-miterlimit="4" d="M 167.574219 53.691406 L 202.953125 22.164062 "/>
<path fill="none" stroke-width="0.482671" stroke-linecap="butt" stroke-linejoin="round" stroke="rgb(0%, 0%, 0%)" stroke-opacity="0.984314" stroke-miterlimit="4" d="M 116.143317 94.855444 C 116.144485 96.742882 114.613757 98.276328 112.723487 98.275752 C 110.836048 98.27692 109.304347 96.74336 109.303179 94.855921 C 109.303755 92.965651 110.837315 91.43395 112.724754 91.432782 C 114.615024 91.433358 116.143893 92.965174 116.143317 94.855444 Z M 116.143317 94.855444 " transform="matrix(1, -0.616123, 0.616123, 1, 0, 0)"/>
<path fill="none" stroke-width="0.751181" stroke-linecap="butt" stroke-linejoin="miter" stroke="rgb(0%, 0%, 0%)" stroke-opacity="0.984314" stroke-miterlimit="4" d="M 165.222656 52.046875 L 169.765625 29.457031 "/>
<path fill="none" stroke-width="0.751181" stroke-linecap="butt" stroke-linejoin="miter" stroke="rgb(0%, 0%, 0%)" stroke-opacity="0.984314" stroke-miterlimit="4" d="M 201.9375 20.035156 L 175.179688 24.28125 "/>
<path fill="none" stroke-width="0.482671" stroke-linecap="butt" stroke-linejoin="round" stroke="rgb(0%, 0%, 0%)" stroke-opacity="0.984314" stroke-miterlimit="4" d="M 200.793007 177.939752 C 200.792431 179.830022 199.260615 181.358892 197.370345 181.358316 C 195.482907 181.359484 193.949462 179.828755 193.950038 177.938485 C 193.950614 176.048215 195.48243 174.519346 197.369868 174.518178 C 199.260138 174.518754 200.793583 176.049483 200.793007 177.939752 Z M 200.793007 177.939752 " transform="matrix(1, -0.616123, 0.616123, 1, 0, 0)"/>
<path fill="none" stroke-width="0.482671" stroke-linecap="butt" stroke-linejoin="round" stroke="rgb(0%, 0%, 0%)" stroke-opacity="0.984314" stroke-miterlimit="4" d="M 221.144093 196.732431 C 221.143517 198.622701 219.609957 200.154402 217.719687 200.153826 C 215.832249 200.154994 214.300548 198.621434 214.299379 196.733995 C 214.299956 194.843725 215.833516 193.312024 217.720954 193.310856 C 219.611224 193.311432 221.142925 194.844992 221.144093 196.732431 Z M 221.144093 196.732431 " transform="matrix(1, -0.616123, 0.616123, 1, 0, 0)"/>
<path fill="none" stroke-width="0.482671" stroke-linecap="butt" stroke-linejoin="round" stroke="rgb(0%, 0%, 0%)" stroke-opacity="0.984314" stroke-miterlimit="4" d="M 242.744765 215.779383 C 242.744189 217.669653 241.212374 219.198523 239.324935 219.199691 C 237.434665 219.199114 235.90122 217.668386 235.901796 215.778116 C 235.900628 213.890678 237.434188 212.358977 239.324458 212.359553 C 241.211896 212.358385 242.743597 213.891945 242.744765 215.779383 Z M 242.744765 215.779383 " transform="matrix(1, -0.616123, 0.616123, 1, 0, 0)"/>
<g clip-path="url(#clip-4)">
<path fill="none" stroke-width="0.482671" stroke-linecap="butt" stroke-linejoin="round" stroke="rgb(0%, 0%, 0%)" stroke-opacity="0.984314" stroke-miterlimit="4" d="M 255.580209 242.48447 C 255.579633 244.37474 254.047818 245.90361 252.160379 245.904778 C 250.270109 245.904202 248.739495 244.375218 248.740071 242.484948 C 248.738903 240.597509 250.269632 239.064064 252.159902 239.06464 C 254.04734 239.063472 255.579041 240.597032 255.580209 242.48447 Z M 255.580209 242.48447 " transform="matrix(1, -0.616123, 0.616123, 1, 0, 0)"/>
</g>
<path fill="none" stroke-width="0.482671" stroke-linecap="butt" stroke-linejoin="round" stroke="rgb(0%, 0%, 0%)" stroke-opacity="0.984314" stroke-miterlimit="4" d="M 267.1839 207.141583 C 267.180492 209.030109 265.651508 210.560723 263.761238 210.560147 C 261.8738 210.561315 260.340354 209.030586 260.340931 207.140316 C 260.341507 205.250046 261.873322 203.721177 263.760761 203.720009 C 265.651031 203.720585 267.184476 205.251314 267.1839 207.141583 Z M 267.1839 207.141583 " transform="matrix(1, -0.616123, 0.616123, 1, 0, 0)"/>
<path fill="none" stroke-width="0.751181" stroke-linecap="butt" stroke-linejoin="miter" stroke="rgb(0%, 0%, 0%)" stroke-opacity="0.984314" stroke-miterlimit="4" d="M 307.902344 60.402344 L 318.496094 88.667969 "/>
<path fill="none" stroke-width="0.751181" stroke-linecap="butt" stroke-linejoin="miter" stroke="rgb(0%, 0%, 0%)" stroke-opacity="0.984314" stroke-miterlimit="4" d="M 322.152344 88.9375 L 336.492188 65.8125 "/>
<path fill="none" stroke-width="0.751181" stroke-linecap="butt" stroke-linejoin="miter" stroke="rgb(0%, 0%, 0%)" stroke-opacity="0.984314" stroke-miterlimit="4" d="M 374.90625 65.316406 L 389.566406 48.328125 "/>
<path fill="none" stroke-width="0.751181" stroke-linecap="butt" stroke-linejoin="miter" stroke="rgb(0%, 0%, 0%)" stroke-opacity="0.984314" stroke-miterlimit="4" d="M 400.191406 83.398438 L 391.917969 48.320312 "/>
<path fill="none" stroke-width="0.751181" stroke-linecap="butt" stroke-linejoin="miter" stroke="rgb(0%, 0%, 0%)" stroke-opacity="0.984314" stroke-miterlimit="4" d="M 371.390625 100.140625 L 324.621094 92.546875 "/>
<path fill="none" stroke-width="0.751181" stroke-linecap="butt" stroke-linejoin="miter" stroke="rgb(0%, 0%, 0%)" stroke-opacity="0.984314" stroke-miterlimit="4" d="M 311.125 56.570312 L 335.207031 61.230469 "/>
<path fill="none" stroke-width="0.751181" stroke-linecap="butt" stroke-linejoin="miter" stroke="rgb(0%, 0%, 0%)" stroke-opacity="0.984314" stroke-miterlimit="4" d="M 387.472656 46.28125 L 342.710938 60.40625 "/>
<path fill="none" stroke-width="0.751181" stroke-linecap="butt" stroke-linejoin="miter" stroke="rgb(0%, 0%, 0%)" stroke-opacity="0.984314" stroke-miterlimit="4" d="M 368.386719 67.566406 L 343.0625 63.695312 "/>
<path fill-rule="nonzero" fill="rgb(81.959534%, 51.371765%, 38.430786%)" fill-opacity="1" stroke-width="0.482671" stroke-linecap="butt" stroke-linejoin="round" stroke="rgb(0%, 0%, 0%)" stroke-opacity="0.984314" stroke-miterlimit="4" d="M 230.943284 240.062907 C 230.944452 241.950345 229.413724 243.483791 227.523454 243.483214 C 225.633184 243.482638 224.104315 241.950823 224.103146 240.063384 C 224.103723 238.173114 225.632707 236.6425 227.522977 236.643076 C 229.413247 236.643653 230.943861 238.172637 230.943284 240.062907 Z M 230.943284 240.062907 " transform="matrix(1, -0.616123, 0.616123, 1, 0, 0)"/>
<path fill="none" stroke-width="0.482671" stroke-linecap="butt" stroke-linejoin="round" stroke="rgb(0%, 0%, 0%)" stroke-opacity="0.984314" stroke-miterlimit="4" d="M 194.469961 209.942416 C 194.469385 211.832686 192.938657 213.366131 191.048387 213.365555 C 189.158117 213.364979 187.629247 211.833163 187.629823 209.942893 C 187.628655 208.055455 189.159384 206.522009 191.049654 206.522586 C 192.939924 206.523162 194.468793 208.054977 194.469961 209.942416 Z M 194.469961 209.942416 " transform="matrix(1, -0.616123, 0.616123, 1, 0, 0)"/>
<path fill="none" stroke-width="0.751181" stroke-linecap="butt" stroke-linejoin="miter" stroke="rgb(0%, 0%, 0%)" stroke-opacity="0.984314" stroke-miterlimit="4" d="M 379.292969 99.523438 L 398.679688 89.847656 "/>
<path fill="none" stroke-width="0.751181" stroke-linecap="butt" stroke-linejoin="miter" stroke="rgb(0%, 0%, 0%)" stroke-opacity="0.984314" stroke-miterlimit="4" d="M 375.585938 70.589844 L 397.90625 85.542969 "/>
<path fill="none" stroke-width="0.482671" stroke-linecap="butt" stroke-linejoin="round" stroke="rgb(0%, 0%, 0%)" stroke-opacity="0.984314" stroke-miterlimit="4" d="M 247.06227 169.970747 C 247.061694 171.861017 245.532709 173.391631 243.64244 173.391055 C 241.75217 173.390478 240.221556 171.861494 240.222132 169.971224 C 240.222708 168.080954 241.751692 166.55034 243.641962 166.550917 C 245.532232 166.551493 247.062846 168.080477 247.06227 169.970747 Z M 247.06227 169.970747 " transform="matrix(1, -0.616123, 0.616123, 1, 0, 0)"/>
<path fill="none" stroke-width="0.751181" stroke-linecap="butt" stroke-linejoin="miter" stroke="rgb(0%, 0%, 0%)" stroke-opacity="0.984314" stroke-miterlimit="4" d="M 388.179688 42.75 L 352.242188 21.574219 "/>
<path fill="none" stroke-width="0.751181" stroke-linecap="butt" stroke-linejoin="miter" stroke="rgb(0%, 0%, 0%)" stroke-opacity="0.984314" stroke-miterlimit="4" d="M 339.34375 58.871094 L 347.300781 23.925781 "/>
<path fill="none" stroke-width="0.751181" stroke-linecap="butt" stroke-linejoin="miter" stroke="rgb(0%, 0%, 0%)" stroke-opacity="0.984314" stroke-miterlimit="4" d="M 309.921875 53.691406 L 345.300781 22.164062 "/>
<path fill="none" stroke-width="0.482671" stroke-linecap="butt" stroke-linejoin="round" stroke="rgb(0%, 0%, 0%)" stroke-opacity="0.984314" stroke-miterlimit="4" d="M 219.323135 158.426903 C 219.324303 160.314341 217.793575 161.847787 215.903305 161.847211 C 214.015866 161.848379 212.484165 160.314819 212.482997 158.42738 C 212.483573 156.53711 214.014302 155.003665 215.904572 155.004241 C 217.794842 155.004818 219.323711 156.536633 219.323135 158.426903 Z M 219.323135 158.426903 " transform="matrix(1, -0.616123, 0.616123, 1, 0, 0)"/>
<path fill="none" stroke-width="0.751181" stroke-linecap="butt" stroke-linejoin="miter" stroke="rgb(0%, 0%, 0%)" stroke-opacity="0.984314" stroke-miterlimit="4" d="M 307.570312 52.046875 L 312.113281 29.457031 "/>
<path fill="none" stroke-width="0.751181" stroke-linecap="butt" stroke-linejoin="miter" stroke="rgb(0%, 0%, 0%)" stroke-opacity="0.984314" stroke-miterlimit="4" d="M 344.285156 20.035156 L 317.527344 24.28125 "/>
</svg>
