<?xml version="1.0" encoding="UTF-8"?>
<svg xmlns="http://www.w3.org/2000/svg" xmlns:xlink="http://www.w3.org/1999/xlink" width="410.920776pt" height="87.563057pt" viewBox="0 0 410.920776 87.563057">
<defs>
<clipPath id="clip-0">
<path clip-rule="nonzero" d="M 306 71 L 323 71 L 323 87.5625 L 306 87.5625 Z M 306 71 "/>
</clipPath>
<clipPath id="clip-1">
<path clip-rule="nonzero" d="M 302 67 L 327 67 L 327 87.5625 L 302 87.5625 Z M 302 67 "/>
</clipPath>
</defs>
<path fill="none" stroke-width="0.482671" stroke-linecap="butt" stroke-linejoin="round" stroke="rgb(0%, 0%, 0%)" stroke-opacity="0.984314" stroke-miterlimit="4" d="M -93.76481 -109.227687 C -93.763642 -107.340249 -95.297201 -105.808548 -97.187471 -105.809124 C -99.07491 -105.807956 -100.608355 -107.338684 -100.607779 -109.228954 C -100.607203 -111.119224 -99.075387 -112.648094 -97.187949 -112.649262 C -95.297679 -112.648686 -93.764233 -111.117957 -93.76481 -109.227687 Z M -93.76481 -109.227687 " transform="matrix(-1, 0.616123, -0.616123, -1, 0, 0)"/>
<path fill="none" stroke-width="0.482671" stroke-linecap="butt" stroke-linejoin="round" stroke="rgb(0%, 0%, 0%)" stroke-opacity="0.984314" stroke-miterlimit="4" d="M -72.429343 -115.719134 C -72.429919 -113.828864 -73.960647 -112.295418 -75.850917 -112.295995 C -77.741187 -112.296571 -79.270057 -113.828386 -79.269481 -115.718656 C -79.270649 -117.606095 -77.73992 -119.13954 -75.84965 -119.138964 C -73.962212 -119.140132 -72.430511 -117.606572 -72.429343 -115.719134 Z M -72.429343 -115.719134 " transform="matrix(-1, 0.616123, -0.616123, -1, 0, 0)"/>
<path fill="none" stroke-width="0.482671" stroke-linecap="butt" stroke-linejoin="round" stroke="rgb(0%, 0%, 0%)" stroke-opacity="0.984314" stroke-miterlimit="4" d="M -87.379479 -86.242757 C -87.380055 -84.352487 -88.913615 -82.820786 -90.801054 -82.819618 C -92.691324 -82.820194 -94.220193 -84.352009 -94.221361 -86.239448 C -94.220785 -88.129718 -92.690057 -89.663163 -90.799787 -89.662587 C -88.912348 -89.663755 -87.380647 -88.130195 -87.379479 -86.242757 Z M -87.379479 -86.242757 " transform="matrix(-1, 0.616123, -0.616123, -1, 0, 0)"/>
<path fill="none" stroke-width="0.482671" stroke-linecap="butt" stroke-linejoin="round" stroke="rgb(0%, 0%, 0%)" stroke-opacity="0.984314" stroke-miterlimit="4" d="M -51.81591 -69.30388 C -51.816487 -67.41361 -53.345471 -65.882996 -55.235741 -65.883573 C -57.12601 -65.884149 -58.656625 -67.413133 -58.656048 -69.303403 C -58.655472 -71.193673 -57.126488 -72.724287 -55.236218 -72.723711 C -53.345948 -72.723134 -51.815334 -71.19415 -51.81591 -69.30388 Z M -51.81591 -69.30388 " transform="matrix(-1, 0.616123, -0.616123, -1, 0, 0)"/>
<path fill="none" stroke-width="0.482671" stroke-linecap="butt" stroke-linejoin="round" stroke="rgb(0%, 0%, 0%)" stroke-opacity="0.984314" stroke-miterlimit="4" d="M -32.762333 -92.291096 C -32.762909 -90.400826 -34.294725 -88.871956 -36.182163 -88.870788 C -38.072433 -88.871364 -39.605879 -90.402093 -39.605303 -92.292363 C -39.604726 -94.182633 -38.072911 -95.711502 -36.182641 -95.710926 C -34.295202 -95.712094 -32.761757 -94.181366 -32.762333 -92.291096 Z M -32.762333 -92.291096 " transform="matrix(-1, 0.616123, -0.616123, -1, 0, 0)"/>
<path fill="none" stroke-width="0.751181" stroke-linecap="butt" stroke-linejoin="miter" stroke="rgb(0%, 0%, 0%)" stroke-opacity="0.984314" stroke-miterlimit="4" d="M 161.582031 46.8125 L 147.109375 33.140625 "/>
<path fill="none" stroke-width="0.751181" stroke-linecap="butt" stroke-linejoin="miter" stroke="rgb(0%, 0%, 0%)" stroke-opacity="0.984314" stroke-miterlimit="4" d="M 162.515625 53.226562 L 149.703125 66.234375 "/>
<path fill="none" stroke-width="0.751181" stroke-linecap="butt" stroke-linejoin="miter" stroke="rgb(0%, 0%, 0%)" stroke-opacity="0.984314" stroke-miterlimit="4" d="M 143 69.320312 L 97.03125 69.960938 "/>
<path fill="none" stroke-width="0.751181" stroke-linecap="butt" stroke-linejoin="miter" stroke="rgb(0%, 0%, 0%)" stroke-opacity="0.984314" stroke-miterlimit="4" d="M 97.730469 39.433594 L 93.398438 65.839844 "/>
<path fill="none" stroke-width="0.751181" stroke-linecap="butt" stroke-linejoin="miter" stroke="rgb(0%, 0%, 0%)" stroke-opacity="0.984314" stroke-miterlimit="4" d="M 102.097656 35.140625 L 140.039062 31.027344 "/>
<path fill="none" stroke-width="0.751181" stroke-linecap="butt" stroke-linejoin="miter" stroke="rgb(0%, 0%, 0%)" stroke-opacity="0.984314" stroke-miterlimit="4" d="M 144.828125 34.167969 L 147.34375 64.929688 "/>
<path fill="none" stroke-width="0.751181" stroke-linecap="butt" stroke-linejoin="miter" stroke="rgb(0%, 0%, 0%)" stroke-opacity="0.984314" stroke-miterlimit="4" d="M 74.476562 54.578125 L 89.867188 67.738281 "/>
<path fill="none" stroke-width="0.482671" stroke-linecap="butt" stroke-linejoin="round" stroke="rgb(0%, 0%, 0%)" stroke-opacity="0.984314" stroke-miterlimit="4" d="M -25.463078 -69.610263 C -25.463655 -67.719993 -26.992639 -66.189379 -28.882909 -66.189956 C -30.773178 -66.190532 -32.303793 -67.719516 -32.303216 -69.609786 C -32.30264 -71.500056 -30.773656 -73.03067 -28.883386 -73.030093 C -26.993116 -73.029517 -25.462502 -71.500533 -25.463078 -69.610263 Z M -25.463078 -69.610263 " transform="matrix(-1, 0.616123, -0.616123, -1, 0, 0)"/>
<path fill="none" stroke-width="0.751181" stroke-linecap="butt" stroke-linejoin="miter" stroke="rgb(0%, 0%, 0%)" stroke-opacity="0.984314" stroke-miterlimit="4" d="M 94.550781 37.625 L 74.996094 49.207031 "/>
<path fill-rule="nonzero" fill="rgb(81.959534%, 51.371765%, 38.430786%)" fill-opacity="1" stroke-width="0.639539" stroke-linecap="butt" stroke-linejoin="round" stroke="rgb(0%, 0%, 0%)" stroke-opacity="0.984314" stroke-miterlimit="4" d="M -24.04908 -69.61016 C -24.04746 -66.937287 -26.211884 -64.774745 -28.883012 -64.775957 C -31.553053 -64.772593 -33.718427 -66.938761 -33.717215 -69.609889 C -33.720579 -72.27993 -31.554411 -74.445304 -28.883283 -74.444092 C -26.213241 -74.447456 -24.047867 -72.281288 -24.04908 -69.61016 Z M -24.04908 -69.61016 " transform="matrix(-1, 0.616123, -0.616123, -1, 0, 0)"/>
<path fill-rule="nonzero" fill="rgb(0%, 0%, 0%)" fill-opacity="1" d="M 73.394531 52.753906 C 73.382812 51.640625 72.6875 50.910156 71.574219 50.910156 C 71.425781 50.921875 71.089844 50.960938 70.890625 51.035156 L 71.089844 49.597656 L 73.023438 49.597656 L 73.023438 49.027344 L 70.695312 49.027344 L 70.359375 51.726562 C 70.792969 51.515625 70.890625 51.46875 71.449219 51.46875 C 72.253906 51.46875 72.824219 51.914062 72.824219 52.753906 C 72.824219 53.621094 72.265625 54.042969 71.449219 54.042969 C 70.90625 54.042969 70.546875 53.933594 70.148438 53.683594 L 70.148438 54.367188 C 70.507812 54.5 71.039062 54.601562 71.460938 54.601562 C 72.636719 54.601562 73.394531 53.957031 73.394531 52.753906 Z M 73.394531 52.753906 "/>
<path fill-rule="nonzero" fill="rgb(81.959534%, 51.371765%, 38.430786%)" fill-opacity="1" stroke-width="0.639539" stroke-linecap="butt" stroke-linejoin="round" stroke="rgb(0%, 0%, 0%)" stroke-opacity="0.984314" stroke-miterlimit="4" d="M -85.96548 -86.242653 C -85.966692 -83.571525 -88.130029 -81.404407 -90.801157 -81.405619 C -93.472285 -81.406831 -95.634828 -83.571255 -95.638192 -86.241296 C -95.636979 -88.912424 -93.470811 -91.077798 -90.799683 -91.076586 C -88.131387 -91.077118 -85.966012 -88.91095 -85.96548 -86.242653 Z M -85.96548 -86.242653 " transform="matrix(-1, 0.616123, -0.616123, -1, 0, 0)"/>
<path fill-rule="nonzero" fill="rgb(81.959534%, 51.371765%, 38.430786%)" fill-opacity="1" stroke-width="0.639539" stroke-linecap="butt" stroke-linejoin="round" stroke="rgb(0%, 0%, 0%)" stroke-opacity="0.984314" stroke-miterlimit="4" d="M -92.350811 -109.227584 C -92.350279 -106.559287 -94.516447 -104.393913 -97.184743 -104.393381 C -99.855872 -104.394593 -102.02299 -106.557929 -102.021778 -109.229058 C -102.020566 -111.900186 -99.856142 -114.062728 -97.186101 -114.066092 C -94.514973 -114.06488 -92.349599 -111.898712 -92.350811 -109.227584 Z M -92.350811 -109.227584 " transform="matrix(-1, 0.616123, -0.616123, -1, 0, 0)"/>
<path fill-rule="nonzero" fill="rgb(81.959534%, 51.371765%, 38.430786%)" fill-opacity="1" stroke-width="0.639539" stroke-linecap="butt" stroke-linejoin="round" stroke="rgb(0%, 0%, 0%)" stroke-opacity="0.984314" stroke-miterlimit="4" d="M -71.015344 -115.71903 C -71.016556 -113.047902 -73.179893 -110.880784 -75.851021 -110.881996 C -78.522149 -110.883208 -80.684692 -113.047632 -80.688055 -115.717673 C -80.686843 -118.388801 -78.520675 -120.554175 -75.849547 -120.552963 C -73.18125 -120.553495 -71.015876 -118.387327 -71.015344 -115.71903 Z M -71.015344 -115.71903 " transform="matrix(-1, 0.616123, -0.616123, -1, 0, 0)"/>
<path fill-rule="nonzero" fill="rgb(81.959534%, 51.371765%, 38.430786%)" fill-opacity="1" stroke-width="0.639539" stroke-linecap="butt" stroke-linejoin="round" stroke="rgb(0%, 0%, 0%)" stroke-opacity="0.984314" stroke-miterlimit="4" d="M -31.348334 -92.290992 C -31.349547 -89.619864 -33.51397 -87.457322 -36.182267 -87.456789 C -38.855139 -87.45517 -41.020514 -89.621338 -41.019301 -92.292466 C -41.019834 -94.960763 -38.853666 -97.126137 -36.185369 -97.126669 C -33.512496 -97.128288 -31.347122 -94.96212 -31.348334 -92.290992 Z M -31.348334 -92.290992 " transform="matrix(-1, 0.616123, -0.616123, -1, 0, 0)"/>
<path fill-rule="nonzero" fill="rgb(81.959534%, 51.371765%, 38.430786%)" fill-opacity="1" stroke-width="0.639539" stroke-linecap="butt" stroke-linejoin="round" stroke="rgb(0%, 0%, 0%)" stroke-opacity="0.984314" stroke-miterlimit="4" d="M -50.401912 -69.303777 C -50.398548 -66.633736 -52.564716 -64.468362 -55.235844 -64.469574 C -57.908717 -64.467955 -60.071259 -66.632378 -60.070047 -69.303506 C -60.071666 -71.976379 -57.907243 -74.138922 -55.236115 -74.137709 C -52.566073 -74.141073 -50.400699 -71.974905 -50.401912 -69.303777 Z M -50.401912 -69.303777 " transform="matrix(-1, 0.616123, -0.616123, -1, 0, 0)"/>
<path fill-rule="nonzero" fill="rgb(0%, 0%, 0%)" fill-opacity="1" d="M 99.730469 38.40625 L 99.730469 37.765625 L 96.964844 37.765625 L 99.074219 35.390625 C 99.421875 34.902344 99.6875 34.523438 99.6875 33.882812 C 99.6875 32.738281 98.851562 32.136719 97.789062 32.136719 C 97.1875 32.136719 96.683594 32.316406 96.183594 32.527344 L 96.183594 33.324219 C 96.683594 33 97.1875 32.765625 97.804688 32.765625 C 98.5 32.765625 99.046875 33.199219 99.046875 33.921875 C 99.046875 34.414062 98.65625 35.011719 98.332031 35.347656 C 98.234375 35.488281 96.292969 37.613281 96.140625 37.765625 L 96.140625 38.40625 Z M 99.730469 38.40625 "/>
<path fill-rule="nonzero" fill="rgb(0%, 0%, 0%)" fill-opacity="1" d="M 95.105469 71.609375 L 95.105469 70.96875 L 94.269531 70.96875 L 94.269531 66.917969 L 93.375 66.917969 L 90.984375 70.828125 L 90.984375 71.609375 L 93.597656 71.609375 L 93.597656 73.078125 L 94.269531 73.078125 L 94.269531 71.609375 Z M 93.597656 70.96875 L 91.488281 70.96875 L 93.597656 67.574219 Z M 93.597656 70.96875 "/>
<path fill-rule="nonzero" fill="rgb(0%, 0%, 0%)" fill-opacity="1" d="M 144.746094 33.375 L 144.746094 27.21875 L 144.007812 27.21875 L 143.125 27.929688 L 143.125 28.628906 L 144.046875 27.875 L 144.046875 33.375 Z M 144.746094 33.375 "/>
<path fill-rule="nonzero" fill="rgb(0%, 0%, 0%)" fill-opacity="0.984314" d="M 149.003906 70.269531 C 149.003906 69.585938 148.585938 68.957031 147.804688 68.734375 C 148.472656 68.480469 148.863281 67.992188 148.863281 67.351562 C 148.863281 66.273438 147.972656 65.785156 146.992188 65.785156 C 146.503906 65.785156 145.902344 65.898438 145.472656 66.039062 L 145.472656 66.722656 C 145.945312 66.554688 146.351562 66.414062 146.921875 66.414062 C 147.648438 66.414062 148.238281 66.679688 148.238281 67.460938 C 148.222656 68.175781 147.648438 68.46875 146.953125 68.46875 L 146.296875 68.46875 L 146.296875 69.070312 L 146.921875 69.070312 C 147.734375 69.070312 148.375 69.417969 148.375 70.269531 C 148.375 71.277344 147.679688 71.554688 146.769531 71.554688 C 146.128906 71.554688 145.734375 71.441406 145.289062 71.136719 L 145.289062 71.890625 C 145.734375 72.042969 146.253906 72.183594 146.785156 72.183594 C 148.027344 72.183594 149.003906 71.625 149.003906 70.269531 Z M 149.003906 70.269531 "/>
<path fill-rule="nonzero" fill="rgb(0%, 0%, 0%)" fill-opacity="1" d="M 162.53125 49.671875 L 162.53125 49.769531 C 162.53125 51.597656 163.03125 52.550781 164.570312 52.550781 C 165.617188 52.535156 166.441406 51.753906 166.441406 50.578125 C 166.441406 49.40625 165.839844 48.5 164.609375 48.5 C 164.039062 48.527344 163.632812 48.625 163.214844 49.113281 C 163.226562 47.378906 164.441406 46.722656 165.660156 46.722656 L 165.699219 46.722656 L 165.714844 46.152344 C 164.207031 46.164062 162.53125 46.960938 162.53125 49.671875 Z M 163.226562 50.578125 C 163.253906 49.726562 163.703125 49.085938 164.570312 49.085938 C 165.40625 49.085938 165.796875 49.753906 165.796875 50.578125 C 165.796875 51.402344 165.40625 51.960938 164.570312 51.960938 C 163.730469 51.960938 163.226562 51.429688 163.226562 50.578125 Z M 163.226562 50.578125 "/>
<path fill-rule="nonzero" fill="rgb(0%, 0%, 0%)" fill-opacity="1" d="M 56.554688 6.824219 C 56.554688 5.539062 55.625 4.648438 54.457031 4.648438 C 53.644531 4.648438 53.070312 4.847656 52.476562 5.183594 L 52.558594 6.015625 C 53.210938 5.558594 53.84375 5.402344 54.457031 5.402344 C 55.050781 5.402344 55.566406 5.894531 55.566406 6.824219 L 55.566406 7.378906 C 53.664062 7.398438 52.0625 7.933594 52.0625 9.042969 C 52.0625 9.578125 52.398438 10.605469 53.507812 10.605469 C 53.683594 10.605469 54.871094 10.585938 55.605469 10.011719 L 55.605469 10.46875 L 56.554688 10.46875 Z M 55.566406 8.804688 C 55.566406 9.042969 55.566406 9.359375 55.128906 9.597656 C 54.773438 9.816406 54.277344 9.835938 54.140625 9.835938 C 53.546875 9.835938 52.972656 9.539062 52.972656 9.023438 C 52.972656 8.132812 55.011719 8.054688 55.566406 8.011719 Z M 55.566406 8.804688 "/>
<path fill-rule="nonzero" fill="rgb(0%, 0%, 0%)" fill-opacity="1" d="M 59.058594 13.632812 C 59.453125 13.238281 60.304688 12.46875 60.878906 10.921875 C 61.394531 9.578125 61.472656 8.230469 61.472656 7.300781 C 61.472656 3.222656 59.652344 1.5625 59.058594 0.988281 L 58.285156 0.988281 C 58.878906 1.601562 60.484375 3.222656 60.484375 7.300781 C 60.484375 8.011719 60.441406 9.496094 59.929688 10.980469 C 59.414062 12.445312 58.703125 13.199219 58.285156 13.632812 Z M 59.058594 13.632812 "/>
<path fill-rule="nonzero" fill="rgb(0%, 0%, 0%)" fill-opacity="1" d="M 215.558594 1.699219 L 214.605469 1.699219 L 214.605469 10.46875 L 215.597656 10.46875 L 215.597656 9.894531 C 215.894531 10.171875 216.449219 10.605469 217.296875 10.605469 C 218.546875 10.605469 219.632812 9.339844 219.632812 7.65625 C 219.632812 6.09375 218.78125 4.726562 217.59375 4.726562 C 217.101562 4.726562 216.308594 4.847656 215.558594 5.460938 Z M 215.597656 6.230469 C 215.792969 5.933594 216.25 5.5 216.941406 5.5 C 217.695312 5.5 218.644531 6.035156 218.644531 7.65625 C 218.644531 9.300781 217.59375 9.835938 216.824219 9.835938 C 216.328125 9.835938 215.914062 9.617188 215.597656 9.023438 Z M 215.597656 6.230469 "/>
<path fill-rule="nonzero" fill="rgb(0%, 0%, 0%)" fill-opacity="1" d="M 221.582031 13.632812 C 221.980469 13.238281 222.828125 12.46875 223.402344 10.921875 C 223.917969 9.578125 223.996094 8.230469 223.996094 7.300781 C 223.996094 3.222656 222.175781 1.5625 221.582031 0.988281 L 220.8125 0.988281 C 221.40625 1.601562 223.007812 3.222656 223.007812 7.300781 C 223.007812 8.011719 222.96875 9.496094 222.453125 10.980469 C 221.9375 12.445312 221.226562 13.199219 220.8125 13.632812 Z M 221.582031 13.632812 "/>
<path fill="none" stroke-width="0.75" stroke-linecap="butt" stroke-linejoin="miter" stroke="rgb(0%, 0%, 0%)" stroke-opacity="1" stroke-miterlimit="4" d="M 355.0625 49.890625 L 332.953125 8.816406 "/>
<path fill="none" stroke-width="0.75" stroke-linecap="butt" stroke-linejoin="miter" stroke="rgb(0%, 0%, 0%)" stroke-opacity="1" stroke-miterlimit="4" d="M 353.9375 50.03125 L 313.707031 81.90625 "/>
<path fill="none" stroke-width="0.75" stroke-linecap="butt" stroke-linejoin="miter" stroke="rgb(0%, 0%, 0%)" stroke-opacity="1" stroke-miterlimit="4" d="M 354.640625 50.171875 L 300.878906 38.523438 "/>
<path fill="none" stroke-width="0.75" stroke-linecap="butt" stroke-linejoin="miter" stroke="rgb(0%, 0%, 0%)" stroke-opacity="1" stroke-miterlimit="4" d="M 262.113281 67.925781 L 315.398438 80.21875 "/>
<path fill="none" stroke-width="0.75" stroke-linecap="butt" stroke-linejoin="miter" stroke="rgb(0%, 0%, 0%)" stroke-opacity="1" stroke-miterlimit="4" d="M 262.226562 66.546875 L 300.542969 38.695312 "/>
<path fill="none" stroke-width="0.75" stroke-linecap="butt" stroke-linejoin="miter" stroke="rgb(0%, 0%, 0%)" stroke-opacity="1" stroke-miterlimit="4" d="M 332.671875 8.902344 L 301.863281 38.382812 "/>
<path fill="none" stroke-width="0.75" stroke-linecap="butt" stroke-linejoin="miter" stroke="rgb(0%, 0%, 0%)" stroke-opacity="1" stroke-miterlimit="4" d="M 257.777344 32.308594 L 300.710938 38.1875 "/>
<path fill="none" stroke-width="0.75" stroke-linecap="butt" stroke-linejoin="miter" stroke="rgb(0%, 0%, 0%)" stroke-opacity="1" stroke-miterlimit="4" d="M 258.117188 32.757812 L 260.507812 67.417969 "/>
<path fill-rule="nonzero" fill="rgb(62.744141%, 85.096741%, 82.743835%)" fill-opacity="1" stroke-width="0.751178" stroke-linecap="butt" stroke-linejoin="miter" stroke="rgb(0%, 0%, 0%)" stroke-opacity="1" stroke-miterlimit="4" d="M 340.507812 9.175781 C 340.507812 13.492188 337.011719 16.992188 332.695312 16.992188 C 328.378906 16.992188 324.882812 13.492188 324.882812 9.175781 C 324.882812 4.859375 328.378906 1.363281 332.695312 1.363281 C 337.011719 1.363281 340.507812 4.859375 340.507812 9.175781 Z M 340.507812 9.175781 "/>
<path fill-rule="nonzero" fill="rgb(62.744141%, 85.096741%, 82.743835%)" fill-opacity="1" stroke-width="0.751178" stroke-linecap="butt" stroke-linejoin="miter" stroke="rgb(0%, 0%, 0%)" stroke-opacity="1" stroke-miterlimit="4" d="M 362.453125 50.027344 C 362.453125 54.339844 358.957031 57.839844 354.640625 57.839844 C 350.324219 57.839844 346.824219 54.339844 346.824219 50.027344 C 346.824219 45.710938 350.324219 42.210938 354.640625 42.210938 C 358.957031 42.210938 362.453125 45.710938 362.453125 50.027344 Z M 362.453125 50.027344 "/>
<g clip-path="url(#clip-0)">
<path fill-rule="nonzero" fill="rgb(62.744141%, 85.096741%, 82.743835%)" fill-opacity="1" d="M 322.617188 79.398438 C 322.617188 83.710938 319.117188 87.210938 314.804688 87.210938 C 310.488281 87.210938 306.988281 83.710938 306.988281 79.398438 C 306.988281 75.082031 310.488281 71.582031 314.804688 71.582031 C 319.117188 71.582031 322.617188 75.082031 322.617188 79.398438 Z M 322.617188 79.398438 "/>
</g>
<g clip-path="url(#clip-1)">
<path fill="none" stroke-width="0.751178" stroke-linecap="butt" stroke-linejoin="miter" stroke="rgb(0%, 0%, 0%)" stroke-opacity="1" stroke-miterlimit="4" d="M 322.617188 79.398438 C 322.617188 83.710938 319.117188 87.210938 314.804688 87.210938 C 310.488281 87.210938 306.988281 83.710938 306.988281 79.398438 C 306.988281 75.082031 310.488281 71.582031 314.804688 71.582031 C 319.117188 71.582031 322.617188 75.082031 322.617188 79.398438 Z M 322.617188 79.398438 "/>
</g>
<path fill-rule="nonzero" fill="rgb(62.744141%, 85.096741%, 82.743835%)" fill-opacity="1" stroke-width="0.751178" stroke-linecap="butt" stroke-linejoin="miter" stroke="rgb(0%, 0%, 0%)" stroke-opacity="1" stroke-miterlimit="4" d="M 268.9375 67.242188 C 268.9375 71.558594 265.441406 75.058594 261.125 75.058594 C 256.808594 75.058594 253.3125 71.558594 253.3125 67.242188 C 253.3125 62.929688 256.808594 59.429688 261.125 59.429688 C 265.441406 59.429688 268.9375 62.929688 268.9375 67.242188 Z M 268.9375 67.242188 "/>
<path fill-rule="nonzero" fill="rgb(62.744141%, 85.096741%, 82.743835%)" fill-opacity="1" stroke-width="0.751178" stroke-linecap="butt" stroke-linejoin="miter" stroke="rgb(0%, 0%, 0%)" stroke-opacity="1" stroke-miterlimit="4" d="M 266.238281 32.808594 C 266.238281 37.125 262.738281 40.621094 258.425781 40.621094 C 254.109375 40.621094 250.609375 37.125 250.609375 32.808594 C 250.609375 28.492188 254.109375 24.996094 258.425781 24.996094 C 262.738281 24.996094 266.238281 28.492188 266.238281 32.808594 Z M 266.238281 32.808594 "/>
<path fill-rule="nonzero" fill="rgb(62.744141%, 85.096741%, 82.743835%)" fill-opacity="1" stroke-width="0.751178" stroke-linecap="butt" stroke-linejoin="miter" stroke="rgb(0%, 0%, 0%)" stroke-opacity="1" stroke-miterlimit="4" d="M 309.621094 38.210938 C 309.621094 42.527344 306.121094 46.023438 301.804688 46.023438 C 297.488281 46.023438 293.992188 42.527344 293.992188 38.210938 C 293.992188 33.894531 297.488281 30.394531 301.804688 30.394531 C 306.121094 30.394531 309.621094 33.894531 309.621094 38.210938 Z M 309.621094 38.210938 "/>
<path fill-rule="nonzero" fill="rgb(0%, 0%, 0%)" fill-opacity="1" d="M 259.140625 35.539062 L 259.140625 30.078125 L 258.484375 30.078125 L 257.707031 30.710938 L 257.707031 31.328125 L 258.523438 30.660156 L 258.523438 35.539062 Z M 259.140625 35.539062 "/>
<path fill-rule="nonzero" fill="rgb(0%, 0%, 0%)" fill-opacity="1" d="M 303.453125 39.347656 C 303.453125 38.742188 303.082031 38.183594 302.386719 37.988281 C 302.980469 37.765625 303.328125 37.332031 303.328125 36.761719 C 303.328125 35.808594 302.535156 35.375 301.667969 35.375 C 301.234375 35.375 300.703125 35.472656 300.320312 35.597656 L 300.320312 36.203125 C 300.742188 36.054688 301.097656 35.929688 301.605469 35.929688 C 302.25 35.929688 302.773438 36.167969 302.773438 36.859375 C 302.757812 37.492188 302.25 37.75 301.632812 37.75 L 301.050781 37.75 L 301.050781 38.285156 L 301.605469 38.285156 C 302.324219 38.285156 302.894531 38.59375 302.894531 39.347656 C 302.894531 40.242188 302.277344 40.488281 301.472656 40.488281 C 300.902344 40.488281 300.554688 40.390625 300.160156 40.117188 L 300.160156 40.785156 C 300.554688 40.921875 301.011719 41.046875 301.484375 41.046875 C 302.585938 41.046875 303.453125 40.550781 303.453125 39.347656 Z M 303.453125 39.347656 "/>
<path fill-rule="nonzero" fill="rgb(0%, 0%, 0%)" fill-opacity="1" d="M 334.316406 10.117188 C 334.304688 9.003906 333.613281 8.273438 332.496094 8.273438 C 332.347656 8.285156 332.015625 8.320312 331.816406 8.394531 L 332.015625 6.960938 L 333.945312 6.960938 L 333.945312 6.390625 L 331.617188 6.390625 L 331.285156 9.089844 C 331.71875 8.878906 331.816406 8.828125 332.375 8.828125 C 333.179688 8.828125 333.75 9.277344 333.75 10.117188 C 333.75 10.984375 333.191406 11.40625 332.375 11.40625 C 331.828125 11.40625 331.46875 11.292969 331.074219 11.046875 L 331.074219 11.726562 C 331.433594 11.863281 331.964844 11.964844 332.386719 11.964844 C 333.5625 11.964844 334.316406 11.320312 334.316406 10.117188 Z M 334.316406 10.117188 "/>
<path fill-rule="nonzero" fill="rgb(0%, 0%, 0%)" fill-opacity="1" d="M 262.714844 70.023438 L 262.714844 69.453125 L 260.265625 69.453125 L 262.132812 67.347656 C 262.445312 66.914062 262.679688 66.582031 262.679688 66.011719 C 262.679688 64.996094 261.9375 64.464844 260.996094 64.464844 C 260.460938 64.464844 260.015625 64.625 259.570312 64.808594 L 259.570312 65.515625 C 260.015625 65.230469 260.460938 65.019531 261.007812 65.019531 C 261.625 65.019531 262.109375 65.40625 262.109375 66.046875 C 262.109375 66.480469 261.761719 67.015625 261.476562 67.3125 C 261.390625 67.4375 259.667969 69.316406 259.535156 69.453125 L 259.535156 70.023438 Z M 262.714844 70.023438 "/>
<path fill-rule="nonzero" fill="rgb(0%, 0%, 0%)" fill-opacity="1" d="M 316.628906 80.828125 L 316.628906 80.257812 L 315.886719 80.257812 L 315.886719 76.667969 L 315.09375 76.667969 L 312.976562 80.132812 L 312.976562 80.828125 L 315.292969 80.828125 L 315.292969 82.128906 L 315.886719 82.128906 L 315.886719 80.828125 Z M 315.292969 80.257812 L 313.421875 80.257812 L 315.292969 77.25 Z M 315.292969 80.257812 "/>
<path fill-rule="nonzero" fill="rgb(0%, 0%, 0%)" fill-opacity="1" d="M 352.90625 50.3125 L 352.90625 50.398438 C 352.90625 52.019531 353.351562 52.863281 354.714844 52.863281 C 355.644531 52.851562 356.375 52.15625 356.375 51.117188 C 356.375 50.074219 355.839844 49.269531 354.75 49.269531 C 354.242188 49.296875 353.882812 49.382812 353.511719 49.816406 C 353.523438 48.28125 354.601562 47.699219 355.679688 47.699219 L 355.71875 47.699219 L 355.730469 47.191406 C 354.390625 47.203125 352.90625 47.90625 352.90625 50.3125 Z M 353.523438 51.117188 C 353.550781 50.359375 353.945312 49.789062 354.714844 49.789062 C 355.457031 49.789062 355.804688 50.386719 355.804688 51.117188 C 355.804688 51.847656 355.457031 52.34375 354.714844 52.34375 C 353.972656 52.34375 353.523438 51.871094 353.523438 51.117188 Z M 353.523438 51.117188 "/>
</svg>
