<?xml version="1.0" encoding="UTF-8"?>
<svg xmlns="http://www.w3.org/2000/svg" xmlns:xlink="http://www.w3.org/1999/xlink" width="410.920776pt" height="76.224472pt" viewBox="0 0 410.920776 76.224472">
<defs>
<clipPath id="clip-0">
<path clip-rule="nonzero" d="M 289 64 L 302 64 L 302 76.222656 L 289 76.222656 Z M 289 64 "/>
</clipPath>
</defs>
<path fill="none" stroke-width="0.482671" stroke-linecap="butt" stroke-linejoin="round" stroke="rgb(0%, 0%, 0%)" stroke-opacity="0.984314" stroke-miterlimit="4" d="M -95.245893 -106.823811 C -95.244725 -104.936372 -96.778285 -103.404671 -98.668555 -103.405247 C -100.555994 -103.404079 -102.087694 -104.937639 -102.088863 -106.825078 C -102.088286 -108.715348 -100.554726 -110.247048 -98.669032 -110.245385 C -96.778763 -110.244809 -95.245317 -108.71408 -95.245893 -106.823811 Z M -95.245893 -106.823811 " transform="matrix(-1, 0.616123, -0.616123, -1, 0, 0)"/>
<path fill="none" stroke-width="0.482671" stroke-linecap="butt" stroke-linejoin="round" stroke="rgb(0%, 0%, 0%)" stroke-opacity="0.984314" stroke-miterlimit="4" d="M -73.910426 -113.315257 C -73.911003 -111.424987 -75.441731 -109.891542 -77.332001 -109.892118 C -79.220526 -109.895526 -80.75114 -111.42451 -80.750564 -113.31478 C -80.751732 -115.202218 -79.221004 -116.735664 -77.330734 -116.735088 C -75.443295 -116.736256 -73.911594 -115.202696 -73.910426 -113.315257 Z M -73.910426 -113.315257 " transform="matrix(-1, 0.616123, -0.616123, -1, 0, 0)"/>
<path fill-rule="nonzero" fill="rgb(62.744141%, 85.096741%, 82.743835%)" fill-opacity="1" stroke-width="0.482671" stroke-linecap="butt" stroke-linejoin="round" stroke="rgb(0%, 0%, 0%)" stroke-opacity="0.984314" stroke-miterlimit="4" d="M -88.860563 -83.83888 C -88.861139 -81.94861 -90.394699 -80.416909 -92.282137 -80.415741 C -94.172407 -80.416317 -95.701277 -81.948133 -95.700701 -83.838403 C -95.701869 -85.725841 -94.17114 -87.259287 -92.28087 -87.25871 C -90.393432 -87.259879 -88.861731 -85.726319 -88.860563 -83.83888 Z M -88.860563 -83.83888 " transform="matrix(-1, 0.616123, -0.616123, -1, 0, 0)"/>
<path fill-rule="nonzero" fill="rgb(81.959534%, 51.371765%, 38.430786%)" fill-opacity="1" stroke-width="0.482671" stroke-linecap="butt" stroke-linejoin="round" stroke="rgb(0%, 0%, 0%)" stroke-opacity="0.984314" stroke-miterlimit="4" d="M -53.296994 -66.900004 C -53.295826 -65.012565 -54.826554 -63.47912 -56.716824 -63.479696 C -58.607094 -63.480272 -60.135964 -65.012088 -60.137132 -66.899526 C -60.136556 -68.789796 -58.607572 -70.32041 -56.717302 -70.319834 C -54.827032 -70.319258 -53.296418 -68.790274 -53.296994 -66.900004 Z M -53.296994 -66.900004 " transform="matrix(-1, 0.616123, -0.616123, -1, 0, 0)"/>
<path fill="none" stroke-width="0.482671" stroke-linecap="butt" stroke-linejoin="round" stroke="rgb(0%, 0%, 0%)" stroke-opacity="0.984314" stroke-miterlimit="4" d="M -34.243417 -89.887219 C -34.242249 -87.999781 -35.775809 -86.46808 -37.663247 -86.466912 C -39.553517 -86.467488 -41.086962 -87.998216 -41.086386 -89.888486 C -41.08581 -91.778756 -39.553994 -93.307626 -37.663725 -93.307049 C -35.776286 -93.308218 -34.242841 -91.777489 -34.243417 -89.887219 Z M -34.243417 -89.887219 " transform="matrix(-1, 0.616123, -0.616123, -1, 0, 0)"/>
<path fill="none" stroke-width="0.751181" stroke-linecap="butt" stroke-linejoin="miter" stroke="rgb(0%, 0%, 0%)" stroke-opacity="0.984314" stroke-miterlimit="4" d="M 161.582031 43.496094 L 147.109375 29.824219 "/>
<path fill="none" stroke-width="0.751181" stroke-linecap="butt" stroke-linejoin="miter" stroke="rgb(0%, 0%, 0%)" stroke-opacity="0.984314" stroke-miterlimit="4" d="M 162.515625 49.910156 L 149.703125 62.917969 "/>
<path fill="none" stroke-width="0.751181" stroke-linecap="butt" stroke-linejoin="miter" stroke="rgb(0%, 0%, 0%)" stroke-opacity="0.984314" stroke-miterlimit="4" d="M 140.835938 29.394531 L 96.699219 64.816406 "/>
<path fill="none" stroke-width="0.751181" stroke-linecap="butt" stroke-linejoin="miter" stroke="rgb(0%, 0%, 0%)" stroke-opacity="0.984314" stroke-miterlimit="4" d="M 97.730469 36.117188 L 93.398438 62.523438 "/>
<path fill="none" stroke-width="0.751181" stroke-linecap="butt" stroke-linejoin="miter" stroke="rgb(0%, 0%, 0%)" stroke-opacity="0.984314" stroke-miterlimit="4" d="M 102.097656 31.824219 L 140.039062 27.710938 "/>
<path fill="none" stroke-width="0.751181" stroke-linecap="butt" stroke-linejoin="miter" stroke="rgb(0%, 0%, 0%)" stroke-opacity="0.984314" stroke-miterlimit="4" d="M 144.828125 30.851562 L 147.34375 61.613281 "/>
<path fill="none" stroke-width="0.751181" stroke-linecap="butt" stroke-linejoin="miter" stroke="rgb(0%, 0%, 0%)" stroke-opacity="0.984314" stroke-miterlimit="4" d="M 127.285156 18.4375 L 139.722656 25.957031 "/>
<path fill="none" stroke-width="0.751181" stroke-linecap="butt" stroke-linejoin="miter" stroke="rgb(0%, 0%, 0%)" stroke-opacity="0.984314" stroke-miterlimit="4" d="M 74.476562 51.265625 L 89.867188 64.421875 "/>
<path fill="none" stroke-width="0.482671" stroke-linecap="butt" stroke-linejoin="round" stroke="rgb(0%, 0%, 0%)" stroke-opacity="0.984314" stroke-miterlimit="4" d="M -78.641508 -67.405967 C -78.64034 -65.518529 -80.1739 -63.986828 -82.061339 -63.985659 C -83.951609 -63.986236 -85.485054 -65.516964 -85.484478 -67.407234 C -85.483901 -69.297504 -83.952086 -70.826374 -82.061816 -70.825797 C -80.174378 -70.826966 -78.640932 -69.296237 -78.641508 -67.405967 Z M -78.641508 -67.405967 " transform="matrix(-1, 0.616123, -0.616123, -1, 0, 0)"/>
<path fill="none" stroke-width="0.482671" stroke-linecap="butt" stroke-linejoin="round" stroke="rgb(0%, 0%, 0%)" stroke-opacity="0.984314" stroke-miterlimit="4" d="M -26.944162 -67.206387 C -26.944738 -65.316117 -28.473722 -63.785503 -30.363992 -63.786079 C -32.254262 -63.786655 -33.784876 -65.315639 -33.7843 -67.205909 C -33.783724 -69.096179 -32.25474 -70.626793 -30.36447 -70.626217 C -28.4742 -70.625641 -26.943586 -69.096657 -26.944162 -67.206387 Z M -26.944162 -67.206387 " transform="matrix(-1, 0.616123, -0.616123, -1, 0, 0)"/>
<path fill="none" stroke-width="0.751181" stroke-linecap="butt" stroke-linejoin="miter" stroke="rgb(0%, 0%, 0%)" stroke-opacity="0.984314" stroke-miterlimit="4" d="M 120.085938 18.964844 L 101.523438 29.9375 "/>
<path fill="none" stroke-width="0.751181" stroke-linecap="butt" stroke-linejoin="miter" stroke="rgb(0%, 0%, 0%)" stroke-opacity="0.984314" stroke-miterlimit="4" d="M 94.550781 34.308594 L 74.996094 45.890625 "/>
<path fill="none" stroke-width="0.482671" stroke-linecap="butt" stroke-linejoin="round" stroke="rgb(0%, 0%, 0%)" stroke-opacity="0.984314" stroke-miterlimit="4" d="M -220.45439 -192.912958 C -220.454966 -191.022688 -221.986782 -189.493818 -223.87422 -189.49265 C -225.76449 -189.493226 -227.295104 -191.02221 -227.294528 -192.91248 C -227.293951 -194.80275 -225.764967 -196.333364 -223.874698 -196.332788 C -221.987259 -196.333956 -220.453814 -194.803227 -220.45439 -192.912958 Z M -220.45439 -192.912958 " transform="matrix(-1, 0.616123, -0.616123, -1, 0, 0)"/>
<path fill="none" stroke-width="0.482671" stroke-linecap="butt" stroke-linejoin="round" stroke="rgb(0%, 0%, 0%)" stroke-opacity="0.984314" stroke-miterlimit="4" d="M -200.103304 -174.120279 C -200.10388 -172.230009 -201.634609 -170.696564 -203.524879 -170.69714 C -205.415148 -170.697716 -206.944018 -172.229532 -206.943442 -174.119802 C -206.94461 -176.00724 -205.413881 -177.540686 -203.523611 -177.540109 C -201.636173 -177.541278 -200.104472 -176.007718 -200.103304 -174.120279 Z M -200.103304 -174.120279 " transform="matrix(-1, 0.616123, -0.616123, -1, 0, 0)"/>
<path fill-rule="nonzero" fill="rgb(62.744141%, 85.096741%, 82.743835%)" fill-opacity="1" stroke-width="0.482671" stroke-linecap="butt" stroke-linejoin="round" stroke="rgb(0%, 0%, 0%)" stroke-opacity="0.984314" stroke-miterlimit="4" d="M -178.502632 -155.073327 C -178.503208 -153.183057 -180.032192 -151.652443 -181.922462 -151.653019 C -183.812732 -151.653595 -185.343346 -153.18258 -185.34277 -155.072849 C -185.343938 -156.960288 -183.813209 -158.493733 -181.922939 -158.493157 C -180.032669 -158.492581 -178.5038 -156.960765 -178.502632 -155.073327 Z M -178.502632 -155.073327 " transform="matrix(-1, 0.616123, -0.616123, -1, 0, 0)"/>
<path fill="none" stroke-width="0.482671" stroke-linecap="butt" stroke-linejoin="round" stroke="rgb(0%, 0%, 0%)" stroke-opacity="0.984314" stroke-miterlimit="4" d="M -165.667188 -128.36824 C -165.667764 -126.47797 -167.196748 -124.947356 -169.087018 -124.947932 C -170.974456 -124.946764 -172.507902 -126.477492 -172.507326 -128.367762 C -172.508494 -130.255201 -170.974934 -131.786902 -169.087495 -131.78807 C -167.197225 -131.787494 -165.666611 -130.25851 -165.667188 -128.36824 Z M -165.667188 -128.36824 " transform="matrix(-1, 0.616123, -0.616123, -1, 0, 0)"/>
<path fill="none" stroke-width="0.482671" stroke-linecap="butt" stroke-linejoin="round" stroke="rgb(0%, 0%, 0%)" stroke-opacity="0.984314" stroke-miterlimit="4" d="M -154.063497 -163.711127 C -154.064073 -161.820857 -155.595889 -160.291987 -157.483327 -160.290819 C -159.373597 -160.291395 -160.904211 -161.820379 -160.903635 -163.710649 C -160.903059 -165.600919 -159.374075 -167.131533 -157.483805 -167.130957 C -155.596366 -167.132125 -154.062921 -165.601396 -154.063497 -163.711127 Z M -154.063497 -163.711127 " transform="matrix(-1, 0.616123, -0.616123, -1, 0, 0)"/>
<path fill="none" stroke-width="0.751181" stroke-linecap="butt" stroke-linejoin="miter" stroke="rgb(0%, 0%, 0%)" stroke-opacity="0.984314" stroke-miterlimit="4" d="M 341.832031 50.910156 L 331.242188 22.644531 "/>
<path fill="none" stroke-width="0.751181" stroke-linecap="butt" stroke-linejoin="miter" stroke="rgb(0%, 0%, 0%)" stroke-opacity="0.984314" stroke-miterlimit="4" d="M 327.585938 22.375 L 313.242188 45.5 "/>
<path fill="none" stroke-width="0.751181" stroke-linecap="butt" stroke-linejoin="miter" stroke="rgb(0%, 0%, 0%)" stroke-opacity="0.984314" stroke-miterlimit="4" d="M 274.832031 45.996094 L 260.171875 62.984375 "/>
<path fill="none" stroke-width="0.751181" stroke-linecap="butt" stroke-linejoin="miter" stroke="rgb(0%, 0%, 0%)" stroke-opacity="0.984314" stroke-miterlimit="4" d="M 249.542969 27.914062 L 257.820312 62.996094 "/>
<path fill="none" stroke-width="0.751181" stroke-linecap="butt" stroke-linejoin="miter" stroke="rgb(0%, 0%, 0%)" stroke-opacity="0.984314" stroke-miterlimit="4" d="M 278.347656 11.171875 L 325.117188 18.765625 "/>
<path fill="none" stroke-width="0.751181" stroke-linecap="butt" stroke-linejoin="miter" stroke="rgb(0%, 0%, 0%)" stroke-opacity="0.984314" stroke-miterlimit="4" d="M 338.609375 54.742188 L 314.53125 50.082031 "/>
<path fill="none" stroke-width="0.751181" stroke-linecap="butt" stroke-linejoin="miter" stroke="rgb(0%, 0%, 0%)" stroke-opacity="0.984314" stroke-miterlimit="4" d="M 298.710938 67.863281 L 309.378906 52.316406 "/>
<path fill="none" stroke-width="0.751181" stroke-linecap="butt" stroke-linejoin="miter" stroke="rgb(0%, 0%, 0%)" stroke-opacity="0.984314" stroke-miterlimit="4" d="M 279.851562 45.910156 L 293.359375 67.421875 "/>
<path fill="none" stroke-width="0.482671" stroke-linecap="butt" stroke-linejoin="round" stroke="rgb(0%, 0%, 0%)" stroke-opacity="0.984314" stroke-miterlimit="4" d="M -190.301281 -130.788059 C -190.300113 -128.90062 -191.833673 -127.368919 -193.723943 -127.369496 C -195.611381 -127.368327 -197.143082 -128.901887 -197.144251 -130.789326 C -197.143674 -132.679596 -195.610114 -134.211297 -193.722676 -134.212465 C -191.83415 -134.209057 -190.300705 -132.678329 -190.301281 -130.788059 Z M -190.301281 -130.788059 " transform="matrix(-1, 0.616123, -0.616123, -1, 0, 0)"/>
<path fill-rule="nonzero" fill="rgb(81.959534%, 51.371765%, 38.430786%)" fill-opacity="1" stroke-width="0.482671" stroke-linecap="butt" stroke-linejoin="round" stroke="rgb(0%, 0%, 0%)" stroke-opacity="0.984314" stroke-miterlimit="4" d="M -226.774604 -160.908549 C -226.775181 -159.01828 -228.30874 -157.486579 -230.19901 -157.487155 C -232.086449 -157.485987 -233.61815 -159.019547 -233.617574 -160.909817 C -233.618742 -162.797255 -232.085182 -164.328956 -230.197743 -164.330124 C -228.307473 -164.329548 -226.775772 -162.795988 -226.774604 -160.908549 Z M -226.774604 -160.908549 " transform="matrix(-1, 0.616123, -0.616123, -1, 0, 0)"/>
<path fill="none" stroke-width="0.751181" stroke-linecap="butt" stroke-linejoin="miter" stroke="rgb(0%, 0%, 0%)" stroke-opacity="0.984314" stroke-miterlimit="4" d="M 270.445312 11.789062 L 251.058594 21.464844 "/>
<path fill="none" stroke-width="0.751181" stroke-linecap="butt" stroke-linejoin="miter" stroke="rgb(0%, 0%, 0%)" stroke-opacity="0.984314" stroke-miterlimit="4" d="M 274.152344 40.722656 L 251.832031 25.769531 "/>
<path fill="none" stroke-width="0.482671" stroke-linecap="butt" stroke-linejoin="round" stroke="rgb(0%, 0%, 0%)" stroke-opacity="0.984314" stroke-miterlimit="4" d="M -179.548504 -183.002869 C -179.547336 -181.115431 -181.080896 -179.58373 -182.968335 -179.582562 C -184.858605 -179.583138 -186.390305 -181.116698 -186.391474 -183.004136 C -186.390897 -184.894406 -184.857337 -186.426107 -182.969899 -186.427276 C -181.079629 -186.426699 -179.547928 -184.893139 -179.548504 -183.002869 Z M -179.548504 -183.002869 " transform="matrix(-1, 0.616123, -0.616123, -1, 0, 0)"/>
<path fill="none" stroke-width="0.751181" stroke-linecap="butt" stroke-linejoin="miter" stroke="rgb(0%, 0%, 0%)" stroke-opacity="0.984314" stroke-miterlimit="4" d="M 299.457031 69.34375 L 339.386719 57.613281 "/>
<path fill-rule="nonzero" fill="rgb(0%, 0%, 0%)" fill-opacity="1" d="M 56.554688 7.164062 C 56.554688 5.878906 55.625 4.988281 54.457031 4.988281 C 53.644531 4.988281 53.070312 5.183594 52.476562 5.523438 L 52.558594 6.351562 C 53.210938 5.898438 53.84375 5.738281 54.457031 5.738281 C 55.050781 5.738281 55.566406 6.234375 55.566406 7.164062 L 55.566406 7.71875 C 53.664062 7.738281 52.0625 8.273438 52.0625 9.382812 C 52.0625 9.914062 52.398438 10.945312 53.507812 10.945312 C 53.683594 10.945312 54.871094 10.925781 55.605469 10.351562 L 55.605469 10.804688 L 56.554688 10.804688 Z M 55.566406 9.144531 C 55.566406 9.382812 55.566406 9.699219 55.128906 9.933594 C 54.773438 10.152344 54.277344 10.171875 54.140625 10.171875 C 53.546875 10.171875 52.972656 9.875 52.972656 9.363281 C 52.972656 8.472656 55.011719 8.390625 55.566406 8.351562 Z M 55.566406 9.144531 "/>
<path fill-rule="nonzero" fill="rgb(0%, 0%, 0%)" fill-opacity="1" d="M 59.058594 13.972656 C 59.453125 13.578125 60.304688 12.804688 60.878906 11.261719 C 61.394531 9.914062 61.472656 8.570312 61.472656 7.640625 C 61.472656 3.5625 59.652344 1.898438 59.058594 1.324219 L 58.285156 1.324219 C 58.878906 1.9375 60.484375 3.5625 60.484375 7.640625 C 60.484375 8.351562 60.441406 9.835938 59.929688 11.320312 C 59.414062 12.785156 58.703125 13.539062 58.285156 13.972656 Z M 59.058594 13.972656 "/>
<path fill-rule="nonzero" fill="rgb(0%, 0%, 0%)" fill-opacity="1" d="M 215.558594 2.039062 L 214.605469 2.039062 L 214.605469 10.804688 L 215.597656 10.804688 L 215.597656 10.230469 C 215.894531 10.507812 216.449219 10.945312 217.296875 10.945312 C 218.546875 10.945312 219.632812 9.679688 219.632812 7.996094 C 219.632812 6.433594 218.78125 5.066406 217.59375 5.066406 C 217.101562 5.066406 216.308594 5.183594 215.558594 5.796875 Z M 215.597656 6.570312 C 215.792969 6.273438 216.25 5.839844 216.941406 5.839844 C 217.695312 5.839844 218.644531 6.371094 218.644531 7.996094 C 218.644531 9.636719 217.59375 10.171875 216.824219 10.171875 C 216.328125 10.171875 215.914062 9.957031 215.597656 9.363281 Z M 215.597656 6.570312 "/>
<path fill-rule="nonzero" fill="rgb(0%, 0%, 0%)" fill-opacity="1" d="M 221.582031 13.972656 C 221.980469 13.578125 222.828125 12.804688 223.402344 11.261719 C 223.917969 9.914062 223.996094 8.570312 223.996094 7.640625 C 223.996094 3.5625 222.175781 1.898438 221.582031 1.324219 L 220.8125 1.324219 C 221.40625 1.9375 223.007812 3.5625 223.007812 7.640625 C 223.007812 8.351562 222.96875 9.835938 222.453125 11.320312 C 221.9375 12.785156 221.226562 13.539062 220.8125 13.972656 Z M 221.582031 13.972656 "/>
<path fill-rule="nonzero" fill="rgb(81.959534%, 51.371765%, 38.430786%)" fill-opacity="1" stroke-width="0.639539" stroke-linecap="butt" stroke-linejoin="round" stroke="rgb(0%, 0%, 0%)" stroke-opacity="0.984314" stroke-miterlimit="4" d="M -51.882995 -66.8999 C -51.879631 -64.229859 -54.045799 -62.064485 -56.716928 -62.065697 C -59.388056 -62.06691 -61.552343 -64.228502 -61.551131 -66.89963 C -61.55275 -69.572502 -59.388326 -71.735045 -56.715454 -71.736664 C -54.047157 -71.737197 -51.881783 -69.571029 -51.882995 -66.8999 Z M -51.882995 -66.8999 " transform="matrix(-1, 0.616123, -0.616123, -1, 0, 0)"/>
<path fill-rule="nonzero" fill="rgb(81.959534%, 51.371765%, 38.430786%)" fill-opacity="1" stroke-width="0.639539" stroke-linecap="butt" stroke-linejoin="round" stroke="rgb(0%, 0%, 0%)" stroke-opacity="0.984314" stroke-miterlimit="4" d="M -225.360605 -160.908446 C -225.361818 -158.237318 -227.527986 -156.071944 -230.196282 -156.071412 C -232.867411 -156.072624 -235.032785 -158.238792 -235.033317 -160.907089 C -235.032105 -163.578217 -232.865937 -165.743591 -230.19764 -165.744123 C -227.526512 -165.742911 -225.361138 -163.576743 -225.360605 -160.908446 Z M -225.360605 -160.908446 " transform="matrix(-1, 0.616123, -0.616123, -1, 0, 0)"/>
<path fill-rule="nonzero" fill="rgb(62.744141%, 85.096741%, 82.743835%)" fill-opacity="1" stroke-width="0.639539" stroke-linecap="butt" stroke-linejoin="round" stroke="rgb(0%, 0%, 0%)" stroke-opacity="0.984314" stroke-miterlimit="4" d="M -87.446564 -83.838777 C -87.447776 -81.167649 -89.611113 -79.00053 -92.282241 -79.001742 C -94.953369 -79.002955 -97.115912 -81.167378 -97.119275 -83.837419 C -97.118063 -86.508547 -94.951895 -88.673921 -92.280767 -88.672709 C -89.61247 -88.673241 -87.447096 -86.507073 -87.446564 -83.838777 Z M -87.446564 -83.838777 " transform="matrix(-1, 0.616123, -0.616123, -1, 0, 0)"/>
<path fill-rule="nonzero" fill="rgb(62.744141%, 85.096741%, 82.743835%)" fill-opacity="1" stroke-width="0.639539" stroke-linecap="butt" stroke-linejoin="round" stroke="rgb(0%, 0%, 0%)" stroke-opacity="0.984314" stroke-miterlimit="4" d="M -177.088633 -155.073223 C -177.087014 -152.400351 -179.251437 -150.237808 -181.92431 -150.236189 C -184.592606 -150.235657 -186.757981 -152.401825 -186.756768 -155.072953 C -186.760132 -157.742994 -184.593964 -159.908368 -181.922836 -159.907156 C -179.254539 -159.907688 -177.087421 -157.744352 -177.088633 -155.073223 Z M -177.088633 -155.073223 " transform="matrix(-1, 0.616123, -0.616123, -1, 0, 0)"/>
<path fill-rule="nonzero" fill="rgb(100%, 100%, 100%)" fill-opacity="1" stroke-width="0.639539" stroke-linecap="butt" stroke-linejoin="round" stroke="rgb(0%, 0%, 0%)" stroke-opacity="0.984314" stroke-miterlimit="4" d="M -164.250357 -128.366392 C -164.25157 -125.695264 -166.415993 -123.532721 -169.088866 -123.531102 C -171.757162 -123.530569 -173.922537 -125.696737 -173.921324 -128.367866 C -173.921857 -131.036162 -171.75852 -133.203281 -169.087392 -133.202069 C -166.416264 -133.200856 -164.251977 -131.039264 -164.250357 -128.366392 Z M -164.250357 -128.366392 " transform="matrix(-1, 0.616123, -0.616123, -1, 0, 0)"/>
<path fill-rule="nonzero" fill="rgb(100%, 100%, 100%)" fill-opacity="1" stroke-width="0.639539" stroke-linecap="butt" stroke-linejoin="round" stroke="rgb(0%, 0%, 0%)" stroke-opacity="0.984314" stroke-miterlimit="4" d="M -25.530163 -67.206283 C -25.526799 -64.536242 -27.692967 -62.370868 -30.364096 -62.37208 C -33.034137 -62.368716 -35.199511 -64.534884 -35.198299 -67.206013 C -35.199918 -69.878885 -33.035494 -72.041428 -30.364366 -72.040216 C -27.694325 -72.043579 -25.528951 -69.877411 -25.530163 -67.206283 Z M -25.530163 -67.206283 " transform="matrix(-1, 0.616123, -0.616123, -1, 0, 0)"/>
<path fill-rule="nonzero" fill="rgb(100%, 100%, 100%)" fill-opacity="1" stroke-width="0.639539" stroke-linecap="butt" stroke-linejoin="round" stroke="rgb(0%, 0%, 0%)" stroke-opacity="0.984314" stroke-miterlimit="4" d="M -32.829418 -89.887116 C -32.828886 -87.218819 -34.995054 -85.053445 -37.66335 -85.052913 C -40.334479 -85.054125 -42.501597 -87.217462 -42.500385 -89.88859 C -42.499173 -92.559718 -40.334749 -94.72226 -37.666453 -94.722793 C -34.99358 -94.724412 -32.828206 -92.558244 -32.829418 -89.887116 Z M -32.829418 -89.887116 " transform="matrix(-1, 0.616123, -0.616123, -1, 0, 0)"/>
<path fill-rule="nonzero" fill="rgb(100%, 100%, 100%)" fill-opacity="1" stroke-width="0.639539" stroke-linecap="butt" stroke-linejoin="round" stroke="rgb(0%, 0%, 0%)" stroke-opacity="0.984314" stroke-miterlimit="4" d="M -77.22751 -67.405864 C -77.226977 -64.737567 -79.393145 -62.572193 -82.061442 -62.571661 C -84.73257 -62.572873 -86.899689 -64.736209 -86.898476 -67.407338 C -86.897264 -70.078466 -84.732841 -72.241008 -82.064544 -72.241541 C -79.391671 -72.24316 -77.226297 -70.076992 -77.22751 -67.405864 Z M -77.22751 -67.405864 " transform="matrix(-1, 0.616123, -0.616123, -1, 0, 0)"/>
<path fill-rule="nonzero" fill="rgb(100%, 100%, 100%)" fill-opacity="1" stroke-width="0.639539" stroke-linecap="butt" stroke-linejoin="round" stroke="rgb(0%, 0%, 0%)" stroke-opacity="0.984314" stroke-miterlimit="4" d="M -72.496427 -113.315154 C -72.49764 -110.644026 -74.659232 -108.479739 -77.332104 -108.478119 C -80.003233 -108.479332 -82.165775 -110.643755 -82.167394 -113.316628 C -82.167927 -115.984924 -80.001759 -118.150299 -77.33063 -118.149086 C -74.662334 -118.149619 -72.495215 -115.986282 -72.496427 -113.315154 Z M -72.496427 -113.315154 " transform="matrix(-1, 0.616123, -0.616123, -1, 0, 0)"/>
<path fill-rule="nonzero" fill="rgb(100%, 100%, 100%)" fill-opacity="1" stroke-width="0.639539" stroke-linecap="butt" stroke-linejoin="round" stroke="rgb(0%, 0%, 0%)" stroke-opacity="0.984314" stroke-miterlimit="4" d="M -93.831895 -106.823707 C -93.831362 -104.15541 -95.99753 -101.990036 -98.665827 -101.989504 C -101.336955 -101.990716 -103.504074 -104.154053 -103.502861 -106.825181 C -103.501649 -109.496309 -101.337226 -111.658852 -98.667185 -111.662215 C -95.996056 -111.661003 -93.830682 -109.494835 -93.831895 -106.823707 Z M -93.831895 -106.823707 " transform="matrix(-1, 0.616123, -0.616123, -1, 0, 0)"/>
<path fill-rule="nonzero" fill="rgb(100%, 100%, 100%)" fill-opacity="1" stroke-width="0.639539" stroke-linecap="butt" stroke-linejoin="round" stroke="rgb(0%, 0%, 0%)" stroke-opacity="0.984314" stroke-miterlimit="4" d="M -219.040391 -192.912854 C -219.041603 -190.241726 -221.203195 -188.077439 -223.874324 -188.078651 C -226.547196 -188.077032 -228.709739 -190.241455 -228.711358 -192.914328 C -228.71189 -195.582625 -226.545722 -197.747999 -223.874594 -197.746787 C -221.204553 -197.75015 -219.039179 -195.583982 -219.040391 -192.912854 Z M -219.040391 -192.912854 " transform="matrix(-1, 0.616123, -0.616123, -1, 0, 0)"/>
<path fill-rule="nonzero" fill="rgb(100%, 100%, 100%)" fill-opacity="1" stroke-width="0.639539" stroke-linecap="butt" stroke-linejoin="round" stroke="rgb(0%, 0%, 0%)" stroke-opacity="0.984314" stroke-miterlimit="4" d="M -198.689305 -174.120176 C -198.690517 -171.449048 -200.853854 -169.281929 -203.524982 -169.283141 C -206.19611 -169.284353 -208.358653 -171.448777 -208.362016 -174.118818 C -208.360804 -176.789946 -206.194636 -178.95532 -203.523508 -178.954108 C -200.855211 -178.95464 -198.689837 -176.788472 -198.689305 -174.120176 Z M -198.689305 -174.120176 " transform="matrix(-1, 0.616123, -0.616123, -1, 0, 0)"/>
<path fill-rule="nonzero" fill="rgb(100%, 100%, 100%)" fill-opacity="1" d="M 290.886719 73.253906 C 289.242188 70.582031 290.074219 67.082031 292.742188 65.4375 C 295.414062 63.792969 298.914062 64.625 300.558594 67.292969 C 302.203125 69.964844 301.371094 73.464844 298.703125 75.109375 C 296.03125 76.753906 292.53125 75.921875 290.886719 73.253906 Z M 290.886719 73.253906 "/>
<g clip-path="url(#clip-0)">
<path fill="none" stroke-width="0.639539" stroke-linecap="butt" stroke-linejoin="round" stroke="rgb(0%, 0%, 0%)" stroke-opacity="0.984314" stroke-miterlimit="4" d="M -178.132761 -183.005597 C -178.133973 -180.334469 -180.300141 -178.169095 -182.968438 -178.168563 C -185.639566 -178.169775 -187.80494 -180.335943 -187.805472 -183.00424 C -187.80426 -185.675368 -185.638092 -187.840742 -182.969796 -187.841274 C -180.298667 -187.840062 -178.133293 -185.673894 -178.132761 -183.005597 Z M -178.132761 -183.005597 " transform="matrix(-1, 0.616123, -0.616123, -1, 0, 0)"/>
</g>
<path fill-rule="nonzero" fill="rgb(100%, 100%, 100%)" fill-opacity="1" stroke-width="0.639539" stroke-linecap="butt" stroke-linejoin="round" stroke="rgb(0%, 0%, 0%)" stroke-opacity="0.984314" stroke-miterlimit="4" d="M -152.649498 -163.711023 C -152.648966 -161.042726 -154.812303 -158.875608 -157.483431 -158.87682 C -160.156303 -158.875201 -162.318846 -161.039624 -162.320465 -163.712497 C -162.319253 -166.383625 -160.154829 -168.546168 -157.483701 -168.544956 C -154.81366 -168.548319 -152.648286 -166.382151 -152.649498 -163.711023 Z M -152.649498 -163.711023 " transform="matrix(-1, 0.616123, -0.616123, -1, 0, 0)"/>
<path fill-rule="nonzero" fill="rgb(100%, 100%, 100%)" fill-opacity="1" stroke-width="0.639539" stroke-linecap="butt" stroke-linejoin="round" stroke="rgb(0%, 0%, 0%)" stroke-opacity="0.984314" stroke-miterlimit="4" d="M -188.887283 -130.787955 C -188.88675 -128.119659 -191.052918 -125.954285 -193.721215 -125.953752 C -196.392343 -125.954965 -198.559462 -128.118301 -198.558249 -130.789429 C -198.557037 -133.460557 -196.392614 -135.6231 -193.722573 -135.626464 C -191.051444 -135.625252 -188.88607 -133.459084 -188.887283 -130.787955 Z M -188.887283 -130.787955 " transform="matrix(-1, 0.616123, -0.616123, -1, 0, 0)"/>
<path fill-rule="nonzero" fill="rgb(0%, 0%, 0%)" fill-opacity="1" d="M 73.601562 49.558594 C 73.585938 48.304688 72.804688 47.480469 71.546875 47.480469 C 71.378906 47.492188 71.003906 47.535156 70.78125 47.617188 L 71.003906 45.996094 L 73.183594 45.996094 L 73.183594 45.355469 L 70.554688 45.355469 L 70.179688 48.402344 C 70.667969 48.164062 70.78125 48.105469 71.410156 48.105469 C 72.316406 48.105469 72.957031 48.609375 72.957031 49.558594 C 72.957031 50.539062 72.332031 51.011719 71.410156 51.011719 C 70.792969 51.011719 70.390625 50.886719 69.941406 50.609375 L 69.941406 51.375 C 70.347656 51.53125 70.949219 51.640625 71.421875 51.640625 C 72.75 51.640625 73.601562 50.914062 73.601562 49.558594 Z M 73.601562 49.558594 "/>
<path fill-rule="nonzero" fill="rgb(0%, 0%, 0%)" fill-opacity="1" d="M 95.105469 68.296875 L 95.105469 67.652344 L 94.269531 67.652344 L 94.269531 63.601562 L 93.375 63.601562 L 90.984375 67.511719 L 90.984375 68.296875 L 93.597656 68.296875 L 93.597656 69.761719 L 94.269531 69.761719 L 94.269531 68.296875 Z M 93.597656 67.652344 L 91.488281 67.652344 L 93.597656 64.257812 Z M 93.597656 67.652344 "/>
<path fill-rule="nonzero" fill="rgb(0%, 0%, 0%)" fill-opacity="1" d="M 144.746094 30.0625 L 144.746094 23.902344 L 144.007812 23.902344 L 143.125 24.613281 L 143.125 25.3125 L 144.046875 24.558594 L 144.046875 30.0625 Z M 144.746094 30.0625 "/>
<path fill-rule="nonzero" fill="rgb(0%, 0%, 0%)" fill-opacity="1" d="M 99.730469 35.089844 L 99.730469 34.449219 L 96.964844 34.449219 L 99.074219 32.074219 C 99.421875 31.585938 99.6875 31.207031 99.6875 30.566406 C 99.6875 29.421875 98.851562 28.820312 97.789062 28.820312 C 97.1875 28.820312 96.683594 29 96.183594 29.210938 L 96.183594 30.007812 C 96.683594 29.6875 97.1875 29.449219 97.804688 29.449219 C 98.5 29.449219 99.046875 29.882812 99.046875 30.609375 C 99.046875 31.097656 98.65625 31.699219 98.332031 32.03125 C 98.234375 32.171875 96.292969 34.296875 96.140625 34.449219 L 96.140625 35.089844 Z M 99.730469 35.089844 "/>
<path fill-rule="nonzero" fill="rgb(0%, 0%, 0%)" fill-opacity="1" d="M 125.449219 18.132812 C 125.449219 17.445312 125.03125 16.816406 124.25 16.59375 C 124.921875 16.34375 125.3125 15.855469 125.3125 15.210938 C 125.3125 14.136719 124.417969 13.648438 123.441406 13.648438 C 122.949219 13.648438 122.351562 13.757812 121.917969 13.898438 L 121.917969 14.582031 C 122.390625 14.414062 122.796875 14.277344 123.371094 14.277344 C 124.097656 14.277344 124.683594 14.542969 124.683594 15.324219 C 124.667969 16.035156 124.097656 16.328125 123.398438 16.328125 L 122.742188 16.328125 L 122.742188 16.929688 L 123.371094 16.929688 C 124.179688 16.929688 124.824219 17.277344 124.824219 18.132812 C 124.824219 19.136719 124.125 19.417969 123.214844 19.417969 C 122.574219 19.417969 122.183594 19.304688 121.734375 18.996094 L 121.734375 19.75 C 122.183594 19.90625 122.699219 20.042969 123.230469 20.042969 C 124.472656 20.042969 125.449219 19.484375 125.449219 18.132812 Z M 125.449219 18.132812 "/>
<path fill-rule="nonzero" fill="rgb(0%, 0%, 0%)" fill-opacity="1" d="M 162.53125 46.355469 L 162.53125 46.453125 C 162.53125 48.28125 163.03125 49.234375 164.570312 49.234375 C 165.617188 49.21875 166.441406 48.4375 166.441406 47.261719 C 166.441406 46.089844 165.839844 45.183594 164.609375 45.183594 C 164.039062 45.210938 163.632812 45.308594 163.214844 45.796875 C 163.226562 44.066406 164.441406 43.410156 165.660156 43.410156 L 165.699219 43.410156 L 165.714844 42.835938 C 164.207031 42.847656 162.53125 43.644531 162.53125 46.355469 Z M 163.226562 47.261719 C 163.253906 46.410156 163.703125 45.769531 164.570312 45.769531 C 165.40625 45.769531 165.796875 46.4375 165.796875 47.261719 C 165.796875 48.085938 165.40625 48.644531 164.570312 48.644531 C 163.730469 48.644531 163.226562 48.117188 163.226562 47.261719 Z M 163.226562 47.261719 "/>
<path fill-rule="nonzero" fill="rgb(0%, 0%, 0%)" fill-opacity="1" d="M 148.964844 62.894531 L 148.964844 62.589844 L 145.332031 62.589844 L 145.332031 63.246094 L 148.140625 63.246094 L 146.15625 68.75 L 146.855469 68.75 Z M 148.964844 62.894531 "/>
<path fill-rule="nonzero" fill="rgb(0%, 0%, 0%)" fill-opacity="1" d="M 312.632812 49.785156 C 312.621094 48.527344 311.835938 47.703125 310.578125 47.703125 C 310.414062 47.71875 310.035156 47.757812 309.8125 47.84375 L 310.035156 46.222656 L 312.214844 46.222656 L 312.214844 45.582031 L 309.589844 45.582031 L 309.210938 48.625 C 309.699219 48.386719 309.8125 48.332031 310.441406 48.332031 C 311.347656 48.332031 311.992188 48.835938 311.992188 49.785156 C 311.992188 50.761719 311.363281 51.238281 310.441406 51.238281 C 309.824219 51.238281 309.421875 51.113281 308.972656 50.832031 L 308.972656 51.601562 C 309.378906 51.753906 309.980469 51.867188 310.453125 51.867188 C 311.78125 51.867188 312.632812 51.140625 312.632812 49.785156 Z M 312.632812 49.785156 "/>
<path fill-rule="nonzero" fill="rgb(0%, 0%, 0%)" fill-opacity="1" d="M 260.410156 68.296875 L 260.410156 67.652344 L 259.574219 67.652344 L 259.574219 63.601562 L 258.679688 63.601562 L 256.289062 67.511719 L 256.289062 68.296875 L 258.902344 68.296875 L 258.902344 69.761719 L 259.574219 69.761719 L 259.574219 68.296875 Z M 258.902344 67.652344 L 256.792969 67.652344 L 258.902344 64.257812 Z M 258.902344 67.652344 "/>
<path fill-rule="nonzero" fill="rgb(0%, 0%, 0%)" fill-opacity="1" d="M 278.277344 46.066406 L 278.277344 39.90625 L 277.535156 39.90625 L 276.65625 40.617188 L 276.65625 41.316406 L 277.578125 40.5625 L 277.578125 46.066406 Z M 278.277344 46.066406 "/>
<path fill-rule="nonzero" fill="rgb(0%, 0%, 0%)" fill-opacity="1" d="M 331.132812 22.214844 L 331.132812 21.570312 L 328.367188 21.570312 L 330.476562 19.195312 C 330.824219 18.707031 331.089844 18.332031 331.089844 17.6875 C 331.089844 16.542969 330.25 15.941406 329.191406 15.941406 C 328.589844 15.941406 328.085938 16.125 327.582031 16.332031 L 327.582031 17.128906 C 328.085938 16.808594 328.589844 16.570312 329.203125 16.570312 C 329.902344 16.570312 330.445312 17.003906 330.445312 17.730469 C 330.445312 18.21875 330.054688 18.820312 329.734375 19.15625 C 329.636719 19.296875 327.695312 21.417969 327.542969 21.570312 L 327.542969 22.214844 Z M 331.132812 22.214844 "/>
<path fill-rule="nonzero" fill="rgb(0%, 0%, 0%)" fill-opacity="1" d="M 276.164062 12.71875 C 276.164062 12.035156 275.742188 11.40625 274.960938 11.179688 C 275.632812 10.929688 276.023438 10.441406 276.023438 9.796875 C 276.023438 8.722656 275.128906 8.234375 274.152344 8.234375 C 273.664062 8.234375 273.0625 8.347656 272.628906 8.484375 L 272.628906 9.171875 C 273.105469 9.003906 273.507812 8.863281 274.082031 8.863281 C 274.808594 8.863281 275.394531 9.128906 275.394531 9.910156 C 275.378906 10.621094 274.808594 10.917969 274.109375 10.917969 L 273.453125 10.917969 L 273.453125 11.515625 L 274.082031 11.515625 C 274.890625 11.515625 275.535156 11.867188 275.535156 12.71875 C 275.535156 13.722656 274.835938 14.003906 273.929688 14.003906 C 273.285156 14.003906 272.894531 13.890625 272.445312 13.582031 L 272.445312 14.339844 C 272.894531 14.492188 273.410156 14.632812 273.941406 14.632812 C 275.183594 14.632812 276.164062 14.074219 276.164062 12.71875 Z M 276.164062 12.71875 "/>
<path fill-rule="nonzero" fill="rgb(0%, 0%, 0%)" fill-opacity="1" d="M 340.777344 55.300781 L 340.777344 55.398438 C 340.777344 57.226562 341.28125 58.175781 342.816406 58.175781 C 343.863281 58.164062 344.6875 57.378906 344.6875 56.207031 C 344.6875 55.035156 344.089844 54.125 342.859375 54.125 C 342.285156 54.152344 341.882812 54.253906 341.460938 54.742188 C 341.476562 53.007812 342.691406 52.351562 343.90625 52.351562 L 343.949219 52.351562 L 343.960938 51.78125 C 342.453125 51.792969 340.777344 52.589844 340.777344 55.300781 Z M 341.476562 56.207031 C 341.503906 55.355469 341.949219 54.714844 342.816406 54.714844 C 343.65625 54.714844 344.046875 55.382812 344.046875 56.207031 C 344.046875 57.03125 343.65625 57.589844 342.816406 57.589844 C 341.980469 57.589844 341.476562 57.058594 341.476562 56.207031 Z M 341.476562 56.207031 "/>
<path fill-rule="nonzero" fill="rgb(0%, 0%, 0%)" fill-opacity="1" d="M 297.539062 67.5 L 297.539062 67.191406 L 293.90625 67.191406 L 293.90625 67.847656 L 296.714844 67.847656 L 294.730469 73.351562 L 295.429688 73.351562 Z M 297.539062 67.5 "/>
<path fill-rule="nonzero" fill="rgb(0%, 0%, 0%)" fill-opacity="1" d="M 250.109375 25.542969 C 250.097656 24.816406 249.761719 24.246094 249.007812 23.980469 C 249.566406 23.726562 250 23.335938 250 22.652344 C 249.984375 21.578125 249.175781 20.988281 248.199219 20.988281 C 247.207031 20.988281 246.382812 21.578125 246.382812 22.652344 C 246.382812 23.378906 246.757812 23.726562 247.472656 23.980469 C 246.675781 24.230469 246.242188 24.804688 246.242188 25.542969 C 246.242188 26.785156 246.996094 27.386719 248.199219 27.386719 C 249.386719 27.386719 250.109375 26.785156 250.109375 25.542969 Z M 249.355469 22.652344 C 249.355469 23.28125 248.828125 23.699219 248.199219 23.699219 L 248.167969 23.699219 C 247.554688 23.699219 247.023438 23.226562 247.011719 22.652344 C 247.066406 21.84375 247.5 21.5625 248.199219 21.5625 C 248.796875 21.5625 249.328125 21.828125 249.355469 22.652344 Z M 249.496094 25.542969 C 249.496094 26.367188 248.964844 26.800781 248.199219 26.800781 C 247.386719 26.800781 246.882812 26.382812 246.882812 25.542969 C 246.882812 24.71875 247.402344 24.300781 248.199219 24.300781 C 248.980469 24.300781 249.496094 24.746094 249.496094 25.542969 Z M 249.496094 25.542969 "/>
</svg>
