<?xml version="1.0" encoding="UTF-8"?>
<svg xmlns="http://www.w3.org/2000/svg" xmlns:xlink="http://www.w3.org/1999/xlink" width="415.916382pt" height="101.77356pt" viewBox="0 0 415.916382 101.77356">
<defs>
<clipPath id="clip-0">
<path clip-rule="nonzero" d="M 0 0 L 135 0 L 135 101.773438 L 0 101.773438 Z M 0 0 "/>
</clipPath>
<clipPath id="clip-1">
<path clip-rule="nonzero" d="M 61 76 L 66 76 L 66 101.773438 L 61 101.773438 Z M 61 76 "/>
</clipPath>
<clipPath id="clip-2">
<path clip-rule="nonzero" d="M 102 84 L 107 84 L 107 101.773438 L 102 101.773438 Z M 102 84 "/>
</clipPath>
<clipPath id="clip-3">
<path clip-rule="nonzero" d="M 76 80 L 85 80 L 85 101.773438 L 76 101.773438 Z M 76 80 "/>
</clipPath>
<clipPath id="clip-4">
<path clip-rule="nonzero" d="M 0 0 L 136 0 L 136 101.773438 L 0 101.773438 Z M 0 0 "/>
</clipPath>
<clipPath id="clip-5">
<path clip-rule="nonzero" d="M 140 0 L 276 0 L 276 101.773438 L 140 101.773438 Z M 140 0 "/>
</clipPath>
<clipPath id="clip-6">
<path clip-rule="nonzero" d="M 280 0 L 415.917969 0 L 415.917969 101.773438 L 280 101.773438 Z M 280 0 "/>
</clipPath>
</defs>
<g clip-path="url(#clip-0)">
<path fill-rule="evenodd" fill="rgb(91.763306%, 88.233948%, 85.096741%)" fill-opacity="1" d="M 0.929688 0.746094 L 134.589844 0.746094 L 134.589844 101.238281 L 0.929688 101.238281 Z M 0.929688 0.746094 "/>
</g>
<path fill-rule="evenodd" fill="rgb(84.70459%, 90.979004%, 78.430176%)" fill-opacity="1" d="M 45.660156 58.386719 L 45.828125 57.960938 L 47.511719 56.59375 L 48.652344 55.347656 L 48.972656 55.242188 L 49.367188 55.304688 L 49.746094 55.578125 L 53.953125 59.785156 L 54.085938 60.207031 L 53.585938 61.425781 L 53.3125 61.652344 L 52.691406 61.742188 L 45.769531 58.75 L 45.660156 58.386719 "/>
<path fill="none" stroke-width="0.998662" stroke-linecap="square" stroke-linejoin="bevel" stroke="rgb(72.547913%, 83.135986%, 93.331909%)" stroke-opacity="1" stroke-miterlimit="4" d="M 11.171875 72.332031 L 13.917969 72.582031 L 14.996094 73.515625 L 14.871094 73.996094 L 15.566406 75.128906 L 16.691406 76.222656 L 18.203125 77.113281 L 20.34375 77.726562 L 41.328125 79.0625 L 47.421875 79.480469 L 61.019531 82.660156 L 81.847656 86.191406 L 93.566406 88.148438 L 99.0625 88.652344 L 102.957031 89.457031 L 105.539062 89.757812 L 110.753906 91.421875 L 111.335938 90.980469 L 116.808594 92.300781 L 119.023438 93.15625 "/>
<path fill-rule="evenodd" fill="rgb(72.547913%, 83.135986%, 93.331909%)" fill-opacity="1" stroke-width="0.399465" stroke-linecap="square" stroke-linejoin="bevel" stroke="rgb(72.547913%, 83.135986%, 93.331909%)" stroke-opacity="1" stroke-miterlimit="4" d="M 90.394531 16.734375 L 90.335938 13.535156 L 89.335938 11.0625 L 89.40625 9.792969 L 90.019531 9.164062 L 91.714844 9.460938 L 93.257812 10.164062 L 94.648438 11.535156 L 94.683594 11.972656 L 101.058594 17.84375 L 102.054688 22.105469 L 103.21875 24.527344 L 103.207031 28.101562 L 100.828125 28.1875 L 98.660156 27.492188 L 97.558594 26.480469 L 96.652344 26.125 L 90.726562 26.285156 L 89.292969 20.546875 L 90.121094 19.136719 L 90.390625 16.734375 "/>
<path fill-rule="evenodd" fill="rgb(72.547913%, 83.135986%, 93.331909%)" fill-opacity="1" stroke-width="0.399465" stroke-linecap="square" stroke-linejoin="bevel" stroke="rgb(72.547913%, 83.135986%, 93.331909%)" stroke-opacity="1" stroke-miterlimit="4" d="M 67.015625 25.667969 L 66.082031 23.710938 L 66.1875 22.875 L 67 22.007812 L 73.152344 22.316406 L 73.523438 21.761719 L 73.601562 20.21875 L 73.996094 19.746094 L 75.4375 19.492188 L 76.59375 20.398438 L 77.320312 21.34375 L 77.335938 22.589844 L 76.226562 24.261719 L 73.570312 26.125 L 72.335938 25.867188 L 71.171875 26.75 L 71.339844 28.21875 L 72.054688 29.433594 L 72.179688 31.363281 L 71.34375 32.148438 L 69.78125 31.988281 L 68.738281 30.871094 L 68.046875 29.738281 L 67.015625 25.667969 "/>
<path fill-rule="evenodd" fill="rgb(72.547913%, 83.135986%, 93.331909%)" fill-opacity="1" stroke-width="0.399465" stroke-linecap="square" stroke-linejoin="bevel" stroke="rgb(72.547913%, 83.135986%, 93.331909%)" stroke-opacity="1" stroke-miterlimit="4" d="M 93.949219 46.765625 L 92.847656 46.648438 L 90.691406 43.894531 L 90.140625 42.628906 L 90.054688 41.136719 L 90.816406 40.105469 L 91.691406 39.753906 L 92.953125 40.09375 L 95.464844 43.453125 L 95.433594 45.160156 L 94.695312 46.273438 L 93.949219 46.765625 "/>
<path fill-rule="evenodd" fill="rgb(93.72406%, 90.979004%, 87.841797%)" fill-opacity="1" d="M 66.191406 75.214844 L 66.347656 73.785156 L 66.734375 73.828125 L 66.839844 72.875 L 68.257812 73.027344 L 68.488281 70.921875 L 70.339844 71.125 L 70.109375 73.222656 L 71.820312 73.410156 L 71.484375 76.496094 L 66.507812 75.949219 L 66.585938 75.257812 L 66.191406 75.214844 "/>
<path fill="none" stroke-width="0.79893" stroke-linecap="round" stroke-linejoin="round" stroke="rgb(56.077576%, 56.077576%, 56.077576%)" stroke-opacity="1" stroke-miterlimit="4" d="M 21.921875 39.25 L 20.742188 39.289062 "/>
<path fill="none" stroke-width="0.79893" stroke-linecap="round" stroke-linejoin="round" stroke="rgb(56.077576%, 56.077576%, 56.077576%)" stroke-opacity="1" stroke-miterlimit="4" d="M 63.371094 48.265625 L 66.570312 40.464844 "/>
<path fill="none" stroke-width="0.79893" stroke-linecap="round" stroke-linejoin="round" stroke="rgb(56.077576%, 56.077576%, 56.077576%)" stroke-opacity="1" stroke-miterlimit="4" d="M 110.664062 53.03125 L 110.683594 51.003906 "/>
<path fill="none" stroke-width="0.79893" stroke-linecap="round" stroke-linejoin="round" stroke="rgb(56.077576%, 56.077576%, 56.077576%)" stroke-opacity="1" stroke-miterlimit="4" d="M 75.253906 14.902344 L 75.296875 0.867188 "/>
<path fill="none" stroke-width="0.79893" stroke-linecap="round" stroke-linejoin="round" stroke="rgb(56.077576%, 56.077576%, 56.077576%)" stroke-opacity="1" stroke-miterlimit="4" d="M 83.664062 80.554688 L 65.511719 77.269531 "/>
<path fill="none" stroke-width="0.79893" stroke-linecap="round" stroke-linejoin="round" stroke="rgb(56.077576%, 56.077576%, 56.077576%)" stroke-opacity="1" stroke-miterlimit="4" d="M 40.761719 14.867188 L 40.542969 0.398438 "/>
<path fill="none" stroke-width="0.79893" stroke-linecap="round" stroke-linejoin="round" stroke="rgb(56.077576%, 56.077576%, 56.077576%)" stroke-opacity="1" stroke-miterlimit="4" d="M 44.773438 39.25 L 44.785156 52.433594 L 44.214844 53.046875 L 43.210938 53.246094 L 37.8125 53.175781 L 37.039062 52.695312 L 36.867188 42.46875 L 36.839844 39.257812 "/>
<path fill="none" stroke-width="0.79893" stroke-linecap="round" stroke-linejoin="round" stroke="rgb(56.077576%, 56.077576%, 56.077576%)" stroke-opacity="1" stroke-miterlimit="4" d="M 71.46875 33.035156 L 57.722656 25.460938 "/>
<path fill="none" stroke-width="0.79893" stroke-linecap="round" stroke-linejoin="round" stroke="rgb(56.077576%, 56.077576%, 56.077576%)" stroke-opacity="1" stroke-miterlimit="4" d="M 110.683594 51.003906 L 106.894531 51.214844 "/>
<path fill="none" stroke-width="0.79893" stroke-linecap="round" stroke-linejoin="round" stroke="rgb(56.077576%, 56.077576%, 56.077576%)" stroke-opacity="1" stroke-miterlimit="4" d="M 79.839844 49.070312 L 77.132812 46.285156 L 71.953125 42.652344 L 66.570312 40.464844 "/>
<path fill="none" stroke-width="0.79893" stroke-linecap="round" stroke-linejoin="round" stroke="rgb(56.077576%, 56.077576%, 56.077576%)" stroke-opacity="1" stroke-miterlimit="4" d="M 46.644531 27.011719 L 44.273438 29.289062 L 42.035156 30.460938 L 34.371094 30.71875 "/>
<path fill="none" stroke-width="0.79893" stroke-linecap="round" stroke-linejoin="round" stroke="rgb(56.077576%, 56.077576%, 56.077576%)" stroke-opacity="1" stroke-miterlimit="4" d="M 44.773438 39.25 L 36.847656 39.261719 "/>
<path fill="none" stroke-width="0.79893" stroke-linecap="round" stroke-linejoin="round" stroke="rgb(56.077576%, 56.077576%, 56.077576%)" stroke-opacity="1" stroke-miterlimit="4" d="M 28.414062 39.285156 L 21.921875 39.25 "/>
<path fill="none" stroke-width="0.79893" stroke-linecap="round" stroke-linejoin="round" stroke="rgb(56.077576%, 56.077576%, 56.077576%)" stroke-opacity="1" stroke-miterlimit="4" d="M 62.4375 50.664062 L 63.371094 48.265625 "/>
<path fill="none" stroke-width="0.79893" stroke-linecap="round" stroke-linejoin="round" stroke="rgb(56.077576%, 56.077576%, 56.077576%)" stroke-opacity="1" stroke-miterlimit="4" d="M 36.847656 39.257812 L 28.414062 39.289062 "/>
<path fill="none" stroke-width="0.79893" stroke-linecap="round" stroke-linejoin="round" stroke="rgb(56.077576%, 56.077576%, 56.077576%)" stroke-opacity="1" stroke-miterlimit="4" d="M 83.664062 80.554688 L 86.214844 73.539062 L 86.789062 67.941406 L 86.175781 62.214844 "/>
<path fill="none" stroke-width="0.79893" stroke-linecap="round" stroke-linejoin="round" stroke="rgb(56.077576%, 56.077576%, 56.077576%)" stroke-opacity="1" stroke-miterlimit="4" d="M 105.726562 84.808594 L 106.898438 76.910156 "/>
<path fill="none" stroke-width="0.79893" stroke-linecap="round" stroke-linejoin="round" stroke="rgb(56.077576%, 56.077576%, 56.077576%)" stroke-opacity="1" stroke-miterlimit="4" d="M 46.644531 27.011719 L 52.625 31.886719 "/>
<path fill="none" stroke-width="0.79893" stroke-linecap="round" stroke-linejoin="round" stroke="rgb(56.077576%, 56.077576%, 56.077576%)" stroke-opacity="1" stroke-miterlimit="4" d="M 60.488281 55.378906 L 62.4375 50.664062 "/>
<path fill="none" stroke-width="0.79893" stroke-linecap="round" stroke-linejoin="round" stroke="rgb(56.077576%, 56.077576%, 56.077576%)" stroke-opacity="1" stroke-miterlimit="4" d="M 109.515625 61.609375 L 110.046875 57.363281 "/>
<path fill="none" stroke-width="0.79893" stroke-linecap="round" stroke-linejoin="round" stroke="rgb(56.077576%, 56.077576%, 56.077576%)" stroke-opacity="1" stroke-miterlimit="4" d="M 66.570312 40.464844 L 68.941406 35.738281 L 71.46875 33.035156 "/>
<path fill="none" stroke-width="0.79893" stroke-linecap="round" stroke-linejoin="round" stroke="rgb(56.077576%, 56.077576%, 56.077576%)" stroke-opacity="1" stroke-miterlimit="4" d="M 49.445312 86.089844 L 41.484375 84.917969 "/>
<path fill="none" stroke-width="0.79893" stroke-linecap="round" stroke-linejoin="round" stroke="rgb(56.077576%, 56.077576%, 56.077576%)" stroke-opacity="1" stroke-miterlimit="4" d="M 59.394531 58.035156 L 56.644531 56.519531 L 52.804688 52.589844 L 52.59375 51.328125 L 52.613281 39.238281 "/>
<path fill="none" stroke-width="0.79893" stroke-linecap="round" stroke-linejoin="round" stroke="rgb(56.077576%, 56.077576%, 56.077576%)" stroke-opacity="1" stroke-miterlimit="4" d="M 66.570312 40.464844 L 62.003906 39.6875 "/>
<path fill="none" stroke-width="0.79893" stroke-linecap="round" stroke-linejoin="round" stroke="rgb(56.077576%, 56.077576%, 56.077576%)" stroke-opacity="1" stroke-miterlimit="4" d="M 55.335938 67.890625 L 61.941406 68.765625 "/>
<path fill="none" stroke-width="0.79893" stroke-linecap="round" stroke-linejoin="round" stroke="rgb(56.077576%, 56.077576%, 56.077576%)" stroke-opacity="1" stroke-miterlimit="4" d="M 104.5 16.972656 L 102.933594 10.707031 "/>
<path fill="none" stroke-width="0.79893" stroke-linecap="round" stroke-linejoin="round" stroke="rgb(56.077576%, 56.077576%, 56.077576%)" stroke-opacity="1" stroke-miterlimit="4" d="M 76.847656 29.980469 L 84.453125 27.953125 "/>
<path fill="none" stroke-width="0.79893" stroke-linecap="round" stroke-linejoin="round" stroke="rgb(56.077576%, 56.077576%, 56.077576%)" stroke-opacity="1" stroke-miterlimit="4" d="M 30.324219 68.808594 L 29.246094 66.816406 L 28.4375 62.785156 "/>
<path fill="none" stroke-width="0.79893" stroke-linecap="round" stroke-linejoin="round" stroke="rgb(56.077576%, 56.077576%, 56.077576%)" stroke-opacity="1" stroke-miterlimit="4" d="M 35.964844 73.691406 L 33.996094 72.742188 L 31.121094 69.964844 "/>
<path fill="none" stroke-width="0.79893" stroke-linecap="round" stroke-linejoin="round" stroke="rgb(56.077576%, 56.077576%, 56.077576%)" stroke-opacity="1" stroke-miterlimit="4" d="M 63.71875 18.074219 L 62.585938 19.464844 "/>
<path fill="none" stroke-width="0.79893" stroke-linecap="round" stroke-linejoin="round" stroke="rgb(56.077576%, 56.077576%, 56.077576%)" stroke-opacity="1" stroke-miterlimit="4" d="M 105.917969 47.1875 L 97.59375 47.886719 "/>
<path fill="none" stroke-width="0.79893" stroke-linecap="round" stroke-linejoin="round" stroke="rgb(56.077576%, 56.077576%, 56.077576%)" stroke-opacity="1" stroke-miterlimit="4" d="M 94.824219 61.082031 L 86.175781 62.214844 "/>
<path fill="none" stroke-width="0.79893" stroke-linecap="round" stroke-linejoin="round" stroke="rgb(56.077576%, 56.077576%, 56.077576%)" stroke-opacity="1" stroke-miterlimit="4" d="M 47.835938 96.03125 L 48.460938 91.953125 L 48.660156 90.339844 L 49.445312 86.089844 "/>
<path fill="none" stroke-width="0.79893" stroke-linecap="round" stroke-linejoin="round" stroke="rgb(56.077576%, 56.077576%, 56.077576%)" stroke-opacity="1" stroke-miterlimit="4" d="M 52.617188 39.238281 L 44.773438 39.246094 "/>
<path fill="none" stroke-width="0.79893" stroke-linecap="round" stroke-linejoin="round" stroke="rgb(56.077576%, 56.077576%, 56.077576%)" stroke-opacity="1" stroke-miterlimit="4" d="M 100.414062 66.996094 L 100.417969 66.980469 L 100.070312 66.65625 L 95.082031 66.0625 "/>
<g clip-path="url(#clip-1)">
<path fill="none" stroke-width="0.79893" stroke-linecap="round" stroke-linejoin="round" stroke="rgb(56.077576%, 56.077576%, 56.077576%)" stroke-opacity="1" stroke-miterlimit="4" d="M 61.679688 101.277344 L 65.511719 77.269531 "/>
</g>
<path fill="none" stroke-width="0.79893" stroke-linecap="round" stroke-linejoin="round" stroke="rgb(56.077576%, 56.077576%, 56.077576%)" stroke-opacity="1" stroke-miterlimit="4" d="M 58.453125 60.175781 L 59.394531 58.035156 "/>
<path fill="none" stroke-width="0.79893" stroke-linecap="round" stroke-linejoin="round" stroke="rgb(56.077576%, 56.077576%, 56.077576%)" stroke-opacity="1" stroke-miterlimit="4" d="M 95.082031 66.0625 L 95.074219 66.058594 L 94.824219 61.082031 "/>
<path fill="none" stroke-width="0.79893" stroke-linecap="round" stroke-linejoin="round" stroke="rgb(56.077576%, 56.077576%, 56.077576%)" stroke-opacity="1" stroke-miterlimit="4" d="M 52.625 31.886719 L 52.617188 39.238281 "/>
<g clip-path="url(#clip-2)">
<path fill="none" stroke-width="0.79893" stroke-linecap="round" stroke-linejoin="round" stroke="rgb(56.077576%, 56.077576%, 56.077576%)" stroke-opacity="1" stroke-miterlimit="4" d="M 103.15625 101.308594 L 105.726562 84.808594 "/>
</g>
<path fill="none" stroke-width="0.79893" stroke-linecap="round" stroke-linejoin="round" stroke="rgb(56.077576%, 56.077576%, 56.077576%)" stroke-opacity="1" stroke-miterlimit="4" d="M 52.144531 75.855469 L 55.335938 67.890625 "/>
<path fill="none" stroke-width="0.79893" stroke-linecap="round" stroke-linejoin="round" stroke="rgb(56.077576%, 56.077576%, 56.077576%)" stroke-opacity="1" stroke-miterlimit="4" d="M 49.445312 86.089844 L 50.007812 82.605469 L 52.144531 75.855469 "/>
<path fill="none" stroke-width="0.79893" stroke-linecap="round" stroke-linejoin="round" stroke="rgb(56.077576%, 56.077576%, 56.077576%)" stroke-opacity="1" stroke-miterlimit="4" d="M 112.859375 50.59375 L 110.683594 51.003906 "/>
<path fill="none" stroke-width="0.79893" stroke-linecap="round" stroke-linejoin="round" stroke="rgb(56.077576%, 56.077576%, 56.077576%)" stroke-opacity="1" stroke-miterlimit="4" d="M 80.804688 50.21875 L 79.839844 49.070312 "/>
<path fill="none" stroke-width="0.79893" stroke-linecap="round" stroke-linejoin="round" stroke="rgb(56.077576%, 56.077576%, 56.077576%)" stroke-opacity="1" stroke-miterlimit="4" d="M 86.175781 62.214844 L 84.554688 56.433594 L 80.804688 50.21875 "/>
<path fill="none" stroke-width="0.79893" stroke-linecap="round" stroke-linejoin="round" stroke="rgb(56.077576%, 56.077576%, 56.077576%)" stroke-opacity="1" stroke-miterlimit="4" d="M 109.539062 37.246094 L 104.5 16.972656 "/>
<path fill="none" stroke-width="0.79893" stroke-linecap="round" stroke-linejoin="round" stroke="rgb(56.077576%, 56.077576%, 56.077576%)" stroke-opacity="1" stroke-miterlimit="4" d="M 106.894531 51.214844 L 105.917969 47.1875 "/>
<path fill="none" stroke-width="0.79893" stroke-linecap="round" stroke-linejoin="round" stroke="rgb(56.077576%, 56.077576%, 56.077576%)" stroke-opacity="1" stroke-miterlimit="4" d="M 105.726562 84.808594 L 91.335938 82.035156 L 83.664062 80.554688 "/>
<path fill="none" stroke-width="0.79893" stroke-linecap="round" stroke-linejoin="round" stroke="rgb(56.077576%, 56.077576%, 56.077576%)" stroke-opacity="1" stroke-miterlimit="4" d="M 84.453125 27.953125 L 81.585938 17.734375 L 79.148438 15.449219 L 75.253906 14.902344 "/>
<path fill="none" stroke-width="0.79893" stroke-linecap="round" stroke-linejoin="round" stroke="rgb(56.077576%, 56.077576%, 56.077576%)" stroke-opacity="1" stroke-miterlimit="4" d="M 94.824219 61.082031 L 94.734375 58.378906 L 92.515625 52.453125 L 93.265625 47.015625 L 93.007812 44.472656 "/>
<path fill="none" stroke-width="0.79893" stroke-linecap="round" stroke-linejoin="round" stroke="rgb(56.077576%, 56.077576%, 56.077576%)" stroke-opacity="1" stroke-miterlimit="4" d="M 111.476562 45.015625 L 109.539062 37.246094 "/>
<path fill="none" stroke-width="0.79893" stroke-linecap="round" stroke-linejoin="round" stroke="rgb(56.077576%, 56.077576%, 56.077576%)" stroke-opacity="1" stroke-miterlimit="4" d="M 55.335938 67.890625 L 58.453125 60.175781 "/>
<path fill="none" stroke-width="0.79893" stroke-linecap="round" stroke-linejoin="round" stroke="rgb(56.077576%, 56.077576%, 56.077576%)" stroke-opacity="1" stroke-miterlimit="4" d="M 98.828125 74.980469 L 100.414062 66.996094 "/>
<path fill="none" stroke-width="0.79893" stroke-linecap="round" stroke-linejoin="round" stroke="rgb(56.077576%, 56.077576%, 56.077576%)" stroke-opacity="1" stroke-miterlimit="4" d="M 59.394531 58.035156 L 60.488281 55.378906 "/>
<path fill="none" stroke-width="0.79893" stroke-linecap="round" stroke-linejoin="round" stroke="rgb(56.077576%, 56.077576%, 56.077576%)" stroke-opacity="1" stroke-miterlimit="4" d="M 43.851562 75.035156 L 47.90625 65.007812 L 47.886719 64.945312 "/>
<path fill="none" stroke-width="0.79893" stroke-linecap="round" stroke-linejoin="round" stroke="rgb(56.077576%, 56.077576%, 56.077576%)" stroke-opacity="1" stroke-miterlimit="4" d="M 102.933594 10.707031 L 101.484375 4.898438 L 100.1875 1.308594 "/>
<path fill="none" stroke-width="0.79893" stroke-linecap="round" stroke-linejoin="round" stroke="rgb(56.077576%, 56.077576%, 56.077576%)" stroke-opacity="1" stroke-miterlimit="4" d="M 86.925781 36.40625 L 84.453125 27.953125 "/>
<path fill="none" stroke-width="0.79893" stroke-linecap="round" stroke-linejoin="round" stroke="rgb(56.077576%, 56.077576%, 56.077576%)" stroke-opacity="1" stroke-miterlimit="4" d="M 84.453125 27.953125 L 89.792969 26.167969 L 104.5 16.972656 "/>
<path fill="none" stroke-width="0.79893" stroke-linecap="round" stroke-linejoin="round" stroke="rgb(56.077576%, 56.077576%, 56.077576%)" stroke-opacity="1" stroke-miterlimit="4" d="M 31.121094 69.964844 L 30.324219 68.808594 "/>
<path fill="none" stroke-width="0.79893" stroke-linecap="round" stroke-linejoin="round" stroke="rgb(56.077576%, 56.077576%, 56.077576%)" stroke-opacity="1" stroke-miterlimit="4" d="M 61.773438 39.277344 L 61.21875 36.753906 L 52.625 31.886719 "/>
<path fill="none" stroke-width="0.79893" stroke-linecap="round" stroke-linejoin="round" stroke="rgb(56.077576%, 56.077576%, 56.077576%)" stroke-opacity="1" stroke-miterlimit="4" d="M 86.925781 36.40625 L 86.164062 36.261719 L 80.722656 37.542969 L 79.621094 37.328125 L 71.46875 33.035156 "/>
<g clip-path="url(#clip-3)">
<path fill="none" stroke-width="0.79893" stroke-linecap="round" stroke-linejoin="round" stroke="rgb(56.077576%, 56.077576%, 56.077576%)" stroke-opacity="1" stroke-miterlimit="4" d="M 76.820312 101.234375 L 77.933594 93.421875 L 79.007812 90.175781 L 83.664062 80.554688 "/>
</g>
<path fill="none" stroke-width="0.79893" stroke-linecap="round" stroke-linejoin="round" stroke="rgb(56.077576%, 56.077576%, 56.077576%)" stroke-opacity="1" stroke-miterlimit="4" d="M 43.851562 75.035156 L 35.964844 73.691406 "/>
<path fill="none" stroke-width="0.79893" stroke-linecap="round" stroke-linejoin="round" stroke="rgb(56.077576%, 56.077576%, 56.077576%)" stroke-opacity="1" stroke-miterlimit="4" d="M 62.585938 19.464844 L 57.722656 25.460938 "/>
<path fill="none" stroke-width="0.79893" stroke-linecap="round" stroke-linejoin="round" stroke="rgb(56.077576%, 56.077576%, 56.077576%)" stroke-opacity="1" stroke-miterlimit="4" d="M 62.003906 39.6875 L 59.53125 39.265625 L 52.617188 39.238281 "/>
<path fill="none" stroke-width="0.79893" stroke-linecap="round" stroke-linejoin="round" stroke="rgb(56.077576%, 56.077576%, 56.077576%)" stroke-opacity="1" stroke-miterlimit="4" d="M 65.511719 77.269531 L 52.144531 75.855469 "/>
<path fill="none" stroke-width="0.79893" stroke-linecap="round" stroke-linejoin="round" stroke="rgb(56.077576%, 56.077576%, 56.077576%)" stroke-opacity="1" stroke-miterlimit="4" d="M 112.859375 50.59375 L 111.476562 45.015625 "/>
<path fill="none" stroke-width="0.79893" stroke-linecap="round" stroke-linejoin="round" stroke="rgb(56.077576%, 56.077576%, 56.077576%)" stroke-opacity="1" stroke-miterlimit="4" d="M 52.144531 75.855469 L 43.851562 75.035156 "/>
<path fill="none" stroke-width="0.79893" stroke-linecap="round" stroke-linejoin="round" stroke="rgb(56.077576%, 56.077576%, 56.077576%)" stroke-opacity="1" stroke-miterlimit="4" d="M 28.4375 62.785156 L 28.386719 61.265625 "/>
<path fill="none" stroke-width="0.79893" stroke-linecap="round" stroke-linejoin="round" stroke="rgb(56.077576%, 56.077576%, 56.077576%)" stroke-opacity="1" stroke-miterlimit="4" d="M 93.007812 44.472656 L 92.761719 42.046875 L 91.183594 40.15625 L 87.632812 37.398438 L 86.925781 36.40625 "/>
<path fill="none" stroke-width="0.79893" stroke-linecap="round" stroke-linejoin="round" stroke="rgb(56.077576%, 56.077576%, 56.077576%)" stroke-opacity="1" stroke-miterlimit="4" d="M 28.386719 61.265625 L 28.417969 39.285156 "/>
<path fill="none" stroke-width="0.79893" stroke-linecap="round" stroke-linejoin="round" stroke="rgb(56.077576%, 56.077576%, 56.077576%)" stroke-opacity="1" stroke-miterlimit="4" d="M 75.253906 14.902344 L 67.328125 14.996094 L 66 15.632812 L 63.71875 18.074219 "/>
<path fill="none" stroke-width="0.79893" stroke-linecap="round" stroke-linejoin="round" stroke="rgb(56.077576%, 56.077576%, 56.077576%)" stroke-opacity="1" stroke-miterlimit="4" d="M 86.175781 62.214844 L 82.230469 62.683594 L 77.992188 61.980469 L 77.125 61.332031 L 75.046875 57.089844 L 71.101562 52.570312 L 64.214844 48.320312 L 63.371094 48.265625 "/>
<path fill="none" stroke-width="0.79893" stroke-linecap="round" stroke-linejoin="round" stroke="rgb(56.077576%, 56.077576%, 56.077576%)" stroke-opacity="1" stroke-miterlimit="4" d="M 39.605469 94.363281 L 40.445312 86.640625 L 41.484375 84.917969 "/>
<path fill="none" stroke-width="0.79893" stroke-linecap="round" stroke-linejoin="round" stroke="rgb(56.077576%, 56.077576%, 56.077576%)" stroke-opacity="1" stroke-miterlimit="4" d="M 57.722656 25.460938 L 45.425781 15.726562 L 43.714844 15.023438 L 40.761719 14.867188 "/>
<path fill="none" stroke-width="0.79893" stroke-linecap="round" stroke-linejoin="round" stroke="rgb(56.077576%, 56.077576%, 56.077576%)" stroke-opacity="1" stroke-miterlimit="4" d="M 47.886719 64.945312 L 47.617188 63.917969 L 42.066406 61.824219 L 41.140625 61.9375 L 35.964844 73.691406 "/>
<path fill="none" stroke-width="0.79893" stroke-linecap="round" stroke-linejoin="round" stroke="rgb(56.077576%, 56.077576%, 56.077576%)" stroke-opacity="1" stroke-miterlimit="4" d="M 98.828125 74.980469 L 94.234375 73.777344 "/>
<path fill="none" stroke-width="0.79893" stroke-linecap="round" stroke-linejoin="round" stroke="rgb(56.077576%, 56.077576%, 56.077576%)" stroke-opacity="1" stroke-miterlimit="4" d="M 40.761719 14.867188 L 34.785156 15.234375 L 34.492188 16.597656 L 34.601562 22.425781 L 36.554688 22.867188 L 41.621094 23.039062 L 43.6875 24.320312 L 46.644531 27.011719 "/>
<path fill="none" stroke-width="0.79893" stroke-linecap="round" stroke-linejoin="round" stroke="rgb(56.077576%, 56.077576%, 56.077576%)" stroke-opacity="1" stroke-miterlimit="4" d="M 71.46875 33.035156 L 74.105469 31.167969 L 76.847656 29.980469 "/>
<path fill="none" stroke-width="0.79893" stroke-linecap="round" stroke-linejoin="round" stroke="rgb(56.077576%, 56.077576%, 56.077576%)" stroke-opacity="1" stroke-miterlimit="4" d="M 106.898438 76.910156 L 106.125 76.425781 L 98.828125 74.980469 "/>
<path fill="none" stroke-width="0.79893" stroke-linecap="round" stroke-linejoin="round" stroke="rgb(56.077576%, 56.077576%, 56.077576%)" stroke-opacity="1" stroke-miterlimit="4" d="M 110.046875 57.363281 L 110.664062 53.03125 "/>
<g clip-path="url(#clip-4)">
<path fill="none" stroke-width="0.850394" stroke-linecap="butt" stroke-linejoin="round" stroke="rgb(0%, 0%, 0%)" stroke-opacity="1" stroke-miterlimit="4" d="M 0.351562 0.605469 L 135.007812 0.605469 L 135.007812 101.421875 L 0.351562 101.421875 Z M 0.351562 0.605469 "/>
</g>
<path fill-rule="nonzero" fill="rgb(62.744141%, 85.096741%, 82.743835%)" fill-opacity="1" stroke-width="0.566929" stroke-linecap="butt" stroke-linejoin="round" stroke="rgb(20.391846%, 51.371765%, 47.842407%)" stroke-opacity="1" stroke-miterlimit="4" d="M 68.730469 40.769531 C 68.730469 41.964844 67.761719 42.929688 66.570312 42.929688 C 65.378906 42.929688 64.410156 41.964844 64.410156 40.769531 C 64.410156 39.578125 65.378906 38.609375 66.570312 38.609375 C 67.761719 38.609375 68.730469 39.578125 68.730469 40.769531 Z M 68.730469 40.769531 "/>
<path fill-rule="nonzero" fill="rgb(62.744141%, 85.096741%, 82.743835%)" fill-opacity="1" stroke-width="0.566929" stroke-linecap="butt" stroke-linejoin="round" stroke="rgb(20.391846%, 51.371765%, 47.842407%)" stroke-opacity="1" stroke-miterlimit="4" d="M 65.699219 48.535156 C 65.699219 49.730469 64.734375 50.695312 63.539062 50.695312 C 62.347656 50.695312 61.378906 49.730469 61.378906 48.535156 C 61.378906 47.34375 62.347656 46.375 63.539062 46.375 C 64.734375 46.375 65.699219 47.34375 65.699219 48.535156 Z M 65.699219 48.535156 "/>
<path fill-rule="nonzero" fill="rgb(62.744141%, 85.096741%, 82.743835%)" fill-opacity="1" stroke-width="0.566929" stroke-linecap="butt" stroke-linejoin="round" stroke="rgb(20.391846%, 51.371765%, 47.842407%)" stroke-opacity="1" stroke-miterlimit="4" d="M 88.238281 62.171875 C 88.238281 63.367188 87.273438 64.332031 86.078125 64.332031 C 84.886719 64.332031 83.917969 63.367188 83.917969 62.171875 C 83.917969 60.980469 84.886719 60.011719 86.078125 60.011719 C 87.273438 60.011719 88.238281 60.980469 88.238281 62.171875 Z M 88.238281 62.171875 "/>
<path fill-rule="nonzero" fill="rgb(62.744141%, 85.096741%, 82.743835%)" fill-opacity="1" stroke-width="0.566929" stroke-linecap="butt" stroke-linejoin="round" stroke="rgb(20.391846%, 51.371765%, 47.842407%)" stroke-opacity="1" stroke-miterlimit="4" d="M 96.953125 61.039062 C 96.953125 62.230469 95.984375 63.199219 94.792969 63.199219 C 93.597656 63.199219 92.632812 62.230469 92.632812 61.039062 C 92.632812 59.84375 93.597656 58.878906 94.792969 58.878906 C 95.984375 58.878906 96.953125 59.84375 96.953125 61.039062 Z M 96.953125 61.039062 "/>
<path fill-rule="nonzero" fill="rgb(62.744141%, 85.096741%, 82.743835%)" fill-opacity="1" stroke-width="0.566929" stroke-linecap="butt" stroke-linejoin="round" stroke="rgb(20.391846%, 51.371765%, 47.842407%)" stroke-opacity="1" stroke-miterlimit="4" d="M 88.617188 36.035156 C 88.617188 37.230469 87.652344 38.195312 86.457031 38.195312 C 85.265625 38.195312 84.296875 37.230469 84.296875 36.035156 C 84.296875 34.84375 85.265625 33.875 86.457031 33.875 C 87.652344 33.875 88.617188 34.84375 88.617188 36.035156 Z M 88.617188 36.035156 "/>
<path fill-rule="nonzero" fill="rgb(62.744141%, 85.096741%, 82.743835%)" fill-opacity="1" stroke-width="0.566929" stroke-linecap="butt" stroke-linejoin="round" stroke="rgb(20.391846%, 51.371765%, 47.842407%)" stroke-opacity="1" stroke-miterlimit="4" d="M 86.914062 28.269531 C 86.914062 29.464844 85.945312 30.429688 84.753906 30.429688 C 83.558594 30.429688 82.59375 29.464844 82.59375 28.269531 C 82.59375 27.078125 83.558594 26.109375 84.753906 26.109375 C 85.945312 26.109375 86.914062 27.078125 86.914062 28.269531 Z M 86.914062 28.269531 "/>
<path fill-rule="nonzero" fill="rgb(62.744141%, 85.096741%, 82.743835%)" fill-opacity="1" stroke-width="0.566929" stroke-linecap="butt" stroke-linejoin="round" stroke="rgb(20.391846%, 51.371765%, 47.842407%)" stroke-opacity="1" stroke-miterlimit="4" d="M 73.65625 33.195312 C 73.65625 34.386719 72.6875 35.355469 71.496094 35.355469 C 70.300781 35.355469 69.335938 34.386719 69.335938 33.195312 C 69.335938 32 70.300781 31.035156 71.496094 31.035156 C 72.6875 31.035156 73.65625 32 73.65625 33.195312 Z M 73.65625 33.195312 "/>
<path fill-rule="nonzero" fill="rgb(62.744141%, 85.096741%, 82.743835%)" fill-opacity="1" stroke-width="0.566929" stroke-linecap="butt" stroke-linejoin="round" stroke="rgb(20.391846%, 51.371765%, 47.842407%)" stroke-opacity="1" stroke-miterlimit="4" d="M 60.019531 25.617188 C 60.019531 26.8125 59.050781 27.777344 57.859375 27.777344 C 56.664062 27.777344 55.699219 26.8125 55.699219 25.617188 C 55.699219 24.425781 56.664062 23.457031 57.859375 23.457031 C 59.050781 23.457031 60.019531 24.425781 60.019531 25.617188 Z M 60.019531 25.617188 "/>
<path fill-rule="nonzero" fill="rgb(62.744141%, 85.096741%, 82.743835%)" fill-opacity="1" stroke-width="0.566929" stroke-linecap="butt" stroke-linejoin="round" stroke="rgb(20.391846%, 51.371765%, 47.842407%)" stroke-opacity="1" stroke-miterlimit="4" d="M 77.253906 15.203125 C 77.253906 16.394531 76.285156 17.363281 75.09375 17.363281 C 73.902344 17.363281 72.933594 16.394531 72.933594 15.203125 C 72.933594 14.007812 73.902344 13.042969 75.09375 13.042969 C 76.285156 13.042969 77.253906 14.007812 77.253906 15.203125 Z M 77.253906 15.203125 "/>
<path fill-rule="nonzero" fill="rgb(62.744141%, 85.096741%, 82.743835%)" fill-opacity="1" stroke-width="0.566929" stroke-linecap="butt" stroke-linejoin="round" stroke="rgb(20.391846%, 51.371765%, 47.842407%)" stroke-opacity="1" stroke-miterlimit="4" d="M 42.59375 15.203125 C 42.59375 16.394531 41.625 17.363281 40.433594 17.363281 C 39.238281 17.363281 38.273438 16.394531 38.273438 15.203125 C 38.273438 14.007812 39.238281 13.042969 40.433594 13.042969 C 41.625 13.042969 42.59375 14.007812 42.59375 15.203125 Z M 42.59375 15.203125 "/>
<path fill-rule="nonzero" fill="rgb(62.744141%, 85.096741%, 82.743835%)" fill-opacity="1" stroke-width="0.566929" stroke-linecap="butt" stroke-linejoin="round" stroke="rgb(20.391846%, 51.371765%, 47.842407%)" stroke-opacity="1" stroke-miterlimit="4" d="M 48.464844 27.324219 C 48.464844 28.515625 47.496094 29.484375 46.304688 29.484375 C 45.109375 29.484375 44.144531 28.515625 44.144531 27.324219 C 44.144531 26.128906 45.109375 25.164062 46.304688 25.164062 C 47.496094 25.164062 48.464844 26.128906 48.464844 27.324219 Z M 48.464844 27.324219 "/>
<path fill-rule="nonzero" fill="rgb(62.744141%, 85.096741%, 82.743835%)" fill-opacity="1" stroke-width="0.566929" stroke-linecap="butt" stroke-linejoin="round" stroke="rgb(20.391846%, 51.371765%, 47.842407%)" stroke-opacity="1" stroke-miterlimit="4" d="M 36.53125 30.355469 C 36.53125 31.546875 35.566406 32.515625 34.371094 32.515625 C 33.179688 32.515625 32.210938 31.546875 32.210938 30.355469 C 32.210938 29.160156 33.179688 28.195312 34.371094 28.195312 C 35.566406 28.195312 36.53125 29.160156 36.53125 30.355469 Z M 36.53125 30.355469 "/>
<path fill-rule="nonzero" fill="rgb(62.744141%, 85.096741%, 82.743835%)" fill-opacity="1" stroke-width="0.566929" stroke-linecap="butt" stroke-linejoin="round" stroke="rgb(20.391846%, 51.371765%, 47.842407%)" stroke-opacity="1" stroke-miterlimit="4" d="M 54.902344 31.867188 C 54.902344 33.0625 53.9375 34.027344 52.742188 34.027344 C 51.550781 34.027344 50.582031 33.0625 50.582031 31.867188 C 50.582031 30.675781 51.550781 29.707031 52.742188 29.707031 C 53.9375 29.707031 54.902344 30.675781 54.902344 31.867188 Z M 54.902344 31.867188 "/>
<path fill-rule="nonzero" fill="rgb(62.744141%, 85.096741%, 82.743835%)" fill-opacity="1" stroke-width="0.566929" stroke-linecap="butt" stroke-linejoin="round" stroke="rgb(20.391846%, 51.371765%, 47.842407%)" stroke-opacity="1" stroke-miterlimit="4" d="M 54.714844 39.066406 C 54.714844 40.257812 53.746094 41.226562 52.554688 41.226562 C 51.363281 41.226562 50.394531 40.257812 50.394531 39.066406 C 50.394531 37.875 51.363281 36.90625 52.554688 36.90625 C 53.746094 36.90625 54.714844 37.875 54.714844 39.066406 Z M 54.714844 39.066406 "/>
<path fill-rule="nonzero" fill="rgb(62.744141%, 85.096741%, 82.743835%)" fill-opacity="1" stroke-width="0.566929" stroke-linecap="butt" stroke-linejoin="round" stroke="rgb(20.391846%, 51.371765%, 47.842407%)" stroke-opacity="1" stroke-miterlimit="4" d="M 46.949219 39.253906 C 46.949219 40.449219 45.980469 41.414062 44.789062 41.414062 C 43.597656 41.414062 42.628906 40.449219 42.628906 39.253906 C 42.628906 38.0625 43.597656 37.09375 44.789062 37.09375 C 45.980469 37.09375 46.949219 38.0625 46.949219 39.253906 Z M 46.949219 39.253906 "/>
<path fill-rule="nonzero" fill="rgb(62.744141%, 85.096741%, 82.743835%)" fill-opacity="1" stroke-width="0.566929" stroke-linecap="butt" stroke-linejoin="round" stroke="rgb(20.391846%, 51.371765%, 47.842407%)" stroke-opacity="1" stroke-miterlimit="4" d="M 39.183594 39.253906 C 39.183594 40.449219 38.214844 41.414062 37.023438 41.414062 C 35.832031 41.414062 34.863281 40.449219 34.863281 39.253906 C 34.863281 38.0625 35.832031 37.09375 37.023438 37.09375 C 38.214844 37.09375 39.183594 38.0625 39.183594 39.253906 Z M 39.183594 39.253906 "/>
<path fill-rule="nonzero" fill="rgb(62.744141%, 85.096741%, 82.743835%)" fill-opacity="1" stroke-width="0.566929" stroke-linecap="butt" stroke-linejoin="round" stroke="rgb(20.391846%, 51.371765%, 47.842407%)" stroke-opacity="1" stroke-miterlimit="4" d="M 30.28125 39.253906 C 30.28125 40.449219 29.316406 41.414062 28.121094 41.414062 C 26.929688 41.414062 25.960938 40.449219 25.960938 39.253906 C 25.960938 38.0625 26.929688 37.09375 28.121094 37.09375 C 29.316406 37.09375 30.28125 38.0625 30.28125 39.253906 Z M 30.28125 39.253906 "/>
<path fill-rule="nonzero" fill="rgb(62.744141%, 85.096741%, 82.743835%)" fill-opacity="1" stroke-width="0.566929" stroke-linecap="butt" stroke-linejoin="round" stroke="rgb(20.391846%, 51.371765%, 47.842407%)" stroke-opacity="1" stroke-miterlimit="4" d="M 106.234375 17.09375 C 106.234375 18.289062 105.265625 19.253906 104.074219 19.253906 C 102.878906 19.253906 101.914062 18.289062 101.914062 17.09375 C 101.914062 15.902344 102.878906 14.933594 104.074219 14.933594 C 105.265625 14.933594 106.234375 15.902344 106.234375 17.09375 Z M 106.234375 17.09375 "/>
<path fill-rule="nonzero" fill="rgb(62.744141%, 85.096741%, 82.743835%)" fill-opacity="1" stroke-width="0.566929" stroke-linecap="butt" stroke-linejoin="round" stroke="rgb(20.391846%, 51.371765%, 47.842407%)" stroke-opacity="1" stroke-miterlimit="4" d="M 112.433594 51.390625 C 112.433594 52.585938 111.464844 53.550781 110.273438 53.550781 C 109.078125 53.550781 108.113281 52.585938 108.113281 51.390625 C 108.113281 50.199219 109.078125 49.230469 110.273438 49.230469 C 111.464844 49.230469 112.433594 50.199219 112.433594 51.390625 Z M 112.433594 51.390625 "/>
<path fill-rule="nonzero" fill="rgb(62.744141%, 85.096741%, 82.743835%)" fill-opacity="1" stroke-width="0.566929" stroke-linecap="butt" stroke-linejoin="round" stroke="rgb(20.391846%, 51.371765%, 47.842407%)" stroke-opacity="1" stroke-miterlimit="4" d="M 99.644531 48.378906 C 99.644531 49.570312 98.675781 50.539062 97.484375 50.539062 C 96.289062 50.539062 95.324219 49.570312 95.324219 48.378906 C 95.324219 47.183594 96.289062 46.21875 97.484375 46.21875 C 98.675781 46.21875 99.644531 47.183594 99.644531 48.378906 Z M 99.644531 48.378906 "/>
<path fill-rule="nonzero" fill="rgb(62.744141%, 85.096741%, 82.743835%)" fill-opacity="1" stroke-width="0.566929" stroke-linecap="butt" stroke-linejoin="round" stroke="rgb(20.391846%, 51.371765%, 47.842407%)" stroke-opacity="1" stroke-miterlimit="4" d="M 111.628906 62.640625 C 111.628906 63.835938 110.664062 64.800781 109.46875 64.800781 C 108.277344 64.800781 107.308594 63.835938 107.308594 62.640625 C 107.308594 61.449219 108.277344 60.480469 109.46875 60.480469 C 110.664062 60.480469 111.628906 61.449219 111.628906 62.640625 Z M 111.628906 62.640625 "/>
<path fill-rule="nonzero" fill="rgb(62.744141%, 85.096741%, 82.743835%)" fill-opacity="1" stroke-width="0.566929" stroke-linecap="butt" stroke-linejoin="round" stroke="rgb(20.391846%, 51.371765%, 47.842407%)" stroke-opacity="1" stroke-miterlimit="4" d="M 101.050781 74.761719 C 101.050781 75.953125 100.082031 76.921875 98.890625 76.921875 C 97.695312 76.921875 96.730469 75.953125 96.730469 74.761719 C 96.730469 73.570312 97.695312 72.601562 98.890625 72.601562 C 100.082031 72.601562 101.050781 73.570312 101.050781 74.761719 Z M 101.050781 74.761719 "/>
<path fill-rule="nonzero" fill="rgb(62.744141%, 85.096741%, 82.743835%)" fill-opacity="1" stroke-width="0.566929" stroke-linecap="butt" stroke-linejoin="round" stroke="rgb(20.391846%, 51.371765%, 47.842407%)" stroke-opacity="1" stroke-miterlimit="4" d="M 94.753906 73.625 C 94.753906 74.816406 93.789062 75.785156 92.59375 75.785156 C 91.402344 75.785156 90.433594 74.816406 90.433594 73.625 C 90.433594 72.429688 91.402344 71.464844 92.59375 71.464844 C 93.789062 71.464844 94.753906 72.429688 94.753906 73.625 Z M 94.753906 73.625 "/>
<path fill-rule="nonzero" fill="rgb(62.744141%, 85.096741%, 82.743835%)" fill-opacity="1" stroke-width="0.566929" stroke-linecap="butt" stroke-linejoin="round" stroke="rgb(20.391846%, 51.371765%, 47.842407%)" stroke-opacity="1" stroke-miterlimit="4" d="M 107.542969 84.671875 C 107.542969 85.867188 106.578125 86.832031 105.382812 86.832031 C 104.191406 86.832031 103.222656 85.867188 103.222656 84.671875 C 103.222656 83.480469 104.191406 82.511719 105.382812 82.511719 C 106.578125 82.511719 107.542969 83.480469 107.542969 84.671875 Z M 107.542969 84.671875 "/>
<path fill-rule="nonzero" fill="rgb(62.744141%, 85.096741%, 82.743835%)" fill-opacity="1" stroke-width="0.566929" stroke-linecap="butt" stroke-linejoin="round" stroke="rgb(20.391846%, 51.371765%, 47.842407%)" stroke-opacity="1" stroke-miterlimit="4" d="M 21.664062 39.253906 C 21.664062 40.449219 20.695312 41.414062 19.503906 41.414062 C 18.308594 41.414062 17.34375 40.449219 17.34375 39.253906 C 17.34375 38.0625 18.308594 37.09375 19.503906 37.09375 C 20.695312 37.09375 21.664062 38.0625 21.664062 39.253906 Z M 21.664062 39.253906 "/>
<path fill-rule="nonzero" fill="rgb(62.744141%, 85.096741%, 82.743835%)" fill-opacity="1" stroke-width="0.566929" stroke-linecap="butt" stroke-linejoin="round" stroke="rgb(20.391846%, 51.371765%, 47.842407%)" stroke-opacity="1" stroke-miterlimit="4" d="M 38.046875 73.726562 C 38.046875 74.921875 37.078125 75.886719 35.886719 75.886719 C 34.695312 75.886719 33.726562 74.921875 33.726562 73.726562 C 33.726562 72.535156 34.695312 71.566406 35.886719 71.566406 C 37.078125 71.566406 38.046875 72.535156 38.046875 73.726562 Z M 38.046875 73.726562 "/>
<path fill-rule="nonzero" fill="rgb(62.744141%, 85.096741%, 82.743835%)" fill-opacity="1" stroke-width="0.566929" stroke-linecap="butt" stroke-linejoin="round" stroke="rgb(20.391846%, 51.371765%, 47.842407%)" stroke-opacity="1" stroke-miterlimit="4" d="M 46.191406 74.957031 C 46.191406 76.152344 45.222656 77.117188 44.03125 77.117188 C 42.839844 77.117188 41.871094 76.152344 41.871094 74.957031 C 41.871094 73.765625 42.839844 72.796875 44.03125 72.796875 C 45.222656 72.796875 46.191406 73.765625 46.191406 74.957031 Z M 46.191406 74.957031 "/>
<path fill-rule="nonzero" fill="rgb(62.744141%, 85.096741%, 82.743835%)" fill-opacity="1" stroke-width="0.566929" stroke-linecap="butt" stroke-linejoin="round" stroke="rgb(20.391846%, 51.371765%, 47.842407%)" stroke-opacity="1" stroke-miterlimit="4" d="M 54.714844 75.8125 C 54.714844 77.003906 53.746094 77.972656 52.554688 77.972656 C 51.363281 77.972656 50.394531 77.003906 50.394531 75.8125 C 50.394531 74.617188 51.363281 73.652344 52.554688 73.652344 C 53.746094 73.652344 54.714844 74.617188 54.714844 75.8125 Z M 54.714844 75.8125 "/>
<path fill-rule="nonzero" fill="rgb(62.744141%, 85.096741%, 82.743835%)" fill-opacity="1" stroke-width="0.566929" stroke-linecap="butt" stroke-linejoin="round" stroke="rgb(20.391846%, 51.371765%, 47.842407%)" stroke-opacity="1" stroke-miterlimit="4" d="M 57.839844 67.949219 C 57.839844 69.144531 56.871094 70.109375 55.679688 70.109375 C 54.488281 70.109375 53.519531 69.144531 53.519531 67.949219 C 53.519531 66.757812 54.488281 65.789062 55.679688 65.789062 C 56.871094 65.789062 57.839844 66.757812 57.839844 67.949219 Z M 57.839844 67.949219 "/>
<path fill-rule="nonzero" fill="rgb(62.744141%, 85.096741%, 82.743835%)" fill-opacity="1" stroke-width="0.566929" stroke-linecap="butt" stroke-linejoin="round" stroke="rgb(20.391846%, 51.371765%, 47.842407%)" stroke-opacity="1" stroke-miterlimit="4" d="M 65.414062 68.992188 C 65.414062 70.183594 64.449219 71.152344 63.253906 71.152344 C 62.0625 71.152344 61.09375 70.183594 61.09375 68.992188 C 61.09375 67.800781 62.0625 66.832031 63.253906 66.832031 C 64.449219 66.832031 65.414062 67.800781 65.414062 68.992188 Z M 65.414062 68.992188 "/>
<path fill-rule="nonzero" fill="rgb(62.744141%, 85.096741%, 82.743835%)" fill-opacity="1" stroke-width="0.566929" stroke-linecap="butt" stroke-linejoin="round" stroke="rgb(20.391846%, 51.371765%, 47.842407%)" stroke-opacity="1" stroke-miterlimit="4" d="M 51.304688 86.226562 C 51.304688 87.421875 50.339844 88.386719 49.144531 88.386719 C 47.953125 88.386719 46.984375 87.421875 46.984375 86.226562 C 46.984375 85.035156 47.953125 84.066406 49.144531 84.066406 C 50.339844 84.066406 51.304688 85.035156 51.304688 86.226562 Z M 51.304688 86.226562 "/>
<path fill-rule="nonzero" fill="rgb(62.744141%, 85.096741%, 82.743835%)" fill-opacity="1" stroke-width="0.566929" stroke-linecap="butt" stroke-linejoin="round" stroke="rgb(20.391846%, 51.371765%, 47.842407%)" stroke-opacity="1" stroke-miterlimit="4" d="M 50.167969 96.359375 C 50.167969 97.554688 49.203125 98.519531 48.007812 98.519531 C 46.816406 98.519531 45.847656 97.554688 45.847656 96.359375 C 45.847656 95.167969 46.816406 94.199219 48.007812 94.199219 C 49.203125 94.199219 50.167969 95.167969 50.167969 96.359375 Z M 50.167969 96.359375 "/>
<path fill-rule="nonzero" fill="rgb(62.744141%, 85.096741%, 82.743835%)" fill-opacity="1" stroke-width="0.566929" stroke-linecap="butt" stroke-linejoin="round" stroke="rgb(20.391846%, 51.371765%, 47.842407%)" stroke-opacity="1" stroke-miterlimit="4" d="M 41.550781 94.5625 C 41.550781 95.753906 40.582031 96.722656 39.390625 96.722656 C 38.199219 96.722656 37.230469 95.753906 37.230469 94.5625 C 37.230469 93.367188 38.199219 92.402344 39.390625 92.402344 C 40.582031 92.402344 41.550781 93.367188 41.550781 94.5625 Z M 41.550781 94.5625 "/>
<path fill-rule="nonzero" fill="rgb(62.744141%, 85.096741%, 82.743835%)" fill-opacity="1" stroke-width="0.566929" stroke-linecap="butt" stroke-linejoin="round" stroke="rgb(20.391846%, 51.371765%, 47.842407%)" stroke-opacity="1" stroke-miterlimit="4" d="M 67.878906 77.230469 C 67.878906 78.425781 66.910156 79.390625 65.71875 79.390625 C 64.523438 79.390625 63.558594 78.425781 63.558594 77.230469 C 63.558594 76.039062 64.523438 75.070312 65.71875 75.070312 C 66.910156 75.070312 67.878906 76.039062 67.878906 77.230469 Z M 67.878906 77.230469 "/>
<path fill-rule="nonzero" fill="rgb(62.744141%, 85.096741%, 82.743835%)" fill-opacity="1" stroke-width="0.566929" stroke-linecap="butt" stroke-linejoin="round" stroke="rgb(20.391846%, 51.371765%, 47.842407%)" stroke-opacity="1" stroke-miterlimit="4" d="M 85.585938 80.546875 C 85.585938 81.738281 84.621094 82.707031 83.425781 82.707031 C 82.234375 82.707031 81.265625 81.738281 81.265625 80.546875 C 81.265625 79.351562 82.234375 78.386719 83.425781 78.386719 C 84.621094 78.386719 85.585938 79.351562 85.585938 80.546875 Z M 85.585938 80.546875 "/>
<path fill-rule="nonzero" fill="rgb(27.842712%, 40.391541%, 47.450256%)" fill-opacity="1" d="M 211.96875 57.117188 L 211.96875 51.429688 L 211.351562 51.429688 L 211.351562 53.789062 L 208.617188 53.789062 L 208.617188 51.429688 L 207.996094 51.429688 L 207.996094 57.117188 L 208.617188 57.117188 L 208.617188 54.382812 L 211.351562 54.382812 L 211.351562 57.117188 Z M 211.96875 57.117188 "/>
<path fill="none" stroke-width="1.01641" stroke-linecap="butt" stroke-linejoin="miter" stroke="rgb(81.959534%, 51.371765%, 38.430786%)" stroke-opacity="1" stroke-miterlimit="4" d="M 161.289062 22.910156 L 172.269531 29.355469 L 184.429688 22.367188 L 196.320312 29.171875 L 210.023438 25.089844 L 217.917969 35.796875 L 232.257812 35.796875 L 237.339844 44.691406 "/>
<path fill="none" stroke-width="1.01641" stroke-linecap="butt" stroke-linejoin="miter" stroke="rgb(81.959534%, 51.371765%, 38.430786%)" stroke-opacity="1" stroke-miterlimit="4" d="M 172.089844 29.082031 L 172.089844 43.421875 L 184.234375 50.433594 L 196.820312 43.167969 L 196.820312 29.171875 "/>
<path fill="none" stroke-width="1.01641" stroke-linecap="butt" stroke-linejoin="miter" stroke="rgb(81.959534%, 51.371765%, 38.430786%)" stroke-opacity="1" stroke-miterlimit="4" d="M 196.863281 43.148438 L 206.9375 46.507812 "/>
<path fill="none" stroke-width="1.01641" stroke-linecap="butt" stroke-linejoin="miter" stroke="rgb(81.959534%, 51.371765%, 38.430786%)" stroke-opacity="1" stroke-miterlimit="4" d="M 218.28125 35.796875 L 212.472656 43.875 "/>
<path fill="none" stroke-width="1.01641" stroke-linecap="butt" stroke-linejoin="miter" stroke="rgb(81.959534%, 51.371765%, 38.430786%)" stroke-opacity="1" stroke-miterlimit="4" d="M 230.6875 35.691406 L 236.429688 26.996094 "/>
<path fill="none" stroke-width="1.01641" stroke-linecap="butt" stroke-linejoin="miter" stroke="rgb(81.959534%, 51.371765%, 38.430786%)" stroke-opacity="1" stroke-miterlimit="4" d="M 233.125 36.992188 L 238.519531 28.265625 "/>
<path fill="none" stroke-width="1.01641" stroke-linecap="butt" stroke-linejoin="miter" stroke="rgb(81.959534%, 51.371765%, 38.430786%)" stroke-opacity="1" stroke-miterlimit="4" d="M 242.320312 48.257812 L 253.324219 48.386719 L 260.511719 60.417969 L 255.410156 69.433594 "/>
<path fill="none" stroke-width="1.01641" stroke-linecap="butt" stroke-linejoin="miter" stroke="rgb(81.959534%, 51.371765%, 38.430786%)" stroke-opacity="1" stroke-miterlimit="4" d="M 237.28125 51.753906 L 232.4375 60.417969 L 239.238281 72.578125 L 250.210938 72.609375 "/>
<path fill="none" stroke-width="1.01641" stroke-linecap="butt" stroke-linejoin="miter" stroke="rgb(81.959534%, 51.371765%, 38.430786%)" stroke-opacity="1" stroke-miterlimit="4" d="M 174.554688 30.578125 L 184.4375 24.929688 "/>
<path fill="none" stroke-width="1.01641" stroke-linecap="butt" stroke-linejoin="miter" stroke="rgb(81.959534%, 51.371765%, 38.430786%)" stroke-opacity="1" stroke-miterlimit="4" d="M 174.296875 42 L 184.566406 47.390625 "/>
<path fill="none" stroke-width="1.01641" stroke-linecap="butt" stroke-linejoin="miter" stroke="rgb(81.959534%, 51.371765%, 38.430786%)" stroke-opacity="1" stroke-miterlimit="4" d="M 194.320312 30.835938 L 194.191406 41.742188 "/>
<path fill="none" stroke-width="1.01641" stroke-linecap="butt" stroke-linejoin="miter" stroke="rgb(81.959534%, 51.371765%, 38.430786%)" stroke-opacity="1" stroke-miterlimit="4" d="M 209.464844 27.753906 L 215.367188 36.226562 "/>
<path fill-rule="nonzero" fill="rgb(27.842712%, 40.391541%, 47.450256%)" fill-opacity="1" d="M 159.011719 24.734375 L 159.011719 23.984375 C 158.558594 24.488281 158.09375 24.722656 157.398438 24.722656 C 155.980469 24.722656 155.425781 23.675781 155.425781 22.335938 C 155.449219 20.992188 155.953125 19.921875 157.398438 19.921875 C 158.109375 19.921875 158.570312 20.167969 159.011719 20.671875 L 159.011719 19.894531 C 158.535156 19.5625 157.980469 19.367188 157.359375 19.367188 C 155.617188 19.367188 154.816406 20.683594 154.816406 22.335938 C 154.816406 23.972656 155.628906 25.277344 157.359375 25.277344 C 157.941406 25.277344 158.570312 25.082031 159.011719 24.734375 Z M 159.011719 24.734375 "/>
<path fill-rule="nonzero" fill="rgb(27.842712%, 40.391541%, 47.450256%)" fill-opacity="1" d="M 159.75 19.46875 L 160.355469 19.46875 L 160.355469 25.160156 L 159.75 25.160156 Z M 159.75 19.46875 "/>
<path fill-rule="nonzero" fill="rgb(27.842712%, 40.391541%, 47.450256%)" fill-opacity="1" d="M 241.476562 50.957031 L 241.476562 45.269531 L 240.855469 45.269531 L 240.855469 49.859375 L 238.109375 45.269531 L 237.527344 45.269531 L 237.527344 50.957031 L 238.136719 50.957031 L 238.136719 46.378906 L 240.855469 50.957031 Z M 241.476562 50.957031 "/>
<path fill-rule="nonzero" fill="rgb(27.842712%, 40.391541%, 47.450256%)" fill-opacity="1" d="M 255.464844 75.855469 L 255.464844 70.164062 L 254.847656 70.164062 L 254.847656 74.757812 L 252.097656 70.164062 L 251.519531 70.164062 L 251.519531 75.855469 L 252.125 75.855469 L 252.125 71.277344 L 254.847656 75.855469 Z M 255.464844 75.855469 "/>
<path fill-rule="nonzero" fill="rgb(27.842712%, 40.391541%, 47.450256%)" fill-opacity="1" d="M 211.957031 50.570312 L 211.957031 44.882812 L 211.339844 44.882812 L 211.339844 49.476562 L 208.589844 44.882812 L 208.011719 44.882812 L 208.011719 50.570312 L 208.617188 50.570312 L 208.617188 45.992188 L 211.339844 50.570312 Z M 211.957031 50.570312 "/>
<path fill-rule="nonzero" fill="rgb(27.842712%, 40.391541%, 47.450256%)" fill-opacity="1" d="M 255.351562 82.402344 L 255.351562 76.710938 L 254.730469 76.710938 L 254.730469 79.070312 L 251.996094 79.070312 L 251.996094 76.710938 L 251.375 76.710938 L 251.375 82.402344 L 251.996094 82.402344 L 251.996094 79.664062 L 254.730469 79.664062 L 254.730469 82.402344 Z M 255.351562 82.402344 "/>
<path fill-rule="nonzero" fill="rgb(27.842712%, 40.391541%, 47.450256%)" fill-opacity="1" d="M 241.816406 23.9375 C 241.816406 22.375 241.09375 20.96875 239.390625 20.96875 C 237.726562 20.96875 236.992188 22.414062 236.992188 23.9375 C 236.992188 25.457031 237.742188 26.878906 239.390625 26.878906 C 241.082031 26.878906 241.816406 25.496094 241.816406 23.9375 Z M 241.210938 23.9375 C 241.210938 25.085938 240.707031 26.324219 239.390625 26.324219 C 238.101562 26.324219 237.597656 25.070312 237.597656 23.9375 C 237.597656 22.761719 238.074219 21.523438 239.390625 21.523438 C 240.734375 21.523438 241.210938 22.75 241.210938 23.9375 Z M 241.210938 23.9375 "/>
<g clip-path="url(#clip-5)">
<path fill="none" stroke-width="0.850394" stroke-linecap="butt" stroke-linejoin="round" stroke="rgb(0%, 0%, 0%)" stroke-opacity="1" stroke-miterlimit="4" d="M 140.628906 0.476562 L 275.285156 0.476562 L 275.285156 101.292969 L 140.628906 101.292969 Z M 140.628906 0.476562 "/>
</g>
<g clip-path="url(#clip-6)">
<path fill="none" stroke-width="0.850394" stroke-linecap="butt" stroke-linejoin="round" stroke="rgb(0%, 0%, 0%)" stroke-opacity="1" stroke-miterlimit="4" d="M 280.910156 0.476562 L 415.566406 0.476562 L 415.566406 101.292969 L 280.910156 101.292969 Z M 280.910156 0.476562 "/>
</g>
<path fill-rule="nonzero" fill="rgb(62.744141%, 85.096741%, 82.743835%)" fill-opacity="1" stroke-width="0.850394" stroke-linecap="butt" stroke-linejoin="round" stroke="rgb(20.391846%, 51.371765%, 47.842407%)" stroke-opacity="1" stroke-miterlimit="4" d="M 310.757812 14.53125 C 310.757812 16.75 308.957031 18.546875 306.738281 18.546875 C 304.519531 18.546875 302.722656 16.75 302.722656 14.53125 C 302.722656 12.3125 304.519531 10.511719 306.738281 10.511719 C 308.957031 10.511719 310.757812 12.3125 310.757812 14.53125 Z M 310.757812 14.53125 "/>
<path fill-rule="nonzero" fill="rgb(62.744141%, 85.096741%, 82.743835%)" fill-opacity="1" stroke-width="0.850394" stroke-linecap="butt" stroke-linejoin="round" stroke="rgb(20.391846%, 51.371765%, 47.842407%)" stroke-opacity="1" stroke-miterlimit="4" d="M 310.757812 86.175781 C 310.757812 88.394531 308.957031 90.195312 306.738281 90.195312 C 304.519531 90.195312 302.722656 88.394531 302.722656 86.175781 C 302.722656 83.957031 304.519531 82.160156 306.738281 82.160156 C 308.957031 82.160156 310.757812 83.957031 310.757812 86.175781 Z M 310.757812 86.175781 "/>
<path fill-rule="nonzero" fill="rgb(62.744141%, 85.096741%, 82.743835%)" fill-opacity="1" stroke-width="0.850394" stroke-linecap="butt" stroke-linejoin="round" stroke="rgb(20.391846%, 51.371765%, 47.842407%)" stroke-opacity="1" stroke-miterlimit="4" d="M 397.601562 46.734375 C 397.601562 50.578125 394.488281 53.695312 390.644531 53.695312 C 386.800781 53.695312 383.6875 50.578125 383.6875 46.734375 C 383.6875 42.894531 386.800781 39.777344 390.644531 39.777344 C 394.488281 39.777344 397.601562 42.894531 397.601562 46.734375 Z M 397.601562 46.734375 "/>
<path fill-rule="nonzero" fill="rgb(62.744141%, 85.096741%, 82.743835%)" fill-opacity="1" stroke-width="0.850394" stroke-linecap="butt" stroke-linejoin="round" stroke="rgb(20.391846%, 51.371765%, 47.842407%)" stroke-opacity="1" stroke-miterlimit="4" d="M 369.34375 37.628906 C 369.34375 41.46875 366.230469 44.585938 362.386719 44.585938 C 358.542969 44.585938 355.429688 41.46875 355.429688 37.628906 C 355.429688 33.785156 358.542969 30.671875 362.386719 30.671875 C 366.230469 30.671875 369.34375 33.785156 369.34375 37.628906 Z M 369.34375 37.628906 "/>
<path fill-rule="nonzero" fill="rgb(100%, 100%, 100%)" fill-opacity="1" stroke-width="0.850394" stroke-linecap="butt" stroke-linejoin="round" stroke="rgb(81.959534%, 51.371765%, 38.430786%)" stroke-opacity="1" stroke-miterlimit="4" d="M 11.40625 -336.136719 L 17.65625 -336.136719 L 17.65625 -334.855469 L 11.40625 -334.855469 Z M 11.40625 -336.136719 " transform="matrix(0, 1, -1, 0, 0, 0)"/>
<path fill-rule="nonzero" fill="rgb(100%, 100%, 100%)" fill-opacity="1" stroke-width="0.850394" stroke-linecap="butt" stroke-linejoin="miter" stroke="rgb(81.959534%, 51.371765%, 38.430786%)" stroke-opacity="1" stroke-miterlimit="4" d="M 330.683594 11.703125 L 330.683594 17.363281 L 333.964844 14.550781 Z M 330.683594 11.703125 "/>
<path fill-rule="nonzero" fill="rgb(100%, 100%, 100%)" fill-opacity="1" stroke-width="0.850394" stroke-linecap="butt" stroke-linejoin="round" stroke="rgb(81.959534%, 51.371765%, 38.430786%)" stroke-opacity="1" stroke-miterlimit="4" d="M 32.199219 -361.421875 L 42.523438 -361.421875 L 42.523438 -360.140625 L 32.199219 -360.140625 Z M 32.199219 -361.421875 " transform="matrix(0, 1, -1, 0, 0, 0)"/>
<path fill-rule="nonzero" fill="rgb(100%, 100%, 100%)" fill-opacity="1" stroke-width="0.850394" stroke-linecap="butt" stroke-linejoin="round" stroke="rgb(81.959534%, 51.371765%, 38.430786%)" stroke-opacity="1" stroke-miterlimit="4" d="M 41.574219 -389.738281 L 51.898438 -389.738281 L 51.898438 -388.457031 L 41.574219 -388.457031 Z M 41.574219 -389.738281 " transform="matrix(0, 1, -1, 0, 0, 0)"/>
<path fill-rule="nonzero" fill="rgb(27.842712%, 40.391541%, 47.450256%)" fill-opacity="1" d="M 308.875 14.789062 L 308.875 14.273438 L 306.976562 14.273438 L 306.976562 12.402344 L 306.5 12.402344 L 306.5 14.273438 L 304.605469 14.273438 L 304.605469 14.789062 L 306.5 14.789062 L 306.5 16.660156 L 306.976562 16.660156 L 306.976562 14.789062 Z M 308.875 14.789062 "/>
<path fill-rule="nonzero" fill="rgb(27.842712%, 40.391541%, 47.450256%)" fill-opacity="1" d="M 305.804688 85.90625 L 307.675781 85.90625 L 307.675781 86.449219 L 305.804688 86.449219 Z M 305.804688 85.90625 "/>
<path fill="none" stroke-width="0.850394" stroke-linecap="butt" stroke-linejoin="miter" stroke="rgb(20.391846%, 51.371765%, 47.842407%)" stroke-opacity="1" stroke-miterlimit="4" d="M 310.902344 14.53125 L 317.476562 14.53125 "/>
<path fill="none" stroke-width="0.850394" stroke-linecap="butt" stroke-linejoin="miter" stroke="rgb(20.391846%, 51.371765%, 47.842407%)" stroke-opacity="1" stroke-miterlimit="4" d="M 320.277344 14.53125 L 330.316406 14.53125 "/>
<path fill="none" stroke-width="0.850394" stroke-linecap="butt" stroke-linejoin="miter" stroke="rgb(20.391846%, 51.371765%, 47.842407%)" stroke-opacity="1" stroke-miterlimit="4" d="M 336.316406 14.53125 L 346.121094 14.53125 "/>
<path fill="none" stroke-width="0.850394" stroke-linecap="butt" stroke-linejoin="miter" stroke="rgb(20.391846%, 51.371765%, 47.842407%)" stroke-opacity="1" stroke-miterlimit="4" d="M 348.789062 14.53125 L 393.859375 14.53125 "/>
<path fill="none" stroke-width="0.850394" stroke-linecap="butt" stroke-linejoin="miter" stroke="rgb(20.391846%, 51.371765%, 47.842407%)" stroke-opacity="1" stroke-miterlimit="4" d="M 320.1875 37.257812 L 357.921875 37.257812 "/>
<path fill-rule="evenodd" fill="rgb(20.391846%, 51.371765%, 47.842407%)" fill-opacity="1" stroke-width="0.453543" stroke-linecap="butt" stroke-linejoin="miter" stroke="rgb(20.391846%, 51.371765%, 47.842407%)" stroke-opacity="1" stroke-miterlimit="4" d="M 359.882812 37.257812 L 356.941406 38.957031 L 356.941406 35.558594 Z M 359.882812 37.257812 "/>
<path fill="none" stroke-width="0.850394" stroke-linecap="butt" stroke-linejoin="miter" stroke="rgb(20.391846%, 51.371765%, 47.842407%)" stroke-opacity="1" stroke-miterlimit="4" d="M 310.910156 86.175781 L 317.484375 86.175781 "/>
<path fill="none" stroke-width="0.850394" stroke-linecap="butt" stroke-linejoin="miter" stroke="rgb(20.391846%, 51.371765%, 47.842407%)" stroke-opacity="1" stroke-miterlimit="4" d="M 320.1875 86.175781 L 346.382812 86.175781 "/>
<path fill="none" stroke-width="0.850394" stroke-linecap="butt" stroke-linejoin="miter" stroke="rgb(20.391846%, 51.371765%, 47.842407%)" stroke-opacity="1" stroke-miterlimit="4" d="M 348.777344 86.175781 L 372.695312 86.175781 "/>
<path fill="none" stroke-width="0.850394" stroke-linecap="butt" stroke-linejoin="miter" stroke="rgb(20.391846%, 51.371765%, 47.842407%)" stroke-opacity="1" stroke-miterlimit="4" d="M 375.304688 86.175781 L 394.167969 86.175781 "/>
<path fill="none" stroke-width="0.850394" stroke-linecap="butt" stroke-linejoin="miter" stroke="rgb(20.391846%, 51.371765%, 47.842407%)" stroke-opacity="1" stroke-miterlimit="4" d="M 393.808594 73.765625 L 393.808594 86.566406 "/>
<path fill-rule="nonzero" fill="rgb(81.959534%, 51.371765%, 38.430786%)" fill-opacity="1" stroke-width="0.850394" stroke-linecap="butt" stroke-linejoin="round" stroke="rgb(46.665955%, 23.529053%, 13.725281%)" stroke-opacity="1" stroke-miterlimit="4" d="M 348.726562 86.175781 C 348.726562 86.84375 348.1875 87.382812 347.519531 87.382812 C 346.855469 87.382812 346.316406 86.84375 346.316406 86.175781 C 346.316406 85.511719 346.855469 84.972656 347.519531 84.972656 C 348.1875 84.972656 348.726562 85.511719 348.726562 86.175781 Z M 348.726562 86.175781 "/>
<path fill="none" stroke-width="0.850394" stroke-linecap="butt" stroke-linejoin="miter" stroke="rgb(20.391846%, 51.371765%, 47.842407%)" stroke-opacity="1" stroke-miterlimit="4" d="M 374.925781 46.726562 L 385.953125 46.726562 "/>
<path fill-rule="evenodd" fill="rgb(20.391846%, 51.371765%, 47.842407%)" fill-opacity="1" stroke-width="0.453543" stroke-linecap="butt" stroke-linejoin="miter" stroke="rgb(20.391846%, 51.371765%, 47.842407%)" stroke-opacity="1" stroke-miterlimit="4" d="M 387.914062 46.726562 L 384.972656 48.429688 L 384.972656 45.027344 Z M 387.914062 46.726562 "/>
<path fill="none" stroke-width="0.850394" stroke-linecap="butt" stroke-linejoin="miter" stroke="rgb(20.391846%, 51.371765%, 47.842407%)" stroke-opacity="1" stroke-miterlimit="4" d="M 390.023438 50.308594 L 393.808594 50.3125 L 393.808594 64.691406 "/>
<path fill="none" stroke-width="0.850394" stroke-linecap="butt" stroke-linejoin="miter" stroke="rgb(20.391846%, 51.371765%, 47.842407%)" stroke-opacity="1" stroke-miterlimit="4" d="M 390.023438 43.289062 L 393.808594 43.289062 L 393.808594 14.242188 "/>
<path fill="none" stroke-width="0.850394" stroke-linecap="butt" stroke-linejoin="miter" stroke="rgb(20.391846%, 51.371765%, 47.842407%)" stroke-opacity="1" stroke-miterlimit="4" d="M 361.632812 41.0625 L 365.417969 41.0625 L 365.417969 46.730469 L 372.714844 46.722656 "/>
<path fill="none" stroke-width="0.850394" stroke-linecap="butt" stroke-linejoin="miter" stroke="rgb(20.391846%, 51.371765%, 47.842407%)" stroke-opacity="1" stroke-miterlimit="4" d="M 361.632812 34.039062 L 365.417969 34.039062 L 365.417969 14.324219 "/>
<path fill-rule="nonzero" fill="rgb(81.959534%, 51.371765%, 38.430786%)" fill-opacity="1" stroke-width="0.850394" stroke-linecap="butt" stroke-linejoin="round" stroke="rgb(46.665955%, 23.529053%, 13.725281%)" stroke-opacity="1" stroke-miterlimit="4" d="M 375.300781 46.734375 C 375.300781 47.402344 374.761719 47.941406 374.09375 47.941406 C 373.429688 47.941406 372.890625 47.402344 372.890625 46.734375 C 372.890625 46.070312 373.429688 45.53125 374.09375 45.53125 C 374.761719 45.53125 375.300781 46.070312 375.300781 46.734375 Z M 375.300781 46.734375 "/>
<path fill="none" stroke-width="0.850394" stroke-linecap="butt" stroke-linejoin="miter" stroke="rgb(20.391846%, 51.371765%, 47.842407%)" stroke-opacity="1" stroke-miterlimit="4" d="M 374.09375 67.941406 L 374.09375 84.828125 "/>
<path fill="none" stroke-width="0.850394" stroke-linecap="butt" stroke-linejoin="miter" stroke="rgb(20.391846%, 51.371765%, 47.842407%)" stroke-opacity="1" stroke-miterlimit="4" d="M 374.09375 48.183594 L 374.09375 63.800781 "/>
<path fill="none" stroke-width="0.850394" stroke-linecap="butt" stroke-linejoin="miter" stroke="rgb(20.391846%, 51.371765%, 47.842407%)" stroke-opacity="1" stroke-miterlimit="4" d="M 347.519531 15.910156 L 347.519531 47.191406 "/>
<path fill="none" stroke-width="0.850394" stroke-linecap="butt" stroke-linejoin="miter" stroke="rgb(20.391846%, 51.371765%, 47.842407%)" stroke-opacity="1" stroke-miterlimit="4" d="M 318.859375 15.910156 L 318.859375 21.144531 "/>
<path fill="none" stroke-width="0.850394" stroke-linecap="butt" stroke-linejoin="miter" stroke="rgb(20.391846%, 51.371765%, 47.842407%)" stroke-opacity="1" stroke-miterlimit="4" d="M 318.859375 30.238281 L 318.859375 36.210938 "/>
<path fill="none" stroke-width="0.850394" stroke-linecap="butt" stroke-linejoin="miter" stroke="rgb(20.391846%, 51.371765%, 47.842407%)" stroke-opacity="1" stroke-miterlimit="4" d="M 318.859375 38.273438 L 318.859375 57.371094 "/>
<path fill="none" stroke-width="0.850394" stroke-linecap="butt" stroke-linejoin="miter" stroke="rgb(20.391846%, 51.371765%, 47.842407%)" stroke-opacity="1" stroke-miterlimit="4" d="M 318.859375 66.867188 L 318.859375 84.828125 "/>
<path fill="none" stroke-width="0.850394" stroke-linecap="butt" stroke-linejoin="miter" stroke="rgb(20.391846%, 51.371765%, 47.842407%)" stroke-opacity="1" stroke-miterlimit="4" d="M 347.519531 75.535156 L 347.519531 84.691406 "/>
<path fill="none" stroke-width="0.850394" stroke-linecap="butt" stroke-linejoin="miter" stroke="rgb(20.391846%, 51.371765%, 47.842407%)" stroke-opacity="1" stroke-miterlimit="4" d="M 347.519531 62.785156 L 347.519531 72.761719 "/>
<path fill="none" stroke-width="0.850394" stroke-linecap="butt" stroke-linejoin="miter" stroke="rgb(20.391846%, 51.371765%, 47.842407%)" stroke-opacity="1" stroke-miterlimit="4" d="M 347.519531 50.09375 L 347.519531 59.449219 "/>
<path fill="none" stroke-width="0.850394" stroke-linecap="butt" stroke-linejoin="miter" stroke="rgb(20.391846%, 51.371765%, 47.842407%)" stroke-opacity="1" stroke-miterlimit="4" d="M 332.335938 66.265625 L 332.335938 74.3125 "/>
<path fill="none" stroke-width="0.850394" stroke-linecap="butt" stroke-linejoin="miter" stroke="rgb(20.391846%, 51.371765%, 47.842407%)" stroke-opacity="1" stroke-miterlimit="4" d="M 332.335938 48.050781 L 332.335938 56.902344 "/>
<path fill="none" stroke-width="0.850394" stroke-linecap="butt" stroke-linejoin="miter" stroke="rgb(20.391846%, 51.371765%, 47.842407%)" stroke-opacity="1" stroke-miterlimit="4" d="M 332.003906 73.988281 L 346.277344 73.988281 "/>
<path fill="none" stroke-width="0.850394" stroke-linecap="butt" stroke-linejoin="miter" stroke="rgb(20.391846%, 51.371765%, 47.842407%)" stroke-opacity="1" stroke-miterlimit="4" d="M 331.933594 48.410156 L 346.144531 48.410156 "/>
<path fill-rule="nonzero" fill="rgb(81.959534%, 51.371765%, 38.430786%)" fill-opacity="1" stroke-width="0.850394" stroke-linecap="butt" stroke-linejoin="round" stroke="rgb(46.665955%, 23.529053%, 13.725281%)" stroke-opacity="1" stroke-miterlimit="4" d="M 320.066406 14.53125 C 320.066406 15.195312 319.527344 15.734375 318.859375 15.734375 C 318.195312 15.734375 317.65625 15.195312 317.65625 14.53125 C 317.65625 13.863281 318.195312 13.324219 318.859375 13.324219 C 319.527344 13.324219 320.066406 13.863281 320.066406 14.53125 Z M 320.066406 14.53125 "/>
<path fill-rule="nonzero" fill="rgb(81.959534%, 51.371765%, 38.430786%)" fill-opacity="1" stroke-width="0.850394" stroke-linecap="butt" stroke-linejoin="round" stroke="rgb(46.665955%, 23.529053%, 13.725281%)" stroke-opacity="1" stroke-miterlimit="4" d="M 320.066406 37.304688 C 320.066406 37.972656 319.527344 38.511719 318.859375 38.511719 C 318.195312 38.511719 317.65625 37.972656 317.65625 37.304688 C 317.65625 36.640625 318.195312 36.101562 318.859375 36.101562 C 319.527344 36.101562 320.066406 36.640625 320.066406 37.304688 Z M 320.066406 37.304688 "/>
<path fill-rule="nonzero" fill="rgb(81.959534%, 51.371765%, 38.430786%)" fill-opacity="1" stroke-width="0.850394" stroke-linecap="butt" stroke-linejoin="round" stroke="rgb(46.665955%, 23.529053%, 13.725281%)" stroke-opacity="1" stroke-miterlimit="4" d="M 348.726562 14.53125 C 348.726562 15.195312 348.1875 15.734375 347.519531 15.734375 C 346.855469 15.734375 346.316406 15.195312 346.316406 14.53125 C 346.316406 13.863281 346.855469 13.324219 347.519531 13.324219 C 348.1875 13.324219 348.726562 13.863281 348.726562 14.53125 Z M 348.726562 14.53125 "/>
<path fill="none" stroke-width="0.850394" stroke-linecap="butt" stroke-linejoin="miter" stroke="rgb(81.959534%, 51.371765%, 38.430786%)" stroke-opacity="1" stroke-miterlimit="4" d="M 319.074219 20.953125 L 320.492188 21.757812 L 317.320312 23.511719 L 320.351562 24.648438 L 317.417969 26.351562 L 320.398438 27.867188 L 317.417969 29.570312 L 318.882812 30.472656 "/>
<path fill="none" stroke-width="0.850394" stroke-linecap="butt" stroke-linejoin="miter" stroke="rgb(81.959534%, 51.371765%, 38.430786%)" stroke-opacity="1" stroke-miterlimit="4" d="M 319.074219 57.382812 L 320.492188 58.1875 L 317.320312 59.9375 L 320.351562 61.074219 L 317.417969 62.78125 L 320.398438 64.296875 L 317.417969 66 L 318.882812 66.898438 "/>
<path fill="none" stroke-width="0.850394" stroke-linecap="butt" stroke-linejoin="miter" stroke="rgb(81.959534%, 51.371765%, 38.430786%)" stroke-opacity="1" stroke-miterlimit="4" d="M 332.550781 56.699219 L 333.972656 57.503906 L 330.796875 59.253906 L 333.828125 60.390625 L 330.894531 62.097656 L 333.875 63.613281 L 330.894531 65.316406 L 332.359375 66.214844 "/>
<path fill-rule="nonzero" fill="rgb(100%, 100%, 100%)" fill-opacity="1" stroke-width="0.850394" stroke-linecap="butt" stroke-linejoin="round" stroke="rgb(81.959534%, 51.371765%, 38.430786%)" stroke-opacity="1" stroke-miterlimit="4" d="M 370.96875 64.042969 L 377.21875 64.042969 L 377.21875 65.320312 L 370.96875 65.320312 Z M 370.96875 64.042969 "/>
<path fill-rule="nonzero" fill="rgb(100%, 100%, 100%)" fill-opacity="1" stroke-width="0.850394" stroke-linecap="butt" stroke-linejoin="round" stroke="rgb(81.959534%, 51.371765%, 38.430786%)" stroke-opacity="1" stroke-miterlimit="4" d="M 370.96875 66.648438 L 377.21875 66.648438 L 377.21875 67.925781 L 370.96875 67.925781 Z M 370.96875 66.648438 "/>
<path fill-rule="nonzero" fill="rgb(81.959534%, 51.371765%, 38.430786%)" fill-opacity="1" stroke-width="0.850394" stroke-linecap="butt" stroke-linejoin="round" stroke="rgb(46.665955%, 23.529053%, 13.725281%)" stroke-opacity="1" stroke-miterlimit="4" d="M 320.066406 86.175781 C 320.066406 86.84375 319.527344 87.382812 318.859375 87.382812 C 318.195312 87.382812 317.65625 86.84375 317.65625 86.175781 C 317.65625 85.511719 318.195312 84.972656 318.859375 84.972656 C 319.527344 84.972656 320.066406 85.511719 320.066406 86.175781 Z M 320.066406 86.175781 "/>
<path fill="none" stroke-width="0.850394" stroke-linecap="butt" stroke-linejoin="miter" stroke="rgb(81.959534%, 51.371765%, 38.430786%)" stroke-opacity="1" stroke-miterlimit="4" d="M 394.074219 64.480469 L 395.492188 65.285156 L 392.320312 67.035156 L 395.351562 68.171875 L 392.414062 69.878906 L 395.398438 71.394531 L 392.414062 73.097656 L 393.882812 73.996094 "/>
<path fill-rule="nonzero" fill="rgb(81.959534%, 51.371765%, 38.430786%)" fill-opacity="1" stroke-width="0.850394" stroke-linecap="butt" stroke-linejoin="round" stroke="rgb(46.665955%, 23.529053%, 13.725281%)" stroke-opacity="1" stroke-miterlimit="4" d="M 375.300781 86.175781 C 375.300781 86.84375 374.761719 87.382812 374.09375 87.382812 C 373.429688 87.382812 372.890625 86.84375 372.890625 86.175781 C 372.890625 85.511719 373.429688 84.972656 374.09375 84.972656 C 374.761719 84.972656 375.300781 85.511719 375.300781 86.175781 Z M 375.300781 86.175781 "/>
<path fill-rule="nonzero" fill="rgb(81.959534%, 51.371765%, 38.430786%)" fill-opacity="1" stroke-width="0.850394" stroke-linecap="butt" stroke-linejoin="round" stroke="rgb(46.665955%, 23.529053%, 13.725281%)" stroke-opacity="1" stroke-miterlimit="4" d="M 348.726562 74.238281 C 348.726562 74.90625 348.1875 75.445312 347.519531 75.445312 C 346.855469 75.445312 346.316406 74.90625 346.316406 74.238281 C 346.316406 73.574219 346.855469 73.035156 347.519531 73.035156 C 348.1875 73.035156 348.726562 73.574219 348.726562 74.238281 Z M 348.726562 74.238281 "/>
<path fill-rule="nonzero" fill="rgb(81.959534%, 51.371765%, 38.430786%)" fill-opacity="1" stroke-width="0.850394" stroke-linecap="butt" stroke-linejoin="round" stroke="rgb(46.665955%, 23.529053%, 13.725281%)" stroke-opacity="1" stroke-miterlimit="4" d="M 348.726562 48.667969 C 348.726562 49.335938 348.1875 49.875 347.519531 49.875 C 346.855469 49.875 346.316406 49.335938 346.316406 48.667969 C 346.316406 48.003906 346.855469 47.464844 347.519531 47.464844 C 348.1875 47.464844 348.726562 48.003906 348.726562 48.667969 Z M 348.726562 48.667969 "/>
<path fill-rule="nonzero" fill="rgb(100%, 100%, 100%)" fill-opacity="1" stroke-width="0.850394" stroke-linecap="butt" stroke-linejoin="round" stroke="rgb(81.959534%, 51.371765%, 38.430786%)" stroke-opacity="1" stroke-miterlimit="4" d="M 344.394531 59.511719 L 350.644531 59.511719 L 350.644531 60.792969 L 344.394531 60.792969 Z M 344.394531 59.511719 "/>
<path fill-rule="nonzero" fill="rgb(100%, 100%, 100%)" fill-opacity="1" stroke-width="0.850394" stroke-linecap="butt" stroke-linejoin="round" stroke="rgb(81.959534%, 51.371765%, 38.430786%)" stroke-opacity="1" stroke-miterlimit="4" d="M 344.394531 62.117188 L 350.644531 62.117188 L 350.644531 63.394531 L 344.394531 63.394531 Z M 344.394531 62.117188 "/>
<path fill-rule="nonzero" fill="rgb(0%, 0%, 0%)" fill-opacity="1" d="M 8.945312 9.316406 C 8.945312 8.027344 8.015625 7.136719 6.847656 7.136719 C 6.035156 7.136719 5.460938 7.335938 4.867188 7.671875 L 4.949219 8.503906 C 5.601562 8.046875 6.234375 7.890625 6.847656 7.890625 C 7.441406 7.890625 7.957031 8.382812 7.957031 9.316406 L 7.957031 9.867188 C 6.054688 9.890625 4.453125 10.421875 4.453125 11.53125 C 4.453125 12.066406 4.789062 13.09375 5.898438 13.09375 C 6.074219 13.09375 7.261719 13.074219 7.996094 12.5 L 7.996094 12.957031 L 8.945312 12.957031 Z M 7.957031 11.292969 C 7.957031 11.53125 7.957031 11.847656 7.519531 12.085938 C 7.164062 12.304688 6.667969 12.324219 6.53125 12.324219 C 5.9375 12.324219 5.363281 12.027344 5.363281 11.511719 C 5.363281 10.621094 7.402344 10.542969 7.957031 10.503906 Z M 7.957031 11.292969 "/>
<path fill-rule="nonzero" fill="rgb(0%, 0%, 0%)" fill-opacity="1" d="M 11.449219 16.125 C 11.84375 15.726562 12.695312 14.957031 13.269531 13.410156 C 13.785156 12.066406 13.863281 10.71875 13.863281 9.789062 C 13.863281 5.710938 12.042969 4.050781 11.449219 3.476562 L 10.675781 3.476562 C 11.269531 4.089844 12.875 5.710938 12.875 9.789062 C 12.875 10.503906 12.832031 11.988281 12.320312 13.472656 C 11.804688 14.9375 11.09375 15.6875 10.675781 16.125 Z M 11.449219 16.125 "/>
<path fill-rule="nonzero" fill="rgb(0%, 0%, 0%)" fill-opacity="1" d="M 144.796875 4.1875 L 143.84375 4.1875 L 143.84375 12.957031 L 144.835938 12.957031 L 144.835938 12.382812 C 145.132812 12.660156 145.6875 13.09375 146.535156 13.09375 C 147.785156 13.09375 148.871094 11.828125 148.871094 10.144531 C 148.871094 8.582031 148.019531 7.21875 146.832031 7.21875 C 146.339844 7.21875 145.546875 7.335938 144.796875 7.949219 Z M 144.835938 8.722656 C 145.03125 8.425781 145.488281 7.988281 146.179688 7.988281 C 146.933594 7.988281 147.882812 8.523438 147.882812 10.144531 C 147.882812 11.789062 146.832031 12.324219 146.0625 12.324219 C 145.566406 12.324219 145.152344 12.105469 144.835938 11.511719 Z M 144.835938 8.722656 "/>
<path fill-rule="nonzero" fill="rgb(0%, 0%, 0%)" fill-opacity="1" d="M 150.820312 16.125 C 151.21875 15.726562 152.070312 14.957031 152.640625 13.410156 C 153.15625 12.066406 153.234375 10.71875 153.234375 9.789062 C 153.234375 5.710938 151.414062 4.050781 150.820312 3.476562 L 150.050781 3.476562 C 150.644531 4.089844 152.246094 5.710938 152.246094 9.789062 C 152.246094 10.503906 152.207031 11.988281 151.691406 13.472656 C 151.179688 14.9375 150.464844 15.6875 150.050781 16.125 Z M 150.820312 16.125 "/>
<path fill-rule="nonzero" fill="rgb(0%, 0%, 0%)" fill-opacity="1" d="M 288.042969 7.671875 C 287.289062 7.257812 286.855469 7.136719 286.082031 7.136719 C 284.339844 7.136719 283.3125 8.660156 283.3125 10.144531 C 283.3125 11.710938 284.460938 13.09375 286.042969 13.09375 C 286.714844 13.09375 287.410156 12.917969 288.101562 12.441406 L 288.023438 11.609375 C 287.367188 12.105469 286.695312 12.285156 286.042969 12.285156 C 284.992188 12.285156 284.300781 11.375 284.300781 10.144531 C 284.300781 9.15625 284.757812 7.949219 286.101562 7.949219 C 286.753906 7.949219 287.191406 8.046875 287.882812 8.503906 Z M 288.042969 7.671875 "/>
<path fill-rule="nonzero" fill="rgb(0%, 0%, 0%)" fill-opacity="1" d="M 289.949219 16.125 C 290.34375 15.726562 291.195312 14.957031 291.769531 13.410156 C 292.285156 12.066406 292.363281 10.71875 292.363281 9.789062 C 292.363281 5.710938 290.542969 4.050781 289.949219 3.476562 L 289.175781 3.476562 C 289.769531 4.089844 291.375 5.710938 291.375 9.789062 C 291.375 10.503906 291.332031 11.988281 290.820312 13.472656 C 290.304688 14.9375 289.59375 15.6875 289.175781 16.125 Z M 289.949219 16.125 "/>
</svg>
