<?xml version="1.0" encoding="UTF-8"?>
<svg xmlns="http://www.w3.org/2000/svg" xmlns:xlink="http://www.w3.org/1999/xlink" width="407.534088pt" height="164.012054pt" viewBox="0 0 407.534088 164.012054">
<defs>
<clipPath id="clip-0">
<path clip-rule="nonzero" d="M 321 36 L 407.535156 36 L 407.535156 102 L 321 102 Z M 321 36 "/>
</clipPath>
<clipPath id="clip-1">
<path clip-rule="nonzero" d="M 215 156 L 221 156 L 221 164.011719 L 215 164.011719 Z M 215 156 "/>
</clipPath>
</defs>
<path fill="none" stroke-width="1.133858" stroke-linecap="butt" stroke-linejoin="miter" stroke="rgb(25.881958%, 29.411316%, 30.979919%)" stroke-opacity="1" stroke-dasharray="4.535433 1.133858" stroke-miterlimit="4" d="M 211.773438 143.527344 L 211.773438 46.457031 L 140.746094 46.457031 "/>
<path fill-rule="nonzero" fill="rgb(0%, 0%, 0%)" fill-opacity="1" d="M 28.203125 65.585938 L 26.210938 59.984375 L 25.472656 59.984375 L 23.492188 65.585938 L 24.140625 65.585938 L 24.609375 64.125 L 27.085938 64.125 L 27.554688 65.585938 Z M 26.882812 63.542969 L 24.8125 63.542969 L 25.851562 60.660156 Z M 26.882812 63.542969 "/>
<path fill-rule="nonzero" fill="rgb(0%, 0%, 0%)" fill-opacity="1" d="M 30.0625 65.5 C 30.75 65.5 31.21875 65.828125 31.21875 66.273438 C 31.21875 66.71875 30.75 67.035156 30.0625 67.035156 C 29.378906 67.035156 28.996094 66.71875 28.996094 66.273438 C 28.996094 65.828125 29.378906 65.5 30.0625 65.5 Z M 30.0625 64.976562 C 30 64.976562 29.9375 64.976562 29.859375 64.988281 C 29.480469 64.988281 29.148438 64.761719 29.148438 64.609375 C 29.148438 64.429688 29.351562 64.367188 29.503906 64.367188 L 29.554688 64.367188 C 29.683594 64.480469 30.0625 64.519531 30.179688 64.519531 C 30.875 64.519531 31.4375 63.921875 31.4375 63.1875 C 31.4375 62.894531 31.335938 62.613281 31.167969 62.398438 L 31.765625 62.398438 L 31.765625 61.941406 L 30.738281 61.941406 C 30.570312 61.890625 30.34375 61.867188 30.214844 61.867188 C 29.519531 61.867188 28.933594 62.460938 28.90625 63.1875 C 28.90625 63.542969 29.035156 63.859375 29.265625 64.089844 C 28.996094 64.140625 28.703125 64.316406 28.703125 64.660156 C 28.703125 64.875 28.84375 65.078125 29.136719 65.207031 C 28.667969 65.449219 28.386719 65.839844 28.386719 66.261719 C 28.386719 66.921875 29.0625 67.53125 30.0625 67.53125 C 31.082031 67.53125 31.90625 66.921875 31.90625 66.273438 C 31.90625 65.421875 30.914062 64.976562 30.0625 64.976562 Z M 30.179688 62.375 C 30.609375 62.375 30.964844 62.730469 30.964844 63.175781 C 30.964844 63.605469 30.609375 63.960938 30.179688 63.960938 C 29.734375 63.960938 29.390625 63.605469 29.390625 63.175781 C 29.390625 62.730469 29.734375 62.375 30.179688 62.375 Z M 30.179688 62.375 "/>
<path fill-rule="nonzero" fill="rgb(0%, 0%, 0%)" fill-opacity="1" d="M 35.652344 63.757812 L 35.652344 63.695312 C 35.652344 62.640625 35.21875 61.867188 34.011719 61.839844 C 32.933594 61.839844 32.324219 62.78125 32.324219 63.796875 C 32.324219 64.902344 32.996094 65.6875 34.113281 65.6875 C 34.621094 65.6875 35.082031 65.574219 35.523438 65.410156 L 35.523438 64.800781 C 34.941406 65.078125 34.851562 65.144531 34.164062 65.144531 C 33.402344 65.144531 32.945312 64.683594 32.945312 63.820312 L 32.945312 63.757812 Z M 35.054688 63.261719 L 32.972656 63.261719 C 33.046875 62.78125 33.402344 62.359375 34.011719 62.359375 C 34.648438 62.359375 35.054688 62.753906 35.054688 63.261719 Z M 35.054688 63.261719 "/>
<path fill-rule="nonzero" fill="rgb(0%, 0%, 0%)" fill-opacity="1" d="M 42.210938 63.757812 C 42.210938 62.832031 41.71875 61.839844 40.496094 61.839844 C 39.394531 61.839844 38.769531 62.691406 38.769531 63.757812 C 38.769531 64.761719 39.417969 65.664062 40.496094 65.6875 C 41.589844 65.664062 42.210938 64.785156 42.210938 63.757812 Z M 41.617188 63.757812 C 41.617188 64.480469 41.171875 65.128906 40.496094 65.128906 C 39.582031 65.117188 39.378906 64.304688 39.378906 63.746094 C 39.378906 63.007812 39.734375 62.398438 40.496094 62.386719 C 41.210938 62.398438 41.617188 63.058594 41.617188 63.757812 Z M 41.617188 63.757812 "/>
<path fill-rule="nonzero" fill="rgb(0%, 0%, 0%)" fill-opacity="1" d="M 45.195312 60.492188 L 45.195312 59.984375 L 44.613281 59.984375 C 44.027344 59.984375 43.445312 60.378906 43.417969 61.445312 L 43.417969 61.929688 L 42.820312 61.929688 L 42.820312 62.425781 L 43.417969 62.425781 L 43.417969 65.585938 L 44.027344 65.585938 L 44.027344 62.425781 L 45.058594 62.425781 L 45.058594 61.929688 L 44.027344 61.929688 L 44.027344 61.371094 C 44.027344 60.660156 44.433594 60.492188 44.597656 60.492188 Z M 45.195312 60.492188 "/>
<path fill-rule="nonzero" fill="rgb(0%, 0%, 0%)" fill-opacity="1" d="M 51 65.460938 L 51 64.863281 C 50.605469 65.066406 50.441406 65.167969 49.933594 65.167969 C 49.042969 65.15625 48.613281 64.632812 48.613281 63.757812 C 48.613281 62.90625 49.058594 62.359375 49.933594 62.359375 C 50.417969 62.386719 50.59375 62.460938 51 62.664062 L 51 62.054688 C 50.671875 61.953125 50.316406 61.839844 49.894531 61.839844 C 48.703125 61.839844 48.003906 62.601562 48.003906 63.757812 C 48.027344 64.902344 48.675781 65.6875 49.859375 65.6875 C 50.265625 65.6875 50.695312 65.574219 51 65.460938 Z M 51 65.460938 "/>
<path fill-rule="nonzero" fill="rgb(0%, 0%, 0%)" fill-opacity="1" d="M 55.003906 65.585938 L 55.003906 63.363281 C 55.003906 62.511719 54.625 61.839844 53.695312 61.839844 C 53.199219 61.839844 52.730469 61.992188 52.453125 62.4375 L 52.453125 59.984375 L 51.855469 59.984375 L 51.855469 65.585938 L 52.453125 65.585938 L 52.453125 63.515625 C 52.476562 62.816406 52.945312 62.375 53.554688 62.375 C 54.203125 62.386719 54.421875 62.753906 54.421875 63.402344 L 54.421875 65.585938 Z M 55.003906 65.585938 "/>
<path fill-rule="nonzero" fill="rgb(0%, 0%, 0%)" fill-opacity="1" d="M 56.683594 65.585938 L 56.683594 61.929688 L 56.074219 61.929688 L 56.074219 65.585938 Z M 56.378906 59.984375 C 56.1875 59.984375 56.023438 60.164062 56.023438 60.355469 C 56.023438 60.558594 56.1875 60.734375 56.378906 60.734375 C 56.582031 60.734375 56.734375 60.558594 56.734375 60.355469 C 56.734375 60.164062 56.582031 59.984375 56.378906 59.984375 Z M 56.378906 59.984375 "/>
<path fill-rule="nonzero" fill="rgb(0%, 0%, 0%)" fill-opacity="1" d="M 57.710938 59.984375 L 58.308594 59.984375 L 58.308594 65.585938 L 57.710938 65.585938 Z M 57.710938 59.984375 "/>
<path fill-rule="nonzero" fill="rgb(0%, 0%, 0%)" fill-opacity="1" d="M 59.214844 63.757812 C 59.214844 64.835938 59.925781 65.585938 61.019531 65.585938 L 62.570312 65.585938 L 62.570312 59.984375 L 61.957031 59.984375 L 61.957031 61.929688 L 61.070312 61.929688 C 59.875 61.929688 59.214844 62.664062 59.214844 63.757812 Z M 59.800781 63.757812 C 59.800781 63.046875 60.257812 62.460938 61.070312 62.460938 L 61.957031 62.460938 L 61.957031 65.054688 L 61.070312 65.054688 C 60.269531 65.054688 59.800781 64.546875 59.800781 63.757812 Z M 59.800781 63.757812 "/>
<path fill-rule="nonzero" fill="rgb(0%, 0%, 0%)" fill-opacity="1" d="M 26.9375 75.304688 L 26.9375 71.648438 L 26.328125 71.648438 L 26.328125 75.304688 Z M 26.632812 69.703125 C 26.441406 69.703125 26.277344 69.882812 26.277344 70.074219 C 26.277344 70.277344 26.441406 70.453125 26.632812 70.453125 C 26.835938 70.453125 26.988281 70.277344 26.988281 70.074219 C 26.988281 69.882812 26.835938 69.703125 26.632812 69.703125 Z M 26.632812 69.703125 "/>
<path fill-rule="nonzero" fill="rgb(0%, 0%, 0%)" fill-opacity="1" d="M 30.730469 74.289062 C 30.730469 73.566406 30.238281 73.335938 29.574219 73.210938 L 29.320312 73.160156 C 28.964844 73.082031 28.445312 73.007812 28.445312 72.613281 C 28.472656 72.15625 29.003906 72.066406 29.410156 72.066406 C 30.058594 72.09375 30.007812 72.128906 30.554688 72.359375 L 30.554688 71.761719 C 30.210938 71.621094 29.777344 71.558594 29.335938 71.558594 C 28.609375 71.558594 27.898438 71.824219 27.898438 72.636719 C 27.910156 73.296875 28.355469 73.554688 28.964844 73.667969 L 29.195312 73.71875 C 29.640625 73.820312 30.148438 73.871094 30.148438 74.339844 C 30.121094 74.796875 29.601562 74.886719 29.195312 74.886719 C 28.523438 74.875 28.421875 74.796875 27.835938 74.519531 L 27.835938 75.179688 C 28.179688 75.265625 28.777344 75.40625 29.183594 75.40625 C 29.894531 75.40625 30.730469 75.140625 30.730469 74.289062 Z M 30.730469 74.289062 "/>
<path fill-rule="nonzero" fill="rgb(0%, 0%, 0%)" fill-opacity="1" d="M 35.207031 75.304688 L 35.207031 69.703125 L 34.535156 69.703125 L 33.734375 70.351562 L 33.734375 70.988281 L 34.574219 70.300781 L 34.574219 75.304688 Z M 35.207031 75.304688 "/>
<path fill-rule="nonzero" fill="rgb(0%, 0%, 0%)" fill-opacity="1" d="M 39.90625 72.523438 C 39.894531 71.328125 39.625 69.601562 38.113281 69.601562 C 36.605469 69.601562 36.351562 71.355469 36.351562 72.523438 C 36.351562 73.707031 36.617188 75.421875 38.113281 75.421875 C 39.613281 75.421875 39.90625 73.707031 39.90625 72.523438 Z M 39.320312 72.523438 C 39.320312 73.296875 39.257812 74.886719 38.113281 74.886719 C 36.972656 74.886719 36.933594 73.273438 36.933594 72.523438 C 36.933594 71.761719 36.960938 70.125 38.113281 70.125 C 39.257812 70.125 39.320312 71.773438 39.320312 72.523438 Z M 39.320312 72.523438 "/>
<path fill-rule="nonzero" fill="rgb(0%, 0%, 0%)" fill-opacity="1" d="M 46.523438 71.648438 L 45.964844 71.648438 L 44.835938 74.328125 L 43.515625 71.648438 L 42.941406 71.648438 L 44.53125 74.925781 L 43.90625 76.398438 C 43.804688 76.652344 43.464844 76.84375 43.296875 76.84375 L 43.5 77.261719 C 43.804688 77.238281 44.125 77.019531 44.328125 76.703125 Z M 46.523438 71.648438 "/>
<path fill-rule="nonzero" fill="rgb(0%, 0%, 0%)" fill-opacity="1" d="M 50.203125 73.476562 L 50.203125 73.414062 C 50.203125 72.359375 49.773438 71.585938 48.566406 71.558594 C 47.488281 71.558594 46.878906 72.5 46.878906 73.515625 C 46.878906 74.621094 47.550781 75.40625 48.667969 75.40625 C 49.175781 75.40625 49.632812 75.292969 50.078125 75.128906 L 50.078125 74.519531 C 49.492188 74.796875 49.40625 74.859375 48.71875 74.859375 C 47.957031 74.859375 47.5 74.402344 47.5 73.539062 L 47.5 73.476562 Z M 49.609375 72.980469 L 47.523438 72.980469 C 47.601562 72.5 47.957031 72.078125 48.566406 72.078125 C 49.203125 72.078125 49.609375 72.472656 49.609375 72.980469 Z M 49.609375 72.980469 "/>
<path fill-rule="nonzero" fill="rgb(0%, 0%, 0%)" fill-opacity="1" d="M 53.890625 75.304688 L 53.890625 73.222656 C 53.890625 72.167969 53.445312 71.558594 52.355469 71.558594 C 51.960938 71.558594 51.476562 71.6875 51.121094 71.8125 L 51.121094 72.410156 C 51.492188 72.207031 51.796875 72.078125 52.304688 72.078125 C 52.886719 72.09375 53.332031 72.382812 53.332031 72.992188 L 52.496094 72.992188 C 51.632812 72.992188 50.867188 73.285156 50.867188 74.238281 C 50.894531 74.976562 51.324219 75.40625 52.0625 75.40625 C 52.582031 75.40625 53.054688 75.191406 53.332031 74.824219 L 53.332031 75.304688 Z M 53.332031 73.605469 C 53.332031 74.316406 53.003906 74.886719 52.242188 74.886719 C 51.796875 74.886719 51.425781 74.683594 51.425781 74.199219 C 51.425781 73.488281 52.101562 73.488281 52.734375 73.488281 L 53.332031 73.488281 Z M 53.332031 73.605469 "/>
<path fill-rule="nonzero" fill="rgb(0%, 0%, 0%)" fill-opacity="1" d="M 56.996094 72.382812 L 57.1875 71.800781 C 57.097656 71.699219 56.703125 71.597656 56.4375 71.597656 C 56.054688 71.609375 55.738281 71.800781 55.574219 72.144531 L 55.574219 71.648438 L 54.964844 71.648438 L 54.964844 75.304688 L 55.574219 75.304688 L 55.574219 73.375 C 55.574219 73.363281 55.574219 73.347656 55.574219 73.347656 C 55.574219 72.816406 55.851562 72.117188 56.425781 72.117188 L 56.460938 72.117188 C 56.652344 72.117188 56.804688 72.230469 56.996094 72.382812 Z M 56.996094 72.382812 "/>
<path fill-rule="nonzero" fill="rgb(0%, 0%, 0%)" fill-opacity="1" d="M 60.453125 74.289062 C 60.453125 73.566406 59.960938 73.335938 59.296875 73.210938 L 59.042969 73.160156 C 58.6875 73.082031 58.167969 73.007812 58.167969 72.613281 C 58.195312 72.15625 58.726562 72.066406 59.132812 72.066406 C 59.78125 72.09375 59.730469 72.128906 60.277344 72.359375 L 60.277344 71.761719 C 59.933594 71.621094 59.5 71.558594 59.058594 71.558594 C 58.332031 71.558594 57.621094 71.824219 57.621094 72.636719 C 57.632812 73.296875 58.078125 73.554688 58.6875 73.667969 L 58.917969 73.71875 C 59.363281 73.820312 59.871094 73.871094 59.871094 74.339844 C 59.84375 74.796875 59.324219 74.886719 58.917969 74.886719 C 58.246094 74.875 58.144531 74.796875 57.558594 74.519531 L 57.558594 75.179688 C 57.902344 75.265625 58.5 75.40625 58.90625 75.40625 C 59.617188 75.40625 60.453125 75.140625 60.453125 74.289062 Z M 60.453125 74.289062 "/>
<path fill-rule="nonzero" fill="rgb(0%, 0%, 0%)" fill-opacity="1" d="M 296.019531 73.042969 L 297.429688 73.042969 L 297.429688 72.753906 L 296.308594 72.753906 L 296.308594 64.503906 L 297.429688 64.503906 L 297.429688 64.207031 L 296.019531 64.207031 Z M 296.019531 73.042969 "/>
<path fill-rule="nonzero" fill="rgb(0%, 0%, 0%)" fill-opacity="1" d="M 299.769531 65.683594 C 299.769531 65.5 299.769531 65.488281 299.597656 65.488281 C 299.132812 65.960938 298.488281 65.960938 298.257812 65.960938 L 298.257812 66.191406 C 298.40625 66.191406 298.835938 66.191406 299.214844 65.996094 L 299.214844 69.820312 C 299.214844 70.085938 299.191406 70.167969 298.535156 70.167969 L 298.300781 70.167969 L 298.300781 70.398438 C 298.558594 70.375 299.191406 70.375 299.492188 70.375 C 299.78125 70.375 300.429688 70.375 300.683594 70.398438 L 300.683594 70.167969 L 300.453125 70.167969 C 299.78125 70.167969 299.769531 70.085938 299.769531 69.820312 Z M 299.769531 65.683594 "/>
<path fill-rule="nonzero" fill="rgb(0%, 0%, 0%)" fill-opacity="1" d="M 303.417969 67.796875 C 304.019531 67.601562 304.445312 67.09375 304.445312 66.503906 C 304.445312 65.90625 303.796875 65.488281 303.09375 65.488281 C 302.355469 65.488281 301.789062 65.925781 301.789062 66.492188 C 301.789062 66.734375 301.949219 66.875 302.171875 66.875 C 302.390625 66.875 302.539062 66.714844 302.539062 66.492188 C 302.539062 66.136719 302.191406 66.136719 302.089844 66.136719 C 302.308594 65.765625 302.792969 65.671875 303.058594 65.671875 C 303.371094 65.671875 303.777344 65.835938 303.777344 66.492188 C 303.777344 66.585938 303.753906 67.011719 303.566406 67.335938 C 303.347656 67.695312 303.09375 67.71875 302.910156 67.71875 C 302.851562 67.730469 302.679688 67.742188 302.621094 67.742188 C 302.5625 67.753906 302.515625 67.765625 302.515625 67.832031 C 302.515625 67.914062 302.5625 67.914062 302.691406 67.914062 L 303.011719 67.914062 C 303.613281 67.914062 303.890625 68.410156 303.890625 69.136719 C 303.890625 70.144531 303.382812 70.351562 303.058594 70.351562 C 302.734375 70.351562 302.179688 70.222656 301.925781 69.796875 C 302.179688 69.832031 302.414062 69.671875 302.414062 69.394531 C 302.414062 69.128906 302.214844 68.976562 302.007812 68.976562 C 301.824219 68.976562 301.59375 69.082031 301.59375 69.40625 C 301.59375 70.074219 302.273438 70.558594 303.082031 70.558594 C 303.984375 70.558594 304.652344 69.890625 304.652344 69.136719 C 304.652344 68.539062 304.179688 67.960938 303.417969 67.796875 Z M 303.417969 67.796875 "/>
<path fill-rule="nonzero" fill="rgb(0%, 0%, 0%)" fill-opacity="1" d="M 307.664062 68.054688 L 307.664062 68.296875 C 307.664062 70.015625 306.902344 70.351562 306.476562 70.351562 C 306.347656 70.351562 305.945312 70.339844 305.75 70.085938 C 306.070312 70.085938 306.128906 69.878906 306.128906 69.75 C 306.128906 69.519531 305.957031 69.414062 305.792969 69.414062 C 305.679688 69.414062 305.460938 69.472656 305.460938 69.761719 C 305.460938 70.257812 305.851562 70.558594 306.476562 70.558594 C 307.433594 70.558594 308.335938 69.554688 308.335938 67.972656 C 308.335938 65.984375 307.480469 65.488281 306.824219 65.488281 C 306.417969 65.488281 306.058594 65.628906 305.75 65.949219 C 305.4375 66.285156 305.273438 66.597656 305.273438 67.152344 C 305.273438 68.0625 305.921875 68.792969 306.742188 68.792969 C 307.191406 68.792969 307.492188 68.480469 307.664062 68.054688 Z M 306.753906 68.617188 C 306.636719 68.617188 306.292969 68.617188 306.070312 68.15625 C 305.933594 67.878906 305.933594 67.523438 305.933594 67.152344 C 305.933594 66.757812 305.933594 66.414062 306.09375 66.136719 C 306.292969 65.765625 306.570312 65.671875 306.824219 65.671875 C 307.167969 65.671875 307.410156 65.925781 307.539062 66.25 C 307.621094 66.492188 307.65625 66.957031 307.65625 67.289062 C 307.65625 67.902344 307.398438 68.617188 306.753906 68.617188 Z M 306.753906 68.617188 "/>
<path fill-rule="nonzero" fill="rgb(0%, 0%, 0%)" fill-opacity="1" d="M 310.226562 73.042969 L 310.226562 64.207031 L 308.808594 64.207031 L 308.808594 64.503906 L 309.925781 64.503906 L 309.925781 72.753906 L 308.808594 72.753906 L 308.808594 73.042969 Z M 310.226562 73.042969 "/>
<path fill-rule="nonzero" fill="rgb(0%, 0%, 0%)" fill-opacity="1" d="M 344.699219 66.507812 L 344.699219 60.90625 L 344.089844 60.90625 L 344.089844 63.230469 L 341.398438 63.230469 L 341.398438 60.90625 L 340.789062 60.90625 L 340.789062 66.507812 L 341.398438 66.507812 L 341.398438 63.816406 L 344.089844 63.816406 L 344.089844 66.507812 Z M 344.699219 66.507812 "/>
<path fill-rule="nonzero" fill="rgb(0%, 0%, 0%)" fill-opacity="1" d="M 348.953125 64.679688 L 348.953125 64.617188 C 348.953125 63.5625 348.523438 62.785156 347.316406 62.761719 C 346.234375 62.761719 345.625 63.699219 345.625 64.71875 C 345.625 65.820312 346.300781 66.609375 347.417969 66.609375 C 347.925781 66.609375 348.382812 66.496094 348.828125 66.332031 L 348.828125 65.71875 C 348.242188 66 348.152344 66.0625 347.46875 66.0625 C 346.707031 66.0625 346.25 65.605469 346.25 64.742188 L 346.25 64.679688 Z M 348.355469 64.183594 L 346.273438 64.183594 C 346.351562 63.699219 346.707031 63.28125 347.316406 63.28125 C 347.949219 63.28125 348.355469 63.675781 348.355469 64.183594 Z M 348.355469 64.183594 "/>
<path fill-rule="nonzero" fill="rgb(0%, 0%, 0%)" fill-opacity="1" d="M 350.441406 66.507812 L 350.441406 62.851562 L 349.832031 62.851562 L 349.832031 66.507812 Z M 350.136719 60.90625 C 349.949219 60.90625 349.78125 61.085938 349.78125 61.273438 C 349.78125 61.476562 349.949219 61.65625 350.136719 61.65625 C 350.339844 61.65625 350.492188 61.476562 350.492188 61.273438 C 350.492188 61.085938 350.339844 60.90625 350.136719 60.90625 Z M 350.136719 60.90625 "/>
<path fill-rule="nonzero" fill="rgb(0%, 0%, 0%)" fill-opacity="1" d="M 352.664062 66.417969 C 353.347656 66.417969 353.820312 66.75 353.820312 67.195312 C 353.820312 67.636719 353.347656 67.957031 352.664062 67.957031 C 351.976562 67.957031 351.597656 67.636719 351.597656 67.195312 C 351.597656 66.75 351.976562 66.417969 352.664062 66.417969 Z M 352.664062 65.898438 C 352.601562 65.898438 352.535156 65.898438 352.460938 65.910156 C 352.078125 65.910156 351.75 65.683594 351.75 65.53125 C 351.75 65.351562 351.953125 65.289062 352.105469 65.289062 L 352.15625 65.289062 C 352.28125 65.402344 352.664062 65.441406 352.777344 65.441406 C 353.476562 65.441406 354.035156 64.84375 354.035156 64.109375 C 354.035156 63.816406 353.933594 63.535156 353.769531 63.320312 L 354.367188 63.320312 L 354.367188 62.863281 L 353.335938 62.863281 C 353.171875 62.8125 352.941406 62.785156 352.816406 62.785156 C 352.117188 62.785156 351.53125 63.382812 351.507812 64.109375 C 351.507812 64.464844 351.636719 64.78125 351.863281 65.007812 C 351.597656 65.058594 351.304688 65.238281 351.304688 65.582031 C 351.304688 65.796875 351.445312 66 351.738281 66.128906 C 351.265625 66.367188 350.988281 66.761719 350.988281 67.179688 C 350.988281 67.839844 351.660156 68.453125 352.664062 68.453125 C 353.679688 68.453125 354.503906 67.839844 354.503906 67.195312 C 354.503906 66.34375 353.515625 65.898438 352.664062 65.898438 Z M 352.777344 63.292969 C 353.210938 63.292969 353.566406 63.648438 353.566406 64.09375 C 353.566406 64.527344 353.210938 64.882812 352.777344 64.882812 C 352.332031 64.882812 351.992188 64.527344 351.992188 64.09375 C 351.992188 63.648438 352.332031 63.292969 352.777344 63.292969 Z M 352.777344 63.292969 "/>
<path fill-rule="nonzero" fill="rgb(0%, 0%, 0%)" fill-opacity="1" d="M 358.464844 66.507812 L 358.464844 64.285156 C 358.464844 63.433594 358.085938 62.761719 357.15625 62.761719 C 356.664062 62.761719 356.191406 62.914062 355.914062 63.359375 L 355.914062 60.90625 L 355.316406 60.90625 L 355.316406 66.507812 L 355.914062 66.507812 L 355.914062 64.4375 C 355.9375 63.738281 356.410156 63.292969 357.019531 63.292969 C 357.667969 63.308594 357.882812 63.675781 357.882812 64.324219 L 357.882812 66.507812 Z M 358.464844 66.507812 "/>
<path fill-rule="nonzero" fill="rgb(0%, 0%, 0%)" fill-opacity="1" d="M 361.433594 66.507812 L 361.433594 65.988281 L 360.800781 65.988281 C 360.226562 65.988281 360.125 65.847656 360.125 65.3125 L 360.125 63.332031 L 361.207031 63.332031 L 361.207031 62.851562 L 360.125 62.851562 L 360.125 61.808594 L 359.871094 61.808594 L 359.53125 62.851562 L 359.097656 62.851562 L 359.097656 63.332031 L 359.53125 63.332031 L 359.53125 65.3125 C 359.53125 66.230469 359.898438 66.507812 360.800781 66.507812 Z M 361.433594 66.507812 "/>
<path fill-rule="nonzero" fill="rgb(0%, 0%, 0%)" fill-opacity="1" d="M 367.867188 64.679688 C 367.867188 63.75 367.371094 62.761719 366.152344 62.761719 C 365.046875 62.761719 364.421875 63.613281 364.421875 64.679688 C 364.421875 65.683594 365.070312 66.585938 366.152344 66.609375 C 367.242188 66.585938 367.867188 65.707031 367.867188 64.679688 Z M 367.269531 64.679688 C 367.269531 65.402344 366.824219 66.050781 366.152344 66.050781 C 365.234375 66.039062 365.03125 65.226562 365.03125 64.667969 C 365.03125 63.929688 365.386719 63.320312 366.152344 63.308594 C 366.863281 63.320312 367.269531 63.980469 367.269531 64.679688 Z M 367.269531 64.679688 "/>
<path fill-rule="nonzero" fill="rgb(0%, 0%, 0%)" fill-opacity="1" d="M 370.847656 61.414062 L 370.847656 60.90625 L 370.265625 60.90625 C 369.679688 60.90625 369.097656 61.300781 369.070312 62.367188 L 369.070312 62.851562 L 368.472656 62.851562 L 368.472656 63.34375 L 369.070312 63.34375 L 369.070312 66.507812 L 369.679688 66.507812 L 369.679688 63.34375 L 370.710938 63.34375 L 370.710938 62.851562 L 369.679688 62.851562 L 369.679688 62.292969 C 369.679688 61.578125 370.085938 61.414062 370.253906 61.414062 Z M 370.847656 61.414062 "/>
<path fill-rule="nonzero" fill="rgb(0%, 0%, 0%)" fill-opacity="1" d="M 376.652344 66.382812 L 376.652344 65.785156 C 376.261719 65.988281 376.09375 66.089844 375.585938 66.089844 C 374.699219 66.078125 374.265625 65.554688 374.265625 64.679688 C 374.265625 63.828125 374.710938 63.28125 375.585938 63.28125 C 376.070312 63.308594 376.246094 63.382812 376.652344 63.585938 L 376.652344 62.976562 C 376.324219 62.875 375.96875 62.761719 375.546875 62.761719 C 374.355469 62.761719 373.65625 63.523438 373.65625 64.679688 C 373.679688 65.820312 374.328125 66.609375 375.511719 66.609375 C 375.917969 66.609375 376.347656 66.496094 376.652344 66.382812 Z M 376.652344 66.382812 "/>
<path fill-rule="nonzero" fill="rgb(0%, 0%, 0%)" fill-opacity="1" d="M 380.65625 66.507812 L 380.65625 64.285156 C 380.65625 63.433594 380.277344 62.761719 379.347656 62.761719 C 378.851562 62.761719 378.382812 62.914062 378.105469 63.359375 L 378.105469 60.90625 L 377.507812 60.90625 L 377.507812 66.507812 L 378.105469 66.507812 L 378.105469 64.4375 C 378.128906 63.738281 378.597656 63.292969 379.210938 63.292969 C 379.855469 63.308594 380.074219 63.675781 380.074219 64.324219 L 380.074219 66.507812 Z M 380.65625 66.507812 "/>
<path fill-rule="nonzero" fill="rgb(0%, 0%, 0%)" fill-opacity="1" d="M 382.335938 66.507812 L 382.335938 62.851562 L 381.726562 62.851562 L 381.726562 66.507812 Z M 382.03125 60.90625 C 381.839844 60.90625 381.675781 61.085938 381.675781 61.273438 C 381.675781 61.476562 381.839844 61.65625 382.03125 61.65625 C 382.234375 61.65625 382.386719 61.476562 382.386719 61.273438 C 382.386719 61.085938 382.234375 60.90625 382.03125 60.90625 Z M 382.03125 60.90625 "/>
<path fill-rule="nonzero" fill="rgb(0%, 0%, 0%)" fill-opacity="1" d="M 383.363281 60.90625 L 383.960938 60.90625 L 383.960938 66.507812 L 383.363281 66.507812 Z M 383.363281 60.90625 "/>
<path fill-rule="nonzero" fill="rgb(0%, 0%, 0%)" fill-opacity="1" d="M 384.867188 64.679688 C 384.867188 65.757812 385.578125 66.507812 386.671875 66.507812 L 388.222656 66.507812 L 388.222656 60.90625 L 387.613281 60.90625 L 387.613281 62.851562 L 386.722656 62.851562 C 385.527344 62.851562 384.867188 63.585938 384.867188 64.679688 Z M 385.453125 64.679688 C 385.453125 63.96875 385.910156 63.382812 386.722656 63.382812 L 387.613281 63.382812 L 387.613281 65.972656 L 386.722656 65.972656 C 385.921875 65.972656 385.453125 65.464844 385.453125 64.679688 Z M 385.453125 64.679688 "/>
<path fill-rule="nonzero" fill="rgb(0%, 0%, 0%)" fill-opacity="1" d="M 348.320312 76.226562 L 348.320312 72.570312 L 347.710938 72.570312 L 347.710938 76.226562 Z M 348.015625 70.625 C 347.824219 70.625 347.660156 70.804688 347.660156 70.992188 C 347.660156 71.195312 347.824219 71.375 348.015625 71.375 C 348.21875 71.375 348.371094 71.195312 348.371094 70.992188 C 348.371094 70.804688 348.21875 70.625 348.015625 70.625 Z M 348.015625 70.625 "/>
<path fill-rule="nonzero" fill="rgb(0%, 0%, 0%)" fill-opacity="1" d="M 352.117188 75.210938 C 352.117188 74.488281 351.621094 74.257812 350.960938 74.128906 L 350.707031 74.078125 C 350.351562 74.003906 349.832031 73.925781 349.832031 73.535156 C 349.855469 73.078125 350.390625 72.988281 350.796875 72.988281 C 351.445312 73.011719 351.394531 73.050781 351.9375 73.28125 L 351.9375 72.683594 C 351.597656 72.542969 351.164062 72.480469 350.71875 72.480469 C 349.996094 72.480469 349.285156 72.746094 349.285156 73.558594 C 349.296875 74.21875 349.742188 74.472656 350.351562 74.589844 L 350.578125 74.640625 C 351.023438 74.742188 351.53125 74.792969 351.53125 75.261719 C 351.507812 75.71875 350.984375 75.808594 350.578125 75.808594 C 349.90625 75.792969 349.804688 75.71875 349.222656 75.4375 L 349.222656 76.097656 C 349.5625 76.1875 350.160156 76.328125 350.566406 76.328125 C 351.277344 76.328125 352.117188 76.0625 352.117188 75.210938 Z M 352.117188 75.210938 "/>
<path fill-rule="nonzero" fill="rgb(0%, 0%, 0%)" fill-opacity="1" d="M 356.59375 76.226562 L 356.59375 70.625 L 355.921875 70.625 L 355.121094 71.273438 L 355.121094 71.90625 L 355.957031 71.222656 L 355.957031 76.226562 Z M 356.59375 76.226562 "/>
<path fill-rule="nonzero" fill="rgb(0%, 0%, 0%)" fill-opacity="1" d="M 360.882812 74.601562 C 360.882812 73.976562 360.503906 73.40625 359.792969 73.203125 C 360.402344 72.976562 360.757812 72.53125 360.757812 71.945312 C 360.757812 70.96875 359.945312 70.523438 359.054688 70.523438 C 358.609375 70.523438 358.066406 70.625 357.671875 70.753906 L 357.671875 71.375 C 358.101562 71.222656 358.472656 71.09375 358.992188 71.09375 C 359.652344 71.09375 360.1875 71.335938 360.1875 72.046875 C 360.171875 72.695312 359.652344 72.960938 359.015625 72.960938 L 358.421875 72.960938 L 358.421875 73.507812 L 358.992188 73.507812 C 359.730469 73.507812 360.3125 73.824219 360.3125 74.601562 C 360.3125 75.515625 359.679688 75.769531 358.851562 75.769531 C 358.269531 75.769531 357.914062 75.667969 357.507812 75.386719 L 357.507812 76.074219 C 357.914062 76.214844 358.382812 76.339844 358.863281 76.339844 C 359.996094 76.339844 360.882812 75.832031 360.882812 74.601562 Z M 360.882812 74.601562 "/>
<path fill-rule="nonzero" fill="rgb(0%, 0%, 0%)" fill-opacity="1" d="M 365.226562 73.140625 L 365.226562 73.050781 C 365.226562 71.386719 364.769531 70.523438 363.371094 70.523438 C 362.417969 70.535156 361.667969 71.246094 361.667969 72.3125 C 361.667969 73.382812 362.214844 74.195312 363.332031 74.195312 C 363.851562 74.179688 364.222656 74.09375 364.601562 73.648438 C 364.578125 75.25 363.28125 75.769531 362.339844 75.820312 L 362.316406 76.328125 C 363.6875 76.328125 365.226562 75.605469 365.226562 73.140625 Z M 364.578125 72.3125 C 364.566406 73.078125 364.15625 73.671875 363.371094 73.671875 C 362.609375 73.671875 362.253906 73.0625 362.253906 72.3125 C 362.253906 71.566406 362.609375 71.058594 363.371094 71.058594 C 364.132812 71.058594 364.578125 71.539062 364.578125 72.3125 Z M 364.578125 72.3125 "/>
<path fill-rule="nonzero" fill="rgb(0%, 0%, 0%)" fill-opacity="1" d="M 371.476562 76.097656 L 371.476562 75.503906 C 371.085938 75.707031 370.917969 75.808594 370.410156 75.808594 C 369.523438 75.792969 369.089844 75.273438 369.089844 74.398438 C 369.089844 73.546875 369.535156 73 370.410156 73 C 370.894531 73.027344 371.070312 73.101562 371.476562 73.304688 L 371.476562 72.695312 C 371.148438 72.59375 370.792969 72.480469 370.375 72.480469 C 369.179688 72.480469 368.480469 73.242188 368.480469 74.398438 C 368.507812 75.539062 369.152344 76.328125 370.335938 76.328125 C 370.742188 76.328125 371.171875 76.214844 371.476562 76.097656 Z M 371.476562 76.097656 "/>
<path fill-rule="nonzero" fill="rgb(0%, 0%, 0%)" fill-opacity="1" d="M 377.769531 76.226562 L 377.769531 74.015625 C 377.769531 73.230469 377.476562 72.480469 376.574219 72.480469 C 376.015625 72.480469 375.558594 72.773438 375.265625 73.214844 C 375.074219 72.785156 374.667969 72.480469 374.148438 72.480469 C 373.664062 72.480469 373.195312 72.734375 372.929688 73.0625 L 372.929688 72.570312 L 372.332031 72.570312 L 372.332031 76.226562 L 372.929688 76.226562 L 372.929688 74.15625 C 372.953125 73.507812 373.347656 73.011719 373.933594 73.011719 L 373.96875 73.011719 C 374.582031 73.011719 374.757812 73.394531 374.757812 74.042969 L 374.757812 76.226562 L 375.34375 76.226562 L 375.34375 74.15625 C 375.355469 73.46875 375.699219 73.011719 376.410156 73.011719 C 377.019531 73.011719 377.195312 73.433594 377.195312 74.042969 L 377.195312 76.226562 Z M 377.769531 76.226562 "/>
<path fill-rule="nonzero" fill="rgb(0%, 0%, 0%)" fill-opacity="1" d="M 381.523438 75.210938 C 381.523438 74.488281 381.027344 74.257812 380.367188 74.128906 L 380.113281 74.078125 C 379.757812 74.003906 379.238281 73.925781 379.238281 73.535156 C 379.261719 73.078125 379.796875 72.988281 380.203125 72.988281 C 380.851562 73.011719 380.800781 73.050781 381.34375 73.28125 L 381.34375 72.683594 C 381.003906 72.542969 380.570312 72.480469 380.125 72.480469 C 379.402344 72.480469 378.691406 72.746094 378.691406 73.558594 C 378.703125 74.21875 379.148438 74.472656 379.757812 74.589844 L 379.988281 74.640625 C 380.429688 74.742188 380.9375 74.792969 380.9375 75.261719 C 380.914062 75.71875 380.394531 75.808594 379.988281 75.808594 C 379.3125 75.792969 379.210938 75.71875 378.628906 75.4375 L 378.628906 76.097656 C 378.96875 76.1875 379.566406 76.328125 379.972656 76.328125 C 380.683594 76.328125 381.523438 76.0625 381.523438 75.210938 Z M 381.523438 75.210938 "/>
<path fill="none" stroke-width="0.850394" stroke-linecap="butt" stroke-linejoin="miter" stroke="rgb(25.881958%, 29.411316%, 30.979919%)" stroke-opacity="1" stroke-miterlimit="4" d="M 85.757812 68.625 L 96.542969 68.625 "/>
<path fill-rule="evenodd" fill="rgb(25.881958%, 29.411316%, 30.979919%)" fill-opacity="1" stroke-width="0.453543" stroke-linecap="butt" stroke-linejoin="miter" stroke="rgb(25.881958%, 29.411316%, 30.979919%)" stroke-opacity="1" stroke-miterlimit="4" d="M 98.507812 68.625 L 95.5625 70.324219 L 95.5625 66.921875 Z M 98.507812 68.625 "/>
<path fill-rule="nonzero" fill="rgb(0%, 0%, 0%)" fill-opacity="1" d="M 100.03125 73.042969 L 101.441406 73.042969 L 101.441406 72.753906 L 100.320312 72.753906 L 100.320312 64.503906 L 101.441406 64.503906 L 101.441406 64.207031 L 100.03125 64.207031 Z M 100.03125 73.042969 "/>
<path fill-rule="nonzero" fill="rgb(0%, 0%, 0%)" fill-opacity="1" d="M 103.78125 65.683594 C 103.78125 65.5 103.78125 65.488281 103.609375 65.488281 C 103.148438 65.960938 102.5 65.960938 102.269531 65.960938 L 102.269531 66.191406 C 102.417969 66.191406 102.847656 66.191406 103.226562 65.996094 L 103.226562 69.820312 C 103.226562 70.085938 103.203125 70.167969 102.546875 70.167969 L 102.316406 70.167969 L 102.316406 70.398438 C 102.570312 70.375 103.203125 70.375 103.503906 70.375 C 103.792969 70.375 104.441406 70.375 104.695312 70.398438 L 104.695312 70.167969 L 104.464844 70.167969 C 103.792969 70.167969 103.78125 70.085938 103.78125 69.820312 Z M 103.78125 65.683594 "/>
<path fill-rule="nonzero" fill="rgb(0%, 0%, 0%)" fill-opacity="1" d="M 108.675781 68.042969 C 108.675781 67.453125 108.644531 66.863281 108.390625 66.320312 C 108.054688 65.605469 107.441406 65.488281 107.140625 65.488281 C 106.691406 65.488281 106.160156 65.683594 105.847656 66.367188 C 105.617188 66.875 105.582031 67.453125 105.582031 68.042969 C 105.582031 68.597656 105.605469 69.253906 105.917969 69.820312 C 106.230469 70.410156 106.773438 70.558594 107.128906 70.558594 C 107.523438 70.558594 108.089844 70.410156 108.410156 69.703125 C 108.644531 69.195312 108.675781 68.617188 108.675781 68.042969 Z M 107.128906 70.398438 C 106.839844 70.398438 106.402344 70.210938 106.273438 69.507812 C 106.195312 69.070312 106.195312 68.386719 106.195312 67.949219 C 106.195312 67.476562 106.195312 66.988281 106.253906 66.597656 C 106.390625 65.71875 106.945312 65.648438 107.128906 65.648438 C 107.371094 65.648438 107.859375 65.789062 107.996094 66.515625 C 108.078125 66.933594 108.078125 67.488281 108.078125 67.949219 C 108.078125 68.503906 108.078125 69 107.996094 69.472656 C 107.878906 70.179688 107.464844 70.398438 107.128906 70.398438 Z M 107.128906 70.398438 "/>
<path fill-rule="nonzero" fill="rgb(0%, 0%, 0%)" fill-opacity="1" d="M 110.558594 73.042969 L 110.558594 64.207031 L 109.136719 64.207031 L 109.136719 64.503906 L 110.257812 64.503906 L 110.257812 72.753906 L 109.136719 72.753906 L 109.136719 73.042969 Z M 110.558594 73.042969 "/>
<path fill="none" stroke-width="0.850394" stroke-linecap="butt" stroke-linejoin="miter" stroke="rgb(25.881958%, 29.411316%, 30.979919%)" stroke-opacity="1" stroke-miterlimit="4" d="M 110.507812 68.625 L 121.292969 68.625 "/>
<path fill-rule="evenodd" fill="rgb(25.881958%, 29.411316%, 30.979919%)" fill-opacity="1" stroke-width="0.453543" stroke-linecap="butt" stroke-linejoin="miter" stroke="rgb(25.881958%, 29.411316%, 30.979919%)" stroke-opacity="1" stroke-miterlimit="4" d="M 123.253906 68.625 L 120.3125 70.324219 L 120.3125 66.921875 Z M 123.253906 68.625 "/>
<path fill="none" stroke-width="0.850394" stroke-linecap="butt" stroke-linejoin="miter" stroke="rgb(25.881958%, 29.411316%, 30.979919%)" stroke-opacity="1" stroke-miterlimit="4" d="M 310.195312 68.625 L 318.582031 68.625 "/>
<path fill-rule="evenodd" fill="rgb(25.881958%, 29.411316%, 30.979919%)" fill-opacity="1" stroke-width="0.453543" stroke-linecap="butt" stroke-linejoin="miter" stroke="rgb(25.881958%, 29.411316%, 30.979919%)" stroke-opacity="1" stroke-miterlimit="4" d="M 320.542969 68.625 L 317.601562 70.324219 L 317.601562 66.921875 Z M 320.542969 68.625 "/>
<path fill="none" stroke-width="0.850394" stroke-linecap="butt" stroke-linejoin="miter" stroke="rgb(25.881958%, 29.411316%, 30.979919%)" stroke-opacity="1" stroke-miterlimit="4" d="M 282.472656 68.625 L 293.257812 68.625 "/>
<path fill-rule="evenodd" fill="rgb(25.881958%, 29.411316%, 30.979919%)" fill-opacity="1" stroke-width="0.453543" stroke-linecap="butt" stroke-linejoin="miter" stroke="rgb(25.881958%, 29.411316%, 30.979919%)" stroke-opacity="1" stroke-miterlimit="4" d="M 295.21875 68.625 L 292.277344 70.324219 L 292.277344 66.921875 Z M 295.21875 68.625 "/>
<path fill="none" stroke-width="0.850394" stroke-linecap="butt" stroke-linejoin="miter" stroke="rgb(50.195312%, 50.195312%, 50.195312%)" stroke-opacity="1" stroke-miterlimit="4" d="M 141.121094 143.679688 L 141.121094 146.210938 "/>
<path fill="none" stroke-width="0.850394" stroke-linecap="butt" stroke-linejoin="miter" stroke="rgb(50.195312%, 50.195312%, 50.195312%)" stroke-opacity="1" stroke-miterlimit="4" d="M 211.851562 143.679688 L 211.851562 146.210938 "/>
<path fill="none" stroke-width="0.850394" stroke-linecap="butt" stroke-linejoin="miter" stroke="rgb(50.195312%, 50.195312%, 50.195312%)" stroke-opacity="1" stroke-miterlimit="4" d="M 282.71875 143.679688 L 282.71875 146.210938 "/>
<path fill="none" stroke-width="0.850394" stroke-linecap="butt" stroke-linejoin="miter" stroke="rgb(50.195312%, 50.195312%, 50.195312%)" stroke-opacity="1" stroke-miterlimit="4" d="M 155.15625 145.40625 L 155.15625 143.679688 "/>
<path fill="none" stroke-width="0.850394" stroke-linecap="butt" stroke-linejoin="miter" stroke="rgb(50.195312%, 50.195312%, 50.195312%)" stroke-opacity="1" stroke-miterlimit="4" d="M 169.328125 145.40625 L 169.328125 143.679688 "/>
<path fill="none" stroke-width="0.850394" stroke-linecap="butt" stroke-linejoin="miter" stroke="rgb(50.195312%, 50.195312%, 50.195312%)" stroke-opacity="1" stroke-miterlimit="4" d="M 183.503906 145.40625 L 183.503906 143.679688 "/>
<path fill="none" stroke-width="0.850394" stroke-linecap="butt" stroke-linejoin="miter" stroke="rgb(50.195312%, 50.195312%, 50.195312%)" stroke-opacity="1" stroke-miterlimit="4" d="M 197.675781 145.40625 L 197.675781 143.679688 "/>
<path fill="none" stroke-width="0.850394" stroke-linecap="butt" stroke-linejoin="miter" stroke="rgb(50.195312%, 50.195312%, 50.195312%)" stroke-opacity="1" stroke-miterlimit="4" d="M 226.023438 145.40625 L 226.023438 143.679688 "/>
<path fill="none" stroke-width="0.850394" stroke-linecap="butt" stroke-linejoin="miter" stroke="rgb(50.195312%, 50.195312%, 50.195312%)" stroke-opacity="1" stroke-miterlimit="4" d="M 254.371094 145.40625 L 254.371094 143.679688 "/>
<path fill="none" stroke-width="0.850394" stroke-linecap="butt" stroke-linejoin="miter" stroke="rgb(50.195312%, 50.195312%, 50.195312%)" stroke-opacity="1" stroke-miterlimit="4" d="M 240.199219 145.40625 L 240.199219 143.679688 "/>
<path fill="none" stroke-width="0.850394" stroke-linecap="butt" stroke-linejoin="miter" stroke="rgb(50.195312%, 50.195312%, 50.195312%)" stroke-opacity="1" stroke-miterlimit="4" d="M 268.546875 145.40625 L 268.546875 143.679688 "/>
<path fill="none" stroke-width="0.850394" stroke-linecap="butt" stroke-linejoin="miter" stroke="rgb(50.195312%, 50.195312%, 50.195312%)" stroke-opacity="1" stroke-miterlimit="4" d="M 141.101562 2.476562 L 138.570312 2.476562 "/>
<path fill="none" stroke-width="0.850394" stroke-linecap="butt" stroke-linejoin="miter" stroke="rgb(50.195312%, 50.195312%, 50.195312%)" stroke-opacity="1" stroke-miterlimit="4" d="M 141.101562 73.152344 L 138.570312 73.152344 "/>
<path fill="none" stroke-width="0.850394" stroke-linecap="butt" stroke-linejoin="miter" stroke="rgb(50.195312%, 50.195312%, 50.195312%)" stroke-opacity="1" stroke-miterlimit="4" d="M 140.984375 143.679688 L 138.453125 143.679688 "/>
<path fill="none" stroke-width="0.850394" stroke-linecap="butt" stroke-linejoin="miter" stroke="rgb(50.195312%, 50.195312%, 50.195312%)" stroke-opacity="1" stroke-miterlimit="4" d="M 141.101562 16.730469 L 139.375 16.730469 "/>
<path fill="none" stroke-width="0.850394" stroke-linecap="butt" stroke-linejoin="miter" stroke="rgb(50.195312%, 50.195312%, 50.195312%)" stroke-opacity="1" stroke-miterlimit="4" d="M 141.101562 44.941406 L 139.375 44.941406 "/>
<path fill="none" stroke-width="0.850394" stroke-linecap="butt" stroke-linejoin="miter" stroke="rgb(50.195312%, 50.195312%, 50.195312%)" stroke-opacity="1" stroke-miterlimit="4" d="M 141.101562 30.835938 L 139.375 30.835938 "/>
<path fill="none" stroke-width="0.850394" stroke-linecap="butt" stroke-linejoin="miter" stroke="rgb(50.195312%, 50.195312%, 50.195312%)" stroke-opacity="1" stroke-miterlimit="4" d="M 141.101562 59.046875 L 139.375 59.046875 "/>
<path fill="none" stroke-width="0.850394" stroke-linecap="butt" stroke-linejoin="miter" stroke="rgb(50.195312%, 50.195312%, 50.195312%)" stroke-opacity="1" stroke-miterlimit="4" d="M 141.101562 87.257812 L 139.375 87.257812 "/>
<path fill="none" stroke-width="0.850394" stroke-linecap="butt" stroke-linejoin="miter" stroke="rgb(50.195312%, 50.195312%, 50.195312%)" stroke-opacity="1" stroke-miterlimit="4" d="M 141.101562 101.363281 L 139.375 101.363281 "/>
<path fill="none" stroke-width="0.850394" stroke-linecap="butt" stroke-linejoin="miter" stroke="rgb(50.195312%, 50.195312%, 50.195312%)" stroke-opacity="1" stroke-miterlimit="4" d="M 141.101562 115.46875 L 139.375 115.46875 "/>
<path fill="none" stroke-width="0.850394" stroke-linecap="butt" stroke-linejoin="miter" stroke="rgb(50.195312%, 50.195312%, 50.195312%)" stroke-opacity="1" stroke-miterlimit="4" d="M 141.101562 129.574219 L 139.375 129.574219 "/>
<g clip-path="url(#clip-0)">
<path fill="none" stroke-width="0.850394" stroke-linecap="butt" stroke-linejoin="round" stroke="rgb(0%, 0%, 0%)" stroke-opacity="1" stroke-miterlimit="4" d="M 321.757812 36.621094 L 407.25 36.621094 L 407.25 100.628906 L 321.757812 100.628906 Z M 321.757812 36.621094 "/>
</g>
<path fill-rule="nonzero" fill="rgb(0%, 0%, 0%)" fill-opacity="1" d="M 134.957031 96.265625 L 127.199219 96.265625 L 127.199219 97.109375 L 130.417969 97.109375 L 130.417969 100.839844 L 127.199219 100.839844 L 127.199219 101.683594 L 134.957031 101.683594 L 134.957031 100.839844 L 131.230469 100.839844 L 131.230469 97.109375 L 134.957031 97.109375 Z M 134.957031 96.265625 "/>
<path fill-rule="nonzero" fill="rgb(0%, 0%, 0%)" fill-opacity="1" d="M 132.425781 90.371094 L 132.335938 90.371094 C 130.875 90.371094 129.804688 90.96875 129.769531 92.640625 C 129.769531 94.136719 131.070312 94.980469 132.476562 94.980469 C 134.007812 94.980469 135.101562 94.046875 135.101562 92.5 C 135.101562 91.796875 134.941406 91.164062 134.710938 90.546875 L 133.867188 90.546875 C 134.253906 91.355469 134.34375 91.480469 134.34375 92.429688 C 134.34375 93.484375 133.710938 94.117188 132.511719 94.117188 L 132.425781 94.117188 Z M 131.738281 91.199219 L 131.738281 94.082031 C 131.070312 93.976562 130.488281 93.484375 130.488281 92.640625 C 130.488281 91.761719 131.035156 91.199219 131.738281 91.199219 Z M 131.738281 91.199219 "/>
<path fill-rule="nonzero" fill="rgb(0%, 0%, 0%)" fill-opacity="1" d="M 134.957031 88.308594 L 129.890625 88.308594 L 129.890625 89.152344 L 134.957031 89.152344 Z M 127.199219 88.730469 C 127.199219 88.992188 127.445312 89.222656 127.710938 89.222656 C 127.992188 89.222656 128.238281 88.992188 128.238281 88.730469 C 128.238281 88.449219 127.992188 88.238281 127.710938 88.238281 C 127.445312 88.238281 127.199219 88.449219 127.199219 88.730469 Z M 127.199219 88.730469 "/>
<path fill-rule="nonzero" fill="rgb(0%, 0%, 0%)" fill-opacity="1" d="M 134.835938 85.230469 C 134.835938 84.28125 135.292969 83.628906 135.910156 83.628906 C 136.523438 83.628906 136.964844 84.28125 136.964844 85.230469 C 136.964844 86.179688 136.523438 86.710938 135.910156 86.710938 C 135.292969 86.710938 134.835938 86.179688 134.835938 85.230469 Z M 134.113281 85.230469 C 134.113281 85.320312 134.113281 85.40625 134.132812 85.511719 C 134.132812 86.039062 133.816406 86.5 133.605469 86.5 C 133.359375 86.5 133.269531 86.21875 133.269531 86.003906 L 133.269531 85.933594 C 133.429688 85.757812 133.480469 85.230469 133.480469 85.074219 C 133.480469 84.105469 132.652344 83.332031 131.632812 83.332031 C 131.230469 83.332031 130.839844 83.472656 130.542969 83.699219 L 130.542969 82.875 L 129.910156 82.875 L 129.910156 84.300781 C 129.839844 84.527344 129.804688 84.84375 129.804688 85.019531 C 129.804688 85.988281 130.628906 86.796875 131.632812 86.832031 C 132.125 86.832031 132.566406 86.65625 132.882812 86.339844 C 132.953125 86.710938 133.199219 87.113281 133.675781 87.113281 C 133.972656 87.113281 134.253906 86.921875 134.429688 86.515625 C 134.765625 87.167969 135.3125 87.554688 135.890625 87.554688 C 136.804688 87.554688 137.652344 86.621094 137.652344 85.230469 C 137.652344 83.824219 136.804688 82.679688 135.910156 82.679688 C 134.730469 82.679688 134.113281 84.050781 134.113281 85.230469 Z M 130.507812 85.074219 C 130.507812 84.476562 131 83.980469 131.617188 83.980469 C 132.214844 83.980469 132.707031 84.476562 132.707031 85.074219 C 132.707031 85.6875 132.214844 86.164062 131.617188 86.164062 C 131 86.164062 130.507812 85.6875 130.507812 85.074219 Z M 130.507812 85.074219 "/>
<path fill-rule="nonzero" fill="rgb(0%, 0%, 0%)" fill-opacity="1" d="M 134.957031 77.191406 L 131.878906 77.191406 C 130.699219 77.191406 129.769531 77.71875 129.769531 79.003906 C 129.769531 79.691406 129.980469 80.34375 130.59375 80.730469 L 127.199219 80.730469 L 127.199219 81.554688 L 134.957031 81.554688 L 134.957031 80.730469 L 132.089844 80.730469 C 131.121094 80.695312 130.507812 80.042969 130.507812 79.199219 C 130.523438 78.300781 131.035156 78.003906 131.933594 78.003906 L 134.957031 78.003906 Z M 134.957031 77.191406 "/>
<path fill-rule="nonzero" fill="rgb(0%, 0%, 0%)" fill-opacity="1" d="M 134.957031 73.082031 L 134.238281 73.082031 L 134.238281 73.960938 C 134.238281 74.75 134.042969 74.890625 133.304688 74.890625 L 130.558594 74.890625 L 130.558594 73.398438 L 129.890625 73.398438 L 129.890625 74.890625 L 128.449219 74.890625 L 128.449219 75.246094 L 129.890625 75.71875 L 129.890625 76.316406 L 130.558594 76.316406 L 130.558594 75.71875 L 133.304688 75.71875 C 134.570312 75.71875 134.957031 75.210938 134.957031 73.960938 Z M 134.957031 73.082031 "/>
<path fill-rule="nonzero" fill="rgb(0%, 0%, 0%)" fill-opacity="1" d="M 134.957031 67.832031 L 129.890625 67.832031 L 129.890625 68.675781 L 134.957031 68.675781 Z M 127.199219 68.253906 C 127.199219 68.519531 127.445312 68.746094 127.710938 68.746094 C 127.992188 68.746094 128.238281 68.519531 128.238281 68.253906 C 128.238281 67.972656 127.992188 67.761719 127.710938 67.761719 C 127.445312 67.761719 127.199219 67.972656 127.199219 68.253906 Z M 127.199219 68.253906 "/>
<path fill-rule="nonzero" fill="rgb(0%, 0%, 0%)" fill-opacity="1" d="M 134.957031 61.921875 L 131.898438 61.921875 C 130.699219 61.921875 129.769531 62.433594 129.769531 63.734375 C 129.769531 64.386719 130.015625 65.054688 130.578125 65.460938 L 129.890625 65.460938 L 129.890625 66.285156 L 134.957031 66.285156 L 134.957031 65.460938 L 132.089844 65.460938 C 131.121094 65.425781 130.507812 64.828125 130.507812 63.929688 C 130.507812 63.050781 131.035156 62.734375 131.933594 62.734375 L 134.957031 62.734375 Z M 134.957031 61.921875 "/>
<path fill-rule="nonzero" fill="rgb(0%, 0%, 0%)" fill-opacity="1" d="M 134.78125 53.1875 L 133.957031 53.1875 C 134.238281 53.734375 134.378906 53.960938 134.378906 54.664062 C 134.359375 55.898438 133.640625 56.496094 132.425781 56.496094 C 131.246094 56.496094 130.488281 55.878906 130.488281 54.664062 C 130.523438 53.996094 130.628906 53.75 130.910156 53.1875 L 130.066406 53.1875 C 129.925781 53.644531 129.769531 54.136719 129.769531 54.71875 C 129.769531 56.371094 130.824219 57.339844 132.425781 57.339844 C 134.007812 57.304688 135.101562 56.40625 135.101562 54.769531 C 135.101562 54.207031 134.941406 53.609375 134.78125 53.1875 Z M 134.78125 53.1875 "/>
<path fill-rule="nonzero" fill="rgb(0%, 0%, 0%)" fill-opacity="1" d="M 134.957031 44.472656 L 131.898438 44.472656 C 130.804688 44.472656 129.769531 44.878906 129.769531 46.128906 C 129.769531 46.902344 130.171875 47.535156 130.789062 47.941406 C 130.191406 48.203125 129.769531 48.765625 129.769531 49.488281 C 129.769531 50.15625 130.121094 50.808594 130.578125 51.175781 L 129.890625 51.175781 L 129.890625 52.003906 L 134.957031 52.003906 L 134.957031 51.175781 L 132.089844 51.175781 C 131.191406 51.140625 130.507812 50.597656 130.507812 49.789062 L 130.507812 49.734375 C 130.507812 48.890625 131.035156 48.644531 131.933594 48.644531 L 134.957031 48.644531 L 134.957031 47.835938 L 132.089844 47.835938 C 131.140625 47.816406 130.507812 47.339844 130.507812 46.355469 C 130.507812 45.511719 131.085938 45.265625 131.933594 45.265625 L 134.957031 45.265625 Z M 134.957031 44.472656 "/>
<path fill-rule="nonzero" fill="rgb(0%, 0%, 0%)" fill-opacity="1" d="M 190.03125 161.300781 L 187.269531 153.542969 L 186.25 153.542969 L 183.503906 161.300781 L 184.402344 161.300781 L 185.050781 159.277344 L 188.484375 159.277344 L 189.132812 161.300781 Z M 188.203125 158.46875 L 185.332031 158.46875 L 186.777344 154.476562 Z M 188.203125 158.46875 "/>
<path fill-rule="nonzero" fill="rgb(0%, 0%, 0%)" fill-opacity="1" d="M 192.609375 161.179688 C 193.558594 161.179688 194.210938 161.636719 194.210938 162.253906 C 194.210938 162.867188 193.558594 163.308594 192.609375 163.308594 C 191.660156 163.308594 191.132812 162.867188 191.132812 162.253906 C 191.132812 161.636719 191.660156 161.179688 192.609375 161.179688 Z M 192.609375 160.457031 C 192.523438 160.457031 192.433594 160.457031 192.328125 160.476562 C 191.800781 160.476562 191.34375 160.160156 191.34375 159.949219 C 191.34375 159.699219 191.625 159.613281 191.835938 159.613281 L 191.90625 159.613281 C 192.082031 159.769531 192.609375 159.824219 192.769531 159.824219 C 193.734375 159.824219 194.511719 158.996094 194.511719 157.976562 C 194.511719 157.570312 194.371094 157.183594 194.140625 156.886719 L 194.96875 156.886719 L 194.96875 156.253906 L 193.542969 156.253906 C 193.3125 156.183594 192.996094 156.148438 192.820312 156.148438 C 191.851562 156.148438 191.042969 156.972656 191.007812 157.976562 C 191.007812 158.46875 191.183594 158.910156 191.5 159.226562 C 191.132812 159.296875 190.726562 159.542969 190.726562 160.019531 C 190.726562 160.316406 190.921875 160.597656 191.324219 160.773438 C 190.675781 161.109375 190.285156 161.652344 190.285156 162.234375 C 190.285156 163.148438 191.21875 163.996094 192.609375 163.996094 C 194.015625 163.996094 195.160156 163.148438 195.160156 162.253906 C 195.160156 161.074219 193.789062 160.457031 192.609375 160.457031 Z M 192.769531 156.851562 C 193.367188 156.851562 193.859375 157.34375 193.859375 157.960938 C 193.859375 158.558594 193.367188 159.050781 192.769531 159.050781 C 192.152344 159.050781 191.675781 158.558594 191.675781 157.960938 C 191.675781 157.34375 192.152344 156.851562 192.769531 156.851562 Z M 192.769531 156.851562 "/>
<path fill-rule="nonzero" fill="rgb(0%, 0%, 0%)" fill-opacity="1" d="M 200.351562 158.769531 L 200.351562 158.679688 C 200.351562 157.21875 199.753906 156.148438 198.082031 156.113281 C 196.585938 156.113281 195.738281 157.414062 195.738281 158.820312 C 195.738281 160.351562 196.671875 161.441406 198.222656 161.441406 C 198.925781 161.441406 199.558594 161.285156 200.175781 161.054688 L 200.175781 160.210938 C 199.363281 160.597656 199.242188 160.6875 198.292969 160.6875 C 197.234375 160.6875 196.601562 160.054688 196.601562 158.855469 L 196.601562 158.769531 Z M 199.523438 158.082031 L 196.636719 158.082031 C 196.742188 157.414062 197.234375 156.832031 198.082031 156.832031 C 198.960938 156.832031 199.523438 157.378906 199.523438 158.082031 Z M 199.523438 158.082031 "/>
<path fill-rule="nonzero" fill="rgb(0%, 0%, 0%)" fill-opacity="1" d="M 205.78125 161.300781 L 205.78125 156.234375 L 204.933594 156.234375 L 204.933594 161.300781 Z M 205.355469 153.542969 C 205.09375 153.542969 204.863281 153.789062 204.863281 154.050781 C 204.863281 154.335938 205.09375 154.582031 205.355469 154.582031 C 205.636719 154.582031 205.851562 154.335938 205.851562 154.050781 C 205.851562 153.789062 205.636719 153.542969 205.355469 153.542969 Z M 205.355469 153.542969 "/>
<path fill-rule="nonzero" fill="rgb(0%, 0%, 0%)" fill-opacity="1" d="M 211.6875 161.300781 L 211.6875 158.242188 C 211.6875 157.042969 211.179688 156.113281 209.875 156.113281 C 209.226562 156.113281 208.554688 156.359375 208.152344 156.921875 L 208.152344 156.234375 L 207.324219 156.234375 L 207.324219 161.300781 L 208.152344 161.300781 L 208.152344 158.433594 C 208.1875 157.464844 208.785156 156.851562 209.683594 156.851562 C 210.5625 156.851562 210.878906 157.378906 210.878906 158.277344 L 210.878906 161.300781 Z M 211.6875 161.300781 "/>
<g clip-path="url(#clip-1)">
<path fill-rule="nonzero" fill="rgb(0%, 0%, 0%)" fill-opacity="1" d="M 220.898438 156.234375 L 220.125 156.234375 L 218.558594 159.949219 L 216.730469 156.234375 L 215.9375 156.234375 L 218.136719 160.773438 L 217.273438 162.816406 C 217.132812 163.167969 216.660156 163.429688 216.429688 163.429688 L 216.710938 164.011719 C 217.132812 163.976562 217.574219 163.675781 217.855469 163.238281 Z M 220.898438 156.234375 "/>
</g>
<path fill-rule="nonzero" fill="rgb(0%, 0%, 0%)" fill-opacity="1" d="M 225.996094 158.769531 L 225.996094 158.679688 C 225.996094 157.21875 225.398438 156.148438 223.726562 156.113281 C 222.230469 156.113281 221.386719 157.414062 221.386719 158.820312 C 221.386719 160.351562 222.320312 161.441406 223.867188 161.441406 C 224.574219 161.441406 225.207031 161.285156 225.820312 161.054688 L 225.820312 160.210938 C 225.011719 160.597656 224.890625 160.6875 223.9375 160.6875 C 222.882812 160.6875 222.25 160.054688 222.25 158.855469 L 222.25 158.769531 Z M 225.171875 158.082031 L 222.285156 158.082031 C 222.390625 157.414062 222.882812 156.832031 223.726562 156.832031 C 224.609375 156.832031 225.171875 157.378906 225.171875 158.082031 Z M 225.171875 158.082031 "/>
<path fill-rule="nonzero" fill="rgb(0%, 0%, 0%)" fill-opacity="1" d="M 231.105469 161.300781 L 231.105469 158.417969 C 231.105469 156.957031 230.488281 156.113281 228.976562 156.113281 C 228.429688 156.113281 227.761719 156.289062 227.269531 156.464844 L 227.269531 157.289062 C 227.78125 157.007812 228.203125 156.832031 228.90625 156.832031 C 229.714844 156.851562 230.332031 157.253906 230.332031 158.101562 L 229.167969 158.101562 C 227.972656 158.101562 226.917969 158.503906 226.917969 159.824219 C 226.953125 160.84375 227.550781 161.441406 228.570312 161.441406 C 229.292969 161.441406 229.945312 161.144531 230.332031 160.632812 L 230.332031 161.300781 Z M 230.332031 158.945312 C 230.332031 159.929688 229.875 160.722656 228.816406 160.722656 C 228.203125 160.722656 227.691406 160.441406 227.691406 159.769531 C 227.691406 158.785156 228.625 158.785156 229.503906 158.785156 L 230.332031 158.785156 Z M 230.332031 158.945312 "/>
<path fill-rule="nonzero" fill="rgb(0%, 0%, 0%)" fill-opacity="1" d="M 235.40625 157.253906 L 235.667969 156.445312 C 235.546875 156.304688 235 156.164062 234.632812 156.164062 C 234.105469 156.183594 233.664062 156.445312 233.433594 156.921875 L 233.433594 156.234375 L 232.589844 156.234375 L 232.589844 161.300781 L 233.433594 161.300781 L 233.433594 158.628906 C 233.433594 158.609375 233.433594 158.59375 233.433594 158.59375 C 233.433594 157.851562 233.824219 156.886719 234.613281 156.886719 L 234.667969 156.886719 C 234.929688 156.886719 235.140625 157.042969 235.40625 157.253906 Z M 235.40625 157.253906 "/>
<path fill-rule="nonzero" fill="rgb(0%, 0%, 0%)" fill-opacity="1" d="M 240.195312 159.894531 C 240.195312 158.890625 239.511719 158.574219 238.59375 158.398438 L 238.242188 158.328125 C 237.75 158.222656 237.027344 158.117188 237.027344 157.570312 C 237.0625 156.9375 237.804688 156.816406 238.367188 156.816406 C 239.265625 156.851562 239.195312 156.902344 239.949219 157.21875 L 239.949219 156.394531 C 239.476562 156.199219 238.875 156.113281 238.261719 156.113281 C 237.257812 156.113281 236.273438 156.480469 236.273438 157.605469 C 236.289062 158.523438 236.90625 158.875 237.75 159.03125 L 238.066406 159.101562 C 238.683594 159.242188 239.386719 159.3125 239.386719 159.964844 C 239.351562 160.597656 238.628906 160.722656 238.066406 160.722656 C 237.136719 160.703125 236.992188 160.597656 236.183594 160.210938 L 236.183594 161.125 C 236.660156 161.25 237.488281 161.441406 238.050781 161.441406 C 239.035156 161.441406 240.195312 161.074219 240.195312 159.894531 Z M 240.195312 159.894531 "/>
<path fill="none" stroke-width="1.984252" stroke-linecap="butt" stroke-linejoin="miter" stroke="rgb(62.744141%, 85.096741%, 82.743835%)" stroke-opacity="1" stroke-miterlimit="4" d="M 141.535156 107.265625 C 144.3125 101.457031 145.445312 95.390625 149.269531 90.210938 C 153.40625 84.605469 158.910156 80.078125 164.421875 75.816406 C 171.207031 70.566406 178.816406 66.472656 186.011719 61.800781 C 192.328125 57.699219 198.351562 53.109375 204.953125 49.488281 C 209.445312 47.023438 214.421875 45.574219 219.160156 43.617188 C 223.894531 41.660156 227.921875 40.742188 229.007812 40.398438 C 230.277344 39.996094 235.382812 37.988281 238.476562 35.851562 C 241.570312 33.714844 244.367188 31.0625 247.757812 29.441406 C 252.207031 27.316406 256.9375 25.679688 261.773438 24.722656 C 265.304688 24.023438 268.972656 24.628906 272.570312 24.535156 C 275.980469 24.441406 279.386719 24.28125 282.796875 24.15625 "/>
<path fill-rule="nonzero" fill="rgb(81.959534%, 51.371765%, 38.430786%)" fill-opacity="1" stroke-width="0.450709" stroke-linecap="butt" stroke-linejoin="round" stroke="rgb(46.665955%, 23.529053%, 13.725281%)" stroke-opacity="1" stroke-miterlimit="4" d="M 210.378906 36.96875 C 210.378906 38.582031 209.074219 39.886719 207.460938 39.886719 C 205.851562 39.886719 204.542969 38.582031 204.542969 36.96875 C 204.542969 35.359375 205.851562 34.054688 207.460938 34.054688 C 209.074219 34.054688 210.378906 35.359375 210.378906 36.96875 Z M 210.378906 36.96875 "/>
<path fill-rule="nonzero" fill="rgb(81.959534%, 51.371765%, 38.430786%)" fill-opacity="1" stroke-width="0.450709" stroke-linecap="butt" stroke-linejoin="round" stroke="rgb(46.665955%, 23.529053%, 13.725281%)" stroke-opacity="1" stroke-miterlimit="4" d="M 279.753906 13.421875 C 279.753906 15.03125 278.445312 16.335938 276.835938 16.335938 C 275.226562 16.335938 273.917969 15.03125 273.917969 13.421875 C 273.917969 11.808594 275.226562 10.503906 276.835938 10.503906 C 278.445312 10.503906 279.753906 11.808594 279.753906 13.421875 Z M 279.753906 13.421875 "/>
<path fill-rule="nonzero" fill="rgb(81.959534%, 51.371765%, 38.430786%)" fill-opacity="1" stroke-width="0.450709" stroke-linecap="butt" stroke-linejoin="round" stroke="rgb(46.665955%, 23.529053%, 13.725281%)" stroke-opacity="1" stroke-miterlimit="4" d="M 261.960938 18.644531 C 261.960938 20.253906 260.65625 21.5625 259.046875 21.5625 C 257.433594 21.5625 256.128906 20.253906 256.128906 18.644531 C 256.128906 17.035156 257.433594 15.726562 259.046875 15.726562 C 260.65625 15.726562 261.960938 17.035156 261.960938 18.644531 Z M 261.960938 18.644531 "/>
<path fill-rule="nonzero" fill="rgb(81.959534%, 51.371765%, 38.430786%)" fill-opacity="1" stroke-width="0.450709" stroke-linecap="butt" stroke-linejoin="round" stroke="rgb(46.665955%, 23.529053%, 13.725281%)" stroke-opacity="1" stroke-miterlimit="4" d="M 232.925781 30.109375 C 232.925781 31.71875 231.621094 33.023438 230.007812 33.023438 C 228.398438 33.023438 227.09375 31.71875 227.09375 30.109375 C 227.09375 28.496094 228.398438 27.191406 230.007812 27.191406 C 231.621094 27.191406 232.925781 28.496094 232.925781 30.109375 Z M 232.925781 30.109375 "/>
<path fill-rule="nonzero" fill="rgb(81.959534%, 51.371765%, 38.430786%)" fill-opacity="1" stroke-width="0.450709" stroke-linecap="butt" stroke-linejoin="round" stroke="rgb(46.665955%, 23.529053%, 13.725281%)" stroke-opacity="1" stroke-miterlimit="4" d="M 247.925781 18.109375 C 247.925781 19.71875 246.621094 21.023438 245.007812 21.023438 C 243.398438 21.023438 242.09375 19.71875 242.09375 18.109375 C 242.09375 16.496094 243.398438 15.191406 245.007812 15.191406 C 246.621094 15.191406 247.925781 16.496094 247.925781 18.109375 Z M 247.925781 18.109375 "/>
<path fill-rule="nonzero" fill="rgb(81.959534%, 51.371765%, 38.430786%)" fill-opacity="1" stroke-width="0.450709" stroke-linecap="butt" stroke-linejoin="round" stroke="rgb(46.665955%, 23.529053%, 13.725281%)" stroke-opacity="1" stroke-miterlimit="4" d="M 247.925781 18.109375 C 247.925781 19.71875 246.621094 21.023438 245.007812 21.023438 C 243.398438 21.023438 242.09375 19.71875 242.09375 18.109375 C 242.09375 16.496094 243.398438 15.191406 245.007812 15.191406 C 246.621094 15.191406 247.925781 16.496094 247.925781 18.109375 Z M 247.925781 18.109375 "/>
<path fill-rule="nonzero" fill="rgb(81.959534%, 51.371765%, 38.430786%)" fill-opacity="1" stroke-width="0.450709" stroke-linecap="butt" stroke-linejoin="round" stroke="rgb(46.665955%, 23.529053%, 13.725281%)" stroke-opacity="1" stroke-miterlimit="4" d="M 188.949219 51.433594 C 188.949219 53.042969 187.644531 54.351562 186.03125 54.351562 C 184.421875 54.351562 183.117188 53.042969 183.117188 51.433594 C 183.117188 49.824219 184.421875 48.515625 186.03125 48.515625 C 187.644531 48.515625 188.949219 49.824219 188.949219 51.433594 Z M 188.949219 51.433594 "/>
<path fill-rule="nonzero" fill="rgb(81.959534%, 51.371765%, 38.430786%)" fill-opacity="1" stroke-width="0.450709" stroke-linecap="butt" stroke-linejoin="round" stroke="rgb(46.665955%, 23.529053%, 13.725281%)" stroke-opacity="1" stroke-miterlimit="4" d="M 162.699219 87.328125 C 162.699219 88.9375 161.394531 90.242188 159.78125 90.242188 C 158.171875 90.242188 156.867188 88.9375 156.867188 87.328125 C 156.867188 85.714844 158.171875 84.410156 159.78125 84.410156 C 161.394531 84.410156 162.699219 85.714844 162.699219 87.328125 Z M 162.699219 87.328125 "/>
<path fill-rule="nonzero" fill="rgb(81.959534%, 51.371765%, 38.430786%)" fill-opacity="1" stroke-width="0.450709" stroke-linecap="butt" stroke-linejoin="round" stroke="rgb(46.665955%, 23.529053%, 13.725281%)" stroke-opacity="1" stroke-miterlimit="4" d="M 152.519531 78.21875 C 152.519531 79.832031 151.214844 81.136719 149.605469 81.136719 C 147.992188 81.136719 146.6875 79.832031 146.6875 78.21875 C 146.6875 76.609375 147.992188 75.304688 149.605469 75.304688 C 151.214844 75.304688 152.519531 76.609375 152.519531 78.21875 Z M 152.519531 78.21875 "/>
<path fill-rule="nonzero" fill="rgb(81.959534%, 51.371765%, 38.430786%)" fill-opacity="1" stroke-width="0.450709" stroke-linecap="butt" stroke-linejoin="round" stroke="rgb(46.665955%, 23.529053%, 13.725281%)" stroke-opacity="1" stroke-miterlimit="4" d="M 190.558594 67.503906 C 190.558594 69.117188 189.25 70.421875 187.640625 70.421875 C 186.027344 70.421875 184.722656 69.117188 184.722656 67.503906 C 184.722656 65.894531 186.027344 64.589844 187.640625 64.589844 C 189.25 64.589844 190.558594 65.894531 190.558594 67.503906 Z M 190.558594 67.503906 "/>
<path fill-rule="nonzero" fill="rgb(81.959534%, 51.371765%, 38.430786%)" fill-opacity="1" stroke-width="0.450709" stroke-linecap="butt" stroke-linejoin="round" stroke="rgb(46.665955%, 23.529053%, 13.725281%)" stroke-opacity="1" stroke-miterlimit="4" d="M 190.558594 67.503906 C 190.558594 69.117188 189.25 70.421875 187.640625 70.421875 C 186.027344 70.421875 184.722656 69.117188 184.722656 67.503906 C 184.722656 65.894531 186.027344 64.589844 187.640625 64.589844 C 189.25 64.589844 190.558594 65.894531 190.558594 67.503906 Z M 190.558594 67.503906 "/>
<path fill-rule="nonzero" fill="rgb(81.959534%, 51.371765%, 38.430786%)" fill-opacity="1" stroke-width="0.450709" stroke-linecap="butt" stroke-linejoin="round" stroke="rgb(46.665955%, 23.529053%, 13.725281%)" stroke-opacity="1" stroke-miterlimit="4" d="M 152.519531 78.21875 C 152.519531 79.832031 151.214844 81.136719 149.605469 81.136719 C 147.992188 81.136719 146.6875 79.832031 146.6875 78.21875 C 146.6875 76.609375 147.992188 75.304688 149.605469 75.304688 C 151.214844 75.304688 152.519531 76.609375 152.519531 78.21875 Z M 152.519531 78.21875 "/>
<path fill-rule="nonzero" fill="rgb(81.959534%, 51.371765%, 38.430786%)" fill-opacity="1" stroke-width="0.450709" stroke-linecap="butt" stroke-linejoin="round" stroke="rgb(46.665955%, 23.529053%, 13.725281%)" stroke-opacity="1" stroke-miterlimit="4" d="M 172.34375 75.539062 C 172.34375 77.152344 171.035156 78.457031 169.425781 78.457031 C 167.816406 78.457031 166.507812 77.152344 166.507812 75.539062 C 166.507812 73.929688 167.816406 72.625 169.425781 72.625 C 171.035156 72.625 172.34375 73.929688 172.34375 75.539062 Z M 172.34375 75.539062 "/>
<path fill-rule="nonzero" fill="rgb(81.959534%, 51.371765%, 38.430786%)" fill-opacity="1" stroke-width="0.450709" stroke-linecap="butt" stroke-linejoin="round" stroke="rgb(46.665955%, 23.529053%, 13.725281%)" stroke-opacity="1" stroke-miterlimit="4" d="M 170.734375 63.753906 C 170.734375 65.367188 169.429688 66.671875 167.820312 66.671875 C 166.207031 66.671875 164.902344 65.367188 164.902344 63.753906 C 164.902344 62.144531 166.207031 60.839844 167.820312 60.839844 C 169.429688 60.839844 170.734375 62.144531 170.734375 63.753906 Z M 170.734375 63.753906 "/>
<path fill-rule="nonzero" fill="rgb(81.959534%, 51.371765%, 38.430786%)" fill-opacity="1" stroke-width="0.450709" stroke-linecap="butt" stroke-linejoin="round" stroke="rgb(46.665955%, 23.529053%, 13.725281%)" stroke-opacity="1" stroke-miterlimit="4" d="M 170.734375 63.753906 C 170.734375 65.367188 169.429688 66.671875 167.820312 66.671875 C 166.207031 66.671875 164.902344 65.367188 164.902344 63.753906 C 164.902344 62.144531 166.207031 60.839844 167.820312 60.839844 C 169.429688 60.839844 170.734375 62.144531 170.734375 63.753906 Z M 170.734375 63.753906 "/>
<path fill-rule="nonzero" fill="rgb(81.959534%, 51.371765%, 38.430786%)" fill-opacity="1" stroke-width="0.450709" stroke-linecap="butt" stroke-linejoin="round" stroke="rgb(46.665955%, 23.529053%, 13.725281%)" stroke-opacity="1" stroke-miterlimit="4" d="M 188.949219 51.433594 C 188.949219 53.042969 187.644531 54.351562 186.03125 54.351562 C 184.421875 54.351562 183.117188 53.042969 183.117188 51.433594 C 183.117188 49.824219 184.421875 48.515625 186.03125 48.515625 C 187.644531 48.515625 188.949219 49.824219 188.949219 51.433594 Z M 188.949219 51.433594 "/>
<path fill-rule="nonzero" fill="rgb(81.959534%, 51.371765%, 38.430786%)" fill-opacity="1" stroke-width="0.450709" stroke-linecap="butt" stroke-linejoin="round" stroke="rgb(46.665955%, 23.529053%, 13.725281%)" stroke-opacity="1" stroke-miterlimit="4" d="M 275.199219 33.21875 C 275.199219 34.832031 273.894531 36.136719 272.28125 36.136719 C 270.671875 36.136719 269.367188 34.832031 269.367188 33.21875 C 269.367188 31.609375 270.671875 30.304688 272.28125 30.304688 C 273.894531 30.304688 275.199219 31.609375 275.199219 33.21875 Z M 275.199219 33.21875 "/>
<path fill-rule="nonzero" fill="rgb(81.959534%, 51.371765%, 38.430786%)" fill-opacity="1" stroke-width="0.450709" stroke-linecap="butt" stroke-linejoin="round" stroke="rgb(46.665955%, 23.529053%, 13.725281%)" stroke-opacity="1" stroke-miterlimit="4" d="M 225.378906 49.828125 C 225.378906 51.4375 224.074219 52.742188 222.460938 52.742188 C 220.851562 52.742188 219.542969 51.4375 219.542969 49.828125 C 219.542969 48.214844 220.851562 46.910156 222.460938 46.910156 C 224.074219 46.910156 225.378906 48.214844 225.378906 49.828125 Z M 225.378906 49.828125 "/>
<path fill-rule="nonzero" fill="rgb(81.959534%, 51.371765%, 38.430786%)" fill-opacity="1" stroke-width="0.450709" stroke-linecap="butt" stroke-linejoin="round" stroke="rgb(46.665955%, 23.529053%, 13.725281%)" stroke-opacity="1" stroke-miterlimit="4" d="M 253.234375 35.363281 C 253.234375 36.972656 251.929688 38.277344 250.320312 38.277344 C 248.707031 38.277344 247.402344 36.972656 247.402344 35.363281 C 247.402344 33.75 248.707031 32.445312 250.320312 32.445312 C 251.929688 32.445312 253.234375 33.75 253.234375 35.363281 Z M 253.234375 35.363281 "/>
<path fill-rule="nonzero" fill="rgb(81.959534%, 51.371765%, 38.430786%)" fill-opacity="1" stroke-width="0.450709" stroke-linecap="butt" stroke-linejoin="round" stroke="rgb(46.665955%, 23.529053%, 13.725281%)" stroke-opacity="1" stroke-miterlimit="4" d="M 150.914062 110.898438 C 150.914062 112.507812 149.609375 113.816406 147.996094 113.816406 C 146.386719 113.816406 145.082031 112.507812 145.082031 110.898438 C 145.082031 109.289062 146.386719 107.980469 147.996094 107.980469 C 149.609375 107.980469 150.914062 109.289062 150.914062 110.898438 Z M 150.914062 110.898438 "/>
<path fill-rule="nonzero" fill="rgb(81.959534%, 51.371765%, 38.430786%)" fill-opacity="1" stroke-width="0.450709" stroke-linecap="butt" stroke-linejoin="round" stroke="rgb(46.665955%, 23.529053%, 13.725281%)" stroke-opacity="1" stroke-miterlimit="4" d="M 151.984375 99.113281 C 151.984375 100.722656 150.679688 102.027344 149.070312 102.027344 C 147.457031 102.027344 146.152344 100.722656 146.152344 99.113281 C 146.152344 97.5 147.457031 96.195312 149.070312 96.195312 C 150.679688 96.195312 151.984375 97.5 151.984375 99.113281 Z M 151.984375 99.113281 "/>
<path fill-rule="nonzero" fill="rgb(81.959534%, 51.371765%, 38.430786%)" fill-opacity="1" stroke-width="0.450709" stroke-linecap="butt" stroke-linejoin="round" stroke="rgb(46.665955%, 23.529053%, 13.725281%)" stroke-opacity="1" stroke-miterlimit="4" d="M 201.269531 52.503906 C 201.269531 54.117188 199.964844 55.421875 198.355469 55.421875 C 196.742188 55.421875 195.4375 54.117188 195.4375 52.503906 C 195.4375 50.894531 196.742188 49.589844 198.355469 49.589844 C 199.964844 49.589844 201.269531 50.894531 201.269531 52.503906 Z M 201.269531 52.503906 "/>
<path fill-rule="nonzero" fill="rgb(81.959534%, 51.371765%, 38.430786%)" fill-opacity="1" stroke-width="0.450709" stroke-linecap="butt" stroke-linejoin="round" stroke="rgb(46.665955%, 23.529053%, 13.725281%)" stroke-opacity="1" stroke-miterlimit="4" d="M 238.234375 40.71875 C 238.234375 42.332031 236.929688 43.636719 235.320312 43.636719 C 233.707031 43.636719 232.402344 42.332031 232.402344 40.71875 C 232.402344 39.109375 233.707031 37.804688 235.320312 37.804688 C 236.929688 37.804688 238.234375 39.109375 238.234375 40.71875 Z M 238.234375 40.71875 "/>
<path fill-rule="nonzero" fill="rgb(81.959534%, 51.371765%, 38.430786%)" fill-opacity="1" stroke-width="0.450709" stroke-linecap="butt" stroke-linejoin="round" stroke="rgb(46.665955%, 23.529053%, 13.725281%)" stroke-opacity="1" stroke-miterlimit="4" d="M 273.058594 47.148438 C 273.058594 48.757812 271.75 50.066406 270.140625 50.066406 C 268.527344 50.066406 267.222656 48.757812 267.222656 47.148438 C 267.222656 45.539062 268.527344 44.230469 270.140625 44.230469 C 271.75 44.230469 273.058594 45.539062 273.058594 47.148438 Z M 273.058594 47.148438 "/>
<path fill-rule="nonzero" fill="rgb(81.959534%, 51.371765%, 38.430786%)" fill-opacity="1" stroke-width="0.450709" stroke-linecap="butt" stroke-linejoin="round" stroke="rgb(46.665955%, 23.529053%, 13.725281%)" stroke-opacity="1" stroke-miterlimit="4" d="M 260.199219 44.46875 C 260.199219 46.082031 258.894531 47.386719 257.28125 47.386719 C 255.671875 47.386719 254.367188 46.082031 254.367188 44.46875 C 254.367188 42.859375 255.671875 41.554688 257.28125 41.554688 C 258.894531 41.554688 260.199219 42.859375 260.199219 44.46875 Z M 260.199219 44.46875 "/>
<path fill-rule="nonzero" fill="rgb(81.959534%, 51.371765%, 38.430786%)" fill-opacity="1" stroke-width="0.450709" stroke-linecap="butt" stroke-linejoin="round" stroke="rgb(46.665955%, 23.529053%, 13.725281%)" stroke-opacity="1" stroke-miterlimit="4" d="M 251.785156 9 C 251.785156 10.613281 250.476562 11.917969 248.867188 11.917969 C 247.257812 11.917969 245.949219 10.613281 245.949219 9 C 245.949219 7.390625 247.257812 6.085938 248.867188 6.085938 C 250.476562 6.085938 251.785156 7.390625 251.785156 9 Z M 251.785156 9 "/>
<path fill-rule="nonzero" fill="rgb(81.959534%, 51.371765%, 38.430786%)" fill-opacity="1" stroke-width="0.450709" stroke-linecap="butt" stroke-linejoin="round" stroke="rgb(46.665955%, 23.529053%, 13.725281%)" stroke-opacity="1" stroke-miterlimit="4" d="M 181.085938 61.824219 C 181.085938 63.433594 179.78125 64.738281 178.167969 64.738281 C 176.558594 64.738281 175.253906 63.433594 175.253906 61.824219 C 175.253906 60.210938 176.558594 58.90625 178.167969 58.90625 C 179.78125 58.90625 181.085938 60.210938 181.085938 61.824219 Z M 181.085938 61.824219 "/>
<path fill-rule="nonzero" fill="rgb(81.959534%, 51.371765%, 38.430786%)" fill-opacity="1" stroke-width="0.450709" stroke-linecap="butt" stroke-linejoin="round" stroke="rgb(46.665955%, 23.529053%, 13.725281%)" stroke-opacity="1" stroke-miterlimit="4" d="M 162.113281 77.433594 C 162.113281 79.046875 160.808594 80.351562 159.199219 80.351562 C 157.585938 80.351562 156.28125 79.046875 156.28125 77.433594 C 156.28125 75.824219 157.585938 74.519531 159.199219 74.519531 C 160.808594 74.519531 162.113281 75.824219 162.113281 77.433594 Z M 162.113281 77.433594 "/>
<path fill-rule="nonzero" fill="rgb(81.959534%, 51.371765%, 38.430786%)" fill-opacity="1" stroke-width="0.450709" stroke-linecap="butt" stroke-linejoin="round" stroke="rgb(46.665955%, 23.529053%, 13.725281%)" stroke-opacity="1" stroke-miterlimit="4" d="M 267.398438 26.285156 C 267.398438 27.898438 266.089844 29.203125 264.480469 29.203125 C 262.871094 29.203125 261.5625 27.898438 261.5625 26.285156 C 261.5625 24.675781 262.871094 23.371094 264.480469 23.371094 C 266.089844 23.371094 267.398438 24.675781 267.398438 26.285156 Z M 267.398438 26.285156 "/>
<path fill="none" stroke-width="0.850394" stroke-linecap="butt" stroke-linejoin="round" stroke="rgb(0%, 0%, 0%)" stroke-opacity="1" stroke-miterlimit="4" d="M 0.285156 36.621094 L 85.777344 36.621094 L 85.777344 100.628906 L 0.285156 100.628906 Z M 0.285156 36.621094 "/>
<path fill-rule="nonzero" fill="rgb(50.195312%, 50.195312%, 50.195312%)" fill-opacity="1" d="M 142.328125 149.585938 C 142.3125 148.421875 142.054688 146.738281 140.578125 146.738281 C 139.105469 146.738281 138.859375 148.445312 138.859375 149.585938 C 138.859375 150.738281 139.117188 152.410156 140.578125 152.410156 C 142.042969 152.410156 142.328125 150.738281 142.328125 149.585938 Z M 141.757812 149.585938 C 141.757812 150.339844 141.695312 151.890625 140.578125 151.890625 C 139.464844 151.890625 139.429688 150.316406 139.429688 149.585938 C 139.429688 148.84375 139.453125 147.246094 140.578125 147.246094 C 141.695312 147.246094 141.757812 148.855469 141.757812 149.585938 Z M 141.757812 149.585938 "/>
<path fill-rule="nonzero" fill="rgb(50.195312%, 50.195312%, 50.195312%)" fill-opacity="1" d="M 211.019531 152.296875 L 211.019531 146.835938 L 210.363281 146.835938 L 209.582031 147.46875 L 209.582031 148.085938 L 210.402344 147.417969 L 210.402344 152.296875 Z M 211.019531 152.296875 "/>
<path fill-rule="nonzero" fill="rgb(50.195312%, 50.195312%, 50.195312%)" fill-opacity="1" d="M 215.601562 149.585938 C 215.589844 148.421875 215.328125 146.738281 213.855469 146.738281 C 212.378906 146.738281 212.132812 148.445312 212.132812 149.585938 C 212.132812 150.738281 212.394531 152.410156 213.855469 152.410156 C 215.316406 152.410156 215.601562 150.738281 215.601562 149.585938 Z M 215.03125 149.585938 C 215.03125 150.339844 214.96875 151.890625 213.855469 151.890625 C 212.738281 151.890625 212.703125 150.316406 212.703125 149.585938 C 212.703125 148.84375 212.726562 147.246094 213.855469 147.246094 C 214.96875 147.246094 215.03125 148.855469 215.03125 149.585938 Z M 215.03125 149.585938 "/>
<path fill-rule="nonzero" fill="rgb(50.195312%, 50.195312%, 50.195312%)" fill-opacity="1" d="M 281.972656 152.296875 L 281.972656 151.730469 L 279.519531 151.730469 L 281.390625 149.621094 C 281.699219 149.191406 281.933594 148.855469 281.933594 148.285156 C 281.933594 147.269531 281.191406 146.738281 280.25 146.738281 C 279.71875 146.738281 279.273438 146.898438 278.828125 147.082031 L 278.828125 147.789062 C 279.273438 147.503906 279.71875 147.292969 280.261719 147.292969 C 280.882812 147.292969 281.367188 147.679688 281.367188 148.324219 C 281.367188 148.757812 281.019531 149.289062 280.734375 149.585938 C 280.648438 149.710938 278.925781 151.59375 278.789062 151.730469 L 278.789062 152.296875 Z M 281.972656 152.296875 "/>
<path fill-rule="nonzero" fill="rgb(50.195312%, 50.195312%, 50.195312%)" fill-opacity="1" d="M 286.277344 149.585938 C 286.265625 148.421875 286.003906 146.738281 284.53125 146.738281 C 283.054688 146.738281 282.808594 148.445312 282.808594 149.585938 C 282.808594 150.738281 283.070312 152.410156 284.53125 152.410156 C 285.992188 152.410156 286.277344 150.738281 286.277344 149.585938 Z M 285.707031 149.585938 C 285.707031 150.339844 285.644531 151.890625 284.53125 151.890625 C 283.414062 151.890625 283.378906 150.316406 283.378906 149.585938 C 283.378906 148.84375 283.402344 147.246094 284.53125 147.246094 C 285.644531 147.246094 285.707031 148.855469 285.707031 149.585938 Z M 285.707031 149.585938 "/>
<path fill-rule="nonzero" fill="rgb(50.195312%, 50.195312%, 50.195312%)" fill-opacity="1" d="M 136.976562 143.125 C 136.960938 141.960938 136.703125 140.277344 135.226562 140.277344 C 133.753906 140.277344 133.507812 141.988281 133.507812 143.125 C 133.507812 144.277344 133.765625 145.949219 135.226562 145.949219 C 136.691406 145.949219 136.976562 144.277344 136.976562 143.125 Z M 136.40625 143.125 C 136.40625 143.882812 136.34375 145.429688 135.226562 145.429688 C 134.113281 145.429688 134.078125 143.859375 134.078125 143.125 C 134.078125 142.382812 134.101562 140.785156 135.226562 140.785156 C 136.34375 140.785156 136.40625 142.394531 136.40625 143.125 Z M 136.40625 143.125 "/>
<path fill-rule="nonzero" fill="rgb(50.195312%, 50.195312%, 50.195312%)" fill-opacity="1" d="M 128.261719 5.601562 L 128.261719 5.03125 L 125.8125 5.03125 L 127.679688 2.925781 C 127.992188 2.492188 128.226562 2.15625 128.226562 1.589844 C 128.226562 0.574219 127.484375 0.0390625 126.542969 0.0390625 C 126.007812 0.0390625 125.5625 0.199219 125.117188 0.386719 L 125.117188 1.09375 C 125.5625 0.808594 126.007812 0.597656 126.554688 0.597656 C 127.171875 0.597656 127.65625 0.980469 127.65625 1.625 C 127.65625 2.058594 127.308594 2.589844 127.023438 2.890625 C 126.9375 3.011719 125.214844 4.894531 125.082031 5.03125 L 125.082031 5.601562 Z M 128.261719 5.601562 "/>
<path fill-rule="nonzero" fill="rgb(50.195312%, 50.195312%, 50.195312%)" fill-opacity="1" d="M 132.566406 2.890625 C 132.554688 1.722656 132.296875 0.0390625 130.820312 0.0390625 C 129.347656 0.0390625 129.101562 1.75 129.101562 2.890625 C 129.101562 4.039062 129.359375 5.710938 130.820312 5.710938 C 132.28125 5.710938 132.566406 4.039062 132.566406 2.890625 Z M 132 2.890625 C 132 3.644531 131.9375 5.191406 130.820312 5.191406 C 129.707031 5.191406 129.667969 3.621094 129.667969 2.890625 C 129.667969 2.144531 129.695312 0.546875 130.820312 0.546875 C 131.9375 0.546875 132 2.15625 132 2.890625 Z M 132 2.890625 "/>
<path fill-rule="nonzero" fill="rgb(50.195312%, 50.195312%, 50.195312%)" fill-opacity="1" d="M 136.976562 2.890625 C 136.960938 1.722656 136.703125 0.0390625 135.226562 0.0390625 C 133.753906 0.0390625 133.507812 1.75 133.507812 2.890625 C 133.507812 4.039062 133.765625 5.710938 135.226562 5.710938 C 136.691406 5.710938 136.976562 4.039062 136.976562 2.890625 Z M 136.40625 2.890625 C 136.40625 3.644531 136.34375 5.191406 135.226562 5.191406 C 134.113281 5.191406 134.078125 3.621094 134.078125 2.890625 C 134.078125 2.144531 134.101562 0.546875 135.226562 0.546875 C 136.34375 0.546875 136.40625 2.15625 136.40625 2.890625 Z M 136.40625 2.890625 "/>
<path fill="none" stroke-width="0.850394" stroke-linecap="butt" stroke-linejoin="miter" stroke="rgb(1.176453%, 0%, 0%)" stroke-opacity="1" stroke-miterlimit="4" d="M 140.980469 2.476562 L 282.71875 2.476562 L 282.71875 143.679688 L 140.980469 143.679688 Z M 140.980469 2.476562 "/>
</svg>
