<?xml version="1.0" encoding="UTF-8"?>
<svg xmlns="http://www.w3.org/2000/svg" xmlns:xlink="http://www.w3.org/1999/xlink" width="410.036896pt" height="274.838623pt" viewBox="0 0 410.036896 274.838623">
<defs>
<clipPath id="clip-0">
<path clip-rule="nonzero" d="M 0 0 L 410 0 L 410 274.839844 L 0 274.839844 Z M 0 0 "/>
</clipPath>
<clipPath id="clip-1">
<path clip-rule="nonzero" d="M 0 0 L 410.035156 0 L 410.035156 274.839844 L 0 274.839844 Z M 0 0 "/>
</clipPath>
</defs>
<path fill-rule="nonzero" fill="rgb(62.744141%, 85.096741%, 82.743835%)" fill-opacity="1" stroke-width="0.751178" stroke-linecap="butt" stroke-linejoin="miter" stroke="rgb(0%, 0%, 0%)" stroke-opacity="1" stroke-miterlimit="4" d="M 167.753906 116.152344 L 243.398438 116.152344 C 256.929688 116.152344 267.820312 127.046875 267.820312 140.574219 L 267.820312 237.6875 C 267.820312 251.214844 256.929688 262.109375 243.398438 262.109375 L 167.753906 262.109375 C 154.226562 262.109375 143.332031 251.214844 143.332031 237.6875 L 143.332031 140.574219 C 143.332031 127.046875 154.226562 116.152344 167.753906 116.152344 Z M 167.753906 116.152344 "/>
<path fill-rule="nonzero" fill="rgb(62.744141%, 85.096741%, 82.743835%)" fill-opacity="1" stroke-width="0.751178" stroke-linecap="butt" stroke-linejoin="miter" stroke="rgb(0%, 0%, 0%)" stroke-opacity="1" stroke-miterlimit="4" d="M 297.402344 116.152344 L 373.046875 116.152344 C 386.578125 116.152344 397.46875 127.046875 397.46875 140.574219 L 397.46875 237.6875 C 397.46875 251.214844 386.578125 262.109375 373.046875 262.109375 L 297.402344 262.109375 C 283.875 262.109375 272.980469 251.214844 272.980469 237.6875 L 272.980469 140.574219 C 272.980469 127.046875 283.875 116.152344 297.402344 116.152344 Z M 297.402344 116.152344 "/>
<g clip-path="url(#clip-0)">
<path fill-rule="nonzero" fill="rgb(77.645874%, 80.39093%, 81.175232%)" fill-opacity="1" d="M 20.59375 0.375 L 389.441406 0.375 C 400.644531 0.375 409.660156 9.394531 409.660156 20.59375 L 409.660156 254.242188 C 409.660156 265.445312 400.644531 274.464844 389.441406 274.464844 L 20.59375 274.464844 C 9.394531 274.464844 0.375 265.445312 0.375 254.242188 L 0.375 20.59375 C 0.375 9.394531 9.394531 0.375 20.59375 0.375 Z M 20.59375 0.375 "/>
</g>
<g clip-path="url(#clip-1)">
<path fill="none" stroke-width="0.751178" stroke-linecap="butt" stroke-linejoin="miter" stroke="rgb(0%, 0%, 0%)" stroke-opacity="1" stroke-miterlimit="4" d="M 20.59375 0.375 L 389.441406 0.375 C 400.644531 0.375 409.660156 9.394531 409.660156 20.59375 L 409.660156 254.242188 C 409.660156 265.445312 400.644531 274.464844 389.441406 274.464844 L 20.59375 274.464844 C 9.394531 274.464844 0.375 265.445312 0.375 254.242188 L 0.375 20.59375 C 0.375 9.394531 9.394531 0.375 20.59375 0.375 Z M 20.59375 0.375 "/>
</g>
<path fill-rule="nonzero" fill="rgb(81.959534%, 51.371765%, 38.430786%)" fill-opacity="1" stroke-width="0.751178" stroke-linecap="butt" stroke-linejoin="miter" stroke="rgb(0%, 0%, 0%)" stroke-opacity="1" stroke-miterlimit="4" d="M 23.71875 97.917969 L 386.960938 97.917969 C 395.832031 97.917969 402.976562 105.0625 402.976562 113.9375 L 402.976562 251.359375 C 402.976562 260.234375 395.832031 267.375 386.960938 267.375 L 23.71875 267.375 C 14.84375 267.375 7.699219 260.234375 7.699219 251.359375 L 7.699219 113.9375 C 7.699219 105.0625 14.84375 97.917969 23.71875 97.917969 Z M 23.71875 97.917969 "/>
<path fill-rule="nonzero" fill="rgb(62.744141%, 85.096741%, 82.743835%)" fill-opacity="1" stroke-width="0.756281" stroke-linecap="butt" stroke-linejoin="miter" stroke="rgb(0%, 0%, 0%)" stroke-opacity="1" stroke-miterlimit="4" d="M 38.624975 116.15625 L 115.300796 116.15625 C 129.016522 116.15625 140.055623 127.195312 140.055623 140.910156 L 140.055623 239.351562 C 140.055623 253.066406 129.016522 264.105469 115.300796 264.105469 L 38.624975 264.105469 C 24.909248 264.105469 13.866188 253.066406 13.866188 239.351562 L 13.866188 140.910156 C 13.866188 127.195312 24.909248 116.15625 38.624975 116.15625 Z M 38.624975 116.15625 " transform="matrix(0.98655, 0, 0, 1, 0, 0)"/>
<path fill-rule="nonzero" fill="rgb(62.744141%, 85.096741%, 82.743835%)" fill-opacity="1" stroke-width="0.751178" stroke-linecap="butt" stroke-linejoin="miter" stroke="rgb(0%, 0%, 0%)" stroke-opacity="1" stroke-miterlimit="4" d="M 167.753906 116.152344 L 243.398438 116.152344 C 256.929688 116.152344 267.820312 127.046875 267.820312 140.574219 L 267.820312 239.699219 C 267.820312 253.226562 256.929688 264.117188 243.398438 264.117188 L 167.753906 264.117188 C 154.226562 264.117188 143.332031 253.226562 143.332031 239.699219 L 143.332031 140.574219 C 143.332031 127.046875 154.226562 116.152344 167.753906 116.152344 Z M 167.753906 116.152344 "/>
<path fill-rule="nonzero" fill="rgb(0%, 0%, 0%)" fill-opacity="1" d="M 161.800781 7.164062 L 160.800781 7.164062 L 157.898438 14.914062 L 158.71875 14.914062 L 159.578125 12.640625 L 162.832031 12.640625 L 163.671875 14.914062 L 164.703125 14.914062 Z M 162.585938 12.011719 L 159.820312 12.011719 L 160.539062 10 C 160.765625 9.335938 161.117188 8.390625 161.203125 7.96875 C 161.238281 8.128906 161.308594 8.40625 161.570312 9.140625 Z M 162.585938 12.011719 "/>
<path fill-rule="nonzero" fill="rgb(0%, 0%, 0%)" fill-opacity="1" d="M 166.769531 12.519531 C 166.769531 11.417969 167.574219 10.613281 168.675781 10.578125 L 168.675781 9.84375 C 167.679688 9.84375 167.066406 10.402344 166.714844 10.910156 L 166.714844 9.894531 L 165.929688 9.894531 L 165.929688 14.914062 L 166.769531 14.914062 Z M 166.769531 12.519531 "/>
<path fill-rule="nonzero" fill="rgb(0%, 0%, 0%)" fill-opacity="1" d="M 170.789062 10.613281 L 172.363281 10.613281 L 172.363281 9.964844 L 170.789062 9.964844 L 170.789062 8.546875 L 170.019531 8.546875 L 170.019531 9.964844 L 169.039062 9.964844 L 169.039062 10.613281 L 169.984375 10.613281 L 169.984375 13.585938 C 169.984375 14.25 170.140625 15.039062 170.910156 15.039062 C 171.679688 15.039062 172.257812 14.757812 172.539062 14.617188 L 172.363281 13.953125 C 172.066406 14.199219 171.714844 14.320312 171.347656 14.320312 C 170.945312 14.320312 170.789062 13.988281 170.789062 13.394531 Z M 170.789062 10.613281 "/>
<path fill-rule="nonzero" fill="rgb(0%, 0%, 0%)" fill-opacity="1" d="M 174.675781 7.324219 L 173.679688 7.324219 L 173.679688 8.320312 L 174.675781 8.320312 Z M 174.609375 9.964844 L 173.769531 9.964844 L 173.769531 14.914062 L 174.609375 14.914062 Z M 174.609375 9.964844 "/>
<path fill-rule="nonzero" fill="rgb(0%, 0%, 0%)" fill-opacity="1" d="M 180.628906 7.164062 L 179.703125 7.164062 L 179.703125 8.09375 L 180.628906 8.09375 Z M 180.578125 9.964844 L 179.738281 9.964844 L 179.738281 14.914062 L 180.578125 14.914062 Z M 177.480469 10.613281 L 178.8125 10.613281 L 178.8125 9.964844 L 177.445312 9.964844 L 177.445312 8.617188 C 177.445312 7.898438 177.847656 7.726562 178.128906 7.726562 C 178.375 7.726562 178.617188 7.8125 178.8125 7.933594 L 178.8125 7.164062 C 178.742188 7.148438 178.460938 7.042969 178.128906 7.042969 C 177.308594 7.042969 176.640625 7.832031 176.640625 8.949219 L 176.640625 9.964844 L 175.820312 9.964844 L 175.820312 10.613281 L 176.640625 10.613281 L 176.640625 14.914062 L 177.480469 14.914062 Z M 177.480469 10.613281 "/>
<path fill-rule="nonzero" fill="rgb(0%, 0%, 0%)" fill-opacity="1" d="M 186.085938 10.246094 C 185.421875 9.878906 185.035156 9.773438 184.355469 9.773438 C 182.8125 9.773438 181.90625 11.117188 181.90625 12.429688 C 181.90625 13.8125 182.917969 15.039062 184.320312 15.039062 C 184.914062 15.039062 185.527344 14.878906 186.136719 14.460938 L 186.066406 13.726562 C 185.492188 14.164062 184.894531 14.320312 184.320312 14.320312 C 183.390625 14.320312 182.777344 13.515625 182.777344 12.429688 C 182.777344 11.554688 183.179688 10.488281 184.371094 10.488281 C 184.949219 10.488281 185.332031 10.578125 185.945312 10.980469 Z M 186.085938 10.246094 "/>
<path fill-rule="nonzero" fill="rgb(0%, 0%, 0%)" fill-opacity="1" d="M 188.277344 7.324219 L 187.28125 7.324219 L 187.28125 8.320312 L 188.277344 8.320312 Z M 188.207031 9.964844 L 187.367188 9.964844 L 187.367188 14.914062 L 188.207031 14.914062 Z M 188.207031 9.964844 "/>
<path fill-rule="nonzero" fill="rgb(0%, 0%, 0%)" fill-opacity="1" d="M 193.582031 11.695312 C 193.582031 10.558594 192.761719 9.773438 191.730469 9.773438 C 191.011719 9.773438 190.503906 9.945312 189.980469 10.246094 L 190.050781 10.980469 C 190.628906 10.578125 191.1875 10.4375 191.730469 10.4375 C 192.253906 10.4375 192.710938 10.875 192.710938 11.695312 L 192.710938 12.1875 C 191.03125 12.203125 189.613281 12.675781 189.613281 13.65625 C 189.613281 14.128906 189.910156 15.039062 190.890625 15.039062 C 191.046875 15.039062 192.097656 15.019531 192.742188 14.511719 L 192.742188 14.914062 L 193.582031 14.914062 Z M 192.710938 13.445312 C 192.710938 13.65625 192.710938 13.933594 192.324219 14.144531 C 192.007812 14.335938 191.570312 14.355469 191.449219 14.355469 C 190.925781 14.355469 190.417969 14.09375 190.417969 13.636719 C 190.417969 12.851562 192.21875 12.78125 192.710938 12.746094 Z M 192.710938 13.445312 "/>
<path fill-rule="nonzero" fill="rgb(0%, 0%, 0%)" fill-opacity="1" d="M 195.394531 7.164062 L 196.234375 7.164062 L 196.234375 14.914062 L 195.394531 14.914062 Z M 195.394531 7.164062 "/>
<path fill-rule="nonzero" fill="rgb(0%, 0%, 0%)" fill-opacity="1" d="M 202.683594 7.324219 L 201.683594 7.324219 L 201.683594 8.320312 L 202.683594 8.320312 Z M 202.613281 9.964844 L 201.773438 9.964844 L 201.773438 14.914062 L 202.613281 14.914062 Z M 202.613281 9.964844 "/>
<path fill-rule="nonzero" fill="rgb(0%, 0%, 0%)" fill-opacity="1" d="M 208.390625 11.589844 C 208.390625 10.855469 208.214844 9.84375 206.851562 9.84375 C 205.855469 9.84375 205.292969 10.59375 205.242188 10.679688 L 205.242188 9.894531 L 204.4375 9.894531 L 204.4375 14.914062 L 205.292969 14.914062 L 205.292969 12.1875 C 205.292969 11.453125 205.574219 10.523438 206.429688 10.523438 C 207.496094 10.523438 207.515625 11.3125 207.515625 11.660156 L 207.515625 14.914062 L 208.390625 14.914062 Z M 208.390625 11.589844 "/>
<path fill-rule="nonzero" fill="rgb(0%, 0%, 0%)" fill-opacity="1" d="M 211.25 10.613281 L 212.824219 10.613281 L 212.824219 9.964844 L 211.25 9.964844 L 211.25 8.546875 L 210.480469 8.546875 L 210.480469 9.964844 L 209.5 9.964844 L 209.5 10.613281 L 210.445312 10.613281 L 210.445312 13.585938 C 210.445312 14.25 210.601562 15.039062 211.371094 15.039062 C 212.140625 15.039062 212.71875 14.757812 213 14.617188 L 212.824219 13.953125 C 212.527344 14.199219 212.175781 14.320312 211.808594 14.320312 C 211.40625 14.320312 211.25 13.988281 211.25 13.394531 Z M 211.25 10.613281 "/>
<path fill-rule="nonzero" fill="rgb(0%, 0%, 0%)" fill-opacity="1" d="M 217.9375 12.464844 C 217.9375 12.097656 217.917969 11.257812 217.5 10.578125 C 217.027344 9.894531 216.359375 9.773438 215.957031 9.773438 C 214.71875 9.773438 213.703125 10.960938 213.703125 12.394531 C 213.703125 13.867188 214.785156 15.039062 216.117188 15.039062 C 216.816406 15.039062 217.464844 14.773438 217.902344 14.460938 L 217.832031 13.726562 C 217.132812 14.320312 216.378906 14.355469 216.132812 14.355469 C 215.242188 14.355469 214.523438 13.566406 214.488281 12.464844 Z M 214.542969 11.855469 C 214.71875 11.015625 215.3125 10.453125 215.957031 10.453125 C 216.535156 10.453125 217.148438 10.820312 217.304688 11.855469 Z M 214.542969 11.855469 "/>
<path fill-rule="nonzero" fill="rgb(0%, 0%, 0%)" fill-opacity="1" d="M 219.183594 7.164062 L 220.023438 7.164062 L 220.023438 14.914062 L 219.183594 14.914062 Z M 219.183594 7.164062 "/>
<path fill-rule="nonzero" fill="rgb(0%, 0%, 0%)" fill-opacity="1" d="M 221.847656 7.164062 L 222.6875 7.164062 L 222.6875 14.914062 L 221.847656 14.914062 Z M 221.847656 7.164062 "/>
<path fill-rule="nonzero" fill="rgb(0%, 0%, 0%)" fill-opacity="1" d="M 225.421875 7.324219 L 224.425781 7.324219 L 224.425781 8.320312 L 225.421875 8.320312 Z M 225.351562 9.964844 L 224.511719 9.964844 L 224.511719 14.914062 L 225.351562 14.914062 Z M 225.351562 9.964844 "/>
<path fill-rule="nonzero" fill="rgb(0%, 0%, 0%)" fill-opacity="1" d="M 230.203125 10.558594 C 230.449219 10.558594 230.746094 10.507812 231.027344 10.507812 C 231.21875 10.507812 231.65625 10.542969 231.671875 10.542969 L 231.550781 9.84375 C 230.78125 9.84375 230.132812 10.050781 229.800781 10.191406 C 229.558594 10 229.191406 9.84375 228.734375 9.84375 C 227.773438 9.84375 226.96875 10.648438 226.96875 11.660156 C 226.96875 12.0625 227.109375 12.464844 227.335938 12.761719 C 227.003906 13.21875 227.003906 13.65625 227.003906 13.707031 C 227.003906 14.003906 227.109375 14.320312 227.300781 14.566406 C 226.722656 14.898438 226.582031 15.421875 226.582031 15.703125 C 226.582031 16.542969 227.683594 17.207031 229.050781 17.207031 C 230.414062 17.207031 231.515625 16.558594 231.515625 15.703125 C 231.515625 14.144531 229.660156 14.144531 229.226562 14.144531 L 228.246094 14.144531 C 228.105469 14.144531 227.597656 14.144531 227.597656 13.550781 C 227.597656 13.429688 227.632812 13.253906 227.71875 13.148438 C 227.949219 13.324219 228.316406 13.480469 228.734375 13.480469 C 229.730469 13.480469 230.519531 12.640625 230.519531 11.660156 C 230.519531 11.117188 230.273438 10.699219 230.152344 10.542969 Z M 228.734375 12.832031 C 228.316406 12.832031 227.738281 12.589844 227.738281 11.660156 C 227.738281 10.734375 228.316406 10.472656 228.734375 10.472656 C 229.207031 10.472656 229.730469 10.785156 229.730469 11.660156 C 229.730469 12.519531 229.207031 12.832031 228.734375 12.832031 Z M 229.242188 14.949219 C 229.488281 14.949219 230.746094 14.949219 230.746094 15.71875 C 230.746094 16.210938 229.976562 16.578125 229.066406 16.578125 C 228.15625 16.578125 227.371094 16.226562 227.371094 15.703125 C 227.371094 15.667969 227.371094 14.949219 228.226562 14.949219 Z M 229.242188 14.949219 "/>
<path fill-rule="nonzero" fill="rgb(0%, 0%, 0%)" fill-opacity="1" d="M 236.464844 12.464844 C 236.464844 12.097656 236.445312 11.257812 236.027344 10.578125 C 235.554688 9.894531 234.886719 9.773438 234.484375 9.773438 C 233.246094 9.773438 232.230469 10.960938 232.230469 12.394531 C 232.230469 13.867188 233.3125 15.039062 234.644531 15.039062 C 235.34375 15.039062 235.992188 14.773438 236.429688 14.460938 L 236.359375 13.726562 C 235.660156 14.320312 234.90625 14.355469 234.660156 14.355469 C 233.769531 14.355469 233.050781 13.566406 233.015625 12.464844 Z M 233.070312 11.855469 C 233.246094 11.015625 233.839844 10.453125 234.484375 10.453125 C 235.0625 10.453125 235.675781 10.820312 235.832031 11.855469 Z M 233.070312 11.855469 "/>
<path fill-rule="nonzero" fill="rgb(0%, 0%, 0%)" fill-opacity="1" d="M 241.664062 11.589844 C 241.664062 10.855469 241.488281 9.84375 240.125 9.84375 C 239.128906 9.84375 238.566406 10.59375 238.515625 10.679688 L 238.515625 9.894531 L 237.710938 9.894531 L 237.710938 14.914062 L 238.566406 14.914062 L 238.566406 12.1875 C 238.566406 11.453125 238.847656 10.523438 239.703125 10.523438 C 240.773438 10.523438 240.789062 11.3125 240.789062 11.660156 L 240.789062 14.914062 L 241.664062 14.914062 Z M 241.664062 11.589844 "/>
<path fill-rule="nonzero" fill="rgb(0%, 0%, 0%)" fill-opacity="1" d="M 247.148438 10.246094 C 246.484375 9.878906 246.097656 9.773438 245.414062 9.773438 C 243.875 9.773438 242.96875 11.117188 242.96875 12.429688 C 242.96875 13.8125 243.980469 15.039062 245.382812 15.039062 C 245.976562 15.039062 246.589844 14.878906 247.199219 14.460938 L 247.128906 13.726562 C 246.554688 14.164062 245.957031 14.320312 245.382812 14.320312 C 244.453125 14.320312 243.839844 13.515625 243.839844 12.429688 C 243.839844 11.554688 244.242188 10.488281 245.433594 10.488281 C 246.011719 10.488281 246.394531 10.578125 247.007812 10.980469 Z M 247.148438 10.246094 "/>
<path fill-rule="nonzero" fill="rgb(0%, 0%, 0%)" fill-opacity="1" d="M 252.140625 12.464844 C 252.140625 12.097656 252.121094 11.257812 251.703125 10.578125 C 251.230469 9.894531 250.566406 9.773438 250.164062 9.773438 C 248.921875 9.773438 247.90625 10.960938 247.90625 12.394531 C 247.90625 13.867188 248.988281 15.039062 250.320312 15.039062 C 251.019531 15.039062 251.667969 14.773438 252.105469 14.460938 L 252.035156 13.726562 C 251.335938 14.320312 250.582031 14.355469 250.335938 14.355469 C 249.445312 14.355469 248.726562 13.566406 248.691406 12.464844 Z M 248.746094 11.855469 C 248.921875 11.015625 249.515625 10.453125 250.164062 10.453125 C 250.738281 10.453125 251.351562 10.820312 251.507812 11.855469 Z M 248.746094 11.855469 "/>
<path fill-rule="nonzero" fill="rgb(0%, 0%, 0%)" fill-opacity="1" d="M 170.863281 106.898438 C 170.480469 107.914062 169.953125 109.296875 169.832031 109.820312 L 169.816406 109.820312 C 169.761719 109.574219 169.621094 109.171875 169.464844 108.699219 L 167.714844 104.082031 L 167.332031 103.101562 L 166.070312 103.101562 L 166.070312 110.851562 L 166.945312 110.851562 L 166.945312 103.925781 C 167.015625 104.292969 167.46875 105.5 167.75 106.269531 L 169.414062 110.605469 L 170.21875 110.605469 L 171.703125 106.722656 C 172.054688 105.8125 172.160156 105.535156 172.246094 105.308594 C 172.351562 104.976562 172.648438 104.171875 172.699219 103.925781 L 172.71875 103.925781 L 172.71875 110.851562 L 173.59375 110.851562 L 173.59375 103.101562 L 172.316406 103.101562 Z M 170.863281 106.898438 "/>
<path fill-rule="nonzero" fill="rgb(0%, 0%, 0%)" fill-opacity="1" d="M 179.171875 107.632812 C 179.171875 106.496094 178.347656 105.710938 177.316406 105.710938 C 176.601562 105.710938 176.09375 105.882812 175.566406 106.183594 L 175.636719 106.917969 C 176.214844 106.515625 176.773438 106.375 177.316406 106.375 C 177.84375 106.375 178.296875 106.8125 178.296875 107.632812 L 178.296875 108.125 C 176.617188 108.140625 175.199219 108.613281 175.199219 109.59375 C 175.199219 110.066406 175.496094 110.976562 176.476562 110.976562 C 176.636719 110.976562 177.683594 110.957031 178.332031 110.449219 L 178.332031 110.851562 L 179.171875 110.851562 Z M 178.296875 109.382812 C 178.296875 109.59375 178.296875 109.871094 177.910156 110.082031 C 177.597656 110.273438 177.160156 110.292969 177.039062 110.292969 C 176.511719 110.292969 176.003906 110.03125 176.003906 109.574219 C 176.003906 108.789062 177.808594 108.71875 178.296875 108.683594 Z M 178.296875 109.382812 "/>
<path fill-rule="nonzero" fill="rgb(0%, 0%, 0%)" fill-opacity="1" d="M 184.652344 106.183594 C 183.988281 105.8125 183.605469 105.710938 182.921875 105.710938 C 181.382812 105.710938 180.472656 107.054688 180.472656 108.367188 C 180.472656 109.75 181.488281 110.976562 182.886719 110.976562 C 183.480469 110.976562 184.09375 110.816406 184.707031 110.398438 L 184.636719 109.664062 C 184.058594 110.101562 183.464844 110.257812 182.886719 110.257812 C 181.960938 110.257812 181.347656 109.453125 181.347656 108.367188 C 181.347656 107.492188 181.75 106.425781 182.941406 106.425781 C 183.515625 106.425781 183.902344 106.515625 184.515625 106.917969 Z M 184.652344 106.183594 "/>
<path fill-rule="nonzero" fill="rgb(0%, 0%, 0%)" fill-opacity="1" d="M 189.890625 107.527344 C 189.890625 106.792969 189.714844 105.78125 188.351562 105.78125 C 187.667969 105.78125 187.128906 106.113281 186.777344 106.585938 L 186.777344 103.101562 L 185.9375 103.101562 L 185.9375 110.851562 L 186.796875 110.851562 L 186.796875 108.125 C 186.796875 107.390625 187.074219 106.460938 187.933594 106.460938 C 189 106.460938 189.015625 107.25 189.015625 107.597656 L 189.015625 110.851562 L 189.890625 110.851562 Z M 189.890625 107.527344 "/>
<path fill-rule="nonzero" fill="rgb(0%, 0%, 0%)" fill-opacity="1" d="M 192.609375 103.261719 L 191.613281 103.261719 L 191.613281 104.257812 L 192.609375 104.257812 Z M 192.539062 105.902344 L 191.699219 105.902344 L 191.699219 110.851562 L 192.539062 110.851562 Z M 192.539062 105.902344 "/>
<path fill-rule="nonzero" fill="rgb(0%, 0%, 0%)" fill-opacity="1" d="M 198.316406 107.527344 C 198.316406 106.792969 198.144531 105.78125 196.777344 105.78125 C 195.78125 105.78125 195.222656 106.53125 195.167969 106.617188 L 195.167969 105.832031 L 194.363281 105.832031 L 194.363281 110.851562 L 195.222656 110.851562 L 195.222656 108.125 C 195.222656 107.390625 195.5 106.460938 196.359375 106.460938 C 197.425781 106.460938 197.445312 107.25 197.445312 107.597656 L 197.445312 110.851562 L 198.316406 110.851562 Z M 198.316406 107.527344 "/>
<path fill-rule="nonzero" fill="rgb(0%, 0%, 0%)" fill-opacity="1" d="M 203.835938 108.402344 C 203.835938 108.035156 203.820312 107.195312 203.398438 106.515625 C 202.925781 105.832031 202.261719 105.710938 201.859375 105.710938 C 200.617188 105.710938 199.601562 106.898438 199.601562 108.332031 C 199.601562 109.800781 200.6875 110.976562 202.015625 110.976562 C 202.71875 110.976562 203.363281 110.710938 203.800781 110.398438 L 203.730469 109.664062 C 203.03125 110.257812 202.28125 110.292969 202.035156 110.292969 C 201.144531 110.292969 200.425781 109.503906 200.390625 108.402344 Z M 200.441406 107.789062 C 200.617188 106.953125 201.210938 106.390625 201.859375 106.390625 C 202.4375 106.390625 203.050781 106.757812 203.207031 107.789062 Z M 200.441406 107.789062 "/>
<path fill-rule="nonzero" fill="rgb(0%, 0%, 0%)" fill-opacity="1" d="M 208.800781 103.101562 L 209.640625 103.101562 L 209.640625 110.851562 L 208.800781 110.851562 Z M 208.800781 103.101562 "/>
<path fill-rule="nonzero" fill="rgb(0%, 0%, 0%)" fill-opacity="1" d="M 215.171875 108.402344 C 215.171875 108.035156 215.15625 107.195312 214.734375 106.515625 C 214.261719 105.832031 213.597656 105.710938 213.195312 105.710938 C 211.953125 105.710938 210.9375 106.898438 210.9375 108.332031 C 210.9375 109.800781 212.023438 110.976562 213.351562 110.976562 C 214.050781 110.976562 214.699219 110.710938 215.136719 110.398438 L 215.066406 109.664062 C 214.367188 110.257812 213.613281 110.292969 213.371094 110.292969 C 212.476562 110.292969 211.761719 109.503906 211.726562 108.402344 Z M 211.777344 107.789062 C 211.953125 106.953125 212.546875 106.390625 213.195312 106.390625 C 213.773438 106.390625 214.386719 106.757812 214.542969 107.789062 Z M 211.777344 107.789062 "/>
<path fill-rule="nonzero" fill="rgb(0%, 0%, 0%)" fill-opacity="1" d="M 219.972656 107.632812 C 219.972656 106.496094 219.148438 105.710938 218.117188 105.710938 C 217.398438 105.710938 216.890625 105.882812 216.367188 106.183594 L 216.4375 106.917969 C 217.015625 106.515625 217.574219 106.375 218.117188 106.375 C 218.640625 106.375 219.097656 106.8125 219.097656 107.632812 L 219.097656 108.125 C 217.417969 108.140625 216 108.613281 216 109.59375 C 216 110.066406 216.296875 110.976562 217.277344 110.976562 C 217.433594 110.976562 218.484375 110.957031 219.132812 110.449219 L 219.132812 110.851562 L 219.972656 110.851562 Z M 219.097656 109.382812 C 219.097656 109.59375 219.097656 109.871094 218.710938 110.082031 C 218.398438 110.273438 217.960938 110.292969 217.835938 110.292969 C 217.3125 110.292969 216.804688 110.03125 216.804688 109.574219 C 216.804688 108.789062 218.605469 108.71875 219.097656 108.683594 Z M 219.097656 109.382812 "/>
<path fill-rule="nonzero" fill="rgb(0%, 0%, 0%)" fill-opacity="1" d="M 222.320312 108.457031 C 222.320312 107.355469 223.125 106.550781 224.226562 106.515625 L 224.226562 105.78125 C 223.226562 105.78125 222.617188 106.339844 222.265625 106.847656 L 222.265625 105.832031 L 221.480469 105.832031 L 221.480469 110.851562 L 222.320312 110.851562 Z M 222.320312 108.457031 "/>
<path fill-rule="nonzero" fill="rgb(0%, 0%, 0%)" fill-opacity="1" d="M 229.246094 107.527344 C 229.246094 106.792969 229.070312 105.78125 227.707031 105.78125 C 226.707031 105.78125 226.148438 106.53125 226.097656 106.617188 L 226.097656 105.832031 L 225.292969 105.832031 L 225.292969 110.851562 L 226.148438 110.851562 L 226.148438 108.125 C 226.148438 107.390625 226.429688 106.460938 227.285156 106.460938 C 228.351562 106.460938 228.371094 107.25 228.371094 107.597656 L 228.371094 110.851562 L 229.246094 110.851562 Z M 229.246094 107.527344 "/>
<path fill-rule="nonzero" fill="rgb(0%, 0%, 0%)" fill-opacity="1" d="M 231.953125 103.261719 L 230.953125 103.261719 L 230.953125 104.257812 L 231.953125 104.257812 Z M 231.882812 105.902344 L 231.042969 105.902344 L 231.042969 110.851562 L 231.882812 110.851562 Z M 231.882812 105.902344 "/>
<path fill-rule="nonzero" fill="rgb(0%, 0%, 0%)" fill-opacity="1" d="M 237.660156 107.527344 C 237.660156 106.792969 237.484375 105.78125 236.121094 105.78125 C 235.125 105.78125 234.566406 106.53125 234.511719 106.617188 L 234.511719 105.832031 L 233.707031 105.832031 L 233.707031 110.851562 L 234.566406 110.851562 L 234.566406 108.125 C 234.566406 107.390625 234.84375 106.460938 235.703125 106.460938 C 236.769531 106.460938 236.785156 107.25 236.785156 107.597656 L 236.785156 110.851562 L 237.660156 110.851562 Z M 237.660156 107.527344 "/>
<path fill-rule="nonzero" fill="rgb(0%, 0%, 0%)" fill-opacity="1" d="M 242.496094 106.496094 C 242.742188 106.496094 243.039062 106.445312 243.320312 106.445312 C 243.511719 106.445312 243.949219 106.480469 243.964844 106.480469 L 243.84375 105.78125 C 243.074219 105.78125 242.425781 105.988281 242.09375 106.128906 C 241.847656 105.9375 241.480469 105.78125 241.027344 105.78125 C 240.066406 105.78125 239.261719 106.585938 239.261719 107.597656 C 239.261719 108 239.398438 108.402344 239.628906 108.699219 C 239.296875 109.15625 239.296875 109.59375 239.296875 109.644531 C 239.296875 109.941406 239.398438 110.257812 239.59375 110.503906 C 239.015625 110.835938 238.875 111.359375 238.875 111.640625 C 238.875 112.480469 239.976562 113.144531 241.34375 113.144531 C 242.707031 113.144531 243.808594 112.496094 243.808594 111.640625 C 243.808594 110.082031 241.953125 110.082031 241.515625 110.082031 L 240.539062 110.082031 C 240.398438 110.082031 239.890625 110.082031 239.890625 109.488281 C 239.890625 109.367188 239.925781 109.191406 240.011719 109.085938 C 240.238281 109.261719 240.605469 109.417969 241.027344 109.417969 C 242.023438 109.417969 242.8125 108.578125 242.8125 107.597656 C 242.8125 107.054688 242.566406 106.636719 242.445312 106.480469 Z M 241.027344 108.769531 C 240.605469 108.769531 240.03125 108.527344 240.03125 107.597656 C 240.03125 106.671875 240.605469 106.410156 241.027344 106.410156 C 241.5 106.410156 242.023438 106.722656 242.023438 107.597656 C 242.023438 108.457031 241.5 108.769531 241.027344 108.769531 Z M 241.535156 110.886719 C 241.777344 110.886719 243.039062 110.886719 243.039062 111.65625 C 243.039062 112.148438 242.269531 112.515625 241.359375 112.515625 C 240.449219 112.515625 239.664062 112.164062 239.664062 111.640625 C 239.664062 111.605469 239.664062 110.886719 240.519531 110.886719 Z M 241.535156 110.886719 "/>
<path fill-rule="nonzero" fill="rgb(0%, 0%, 0%)" fill-opacity="1" d="M 181.566406 121.910156 L 180.707031 121.910156 L 180.707031 127.070312 C 180.707031 128.539062 179.761719 129.273438 178.820312 129.273438 C 177.910156 129.273438 177 128.574219 177 127.070312 L 177 121.910156 L 176.003906 121.910156 L 176.003906 127.050781 C 176.003906 128.679688 177.316406 129.902344 178.820312 129.902344 C 180.304688 129.902344 181.566406 128.679688 181.566406 127.050781 Z M 181.566406 121.910156 "/>
<path fill-rule="nonzero" fill="rgb(0%, 0%, 0%)" fill-opacity="1" d="M 187.484375 126.335938 C 187.484375 125.601562 187.308594 124.585938 185.945312 124.585938 C 184.949219 124.585938 184.386719 125.339844 184.335938 125.425781 L 184.335938 124.636719 L 183.53125 124.636719 L 183.53125 129.660156 L 184.386719 129.660156 L 184.386719 126.929688 C 184.386719 126.195312 184.667969 125.269531 185.523438 125.269531 C 186.589844 125.269531 186.609375 126.054688 186.609375 126.40625 L 186.609375 129.660156 L 187.484375 129.660156 Z M 187.484375 126.335938 "/>
<path fill-rule="nonzero" fill="rgb(0%, 0%, 0%)" fill-opacity="1" d="M 192.214844 124.867188 C 191.636719 124.601562 191.183594 124.515625 190.605469 124.515625 C 190.324219 124.515625 188.75 124.515625 188.75 125.96875 C 188.75 126.527344 189.085938 126.878906 189.363281 127.085938 C 189.695312 127.332031 189.941406 127.382812 190.554688 127.507812 C 190.957031 127.578125 191.601562 127.71875 191.601562 128.3125 C 191.601562 129.082031 190.726562 129.082031 190.554688 129.082031 C 189.660156 129.082031 189.03125 128.660156 188.839844 128.539062 L 188.699219 129.292969 C 189.050781 129.464844 189.660156 129.78125 190.570312 129.78125 C 190.78125 129.78125 191.394531 129.78125 191.867188 129.429688 C 192.214844 129.152344 192.40625 128.714844 192.40625 128.222656 C 192.40625 127.613281 191.988281 127.246094 191.96875 127.210938 C 191.53125 126.808594 191.234375 126.738281 190.675781 126.648438 C 190.0625 126.527344 189.539062 126.40625 189.539062 125.863281 C 189.539062 125.179688 190.34375 125.179688 190.5 125.179688 C 190.851562 125.179688 191.445312 125.214844 192.074219 125.601562 Z M 192.214844 124.867188 "/>
<path fill-rule="nonzero" fill="rgb(0%, 0%, 0%)" fill-opacity="1" d="M 197.523438 124.707031 L 196.648438 124.707031 L 196.648438 127.945312 C 196.648438 128.785156 196.019531 129.167969 195.300781 129.167969 C 194.515625 129.167969 194.425781 128.871094 194.425781 128.398438 L 194.425781 124.707031 L 193.570312 124.707031 L 193.570312 128.433594 C 193.570312 129.238281 193.8125 129.78125 194.742188 129.78125 C 195.335938 129.78125 196.125 129.605469 196.683594 129.117188 L 196.683594 129.660156 L 197.523438 129.660156 Z M 197.523438 124.707031 "/>
<path fill-rule="nonzero" fill="rgb(0%, 0%, 0%)" fill-opacity="1" d="M 200.207031 129.152344 C 200.554688 129.464844 201.046875 129.78125 201.710938 129.78125 C 202.796875 129.78125 203.773438 128.679688 203.773438 127.175781 C 203.773438 125.828125 203.074219 124.585938 202.007812 124.585938 C 201.34375 124.585938 200.695312 124.8125 200.171875 125.25 L 200.171875 124.707031 L 199.332031 124.707031 L 199.332031 131.828125 L 200.207031 131.828125 Z M 200.207031 125.949219 C 200.46875 125.546875 200.90625 125.304688 201.394531 125.304688 C 202.234375 125.304688 202.898438 126.144531 202.898438 127.175781 C 202.898438 128.3125 202.113281 129.097656 201.273438 129.097656 C 200.835938 129.097656 200.539062 128.871094 200.3125 128.574219 C 200.207031 128.417969 200.207031 128.382812 200.207031 128.1875 Z M 200.207031 125.949219 "/>
<path fill-rule="nonzero" fill="rgb(0%, 0%, 0%)" fill-opacity="1" d="M 209.117188 127.210938 C 209.117188 126.84375 209.097656 126.003906 208.679688 125.320312 C 208.207031 124.636719 207.542969 124.515625 207.140625 124.515625 C 205.898438 124.515625 204.882812 125.707031 204.882812 127.140625 C 204.882812 128.609375 205.96875 129.78125 207.296875 129.78125 C 207.996094 129.78125 208.644531 129.519531 209.082031 129.203125 L 209.011719 128.46875 C 208.3125 129.0625 207.558594 129.097656 207.3125 129.097656 C 206.421875 129.097656 205.703125 128.3125 205.671875 127.210938 Z M 205.722656 126.597656 C 205.898438 125.757812 206.492188 125.199219 207.140625 125.199219 C 207.714844 125.199219 208.328125 125.566406 208.484375 126.597656 Z M 205.722656 126.597656 "/>
<path fill-rule="nonzero" fill="rgb(0%, 0%, 0%)" fill-opacity="1" d="M 211.203125 127.261719 C 211.203125 126.160156 212.007812 125.355469 213.109375 125.320312 L 213.109375 124.585938 C 212.113281 124.585938 211.5 125.144531 211.152344 125.652344 L 211.152344 124.636719 L 210.363281 124.636719 L 210.363281 129.660156 L 211.203125 129.660156 Z M 211.203125 127.261719 "/>
<path fill-rule="nonzero" fill="rgb(0%, 0%, 0%)" fill-opacity="1" d="M 218.25 124.707031 L 217.410156 124.707031 L 216.519531 127.015625 C 216.292969 127.648438 215.941406 128.539062 215.855469 129.0625 L 215.835938 129.0625 C 215.785156 128.660156 215.488281 127.890625 215.382812 127.59375 L 214.296875 124.707031 L 213.421875 124.707031 L 215.347656 129.660156 L 216.328125 129.660156 Z M 218.25 124.707031 "/>
<path fill-rule="nonzero" fill="rgb(0%, 0%, 0%)" fill-opacity="1" d="M 220.226562 122.066406 L 219.230469 122.066406 L 219.230469 123.0625 L 220.226562 123.0625 Z M 220.15625 124.707031 L 219.316406 124.707031 L 219.316406 129.660156 L 220.15625 129.660156 Z M 220.15625 124.707031 "/>
<path fill-rule="nonzero" fill="rgb(0%, 0%, 0%)" fill-opacity="1" d="M 224.902344 124.867188 C 224.328125 124.601562 223.871094 124.515625 223.292969 124.515625 C 223.015625 124.515625 221.441406 124.515625 221.441406 125.96875 C 221.441406 126.527344 221.773438 126.878906 222.050781 127.085938 C 222.386719 127.332031 222.628906 127.382812 223.242188 127.507812 C 223.644531 127.578125 224.292969 127.71875 224.292969 128.3125 C 224.292969 129.082031 223.417969 129.082031 223.242188 129.082031 C 222.351562 129.082031 221.71875 128.660156 221.527344 128.539062 L 221.386719 129.292969 C 221.738281 129.464844 222.351562 129.78125 223.257812 129.78125 C 223.46875 129.78125 224.082031 129.78125 224.554688 129.429688 C 224.902344 129.152344 225.097656 128.714844 225.097656 128.222656 C 225.097656 127.613281 224.675781 127.246094 224.660156 127.210938 C 224.222656 126.808594 223.925781 126.738281 223.363281 126.648438 C 222.753906 126.527344 222.226562 126.40625 222.226562 125.863281 C 222.226562 125.179688 223.03125 125.179688 223.191406 125.179688 C 223.539062 125.179688 224.132812 125.214844 224.765625 125.601562 Z M 224.902344 124.867188 "/>
<path fill-rule="nonzero" fill="rgb(0%, 0%, 0%)" fill-opacity="1" d="M 229.964844 127.210938 C 229.964844 126.84375 229.949219 126.003906 229.527344 125.320312 C 229.058594 124.636719 228.390625 124.515625 227.988281 124.515625 C 226.746094 124.515625 225.734375 125.707031 225.734375 127.140625 C 225.734375 128.609375 226.816406 129.78125 228.148438 129.78125 C 228.847656 129.78125 229.496094 129.519531 229.929688 129.203125 L 229.863281 128.46875 C 229.160156 129.0625 228.410156 129.097656 228.164062 129.097656 C 227.273438 129.097656 226.554688 128.3125 226.519531 127.210938 Z M 226.574219 126.597656 C 226.746094 125.757812 227.34375 125.199219 227.988281 125.199219 C 228.566406 125.199219 229.179688 125.566406 229.335938 126.597656 Z M 226.574219 126.597656 "/>
<path fill-rule="nonzero" fill="rgb(0%, 0%, 0%)" fill-opacity="1" d="M 235.148438 121.910156 L 234.308594 121.910156 L 234.308594 125.199219 C 233.714844 124.707031 233.101562 124.585938 232.683594 124.585938 C 231.582031 124.585938 230.707031 125.742188 230.707031 127.175781 C 230.707031 128.644531 231.5625 129.78125 232.632812 129.78125 C 233 129.78125 233.644531 129.675781 234.277344 129.082031 L 234.277344 129.660156 L 235.148438 129.660156 Z M 234.277344 128.101562 C 234.277344 128.257812 234.257812 128.46875 233.90625 128.785156 C 233.644531 129.011719 233.367188 129.097656 233.085938 129.097656 C 232.386719 129.097656 231.582031 128.574219 231.582031 127.191406 C 231.582031 125.722656 232.542969 125.269531 233.191406 125.269531 C 233.699219 125.269531 234.03125 125.511719 234.277344 125.878906 Z M 234.277344 128.101562 "/>
<path fill-rule="nonzero" fill="rgb(0%, 0%, 0%)" fill-opacity="1" d="M 188.296875 135.292969 L 189.136719 135.292969 L 189.136719 143.042969 L 188.296875 143.042969 Z M 188.296875 135.292969 "/>
<path fill-rule="nonzero" fill="rgb(0%, 0%, 0%)" fill-opacity="1" d="M 194.667969 140.59375 C 194.667969 140.226562 194.652344 139.386719 194.230469 138.703125 C 193.757812 138.023438 193.09375 137.898438 192.691406 137.898438 C 191.449219 137.898438 190.433594 139.089844 190.433594 140.523438 C 190.433594 141.992188 191.519531 143.164062 192.847656 143.164062 C 193.546875 143.164062 194.195312 142.902344 194.632812 142.589844 L 194.5625 141.851562 C 193.863281 142.449219 193.113281 142.484375 192.867188 142.484375 C 191.972656 142.484375 191.257812 141.695312 191.222656 140.59375 Z M 191.273438 139.980469 C 191.449219 139.140625 192.042969 138.582031 192.691406 138.582031 C 193.269531 138.582031 193.882812 138.949219 194.039062 139.980469 Z M 191.273438 139.980469 "/>
<path fill-rule="nonzero" fill="rgb(0%, 0%, 0%)" fill-opacity="1" d="M 199.46875 139.824219 C 199.46875 138.6875 198.644531 137.898438 197.613281 137.898438 C 196.894531 137.898438 196.386719 138.074219 195.863281 138.371094 L 195.933594 139.105469 C 196.511719 138.703125 197.070312 138.566406 197.613281 138.566406 C 198.136719 138.566406 198.59375 139.003906 198.59375 139.824219 L 198.59375 140.3125 C 196.914062 140.332031 195.496094 140.804688 195.496094 141.785156 C 195.496094 142.253906 195.792969 143.164062 196.773438 143.164062 C 196.929688 143.164062 197.980469 143.148438 198.628906 142.640625 L 198.628906 143.042969 L 199.46875 143.042969 Z M 198.59375 141.574219 C 198.59375 141.785156 198.59375 142.0625 198.207031 142.273438 C 197.894531 142.464844 197.457031 142.484375 197.332031 142.484375 C 196.808594 142.484375 196.300781 142.222656 196.300781 141.765625 C 196.300781 140.980469 198.101562 140.910156 198.59375 140.875 Z M 198.59375 141.574219 "/>
<path fill-rule="nonzero" fill="rgb(0%, 0%, 0%)" fill-opacity="1" d="M 201.804688 140.644531 C 201.804688 139.542969 202.609375 138.738281 203.710938 138.703125 L 203.710938 137.96875 C 202.714844 137.96875 202.101562 138.53125 201.753906 139.035156 L 201.753906 138.023438 L 200.964844 138.023438 L 200.964844 143.042969 L 201.804688 143.042969 Z M 201.804688 140.644531 "/>
<path fill-rule="nonzero" fill="rgb(0%, 0%, 0%)" fill-opacity="1" d="M 208.730469 139.71875 C 208.730469 138.984375 208.554688 137.96875 207.191406 137.96875 C 206.191406 137.96875 205.632812 138.722656 205.582031 138.808594 L 205.582031 138.023438 L 204.777344 138.023438 L 204.777344 143.042969 L 205.632812 143.042969 L 205.632812 140.3125 C 205.632812 139.578125 205.914062 138.652344 206.769531 138.652344 C 207.835938 138.652344 207.855469 139.4375 207.855469 139.789062 L 207.855469 143.042969 L 208.730469 143.042969 Z M 208.730469 139.71875 "/>
<path fill-rule="nonzero" fill="rgb(0%, 0%, 0%)" fill-opacity="1" d="M 211.449219 135.449219 L 210.449219 135.449219 L 210.449219 136.449219 L 211.449219 136.449219 Z M 211.378906 138.09375 L 210.539062 138.09375 L 210.539062 143.042969 L 211.378906 143.042969 Z M 211.378906 138.09375 "/>
<path fill-rule="nonzero" fill="rgb(0%, 0%, 0%)" fill-opacity="1" d="M 217.15625 139.71875 C 217.15625 138.984375 216.980469 137.96875 215.617188 137.96875 C 214.621094 137.96875 214.058594 138.722656 214.007812 138.808594 L 214.007812 138.023438 L 213.203125 138.023438 L 213.203125 143.042969 L 214.058594 143.042969 L 214.058594 140.3125 C 214.058594 139.578125 214.339844 138.652344 215.195312 138.652344 C 216.265625 138.652344 216.28125 139.4375 216.28125 139.789062 L 216.28125 143.042969 L 217.15625 143.042969 Z M 217.15625 139.71875 "/>
<path fill-rule="nonzero" fill="rgb(0%, 0%, 0%)" fill-opacity="1" d="M 221.992188 138.6875 C 222.238281 138.6875 222.535156 138.632812 222.816406 138.632812 C 223.007812 138.632812 223.445312 138.667969 223.460938 138.667969 L 223.339844 137.96875 C 222.570312 137.96875 221.921875 138.179688 221.589844 138.320312 C 221.34375 138.128906 220.976562 137.96875 220.523438 137.96875 C 219.5625 137.96875 218.757812 138.773438 218.757812 139.789062 C 218.757812 140.191406 218.894531 140.59375 219.125 140.890625 C 218.792969 141.347656 218.792969 141.785156 218.792969 141.835938 C 218.792969 142.132812 218.894531 142.449219 219.089844 142.691406 C 218.511719 143.023438 218.371094 143.550781 218.371094 143.828125 C 218.371094 144.667969 219.472656 145.335938 220.839844 145.335938 C 222.203125 145.335938 223.304688 144.6875 223.304688 143.828125 C 223.304688 142.273438 221.449219 142.273438 221.011719 142.273438 L 220.035156 142.273438 C 219.894531 142.273438 219.386719 142.273438 219.386719 141.679688 C 219.386719 141.554688 219.421875 141.382812 219.507812 141.277344 C 219.734375 141.449219 220.101562 141.609375 220.523438 141.609375 C 221.519531 141.609375 222.308594 140.769531 222.308594 139.789062 C 222.308594 139.246094 222.0625 138.828125 221.941406 138.667969 Z M 220.523438 140.960938 C 220.101562 140.960938 219.527344 140.714844 219.527344 139.789062 C 219.527344 138.863281 220.101562 138.601562 220.523438 138.601562 C 220.996094 138.601562 221.519531 138.914062 221.519531 139.789062 C 221.519531 140.644531 220.996094 140.960938 220.523438 140.960938 Z M 221.03125 143.078125 C 221.277344 143.078125 222.535156 143.078125 222.535156 143.847656 C 222.535156 144.335938 221.765625 144.703125 220.855469 144.703125 C 219.945312 144.703125 219.160156 144.355469 219.160156 143.828125 C 219.160156 143.796875 219.160156 143.078125 220.015625 143.078125 Z M 221.03125 143.078125 "/>
<path fill-rule="nonzero" fill="rgb(0%, 0%, 0%)" fill-opacity="1" d="M 56.535156 122.347656 C 55.921875 121.980469 55.292969 121.789062 54.488281 121.789062 C 52.929688 121.789062 51.96875 122.890625 51.96875 123.992188 C 51.96875 124.464844 52.125 124.9375 52.5625 125.410156 C 53.035156 125.917969 53.523438 126.039062 54.191406 126.195312 C 55.132812 126.441406 55.238281 126.476562 55.554688 126.738281 C 55.78125 126.929688 56.027344 127.296875 56.027344 127.789062 C 56.027344 128.523438 55.414062 129.257812 54.398438 129.257812 C 53.945312 129.257812 52.929688 129.152344 52.003906 128.347656 L 51.828125 129.257812 C 52.808594 129.871094 53.699219 130.027344 54.398438 130.027344 C 55.886719 130.027344 56.902344 128.90625 56.902344 127.664062 C 56.902344 126.949219 56.570312 126.40625 56.324219 126.144531 C 55.800781 125.582031 55.429688 125.480469 54.398438 125.234375 C 53.753906 125.078125 53.578125 125.023438 53.226562 124.742188 C 53.15625 124.675781 52.84375 124.339844 52.84375 123.851562 C 52.84375 123.203125 53.453125 122.523438 54.46875 122.523438 C 55.414062 122.523438 55.9375 122.890625 56.359375 123.238281 Z M 56.535156 122.347656 "/>
<path fill-rule="nonzero" fill="rgb(0%, 0%, 0%)" fill-opacity="1" d="M 62.398438 124.832031 L 61.523438 124.832031 L 61.523438 128.066406 C 61.523438 128.90625 60.894531 129.292969 60.175781 129.292969 C 59.390625 129.292969 59.300781 128.996094 59.300781 128.523438 L 59.300781 124.832031 L 58.445312 124.832031 L 58.445312 128.558594 C 58.445312 129.363281 58.6875 129.90625 59.617188 129.90625 C 60.210938 129.90625 61 129.730469 61.558594 129.238281 L 61.558594 129.78125 L 62.398438 129.78125 Z M 62.398438 124.832031 "/>
<path fill-rule="nonzero" fill="rgb(0%, 0%, 0%)" fill-opacity="1" d="M 65.082031 129.273438 C 65.433594 129.589844 65.921875 129.90625 66.585938 129.90625 C 67.671875 129.90625 68.652344 128.800781 68.652344 127.296875 C 68.652344 125.949219 67.953125 124.710938 66.882812 124.710938 C 66.21875 124.710938 65.574219 124.9375 65.046875 125.375 L 65.046875 124.832031 L 64.207031 124.832031 L 64.207031 131.949219 L 65.082031 131.949219 Z M 65.082031 126.074219 C 65.34375 125.671875 65.78125 125.425781 66.273438 125.425781 C 67.113281 125.425781 67.777344 126.265625 67.777344 127.296875 C 67.777344 128.433594 66.988281 129.222656 66.148438 129.222656 C 65.710938 129.222656 65.414062 128.996094 65.1875 128.699219 C 65.082031 128.539062 65.082031 128.503906 65.082031 128.3125 Z M 65.082031 126.074219 "/>
<path fill-rule="nonzero" fill="rgb(0%, 0%, 0%)" fill-opacity="1" d="M 73.992188 127.332031 C 73.992188 126.964844 73.976562 126.125 73.554688 125.445312 C 73.082031 124.761719 72.417969 124.640625 72.015625 124.640625 C 70.773438 124.640625 69.757812 125.828125 69.757812 127.261719 C 69.757812 128.730469 70.84375 129.90625 72.171875 129.90625 C 72.871094 129.90625 73.519531 129.640625 73.957031 129.328125 L 73.886719 128.59375 C 73.1875 129.1875 72.433594 129.222656 72.191406 129.222656 C 71.296875 129.222656 70.582031 128.433594 70.546875 127.332031 Z M 70.597656 126.722656 C 70.773438 125.882812 71.367188 125.320312 72.015625 125.320312 C 72.59375 125.320312 73.203125 125.6875 73.363281 126.722656 Z M 70.597656 126.722656 "/>
<path fill-rule="nonzero" fill="rgb(0%, 0%, 0%)" fill-opacity="1" d="M 76.078125 127.386719 C 76.078125 126.285156 76.882812 125.480469 77.988281 125.445312 L 77.988281 124.710938 C 76.988281 124.710938 76.378906 125.269531 76.027344 125.777344 L 76.027344 124.761719 L 75.238281 124.761719 L 75.238281 129.78125 L 76.078125 129.78125 Z M 76.078125 127.386719 "/>
<path fill-rule="nonzero" fill="rgb(0%, 0%, 0%)" fill-opacity="1" d="M 83.125 124.832031 L 82.285156 124.832031 L 81.394531 127.140625 C 81.167969 127.769531 80.816406 128.664062 80.730469 129.1875 L 80.710938 129.1875 C 80.660156 128.785156 80.363281 128.015625 80.257812 127.71875 L 79.171875 124.832031 L 78.296875 124.832031 L 80.222656 129.78125 L 81.203125 129.78125 Z M 83.125 124.832031 "/>
<path fill-rule="nonzero" fill="rgb(0%, 0%, 0%)" fill-opacity="1" d="M 85.105469 122.191406 L 84.105469 122.191406 L 84.105469 123.1875 L 85.105469 123.1875 Z M 85.035156 124.832031 L 84.195312 124.832031 L 84.195312 129.78125 L 85.035156 129.78125 Z M 85.035156 124.832031 "/>
<path fill-rule="nonzero" fill="rgb(0%, 0%, 0%)" fill-opacity="1" d="M 89.78125 124.988281 C 89.203125 124.726562 88.746094 124.640625 88.171875 124.640625 C 87.890625 124.640625 86.316406 124.640625 86.316406 126.089844 C 86.316406 126.652344 86.648438 127 86.929688 127.210938 C 87.261719 127.457031 87.503906 127.507812 88.117188 127.628906 C 88.519531 127.699219 89.167969 127.839844 89.167969 128.433594 C 89.167969 129.203125 88.292969 129.203125 88.117188 129.203125 C 87.226562 129.203125 86.597656 128.785156 86.402344 128.664062 L 86.265625 129.414062 C 86.613281 129.589844 87.226562 129.90625 88.136719 129.90625 C 88.34375 129.90625 88.957031 129.90625 89.429688 129.554688 C 89.78125 129.273438 89.972656 128.835938 89.972656 128.347656 C 89.972656 127.734375 89.550781 127.367188 89.535156 127.332031 C 89.097656 126.929688 88.800781 126.859375 88.242188 126.773438 C 87.628906 126.652344 87.105469 126.527344 87.105469 125.984375 C 87.105469 125.304688 87.90625 125.304688 88.066406 125.304688 C 88.414062 125.304688 89.011719 125.339844 89.640625 125.722656 Z M 89.78125 124.988281 "/>
<path fill-rule="nonzero" fill="rgb(0%, 0%, 0%)" fill-opacity="1" d="M 94.84375 127.332031 C 94.84375 126.964844 94.824219 126.125 94.40625 125.445312 C 93.933594 124.761719 93.269531 124.640625 92.867188 124.640625 C 91.625 124.640625 90.609375 125.828125 90.609375 127.261719 C 90.609375 128.730469 91.695312 129.90625 93.023438 129.90625 C 93.722656 129.90625 94.371094 129.640625 94.808594 129.328125 L 94.738281 128.59375 C 94.039062 129.1875 93.285156 129.222656 93.039062 129.222656 C 92.148438 129.222656 91.429688 128.433594 91.398438 127.332031 Z M 91.449219 126.722656 C 91.625 125.882812 92.21875 125.320312 92.867188 125.320312 C 93.441406 125.320312 94.054688 125.6875 94.214844 126.722656 Z M 91.449219 126.722656 "/>
<path fill-rule="nonzero" fill="rgb(0%, 0%, 0%)" fill-opacity="1" d="M 100.027344 122.03125 L 99.1875 122.03125 L 99.1875 125.320312 C 98.59375 124.832031 97.980469 124.710938 97.558594 124.710938 C 96.457031 124.710938 95.582031 125.863281 95.582031 127.296875 C 95.582031 128.765625 96.441406 129.90625 97.507812 129.90625 C 97.875 129.90625 98.523438 129.800781 99.152344 129.203125 L 99.152344 129.78125 L 100.027344 129.78125 Z M 99.152344 128.226562 C 99.152344 128.382812 99.132812 128.59375 98.785156 128.90625 C 98.523438 129.132812 98.242188 129.222656 97.960938 129.222656 C 97.261719 129.222656 96.457031 128.699219 96.457031 127.316406 C 96.457031 125.847656 97.417969 125.390625 98.066406 125.390625 C 98.574219 125.390625 98.90625 125.636719 99.152344 126.003906 Z M 99.152344 128.226562 "/>
<path fill-rule="nonzero" fill="rgb(0%, 0%, 0%)" fill-opacity="1" d="M 58.925781 135.417969 L 59.765625 135.417969 L 59.765625 143.167969 L 58.925781 143.167969 Z M 58.925781 135.417969 "/>
<path fill-rule="nonzero" fill="rgb(0%, 0%, 0%)" fill-opacity="1" d="M 65.296875 140.71875 C 65.296875 140.351562 65.28125 139.511719 64.859375 138.828125 C 64.386719 138.144531 63.722656 138.023438 63.320312 138.023438 C 62.078125 138.023438 61.066406 139.210938 61.066406 140.648438 C 61.066406 142.117188 62.148438 143.289062 63.480469 143.289062 C 64.179688 143.289062 64.824219 143.027344 65.261719 142.710938 L 65.191406 141.976562 C 64.492188 142.570312 63.742188 142.605469 63.496094 142.605469 C 62.605469 142.605469 61.886719 141.820312 61.851562 140.71875 Z M 61.902344 140.105469 C 62.078125 139.265625 62.675781 138.707031 63.320312 138.707031 C 63.898438 138.707031 64.511719 139.074219 64.667969 140.105469 Z M 61.902344 140.105469 "/>
<path fill-rule="nonzero" fill="rgb(0%, 0%, 0%)" fill-opacity="1" d="M 70.097656 139.949219 C 70.097656 138.808594 69.273438 138.023438 68.242188 138.023438 C 67.523438 138.023438 67.019531 138.199219 66.492188 138.496094 L 66.5625 139.230469 C 67.140625 138.828125 67.699219 138.6875 68.242188 138.6875 C 68.765625 138.6875 69.222656 139.125 69.222656 139.949219 L 69.222656 140.4375 C 67.542969 140.453125 66.125 140.925781 66.125 141.90625 C 66.125 142.378906 66.421875 143.289062 67.402344 143.289062 C 67.558594 143.289062 68.609375 143.269531 69.257812 142.765625 L 69.257812 143.167969 L 70.097656 143.167969 Z M 69.222656 141.695312 C 69.222656 141.90625 69.222656 142.1875 68.835938 142.394531 C 68.523438 142.589844 68.085938 142.605469 67.960938 142.605469 C 67.4375 142.605469 66.929688 142.34375 66.929688 141.890625 C 66.929688 141.101562 68.730469 141.03125 69.222656 140.996094 Z M 69.222656 141.695312 "/>
<path fill-rule="nonzero" fill="rgb(0%, 0%, 0%)" fill-opacity="1" d="M 72.433594 140.769531 C 72.433594 139.667969 73.238281 138.863281 74.339844 138.828125 L 74.339844 138.09375 C 73.34375 138.09375 72.730469 138.652344 72.382812 139.160156 L 72.382812 138.144531 L 71.59375 138.144531 L 71.59375 143.167969 L 72.433594 143.167969 Z M 72.433594 140.769531 "/>
<path fill-rule="nonzero" fill="rgb(0%, 0%, 0%)" fill-opacity="1" d="M 79.359375 139.84375 C 79.359375 139.109375 79.183594 138.09375 77.820312 138.09375 C 76.824219 138.09375 76.261719 138.84375 76.210938 138.933594 L 76.210938 138.144531 L 75.40625 138.144531 L 75.40625 143.167969 L 76.261719 143.167969 L 76.261719 140.4375 C 76.261719 139.703125 76.542969 138.777344 77.398438 138.777344 C 78.46875 138.777344 78.484375 139.5625 78.484375 139.914062 L 78.484375 143.167969 L 79.359375 143.167969 Z M 79.359375 139.84375 "/>
<path fill-rule="nonzero" fill="rgb(0%, 0%, 0%)" fill-opacity="1" d="M 82.078125 135.574219 L 81.082031 135.574219 L 81.082031 136.570312 L 82.078125 136.570312 Z M 82.007812 138.214844 L 81.167969 138.214844 L 81.167969 143.167969 L 82.007812 143.167969 Z M 82.007812 138.214844 "/>
<path fill-rule="nonzero" fill="rgb(0%, 0%, 0%)" fill-opacity="1" d="M 87.785156 139.84375 C 87.785156 139.109375 87.609375 138.09375 86.246094 138.09375 C 85.25 138.09375 84.691406 138.84375 84.636719 138.933594 L 84.636719 138.144531 L 83.832031 138.144531 L 83.832031 143.167969 L 84.691406 143.167969 L 84.691406 140.4375 C 84.691406 139.703125 84.96875 138.777344 85.828125 138.777344 C 86.894531 138.777344 86.910156 139.5625 86.910156 139.914062 L 86.910156 143.167969 L 87.785156 143.167969 Z M 87.785156 139.84375 "/>
<path fill-rule="nonzero" fill="rgb(0%, 0%, 0%)" fill-opacity="1" d="M 92.621094 138.808594 C 92.867188 138.808594 93.164062 138.757812 93.445312 138.757812 C 93.636719 138.757812 94.074219 138.792969 94.089844 138.792969 L 93.96875 138.09375 C 93.199219 138.09375 92.550781 138.304688 92.21875 138.441406 C 91.976562 138.25 91.609375 138.09375 91.152344 138.09375 C 90.191406 138.09375 89.386719 138.898438 89.386719 139.914062 C 89.386719 140.316406 89.527344 140.71875 89.753906 141.015625 C 89.421875 141.46875 89.421875 141.90625 89.421875 141.960938 C 89.421875 142.257812 89.527344 142.570312 89.71875 142.816406 C 89.140625 143.148438 89 143.671875 89 143.953125 C 89 144.792969 90.101562 145.457031 91.46875 145.457031 C 92.832031 145.457031 93.933594 144.808594 93.933594 143.953125 C 93.933594 142.394531 92.078125 142.394531 91.640625 142.394531 L 90.664062 142.394531 C 90.523438 142.394531 90.015625 142.394531 90.015625 141.800781 C 90.015625 141.679688 90.050781 141.503906 90.136719 141.398438 C 90.367188 141.574219 90.734375 141.730469 91.152344 141.730469 C 92.148438 141.730469 92.9375 140.890625 92.9375 139.914062 C 92.9375 139.371094 92.691406 138.949219 92.570312 138.792969 Z M 91.152344 141.085938 C 90.734375 141.085938 90.15625 140.839844 90.15625 139.914062 C 90.15625 138.984375 90.734375 138.722656 91.152344 138.722656 C 91.625 138.722656 92.148438 139.039062 92.148438 139.914062 C 92.148438 140.769531 91.625 141.085938 91.152344 141.085938 Z M 91.660156 143.199219 C 91.90625 143.199219 93.164062 143.199219 93.164062 143.972656 C 93.164062 144.460938 92.394531 144.828125 91.484375 144.828125 C 90.574219 144.828125 89.789062 144.476562 89.789062 143.953125 C 89.789062 143.917969 89.789062 143.199219 90.644531 143.199219 Z M 91.660156 143.199219 "/>
<path fill-rule="nonzero" fill="rgb(62.744141%, 85.096741%, 82.743835%)" fill-opacity="1" stroke-width="0.751178" stroke-linecap="butt" stroke-linejoin="miter" stroke="rgb(0%, 0%, 0%)" stroke-opacity="1" stroke-miterlimit="4" d="M 297.402344 116.152344 L 373.046875 116.152344 C 386.578125 116.152344 397.46875 127.046875 397.46875 140.574219 L 397.46875 239.699219 C 397.46875 253.226562 386.578125 264.117188 373.046875 264.117188 L 297.402344 264.117188 C 283.875 264.117188 272.980469 253.226562 272.980469 239.699219 L 272.980469 140.574219 C 272.980469 127.046875 283.875 116.152344 297.402344 116.152344 Z M 297.402344 116.152344 "/>
<path fill-rule="nonzero" fill="rgb(0%, 0%, 0%)" fill-opacity="1" d="M 308.296875 126.082031 C 309.449219 125.75 310.203125 124.964844 310.203125 124.054688 C 310.203125 122.953125 308.976562 121.972656 307.386719 121.972656 L 304.691406 121.972656 L 304.691406 129.722656 L 305.65625 129.722656 L 305.65625 126.1875 L 307.421875 126.1875 L 309.519531 129.722656 L 310.515625 129.722656 Z M 305.65625 125.503906 L 305.65625 122.601562 L 307.265625 122.601562 C 308.558594 122.601562 309.292969 123.265625 309.292969 124.054688 C 309.292969 124.839844 308.574219 125.503906 307.265625 125.503906 Z M 305.65625 125.503906 "/>
<path fill-rule="nonzero" fill="rgb(0%, 0%, 0%)" fill-opacity="1" d="M 315.445312 127.273438 C 315.445312 126.90625 315.429688 126.066406 315.007812 125.382812 C 314.535156 124.699219 313.871094 124.578125 313.46875 124.578125 C 312.226562 124.578125 311.214844 125.769531 311.214844 127.203125 C 311.214844 128.671875 312.296875 129.84375 313.628906 129.84375 C 314.328125 129.84375 314.972656 129.582031 315.410156 129.265625 L 315.339844 128.53125 C 314.640625 129.125 313.890625 129.160156 313.644531 129.160156 C 312.753906 129.160156 312.035156 128.375 312 127.273438 Z M 312.054688 126.660156 C 312.226562 125.820312 312.824219 125.261719 313.46875 125.261719 C 314.046875 125.261719 314.660156 125.628906 314.816406 126.660156 Z M 312.054688 126.660156 "/>
<path fill-rule="nonzero" fill="rgb(0%, 0%, 0%)" fill-opacity="1" d="M 317.605469 122.128906 L 316.605469 122.128906 L 316.605469 123.125 L 317.605469 123.125 Z M 317.535156 124.769531 L 316.695312 124.769531 L 316.695312 129.722656 L 317.535156 129.722656 Z M 317.535156 124.769531 "/>
<path fill-rule="nonzero" fill="rgb(0%, 0%, 0%)" fill-opacity="1" d="M 323.3125 126.398438 C 323.3125 125.664062 323.136719 124.648438 321.773438 124.648438 C 320.777344 124.648438 320.214844 125.402344 320.164062 125.488281 L 320.164062 124.699219 L 319.359375 124.699219 L 319.359375 129.722656 L 320.214844 129.722656 L 320.214844 126.992188 C 320.214844 126.257812 320.496094 125.332031 321.351562 125.332031 C 322.421875 125.332031 322.4375 126.117188 322.4375 126.46875 L 322.4375 129.722656 L 323.3125 129.722656 Z M 323.3125 126.398438 "/>
<path fill-rule="nonzero" fill="rgb(0%, 0%, 0%)" fill-opacity="1" d="M 326.171875 125.417969 L 327.394531 125.417969 L 327.394531 124.769531 L 326.136719 124.769531 L 326.136719 123.441406 C 326.136719 122.617188 326.890625 122.53125 327.1875 122.53125 C 327.394531 122.53125 327.710938 122.550781 328.078125 122.722656 L 328.078125 121.972656 C 327.957031 121.9375 327.605469 121.847656 327.1875 121.847656 C 326.136719 121.847656 325.332031 122.652344 325.332031 123.757812 L 325.332031 124.769531 L 324.511719 124.769531 L 324.511719 125.417969 L 325.332031 125.417969 L 325.332031 129.722656 L 326.171875 129.722656 Z M 326.171875 125.417969 "/>
<path fill-rule="nonzero" fill="rgb(0%, 0%, 0%)" fill-opacity="1" d="M 332.851562 127.273438 C 332.851562 125.769531 331.734375 124.578125 330.421875 124.578125 C 329.039062 124.578125 327.953125 125.804688 327.953125 127.273438 C 327.953125 128.742188 329.089844 129.84375 330.402344 129.84375 C 331.734375 129.84375 332.851562 128.722656 332.851562 127.273438 Z M 330.402344 129.125 C 329.632812 129.125 328.828125 128.496094 328.828125 127.148438 C 328.828125 125.804688 329.667969 125.261719 330.402344 125.261719 C 331.191406 125.261719 331.976562 125.835938 331.976562 127.148438 C 331.976562 128.480469 331.226562 129.125 330.402344 129.125 Z M 330.402344 129.125 "/>
<path fill-rule="nonzero" fill="rgb(0%, 0%, 0%)" fill-opacity="1" d="M 334.636719 127.324219 C 334.636719 126.222656 335.441406 125.417969 336.542969 125.382812 L 336.542969 124.648438 C 335.542969 124.648438 334.933594 125.207031 334.582031 125.714844 L 334.582031 124.699219 L 333.796875 124.699219 L 333.796875 129.722656 L 334.636719 129.722656 Z M 334.636719 127.324219 "/>
<path fill-rule="nonzero" fill="rgb(0%, 0%, 0%)" fill-opacity="1" d="M 341.28125 125.050781 C 340.613281 124.683594 340.230469 124.578125 339.546875 124.578125 C 338.007812 124.578125 337.097656 125.925781 337.097656 127.238281 C 337.097656 128.621094 338.113281 129.84375 339.511719 129.84375 C 340.109375 129.84375 340.71875 129.6875 341.332031 129.265625 L 341.261719 128.53125 C 340.683594 128.96875 340.089844 129.125 339.511719 129.125 C 338.585938 129.125 337.972656 128.320312 337.972656 127.238281 C 337.972656 126.363281 338.375 125.296875 339.566406 125.296875 C 340.144531 125.296875 340.527344 125.382812 341.140625 125.785156 Z M 341.28125 125.050781 "/>
<path fill-rule="nonzero" fill="rgb(0%, 0%, 0%)" fill-opacity="1" d="M 346.269531 127.273438 C 346.269531 126.90625 346.253906 126.066406 345.832031 125.382812 C 345.363281 124.699219 344.695312 124.578125 344.292969 124.578125 C 343.050781 124.578125 342.039062 125.769531 342.039062 127.203125 C 342.039062 128.671875 343.121094 129.84375 344.453125 129.84375 C 345.152344 129.84375 345.796875 129.582031 346.234375 129.265625 L 346.167969 128.53125 C 345.464844 129.125 344.714844 129.160156 344.46875 129.160156 C 343.578125 129.160156 342.859375 128.375 342.824219 127.273438 Z M 342.878906 126.660156 C 343.050781 125.820312 343.648438 125.261719 344.292969 125.261719 C 344.871094 125.261719 345.484375 125.628906 345.640625 126.660156 Z M 342.878906 126.660156 "/>
<path fill-rule="nonzero" fill="rgb(0%, 0%, 0%)" fill-opacity="1" d="M 354.570312 126.398438 C 354.570312 125.644531 354.394531 124.648438 353.03125 124.648438 C 352.367188 124.648438 351.789062 124.964844 351.367188 125.558594 C 351.089844 124.71875 350.300781 124.648438 349.953125 124.648438 C 349.148438 124.648438 348.621094 125.101562 348.324219 125.503906 L 348.324219 124.699219 L 347.519531 124.699219 L 347.519531 129.722656 L 348.378906 129.722656 L 348.378906 126.992188 C 348.378906 126.222656 348.691406 125.332031 349.515625 125.332031 C 350.546875 125.332031 350.597656 126.046875 350.597656 126.46875 L 350.597656 129.722656 L 351.472656 129.722656 L 351.472656 126.992188 C 351.472656 126.222656 351.769531 125.332031 352.609375 125.332031 C 353.640625 125.332031 353.695312 126.046875 353.695312 126.46875 L 353.695312 129.722656 L 354.570312 129.722656 Z M 354.570312 126.398438 "/>
<path fill-rule="nonzero" fill="rgb(0%, 0%, 0%)" fill-opacity="1" d="M 360.089844 127.273438 C 360.089844 126.90625 360.070312 126.066406 359.652344 125.382812 C 359.179688 124.699219 358.515625 124.578125 358.113281 124.578125 C 356.871094 124.578125 355.855469 125.769531 355.855469 127.203125 C 355.855469 128.671875 356.941406 129.84375 358.269531 129.84375 C 358.96875 129.84375 359.617188 129.582031 360.054688 129.265625 L 359.984375 128.53125 C 359.285156 129.125 358.53125 129.160156 358.285156 129.160156 C 357.394531 129.160156 356.675781 128.375 356.640625 127.273438 Z M 356.695312 126.660156 C 356.871094 125.820312 357.464844 125.261719 358.113281 125.261719 C 358.6875 125.261719 359.300781 125.628906 359.457031 126.660156 Z M 356.695312 126.660156 "/>
<path fill-rule="nonzero" fill="rgb(0%, 0%, 0%)" fill-opacity="1" d="M 365.289062 126.398438 C 365.289062 125.664062 365.117188 124.648438 363.75 124.648438 C 362.753906 124.648438 362.195312 125.402344 362.140625 125.488281 L 362.140625 124.699219 L 361.335938 124.699219 L 361.335938 129.722656 L 362.195312 129.722656 L 362.195312 126.992188 C 362.195312 126.257812 362.472656 125.332031 363.332031 125.332031 C 364.398438 125.332031 364.417969 126.117188 364.417969 126.46875 L 364.417969 129.722656 L 365.289062 129.722656 Z M 365.289062 126.398438 "/>
<path fill-rule="nonzero" fill="rgb(0%, 0%, 0%)" fill-opacity="1" d="M 368.148438 125.417969 L 369.722656 125.417969 L 369.722656 124.769531 L 368.148438 124.769531 L 368.148438 123.355469 L 367.378906 123.355469 L 367.378906 124.769531 L 366.398438 124.769531 L 366.398438 125.417969 L 367.34375 125.417969 L 367.34375 128.390625 C 367.34375 129.054688 367.5 129.84375 368.273438 129.84375 C 369.042969 129.84375 369.617188 129.5625 369.898438 129.421875 L 369.722656 128.757812 C 369.425781 129.003906 369.078125 129.125 368.707031 129.125 C 368.304688 129.125 368.148438 128.792969 368.148438 128.199219 Z M 368.148438 125.417969 "/>
<path fill-rule="nonzero" fill="rgb(0%, 0%, 0%)" fill-opacity="1" d="M 319.710938 135.355469 L 320.550781 135.355469 L 320.550781 143.105469 L 319.710938 143.105469 Z M 319.710938 135.355469 "/>
<path fill-rule="nonzero" fill="rgb(0%, 0%, 0%)" fill-opacity="1" d="M 326.082031 140.65625 C 326.082031 140.289062 326.066406 139.449219 325.644531 138.765625 C 325.171875 138.085938 324.507812 137.960938 324.105469 137.960938 C 322.863281 137.960938 321.847656 139.152344 321.847656 140.585938 C 321.847656 142.054688 322.933594 143.226562 324.261719 143.226562 C 324.960938 143.226562 325.609375 142.964844 326.046875 142.652344 L 325.976562 141.914062 C 325.277344 142.511719 324.523438 142.546875 324.28125 142.546875 C 323.386719 142.546875 322.671875 141.757812 322.636719 140.65625 Z M 322.6875 140.042969 C 322.863281 139.203125 323.457031 138.644531 324.105469 138.644531 C 324.683594 138.644531 325.296875 139.011719 325.453125 140.042969 Z M 322.6875 140.042969 "/>
<path fill-rule="nonzero" fill="rgb(0%, 0%, 0%)" fill-opacity="1" d="M 330.882812 139.886719 C 330.882812 138.75 330.058594 137.960938 329.027344 137.960938 C 328.308594 137.960938 327.800781 138.136719 327.277344 138.433594 L 327.347656 139.167969 C 327.925781 138.765625 328.484375 138.628906 329.027344 138.628906 C 329.550781 138.628906 330.007812 139.066406 330.007812 139.886719 L 330.007812 140.375 C 328.328125 140.394531 326.910156 140.867188 326.910156 141.847656 C 326.910156 142.316406 327.207031 143.226562 328.1875 143.226562 C 328.34375 143.226562 329.394531 143.210938 330.042969 142.703125 L 330.042969 143.105469 L 330.882812 143.105469 Z M 330.007812 141.636719 C 330.007812 141.847656 330.007812 142.125 329.621094 142.335938 C 329.308594 142.527344 328.871094 142.546875 328.746094 142.546875 C 328.222656 142.546875 327.714844 142.285156 327.714844 141.828125 C 327.714844 141.042969 329.515625 140.972656 330.007812 140.9375 Z M 330.007812 141.636719 "/>
<path fill-rule="nonzero" fill="rgb(0%, 0%, 0%)" fill-opacity="1" d="M 333.21875 140.707031 C 333.21875 139.605469 334.023438 138.800781 335.125 138.765625 L 335.125 138.03125 C 334.128906 138.03125 333.515625 138.59375 333.167969 139.097656 L 333.167969 138.085938 L 332.378906 138.085938 L 332.378906 143.105469 L 333.21875 143.105469 Z M 333.21875 140.707031 "/>
<path fill-rule="nonzero" fill="rgb(0%, 0%, 0%)" fill-opacity="1" d="M 340.144531 139.78125 C 340.144531 139.046875 339.96875 138.03125 338.605469 138.03125 C 337.605469 138.03125 337.046875 138.785156 336.996094 138.871094 L 336.996094 138.085938 L 336.191406 138.085938 L 336.191406 143.105469 L 337.046875 143.105469 L 337.046875 140.375 C 337.046875 139.640625 337.328125 138.714844 338.183594 138.714844 C 339.25 138.714844 339.269531 139.5 339.269531 139.851562 L 339.269531 143.105469 L 340.144531 143.105469 Z M 340.144531 139.78125 "/>
<path fill-rule="nonzero" fill="rgb(0%, 0%, 0%)" fill-opacity="1" d="M 342.863281 135.511719 L 341.863281 135.511719 L 341.863281 136.511719 L 342.863281 136.511719 Z M 342.792969 138.15625 L 341.953125 138.15625 L 341.953125 143.105469 L 342.792969 143.105469 Z M 342.792969 138.15625 "/>
<path fill-rule="nonzero" fill="rgb(0%, 0%, 0%)" fill-opacity="1" d="M 348.570312 139.78125 C 348.570312 139.046875 348.394531 138.03125 347.03125 138.03125 C 346.035156 138.03125 345.472656 138.785156 345.421875 138.871094 L 345.421875 138.085938 L 344.617188 138.085938 L 344.617188 143.105469 L 345.472656 143.105469 L 345.472656 140.375 C 345.472656 139.640625 345.753906 138.714844 346.609375 138.714844 C 347.679688 138.714844 347.695312 139.5 347.695312 139.851562 L 347.695312 143.105469 L 348.570312 143.105469 Z M 348.570312 139.78125 "/>
<path fill-rule="nonzero" fill="rgb(0%, 0%, 0%)" fill-opacity="1" d="M 353.40625 138.75 C 353.652344 138.75 353.949219 138.695312 354.230469 138.695312 C 354.421875 138.695312 354.859375 138.730469 354.875 138.730469 L 354.753906 138.03125 C 353.984375 138.03125 353.335938 138.242188 353.003906 138.382812 C 352.757812 138.191406 352.390625 138.03125 351.9375 138.03125 C 350.976562 138.03125 350.171875 138.835938 350.171875 139.851562 C 350.171875 140.253906 350.308594 140.65625 350.539062 140.953125 C 350.207031 141.410156 350.207031 141.847656 350.207031 141.898438 C 350.207031 142.195312 350.308594 142.511719 350.503906 142.753906 C 349.925781 143.085938 349.785156 143.613281 349.785156 143.890625 C 349.785156 144.730469 350.886719 145.398438 352.253906 145.398438 C 353.617188 145.398438 354.71875 144.75 354.71875 143.890625 C 354.71875 142.335938 352.863281 142.335938 352.425781 142.335938 L 351.449219 142.335938 C 351.308594 142.335938 350.800781 142.335938 350.800781 141.742188 C 350.800781 141.617188 350.835938 141.445312 350.921875 141.339844 C 351.148438 141.511719 351.515625 141.671875 351.9375 141.671875 C 352.933594 141.671875 353.722656 140.832031 353.722656 139.851562 C 353.722656 139.308594 353.476562 138.890625 353.355469 138.730469 Z M 351.9375 141.023438 C 351.515625 141.023438 350.941406 140.777344 350.941406 139.851562 C 350.941406 138.925781 351.515625 138.664062 351.9375 138.664062 C 352.410156 138.664062 352.933594 138.976562 352.933594 139.851562 C 352.933594 140.707031 352.410156 141.023438 351.9375 141.023438 Z M 352.445312 143.140625 C 352.6875 143.140625 353.949219 143.140625 353.949219 143.910156 C 353.949219 144.398438 353.179688 144.765625 352.269531 144.765625 C 351.359375 144.765625 350.574219 144.417969 350.574219 143.890625 C 350.574219 143.859375 350.574219 143.140625 351.429688 143.140625 Z M 352.445312 143.140625 "/>
<path fill-rule="nonzero" fill="rgb(68.234253%, 76.469421%, 81.175232%)" fill-opacity="0.510121" stroke-width="0.751178" stroke-linecap="butt" stroke-linejoin="miter" stroke="rgb(0%, 0%, 0%)" stroke-opacity="1" stroke-miterlimit="4" d="M 35.609375 186.871094 L 375.542969 186.871094 C 384.828125 186.871094 392.304688 194.347656 392.304688 203.632812 L 392.304688 241.851562 C 392.304688 251.136719 384.828125 258.613281 375.542969 258.613281 L 35.609375 258.613281 C 26.324219 258.613281 18.847656 251.136719 18.847656 241.851562 L 18.847656 203.632812 C 18.847656 194.347656 26.324219 186.871094 35.609375 186.871094 Z M 35.609375 186.871094 "/>
<path fill-rule="nonzero" fill="rgb(0%, 0%, 0%)" fill-opacity="1" d="M 173.785156 190.808594 L 173.785156 198.558594 L 176.722656 198.558594 C 178.632812 198.558594 180.136719 196.863281 180.136719 194.746094 C 180.136719 192.59375 178.632812 190.808594 176.707031 190.808594 Z M 174.746094 197.929688 L 174.746094 191.4375 L 176.460938 191.4375 C 178.019531 191.4375 179.171875 192.785156 179.171875 194.746094 C 179.171875 196.652344 178.019531 197.929688 176.460938 197.929688 Z M 174.746094 197.929688 "/>
<path fill-rule="nonzero" fill="rgb(0%, 0%, 0%)" fill-opacity="1" d="M 185.390625 196.109375 C 185.390625 195.742188 185.375 194.902344 184.953125 194.21875 C 184.480469 193.539062 183.816406 193.414062 183.414062 193.414062 C 182.171875 193.414062 181.160156 194.605469 181.160156 196.039062 C 181.160156 197.507812 182.242188 198.679688 183.574219 198.679688 C 184.273438 198.679688 184.917969 198.417969 185.355469 198.101562 L 185.285156 197.367188 C 184.585938 197.964844 183.835938 198 183.589844 198 C 182.699219 198 181.980469 197.210938 181.945312 196.109375 Z M 181.996094 195.496094 C 182.171875 194.65625 182.769531 194.097656 183.414062 194.097656 C 183.992188 194.097656 184.605469 194.464844 184.761719 195.496094 Z M 181.996094 195.496094 "/>
<path fill-rule="nonzero" fill="rgb(0%, 0%, 0%)" fill-opacity="1" d="M 190.347656 196.109375 C 190.347656 195.742188 190.332031 194.902344 189.910156 194.21875 C 189.4375 193.539062 188.773438 193.414062 188.371094 193.414062 C 187.128906 193.414062 186.113281 194.605469 186.113281 196.039062 C 186.113281 197.507812 187.199219 198.679688 188.527344 198.679688 C 189.226562 198.679688 189.875 198.417969 190.3125 198.101562 L 190.242188 197.367188 C 189.542969 197.964844 188.789062 198 188.546875 198 C 187.652344 198 186.9375 197.210938 186.902344 196.109375 Z M 186.953125 195.496094 C 187.128906 194.65625 187.722656 194.097656 188.371094 194.097656 C 188.949219 194.097656 189.5625 194.464844 189.71875 195.496094 Z M 186.953125 195.496094 "/>
<path fill-rule="nonzero" fill="rgb(0%, 0%, 0%)" fill-opacity="1" d="M 192.472656 198.050781 C 192.820312 198.367188 193.3125 198.679688 193.976562 198.679688 C 195.058594 198.679688 196.039062 197.578125 196.039062 196.074219 C 196.039062 194.726562 195.339844 193.484375 194.273438 193.484375 C 193.609375 193.484375 192.960938 193.710938 192.4375 194.148438 L 192.4375 193.609375 L 191.597656 193.609375 L 191.597656 200.726562 L 192.472656 200.726562 Z M 192.472656 194.851562 C 192.734375 194.449219 193.171875 194.203125 193.660156 194.203125 C 194.5 194.203125 195.164062 195.042969 195.164062 196.074219 C 195.164062 197.210938 194.378906 198 193.539062 198 C 193.101562 198 192.804688 197.769531 192.578125 197.472656 C 192.472656 197.316406 192.472656 197.28125 192.472656 197.089844 Z M 192.472656 194.851562 "/>
<path fill-rule="nonzero" fill="rgb(0%, 0%, 0%)" fill-opacity="1" d="M 201.074219 190.808594 L 201.914062 190.808594 L 201.914062 198.558594 L 201.074219 198.558594 Z M 201.074219 190.808594 "/>
<path fill-rule="nonzero" fill="rgb(0%, 0%, 0%)" fill-opacity="1" d="M 207.445312 196.109375 C 207.445312 195.742188 207.429688 194.902344 207.007812 194.21875 C 206.535156 193.539062 205.871094 193.414062 205.46875 193.414062 C 204.226562 193.414062 203.214844 194.605469 203.214844 196.039062 C 203.214844 197.507812 204.296875 198.679688 205.628906 198.679688 C 206.328125 198.679688 206.972656 198.417969 207.410156 198.101562 L 207.339844 197.367188 C 206.640625 197.964844 205.890625 198 205.644531 198 C 204.753906 198 204.035156 197.210938 204 196.109375 Z M 204.054688 195.496094 C 204.226562 194.65625 204.824219 194.097656 205.46875 194.097656 C 206.046875 194.097656 206.660156 194.464844 206.816406 195.496094 Z M 204.054688 195.496094 "/>
<path fill-rule="nonzero" fill="rgb(0%, 0%, 0%)" fill-opacity="1" d="M 212.246094 195.339844 C 212.246094 194.203125 211.421875 193.414062 210.390625 193.414062 C 209.675781 193.414062 209.167969 193.589844 208.640625 193.886719 L 208.710938 194.621094 C 209.289062 194.21875 209.847656 194.078125 210.390625 194.078125 C 210.914062 194.078125 211.371094 194.515625 211.371094 195.339844 L 211.371094 195.828125 C 209.691406 195.847656 208.273438 196.320312 208.273438 197.296875 C 208.273438 197.769531 208.570312 198.679688 209.550781 198.679688 C 209.707031 198.679688 210.757812 198.664062 211.40625 198.15625 L 211.40625 198.558594 L 212.246094 198.558594 Z M 211.371094 197.089844 C 211.371094 197.296875 211.371094 197.578125 210.984375 197.789062 C 210.671875 197.980469 210.234375 198 210.109375 198 C 209.585938 198 209.078125 197.734375 209.078125 197.28125 C 209.078125 196.492188 210.882812 196.425781 211.371094 196.390625 Z M 211.371094 197.089844 "/>
<path fill-rule="nonzero" fill="rgb(0%, 0%, 0%)" fill-opacity="1" d="M 214.59375 196.160156 C 214.59375 195.058594 215.398438 194.253906 216.5 194.21875 L 216.5 193.484375 C 215.503906 193.484375 214.890625 194.046875 214.539062 194.550781 L 214.539062 193.539062 L 213.753906 193.539062 L 213.753906 198.558594 L 214.59375 198.558594 Z M 214.59375 196.160156 "/>
<path fill-rule="nonzero" fill="rgb(0%, 0%, 0%)" fill-opacity="1" d="M 221.519531 195.234375 C 221.519531 194.5 221.34375 193.484375 219.980469 193.484375 C 218.984375 193.484375 218.421875 194.238281 218.371094 194.324219 L 218.371094 193.539062 L 217.566406 193.539062 L 217.566406 198.558594 L 218.421875 198.558594 L 218.421875 195.828125 C 218.421875 195.09375 218.703125 194.167969 219.558594 194.167969 C 220.625 194.167969 220.644531 194.953125 220.644531 195.304688 L 220.644531 198.558594 L 221.519531 198.558594 Z M 221.519531 195.234375 "/>
<path fill-rule="nonzero" fill="rgb(0%, 0%, 0%)" fill-opacity="1" d="M 224.238281 190.964844 L 223.242188 190.964844 L 223.242188 191.964844 L 224.238281 191.964844 Z M 224.167969 193.609375 L 223.328125 193.609375 L 223.328125 198.558594 L 224.167969 198.558594 Z M 224.167969 193.609375 "/>
<path fill-rule="nonzero" fill="rgb(0%, 0%, 0%)" fill-opacity="1" d="M 229.945312 195.234375 C 229.945312 194.5 229.769531 193.484375 228.40625 193.484375 C 227.410156 193.484375 226.847656 194.238281 226.796875 194.324219 L 226.796875 193.539062 L 225.992188 193.539062 L 225.992188 198.558594 L 226.847656 198.558594 L 226.847656 195.828125 C 226.847656 195.09375 227.128906 194.167969 227.988281 194.167969 C 229.054688 194.167969 229.070312 194.953125 229.070312 195.304688 L 229.070312 198.558594 L 229.945312 198.558594 Z M 229.945312 195.234375 "/>
<path fill-rule="nonzero" fill="rgb(0%, 0%, 0%)" fill-opacity="1" d="M 234.78125 194.203125 C 235.027344 194.203125 235.324219 194.148438 235.605469 194.148438 C 235.796875 194.148438 236.234375 194.183594 236.25 194.183594 L 236.128906 193.484375 C 235.359375 193.484375 234.710938 193.695312 234.378906 193.835938 C 234.136719 193.644531 233.765625 193.484375 233.3125 193.484375 C 232.351562 193.484375 231.546875 194.289062 231.546875 195.304688 C 231.546875 195.707031 231.6875 196.109375 231.914062 196.40625 C 231.582031 196.863281 231.582031 197.296875 231.582031 197.351562 C 231.582031 197.648438 231.6875 197.964844 231.878906 198.207031 C 231.300781 198.539062 231.160156 199.066406 231.160156 199.34375 C 231.160156 200.183594 232.261719 200.851562 233.628906 200.851562 C 234.992188 200.851562 236.09375 200.203125 236.09375 199.34375 C 236.09375 197.789062 234.238281 197.789062 233.800781 197.789062 L 232.824219 197.789062 C 232.683594 197.789062 232.175781 197.789062 232.175781 197.195312 C 232.175781 197.070312 232.210938 196.894531 232.296875 196.792969 C 232.527344 196.964844 232.894531 197.125 233.3125 197.125 C 234.308594 197.125 235.097656 196.285156 235.097656 195.304688 C 235.097656 194.761719 234.851562 194.34375 234.730469 194.183594 Z M 233.3125 196.476562 C 232.894531 196.476562 232.316406 196.230469 232.316406 195.304688 C 232.316406 194.378906 232.894531 194.113281 233.3125 194.113281 C 233.785156 194.113281 234.308594 194.429688 234.308594 195.304688 C 234.308594 196.160156 233.785156 196.476562 233.3125 196.476562 Z M 233.820312 198.59375 C 234.066406 198.59375 235.324219 198.59375 235.324219 199.363281 C 235.324219 199.851562 234.554688 200.21875 233.644531 200.21875 C 232.734375 200.21875 231.949219 199.871094 231.949219 199.34375 C 231.949219 199.308594 231.949219 198.59375 232.804688 198.59375 Z M 233.820312 198.59375 "/>
</svg>
