<?xml version="1.0" encoding="UTF-8"?>
<svg xmlns="http://www.w3.org/2000/svg" xmlns:xlink="http://www.w3.org/1999/xlink" width="189.884293pt" height="127.275238pt" viewBox="0 0 189.884293 127.275238">
<defs>
<clipPath id="clip-0">
<path clip-rule="nonzero" d="M 0 0 L 189.882812 0 L 189.882812 127 L 0 127 Z M 0 0 "/>
</clipPath>
<clipPath id="clip-1">
<path clip-rule="nonzero" d="M 0 0 L 189.882812 0 L 189.882812 127.273438 L 0 127.273438 Z M 0 0 "/>
</clipPath>
<clipPath id="clip-2">
<path clip-rule="nonzero" d="M 0 39 L 189.882812 39 L 189.882812 127.273438 L 0 127.273438 Z M 0 39 "/>
</clipPath>
</defs>
<path fill-rule="nonzero" fill="rgb(62.744141%, 85.096741%, 82.743835%)" fill-opacity="1" stroke-width="0.751178" stroke-linecap="butt" stroke-linejoin="miter" stroke="rgb(0%, 0%, 0%)" stroke-opacity="1" stroke-miterlimit="4" d="M 77.710938 53.820312 L 112.691406 53.820312 C 118.933594 53.820312 123.964844 58.847656 123.964844 65.09375 L 123.964844 109.921875 C 123.964844 116.167969 118.933594 121.195312 112.691406 121.195312 L 77.710938 121.195312 C 71.464844 121.195312 66.4375 116.167969 66.4375 109.921875 L 66.4375 65.09375 C 66.4375 58.847656 71.464844 53.820312 77.710938 53.820312 Z M 77.710938 53.820312 "/>
<path fill-rule="nonzero" fill="rgb(62.744141%, 85.096741%, 82.743835%)" fill-opacity="1" stroke-width="0.751178" stroke-linecap="butt" stroke-linejoin="miter" stroke="rgb(0%, 0%, 0%)" stroke-opacity="1" stroke-miterlimit="4" d="M 137.621094 53.820312 L 172.601562 53.820312 C 178.847656 53.820312 183.875 58.847656 183.875 65.09375 L 183.875 109.921875 C 183.875 116.167969 178.847656 121.195312 172.601562 121.195312 L 137.621094 121.195312 C 131.375 121.195312 126.347656 116.167969 126.347656 109.921875 L 126.347656 65.09375 C 126.347656 58.847656 131.375 53.820312 137.621094 53.820312 Z M 137.621094 53.820312 "/>
<g clip-path="url(#clip-0)">
<path fill-rule="nonzero" fill="rgb(77.645874%, 80.39093%, 81.175232%)" fill-opacity="1" d="M 9.710938 0.375 L 180.175781 0.375 C 185.347656 0.375 189.507812 4.539062 189.507812 9.710938 L 189.507812 117.566406 C 189.507812 122.738281 185.347656 126.898438 180.175781 126.898438 L 9.710938 126.898438 C 4.539062 126.898438 0.375 122.738281 0.375 117.566406 L 0.375 9.710938 C 0.375 4.539062 4.539062 0.375 9.710938 0.375 Z M 9.710938 0.375 "/>
</g>
<g clip-path="url(#clip-1)">
<path fill="none" stroke-width="0.751178" stroke-linecap="butt" stroke-linejoin="miter" stroke="rgb(0%, 0%, 0%)" stroke-opacity="1" stroke-miterlimit="4" d="M 9.710938 0.375 L 180.175781 0.375 C 185.347656 0.375 189.507812 4.539062 189.507812 9.710938 L 189.507812 117.566406 C 189.507812 122.738281 185.347656 126.898438 180.175781 126.898438 L 9.710938 126.898438 C 4.539062 126.898438 0.375 122.738281 0.375 117.566406 L 0.375 9.710938 C 0.375 4.539062 4.539062 0.375 9.710938 0.375 Z M 9.710938 0.375 "/>
</g>
<path fill-rule="nonzero" fill="rgb(81.959534%, 51.371765%, 38.430786%)" fill-opacity="1" d="M 11.15625 43.457031 L 179.027344 43.457031 C 183.121094 43.457031 186.421875 46.753906 186.421875 50.851562 L 186.421875 116.234375 C 186.421875 120.332031 183.121094 123.628906 179.027344 123.628906 L 11.15625 123.628906 C 7.058594 123.628906 3.761719 120.332031 3.761719 116.234375 L 3.761719 50.851562 C 3.761719 46.753906 7.058594 43.457031 11.15625 43.457031 Z M 11.15625 43.457031 "/>
<g clip-path="url(#clip-2)">
<path fill="none" stroke-width="0.751178" stroke-linecap="butt" stroke-linejoin="miter" stroke="rgb(0%, 0%, 0%)" stroke-opacity="1" stroke-miterlimit="4" d="M 11.15625 43.457031 L 179.027344 43.457031 C 183.121094 43.457031 186.421875 46.753906 186.421875 50.851562 L 186.421875 116.234375 C 186.421875 120.332031 183.121094 123.628906 179.027344 123.628906 L 11.15625 123.628906 C 7.058594 123.628906 3.761719 120.332031 3.761719 116.234375 L 3.761719 50.851562 C 3.761719 46.753906 7.058594 43.457031 11.15625 43.457031 Z M 11.15625 43.457031 "/>
</g>
<path fill-rule="nonzero" fill="rgb(62.744141%, 85.096741%, 82.743835%)" fill-opacity="1" stroke-width="0.751178" stroke-linecap="butt" stroke-linejoin="miter" stroke="rgb(0%, 0%, 0%)" stroke-opacity="1" stroke-miterlimit="4" d="M 17.800781 53.820312 L 52.777344 53.820312 C 59.023438 53.820312 64.050781 58.847656 64.050781 65.09375 L 64.050781 109.921875 C 64.050781 116.167969 59.023438 121.195312 52.777344 121.195312 L 17.800781 121.195312 C 11.554688 121.195312 6.527344 116.167969 6.527344 109.921875 L 6.527344 65.09375 C 6.527344 58.847656 11.554688 53.820312 17.800781 53.820312 Z M 17.800781 53.820312 "/>
<path fill-rule="nonzero" fill="rgb(62.744141%, 85.096741%, 82.743835%)" fill-opacity="1" stroke-width="0.751178" stroke-linecap="butt" stroke-linejoin="miter" stroke="rgb(0%, 0%, 0%)" stroke-opacity="1" stroke-miterlimit="4" d="M 77.710938 53.820312 L 112.691406 53.820312 C 118.933594 53.820312 123.964844 58.847656 123.964844 65.09375 L 123.964844 110.851562 C 123.964844 117.097656 118.933594 122.125 112.691406 122.125 L 77.710938 122.125 C 71.464844 122.125 66.4375 117.097656 66.4375 110.851562 L 66.4375 65.09375 C 66.4375 58.847656 71.464844 53.820312 77.710938 53.820312 Z M 77.710938 53.820312 "/>
<path fill-rule="nonzero" fill="rgb(62.744141%, 85.096741%, 82.743835%)" fill-opacity="1" stroke-width="0.751178" stroke-linecap="butt" stroke-linejoin="miter" stroke="rgb(0%, 0%, 0%)" stroke-opacity="1" stroke-miterlimit="4" d="M 137.621094 53.820312 L 172.601562 53.820312 C 178.847656 53.820312 183.875 58.847656 183.875 65.09375 L 183.875 110.851562 C 183.875 117.097656 178.847656 122.125 172.601562 122.125 L 137.621094 122.125 C 131.375 122.125 126.347656 117.097656 126.347656 110.851562 L 126.347656 65.09375 C 126.347656 58.847656 131.375 53.820312 137.621094 53.820312 Z M 137.621094 53.820312 "/>
<path fill-rule="nonzero" fill="rgb(68.234253%, 76.469421%, 81.175232%)" fill-opacity="0.510121" stroke-width="0.751178" stroke-linecap="butt" stroke-linejoin="miter" stroke="rgb(0%, 0%, 0%)" stroke-opacity="1" stroke-miterlimit="4" d="M 16.648438 85.445312 L 173.75 85.445312 C 178.035156 85.445312 181.488281 88.898438 181.488281 93.183594 L 181.488281 110.828125 C 181.488281 115.113281 178.035156 118.5625 173.75 118.5625 L 16.648438 118.5625 C 12.363281 118.5625 8.910156 115.113281 8.910156 110.828125 L 8.910156 93.183594 C 8.910156 88.898438 12.363281 85.445312 16.648438 85.445312 Z M 16.648438 85.445312 "/>
<path fill-rule="nonzero" fill="rgb(0%, 0%, 0%)" fill-opacity="1" d="M 66.527344 9.035156 L 64.53125 3.433594 L 63.796875 3.433594 L 61.8125 9.035156 L 62.460938 9.035156 L 62.933594 7.574219 L 65.410156 7.574219 L 65.878906 9.035156 Z M 65.207031 6.988281 L 63.136719 6.988281 L 64.175781 4.105469 Z M 65.207031 6.988281 "/>
<path fill-rule="nonzero" fill="rgb(0%, 0%, 0%)" fill-opacity="1" d="M 69.175781 6.113281 L 69.367188 5.527344 C 69.277344 5.425781 68.882812 5.324219 68.617188 5.324219 C 68.238281 5.339844 67.917969 5.527344 67.753906 5.871094 L 67.753906 5.375 L 67.144531 5.375 L 67.144531 9.035156 L 67.753906 9.035156 L 67.753906 7.105469 C 67.753906 7.089844 67.753906 7.078125 67.753906 7.078125 C 67.753906 6.542969 68.035156 5.847656 68.605469 5.847656 L 68.644531 5.847656 C 68.832031 5.847656 68.984375 5.960938 69.175781 6.113281 Z M 69.175781 6.113281 "/>
<path fill-rule="nonzero" fill="rgb(0%, 0%, 0%)" fill-opacity="1" d="M 72.1875 9.035156 L 72.1875 8.515625 L 71.550781 8.515625 C 70.980469 8.515625 70.878906 8.375 70.878906 7.839844 L 70.878906 5.859375 L 71.957031 5.859375 L 71.957031 5.375 L 70.878906 5.375 L 70.878906 4.335938 L 70.625 4.335938 L 70.28125 5.375 L 69.847656 5.375 L 69.847656 5.859375 L 70.28125 5.859375 L 70.28125 7.839844 C 70.28125 8.753906 70.648438 9.035156 71.550781 9.035156 Z M 72.1875 9.035156 "/>
<path fill-rule="nonzero" fill="rgb(0%, 0%, 0%)" fill-opacity="1" d="M 73.542969 9.035156 L 73.542969 5.375 L 72.933594 5.375 L 72.933594 9.035156 Z M 73.238281 3.433594 C 73.050781 3.433594 72.882812 3.609375 72.882812 3.800781 C 72.882812 4.003906 73.050781 4.183594 73.238281 4.183594 C 73.441406 4.183594 73.59375 4.003906 73.59375 3.800781 C 73.59375 3.609375 73.441406 3.433594 73.238281 3.433594 Z M 73.238281 3.433594 "/>
<path fill-rule="nonzero" fill="rgb(0%, 0%, 0%)" fill-opacity="1" d="M 77.875 5.375 L 75.523438 5.375 L 75.523438 4.816406 C 75.523438 4.105469 75.929688 3.941406 76.09375 3.941406 L 76.691406 3.941406 L 76.691406 3.433594 L 76.109375 3.433594 C 75.523438 3.433594 74.941406 3.828125 74.914062 4.894531 L 74.914062 5.375 L 74.316406 5.375 L 74.316406 5.871094 L 74.914062 5.871094 L 74.914062 9.035156 L 75.523438 9.035156 L 75.523438 5.871094 L 77.265625 5.871094 L 77.265625 9.035156 L 77.875 9.035156 Z M 77.570312 3.433594 C 77.378906 3.433594 77.214844 3.609375 77.214844 3.800781 C 77.214844 4.003906 77.378906 4.183594 77.570312 4.183594 C 77.757812 4.183594 77.925781 4.003906 77.925781 3.800781 C 77.925781 3.609375 77.757812 3.433594 77.570312 3.433594 Z M 77.570312 3.433594 "/>
<path fill-rule="nonzero" fill="rgb(0%, 0%, 0%)" fill-opacity="1" d="M 81.792969 8.90625 L 81.792969 8.308594 C 81.398438 8.515625 81.234375 8.617188 80.726562 8.617188 C 79.835938 8.601562 79.402344 8.082031 79.402344 7.207031 C 79.402344 6.355469 79.847656 5.808594 80.726562 5.808594 C 81.207031 5.832031 81.386719 5.910156 81.792969 6.113281 L 81.792969 5.503906 C 81.460938 5.402344 81.105469 5.289062 80.6875 5.289062 C 79.492188 5.289062 78.792969 6.050781 78.792969 7.207031 C 78.820312 8.347656 79.46875 9.136719 80.648438 9.136719 C 81.054688 9.136719 81.488281 9.023438 81.792969 8.90625 Z M 81.792969 8.90625 "/>
<path fill-rule="nonzero" fill="rgb(0%, 0%, 0%)" fill-opacity="1" d="M 83.253906 9.035156 L 83.253906 5.375 L 82.644531 5.375 L 82.644531 9.035156 Z M 82.949219 3.433594 C 82.761719 3.433594 82.59375 3.609375 82.59375 3.800781 C 82.59375 4.003906 82.761719 4.183594 82.949219 4.183594 C 83.152344 4.183594 83.304688 4.003906 83.304688 3.800781 C 83.304688 3.609375 83.152344 3.433594 82.949219 3.433594 Z M 82.949219 3.433594 "/>
<path fill-rule="nonzero" fill="rgb(0%, 0%, 0%)" fill-opacity="1" d="M 87.179688 9.035156 L 87.179688 6.953125 C 87.179688 5.898438 86.734375 5.289062 85.640625 5.289062 C 85.246094 5.289062 84.765625 5.414062 84.410156 5.542969 L 84.410156 6.136719 C 84.777344 5.933594 85.082031 5.808594 85.589844 5.808594 C 86.175781 5.820312 86.617188 6.113281 86.617188 6.722656 L 85.78125 6.722656 C 84.917969 6.722656 84.15625 7.015625 84.15625 7.96875 C 84.179688 8.703125 84.613281 9.136719 85.347656 9.136719 C 85.871094 9.136719 86.339844 8.921875 86.617188 8.550781 L 86.617188 9.035156 Z M 86.617188 7.332031 C 86.617188 8.042969 86.289062 8.617188 85.527344 8.617188 C 85.082031 8.617188 84.714844 8.410156 84.714844 7.929688 C 84.714844 7.21875 85.386719 7.21875 86.023438 7.21875 L 86.617188 7.21875 Z M 86.617188 7.332031 "/>
<path fill-rule="nonzero" fill="rgb(0%, 0%, 0%)" fill-opacity="1" d="M 88.160156 3.433594 L 88.757812 3.433594 L 88.757812 9.035156 L 88.160156 9.035156 Z M 88.160156 3.433594 "/>
<path fill-rule="nonzero" fill="rgb(0%, 0%, 0%)" fill-opacity="1" d="M 92.910156 9.035156 L 92.910156 5.375 L 92.300781 5.375 L 92.300781 9.035156 Z M 92.605469 3.433594 C 92.414062 3.433594 92.25 3.609375 92.25 3.800781 C 92.25 4.003906 92.414062 4.183594 92.605469 4.183594 C 92.808594 4.183594 92.960938 4.003906 92.960938 3.800781 C 92.960938 3.609375 92.808594 3.433594 92.605469 3.433594 Z M 92.605469 3.433594 "/>
<path fill-rule="nonzero" fill="rgb(0%, 0%, 0%)" fill-opacity="1" d="M 97.175781 9.035156 L 97.175781 6.824219 C 97.175781 5.960938 96.804688 5.289062 95.867188 5.289062 C 95.394531 5.289062 94.914062 5.464844 94.621094 5.871094 L 94.621094 5.375 L 94.023438 5.375 L 94.023438 9.035156 L 94.621094 9.035156 L 94.621094 6.964844 C 94.648438 6.265625 95.078125 5.820312 95.726562 5.820312 C 96.363281 5.820312 96.589844 6.203125 96.589844 6.851562 L 96.589844 9.035156 Z M 97.175781 9.035156 "/>
<path fill-rule="nonzero" fill="rgb(0%, 0%, 0%)" fill-opacity="1" d="M 100.289062 9.035156 L 100.289062 8.515625 L 99.652344 8.515625 C 99.082031 8.515625 98.980469 8.375 98.980469 7.839844 L 98.980469 5.859375 L 100.058594 5.859375 L 100.058594 5.375 L 98.980469 5.375 L 98.980469 4.335938 L 98.726562 4.335938 L 98.382812 5.375 L 97.953125 5.375 L 97.953125 5.859375 L 98.382812 5.859375 L 98.382812 7.839844 C 98.382812 8.753906 98.75 9.035156 99.652344 9.035156 Z M 100.289062 9.035156 "/>
<path fill-rule="nonzero" fill="rgb(0%, 0%, 0%)" fill-opacity="1" d="M 103.933594 7.207031 L 103.933594 7.140625 C 103.933594 6.085938 103.5 5.3125 102.292969 5.289062 C 101.214844 5.289062 100.605469 6.226562 100.605469 7.242188 C 100.605469 8.347656 101.277344 9.136719 102.394531 9.136719 C 102.902344 9.136719 103.359375 9.023438 103.804688 8.855469 L 103.804688 8.246094 C 103.222656 8.527344 103.132812 8.589844 102.445312 8.589844 C 101.683594 8.589844 101.226562 8.132812 101.226562 7.269531 L 101.226562 7.207031 Z M 103.335938 6.710938 L 101.253906 6.710938 C 101.328125 6.226562 101.683594 5.808594 102.292969 5.808594 C 102.929688 5.808594 103.335938 6.203125 103.335938 6.710938 Z M 103.335938 6.710938 "/>
<path fill-rule="nonzero" fill="rgb(0%, 0%, 0%)" fill-opacity="1" d="M 104.722656 3.433594 L 105.320312 3.433594 L 105.320312 9.035156 L 104.722656 9.035156 Z M 104.722656 3.433594 "/>
<path fill-rule="nonzero" fill="rgb(0%, 0%, 0%)" fill-opacity="1" d="M 106.34375 3.433594 L 106.941406 3.433594 L 106.941406 9.035156 L 106.34375 9.035156 Z M 106.34375 3.433594 "/>
<path fill-rule="nonzero" fill="rgb(0%, 0%, 0%)" fill-opacity="1" d="M 108.660156 9.035156 L 108.660156 5.375 L 108.050781 5.375 L 108.050781 9.035156 Z M 108.355469 3.433594 C 108.164062 3.433594 108 3.609375 108 3.800781 C 108 4.003906 108.164062 4.183594 108.355469 4.183594 C 108.558594 4.183594 108.710938 4.003906 108.710938 3.800781 C 108.710938 3.609375 108.558594 3.433594 108.355469 3.433594 Z M 108.355469 3.433594 "/>
<path fill-rule="nonzero" fill="rgb(0%, 0%, 0%)" fill-opacity="1" d="M 110.882812 8.945312 C 111.566406 8.945312 112.039062 9.277344 112.039062 9.71875 C 112.039062 10.164062 111.566406 10.484375 110.882812 10.484375 C 110.195312 10.484375 109.816406 10.164062 109.816406 9.71875 C 109.816406 9.277344 110.195312 8.945312 110.882812 8.945312 Z M 110.882812 8.425781 C 110.816406 8.425781 110.753906 8.425781 110.679688 8.4375 C 110.296875 8.4375 109.96875 8.207031 109.96875 8.054688 C 109.96875 7.878906 110.171875 7.816406 110.324219 7.816406 L 110.375 7.816406 C 110.5 7.929688 110.882812 7.96875 110.996094 7.96875 C 111.695312 7.96875 112.253906 7.371094 112.253906 6.632812 C 112.253906 6.339844 112.152344 6.0625 111.988281 5.847656 L 112.582031 5.847656 L 112.582031 5.390625 L 111.554688 5.390625 C 111.390625 5.339844 111.160156 5.3125 111.035156 5.3125 C 110.335938 5.3125 109.75 5.910156 109.726562 6.632812 C 109.726562 6.988281 109.851562 7.308594 110.082031 7.535156 C 109.816406 7.585938 109.523438 7.765625 109.523438 8.105469 C 109.523438 8.324219 109.664062 8.527344 109.953125 8.652344 C 109.484375 8.894531 109.203125 9.289062 109.203125 9.707031 C 109.203125 10.367188 109.878906 10.976562 110.882812 10.976562 C 111.898438 10.976562 112.722656 10.367188 112.722656 9.71875 C 112.722656 8.871094 111.734375 8.425781 110.882812 8.425781 Z M 110.996094 5.820312 C 111.429688 5.820312 111.785156 6.175781 111.785156 6.621094 C 111.785156 7.054688 111.429688 7.410156 110.996094 7.410156 C 110.550781 7.410156 110.207031 7.054688 110.207031 6.621094 C 110.207031 6.175781 110.550781 5.820312 110.996094 5.820312 Z M 110.996094 5.820312 "/>
<path fill-rule="nonzero" fill="rgb(0%, 0%, 0%)" fill-opacity="1" d="M 116.46875 7.207031 L 116.46875 7.140625 C 116.46875 6.085938 116.039062 5.3125 114.832031 5.289062 C 113.75 5.289062 113.140625 6.226562 113.140625 7.242188 C 113.140625 8.347656 113.816406 9.136719 114.933594 9.136719 C 115.441406 9.136719 115.898438 9.023438 116.34375 8.855469 L 116.34375 8.246094 C 115.757812 8.527344 115.667969 8.589844 114.984375 8.589844 C 114.222656 8.589844 113.765625 8.132812 113.765625 7.269531 L 113.765625 7.207031 Z M 115.871094 6.710938 L 113.789062 6.710938 C 113.867188 6.226562 114.222656 5.808594 114.832031 5.808594 C 115.464844 5.808594 115.871094 6.203125 115.871094 6.710938 Z M 115.871094 6.710938 "/>
<path fill-rule="nonzero" fill="rgb(0%, 0%, 0%)" fill-opacity="1" d="M 120.5 9.035156 L 120.5 6.824219 C 120.5 5.960938 120.128906 5.289062 119.191406 5.289062 C 118.722656 5.289062 118.238281 5.464844 117.945312 5.871094 L 117.945312 5.375 L 117.347656 5.375 L 117.347656 9.035156 L 117.945312 9.035156 L 117.945312 6.964844 C 117.972656 6.265625 118.402344 5.820312 119.050781 5.820312 C 119.6875 5.820312 119.914062 6.203125 119.914062 6.851562 L 119.914062 9.035156 Z M 120.5 9.035156 "/>
<path fill-rule="nonzero" fill="rgb(0%, 0%, 0%)" fill-opacity="1" d="M 124.375 8.90625 L 124.375 8.308594 C 123.980469 8.515625 123.816406 8.617188 123.308594 8.617188 C 122.417969 8.601562 121.988281 8.082031 121.988281 7.207031 C 121.988281 6.355469 122.433594 5.808594 123.308594 5.808594 C 123.792969 5.832031 123.96875 5.910156 124.375 6.113281 L 124.375 5.503906 C 124.046875 5.402344 123.691406 5.289062 123.269531 5.289062 C 122.078125 5.289062 121.378906 6.050781 121.378906 7.207031 C 121.402344 8.347656 122.050781 9.136719 123.230469 9.136719 C 123.640625 9.136719 124.070312 9.023438 124.375 8.90625 Z M 124.375 8.90625 "/>
<path fill-rule="nonzero" fill="rgb(0%, 0%, 0%)" fill-opacity="1" d="M 128.367188 7.207031 L 128.367188 7.140625 C 128.367188 6.085938 127.933594 5.3125 126.726562 5.289062 C 125.648438 5.289062 125.039062 6.226562 125.039062 7.242188 C 125.039062 8.347656 125.710938 9.136719 126.828125 9.136719 C 127.335938 9.136719 127.792969 9.023438 128.238281 8.855469 L 128.238281 8.246094 C 127.65625 8.527344 127.566406 8.589844 126.878906 8.589844 C 126.117188 8.589844 125.660156 8.132812 125.660156 7.269531 L 125.660156 7.207031 Z M 127.769531 6.710938 L 125.6875 6.710938 C 125.761719 6.226562 126.117188 5.808594 126.726562 5.808594 C 127.363281 5.808594 127.769531 6.203125 127.769531 6.710938 Z M 127.769531 6.710938 "/>
<path fill-rule="nonzero" fill="rgb(0%, 0%, 0%)" fill-opacity="1" d="M 72.078125 50.601562 L 72.078125 45 L 71.464844 45 L 69.738281 48.3125 L 67.988281 45 L 67.375 45 L 67.375 50.601562 L 67.988281 50.601562 L 67.988281 46.117188 L 69.738281 49.507812 L 71.464844 46.117188 L 71.464844 50.601562 Z M 72.078125 50.601562 "/>
<path fill-rule="nonzero" fill="rgb(0%, 0%, 0%)" fill-opacity="1" d="M 76 50.601562 L 76 48.515625 C 76 47.464844 75.554688 46.851562 74.460938 46.851562 C 74.066406 46.851562 73.585938 46.980469 73.230469 47.109375 L 73.230469 47.703125 C 73.597656 47.5 73.902344 47.375 74.410156 47.375 C 74.996094 47.386719 75.441406 47.679688 75.441406 48.289062 L 74.601562 48.289062 C 73.738281 48.289062 72.976562 48.582031 72.976562 49.535156 C 73 50.269531 73.433594 50.703125 74.167969 50.703125 C 74.691406 50.703125 75.160156 50.484375 75.441406 50.117188 L 75.441406 50.601562 Z M 75.441406 48.898438 C 75.441406 49.609375 75.109375 50.179688 74.347656 50.179688 C 73.902344 50.179688 73.535156 49.976562 73.535156 49.496094 C 73.535156 48.785156 74.207031 48.785156 74.84375 48.785156 L 75.441406 48.785156 Z M 75.441406 48.898438 "/>
<path fill-rule="nonzero" fill="rgb(0%, 0%, 0%)" fill-opacity="1" d="M 79.878906 50.472656 L 79.878906 49.875 C 79.484375 50.078125 79.320312 50.179688 78.8125 50.179688 C 77.921875 50.167969 77.488281 49.648438 77.488281 48.769531 C 77.488281 47.921875 77.933594 47.375 78.8125 47.375 C 79.292969 47.398438 79.472656 47.476562 79.878906 47.679688 L 79.878906 47.070312 C 79.546875 46.96875 79.191406 46.851562 78.773438 46.851562 C 77.578125 46.851562 76.878906 47.617188 76.878906 48.769531 C 76.90625 49.914062 77.554688 50.703125 78.734375 50.703125 C 79.140625 50.703125 79.574219 50.585938 79.878906 50.472656 Z M 79.878906 50.472656 "/>
<path fill-rule="nonzero" fill="rgb(0%, 0%, 0%)" fill-opacity="1" d="M 83.882812 50.601562 L 83.882812 48.378906 C 83.882812 47.527344 83.5 46.851562 82.574219 46.851562 C 82.078125 46.851562 81.609375 47.007812 81.328125 47.449219 L 81.328125 45 L 80.730469 45 L 80.730469 50.601562 L 81.328125 50.601562 L 81.328125 48.53125 C 81.355469 47.832031 81.824219 47.386719 82.433594 47.386719 C 83.082031 47.398438 83.296875 47.769531 83.296875 48.414062 L 83.296875 50.601562 Z M 83.882812 50.601562 "/>
<path fill-rule="nonzero" fill="rgb(0%, 0%, 0%)" fill-opacity="1" d="M 85.5625 50.601562 L 85.5625 46.941406 L 84.949219 46.941406 L 84.949219 50.601562 Z M 85.257812 45 C 85.066406 45 84.898438 45.175781 84.898438 45.367188 C 84.898438 45.570312 85.066406 45.75 85.257812 45.75 C 85.460938 45.75 85.613281 45.570312 85.613281 45.367188 C 85.613281 45.175781 85.460938 45 85.257812 45 Z M 85.257812 45 "/>
<path fill-rule="nonzero" fill="rgb(0%, 0%, 0%)" fill-opacity="1" d="M 89.828125 50.601562 L 89.828125 48.390625 C 89.828125 47.527344 89.457031 46.851562 88.519531 46.851562 C 88.046875 46.851562 87.566406 47.03125 87.273438 47.4375 L 87.273438 46.941406 L 86.675781 46.941406 L 86.675781 50.601562 L 87.273438 50.601562 L 87.273438 48.53125 C 87.296875 47.832031 87.730469 47.386719 88.378906 47.386719 C 89.011719 47.386719 89.242188 47.769531 89.242188 48.414062 L 89.242188 50.601562 Z M 89.828125 50.601562 "/>
<path fill-rule="nonzero" fill="rgb(0%, 0%, 0%)" fill-opacity="1" d="M 94.03125 48.769531 L 94.03125 48.707031 C 94.03125 47.652344 93.601562 46.878906 92.394531 46.851562 C 91.316406 46.851562 90.707031 47.792969 90.707031 48.808594 C 90.707031 49.914062 91.378906 50.703125 92.496094 50.703125 C 93.003906 50.703125 93.460938 50.585938 93.90625 50.421875 L 93.90625 49.8125 C 93.320312 50.09375 93.234375 50.15625 92.546875 50.15625 C 91.785156 50.15625 91.328125 49.699219 91.328125 48.835938 L 91.328125 48.769531 Z M 93.4375 48.277344 L 91.351562 48.277344 C 91.429688 47.792969 91.785156 47.375 92.394531 47.375 C 93.03125 47.375 93.4375 47.769531 93.4375 48.277344 Z M 93.4375 48.277344 "/>
<path fill-rule="nonzero" fill="rgb(0%, 0%, 0%)" fill-opacity="1" d="M 97.253906 45 L 97.851562 45 L 97.851562 50.601562 L 97.253906 50.601562 Z M 97.253906 45 "/>
<path fill-rule="nonzero" fill="rgb(0%, 0%, 0%)" fill-opacity="1" d="M 102.097656 48.769531 L 102.097656 48.707031 C 102.097656 47.652344 101.667969 46.878906 100.460938 46.851562 C 99.382812 46.851562 98.773438 47.792969 98.773438 48.808594 C 98.773438 49.914062 99.445312 50.703125 100.5625 50.703125 C 101.070312 50.703125 101.527344 50.585938 101.972656 50.421875 L 101.972656 49.8125 C 101.386719 50.09375 101.300781 50.15625 100.613281 50.15625 C 99.851562 50.15625 99.394531 49.699219 99.394531 48.835938 L 99.394531 48.769531 Z M 101.503906 48.277344 L 99.417969 48.277344 C 99.496094 47.792969 99.851562 47.375 100.460938 47.375 C 101.097656 47.375 101.503906 47.769531 101.503906 48.277344 Z M 101.503906 48.277344 "/>
<path fill-rule="nonzero" fill="rgb(0%, 0%, 0%)" fill-opacity="1" d="M 105.785156 50.601562 L 105.785156 48.515625 C 105.785156 47.464844 105.339844 46.851562 104.25 46.851562 C 103.855469 46.851562 103.371094 46.980469 103.015625 47.109375 L 103.015625 47.703125 C 103.386719 47.5 103.691406 47.375 104.199219 47.375 C 104.78125 47.386719 105.226562 47.679688 105.226562 48.289062 L 104.390625 48.289062 C 103.523438 48.289062 102.761719 48.582031 102.761719 49.535156 C 102.789062 50.269531 103.21875 50.703125 103.957031 50.703125 C 104.476562 50.703125 104.949219 50.484375 105.226562 50.117188 L 105.226562 50.601562 Z M 105.226562 48.898438 C 105.226562 49.609375 104.898438 50.179688 104.136719 50.179688 C 103.691406 50.179688 103.320312 49.976562 103.320312 49.496094 C 103.320312 48.785156 103.996094 48.785156 104.628906 48.785156 L 105.226562 48.785156 Z M 105.226562 48.898438 "/>
<path fill-rule="nonzero" fill="rgb(0%, 0%, 0%)" fill-opacity="1" d="M 108.890625 47.679688 L 109.082031 47.09375 C 108.992188 46.992188 108.597656 46.890625 108.332031 46.890625 C 107.949219 46.902344 107.632812 47.09375 107.46875 47.4375 L 107.46875 46.941406 L 106.859375 46.941406 L 106.859375 50.601562 L 107.46875 50.601562 L 107.46875 48.667969 C 107.46875 48.65625 107.46875 48.644531 107.46875 48.644531 C 107.46875 48.109375 107.746094 47.414062 108.320312 47.414062 L 108.355469 47.414062 C 108.546875 47.414062 108.699219 47.527344 108.890625 47.679688 Z M 108.890625 47.679688 "/>
<path fill-rule="nonzero" fill="rgb(0%, 0%, 0%)" fill-opacity="1" d="M 112.84375 50.601562 L 112.84375 48.390625 C 112.84375 47.527344 112.476562 46.851562 111.535156 46.851562 C 111.066406 46.851562 110.582031 47.03125 110.289062 47.4375 L 110.289062 46.941406 L 109.691406 46.941406 L 109.691406 50.601562 L 110.289062 50.601562 L 110.289062 48.53125 C 110.316406 47.832031 110.746094 47.386719 111.394531 47.386719 C 112.03125 47.386719 112.257812 47.769531 112.257812 48.414062 L 112.257812 50.601562 Z M 112.84375 50.601562 "/>
<path fill-rule="nonzero" fill="rgb(0%, 0%, 0%)" fill-opacity="1" d="M 114.523438 50.601562 L 114.523438 46.941406 L 113.914062 46.941406 L 113.914062 50.601562 Z M 114.21875 45 C 114.027344 45 113.863281 45.175781 113.863281 45.367188 C 113.863281 45.570312 114.027344 45.75 114.21875 45.75 C 114.421875 45.75 114.574219 45.570312 114.574219 45.367188 C 114.574219 45.175781 114.421875 45 114.21875 45 Z M 114.21875 45 "/>
<path fill-rule="nonzero" fill="rgb(0%, 0%, 0%)" fill-opacity="1" d="M 118.789062 50.601562 L 118.789062 48.390625 C 118.789062 47.527344 118.417969 46.851562 117.480469 46.851562 C 117.007812 46.851562 116.527344 47.03125 116.234375 47.4375 L 116.234375 46.941406 L 115.636719 46.941406 L 115.636719 50.601562 L 116.234375 50.601562 L 116.234375 48.53125 C 116.261719 47.832031 116.691406 47.386719 117.339844 47.386719 C 117.976562 47.386719 118.203125 47.769531 118.203125 48.414062 L 118.203125 50.601562 Z M 118.789062 50.601562 "/>
<path fill-rule="nonzero" fill="rgb(0%, 0%, 0%)" fill-opacity="1" d="M 120.960938 50.511719 C 121.648438 50.511719 122.117188 50.84375 122.117188 51.285156 C 122.117188 51.730469 121.648438 52.046875 120.960938 52.046875 C 120.277344 52.046875 119.894531 51.730469 119.894531 51.285156 C 119.894531 50.84375 120.277344 50.511719 120.960938 50.511719 Z M 120.960938 49.992188 C 120.898438 49.992188 120.835938 49.992188 120.757812 50.003906 C 120.378906 50.003906 120.046875 49.773438 120.046875 49.621094 C 120.046875 49.445312 120.25 49.382812 120.402344 49.382812 L 120.453125 49.382812 C 120.582031 49.496094 120.960938 49.535156 121.078125 49.535156 C 121.773438 49.535156 122.332031 48.9375 122.332031 48.199219 C 122.332031 47.90625 122.230469 47.628906 122.066406 47.414062 L 122.664062 47.414062 L 122.664062 46.953125 L 121.636719 46.953125 C 121.46875 46.902344 121.242188 46.878906 121.113281 46.878906 C 120.414062 46.878906 119.832031 47.476562 119.804688 48.199219 C 119.804688 48.554688 119.933594 48.875 120.160156 49.101562 C 119.894531 49.152344 119.601562 49.332031 119.601562 49.671875 C 119.601562 49.890625 119.742188 50.09375 120.035156 50.21875 C 119.566406 50.460938 119.285156 50.855469 119.285156 51.273438 C 119.285156 51.933594 119.957031 52.542969 120.960938 52.542969 C 121.976562 52.542969 122.804688 51.933594 122.804688 51.285156 C 122.804688 50.433594 121.8125 49.992188 120.960938 49.992188 Z M 121.078125 47.386719 C 121.507812 47.386719 121.863281 47.742188 121.863281 48.1875 C 121.863281 48.617188 121.507812 48.976562 121.078125 48.976562 C 120.632812 48.976562 120.289062 48.617188 120.289062 48.1875 C 120.289062 47.742188 120.632812 47.386719 121.078125 47.386719 Z M 121.078125 47.386719 "/>
<path fill-rule="nonzero" fill="rgb(0%, 0%, 0%)" fill-opacity="1" d="M 20.734375 62.085938 C 20.734375 61.082031 20.125 60.636719 19.222656 60.433594 L 18.765625 60.359375 C 18.179688 60.230469 17.699219 60.078125 17.699219 59.429688 C 17.710938 58.695312 18.308594 58.453125 18.992188 58.453125 C 19.617188 58.453125 19.910156 58.605469 20.429688 58.859375 L 20.429688 58.199219 C 20.023438 58.023438 19.386719 57.90625 18.917969 57.90625 C 17.890625 57.90625 17.125 58.390625 17.125 59.496094 C 17.125 60.472656 17.699219 60.804688 18.613281 61.007812 L 19.03125 61.082031 C 19.667969 61.246094 20.125 61.4375 20.125 62.148438 C 20.125 62.898438 19.425781 63.179688 18.765625 63.179688 C 18.128906 63.179688 17.609375 62.960938 17.113281 62.632812 L 17.113281 63.367188 C 17.632812 63.546875 18.195312 63.726562 18.765625 63.726562 C 19.859375 63.726562 20.734375 63.304688 20.734375 62.085938 Z M 20.734375 62.085938 "/>
<path fill-rule="nonzero" fill="rgb(0%, 0%, 0%)" fill-opacity="1" d="M 24.6875 63.609375 L 24.6875 59.953125 L 24.0625 59.953125 L 24.0625 62.023438 C 24.0625 62.707031 23.722656 63.179688 22.984375 63.179688 C 22.335938 63.179688 22.109375 62.773438 22.109375 62.148438 L 22.109375 59.953125 L 21.523438 59.953125 L 21.523438 62.164062 C 21.523438 63.027344 21.929688 63.710938 22.84375 63.710938 C 23.316406 63.710938 23.796875 63.445312 24.0625 63.128906 L 24.0625 63.609375 Z M 24.6875 63.609375 "/>
<path fill-rule="nonzero" fill="rgb(0%, 0%, 0%)" fill-opacity="1" d="M 29.160156 61.78125 C 29.160156 60.714844 28.449219 59.953125 27.367188 59.953125 L 25.804688 59.953125 L 25.804688 65.566406 L 26.414062 65.566406 L 26.414062 63.609375 L 27.316406 63.609375 C 28.5 63.609375 29.160156 62.875 29.160156 61.78125 Z M 28.574219 61.78125 C 28.574219 62.503906 28.117188 63.078125 27.316406 63.078125 L 26.414062 63.078125 L 26.414062 60.484375 L 27.316406 60.484375 C 28.105469 60.484375 28.574219 61.007812 28.574219 61.78125 Z M 28.574219 61.78125 "/>
<path fill-rule="nonzero" fill="rgb(0%, 0%, 0%)" fill-opacity="1" d="M 33.226562 61.78125 L 33.226562 61.71875 C 33.226562 60.664062 32.796875 59.890625 31.589844 59.863281 C 30.507812 59.863281 29.898438 60.804688 29.898438 61.820312 C 29.898438 62.925781 30.574219 63.710938 31.691406 63.710938 C 32.199219 63.710938 32.65625 63.597656 33.101562 63.433594 L 33.101562 62.824219 C 32.515625 63.101562 32.425781 63.164062 31.742188 63.164062 C 30.980469 63.164062 30.523438 62.707031 30.523438 61.84375 L 30.523438 61.78125 Z M 32.628906 61.285156 L 30.546875 61.285156 C 30.625 60.804688 30.980469 60.382812 31.589844 60.382812 C 32.222656 60.382812 32.628906 60.777344 32.628906 61.285156 Z M 32.628906 61.285156 "/>
<path fill-rule="nonzero" fill="rgb(0%, 0%, 0%)" fill-opacity="1" d="M 36.140625 60.6875 L 36.328125 60.105469 C 36.242188 60.003906 35.847656 59.902344 35.582031 59.902344 C 35.199219 59.914062 34.882812 60.105469 34.714844 60.449219 L 34.714844 59.953125 L 34.105469 59.953125 L 34.105469 63.609375 L 34.714844 63.609375 L 34.714844 61.679688 C 34.714844 61.667969 34.714844 61.652344 34.714844 61.652344 C 34.714844 61.121094 34.996094 60.421875 35.566406 60.421875 L 35.605469 60.421875 C 35.796875 60.421875 35.949219 60.535156 36.140625 60.6875 Z M 36.140625 60.6875 "/>
<path fill-rule="nonzero" fill="rgb(0%, 0%, 0%)" fill-opacity="1" d="M 40.277344 59.953125 L 39.71875 59.953125 L 38.5 62.519531 L 37.269531 59.953125 L 36.710938 59.953125 L 38.5 63.726562 Z M 40.277344 59.953125 "/>
<path fill-rule="nonzero" fill="rgb(0%, 0%, 0%)" fill-opacity="1" d="M 41.609375 63.609375 L 41.609375 59.953125 L 41 59.953125 L 41 63.609375 Z M 41.304688 58.007812 C 41.113281 58.007812 40.949219 58.1875 40.949219 58.378906 C 40.949219 58.582031 41.113281 58.757812 41.304688 58.757812 C 41.507812 58.757812 41.660156 58.582031 41.660156 58.378906 C 41.660156 58.1875 41.507812 58.007812 41.304688 58.007812 Z M 41.304688 58.007812 "/>
<path fill-rule="nonzero" fill="rgb(0%, 0%, 0%)" fill-opacity="1" d="M 45.402344 62.59375 C 45.402344 61.871094 44.910156 61.640625 44.25 61.515625 L 43.996094 61.464844 C 43.640625 61.386719 43.117188 61.3125 43.117188 60.917969 C 43.144531 60.460938 43.675781 60.371094 44.082031 60.371094 C 44.730469 60.398438 44.679688 60.433594 45.226562 60.664062 L 45.226562 60.066406 C 44.882812 59.925781 44.453125 59.863281 44.007812 59.863281 C 43.28125 59.863281 42.570312 60.128906 42.570312 60.941406 C 42.585938 61.601562 43.027344 61.859375 43.640625 61.972656 L 43.867188 62.023438 C 44.3125 62.125 44.820312 62.175781 44.820312 62.644531 C 44.792969 63.101562 44.273438 63.191406 43.867188 63.191406 C 43.195312 63.179688 43.09375 63.101562 42.507812 62.824219 L 42.507812 63.484375 C 42.851562 63.574219 43.449219 63.710938 43.855469 63.710938 C 44.566406 63.710938 45.402344 63.445312 45.402344 62.59375 Z M 45.402344 62.59375 "/>
<path fill-rule="nonzero" fill="rgb(0%, 0%, 0%)" fill-opacity="1" d="M 49.433594 61.78125 L 49.433594 61.71875 C 49.433594 60.664062 49 59.890625 47.792969 59.863281 C 46.714844 59.863281 46.105469 60.804688 46.105469 61.820312 C 46.105469 62.925781 46.777344 63.710938 47.894531 63.710938 C 48.402344 63.710938 48.863281 63.597656 49.304688 63.433594 L 49.304688 62.824219 C 48.722656 63.101562 48.632812 63.164062 47.945312 63.164062 C 47.183594 63.164062 46.726562 62.707031 46.726562 61.84375 L 46.726562 61.78125 Z M 48.835938 61.285156 L 46.753906 61.285156 C 46.828125 60.804688 47.183594 60.382812 47.792969 60.382812 C 48.429688 60.382812 48.835938 60.777344 48.835938 61.285156 Z M 48.835938 61.285156 "/>
<path fill-rule="nonzero" fill="rgb(0%, 0%, 0%)" fill-opacity="1" d="M 50.109375 61.78125 C 50.109375 62.859375 50.820312 63.609375 51.914062 63.609375 L 53.460938 63.609375 L 53.460938 58.007812 L 52.851562 58.007812 L 52.851562 59.953125 L 51.964844 59.953125 C 50.769531 59.953125 50.109375 60.6875 50.109375 61.78125 Z M 50.695312 61.78125 C 50.695312 61.070312 51.152344 60.484375 51.964844 60.484375 L 52.851562 60.484375 L 52.851562 63.078125 L 51.964844 63.078125 C 51.164062 63.078125 50.695312 62.570312 50.695312 61.78125 Z M 50.695312 61.78125 "/>
<path fill-rule="nonzero" fill="rgb(0%, 0%, 0%)" fill-opacity="1" d="M 22.738281 67.726562 L 23.332031 67.726562 L 23.332031 73.328125 L 22.738281 73.328125 Z M 22.738281 67.726562 "/>
<path fill-rule="nonzero" fill="rgb(0%, 0%, 0%)" fill-opacity="1" d="M 27.582031 71.5 L 27.582031 71.4375 C 27.582031 70.382812 27.152344 69.605469 25.945312 69.582031 C 24.863281 69.582031 24.253906 70.523438 24.253906 71.539062 C 24.253906 72.644531 24.929688 73.429688 26.046875 73.429688 C 26.554688 73.429688 27.011719 73.316406 27.457031 73.152344 L 27.457031 72.542969 C 26.871094 72.820312 26.78125 72.882812 26.097656 72.882812 C 25.335938 72.882812 24.878906 72.425781 24.878906 71.5625 L 24.878906 71.5 Z M 26.984375 71.003906 L 24.902344 71.003906 C 24.980469 70.523438 25.335938 70.101562 25.945312 70.101562 C 26.578125 70.101562 26.984375 70.496094 26.984375 71.003906 Z M 26.984375 71.003906 "/>
<path fill-rule="nonzero" fill="rgb(0%, 0%, 0%)" fill-opacity="1" d="M 31.269531 73.328125 L 31.269531 71.246094 C 31.269531 70.191406 30.824219 69.582031 29.734375 69.582031 C 29.339844 69.582031 28.855469 69.707031 28.5 69.835938 L 28.5 70.433594 C 28.867188 70.230469 29.171875 70.101562 29.683594 70.101562 C 30.265625 70.117188 30.710938 70.40625 30.710938 71.015625 L 29.871094 71.015625 C 29.007812 71.015625 28.246094 71.308594 28.246094 72.261719 C 28.273438 73 28.703125 73.429688 29.441406 73.429688 C 29.960938 73.429688 30.429688 73.214844 30.710938 72.847656 L 30.710938 73.328125 Z M 30.710938 71.625 C 30.710938 72.339844 30.378906 72.910156 29.617188 72.910156 C 29.171875 72.910156 28.804688 72.707031 28.804688 72.222656 C 28.804688 71.511719 29.480469 71.511719 30.113281 71.511719 L 30.710938 71.511719 Z M 30.710938 71.625 "/>
<path fill-rule="nonzero" fill="rgb(0%, 0%, 0%)" fill-opacity="1" d="M 34.375 70.40625 L 34.566406 69.824219 C 34.476562 69.722656 34.082031 69.621094 33.816406 69.621094 C 33.433594 69.632812 33.117188 69.824219 32.953125 70.167969 L 32.953125 69.671875 L 32.34375 69.671875 L 32.34375 73.328125 L 32.953125 73.328125 L 32.953125 71.398438 C 32.953125 71.386719 32.953125 71.371094 32.953125 71.371094 C 32.953125 70.839844 33.230469 70.140625 33.800781 70.140625 L 33.839844 70.140625 C 34.03125 70.140625 34.183594 70.253906 34.375 70.40625 Z M 34.375 70.40625 "/>
<path fill-rule="nonzero" fill="rgb(0%, 0%, 0%)" fill-opacity="1" d="M 38.328125 73.328125 L 38.328125 71.117188 C 38.328125 70.253906 37.957031 69.582031 37.019531 69.582031 C 36.546875 69.582031 36.066406 69.757812 35.773438 70.167969 L 35.773438 69.671875 L 35.175781 69.671875 L 35.175781 73.328125 L 35.773438 73.328125 L 35.773438 71.257812 C 35.796875 70.558594 36.230469 70.117188 36.878906 70.117188 C 37.511719 70.117188 37.742188 70.496094 37.742188 71.144531 L 37.742188 73.328125 Z M 38.328125 73.328125 "/>
<path fill-rule="nonzero" fill="rgb(0%, 0%, 0%)" fill-opacity="1" d="M 40.003906 73.328125 L 40.003906 69.671875 L 39.394531 69.671875 L 39.394531 73.328125 Z M 39.699219 67.726562 C 39.511719 67.726562 39.34375 67.90625 39.34375 68.09375 C 39.34375 68.300781 39.511719 68.476562 39.699219 68.476562 C 39.902344 68.476562 40.054688 68.300781 40.054688 68.09375 C 40.054688 67.90625 39.902344 67.726562 39.699219 67.726562 Z M 39.699219 67.726562 "/>
<path fill-rule="nonzero" fill="rgb(0%, 0%, 0%)" fill-opacity="1" d="M 44.269531 73.328125 L 44.269531 71.117188 C 44.269531 70.253906 43.902344 69.582031 42.960938 69.582031 C 42.492188 69.582031 42.011719 69.757812 41.71875 70.167969 L 41.71875 69.671875 L 41.121094 69.671875 L 41.121094 73.328125 L 41.71875 73.328125 L 41.71875 71.257812 C 41.742188 70.558594 42.175781 70.117188 42.824219 70.117188 C 43.457031 70.117188 43.6875 70.496094 43.6875 71.144531 L 43.6875 73.328125 Z M 44.269531 73.328125 "/>
<path fill-rule="nonzero" fill="rgb(0%, 0%, 0%)" fill-opacity="1" d="M 46.445312 73.238281 C 47.132812 73.238281 47.601562 73.570312 47.601562 74.015625 C 47.601562 74.460938 47.132812 74.777344 46.445312 74.777344 C 45.757812 74.777344 45.378906 74.460938 45.378906 74.015625 C 45.378906 73.570312 45.757812 73.238281 46.445312 73.238281 Z M 46.445312 72.71875 C 46.382812 72.71875 46.320312 72.71875 46.242188 72.730469 C 45.859375 72.730469 45.53125 72.503906 45.53125 72.351562 C 45.53125 72.171875 45.734375 72.109375 45.886719 72.109375 L 45.9375 72.109375 C 46.0625 72.222656 46.445312 72.261719 46.558594 72.261719 C 47.257812 72.261719 47.816406 71.664062 47.816406 70.929688 C 47.816406 70.636719 47.714844 70.355469 47.550781 70.140625 L 48.148438 70.140625 L 48.148438 69.683594 L 47.117188 69.683594 C 46.953125 69.632812 46.726562 69.605469 46.597656 69.605469 C 45.898438 69.605469 45.316406 70.203125 45.289062 70.929688 C 45.289062 71.285156 45.417969 71.601562 45.644531 71.828125 C 45.378906 71.878906 45.085938 72.058594 45.085938 72.402344 C 45.085938 72.617188 45.226562 72.820312 45.519531 72.949219 C 45.046875 73.1875 44.769531 73.582031 44.769531 74.003906 C 44.769531 74.664062 45.441406 75.273438 46.445312 75.273438 C 47.460938 75.273438 48.289062 74.664062 48.289062 74.015625 C 48.289062 73.164062 47.296875 72.71875 46.445312 72.71875 Z M 46.558594 70.117188 C 46.992188 70.117188 47.347656 70.472656 47.347656 70.914062 C 47.347656 71.347656 46.992188 71.703125 46.558594 71.703125 C 46.113281 71.703125 45.773438 71.347656 45.773438 70.914062 C 45.773438 70.472656 46.113281 70.117188 46.558594 70.117188 Z M 46.558594 70.117188 "/>
<path fill-rule="nonzero" fill="rgb(0%, 0%, 0%)" fill-opacity="1" d="M 76.785156 61.285156 L 76.785156 57.78125 L 76.191406 57.78125 L 76.191406 61.195312 C 76.191406 62.226562 75.949219 62.949219 74.84375 62.949219 C 73.714844 62.949219 73.460938 62.25 73.460938 61.195312 L 73.460938 57.78125 L 72.847656 57.78125 L 72.847656 61.285156 C 72.847656 62.644531 73.445312 63.496094 74.84375 63.496094 C 76.226562 63.496094 76.785156 62.621094 76.785156 61.285156 Z M 76.785156 61.285156 "/>
<path fill-rule="nonzero" fill="rgb(0%, 0%, 0%)" fill-opacity="1" d="M 81.007812 63.382812 L 81.007812 61.171875 C 81.007812 60.308594 80.636719 59.632812 79.699219 59.632812 C 79.226562 59.632812 78.746094 59.8125 78.453125 60.21875 L 78.453125 59.722656 L 77.855469 59.722656 L 77.855469 63.382812 L 78.453125 63.382812 L 78.453125 61.3125 C 78.480469 60.613281 78.910156 60.167969 79.558594 60.167969 C 80.195312 60.167969 80.421875 60.550781 80.421875 61.195312 L 80.421875 63.382812 Z M 81.007812 63.382812 "/>
<path fill-rule="nonzero" fill="rgb(0%, 0%, 0%)" fill-opacity="1" d="M 84.757812 62.367188 C 84.757812 61.640625 84.261719 61.414062 83.601562 61.285156 L 83.347656 61.234375 C 82.992188 61.160156 82.46875 61.082031 82.46875 60.6875 C 82.496094 60.230469 83.027344 60.144531 83.433594 60.144531 C 84.082031 60.167969 84.03125 60.207031 84.578125 60.433594 L 84.578125 59.835938 C 84.234375 59.699219 83.804688 59.632812 83.359375 59.632812 C 82.636719 59.632812 81.921875 59.902344 81.921875 60.714844 C 81.9375 61.375 82.382812 61.628906 82.992188 61.742188 L 83.21875 61.792969 C 83.664062 61.894531 84.171875 61.945312 84.171875 62.417969 C 84.148438 62.875 83.625 62.960938 83.21875 62.960938 C 82.546875 62.949219 82.445312 62.875 81.859375 62.59375 L 81.859375 63.253906 C 82.203125 63.34375 82.800781 63.484375 83.207031 63.484375 C 83.917969 63.484375 84.757812 63.214844 84.757812 62.367188 Z M 84.757812 62.367188 "/>
<path fill-rule="nonzero" fill="rgb(0%, 0%, 0%)" fill-opacity="1" d="M 88.773438 63.382812 L 88.773438 59.722656 L 88.148438 59.722656 L 88.148438 61.792969 C 88.148438 62.480469 87.808594 62.949219 87.070312 62.949219 C 86.421875 62.949219 86.195312 62.542969 86.195312 61.921875 L 86.195312 59.722656 L 85.609375 59.722656 L 85.609375 61.933594 C 85.609375 62.796875 86.015625 63.484375 86.929688 63.484375 C 87.402344 63.484375 87.882812 63.214844 88.148438 62.898438 L 88.148438 63.382812 Z M 88.773438 63.382812 "/>
<path fill-rule="nonzero" fill="rgb(0%, 0%, 0%)" fill-opacity="1" d="M 93.246094 61.550781 C 93.246094 60.484375 92.535156 59.722656 91.453125 59.722656 L 89.890625 59.722656 L 89.890625 65.335938 L 90.5 65.335938 L 90.5 63.382812 L 91.402344 63.382812 C 92.585938 63.382812 93.246094 62.644531 93.246094 61.550781 Z M 92.660156 61.550781 C 92.660156 62.277344 92.203125 62.847656 91.402344 62.847656 L 90.5 62.847656 L 90.5 60.257812 L 91.402344 60.257812 C 92.191406 60.257812 92.660156 60.777344 92.660156 61.550781 Z M 92.660156 61.550781 "/>
<path fill-rule="nonzero" fill="rgb(0%, 0%, 0%)" fill-opacity="1" d="M 97.3125 61.550781 L 97.3125 61.488281 C 97.3125 60.433594 96.882812 59.660156 95.675781 59.632812 C 94.59375 59.632812 93.984375 60.574219 93.984375 61.589844 C 93.984375 62.695312 94.660156 63.484375 95.777344 63.484375 C 96.285156 63.484375 96.742188 63.367188 97.1875 63.203125 L 97.1875 62.59375 C 96.601562 62.875 96.511719 62.9375 95.828125 62.9375 C 95.066406 62.9375 94.609375 62.480469 94.609375 61.617188 L 94.609375 61.550781 Z M 96.714844 61.058594 L 94.632812 61.058594 C 94.710938 60.574219 95.066406 60.15625 95.675781 60.15625 C 96.308594 60.15625 96.714844 60.550781 96.714844 61.058594 Z M 96.714844 61.058594 "/>
<path fill-rule="nonzero" fill="rgb(0%, 0%, 0%)" fill-opacity="1" d="M 100.226562 60.460938 L 100.414062 59.875 C 100.328125 59.773438 99.933594 59.671875 99.667969 59.671875 C 99.285156 59.683594 98.96875 59.875 98.800781 60.21875 L 98.800781 59.722656 L 98.191406 59.722656 L 98.191406 63.382812 L 98.800781 63.382812 L 98.800781 61.449219 C 98.800781 61.4375 98.800781 61.425781 98.800781 61.425781 C 98.800781 60.890625 99.082031 60.195312 99.652344 60.195312 L 99.691406 60.195312 C 99.882812 60.195312 100.035156 60.308594 100.226562 60.460938 Z M 100.226562 60.460938 "/>
<path fill-rule="nonzero" fill="rgb(0%, 0%, 0%)" fill-opacity="1" d="M 104.363281 59.722656 L 103.804688 59.722656 L 102.585938 62.289062 L 101.355469 59.722656 L 100.796875 59.722656 L 102.585938 63.496094 Z M 104.363281 59.722656 "/>
<path fill-rule="nonzero" fill="rgb(0%, 0%, 0%)" fill-opacity="1" d="M 105.695312 63.382812 L 105.695312 59.722656 L 105.085938 59.722656 L 105.085938 63.382812 Z M 105.390625 57.78125 C 105.199219 57.78125 105.035156 57.957031 105.035156 58.148438 C 105.035156 58.351562 105.199219 58.53125 105.390625 58.53125 C 105.59375 58.53125 105.746094 58.351562 105.746094 58.148438 C 105.746094 57.957031 105.59375 57.78125 105.390625 57.78125 Z M 105.390625 57.78125 "/>
<path fill-rule="nonzero" fill="rgb(0%, 0%, 0%)" fill-opacity="1" d="M 109.488281 62.367188 C 109.488281 61.640625 108.996094 61.414062 108.335938 61.285156 L 108.078125 61.234375 C 107.722656 61.160156 107.203125 61.082031 107.203125 60.6875 C 107.230469 60.230469 107.761719 60.144531 108.167969 60.144531 C 108.816406 60.167969 108.765625 60.207031 109.3125 60.433594 L 109.3125 59.835938 C 108.96875 59.699219 108.539062 59.632812 108.09375 59.632812 C 107.367188 59.632812 106.65625 59.902344 106.65625 60.714844 C 106.671875 61.375 107.113281 61.628906 107.722656 61.742188 L 107.953125 61.792969 C 108.398438 61.894531 108.90625 61.945312 108.90625 62.417969 C 108.878906 62.875 108.359375 62.960938 107.953125 62.960938 C 107.28125 62.949219 107.179688 62.875 106.59375 62.59375 L 106.59375 63.253906 C 106.9375 63.34375 107.535156 63.484375 107.941406 63.484375 C 108.652344 63.484375 109.488281 63.214844 109.488281 62.367188 Z M 109.488281 62.367188 "/>
<path fill-rule="nonzero" fill="rgb(0%, 0%, 0%)" fill-opacity="1" d="M 113.519531 61.550781 L 113.519531 61.488281 C 113.519531 60.433594 113.085938 59.660156 111.878906 59.632812 C 110.800781 59.632812 110.191406 60.574219 110.191406 61.589844 C 110.191406 62.695312 110.863281 63.484375 111.980469 63.484375 C 112.488281 63.484375 112.945312 63.367188 113.390625 63.203125 L 113.390625 62.59375 C 112.808594 62.875 112.71875 62.9375 112.03125 62.9375 C 111.269531 62.9375 110.8125 62.480469 110.8125 61.617188 L 110.8125 61.550781 Z M 112.921875 61.058594 L 110.839844 61.058594 C 110.914062 60.574219 111.269531 60.15625 111.878906 60.15625 C 112.515625 60.15625 112.921875 60.550781 112.921875 61.058594 Z M 112.921875 61.058594 "/>
<path fill-rule="nonzero" fill="rgb(0%, 0%, 0%)" fill-opacity="1" d="M 114.195312 61.550781 C 114.195312 62.632812 114.90625 63.382812 116 63.382812 L 117.546875 63.382812 L 117.546875 57.78125 L 116.9375 57.78125 L 116.9375 59.722656 L 116.050781 59.722656 C 114.855469 59.722656 114.195312 60.460938 114.195312 61.550781 Z M 114.78125 61.550781 C 114.78125 60.839844 115.238281 60.257812 116.050781 60.257812 L 116.9375 60.257812 L 116.9375 62.847656 L 116.050781 62.847656 C 115.25 62.847656 114.78125 62.339844 114.78125 61.550781 Z M 114.78125 61.550781 "/>
<path fill-rule="nonzero" fill="rgb(0%, 0%, 0%)" fill-opacity="1" d="M 82.558594 67.5 L 83.15625 67.5 L 83.15625 73.101562 L 82.558594 73.101562 Z M 82.558594 67.5 "/>
<path fill-rule="nonzero" fill="rgb(0%, 0%, 0%)" fill-opacity="1" d="M 87.402344 71.269531 L 87.402344 71.207031 C 87.402344 70.152344 86.972656 69.378906 85.765625 69.351562 C 84.6875 69.351562 84.078125 70.292969 84.078125 71.308594 C 84.078125 72.414062 84.75 73.203125 85.867188 73.203125 C 86.375 73.203125 86.832031 73.085938 87.277344 72.921875 L 87.277344 72.3125 C 86.691406 72.59375 86.605469 72.65625 85.917969 72.65625 C 85.15625 72.65625 84.699219 72.199219 84.699219 71.335938 L 84.699219 71.269531 Z M 86.808594 70.777344 L 84.722656 70.777344 C 84.800781 70.292969 85.15625 69.875 85.765625 69.875 C 86.402344 69.875 86.808594 70.269531 86.808594 70.777344 Z M 86.808594 70.777344 "/>
<path fill-rule="nonzero" fill="rgb(0%, 0%, 0%)" fill-opacity="1" d="M 91.089844 73.101562 L 91.089844 71.015625 C 91.089844 69.960938 90.644531 69.351562 89.554688 69.351562 C 89.160156 69.351562 88.675781 69.480469 88.320312 69.605469 L 88.320312 70.203125 C 88.691406 70 88.996094 69.875 89.503906 69.875 C 90.085938 69.886719 90.53125 70.179688 90.53125 70.789062 L 89.695312 70.789062 C 88.828125 70.789062 88.066406 71.082031 88.066406 72.03125 C 88.09375 72.769531 88.523438 73.203125 89.261719 73.203125 C 89.78125 73.203125 90.253906 72.984375 90.53125 72.617188 L 90.53125 73.101562 Z M 90.53125 71.398438 C 90.53125 72.109375 90.203125 72.679688 89.441406 72.679688 C 88.996094 72.679688 88.625 72.476562 88.625 71.996094 C 88.625 71.285156 89.300781 71.285156 89.933594 71.285156 L 90.53125 71.285156 Z M 90.53125 71.398438 "/>
<path fill-rule="nonzero" fill="rgb(0%, 0%, 0%)" fill-opacity="1" d="M 94.195312 70.179688 L 94.386719 69.59375 C 94.296875 69.492188 93.902344 69.390625 93.636719 69.390625 C 93.253906 69.402344 92.9375 69.59375 92.773438 69.9375 L 92.773438 69.441406 L 92.164062 69.441406 L 92.164062 73.101562 L 92.773438 73.101562 L 92.773438 71.167969 C 92.773438 71.15625 92.773438 71.144531 92.773438 71.144531 C 92.773438 70.609375 93.050781 69.910156 93.625 69.910156 L 93.660156 69.910156 C 93.851562 69.910156 94.003906 70.027344 94.195312 70.179688 Z M 94.195312 70.179688 "/>
<path fill-rule="nonzero" fill="rgb(0%, 0%, 0%)" fill-opacity="1" d="M 98.148438 73.101562 L 98.148438 70.890625 C 98.148438 70.027344 97.78125 69.351562 96.839844 69.351562 C 96.371094 69.351562 95.886719 69.53125 95.59375 69.9375 L 95.59375 69.441406 L 94.996094 69.441406 L 94.996094 73.101562 L 95.59375 73.101562 L 95.59375 71.03125 C 95.621094 70.332031 96.050781 69.886719 96.699219 69.886719 C 97.335938 69.886719 97.5625 70.269531 97.5625 70.914062 L 97.5625 73.101562 Z M 98.148438 73.101562 "/>
<path fill-rule="nonzero" fill="rgb(0%, 0%, 0%)" fill-opacity="1" d="M 99.828125 73.101562 L 99.828125 69.441406 L 99.21875 69.441406 L 99.21875 73.101562 Z M 99.523438 67.5 C 99.332031 67.5 99.167969 67.675781 99.167969 67.867188 C 99.167969 68.070312 99.332031 68.246094 99.523438 68.246094 C 99.726562 68.246094 99.878906 68.070312 99.878906 67.867188 C 99.878906 67.675781 99.726562 67.5 99.523438 67.5 Z M 99.523438 67.5 "/>
<path fill-rule="nonzero" fill="rgb(0%, 0%, 0%)" fill-opacity="1" d="M 104.09375 73.101562 L 104.09375 70.890625 C 104.09375 70.027344 103.722656 69.351562 102.785156 69.351562 C 102.3125 69.351562 101.832031 69.53125 101.539062 69.9375 L 101.539062 69.441406 L 100.941406 69.441406 L 100.941406 73.101562 L 101.539062 73.101562 L 101.539062 71.03125 C 101.566406 70.332031 101.996094 69.886719 102.644531 69.886719 C 103.28125 69.886719 103.507812 70.269531 103.507812 70.914062 L 103.507812 73.101562 Z M 104.09375 73.101562 "/>
<path fill-rule="nonzero" fill="rgb(0%, 0%, 0%)" fill-opacity="1" d="M 106.265625 73.011719 C 106.953125 73.011719 107.421875 73.339844 107.421875 73.785156 C 107.421875 74.230469 106.953125 74.546875 106.265625 74.546875 C 105.582031 74.546875 105.199219 74.230469 105.199219 73.785156 C 105.199219 73.339844 105.582031 73.011719 106.265625 73.011719 Z M 106.265625 72.492188 C 106.203125 72.492188 106.140625 72.492188 106.0625 72.503906 C 105.683594 72.503906 105.351562 72.273438 105.351562 72.121094 C 105.351562 71.945312 105.554688 71.878906 105.707031 71.878906 L 105.757812 71.878906 C 105.886719 71.996094 106.265625 72.03125 106.382812 72.03125 C 107.078125 72.03125 107.636719 71.4375 107.636719 70.699219 C 107.636719 70.40625 107.535156 70.128906 107.371094 69.910156 L 107.96875 69.910156 L 107.96875 69.453125 L 106.941406 69.453125 C 106.773438 69.402344 106.546875 69.378906 106.417969 69.378906 C 105.71875 69.378906 105.136719 69.976562 105.109375 70.699219 C 105.109375 71.054688 105.238281 71.371094 105.464844 71.601562 C 105.199219 71.652344 104.90625 71.828125 104.90625 72.171875 C 104.90625 72.390625 105.046875 72.59375 105.339844 72.71875 C 104.871094 72.960938 104.589844 73.355469 104.589844 73.773438 C 104.589844 74.433594 105.261719 75.042969 106.265625 75.042969 C 107.28125 75.042969 108.109375 74.433594 108.109375 73.785156 C 108.109375 72.933594 107.117188 72.492188 106.265625 72.492188 Z M 106.382812 69.886719 C 106.8125 69.886719 107.167969 70.242188 107.167969 70.6875 C 107.167969 71.117188 106.8125 71.472656 106.382812 71.472656 C 105.9375 71.472656 105.59375 71.117188 105.59375 70.6875 C 105.59375 70.242188 105.9375 69.886719 106.382812 69.886719 Z M 106.382812 69.886719 "/>
<path fill-rule="nonzero" fill="rgb(0%, 0%, 0%)" fill-opacity="1" d="M 134.90625 63.46875 C 134.332031 62.824219 134.21875 61.324219 133.394531 60.816406 C 134.28125 60.574219 134.433594 60.117188 134.433594 59.457031 C 134.433594 58.339844 133.789062 57.867188 132.71875 57.867188 L 131.144531 57.867188 L 131.144531 63.46875 L 131.753906 63.46875 L 131.753906 61.070312 L 132.644531 61.070312 C 133.011719 61.070312 133.328125 61.386719 133.636719 62.023438 C 133.824219 62.519531 133.875 63.113281 134.269531 63.46875 Z M 133.839844 59.457031 C 133.839844 60.167969 133.40625 60.511719 132.71875 60.511719 L 131.753906 60.511719 L 131.753906 58.429688 L 132.71875 58.429688 C 133.394531 58.441406 133.839844 58.707031 133.839844 59.457031 Z M 133.839844 59.457031 "/>
<path fill-rule="nonzero" fill="rgb(0%, 0%, 0%)" fill-opacity="1" d="M 138.574219 61.640625 L 138.574219 61.578125 C 138.574219 60.523438 138.144531 59.75 136.9375 59.722656 C 135.855469 59.722656 135.246094 60.664062 135.246094 61.679688 C 135.246094 62.785156 135.921875 63.570312 137.039062 63.570312 C 137.546875 63.570312 138.003906 63.457031 138.449219 63.292969 L 138.449219 62.683594 C 137.863281 62.960938 137.773438 63.027344 137.089844 63.027344 C 136.328125 63.027344 135.871094 62.570312 135.871094 61.703125 L 135.871094 61.640625 Z M 137.976562 61.144531 L 135.894531 61.144531 C 135.972656 60.664062 136.328125 60.242188 136.9375 60.242188 C 137.570312 60.242188 137.976562 60.636719 137.976562 61.144531 Z M 137.976562 61.144531 "/>
<path fill-rule="nonzero" fill="rgb(0%, 0%, 0%)" fill-opacity="1" d="M 140.0625 63.46875 L 140.0625 59.8125 L 139.453125 59.8125 L 139.453125 63.46875 Z M 139.757812 57.867188 C 139.570312 57.867188 139.402344 58.046875 139.402344 58.238281 C 139.402344 58.441406 139.570312 58.617188 139.757812 58.617188 C 139.960938 58.617188 140.113281 58.441406 140.113281 58.238281 C 140.113281 58.046875 139.960938 57.867188 139.757812 57.867188 Z M 139.757812 57.867188 "/>
<path fill-rule="nonzero" fill="rgb(0%, 0%, 0%)" fill-opacity="1" d="M 144.328125 63.46875 L 144.328125 61.261719 C 144.328125 60.398438 143.960938 59.722656 143.019531 59.722656 C 142.550781 59.722656 142.070312 59.902344 141.777344 60.308594 L 141.777344 59.8125 L 141.179688 59.8125 L 141.179688 63.46875 L 141.777344 63.46875 L 141.777344 61.398438 C 141.800781 60.703125 142.234375 60.257812 142.882812 60.257812 C 143.515625 60.257812 143.746094 60.636719 143.746094 61.285156 L 143.746094 63.46875 Z M 144.328125 63.46875 "/>
<path fill-rule="nonzero" fill="rgb(0%, 0%, 0%)" fill-opacity="1" d="M 147.429688 58.375 L 147.429688 57.867188 L 146.847656 57.867188 C 146.261719 57.867188 145.679688 58.261719 145.652344 59.328125 L 145.652344 59.8125 L 145.054688 59.8125 L 145.054688 60.308594 L 145.652344 60.308594 L 145.652344 63.46875 L 146.261719 63.46875 L 146.261719 60.308594 L 147.292969 60.308594 L 147.292969 59.8125 L 146.261719 59.8125 L 146.261719 59.253906 C 146.261719 58.542969 146.667969 58.375 146.835938 58.375 Z M 147.429688 58.375 "/>
<path fill-rule="nonzero" fill="rgb(0%, 0%, 0%)" fill-opacity="1" d="M 151.007812 61.640625 C 151.007812 60.714844 150.511719 59.722656 149.292969 59.722656 C 148.1875 59.722656 147.566406 60.574219 147.566406 61.640625 C 147.566406 62.644531 148.214844 63.546875 149.292969 63.570312 C 150.386719 63.546875 151.007812 62.671875 151.007812 61.640625 Z M 150.410156 61.640625 C 150.410156 62.367188 149.964844 63.011719 149.292969 63.011719 C 148.378906 63 148.175781 62.1875 148.175781 61.628906 C 148.175781 60.890625 148.53125 60.28125 149.292969 60.269531 C 150.003906 60.28125 150.410156 60.941406 150.410156 61.640625 Z M 150.410156 61.640625 "/>
<path fill-rule="nonzero" fill="rgb(0%, 0%, 0%)" fill-opacity="1" d="M 153.992188 60.550781 L 154.183594 59.964844 C 154.09375 59.863281 153.699219 59.761719 153.433594 59.761719 C 153.050781 59.773438 152.734375 59.964844 152.570312 60.308594 L 152.570312 59.8125 L 151.960938 59.8125 L 151.960938 63.46875 L 152.570312 63.46875 L 152.570312 61.539062 C 152.570312 61.527344 152.570312 61.515625 152.570312 61.515625 C 152.570312 60.980469 152.847656 60.28125 153.417969 60.28125 L 153.457031 60.28125 C 153.648438 60.28125 153.800781 60.398438 153.992188 60.550781 Z M 153.992188 60.550781 "/>
<path fill-rule="nonzero" fill="rgb(0%, 0%, 0%)" fill-opacity="1" d="M 157.414062 63.34375 L 157.414062 62.746094 C 157.019531 62.949219 156.855469 63.050781 156.347656 63.050781 C 155.457031 63.039062 155.027344 62.519531 155.027344 61.640625 C 155.027344 60.789062 155.472656 60.242188 156.347656 60.242188 C 156.832031 60.269531 157.007812 60.347656 157.414062 60.550781 L 157.414062 59.9375 C 157.085938 59.835938 156.730469 59.722656 156.308594 59.722656 C 155.117188 59.722656 154.417969 60.484375 154.417969 61.640625 C 154.441406 62.785156 155.089844 63.570312 156.269531 63.570312 C 156.679688 63.570312 157.109375 63.457031 157.414062 63.34375 Z M 157.414062 63.34375 "/>
<path fill-rule="nonzero" fill="rgb(0%, 0%, 0%)" fill-opacity="1" d="M 161.40625 61.640625 L 161.40625 61.578125 C 161.40625 60.523438 160.972656 59.75 159.765625 59.722656 C 158.6875 59.722656 158.078125 60.664062 158.078125 61.679688 C 158.078125 62.785156 158.75 63.570312 159.867188 63.570312 C 160.375 63.570312 160.832031 63.457031 161.277344 63.292969 L 161.277344 62.683594 C 160.695312 62.960938 160.605469 63.027344 159.917969 63.027344 C 159.15625 63.027344 158.699219 62.570312 158.699219 61.703125 L 158.699219 61.640625 Z M 160.808594 61.144531 L 158.726562 61.144531 C 158.800781 60.664062 159.15625 60.242188 159.765625 60.242188 C 160.402344 60.242188 160.808594 60.636719 160.808594 61.144531 Z M 160.808594 61.144531 "/>
<path fill-rule="nonzero" fill="rgb(0%, 0%, 0%)" fill-opacity="1" d="M 167.722656 63.46875 L 167.722656 61.261719 C 167.722656 60.472656 167.429688 59.722656 166.527344 59.722656 C 165.96875 59.722656 165.511719 60.015625 165.21875 60.460938 C 165.027344 60.027344 164.621094 59.722656 164.101562 59.722656 C 163.617188 59.722656 163.148438 59.976562 162.882812 60.308594 L 162.882812 59.8125 L 162.285156 59.8125 L 162.285156 63.46875 L 162.882812 63.46875 L 162.882812 61.398438 C 162.90625 60.753906 163.300781 60.257812 163.886719 60.257812 L 163.921875 60.257812 C 164.535156 60.257812 164.710938 60.636719 164.710938 61.285156 L 164.710938 63.46875 L 165.296875 63.46875 L 165.296875 61.398438 C 165.308594 60.714844 165.652344 60.257812 166.363281 60.257812 C 166.972656 60.257812 167.148438 60.675781 167.148438 61.285156 L 167.148438 63.46875 Z M 167.722656 63.46875 "/>
<path fill-rule="nonzero" fill="rgb(0%, 0%, 0%)" fill-opacity="1" d="M 171.933594 61.640625 L 171.933594 61.578125 C 171.933594 60.523438 171.503906 59.75 170.296875 59.722656 C 169.214844 59.722656 168.605469 60.664062 168.605469 61.679688 C 168.605469 62.785156 169.277344 63.570312 170.398438 63.570312 C 170.90625 63.570312 171.363281 63.457031 171.808594 63.292969 L 171.808594 62.683594 C 171.222656 62.960938 171.132812 63.027344 170.449219 63.027344 C 169.6875 63.027344 169.226562 62.570312 169.226562 61.703125 L 169.226562 61.640625 Z M 171.335938 61.144531 L 169.253906 61.144531 C 169.328125 60.664062 169.6875 60.242188 170.296875 60.242188 C 170.929688 60.242188 171.335938 60.636719 171.335938 61.144531 Z M 171.335938 61.144531 "/>
<path fill-rule="nonzero" fill="rgb(0%, 0%, 0%)" fill-opacity="1" d="M 175.964844 63.46875 L 175.964844 61.261719 C 175.964844 60.398438 175.59375 59.722656 174.65625 59.722656 C 174.183594 59.722656 173.703125 59.902344 173.410156 60.308594 L 173.410156 59.8125 L 172.8125 59.8125 L 172.8125 63.46875 L 173.410156 63.46875 L 173.410156 61.398438 C 173.4375 60.703125 173.867188 60.257812 174.515625 60.257812 C 175.152344 60.257812 175.378906 60.636719 175.378906 61.285156 L 175.378906 63.46875 Z M 175.964844 63.46875 "/>
<path fill-rule="nonzero" fill="rgb(0%, 0%, 0%)" fill-opacity="1" d="M 179.078125 63.46875 L 179.078125 62.949219 L 178.441406 62.949219 C 177.871094 62.949219 177.769531 62.808594 177.769531 62.277344 L 177.769531 60.296875 L 178.847656 60.296875 L 178.847656 59.8125 L 177.769531 59.8125 L 177.769531 58.769531 L 177.515625 58.769531 L 177.171875 59.8125 L 176.742188 59.8125 L 176.742188 60.296875 L 177.171875 60.296875 L 177.171875 62.277344 C 177.171875 63.191406 177.542969 63.46875 178.441406 63.46875 Z M 179.078125 63.46875 "/>
<path fill-rule="nonzero" fill="rgb(0%, 0%, 0%)" fill-opacity="1" d="M 142.261719 67.585938 L 142.859375 67.585938 L 142.859375 73.1875 L 142.261719 73.1875 Z M 142.261719 67.585938 "/>
<path fill-rule="nonzero" fill="rgb(0%, 0%, 0%)" fill-opacity="1" d="M 147.109375 71.359375 L 147.109375 71.296875 C 147.109375 70.242188 146.675781 69.46875 145.46875 69.441406 C 144.390625 69.441406 143.78125 70.382812 143.78125 71.398438 C 143.78125 72.503906 144.453125 73.289062 145.570312 73.289062 C 146.078125 73.289062 146.535156 73.175781 146.980469 73.011719 L 146.980469 72.402344 C 146.394531 72.679688 146.308594 72.746094 145.621094 72.746094 C 144.859375 72.746094 144.402344 72.285156 144.402344 71.421875 L 144.402344 71.359375 Z M 146.511719 70.863281 L 144.425781 70.863281 C 144.503906 70.382812 144.859375 69.960938 145.46875 69.960938 C 146.105469 69.960938 146.511719 70.355469 146.511719 70.863281 Z M 146.511719 70.863281 "/>
<path fill-rule="nonzero" fill="rgb(0%, 0%, 0%)" fill-opacity="1" d="M 150.792969 73.1875 L 150.792969 71.105469 C 150.792969 70.050781 150.351562 69.441406 149.257812 69.441406 C 148.863281 69.441406 148.382812 69.570312 148.023438 69.695312 L 148.023438 70.292969 C 148.394531 70.089844 148.699219 69.960938 149.207031 69.960938 C 149.789062 69.976562 150.234375 70.265625 150.234375 70.878906 L 149.398438 70.878906 C 148.535156 70.878906 147.769531 71.167969 147.769531 72.121094 C 147.796875 72.859375 148.230469 73.289062 148.964844 73.289062 C 149.484375 73.289062 149.957031 73.074219 150.234375 72.707031 L 150.234375 73.1875 Z M 150.234375 71.488281 C 150.234375 72.199219 149.90625 72.769531 149.144531 72.769531 C 148.699219 72.769531 148.332031 72.566406 148.332031 72.082031 C 148.332031 71.371094 149.003906 71.371094 149.636719 71.371094 L 150.234375 71.371094 Z M 150.234375 71.488281 "/>
<path fill-rule="nonzero" fill="rgb(0%, 0%, 0%)" fill-opacity="1" d="M 153.898438 70.265625 L 154.089844 69.683594 C 154 69.582031 153.605469 69.480469 153.339844 69.480469 C 152.957031 69.492188 152.640625 69.683594 152.476562 70.027344 L 152.476562 69.53125 L 151.867188 69.53125 L 151.867188 73.1875 L 152.476562 73.1875 L 152.476562 71.257812 C 152.476562 71.246094 152.476562 71.234375 152.476562 71.234375 C 152.476562 70.699219 152.753906 70 153.328125 70 L 153.367188 70 C 153.554688 70 153.707031 70.113281 153.898438 70.265625 Z M 153.898438 70.265625 "/>
<path fill-rule="nonzero" fill="rgb(0%, 0%, 0%)" fill-opacity="1" d="M 157.851562 73.1875 L 157.851562 70.980469 C 157.851562 70.113281 157.484375 69.441406 156.542969 69.441406 C 156.074219 69.441406 155.589844 69.621094 155.296875 70.027344 L 155.296875 69.53125 L 154.699219 69.53125 L 154.699219 73.1875 L 155.296875 73.1875 L 155.296875 71.117188 C 155.324219 70.417969 155.753906 69.976562 156.402344 69.976562 C 157.039062 69.976562 157.265625 70.355469 157.265625 71.003906 L 157.265625 73.1875 Z M 157.851562 73.1875 "/>
<path fill-rule="nonzero" fill="rgb(0%, 0%, 0%)" fill-opacity="1" d="M 159.53125 73.1875 L 159.53125 69.53125 L 158.921875 69.53125 L 158.921875 73.1875 Z M 159.226562 67.585938 C 159.035156 67.585938 158.871094 67.765625 158.871094 67.957031 C 158.871094 68.160156 159.035156 68.335938 159.226562 68.335938 C 159.429688 68.335938 159.582031 68.160156 159.582031 67.957031 C 159.582031 67.765625 159.429688 67.585938 159.226562 67.585938 Z M 159.226562 67.585938 "/>
<path fill-rule="nonzero" fill="rgb(0%, 0%, 0%)" fill-opacity="1" d="M 163.796875 73.1875 L 163.796875 70.980469 C 163.796875 70.113281 163.425781 69.441406 162.488281 69.441406 C 162.015625 69.441406 161.535156 69.621094 161.242188 70.027344 L 161.242188 69.53125 L 160.644531 69.53125 L 160.644531 73.1875 L 161.242188 73.1875 L 161.242188 71.117188 C 161.269531 70.417969 161.699219 69.976562 162.347656 69.976562 C 162.984375 69.976562 163.210938 70.355469 163.210938 71.003906 L 163.210938 73.1875 Z M 163.796875 73.1875 "/>
<path fill-rule="nonzero" fill="rgb(0%, 0%, 0%)" fill-opacity="1" d="M 165.96875 73.101562 C 166.65625 73.101562 167.125 73.429688 167.125 73.875 C 167.125 74.320312 166.65625 74.636719 165.96875 74.636719 C 165.285156 74.636719 164.902344 74.320312 164.902344 73.875 C 164.902344 73.429688 165.285156 73.101562 165.96875 73.101562 Z M 165.96875 72.578125 C 165.90625 72.578125 165.84375 72.578125 165.765625 72.59375 C 165.386719 72.59375 165.054688 72.363281 165.054688 72.210938 C 165.054688 72.03125 165.257812 71.96875 165.410156 71.96875 L 165.460938 71.96875 C 165.589844 72.082031 165.96875 72.121094 166.085938 72.121094 C 166.78125 72.121094 167.34375 71.523438 167.34375 70.789062 C 167.34375 70.496094 167.242188 70.214844 167.074219 70 L 167.671875 70 L 167.671875 69.542969 L 166.644531 69.542969 C 166.476562 69.492188 166.25 69.46875 166.121094 69.46875 C 165.425781 69.46875 164.839844 70.0625 164.8125 70.789062 C 164.8125 71.144531 164.941406 71.460938 165.171875 71.691406 C 164.902344 71.742188 164.609375 71.917969 164.609375 72.261719 C 164.609375 72.476562 164.75 72.679688 165.042969 72.808594 C 164.574219 73.050781 164.292969 73.441406 164.292969 73.863281 C 164.292969 74.523438 164.964844 75.132812 165.96875 75.132812 C 166.988281 75.132812 167.8125 74.523438 167.8125 73.875 C 167.8125 73.023438 166.820312 72.578125 165.96875 72.578125 Z M 166.085938 69.976562 C 166.515625 69.976562 166.871094 70.332031 166.871094 70.777344 C 166.871094 71.207031 166.515625 71.5625 166.085938 71.5625 C 165.640625 71.5625 165.296875 71.207031 165.296875 70.777344 C 165.296875 70.332031 165.640625 69.976562 166.085938 69.976562 Z M 166.085938 69.976562 "/>
<path fill-rule="nonzero" fill="rgb(0%, 0%, 0%)" fill-opacity="1" d="M 76.679688 90.222656 C 76.679688 88.214844 75.738281 87.425781 73.796875 87.425781 L 72.375 87.425781 L 72.375 93.027344 L 73.796875 93.027344 C 75.738281 93.027344 76.679688 92.214844 76.679688 90.222656 Z M 76.09375 90.222656 C 76.09375 91.746094 75.410156 92.46875 73.910156 92.46875 L 72.984375 92.46875 L 72.984375 87.984375 L 73.910156 87.984375 C 75.410156 88 76.09375 88.648438 76.09375 90.222656 Z M 76.09375 90.222656 "/>
<path fill-rule="nonzero" fill="rgb(0%, 0%, 0%)" fill-opacity="1" d="M 80.734375 91.199219 L 80.734375 91.136719 C 80.734375 90.082031 80.304688 89.308594 79.097656 89.28125 C 78.015625 89.28125 77.40625 90.222656 77.40625 91.238281 C 77.40625 92.34375 78.082031 93.128906 79.199219 93.128906 C 79.707031 93.128906 80.164062 93.015625 80.609375 92.851562 L 80.609375 92.242188 C 80.023438 92.519531 79.933594 92.585938 79.25 92.585938 C 78.488281 92.585938 78.03125 92.125 78.03125 91.261719 L 78.03125 91.199219 Z M 80.136719 90.703125 L 78.054688 90.703125 C 78.132812 90.222656 78.488281 89.800781 79.097656 89.800781 C 79.730469 89.800781 80.136719 90.195312 80.136719 90.703125 Z M 80.136719 90.703125 "/>
<path fill-rule="nonzero" fill="rgb(0%, 0%, 0%)" fill-opacity="1" d="M 84.75 91.199219 L 84.75 91.136719 C 84.75 90.082031 84.320312 89.308594 83.113281 89.28125 C 82.035156 89.28125 81.425781 90.222656 81.425781 91.238281 C 81.425781 92.34375 82.097656 93.128906 83.214844 93.128906 C 83.722656 93.128906 84.179688 93.015625 84.625 92.851562 L 84.625 92.242188 C 84.039062 92.519531 83.953125 92.585938 83.265625 92.585938 C 82.503906 92.585938 82.046875 92.125 82.046875 91.261719 L 82.046875 91.199219 Z M 84.15625 90.703125 L 82.070312 90.703125 C 82.148438 90.222656 82.503906 89.800781 83.113281 89.800781 C 83.75 89.800781 84.15625 90.195312 84.15625 90.703125 Z M 84.15625 90.703125 "/>
<path fill-rule="nonzero" fill="rgb(0%, 0%, 0%)" fill-opacity="1" d="M 88.984375 91.199219 C 88.984375 90.132812 88.273438 89.371094 87.195312 89.371094 L 85.632812 89.371094 L 85.632812 94.984375 L 86.242188 94.984375 L 86.242188 93.027344 L 87.144531 93.027344 C 88.324219 93.027344 88.984375 92.292969 88.984375 91.199219 Z M 88.402344 91.199219 C 88.402344 91.921875 87.941406 92.496094 87.144531 92.496094 L 86.242188 92.496094 L 86.242188 89.902344 L 87.144531 89.902344 C 87.929688 89.902344 88.402344 90.425781 88.402344 91.199219 Z M 88.402344 91.199219 "/>
<path fill-rule="nonzero" fill="rgb(0%, 0%, 0%)" fill-opacity="1" d="M 92.257812 87.425781 L 92.851562 87.425781 L 92.851562 93.027344 L 92.257812 93.027344 Z M 92.257812 87.425781 "/>
<path fill-rule="nonzero" fill="rgb(0%, 0%, 0%)" fill-opacity="1" d="M 97.101562 91.199219 L 97.101562 91.136719 C 97.101562 90.082031 96.671875 89.308594 95.464844 89.28125 C 94.382812 89.28125 93.773438 90.222656 93.773438 91.238281 C 93.773438 92.34375 94.449219 93.128906 95.566406 93.128906 C 96.074219 93.128906 96.53125 93.015625 96.976562 92.851562 L 96.976562 92.242188 C 96.390625 92.519531 96.300781 92.585938 95.617188 92.585938 C 94.855469 92.585938 94.398438 92.125 94.398438 91.261719 L 94.398438 91.199219 Z M 96.503906 90.703125 L 94.421875 90.703125 C 94.5 90.222656 94.855469 89.800781 95.464844 89.800781 C 96.097656 89.800781 96.503906 90.195312 96.503906 90.703125 Z M 96.503906 90.703125 "/>
<path fill-rule="nonzero" fill="rgb(0%, 0%, 0%)" fill-opacity="1" d="M 100.789062 93.027344 L 100.789062 90.945312 C 100.789062 89.890625 100.34375 89.28125 99.253906 89.28125 C 98.859375 89.28125 98.375 89.410156 98.019531 89.535156 L 98.019531 90.132812 C 98.386719 89.929688 98.695312 89.800781 99.203125 89.800781 C 99.785156 89.816406 100.230469 90.105469 100.230469 90.71875 L 99.390625 90.71875 C 98.527344 90.71875 97.765625 91.007812 97.765625 91.960938 C 97.792969 92.699219 98.222656 93.128906 98.960938 93.128906 C 99.480469 93.128906 99.949219 92.914062 100.230469 92.546875 L 100.230469 93.027344 Z M 100.230469 91.328125 C 100.230469 92.039062 99.898438 92.609375 99.136719 92.609375 C 98.695312 92.609375 98.324219 92.40625 98.324219 91.921875 C 98.324219 91.210938 99 91.210938 99.632812 91.210938 L 100.230469 91.210938 Z M 100.230469 91.328125 "/>
<path fill-rule="nonzero" fill="rgb(0%, 0%, 0%)" fill-opacity="1" d="M 103.894531 90.105469 L 104.085938 89.523438 C 103.996094 89.421875 103.601562 89.320312 103.335938 89.320312 C 102.953125 89.332031 102.636719 89.523438 102.472656 89.867188 L 102.472656 89.371094 L 101.863281 89.371094 L 101.863281 93.027344 L 102.472656 93.027344 L 102.472656 91.097656 C 102.472656 91.085938 102.472656 91.074219 102.472656 91.074219 C 102.472656 90.539062 102.75 89.839844 103.320312 89.839844 L 103.359375 89.839844 C 103.550781 89.839844 103.703125 89.953125 103.894531 90.105469 Z M 103.894531 90.105469 "/>
<path fill-rule="nonzero" fill="rgb(0%, 0%, 0%)" fill-opacity="1" d="M 107.847656 93.027344 L 107.847656 90.820312 C 107.847656 89.953125 107.476562 89.28125 106.539062 89.28125 C 106.066406 89.28125 105.585938 89.460938 105.292969 89.867188 L 105.292969 89.371094 L 104.695312 89.371094 L 104.695312 93.027344 L 105.292969 93.027344 L 105.292969 90.957031 C 105.320312 90.257812 105.75 89.816406 106.398438 89.816406 C 107.03125 89.816406 107.261719 90.195312 107.261719 90.84375 L 107.261719 93.027344 Z M 107.847656 93.027344 "/>
<path fill-rule="nonzero" fill="rgb(0%, 0%, 0%)" fill-opacity="1" d="M 109.523438 93.027344 L 109.523438 89.371094 L 108.914062 89.371094 L 108.914062 93.027344 Z M 109.21875 87.425781 C 109.03125 87.425781 108.863281 87.605469 108.863281 87.796875 C 108.863281 88 109.03125 88.175781 109.21875 88.175781 C 109.421875 88.175781 109.574219 88 109.574219 87.796875 C 109.574219 87.605469 109.421875 87.425781 109.21875 87.425781 Z M 109.21875 87.425781 "/>
<path fill-rule="nonzero" fill="rgb(0%, 0%, 0%)" fill-opacity="1" d="M 113.789062 93.027344 L 113.789062 90.820312 C 113.789062 89.953125 113.421875 89.28125 112.480469 89.28125 C 112.011719 89.28125 111.53125 89.460938 111.238281 89.867188 L 111.238281 89.371094 L 110.640625 89.371094 L 110.640625 93.027344 L 111.238281 93.027344 L 111.238281 90.957031 C 111.261719 90.257812 111.695312 89.816406 112.34375 89.816406 C 112.976562 89.816406 113.207031 90.195312 113.207031 90.84375 L 113.207031 93.027344 Z M 113.789062 93.027344 "/>
<path fill-rule="nonzero" fill="rgb(0%, 0%, 0%)" fill-opacity="1" d="M 115.964844 92.941406 C 116.652344 92.941406 117.121094 93.269531 117.121094 93.714844 C 117.121094 94.160156 116.652344 94.476562 115.964844 94.476562 C 115.277344 94.476562 114.898438 94.160156 114.898438 93.714844 C 114.898438 93.269531 115.277344 92.941406 115.964844 92.941406 Z M 115.964844 92.417969 C 115.902344 92.417969 115.839844 92.417969 115.761719 92.433594 C 115.378906 92.433594 115.050781 92.203125 115.050781 92.050781 C 115.050781 91.871094 115.253906 91.808594 115.40625 91.808594 L 115.457031 91.808594 C 115.585938 91.921875 115.964844 91.960938 116.078125 91.960938 C 116.777344 91.960938 117.335938 91.363281 117.335938 90.628906 C 117.335938 90.335938 117.234375 90.054688 117.070312 89.839844 L 117.667969 89.839844 L 117.667969 89.382812 L 116.636719 89.382812 C 116.472656 89.332031 116.246094 89.308594 116.117188 89.308594 C 115.417969 89.308594 114.835938 89.902344 114.808594 90.628906 C 114.808594 90.984375 114.9375 91.300781 115.164062 91.53125 C 114.898438 91.582031 114.605469 91.757812 114.605469 92.101562 C 114.605469 92.316406 114.746094 92.519531 115.039062 92.648438 C 114.566406 92.890625 114.289062 93.28125 114.289062 93.703125 C 114.289062 94.363281 114.960938 94.972656 115.964844 94.972656 C 116.980469 94.972656 117.808594 94.363281 117.808594 93.714844 C 117.808594 92.863281 116.816406 92.417969 115.964844 92.417969 Z M 116.078125 89.816406 C 116.511719 89.816406 116.867188 90.171875 116.867188 90.617188 C 116.867188 91.046875 116.511719 91.402344 116.078125 91.402344 C 115.636719 91.402344 115.292969 91.046875 115.292969 90.617188 C 115.292969 90.171875 115.636719 89.816406 116.078125 89.816406 Z M 116.078125 89.816406 "/>
</svg>
