<?xml version="1.0" encoding="UTF-8"?>
<svg xmlns="http://www.w3.org/2000/svg" xmlns:xlink="http://www.w3.org/1999/xlink" width="189.319977pt" height="139.377426pt" viewBox="0 0 189.319977 139.377426">
<defs>
<clipPath id="clip-0">
<path clip-rule="nonzero" d="M 0 0 L 189.320312 0 L 189.320312 139 L 0 139 Z M 0 0 "/>
</clipPath>
<clipPath id="clip-1">
<path clip-rule="nonzero" d="M 96 131 L 101 131 L 101 139.378906 L 96 139.378906 Z M 96 131 "/>
</clipPath>
</defs>
<g clip-path="url(#clip-0)">
<path fill="none" stroke-width="0.446501" stroke-linecap="butt" stroke-linejoin="miter" stroke="rgb(100%, 100%, 100%)" stroke-opacity="1" stroke-miterlimit="4" d="M 0.222656 0.542969 L 189.097656 0.542969 L 189.097656 138.449219 L 0.222656 138.449219 Z M 0.222656 0.542969 "/>
</g>
<path fill="none" stroke-width="0.566929" stroke-linecap="butt" stroke-linejoin="miter" stroke="rgb(77.645874%, 80.39093%, 81.175232%)" stroke-opacity="1" stroke-miterlimit="4" d="M 47.441406 59.585938 L 161.695312 59.585938 "/>
<path fill="none" stroke-width="0.566929" stroke-linecap="butt" stroke-linejoin="miter" stroke="rgb(77.645874%, 80.39093%, 81.175232%)" stroke-opacity="1" stroke-miterlimit="4" d="M 104.976562 2.460938 L 104.976562 116.714844 "/>
<path fill="none" stroke-width="0.850394" stroke-linecap="butt" stroke-linejoin="miter" stroke="rgb(50.195312%, 50.195312%, 50.195312%)" stroke-opacity="1" stroke-miterlimit="4" d="M 47.980469 116.921875 L 47.980469 118.734375 "/>
<path fill="none" stroke-width="0.850394" stroke-linecap="butt" stroke-linejoin="miter" stroke="rgb(50.195312%, 50.195312%, 50.195312%)" stroke-opacity="1" stroke-miterlimit="4" d="M 104.949219 116.921875 L 104.949219 118.734375 "/>
<path fill="none" stroke-width="0.850394" stroke-linecap="butt" stroke-linejoin="miter" stroke="rgb(50.195312%, 50.195312%, 50.195312%)" stroke-opacity="1" stroke-miterlimit="4" d="M 161.917969 116.921875 L 161.917969 118.734375 "/>
<path fill="none" stroke-width="0.850394" stroke-linecap="butt" stroke-linejoin="miter" stroke="rgb(50.195312%, 50.195312%, 50.195312%)" stroke-opacity="1" stroke-miterlimit="4" d="M 59.375 118.160156 L 59.375 116.921875 "/>
<path fill="none" stroke-width="0.850394" stroke-linecap="butt" stroke-linejoin="miter" stroke="rgb(50.195312%, 50.195312%, 50.195312%)" stroke-opacity="1" stroke-miterlimit="4" d="M 70.765625 118.160156 L 70.765625 116.921875 "/>
<path fill="none" stroke-width="0.850394" stroke-linecap="butt" stroke-linejoin="miter" stroke="rgb(50.195312%, 50.195312%, 50.195312%)" stroke-opacity="1" stroke-miterlimit="4" d="M 82.160156 118.160156 L 82.160156 116.921875 "/>
<path fill="none" stroke-width="0.850394" stroke-linecap="butt" stroke-linejoin="miter" stroke="rgb(50.195312%, 50.195312%, 50.195312%)" stroke-opacity="1" stroke-miterlimit="4" d="M 93.554688 118.160156 L 93.554688 116.921875 "/>
<path fill="none" stroke-width="0.850394" stroke-linecap="butt" stroke-linejoin="miter" stroke="rgb(50.195312%, 50.195312%, 50.195312%)" stroke-opacity="1" stroke-miterlimit="4" d="M 116.34375 118.160156 L 116.34375 116.921875 "/>
<path fill="none" stroke-width="0.850394" stroke-linecap="butt" stroke-linejoin="miter" stroke="rgb(50.195312%, 50.195312%, 50.195312%)" stroke-opacity="1" stroke-miterlimit="4" d="M 127.738281 118.160156 L 127.738281 116.921875 "/>
<path fill="none" stroke-width="0.850394" stroke-linecap="butt" stroke-linejoin="miter" stroke="rgb(50.195312%, 50.195312%, 50.195312%)" stroke-opacity="1" stroke-miterlimit="4" d="M 139.128906 118.160156 L 139.128906 116.921875 "/>
<path fill="none" stroke-width="0.850394" stroke-linecap="butt" stroke-linejoin="miter" stroke="rgb(50.195312%, 50.195312%, 50.195312%)" stroke-opacity="1" stroke-miterlimit="4" d="M 150.523438 118.160156 L 150.523438 116.921875 "/>
<path fill="none" stroke-width="0.850394" stroke-linecap="butt" stroke-linejoin="miter" stroke="rgb(50.195312%, 50.195312%, 50.195312%)" stroke-opacity="1" stroke-miterlimit="4" d="M 47.785156 2.796875 L 45.96875 2.796875 "/>
<path fill="none" stroke-width="0.850394" stroke-linecap="butt" stroke-linejoin="miter" stroke="rgb(50.195312%, 50.195312%, 50.195312%)" stroke-opacity="1" stroke-miterlimit="4" d="M 47.785156 59.765625 L 45.96875 59.765625 "/>
<path fill="none" stroke-width="0.850394" stroke-linecap="butt" stroke-linejoin="miter" stroke="rgb(50.195312%, 50.195312%, 50.195312%)" stroke-opacity="1" stroke-miterlimit="4" d="M 47.699219 116.734375 L 45.886719 116.734375 "/>
<path fill="none" stroke-width="0.850394" stroke-linecap="butt" stroke-linejoin="miter" stroke="rgb(50.195312%, 50.195312%, 50.195312%)" stroke-opacity="1" stroke-miterlimit="4" d="M 47.785156 17.039062 L 46.546875 17.039062 "/>
<path fill="none" stroke-width="0.850394" stroke-linecap="butt" stroke-linejoin="miter" stroke="rgb(50.195312%, 50.195312%, 50.195312%)" stroke-opacity="1" stroke-miterlimit="4" d="M 47.785156 31.28125 L 46.546875 31.28125 "/>
<path fill="none" stroke-width="0.850394" stroke-linecap="butt" stroke-linejoin="miter" stroke="rgb(50.195312%, 50.195312%, 50.195312%)" stroke-opacity="1" stroke-miterlimit="4" d="M 47.785156 45.523438 L 46.546875 45.523438 "/>
<path fill="none" stroke-width="0.850394" stroke-linecap="butt" stroke-linejoin="miter" stroke="rgb(50.195312%, 50.195312%, 50.195312%)" stroke-opacity="1" stroke-miterlimit="4" d="M 47.785156 74.007812 L 46.546875 74.007812 "/>
<path fill="none" stroke-width="0.850394" stroke-linecap="butt" stroke-linejoin="miter" stroke="rgb(50.195312%, 50.195312%, 50.195312%)" stroke-opacity="1" stroke-miterlimit="4" d="M 47.785156 88.25 L 46.546875 88.25 "/>
<path fill="none" stroke-width="0.850394" stroke-linecap="butt" stroke-linejoin="miter" stroke="rgb(50.195312%, 50.195312%, 50.195312%)" stroke-opacity="1" stroke-miterlimit="4" d="M 47.785156 102.492188 L 46.546875 102.492188 "/>
<path fill-rule="nonzero" fill="rgb(66.273499%, 33.332825%, 19.607544%)" fill-opacity="1" d="M 126.613281 52.835938 C 125.917969 52.050781 125.78125 50.230469 124.777344 49.613281 C 125.859375 49.320312 126.042969 48.765625 126.042969 47.964844 C 126.042969 46.609375 125.257812 46.039062 123.960938 46.039062 L 122.050781 46.039062 L 122.050781 52.835938 L 122.789062 52.835938 L 122.789062 49.921875 L 123.871094 49.921875 C 124.316406 49.921875 124.703125 50.308594 125.070312 51.078125 C 125.304688 51.679688 125.363281 52.402344 125.84375 52.835938 Z M 125.316406 47.964844 C 125.316406 48.828125 124.792969 49.246094 123.960938 49.246094 L 122.789062 49.246094 L 122.789062 46.714844 L 123.960938 46.714844 C 124.777344 46.730469 125.316406 47.054688 125.316406 47.964844 Z M 125.316406 47.964844 "/>
<path fill-rule="nonzero" fill="rgb(66.273499%, 33.332825%, 19.607544%)" fill-opacity="1" d="M 131.066406 50.617188 L 131.066406 50.539062 C 131.066406 49.261719 130.542969 48.320312 129.078125 48.289062 C 127.769531 48.289062 127.027344 49.429688 127.027344 50.664062 C 127.027344 52.003906 127.84375 52.960938 129.203125 52.960938 C 129.816406 52.960938 130.371094 52.820312 130.910156 52.621094 L 130.910156 51.878906 C 130.203125 52.21875 130.09375 52.296875 129.261719 52.296875 C 128.339844 52.296875 127.785156 51.742188 127.785156 50.691406 L 127.785156 50.617188 Z M 130.339844 50.015625 L 127.8125 50.015625 C 127.90625 49.429688 128.339844 48.921875 129.078125 48.921875 C 129.847656 48.921875 130.339844 49.398438 130.339844 50.015625 Z M 130.339844 50.015625 "/>
<path fill-rule="nonzero" fill="rgb(66.273499%, 33.332825%, 19.607544%)" fill-opacity="1" d="M 136.03125 52.835938 L 136.03125 52.125 L 132.890625 52.125 L 132.890625 46.039062 L 132.132812 46.039062 L 132.132812 52.835938 Z M 136.03125 52.835938 "/>
<path fill-rule="nonzero" fill="rgb(66.273499%, 33.332825%, 19.607544%)" fill-opacity="1" d="M 140.976562 50.292969 L 140.976562 46.039062 L 140.253906 46.039062 L 140.253906 50.183594 C 140.253906 51.433594 139.960938 52.3125 138.621094 52.3125 C 137.246094 52.3125 136.9375 51.464844 136.9375 50.183594 L 136.9375 46.039062 L 136.199219 46.039062 L 136.199219 50.292969 C 136.199219 51.941406 136.921875 52.972656 138.621094 52.972656 C 140.300781 52.972656 140.976562 51.910156 140.976562 50.292969 Z M 140.976562 50.292969 "/>
<path fill-rule="nonzero" fill="rgb(66.273499%, 33.332825%, 19.607544%)" fill-opacity="1" d="M 144.109375 55.300781 L 144.109375 54.902344 L 143.152344 54.902344 L 143.152344 45.855469 L 144.109375 45.855469 L 144.109375 45.453125 L 142.753906 45.453125 L 142.753906 55.300781 Z M 144.109375 55.300781 "/>
<path fill-rule="nonzero" fill="rgb(66.273499%, 33.332825%, 19.607544%)" fill-opacity="1" d="M 145.636719 52.019531 C 146.160156 51.449219 146.453125 51.203125 146.808594 50.894531 C 146.808594 50.894531 147.410156 50.371094 147.765625 50.015625 C 148.703125 49.105469 148.921875 48.628906 148.921875 48.582031 C 148.921875 48.488281 148.828125 48.488281 148.8125 48.488281 C 148.734375 48.488281 148.71875 48.503906 148.660156 48.597656 C 148.367188 49.074219 148.164062 49.230469 147.933594 49.230469 C 147.6875 49.230469 147.578125 49.074219 147.425781 48.90625 C 147.242188 48.691406 147.070312 48.488281 146.746094 48.488281 C 146.007812 48.488281 145.5625 49.398438 145.5625 49.613281 C 145.5625 49.660156 145.589844 49.722656 145.667969 49.722656 C 145.761719 49.722656 145.777344 49.675781 145.808594 49.613281 C 145.992188 49.152344 146.5625 49.152344 146.640625 49.152344 C 146.839844 49.152344 147.023438 49.214844 147.257812 49.289062 C 147.65625 49.445312 147.765625 49.445312 148.011719 49.445312 C 147.65625 49.859375 146.839844 50.570312 146.65625 50.722656 L 145.761719 51.554688 C 145.097656 52.21875 144.742188 52.773438 144.742188 52.851562 C 144.742188 52.945312 144.851562 52.945312 144.867188 52.945312 C 144.945312 52.945312 144.960938 52.929688 145.019531 52.820312 C 145.253906 52.464844 145.546875 52.203125 145.867188 52.203125 C 146.085938 52.203125 146.191406 52.296875 146.4375 52.574219 C 146.59375 52.789062 146.777344 52.945312 147.054688 52.945312 C 148.042969 52.945312 148.613281 51.695312 148.613281 51.433594 C 148.613281 51.386719 148.566406 51.324219 148.488281 51.324219 C 148.398438 51.324219 148.382812 51.386719 148.351562 51.464844 C 148.121094 52.097656 147.488281 52.28125 147.164062 52.28125 C 146.980469 52.28125 146.792969 52.21875 146.59375 52.15625 C 146.253906 52.035156 146.101562 51.988281 145.898438 51.988281 C 145.882812 51.988281 145.730469 51.988281 145.636719 52.019531 Z M 145.636719 52.019531 "/>
<path fill-rule="nonzero" fill="rgb(66.273499%, 33.332825%, 19.607544%)" fill-opacity="1" d="M 150.886719 45.453125 L 149.546875 45.453125 L 149.546875 45.855469 L 150.5 45.855469 L 150.5 54.902344 L 149.546875 54.902344 L 149.546875 55.300781 L 150.886719 55.300781 Z M 150.886719 45.453125 "/>
<path fill-rule="nonzero" fill="rgb(0%, 0%, 0%)" fill-opacity="1" d="M 87.847656 128.90625 L 88.691406 128.90625 L 88.691406 136.667969 L 87.847656 136.667969 Z M 87.847656 128.90625 "/>
<path fill-rule="nonzero" fill="rgb(0%, 0%, 0%)" fill-opacity="1" d="M 94.601562 136.667969 L 94.601562 133.605469 C 94.601562 132.410156 94.089844 131.476562 92.789062 131.476562 C 92.136719 131.476562 91.46875 131.722656 91.066406 132.285156 L 91.066406 131.601562 L 90.238281 131.601562 L 90.238281 136.667969 L 91.066406 136.667969 L 91.066406 133.800781 C 91.101562 132.832031 91.699219 132.214844 92.59375 132.214844 C 93.476562 132.214844 93.792969 132.742188 93.792969 133.640625 L 93.792969 136.667969 Z M 94.601562 136.667969 "/>
<g clip-path="url(#clip-1)">
<path fill-rule="nonzero" fill="rgb(0%, 0%, 0%)" fill-opacity="1" d="M 100.726562 134.132812 C 100.726562 132.65625 99.742188 131.601562 98.246094 131.601562 L 96.082031 131.601562 L 96.082031 139.378906 L 96.925781 139.378906 L 96.925781 136.667969 L 98.175781 136.667969 C 99.8125 136.667969 100.726562 135.648438 100.726562 134.132812 Z M 99.917969 134.132812 C 99.917969 135.136719 99.285156 135.929688 98.175781 135.929688 L 96.925781 135.929688 L 96.925781 132.339844 L 98.175781 132.339844 C 99.269531 132.339844 99.917969 133.058594 99.917969 134.132812 Z M 99.917969 134.132812 "/>
</g>
<path fill-rule="nonzero" fill="rgb(0%, 0%, 0%)" fill-opacity="1" d="M 106.347656 136.667969 L 106.347656 131.601562 L 105.484375 131.601562 L 105.484375 134.46875 C 105.484375 135.417969 105.007812 136.070312 103.988281 136.070312 C 103.089844 136.070312 102.773438 135.507812 102.773438 134.644531 L 102.773438 131.601562 L 101.964844 131.601562 L 101.964844 134.660156 C 101.964844 135.859375 102.527344 136.808594 103.796875 136.808594 C 104.445312 136.808594 105.113281 136.4375 105.484375 136 L 105.484375 136.667969 Z M 106.347656 136.667969 "/>
<path fill-rule="nonzero" fill="rgb(0%, 0%, 0%)" fill-opacity="1" d="M 110.730469 136.667969 L 110.730469 135.945312 L 109.851562 135.945312 C 109.058594 135.945312 108.917969 135.753906 108.917969 135.011719 L 108.917969 132.269531 L 110.414062 132.269531 L 110.414062 131.601562 L 108.917969 131.601562 L 108.917969 130.15625 L 108.566406 130.15625 L 108.089844 131.601562 L 107.492188 131.601562 L 107.492188 132.269531 L 108.089844 132.269531 L 108.089844 135.011719 C 108.089844 136.28125 108.601562 136.667969 109.851562 136.667969 Z M 110.730469 136.667969 "/>
<path fill-rule="nonzero" fill="rgb(0%, 0%, 0%)" fill-opacity="1" d="M 112.859375 135.523438 L 111.839844 135.523438 L 111.839844 136.296875 C 111.910156 136.4375 111.925781 136.578125 111.925781 136.71875 C 111.925781 137.125 111.714844 137.546875 111.414062 137.742188 C 111.996094 137.722656 112.839844 136.859375 112.859375 136.316406 Z M 112.859375 135.523438 "/>
<path fill-rule="nonzero" fill="rgb(0%, 0%, 0%)" fill-opacity="1" d="M 118.355469 135.734375 C 118.957031 135.082031 119.289062 134.800781 119.695312 134.449219 C 119.695312 134.449219 120.382812 133.851562 120.785156 133.449219 C 121.859375 132.410156 122.105469 131.863281 122.105469 131.8125 C 122.105469 131.707031 122 131.707031 121.980469 131.707031 C 121.894531 131.707031 121.875 131.722656 121.804688 131.828125 C 121.472656 132.375 121.242188 132.550781 120.980469 132.550781 C 120.699219 132.550781 120.574219 132.375 120.398438 132.179688 C 120.1875 131.933594 119.992188 131.707031 119.625 131.707031 C 118.78125 131.707031 118.269531 132.742188 118.269531 132.988281 C 118.269531 133.042969 118.304688 133.113281 118.390625 133.113281 C 118.5 133.113281 118.515625 133.058594 118.550781 132.988281 C 118.761719 132.460938 119.414062 132.460938 119.5 132.460938 C 119.730469 132.460938 119.941406 132.53125 120.203125 132.621094 C 120.664062 132.796875 120.785156 132.796875 121.066406 132.796875 C 120.664062 133.273438 119.730469 134.082031 119.519531 134.257812 L 118.5 135.207031 C 117.742188 135.964844 117.335938 136.597656 117.335938 136.683594 C 117.335938 136.789062 117.460938 136.789062 117.476562 136.789062 C 117.566406 136.789062 117.582031 136.773438 117.652344 136.648438 C 117.917969 136.246094 118.25 135.945312 118.621094 135.945312 C 118.867188 135.945312 118.992188 136.050781 119.273438 136.367188 C 119.449219 136.613281 119.660156 136.789062 119.976562 136.789062 C 121.101562 136.789062 121.753906 135.367188 121.753906 135.066406 C 121.753906 135.011719 121.699219 134.941406 121.613281 134.941406 C 121.507812 134.941406 121.488281 135.011719 121.453125 135.101562 C 121.191406 135.824219 120.46875 136.035156 120.097656 136.035156 C 119.886719 136.035156 119.675781 135.964844 119.449219 135.894531 C 119.0625 135.753906 118.886719 135.699219 118.65625 135.699219 C 118.640625 135.699219 118.464844 135.699219 118.355469 135.734375 Z M 118.355469 135.734375 "/>
<path fill-rule="nonzero" fill="rgb(0%, 0%, 0%)" fill-opacity="1" d="M 26.761719 69.125 C 24.632812 69.125 22.714844 70.113281 22.714844 72.433594 C 22.714844 74.703125 24.6875 75.707031 26.761719 75.707031 C 28.839844 75.707031 30.773438 74.6875 30.773438 72.433594 C 30.773438 70.128906 28.890625 69.125 26.761719 69.125 Z M 26.761719 69.953125 C 28.328125 69.953125 30.019531 70.640625 30.019531 72.433594 C 30.019531 74.195312 28.3125 74.878906 26.761719 74.878906 C 25.160156 74.878906 23.472656 74.230469 23.472656 72.433594 C 23.472656 70.605469 25.144531 69.953125 26.761719 69.953125 Z M 26.761719 69.953125 "/>
<path fill-rule="nonzero" fill="rgb(0%, 0%, 0%)" fill-opacity="1" d="M 30.617188 63.535156 L 25.546875 63.535156 L 25.546875 64.394531 L 28.417969 64.394531 C 29.367188 64.394531 30.019531 64.871094 30.019531 65.890625 C 30.019531 66.789062 29.453125 67.105469 28.59375 67.105469 L 25.546875 67.105469 L 25.546875 67.914062 L 28.609375 67.914062 C 29.804688 67.914062 30.757812 67.351562 30.757812 66.085938 C 30.757812 65.433594 30.386719 64.765625 29.949219 64.394531 L 30.617188 64.394531 Z M 30.617188 63.535156 "/>
<path fill-rule="nonzero" fill="rgb(0%, 0%, 0%)" fill-opacity="1" d="M 30.617188 59.148438 L 29.894531 59.148438 L 29.894531 60.03125 C 29.894531 60.820312 29.699219 60.960938 28.960938 60.960938 L 26.21875 60.960938 L 26.21875 59.46875 L 25.546875 59.46875 L 25.546875 60.960938 L 24.105469 60.960938 L 24.105469 61.316406 L 25.546875 61.789062 L 25.546875 62.386719 L 26.21875 62.386719 L 26.21875 61.789062 L 28.960938 61.789062 C 30.230469 61.789062 30.617188 61.28125 30.617188 60.03125 Z M 30.617188 59.148438 "/>
<path fill-rule="nonzero" fill="rgb(0%, 0%, 0%)" fill-opacity="1" d="M 28.082031 53.46875 C 26.605469 53.46875 25.546875 54.453125 25.546875 55.949219 L 25.546875 58.113281 L 33.324219 58.113281 L 33.324219 57.269531 L 30.617188 57.269531 L 30.617188 56.019531 C 30.617188 54.382812 29.59375 53.46875 28.082031 53.46875 Z M 28.082031 54.277344 C 29.085938 54.277344 29.878906 54.910156 29.878906 56.019531 L 29.878906 57.269531 L 26.289062 57.269531 L 26.289062 56.019531 C 26.289062 54.925781 27.007812 54.277344 28.082031 54.277344 Z M 28.082031 54.277344 "/>
<path fill-rule="nonzero" fill="rgb(0%, 0%, 0%)" fill-opacity="1" d="M 30.617188 47.847656 L 25.546875 47.847656 L 25.546875 48.710938 L 28.417969 48.710938 C 29.367188 48.710938 30.019531 49.1875 30.019531 50.207031 C 30.019531 51.105469 29.453125 51.421875 28.59375 51.421875 L 25.546875 51.421875 L 25.546875 52.230469 L 28.609375 52.230469 C 29.804688 52.230469 30.757812 51.667969 30.757812 50.398438 C 30.757812 49.75 30.386719 49.082031 29.949219 48.710938 L 30.617188 48.710938 Z M 30.617188 47.847656 "/>
<path fill-rule="nonzero" fill="rgb(0%, 0%, 0%)" fill-opacity="1" d="M 30.617188 43.464844 L 29.894531 43.464844 L 29.894531 44.34375 C 29.894531 45.136719 29.699219 45.277344 28.960938 45.277344 L 26.21875 45.277344 L 26.21875 43.78125 L 25.546875 43.78125 L 25.546875 45.277344 L 24.105469 45.277344 L 24.105469 45.628906 L 25.546875 46.105469 L 25.546875 46.703125 L 26.21875 46.703125 L 26.21875 46.105469 L 28.960938 46.105469 C 30.230469 46.105469 30.617188 45.59375 30.617188 44.34375 Z M 30.617188 43.464844 "/>
<path fill="none" stroke-width="1.984252" stroke-linecap="butt" stroke-linejoin="miter" stroke="rgb(62.744141%, 85.096741%, 82.743835%)" stroke-opacity="1" stroke-miterlimit="4" d="M 48.273438 58.953125 L 104.859375 59.121094 L 104.996094 31.136719 L 161.917969 31.164062 "/>
<path fill="none" stroke-width="0.850394" stroke-linecap="butt" stroke-linejoin="miter" stroke="rgb(1.176453%, 0%, 0%)" stroke-opacity="1" stroke-miterlimit="4" d="M 47.980469 2.796875 L 161.917969 2.796875 L 161.917969 116.734375 L 47.980469 116.734375 Z M 47.980469 2.796875 "/>
<path fill="none" stroke-width="1.984252" stroke-linecap="butt" stroke-linejoin="miter" stroke="rgb(81.959534%, 51.371765%, 38.430786%)" stroke-opacity="1" stroke-miterlimit="4" d="M 48.273438 60.121094 L 104.550781 60.289062 L 161.519531 3.3125 "/>
<path fill-rule="nonzero" fill="rgb(33.724976%, 73.332214%, 69.410706%)" fill-opacity="1" d="M 70.949219 25.375 C 70.855469 24.757812 70.457031 24.203125 69.6875 24.203125 C 69.085938 24.203125 68.453125 24.375 67.683594 25.128906 C 66.863281 25.945312 66.804688 26.871094 66.804688 27.164062 C 66.804688 27.78125 67.234375 28.921875 68.605469 28.921875 C 70.949219 28.921875 71.964844 25.621094 71.964844 24.203125 C 71.964844 22.648438 71.058594 21.660156 69.839844 21.660156 C 68.421875 21.660156 67.960938 22.941406 67.960938 23.21875 C 67.960938 23.355469 68.050781 23.554688 68.34375 23.554688 C 68.667969 23.554688 68.867188 23.265625 68.867188 23.046875 C 68.867188 22.695312 68.558594 22.695312 68.40625 22.695312 C 68.835938 21.96875 69.546875 21.90625 69.824219 21.90625 C 70.546875 21.90625 71.226562 22.414062 71.226562 23.695312 C 71.226562 24.082031 71.164062 24.574219 70.964844 25.375 Z M 68.636719 28.644531 C 67.558594 28.644531 67.558594 27.625 67.558594 27.53125 C 67.558594 27.269531 67.804688 25.898438 68.207031 25.296875 C 68.589844 24.742188 69.085938 24.417969 69.6875 24.417969 C 70.765625 24.417969 70.78125 25.53125 70.78125 25.730469 C 70.78125 26.4375 70.148438 28.644531 68.636719 28.644531 Z M 68.636719 28.644531 "/>
<path fill-rule="nonzero" fill="rgb(33.724976%, 73.332214%, 69.410706%)" fill-opacity="1" d="M 77.40625 28.703125 C 76.714844 27.917969 76.574219 26.101562 75.574219 25.484375 C 76.652344 25.191406 76.835938 24.636719 76.835938 23.832031 C 76.835938 22.476562 76.050781 21.90625 74.753906 21.90625 L 72.84375 21.90625 L 72.84375 28.703125 L 73.585938 28.703125 L 73.585938 25.792969 L 74.664062 25.792969 C 75.109375 25.792969 75.496094 26.175781 75.867188 26.949219 C 76.097656 27.546875 76.160156 28.273438 76.636719 28.703125 Z M 76.113281 23.832031 C 76.113281 24.695312 75.589844 25.113281 74.753906 25.113281 L 73.585938 25.113281 L 73.585938 22.585938 L 74.753906 22.585938 C 75.574219 22.601562 76.113281 22.925781 76.113281 23.832031 Z M 76.113281 23.832031 "/>
<path fill-rule="nonzero" fill="rgb(33.724976%, 73.332214%, 69.410706%)" fill-opacity="1" d="M 81.859375 26.484375 L 81.859375 26.40625 C 81.859375 25.128906 81.335938 24.1875 79.871094 24.15625 C 78.5625 24.15625 77.820312 25.296875 77.820312 26.53125 C 77.820312 27.871094 78.636719 28.828125 79.996094 28.828125 C 80.613281 28.828125 81.167969 28.6875 81.707031 28.488281 L 81.707031 27.75 C 80.996094 28.089844 80.890625 28.164062 80.058594 28.164062 C 79.132812 28.164062 78.578125 27.609375 78.578125 26.5625 L 78.578125 26.484375 Z M 81.136719 25.882812 L 78.609375 25.882812 C 78.699219 25.296875 79.132812 24.789062 79.871094 24.789062 C 80.640625 24.789062 81.136719 25.265625 81.136719 25.882812 Z M 81.136719 25.882812 "/>
<path fill-rule="nonzero" fill="rgb(33.724976%, 73.332214%, 69.410706%)" fill-opacity="1" d="M 86.828125 28.703125 L 86.828125 27.996094 L 83.683594 27.996094 L 83.683594 21.90625 L 82.925781 21.90625 L 82.925781 28.703125 Z M 86.828125 28.703125 "/>
<path fill-rule="nonzero" fill="rgb(33.724976%, 73.332214%, 69.410706%)" fill-opacity="1" d="M 91.769531 26.160156 L 91.769531 21.90625 L 91.046875 21.90625 L 91.046875 26.054688 C 91.046875 27.300781 90.753906 28.179688 89.414062 28.179688 C 88.042969 28.179688 87.734375 27.332031 87.734375 26.054688 L 87.734375 21.90625 L 86.992188 21.90625 L 86.992188 26.160156 C 86.992188 27.808594 87.71875 28.84375 89.414062 28.84375 C 91.09375 28.84375 91.769531 27.78125 91.769531 26.160156 Z M 91.769531 26.160156 "/>
<path fill-rule="nonzero" fill="rgb(33.724976%, 73.332214%, 69.410706%)" fill-opacity="1" d="M 94.902344 31.171875 L 94.902344 30.769531 L 93.949219 30.769531 L 93.949219 21.722656 L 94.902344 21.722656 L 94.902344 21.320312 L 93.546875 21.320312 L 93.546875 31.171875 Z M 94.902344 31.171875 "/>
<path fill-rule="nonzero" fill="rgb(33.724976%, 73.332214%, 69.410706%)" fill-opacity="1" d="M 96.429688 27.886719 C 96.953125 27.316406 97.246094 27.070312 97.601562 26.761719 C 97.601562 26.761719 98.203125 26.238281 98.558594 25.882812 C 99.496094 24.972656 99.714844 24.496094 99.714844 24.449219 C 99.714844 24.359375 99.621094 24.359375 99.605469 24.359375 C 99.527344 24.359375 99.511719 24.375 99.453125 24.464844 C 99.160156 24.945312 98.957031 25.097656 98.726562 25.097656 C 98.480469 25.097656 98.371094 24.945312 98.21875 24.773438 C 98.035156 24.558594 97.863281 24.359375 97.539062 24.359375 C 96.800781 24.359375 96.351562 25.265625 96.351562 25.484375 C 96.351562 25.53125 96.382812 25.589844 96.460938 25.589844 C 96.554688 25.589844 96.570312 25.542969 96.601562 25.484375 C 96.785156 25.019531 97.355469 25.019531 97.433594 25.019531 C 97.632812 25.019531 97.816406 25.082031 98.046875 25.160156 C 98.449219 25.3125 98.558594 25.3125 98.804688 25.3125 C 98.449219 25.730469 97.632812 26.4375 97.449219 26.59375 L 96.554688 27.425781 C 95.890625 28.089844 95.535156 28.644531 95.535156 28.71875 C 95.535156 28.8125 95.644531 28.8125 95.660156 28.8125 C 95.738281 28.8125 95.753906 28.796875 95.8125 28.6875 C 96.046875 28.335938 96.339844 28.074219 96.660156 28.074219 C 96.878906 28.074219 96.984375 28.164062 97.230469 28.441406 C 97.386719 28.65625 97.570312 28.8125 97.847656 28.8125 C 98.835938 28.8125 99.40625 27.5625 99.40625 27.300781 C 99.40625 27.253906 99.359375 27.195312 99.28125 27.195312 C 99.1875 27.195312 99.175781 27.253906 99.144531 27.332031 C 98.910156 27.964844 98.28125 28.148438 97.957031 28.148438 C 97.769531 28.148438 97.585938 28.089844 97.386719 28.027344 C 97.046875 27.902344 96.894531 27.855469 96.691406 27.855469 C 96.675781 27.855469 96.523438 27.855469 96.429688 27.886719 Z M 96.429688 27.886719 "/>
<path fill-rule="nonzero" fill="rgb(33.724976%, 73.332214%, 69.410706%)" fill-opacity="1" d="M 101.679688 21.320312 L 100.339844 21.320312 L 100.339844 21.722656 L 101.292969 21.722656 L 101.292969 30.769531 L 100.339844 30.769531 L 100.339844 31.171875 L 101.679688 31.171875 Z M 101.679688 21.320312 "/>
<path fill="none" stroke-width="0.392596" stroke-linecap="butt" stroke-linejoin="miter" stroke="rgb(62.744141%, 85.096741%, 82.743835%)" stroke-opacity="1" stroke-miterlimit="10" d="M 66.402344 -32.894531 L 102.855469 -32.894531 " transform="matrix(1, 0, 0, -1, 0, 0)"/>
<path fill-rule="nonzero" fill="rgb(33.724976%, 73.332214%, 69.410706%)" fill-opacity="1" d="M 83.792969 38.765625 C 83.699219 38.148438 83.296875 37.59375 82.527344 37.59375 C 81.925781 37.59375 81.292969 37.761719 80.523438 38.519531 C 79.707031 39.335938 79.644531 40.261719 79.644531 40.554688 C 79.644531 41.167969 80.078125 42.308594 81.449219 42.308594 C 83.792969 42.308594 84.808594 39.011719 84.808594 37.59375 C 84.808594 36.035156 83.898438 35.050781 82.683594 35.050781 C 81.265625 35.050781 80.800781 36.328125 80.800781 36.605469 C 80.800781 36.746094 80.894531 36.945312 81.1875 36.945312 C 81.511719 36.945312 81.710938 36.652344 81.710938 36.4375 C 81.710938 36.082031 81.402344 36.082031 81.25 36.082031 C 81.679688 35.359375 82.390625 35.296875 82.667969 35.296875 C 83.390625 35.296875 84.070312 35.804688 84.070312 37.085938 C 84.070312 37.46875 84.007812 37.964844 83.808594 38.765625 Z M 81.480469 42.03125 C 80.402344 42.03125 80.402344 41.015625 80.402344 40.921875 C 80.402344 40.660156 80.648438 39.289062 81.046875 38.6875 C 81.433594 38.132812 81.925781 37.808594 82.527344 37.808594 C 83.605469 37.808594 83.621094 38.917969 83.621094 39.121094 C 83.621094 39.828125 82.988281 42.03125 81.480469 42.03125 Z M 81.480469 42.03125 "/>
<path fill-rule="nonzero" fill="rgb(33.724976%, 73.332214%, 69.410706%)" fill-opacity="1" d="M 86.324219 41.277344 C 86.847656 40.707031 87.140625 40.460938 87.492188 40.152344 C 87.492188 40.152344 88.09375 39.628906 88.449219 39.273438 C 89.390625 38.363281 89.605469 37.886719 89.605469 37.839844 C 89.605469 37.746094 89.511719 37.746094 89.496094 37.746094 C 89.421875 37.746094 89.40625 37.761719 89.34375 37.855469 C 89.050781 38.332031 88.851562 38.488281 88.621094 38.488281 C 88.371094 38.488281 88.265625 38.332031 88.109375 38.164062 C 87.925781 37.949219 87.757812 37.746094 87.433594 37.746094 C 86.691406 37.746094 86.246094 38.65625 86.246094 38.871094 C 86.246094 38.917969 86.277344 38.980469 86.351562 38.980469 C 86.445312 38.980469 86.460938 38.933594 86.492188 38.871094 C 86.675781 38.410156 87.246094 38.410156 87.324219 38.410156 C 87.523438 38.410156 87.710938 38.472656 87.941406 38.550781 C 88.339844 38.703125 88.449219 38.703125 88.695312 38.703125 C 88.339844 39.121094 87.523438 39.828125 87.339844 39.984375 L 86.445312 40.816406 C 85.78125 41.476562 85.429688 42.03125 85.429688 42.109375 C 85.429688 42.203125 85.535156 42.203125 85.550781 42.203125 C 85.628906 42.203125 85.644531 42.1875 85.707031 42.078125 C 85.9375 41.722656 86.230469 41.460938 86.554688 41.460938 C 86.769531 41.460938 86.878906 41.554688 87.125 41.832031 C 87.277344 42.046875 87.464844 42.203125 87.742188 42.203125 C 88.726562 42.203125 89.296875 40.953125 89.296875 40.691406 C 89.296875 40.644531 89.25 40.582031 89.175781 40.582031 C 89.082031 40.582031 89.066406 40.644531 89.035156 40.722656 C 88.804688 41.355469 88.171875 41.539062 87.847656 41.539062 C 87.664062 41.539062 87.480469 41.476562 87.277344 41.414062 C 86.9375 41.292969 86.785156 41.246094 86.585938 41.246094 C 86.570312 41.246094 86.414062 41.246094 86.324219 41.277344 Z M 86.324219 41.277344 "/>
<path fill-rule="nonzero" fill="rgb(50.195312%, 50.195312%, 50.195312%)" fill-opacity="1" d="M 38.453125 59.78125 C 38.453125 59.164062 38.417969 58.421875 38.082031 57.789062 C 37.761719 57.195312 37.214844 56.996094 36.820312 56.996094 C 36.347656 56.996094 35.792969 57.21875 35.46875 57.914062 C 35.210938 58.496094 35.171875 59.152344 35.171875 59.78125 C 35.171875 60.402344 35.195312 60.984375 35.433594 61.566406 C 35.753906 62.320312 36.347656 62.53125 36.808594 62.53125 C 37.375 62.53125 37.882812 62.210938 38.132812 61.664062 C 38.367188 61.144531 38.453125 60.625 38.453125 59.78125 Z M 36.820312 62.050781 C 36.398438 62.050781 36.078125 61.753906 35.914062 61.183594 C 35.792969 60.738281 35.792969 60.304688 35.792969 59.683594 C 35.792969 59.1875 35.792969 58.71875 35.914062 58.285156 C 35.964844 58.136719 36.164062 57.480469 36.808594 57.480469 C 37.425781 57.480469 37.625 58.085938 37.6875 58.222656 C 37.835938 58.667969 37.835938 59.199219 37.835938 59.683594 C 37.835938 60.203125 37.835938 60.710938 37.6875 61.207031 C 37.488281 61.925781 37.066406 62.050781 36.820312 62.050781 Z M 36.820312 62.050781 "/>
<path fill-rule="nonzero" fill="rgb(50.195312%, 50.195312%, 50.195312%)" fill-opacity="1" d="M 39.554688 61.703125 L 40.210938 61.703125 L 40.210938 62.359375 L 39.554688 62.359375 Z M 39.554688 61.703125 "/>
<path fill-rule="nonzero" fill="rgb(50.195312%, 50.195312%, 50.195312%)" fill-opacity="1" d="M 44.597656 59.78125 C 44.597656 59.164062 44.558594 58.421875 44.226562 57.789062 C 43.902344 57.195312 43.359375 56.996094 42.960938 56.996094 C 42.492188 56.996094 41.933594 57.21875 41.613281 57.914062 C 41.351562 58.496094 41.316406 59.152344 41.316406 59.78125 C 41.316406 60.402344 41.339844 60.984375 41.574219 61.566406 C 41.898438 62.320312 42.492188 62.53125 42.949219 62.53125 C 43.519531 62.53125 44.027344 62.210938 44.273438 61.664062 C 44.511719 61.144531 44.597656 60.625 44.597656 59.78125 Z M 42.960938 62.050781 C 42.542969 62.050781 42.21875 61.753906 42.058594 61.183594 C 41.933594 60.738281 41.933594 60.304688 41.933594 59.683594 C 41.933594 59.1875 41.933594 58.71875 42.058594 58.285156 C 42.109375 58.136719 42.304688 57.480469 42.949219 57.480469 C 43.570312 57.480469 43.765625 58.085938 43.828125 58.222656 C 43.976562 58.667969 43.976562 59.199219 43.976562 59.683594 C 43.976562 60.203125 43.976562 60.710938 43.828125 61.207031 C 43.632812 61.925781 43.210938 62.050781 42.960938 62.050781 Z M 42.960938 62.050781 "/>
<path fill-rule="nonzero" fill="rgb(50.195312%, 50.195312%, 50.195312%)" fill-opacity="1" d="M 103.707031 123.050781 C 103.707031 122.433594 103.671875 121.6875 103.335938 121.058594 C 103.015625 120.460938 102.46875 120.265625 102.074219 120.265625 C 101.601562 120.265625 101.042969 120.488281 100.722656 121.179688 C 100.460938 121.761719 100.425781 122.417969 100.425781 123.050781 C 100.425781 123.671875 100.449219 124.253906 100.683594 124.835938 C 101.007812 125.589844 101.601562 125.800781 102.058594 125.800781 C 102.628906 125.800781 103.136719 125.480469 103.386719 124.933594 C 103.621094 124.414062 103.707031 123.894531 103.707031 123.050781 Z M 102.074219 125.316406 C 101.652344 125.316406 101.328125 125.019531 101.167969 124.449219 C 101.042969 124.003906 101.042969 123.570312 101.042969 122.953125 C 101.042969 122.457031 101.042969 121.984375 101.167969 121.550781 C 101.21875 121.402344 101.417969 120.746094 102.058594 120.746094 C 102.679688 120.746094 102.878906 121.355469 102.941406 121.492188 C 103.089844 121.9375 103.089844 122.46875 103.089844 122.953125 C 103.089844 123.472656 103.089844 123.980469 102.941406 124.476562 C 102.742188 125.195312 102.320312 125.316406 102.074219 125.316406 Z M 102.074219 125.316406 "/>
<path fill-rule="nonzero" fill="rgb(50.195312%, 50.195312%, 50.195312%)" fill-opacity="1" d="M 104.808594 124.972656 L 105.464844 124.972656 L 105.464844 125.628906 L 104.808594 125.628906 Z M 104.808594 124.972656 "/>
<path fill-rule="nonzero" fill="rgb(50.195312%, 50.195312%, 50.195312%)" fill-opacity="1" d="M 109.851562 123.050781 C 109.851562 122.433594 109.8125 121.6875 109.480469 121.058594 C 109.15625 120.460938 108.613281 120.265625 108.214844 120.265625 C 107.746094 120.265625 107.1875 120.488281 106.867188 121.179688 C 106.605469 121.761719 106.566406 122.417969 106.566406 123.050781 C 106.566406 123.671875 106.59375 124.253906 106.828125 124.835938 C 107.148438 125.589844 107.746094 125.800781 108.203125 125.800781 C 108.773438 125.800781 109.28125 125.480469 109.527344 124.933594 C 109.761719 124.414062 109.851562 123.894531 109.851562 123.050781 Z M 108.214844 125.316406 C 107.792969 125.316406 107.472656 125.019531 107.3125 124.449219 C 107.1875 124.003906 107.1875 123.570312 107.1875 122.953125 C 107.1875 122.457031 107.1875 121.984375 107.3125 121.550781 C 107.359375 121.402344 107.558594 120.746094 108.203125 120.746094 C 108.824219 120.746094 109.019531 121.355469 109.082031 121.492188 C 109.230469 121.9375 109.230469 122.46875 109.230469 122.953125 C 109.230469 123.472656 109.230469 123.980469 109.082031 124.476562 C 108.882812 125.195312 108.464844 125.316406 108.214844 125.316406 Z M 108.214844 125.316406 "/>
<path fill-rule="nonzero" fill="rgb(50.195312%, 50.195312%, 50.195312%)" fill-opacity="1" d="M 38.417969 5.519531 L 38.417969 4.949219 L 35.964844 4.949219 L 37.835938 2.84375 C 38.144531 2.410156 38.378906 2.078125 38.378906 1.507812 C 38.378906 0.492188 37.636719 -0.0429688 36.695312 -0.0429688 C 36.164062 -0.0429688 35.71875 0.121094 35.273438 0.304688 L 35.273438 1.011719 C 35.71875 0.726562 36.164062 0.515625 36.707031 0.515625 C 37.328125 0.515625 37.8125 0.898438 37.8125 1.542969 C 37.8125 1.976562 37.464844 2.511719 37.179688 2.808594 C 37.09375 2.929688 35.371094 4.8125 35.234375 4.949219 L 35.234375 5.519531 Z M 38.417969 5.519531 "/>
<path fill-rule="nonzero" fill="rgb(50.195312%, 50.195312%, 50.195312%)" fill-opacity="1" d="M 39.328125 4.714844 L 40.082031 4.714844 L 40.082031 5.519531 L 39.328125 5.519531 Z M 39.328125 4.714844 "/>
<path fill-rule="nonzero" fill="rgb(50.195312%, 50.195312%, 50.195312%)" fill-opacity="1" d="M 44.5625 2.808594 C 44.550781 1.644531 44.289062 -0.0429688 42.816406 -0.0429688 C 41.34375 -0.0429688 41.09375 1.667969 41.09375 2.808594 C 41.09375 3.960938 41.355469 5.632812 42.816406 5.632812 C 44.277344 5.632812 44.5625 3.960938 44.5625 2.808594 Z M 43.992188 2.808594 C 43.992188 3.5625 43.929688 5.109375 42.816406 5.109375 C 41.699219 5.109375 41.664062 3.539062 41.664062 2.808594 C 41.664062 2.0625 41.6875 0.464844 42.816406 0.464844 C 43.929688 0.464844 43.992188 2.078125 43.992188 2.808594 Z M 43.992188 2.808594 "/>
<path fill-rule="nonzero" fill="rgb(50.195312%, 50.195312%, 50.195312%)" fill-opacity="1" d="M 160.820312 125.757812 L 160.820312 125.1875 L 158.367188 125.1875 L 160.238281 123.082031 C 160.550781 122.648438 160.785156 122.316406 160.785156 121.746094 C 160.785156 120.730469 160.042969 120.195312 159.101562 120.195312 C 158.566406 120.195312 158.121094 120.359375 157.675781 120.542969 L 157.675781 121.25 C 158.121094 120.964844 158.566406 120.753906 159.113281 120.753906 C 159.730469 120.753906 160.214844 121.136719 160.214844 121.78125 C 160.214844 122.214844 159.867188 122.746094 159.582031 123.046875 C 159.496094 123.167969 157.773438 125.050781 157.636719 125.1875 L 157.636719 125.757812 Z M 160.820312 125.757812 "/>
<path fill-rule="nonzero" fill="rgb(50.195312%, 50.195312%, 50.195312%)" fill-opacity="1" d="M 161.730469 124.953125 L 162.488281 124.953125 L 162.488281 125.757812 L 161.730469 125.757812 Z M 161.730469 124.953125 "/>
<path fill-rule="nonzero" fill="rgb(50.195312%, 50.195312%, 50.195312%)" fill-opacity="1" d="M 166.964844 123.046875 C 166.953125 121.882812 166.695312 120.195312 165.21875 120.195312 C 163.746094 120.195312 163.496094 121.90625 163.496094 123.046875 C 163.496094 124.195312 163.757812 125.871094 165.21875 125.871094 C 166.679688 125.871094 166.964844 124.195312 166.964844 123.046875 Z M 166.394531 123.046875 C 166.394531 123.800781 166.335938 125.347656 165.21875 125.347656 C 164.105469 125.347656 164.066406 123.777344 164.066406 123.046875 C 164.066406 122.300781 164.09375 120.703125 165.21875 120.703125 C 166.335938 120.703125 166.394531 122.316406 166.394531 123.046875 Z M 166.394531 123.046875 "/>
<path fill-rule="nonzero" fill="rgb(50.195312%, 50.195312%, 50.195312%)" fill-opacity="1" d="M 32.640625 117.414062 L 34.4375 117.414062 L 34.4375 117.933594 L 32.640625 117.933594 Z M 32.640625 117.414062 "/>
<path fill-rule="nonzero" fill="rgb(50.195312%, 50.195312%, 50.195312%)" fill-opacity="1" d="M 38.464844 119.457031 L 38.464844 118.890625 L 36.011719 118.890625 L 37.882812 116.785156 C 38.191406 116.351562 38.429688 116.015625 38.429688 115.445312 C 38.429688 114.429688 37.683594 113.898438 36.742188 113.898438 C 36.210938 113.898438 35.765625 114.058594 35.320312 114.246094 L 35.320312 114.949219 C 35.765625 114.664062 36.210938 114.453125 36.757812 114.453125 C 37.375 114.453125 37.859375 114.839844 37.859375 115.484375 C 37.859375 115.917969 37.511719 116.449219 37.226562 116.746094 C 37.140625 116.871094 35.417969 118.753906 35.28125 118.890625 L 35.28125 119.457031 Z M 38.464844 119.457031 "/>
<path fill-rule="nonzero" fill="rgb(50.195312%, 50.195312%, 50.195312%)" fill-opacity="1" d="M 39.375 118.652344 L 40.132812 118.652344 L 40.132812 119.457031 L 39.375 119.457031 Z M 39.375 118.652344 "/>
<path fill-rule="nonzero" fill="rgb(50.195312%, 50.195312%, 50.195312%)" fill-opacity="1" d="M 44.609375 116.746094 C 44.597656 115.582031 44.335938 113.898438 42.863281 113.898438 C 41.390625 113.898438 41.140625 115.605469 41.140625 116.746094 C 41.140625 117.898438 41.402344 119.570312 42.863281 119.570312 C 44.324219 119.570312 44.609375 117.898438 44.609375 116.746094 Z M 44.039062 116.746094 C 44.039062 117.5 43.980469 119.050781 42.863281 119.050781 C 41.75 119.050781 41.710938 117.476562 41.710938 116.746094 C 41.710938 116.003906 41.738281 114.40625 42.863281 114.40625 C 43.980469 114.40625 44.039062 116.015625 44.039062 116.746094 Z M 44.039062 116.746094 "/>
<path fill-rule="nonzero" fill="rgb(50.195312%, 50.195312%, 50.195312%)" fill-opacity="1" d="M 41.507812 123.714844 L 43.304688 123.714844 L 43.304688 124.234375 L 41.507812 124.234375 Z M 41.507812 123.714844 "/>
<path fill-rule="nonzero" fill="rgb(50.195312%, 50.195312%, 50.195312%)" fill-opacity="1" d="M 47.335938 125.757812 L 47.335938 125.1875 L 44.882812 125.1875 L 46.753906 123.082031 C 47.0625 122.648438 47.296875 122.316406 47.296875 121.746094 C 47.296875 120.730469 46.554688 120.195312 45.613281 120.195312 C 45.082031 120.195312 44.632812 120.359375 44.1875 120.542969 L 44.1875 121.25 C 44.632812 120.964844 45.082031 120.753906 45.625 120.753906 C 46.246094 120.753906 46.726562 121.136719 46.726562 121.78125 C 46.726562 122.214844 46.382812 122.746094 46.097656 123.046875 C 46.007812 123.167969 44.289062 125.050781 44.152344 125.1875 L 44.152344 125.757812 Z M 47.335938 125.757812 "/>
<path fill-rule="nonzero" fill="rgb(50.195312%, 50.195312%, 50.195312%)" fill-opacity="1" d="M 48.246094 124.953125 L 49 124.953125 L 49 125.757812 L 48.246094 125.757812 Z M 48.246094 124.953125 "/>
<path fill-rule="nonzero" fill="rgb(50.195312%, 50.195312%, 50.195312%)" fill-opacity="1" d="M 53.480469 123.046875 C 53.46875 121.882812 53.207031 120.195312 51.734375 120.195312 C 50.257812 120.195312 50.011719 121.90625 50.011719 123.046875 C 50.011719 124.195312 50.269531 125.871094 51.734375 125.871094 C 53.195312 125.871094 53.480469 124.195312 53.480469 123.046875 Z M 52.910156 123.046875 C 52.910156 123.800781 52.847656 125.347656 51.734375 125.347656 C 50.617188 125.347656 50.582031 123.777344 50.582031 123.046875 C 50.582031 122.300781 50.605469 120.703125 51.734375 120.703125 C 52.847656 120.703125 52.910156 122.316406 52.910156 123.046875 Z M 52.910156 123.046875 "/>
</svg>
