<?xml version="1.0" encoding="UTF-8"?>
<svg xmlns="http://www.w3.org/2000/svg" xmlns:xlink="http://www.w3.org/1999/xlink" width="389.658081pt" height="69.764236pt" viewBox="0 0 389.658081 69.764236">
<defs>
<clipPath id="clip-0">
<path clip-rule="nonzero" d="M 251 47 L 286 47 L 286 69.765625 L 251 69.765625 Z M 251 47 "/>
</clipPath>
<clipPath id="clip-1">
<path clip-rule="nonzero" d="M 363 25 L 389.65625 25 L 389.65625 56 L 363 56 Z M 363 25 "/>
</clipPath>
<clipPath id="clip-2">
<path clip-rule="nonzero" d="M 289 43 L 320 43 L 320 69.765625 L 289 69.765625 Z M 289 43 "/>
</clipPath>
</defs>
<path fill="none" stroke-width="0.67748" stroke-linecap="butt" stroke-linejoin="miter" stroke="rgb(46.273804%, 52.940369%, 54.901123%)" stroke-opacity="1" stroke-miterlimit="4" d="M 22.40625 40.886719 L 30.003906 40.90625 "/>
<path fill-rule="evenodd" fill="rgb(46.273804%, 52.940369%, 54.901123%)" fill-opacity="1" stroke-width="0.361322" stroke-linecap="butt" stroke-linejoin="miter" stroke="rgb(46.273804%, 52.940369%, 54.901123%)" stroke-opacity="1" stroke-miterlimit="4" d="M -27.391529 -40.832321 L -26.03933 -42.187147 L -30.778246 -40.831958 L -26.036702 -39.480122 Z M -27.391529 -40.832321 " transform="matrix(-1, -0.00241377, 0.00241377, -1, 0, 0)"/>
<path fill="none" stroke-width="0.67748" stroke-linecap="butt" stroke-linejoin="miter" stroke="rgb(46.273804%, 52.940369%, 54.901123%)" stroke-opacity="1" stroke-miterlimit="4" d="M 64.867188 40.886719 L 72.359375 40.90625 "/>
<path fill-rule="evenodd" fill="rgb(46.273804%, 52.940369%, 54.901123%)" fill-opacity="1" stroke-width="0.361322" stroke-linecap="butt" stroke-linejoin="miter" stroke="rgb(46.273804%, 52.940369%, 54.901123%)" stroke-opacity="1" stroke-miterlimit="4" d="M -69.748157 -40.727663 L -68.3921 -42.082545 L -73.134875 -40.727183 L -68.393284 -39.375511 Z M -69.748157 -40.727663 " transform="matrix(-1, -0.00244845, 0.00244845, -1, 0, 0)"/>
<path fill="none" stroke-width="0.67748" stroke-linecap="butt" stroke-linejoin="miter" stroke="rgb(46.273804%, 52.940369%, 54.901123%)" stroke-opacity="1" stroke-miterlimit="4" d="M 211.890625 40.886719 L 218.628906 40.90625 "/>
<path fill-rule="evenodd" fill="rgb(46.273804%, 52.940369%, 54.901123%)" fill-opacity="1" stroke-width="0.361321" stroke-linecap="butt" stroke-linejoin="miter" stroke="rgb(46.273804%, 52.940369%, 54.901123%)" stroke-opacity="1" stroke-miterlimit="4" d="M -216.027703 -40.31036 L -214.672017 -41.665613 L -219.414428 -40.31286 L -214.67245 -38.954675 Z M -216.027703 -40.31036 " transform="matrix(-1, -0.00272223, 0.00272223, -1, 0, 0)"/>
<path fill="none" stroke-width="0.67748" stroke-linecap="butt" stroke-linejoin="miter" stroke="rgb(46.273804%, 52.940369%, 54.901123%)" stroke-opacity="1" stroke-miterlimit="4" d="M 358.605469 40.886719 L 366.207031 40.90625 "/>
<path fill-rule="evenodd" fill="rgb(46.273804%, 52.940369%, 54.901123%)" fill-opacity="1" stroke-width="0.361322" stroke-linecap="butt" stroke-linejoin="miter" stroke="rgb(46.273804%, 52.940369%, 54.901123%)" stroke-opacity="1" stroke-miterlimit="4" d="M -363.592695 -40.020808 L -362.23659 -41.375644 L -366.979413 -40.020446 L -362.237868 -38.66861 Z M -363.592695 -40.020808 " transform="matrix(-1, -0.00241377, 0.00241377, -1, 0, 0)"/>
<path fill="none" stroke-width="0.67748" stroke-linecap="butt" stroke-linejoin="miter" stroke="rgb(46.273804%, 52.940369%, 54.901123%)" stroke-opacity="1" stroke-miterlimit="4" d="M 138.378906 11.429688 L 145.761719 11.449219 "/>
<path fill-rule="evenodd" fill="rgb(46.273804%, 52.940369%, 54.901123%)" fill-opacity="1" stroke-width="0.361322" stroke-linecap="butt" stroke-linejoin="miter" stroke="rgb(46.273804%, 52.940369%, 54.901123%)" stroke-opacity="1" stroke-miterlimit="4" d="M -143.078444 -11.084331 L -141.726357 -12.439268 L -146.469067 -11.083682 L -141.723497 -9.728338 Z M -143.078444 -11.084331 " transform="matrix(-1, -0.00249566, 0.00249566, -1, 0, 0)"/>
<path fill="none" stroke-width="0.67748" stroke-linecap="butt" stroke-linejoin="miter" stroke="rgb(46.273804%, 52.940369%, 54.901123%)" stroke-opacity="1" stroke-miterlimit="4" d="M 95.917969 40.886719 L 176.765625 40.90625 "/>
<path fill-rule="evenodd" fill="rgb(46.273804%, 52.940369%, 54.901123%)" fill-opacity="1" stroke-width="0.361323" stroke-linecap="butt" stroke-linejoin="miter" stroke="rgb(46.273804%, 52.940369%, 54.901123%)" stroke-opacity="1" stroke-miterlimit="4" d="M -174.063958 -40.866765 L -172.708797 -42.222541 L -177.450676 -40.865996 L -172.708182 -39.511603 Z M -174.063958 -40.866765 " transform="matrix(-1, -0.000226844, 0.000226844, -1, 0, 0)"/>
<path fill="none" stroke-width="0.67748" stroke-linecap="butt" stroke-linejoin="miter" stroke="rgb(46.273804%, 52.940369%, 54.901123%)" stroke-opacity="1" stroke-miterlimit="4" d="M 285.117188 23.433594 L 292.929688 23.453125 "/>
<path fill-rule="evenodd" fill="rgb(46.273804%, 52.940369%, 54.901123%)" fill-opacity="1" stroke-width="0.361322" stroke-linecap="butt" stroke-linejoin="miter" stroke="rgb(46.273804%, 52.940369%, 54.901123%)" stroke-opacity="1" stroke-miterlimit="4" d="M -290.276089 -22.763956 L -288.919894 -24.118702 L -293.662808 -22.763819 L -288.921344 -21.407761 Z M -290.276089 -22.763956 " transform="matrix(-1, -0.00234727, 0.00234727, -1, 0, 0)"/>
<path fill="none" stroke-width="0.67748" stroke-linecap="butt" stroke-linejoin="miter" stroke="rgb(46.273804%, 52.940369%, 54.901123%)" stroke-opacity="1" stroke-miterlimit="4" d="M 285.117188 58.300781 L 293.148438 58.320312 "/>
<path fill-rule="evenodd" fill="rgb(46.273804%, 52.940369%, 54.901123%)" fill-opacity="1" stroke-width="0.361322" stroke-linecap="butt" stroke-linejoin="miter" stroke="rgb(46.273804%, 52.940369%, 54.901123%)" stroke-opacity="1" stroke-miterlimit="4" d="M -290.56919 -57.648738 L -289.212918 -59.007305 L -293.955909 -57.648814 L -289.214538 -56.296364 Z M -290.56919 -57.648738 " transform="matrix(-1, -0.00228435, 0.00228435, -1, 0, 0)"/>
<path fill="none" stroke-width="0.67748" stroke-linecap="butt" stroke-linejoin="miter" stroke="rgb(46.273804%, 52.940369%, 54.901123%)" stroke-opacity="1" stroke-miterlimit="4" d="M 90.285156 31.148438 L 103.691406 11.394531 "/>
<path fill-rule="evenodd" fill="rgb(46.273804%, 52.940369%, 54.901123%)" fill-opacity="1" stroke-width="0.298953" stroke-linecap="butt" stroke-linejoin="miter" stroke="rgb(46.273804%, 52.940369%, 54.901123%)" stroke-opacity="1" stroke-miterlimit="4" d="M -38.14288 -76.280183 L -37.020968 -77.40112 L -40.944196 -76.280971 L -37.021942 -75.158272 Z M -38.14288 -76.280183 " transform="matrix(-0.678808, 1, -1, -0.678808, 0, 0)"/>
<path fill="none" stroke-width="0.67748" stroke-linecap="butt" stroke-linejoin="miter" stroke="rgb(46.273804%, 52.940369%, 54.901123%)" stroke-opacity="1" stroke-miterlimit="4" d="M 165.46875 19.582031 L 177.050781 38.789062 "/>
<path fill-rule="evenodd" fill="rgb(46.273804%, 52.940369%, 54.901123%)" fill-opacity="1" stroke-width="0.309439" stroke-linecap="butt" stroke-linejoin="miter" stroke="rgb(46.273804%, 52.940369%, 54.901123%)" stroke-opacity="1" stroke-miterlimit="4" d="M -104.414606 112.703806 L -103.25439 111.543891 L -107.317065 112.703997 L -103.254692 113.864022 Z M -104.414606 112.703806 " transform="matrix(-0.602871, -1, 1, -0.602871, 0, 0)"/>
<path fill="none" stroke-width="0.67748" stroke-linecap="butt" stroke-linejoin="miter" stroke="rgb(46.273804%, 52.940369%, 54.901123%)" stroke-opacity="1" stroke-miterlimit="4" d="M 239.742188 33.355469 L 250.183594 22.960938 "/>
<path fill-rule="evenodd" fill="rgb(46.273804%, 52.940369%, 54.901123%)" fill-opacity="1" stroke-width="0.256083" stroke-linecap="butt" stroke-linejoin="miter" stroke="rgb(46.273804%, 52.940369%, 54.901123%)" stroke-opacity="1" stroke-miterlimit="4" d="M -112.26693 -136.624491 L -111.307946 -137.583991 L -114.666988 -136.622863 L -111.305468 -135.663555 Z M -112.26693 -136.624491 " transform="matrix(-1, 0.995391, -0.995391, -1, 0, 0)"/>
<path fill="none" stroke-width="0.67748" stroke-linecap="butt" stroke-linejoin="miter" stroke="rgb(46.273804%, 52.940369%, 54.901123%)" stroke-opacity="1" stroke-miterlimit="4" d="M 239.742188 48.363281 L 250.183594 58.753906 "/>
<path fill-rule="evenodd" fill="rgb(46.273804%, 52.940369%, 54.901123%)" fill-opacity="1" stroke-width="0.256083" stroke-linecap="butt" stroke-linejoin="miter" stroke="rgb(46.273804%, 52.940369%, 54.901123%)" stroke-opacity="1" stroke-miterlimit="4" d="M -153.125869 95.576362 L -152.164407 94.615425 L -155.523974 95.576695 L -152.164932 96.537823 Z M -153.125869 95.576362 " transform="matrix(-1, -0.995391, 0.995391, -1, 0, 0)"/>
<path fill="none" stroke-width="0.67748" stroke-linecap="butt" stroke-linejoin="miter" stroke="rgb(46.273804%, 52.940369%, 54.901123%)" stroke-opacity="1" stroke-miterlimit="4" d="M 313.175781 30.667969 L 323.539062 39.804688 "/>
<path fill-rule="evenodd" fill="rgb(46.273804%, 52.940369%, 54.901123%)" fill-opacity="1" stroke-width="0.271042" stroke-linecap="butt" stroke-linejoin="miter" stroke="rgb(46.273804%, 52.940369%, 54.901123%)" stroke-opacity="1" stroke-miterlimit="4" d="M -199.772301 138.093047 L -198.753376 137.07763 L -202.311353 138.09306 L -198.754685 139.110034 Z M -199.772301 138.093047 " transform="matrix(-1, -0.881547, 0.881547, -1, 0, 0)"/>
<path fill="none" stroke-width="0.67748" stroke-linecap="butt" stroke-linejoin="miter" stroke="rgb(46.273804%, 52.940369%, 54.901123%)" stroke-opacity="1" stroke-miterlimit="4" d="M 313.558594 51.238281 L 323.539062 41.835938 "/>
<path fill-rule="evenodd" fill="rgb(46.273804%, 52.940369%, 54.901123%)" fill-opacity="1" stroke-width="0.26303" stroke-linecap="butt" stroke-linejoin="miter" stroke="rgb(46.273804%, 52.940369%, 54.901123%)" stroke-opacity="1" stroke-miterlimit="4" d="M -148.601998 -183.648334 L -147.615753 -184.637434 L -151.068344 -183.650886 L -147.614968 -182.664039 Z M -148.601998 -183.648334 " transform="matrix(-1, 0.941824, -0.941824, -1, 0, 0)"/>
<path fill="none" stroke-width="0.677695" stroke-linecap="butt" stroke-linejoin="miter" stroke="rgb(0%, 0%, 0%)" stroke-opacity="1" stroke-miterlimit="4" d="M 22.554688 40.882812 C 22.554688 47.019531 17.582031 51.992188 11.445312 51.992188 C 5.3125 51.992188 0.339844 47.019531 0.339844 40.882812 C 0.339844 34.75 5.3125 29.777344 11.445312 29.777344 C 17.582031 29.777344 22.554688 34.75 22.554688 40.882812 Z M 22.554688 40.882812 "/>
<path fill-rule="nonzero" fill="rgb(0%, 0%, 0%)" fill-opacity="1" d="M 12.078125 39.894531 C 12.148438 39.609375 12.417969 38.558594 13.199219 38.558594 C 13.253906 38.558594 13.539062 38.558594 13.769531 38.703125 C 13.449219 38.773438 13.238281 39.039062 13.238281 39.324219 C 13.238281 39.503906 13.363281 39.714844 13.664062 39.714844 C 13.914062 39.714844 14.269531 39.519531 14.269531 39.058594 C 14.269531 38.46875 13.609375 38.308594 13.21875 38.308594 C 12.558594 38.308594 12.167969 38.914062 12.023438 39.164062 C 11.742188 38.417969 11.132812 38.308594 10.796875 38.308594 C 9.621094 38.308594 8.960938 39.769531 8.960938 40.054688 C 8.960938 40.179688 9.085938 40.179688 9.105469 40.179688 C 9.191406 40.179688 9.226562 40.144531 9.246094 40.054688 C 9.636719 38.84375 10.386719 38.558594 10.777344 38.558594 C 10.992188 38.558594 11.382812 38.664062 11.382812 39.324219 C 11.382812 39.679688 11.1875 40.429688 10.777344 42.03125 C 10.601562 42.726562 10.191406 43.207031 9.691406 43.207031 C 9.621094 43.207031 9.371094 43.207031 9.121094 43.066406 C 9.40625 42.996094 9.65625 42.761719 9.65625 42.441406 C 9.65625 42.140625 9.40625 42.050781 9.246094 42.050781 C 8.890625 42.050781 8.621094 42.335938 8.621094 42.710938 C 8.621094 43.226562 9.175781 43.457031 9.675781 43.457031 C 10.441406 43.457031 10.847656 42.65625 10.867188 42.601562 C 11.011719 43.011719 11.417969 43.457031 12.097656 43.457031 C 13.273438 43.457031 13.914062 41.996094 13.914062 41.710938 C 13.914062 41.585938 13.824219 41.585938 13.789062 41.585938 C 13.683594 41.585938 13.664062 41.640625 13.628906 41.710938 C 13.253906 42.941406 12.488281 43.207031 12.132812 43.207031 C 11.6875 43.207031 11.507812 42.851562 11.507812 42.460938 C 11.507812 42.210938 11.5625 41.960938 11.6875 41.460938 Z M 12.078125 39.894531 "/>
<path fill="none" stroke-width="0.67748" stroke-linecap="butt" stroke-linejoin="miter" stroke="rgb(0%, 0%, 0%)" stroke-opacity="1" stroke-miterlimit="4" d="M 31.382812 30.535156 L 64.863281 30.535156 L 64.863281 51.234375 L 31.382812 51.234375 Z M 31.382812 30.535156 "/>
<path fill-rule="nonzero" fill="rgb(0%, 0%, 0%)" fill-opacity="1" d="M 35.234375 40.855469 C 35.304688 39.164062 36.265625 38.878906 36.660156 38.878906 C 37.816406 38.878906 37.941406 40.410156 37.941406 40.855469 Z M 35.234375 41.105469 L 38.40625 41.105469 C 38.652344 41.105469 38.6875 41.105469 38.6875 40.855469 C 38.6875 39.734375 38.066406 38.628906 36.660156 38.628906 C 35.339844 38.628906 34.289062 39.804688 34.289062 41.230469 C 34.289062 42.746094 35.484375 43.851562 36.785156 43.851562 C 38.171875 43.851562 38.6875 42.585938 38.6875 42.371094 C 38.6875 42.265625 38.601562 42.230469 38.527344 42.230469 C 38.441406 42.230469 38.40625 42.300781 38.386719 42.390625 C 37.996094 43.566406 36.960938 43.566406 36.855469 43.566406 C 36.285156 43.566406 35.839844 43.226562 35.570312 42.796875 C 35.234375 42.265625 35.234375 41.515625 35.234375 41.105469 Z M 35.234375 41.105469 "/>
<path fill-rule="nonzero" fill="rgb(0%, 0%, 0%)" fill-opacity="1" d="M 42.277344 41.054688 C 42.613281 40.625 43.042969 40.074219 43.328125 39.769531 C 43.683594 39.359375 44.148438 39.183594 44.679688 39.183594 L 44.679688 38.824219 C 44.378906 38.84375 44.039062 38.863281 43.738281 38.863281 C 43.398438 38.863281 42.792969 38.84375 42.652344 38.824219 L 42.652344 39.183594 C 42.898438 39.199219 42.988281 39.34375 42.988281 39.539062 C 42.988281 39.714844 42.863281 39.859375 42.8125 39.929688 L 42.117188 40.820312 L 41.226562 39.664062 C 41.117188 39.554688 41.117188 39.539062 41.117188 39.46875 C 41.117188 39.289062 41.296875 39.183594 41.511719 39.183594 L 41.511719 38.824219 C 41.226562 38.84375 40.476562 38.863281 40.28125 38.863281 C 40.050781 38.863281 39.515625 38.84375 39.210938 38.824219 L 39.210938 39.183594 C 40.015625 39.183594 40.015625 39.183594 40.546875 39.878906 L 41.671875 41.335938 L 40.601562 42.691406 C 40.066406 43.351562 39.390625 43.367188 39.160156 43.367188 L 39.160156 43.726562 C 39.445312 43.707031 39.800781 43.6875 40.101562 43.6875 C 40.421875 43.6875 40.90625 43.707031 41.171875 43.726562 L 41.171875 43.367188 C 40.921875 43.332031 40.851562 43.191406 40.851562 43.011719 C 40.851562 42.761719 41.171875 42.390625 41.867188 41.570312 L 42.738281 42.710938 C 42.828125 42.835938 42.972656 43.011719 42.972656 43.082031 C 42.972656 43.191406 42.863281 43.367188 42.5625 43.367188 L 42.5625 43.726562 C 42.898438 43.707031 43.542969 43.6875 43.789062 43.6875 C 44.09375 43.6875 44.539062 43.707031 44.878906 43.726562 L 44.878906 43.367188 C 44.273438 43.367188 44.058594 43.351562 43.808594 43.011719 Z M 42.277344 41.054688 "/>
<path fill-rule="nonzero" fill="rgb(0%, 0%, 0%)" fill-opacity="1" d="M 46.972656 39.449219 L 46.972656 38.703125 L 45.332031 38.824219 L 45.332031 39.183594 C 46.132812 39.183594 46.222656 39.253906 46.222656 39.753906 L 46.222656 45.0625 C 46.222656 45.578125 46.097656 45.578125 45.332031 45.578125 L 45.332031 45.933594 C 45.722656 45.917969 46.3125 45.898438 46.597656 45.898438 C 46.917969 45.898438 47.488281 45.917969 47.878906 45.933594 L 47.878906 45.578125 C 47.132812 45.578125 47.007812 45.578125 47.007812 45.0625 L 47.007812 43.046875 C 47.058594 43.242188 47.542969 43.851562 48.394531 43.851562 C 49.75 43.851562 50.925781 42.726562 50.925781 41.265625 C 50.925781 39.824219 49.839844 38.703125 48.554688 38.703125 C 47.664062 38.703125 47.183594 39.199219 46.972656 39.449219 Z M 47.007812 42.425781 L 47.007812 39.894531 C 47.328125 39.308594 47.878906 38.988281 48.46875 38.988281 C 49.304688 38.988281 49.980469 39.984375 49.980469 41.265625 C 49.980469 42.636719 49.199219 43.601562 48.359375 43.601562 C 47.898438 43.601562 47.46875 43.367188 47.167969 42.90625 C 47.007812 42.675781 47.007812 42.65625 47.007812 42.425781 Z M 47.007812 42.425781 "/>
<path fill-rule="nonzero" fill="rgb(0%, 0%, 0%)" fill-opacity="1" d="M 54.226562 46.574219 L 54.226562 46.113281 L 53.121094 46.113281 L 53.121094 35.65625 L 54.226562 35.65625 L 54.226562 35.191406 L 52.660156 35.191406 L 52.660156 46.574219 Z M 54.226562 46.574219 "/>
<path fill-rule="nonzero" fill="rgb(0%, 0%, 0%)" fill-opacity="1" d="M 59.519531 40.875 C 59.519531 39.664062 58.503906 38.683594 57.328125 38.683594 C 56.097656 38.683594 55.101562 39.699219 55.101562 40.875 C 55.101562 42.085938 56.097656 43.082031 57.328125 43.082031 C 58.503906 43.082031 59.519531 42.105469 59.519531 40.875 Z M 59.519531 40.875 "/>
<path fill-rule="nonzero" fill="rgb(0%, 0%, 0%)" fill-opacity="1" d="M 61.957031 35.191406 L 60.40625 35.191406 L 60.40625 35.65625 L 61.511719 35.65625 L 61.511719 46.113281 L 60.40625 46.113281 L 60.40625 46.574219 L 61.957031 46.574219 Z M 61.957031 35.191406 "/>
<path fill="none" stroke-width="0.67748" stroke-linecap="butt" stroke-linejoin="miter" stroke="rgb(0%, 0%, 0%)" stroke-opacity="1" stroke-miterlimit="4" d="M 251.441406 13.101562 L 284.921875 13.101562 L 284.921875 33.796875 L 251.441406 33.796875 Z M 251.441406 13.101562 "/>
<path fill-rule="nonzero" fill="rgb(0%, 0%, 0%)" fill-opacity="1" d="M 255.292969 23.421875 C 255.363281 21.730469 256.324219 21.445312 256.71875 21.445312 C 257.875 21.445312 258 22.976562 258 23.421875 Z M 255.292969 23.671875 L 258.464844 23.671875 C 258.714844 23.671875 258.75 23.671875 258.75 23.421875 C 258.75 22.300781 258.125 21.195312 256.71875 21.195312 C 255.398438 21.195312 254.347656 22.371094 254.347656 23.796875 C 254.347656 25.3125 255.542969 26.414062 256.84375 26.414062 C 258.230469 26.414062 258.75 25.152344 258.75 24.9375 C 258.75 24.828125 258.660156 24.792969 258.589844 24.792969 C 258.5 24.792969 258.464844 24.867188 258.445312 24.953125 C 258.054688 26.128906 257.019531 26.128906 256.914062 26.128906 C 256.34375 26.128906 255.898438 25.792969 255.632812 25.363281 C 255.292969 24.828125 255.292969 24.082031 255.292969 23.671875 Z M 255.292969 23.671875 "/>
<path fill-rule="nonzero" fill="rgb(0%, 0%, 0%)" fill-opacity="1" d="M 262.335938 23.617188 C 262.675781 23.191406 263.101562 22.640625 263.386719 22.335938 C 263.742188 21.925781 264.207031 21.75 264.742188 21.75 L 264.742188 21.390625 C 264.4375 21.410156 264.097656 21.425781 263.796875 21.425781 C 263.457031 21.425781 262.851562 21.410156 262.710938 21.390625 L 262.710938 21.75 C 262.960938 21.765625 263.046875 21.910156 263.046875 22.105469 C 263.046875 22.28125 262.921875 22.425781 262.871094 22.496094 L 262.175781 23.386719 L 261.285156 22.230469 C 261.175781 22.121094 261.175781 22.105469 261.175781 22.03125 C 261.175781 21.855469 261.355469 21.75 261.570312 21.75 L 261.570312 21.390625 C 261.285156 21.410156 260.535156 21.425781 260.339844 21.425781 C 260.109375 21.425781 259.574219 21.410156 259.269531 21.390625 L 259.269531 21.75 C 260.074219 21.75 260.074219 21.75 260.609375 22.441406 L 261.730469 23.902344 L 260.660156 25.257812 C 260.125 25.917969 259.449219 25.933594 259.21875 25.933594 L 259.21875 26.289062 C 259.503906 26.273438 259.859375 26.253906 260.164062 26.253906 C 260.484375 26.253906 260.964844 26.273438 261.230469 26.289062 L 261.230469 25.933594 C 260.980469 25.898438 260.910156 25.757812 260.910156 25.578125 C 260.910156 25.328125 261.230469 24.953125 261.925781 24.136719 L 262.796875 25.273438 C 262.886719 25.398438 263.03125 25.578125 263.03125 25.648438 C 263.03125 25.757812 262.921875 25.933594 262.621094 25.933594 L 262.621094 26.289062 C 262.960938 26.273438 263.601562 26.253906 263.851562 26.253906 C 264.152344 26.253906 264.597656 26.273438 264.9375 26.289062 L 264.9375 25.933594 C 264.332031 25.933594 264.117188 25.917969 263.867188 25.578125 Z M 262.335938 23.617188 "/>
<path fill-rule="nonzero" fill="rgb(0%, 0%, 0%)" fill-opacity="1" d="M 267.03125 22.015625 L 267.03125 21.265625 L 265.390625 21.390625 L 265.390625 21.75 C 266.191406 21.75 266.28125 21.820312 266.28125 22.316406 L 266.28125 27.625 C 266.28125 28.144531 266.15625 28.144531 265.390625 28.144531 L 265.390625 28.5 C 265.78125 28.480469 266.371094 28.464844 266.65625 28.464844 C 266.976562 28.464844 267.546875 28.480469 267.9375 28.5 L 267.9375 28.144531 C 267.191406 28.144531 267.066406 28.144531 267.066406 27.625 L 267.066406 25.613281 C 267.121094 25.808594 267.601562 26.414062 268.457031 26.414062 C 269.808594 26.414062 270.984375 25.292969 270.984375 23.832031 C 270.984375 22.390625 269.898438 21.265625 268.617188 21.265625 C 267.726562 21.265625 267.242188 21.765625 267.03125 22.015625 Z M 267.066406 24.992188 L 267.066406 22.460938 C 267.386719 21.871094 267.9375 21.550781 268.527344 21.550781 C 269.363281 21.550781 270.039062 22.550781 270.039062 23.832031 C 270.039062 25.203125 269.257812 26.167969 268.417969 26.167969 C 267.957031 26.167969 267.527344 25.933594 267.226562 25.472656 C 267.066406 25.238281 267.066406 25.222656 267.066406 24.992188 Z M 267.066406 24.992188 "/>
<path fill-rule="nonzero" fill="rgb(0%, 0%, 0%)" fill-opacity="1" d="M 274.285156 29.140625 L 274.285156 28.679688 L 273.179688 28.679688 L 273.179688 18.222656 L 274.285156 18.222656 L 274.285156 17.757812 L 272.71875 17.757812 L 272.71875 29.140625 Z M 274.285156 29.140625 "/>
<path fill-rule="nonzero" fill="rgb(0%, 0%, 0%)" fill-opacity="1" d="M 279.578125 23.441406 C 279.578125 22.230469 278.5625 21.25 277.386719 21.25 C 276.15625 21.25 275.160156 22.265625 275.160156 23.441406 C 275.160156 24.652344 276.15625 25.648438 277.386719 25.648438 C 278.5625 25.648438 279.578125 24.667969 279.578125 23.441406 Z M 279.578125 23.441406 "/>
<path fill-rule="nonzero" fill="rgb(0%, 0%, 0%)" fill-opacity="1" d="M 282.015625 17.757812 L 280.464844 17.757812 L 280.464844 18.222656 L 281.570312 18.222656 L 281.570312 28.679688 L 280.464844 28.679688 L 280.464844 29.140625 L 282.015625 29.140625 Z M 282.015625 17.757812 "/>
<g clip-path="url(#clip-0)">
<path fill="none" stroke-width="0.67748" stroke-linecap="butt" stroke-linejoin="miter" stroke="rgb(0%, 0%, 0%)" stroke-opacity="1" stroke-miterlimit="4" d="M 251.441406 47.96875 L 284.921875 47.96875 L 284.921875 68.667969 L 251.441406 68.667969 Z M 251.441406 47.96875 "/>
</g>
<path fill-rule="nonzero" fill="rgb(0%, 0%, 0%)" fill-opacity="1" d="M 258.074219 58.949219 C 258.324219 59.003906 259.25 59.183594 259.25 60 C 259.25 60.570312 258.859375 61.035156 257.96875 61.035156 C 257.003906 61.035156 256.59375 60.394531 256.382812 59.414062 C 256.347656 59.269531 256.347656 59.234375 256.222656 59.234375 C 256.078125 59.234375 256.078125 59.304688 256.078125 59.503906 L 256.078125 61.015625 C 256.078125 61.210938 256.078125 61.285156 256.203125 61.285156 C 256.257812 61.285156 256.273438 61.265625 256.488281 61.050781 C 256.507812 61.035156 256.507812 61.015625 256.71875 60.804688 C 257.21875 61.265625 257.734375 61.285156 257.96875 61.285156 C 259.269531 61.285156 259.800781 60.519531 259.800781 59.699219 C 259.800781 59.109375 259.464844 58.753906 259.320312 58.628906 C 258.945312 58.253906 258.5 58.167969 258.019531 58.078125 C 257.378906 57.953125 256.632812 57.808594 256.632812 57.152344 C 256.632812 56.742188 256.917969 56.277344 257.894531 56.277344 C 259.144531 56.277344 259.214844 57.3125 259.230469 57.648438 C 259.230469 57.757812 259.339844 57.757812 259.355469 57.757812 C 259.515625 57.757812 259.515625 57.703125 259.515625 57.488281 L 259.515625 56.332031 C 259.515625 56.152344 259.515625 56.0625 259.390625 56.0625 C 259.339844 56.0625 259.304688 56.0625 259.160156 56.207031 C 259.125 56.242188 259.019531 56.347656 258.964844 56.386719 C 258.539062 56.0625 258.074219 56.0625 257.894531 56.0625 C 256.507812 56.0625 256.078125 56.832031 256.078125 57.472656 C 256.078125 57.863281 256.257812 58.183594 256.558594 58.433594 C 256.933594 58.71875 257.253906 58.789062 258.074219 58.949219 Z M 258.074219 58.949219 "/>
<path fill-rule="nonzero" fill="rgb(0%, 0%, 0%)" fill-opacity="1" d="M 262.199219 56.136719 L 260.613281 56.261719 L 260.613281 56.617188 C 261.34375 56.617188 261.449219 56.6875 261.449219 57.238281 L 261.449219 60.304688 C 261.449219 60.804688 261.324219 60.804688 260.558594 60.804688 L 260.558594 61.160156 C 260.914062 61.140625 261.539062 61.125 261.804688 61.125 C 262.214844 61.125 262.609375 61.140625 263 61.160156 L 263 60.804688 C 262.234375 60.804688 262.199219 60.75 262.199219 60.304688 Z M 262.234375 54.15625 C 262.234375 53.800781 261.964844 53.550781 261.644531 53.550781 C 261.289062 53.550781 261.039062 53.855469 261.039062 54.15625 C 261.039062 54.460938 261.289062 54.765625 261.644531 54.765625 C 261.964844 54.765625 262.234375 54.515625 262.234375 54.15625 Z M 262.234375 54.15625 "/>
<path fill-rule="nonzero" fill="rgb(0%, 0%, 0%)" fill-opacity="1" d="M 264.585938 57.257812 L 264.585938 60.304688 C 264.585938 60.804688 264.460938 60.804688 263.695312 60.804688 L 263.695312 61.160156 C 264.105469 61.140625 264.675781 61.125 264.996094 61.125 C 265.28125 61.125 265.871094 61.140625 266.261719 61.160156 L 266.261719 60.804688 C 265.496094 60.804688 265.371094 60.804688 265.371094 60.304688 L 265.371094 58.203125 C 265.371094 57.027344 266.191406 56.386719 266.902344 56.386719 C 267.632812 56.386719 267.757812 56.992188 267.757812 57.648438 L 267.757812 60.304688 C 267.757812 60.804688 267.632812 60.804688 266.867188 60.804688 L 266.867188 61.160156 C 267.257812 61.140625 267.847656 61.125 268.148438 61.125 C 268.433594 61.125 269.039062 61.140625 269.414062 61.160156 L 269.414062 60.804688 C 268.828125 60.804688 268.542969 60.804688 268.542969 60.464844 L 268.542969 58.292969 C 268.542969 57.3125 268.542969 56.972656 268.1875 56.5625 C 268.027344 56.367188 267.652344 56.136719 266.992188 56.136719 C 266.15625 56.136719 265.621094 56.617188 265.300781 57.328125 L 265.300781 56.136719 L 263.695312 56.261719 L 263.695312 56.617188 C 264.5 56.617188 264.585938 56.6875 264.585938 57.257812 Z M 264.585938 57.257812 "/>
<path fill-rule="nonzero" fill="rgb(0%, 0%, 0%)" fill-opacity="1" d="M 272.554688 64.007812 L 272.554688 63.546875 L 271.449219 63.546875 L 271.449219 53.089844 L 272.554688 53.089844 L 272.554688 52.625 L 270.988281 52.625 L 270.988281 64.007812 Z M 272.554688 64.007812 "/>
<path fill-rule="nonzero" fill="rgb(0%, 0%, 0%)" fill-opacity="1" d="M 277.847656 58.308594 C 277.847656 57.097656 276.832031 56.117188 275.65625 56.117188 C 274.429688 56.117188 273.429688 57.132812 273.429688 58.308594 C 273.429688 59.519531 274.429688 60.519531 275.65625 60.519531 C 276.832031 60.519531 277.847656 59.539062 277.847656 58.308594 Z M 277.847656 58.308594 "/>
<path fill-rule="nonzero" fill="rgb(0%, 0%, 0%)" fill-opacity="1" d="M 280.285156 52.625 L 278.734375 52.625 L 278.734375 53.089844 L 279.839844 53.089844 L 279.839844 63.546875 L 278.734375 63.546875 L 278.734375 64.007812 L 280.285156 64.007812 Z M 280.285156 52.625 "/>
<path fill="none" stroke-width="0.67748" stroke-linecap="butt" stroke-linejoin="miter" stroke="rgb(0%, 0%, 0%)" stroke-opacity="1" stroke-miterlimit="4" d="M 104.734375 1.097656 L 138.21875 1.097656 L 138.21875 21.796875 L 104.734375 21.796875 Z M 104.734375 1.097656 "/>
<path fill-rule="nonzero" fill="rgb(0%, 0%, 0%)" fill-opacity="1" d="M 115.414062 17.445312 C 115.414062 17.410156 115.414062 17.390625 115.214844 17.195312 C 113.808594 15.769531 113.433594 13.613281 113.433594 11.867188 C 113.433594 9.890625 113.863281 7.914062 115.269531 6.507812 C 115.414062 6.363281 115.414062 6.347656 115.414062 6.3125 C 115.414062 6.222656 115.378906 6.1875 115.304688 6.1875 C 115.179688 6.1875 114.164062 6.96875 113.488281 8.414062 C 112.917969 9.660156 112.777344 10.925781 112.777344 11.867188 C 112.777344 12.757812 112.902344 14.132812 113.523438 15.433594 C 114.21875 16.820312 115.179688 17.570312 115.304688 17.570312 C 115.378906 17.570312 115.414062 17.535156 115.414062 17.445312 Z M 115.414062 17.445312 "/>
<path fill-rule="nonzero" fill="rgb(0%, 0%, 0%)" fill-opacity="1" d="M 121.113281 11.867188 C 121.113281 10.65625 120.097656 9.675781 118.921875 9.675781 C 117.691406 9.675781 116.695312 10.691406 116.695312 11.867188 C 116.695312 13.082031 117.691406 14.078125 118.921875 14.078125 C 120.097656 14.078125 121.113281 13.097656 121.113281 11.867188 Z M 121.113281 11.867188 "/>
<path fill-rule="nonzero" fill="rgb(0%, 0%, 0%)" fill-opacity="1" d="M 125.027344 11.867188 C 125.027344 10.996094 124.902344 9.625 124.28125 8.324219 C 123.601562 6.933594 122.625 6.1875 122.515625 6.1875 C 122.445312 6.1875 122.390625 6.238281 122.390625 6.3125 C 122.390625 6.347656 122.390625 6.363281 122.605469 6.578125 C 123.726562 7.699219 124.371094 9.5 124.371094 11.867188 C 124.371094 13.828125 123.960938 15.824219 122.550781 17.25 C 122.390625 17.390625 122.390625 17.410156 122.390625 17.445312 C 122.390625 17.515625 122.445312 17.570312 122.515625 17.570312 C 122.625 17.570312 123.65625 16.785156 124.316406 15.34375 C 124.902344 14.09375 125.027344 12.832031 125.027344 11.867188 Z M 125.027344 11.867188 "/>
<path fill-rule="nonzero" fill="rgb(0%, 0%, 0%)" fill-opacity="1" d="M 130.175781 9.152344 L 129.910156 9.152344 C 129.890625 9.332031 129.800781 9.792969 129.695312 9.867188 C 129.640625 9.917969 129.035156 9.917969 128.910156 9.917969 L 127.449219 9.917969 C 128.289062 9.1875 128.574219 8.957031 129.035156 8.582031 C 129.625 8.121094 130.175781 7.621094 130.175781 6.875 C 130.175781 5.910156 129.339844 5.324219 128.324219 5.324219 C 127.34375 5.324219 126.667969 6.019531 126.667969 6.75 C 126.667969 7.140625 127.003906 7.195312 127.09375 7.195312 C 127.273438 7.195312 127.503906 7.050781 127.503906 6.765625 C 127.503906 6.625 127.449219 6.339844 127.039062 6.339844 C 127.289062 5.785156 127.824219 5.609375 128.199219 5.609375 C 129 5.609375 129.410156 6.230469 129.410156 6.875 C 129.410156 7.566406 128.910156 8.101562 128.660156 8.386719 L 126.753906 10.292969 C 126.667969 10.363281 126.667969 10.382812 126.667969 10.597656 L 129.945312 10.597656 Z M 130.175781 9.152344 "/>
<path fill="none" stroke-width="0.67748" stroke-linecap="butt" stroke-linejoin="miter" stroke="rgb(0%, 0%, 0%)" stroke-opacity="1" stroke-miterlimit="4" d="M 178.085938 30.535156 L 211.570312 30.535156 L 211.570312 51.234375 L 178.085938 51.234375 Z M 178.085938 30.535156 "/>
<path fill-rule="nonzero" fill="rgb(0%, 0%, 0%)" fill-opacity="1" d="M 187.257812 40.875 C 187.257812 39.664062 186.242188 38.683594 185.066406 38.683594 C 183.835938 38.683594 182.839844 39.699219 182.839844 40.875 C 182.839844 42.085938 183.835938 43.082031 185.066406 43.082031 C 186.242188 43.082031 187.257812 42.105469 187.257812 40.875 Z M 187.257812 40.875 "/>
<path fill-rule="nonzero" fill="rgb(0%, 0%, 0%)" fill-opacity="1" d="M 195.070312 41.105469 L 198.242188 41.105469 C 198.402344 41.105469 198.613281 41.105469 198.613281 40.875 C 198.613281 40.660156 198.402344 40.660156 198.242188 40.660156 L 195.070312 40.660156 L 195.070312 37.472656 C 195.070312 37.3125 195.070312 37.097656 194.835938 37.097656 C 194.605469 37.097656 194.605469 37.3125 194.605469 37.472656 L 194.605469 40.660156 L 191.433594 40.660156 C 191.273438 40.660156 191.0625 40.660156 191.0625 40.875 C 191.0625 41.105469 191.273438 41.105469 191.433594 41.105469 L 194.605469 41.105469 L 194.605469 44.296875 C 194.605469 44.457031 194.605469 44.667969 194.835938 44.667969 C 195.070312 44.667969 195.070312 44.457031 195.070312 44.296875 Z M 195.070312 41.105469 "/>
<path fill-rule="nonzero" fill="rgb(0%, 0%, 0%)" fill-opacity="1" d="M 206.820312 40.875 C 206.820312 39.664062 205.804688 38.683594 204.628906 38.683594 C 203.398438 38.683594 202.402344 39.699219 202.402344 40.875 C 202.402344 42.085938 203.398438 43.082031 204.628906 43.082031 C 205.804688 43.082031 206.820312 42.105469 206.820312 40.875 Z M 206.820312 40.875 "/>
<path fill="none" stroke-width="0.67748" stroke-linecap="butt" stroke-linejoin="miter" stroke="rgb(0%, 0%, 0%)" stroke-opacity="1" stroke-miterlimit="4" d="M 324.792969 30.535156 L 358.277344 30.535156 L 358.277344 51.234375 L 324.792969 51.234375 Z M 324.792969 30.535156 "/>
<path fill-rule="nonzero" fill="rgb(0%, 0%, 0%)" fill-opacity="1" d="M 333.964844 40.875 C 333.964844 39.664062 332.949219 38.683594 331.773438 38.683594 C 330.542969 38.683594 329.546875 39.699219 329.546875 40.875 C 329.546875 42.085938 330.542969 43.082031 331.773438 43.082031 C 332.949219 43.082031 333.964844 42.105469 333.964844 40.875 Z M 333.964844 40.875 "/>
<path fill-rule="nonzero" fill="rgb(0%, 0%, 0%)" fill-opacity="1" d="M 341.777344 41.105469 L 344.945312 41.105469 C 345.105469 41.105469 345.320312 41.105469 345.320312 40.875 C 345.320312 40.660156 345.105469 40.660156 344.945312 40.660156 L 341.777344 40.660156 L 341.777344 37.472656 C 341.777344 37.3125 341.777344 37.097656 341.542969 37.097656 C 341.3125 37.097656 341.3125 37.3125 341.3125 37.472656 L 341.3125 40.660156 L 338.140625 40.660156 C 337.980469 40.660156 337.765625 40.660156 337.765625 40.875 C 337.765625 41.105469 337.980469 41.105469 338.140625 41.105469 L 341.3125 41.105469 L 341.3125 44.296875 C 341.3125 44.457031 341.3125 44.667969 341.542969 44.667969 C 341.777344 44.667969 341.777344 44.457031 341.777344 44.296875 Z M 341.777344 41.105469 "/>
<path fill-rule="nonzero" fill="rgb(0%, 0%, 0%)" fill-opacity="1" d="M 353.527344 40.875 C 353.527344 39.664062 352.511719 38.683594 351.335938 38.683594 C 350.105469 38.683594 349.109375 39.699219 349.109375 40.875 C 349.109375 42.085938 350.105469 43.082031 351.335938 43.082031 C 352.511719 43.082031 353.527344 42.105469 353.527344 40.875 Z M 353.527344 40.875 "/>
<g clip-path="url(#clip-1)">
<path fill="none" stroke-width="0.677695" stroke-linecap="butt" stroke-linejoin="miter" stroke="rgb(0%, 0%, 0%)" stroke-opacity="1" stroke-miterlimit="4" d="M 389.320312 40.882812 C 389.320312 47.019531 384.347656 51.992188 378.210938 51.992188 C 372.078125 51.992188 367.105469 47.019531 367.105469 40.882812 C 367.105469 34.75 372.078125 29.777344 378.210938 29.777344 C 384.347656 29.777344 389.320312 34.75 389.320312 40.882812 Z M 389.320312 40.882812 "/>
</g>
<path fill-rule="nonzero" fill="rgb(0%, 0%, 0%)" fill-opacity="1" d="M 380.777344 37.898438 C 380.832031 37.738281 380.832031 37.722656 380.832031 37.632812 C 380.832031 37.4375 380.671875 37.328125 380.492188 37.328125 C 380.386719 37.328125 380.207031 37.402344 380.101562 37.5625 C 380.082031 37.632812 379.976562 37.972656 379.941406 38.183594 C 379.851562 38.46875 379.78125 38.789062 379.707031 39.09375 L 379.191406 41.140625 C 379.15625 41.300781 378.65625 42.105469 377.910156 42.105469 C 377.339844 42.105469 377.214844 41.605469 377.214844 41.175781 C 377.214844 40.660156 377.410156 39.949219 377.785156 38.949219 C 377.960938 38.488281 378.015625 38.363281 378.015625 38.132812 C 378.015625 37.632812 377.660156 37.203125 377.089844 37.203125 C 376.003906 37.203125 375.59375 38.863281 375.59375 38.949219 C 375.59375 39.074219 375.699219 39.074219 375.71875 39.074219 C 375.84375 39.074219 375.84375 39.039062 375.894531 38.863281 C 376.214844 37.792969 376.660156 37.453125 377.054688 37.453125 C 377.144531 37.453125 377.339844 37.453125 377.339844 37.8125 C 377.339844 38.09375 377.214844 38.398438 377.144531 38.613281 C 376.679688 39.824219 376.484375 40.464844 376.484375 41 C 376.484375 42.015625 377.195312 42.351562 377.875 42.351562 C 378.320312 42.351562 378.691406 42.15625 379.011719 41.835938 C 378.871094 42.425781 378.726562 42.996094 378.28125 43.601562 C 377.980469 43.972656 377.550781 44.3125 377.035156 44.3125 C 376.875 44.3125 376.359375 44.277344 376.164062 43.832031 C 376.339844 43.832031 376.5 43.832031 376.644531 43.6875 C 376.769531 43.601562 376.875 43.441406 376.875 43.226562 C 376.875 42.871094 376.574219 42.835938 376.464844 42.835938 C 376.199219 42.835938 375.824219 43.011719 375.824219 43.566406 C 375.824219 44.132812 376.324219 44.5625 377.035156 44.5625 C 378.195312 44.5625 379.371094 43.527344 379.691406 42.246094 Z M 380.777344 37.898438 "/>
<path fill="none" stroke-width="0.677695" stroke-linecap="butt" stroke-linejoin="miter" stroke="rgb(0%, 0%, 0%)" stroke-opacity="1" stroke-miterlimit="4" d="M 95.90625 40.882812 C 95.90625 47.019531 90.933594 51.992188 84.800781 51.992188 C 78.664062 51.992188 73.691406 47.019531 73.691406 40.882812 C 73.691406 34.75 78.664062 29.777344 84.800781 29.777344 C 90.933594 29.777344 95.90625 34.75 95.90625 40.882812 Z M 95.90625 40.882812 "/>
<path fill-rule="nonzero" fill="rgb(0%, 0%, 0%)" fill-opacity="1" d="M 84.003906 39.183594 L 84.984375 39.183594 C 85.214844 39.183594 85.324219 39.183594 85.324219 38.949219 C 85.324219 38.824219 85.214844 38.824219 85.019531 38.824219 L 84.078125 38.824219 L 84.308594 37.527344 C 84.359375 37.292969 84.523438 36.492188 84.59375 36.351562 C 84.683594 36.136719 84.878906 35.957031 85.128906 35.957031 C 85.164062 35.957031 85.464844 35.957031 85.679688 36.171875 C 85.179688 36.207031 85.054688 36.617188 85.054688 36.777344 C 85.054688 37.042969 85.269531 37.1875 85.484375 37.1875 C 85.785156 37.1875 86.105469 36.917969 86.105469 36.492188 C 86.105469 35.976562 85.589844 35.707031 85.128906 35.707031 C 84.734375 35.707031 84.023438 35.921875 83.683594 37.042969 C 83.613281 37.277344 83.578125 37.402344 83.308594 38.824219 L 82.527344 38.824219 C 82.292969 38.824219 82.171875 38.824219 82.171875 39.039062 C 82.171875 39.183594 82.277344 39.183594 82.492188 39.183594 L 83.238281 39.183594 L 82.402344 43.671875 C 82.1875 44.777344 81.992188 45.808594 81.402344 45.808594 C 81.351562 45.808594 81.082031 45.808594 80.851562 45.59375 C 81.386719 45.558594 81.492188 45.148438 81.492188 44.988281 C 81.492188 44.722656 81.28125 44.582031 81.066406 44.582031 C 80.761719 44.582031 80.441406 44.847656 80.441406 45.273438 C 80.441406 45.773438 80.941406 46.058594 81.402344 46.058594 C 82.027344 46.058594 82.492188 45.382812 82.6875 44.953125 C 83.0625 44.242188 83.308594 42.871094 83.328125 42.78125 Z M 84.003906 39.183594 "/>
<path fill-rule="nonzero" fill="rgb(0%, 0%, 0%)" fill-opacity="1" d="M 88.050781 40.367188 C 88.050781 40.15625 88.050781 40.15625 87.820312 40.15625 C 87.304688 40.652344 86.589844 40.652344 86.269531 40.652344 L 86.269531 40.9375 C 86.449219 40.9375 86.984375 40.9375 87.410156 40.726562 L 87.410156 44.769531 C 87.410156 45.035156 87.410156 45.144531 86.628906 45.144531 L 86.324219 45.144531 L 86.324219 45.429688 C 86.46875 45.429688 87.445312 45.394531 87.730469 45.394531 C 87.980469 45.394531 88.980469 45.429688 89.15625 45.429688 L 89.15625 45.144531 L 88.855469 45.144531 C 88.050781 45.144531 88.050781 45.035156 88.050781 44.769531 Z M 88.050781 40.367188 "/>
<path fill="none" stroke-width="0.677695" stroke-linecap="butt" stroke-linejoin="miter" stroke="rgb(0%, 0%, 0%)" stroke-opacity="1" stroke-miterlimit="4" d="M 315.964844 23.449219 C 315.964844 29.582031 310.992188 34.558594 304.859375 34.558594 C 298.722656 34.558594 293.75 29.582031 293.75 23.449219 C 293.75 17.316406 298.722656 12.34375 304.859375 12.34375 C 310.992188 12.34375 315.964844 17.316406 315.964844 23.449219 Z M 315.964844 23.449219 "/>
<path fill-rule="nonzero" fill="rgb(0%, 0%, 0%)" fill-opacity="1" d="M 303.839844 21.746094 L 304.820312 21.746094 C 305.054688 21.746094 305.160156 21.746094 305.160156 21.515625 C 305.160156 21.390625 305.054688 21.390625 304.855469 21.390625 L 303.914062 21.390625 L 304.144531 20.089844 C 304.199219 19.859375 304.359375 19.058594 304.429688 18.914062 C 304.519531 18.703125 304.714844 18.523438 304.964844 18.523438 C 305 18.523438 305.300781 18.523438 305.515625 18.738281 C 305.015625 18.773438 304.890625 19.183594 304.890625 19.34375 C 304.890625 19.609375 305.105469 19.753906 305.320312 19.753906 C 305.621094 19.753906 305.945312 19.484375 305.945312 19.058594 C 305.945312 18.542969 305.425781 18.273438 304.964844 18.273438 C 304.570312 18.273438 303.859375 18.488281 303.519531 19.609375 C 303.449219 19.84375 303.414062 19.964844 303.148438 21.390625 L 302.363281 21.390625 C 302.132812 21.390625 302.007812 21.390625 302.007812 21.605469 C 302.007812 21.746094 302.113281 21.746094 302.328125 21.746094 L 303.074219 21.746094 L 302.238281 26.238281 C 302.023438 27.34375 301.828125 28.375 301.242188 28.375 C 301.1875 28.375 300.917969 28.375 300.6875 28.160156 C 301.222656 28.125 301.328125 27.714844 301.328125 27.554688 C 301.328125 27.289062 301.117188 27.144531 300.902344 27.144531 C 300.597656 27.144531 300.277344 27.414062 300.277344 27.839844 C 300.277344 28.339844 300.777344 28.625 301.242188 28.625 C 301.863281 28.625 302.328125 27.949219 302.523438 27.519531 C 302.898438 26.808594 303.148438 25.4375 303.164062 25.347656 Z M 303.839844 21.746094 "/>
<path fill-rule="nonzero" fill="rgb(0%, 0%, 0%)" fill-opacity="1" d="M 309.4375 26.695312 L 309.4375 26.410156 L 308.546875 26.410156 L 308.546875 22.863281 C 308.546875 22.703125 308.546875 22.632812 308.386719 22.632812 C 308.28125 22.632812 308.246094 22.632812 308.175781 22.757812 L 305.539062 26.410156 L 305.539062 26.695312 L 307.890625 26.695312 L 307.890625 27.335938 C 307.890625 27.621094 307.890625 27.710938 307.230469 27.710938 L 307.015625 27.710938 L 307.015625 27.992188 C 307.425781 27.976562 307.925781 27.957031 308.210938 27.957031 C 308.511719 27.957031 309.011719 27.976562 309.421875 27.992188 L 309.421875 27.710938 L 309.207031 27.710938 C 308.546875 27.710938 308.546875 27.621094 308.546875 27.335938 L 308.546875 26.695312 Z M 307.941406 23.503906 L 307.941406 26.410156 L 305.839844 26.410156 Z M 307.941406 23.503906 "/>
<g clip-path="url(#clip-2)">
<path fill="none" stroke-width="0.677695" stroke-linecap="butt" stroke-linejoin="miter" stroke="rgb(0%, 0%, 0%)" stroke-opacity="1" stroke-miterlimit="4" d="M 315.964844 58.316406 C 315.964844 64.453125 310.992188 69.425781 304.859375 69.425781 C 298.722656 69.425781 293.75 64.453125 293.75 58.316406 C 293.75 52.183594 298.722656 47.210938 304.859375 47.210938 C 310.992188 47.210938 315.964844 52.183594 315.964844 58.316406 Z M 315.964844 58.316406 "/>
</g>
<path fill-rule="nonzero" fill="rgb(0%, 0%, 0%)" fill-opacity="1" d="M 303.941406 56.617188 L 304.917969 56.617188 C 305.152344 56.617188 305.257812 56.617188 305.257812 56.386719 C 305.257812 56.261719 305.152344 56.261719 304.953125 56.261719 L 304.011719 56.261719 L 304.242188 54.960938 C 304.296875 54.726562 304.457031 53.925781 304.527344 53.785156 C 304.617188 53.570312 304.8125 53.390625 305.0625 53.390625 C 305.097656 53.390625 305.398438 53.390625 305.613281 53.605469 C 305.117188 53.640625 304.992188 54.050781 304.992188 54.210938 C 304.992188 54.480469 305.203125 54.621094 305.417969 54.621094 C 305.722656 54.621094 306.042969 54.355469 306.042969 53.925781 C 306.042969 53.410156 305.523438 53.144531 305.0625 53.144531 C 304.667969 53.144531 303.957031 53.355469 303.617188 54.480469 C 303.546875 54.710938 303.511719 54.835938 303.246094 56.261719 L 302.460938 56.261719 C 302.230469 56.261719 302.105469 56.261719 302.105469 56.472656 C 302.105469 56.617188 302.210938 56.617188 302.425781 56.617188 L 303.171875 56.617188 L 302.335938 61.105469 C 302.121094 62.210938 301.925781 63.242188 301.339844 63.242188 C 301.285156 63.242188 301.019531 63.242188 300.785156 63.03125 C 301.320312 62.996094 301.425781 62.585938 301.425781 62.425781 C 301.425781 62.15625 301.214844 62.015625 301 62.015625 C 300.695312 62.015625 300.375 62.28125 300.375 62.710938 C 300.375 63.207031 300.875 63.492188 301.339844 63.492188 C 301.960938 63.492188 302.425781 62.816406 302.621094 62.386719 C 302.996094 61.675781 303.246094 60.304688 303.261719 60.214844 Z M 303.941406 56.617188 "/>
<path fill-rule="nonzero" fill="rgb(0%, 0%, 0%)" fill-opacity="1" d="M 306.5625 58.425781 C 306.972656 58.535156 307.203125 58.535156 307.328125 58.535156 C 308.378906 58.535156 309.003906 57.820312 309.003906 57.695312 C 309.003906 57.605469 308.949219 57.589844 308.914062 57.589844 C 308.894531 57.589844 308.878906 57.589844 308.84375 57.605469 C 308.644531 57.679688 308.234375 57.839844 307.648438 57.839844 C 307.417969 57.839844 307.007812 57.820312 306.492188 57.625 C 306.402344 57.589844 306.382812 57.589844 306.382812 57.589844 C 306.277344 57.589844 306.277344 57.679688 306.277344 57.804688 L 306.277344 60.136719 C 306.277344 60.28125 306.277344 60.367188 306.402344 60.367188 C 306.472656 60.367188 306.492188 60.367188 306.5625 60.261719 C 306.898438 59.835938 307.398438 59.761719 307.667969 59.761719 C 308.148438 59.761719 308.359375 60.136719 308.398438 60.207031 C 308.539062 60.476562 308.59375 60.777344 308.59375 61.242188 C 308.59375 61.472656 308.59375 61.9375 308.34375 62.292969 C 308.148438 62.578125 307.808594 62.773438 307.417969 62.773438 C 306.898438 62.773438 306.367188 62.488281 306.167969 61.953125 C 306.472656 61.972656 306.632812 61.777344 306.632812 61.5625 C 306.632812 61.222656 306.328125 61.171875 306.222656 61.171875 C 306.222656 61.171875 305.832031 61.171875 305.832031 61.597656 C 305.832031 62.308594 306.492188 63.023438 307.433594 63.023438 C 308.449219 63.023438 309.339844 62.273438 309.339844 61.257812 C 309.339844 60.367188 308.664062 59.550781 307.683594 59.550781 C 307.328125 59.550781 306.917969 59.621094 306.5625 59.921875 Z M 306.5625 58.425781 "/>
<path fill="none" stroke-width="0.677695" stroke-linecap="butt" stroke-linejoin="miter" stroke="rgb(0%, 0%, 0%)" stroke-opacity="1" stroke-miterlimit="4" d="M 169.261719 11.445312 C 169.261719 17.582031 164.285156 22.554688 158.152344 22.554688 C 152.019531 22.554688 147.046875 17.582031 147.046875 11.445312 C 147.046875 5.3125 152.019531 0.339844 158.152344 0.339844 C 164.285156 0.339844 169.261719 5.3125 169.261719 11.445312 Z M 169.261719 11.445312 "/>
<path fill-rule="nonzero" fill="rgb(0%, 0%, 0%)" fill-opacity="1" d="M 157.234375 9.746094 L 158.214844 9.746094 C 158.445312 9.746094 158.550781 9.746094 158.550781 9.511719 C 158.550781 9.390625 158.445312 9.390625 158.25 9.390625 L 157.304688 9.390625 L 157.535156 8.089844 C 157.589844 7.855469 157.75 7.054688 157.820312 6.914062 C 157.910156 6.699219 158.105469 6.519531 158.355469 6.519531 C 158.390625 6.519531 158.695312 6.519531 158.90625 6.734375 C 158.410156 6.769531 158.285156 7.179688 158.285156 7.339844 C 158.285156 7.605469 158.5 7.75 158.710938 7.75 C 159.015625 7.75 159.335938 7.484375 159.335938 7.054688 C 159.335938 6.539062 158.820312 6.269531 158.355469 6.269531 C 157.964844 6.269531 157.25 6.484375 156.914062 7.605469 C 156.839844 7.839844 156.804688 7.964844 156.539062 9.390625 L 155.753906 9.390625 C 155.523438 9.390625 155.398438 9.390625 155.398438 9.601562 C 155.398438 9.746094 155.503906 9.746094 155.71875 9.746094 L 156.46875 9.746094 L 155.628906 14.234375 C 155.417969 15.339844 155.21875 16.371094 154.632812 16.371094 C 154.578125 16.371094 154.3125 16.371094 154.082031 16.160156 C 154.613281 16.121094 154.722656 15.714844 154.722656 15.550781 C 154.722656 15.285156 154.507812 15.144531 154.292969 15.144531 C 153.992188 15.144531 153.671875 15.410156 153.671875 15.835938 C 153.671875 16.335938 154.167969 16.621094 154.632812 16.621094 C 155.257812 16.621094 155.71875 15.945312 155.914062 15.515625 C 156.289062 14.804688 156.539062 13.433594 156.554688 13.34375 Z M 157.234375 9.746094 "/>
<path fill-rule="nonzero" fill="rgb(0%, 0%, 0%)" fill-opacity="1" d="M 162.632812 14.546875 L 162.367188 14.546875 C 162.347656 14.726562 162.261719 15.1875 162.152344 15.261719 C 162.101562 15.3125 161.496094 15.3125 161.371094 15.3125 L 159.910156 15.3125 C 160.746094 14.582031 161.03125 14.351562 161.496094 13.976562 C 162.082031 13.515625 162.632812 13.015625 162.632812 12.269531 C 162.632812 11.304688 161.796875 10.71875 160.78125 10.71875 C 159.800781 10.71875 159.125 11.414062 159.125 12.144531 C 159.125 12.535156 159.464844 12.589844 159.550781 12.589844 C 159.730469 12.589844 159.960938 12.445312 159.960938 12.160156 C 159.960938 12.019531 159.910156 11.734375 159.5 11.734375 C 159.75 11.179688 160.28125 11.003906 160.65625 11.003906 C 161.457031 11.003906 161.867188 11.625 161.867188 12.269531 C 161.867188 12.960938 161.371094 13.496094 161.121094 13.78125 L 159.214844 15.6875 C 159.125 15.757812 159.125 15.777344 159.125 15.992188 L 162.402344 15.992188 Z M 162.632812 14.546875 "/>
<path fill="none" stroke-width="0.677695" stroke-linecap="butt" stroke-linejoin="miter" stroke="rgb(0%, 0%, 0%)" stroke-opacity="1" stroke-miterlimit="4" d="M 242.613281 40.882812 C 242.613281 47.019531 237.640625 51.992188 231.503906 51.992188 C 225.371094 51.992188 220.398438 47.019531 220.398438 40.882812 C 220.398438 34.75 225.371094 29.777344 231.503906 29.777344 C 237.640625 29.777344 242.613281 34.75 242.613281 40.882812 Z M 242.613281 40.882812 "/>
<path fill-rule="nonzero" fill="rgb(0%, 0%, 0%)" fill-opacity="1" d="M 230.550781 39.183594 L 231.53125 39.183594 C 231.761719 39.183594 231.867188 39.183594 231.867188 38.949219 C 231.867188 38.824219 231.761719 38.824219 231.566406 38.824219 L 230.621094 38.824219 L 230.855469 37.527344 C 230.90625 37.292969 231.066406 36.492188 231.140625 36.351562 C 231.226562 36.136719 231.421875 35.957031 231.671875 35.957031 C 231.707031 35.957031 232.011719 35.957031 232.226562 36.171875 C 231.726562 36.207031 231.601562 36.617188 231.601562 36.777344 C 231.601562 37.042969 231.816406 37.1875 232.03125 37.1875 C 232.332031 37.1875 232.652344 36.917969 232.652344 36.492188 C 232.652344 35.976562 232.136719 35.707031 231.671875 35.707031 C 231.28125 35.707031 230.570312 35.921875 230.230469 37.042969 C 230.160156 37.277344 230.125 37.402344 229.855469 38.824219 L 229.070312 38.824219 C 228.839844 38.824219 228.714844 38.824219 228.714844 39.039062 C 228.714844 39.183594 228.824219 39.183594 229.035156 39.183594 L 229.785156 39.183594 L 228.949219 43.671875 C 228.734375 44.777344 228.539062 45.808594 227.949219 45.808594 C 227.894531 45.808594 227.628906 45.808594 227.398438 45.59375 C 227.933594 45.558594 228.039062 45.148438 228.039062 44.988281 C 228.039062 44.722656 227.824219 44.582031 227.613281 44.582031 C 227.308594 44.582031 226.988281 44.847656 226.988281 45.273438 C 226.988281 45.773438 227.488281 46.058594 227.949219 46.058594 C 228.574219 46.058594 229.035156 45.382812 229.234375 44.953125 C 229.605469 44.242188 229.855469 42.871094 229.875 42.78125 Z M 230.550781 39.183594 "/>
<path fill-rule="nonzero" fill="rgb(0%, 0%, 0%)" fill-opacity="1" d="M 234.117188 42.773438 C 234.742188 42.773438 235.1875 43.203125 235.1875 44.058594 C 235.1875 45.035156 234.597656 45.339844 234.152344 45.339844 C 233.832031 45.339844 233.121094 45.25 232.800781 44.769531 C 233.171875 44.769531 233.261719 44.503906 233.261719 44.324219 C 233.261719 44.074219 233.066406 43.894531 232.816406 43.894531 C 232.601562 43.894531 232.371094 44.039062 232.371094 44.359375 C 232.371094 45.109375 233.191406 45.589844 234.152344 45.589844 C 235.257812 45.589844 236.023438 44.839844 236.023438 44.058594 C 236.023438 43.433594 235.523438 42.808594 234.652344 42.632812 C 235.472656 42.328125 235.773438 41.742188 235.773438 41.242188 C 235.773438 40.617188 235.0625 40.15625 234.171875 40.15625 C 233.296875 40.15625 232.621094 40.582031 232.621094 41.222656 C 232.621094 41.492188 232.800781 41.632812 233.03125 41.632812 C 233.28125 41.632812 233.441406 41.457031 233.441406 41.242188 C 233.441406 41.011719 233.28125 40.832031 233.03125 40.8125 C 233.316406 40.476562 233.851562 40.386719 234.152344 40.386719 C 234.507812 40.386719 235.007812 40.566406 235.007812 41.242188 C 235.007812 41.582031 234.902344 41.953125 234.6875 42.1875 C 234.4375 42.488281 234.207031 42.507812 233.8125 42.542969 C 233.617188 42.558594 233.601562 42.558594 233.566406 42.558594 C 233.546875 42.558594 233.476562 42.578125 233.476562 42.667969 C 233.476562 42.773438 233.546875 42.773438 233.691406 42.773438 Z M 234.117188 42.773438 "/>
</svg>
