<?xml version="1.0" encoding="UTF-8"?>
<svg xmlns="http://www.w3.org/2000/svg" xmlns:xlink="http://www.w3.org/1999/xlink" width="409.651489pt" height="25.099926pt" viewBox="0 0 409.651489 25.099926">
<defs>
<clipPath id="clip-0">
<path clip-rule="nonzero" d="M 2 0 L 33 0 L 33 25.101562 L 2 25.101562 Z M 2 0 "/>
</clipPath>
<clipPath id="clip-1">
<path clip-rule="nonzero" d="M 49 0 L 80 0 L 80 25.101562 L 49 25.101562 Z M 49 0 "/>
</clipPath>
<clipPath id="clip-2">
<path clip-rule="nonzero" d="M 96 0 L 126 0 L 126 25.101562 L 96 25.101562 Z M 96 0 "/>
</clipPath>
<clipPath id="clip-3">
<path clip-rule="nonzero" d="M 142 0 L 173 0 L 173 25.101562 L 142 25.101562 Z M 142 0 "/>
</clipPath>
<clipPath id="clip-4">
<path clip-rule="nonzero" d="M 189 0 L 220 0 L 220 25.101562 L 189 25.101562 Z M 189 0 "/>
</clipPath>
<clipPath id="clip-5">
<path clip-rule="nonzero" d="M 236 0 L 267 0 L 267 25.101562 L 236 25.101562 Z M 236 0 "/>
</clipPath>
<clipPath id="clip-6">
<path clip-rule="nonzero" d="M 283 0 L 313 0 L 313 25.101562 L 283 25.101562 Z M 283 0 "/>
</clipPath>
<clipPath id="clip-7">
<path clip-rule="nonzero" d="M 329 0 L 360 0 L 360 25.101562 L 329 25.101562 Z M 329 0 "/>
</clipPath>
<clipPath id="clip-8">
<path clip-rule="nonzero" d="M 376 0 L 407 0 L 407 25.101562 L 376 25.101562 Z M 376 0 "/>
</clipPath>
</defs>
<path fill-rule="nonzero" fill="rgb(0%, 0%, 0%)" fill-opacity="1" d="M 16.410156 10.855469 C 16.480469 10.574219 16.742188 9.542969 17.511719 9.542969 C 17.5625 9.542969 17.84375 9.542969 18.070312 9.683594 C 17.757812 9.75 17.546875 10.015625 17.546875 10.292969 C 17.546875 10.46875 17.667969 10.679688 17.964844 10.679688 C 18.210938 10.679688 18.5625 10.488281 18.5625 10.03125 C 18.5625 9.453125 17.914062 9.296875 17.527344 9.296875 C 16.882812 9.296875 16.496094 9.890625 16.355469 10.136719 C 16.078125 9.402344 15.480469 9.296875 15.148438 9.296875 C 13.996094 9.296875 13.347656 10.730469 13.347656 11.011719 C 13.347656 11.132812 13.46875 11.132812 13.488281 11.132812 C 13.574219 11.132812 13.609375 11.097656 13.628906 11.011719 C 14.011719 9.820312 14.746094 9.542969 15.132812 9.542969 C 15.34375 9.542969 15.726562 9.648438 15.726562 10.292969 C 15.726562 10.644531 15.535156 11.378906 15.132812 12.953125 C 14.957031 13.636719 14.554688 14.109375 14.066406 14.109375 C 13.996094 14.109375 13.75 14.109375 13.503906 13.96875 C 13.785156 13.898438 14.03125 13.671875 14.03125 13.355469 C 14.03125 13.058594 13.785156 12.96875 13.628906 12.96875 C 13.277344 12.96875 13.015625 13.25 13.015625 13.617188 C 13.015625 14.125 13.558594 14.351562 14.046875 14.351562 C 14.800781 14.351562 15.203125 13.566406 15.21875 13.511719 C 15.359375 13.914062 15.761719 14.351562 16.425781 14.351562 C 17.582031 14.351562 18.210938 12.917969 18.210938 12.636719 C 18.210938 12.515625 18.125 12.515625 18.089844 12.515625 C 17.984375 12.515625 17.964844 12.566406 17.929688 12.636719 C 17.5625 13.84375 16.8125 14.109375 16.460938 14.109375 C 16.023438 14.109375 15.847656 13.757812 15.847656 13.371094 C 15.847656 13.128906 15.902344 12.882812 16.023438 12.394531 Z M 16.410156 10.855469 "/>
<path fill-rule="nonzero" fill="rgb(0%, 0%, 0%)" fill-opacity="1" d="M 21.59375 11.023438 C 21.59375 10.898438 21.488281 10.726562 21.28125 10.726562 C 21.070312 10.726562 20.84375 10.933594 20.84375 11.160156 C 20.84375 11.285156 20.929688 11.460938 21.15625 11.460938 C 21.367188 11.460938 21.59375 11.230469 21.59375 11.023438 Z M 20.003906 14.992188 C 19.96875 15.097656 19.933594 15.183594 19.933594 15.324219 C 19.933594 15.691406 20.230469 15.972656 20.667969 15.972656 C 21.4375 15.972656 21.785156 14.90625 21.785156 14.78125 C 21.785156 14.679688 21.683594 14.679688 21.664062 14.679688 C 21.558594 14.679688 21.542969 14.730469 21.507812 14.816406 C 21.332031 15.449219 21 15.761719 20.683594 15.761719 C 20.527344 15.761719 20.492188 15.65625 20.492188 15.484375 C 20.492188 15.308594 20.542969 15.167969 20.613281 14.992188 C 20.703125 14.78125 20.789062 14.574219 20.859375 14.363281 C 20.929688 14.171875 21.226562 13.472656 21.246094 13.367188 C 21.28125 13.296875 21.296875 13.207031 21.296875 13.121094 C 21.296875 12.753906 20.980469 12.457031 20.5625 12.457031 C 19.773438 12.457031 19.425781 13.523438 19.425781 13.664062 C 19.425781 13.75 19.53125 13.75 19.566406 13.75 C 19.671875 13.75 19.671875 13.714844 19.703125 13.628906 C 19.898438 12.964844 20.246094 12.683594 20.527344 12.683594 C 20.648438 12.683594 20.71875 12.738281 20.71875 12.945312 C 20.71875 13.140625 20.683594 13.242188 20.492188 13.734375 Z M 20.003906 14.992188 "/>
<g clip-path="url(#clip-0)">
<path fill="none" stroke-width="0.677695" stroke-linecap="butt" stroke-linejoin="miter" stroke="rgb(0%, 0%, 0%)" stroke-opacity="1" stroke-miterlimit="4" d="M 28.507812 12.636719 C 28.507812 18.769531 23.535156 23.742188 17.402344 23.742188 C 11.265625 23.742188 6.292969 18.769531 6.292969 12.636719 C 6.292969 6.5 11.265625 1.527344 17.402344 1.527344 C 23.535156 1.527344 28.507812 6.5 28.507812 12.636719 Z M 28.507812 12.636719 "/>
</g>
<path fill-rule="nonzero" fill="rgb(0%, 0%, 0%)" fill-opacity="1" d="M 63.226562 10.964844 L 64.191406 10.964844 C 64.417969 10.964844 64.523438 10.964844 64.523438 10.738281 C 64.523438 10.613281 64.417969 10.613281 64.226562 10.613281 L 63.296875 10.613281 L 63.527344 9.335938 C 63.578125 9.109375 63.734375 8.324219 63.804688 8.183594 C 63.894531 7.972656 64.085938 7.796875 64.332031 7.796875 C 64.367188 7.796875 64.664062 7.796875 64.871094 8.007812 C 64.382812 8.042969 64.261719 8.445312 64.261719 8.601562 C 64.261719 8.863281 64.46875 9.003906 64.679688 9.003906 C 64.976562 9.003906 65.292969 8.742188 65.292969 8.324219 C 65.292969 7.816406 64.785156 7.554688 64.332031 7.554688 C 63.945312 7.554688 63.246094 7.761719 62.914062 8.863281 C 62.84375 9.09375 62.808594 9.214844 62.546875 10.613281 L 61.777344 10.613281 C 61.550781 10.613281 61.425781 10.613281 61.425781 10.824219 C 61.425781 10.964844 61.53125 10.964844 61.742188 10.964844 L 62.476562 10.964844 L 61.652344 15.371094 C 61.445312 16.457031 61.25 17.472656 60.675781 17.472656 C 60.621094 17.472656 60.359375 17.472656 60.132812 17.261719 C 60.65625 17.226562 60.761719 16.824219 60.761719 16.667969 C 60.761719 16.40625 60.550781 16.265625 60.34375 16.265625 C 60.042969 16.265625 59.730469 16.527344 59.730469 16.945312 C 59.730469 17.4375 60.21875 17.714844 60.675781 17.714844 C 61.285156 17.714844 61.742188 17.050781 61.933594 16.632812 C 62.300781 15.933594 62.546875 14.585938 62.5625 14.496094 Z M 63.226562 10.964844 "/>
<path fill-rule="nonzero" fill="rgb(0%, 0%, 0%)" fill-opacity="1" d="M 68.621094 14.613281 C 68.621094 13.757812 68.515625 13.125 68.164062 12.585938 C 67.917969 12.234375 67.429688 11.917969 66.816406 11.917969 C 65 11.917969 65 14.054688 65 14.613281 C 65 15.171875 65 17.253906 66.816406 17.253906 C 68.621094 17.253906 68.621094 15.171875 68.621094 14.613281 Z M 66.816406 17.027344 C 66.449219 17.027344 65.976562 16.816406 65.820312 16.1875 C 65.714844 15.734375 65.714844 15.085938 65.714844 14.507812 C 65.714844 13.929688 65.714844 13.335938 65.820312 12.917969 C 65.996094 12.304688 66.484375 12.128906 66.816406 12.128906 C 67.238281 12.128906 67.640625 12.390625 67.78125 12.847656 C 67.902344 13.265625 67.917969 13.828125 67.917969 14.507812 C 67.917969 15.085938 67.917969 15.664062 67.816406 16.152344 C 67.65625 16.871094 67.132812 17.027344 66.816406 17.027344 Z M 66.816406 17.027344 "/>
<g clip-path="url(#clip-1)">
<path fill="none" stroke-width="0.677695" stroke-linecap="butt" stroke-linejoin="miter" stroke="rgb(0%, 0%, 0%)" stroke-opacity="1" stroke-miterlimit="4" d="M 75.28125 12.636719 C 75.28125 18.769531 70.308594 23.742188 64.175781 23.742188 C 58.039062 23.742188 53.066406 18.769531 53.066406 12.636719 C 53.066406 6.5 58.039062 1.527344 64.175781 1.527344 C 70.308594 1.527344 75.28125 6.5 75.28125 12.636719 Z M 75.28125 12.636719 "/>
</g>
<path fill-rule="nonzero" fill="rgb(0%, 0%, 0%)" fill-opacity="1" d="M 108.785156 8.046875 C 108.785156 8.046875 108.785156 7.921875 108.644531 7.921875 C 108.382812 7.921875 107.578125 8.011719 107.28125 8.046875 C 107.191406 8.046875 107.070312 8.0625 107.070312 8.257812 C 107.070312 8.394531 107.175781 8.394531 107.332031 8.394531 C 107.875 8.394531 107.890625 8.464844 107.890625 8.589844 L 107.859375 8.816406 L 106.25 15.234375 C 106.195312 15.394531 106.195312 15.410156 106.195312 15.480469 C 106.195312 15.742188 106.421875 15.796875 106.527344 15.796875 C 106.703125 15.796875 106.878906 15.65625 106.929688 15.5 L 107.140625 14.660156 L 107.386719 13.660156 C 107.457031 13.398438 107.523438 13.152344 107.578125 12.910156 C 107.59375 12.839844 107.699219 12.472656 107.699219 12.402344 C 107.734375 12.296875 108.085938 11.683594 108.46875 11.371094 C 108.714844 11.195312 109.046875 10.984375 109.535156 10.984375 C 110.007812 10.984375 110.132812 11.371094 110.132812 11.773438 C 110.132812 12.367188 109.710938 13.589844 109.449219 14.273438 C 109.363281 14.519531 109.292969 14.660156 109.292969 14.886719 C 109.292969 15.410156 109.695312 15.796875 110.21875 15.796875 C 111.269531 15.796875 111.671875 14.167969 111.671875 14.082031 C 111.671875 13.957031 111.582031 13.957031 111.546875 13.957031 C 111.425781 13.957031 111.425781 13.992188 111.375 14.167969 C 111.214844 14.761719 110.847656 15.550781 110.238281 15.550781 C 110.042969 15.550781 109.972656 15.445312 109.972656 15.183594 C 109.972656 14.902344 110.0625 14.640625 110.167969 14.394531 C 110.339844 13.90625 110.847656 12.578125 110.847656 11.929688 C 110.847656 11.210938 110.410156 10.738281 109.570312 10.738281 C 108.871094 10.738281 108.328125 11.089844 107.910156 11.597656 Z M 108.785156 8.046875 "/>
<path fill-rule="nonzero" fill="rgb(0%, 0%, 0%)" fill-opacity="1" d="M 114.617188 12.378906 C 114.617188 12.167969 114.617188 12.167969 114.390625 12.167969 C 113.882812 12.65625 113.183594 12.65625 112.867188 12.65625 L 112.867188 12.9375 C 113.042969 12.9375 113.566406 12.9375 113.988281 12.726562 L 113.988281 16.699219 C 113.988281 16.960938 113.988281 17.066406 113.214844 17.066406 L 112.917969 17.066406 L 112.917969 17.347656 C 113.058594 17.347656 114.019531 17.3125 114.300781 17.3125 C 114.546875 17.3125 115.527344 17.347656 115.699219 17.347656 L 115.699219 17.066406 L 115.402344 17.066406 C 114.617188 17.066406 114.617188 16.960938 114.617188 16.699219 Z M 114.617188 12.378906 "/>
<g clip-path="url(#clip-2)">
<path fill="none" stroke-width="0.677695" stroke-linecap="butt" stroke-linejoin="miter" stroke="rgb(0%, 0%, 0%)" stroke-opacity="1" stroke-miterlimit="4" d="M 122.054688 12.636719 C 122.054688 18.769531 117.082031 23.742188 110.949219 23.742188 C 104.8125 23.742188 99.839844 18.769531 99.839844 12.636719 C 99.839844 6.5 104.8125 1.527344 110.949219 1.527344 C 117.082031 1.527344 122.054688 6.5 122.054688 12.636719 Z M 122.054688 12.636719 "/>
</g>
<path fill-rule="nonzero" fill="rgb(0%, 0%, 0%)" fill-opacity="1" d="M 156.941406 10.964844 L 157.902344 10.964844 C 158.132812 10.964844 158.234375 10.964844 158.234375 10.738281 C 158.234375 10.613281 158.132812 10.613281 157.9375 10.613281 L 157.011719 10.613281 L 157.238281 9.335938 C 157.292969 9.109375 157.449219 8.324219 157.519531 8.183594 C 157.605469 7.972656 157.796875 7.796875 158.042969 7.796875 C 158.078125 7.796875 158.375 7.796875 158.585938 8.007812 C 158.097656 8.042969 157.972656 8.445312 157.972656 8.601562 C 157.972656 8.863281 158.183594 9.003906 158.394531 9.003906 C 158.691406 9.003906 159.003906 8.742188 159.003906 8.324219 C 159.003906 7.816406 158.5 7.554688 158.042969 7.554688 C 157.660156 7.554688 156.960938 7.761719 156.625 8.863281 C 156.558594 9.09375 156.523438 9.214844 156.257812 10.613281 L 155.488281 10.613281 C 155.261719 10.613281 155.140625 10.613281 155.140625 10.824219 C 155.140625 10.964844 155.246094 10.964844 155.453125 10.964844 L 156.1875 10.964844 L 155.367188 15.371094 C 155.15625 16.457031 154.964844 17.472656 154.386719 17.472656 C 154.335938 17.472656 154.074219 17.472656 153.84375 17.261719 C 154.371094 17.226562 154.476562 16.824219 154.476562 16.667969 C 154.476562 16.40625 154.265625 16.265625 154.054688 16.265625 C 153.757812 16.265625 153.441406 16.527344 153.441406 16.945312 C 153.441406 17.4375 153.933594 17.714844 154.386719 17.714844 C 155 17.714844 155.453125 17.050781 155.648438 16.632812 C 156.015625 15.933594 156.257812 14.585938 156.277344 14.496094 Z M 156.941406 10.964844 "/>
<path fill-rule="nonzero" fill="rgb(0%, 0%, 0%)" fill-opacity="1" d="M 160.914062 12.128906 C 160.914062 11.917969 160.914062 11.917969 160.6875 11.917969 C 160.179688 12.410156 159.480469 12.410156 159.167969 12.410156 L 159.167969 12.6875 C 159.339844 12.6875 159.867188 12.6875 160.285156 12.480469 L 160.285156 16.449219 C 160.285156 16.710938 160.285156 16.816406 159.515625 16.816406 L 159.21875 16.816406 L 159.21875 17.097656 C 159.359375 17.097656 160.320312 17.0625 160.601562 17.0625 C 160.847656 17.0625 161.824219 17.097656 162 17.097656 L 162 16.816406 L 161.703125 16.816406 C 160.914062 16.816406 160.914062 16.710938 160.914062 16.449219 Z M 160.914062 12.128906 "/>
<g clip-path="url(#clip-3)">
<path fill="none" stroke-width="0.677695" stroke-linecap="butt" stroke-linejoin="miter" stroke="rgb(0%, 0%, 0%)" stroke-opacity="1" stroke-miterlimit="4" d="M 168.828125 12.636719 C 168.828125 18.769531 163.855469 23.742188 157.722656 23.742188 C 151.585938 23.742188 146.613281 18.769531 146.613281 12.636719 C 146.613281 6.5 151.585938 1.527344 157.722656 1.527344 C 163.855469 1.527344 168.828125 6.5 168.828125 12.636719 Z M 168.828125 12.636719 "/>
</g>
<path fill-rule="nonzero" fill="rgb(0%, 0%, 0%)" fill-opacity="1" d="M 202.210938 8.046875 C 202.210938 8.046875 202.210938 7.921875 202.070312 7.921875 C 201.808594 7.921875 201.003906 8.011719 200.703125 8.046875 C 200.617188 8.046875 200.496094 8.0625 200.496094 8.257812 C 200.496094 8.394531 200.601562 8.394531 200.757812 8.394531 C 201.300781 8.394531 201.316406 8.464844 201.316406 8.589844 L 201.28125 8.816406 L 199.671875 15.234375 C 199.621094 15.394531 199.621094 15.410156 199.621094 15.480469 C 199.621094 15.742188 199.847656 15.796875 199.953125 15.796875 C 200.128906 15.796875 200.300781 15.65625 200.355469 15.5 L 200.566406 14.660156 L 200.808594 13.660156 C 200.878906 13.398438 200.949219 13.152344 201.003906 12.910156 C 201.019531 12.839844 201.125 12.472656 201.125 12.402344 C 201.160156 12.296875 201.507812 11.683594 201.894531 11.371094 C 202.140625 11.195312 202.472656 10.984375 202.960938 10.984375 C 203.433594 10.984375 203.554688 11.371094 203.554688 11.773438 C 203.554688 12.367188 203.136719 13.589844 202.875 14.273438 C 202.785156 14.519531 202.714844 14.660156 202.714844 14.886719 C 202.714844 15.410156 203.117188 15.796875 203.644531 15.796875 C 204.691406 15.796875 205.09375 14.167969 205.09375 14.082031 C 205.09375 13.957031 205.007812 13.957031 204.972656 13.957031 C 204.851562 13.957031 204.851562 13.992188 204.796875 14.167969 C 204.640625 14.761719 204.273438 15.550781 203.660156 15.550781 C 203.46875 15.550781 203.398438 15.445312 203.398438 15.183594 C 203.398438 14.902344 203.484375 14.640625 203.589844 14.394531 C 203.765625 13.90625 204.273438 12.578125 204.273438 11.929688 C 204.273438 11.210938 203.835938 10.738281 202.996094 10.738281 C 202.296875 10.738281 201.753906 11.089844 201.335938 11.597656 Z M 202.210938 8.046875 "/>
<path fill-rule="nonzero" fill="rgb(0%, 0%, 0%)" fill-opacity="1" d="M 209.371094 15.929688 L 209.109375 15.929688 C 209.089844 16.105469 209.003906 16.558594 208.898438 16.628906 C 208.84375 16.679688 208.25 16.679688 208.128906 16.679688 L 206.695312 16.679688 C 207.515625 15.964844 207.796875 15.738281 208.25 15.367188 C 208.828125 14.914062 209.371094 14.425781 209.371094 13.691406 C 209.371094 12.746094 208.546875 12.167969 207.550781 12.167969 C 206.589844 12.167969 205.925781 12.851562 205.925781 13.566406 C 205.925781 13.953125 206.257812 14.003906 206.34375 14.003906 C 206.519531 14.003906 206.746094 13.863281 206.746094 13.585938 C 206.746094 13.445312 206.695312 13.164062 206.292969 13.164062 C 206.535156 12.621094 207.0625 12.449219 207.429688 12.449219 C 208.214844 12.449219 208.617188 13.058594 208.617188 13.691406 C 208.617188 14.371094 208.128906 14.898438 207.882812 15.175781 L 206.011719 17.046875 C 205.925781 17.117188 205.925781 17.136719 205.925781 17.347656 L 209.144531 17.347656 Z M 209.371094 15.929688 "/>
<g clip-path="url(#clip-4)">
<path fill="none" stroke-width="0.677695" stroke-linecap="butt" stroke-linejoin="miter" stroke="rgb(0%, 0%, 0%)" stroke-opacity="1" stroke-miterlimit="4" d="M 215.601562 12.636719 C 215.601562 18.769531 210.628906 23.742188 204.496094 23.742188 C 198.359375 23.742188 193.386719 18.769531 193.386719 12.636719 C 193.386719 6.5 198.359375 1.527344 204.496094 1.527344 C 210.628906 1.527344 215.601562 6.5 215.601562 12.636719 Z M 215.601562 12.636719 "/>
</g>
<path fill-rule="nonzero" fill="rgb(0%, 0%, 0%)" fill-opacity="1" d="M 250.367188 10.964844 L 251.328125 10.964844 C 251.554688 10.964844 251.660156 10.964844 251.660156 10.738281 C 251.660156 10.613281 251.554688 10.613281 251.363281 10.613281 L 250.4375 10.613281 L 250.664062 9.335938 C 250.714844 9.109375 250.875 8.324219 250.945312 8.183594 C 251.03125 7.972656 251.222656 7.796875 251.46875 7.796875 C 251.503906 7.796875 251.800781 7.796875 252.011719 8.007812 C 251.519531 8.042969 251.398438 8.445312 251.398438 8.601562 C 251.398438 8.863281 251.609375 9.003906 251.816406 9.003906 C 252.117188 9.003906 252.429688 8.742188 252.429688 8.324219 C 252.429688 7.816406 251.921875 7.554688 251.46875 7.554688 C 251.082031 7.554688 250.382812 7.761719 250.050781 8.863281 C 249.980469 9.09375 249.945312 9.214844 249.683594 10.613281 L 248.914062 10.613281 C 248.6875 10.613281 248.566406 10.613281 248.566406 10.824219 C 248.566406 10.964844 248.667969 10.964844 248.878906 10.964844 L 249.613281 10.964844 L 248.792969 15.371094 C 248.582031 16.457031 248.390625 17.472656 247.8125 17.472656 C 247.761719 17.472656 247.496094 17.472656 247.269531 17.261719 C 247.792969 17.226562 247.898438 16.824219 247.898438 16.667969 C 247.898438 16.40625 247.691406 16.265625 247.480469 16.265625 C 247.183594 16.265625 246.867188 16.527344 246.867188 16.945312 C 246.867188 17.4375 247.359375 17.714844 247.8125 17.714844 C 248.425781 17.714844 248.878906 17.050781 249.070312 16.632812 C 249.4375 15.933594 249.683594 14.585938 249.703125 14.496094 Z M 250.367188 10.964844 "/>
<path fill-rule="nonzero" fill="rgb(0%, 0%, 0%)" fill-opacity="1" d="M 255.671875 15.679688 L 255.40625 15.679688 C 255.390625 15.855469 255.300781 16.308594 255.199219 16.378906 C 255.144531 16.433594 254.550781 16.433594 254.429688 16.433594 L 252.992188 16.433594 C 253.816406 15.714844 254.09375 15.488281 254.550781 15.121094 C 255.128906 14.664062 255.671875 14.175781 255.671875 13.441406 C 255.671875 12.496094 254.847656 11.917969 253.851562 11.917969 C 252.890625 11.917969 252.222656 12.601562 252.222656 13.320312 C 252.222656 13.703125 252.554688 13.757812 252.644531 13.757812 C 252.820312 13.757812 253.046875 13.617188 253.046875 13.335938 C 253.046875 13.195312 252.992188 12.917969 252.589844 12.917969 C 252.835938 12.375 253.359375 12.199219 253.726562 12.199219 C 254.515625 12.199219 254.917969 12.8125 254.917969 13.441406 C 254.917969 14.125 254.429688 14.648438 254.183594 14.929688 L 252.3125 16.800781 C 252.222656 16.871094 252.222656 16.886719 252.222656 17.097656 L 255.441406 17.097656 Z M 255.671875 15.679688 "/>
<g clip-path="url(#clip-5)">
<path fill="none" stroke-width="0.677695" stroke-linecap="butt" stroke-linejoin="miter" stroke="rgb(0%, 0%, 0%)" stroke-opacity="1" stroke-miterlimit="4" d="M 262.375 12.636719 C 262.375 18.769531 257.402344 23.742188 251.269531 23.742188 C 245.132812 23.742188 240.160156 18.769531 240.160156 12.636719 C 240.160156 6.5 245.132812 1.527344 251.269531 1.527344 C 257.402344 1.527344 262.375 6.5 262.375 12.636719 Z M 262.375 12.636719 "/>
</g>
<path fill-rule="nonzero" fill="rgb(0%, 0%, 0%)" fill-opacity="1" d="M 295.722656 7.96875 C 295.722656 7.96875 295.722656 7.84375 295.582031 7.84375 C 295.320312 7.84375 294.515625 7.933594 294.21875 7.96875 C 294.128906 7.96875 294.007812 7.984375 294.007812 8.175781 C 294.007812 8.316406 294.113281 8.316406 294.269531 8.316406 C 294.8125 8.316406 294.828125 8.386719 294.828125 8.511719 L 294.792969 8.738281 L 293.183594 15.15625 C 293.132812 15.316406 293.132812 15.332031 293.132812 15.402344 C 293.132812 15.664062 293.359375 15.71875 293.464844 15.71875 C 293.640625 15.71875 293.816406 15.578125 293.867188 15.417969 L 294.078125 14.578125 L 294.320312 13.582031 C 294.390625 13.320312 294.460938 13.074219 294.515625 12.832031 C 294.53125 12.761719 294.636719 12.394531 294.636719 12.324219 C 294.671875 12.21875 295.023438 11.605469 295.40625 11.292969 C 295.652344 11.117188 295.984375 10.90625 296.472656 10.90625 C 296.945312 10.90625 297.070312 11.292969 297.070312 11.695312 C 297.070312 12.289062 296.648438 13.511719 296.386719 14.195312 C 296.296875 14.441406 296.230469 14.578125 296.230469 14.808594 C 296.230469 15.332031 296.632812 15.71875 297.15625 15.71875 C 298.207031 15.71875 298.609375 14.089844 298.609375 14.003906 C 298.609375 13.878906 298.519531 13.878906 298.484375 13.878906 C 298.363281 13.878906 298.363281 13.914062 298.308594 14.089844 C 298.152344 14.683594 297.785156 15.472656 297.171875 15.472656 C 296.980469 15.472656 296.910156 15.367188 296.910156 15.105469 C 296.910156 14.824219 297 14.5625 297.101562 14.316406 C 297.277344 13.828125 297.785156 12.5 297.785156 11.851562 C 297.785156 11.132812 297.347656 10.660156 296.507812 10.660156 C 295.808594 10.660156 295.265625 11.011719 294.847656 11.519531 Z M 295.722656 7.96875 "/>
<path fill-rule="nonzero" fill="rgb(0%, 0%, 0%)" fill-opacity="1" d="M 301.082031 14.660156 C 301.691406 14.660156 302.128906 15.082031 302.128906 15.921875 C 302.128906 16.882812 301.554688 17.179688 301.117188 17.179688 C 300.800781 17.179688 300.101562 17.09375 299.785156 16.621094 C 300.152344 16.621094 300.242188 16.355469 300.242188 16.183594 C 300.242188 15.9375 300.046875 15.761719 299.804688 15.761719 C 299.59375 15.761719 299.367188 15.902344 299.367188 16.21875 C 299.367188 16.953125 300.171875 17.425781 301.117188 17.425781 C 302.199219 17.425781 302.953125 16.691406 302.953125 15.921875 C 302.953125 15.308594 302.460938 14.695312 301.605469 14.519531 C 302.410156 14.222656 302.707031 13.644531 302.707031 13.15625 C 302.707031 12.542969 302.007812 12.089844 301.132812 12.089844 C 300.277344 12.089844 299.609375 12.507812 299.609375 13.140625 C 299.609375 13.402344 299.785156 13.542969 300.011719 13.542969 C 300.257812 13.542969 300.414062 13.367188 300.414062 13.15625 C 300.414062 12.929688 300.257812 12.753906 300.011719 12.738281 C 300.292969 12.402344 300.816406 12.316406 301.117188 12.316406 C 301.464844 12.316406 301.957031 12.492188 301.957031 13.15625 C 301.957031 13.488281 301.851562 13.855469 301.640625 14.082031 C 301.394531 14.378906 301.167969 14.398438 300.785156 14.433594 C 300.589844 14.449219 300.574219 14.449219 300.539062 14.449219 C 300.519531 14.449219 300.449219 14.46875 300.449219 14.554688 C 300.449219 14.660156 300.519531 14.660156 300.660156 14.660156 Z M 301.082031 14.660156 "/>
<g clip-path="url(#clip-6)">
<path fill="none" stroke-width="0.677695" stroke-linecap="butt" stroke-linejoin="miter" stroke="rgb(0%, 0%, 0%)" stroke-opacity="1" stroke-miterlimit="4" d="M 309.148438 12.636719 C 309.148438 18.769531 304.175781 23.742188 298.042969 23.742188 C 291.90625 23.742188 286.933594 18.769531 286.933594 12.636719 C 286.933594 6.5 291.90625 1.527344 298.042969 1.527344 C 304.175781 1.527344 309.148438 6.5 309.148438 12.636719 Z M 309.148438 12.636719 "/>
</g>
<path fill-rule="nonzero" fill="rgb(0%, 0%, 0%)" fill-opacity="1" d="M 343.878906 10.964844 L 344.839844 10.964844 C 345.066406 10.964844 345.171875 10.964844 345.171875 10.738281 C 345.171875 10.613281 345.066406 10.613281 344.875 10.613281 L 343.949219 10.613281 L 344.175781 9.335938 C 344.226562 9.109375 344.386719 8.324219 344.457031 8.183594 C 344.542969 7.972656 344.734375 7.796875 344.980469 7.796875 C 345.015625 7.796875 345.3125 7.796875 345.523438 8.007812 C 345.03125 8.042969 344.910156 8.445312 344.910156 8.601562 C 344.910156 8.863281 345.121094 9.003906 345.332031 9.003906 C 345.628906 9.003906 345.941406 8.742188 345.941406 8.324219 C 345.941406 7.816406 345.433594 7.554688 344.980469 7.554688 C 344.597656 7.554688 343.894531 7.761719 343.5625 8.863281 C 343.492188 9.09375 343.457031 9.214844 343.195312 10.613281 L 342.425781 10.613281 C 342.199219 10.613281 342.078125 10.613281 342.078125 10.824219 C 342.078125 10.964844 342.183594 10.964844 342.390625 10.964844 L 343.125 10.964844 L 342.304688 15.371094 C 342.09375 16.457031 341.902344 17.472656 341.324219 17.472656 C 341.273438 17.472656 341.007812 17.472656 340.78125 17.261719 C 341.308594 17.226562 341.410156 16.824219 341.410156 16.667969 C 341.410156 16.40625 341.203125 16.265625 340.992188 16.265625 C 340.695312 16.265625 340.378906 16.527344 340.378906 16.945312 C 340.378906 17.4375 340.871094 17.714844 341.324219 17.714844 C 341.9375 17.714844 342.390625 17.050781 342.585938 16.632812 C 342.953125 15.933594 343.195312 14.585938 343.214844 14.496094 Z M 343.878906 10.964844 "/>
<path fill-rule="nonzero" fill="rgb(0%, 0%, 0%)" fill-opacity="1" d="M 347.378906 14.492188 C 347.992188 14.492188 348.429688 14.910156 348.429688 15.75 C 348.429688 16.710938 347.851562 17.011719 347.414062 17.011719 C 347.101562 17.011719 346.402344 16.921875 346.085938 16.449219 C 346.453125 16.449219 346.539062 16.1875 346.539062 16.011719 C 346.539062 15.769531 346.347656 15.59375 346.101562 15.59375 C 345.894531 15.59375 345.667969 15.734375 345.667969 16.046875 C 345.667969 16.78125 346.472656 17.253906 347.414062 17.253906 C 348.5 17.253906 349.253906 16.519531 349.253906 15.75 C 349.253906 15.136719 348.761719 14.527344 347.90625 14.351562 C 348.710938 14.054688 349.007812 13.476562 349.007812 12.988281 C 349.007812 12.375 348.308594 11.917969 347.433594 11.917969 C 346.574219 11.917969 345.910156 12.339844 345.910156 12.96875 C 345.910156 13.230469 346.085938 13.371094 346.3125 13.371094 C 346.558594 13.371094 346.714844 13.195312 346.714844 12.988281 C 346.714844 12.757812 346.558594 12.585938 346.3125 12.566406 C 346.59375 12.234375 347.117188 12.148438 347.414062 12.148438 C 347.765625 12.148438 348.253906 12.320312 348.253906 12.988281 C 348.253906 13.320312 348.148438 13.6875 347.941406 13.914062 C 347.695312 14.210938 347.46875 14.230469 347.082031 14.261719 C 346.890625 14.28125 346.875 14.28125 346.839844 14.28125 C 346.820312 14.28125 346.75 14.296875 346.75 14.386719 C 346.75 14.492188 346.820312 14.492188 346.960938 14.492188 Z M 347.378906 14.492188 "/>
<g clip-path="url(#clip-7)">
<path fill="none" stroke-width="0.677695" stroke-linecap="butt" stroke-linejoin="miter" stroke="rgb(0%, 0%, 0%)" stroke-opacity="1" stroke-miterlimit="4" d="M 355.921875 12.636719 C 355.921875 18.769531 350.949219 23.742188 344.816406 23.742188 C 338.679688 23.742188 333.707031 18.769531 333.707031 12.636719 C 333.707031 6.5 338.679688 1.527344 344.816406 1.527344 C 350.949219 1.527344 355.921875 6.5 355.921875 12.636719 Z M 355.921875 12.636719 "/>
</g>
<g clip-path="url(#clip-8)">
<path fill="none" stroke-width="0.677695" stroke-linecap="butt" stroke-linejoin="miter" stroke="rgb(0%, 0%, 0%)" stroke-opacity="1" stroke-miterlimit="4" d="M 402.695312 12.636719 C 402.695312 18.769531 397.722656 23.742188 391.589844 23.742188 C 385.457031 23.742188 380.480469 18.769531 380.480469 12.636719 C 380.480469 6.5 385.457031 1.527344 391.589844 1.527344 C 397.722656 1.527344 402.695312 6.5 402.695312 12.636719 Z M 402.695312 12.636719 "/>
</g>
<path fill-rule="nonzero" fill="rgb(0%, 0%, 0%)" fill-opacity="1" d="M 388.015625 14.597656 C 387.996094 14.632812 387.960938 14.667969 387.960938 14.703125 C 387.960938 14.753906 388.03125 14.859375 388.101562 14.859375 C 388.15625 14.859375 388.191406 14.824219 388.503906 14.511719 C 388.59375 14.421875 388.820312 14.210938 388.90625 14.125 C 389.011719 15 389.328125 15.839844 390.148438 15.839844 C 390.605469 15.839844 390.988281 15.578125 391.214844 15.402344 C 391.375 15.296875 391.898438 14.859375 391.898438 14.753906 C 391.898438 14.71875 391.863281 14.613281 391.777344 14.613281 C 391.742188 14.613281 391.722656 14.632812 391.617188 14.71875 C 390.902344 15.417969 390.5 15.59375 390.167969 15.59375 C 389.675781 15.59375 389.484375 15 389.484375 14.140625 C 389.484375 14.074219 389.519531 13.566406 389.554688 13.496094 C 389.570312 13.460938 389.570312 13.441406 389.800781 13.214844 C 390.691406 12.324219 392.285156 10.433594 392.285156 8.703125 C 392.285156 8.511719 392.285156 7.828125 391.617188 7.828125 C 390.691406 7.828125 389.871094 9.664062 389.765625 9.925781 C 389.222656 11.152344 388.871094 12.445312 388.871094 13.773438 Z M 389.605469 13.039062 C 389.625 12.902344 390.113281 10.433594 390.746094 9.121094 C 391.042969 8.527344 391.285156 8.074219 391.636719 8.074219 C 392.019531 8.074219 392.019531 8.476562 392.019531 8.648438 C 392.019531 10.523438 390.132812 12.480469 389.605469 13.039062 Z M 389.605469 13.039062 "/>
<path fill-rule="nonzero" fill="rgb(0%, 0%, 0%)" fill-opacity="1" d="M 395.023438 12.492188 C 395.023438 12.367188 394.917969 12.195312 394.710938 12.195312 C 394.5 12.195312 394.273438 12.402344 394.273438 12.632812 C 394.273438 12.753906 394.359375 12.929688 394.585938 12.929688 C 394.796875 12.929688 395.023438 12.703125 395.023438 12.492188 Z M 393.433594 16.460938 C 393.398438 16.566406 393.363281 16.65625 393.363281 16.792969 C 393.363281 17.160156 393.660156 17.441406 394.097656 17.441406 C 394.867188 17.441406 395.214844 16.375 395.214844 16.253906 C 395.214844 16.148438 395.113281 16.148438 395.09375 16.148438 C 394.988281 16.148438 394.972656 16.199219 394.9375 16.289062 C 394.761719 16.917969 394.429688 17.230469 394.113281 17.230469 C 393.957031 17.230469 393.921875 17.128906 393.921875 16.953125 C 393.921875 16.777344 393.972656 16.636719 394.042969 16.460938 C 394.132812 16.253906 394.21875 16.042969 394.289062 15.832031 C 394.359375 15.640625 394.65625 14.941406 394.675781 14.835938 C 394.710938 14.765625 394.726562 14.679688 394.726562 14.589844 C 394.726562 14.222656 394.410156 13.925781 393.992188 13.925781 C 393.203125 13.925781 392.855469 14.992188 392.855469 15.132812 C 392.855469 15.21875 392.960938 15.21875 392.996094 15.21875 C 393.101562 15.21875 393.101562 15.183594 393.136719 15.097656 C 393.328125 14.433594 393.675781 14.152344 393.957031 14.152344 C 394.078125 14.152344 394.148438 14.207031 394.148438 14.414062 C 394.148438 14.609375 394.113281 14.714844 393.921875 15.203125 Z M 393.433594 16.460938 "/>
<path fill="none" stroke-width="0.751181" stroke-linecap="butt" stroke-linejoin="miter" stroke="rgb(0%, 0%, 0%)" stroke-opacity="1" stroke-miterlimit="4" d="M 28.253906 12.640625 L 51.535156 12.640625 "/>
<path fill-rule="evenodd" fill="rgb(0%, 0%, 0%)" fill-opacity="1" stroke-width="0.281693" stroke-linecap="butt" stroke-linejoin="round" stroke="rgb(0%, 0%, 0%)" stroke-opacity="1" stroke-miterlimit="4" d="M -47.605469 -10.824219 L -52.527344 -12.636719 L -47.605469 -14.445312 C -48.390625 -13.375 -48.386719 -11.914062 -47.605469 -10.824219 Z M -47.605469 -10.824219 " transform="matrix(-1, 0, 0, -1, 0, 0)"/>
<path fill="none" stroke-width="0.751181" stroke-linecap="butt" stroke-linejoin="miter" stroke="rgb(0%, 0%, 0%)" stroke-opacity="1" stroke-miterlimit="4" d="M 75.089844 12.640625 L 98.375 12.640625 "/>
<path fill-rule="evenodd" fill="rgb(0%, 0%, 0%)" fill-opacity="1" stroke-width="0.281693" stroke-linecap="butt" stroke-linejoin="round" stroke="rgb(0%, 0%, 0%)" stroke-opacity="1" stroke-miterlimit="4" d="M -94.445312 -10.824219 L -99.367188 -12.636719 L -94.445312 -14.445312 C -95.230469 -13.375 -95.226562 -11.914062 -94.445312 -10.824219 Z M -94.445312 -10.824219 " transform="matrix(-1, 0, 0, -1, 0, 0)"/>
<path fill="none" stroke-width="0.751181" stroke-linecap="butt" stroke-linejoin="miter" stroke="rgb(0%, 0%, 0%)" stroke-opacity="1" stroke-miterlimit="4" d="M 121.929688 12.640625 L 145.214844 12.640625 "/>
<path fill-rule="evenodd" fill="rgb(0%, 0%, 0%)" fill-opacity="1" stroke-width="0.281693" stroke-linecap="butt" stroke-linejoin="round" stroke="rgb(0%, 0%, 0%)" stroke-opacity="1" stroke-miterlimit="4" d="M -141.285156 -10.824219 L -146.207031 -12.636719 L -141.285156 -14.445312 C -142.070312 -13.375 -142.066406 -11.914062 -141.285156 -10.824219 Z M -141.285156 -10.824219 " transform="matrix(-1, 0, 0, -1, 0, 0)"/>
<path fill="none" stroke-width="0.751181" stroke-linecap="butt" stroke-linejoin="miter" stroke="rgb(0%, 0%, 0%)" stroke-opacity="1" stroke-miterlimit="4" d="M 169.167969 12.640625 L 192.449219 12.640625 "/>
<path fill-rule="evenodd" fill="rgb(0%, 0%, 0%)" fill-opacity="1" stroke-width="0.281693" stroke-linecap="butt" stroke-linejoin="round" stroke="rgb(0%, 0%, 0%)" stroke-opacity="1" stroke-miterlimit="4" d="M -188.519531 -10.824219 L -193.445312 -12.636719 L -188.519531 -14.445312 C -189.308594 -13.375 -189.304688 -11.914062 -188.519531 -10.824219 Z M -188.519531 -10.824219 " transform="matrix(-1, 0, 0, -1, 0, 0)"/>
<path fill="none" stroke-width="0.751181" stroke-linecap="butt" stroke-linejoin="miter" stroke="rgb(0%, 0%, 0%)" stroke-opacity="1" stroke-miterlimit="4" d="M 215.472656 12.640625 L 238.757812 12.640625 "/>
<path fill-rule="evenodd" fill="rgb(0%, 0%, 0%)" fill-opacity="1" stroke-width="0.281693" stroke-linecap="butt" stroke-linejoin="round" stroke="rgb(0%, 0%, 0%)" stroke-opacity="1" stroke-miterlimit="4" d="M -234.828125 -10.824219 L -239.75 -12.636719 L -234.828125 -14.445312 C -235.613281 -13.375 -235.609375 -11.914062 -234.828125 -10.824219 Z M -234.828125 -10.824219 " transform="matrix(-1, 0, 0, -1, 0, 0)"/>
<path fill="none" stroke-width="0.751181" stroke-linecap="butt" stroke-linejoin="miter" stroke="rgb(0%, 0%, 0%)" stroke-opacity="1" stroke-miterlimit="4" d="M 262.152344 12.640625 L 285.4375 12.640625 "/>
<path fill-rule="evenodd" fill="rgb(0%, 0%, 0%)" fill-opacity="1" stroke-width="0.281693" stroke-linecap="butt" stroke-linejoin="round" stroke="rgb(0%, 0%, 0%)" stroke-opacity="1" stroke-miterlimit="4" d="M -281.507812 -10.824219 L -286.429688 -12.636719 L -281.507812 -14.445312 C -282.292969 -13.375 -282.289062 -11.914062 -281.507812 -10.824219 Z M -281.507812 -10.824219 " transform="matrix(-1, 0, 0, -1, 0, 0)"/>
<path fill="none" stroke-width="0.751181" stroke-linecap="butt" stroke-linejoin="miter" stroke="rgb(0%, 0%, 0%)" stroke-opacity="1" stroke-miterlimit="4" d="M 309.019531 12.640625 L 332.304688 12.640625 "/>
<path fill-rule="evenodd" fill="rgb(0%, 0%, 0%)" fill-opacity="1" stroke-width="0.281693" stroke-linecap="butt" stroke-linejoin="round" stroke="rgb(0%, 0%, 0%)" stroke-opacity="1" stroke-miterlimit="4" d="M -328.375 -10.824219 L -333.296875 -12.636719 L -328.375 -14.445312 C -329.160156 -13.375 -329.15625 -11.914062 -328.375 -10.824219 Z M -328.375 -10.824219 " transform="matrix(-1, 0, 0, -1, 0, 0)"/>
<path fill="none" stroke-width="0.751181" stroke-linecap="butt" stroke-linejoin="miter" stroke="rgb(0%, 0%, 0%)" stroke-opacity="1" stroke-miterlimit="4" d="M 355.746094 12.640625 L 379.03125 12.640625 "/>
<path fill-rule="evenodd" fill="rgb(0%, 0%, 0%)" fill-opacity="1" stroke-width="0.281693" stroke-linecap="butt" stroke-linejoin="round" stroke="rgb(0%, 0%, 0%)" stroke-opacity="1" stroke-miterlimit="4" d="M -375.101562 -10.824219 L -380.023438 -12.636719 L -375.101562 -14.445312 C -375.886719 -13.375 -375.882812 -11.914062 -375.101562 -10.824219 Z M -375.101562 -10.824219 " transform="matrix(-1, 0, 0, -1, 0, 0)"/>
</svg>
