<?xml version="1.0" encoding="UTF-8"?>
<svg xmlns="http://www.w3.org/2000/svg" xmlns:xlink="http://www.w3.org/1999/xlink" width="410.036896pt" height="140.210083pt" viewBox="0 0 410.036896 140.210083">
<path fill="none" stroke-width="0.765354" stroke-linecap="butt" stroke-linejoin="miter" stroke="rgb(0%, 0%, 0%)" stroke-opacity="1" stroke-miterlimit="4" d="M 94.339844 43.316406 L 116.386719 43.316406 L 116.5 17.042969 L 123.4375 17.050781 "/>
<path fill-rule="evenodd" fill="rgb(0%, 0%, 0%)" fill-opacity="1" stroke-width="0.287008" stroke-linecap="butt" stroke-linejoin="round" stroke="rgb(0%, 0%, 0%)" stroke-opacity="1" stroke-miterlimit="4" d="M -119.455949 -15.048869 L -124.469925 -16.890379 L -119.452657 -18.736373 C -120.256012 -17.649451 -120.250276 -16.15727 -119.455949 -15.048869 Z M -119.455949 -15.048869 " transform="matrix(-1, -0.00122592, 0.00122592, -1, 0, 0)"/>
<path fill-rule="nonzero" fill="rgb(81.959534%, 51.371765%, 38.430786%)" fill-opacity="0.679325" stroke-width="0.850563" stroke-linecap="butt" stroke-linejoin="round" stroke="rgb(46.665955%, 23.529053%, 13.725281%)" stroke-opacity="1" stroke-miterlimit="4" d="M 84.707031 82.415367 L 90.847656 82.415367 C 92.601562 82.415367 94.007812 83.849527 94.007812 85.631481 L 94.007812 134.514071 C 94.007812 136.296024 92.601562 137.730185 90.847656 137.730185 L 84.707031 137.730185 C 82.957031 137.730185 81.550781 136.296024 81.550781 134.514071 L 81.550781 85.631481 C 81.550781 83.849527 82.957031 82.415367 84.707031 82.415367 Z M 84.707031 82.415367 " transform="matrix(1, 0, 0, 0.999605, 0, 0)"/>
<path fill="none" stroke-width="0.850563" stroke-linecap="butt" stroke-linejoin="miter" stroke="rgb(46.665955%, 23.529053%, 13.725281%)" stroke-opacity="1" stroke-miterlimit="4" d="M 81.546875 110.070822 L 94.015625 110.070822 " transform="matrix(1, 0, 0, 0.999605, 0, 0)"/>
<path fill-rule="nonzero" fill="rgb(62.744141%, 85.096741%, 82.743835%)" fill-opacity="0.679325" stroke-width="0.850394" stroke-linecap="butt" stroke-linejoin="round" stroke="rgb(37.646484%, 65.489197%, 62.35199%)" stroke-opacity="1" stroke-miterlimit="4" d="M 319.652344 82.378906 L 325.792969 82.378906 C 327.542969 82.378906 328.953125 83.8125 328.953125 85.597656 L 328.953125 134.460938 C 328.953125 136.242188 327.542969 137.675781 325.792969 137.675781 L 319.652344 137.675781 C 317.902344 137.675781 316.492188 136.242188 316.492188 134.460938 L 316.492188 85.597656 C 316.492188 83.8125 317.902344 82.378906 319.652344 82.378906 Z M 319.652344 82.378906 "/>
<path fill-rule="nonzero" fill="rgb(81.959534%, 51.371765%, 38.430786%)" fill-opacity="0.679325" stroke-width="0.850563" stroke-linecap="butt" stroke-linejoin="round" stroke="rgb(46.665955%, 23.529053%, 13.725281%)" stroke-opacity="1" stroke-miterlimit="4" d="M 84.707031 3.204391 L 90.847656 3.204391 C 92.601562 3.204391 94.007812 4.638551 94.007812 6.420505 L 94.007812 55.303095 C 94.007812 57.085049 92.601562 58.519209 90.847656 58.519209 L 84.707031 58.519209 C 82.957031 58.519209 81.550781 57.085049 81.550781 55.303095 L 81.550781 6.420505 C 81.550781 4.638551 82.957031 3.204391 84.707031 3.204391 Z M 84.707031 3.204391 " transform="matrix(1, 0, 0, 0.999605, 0, 0)"/>
<path fill="none" stroke-width="0.850563" stroke-linecap="butt" stroke-linejoin="miter" stroke="rgb(46.665955%, 23.529053%, 13.725281%)" stroke-opacity="1" stroke-miterlimit="4" d="M 81.546875 30.863754 L 94.015625 30.863754 " transform="matrix(1, 0, 0, 0.999605, 0, 0)"/>
<path fill-rule="nonzero" fill="rgb(62.744141%, 85.096741%, 82.743835%)" fill-opacity="0.679325" stroke-width="0.850394" stroke-linecap="butt" stroke-linejoin="round" stroke="rgb(37.646484%, 65.489197%, 62.35199%)" stroke-opacity="1" stroke-miterlimit="4" d="M 319.652344 3.203125 L 325.792969 3.203125 C 327.542969 3.203125 328.953125 4.636719 328.953125 6.417969 L 328.953125 55.28125 C 328.953125 57.0625 327.542969 58.496094 325.792969 58.496094 L 319.652344 58.496094 C 317.902344 58.496094 316.492188 57.0625 316.492188 55.28125 L 316.492188 6.417969 C 316.492188 4.636719 317.902344 3.203125 319.652344 3.203125 Z M 319.652344 3.203125 "/>
<path fill="none" stroke-width="0.850394" stroke-linecap="butt" stroke-linejoin="miter" stroke="rgb(37.646484%, 65.489197%, 62.35199%)" stroke-opacity="1" stroke-miterlimit="4" d="M 316.488281 30.851562 L 328.953125 30.851562 "/>
<path fill-rule="nonzero" fill="rgb(77.645874%, 80.39093%, 81.175232%)" fill-opacity="0.675105" stroke-width="0.494399" stroke-linecap="butt" stroke-linejoin="round" stroke="rgb(0%, 0%, 0%)" stroke-opacity="1" stroke-miterlimit="4" d="M 127.628906 8.636719 L 176.082031 8.636719 C 177.605469 8.636719 178.832031 9.863281 178.832031 11.386719 L 178.832031 22.816406 C 178.832031 24.339844 177.605469 25.566406 176.082031 25.566406 L 127.628906 25.566406 C 126.105469 25.566406 124.875 24.339844 124.875 22.816406 L 124.875 11.386719 C 124.875 9.863281 126.105469 8.636719 127.628906 8.636719 Z M 127.628906 8.636719 "/>
<path fill-rule="nonzero" fill="rgb(0%, 0%, 0%)" fill-opacity="1" d="M 194.78125 16.898438 C 194.78125 14.929688 193.167969 13.335938 191.199219 13.335938 C 189.21875 13.335938 187.621094 14.949219 187.621094 16.898438 C 187.621094 18.878906 189.234375 20.476562 191.199219 20.476562 C 193.183594 20.476562 194.78125 18.863281 194.78125 16.898438 Z M 187.890625 16.761719 C 187.992188 14.964844 189.386719 13.6875 191.066406 13.605469 L 191.066406 16.761719 Z M 191.335938 13.605469 C 193.015625 13.6875 194.394531 14.980469 194.511719 16.761719 L 191.335938 16.761719 Z M 191.066406 20.207031 C 189.402344 20.125 187.992188 18.863281 187.890625 17.03125 L 191.066406 17.03125 Z M 194.511719 17.03125 C 194.394531 18.863281 192.984375 20.125 191.335938 20.207031 L 191.335938 17.03125 Z M 194.511719 17.03125 "/>
<path fill="none" stroke-width="0.749999" stroke-linecap="butt" stroke-linejoin="miter" stroke="rgb(0%, 0%, 0%)" stroke-opacity="1" stroke-miterlimit="4" d="M 109.980469 16.777344 L 109.980469 2.066406 L 191.195312 2.066406 L 191.195312 12.191406 "/>
<path fill-rule="evenodd" fill="rgb(0%, 0%, 0%)" fill-opacity="1" stroke-width="0.28125" stroke-linecap="butt" stroke-linejoin="round" stroke="rgb(0%, 0%, 0%)" stroke-opacity="1" stroke-miterlimit="4" d="M -8.269531 193.011719 L -13.183594 191.203125 L -8.269531 189.394531 C -9.054688 190.460938 -9.050781 191.921875 -8.269531 193.011719 Z M -8.269531 193.011719 " transform="matrix(0, -1, 1, 0, 0, 0)"/>
<path fill="none" stroke-width="0.765354" stroke-linecap="butt" stroke-linejoin="miter" stroke="rgb(0%, 0%, 0%)" stroke-opacity="1" stroke-miterlimit="4" d="M 94.320312 16.910156 L 110.359375 16.910156 "/>
<path fill="none" stroke-width="0.765354" stroke-linecap="butt" stroke-linejoin="miter" stroke="rgb(0%, 0%, 0%)" stroke-opacity="1" stroke-miterlimit="4" d="M 178.785156 16.910156 L 186.496094 16.910156 "/>
<path fill-rule="evenodd" fill="rgb(0%, 0%, 0%)" fill-opacity="1" stroke-width="0.287008" stroke-linecap="butt" stroke-linejoin="round" stroke="rgb(0%, 0%, 0%)" stroke-opacity="1" stroke-miterlimit="4" d="M -182.492188 -15.058594 L -187.511719 -16.90625 L -182.492188 -18.75 C -183.292969 -17.660156 -183.289062 -16.167969 -182.492188 -15.058594 Z M -182.492188 -15.058594 " transform="matrix(-1, 0, 0, -1, 0, 0)"/>
<path fill-rule="nonzero" fill="rgb(77.645874%, 80.39093%, 81.175232%)" fill-opacity="0.675105" stroke-width="0.494399" stroke-linecap="butt" stroke-linejoin="round" stroke="rgb(0%, 0%, 0%)" stroke-opacity="1" stroke-miterlimit="4" d="M 233.769531 34.714844 L 282.21875 34.714844 C 283.746094 34.714844 284.972656 35.941406 284.972656 37.464844 L 284.972656 48.894531 C 284.972656 50.417969 283.746094 51.644531 282.21875 51.644531 L 233.769531 51.644531 C 232.242188 51.644531 231.015625 50.417969 231.015625 48.894531 L 231.015625 37.464844 C 231.015625 35.941406 232.242188 34.714844 233.769531 34.714844 Z M 233.769531 34.714844 "/>
<path fill="none" stroke-width="0.749999" stroke-linecap="butt" stroke-linejoin="miter" stroke="rgb(0%, 0%, 0%)" stroke-opacity="1" stroke-miterlimit="4" d="M 215.777344 42.925781 L 215.777344 58.367188 L 297.058594 58.367188 L 297.058594 47.875 "/>
<path fill-rule="evenodd" fill="rgb(0%, 0%, 0%)" fill-opacity="1" stroke-width="0.28125" stroke-linecap="butt" stroke-linejoin="round" stroke="rgb(0%, 0%, 0%)" stroke-opacity="1" stroke-miterlimit="4" d="M 51.796875 -295.242188 L 46.882812 -297.050781 L 51.796875 -298.859375 C 51.011719 -297.789062 51.015625 -296.332031 51.796875 -295.242188 Z M 51.796875 -295.242188 " transform="matrix(0, 1, -1, 0, 0, 0)"/>
<path fill-rule="nonzero" fill="rgb(0%, 0%, 0%)" fill-opacity="1" d="M 300.597656 43.171875 C 300.597656 41.207031 298.984375 39.609375 297.019531 39.609375 C 295.035156 39.609375 293.4375 41.222656 293.4375 43.171875 C 293.4375 45.15625 295.050781 46.75 297.019531 46.75 C 299 46.75 300.597656 45.136719 300.597656 43.171875 Z M 293.707031 43.039062 C 293.808594 41.238281 295.203125 39.960938 296.882812 39.878906 L 296.882812 43.039062 Z M 297.152344 39.878906 C 298.832031 39.960938 300.210938 41.257812 300.328125 43.039062 L 297.152344 43.039062 Z M 296.882812 46.480469 C 295.21875 46.398438 293.808594 45.136719 293.707031 43.304688 L 296.882812 43.304688 Z M 300.328125 43.304688 C 300.210938 45.136719 298.800781 46.398438 297.152344 46.480469 L 297.152344 43.304688 Z M 300.328125 43.304688 "/>
<path fill="none" stroke-width="0.765354" stroke-linecap="butt" stroke-linejoin="miter" stroke="rgb(0%, 0%, 0%)" stroke-opacity="1" stroke-miterlimit="4" d="M 300.523438 43.1875 L 314.90625 43.1875 "/>
<path fill-rule="evenodd" fill="rgb(0%, 0%, 0%)" fill-opacity="1" stroke-width="0.287008" stroke-linecap="butt" stroke-linejoin="round" stroke="rgb(0%, 0%, 0%)" stroke-opacity="1" stroke-miterlimit="4" d="M -310.902344 -41.335938 L -315.921875 -43.179688 L -310.902344 -45.023438 C -311.707031 -43.933594 -311.699219 -42.445312 -310.902344 -41.335938 Z M -310.902344 -41.335938 " transform="matrix(-1, 0, 0, -1, 0, 0)"/>
<path fill="none" stroke-width="0.765354" stroke-linecap="butt" stroke-linejoin="miter" stroke="rgb(0%, 0%, 0%)" stroke-opacity="1" stroke-miterlimit="4" d="M 285.183594 43.1875 L 292.296875 43.1875 "/>
<path fill-rule="evenodd" fill="rgb(0%, 0%, 0%)" fill-opacity="1" stroke-width="0.287008" stroke-linecap="butt" stroke-linejoin="round" stroke="rgb(0%, 0%, 0%)" stroke-opacity="1" stroke-miterlimit="4" d="M -288.292969 -41.335938 L -293.308594 -43.179688 L -288.292969 -45.023438 C -289.09375 -43.933594 -289.089844 -42.445312 -288.292969 -41.335938 Z M -288.292969 -41.335938 " transform="matrix(-1, 0, 0, -1, 0, 0)"/>
<path fill="none" stroke-width="0.765354" stroke-linecap="butt" stroke-linejoin="miter" stroke="rgb(0%, 0%, 0%)" stroke-opacity="1" stroke-miterlimit="4" d="M 115.742188 43.3125 L 215.941406 43.3125 "/>
<path fill="none" stroke-width="0.765354" stroke-linecap="butt" stroke-linejoin="miter" stroke="rgb(0%, 0%, 0%)" stroke-opacity="1" stroke-miterlimit="4" d="M 194.609375 16.910156 L 314.910156 16.910156 "/>
<path fill-rule="evenodd" fill="rgb(0%, 0%, 0%)" fill-opacity="1" stroke-width="0.287008" stroke-linecap="butt" stroke-linejoin="round" stroke="rgb(0%, 0%, 0%)" stroke-opacity="1" stroke-miterlimit="4" d="M -310.90625 -15.058594 L -315.925781 -16.90625 L -310.90625 -18.75 C -311.707031 -17.660156 -311.703125 -16.167969 -310.90625 -15.058594 Z M -310.90625 -15.058594 " transform="matrix(-1, 0, 0, -1, 0, 0)"/>
<path fill="none" stroke-width="0.765354" stroke-linecap="butt" stroke-linejoin="miter" stroke="rgb(0%, 0%, 0%)" stroke-opacity="1" stroke-miterlimit="4" d="M 222.542969 16.90625 L 222.65625 43.179688 L 229.59375 43.171875 "/>
<path fill-rule="evenodd" fill="rgb(0%, 0%, 0%)" fill-opacity="1" stroke-width="0.287008" stroke-linecap="butt" stroke-linejoin="round" stroke="rgb(0%, 0%, 0%)" stroke-opacity="1" stroke-miterlimit="4" d="M -225.538869 -41.600578 L -230.556143 -43.442664 L -225.538257 -45.288078 C -226.340373 -44.199217 -226.334384 -42.710928 -225.538869 -41.600578 Z M -225.538869 -41.600578 " transform="matrix(-1, 0.00122533, -0.00122533, -1, 0, 0)"/>
<path fill="none" stroke-width="0.765354" stroke-linecap="butt" stroke-linejoin="miter" stroke="rgb(0%, 0%, 0%)" stroke-opacity="1" stroke-miterlimit="4" d="M 215.65625 123.09375 L 95.597656 123.09375 "/>
<path fill-rule="evenodd" fill="rgb(0%, 0%, 0%)" fill-opacity="1" stroke-width="0.287008" stroke-linecap="butt" stroke-linejoin="round" stroke="rgb(0%, 0%, 0%)" stroke-opacity="1" stroke-miterlimit="4" d="M 99.597656 124.945312 L 94.582031 123.101562 L 99.597656 121.253906 C 98.796875 122.34375 98.800781 123.835938 99.597656 124.945312 Z M 99.597656 124.945312 "/>
<path fill="none" stroke-width="0.765354" stroke-linecap="butt" stroke-linejoin="miter" stroke="rgb(0%, 0%, 0%)" stroke-opacity="1" stroke-miterlimit="4" d="M 316.09375 96.667969 L 293.9375 96.667969 "/>
<path fill-rule="nonzero" fill="rgb(77.645874%, 80.39093%, 81.175232%)" fill-opacity="0.675105" stroke-width="0.494399" stroke-linecap="butt" stroke-linejoin="round" stroke="rgb(0%, 0%, 0%)" stroke-opacity="1" stroke-miterlimit="4" d="M -176.902344 88.542969 L -128.453125 88.542969 C -126.925781 88.542969 -125.699219 89.769531 -125.699219 91.292969 L -125.699219 102.722656 C -125.699219 104.246094 -126.925781 105.472656 -128.453125 105.472656 L -176.902344 105.472656 C -178.429688 105.472656 -179.65625 104.246094 -179.65625 102.722656 L -179.65625 91.292969 C -179.65625 89.769531 -178.429688 88.542969 -176.902344 88.542969 Z M -176.902344 88.542969 " transform="matrix(-1, 0, 0, 1, 0, 0)"/>
<path fill="none" stroke-width="0.765354" stroke-linecap="butt" stroke-linejoin="miter" stroke="rgb(0%, 0%, 0%)" stroke-opacity="1" stroke-miterlimit="4" d="M 125.75 96.820312 L 118.046875 96.820312 "/>
<path fill-rule="evenodd" fill="rgb(0%, 0%, 0%)" fill-opacity="1" stroke-width="0.287008" stroke-linecap="butt" stroke-linejoin="round" stroke="rgb(0%, 0%, 0%)" stroke-opacity="1" stroke-miterlimit="4" d="M 122.050781 98.671875 L 117.03125 96.824219 L 122.050781 94.980469 C 121.25 96.070312 121.253906 97.5625 122.050781 98.671875 Z M 122.050781 98.671875 "/>
<path fill-rule="nonzero" fill="rgb(77.645874%, 80.39093%, 81.175232%)" fill-opacity="0.675105" stroke-width="0.494399" stroke-linecap="butt" stroke-linejoin="round" stroke="rgb(0%, 0%, 0%)" stroke-opacity="1" stroke-miterlimit="4" d="M -282.71875 114.621094 L -234.269531 114.621094 C -232.742188 114.621094 -231.515625 115.847656 -231.515625 117.371094 L -231.515625 128.800781 C -231.515625 130.324219 -232.742188 131.554688 -234.269531 131.554688 L -282.71875 131.554688 C -284.246094 131.554688 -285.472656 130.324219 -285.472656 128.800781 L -285.472656 117.371094 C -285.472656 115.847656 -284.246094 114.621094 -282.71875 114.621094 Z M -282.71875 114.621094 " transform="matrix(-1, 0, 0, 1, 0, 0)"/>
<path fill="none" stroke-width="0.749999" stroke-linecap="butt" stroke-linejoin="miter" stroke="rgb(0%, 0%, 0%)" stroke-opacity="1" stroke-miterlimit="4" d="M 300.390625 123.039062 L 300.390625 138.273438 L 219.214844 138.273438 L 219.214844 127.78125 "/>
<path fill-rule="evenodd" fill="rgb(0%, 0%, 0%)" fill-opacity="1" stroke-width="0.28125" stroke-linecap="butt" stroke-linejoin="round" stroke="rgb(0%, 0%, 0%)" stroke-opacity="1" stroke-miterlimit="4" d="M 131.707031 -217.402344 L 126.789062 -219.207031 L 131.707031 -221.015625 C 130.921875 -219.949219 130.925781 -218.488281 131.707031 -217.402344 Z M 131.707031 -217.402344 " transform="matrix(0, 1, -1, 0, 0, 0)"/>
<path fill="none" stroke-width="0.765354" stroke-linecap="butt" stroke-linejoin="miter" stroke="rgb(0%, 0%, 0%)" stroke-opacity="1" stroke-miterlimit="4" d="M 109.863281 97.015625 L 95.585938 97.015625 "/>
<path fill-rule="evenodd" fill="rgb(0%, 0%, 0%)" fill-opacity="1" stroke-width="0.287008" stroke-linecap="butt" stroke-linejoin="round" stroke="rgb(0%, 0%, 0%)" stroke-opacity="1" stroke-miterlimit="4" d="M 99.585938 98.867188 L 94.570312 97.023438 L 99.585938 95.175781 C 98.785156 96.265625 98.789062 97.757812 99.585938 98.867188 Z M 99.585938 98.867188 "/>
<path fill="none" stroke-width="0.765354" stroke-linecap="butt" stroke-linejoin="miter" stroke="rgb(0%, 0%, 0%)" stroke-opacity="1" stroke-miterlimit="4" d="M 231.695312 123.09375 L 223.835938 123.09375 "/>
<path fill-rule="evenodd" fill="rgb(0%, 0%, 0%)" fill-opacity="1" stroke-width="0.287008" stroke-linecap="butt" stroke-linejoin="round" stroke="rgb(0%, 0%, 0%)" stroke-opacity="1" stroke-miterlimit="4" d="M 227.839844 124.945312 L 222.824219 123.101562 L 227.839844 121.253906 C 227.039062 122.34375 227.042969 123.835938 227.839844 124.945312 Z M 227.839844 124.945312 "/>
<path fill="none" stroke-width="0.765354" stroke-linecap="butt" stroke-linejoin="miter" stroke="rgb(0%, 0%, 0%)" stroke-opacity="1" stroke-miterlimit="4" d="M 293.960938 96.8125 L 293.847656 123.085938 L 286.875 123.078125 "/>
<path fill-rule="evenodd" fill="rgb(0%, 0%, 0%)" fill-opacity="1" stroke-width="0.287008" stroke-linecap="butt" stroke-linejoin="round" stroke="rgb(0%, 0%, 0%)" stroke-opacity="1" stroke-miterlimit="4" d="M 291.030866 124.578597 L 286.01299 122.733155 L 291.030274 120.891098 C 290.226913 121.978015 290.232639 123.470196 291.030866 124.578597 Z M 291.030866 124.578597 " transform="matrix(1, 0.00121979, -0.00121979, 1, 0, 0)"/>
<path fill-rule="nonzero" fill="rgb(0%, 0%, 0%)" fill-opacity="1" d="M 215.566406 123.078125 C 215.566406 121.113281 217.179688 119.515625 219.148438 119.515625 C 221.132812 119.515625 222.726562 121.128906 222.726562 123.078125 C 222.726562 125.0625 221.113281 126.65625 219.148438 126.65625 C 217.164062 126.65625 215.566406 125.042969 215.566406 123.078125 Z M 222.460938 122.945312 C 222.359375 121.046875 220.796875 119.785156 219.148438 119.785156 C 217.46875 119.785156 215.953125 121.0625 215.835938 122.945312 Z M 215.835938 123.214844 C 215.953125 125.164062 217.515625 126.390625 219.148438 126.390625 C 220.8125 126.390625 222.359375 125.128906 222.460938 123.214844 Z M 215.835938 123.214844 "/>
<path fill="none" stroke-width="0.765354" stroke-linecap="butt" stroke-linejoin="miter" stroke="rgb(0%, 0%, 0%)" stroke-opacity="1" stroke-miterlimit="4" d="M 316.070312 123.085938 L 300.015625 123.085938 "/>
<path fill="none" stroke-width="0.749999" stroke-linecap="butt" stroke-linejoin="miter" stroke="rgb(0%, 0%, 0%)" stroke-opacity="1" stroke-miterlimit="4" d="M 194.570312 97.054688 L 194.570312 81.621094 L 113.359375 81.621094 L 113.359375 92.097656 "/>
<path fill-rule="evenodd" fill="rgb(0%, 0%, 0%)" fill-opacity="1" stroke-width="0.28125" stroke-linecap="butt" stroke-linejoin="round" stroke="rgb(0%, 0%, 0%)" stroke-opacity="1" stroke-miterlimit="4" d="M -88.175781 115.171875 L -93.089844 113.363281 L -88.175781 111.558594 C -88.960938 112.625 -88.957031 114.085938 -88.175781 115.171875 Z M -88.175781 115.171875 " transform="matrix(0, -1, 1, 0, 0, 0)"/>
<path fill="none" stroke-width="0.765354" stroke-linecap="butt" stroke-linejoin="miter" stroke="rgb(0%, 0%, 0%)" stroke-opacity="1" stroke-miterlimit="4" d="M 294.605469 96.679688 L 194.25 96.679688 "/>
<path fill="none" stroke-width="0.765354" stroke-linecap="butt" stroke-linejoin="miter" stroke="rgb(0%, 0%, 0%)" stroke-opacity="1" stroke-miterlimit="4" d="M 187.804688 122.816406 L 187.695312 96.542969 L 181.046875 96.554688 "/>
<path fill-rule="evenodd" fill="rgb(0%, 0%, 0%)" fill-opacity="1" stroke-width="0.287008" stroke-linecap="butt" stroke-linejoin="round" stroke="rgb(0%, 0%, 0%)" stroke-opacity="1" stroke-miterlimit="4" d="M 184.928496 98.638928 L 179.911326 96.792666 L 184.925406 94.947518 C 184.123232 96.036336 184.129135 97.528531 184.928496 98.638928 Z M 184.928496 98.638928 " transform="matrix(1, -0.00127933, 0.00127933, 1, 0, 0)"/>
<path fill-rule="nonzero" fill="rgb(0%, 0%, 0%)" fill-opacity="1" d="M 109.75 96.804688 C 109.75 94.839844 111.363281 93.242188 113.332031 93.242188 C 115.316406 93.242188 116.910156 94.855469 116.910156 96.804688 C 116.910156 98.785156 115.296875 100.382812 113.332031 100.382812 C 111.347656 100.382812 109.75 98.769531 109.75 96.804688 Z M 116.644531 96.667969 C 116.542969 94.769531 114.980469 93.511719 113.332031 93.511719 C 111.652344 93.511719 110.136719 94.789062 110.019531 96.667969 Z M 110.019531 96.9375 C 110.136719 98.886719 111.699219 100.113281 113.332031 100.113281 C 114.996094 100.113281 116.542969 98.855469 116.644531 96.9375 Z M 110.019531 96.9375 "/>
<path fill="none" stroke-width="0.850394" stroke-linecap="butt" stroke-linejoin="miter" stroke="rgb(37.646484%, 65.489197%, 62.35199%)" stroke-opacity="1" stroke-miterlimit="4" d="M 316.488281 110.027344 L 328.953125 110.027344 "/>
<path fill-rule="nonzero" fill="rgb(0%, 0%, 0%)" fill-opacity="1" d="M 57.132812 6.339844 C 57.132812 5.054688 56.199219 4.164062 55.03125 4.164062 C 54.222656 4.164062 53.648438 4.363281 53.054688 4.699219 L 53.132812 5.53125 C 53.785156 5.074219 54.417969 4.914062 55.03125 4.914062 C 55.625 4.914062 56.140625 5.410156 56.140625 6.339844 L 56.140625 6.894531 C 54.242188 6.914062 52.636719 7.449219 52.636719 8.558594 C 52.636719 9.09375 52.972656 10.121094 54.082031 10.121094 C 54.261719 10.121094 55.449219 10.101562 56.179688 9.527344 L 56.179688 9.984375 L 57.132812 9.984375 Z M 56.140625 8.320312 C 56.140625 8.558594 56.140625 8.875 55.707031 9.113281 C 55.351562 9.328125 54.855469 9.347656 54.714844 9.347656 C 54.121094 9.347656 53.546875 9.050781 53.546875 8.539062 C 53.546875 7.648438 55.585938 7.566406 56.140625 7.527344 Z M 56.140625 8.320312 "/>
<path fill-rule="nonzero" fill="rgb(0%, 0%, 0%)" fill-opacity="1" d="M 59.632812 13.148438 C 60.027344 12.753906 60.878906 11.980469 61.453125 10.4375 C 61.96875 9.09375 62.046875 7.746094 62.046875 6.816406 C 62.046875 2.738281 60.226562 1.074219 59.632812 0.503906 L 58.863281 0.503906 C 59.457031 1.117188 61.058594 2.738281 61.058594 6.816406 C 61.058594 7.527344 61.019531 9.011719 60.503906 10.496094 C 59.988281 11.960938 59.277344 12.714844 58.863281 13.148438 Z M 59.632812 13.148438 "/>
<path fill-rule="nonzero" fill="rgb(0%, 0%, 0%)" fill-opacity="1" d="M 54.363281 83.722656 L 53.414062 83.722656 L 53.414062 92.492188 L 54.40625 92.492188 L 54.40625 91.917969 C 54.703125 92.195312 55.253906 92.628906 56.105469 92.628906 C 57.351562 92.628906 58.441406 91.363281 58.441406 89.683594 C 58.441406 88.117188 57.589844 86.753906 56.402344 86.753906 C 55.910156 86.753906 55.117188 86.871094 54.363281 87.484375 Z M 54.40625 88.257812 C 54.601562 87.960938 55.058594 87.523438 55.75 87.523438 C 56.503906 87.523438 57.453125 88.058594 57.453125 89.683594 C 57.453125 91.324219 56.402344 91.859375 55.632812 91.859375 C 55.136719 91.859375 54.722656 91.640625 54.40625 91.046875 Z M 54.40625 88.257812 "/>
<path fill-rule="nonzero" fill="rgb(0%, 0%, 0%)" fill-opacity="1" d="M 60.390625 95.660156 C 60.785156 95.261719 61.636719 94.492188 62.210938 92.949219 C 62.726562 91.601562 62.804688 90.253906 62.804688 89.324219 C 62.804688 85.25 60.984375 83.585938 60.390625 83.011719 L 59.617188 83.011719 C 60.210938 83.625 61.816406 85.25 61.816406 89.324219 C 61.816406 90.039062 61.777344 91.523438 61.261719 93.007812 C 60.746094 94.472656 60.035156 95.222656 59.617188 95.660156 Z M 60.390625 95.660156 "/>
<path fill-rule="nonzero" fill="rgb(0%, 0%, 0%)" fill-opacity="1" d="M 138.515625 16.117188 L 138.515625 15.46875 L 137.523438 15.46875 L 137.523438 14.949219 C 137.523438 14.363281 137.878906 14.238281 137.980469 14.238281 L 138.679688 14.238281 L 138.679688 13.527344 L 137.980469 13.527344 C 137.335938 13.527344 136.636719 13.917969 136.609375 15.023438 L 136.609375 15.46875 L 136.050781 15.46875 L 136.050781 16.117188 L 136.609375 16.117188 L 136.609375 19.125 L 137.523438 19.125 L 137.523438 16.117188 Z M 138.515625 16.117188 "/>
<path fill-rule="nonzero" fill="rgb(0%, 0%, 0%)" fill-opacity="1" d="M 140.566406 16.734375 C 140.566406 16.582031 140.566406 16.582031 140.402344 16.582031 C 140.035156 16.9375 139.523438 16.9375 139.296875 16.9375 L 139.296875 17.140625 C 139.421875 17.140625 139.804688 17.140625 140.109375 16.988281 L 140.109375 19.871094 C 140.109375 20.0625 140.109375 20.136719 139.550781 20.136719 L 139.335938 20.136719 L 139.335938 20.339844 C 139.4375 20.339844 140.136719 20.316406 140.339844 20.316406 C 140.515625 20.316406 141.226562 20.339844 141.355469 20.339844 L 141.355469 20.136719 L 141.140625 20.136719 C 140.566406 20.136719 140.566406 20.0625 140.566406 19.871094 Z M 140.566406 16.734375 "/>
<path fill-rule="nonzero" fill="rgb(0%, 0%, 0%)" fill-opacity="1" d="M 144.378906 21.160156 L 144.378906 20.828125 L 143.59375 20.828125 L 143.59375 13.375 L 144.378906 13.375 L 144.378906 13.042969 L 143.261719 13.042969 L 143.261719 21.160156 Z M 144.378906 21.160156 "/>
<path fill-rule="nonzero" fill="rgb(0%, 0%, 0%)" fill-opacity="1" d="M 145.484375 18.746094 L 144.925781 18.746094 L 144.925781 19.125 C 145.15625 19.113281 145.636719 19.101562 145.945312 19.101562 C 146.261719 19.101562 146.742188 19.113281 146.960938 19.125 L 146.960938 18.746094 L 146.402344 18.746094 L 146.402344 17.058594 C 146.402344 16.167969 147.101562 15.773438 147.621094 15.773438 C 147.886719 15.773438 148.066406 15.9375 148.066406 16.5625 L 148.066406 18.746094 L 147.507812 18.746094 L 147.507812 19.125 C 147.722656 19.113281 148.21875 19.101562 148.523438 19.101562 C 148.839844 19.101562 149.324219 19.113281 149.539062 19.125 L 149.539062 18.746094 L 148.980469 18.746094 L 148.980469 16.648438 C 148.980469 15.800781 148.546875 15.480469 147.734375 15.480469 C 146.960938 15.480469 146.539062 15.953125 146.363281 16.269531 L 146.363281 13.5 L 144.925781 13.5625 L 144.925781 13.945312 C 145.421875 13.945312 145.484375 13.945312 145.484375 14.261719 Z M 145.484375 18.746094 "/>
<path fill-rule="nonzero" fill="rgb(0%, 0%, 0%)" fill-opacity="1" d="M 152.59375 19.3125 L 152.402344 19.3125 C 152.390625 19.441406 152.328125 19.769531 152.25 19.820312 C 152.210938 19.859375 151.78125 19.859375 151.691406 19.859375 L 150.648438 19.859375 C 151.246094 19.339844 151.449219 19.171875 151.78125 18.90625 C 152.199219 18.574219 152.59375 18.21875 152.59375 17.6875 C 152.59375 17 151.996094 16.582031 151.273438 16.582031 C 150.574219 16.582031 150.089844 17.078125 150.089844 17.597656 C 150.089844 17.878906 150.332031 17.914062 150.394531 17.914062 C 150.523438 17.914062 150.6875 17.8125 150.6875 17.609375 C 150.6875 17.507812 150.648438 17.304688 150.355469 17.304688 C 150.535156 16.910156 150.917969 16.785156 151.183594 16.785156 C 151.753906 16.785156 152.046875 17.230469 152.046875 17.6875 C 152.046875 18.183594 151.691406 18.5625 151.511719 18.765625 L 150.152344 20.125 C 150.089844 20.175781 150.089844 20.1875 150.089844 20.339844 L 152.429688 20.339844 Z M 152.59375 19.3125 "/>
<path fill-rule="nonzero" fill="rgb(0%, 0%, 0%)" fill-opacity="1" d="M 155.019531 19.113281 C 155.019531 18.582031 154.816406 18.261719 154.5 18.261719 C 154.234375 18.261719 154.066406 18.464844 154.066406 18.695312 C 154.066406 18.910156 154.234375 19.125 154.5 19.125 C 154.589844 19.125 154.703125 19.089844 154.777344 19.023438 C 154.804688 19 154.816406 19 154.816406 19 C 154.828125 19 154.828125 19 154.828125 19.113281 C 154.828125 19.722656 154.550781 20.207031 154.285156 20.472656 C 154.195312 20.5625 154.195312 20.574219 154.195312 20.601562 C 154.195312 20.664062 154.234375 20.6875 154.269531 20.6875 C 154.359375 20.6875 155.019531 20.066406 155.019531 19.113281 Z M 155.019531 19.113281 "/>
<path fill-rule="nonzero" fill="rgb(0%, 0%, 0%)" fill-opacity="1" d="M 161.074219 13.742188 C 161.097656 13.640625 161.097656 13.628906 161.097656 13.613281 C 161.097656 13.5 160.984375 13.5 160.90625 13.5 C 160.742188 13.5 160.742188 13.527344 160.691406 13.691406 L 160.296875 15.292969 C 160.261719 15.40625 160.261719 15.40625 160.246094 15.417969 C 160.234375 15.417969 160.222656 15.429688 160.09375 15.445312 C 158.417969 15.53125 157.425781 16.6875 157.425781 17.71875 C 157.425781 18.582031 158.125 19.175781 159.308594 19.214844 L 158.964844 20.652344 C 158.964844 20.765625 159.078125 20.765625 159.15625 20.765625 C 159.28125 20.765625 159.320312 20.753906 159.359375 20.613281 L 159.636719 19.484375 C 159.6875 19.253906 159.699219 19.242188 159.714844 19.226562 C 159.726562 19.226562 159.738281 19.226562 159.867188 19.214844 C 161.519531 19.113281 162.535156 17.984375 162.535156 16.941406 C 162.535156 16.066406 161.835938 15.480469 160.652344 15.445312 Z M 159.382812 18.921875 C 158.683594 18.886719 158.253906 18.582031 158.253906 17.933594 C 158.253906 17.703125 158.339844 16.953125 158.773438 16.421875 C 159.054688 16.066406 159.523438 15.785156 160.183594 15.734375 Z M 160.578125 15.734375 C 161.277344 15.773438 161.707031 16.066406 161.707031 16.726562 C 161.707031 16.953125 161.621094 17.703125 161.1875 18.238281 C 160.90625 18.59375 160.4375 18.871094 159.777344 18.921875 Z M 160.578125 15.734375 "/>
<path fill-rule="nonzero" fill="rgb(0%, 0%, 0%)" fill-opacity="1" d="M 164.632812 17.5 C 164.632812 17.347656 164.632812 17.347656 164.46875 17.347656 C 164.101562 17.703125 163.59375 17.703125 163.363281 17.703125 L 163.363281 17.90625 C 163.492188 17.90625 163.871094 17.90625 164.175781 17.753906 L 164.175781 20.636719 C 164.175781 20.828125 164.175781 20.902344 163.617188 20.902344 L 163.402344 20.902344 L 163.402344 21.105469 C 163.503906 21.105469 164.203125 21.082031 164.40625 21.082031 C 164.582031 21.082031 165.292969 21.105469 165.421875 21.105469 L 165.421875 20.902344 L 165.207031 20.902344 C 164.632812 20.902344 164.632812 20.828125 164.632812 20.636719 Z M 164.632812 17.5 "/>
<path fill-rule="nonzero" fill="rgb(0%, 0%, 0%)" fill-opacity="1" d="M 167.660156 13.042969 L 166.554688 13.042969 L 166.554688 13.375 L 167.339844 13.375 L 167.339844 20.828125 L 166.554688 20.828125 L 166.554688 21.160156 L 167.660156 21.160156 Z M 167.660156 13.042969 "/>
<path fill-rule="nonzero" fill="rgb(0%, 0%, 0%)" fill-opacity="1" d="M 139.339844 96.023438 L 139.339844 95.375 L 138.347656 95.375 L 138.347656 94.855469 C 138.347656 94.269531 138.703125 94.144531 138.804688 94.144531 L 139.503906 94.144531 L 139.503906 93.433594 L 138.804688 93.433594 C 138.15625 93.433594 137.457031 93.828125 137.433594 94.929688 L 137.433594 95.375 L 136.875 95.375 L 136.875 96.023438 L 137.433594 96.023438 L 137.433594 99.035156 L 138.347656 99.035156 L 138.347656 96.023438 Z M 139.339844 96.023438 "/>
<path fill-rule="nonzero" fill="rgb(0%, 0%, 0%)" fill-opacity="1" d="M 141.390625 96.640625 C 141.390625 96.488281 141.390625 96.488281 141.222656 96.488281 C 140.855469 96.84375 140.347656 96.84375 140.117188 96.84375 L 140.117188 97.046875 C 140.246094 97.046875 140.628906 97.046875 140.933594 96.894531 L 140.933594 99.777344 C 140.933594 99.96875 140.933594 100.042969 140.375 100.042969 L 140.15625 100.042969 L 140.15625 100.25 C 140.257812 100.25 140.957031 100.222656 141.160156 100.222656 C 141.339844 100.222656 142.050781 100.25 142.175781 100.25 L 142.175781 100.042969 L 141.960938 100.042969 C 141.390625 100.042969 141.390625 99.96875 141.390625 99.777344 Z M 141.390625 96.640625 "/>
<path fill-rule="nonzero" fill="rgb(0%, 0%, 0%)" fill-opacity="1" d="M 145.203125 101.066406 L 145.203125 100.734375 L 144.414062 100.734375 L 144.414062 93.28125 L 145.203125 93.28125 L 145.203125 92.949219 L 144.085938 92.949219 L 144.085938 101.066406 Z M 145.203125 101.066406 "/>
<path fill-rule="nonzero" fill="rgb(0%, 0%, 0%)" fill-opacity="1" d="M 146.308594 98.652344 L 145.75 98.652344 L 145.75 99.035156 C 145.976562 99.019531 146.460938 99.007812 146.765625 99.007812 C 147.082031 99.007812 147.566406 99.019531 147.78125 99.035156 L 147.78125 98.652344 L 147.222656 98.652344 L 147.222656 96.964844 C 147.222656 96.074219 147.921875 95.679688 148.441406 95.679688 C 148.710938 95.679688 148.886719 95.847656 148.886719 96.46875 L 148.886719 98.652344 L 148.328125 98.652344 L 148.328125 99.035156 C 148.546875 99.019531 149.039062 99.007812 149.34375 99.007812 C 149.664062 99.007812 150.144531 99.019531 150.363281 99.035156 L 150.363281 98.652344 L 149.804688 98.652344 L 149.804688 96.558594 C 149.804688 95.707031 149.371094 95.386719 148.558594 95.386719 C 147.78125 95.386719 147.363281 95.859375 147.183594 96.175781 L 147.183594 93.40625 L 145.75 93.472656 L 145.75 93.851562 C 146.246094 93.851562 146.308594 93.851562 146.308594 94.167969 Z M 146.308594 98.652344 "/>
<path fill-rule="nonzero" fill="rgb(0%, 0%, 0%)" fill-opacity="1" d="M 153.414062 99.21875 L 153.226562 99.21875 C 153.210938 99.347656 153.148438 99.675781 153.074219 99.726562 C 153.035156 99.765625 152.601562 99.765625 152.515625 99.765625 L 151.472656 99.765625 C 152.070312 99.246094 152.273438 99.078125 152.601562 98.8125 C 153.023438 98.484375 153.414062 98.128906 153.414062 97.59375 C 153.414062 96.90625 152.820312 96.488281 152.09375 96.488281 C 151.394531 96.488281 150.914062 96.984375 150.914062 97.503906 C 150.914062 97.785156 151.152344 97.824219 151.21875 97.824219 C 151.34375 97.824219 151.511719 97.71875 151.511719 97.515625 C 151.511719 97.414062 151.472656 97.210938 151.179688 97.210938 C 151.359375 96.820312 151.738281 96.691406 152.003906 96.691406 C 152.578125 96.691406 152.871094 97.136719 152.871094 97.59375 C 152.871094 98.089844 152.515625 98.46875 152.335938 98.671875 L 150.976562 100.03125 C 150.914062 100.082031 150.914062 100.09375 150.914062 100.25 L 153.25 100.25 Z M 153.414062 99.21875 "/>
<path fill-rule="nonzero" fill="rgb(0%, 0%, 0%)" fill-opacity="1" d="M 155.84375 99.019531 C 155.84375 98.488281 155.640625 98.171875 155.320312 98.171875 C 155.054688 98.171875 154.890625 98.375 154.890625 98.601562 C 154.890625 98.816406 155.054688 99.035156 155.320312 99.035156 C 155.410156 99.035156 155.523438 98.996094 155.601562 98.933594 C 155.625 98.90625 155.640625 98.90625 155.640625 98.90625 C 155.652344 98.90625 155.652344 98.90625 155.652344 99.019531 C 155.652344 99.628906 155.371094 100.113281 155.105469 100.378906 C 155.015625 100.46875 155.015625 100.480469 155.015625 100.507812 C 155.015625 100.570312 155.054688 100.597656 155.09375 100.597656 C 155.183594 100.597656 155.84375 99.972656 155.84375 99.019531 Z M 155.84375 99.019531 "/>
<path fill-rule="nonzero" fill="rgb(0%, 0%, 0%)" fill-opacity="1" d="M 161.894531 93.648438 C 161.921875 93.546875 161.921875 93.535156 161.921875 93.523438 C 161.921875 93.40625 161.808594 93.40625 161.730469 93.40625 C 161.566406 93.40625 161.566406 93.433594 161.515625 93.597656 L 161.121094 95.199219 C 161.082031 95.3125 161.082031 95.3125 161.070312 95.324219 C 161.058594 95.324219 161.042969 95.335938 160.917969 95.351562 C 159.238281 95.4375 158.25 96.59375 158.25 97.625 C 158.25 98.488281 158.949219 99.085938 160.128906 99.121094 L 159.785156 100.558594 C 159.785156 100.671875 159.902344 100.671875 159.976562 100.671875 C 160.105469 100.671875 160.140625 100.660156 160.179688 100.519531 L 160.460938 99.390625 C 160.511719 99.160156 160.523438 99.148438 160.535156 99.136719 C 160.550781 99.136719 160.5625 99.136719 160.6875 99.121094 C 162.339844 99.019531 163.355469 97.890625 163.355469 96.847656 C 163.355469 95.972656 162.65625 95.386719 161.476562 95.351562 Z M 160.207031 98.832031 C 159.507812 98.792969 159.074219 98.488281 159.074219 97.839844 C 159.074219 97.609375 159.164062 96.863281 159.597656 96.328125 C 159.875 95.972656 160.34375 95.695312 161.007812 95.644531 Z M 161.398438 95.644531 C 162.097656 95.679688 162.53125 95.972656 162.53125 96.632812 C 162.53125 96.863281 162.441406 97.609375 162.011719 98.144531 C 161.730469 98.5 161.261719 98.78125 160.601562 98.832031 Z M 161.398438 95.644531 "/>
<path fill-rule="nonzero" fill="rgb(0%, 0%, 0%)" fill-opacity="1" d="M 165.457031 97.40625 C 165.457031 97.253906 165.457031 97.253906 165.292969 97.253906 C 164.921875 97.609375 164.414062 97.609375 164.1875 97.609375 L 164.1875 97.8125 C 164.3125 97.8125 164.695312 97.8125 165 97.660156 L 165 100.542969 C 165 100.734375 165 100.808594 164.441406 100.808594 L 164.222656 100.808594 L 164.222656 101.011719 C 164.324219 101.011719 165.023438 100.988281 165.226562 100.988281 C 165.40625 100.988281 166.117188 101.011719 166.246094 101.011719 L 166.246094 100.808594 L 166.027344 100.808594 C 165.457031 100.808594 165.457031 100.734375 165.457031 100.542969 Z M 165.457031 97.40625 "/>
<path fill-rule="nonzero" fill="rgb(0%, 0%, 0%)" fill-opacity="1" d="M 168.480469 92.949219 L 167.375 92.949219 L 167.375 93.28125 L 168.164062 93.28125 L 168.164062 100.734375 L 167.375 100.734375 L 167.375 101.066406 L 168.480469 101.066406 Z M 168.480469 92.949219 "/>
<path fill-rule="nonzero" fill="rgb(0%, 0%, 0%)" fill-opacity="1" d="M 84.683594 18.738281 L 84.125 18.738281 L 84.125 19.117188 C 84.355469 19.105469 84.835938 19.09375 85.140625 19.09375 C 85.460938 19.09375 85.941406 19.105469 86.160156 19.117188 L 86.160156 18.738281 L 85.597656 18.738281 L 85.597656 17.046875 C 85.597656 16.160156 86.296875 15.765625 86.820312 15.765625 C 87.085938 15.765625 87.265625 15.929688 87.265625 16.550781 L 87.265625 18.738281 L 86.703125 18.738281 L 86.703125 19.117188 C 86.921875 19.105469 87.417969 19.09375 87.722656 19.09375 C 88.039062 19.09375 88.523438 19.105469 88.738281 19.117188 L 88.738281 18.738281 L 88.179688 18.738281 L 88.179688 16.640625 C 88.179688 15.789062 87.746094 15.472656 86.933594 15.472656 C 86.160156 15.472656 85.738281 15.941406 85.5625 16.261719 L 85.5625 13.492188 L 84.125 13.554688 L 84.125 13.9375 C 84.621094 13.9375 84.683594 13.9375 84.683594 14.253906 Z M 84.683594 18.738281 "/>
<path fill-rule="nonzero" fill="rgb(0%, 0%, 0%)" fill-opacity="1" d="M 90.824219 16.726562 C 90.824219 16.574219 90.824219 16.574219 90.660156 16.574219 C 90.292969 16.929688 89.785156 16.929688 89.554688 16.929688 L 89.554688 17.132812 C 89.683594 17.132812 90.0625 17.132812 90.367188 16.980469 L 90.367188 19.863281 C 90.367188 20.054688 90.367188 20.128906 89.808594 20.128906 L 89.59375 20.128906 L 89.59375 20.332031 C 89.695312 20.332031 90.394531 20.308594 90.597656 20.308594 C 90.773438 20.308594 91.488281 20.332031 91.613281 20.332031 L 91.613281 20.128906 L 91.398438 20.128906 C 90.824219 20.128906 90.824219 20.054688 90.824219 19.863281 Z M 90.824219 16.726562 "/>
<path fill-rule="nonzero" fill="rgb(0%, 0%, 0%)" fill-opacity="1" d="M 84.59375 45.003906 L 84.035156 45.003906 L 84.035156 45.386719 C 84.265625 45.375 84.746094 45.359375 85.054688 45.359375 C 85.371094 45.359375 85.851562 45.375 86.070312 45.386719 L 86.070312 45.003906 L 85.511719 45.003906 L 85.511719 43.316406 C 85.511719 42.425781 86.210938 42.035156 86.730469 42.035156 C 86.996094 42.035156 87.175781 42.199219 87.175781 42.820312 L 87.175781 45.003906 L 86.617188 45.003906 L 86.617188 45.386719 C 86.832031 45.375 87.328125 45.359375 87.632812 45.359375 C 87.949219 45.359375 88.433594 45.375 88.648438 45.386719 L 88.648438 45.003906 L 88.089844 45.003906 L 88.089844 42.910156 C 88.089844 42.058594 87.65625 41.742188 86.84375 41.742188 C 86.070312 41.742188 85.648438 42.210938 85.472656 42.527344 L 85.472656 39.761719 L 84.035156 39.824219 L 84.035156 40.203125 C 84.53125 40.203125 84.59375 40.203125 84.59375 40.523438 Z M 84.59375 45.003906 "/>
<path fill-rule="nonzero" fill="rgb(0%, 0%, 0%)" fill-opacity="1" d="M 91.703125 45.570312 L 91.511719 45.570312 C 91.5 45.699219 91.4375 46.027344 91.359375 46.078125 C 91.320312 46.117188 90.890625 46.117188 90.800781 46.117188 L 89.757812 46.117188 C 90.355469 45.597656 90.558594 45.433594 90.890625 45.164062 C 91.308594 44.835938 91.703125 44.480469 91.703125 43.945312 C 91.703125 43.261719 91.105469 42.839844 90.382812 42.839844 C 89.683594 42.839844 89.199219 43.335938 89.199219 43.855469 C 89.199219 44.136719 89.441406 44.175781 89.503906 44.175781 C 89.632812 44.175781 89.796875 44.074219 89.796875 43.871094 C 89.796875 43.769531 89.757812 43.566406 89.464844 43.566406 C 89.644531 43.171875 90.023438 43.042969 90.292969 43.042969 C 90.863281 43.042969 91.15625 43.488281 91.15625 43.945312 C 91.15625 44.441406 90.800781 44.824219 90.621094 45.027344 L 89.261719 46.386719 C 89.199219 46.4375 89.199219 46.449219 89.199219 46.601562 L 91.539062 46.601562 Z M 91.703125 45.570312 "/>
<path fill-rule="nonzero" fill="rgb(0%, 0%, 0%)" fill-opacity="1" d="M 84.59375 98.644531 L 84.035156 98.644531 L 84.035156 99.023438 C 84.261719 99.011719 84.746094 99 85.050781 99 C 85.367188 99 85.851562 99.011719 86.066406 99.023438 L 86.066406 98.644531 L 85.507812 98.644531 L 85.507812 96.953125 C 85.507812 96.066406 86.207031 95.671875 86.730469 95.671875 C 86.996094 95.671875 87.171875 95.835938 87.171875 96.460938 L 87.171875 98.644531 L 86.613281 98.644531 L 86.613281 99.023438 C 86.832031 99.011719 87.324219 99 87.628906 99 C 87.949219 99 88.429688 99.011719 88.648438 99.023438 L 88.648438 98.644531 L 88.089844 98.644531 L 88.089844 96.546875 C 88.089844 95.695312 87.65625 95.378906 86.84375 95.378906 C 86.066406 95.378906 85.648438 95.847656 85.46875 96.167969 L 85.46875 93.398438 L 84.035156 93.460938 L 84.035156 93.84375 C 84.53125 93.84375 84.59375 93.84375 84.59375 94.160156 Z M 84.59375 98.644531 "/>
<path fill-rule="nonzero" fill="rgb(0%, 0%, 0%)" fill-opacity="1" d="M 90.734375 96.632812 C 90.734375 96.480469 90.734375 96.480469 90.570312 96.480469 C 90.203125 96.835938 89.695312 96.835938 89.464844 96.835938 L 89.464844 97.039062 C 89.59375 97.039062 89.972656 97.039062 90.277344 96.886719 L 90.277344 99.769531 C 90.277344 99.960938 90.277344 100.035156 89.71875 100.035156 L 89.503906 100.035156 L 89.503906 100.238281 C 89.605469 100.238281 90.304688 100.214844 90.507812 100.214844 C 90.683594 100.214844 91.394531 100.238281 91.523438 100.238281 L 91.523438 100.035156 L 91.308594 100.035156 C 90.734375 100.035156 90.734375 99.960938 90.734375 99.769531 Z M 90.734375 96.632812 "/>
<path fill-rule="nonzero" fill="rgb(0%, 0%, 0%)" fill-opacity="1" d="M 84.503906 124.914062 L 83.945312 124.914062 L 83.945312 125.292969 C 84.175781 125.28125 84.65625 125.269531 84.960938 125.269531 C 85.28125 125.269531 85.761719 125.28125 85.980469 125.292969 L 85.980469 124.914062 L 85.417969 124.914062 L 85.417969 123.222656 C 85.417969 122.332031 86.117188 121.941406 86.640625 121.941406 C 86.90625 121.941406 87.085938 122.105469 87.085938 122.726562 L 87.085938 124.914062 L 86.523438 124.914062 L 86.523438 125.292969 C 86.742188 125.28125 87.238281 125.269531 87.542969 125.269531 C 87.859375 125.269531 88.34375 125.28125 88.558594 125.292969 L 88.558594 124.914062 L 88 124.914062 L 88 122.816406 C 88 121.964844 87.566406 121.648438 86.753906 121.648438 C 85.980469 121.648438 85.558594 122.117188 85.382812 122.433594 L 85.382812 119.667969 L 83.945312 119.730469 L 83.945312 120.109375 C 84.441406 120.109375 84.503906 120.109375 84.503906 120.429688 Z M 84.503906 124.914062 "/>
<path fill-rule="nonzero" fill="rgb(0%, 0%, 0%)" fill-opacity="1" d="M 91.613281 125.480469 L 91.421875 125.480469 C 91.410156 125.605469 91.34375 125.9375 91.269531 125.988281 C 91.230469 126.023438 90.800781 126.023438 90.710938 126.023438 L 89.667969 126.023438 C 90.265625 125.503906 90.46875 125.339844 90.800781 125.074219 C 91.21875 124.742188 91.613281 124.386719 91.613281 123.851562 C 91.613281 123.167969 91.015625 122.75 90.289062 122.75 C 89.59375 122.75 89.109375 123.242188 89.109375 123.765625 C 89.109375 124.042969 89.351562 124.082031 89.414062 124.082031 C 89.542969 124.082031 89.707031 123.980469 89.707031 123.777344 C 89.707031 123.675781 89.667969 123.472656 89.375 123.472656 C 89.554688 123.078125 89.933594 122.953125 90.203125 122.953125 C 90.773438 122.953125 91.066406 123.394531 91.066406 123.851562 C 91.066406 124.347656 90.710938 124.730469 90.53125 124.933594 L 89.171875 126.292969 C 89.109375 126.34375 89.109375 126.355469 89.109375 126.507812 L 91.445312 126.507812 Z M 91.613281 125.480469 "/>
<path fill-rule="nonzero" fill="rgb(0%, 0%, 0%)" fill-opacity="1" d="M 319.710938 18.578125 L 319.152344 18.578125 L 319.152344 18.957031 C 319.378906 18.945312 319.863281 18.933594 320.167969 18.933594 C 320.484375 18.933594 320.96875 18.945312 321.183594 18.957031 L 321.183594 18.578125 L 320.625 18.578125 L 320.625 16.886719 C 320.625 16 321.324219 15.605469 321.84375 15.605469 C 322.113281 15.605469 322.289062 15.769531 322.289062 16.390625 L 322.289062 18.578125 L 321.730469 18.578125 L 321.730469 18.957031 C 321.945312 18.945312 322.441406 18.933594 322.746094 18.933594 C 323.066406 18.933594 323.546875 18.945312 323.765625 18.957031 L 323.765625 18.578125 L 323.203125 18.578125 L 323.203125 16.480469 C 323.203125 15.628906 322.773438 15.3125 321.960938 15.3125 C 321.183594 15.3125 320.765625 15.78125 320.585938 16.101562 L 320.585938 13.332031 L 319.152344 13.394531 L 319.152344 13.777344 C 319.648438 13.777344 319.710938 13.777344 319.710938 14.09375 Z M 319.710938 18.578125 "/>
<path fill-rule="nonzero" fill="rgb(0%, 0%, 0%)" fill-opacity="1" d="M 325.597656 13.339844 C 325.648438 13.25 325.648438 13.199219 325.648438 13.160156 C 325.648438 12.984375 325.496094 12.855469 325.320312 12.855469 C 325.101562 12.855469 325.039062 13.035156 325.011719 13.121094 L 324.265625 15.574219 C 324.25 15.585938 324.226562 15.652344 324.226562 15.664062 C 324.226562 15.726562 324.402344 15.789062 324.453125 15.789062 C 324.492188 15.789062 324.492188 15.777344 324.53125 15.6875 Z M 325.597656 13.339844 "/>
<path fill-rule="nonzero" fill="rgb(0%, 0%, 0%)" fill-opacity="1" d="M 325.851562 17.359375 C 325.851562 17.207031 325.851562 17.207031 325.6875 17.207031 C 325.320312 17.5625 324.808594 17.5625 324.582031 17.5625 L 324.582031 17.765625 C 324.707031 17.765625 325.089844 17.765625 325.394531 17.613281 L 325.394531 20.496094 C 325.394531 20.6875 325.394531 20.765625 324.835938 20.765625 L 324.621094 20.765625 L 324.621094 20.96875 C 324.722656 20.96875 325.421875 20.941406 325.625 20.941406 C 325.800781 20.941406 326.511719 20.96875 326.640625 20.96875 L 326.640625 20.765625 L 326.421875 20.765625 C 325.851562 20.765625 325.851562 20.6875 325.851562 20.496094 Z M 325.851562 17.359375 "/>
<path fill-rule="nonzero" fill="rgb(0%, 0%, 0%)" fill-opacity="1" d="M 319.726562 44.683594 L 319.167969 44.683594 L 319.167969 45.066406 C 319.394531 45.054688 319.878906 45.039062 320.183594 45.039062 C 320.5 45.039062 320.984375 45.054688 321.199219 45.066406 L 321.199219 44.683594 L 320.640625 44.683594 L 320.640625 42.996094 C 320.640625 42.105469 321.339844 41.710938 321.859375 41.710938 C 322.128906 41.710938 322.304688 41.878906 322.304688 42.5 L 322.304688 44.683594 L 321.746094 44.683594 L 321.746094 45.066406 C 321.960938 45.054688 322.457031 45.039062 322.761719 45.039062 C 323.078125 45.039062 323.5625 45.054688 323.777344 45.066406 L 323.777344 44.683594 L 323.21875 44.683594 L 323.21875 42.589844 C 323.21875 41.738281 322.789062 41.421875 321.972656 41.421875 C 321.199219 41.421875 320.78125 41.890625 320.601562 42.207031 L 320.601562 39.4375 L 319.167969 39.503906 L 319.167969 39.882812 C 319.664062 39.882812 319.726562 39.882812 319.726562 40.203125 Z M 319.726562 44.683594 "/>
<path fill-rule="nonzero" fill="rgb(0%, 0%, 0%)" fill-opacity="1" d="M 325.613281 39.445312 C 325.664062 39.359375 325.664062 39.308594 325.664062 39.269531 C 325.664062 39.089844 325.511719 38.964844 325.332031 38.964844 C 325.117188 38.964844 325.054688 39.140625 325.027344 39.230469 L 324.277344 41.683594 C 324.265625 41.695312 324.242188 41.757812 324.242188 41.769531 C 324.242188 41.835938 324.417969 41.898438 324.46875 41.898438 C 324.507812 41.898438 324.507812 41.886719 324.546875 41.796875 Z M 325.613281 39.445312 "/>
<path fill-rule="nonzero" fill="rgb(0%, 0%, 0%)" fill-opacity="1" d="M 326.832031 46.046875 L 326.640625 46.046875 C 326.628906 46.171875 326.566406 46.503906 326.488281 46.554688 C 326.453125 46.59375 326.019531 46.59375 325.929688 46.59375 L 324.890625 46.59375 C 325.484375 46.070312 325.6875 45.90625 326.019531 45.640625 C 326.4375 45.308594 326.832031 44.953125 326.832031 44.421875 C 326.832031 43.734375 326.234375 43.316406 325.511719 43.316406 C 324.8125 43.316406 324.328125 43.8125 324.328125 44.332031 C 324.328125 44.609375 324.570312 44.648438 324.632812 44.648438 C 324.761719 44.648438 324.925781 44.546875 324.925781 44.34375 C 324.925781 44.242188 324.890625 44.039062 324.597656 44.039062 C 324.773438 43.644531 325.15625 43.519531 325.421875 43.519531 C 325.992188 43.519531 326.285156 43.964844 326.285156 44.421875 C 326.285156 44.914062 325.929688 45.296875 325.753906 45.5 L 324.394531 46.859375 C 324.328125 46.910156 324.328125 46.921875 324.328125 47.074219 L 326.667969 47.074219 Z M 326.832031 46.046875 "/>
<path fill-rule="nonzero" fill="rgb(0%, 0%, 0%)" fill-opacity="1" d="M 319.433594 98.484375 L 318.875 98.484375 L 318.875 98.863281 C 319.101562 98.851562 319.585938 98.839844 319.890625 98.839844 C 320.207031 98.839844 320.691406 98.851562 320.90625 98.863281 L 320.90625 98.484375 L 320.347656 98.484375 L 320.347656 96.792969 C 320.347656 95.90625 321.046875 95.511719 321.566406 95.511719 C 321.835938 95.511719 322.011719 95.675781 322.011719 96.300781 L 322.011719 98.484375 L 321.453125 98.484375 L 321.453125 98.863281 C 321.667969 98.851562 322.164062 98.839844 322.46875 98.839844 C 322.789062 98.839844 323.269531 98.851562 323.484375 98.863281 L 323.484375 98.484375 L 322.925781 98.484375 L 322.925781 96.386719 C 322.925781 95.539062 322.496094 95.21875 321.683594 95.21875 C 320.90625 95.21875 320.488281 95.691406 320.308594 96.007812 L 320.308594 93.238281 L 318.875 93.300781 L 318.875 93.683594 C 319.371094 93.683594 319.433594 93.683594 319.433594 94 Z M 319.433594 98.484375 "/>
<path fill-rule="nonzero" fill="rgb(0%, 0%, 0%)" fill-opacity="1" d="M 325.320312 93.246094 C 325.371094 93.15625 325.371094 93.105469 325.371094 93.066406 C 325.371094 92.890625 325.21875 92.761719 325.039062 92.761719 C 324.824219 92.761719 324.761719 92.941406 324.734375 93.03125 L 323.984375 95.480469 C 323.972656 95.492188 323.949219 95.558594 323.949219 95.570312 C 323.949219 95.632812 324.125 95.695312 324.175781 95.695312 C 324.214844 95.695312 324.214844 95.683594 324.253906 95.59375 Z M 325.320312 93.246094 "/>
<path fill-rule="nonzero" fill="rgb(0%, 0%, 0%)" fill-opacity="1" d="M 325.574219 97.265625 C 325.574219 97.113281 325.574219 97.113281 325.410156 97.113281 C 325.039062 97.46875 324.53125 97.46875 324.304688 97.46875 L 324.304688 97.671875 C 324.429688 97.671875 324.8125 97.671875 325.117188 97.519531 L 325.117188 100.402344 C 325.117188 100.59375 325.117188 100.671875 324.558594 100.671875 L 324.34375 100.671875 L 324.34375 100.875 C 324.445312 100.875 325.140625 100.847656 325.347656 100.847656 C 325.523438 100.847656 326.234375 100.875 326.363281 100.875 L 326.363281 100.671875 L 326.144531 100.671875 C 325.574219 100.671875 325.574219 100.59375 325.574219 100.402344 Z M 325.574219 97.265625 "/>
<path fill-rule="nonzero" fill="rgb(0%, 0%, 0%)" fill-opacity="1" d="M 319.449219 124.753906 L 318.890625 124.753906 L 318.890625 125.132812 C 319.117188 125.121094 319.601562 125.109375 319.90625 125.109375 C 320.222656 125.109375 320.707031 125.121094 320.921875 125.132812 L 320.921875 124.753906 L 320.363281 124.753906 L 320.363281 123.0625 C 320.363281 122.175781 321.0625 121.78125 321.582031 121.78125 C 321.847656 121.78125 322.027344 121.945312 322.027344 122.566406 L 322.027344 124.753906 L 321.46875 124.753906 L 321.46875 125.132812 C 321.683594 125.121094 322.179688 125.109375 322.484375 125.109375 C 322.800781 125.109375 323.285156 125.121094 323.5 125.132812 L 323.5 124.753906 L 322.941406 124.753906 L 322.941406 122.65625 C 322.941406 121.804688 322.511719 121.488281 321.695312 121.488281 C 320.921875 121.488281 320.503906 121.957031 320.324219 122.277344 L 320.324219 119.507812 L 318.890625 119.570312 L 318.890625 119.953125 C 319.382812 119.953125 319.449219 119.953125 319.449219 120.269531 Z M 319.449219 124.753906 "/>
<path fill-rule="nonzero" fill="rgb(0%, 0%, 0%)" fill-opacity="1" d="M 325.335938 119.515625 C 325.386719 119.425781 325.386719 119.375 325.386719 119.335938 C 325.386719 119.160156 325.234375 119.03125 325.054688 119.03125 C 324.839844 119.03125 324.777344 119.210938 324.75 119.296875 L 324 121.75 C 323.988281 121.761719 323.964844 121.824219 323.964844 121.839844 C 323.964844 121.902344 324.140625 121.964844 324.191406 121.964844 C 324.230469 121.964844 324.230469 121.953125 324.269531 121.863281 Z M 325.335938 119.515625 "/>
<path fill-rule="nonzero" fill="rgb(0%, 0%, 0%)" fill-opacity="1" d="M 326.554688 126.113281 L 326.363281 126.113281 C 326.351562 126.242188 326.289062 126.570312 326.210938 126.621094 C 326.175781 126.660156 325.742188 126.660156 325.652344 126.660156 L 324.609375 126.660156 C 325.207031 126.140625 325.410156 125.972656 325.742188 125.707031 C 326.160156 125.378906 326.554688 125.023438 326.554688 124.488281 C 326.554688 123.800781 325.957031 123.382812 325.234375 123.382812 C 324.535156 123.382812 324.050781 123.878906 324.050781 124.398438 C 324.050781 124.679688 324.292969 124.71875 324.355469 124.71875 C 324.484375 124.71875 324.648438 124.617188 324.648438 124.410156 C 324.648438 124.308594 324.609375 124.105469 324.320312 124.105469 C 324.496094 123.714844 324.878906 123.585938 325.144531 123.585938 C 325.714844 123.585938 326.007812 124.03125 326.007812 124.488281 C 326.007812 124.984375 325.652344 125.363281 325.476562 125.566406 L 324.117188 126.925781 C 324.050781 126.976562 324.050781 126.992188 324.050781 127.144531 L 326.390625 127.144531 Z M 326.554688 126.113281 "/>
<path fill-rule="nonzero" fill="rgb(0%, 0%, 0%)" fill-opacity="1" d="M 243.796875 42.089844 L 244.179688 42.089844 C 244.28125 42.089844 244.574219 42.089844 244.574219 41.800781 C 244.574219 41.507812 244.28125 41.507812 244.179688 41.507812 L 243.773438 41.507812 L 243.773438 40.617188 C 243.773438 40.414062 243.773438 40.085938 244.292969 40.085938 C 244.5625 40.085938 244.714844 40.160156 244.878906 40.3125 C 244.941406 40.375 244.96875 40.390625 245.003906 40.390625 C 245.105469 40.390625 245.105469 40.3125 245.105469 40.1875 L 245.105469 39.804688 C 245.105469 39.613281 245.09375 39.613281 244.828125 39.550781 C 244.585938 39.5 244.421875 39.5 244.292969 39.5 C 243.683594 39.5 242.71875 39.640625 242.71875 40.859375 L 242.71875 41.507812 C 242.539062 41.507812 242.261719 41.507812 242.261719 41.800781 C 242.261719 42.089844 242.539062 42.089844 242.71875 42.089844 L 242.71875 44.820312 C 242.71875 45.113281 242.808594 45.214844 243.097656 45.214844 L 243.40625 45.214844 C 243.710938 45.214844 243.796875 45.113281 243.796875 44.820312 Z M 243.796875 42.089844 "/>
<path fill-rule="nonzero" fill="rgb(0%, 0%, 0%)" fill-opacity="1" d="M 247.601562 45.402344 L 247.410156 45.402344 C 247.398438 45.527344 247.335938 45.859375 247.257812 45.910156 C 247.21875 45.949219 246.789062 45.949219 246.699219 45.949219 L 245.65625 45.949219 C 246.253906 45.425781 246.457031 45.261719 246.789062 44.996094 C 247.207031 44.664062 247.601562 44.308594 247.601562 43.777344 C 247.601562 43.089844 247.003906 42.671875 246.28125 42.671875 C 245.582031 42.671875 245.097656 43.164062 245.097656 43.6875 C 245.097656 43.964844 245.339844 44.003906 245.402344 44.003906 C 245.53125 44.003906 245.695312 43.902344 245.695312 43.699219 C 245.695312 43.597656 245.65625 43.394531 245.367188 43.394531 C 245.542969 43 245.925781 42.875 246.191406 42.875 C 246.761719 42.875 247.054688 43.316406 247.054688 43.777344 C 247.054688 44.269531 246.699219 44.652344 246.523438 44.855469 L 245.164062 46.214844 C 245.097656 46.265625 245.097656 46.277344 245.097656 46.429688 L 247.4375 46.429688 Z M 247.601562 45.402344 "/>
<path fill-rule="nonzero" fill="rgb(0%, 0%, 0%)" fill-opacity="1" d="M 250.449219 47.246094 L 250.449219 46.917969 L 249.660156 46.917969 L 249.660156 39.460938 L 250.449219 39.460938 L 250.449219 39.132812 L 249.328125 39.132812 L 249.328125 47.246094 Z M 250.449219 47.246094 "/>
<path fill-rule="nonzero" fill="rgb(0%, 0%, 0%)" fill-opacity="1" d="M 251.554688 44.835938 L 250.996094 44.835938 L 250.996094 45.214844 C 251.226562 45.203125 251.707031 45.191406 252.011719 45.191406 C 252.332031 45.191406 252.8125 45.203125 253.027344 45.214844 L 253.027344 44.835938 L 252.46875 44.835938 L 252.46875 43.144531 C 252.46875 42.257812 253.167969 41.863281 253.691406 41.863281 C 253.957031 41.863281 254.132812 42.027344 254.132812 42.648438 L 254.132812 44.835938 L 253.574219 44.835938 L 253.574219 45.214844 C 253.792969 45.203125 254.285156 45.191406 254.59375 45.191406 C 254.910156 45.191406 255.390625 45.203125 255.609375 45.214844 L 255.609375 44.835938 L 255.050781 44.835938 L 255.050781 42.738281 C 255.050781 41.886719 254.617188 41.570312 253.804688 41.570312 C 253.027344 41.570312 252.609375 42.039062 252.433594 42.359375 L 252.433594 39.589844 L 250.996094 39.652344 L 250.996094 40.035156 C 251.492188 40.035156 251.554688 40.035156 251.554688 40.351562 Z M 251.554688 44.835938 "/>
<path fill-rule="nonzero" fill="rgb(0%, 0%, 0%)" fill-opacity="1" d="M 257.441406 39.597656 C 257.492188 39.507812 257.492188 39.457031 257.492188 39.417969 C 257.492188 39.242188 257.339844 39.113281 257.164062 39.113281 C 256.945312 39.113281 256.882812 39.292969 256.859375 39.378906 L 256.109375 41.832031 C 256.097656 41.84375 256.070312 41.90625 256.070312 41.921875 C 256.070312 41.984375 256.25 42.046875 256.300781 42.046875 C 256.335938 42.046875 256.335938 42.035156 256.375 41.945312 Z M 257.441406 39.597656 "/>
<path fill-rule="nonzero" fill="rgb(0%, 0%, 0%)" fill-opacity="1" d="M 257.695312 43.617188 C 257.695312 43.464844 257.695312 43.464844 257.53125 43.464844 C 257.164062 43.820312 256.65625 43.820312 256.425781 43.820312 L 256.425781 44.023438 C 256.554688 44.023438 256.933594 44.023438 257.238281 43.871094 L 257.238281 46.753906 C 257.238281 46.945312 257.238281 47.023438 256.679688 47.023438 L 256.464844 47.023438 L 256.464844 47.226562 C 256.566406 47.226562 257.265625 47.199219 257.46875 47.199219 C 257.644531 47.199219 258.355469 47.226562 258.484375 47.226562 L 258.484375 47.023438 L 258.269531 47.023438 C 257.695312 47.023438 257.695312 46.945312 257.695312 46.753906 Z M 257.695312 43.617188 "/>
<path fill-rule="nonzero" fill="rgb(0%, 0%, 0%)" fill-opacity="1" d="M 261.089844 45.203125 C 261.089844 44.667969 260.886719 44.351562 260.566406 44.351562 C 260.300781 44.351562 260.136719 44.554688 260.136719 44.785156 C 260.136719 45 260.300781 45.214844 260.566406 45.214844 C 260.65625 45.214844 260.773438 45.175781 260.847656 45.113281 C 260.875 45.089844 260.886719 45.089844 260.886719 45.089844 C 260.898438 45.089844 260.898438 45.089844 260.898438 45.203125 C 260.898438 45.8125 260.621094 46.296875 260.351562 46.5625 C 260.261719 46.652344 260.261719 46.664062 260.261719 46.6875 C 260.261719 46.753906 260.300781 46.777344 260.339844 46.777344 C 260.429688 46.777344 261.089844 46.15625 261.089844 45.203125 Z M 261.089844 45.203125 "/>
<path fill-rule="nonzero" fill="rgb(0%, 0%, 0%)" fill-opacity="1" d="M 267.140625 39.832031 C 267.167969 39.730469 267.167969 39.714844 267.167969 39.703125 C 267.167969 39.589844 267.054688 39.589844 266.976562 39.589844 C 266.8125 39.589844 266.8125 39.613281 266.761719 39.78125 L 266.367188 41.378906 C 266.328125 41.496094 266.328125 41.496094 266.316406 41.507812 C 266.304688 41.507812 266.289062 41.519531 266.164062 41.53125 C 264.488281 41.621094 263.496094 42.777344 263.496094 43.804688 C 263.496094 44.667969 264.195312 45.265625 265.375 45.304688 L 265.03125 46.738281 C 265.03125 46.855469 265.148438 46.855469 265.222656 46.855469 C 265.351562 46.855469 265.390625 46.839844 265.425781 46.703125 L 265.707031 45.570312 C 265.757812 45.34375 265.769531 45.328125 265.78125 45.316406 C 265.796875 45.316406 265.808594 45.316406 265.933594 45.304688 C 267.585938 45.203125 268.601562 44.074219 268.601562 43.03125 C 268.601562 42.15625 267.90625 41.570312 266.722656 41.53125 Z M 265.453125 45.011719 C 264.753906 44.972656 264.320312 44.667969 264.320312 44.023438 C 264.320312 43.792969 264.410156 43.042969 264.84375 42.511719 C 265.121094 42.15625 265.59375 41.875 266.253906 41.824219 Z M 266.648438 41.824219 C 267.34375 41.863281 267.777344 42.15625 267.777344 42.816406 C 267.777344 43.042969 267.6875 43.792969 267.257812 44.328125 C 266.976562 44.683594 266.507812 44.960938 265.847656 45.011719 Z M 266.648438 41.824219 "/>
<path fill-rule="nonzero" fill="rgb(0%, 0%, 0%)" fill-opacity="1" d="M 271.667969 46.167969 L 271.476562 46.167969 C 271.464844 46.292969 271.402344 46.625 271.324219 46.675781 C 271.289062 46.710938 270.855469 46.710938 270.765625 46.710938 L 269.726562 46.710938 C 270.320312 46.191406 270.523438 46.027344 270.855469 45.757812 C 271.273438 45.429688 271.667969 45.074219 271.667969 44.539062 C 271.667969 43.855469 271.070312 43.433594 270.347656 43.433594 C 269.648438 43.433594 269.164062 43.929688 269.164062 44.453125 C 269.164062 44.730469 269.40625 44.769531 269.472656 44.769531 C 269.597656 44.769531 269.761719 44.667969 269.761719 44.464844 C 269.761719 44.363281 269.726562 44.160156 269.433594 44.160156 C 269.609375 43.765625 269.992188 43.640625 270.257812 43.640625 C 270.832031 43.640625 271.121094 44.082031 271.121094 44.539062 C 271.121094 45.035156 270.765625 45.417969 270.589844 45.621094 L 269.230469 46.980469 C 269.164062 47.03125 269.164062 47.042969 269.164062 47.195312 L 271.503906 47.195312 Z M 271.667969 46.167969 "/>
<path fill-rule="nonzero" fill="rgb(0%, 0%, 0%)" fill-opacity="1" d="M 273.726562 39.132812 L 272.621094 39.132812 L 272.621094 39.460938 L 273.410156 39.460938 L 273.410156 46.917969 L 272.621094 46.917969 L 272.621094 47.246094 L 273.726562 47.246094 Z M 273.726562 39.132812 "/>
<path fill-rule="nonzero" fill="rgb(0%, 0%, 0%)" fill-opacity="1" d="M 244.296875 122 L 244.679688 122 C 244.78125 122 245.074219 122 245.074219 121.707031 C 245.074219 121.414062 244.78125 121.414062 244.679688 121.414062 L 244.273438 121.414062 L 244.273438 120.527344 C 244.273438 120.324219 244.273438 119.992188 244.792969 119.992188 C 245.058594 119.992188 245.210938 120.070312 245.378906 120.222656 C 245.441406 120.285156 245.464844 120.296875 245.503906 120.296875 C 245.605469 120.296875 245.605469 120.222656 245.605469 120.09375 L 245.605469 119.714844 C 245.605469 119.523438 245.59375 119.523438 245.328125 119.460938 C 245.085938 119.410156 244.917969 119.410156 244.792969 119.410156 C 244.183594 119.410156 243.21875 119.546875 243.21875 120.769531 L 243.21875 121.414062 C 243.039062 121.414062 242.761719 121.414062 242.761719 121.707031 C 242.761719 122 243.039062 122 243.21875 122 L 243.21875 124.730469 C 243.21875 125.023438 243.304688 125.125 243.597656 125.125 L 243.902344 125.125 C 244.207031 125.125 244.296875 125.023438 244.296875 124.730469 Z M 244.296875 122 "/>
<path fill-rule="nonzero" fill="rgb(0%, 0%, 0%)" fill-opacity="1" d="M 248.101562 125.308594 L 247.910156 125.308594 C 247.898438 125.4375 247.832031 125.765625 247.757812 125.816406 C 247.71875 125.855469 247.289062 125.855469 247.199219 125.855469 L 246.15625 125.855469 C 246.753906 125.335938 246.957031 125.171875 247.289062 124.902344 C 247.707031 124.574219 248.101562 124.21875 248.101562 123.683594 C 248.101562 123 247.503906 122.578125 246.777344 122.578125 C 246.082031 122.578125 245.597656 123.074219 245.597656 123.59375 C 245.597656 123.875 245.839844 123.914062 245.902344 123.914062 C 246.03125 123.914062 246.195312 123.8125 246.195312 123.609375 C 246.195312 123.507812 246.15625 123.304688 245.863281 123.304688 C 246.042969 122.910156 246.421875 122.78125 246.691406 122.78125 C 247.261719 122.78125 247.554688 123.226562 247.554688 123.683594 C 247.554688 124.179688 247.199219 124.558594 247.019531 124.765625 L 245.660156 126.121094 C 245.597656 126.171875 245.597656 126.1875 245.597656 126.339844 L 247.933594 126.339844 Z M 248.101562 125.308594 "/>
<path fill-rule="nonzero" fill="rgb(0%, 0%, 0%)" fill-opacity="1" d="M 250.945312 127.15625 L 250.945312 126.824219 L 250.160156 126.824219 L 250.160156 119.371094 L 250.945312 119.371094 L 250.945312 119.039062 L 249.828125 119.039062 L 249.828125 127.15625 Z M 250.945312 127.15625 "/>
<path fill-rule="nonzero" fill="rgb(0%, 0%, 0%)" fill-opacity="1" d="M 252.054688 124.742188 L 251.496094 124.742188 L 251.496094 125.125 C 251.722656 125.113281 252.207031 125.097656 252.511719 125.097656 C 252.828125 125.097656 253.3125 125.113281 253.527344 125.125 L 253.527344 124.742188 L 252.96875 124.742188 L 252.96875 123.054688 C 252.96875 122.164062 253.667969 121.769531 254.1875 121.769531 C 254.457031 121.769531 254.632812 121.9375 254.632812 122.558594 L 254.632812 124.742188 L 254.074219 124.742188 L 254.074219 125.125 C 254.289062 125.113281 254.785156 125.097656 255.089844 125.097656 C 255.410156 125.097656 255.890625 125.113281 256.105469 125.125 L 256.105469 124.742188 L 255.546875 124.742188 L 255.546875 122.648438 C 255.546875 121.796875 255.117188 121.480469 254.304688 121.480469 C 253.527344 121.480469 253.109375 121.949219 252.929688 122.265625 L 252.929688 119.496094 L 251.496094 119.5625 L 251.496094 119.941406 C 251.992188 119.941406 252.054688 119.941406 252.054688 120.261719 Z M 252.054688 124.742188 "/>
<path fill-rule="nonzero" fill="rgb(0%, 0%, 0%)" fill-opacity="1" d="M 257.941406 119.503906 C 257.992188 119.417969 257.992188 119.367188 257.992188 119.328125 C 257.992188 119.148438 257.839844 119.023438 257.660156 119.023438 C 257.445312 119.023438 257.382812 119.199219 257.355469 119.289062 L 256.605469 121.742188 C 256.59375 121.753906 256.570312 121.816406 256.570312 121.828125 C 256.570312 121.894531 256.746094 121.957031 256.796875 121.957031 C 256.835938 121.957031 256.835938 121.945312 256.875 121.855469 Z M 257.941406 119.503906 "/>
<path fill-rule="nonzero" fill="rgb(0%, 0%, 0%)" fill-opacity="1" d="M 258.195312 123.527344 C 258.195312 123.375 258.195312 123.375 258.03125 123.375 C 257.660156 123.730469 257.152344 123.730469 256.925781 123.730469 L 256.925781 123.933594 C 257.050781 123.933594 257.433594 123.933594 257.738281 123.78125 L 257.738281 126.664062 C 257.738281 126.855469 257.738281 126.929688 257.179688 126.929688 L 256.964844 126.929688 L 256.964844 127.132812 C 257.066406 127.132812 257.761719 127.109375 257.96875 127.109375 C 258.144531 127.109375 258.855469 127.132812 258.984375 127.132812 L 258.984375 126.929688 L 258.765625 126.929688 C 258.195312 126.929688 258.195312 126.855469 258.195312 126.664062 Z M 258.195312 123.527344 "/>
<path fill-rule="nonzero" fill="rgb(0%, 0%, 0%)" fill-opacity="1" d="M 261.589844 125.113281 C 261.589844 124.578125 261.386719 124.261719 261.066406 124.261719 C 260.800781 124.261719 260.636719 124.464844 260.636719 124.691406 C 260.636719 124.910156 260.800781 125.125 261.066406 125.125 C 261.15625 125.125 261.269531 125.085938 261.347656 125.023438 C 261.371094 124.996094 261.386719 124.996094 261.386719 124.996094 C 261.398438 124.996094 261.398438 124.996094 261.398438 125.113281 C 261.398438 125.722656 261.117188 126.203125 260.851562 126.46875 C 260.761719 126.558594 260.761719 126.570312 260.761719 126.597656 C 260.761719 126.660156 260.800781 126.6875 260.839844 126.6875 C 260.925781 126.6875 261.589844 126.0625 261.589844 125.113281 Z M 261.589844 125.113281 "/>
<path fill-rule="nonzero" fill="rgb(0%, 0%, 0%)" fill-opacity="1" d="M 267.640625 119.738281 C 267.667969 119.636719 267.667969 119.625 267.667969 119.613281 C 267.667969 119.496094 267.550781 119.496094 267.476562 119.496094 C 267.3125 119.496094 267.3125 119.523438 267.261719 119.6875 L 266.867188 121.289062 C 266.828125 121.402344 266.828125 121.402344 266.816406 121.414062 C 266.800781 121.414062 266.789062 121.429688 266.664062 121.441406 C 264.984375 121.53125 263.996094 122.6875 263.996094 123.714844 C 263.996094 124.578125 264.691406 125.175781 265.875 125.214844 L 265.53125 126.648438 C 265.53125 126.761719 265.644531 126.761719 265.722656 126.761719 C 265.847656 126.761719 265.886719 126.75 265.925781 126.609375 L 266.207031 125.480469 C 266.257812 125.25 266.269531 125.238281 266.28125 125.226562 C 266.292969 125.226562 266.308594 125.226562 266.433594 125.214844 C 268.085938 125.113281 269.101562 123.980469 269.101562 122.941406 C 269.101562 122.0625 268.402344 121.480469 267.222656 121.441406 Z M 265.953125 124.921875 C 265.253906 124.882812 264.820312 124.578125 264.820312 123.929688 C 264.820312 123.703125 264.910156 122.953125 265.339844 122.417969 C 265.621094 122.0625 266.089844 121.785156 266.75 121.734375 Z M 267.144531 121.734375 C 267.84375 121.769531 268.277344 122.0625 268.277344 122.722656 C 268.277344 122.953125 268.1875 123.703125 267.753906 124.234375 C 267.476562 124.589844 267.003906 124.871094 266.34375 124.921875 Z M 267.144531 121.734375 "/>
<path fill-rule="nonzero" fill="rgb(0%, 0%, 0%)" fill-opacity="1" d="M 272.167969 126.074219 L 271.976562 126.074219 C 271.964844 126.203125 271.902344 126.53125 271.824219 126.582031 C 271.785156 126.621094 271.355469 126.621094 271.265625 126.621094 L 270.222656 126.621094 C 270.820312 126.101562 271.023438 125.933594 271.355469 125.667969 C 271.773438 125.339844 272.167969 124.984375 272.167969 124.449219 C 272.167969 123.761719 271.570312 123.34375 270.847656 123.34375 C 270.148438 123.34375 269.664062 123.839844 269.664062 124.359375 C 269.664062 124.640625 269.90625 124.675781 269.96875 124.675781 C 270.097656 124.675781 270.261719 124.574219 270.261719 124.371094 C 270.261719 124.269531 270.222656 124.066406 269.929688 124.066406 C 270.109375 123.675781 270.492188 123.546875 270.757812 123.546875 C 271.328125 123.546875 271.621094 123.992188 271.621094 124.449219 C 271.621094 124.945312 271.265625 125.324219 271.085938 125.527344 L 269.726562 126.886719 C 269.664062 126.9375 269.664062 126.949219 269.664062 127.105469 L 272.003906 127.105469 Z M 272.167969 126.074219 "/>
<path fill-rule="nonzero" fill="rgb(0%, 0%, 0%)" fill-opacity="1" d="M 274.226562 119.039062 L 273.121094 119.039062 L 273.121094 119.371094 L 273.910156 119.371094 L 273.910156 126.824219 L 273.121094 126.824219 L 273.121094 127.15625 L 274.226562 127.15625 Z M 274.226562 119.039062 "/>
</svg>
