<?xml version="1.0" encoding="UTF-8"?>
<svg xmlns="http://www.w3.org/2000/svg" xmlns:xlink="http://www.w3.org/1999/xlink" width="409.054932pt" height="128.659225pt" viewBox="0 0 409.054932 128.659225">
<defs>
<clipPath id="clip-0">
<path clip-rule="nonzero" d="M 283.695312 35 L 404.683594 35 L 404.683594 117.921875 L 283.695312 117.921875 Z M 283.695312 35 "/>
</clipPath>
<clipPath id="clip-1">
<path clip-rule="nonzero" d="M 405 121 L 409.054688 121 L 409.054688 128 L 405 128 Z M 405 121 "/>
</clipPath>
<clipPath id="clip-2">
<path clip-rule="nonzero" d="M 166.179688 27.898438 L 256.554688 27.898438 L 256.554688 117.546875 L 166.179688 117.546875 Z M 166.179688 27.898438 "/>
</clipPath>
<clipPath id="clip-3">
<path clip-rule="nonzero" d="M 208 123 L 214 123 L 214 128.660156 L 208 128.660156 Z M 208 123 "/>
</clipPath>
<clipPath id="clip-4">
<path clip-rule="nonzero" d="M 16.65625 16.445312 L 137.011719 16.445312 L 137.011719 118.167969 L 16.65625 118.167969 Z M 16.65625 16.445312 "/>
</clipPath>
<clipPath id="clip-5">
<path clip-rule="nonzero" d="M 0.65625 15 L 121.011719 15 L 121.011719 102.167969 L 0.65625 102.167969 Z M 0.65625 15 "/>
</clipPath>
<clipPath id="clip-6">
<rect x="0" y="0" width="122" height="103"/>
</clipPath>
<g id="source-5" clip-path="url(#clip-6)">
<g clip-path="url(#clip-5)">
<path fill="none" stroke-width="1.996297" stroke-linecap="square" stroke-linejoin="round" stroke="rgb(81.959534%, 51.371765%, 38.430786%)" stroke-opacity="0.952941" stroke-miterlimit="4" d="M 16.859082 117.292969 L 18.029412 117.050781 L 19.009959 116.777344 L 19.840261 116.476562 L 20.555902 116.144531 L 21.184559 115.777344 L 21.749955 115.371094 L 22.275813 114.910156 L 22.758179 114.386719 L 23.201006 113.800781 L 23.624065 113.128906 L 24.027354 112.351562 L 24.406921 111.460938 L 24.766718 110.4375 L 25.114654 109.226562 L 25.454683 107.796875 L 25.78285 106.101562 L 26.099155 104.097656 L 26.411507 101.664062 L 26.715951 98.714844 L 27.024349 95.070312 L 27.328793 90.59375 L 27.641144 84.945312 L 27.973265 77.601562 L 28.376555 67.015625 L 29.202903 45.015625 L 29.471762 39.828125 L 29.701084 36.699219 L 29.898775 34.824219 L 30.068789 33.800781 L 30.219034 33.28125 L 30.341602 33.078125 L 30.436494 33.03125 L 30.519524 33.066406 L 30.626277 33.195312 L 30.764661 33.492188 L 30.958398 34.082031 L 31.227258 35.148438 L 31.658224 37.179688 L 33.219982 44.773438 L 33.884224 47.546875 L 34.536604 49.996094 L 35.196891 52.191406 L 35.876948 54.230469 L 36.580728 56.105469 L 37.296369 57.828125 L 38.043641 59.441406 L 38.814635 60.957031 L 39.633076 62.40625 L 40.479193 63.761719 L 41.368802 65.0625 L 42.305857 66.308594 L 43.290358 67.496094 L 44.322304 68.636719 L 45.401697 69.722656 L 46.528535 70.761719 L 47.734449 71.78125 L 48.991764 72.746094 L 50.328154 73.691406 L 51.755483 74.609375 L 53.230257 75.476562 L 54.792015 76.320312 L 56.48425 77.148438 L 58.267422 77.945312 L 60.145485 78.707031 L 62.154025 79.445312 L 64.249549 80.140625 L 66.479502 80.808594 L 68.835978 81.441406 L 71.318976 82.035156 L 73.912681 82.582031 L 76.613139 83.082031 L 79.451981 83.539062 L 82.361991 83.9375 L 85.3748 84.277344 L 88.462733 84.554688 L 91.550665 84.765625 L 94.654412 84.90625 L 97.777929 84.980469 L 100.877722 84.984375 L 103.98147 84.917969 L 107.267093 84.777344 L 115.079838 84.402344 L 116.281799 84.445312 L 117.230715 84.546875 L 118.013571 84.699219 L 118.689674 84.898438 L 119.298562 85.148438 L 119.848143 85.453125 L 120.358186 85.8125 L 120.848459 86.246094 L 121.31501 86.757812 L 121.765745 87.351562 L 122.212526 88.054688 L 122.663262 88.902344 L 123.121905 89.90625 L 123.608224 91.148438 L 124.118267 92.652344 L 124.699478 94.582031 L 125.415119 97.226562 L 127.585766 105.445312 L 128.202561 107.414062 L 128.767957 108.984375 L 129.30963 110.285156 L 129.835488 111.378906 L 130.361346 112.304688 L 130.895112 113.109375 L 131.436785 113.804688 L 131.990319 114.398438 L 132.567577 114.921875 L 133.188326 115.386719 L 133.852568 115.800781 L 134.584024 116.175781 L 135.386649 116.503906 L 136.28812 116.800781 L 137.32402 117.0625 L 138.529935 117.292969 L 138.656457 117.316406 " transform="matrix(0.987969, 0, 0, 1, -16, -16)"/>
</g>
</g>
<clipPath id="clip-7">
<path clip-rule="nonzero" d="M 342 123 L 347 123 L 347 128.660156 L 342 128.660156 Z M 342 123 "/>
</clipPath>
<clipPath id="clip-8">
<path clip-rule="nonzero" d="M 74 123 L 81 123 L 81 128.660156 L 74 128.660156 Z M 74 123 "/>
</clipPath>
</defs>
<path fill="none" stroke-width="0.850394" stroke-linecap="butt" stroke-linejoin="miter" stroke="rgb(50.195312%, 50.195312%, 50.195312%)" stroke-opacity="1" stroke-miterlimit="4" d="M 166.144531 118.011719 L 166.144531 119.894531 "/>
<path fill="none" stroke-width="0.850394" stroke-linecap="butt" stroke-linejoin="miter" stroke="rgb(50.195312%, 50.195312%, 50.195312%)" stroke-opacity="1" stroke-miterlimit="4" d="M 211.148438 118.011719 L 211.148438 119.894531 "/>
<path fill="none" stroke-width="0.850394" stroke-linecap="butt" stroke-linejoin="miter" stroke="rgb(50.195312%, 50.195312%, 50.195312%)" stroke-opacity="1" stroke-miterlimit="4" d="M 256.253906 118.011719 L 256.253906 119.894531 "/>
<path fill="none" stroke-width="0.850394" stroke-linecap="butt" stroke-linejoin="miter" stroke="rgb(50.195312%, 50.195312%, 50.195312%)" stroke-opacity="1" stroke-miterlimit="4" d="M 175.148438 119.296875 L 175.148438 118.011719 "/>
<path fill="none" stroke-width="0.850394" stroke-linecap="butt" stroke-linejoin="miter" stroke="rgb(50.195312%, 50.195312%, 50.195312%)" stroke-opacity="1" stroke-miterlimit="4" d="M 184.148438 119.296875 L 184.148438 118.011719 "/>
<path fill="none" stroke-width="0.850394" stroke-linecap="butt" stroke-linejoin="miter" stroke="rgb(50.195312%, 50.195312%, 50.195312%)" stroke-opacity="1" stroke-miterlimit="4" d="M 193.148438 119.296875 L 193.148438 118.011719 "/>
<path fill="none" stroke-width="0.850394" stroke-linecap="butt" stroke-linejoin="miter" stroke="rgb(50.195312%, 50.195312%, 50.195312%)" stroke-opacity="1" stroke-miterlimit="4" d="M 202.148438 119.296875 L 202.148438 118.011719 "/>
<path fill="none" stroke-width="0.850394" stroke-linecap="butt" stroke-linejoin="miter" stroke="rgb(50.195312%, 50.195312%, 50.195312%)" stroke-opacity="1" stroke-miterlimit="4" d="M 229.152344 119.296875 L 229.152344 118.011719 "/>
<path fill="none" stroke-width="0.850394" stroke-linecap="butt" stroke-linejoin="miter" stroke="rgb(50.195312%, 50.195312%, 50.195312%)" stroke-opacity="1" stroke-miterlimit="4" d="M 220.152344 119.296875 L 220.152344 118.011719 "/>
<path fill="none" stroke-width="0.850394" stroke-linecap="butt" stroke-linejoin="miter" stroke="rgb(50.195312%, 50.195312%, 50.195312%)" stroke-opacity="1" stroke-miterlimit="4" d="M 247.152344 119.296875 L 247.152344 118.011719 "/>
<path fill="none" stroke-width="0.850394" stroke-linecap="butt" stroke-linejoin="miter" stroke="rgb(50.195312%, 50.195312%, 50.195312%)" stroke-opacity="1" stroke-miterlimit="4" d="M 238.152344 119.296875 L 238.152344 118.011719 "/>
<path fill-rule="nonzero" fill="rgb(50.195312%, 50.195312%, 50.195312%)" fill-opacity="1" d="M 160.097656 124.945312 L 161.894531 124.945312 L 161.894531 125.46875 L 160.097656 125.46875 Z M 160.097656 124.945312 "/>
<path fill-rule="nonzero" fill="rgb(50.195312%, 50.195312%, 50.195312%)" fill-opacity="1" d="M 165.984375 125.40625 C 165.984375 124.796875 165.613281 124.242188 164.921875 124.042969 C 165.515625 123.820312 165.863281 123.386719 165.863281 122.816406 C 165.863281 121.863281 165.070312 121.429688 164.203125 121.429688 C 163.769531 121.429688 163.234375 121.527344 162.851562 121.652344 L 162.851562 122.257812 C 163.273438 122.109375 163.632812 121.988281 164.140625 121.988281 C 164.785156 121.988281 165.304688 122.222656 165.304688 122.914062 C 165.292969 123.546875 164.785156 123.808594 164.164062 123.808594 L 163.582031 123.808594 L 163.582031 124.339844 L 164.140625 124.339844 C 164.859375 124.339844 165.429688 124.648438 165.429688 125.40625 C 165.429688 126.296875 164.808594 126.542969 164.003906 126.542969 C 163.433594 126.542969 163.085938 126.445312 162.691406 126.171875 L 162.691406 126.84375 C 163.085938 126.976562 163.546875 127.101562 164.015625 127.101562 C 165.117188 127.101562 165.984375 126.605469 165.984375 125.40625 Z M 165.984375 125.40625 "/>
<path fill-rule="nonzero" fill="rgb(50.195312%, 50.195312%, 50.195312%)" fill-opacity="1" d="M 166.960938 126.183594 L 167.714844 126.183594 L 167.714844 126.992188 L 166.960938 126.992188 Z M 166.960938 126.183594 "/>
<path fill-rule="nonzero" fill="rgb(50.195312%, 50.195312%, 50.195312%)" fill-opacity="1" d="M 172.195312 124.277344 C 172.183594 123.113281 171.921875 121.429688 170.449219 121.429688 C 168.972656 121.429688 168.726562 123.136719 168.726562 124.277344 C 168.726562 125.429688 168.988281 127.101562 170.449219 127.101562 C 171.910156 127.101562 172.195312 125.429688 172.195312 124.277344 Z M 171.625 124.277344 C 171.625 125.035156 171.5625 126.582031 170.449219 126.582031 C 169.332031 126.582031 169.296875 125.007812 169.296875 124.277344 C 169.296875 123.535156 169.320312 121.9375 170.449219 121.9375 C 171.5625 121.9375 171.625 123.546875 171.625 124.277344 Z M 171.625 124.277344 "/>
<path fill-rule="nonzero" fill="rgb(50.195312%, 50.195312%, 50.195312%)" fill-opacity="1" d="M 254.695312 125.40625 C 254.695312 124.796875 254.324219 124.242188 253.632812 124.042969 C 254.226562 123.820312 254.574219 123.386719 254.574219 122.816406 C 254.574219 121.863281 253.78125 121.429688 252.914062 121.429688 C 252.480469 121.429688 251.945312 121.527344 251.5625 121.652344 L 251.5625 122.257812 C 251.984375 122.109375 252.34375 121.988281 252.851562 121.988281 C 253.496094 121.988281 254.015625 122.222656 254.015625 122.914062 C 254.003906 123.546875 253.496094 123.808594 252.875 123.808594 L 252.292969 123.808594 L 252.292969 124.339844 L 252.851562 124.339844 C 253.570312 124.339844 254.140625 124.648438 254.140625 125.40625 C 254.140625 126.296875 253.519531 126.542969 252.714844 126.542969 C 252.144531 126.542969 251.796875 126.445312 251.402344 126.171875 L 251.402344 126.84375 C 251.796875 126.976562 252.257812 127.101562 252.726562 127.101562 C 253.828125 127.101562 254.695312 126.605469 254.695312 125.40625 Z M 254.695312 125.40625 "/>
<path fill-rule="nonzero" fill="rgb(50.195312%, 50.195312%, 50.195312%)" fill-opacity="1" d="M 255.671875 126.183594 L 256.425781 126.183594 L 256.425781 126.992188 L 255.671875 126.992188 Z M 255.671875 126.183594 "/>
<path fill-rule="nonzero" fill="rgb(50.195312%, 50.195312%, 50.195312%)" fill-opacity="1" d="M 260.90625 124.277344 C 260.894531 123.113281 260.632812 121.429688 259.160156 121.429688 C 257.683594 121.429688 257.4375 123.136719 257.4375 124.277344 C 257.4375 125.429688 257.699219 127.101562 259.160156 127.101562 C 260.621094 127.101562 260.90625 125.429688 260.90625 124.277344 Z M 260.335938 124.277344 C 260.335938 125.035156 260.273438 126.582031 259.160156 126.582031 C 258.042969 126.582031 258.007812 125.007812 258.007812 124.277344 C 258.007812 123.535156 258.03125 121.9375 259.160156 121.9375 C 260.273438 121.9375 260.335938 123.546875 260.335938 124.277344 Z M 260.335938 124.277344 "/>
<path fill="none" stroke-width="0.850394" stroke-linecap="butt" stroke-linejoin="miter" stroke="rgb(50.195312%, 50.195312%, 50.195312%)" stroke-opacity="1" stroke-miterlimit="4" d="M -117.417969 -165.746094 L -117.417969 -163.863281 " transform="matrix(0, -1, -1, 0, 0, 0)"/>
<path fill="none" stroke-width="0.850394" stroke-linecap="butt" stroke-linejoin="miter" stroke="rgb(50.195312%, 50.195312%, 50.195312%)" stroke-opacity="1" stroke-miterlimit="4" d="M -72.414062 -165.746094 L -72.414062 -163.863281 " transform="matrix(0, -1, -1, 0, 0, 0)"/>
<path fill="none" stroke-width="0.850394" stroke-linecap="butt" stroke-linejoin="miter" stroke="rgb(50.195312%, 50.195312%, 50.195312%)" stroke-opacity="1" stroke-miterlimit="4" d="M -27.410156 -165.746094 L -27.410156 -163.863281 " transform="matrix(0, -1, -1, 0, 0, 0)"/>
<path fill="none" stroke-width="0.850394" stroke-linecap="butt" stroke-linejoin="miter" stroke="rgb(50.195312%, 50.195312%, 50.195312%)" stroke-opacity="1" stroke-miterlimit="4" d="M -108.417969 -164.460938 L -108.417969 -165.746094 " transform="matrix(0, -1, -1, 0, 0, 0)"/>
<path fill="none" stroke-width="0.850394" stroke-linecap="butt" stroke-linejoin="miter" stroke="rgb(50.195312%, 50.195312%, 50.195312%)" stroke-opacity="1" stroke-miterlimit="4" d="M -99.417969 -164.460938 L -99.417969 -165.746094 " transform="matrix(0, -1, -1, 0, 0, 0)"/>
<path fill="none" stroke-width="0.850394" stroke-linecap="butt" stroke-linejoin="miter" stroke="rgb(50.195312%, 50.195312%, 50.195312%)" stroke-opacity="1" stroke-miterlimit="4" d="M -90.417969 -164.460938 L -90.417969 -165.746094 " transform="matrix(0, -1, -1, 0, 0, 0)"/>
<path fill="none" stroke-width="0.850394" stroke-linecap="butt" stroke-linejoin="miter" stroke="rgb(50.195312%, 50.195312%, 50.195312%)" stroke-opacity="1" stroke-miterlimit="4" d="M -81.414062 -164.460938 L -81.414062 -165.746094 " transform="matrix(0, -1, -1, 0, 0, 0)"/>
<path fill="none" stroke-width="0.850394" stroke-linecap="butt" stroke-linejoin="miter" stroke="rgb(50.195312%, 50.195312%, 50.195312%)" stroke-opacity="1" stroke-miterlimit="4" d="M -54.414062 -164.460938 L -54.414062 -165.746094 " transform="matrix(0, -1, -1, 0, 0, 0)"/>
<path fill="none" stroke-width="0.850394" stroke-linecap="butt" stroke-linejoin="miter" stroke="rgb(50.195312%, 50.195312%, 50.195312%)" stroke-opacity="1" stroke-miterlimit="4" d="M -63.414062 -164.460938 L -63.414062 -165.746094 " transform="matrix(0, -1, -1, 0, 0, 0)"/>
<path fill="none" stroke-width="0.850394" stroke-linecap="butt" stroke-linejoin="miter" stroke="rgb(50.195312%, 50.195312%, 50.195312%)" stroke-opacity="1" stroke-miterlimit="4" d="M -36.410156 -164.460938 L -36.410156 -165.746094 " transform="matrix(0, -1, -1, 0, 0, 0)"/>
<path fill="none" stroke-width="0.850394" stroke-linecap="butt" stroke-linejoin="miter" stroke="rgb(50.195312%, 50.195312%, 50.195312%)" stroke-opacity="1" stroke-miterlimit="4" d="M -45.414062 -164.460938 L -45.414062 -165.746094 " transform="matrix(0, -1, -1, 0, 0, 0)"/>
<path fill-rule="nonzero" fill="rgb(50.195312%, 50.195312%, 50.195312%)" fill-opacity="1" d="M 150.777344 117.46875 L 152.574219 117.46875 L 152.574219 117.988281 L 150.777344 117.988281 Z M 150.777344 117.46875 "/>
<path fill-rule="nonzero" fill="rgb(50.195312%, 50.195312%, 50.195312%)" fill-opacity="1" d="M 156.667969 117.925781 C 156.667969 117.320312 156.296875 116.761719 155.601562 116.5625 C 156.195312 116.339844 156.542969 115.90625 156.542969 115.339844 C 156.542969 114.382812 155.75 113.949219 154.882812 113.949219 C 154.449219 113.949219 153.917969 114.050781 153.53125 114.171875 L 153.53125 114.78125 C 153.953125 114.632812 154.3125 114.507812 154.820312 114.507812 C 155.464844 114.507812 155.984375 114.742188 155.984375 115.4375 C 155.972656 116.070312 155.464844 116.328125 154.847656 116.328125 L 154.261719 116.328125 L 154.261719 116.863281 L 154.820312 116.863281 C 155.539062 116.863281 156.109375 117.171875 156.109375 117.925781 C 156.109375 118.820312 155.488281 119.066406 154.683594 119.066406 C 154.113281 119.066406 153.769531 118.96875 153.371094 118.695312 L 153.371094 119.363281 C 153.769531 119.5 154.226562 119.625 154.695312 119.625 C 155.800781 119.625 156.667969 119.128906 156.667969 117.925781 Z M 156.667969 117.925781 "/>
<path fill-rule="nonzero" fill="rgb(50.195312%, 50.195312%, 50.195312%)" fill-opacity="1" d="M 157.640625 118.707031 L 158.398438 118.707031 L 158.398438 119.511719 L 157.640625 119.511719 Z M 157.640625 118.707031 "/>
<path fill-rule="nonzero" fill="rgb(50.195312%, 50.195312%, 50.195312%)" fill-opacity="1" d="M 162.875 116.800781 C 162.863281 115.636719 162.601562 113.949219 161.128906 113.949219 C 159.65625 113.949219 159.40625 115.660156 159.40625 116.800781 C 159.40625 117.953125 159.667969 119.625 161.128906 119.625 C 162.589844 119.625 162.875 117.953125 162.875 116.800781 Z M 162.304688 116.800781 C 162.304688 117.554688 162.242188 119.101562 161.128906 119.101562 C 160.015625 119.101562 159.976562 117.53125 159.976562 116.800781 C 159.976562 116.054688 160 114.457031 161.128906 114.457031 C 162.242188 114.457031 162.304688 116.070312 162.304688 116.800781 Z M 162.304688 116.800781 "/>
<path fill-rule="nonzero" fill="rgb(50.195312%, 50.195312%, 50.195312%)" fill-opacity="1" d="M 156.386719 28.277344 C 156.386719 27.671875 156.011719 27.113281 155.320312 26.914062 C 155.914062 26.691406 156.261719 26.257812 156.261719 25.6875 C 156.261719 24.734375 155.46875 24.300781 154.601562 24.300781 C 154.167969 24.300781 153.636719 24.402344 153.25 24.523438 L 153.25 25.132812 C 153.671875 24.984375 154.03125 24.859375 154.539062 24.859375 C 155.183594 24.859375 155.703125 25.09375 155.703125 25.789062 C 155.691406 26.417969 155.183594 26.679688 154.5625 26.679688 L 153.980469 26.679688 L 153.980469 27.210938 L 154.539062 27.210938 C 155.257812 27.210938 155.828125 27.523438 155.828125 28.277344 C 155.828125 29.167969 155.207031 29.417969 154.402344 29.417969 C 153.832031 29.417969 153.488281 29.316406 153.089844 29.046875 L 153.089844 29.714844 C 153.488281 29.851562 153.945312 29.972656 154.414062 29.972656 C 155.519531 29.972656 156.386719 29.480469 156.386719 28.277344 Z M 156.386719 28.277344 "/>
<path fill-rule="nonzero" fill="rgb(50.195312%, 50.195312%, 50.195312%)" fill-opacity="1" d="M 157.359375 29.058594 L 158.117188 29.058594 L 158.117188 29.863281 L 157.359375 29.863281 Z M 157.359375 29.058594 "/>
<path fill-rule="nonzero" fill="rgb(50.195312%, 50.195312%, 50.195312%)" fill-opacity="1" d="M 162.59375 27.152344 C 162.582031 25.984375 162.320312 24.300781 160.847656 24.300781 C 159.375 24.300781 159.125 26.011719 159.125 27.152344 C 159.125 28.300781 159.386719 29.972656 160.847656 29.972656 C 162.308594 29.972656 162.59375 28.300781 162.59375 27.152344 Z M 162.023438 27.152344 C 162.023438 27.90625 161.960938 29.453125 160.847656 29.453125 C 159.734375 29.453125 159.695312 27.882812 159.695312 27.152344 C 159.695312 26.40625 159.71875 24.808594 160.847656 24.808594 C 161.960938 24.808594 162.023438 26.417969 162.023438 27.152344 Z M 162.023438 27.152344 "/>
<g clip-path="url(#clip-0)">
<path fill="none" stroke-width="1.984252" stroke-linecap="square" stroke-linejoin="round" stroke="rgb(62.744141%, 85.096741%, 82.743835%)" stroke-opacity="1" stroke-miterlimit="4" d="M 283.695312 117.027344 L 285.609375 116.738281 L 287.34375 116.40625 L 288.957031 116.03125 L 290.449219 115.609375 L 291.859375 115.144531 L 293.191406 114.628906 L 294.484375 114.058594 L 295.710938 113.441406 L 296.921875 112.753906 L 298.09375 112.011719 L 299.242188 111.199219 L 300.371094 110.320312 L 301.5 109.347656 L 302.609375 108.304688 L 303.71875 107.164062 L 304.828125 105.929688 L 305.957031 104.5625 L 307.085938 103.089844 L 308.234375 101.476562 L 309.40625 99.714844 L 310.613281 97.765625 L 311.84375 95.652344 L 313.136719 93.296875 L 314.464844 90.71875 L 315.878906 87.835938 L 317.410156 84.546875 L 319.105469 80.738281 L 321.082031 76.117188 L 323.902344 69.324219 L 327.53125 60.609375 L 329.347656 56.4375 L 330.839844 53.171875 L 332.152344 50.46875 L 333.320312 48.210938 L 334.390625 46.289062 L 335.378906 44.652344 L 336.304688 43.242188 L 337.171875 42.046875 L 338 41.019531 L 338.785156 40.152344 L 339.53125 39.433594 L 340.238281 38.84375 L 340.921875 38.359375 L 341.566406 37.988281 L 342.191406 37.703125 L 342.796875 37.503906 L 343.402344 37.371094 L 343.988281 37.3125 L 344.570312 37.324219 L 345.15625 37.402344 L 345.761719 37.554688 L 346.367188 37.777344 L 346.992188 38.085938 L 347.636719 38.480469 L 348.300781 38.96875 L 348.988281 39.5625 L 349.714844 40.28125 L 350.480469 41.140625 L 351.285156 42.152344 L 352.132812 43.332031 L 353.019531 44.683594 L 353.96875 46.253906 L 354.996094 48.097656 L 356.105469 50.226562 L 357.316406 52.703125 L 358.6875 55.671875 L 360.28125 59.292969 L 362.277344 64.011719 L 369.578125 81.429688 L 371.3125 85.296875 L 372.863281 88.59375 L 374.316406 91.515625 L 375.6875 94.121094 L 376.996094 96.464844 L 378.246094 98.5625 L 379.457031 100.460938 L 380.648438 102.199219 L 381.816406 103.789062 L 382.964844 105.234375 L 384.09375 106.546875 L 385.222656 107.757812 L 386.355469 108.867188 L 387.484375 109.878906 L 388.613281 110.800781 L 389.761719 111.652344 L 390.929688 112.433594 L 392.121094 113.144531 L 393.332031 113.785156 L 394.582031 114.371094 L 395.890625 114.910156 L 397.261719 115.398438 L 398.695312 115.835938 L 400.207031 116.222656 L 401.839844 116.570312 L 403.613281 116.875 L 404.664062 117.023438 "/>
</g>
<path fill-rule="nonzero" fill="rgb(0%, 0%, 0%)" fill-opacity="1" d="M 272.789062 77.121094 L 272.789062 75.300781 C 272.789062 73.796875 271.6875 72.3125 270.5 72.3125 C 269.667969 72.3125 268.882812 73.011719 268.882812 74.414062 L 268.882812 77.855469 C 268.882812 78.058594 268.882812 78.171875 269.082031 78.171875 C 269.214844 78.171875 269.214844 78.089844 269.214844 77.875 C 269.214844 77.738281 269.230469 77.539062 269.230469 77.421875 C 269.265625 77.238281 269.28125 77.1875 269.414062 77.1875 C 269.449219 77.1875 269.484375 77.1875 269.617188 77.222656 L 275.328125 78.660156 C 275.746094 78.757812 275.832031 78.773438 275.832031 79.628906 C 275.832031 79.792969 275.832031 79.910156 276.03125 79.910156 C 276.164062 79.910156 276.164062 79.792969 276.164062 79.761719 C 276.164062 79.460938 276.132812 78.707031 276.132812 78.40625 C 276.132812 78.171875 276.148438 77.941406 276.148438 77.722656 C 276.148438 77.488281 276.164062 77.253906 276.164062 77.039062 C 276.164062 76.953125 276.164062 76.820312 275.945312 76.820312 C 275.832031 76.820312 275.832031 76.921875 275.832031 77.121094 C 275.832031 77.503906 275.832031 77.804688 275.648438 77.804688 C 275.578125 77.804688 275.53125 77.789062 275.460938 77.773438 Z M 269.617188 76.351562 C 269.25 76.253906 269.214844 76.234375 269.214844 75.769531 L 269.214844 74.75 C 269.214844 73.863281 269.5 73.296875 270.234375 73.296875 C 270.652344 73.296875 271.570312 73.511719 271.953125 73.929688 C 272.4375 74.464844 272.523438 75.101562 272.523438 75.566406 L 272.523438 77.070312 Z M 269.617188 76.351562 "/>
<path fill-rule="nonzero" fill="rgb(0%, 0%, 0%)" fill-opacity="1" d="M 275.53125 71.09375 C 275.695312 71.125 275.945312 71.191406 275.996094 71.191406 C 276.179688 71.191406 276.28125 71.042969 276.28125 70.875 C 276.28125 70.742188 276.199219 70.558594 275.980469 70.472656 C 275.945312 70.457031 274.492188 70.105469 274.292969 70.054688 C 273.941406 69.972656 273.207031 69.773438 272.90625 69.722656 C 272.773438 69.671875 272.273438 69.371094 272.039062 69.121094 C 271.972656 69.039062 271.6875 68.71875 271.6875 68.269531 C 271.6875 67.984375 271.820312 67.835938 271.820312 67.816406 C 271.871094 68.136719 272.121094 68.371094 272.40625 68.371094 C 272.574219 68.371094 272.773438 68.253906 272.773438 67.96875 C 272.773438 67.683594 272.523438 67.382812 272.140625 67.382812 C 271.769531 67.382812 271.453125 67.71875 271.453125 68.269531 C 271.453125 68.953125 271.972656 69.421875 272.273438 69.621094 C 271.789062 69.722656 271.453125 70.105469 271.453125 70.609375 C 271.453125 71.09375 271.871094 71.292969 272.054688 71.390625 C 272.421875 71.578125 273.058594 71.710938 273.089844 71.710938 C 273.207031 71.710938 273.207031 71.609375 273.207031 71.59375 C 273.207031 71.476562 273.191406 71.476562 272.957031 71.410156 C 272.207031 71.226562 271.6875 71.007812 271.6875 70.625 C 271.6875 70.457031 271.769531 70.308594 272.171875 70.308594 C 272.40625 70.308594 272.523438 70.339844 273.074219 70.472656 Z M 275.53125 71.09375 "/>
<path fill-rule="nonzero" fill="rgb(0%, 0%, 0%)" fill-opacity="1" d="M 278.71875 63.402344 C 278.6875 63.402344 278.667969 63.402344 278.484375 63.585938 C 277.148438 64.90625 275.128906 65.257812 273.492188 65.257812 C 271.636719 65.257812 269.785156 64.855469 268.464844 63.535156 C 268.332031 63.402344 268.3125 63.402344 268.28125 63.402344 C 268.195312 63.402344 268.164062 63.4375 268.164062 63.503906 C 268.164062 63.621094 268.898438 64.570312 270.25 65.207031 C 271.421875 65.742188 272.605469 65.875 273.492188 65.875 C 274.328125 65.875 275.613281 65.757812 276.832031 65.171875 C 278.136719 64.519531 278.835938 63.621094 278.835938 63.503906 C 278.835938 63.4375 278.804688 63.402344 278.71875 63.402344 Z M 278.71875 63.402344 "/>
<path fill-rule="nonzero" fill="rgb(0%, 0%, 0%)" fill-opacity="1" d="M 275.277344 61.367188 C 274.660156 60.796875 274.394531 60.480469 274.058594 60.097656 C 274.058594 60.097656 273.492188 59.445312 273.109375 59.058594 C 272.121094 58.042969 271.605469 57.808594 271.554688 57.808594 C 271.453125 57.808594 271.453125 57.90625 271.453125 57.925781 C 271.453125 58.007812 271.46875 58.023438 271.570312 58.089844 C 272.089844 58.410156 272.253906 58.625 272.253906 58.875 C 272.253906 59.144531 272.089844 59.261719 271.90625 59.429688 C 271.671875 59.628906 271.453125 59.8125 271.453125 60.164062 C 271.453125 60.964844 272.4375 61.449219 272.671875 61.449219 C 272.722656 61.449219 272.789062 61.414062 272.789062 61.332031 C 272.789062 61.230469 272.738281 61.214844 272.671875 61.183594 C 272.171875 60.980469 272.171875 60.363281 272.171875 60.28125 C 272.171875 60.0625 272.238281 59.863281 272.324219 59.613281 C 272.488281 59.175781 272.488281 59.058594 272.488281 58.792969 C 272.941406 59.175781 273.707031 60.0625 273.875 60.261719 L 274.777344 61.230469 C 275.496094 61.949219 276.097656 62.335938 276.179688 62.335938 C 276.28125 62.335938 276.28125 62.21875 276.28125 62.199219 C 276.28125 62.117188 276.265625 62.101562 276.148438 62.035156 C 275.761719 61.78125 275.480469 61.464844 275.480469 61.113281 C 275.480469 60.882812 275.578125 60.765625 275.878906 60.496094 C 276.113281 60.328125 276.28125 60.128906 276.28125 59.828125 C 276.28125 58.757812 274.929688 58.140625 274.644531 58.140625 C 274.59375 58.140625 274.527344 58.191406 274.527344 58.273438 C 274.527344 58.375 274.59375 58.390625 274.675781 58.425781 C 275.363281 58.675781 275.5625 59.359375 275.5625 59.710938 C 275.5625 59.914062 275.496094 60.113281 275.429688 60.328125 C 275.296875 60.695312 275.246094 60.863281 275.246094 61.082031 C 275.246094 61.097656 275.246094 61.265625 275.277344 61.367188 Z M 275.277344 61.367188 "/>
<path fill-rule="nonzero" fill="rgb(0%, 0%, 0%)" fill-opacity="1" d="M 273.492188 54.289062 C 272.671875 54.289062 271.386719 54.40625 270.167969 54.992188 C 268.863281 55.625 268.164062 56.546875 268.164062 56.644531 C 268.164062 56.710938 268.214844 56.761719 268.28125 56.761719 C 268.3125 56.761719 268.332031 56.761719 268.53125 56.5625 C 269.582031 55.511719 271.269531 54.910156 273.492188 54.910156 C 275.328125 54.910156 277.199219 55.292969 278.535156 56.613281 C 278.667969 56.761719 278.6875 56.761719 278.71875 56.761719 C 278.785156 56.761719 278.835938 56.710938 278.835938 56.644531 C 278.835938 56.546875 278.101562 55.578125 276.75 54.957031 C 275.578125 54.40625 274.394531 54.289062 273.492188 54.289062 Z M 273.492188 54.289062 "/>
<path fill="none" stroke-width="0.850392" stroke-linecap="butt" stroke-linejoin="miter" stroke="rgb(50.195312%, 50.195312%, 50.195312%)" stroke-opacity="1" stroke-miterlimit="4" d="M 283.730469 118.023438 L 283.730469 119.90625 "/>
<path fill="none" stroke-width="0.850392" stroke-linecap="butt" stroke-linejoin="miter" stroke="rgb(50.195312%, 50.195312%, 50.195312%)" stroke-opacity="1" stroke-miterlimit="4" d="M 343.933594 118.023438 L 343.933594 119.90625 "/>
<path fill="none" stroke-width="0.850392" stroke-linecap="butt" stroke-linejoin="miter" stroke="rgb(50.195312%, 50.195312%, 50.195312%)" stroke-opacity="1" stroke-miterlimit="4" d="M 404.429688 118.023438 L 404.429688 119.90625 "/>
<path fill="none" stroke-width="0.850392" stroke-linecap="butt" stroke-linejoin="miter" stroke="rgb(50.195312%, 50.195312%, 50.195312%)" stroke-opacity="1" stroke-miterlimit="4" d="M 295.636719 119.308594 L 295.636719 118.023438 "/>
<path fill="none" stroke-width="0.850392" stroke-linecap="butt" stroke-linejoin="miter" stroke="rgb(50.195312%, 50.195312%, 50.195312%)" stroke-opacity="1" stroke-miterlimit="4" d="M 307.710938 119.308594 L 307.710938 118.023438 "/>
<path fill="none" stroke-width="0.850392" stroke-linecap="butt" stroke-linejoin="miter" stroke="rgb(50.195312%, 50.195312%, 50.195312%)" stroke-opacity="1" stroke-miterlimit="4" d="M 319.785156 119.308594 L 319.785156 118.023438 "/>
<path fill="none" stroke-width="0.850392" stroke-linecap="butt" stroke-linejoin="miter" stroke="rgb(50.195312%, 50.195312%, 50.195312%)" stroke-opacity="1" stroke-miterlimit="4" d="M 331.859375 119.308594 L 331.859375 118.023438 "/>
<path fill="none" stroke-width="0.850392" stroke-linecap="butt" stroke-linejoin="miter" stroke="rgb(50.195312%, 50.195312%, 50.195312%)" stroke-opacity="1" stroke-miterlimit="4" d="M 356.007812 119.308594 L 356.007812 118.023438 "/>
<path fill="none" stroke-width="0.850392" stroke-linecap="butt" stroke-linejoin="miter" stroke="rgb(50.195312%, 50.195312%, 50.195312%)" stroke-opacity="1" stroke-miterlimit="4" d="M 368.082031 119.308594 L 368.082031 118.023438 "/>
<path fill="none" stroke-width="0.850392" stroke-linecap="butt" stroke-linejoin="miter" stroke="rgb(50.195312%, 50.195312%, 50.195312%)" stroke-opacity="1" stroke-miterlimit="4" d="M 392.230469 119.308594 L 392.230469 118.023438 "/>
<path fill="none" stroke-width="0.850392" stroke-linecap="butt" stroke-linejoin="miter" stroke="rgb(50.195312%, 50.195312%, 50.195312%)" stroke-opacity="1" stroke-miterlimit="4" d="M 380.15625 119.308594 L 380.15625 118.023438 "/>
<path fill="none" stroke-width="0.850392" stroke-linecap="butt" stroke-linejoin="miter" stroke="rgb(50.195312%, 50.195312%, 50.195312%)" stroke-opacity="1" stroke-miterlimit="4" d="M 283.4375 117.734375 L 281.554688 117.734375 "/>
<path fill-rule="nonzero" fill="rgb(50.195312%, 50.195312%, 50.195312%)" fill-opacity="1" d="M 277.730469 124.945312 L 279.523438 124.945312 L 279.523438 125.46875 L 277.730469 125.46875 Z M 277.730469 124.945312 "/>
<path fill-rule="nonzero" fill="rgb(50.195312%, 50.195312%, 50.195312%)" fill-opacity="1" d="M 283.617188 125.40625 C 283.617188 124.796875 283.246094 124.242188 282.550781 124.042969 C 283.144531 123.820312 283.492188 123.386719 283.492188 122.816406 C 283.492188 121.863281 282.699219 121.429688 281.832031 121.429688 C 281.398438 121.429688 280.867188 121.527344 280.484375 121.652344 L 280.484375 122.257812 C 280.902344 122.109375 281.261719 121.988281 281.769531 121.988281 C 282.414062 121.988281 282.933594 122.222656 282.933594 122.914062 C 282.921875 123.546875 282.414062 123.808594 281.796875 123.808594 L 281.214844 123.808594 L 281.214844 124.339844 L 281.769531 124.339844 C 282.488281 124.339844 283.058594 124.648438 283.058594 125.40625 C 283.058594 126.296875 282.441406 126.542969 281.632812 126.542969 C 281.066406 126.542969 280.71875 126.445312 280.320312 126.171875 L 280.320312 126.84375 C 280.71875 126.976562 281.175781 127.101562 281.648438 127.101562 C 282.75 127.101562 283.617188 126.605469 283.617188 125.40625 Z M 283.617188 125.40625 "/>
<path fill-rule="nonzero" fill="rgb(50.195312%, 50.195312%, 50.195312%)" fill-opacity="1" d="M 284.589844 126.183594 L 285.347656 126.183594 L 285.347656 126.992188 L 284.589844 126.992188 Z M 284.589844 126.183594 "/>
<path fill-rule="nonzero" fill="rgb(50.195312%, 50.195312%, 50.195312%)" fill-opacity="1" d="M 289.824219 124.277344 C 289.8125 123.113281 289.554688 121.429688 288.078125 121.429688 C 286.605469 121.429688 286.355469 123.136719 286.355469 124.277344 C 286.355469 125.429688 286.617188 127.101562 288.078125 127.101562 C 289.539062 127.101562 289.824219 125.429688 289.824219 124.277344 Z M 289.253906 124.277344 C 289.253906 125.035156 289.195312 126.582031 288.078125 126.582031 C 286.964844 126.582031 286.925781 125.007812 286.925781 124.277344 C 286.925781 123.535156 286.953125 121.9375 288.078125 121.9375 C 289.195312 121.9375 289.253906 123.546875 289.253906 124.277344 Z M 289.253906 124.277344 "/>
<path fill-rule="nonzero" fill="rgb(50.195312%, 50.195312%, 50.195312%)" fill-opacity="1" d="M 402.847656 125.40625 C 402.847656 124.796875 402.472656 124.242188 401.78125 124.042969 C 402.375 123.820312 402.722656 123.386719 402.722656 122.816406 C 402.722656 121.863281 401.929688 121.429688 401.0625 121.429688 C 400.628906 121.429688 400.097656 121.527344 399.710938 121.652344 L 399.710938 122.257812 C 400.132812 122.109375 400.492188 121.988281 401 121.988281 C 401.644531 121.988281 402.164062 122.222656 402.164062 122.914062 C 402.152344 123.546875 401.644531 123.808594 401.023438 123.808594 L 400.441406 123.808594 L 400.441406 124.339844 L 401 124.339844 C 401.71875 124.339844 402.289062 124.648438 402.289062 125.40625 C 402.289062 126.296875 401.667969 126.542969 400.863281 126.542969 C 400.292969 126.542969 399.949219 126.445312 399.550781 126.171875 L 399.550781 126.84375 C 399.949219 126.976562 400.40625 127.101562 400.875 127.101562 C 401.980469 127.101562 402.847656 126.605469 402.847656 125.40625 Z M 402.847656 125.40625 "/>
<path fill-rule="nonzero" fill="rgb(50.195312%, 50.195312%, 50.195312%)" fill-opacity="1" d="M 403.820312 126.183594 L 404.578125 126.183594 L 404.578125 126.992188 L 403.820312 126.992188 Z M 403.820312 126.183594 "/>
<g clip-path="url(#clip-1)">
<path fill-rule="nonzero" fill="rgb(50.195312%, 50.195312%, 50.195312%)" fill-opacity="1" d="M 409.054688 124.277344 C 409.042969 123.113281 408.78125 121.429688 407.308594 121.429688 C 405.835938 121.429688 405.585938 123.136719 405.585938 124.277344 C 405.585938 125.429688 405.847656 127.101562 407.308594 127.101562 C 408.769531 127.101562 409.054688 125.429688 409.054688 124.277344 Z M 408.484375 124.277344 C 408.484375 125.035156 408.421875 126.582031 407.308594 126.582031 C 406.195312 126.582031 406.15625 125.007812 406.15625 124.277344 C 406.15625 123.535156 406.179688 121.9375 407.308594 121.9375 C 408.421875 121.9375 408.484375 123.546875 408.484375 124.277344 Z M 408.484375 124.277344 "/>
</g>
<path fill-rule="nonzero" fill="rgb(0%, 0%, 0%)" fill-opacity="1" d="M 320.726562 10.164062 C 320.726562 9.292969 320.277344 8.542969 319.476562 8.292969 L 319.476562 8.191406 C 320.160156 8.023438 320.445312 7.371094 320.445312 6.636719 C 320.394531 5.300781 319.476562 4.851562 318.289062 4.851562 L 315.933594 4.851562 L 315.933594 12.21875 L 318.390625 12.21875 C 319.773438 12.21875 320.726562 11.632812 320.726562 10.164062 Z M 319.707031 6.753906 C 319.691406 7.574219 319.058594 7.941406 318.222656 7.941406 L 316.75 7.941406 L 316.75 5.585938 L 318.222656 5.585938 C 319.039062 5.601562 319.707031 5.851562 319.707031 6.753906 Z M 319.925781 10.046875 C 319.925781 11.097656 319.339844 11.480469 318.339844 11.480469 L 316.75 11.480469 L 316.75 8.660156 L 318.339844 8.660156 C 319.339844 8.660156 319.925781 8.992188 319.925781 10.046875 Z M 319.925781 10.046875 "/>
<path fill-rule="nonzero" fill="rgb(0%, 0%, 0%)" fill-opacity="1" d="M 325.589844 12.21875 L 325.589844 9.476562 C 325.589844 8.089844 325.003906 7.289062 323.566406 7.289062 C 323.050781 7.289062 322.414062 7.457031 321.949219 7.625 L 321.949219 8.410156 C 322.433594 8.140625 322.832031 7.972656 323.5 7.972656 C 324.269531 7.992188 324.855469 8.375 324.855469 9.175781 L 323.75 9.175781 C 322.617188 9.175781 321.613281 9.5625 321.613281 10.8125 C 321.648438 11.78125 322.214844 12.351562 323.183594 12.351562 C 323.867188 12.351562 324.488281 12.066406 324.855469 11.582031 L 324.855469 12.21875 Z M 324.855469 9.980469 C 324.855469 10.914062 324.421875 11.664062 323.417969 11.664062 C 322.832031 11.664062 322.347656 11.398438 322.347656 10.761719 C 322.347656 9.828125 323.234375 9.828125 324.070312 9.828125 L 324.855469 9.828125 Z M 324.855469 9.980469 "/>
<path fill-rule="nonzero" fill="rgb(0%, 0%, 0%)" fill-opacity="1" d="M 330.523438 10.878906 C 330.523438 9.929688 329.871094 9.628906 329.003906 9.460938 L 328.667969 9.394531 C 328.203125 9.292969 327.515625 9.195312 327.515625 8.675781 C 327.550781 8.074219 328.253906 7.957031 328.785156 7.957031 C 329.636719 7.992188 329.570312 8.039062 330.289062 8.339844 L 330.289062 7.554688 C 329.839844 7.371094 329.269531 7.289062 328.6875 7.289062 C 327.734375 7.289062 326.796875 7.640625 326.796875 8.710938 C 326.816406 9.578125 327.398438 9.910156 328.203125 10.0625 L 328.503906 10.128906 C 329.085938 10.261719 329.753906 10.328125 329.753906 10.949219 C 329.722656 11.546875 329.035156 11.664062 328.503906 11.664062 C 327.617188 11.648438 327.484375 11.546875 326.714844 11.179688 L 326.714844 12.050781 C 327.167969 12.167969 327.953125 12.351562 328.484375 12.351562 C 329.421875 12.351562 330.523438 12 330.523438 10.878906 Z M 330.523438 10.878906 "/>
<path fill-rule="nonzero" fill="rgb(0%, 0%, 0%)" fill-opacity="1" d="M 335.820312 9.8125 L 335.820312 9.726562 C 335.820312 8.339844 335.253906 7.324219 333.667969 7.289062 C 332.246094 7.289062 331.445312 8.523438 331.445312 9.863281 C 331.445312 11.316406 332.332031 12.351562 333.800781 12.351562 C 334.46875 12.351562 335.070312 12.199219 335.65625 11.984375 L 335.65625 11.179688 C 334.886719 11.546875 334.769531 11.632812 333.867188 11.632812 C 332.867188 11.632812 332.265625 11.03125 332.265625 9.894531 L 332.265625 9.8125 Z M 335.035156 9.160156 L 332.296875 9.160156 C 332.398438 8.523438 332.867188 7.972656 333.667969 7.972656 C 334.503906 7.972656 335.035156 8.492188 335.035156 9.160156 Z M 335.035156 9.160156 "/>
<path fill-rule="nonzero" fill="rgb(0%, 0%, 0%)" fill-opacity="1" d="M 339.90625 9.8125 C 339.90625 11.230469 340.84375 12.21875 342.277344 12.21875 L 344.316406 12.21875 L 344.316406 4.851562 L 343.515625 4.851562 L 343.515625 7.40625 L 342.34375 7.40625 C 340.773438 7.40625 339.90625 8.375 339.90625 9.8125 Z M 340.675781 9.8125 C 340.675781 8.875 341.277344 8.109375 342.34375 8.109375 L 343.515625 8.109375 L 343.515625 11.515625 L 342.34375 11.515625 C 341.292969 11.515625 340.675781 10.847656 340.675781 9.8125 Z M 340.675781 9.8125 "/>
<path fill-rule="nonzero" fill="rgb(0%, 0%, 0%)" fill-opacity="1" d="M 349.914062 9.8125 L 349.914062 9.726562 C 349.914062 8.339844 349.34375 7.324219 347.757812 7.289062 C 346.335938 7.289062 345.535156 8.523438 345.535156 9.863281 C 345.535156 11.316406 346.421875 12.351562 347.890625 12.351562 C 348.558594 12.351562 349.160156 12.199219 349.746094 11.984375 L 349.746094 11.179688 C 348.976562 11.546875 348.859375 11.632812 347.957031 11.632812 C 346.957031 11.632812 346.355469 11.03125 346.355469 9.894531 L 346.355469 9.8125 Z M 349.128906 9.160156 L 346.386719 9.160156 C 346.488281 8.523438 346.957031 7.972656 347.757812 7.972656 C 348.59375 7.972656 349.128906 8.492188 349.128906 9.160156 Z M 349.128906 9.160156 "/>
<path fill-rule="nonzero" fill="rgb(0%, 0%, 0%)" fill-opacity="1" d="M 355.210938 12.21875 L 355.210938 9.308594 C 355.210938 8.175781 354.726562 7.289062 353.492188 7.289062 C 352.875 7.289062 352.238281 7.523438 351.855469 8.058594 L 351.855469 7.40625 L 351.070312 7.40625 L 351.070312 12.21875 L 351.855469 12.21875 L 351.855469 9.492188 C 351.886719 8.574219 352.457031 7.992188 353.308594 7.992188 C 354.144531 7.992188 354.441406 8.492188 354.441406 9.34375 L 354.441406 12.21875 Z M 355.210938 12.21875 "/>
<path fill-rule="nonzero" fill="rgb(0%, 0%, 0%)" fill-opacity="1" d="M 360.140625 10.878906 C 360.140625 9.929688 359.492188 9.628906 358.621094 9.460938 L 358.289062 9.394531 C 357.820312 9.292969 357.136719 9.195312 357.136719 8.675781 C 357.167969 8.074219 357.871094 7.957031 358.40625 7.957031 C 359.257812 7.992188 359.191406 8.039062 359.910156 8.339844 L 359.910156 7.554688 C 359.457031 7.371094 358.890625 7.289062 358.304688 7.289062 C 357.351562 7.289062 356.417969 7.640625 356.417969 8.710938 C 356.433594 9.578125 357.019531 9.910156 357.820312 10.0625 L 358.121094 10.128906 C 358.707031 10.261719 359.375 10.328125 359.375 10.949219 C 359.339844 11.546875 358.65625 11.664062 358.121094 11.664062 C 357.234375 11.648438 357.101562 11.546875 356.335938 11.179688 L 356.335938 12.050781 C 356.785156 12.167969 357.570312 12.351562 358.105469 12.351562 C 359.039062 12.351562 360.140625 12 360.140625 10.878906 Z M 360.140625 10.878906 "/>
<path fill-rule="nonzero" fill="rgb(0%, 0%, 0%)" fill-opacity="1" d="M 362.117188 12.21875 L 362.117188 7.40625 L 361.316406 7.40625 L 361.316406 12.21875 Z M 361.714844 4.851562 C 361.464844 4.851562 361.25 5.085938 361.25 5.335938 C 361.25 5.601562 361.464844 5.835938 361.714844 5.835938 C 361.984375 5.835938 362.183594 5.601562 362.183594 5.335938 C 362.183594 5.085938 361.984375 4.851562 361.714844 4.851562 Z M 361.714844 4.851562 "/>
<path fill-rule="nonzero" fill="rgb(0%, 0%, 0%)" fill-opacity="1" d="M 366.273438 12.21875 L 366.273438 11.53125 L 365.4375 11.53125 C 364.6875 11.53125 364.550781 11.347656 364.550781 10.648438 L 364.550781 8.039062 L 365.972656 8.039062 L 365.972656 7.40625 L 364.550781 7.40625 L 364.550781 6.035156 L 364.21875 6.035156 L 363.765625 7.40625 L 363.199219 7.40625 L 363.199219 8.039062 L 363.765625 8.039062 L 363.765625 10.648438 C 363.765625 11.847656 364.25 12.21875 365.4375 12.21875 Z M 366.273438 12.21875 "/>
<path fill-rule="nonzero" fill="rgb(0%, 0%, 0%)" fill-opacity="1" d="M 371.398438 7.40625 L 370.664062 7.40625 L 369.179688 10.929688 L 367.441406 7.40625 L 366.691406 7.40625 L 368.777344 11.714844 L 367.960938 13.652344 C 367.824219 13.988281 367.375 14.238281 367.15625 14.238281 L 367.425781 14.789062 C 367.824219 14.753906 368.242188 14.472656 368.511719 14.054688 Z M 371.398438 7.40625 "/>
<path fill="none" stroke-width="0.850392" stroke-linecap="butt" stroke-linejoin="miter" stroke="rgb(50.195312%, 50.195312%, 50.195312%)" stroke-opacity="1" stroke-miterlimit="4" d="M 283.4375 16.464844 L 281.554688 16.464844 "/>
<path fill="none" stroke-width="0.850392" stroke-linecap="butt" stroke-linejoin="miter" stroke="rgb(50.195312%, 50.195312%, 50.195312%)" stroke-opacity="1" stroke-miterlimit="4" d="M 282.152344 97.230469 L 283.4375 97.230469 "/>
<path fill="none" stroke-width="0.850392" stroke-linecap="butt" stroke-linejoin="miter" stroke="rgb(50.195312%, 50.195312%, 50.195312%)" stroke-opacity="1" stroke-miterlimit="4" d="M 282.152344 77.039062 L 283.4375 77.039062 "/>
<path fill="none" stroke-width="0.850392" stroke-linecap="butt" stroke-linejoin="miter" stroke="rgb(50.195312%, 50.195312%, 50.195312%)" stroke-opacity="1" stroke-miterlimit="4" d="M 282.152344 36.65625 L 283.4375 36.65625 "/>
<path fill="none" stroke-width="0.850392" stroke-linecap="butt" stroke-linejoin="miter" stroke="rgb(50.195312%, 50.195312%, 50.195312%)" stroke-opacity="1" stroke-miterlimit="4" d="M 282.152344 56.847656 L 283.4375 56.847656 "/>
<path fill-rule="nonzero" fill="rgb(50.195312%, 50.195312%, 50.195312%)" fill-opacity="1" d="M 274.402344 16.152344 C 274.390625 14.984375 274.128906 13.300781 272.65625 13.300781 C 271.179688 13.300781 270.933594 15.011719 270.933594 16.152344 C 270.933594 17.300781 271.195312 18.976562 272.65625 18.976562 C 274.117188 18.976562 274.402344 17.300781 274.402344 16.152344 Z M 273.832031 16.152344 C 273.832031 16.90625 273.769531 18.453125 272.65625 18.453125 C 271.539062 18.453125 271.503906 16.882812 271.503906 16.152344 C 271.503906 15.40625 271.527344 13.808594 272.65625 13.808594 C 273.769531 13.808594 273.832031 15.417969 273.832031 16.152344 Z M 273.832031 16.152344 "/>
<path fill-rule="nonzero" fill="rgb(50.195312%, 50.195312%, 50.195312%)" fill-opacity="1" d="M 275.414062 18.058594 L 276.171875 18.058594 L 276.171875 18.863281 L 275.414062 18.863281 Z M 275.414062 18.058594 "/>
<path fill-rule="nonzero" fill="rgb(50.195312%, 50.195312%, 50.195312%)" fill-opacity="1" d="M 280.253906 17.128906 C 280.238281 16.015625 279.546875 15.285156 278.429688 15.285156 C 278.28125 15.296875 277.949219 15.332031 277.75 15.40625 L 277.949219 13.96875 L 279.878906 13.96875 L 279.878906 13.402344 L 277.550781 13.402344 L 277.21875 16.101562 C 277.652344 15.890625 277.75 15.839844 278.308594 15.839844 C 279.113281 15.839844 279.683594 16.285156 279.683594 17.128906 C 279.683594 17.996094 279.125 18.417969 278.308594 18.417969 C 277.761719 18.417969 277.402344 18.304688 277.007812 18.058594 L 277.007812 18.738281 C 277.367188 18.875 277.898438 18.976562 278.320312 18.976562 C 279.496094 18.976562 280.253906 18.332031 280.253906 17.128906 Z M 280.253906 17.128906 "/>
<path fill-rule="nonzero" fill="rgb(50.195312%, 50.195312%, 50.195312%)" fill-opacity="1" d="M 274.203125 117.503906 C 274.191406 116.339844 273.929688 114.652344 272.457031 114.652344 C 270.984375 114.652344 270.734375 116.363281 270.734375 117.503906 C 270.734375 118.65625 270.996094 120.328125 272.457031 120.328125 C 273.917969 120.328125 274.203125 118.65625 274.203125 117.503906 Z M 273.632812 117.503906 C 273.632812 118.257812 273.570312 119.804688 272.457031 119.804688 C 271.34375 119.804688 271.304688 118.234375 271.304688 117.503906 C 271.304688 116.757812 271.328125 115.160156 272.457031 115.160156 C 273.570312 115.160156 273.632812 116.773438 273.632812 117.503906 Z M 273.632812 117.503906 "/>
<path fill-rule="nonzero" fill="rgb(50.195312%, 50.195312%, 50.195312%)" fill-opacity="1" d="M 275.214844 119.410156 L 275.972656 119.410156 L 275.972656 120.214844 L 275.214844 120.214844 Z M 275.214844 119.410156 "/>
<path fill-rule="nonzero" fill="rgb(50.195312%, 50.195312%, 50.195312%)" fill-opacity="1" d="M 280.449219 117.503906 C 280.4375 116.339844 280.175781 114.652344 278.703125 114.652344 C 277.230469 114.652344 276.980469 116.363281 276.980469 117.503906 C 276.980469 118.65625 277.242188 120.328125 278.703125 120.328125 C 280.164062 120.328125 280.449219 118.65625 280.449219 117.503906 Z M 279.878906 117.503906 C 279.878906 118.257812 279.820312 119.804688 278.703125 119.804688 C 277.589844 119.804688 277.550781 118.234375 277.550781 117.503906 C 277.550781 116.757812 277.578125 115.160156 278.703125 115.160156 C 279.820312 115.160156 279.878906 116.773438 279.878906 117.503906 Z M 279.878906 117.503906 "/>
<path fill-rule="nonzero" fill="rgb(62.35199%, 85.096741%, 82.743835%)" fill-opacity="0.501961" d="M 289.898438 116.589844 C 292.449219 115.84375 293.46875 115.449219 295.507812 114.425781 C 304.257812 110.035156 311.003906 100.964844 319.097656 82.699219 C 320.070312 80.503906 322.664062 74.40625 324.855469 69.148438 C 329.273438 58.566406 329.847656 57.230469 331.613281 53.46875 C 334.460938 47.386719 337.183594 42.980469 339.53125 40.644531 C 341.429688 38.753906 342.421875 38.246094 344.191406 38.246094 C 345.96875 38.246094 346.957031 38.753906 348.847656 40.644531 C 351.246094 43.042969 353.917969 47.371094 356.765625 53.464844 C 358.570312 57.328125 358.90625 58.109375 364.367188 71.101562 C 372.117188 89.535156 374.445312 94.3125 379.101562 101.265625 C 384.914062 109.957031 390.71875 114.46875 399.046875 116.765625 L 400.625 117.203125 L 344.191406 117.207031 L 287.761719 117.210938 Z M 289.898438 116.589844 "/>
<path fill="none" stroke-width="0.850392" stroke-linecap="butt" stroke-linejoin="round" stroke="rgb(0%, 0%, 0%)" stroke-opacity="1" stroke-miterlimit="4" d="M 283.730469 16.464844 L 404.429688 16.464844 L 404.429688 117.734375 L 283.730469 117.734375 Z M 283.730469 16.464844 "/>
<path fill-rule="nonzero" fill="rgb(0%, 0%, 0%)" fill-opacity="1" d="M 5.976562 77.453125 L 5.976562 75.632812 C 5.976562 74.128906 4.875 72.644531 3.691406 72.644531 C 2.855469 72.644531 2.070312 73.34375 2.070312 74.75 L 2.070312 78.1875 C 2.070312 78.390625 2.070312 78.507812 2.269531 78.507812 C 2.402344 78.507812 2.402344 78.421875 2.402344 78.207031 C 2.402344 78.074219 2.421875 77.871094 2.421875 77.753906 C 2.453125 77.570312 2.46875 77.519531 2.605469 77.519531 C 2.636719 77.519531 2.671875 77.519531 2.804688 77.554688 L 8.515625 78.992188 C 8.933594 79.089844 9.019531 79.109375 9.019531 79.960938 C 9.019531 80.128906 9.019531 80.242188 9.21875 80.242188 C 9.351562 80.242188 9.351562 80.128906 9.351562 80.09375 C 9.351562 79.792969 9.320312 79.042969 9.320312 78.742188 C 9.320312 78.507812 9.335938 78.273438 9.335938 78.054688 C 9.335938 77.820312 9.351562 77.589844 9.351562 77.371094 C 9.351562 77.289062 9.351562 77.152344 9.136719 77.152344 C 9.019531 77.152344 9.019531 77.253906 9.019531 77.453125 C 9.019531 77.839844 9.019531 78.140625 8.835938 78.140625 C 8.769531 78.140625 8.71875 78.121094 8.652344 78.105469 Z M 2.804688 76.6875 C 2.4375 76.585938 2.402344 76.570312 2.402344 76.101562 L 2.402344 75.082031 C 2.402344 74.195312 2.6875 73.628906 3.421875 73.628906 C 3.839844 73.628906 4.757812 73.847656 5.144531 74.265625 C 5.628906 74.796875 5.710938 75.433594 5.710938 75.902344 L 5.710938 77.40625 Z M 2.804688 76.6875 "/>
<path fill-rule="nonzero" fill="rgb(0%, 0%, 0%)" fill-opacity="1" d="M 8.71875 71.425781 C 8.886719 71.457031 9.136719 71.523438 9.183594 71.523438 C 9.371094 71.523438 9.46875 71.375 9.46875 71.207031 C 9.46875 71.074219 9.386719 70.890625 9.167969 70.808594 C 9.136719 70.789062 7.683594 70.4375 7.480469 70.390625 C 7.132812 70.304688 6.394531 70.105469 6.09375 70.054688 C 5.960938 70.003906 5.460938 69.703125 5.226562 69.453125 C 5.160156 69.371094 4.875 69.054688 4.875 68.601562 C 4.875 68.316406 5.007812 68.167969 5.007812 68.152344 C 5.058594 68.46875 5.308594 68.703125 5.59375 68.703125 C 5.761719 68.703125 5.960938 68.585938 5.960938 68.300781 C 5.960938 68.015625 5.710938 67.714844 5.328125 67.714844 C 4.960938 67.714844 4.640625 68.050781 4.640625 68.601562 C 4.640625 69.285156 5.160156 69.753906 5.460938 69.953125 C 4.976562 70.054688 4.640625 70.4375 4.640625 70.941406 C 4.640625 71.425781 5.058594 71.625 5.242188 71.726562 C 5.609375 71.910156 6.246094 72.042969 6.277344 72.042969 C 6.394531 72.042969 6.394531 71.941406 6.394531 71.925781 C 6.394531 71.808594 6.378906 71.808594 6.144531 71.742188 C 5.394531 71.558594 4.875 71.339844 4.875 70.957031 C 4.875 70.789062 4.960938 70.640625 5.359375 70.640625 C 5.59375 70.640625 5.710938 70.671875 6.261719 70.808594 Z M 8.71875 71.425781 "/>
<path fill-rule="nonzero" fill="rgb(0%, 0%, 0%)" fill-opacity="1" d="M 11.90625 63.734375 C 11.875 63.734375 11.859375 63.734375 11.675781 63.917969 C 10.339844 65.238281 8.316406 65.589844 6.679688 65.589844 C 4.824219 65.589844 2.972656 65.1875 1.652344 63.867188 C 1.519531 63.734375 1.5 63.734375 1.46875 63.734375 C 1.386719 63.734375 1.351562 63.769531 1.351562 63.835938 C 1.351562 63.953125 2.085938 64.90625 3.4375 65.539062 C 4.609375 66.074219 5.792969 66.207031 6.679688 66.207031 C 7.515625 66.207031 8.800781 66.089844 10.019531 65.503906 C 11.324219 64.855469 12.023438 63.953125 12.023438 63.835938 C 12.023438 63.769531 11.992188 63.734375 11.90625 63.734375 Z M 11.90625 63.734375 "/>
<path fill-rule="nonzero" fill="rgb(0%, 0%, 0%)" fill-opacity="1" d="M 6.128906 59.558594 C 5.863281 59.492188 4.875 59.242188 4.875 58.507812 C 4.875 58.457031 4.875 58.191406 5.007812 57.972656 C 5.078125 58.273438 5.328125 58.472656 5.59375 58.472656 C 5.761719 58.472656 5.960938 58.359375 5.960938 58.074219 C 5.960938 57.839844 5.777344 57.503906 5.34375 57.503906 C 4.792969 57.503906 4.640625 58.125 4.640625 58.492188 C 4.640625 59.109375 5.210938 59.476562 5.445312 59.609375 C 4.742188 59.878906 4.640625 60.445312 4.640625 60.761719 C 4.640625 61.867188 6.011719 62.484375 6.277344 62.484375 C 6.394531 62.484375 6.394531 62.367188 6.394531 62.351562 C 6.394531 62.265625 6.363281 62.234375 6.277344 62.214844 C 5.144531 61.847656 4.875 61.148438 4.875 60.78125 C 4.875 60.578125 4.976562 60.210938 5.59375 60.210938 C 5.929688 60.210938 6.628906 60.394531 8.132812 60.78125 C 8.785156 60.945312 9.234375 61.332031 9.234375 61.796875 C 9.234375 61.867188 9.234375 62.097656 9.101562 62.332031 C 9.035156 62.066406 8.816406 61.832031 8.515625 61.832031 C 8.234375 61.832031 8.148438 62.066406 8.148438 62.214844 C 8.148438 62.550781 8.417969 62.800781 8.769531 62.800781 C 9.253906 62.800781 9.46875 62.28125 9.46875 61.816406 C 9.46875 61.097656 8.71875 60.714844 8.667969 60.695312 C 9.050781 60.5625 9.46875 60.179688 9.46875 59.542969 C 9.46875 58.441406 8.101562 57.839844 7.832031 57.839844 C 7.714844 57.839844 7.714844 57.921875 7.714844 57.957031 C 7.714844 58.058594 7.765625 58.074219 7.832031 58.105469 C 8.984375 58.457031 9.234375 59.175781 9.234375 59.511719 C 9.234375 59.929688 8.902344 60.09375 8.535156 60.09375 C 8.300781 60.09375 8.066406 60.042969 7.597656 59.929688 Z M 6.128906 59.558594 "/>
<path fill-rule="nonzero" fill="rgb(0%, 0%, 0%)" fill-opacity="1" d="M 6.679688 53.957031 C 5.863281 53.957031 4.574219 54.074219 3.355469 54.660156 C 2.054688 55.292969 1.351562 56.210938 1.351562 56.3125 C 1.351562 56.378906 1.402344 56.429688 1.46875 56.429688 C 1.5 56.429688 1.519531 56.429688 1.71875 56.230469 C 2.769531 55.175781 4.457031 54.574219 6.679688 54.574219 C 8.515625 54.574219 10.386719 54.960938 11.722656 56.28125 C 11.859375 56.429688 11.875 56.429688 11.90625 56.429688 C 11.976562 56.429688 12.023438 56.378906 12.023438 56.3125 C 12.023438 56.210938 11.289062 55.242188 9.9375 54.625 C 8.769531 54.074219 7.582031 53.957031 6.679688 53.957031 Z M 6.679688 53.957031 "/>
<path fill-rule="nonzero" fill="rgb(0%, 0%, 0%)" fill-opacity="1" d="M 52.722656 12.21875 L 52.722656 4.851562 L 51.921875 4.851562 L 49.652344 9.210938 L 47.347656 4.851562 L 46.542969 4.851562 L 46.542969 12.21875 L 47.347656 12.21875 L 47.347656 6.320312 L 49.652344 10.78125 L 51.921875 6.320312 L 51.921875 12.21875 Z M 52.722656 12.21875 "/>
<path fill-rule="nonzero" fill="rgb(0%, 0%, 0%)" fill-opacity="1" d="M 58.46875 9.8125 C 58.46875 8.59375 57.816406 7.289062 56.210938 7.289062 C 54.757812 7.289062 53.941406 8.410156 53.941406 9.8125 C 53.941406 11.132812 54.792969 12.316406 56.210938 12.351562 C 57.648438 12.316406 58.46875 11.164062 58.46875 9.8125 Z M 57.683594 9.8125 C 57.683594 10.761719 57.097656 11.617188 56.210938 11.617188 C 55.007812 11.597656 54.742188 10.53125 54.742188 9.792969 C 54.742188 8.824219 55.210938 8.023438 56.210938 8.007812 C 57.148438 8.023438 57.683594 8.894531 57.683594 9.8125 Z M 57.683594 9.8125 "/>
<path fill-rule="nonzero" fill="rgb(0%, 0%, 0%)" fill-opacity="1" d="M 59.453125 9.8125 C 59.453125 11.230469 60.386719 12.21875 61.824219 12.21875 L 63.859375 12.21875 L 63.859375 4.851562 L 63.058594 4.851562 L 63.058594 7.40625 L 61.890625 7.40625 C 60.320312 7.40625 59.453125 8.375 59.453125 9.8125 Z M 60.21875 9.8125 C 60.21875 8.875 60.820312 8.109375 61.890625 8.109375 L 63.058594 8.109375 L 63.058594 11.515625 L 61.890625 11.515625 C 60.839844 11.515625 60.21875 10.847656 60.21875 9.8125 Z M 60.21875 9.8125 "/>
<path fill-rule="nonzero" fill="rgb(0%, 0%, 0%)" fill-opacity="1" d="M 69.457031 9.8125 L 69.457031 9.726562 C 69.457031 8.339844 68.890625 7.324219 67.300781 7.289062 C 65.882812 7.289062 65.082031 8.523438 65.082031 9.863281 C 65.082031 11.316406 65.964844 12.351562 67.4375 12.351562 C 68.105469 12.351562 68.707031 12.199219 69.289062 11.984375 L 69.289062 11.179688 C 68.523438 11.546875 68.40625 11.632812 67.503906 11.632812 C 66.5 11.632812 65.898438 11.03125 65.898438 9.894531 L 65.898438 9.8125 Z M 68.671875 9.160156 L 65.933594 9.160156 C 66.03125 8.523438 66.5 7.972656 67.300781 7.972656 C 68.136719 7.972656 68.671875 8.492188 68.671875 9.160156 Z M 68.671875 9.160156 "/>
<path fill-rule="nonzero" fill="rgb(0%, 0%, 0%)" fill-opacity="1" d="M 70.496094 4.851562 L 71.28125 4.851562 L 71.28125 12.21875 L 70.496094 12.21875 Z M 70.496094 4.851562 "/>
<path fill-rule="nonzero" fill="rgb(0%, 0%, 0%)" fill-opacity="1" d="M 75.671875 9.8125 C 75.671875 11.230469 76.609375 12.21875 78.042969 12.21875 L 80.082031 12.21875 L 80.082031 4.851562 L 79.28125 4.851562 L 79.28125 7.40625 L 78.109375 7.40625 C 76.539062 7.40625 75.671875 8.375 75.671875 9.8125 Z M 76.441406 9.8125 C 76.441406 8.875 77.042969 8.109375 78.109375 8.109375 L 79.28125 8.109375 L 79.28125 11.515625 L 78.109375 11.515625 C 77.058594 11.515625 76.441406 10.847656 76.441406 9.8125 Z M 76.441406 9.8125 "/>
<path fill-rule="nonzero" fill="rgb(0%, 0%, 0%)" fill-opacity="1" d="M 85.679688 9.8125 L 85.679688 9.726562 C 85.679688 8.339844 85.109375 7.324219 83.523438 7.289062 C 82.101562 7.289062 81.300781 8.523438 81.300781 9.863281 C 81.300781 11.316406 82.1875 12.351562 83.65625 12.351562 C 84.324219 12.351562 84.925781 12.199219 85.511719 11.984375 L 85.511719 11.179688 C 84.742188 11.546875 84.625 11.632812 83.722656 11.632812 C 82.722656 11.632812 82.121094 11.03125 82.121094 9.894531 L 82.121094 9.8125 Z M 84.894531 9.160156 L 82.152344 9.160156 C 82.253906 8.523438 82.722656 7.972656 83.523438 7.972656 C 84.359375 7.972656 84.894531 8.492188 84.894531 9.160156 Z M 84.894531 9.160156 "/>
<path fill-rule="nonzero" fill="rgb(0%, 0%, 0%)" fill-opacity="1" d="M 90.976562 12.21875 L 90.976562 9.308594 C 90.976562 8.175781 90.492188 7.289062 89.257812 7.289062 C 88.640625 7.289062 88.003906 7.523438 87.621094 8.058594 L 87.621094 7.40625 L 86.835938 7.40625 L 86.835938 12.21875 L 87.621094 12.21875 L 87.621094 9.492188 C 87.652344 8.574219 88.222656 7.992188 89.074219 7.992188 C 89.910156 7.992188 90.207031 8.492188 90.207031 9.34375 L 90.207031 12.21875 Z M 90.976562 12.21875 "/>
<path fill-rule="nonzero" fill="rgb(0%, 0%, 0%)" fill-opacity="1" d="M 95.90625 10.878906 C 95.90625 9.929688 95.257812 9.628906 94.386719 9.460938 L 94.054688 9.394531 C 93.585938 9.292969 92.902344 9.195312 92.902344 8.675781 C 92.933594 8.074219 93.636719 7.957031 94.171875 7.957031 C 95.023438 7.992188 94.957031 8.039062 95.675781 8.339844 L 95.675781 7.554688 C 95.222656 7.371094 94.65625 7.289062 94.070312 7.289062 C 93.117188 7.289062 92.183594 7.640625 92.183594 8.710938 C 92.199219 9.578125 92.785156 9.910156 93.585938 10.0625 L 93.886719 10.128906 C 94.472656 10.261719 95.140625 10.328125 95.140625 10.949219 C 95.105469 11.546875 94.421875 11.664062 93.886719 11.664062 C 93 11.648438 92.867188 11.546875 92.101562 11.179688 L 92.101562 12.050781 C 92.550781 12.167969 93.335938 12.351562 93.871094 12.351562 C 94.804688 12.351562 95.90625 12 95.90625 10.878906 Z M 95.90625 10.878906 "/>
<path fill-rule="nonzero" fill="rgb(0%, 0%, 0%)" fill-opacity="1" d="M 97.882812 12.21875 L 97.882812 7.40625 L 97.082031 7.40625 L 97.082031 12.21875 Z M 97.480469 4.851562 C 97.230469 4.851562 97.011719 5.085938 97.011719 5.335938 C 97.011719 5.601562 97.230469 5.835938 97.480469 5.835938 C 97.75 5.835938 97.949219 5.601562 97.949219 5.335938 C 97.949219 5.085938 97.75 4.851562 97.480469 4.851562 Z M 97.480469 4.851562 "/>
<path fill-rule="nonzero" fill="rgb(0%, 0%, 0%)" fill-opacity="1" d="M 102.039062 12.21875 L 102.039062 11.53125 L 101.203125 11.53125 C 100.453125 11.53125 100.316406 11.347656 100.316406 10.648438 L 100.316406 8.039062 L 101.738281 8.039062 L 101.738281 7.40625 L 100.316406 7.40625 L 100.316406 6.035156 L 99.984375 6.035156 L 99.53125 7.40625 L 98.964844 7.40625 L 98.964844 8.039062 L 99.53125 8.039062 L 99.53125 10.648438 C 99.53125 11.847656 100.015625 12.21875 101.203125 12.21875 Z M 102.039062 12.21875 "/>
<path fill-rule="nonzero" fill="rgb(0%, 0%, 0%)" fill-opacity="1" d="M 107.164062 7.40625 L 106.429688 7.40625 L 104.945312 10.929688 L 103.207031 7.40625 L 102.457031 7.40625 L 104.542969 11.714844 L 103.726562 13.652344 C 103.589844 13.988281 103.140625 14.238281 102.921875 14.238281 L 103.191406 14.789062 C 103.589844 14.753906 104.007812 14.472656 104.277344 14.054688 Z M 107.164062 7.40625 "/>
<path fill="none" stroke-width="0.850394" stroke-linecap="butt" stroke-linejoin="miter" stroke="rgb(50.195312%, 50.195312%, 50.195312%)" stroke-opacity="1" stroke-miterlimit="4" d="M 16.5 118.023438 L 16.5 119.90625 "/>
<path fill="none" stroke-width="0.850394" stroke-linecap="butt" stroke-linejoin="miter" stroke="rgb(50.195312%, 50.195312%, 50.195312%)" stroke-opacity="1" stroke-miterlimit="4" d="M 76.699219 118.023438 L 76.699219 119.90625 "/>
<path fill="none" stroke-width="0.850394" stroke-linecap="butt" stroke-linejoin="miter" stroke="rgb(50.195312%, 50.195312%, 50.195312%)" stroke-opacity="1" stroke-miterlimit="4" d="M 137.203125 118.023438 L 137.203125 119.90625 "/>
<path fill="none" stroke-width="0.850394" stroke-linecap="butt" stroke-linejoin="miter" stroke="rgb(50.195312%, 50.195312%, 50.195312%)" stroke-opacity="1" stroke-miterlimit="4" d="M 28.40625 119.308594 L 28.40625 118.023438 "/>
<path fill="none" stroke-width="0.850394" stroke-linecap="butt" stroke-linejoin="miter" stroke="rgb(50.195312%, 50.195312%, 50.195312%)" stroke-opacity="1" stroke-miterlimit="4" d="M 40.480469 119.308594 L 40.480469 118.023438 "/>
<path fill="none" stroke-width="0.850394" stroke-linecap="butt" stroke-linejoin="miter" stroke="rgb(50.195312%, 50.195312%, 50.195312%)" stroke-opacity="1" stroke-miterlimit="4" d="M 52.554688 119.308594 L 52.554688 118.023438 "/>
<path fill="none" stroke-width="0.850394" stroke-linecap="butt" stroke-linejoin="miter" stroke="rgb(50.195312%, 50.195312%, 50.195312%)" stroke-opacity="1" stroke-miterlimit="4" d="M 64.628906 119.308594 L 64.628906 118.023438 "/>
<path fill="none" stroke-width="0.850394" stroke-linecap="butt" stroke-linejoin="miter" stroke="rgb(50.195312%, 50.195312%, 50.195312%)" stroke-opacity="1" stroke-miterlimit="4" d="M 88.773438 119.308594 L 88.773438 118.023438 "/>
<path fill="none" stroke-width="0.850394" stroke-linecap="butt" stroke-linejoin="miter" stroke="rgb(50.195312%, 50.195312%, 50.195312%)" stroke-opacity="1" stroke-miterlimit="4" d="M 100.847656 119.308594 L 100.847656 118.023438 "/>
<path fill="none" stroke-width="0.850394" stroke-linecap="butt" stroke-linejoin="miter" stroke="rgb(50.195312%, 50.195312%, 50.195312%)" stroke-opacity="1" stroke-miterlimit="4" d="M 124.996094 119.308594 L 124.996094 118.023438 "/>
<path fill="none" stroke-width="0.850394" stroke-linecap="butt" stroke-linejoin="miter" stroke="rgb(50.195312%, 50.195312%, 50.195312%)" stroke-opacity="1" stroke-miterlimit="4" d="M 112.921875 119.308594 L 112.921875 118.023438 "/>
<path fill="none" stroke-width="0.850394" stroke-linecap="butt" stroke-linejoin="miter" stroke="rgb(50.195312%, 50.195312%, 50.195312%)" stroke-opacity="1" stroke-miterlimit="4" d="M 16.25 117.734375 L 14.367188 117.734375 "/>
<path fill-rule="nonzero" fill="rgb(50.195312%, 50.195312%, 50.195312%)" fill-opacity="1" d="M 10.496094 124.945312 L 12.292969 124.945312 L 12.292969 125.46875 L 10.496094 125.46875 Z M 10.496094 124.945312 "/>
<path fill-rule="nonzero" fill="rgb(50.195312%, 50.195312%, 50.195312%)" fill-opacity="1" d="M 16.382812 125.40625 C 16.382812 124.796875 16.011719 124.242188 15.320312 124.042969 C 15.914062 123.820312 16.261719 123.386719 16.261719 122.816406 C 16.261719 121.863281 15.46875 121.429688 14.601562 121.429688 C 14.167969 121.429688 13.632812 121.527344 13.25 121.652344 L 13.25 122.257812 C 13.671875 122.109375 14.03125 121.988281 14.539062 121.988281 C 15.183594 121.988281 15.703125 122.222656 15.703125 122.914062 C 15.691406 123.546875 15.183594 123.808594 14.5625 123.808594 L 13.980469 123.808594 L 13.980469 124.339844 L 14.539062 124.339844 C 15.257812 124.339844 15.828125 124.648438 15.828125 125.40625 C 15.828125 126.296875 15.207031 126.542969 14.402344 126.542969 C 13.832031 126.542969 13.484375 126.445312 13.089844 126.171875 L 13.089844 126.84375 C 13.484375 126.976562 13.945312 127.101562 14.414062 127.101562 C 15.515625 127.101562 16.382812 126.605469 16.382812 125.40625 Z M 16.382812 125.40625 "/>
<path fill-rule="nonzero" fill="rgb(50.195312%, 50.195312%, 50.195312%)" fill-opacity="1" d="M 17.359375 126.183594 L 18.113281 126.183594 L 18.113281 126.992188 L 17.359375 126.992188 Z M 17.359375 126.183594 "/>
<path fill-rule="nonzero" fill="rgb(50.195312%, 50.195312%, 50.195312%)" fill-opacity="1" d="M 22.59375 124.277344 C 22.582031 123.113281 22.320312 121.429688 20.847656 121.429688 C 19.371094 121.429688 19.125 123.136719 19.125 124.277344 C 19.125 125.429688 19.386719 127.101562 20.847656 127.101562 C 22.308594 127.101562 22.59375 125.429688 22.59375 124.277344 Z M 22.023438 124.277344 C 22.023438 125.035156 21.960938 126.582031 20.847656 126.582031 C 19.730469 126.582031 19.695312 125.007812 19.695312 124.277344 C 19.695312 123.535156 19.71875 121.9375 20.847656 121.9375 C 21.960938 121.9375 22.023438 123.546875 22.023438 124.277344 Z M 22.023438 124.277344 "/>
<path fill-rule="nonzero" fill="rgb(50.195312%, 50.195312%, 50.195312%)" fill-opacity="1" d="M 135.613281 125.40625 C 135.613281 124.796875 135.242188 124.242188 134.546875 124.042969 C 135.144531 123.820312 135.488281 123.386719 135.488281 122.816406 C 135.488281 121.863281 134.699219 121.429688 133.832031 121.429688 C 133.398438 121.429688 132.863281 121.527344 132.480469 121.652344 L 132.480469 122.257812 C 132.902344 122.109375 133.261719 121.988281 133.769531 121.988281 C 134.414062 121.988281 134.933594 122.222656 134.933594 122.914062 C 134.921875 123.546875 134.414062 123.808594 133.792969 123.808594 L 133.210938 123.808594 L 133.210938 124.339844 L 133.769531 124.339844 C 134.488281 124.339844 135.054688 124.648438 135.054688 125.40625 C 135.054688 126.296875 134.4375 126.542969 133.632812 126.542969 C 133.0625 126.542969 132.714844 126.445312 132.320312 126.171875 L 132.320312 126.84375 C 132.714844 126.976562 133.175781 127.101562 133.644531 127.101562 C 134.746094 127.101562 135.613281 126.605469 135.613281 125.40625 Z M 135.613281 125.40625 "/>
<path fill-rule="nonzero" fill="rgb(50.195312%, 50.195312%, 50.195312%)" fill-opacity="1" d="M 136.589844 126.183594 L 137.34375 126.183594 L 137.34375 126.992188 L 136.589844 126.992188 Z M 136.589844 126.183594 "/>
<path fill-rule="nonzero" fill="rgb(50.195312%, 50.195312%, 50.195312%)" fill-opacity="1" d="M 141.824219 124.277344 C 141.808594 123.113281 141.550781 121.429688 140.078125 121.429688 C 138.601562 121.429688 138.355469 123.136719 138.355469 124.277344 C 138.355469 125.429688 138.613281 127.101562 140.078125 127.101562 C 141.539062 127.101562 141.824219 125.429688 141.824219 124.277344 Z M 141.253906 124.277344 C 141.253906 125.035156 141.191406 126.582031 140.078125 126.582031 C 138.960938 126.582031 138.925781 125.007812 138.925781 124.277344 C 138.925781 123.535156 138.949219 121.9375 140.078125 121.9375 C 141.191406 121.9375 141.253906 123.546875 141.253906 124.277344 Z M 141.253906 124.277344 "/>
<path fill="none" stroke-width="0.850394" stroke-linecap="butt" stroke-linejoin="miter" stroke="rgb(50.195312%, 50.195312%, 50.195312%)" stroke-opacity="1" stroke-miterlimit="4" d="M -16.464844 -16.21875 L -16.464844 -14.335938 " transform="matrix(0, -1, -1, 0, 0, 0)"/>
<path fill="none" stroke-width="0.850394" stroke-linecap="butt" stroke-linejoin="miter" stroke="rgb(50.195312%, 50.195312%, 50.195312%)" stroke-opacity="1" stroke-miterlimit="4" d="M -97.230469 -14.9375 L -97.230469 -16.21875 " transform="matrix(0, -1, -1, 0, 0, 0)"/>
<path fill="none" stroke-width="0.850394" stroke-linecap="butt" stroke-linejoin="miter" stroke="rgb(50.195312%, 50.195312%, 50.195312%)" stroke-opacity="1" stroke-miterlimit="4" d="M -77.039062 -14.9375 L -77.039062 -16.21875 " transform="matrix(0, -1, -1, 0, 0, 0)"/>
<path fill="none" stroke-width="0.850394" stroke-linecap="butt" stroke-linejoin="miter" stroke="rgb(50.195312%, 50.195312%, 50.195312%)" stroke-opacity="1" stroke-miterlimit="4" d="M -36.65625 -14.9375 L -36.65625 -16.21875 " transform="matrix(0, -1, -1, 0, 0, 0)"/>
<path fill="none" stroke-width="0.850394" stroke-linecap="butt" stroke-linejoin="miter" stroke="rgb(50.195312%, 50.195312%, 50.195312%)" stroke-opacity="1" stroke-miterlimit="4" d="M -56.847656 -14.9375 L -56.847656 -16.21875 " transform="matrix(0, -1, -1, 0, 0, 0)"/>
<path fill-rule="nonzero" fill="rgb(50.195312%, 50.195312%, 50.195312%)" fill-opacity="1" d="M 7.128906 16.152344 C 7.117188 14.984375 6.855469 13.300781 5.382812 13.300781 C 3.910156 13.300781 3.660156 15.011719 3.660156 16.152344 C 3.660156 17.300781 3.921875 18.976562 5.382812 18.976562 C 6.84375 18.976562 7.128906 17.300781 7.128906 16.152344 Z M 6.558594 16.152344 C 6.558594 16.90625 6.496094 18.453125 5.382812 18.453125 C 4.269531 18.453125 4.230469 16.882812 4.230469 16.152344 C 4.230469 15.40625 4.253906 13.808594 5.382812 13.808594 C 6.496094 13.808594 6.558594 15.417969 6.558594 16.152344 Z M 6.558594 16.152344 "/>
<path fill-rule="nonzero" fill="rgb(50.195312%, 50.195312%, 50.195312%)" fill-opacity="1" d="M 8.140625 18.058594 L 8.898438 18.058594 L 8.898438 18.863281 L 8.140625 18.863281 Z M 8.140625 18.058594 "/>
<path fill-rule="nonzero" fill="rgb(50.195312%, 50.195312%, 50.195312%)" fill-opacity="1" d="M 12.980469 17.128906 C 12.96875 16.015625 12.273438 15.285156 11.160156 15.285156 C 11.011719 15.296875 10.675781 15.332031 10.476562 15.40625 L 10.675781 13.96875 L 12.609375 13.96875 L 12.609375 13.402344 L 10.28125 13.402344 L 9.945312 16.101562 C 10.378906 15.890625 10.476562 15.839844 11.035156 15.839844 C 11.839844 15.839844 12.410156 16.285156 12.410156 17.128906 C 12.410156 17.996094 11.851562 18.417969 11.035156 18.417969 C 10.492188 18.417969 10.132812 18.304688 9.734375 18.058594 L 9.734375 18.738281 C 10.09375 18.875 10.625 18.976562 11.046875 18.976562 C 12.222656 18.976562 12.980469 18.332031 12.980469 17.128906 Z M 12.980469 17.128906 "/>
<path fill-rule="nonzero" fill="rgb(50.195312%, 50.195312%, 50.195312%)" fill-opacity="1" d="M 6.929688 117.503906 C 6.917969 116.339844 6.660156 114.652344 5.183594 114.652344 C 3.710938 114.652344 3.464844 116.363281 3.464844 117.503906 C 3.464844 118.65625 3.722656 120.328125 5.183594 120.328125 C 6.644531 120.328125 6.929688 118.65625 6.929688 117.503906 Z M 6.363281 117.503906 C 6.363281 118.257812 6.300781 119.804688 5.183594 119.804688 C 4.070312 119.804688 4.03125 118.234375 4.03125 117.503906 C 4.03125 116.757812 4.058594 115.160156 5.183594 115.160156 C 6.300781 115.160156 6.363281 116.773438 6.363281 117.503906 Z M 6.363281 117.503906 "/>
<path fill-rule="nonzero" fill="rgb(50.195312%, 50.195312%, 50.195312%)" fill-opacity="1" d="M 7.945312 119.410156 L 8.699219 119.410156 L 8.699219 120.214844 L 7.945312 120.214844 Z M 7.945312 119.410156 "/>
<path fill-rule="nonzero" fill="rgb(50.195312%, 50.195312%, 50.195312%)" fill-opacity="1" d="M 13.179688 117.503906 C 13.164062 116.339844 12.90625 114.652344 11.433594 114.652344 C 9.957031 114.652344 9.710938 116.363281 9.710938 117.503906 C 9.710938 118.65625 9.96875 120.328125 11.433594 120.328125 C 12.894531 120.328125 13.179688 118.65625 13.179688 117.503906 Z M 12.609375 117.503906 C 12.609375 118.257812 12.546875 119.804688 11.433594 119.804688 C 10.316406 119.804688 10.28125 118.234375 10.28125 117.503906 C 10.28125 116.757812 10.304688 115.160156 11.433594 115.160156 C 12.546875 115.160156 12.609375 116.773438 12.609375 117.503906 Z M 12.609375 117.503906 "/>
<g clip-path="url(#clip-2)">
<path fill="none" stroke-width="2.018508" stroke-linecap="square" stroke-linejoin="round" stroke="rgb(27.842712%, 40.391541%, 47.450256%)" stroke-opacity="1" stroke-miterlimit="4" d="M -121.640441 -166.179688 L -120.480305 -167.292969 L -119.320169 -168.304688 L -118.160033 -169.21875 L -116.999898 -170.042969 L -115.839762 -170.785156 L -114.683668 -171.449219 L -113.523532 -172.039062 L -112.363397 -172.5625 L -111.203261 -173.03125 L -110.043125 -173.441406 L -108.498972 -173.925781 L -106.950777 -174.34375 L -105.018565 -174.808594 L -99.994004 -175.972656 L -98.445809 -176.40625 L -97.289716 -176.78125 L -96.12958 -177.207031 L -94.969444 -177.699219 L -93.809308 -178.261719 L -92.649173 -178.914062 L -91.877096 -179.398438 L -91.10502 -179.925781 L -90.328901 -180.503906 L -89.556825 -181.132812 L -88.784748 -181.8125 L -88.012672 -182.546875 L -87.236553 -183.335938 L -86.464477 -184.1875 L -85.6924 -185.097656 L -84.920324 -186.066406 L -84.144205 -187.097656 L -83.372128 -188.191406 L -82.211993 -189.945312 L -81.051857 -191.832031 L -79.895763 -193.847656 L -78.735628 -195.984375 L -77.575492 -198.230469 L -76.027297 -201.371094 L -74.483144 -204.640625 L -72.162872 -209.695312 L -69.070524 -216.445312 L -67.526371 -219.71875 L -65.978176 -222.859375 L -64.81804 -225.109375 L -63.657904 -227.253906 L -62.501811 -229.28125 L -61.341675 -231.183594 L -60.181539 -232.957031 L -59.021404 -234.597656 L -57.861268 -236.113281 L -56.701132 -237.496094 L -55.929056 -238.351562 L -54.76892 -239.539062 L -53.608784 -240.613281 L -52.448648 -241.589844 L -51.292555 -242.472656 L -50.132419 -243.273438 L -48.972283 -244.007812 L -47.812147 -244.679688 L -46.263952 -245.507812 L -44.33174 -246.46875 L -39.30718 -248.910156 L -37.763027 -249.738281 L -36.602891 -250.410156 L -35.442755 -251.132812 L -34.282619 -251.914062 L -33.122483 -252.757812 L -31.962348 -253.679688 L -30.806254 -254.683594 L -29.646118 -255.773438 L -29.258059 -256.160156 " transform="matrix(0, -0.966347, -1, 0, 0, 0)"/>
</g>
<path fill="none" stroke-width="0.850394" stroke-linecap="butt" stroke-linejoin="round" stroke="rgb(0%, 0%, 0%)" stroke-opacity="1" stroke-miterlimit="4" d="M 166.082031 27.410156 L 256.253906 27.410156 L 256.253906 117.585938 L 166.082031 117.585938 Z M 166.082031 27.410156 "/>
<g clip-path="url(#clip-3)">
<path fill-rule="nonzero" fill="rgb(0%, 0%, 0%)" fill-opacity="1" d="M 211.761719 125.320312 C 211.828125 125.050781 212.078125 124.066406 212.8125 124.066406 C 212.863281 124.066406 213.128906 124.066406 213.347656 124.199219 C 213.046875 124.265625 212.847656 124.515625 212.847656 124.785156 C 212.847656 124.949219 212.960938 125.152344 213.246094 125.152344 C 213.480469 125.152344 213.816406 124.96875 213.816406 124.535156 C 213.816406 123.980469 213.195312 123.832031 212.828125 123.832031 C 212.210938 123.832031 211.84375 124.398438 211.710938 124.632812 C 211.441406 123.933594 210.875 123.832031 210.558594 123.832031 C 209.457031 123.832031 208.835938 125.203125 208.835938 125.46875 C 208.835938 125.585938 208.953125 125.585938 208.96875 125.585938 C 209.054688 125.585938 209.085938 125.550781 209.105469 125.46875 C 209.472656 124.332031 210.171875 124.066406 210.539062 124.066406 C 210.742188 124.066406 211.109375 124.164062 211.109375 124.785156 C 211.109375 125.117188 210.925781 125.820312 210.539062 127.324219 C 210.375 127.972656 209.988281 128.425781 209.523438 128.425781 C 209.457031 128.425781 209.222656 128.425781 208.988281 128.292969 C 209.253906 128.226562 209.488281 128.007812 209.488281 127.707031 C 209.488281 127.421875 209.253906 127.339844 209.105469 127.339844 C 208.769531 127.339844 208.519531 127.605469 208.519531 127.957031 C 208.519531 128.441406 209.039062 128.660156 209.503906 128.660156 C 210.222656 128.660156 210.609375 127.90625 210.625 127.859375 C 210.757812 128.242188 211.140625 128.660156 211.777344 128.660156 C 212.878906 128.660156 213.480469 127.289062 213.480469 127.023438 C 213.480469 126.90625 213.398438 126.90625 213.363281 126.90625 C 213.261719 126.90625 213.246094 126.957031 213.214844 127.023438 C 212.863281 128.175781 212.144531 128.425781 211.808594 128.425781 C 211.394531 128.425781 211.226562 128.089844 211.226562 127.722656 C 211.226562 127.488281 211.277344 127.257812 211.394531 126.789062 Z M 211.761719 125.320312 "/>
</g>
<path fill-rule="nonzero" fill="rgb(0%, 0%, 0%)" fill-opacity="1" d="M 159.527344 73.792969 C 158.910156 73.226562 158.644531 72.90625 158.308594 72.523438 C 158.308594 72.523438 157.742188 71.871094 157.355469 71.488281 C 156.371094 70.46875 155.855469 70.234375 155.804688 70.234375 C 155.703125 70.234375 155.703125 70.335938 155.703125 70.351562 C 155.703125 70.4375 155.71875 70.453125 155.820312 70.519531 C 156.339844 70.835938 156.503906 71.054688 156.503906 71.304688 C 156.503906 71.570312 156.339844 71.6875 156.15625 71.855469 C 155.921875 72.054688 155.703125 72.238281 155.703125 72.589844 C 155.703125 73.390625 156.6875 73.875 156.921875 73.875 C 156.972656 73.875 157.039062 73.84375 157.039062 73.761719 C 157.039062 73.660156 156.988281 73.644531 156.921875 73.609375 C 156.421875 73.410156 156.421875 72.792969 156.421875 72.707031 C 156.421875 72.492188 156.488281 72.289062 156.574219 72.039062 C 156.738281 71.605469 156.738281 71.488281 156.738281 71.222656 C 157.191406 71.605469 157.957031 72.492188 158.125 72.691406 L 159.027344 73.660156 C 159.746094 74.378906 160.347656 74.761719 160.429688 74.761719 C 160.53125 74.761719 160.53125 74.644531 160.53125 74.628906 C 160.53125 74.546875 160.515625 74.527344 160.398438 74.460938 C 160.011719 74.210938 159.730469 73.894531 159.730469 73.542969 C 159.730469 73.308594 159.828125 73.191406 160.128906 72.925781 C 160.363281 72.757812 160.53125 72.558594 160.53125 72.257812 C 160.53125 71.1875 159.179688 70.570312 158.894531 70.570312 C 158.84375 70.570312 158.777344 70.621094 158.777344 70.703125 C 158.777344 70.804688 158.84375 70.820312 158.925781 70.855469 C 159.613281 71.105469 159.8125 71.789062 159.8125 72.140625 C 159.8125 72.339844 159.746094 72.539062 159.679688 72.757812 C 159.546875 73.125 159.496094 73.292969 159.496094 73.507812 C 159.496094 73.527344 159.496094 73.691406 159.527344 73.792969 Z M 159.527344 73.792969 "/>
<g clip-path="url(#clip-4)">
<use xlink:href="#source-5" transform="matrix(1, 0, 0, 1, 16, 16)"/>
</g>
<path fill-rule="nonzero" fill="rgb(86.273193%, 63.136292%, 52.940369%)" fill-opacity="0.532663" stroke-width="0.302451" stroke-linecap="butt" stroke-linejoin="round" stroke="rgb(81.959534%, 51.371765%, 38.430786%)" stroke-opacity="0.515152" stroke-miterlimit="4" d="M 133.727437 -18.964844 C 133.420591 -19.992188 132.557862 -21.375 131.695133 -22.21875 C 127.990734 -25.84375 119.870409 -27.105469 93.317035 -28.171875 C 88.901107 -28.351562 81.719111 -28.59375 65.909825 -29.097656 C 59.27037 -29.308594 53.22682 -29.507812 52.475267 -29.539062 C 45.3244 -29.820312 40.374826 -30.113281 40.748379 -30.238281 C 40.801744 -30.257812 43.189813 -30.691406 46.053718 -31.203125 C 51.781526 -32.222656 54.37416 -32.75 57.407053 -33.5 C 71.668763 -37.03125 80.393888 -42.632812 86.64645 -52.261719 C 92.881223 -61.863281 96.701245 -76.285156 97.470585 -93.15625 C 97.679597 -97.71875 97.612891 -101.136719 97.137056 -109.816406 C 96.883574 -114.480469 96.910256 -115.328125 97.332727 -116.640625 C 98.02202 -118.761719 99.747478 -120.007812 103.874347 -121.363281 C 105.599805 -121.933594 108.663827 -122.695312 115.160976 -124.179688 C 120.830973 -125.476562 122.009443 -125.777344 124.246313 -126.523438 C 129.782898 -128.367188 132.304379 -130.429688 133.682967 -134.246094 L 133.914214 -134.882812 L 133.918661 -76.714844 C 133.918661 -44.722656 133.90532 -18.546875 133.887531 -18.546875 C 133.869743 -18.546875 133.79859 -18.734375 133.727437 -18.964844 Z M 133.727437 -18.964844 " transform="matrix(0, 0.87839, -1, 0, 0, 0)"/>
<path fill="none" stroke-width="0.850394" stroke-linecap="butt" stroke-linejoin="round" stroke="rgb(0%, 0%, 0%)" stroke-opacity="1" stroke-miterlimit="4" d="M 16.507812 16.464844 L 137.203125 16.464844 L 137.203125 117.734375 L 16.507812 117.734375 Z M 16.507812 16.464844 "/>
<path fill-rule="nonzero" fill="rgb(0%, 0%, 0%)" fill-opacity="1" d="M 181.585938 21.5625 C 182.152344 20.945312 182.46875 20.675781 182.855469 20.34375 C 182.855469 20.34375 183.507812 19.773438 183.890625 19.390625 C 184.910156 18.40625 185.144531 17.886719 185.144531 17.835938 C 185.144531 17.738281 185.042969 17.738281 185.027344 17.738281 C 184.941406 17.738281 184.925781 17.753906 184.859375 17.855469 C 184.542969 18.371094 184.324219 18.539062 184.074219 18.539062 C 183.808594 18.539062 183.691406 18.371094 183.523438 18.1875 C 183.324219 17.953125 183.140625 17.738281 182.789062 17.738281 C 181.984375 17.738281 181.5 18.722656 181.5 18.957031 C 181.5 19.007812 181.535156 19.074219 181.617188 19.074219 C 181.71875 19.074219 181.734375 19.023438 181.769531 18.957031 C 181.96875 18.457031 182.585938 18.457031 182.671875 18.457031 C 182.886719 18.457031 183.089844 18.523438 183.339844 18.605469 C 183.773438 18.773438 183.890625 18.773438 184.15625 18.773438 C 183.773438 19.222656 182.886719 19.992188 182.6875 20.160156 L 181.71875 21.0625 C 181 21.78125 180.617188 22.378906 180.617188 22.464844 C 180.617188 22.5625 180.734375 22.5625 180.75 22.5625 C 180.832031 22.5625 180.851562 22.546875 180.917969 22.429688 C 181.167969 22.046875 181.484375 21.761719 181.835938 21.761719 C 182.070312 21.761719 182.1875 21.863281 182.453125 22.164062 C 182.621094 22.398438 182.820312 22.5625 183.121094 22.5625 C 184.191406 22.5625 184.808594 21.210938 184.808594 20.925781 C 184.808594 20.878906 184.757812 20.808594 184.675781 20.808594 C 184.574219 20.808594 184.558594 20.878906 184.523438 20.960938 C 184.273438 21.644531 183.589844 21.847656 183.238281 21.847656 C 183.039062 21.847656 182.839844 21.78125 182.621094 21.710938 C 182.253906 21.578125 182.085938 21.527344 181.871094 21.527344 C 181.851562 21.527344 181.683594 21.527344 181.585938 21.5625 Z M 181.585938 21.5625 "/>
<path fill-rule="nonzero" fill="rgb(0%, 0%, 0%)" fill-opacity="1" d="M 195.863281 18.957031 C 196.027344 18.957031 196.230469 18.957031 196.230469 18.757812 C 196.230469 18.539062 196.027344 18.539062 195.878906 18.539062 L 189.496094 18.539062 C 189.347656 18.539062 189.148438 18.539062 189.148438 18.757812 C 189.148438 18.957031 189.347656 18.957031 189.496094 18.957031 Z M 195.878906 21.027344 C 196.027344 21.027344 196.230469 21.027344 196.230469 20.808594 C 196.230469 20.609375 196.027344 20.609375 195.863281 20.609375 L 189.496094 20.609375 C 189.347656 20.609375 189.148438 20.609375 189.148438 20.808594 C 189.148438 21.027344 189.347656 21.027344 189.496094 21.027344 Z M 195.878906 21.027344 "/>
<path fill-rule="nonzero" fill="rgb(0%, 0%, 0%)" fill-opacity="1" d="M 201.660156 18.339844 L 202.828125 18.339844 L 202.828125 17.71875 L 201.625 17.71875 L 201.625 16.449219 C 201.625 15.664062 202.34375 15.582031 202.628906 15.582031 C 202.828125 15.582031 203.128906 15.597656 203.480469 15.765625 L 203.480469 15.046875 C 203.363281 15.015625 203.027344 14.929688 202.628906 14.929688 C 201.625 14.929688 200.855469 15.699219 200.855469 16.75 L 200.855469 17.71875 L 200.070312 17.71875 L 200.070312 18.339844 L 200.855469 18.339844 L 200.855469 22.449219 L 201.660156 22.449219 Z M 201.660156 18.339844 "/>
<path fill-rule="nonzero" fill="rgb(0%, 0%, 0%)" fill-opacity="1" d="M 208.585938 15.996094 C 208.703125 15.996094 208.886719 15.996094 208.886719 15.828125 C 208.886719 15.628906 208.703125 15.628906 208.585938 15.628906 L 204.144531 15.628906 C 204.027344 15.628906 203.84375 15.628906 203.84375 15.8125 C 203.84375 15.996094 204.011719 15.996094 204.144531 15.996094 Z M 208.585938 15.996094 "/>
<path fill-rule="nonzero" fill="rgb(0%, 0%, 0%)" fill-opacity="1" d="M 212.1875 12.941406 C 212.1875 12.738281 212.1875 12.738281 211.96875 12.738281 C 211.484375 13.207031 210.816406 13.207031 210.515625 13.207031 L 210.515625 13.472656 C 210.683594 13.472656 211.183594 13.472656 211.585938 13.273438 L 211.585938 17.066406 C 211.585938 17.316406 211.585938 17.417969 210.851562 17.417969 L 210.566406 17.417969 L 210.566406 17.683594 C 210.699219 17.683594 211.621094 17.652344 211.886719 17.652344 C 212.121094 17.652344 213.054688 17.683594 213.222656 17.683594 L 213.222656 17.417969 L 212.9375 17.417969 C 212.1875 17.417969 212.1875 17.316406 212.1875 17.066406 Z M 212.1875 12.941406 "/>
<path fill-rule="nonzero" fill="rgb(0%, 0%, 0%)" fill-opacity="1" d="M 217.199219 25.121094 L 217.199219 24.6875 L 216.164062 24.6875 L 216.164062 14.878906 L 217.199219 14.878906 L 217.199219 14.445312 L 215.730469 14.445312 L 215.730469 25.121094 Z M 217.199219 25.121094 "/>
<path fill-rule="nonzero" fill="rgb(0%, 0%, 0%)" fill-opacity="1" d="M 220.992188 19.222656 C 221.058594 18.957031 221.3125 17.972656 222.046875 17.972656 C 222.097656 17.972656 222.363281 17.972656 222.582031 18.105469 C 222.28125 18.171875 222.078125 18.421875 222.078125 18.6875 C 222.078125 18.855469 222.195312 19.054688 222.480469 19.054688 C 222.714844 19.054688 223.046875 18.871094 223.046875 18.4375 C 223.046875 17.886719 222.429688 17.738281 222.0625 17.738281 C 221.445312 17.738281 221.078125 18.304688 220.941406 18.539062 C 220.675781 17.835938 220.109375 17.738281 219.789062 17.738281 C 218.6875 17.738281 218.070312 19.105469 218.070312 19.375 C 218.070312 19.492188 218.1875 19.492188 218.203125 19.492188 C 218.289062 19.492188 218.320312 19.457031 218.335938 19.375 C 218.703125 18.238281 219.40625 17.972656 219.773438 17.972656 C 219.972656 17.972656 220.34375 18.070312 220.34375 18.6875 C 220.34375 19.023438 220.15625 19.726562 219.773438 21.226562 C 219.605469 21.878906 219.222656 22.332031 218.753906 22.332031 C 218.6875 22.332031 218.453125 22.332031 218.21875 22.195312 C 218.488281 22.128906 218.722656 21.914062 218.722656 21.613281 C 218.722656 21.328125 218.488281 21.246094 218.335938 21.246094 C 218.003906 21.246094 217.753906 21.511719 217.753906 21.863281 C 217.753906 22.347656 218.269531 22.5625 218.738281 22.5625 C 219.457031 22.5625 219.839844 21.8125 219.859375 21.761719 C 219.992188 22.148438 220.375 22.5625 221.011719 22.5625 C 222.113281 22.5625 222.714844 21.195312 222.714844 20.925781 C 222.714844 20.808594 222.628906 20.808594 222.597656 20.808594 C 222.496094 20.808594 222.480469 20.859375 222.445312 20.925781 C 222.097656 22.078125 221.378906 22.332031 221.042969 22.332031 C 220.625 22.332031 220.457031 21.996094 220.457031 21.628906 C 220.457031 21.394531 220.507812 21.160156 220.625 20.695312 Z M 220.992188 19.222656 "/>
<path fill-rule="nonzero" fill="rgb(0%, 0%, 0%)" fill-opacity="1" d="M 225.695312 22.429688 C 225.695312 21.730469 225.425781 21.3125 225.007812 21.3125 C 224.660156 21.3125 224.441406 21.578125 224.441406 21.878906 C 224.441406 22.164062 224.660156 22.449219 225.007812 22.449219 C 225.125 22.449219 225.277344 22.398438 225.375 22.3125 C 225.410156 22.28125 225.425781 22.28125 225.425781 22.28125 C 225.445312 22.28125 225.445312 22.28125 225.445312 22.429688 C 225.445312 23.234375 225.074219 23.867188 224.726562 24.21875 C 224.609375 24.335938 224.609375 24.351562 224.609375 24.386719 C 224.609375 24.46875 224.660156 24.503906 224.707031 24.503906 C 224.824219 24.503906 225.695312 23.683594 225.695312 22.429688 Z M 225.695312 22.429688 "/>
<path fill-rule="nonzero" fill="rgb(0%, 0%, 0%)" fill-opacity="1" d="M 233.652344 15.363281 C 233.683594 15.230469 233.683594 15.214844 233.683594 15.199219 C 233.683594 15.046875 233.535156 15.046875 233.433594 15.046875 C 233.214844 15.046875 233.214844 15.082031 233.148438 15.296875 L 232.632812 17.402344 C 232.582031 17.554688 232.582031 17.554688 232.566406 17.570312 C 232.546875 17.570312 232.53125 17.585938 232.363281 17.601562 C 230.160156 17.71875 228.855469 19.242188 228.855469 20.59375 C 228.855469 21.730469 229.773438 22.515625 231.328125 22.5625 L 230.878906 24.453125 C 230.878906 24.601562 231.027344 24.601562 231.128906 24.601562 C 231.296875 24.601562 231.34375 24.585938 231.394531 24.402344 L 231.761719 22.914062 C 231.828125 22.613281 231.847656 22.597656 231.863281 22.582031 C 231.878906 22.582031 231.898438 22.582031 232.0625 22.5625 C 234.234375 22.429688 235.570312 20.945312 235.570312 19.574219 C 235.570312 18.421875 234.652344 17.652344 233.097656 17.601562 Z M 231.429688 22.179688 C 230.511719 22.128906 229.941406 21.730469 229.941406 20.878906 C 229.941406 20.578125 230.058594 19.589844 230.628906 18.890625 C 230.996094 18.421875 231.613281 18.054688 232.480469 17.988281 Z M 233 17.988281 C 233.917969 18.039062 234.484375 18.421875 234.484375 19.289062 C 234.484375 19.589844 234.367188 20.578125 233.800781 21.277344 C 233.433594 21.746094 232.816406 22.113281 231.945312 22.179688 Z M 233 17.988281 "/>
<path fill-rule="nonzero" fill="rgb(0%, 0%, 0%)" fill-opacity="1" d="M 237.53125 14.445312 L 236.078125 14.445312 L 236.078125 14.878906 L 237.113281 14.878906 L 237.113281 24.6875 L 236.078125 24.6875 L 236.078125 25.121094 L 237.53125 25.121094 Z M 237.53125 14.445312 "/>
<path fill-rule="nonzero" fill="rgb(0%, 0%, 0%)" fill-opacity="1" d="M 4.492188 5.839844 C 4.492188 4.550781 3.5625 3.660156 2.394531 3.660156 C 1.582031 3.660156 1.007812 3.859375 0.414062 4.195312 L 0.496094 5.027344 C 1.148438 4.570312 1.78125 4.414062 2.394531 4.414062 C 2.988281 4.414062 3.503906 4.910156 3.503906 5.839844 L 3.503906 6.394531 C 1.601562 6.414062 0 6.945312 0 8.054688 C 0 8.589844 0.335938 9.621094 1.445312 9.621094 C 1.621094 9.621094 2.8125 9.597656 3.542969 9.027344 L 3.542969 9.480469 L 4.492188 9.480469 Z M 3.503906 7.816406 C 3.503906 8.054688 3.503906 8.371094 3.066406 8.609375 C 2.710938 8.828125 2.214844 8.847656 2.078125 8.847656 C 1.484375 8.847656 0.910156 8.550781 0.910156 8.035156 C 0.910156 7.144531 2.949219 7.066406 3.503906 7.027344 Z M 3.503906 7.816406 "/>
<path fill-rule="nonzero" fill="rgb(0%, 0%, 0%)" fill-opacity="1" d="M 6.996094 12.648438 C 7.390625 12.25 8.242188 11.480469 8.816406 9.9375 C 9.332031 8.589844 9.410156 7.242188 9.410156 6.3125 C 9.410156 2.238281 7.589844 0.574219 6.996094 0 L 6.222656 0 C 6.816406 0.613281 8.421875 2.238281 8.421875 6.3125 C 8.421875 7.027344 8.378906 8.511719 7.867188 9.996094 C 7.351562 11.460938 6.640625 12.210938 6.222656 12.648438 Z M 6.996094 12.648438 "/>
<path fill-rule="nonzero" fill="rgb(0%, 0%, 0%)" fill-opacity="1" d="M 151.789062 0.710938 L 150.839844 0.710938 L 150.839844 9.480469 L 151.832031 9.480469 L 151.832031 8.90625 C 152.128906 9.183594 152.679688 9.621094 153.53125 9.621094 C 154.78125 9.621094 155.867188 8.351562 155.867188 6.671875 C 155.867188 5.105469 155.015625 3.742188 153.828125 3.742188 C 153.335938 3.742188 152.542969 3.859375 151.789062 4.472656 Z M 151.832031 5.246094 C 152.027344 4.949219 152.484375 4.511719 153.175781 4.511719 C 153.929688 4.511719 154.878906 5.046875 154.878906 6.671875 C 154.878906 8.3125 153.828125 8.847656 153.058594 8.847656 C 152.5625 8.847656 152.148438 8.628906 151.832031 8.035156 Z M 151.832031 5.246094 "/>
<path fill-rule="nonzero" fill="rgb(0%, 0%, 0%)" fill-opacity="1" d="M 157.816406 12.648438 C 158.214844 12.25 159.0625 11.480469 159.636719 9.9375 C 160.152344 8.589844 160.230469 7.242188 160.230469 6.3125 C 160.230469 2.238281 158.410156 0.574219 157.816406 0 L 157.046875 0 C 157.640625 0.613281 159.242188 2.238281 159.242188 6.3125 C 159.242188 7.027344 159.203125 8.511719 158.6875 9.996094 C 158.171875 11.460938 157.460938 12.210938 157.046875 12.648438 Z M 157.816406 12.648438 "/>
<path fill-rule="nonzero" fill="rgb(0%, 0%, 0%)" fill-opacity="1" d="M 265.539062 4.195312 C 264.785156 3.78125 264.351562 3.660156 263.578125 3.660156 C 261.835938 3.660156 260.808594 5.1875 260.808594 6.671875 C 260.808594 8.234375 261.957031 9.621094 263.539062 9.621094 C 264.210938 9.621094 264.90625 9.441406 265.597656 8.964844 L 265.519531 8.132812 C 264.863281 8.628906 264.191406 8.808594 263.539062 8.808594 C 262.488281 8.808594 261.796875 7.898438 261.796875 6.671875 C 261.796875 5.679688 262.253906 4.472656 263.597656 4.472656 C 264.25 4.472656 264.6875 4.570312 265.378906 5.027344 Z M 265.539062 4.195312 "/>
<path fill-rule="nonzero" fill="rgb(0%, 0%, 0%)" fill-opacity="1" d="M 267.445312 12.648438 C 267.839844 12.25 268.691406 11.480469 269.265625 9.9375 C 269.78125 8.589844 269.859375 7.242188 269.859375 6.3125 C 269.859375 2.238281 268.039062 0.574219 267.445312 0 L 266.671875 0 C 267.265625 0.613281 268.871094 2.238281 268.871094 6.3125 C 268.871094 7.027344 268.828125 8.511719 268.316406 9.996094 C 267.800781 11.460938 267.089844 12.210938 266.671875 12.648438 Z M 267.445312 12.648438 "/>
<g clip-path="url(#clip-7)">
<path fill-rule="nonzero" fill="rgb(0%, 0%, 0%)" fill-opacity="1" d="M 343.265625 127.65625 C 343.832031 127.039062 344.148438 126.773438 344.535156 126.4375 C 344.535156 126.4375 345.183594 125.871094 345.570312 125.484375 C 346.589844 124.5 346.820312 123.980469 346.820312 123.933594 C 346.820312 123.832031 346.722656 123.832031 346.703125 123.832031 C 346.621094 123.832031 346.605469 123.847656 346.539062 123.949219 C 346.21875 124.464844 346.003906 124.632812 345.753906 124.632812 C 345.484375 124.632812 345.367188 124.464844 345.203125 124.28125 C 345 124.050781 344.816406 123.832031 344.464844 123.832031 C 343.664062 123.832031 343.179688 124.816406 343.179688 125.050781 C 343.179688 125.101562 343.214844 125.167969 343.296875 125.167969 C 343.398438 125.167969 343.414062 125.117188 343.449219 125.050781 C 343.648438 124.550781 344.265625 124.550781 344.351562 124.550781 C 344.566406 124.550781 344.765625 124.617188 345.019531 124.699219 C 345.453125 124.867188 345.570312 124.867188 345.835938 124.867188 C 345.453125 125.320312 344.566406 126.085938 344.367188 126.253906 L 343.398438 127.15625 C 342.679688 127.875 342.296875 128.476562 342.296875 128.558594 C 342.296875 128.660156 342.410156 128.660156 342.429688 128.660156 C 342.511719 128.660156 342.527344 128.640625 342.597656 128.527344 C 342.847656 128.140625 343.164062 127.859375 343.515625 127.859375 C 343.75 127.859375 343.863281 127.957031 344.132812 128.257812 C 344.300781 128.492188 344.5 128.660156 344.800781 128.660156 C 345.871094 128.660156 346.488281 127.304688 346.488281 127.023438 C 346.488281 126.972656 346.4375 126.90625 346.355469 126.90625 C 346.253906 126.90625 346.238281 126.972656 346.203125 127.054688 C 345.953125 127.742188 345.269531 127.941406 344.917969 127.941406 C 344.71875 127.941406 344.515625 127.875 344.300781 127.808594 C 343.933594 127.671875 343.765625 127.625 343.546875 127.625 C 343.53125 127.625 343.363281 127.625 343.265625 127.65625 Z M 343.265625 127.65625 "/>
</g>
<g clip-path="url(#clip-8)">
<path fill-rule="nonzero" fill="rgb(0%, 0%, 0%)" fill-opacity="1" d="M 78.160156 125.320312 C 78.230469 125.050781 78.480469 124.066406 79.214844 124.066406 C 79.265625 124.066406 79.53125 124.066406 79.75 124.199219 C 79.449219 124.265625 79.246094 124.515625 79.246094 124.785156 C 79.246094 124.949219 79.363281 125.152344 79.648438 125.152344 C 79.882812 125.152344 80.214844 124.96875 80.214844 124.535156 C 80.214844 123.980469 79.597656 123.832031 79.230469 123.832031 C 78.613281 123.832031 78.246094 124.398438 78.113281 124.632812 C 77.84375 123.933594 77.277344 123.832031 76.960938 123.832031 C 75.855469 123.832031 75.238281 125.203125 75.238281 125.46875 C 75.238281 125.585938 75.355469 125.585938 75.371094 125.585938 C 75.457031 125.585938 75.488281 125.550781 75.507812 125.46875 C 75.875 124.332031 76.574219 124.066406 76.941406 124.066406 C 77.144531 124.066406 77.511719 124.164062 77.511719 124.785156 C 77.511719 125.117188 77.328125 125.820312 76.941406 127.324219 C 76.777344 127.972656 76.390625 128.425781 75.921875 128.425781 C 75.855469 128.425781 75.621094 128.425781 75.390625 128.292969 C 75.65625 128.226562 75.890625 128.007812 75.890625 127.707031 C 75.890625 127.421875 75.65625 127.339844 75.507812 127.339844 C 75.171875 127.339844 74.921875 127.605469 74.921875 127.957031 C 74.921875 128.441406 75.4375 128.660156 75.90625 128.660156 C 76.625 128.660156 77.007812 127.90625 77.027344 127.859375 C 77.160156 128.242188 77.542969 128.660156 78.179688 128.660156 C 79.28125 128.660156 79.882812 127.289062 79.882812 127.023438 C 79.882812 126.90625 79.796875 126.90625 79.765625 126.90625 C 79.664062 126.90625 79.648438 126.957031 79.613281 127.023438 C 79.265625 128.175781 78.546875 128.425781 78.210938 128.425781 C 77.792969 128.425781 77.628906 128.089844 77.628906 127.722656 C 77.628906 127.488281 77.675781 127.257812 77.792969 126.789062 Z M 78.160156 125.320312 "/>
</g>
</svg>
