<?xml version="1.0" encoding="UTF-8"?>
<svg xmlns="http://www.w3.org/2000/svg" xmlns:xlink="http://www.w3.org/1999/xlink" width="409.09494pt" height="127.230576pt" viewBox="0 0 409.09494 127.230576">
<defs>
<clipPath id="clip-0">
<path clip-rule="nonzero" d="M 283.832031 16.320312 L 404.367188 16.320312 L 404.367188 118.042969 L 283.832031 118.042969 Z M 283.832031 16.320312 "/>
</clipPath>
<clipPath id="clip-1">
<path clip-rule="nonzero" d="M 0.832031 15 L 121.367188 15 L 121.367188 102.042969 L 0.832031 102.042969 Z M 0.832031 15 "/>
</clipPath>
<clipPath id="clip-2">
<rect x="0" y="0" width="122" height="103"/>
</clipPath>
<g id="source-5" clip-path="url(#clip-2)">
<g clip-path="url(#clip-1)">
<path fill="none" stroke-width="1.994812" stroke-linecap="square" stroke-linejoin="round" stroke="rgb(81.959534%, 51.371765%, 38.430786%)" stroke-opacity="0.952941" stroke-miterlimit="4" d="M 286.860997 117.167969 L 288.029586 116.925781 L 289.008674 116.652344 L 289.841688 116.351562 L 290.556265 116.019531 L 291.187935 115.65625 L 291.75249 115.25 L 292.277565 114.785156 L 292.759213 114.265625 L 293.20533 113.679688 L 293.627759 113.003906 L 294.026501 112.230469 L 294.405503 111.335938 L 294.764765 110.3125 L 295.116131 109.105469 L 295.455654 107.671875 L 295.783332 105.980469 L 296.099167 103.972656 L 296.411054 101.539062 L 296.718993 98.59375 L 297.026932 94.945312 L 297.330923 90.472656 L 297.64281 84.820312 L 297.974437 77.476562 L 298.377127 66.890625 L 299.202245 44.890625 L 299.474653 39.703125 L 299.699685 36.574219 L 299.90103 34.699219 L 300.070791 33.675781 L 300.220813 33.15625 L 300.343199 32.953125 L 300.437949 32.90625 L 300.520856 32.941406 L 300.62745 33.070312 L 300.765628 33.367188 L 300.959077 33.957031 L 301.227537 35.023438 L 301.657862 37.054688 L 303.221244 44.648438 L 303.884498 47.425781 L 304.539855 49.871094 L 305.19916 52.066406 L 305.878205 54.105469 L 306.580938 55.980469 L 307.299463 57.703125 L 308.045622 59.320312 L 308.81547 60.832031 L 309.636641 62.28125 L 310.481499 63.640625 L 311.369785 64.9375 L 312.305446 66.183594 L 313.29243 67.375 L 314.322841 68.511719 L 315.400628 69.601562 L 316.529737 70.640625 L 317.733858 71.65625 L 318.99325 72.625 L 320.3316 73.566406 L 321.756805 74.484375 L 323.233333 75.355469 L 324.796716 76.195312 L 326.486433 77.027344 L 328.2709 77.820312 L 330.14617 78.582031 L 332.155669 79.320312 L 334.252023 80.019531 L 336.482607 80.683594 L 338.839525 81.316406 L 341.318829 81.910156 L 343.912623 82.460938 L 346.613012 82.960938 L 349.451578 83.414062 L 352.365155 83.8125 L 355.37743 84.152344 L 358.464716 84.433594 L 361.552003 84.640625 L 364.65508 84.785156 L 367.777898 84.859375 L 370.880976 84.859375 L 373.984054 84.792969 L 377.268737 84.652344 L 385.081703 84.277344 L 386.285823 84.320312 L 387.233328 84.421875 L 388.015019 84.574219 L 388.690116 84.773438 L 389.302047 85.027344 L 389.85081 85.328125 L 390.360093 85.691406 L 390.849638 86.125 L 391.319442 86.632812 L 391.769507 87.230469 L 392.215624 87.933594 L 392.665688 88.777344 L 393.123649 89.78125 L 393.609245 91.023438 L 394.122477 92.53125 L 394.702823 94.460938 L 395.4174 97.105469 L 397.588765 105.324219 L 398.204643 107.289062 L 398.769198 108.859375 L 399.310065 110.164062 L 399.839088 111.253906 L 400.364164 112.183594 L 400.897135 112.988281 L 401.441951 113.679688 L 401.994662 114.277344 L 402.57106 114.796875 L 403.190886 115.265625 L 403.85414 115.679688 L 404.584508 116.050781 L 405.389887 116.382812 L 406.293964 116.675781 L 407.328324 116.9375 L 408.532444 117.171875 L 408.658778 117.191406 " transform="matrix(0.989441, 0, 0, 1, -283, -16)"/>
</g>
</g>
<clipPath id="clip-3">
<path clip-rule="nonzero" d="M 16.421875 35 L 137.410156 35 L 137.410156 117.921875 L 16.421875 117.921875 Z M 16.421875 35 "/>
</clipPath>
<clipPath id="clip-4">
<path clip-rule="nonzero" d="M 405 120 L 409.09375 120 L 409.09375 127 L 405 127 Z M 405 120 "/>
</clipPath>
<clipPath id="clip-5">
<path clip-rule="nonzero" d="M 208 122 L 214 122 L 214 127.230469 L 208 127.230469 Z M 208 122 "/>
</clipPath>
<clipPath id="clip-6">
<path clip-rule="nonzero" d="M 166.34375 27.410156 L 255.992188 27.410156 L 255.992188 118.15625 L 166.34375 118.15625 Z M 166.34375 27.410156 "/>
</clipPath>
<clipPath id="clip-7">
<path clip-rule="nonzero" d="M 74 122 L 79 122 L 79 127.230469 L 74 127.230469 Z M 74 122 "/>
</clipPath>
<clipPath id="clip-8">
<path clip-rule="nonzero" d="M 341 122 L 347 122 L 347 127.230469 L 341 127.230469 Z M 341 122 "/>
</clipPath>
</defs>
<g clip-path="url(#clip-0)">
<use xlink:href="#source-5" transform="matrix(1, 0, 0, 1, 283, 16)"/>
</g>
<path fill-rule="nonzero" fill="rgb(86.273193%, 63.136292%, 52.940369%)" fill-opacity="0.532663" stroke-width="0.302676" stroke-linecap="butt" stroke-linejoin="round" stroke="rgb(81.959534%, 51.371765%, 38.430786%)" stroke-opacity="0.515152" stroke-miterlimit="4" d="M 133.788649 -286.140625 C 133.481345 -287.171875 132.612877 -288.558594 131.748862 -289.402344 C 128.043398 -293.03125 119.906518 -294.292969 93.318028 -295.363281 C 88.891067 -295.542969 81.698368 -295.785156 65.865524 -296.292969 C 59.220628 -296.503906 53.163619 -296.703125 52.410946 -296.730469 C 45.253877 -297.011719 40.292474 -297.308594 40.666583 -297.433594 C 40.720027 -297.453125 43.111655 -297.886719 45.984281 -298.398438 C 51.716172 -299.421875 54.317123 -299.949219 57.350081 -300.703125 C 71.633044 -304.238281 80.375624 -309.847656 86.637503 -319.488281 C 92.881567 -329.105469 96.702828 -343.550781 97.473315 -360.445312 C 97.682638 -365.015625 97.615833 -368.4375 97.143742 -377.132812 C 96.889882 -381.800781 96.912151 -382.652344 97.339704 -383.964844 C 98.025572 -386.089844 99.753601 -387.339844 103.886619 -388.695312 C 105.619102 -389.265625 108.68769 -390.03125 115.190068 -391.515625 C 120.868514 -392.8125 122.04874 -393.117188 124.288943 -393.863281 C 129.833779 -395.710938 132.359017 -397.777344 133.744113 -401.597656 L 133.97125 -402.234375 L 133.975704 -343.980469 C 133.980158 -311.941406 133.966797 -285.726562 133.944528 -285.726562 C 133.926714 -285.726562 133.855455 -285.914062 133.788649 -286.140625 Z M 133.788649 -286.140625 " transform="matrix(0, 0.877083, -1, 0, 0, 0)"/>
<g clip-path="url(#clip-3)">
<path fill="none" stroke-width="1.984252" stroke-linecap="square" stroke-linejoin="round" stroke="rgb(62.744141%, 85.096741%, 82.743835%)" stroke-opacity="1" stroke-miterlimit="4" d="M 16.421875 117.027344 L 18.339844 116.738281 L 20.070312 116.40625 L 21.683594 116.03125 L 23.175781 115.609375 L 24.589844 115.144531 L 25.921875 114.628906 L 27.210938 114.058594 L 28.441406 113.441406 L 29.652344 112.753906 L 30.820312 112.011719 L 31.96875 111.199219 L 33.097656 110.320312 L 34.226562 109.347656 L 35.335938 108.304688 L 36.445312 107.164062 L 37.554688 105.929688 L 38.683594 104.5625 L 39.8125 103.089844 L 40.964844 101.476562 L 42.132812 99.714844 L 43.34375 97.765625 L 44.574219 95.652344 L 45.863281 93.296875 L 47.195312 90.71875 L 48.605469 87.835938 L 50.136719 84.546875 L 51.832031 80.738281 L 53.808594 76.117188 L 56.632812 69.324219 L 60.261719 60.609375 L 62.074219 56.4375 L 63.566406 53.171875 L 64.878906 50.46875 L 66.046875 48.210938 L 67.117188 46.289062 L 68.105469 44.652344 L 69.03125 43.242188 L 69.898438 42.046875 L 70.726562 41.019531 L 71.511719 40.152344 L 72.257812 39.433594 L 72.964844 38.84375 L 73.648438 38.359375 L 74.296875 37.988281 L 74.921875 37.703125 L 75.527344 37.503906 L 76.128906 37.371094 L 76.714844 37.3125 L 77.300781 37.324219 L 77.886719 37.402344 L 78.488281 37.554688 L 79.09375 37.777344 L 79.71875 38.085938 L 80.367188 38.480469 L 81.03125 38.96875 L 81.714844 39.5625 L 82.441406 40.28125 L 83.207031 41.140625 L 84.015625 42.152344 L 84.863281 43.332031 L 85.75 44.683594 L 86.695312 46.253906 L 87.726562 48.097656 L 88.835938 50.226562 L 90.042969 52.703125 L 91.414062 55.671875 L 93.007812 59.292969 L 95.003906 64.011719 L 102.304688 81.429688 L 104.039062 85.296875 L 105.589844 88.59375 L 107.042969 91.515625 L 108.414062 94.121094 L 109.726562 96.464844 L 110.976562 98.5625 L 112.183594 100.460938 L 113.375 102.199219 L 114.542969 103.789062 L 115.695312 105.234375 L 116.824219 106.546875 L 117.953125 107.757812 L 119.082031 108.867188 L 120.210938 109.878906 L 121.339844 110.800781 L 122.488281 111.652344 L 123.660156 112.433594 L 124.847656 113.144531 L 126.058594 113.785156 L 127.308594 114.371094 L 128.621094 114.910156 L 129.992188 115.398438 L 131.421875 115.835938 L 132.933594 116.222656 L 134.570312 116.570312 L 136.34375 116.875 L 137.390625 117.023438 "/>
</g>
<path fill-rule="nonzero" fill="rgb(0%, 0%, 0%)" fill-opacity="1" d="M 189.417969 19.816406 C 189.484375 19.546875 189.738281 18.5625 190.472656 18.5625 C 190.519531 18.5625 190.789062 18.5625 191.007812 18.695312 C 190.707031 18.761719 190.503906 19.011719 190.503906 19.28125 C 190.503906 19.445312 190.621094 19.648438 190.90625 19.648438 C 191.140625 19.648438 191.472656 19.464844 191.472656 19.03125 C 191.472656 18.476562 190.855469 18.328125 190.488281 18.328125 C 189.871094 18.328125 189.503906 18.894531 189.367188 19.128906 C 189.101562 18.429688 188.535156 18.328125 188.214844 18.328125 C 187.113281 18.328125 186.496094 19.699219 186.496094 19.964844 C 186.496094 20.082031 186.613281 20.082031 186.628906 20.082031 C 186.714844 20.082031 186.746094 20.046875 186.761719 19.964844 C 187.128906 18.828125 187.832031 18.5625 188.199219 18.5625 C 188.398438 18.5625 188.765625 18.664062 188.765625 19.28125 C 188.765625 19.613281 188.582031 20.316406 188.199219 21.820312 C 188.03125 22.46875 187.648438 22.921875 187.179688 22.921875 C 187.113281 22.921875 186.878906 22.921875 186.644531 22.789062 C 186.914062 22.722656 187.148438 22.503906 187.148438 22.203125 C 187.148438 21.917969 186.914062 21.835938 186.761719 21.835938 C 186.429688 21.835938 186.179688 22.101562 186.179688 22.453125 C 186.179688 22.9375 186.695312 23.15625 187.164062 23.15625 C 187.882812 23.15625 188.265625 22.402344 188.28125 22.355469 C 188.417969 22.738281 188.800781 23.15625 189.4375 23.15625 C 190.539062 23.15625 191.140625 21.785156 191.140625 21.519531 C 191.140625 21.402344 191.054688 21.402344 191.023438 21.402344 C 190.921875 21.402344 190.90625 21.453125 190.871094 21.519531 C 190.519531 22.671875 189.804688 22.921875 189.46875 22.921875 C 189.050781 22.921875 188.882812 22.585938 188.882812 22.21875 C 188.882812 21.984375 188.933594 21.753906 189.050781 21.285156 Z M 189.417969 19.816406 "/>
<path fill-rule="nonzero" fill="rgb(0%, 0%, 0%)" fill-opacity="1" d="M 202.222656 19.546875 C 202.390625 19.546875 202.589844 19.546875 202.589844 19.347656 C 202.589844 19.128906 202.390625 19.128906 202.242188 19.128906 L 195.859375 19.128906 C 195.710938 19.128906 195.507812 19.128906 195.507812 19.347656 C 195.507812 19.546875 195.710938 19.546875 195.859375 19.546875 Z M 202.242188 21.617188 C 202.390625 21.617188 202.589844 21.617188 202.589844 21.402344 C 202.589844 21.199219 202.390625 21.199219 202.222656 21.199219 L 195.859375 21.199219 C 195.710938 21.199219 195.507812 21.199219 195.507812 21.402344 C 195.507812 21.617188 195.710938 21.617188 195.859375 21.617188 Z M 202.242188 21.617188 "/>
<path fill-rule="nonzero" fill="rgb(0%, 0%, 0%)" fill-opacity="1" d="M 209.558594 16.339844 L 209.558594 15.671875 L 208.789062 15.671875 C 208.019531 15.671875 207.25 16.191406 207.21875 17.59375 L 207.21875 18.226562 L 206.433594 18.226562 L 206.433594 18.878906 L 207.21875 18.878906 L 207.21875 23.039062 L 208.019531 23.039062 L 208.019531 18.878906 L 209.375 18.878906 L 209.375 18.226562 L 208.019531 18.226562 L 208.019531 17.492188 C 208.019531 16.558594 208.554688 16.339844 208.773438 16.339844 Z M 209.558594 16.339844 "/>
<path fill-rule="nonzero" fill="rgb(0%, 0%, 0%)" fill-opacity="1" d="M 212.289062 25.710938 L 212.289062 25.277344 L 211.253906 25.277344 L 211.253906 15.472656 L 212.289062 15.472656 L 212.289062 15.039062 L 210.820312 15.039062 L 210.820312 25.710938 Z M 212.289062 25.710938 "/>
<path fill-rule="nonzero" fill="rgb(0%, 0%, 0%)" fill-opacity="1" d="M 213.945312 22.152344 C 214.515625 21.535156 214.832031 21.269531 215.214844 20.933594 C 215.214844 20.933594 215.867188 20.367188 216.25 19.980469 C 217.269531 18.996094 217.503906 18.476562 217.503906 18.429688 C 217.503906 18.328125 217.402344 18.328125 217.386719 18.328125 C 217.304688 18.328125 217.285156 18.34375 217.21875 18.445312 C 216.902344 18.960938 216.683594 19.128906 216.433594 19.128906 C 216.167969 19.128906 216.050781 18.960938 215.882812 18.777344 C 215.683594 18.546875 215.5 18.328125 215.148438 18.328125 C 214.347656 18.328125 213.863281 19.3125 213.863281 19.546875 C 213.863281 19.597656 213.894531 19.664062 213.980469 19.664062 C 214.078125 19.664062 214.097656 19.613281 214.128906 19.546875 C 214.332031 19.046875 214.949219 19.046875 215.03125 19.046875 C 215.25 19.046875 215.449219 19.113281 215.699219 19.195312 C 216.132812 19.363281 216.25 19.363281 216.519531 19.363281 C 216.132812 19.816406 215.25 20.582031 215.046875 20.75 L 214.078125 21.652344 C 213.363281 22.371094 212.976562 22.972656 212.976562 23.054688 C 212.976562 23.15625 213.09375 23.15625 213.109375 23.15625 C 213.195312 23.15625 213.210938 23.140625 213.277344 23.023438 C 213.527344 22.636719 213.847656 22.355469 214.195312 22.355469 C 214.429688 22.355469 214.546875 22.453125 214.816406 22.753906 C 214.980469 22.988281 215.183594 23.15625 215.484375 23.15625 C 216.550781 23.15625 217.167969 21.800781 217.167969 21.519531 C 217.167969 21.46875 217.121094 21.402344 217.035156 21.402344 C 216.9375 21.402344 216.917969 21.46875 216.886719 21.550781 C 216.636719 22.238281 215.949219 22.4375 215.601562 22.4375 C 215.398438 22.4375 215.199219 22.371094 214.980469 22.304688 C 214.613281 22.171875 214.445312 22.121094 214.230469 22.121094 C 214.214844 22.121094 214.046875 22.121094 213.945312 22.152344 Z M 213.945312 22.152344 "/>
<path fill-rule="nonzero" fill="rgb(0%, 0%, 0%)" fill-opacity="1" d="M 220.121094 23.023438 C 220.121094 22.320312 219.851562 21.902344 219.433594 21.902344 C 219.085938 21.902344 218.867188 22.171875 218.867188 22.46875 C 218.867188 22.753906 219.085938 23.039062 219.433594 23.039062 C 219.550781 23.039062 219.703125 22.988281 219.800781 22.90625 C 219.835938 22.871094 219.851562 22.871094 219.851562 22.871094 C 219.871094 22.871094 219.871094 22.871094 219.871094 23.023438 C 219.871094 23.824219 219.5 24.457031 219.152344 24.808594 C 219.035156 24.925781 219.035156 24.941406 219.035156 24.976562 C 219.035156 25.058594 219.085938 25.09375 219.132812 25.09375 C 219.25 25.09375 220.121094 24.273438 220.121094 23.023438 Z M 220.121094 23.023438 "/>
<path fill-rule="nonzero" fill="rgb(0%, 0%, 0%)" fill-opacity="1" d="M 228.078125 15.957031 C 228.109375 15.824219 228.109375 15.804688 228.109375 15.789062 C 228.109375 15.640625 227.960938 15.640625 227.859375 15.640625 C 227.640625 15.640625 227.640625 15.671875 227.574219 15.890625 L 227.058594 17.992188 C 227.007812 18.144531 227.007812 18.144531 226.992188 18.160156 C 226.972656 18.160156 226.957031 18.175781 226.789062 18.195312 C 224.585938 18.3125 223.28125 19.832031 223.28125 21.183594 C 223.28125 22.320312 224.199219 23.105469 225.753906 23.15625 L 225.304688 25.042969 C 225.304688 25.191406 225.453125 25.191406 225.554688 25.191406 C 225.722656 25.191406 225.769531 25.175781 225.820312 24.992188 L 226.1875 23.507812 C 226.253906 23.207031 226.273438 23.1875 226.289062 23.171875 C 226.304688 23.171875 226.324219 23.171875 226.488281 23.15625 C 228.660156 23.023438 229.996094 21.535156 229.996094 20.164062 C 229.996094 19.011719 229.078125 18.246094 227.523438 18.195312 Z M 225.855469 22.769531 C 224.9375 22.722656 224.367188 22.320312 224.367188 21.46875 C 224.367188 21.167969 224.484375 20.183594 225.054688 19.480469 C 225.421875 19.011719 226.039062 18.644531 226.90625 18.578125 Z M 227.425781 18.578125 C 228.34375 18.628906 228.910156 19.011719 228.910156 19.882812 C 228.910156 20.183594 228.792969 21.167969 228.226562 21.871094 C 227.859375 22.335938 227.242188 22.703125 226.371094 22.769531 Z M 227.425781 18.578125 "/>
<path fill-rule="nonzero" fill="rgb(0%, 0%, 0%)" fill-opacity="1" d="M 231.957031 15.039062 L 230.503906 15.039062 L 230.503906 15.472656 L 231.539062 15.472656 L 231.539062 25.277344 L 230.503906 25.277344 L 230.503906 25.710938 L 231.957031 25.710938 Z M 231.957031 15.039062 "/>
<path fill="none" stroke-width="0.850394" stroke-linecap="butt" stroke-linejoin="miter" stroke="rgb(50.195312%, 50.195312%, 50.195312%)" stroke-opacity="1" stroke-miterlimit="4" d="M 16.460938 117.929688 L 16.460938 119.8125 "/>
<path fill="none" stroke-width="0.850394" stroke-linecap="butt" stroke-linejoin="miter" stroke="rgb(50.195312%, 50.195312%, 50.195312%)" stroke-opacity="1" stroke-miterlimit="4" d="M 76.660156 118.023438 L 76.660156 119.90625 "/>
<path fill="none" stroke-width="0.850394" stroke-linecap="butt" stroke-linejoin="miter" stroke="rgb(50.195312%, 50.195312%, 50.195312%)" stroke-opacity="1" stroke-miterlimit="4" d="M 137.15625 118.023438 L 137.15625 119.90625 "/>
<path fill="none" stroke-width="0.850394" stroke-linecap="butt" stroke-linejoin="miter" stroke="rgb(50.195312%, 50.195312%, 50.195312%)" stroke-opacity="1" stroke-miterlimit="4" d="M 28.363281 119.214844 L 28.363281 117.929688 "/>
<path fill="none" stroke-width="0.850394" stroke-linecap="butt" stroke-linejoin="miter" stroke="rgb(50.195312%, 50.195312%, 50.195312%)" stroke-opacity="1" stroke-miterlimit="4" d="M 40.4375 119.214844 L 40.4375 117.929688 "/>
<path fill="none" stroke-width="0.850394" stroke-linecap="butt" stroke-linejoin="miter" stroke="rgb(50.195312%, 50.195312%, 50.195312%)" stroke-opacity="1" stroke-miterlimit="4" d="M 52.511719 119.214844 L 52.511719 117.929688 "/>
<path fill="none" stroke-width="0.850394" stroke-linecap="butt" stroke-linejoin="miter" stroke="rgb(50.195312%, 50.195312%, 50.195312%)" stroke-opacity="1" stroke-miterlimit="4" d="M 64.585938 119.214844 L 64.585938 117.929688 "/>
<path fill="none" stroke-width="0.850394" stroke-linecap="butt" stroke-linejoin="miter" stroke="rgb(50.195312%, 50.195312%, 50.195312%)" stroke-opacity="1" stroke-miterlimit="4" d="M 88.734375 119.214844 L 88.734375 117.929688 "/>
<path fill="none" stroke-width="0.850394" stroke-linecap="butt" stroke-linejoin="miter" stroke="rgb(50.195312%, 50.195312%, 50.195312%)" stroke-opacity="1" stroke-miterlimit="4" d="M 100.808594 119.214844 L 100.808594 117.929688 "/>
<path fill="none" stroke-width="0.850394" stroke-linecap="butt" stroke-linejoin="miter" stroke="rgb(50.195312%, 50.195312%, 50.195312%)" stroke-opacity="1" stroke-miterlimit="4" d="M 124.957031 119.214844 L 124.957031 117.929688 "/>
<path fill="none" stroke-width="0.850394" stroke-linecap="butt" stroke-linejoin="miter" stroke="rgb(50.195312%, 50.195312%, 50.195312%)" stroke-opacity="1" stroke-miterlimit="4" d="M 112.882812 119.214844 L 112.882812 117.929688 "/>
<path fill="none" stroke-width="0.850394" stroke-linecap="butt" stroke-linejoin="miter" stroke="rgb(50.195312%, 50.195312%, 50.195312%)" stroke-opacity="1" stroke-miterlimit="4" d="M 16.164062 117.734375 L 14.28125 117.734375 "/>
<path fill-rule="nonzero" fill="rgb(50.195312%, 50.195312%, 50.195312%)" fill-opacity="1" d="M 10.457031 124.15625 L 12.253906 124.15625 L 12.253906 124.675781 L 10.457031 124.675781 Z M 10.457031 124.15625 "/>
<path fill-rule="nonzero" fill="rgb(50.195312%, 50.195312%, 50.195312%)" fill-opacity="1" d="M 16.34375 124.613281 C 16.34375 124.007812 15.972656 123.449219 15.28125 123.253906 C 15.875 123.03125 16.21875 122.597656 16.21875 122.027344 C 16.21875 121.074219 15.429688 120.640625 14.5625 120.640625 C 14.128906 120.640625 13.59375 120.738281 13.210938 120.863281 L 13.210938 121.46875 C 13.632812 121.320312 13.992188 121.195312 14.5 121.195312 C 15.144531 121.195312 15.664062 121.429688 15.664062 122.125 C 15.652344 122.757812 15.144531 123.015625 14.523438 123.015625 L 13.941406 123.015625 L 13.941406 123.550781 L 14.5 123.550781 C 15.21875 123.550781 15.789062 123.859375 15.789062 124.613281 C 15.789062 125.507812 15.167969 125.753906 14.363281 125.753906 C 13.792969 125.753906 13.445312 125.65625 13.050781 125.382812 L 13.050781 126.050781 C 13.445312 126.1875 13.90625 126.3125 14.375 126.3125 C 15.476562 126.3125 16.34375 125.816406 16.34375 124.613281 Z M 16.34375 124.613281 "/>
<path fill-rule="nonzero" fill="rgb(50.195312%, 50.195312%, 50.195312%)" fill-opacity="1" d="M 17.320312 125.394531 L 18.074219 125.394531 L 18.074219 126.199219 L 17.320312 126.199219 Z M 17.320312 125.394531 "/>
<path fill-rule="nonzero" fill="rgb(50.195312%, 50.195312%, 50.195312%)" fill-opacity="1" d="M 22.554688 123.488281 C 22.542969 122.324219 22.28125 120.640625 20.808594 120.640625 C 19.332031 120.640625 19.085938 122.347656 19.085938 123.488281 C 19.085938 124.640625 19.34375 126.3125 20.808594 126.3125 C 22.269531 126.3125 22.554688 124.640625 22.554688 123.488281 Z M 21.984375 123.488281 C 21.984375 124.242188 21.921875 125.792969 20.808594 125.792969 C 19.691406 125.792969 19.65625 124.21875 19.65625 123.488281 C 19.65625 122.746094 19.679688 121.148438 20.808594 121.148438 C 21.921875 121.148438 21.984375 122.757812 21.984375 123.488281 Z M 21.984375 123.488281 "/>
<path fill-rule="nonzero" fill="rgb(50.195312%, 50.195312%, 50.195312%)" fill-opacity="1" d="M 135.574219 124.613281 C 135.574219 124.007812 135.203125 123.449219 134.507812 123.253906 C 135.101562 123.03125 135.449219 122.597656 135.449219 122.027344 C 135.449219 121.074219 134.65625 120.640625 133.789062 120.640625 C 133.355469 120.640625 132.824219 120.738281 132.441406 120.863281 L 132.441406 121.46875 C 132.863281 121.320312 133.21875 121.195312 133.726562 121.195312 C 134.371094 121.195312 134.894531 121.429688 134.894531 122.125 C 134.878906 122.757812 134.371094 123.015625 133.753906 123.015625 L 133.171875 123.015625 L 133.171875 123.550781 L 133.726562 123.550781 C 134.445312 123.550781 135.015625 123.859375 135.015625 124.613281 C 135.015625 125.507812 134.398438 125.753906 133.59375 125.753906 C 133.023438 125.753906 132.675781 125.65625 132.277344 125.382812 L 132.277344 126.050781 C 132.675781 126.1875 133.132812 126.3125 133.605469 126.3125 C 134.707031 126.3125 135.574219 125.816406 135.574219 124.613281 Z M 135.574219 124.613281 "/>
<path fill-rule="nonzero" fill="rgb(50.195312%, 50.195312%, 50.195312%)" fill-opacity="1" d="M 136.550781 125.394531 L 137.304688 125.394531 L 137.304688 126.199219 L 136.550781 126.199219 Z M 136.550781 125.394531 "/>
<path fill-rule="nonzero" fill="rgb(50.195312%, 50.195312%, 50.195312%)" fill-opacity="1" d="M 141.78125 123.488281 C 141.769531 122.324219 141.511719 120.640625 140.035156 120.640625 C 138.5625 120.640625 138.316406 122.347656 138.316406 123.488281 C 138.316406 124.640625 138.574219 126.3125 140.035156 126.3125 C 141.496094 126.3125 141.78125 124.640625 141.78125 123.488281 Z M 141.214844 123.488281 C 141.214844 124.242188 141.152344 125.792969 140.035156 125.792969 C 138.921875 125.792969 138.882812 124.21875 138.882812 123.488281 C 138.882812 122.746094 138.910156 121.148438 140.035156 121.148438 C 141.152344 121.148438 141.214844 122.757812 141.214844 123.488281 Z M 141.214844 123.488281 "/>
<path fill-rule="nonzero" fill="rgb(0%, 0%, 0%)" fill-opacity="1" d="M 319.996094 12.21875 L 319.996094 4.851562 L 319.195312 4.851562 L 316.921875 9.210938 L 314.617188 4.851562 L 313.816406 4.851562 L 313.816406 12.21875 L 314.617188 12.21875 L 314.617188 6.320312 L 316.921875 10.78125 L 319.195312 6.320312 L 319.195312 12.21875 Z M 319.996094 12.21875 "/>
<path fill-rule="nonzero" fill="rgb(0%, 0%, 0%)" fill-opacity="1" d="M 325.738281 9.8125 C 325.738281 8.59375 325.085938 7.289062 323.484375 7.289062 C 322.03125 7.289062 321.210938 8.410156 321.210938 9.8125 C 321.210938 11.132812 322.066406 12.316406 323.484375 12.351562 C 324.921875 12.316406 325.738281 11.164062 325.738281 9.8125 Z M 324.953125 9.8125 C 324.953125 10.761719 324.371094 11.617188 323.484375 11.617188 C 322.28125 11.597656 322.015625 10.53125 322.015625 9.792969 C 322.015625 8.824219 322.480469 8.023438 323.484375 8.007812 C 324.417969 8.023438 324.953125 8.894531 324.953125 9.8125 Z M 324.953125 9.8125 "/>
<path fill-rule="nonzero" fill="rgb(0%, 0%, 0%)" fill-opacity="1" d="M 326.722656 9.8125 C 326.722656 11.230469 327.660156 12.21875 329.09375 12.21875 L 331.132812 12.21875 L 331.132812 4.851562 L 330.332031 4.851562 L 330.332031 7.40625 L 329.164062 7.40625 C 327.59375 7.40625 326.722656 8.375 326.722656 9.8125 Z M 327.492188 9.8125 C 327.492188 8.875 328.09375 8.109375 329.164062 8.109375 L 330.332031 8.109375 L 330.332031 11.515625 L 329.164062 11.515625 C 328.109375 11.515625 327.492188 10.847656 327.492188 9.8125 Z M 327.492188 9.8125 "/>
<path fill-rule="nonzero" fill="rgb(0%, 0%, 0%)" fill-opacity="1" d="M 336.730469 9.8125 L 336.730469 9.726562 C 336.730469 8.339844 336.160156 7.324219 334.574219 7.289062 C 333.15625 7.289062 332.351562 8.523438 332.351562 9.863281 C 332.351562 11.316406 333.238281 12.351562 334.707031 12.351562 C 335.375 12.351562 335.976562 12.199219 336.5625 11.984375 L 336.5625 11.179688 C 335.792969 11.546875 335.675781 11.632812 334.773438 11.632812 C 333.773438 11.632812 333.171875 11.03125 333.171875 9.894531 L 333.171875 9.8125 Z M 335.945312 9.160156 L 333.203125 9.160156 C 333.304688 8.523438 333.773438 7.972656 334.574219 7.972656 C 335.410156 7.972656 335.945312 8.492188 335.945312 9.160156 Z M 335.945312 9.160156 "/>
<path fill-rule="nonzero" fill="rgb(0%, 0%, 0%)" fill-opacity="1" d="M 337.769531 4.851562 L 338.554688 4.851562 L 338.554688 12.21875 L 337.769531 12.21875 Z M 337.769531 4.851562 "/>
<path fill-rule="nonzero" fill="rgb(0%, 0%, 0%)" fill-opacity="1" d="M 342.945312 9.8125 C 342.945312 11.230469 343.878906 12.21875 345.316406 12.21875 L 347.355469 12.21875 L 347.355469 4.851562 L 346.550781 4.851562 L 346.550781 7.40625 L 345.382812 7.40625 C 343.8125 7.40625 342.945312 8.375 342.945312 9.8125 Z M 343.710938 9.8125 C 343.710938 8.875 344.3125 8.109375 345.382812 8.109375 L 346.550781 8.109375 L 346.550781 11.515625 L 345.382812 11.515625 C 344.332031 11.515625 343.710938 10.847656 343.710938 9.8125 Z M 343.710938 9.8125 "/>
<path fill-rule="nonzero" fill="rgb(0%, 0%, 0%)" fill-opacity="1" d="M 352.949219 9.8125 L 352.949219 9.726562 C 352.949219 8.339844 352.382812 7.324219 350.796875 7.289062 C 349.375 7.289062 348.574219 8.523438 348.574219 9.863281 C 348.574219 11.316406 349.457031 12.351562 350.929688 12.351562 C 351.597656 12.351562 352.199219 12.199219 352.78125 11.984375 L 352.78125 11.179688 C 352.015625 11.546875 351.898438 11.632812 350.996094 11.632812 C 349.992188 11.632812 349.390625 11.03125 349.390625 9.894531 L 349.390625 9.8125 Z M 352.164062 9.160156 L 349.425781 9.160156 C 349.527344 8.523438 349.992188 7.972656 350.796875 7.972656 C 351.628906 7.972656 352.164062 8.492188 352.164062 9.160156 Z M 352.164062 9.160156 "/>
<path fill-rule="nonzero" fill="rgb(0%, 0%, 0%)" fill-opacity="1" d="M 358.25 12.21875 L 358.25 9.308594 C 358.25 8.175781 357.765625 7.289062 356.527344 7.289062 C 355.910156 7.289062 355.277344 7.523438 354.890625 8.058594 L 354.890625 7.40625 L 354.105469 7.40625 L 354.105469 12.21875 L 354.890625 12.21875 L 354.890625 9.496094 C 354.925781 8.574219 355.492188 7.992188 356.34375 7.992188 C 357.179688 7.992188 357.480469 8.492188 357.480469 9.34375 L 357.480469 12.21875 Z M 358.25 12.21875 "/>
<path fill-rule="nonzero" fill="rgb(0%, 0%, 0%)" fill-opacity="1" d="M 363.179688 10.878906 C 363.179688 9.929688 362.527344 9.628906 361.660156 9.460938 L 361.324219 9.394531 C 360.859375 9.292969 360.171875 9.195312 360.171875 8.675781 C 360.207031 8.074219 360.910156 7.957031 361.441406 7.957031 C 362.292969 7.992188 362.226562 8.039062 362.945312 8.339844 L 362.945312 7.554688 C 362.496094 7.371094 361.925781 7.289062 361.34375 7.289062 C 360.390625 7.289062 359.457031 7.640625 359.457031 8.710938 C 359.472656 9.578125 360.054688 9.910156 360.859375 10.0625 L 361.160156 10.128906 C 361.742188 10.261719 362.410156 10.328125 362.410156 10.949219 C 362.378906 11.546875 361.695312 11.664062 361.160156 11.664062 C 360.273438 11.648438 360.140625 11.546875 359.371094 11.179688 L 359.371094 12.050781 C 359.824219 12.167969 360.609375 12.351562 361.140625 12.351562 C 362.078125 12.351562 363.179688 12 363.179688 10.878906 Z M 363.179688 10.878906 "/>
<path fill-rule="nonzero" fill="rgb(0%, 0%, 0%)" fill-opacity="1" d="M 365.152344 12.21875 L 365.152344 7.40625 L 364.351562 7.40625 L 364.351562 12.21875 Z M 364.753906 4.851562 C 364.503906 4.851562 364.285156 5.085938 364.285156 5.335938 C 364.285156 5.601562 364.503906 5.835938 364.753906 5.835938 C 365.019531 5.835938 365.222656 5.601562 365.222656 5.335938 C 365.222656 5.085938 365.019531 4.851562 364.753906 4.851562 Z M 364.753906 4.851562 "/>
<path fill-rule="nonzero" fill="rgb(0%, 0%, 0%)" fill-opacity="1" d="M 369.308594 12.21875 L 369.308594 11.53125 L 368.476562 11.53125 C 367.722656 11.53125 367.589844 11.347656 367.589844 10.648438 L 367.589844 8.039062 L 369.007812 8.039062 L 369.007812 7.40625 L 367.589844 7.40625 L 367.589844 6.035156 L 367.253906 6.035156 L 366.804688 7.40625 L 366.238281 7.40625 L 366.238281 8.039062 L 366.804688 8.039062 L 366.804688 10.648438 C 366.804688 11.847656 367.289062 12.21875 368.476562 12.21875 Z M 369.308594 12.21875 "/>
<path fill-rule="nonzero" fill="rgb(0%, 0%, 0%)" fill-opacity="1" d="M 374.4375 7.40625 L 373.703125 7.40625 L 372.214844 10.929688 L 370.480469 7.40625 L 369.726562 7.40625 L 371.816406 11.714844 L 370.996094 13.652344 C 370.863281 13.988281 370.414062 14.238281 370.195312 14.238281 L 370.460938 14.789062 C 370.863281 14.753906 371.28125 14.472656 371.546875 14.054688 Z M 374.4375 7.40625 "/>
<path fill="none" stroke-width="0.850394" stroke-linecap="butt" stroke-linejoin="miter" stroke="rgb(50.195312%, 50.195312%, 50.195312%)" stroke-opacity="1" stroke-miterlimit="4" d="M 283.773438 118.023438 L 283.773438 119.90625 "/>
<path fill="none" stroke-width="0.850394" stroke-linecap="butt" stroke-linejoin="miter" stroke="rgb(50.195312%, 50.195312%, 50.195312%)" stroke-opacity="1" stroke-miterlimit="4" d="M 343.972656 118.023438 L 343.972656 119.90625 "/>
<path fill="none" stroke-width="0.850394" stroke-linecap="butt" stroke-linejoin="miter" stroke="rgb(50.195312%, 50.195312%, 50.195312%)" stroke-opacity="1" stroke-miterlimit="4" d="M 404.476562 118.023438 L 404.476562 119.90625 "/>
<path fill="none" stroke-width="0.850394" stroke-linecap="butt" stroke-linejoin="miter" stroke="rgb(50.195312%, 50.195312%, 50.195312%)" stroke-opacity="1" stroke-miterlimit="4" d="M 295.675781 119.308594 L 295.675781 118.023438 "/>
<path fill="none" stroke-width="0.850394" stroke-linecap="butt" stroke-linejoin="miter" stroke="rgb(50.195312%, 50.195312%, 50.195312%)" stroke-opacity="1" stroke-miterlimit="4" d="M 307.75 119.308594 L 307.75 118.023438 "/>
<path fill="none" stroke-width="0.850394" stroke-linecap="butt" stroke-linejoin="miter" stroke="rgb(50.195312%, 50.195312%, 50.195312%)" stroke-opacity="1" stroke-miterlimit="4" d="M 319.824219 119.308594 L 319.824219 118.023438 "/>
<path fill="none" stroke-width="0.850394" stroke-linecap="butt" stroke-linejoin="miter" stroke="rgb(50.195312%, 50.195312%, 50.195312%)" stroke-opacity="1" stroke-miterlimit="4" d="M 331.898438 119.308594 L 331.898438 118.023438 "/>
<path fill="none" stroke-width="0.850394" stroke-linecap="butt" stroke-linejoin="miter" stroke="rgb(50.195312%, 50.195312%, 50.195312%)" stroke-opacity="1" stroke-miterlimit="4" d="M 356.046875 119.308594 L 356.046875 118.023438 "/>
<path fill="none" stroke-width="0.850394" stroke-linecap="butt" stroke-linejoin="miter" stroke="rgb(50.195312%, 50.195312%, 50.195312%)" stroke-opacity="1" stroke-miterlimit="4" d="M 368.121094 119.308594 L 368.121094 118.023438 "/>
<path fill="none" stroke-width="0.850394" stroke-linecap="butt" stroke-linejoin="miter" stroke="rgb(50.195312%, 50.195312%, 50.195312%)" stroke-opacity="1" stroke-miterlimit="4" d="M 392.269531 119.308594 L 392.269531 118.023438 "/>
<path fill="none" stroke-width="0.850394" stroke-linecap="butt" stroke-linejoin="miter" stroke="rgb(50.195312%, 50.195312%, 50.195312%)" stroke-opacity="1" stroke-miterlimit="4" d="M 380.195312 119.308594 L 380.195312 118.023438 "/>
<path fill="none" stroke-width="0.850394" stroke-linecap="butt" stroke-linejoin="miter" stroke="rgb(50.195312%, 50.195312%, 50.195312%)" stroke-opacity="1" stroke-miterlimit="4" d="M 283.46875 117.734375 L 281.585938 117.734375 "/>
<path fill-rule="nonzero" fill="rgb(50.195312%, 50.195312%, 50.195312%)" fill-opacity="1" d="M 277.769531 124.15625 L 279.566406 124.15625 L 279.566406 124.675781 L 277.769531 124.675781 Z M 277.769531 124.15625 "/>
<path fill-rule="nonzero" fill="rgb(50.195312%, 50.195312%, 50.195312%)" fill-opacity="1" d="M 283.65625 124.613281 C 283.65625 124.007812 283.285156 123.449219 282.589844 123.253906 C 283.1875 123.03125 283.53125 122.597656 283.53125 122.027344 C 283.53125 121.074219 282.738281 120.640625 281.871094 120.640625 C 281.4375 120.640625 280.90625 120.738281 280.523438 120.863281 L 280.523438 121.46875 C 280.945312 121.320312 281.304688 121.195312 281.8125 121.195312 C 282.453125 121.195312 282.976562 121.429688 282.976562 122.125 C 282.960938 122.757812 282.453125 123.015625 281.835938 123.015625 L 281.253906 123.015625 L 281.253906 123.550781 L 281.8125 123.550781 C 282.53125 123.550781 283.097656 123.859375 283.097656 124.613281 C 283.097656 125.507812 282.480469 125.753906 281.675781 125.753906 C 281.105469 125.753906 280.757812 125.65625 280.363281 125.382812 L 280.363281 126.050781 C 280.757812 126.1875 281.214844 126.3125 281.6875 126.3125 C 282.789062 126.3125 283.65625 125.816406 283.65625 124.613281 Z M 283.65625 124.613281 "/>
<path fill-rule="nonzero" fill="rgb(50.195312%, 50.195312%, 50.195312%)" fill-opacity="1" d="M 284.632812 125.394531 L 285.386719 125.394531 L 285.386719 126.199219 L 284.632812 126.199219 Z M 284.632812 125.394531 "/>
<path fill-rule="nonzero" fill="rgb(50.195312%, 50.195312%, 50.195312%)" fill-opacity="1" d="M 289.867188 123.488281 C 289.851562 122.324219 289.59375 120.640625 288.117188 120.640625 C 286.644531 120.640625 286.398438 122.347656 286.398438 123.488281 C 286.398438 124.640625 286.65625 126.3125 288.117188 126.3125 C 289.582031 126.3125 289.867188 124.640625 289.867188 123.488281 Z M 289.296875 123.488281 C 289.296875 124.242188 289.234375 125.792969 288.117188 125.792969 C 287.003906 125.792969 286.96875 124.21875 286.96875 123.488281 C 286.96875 122.746094 286.992188 121.148438 288.117188 121.148438 C 289.234375 121.148438 289.296875 122.757812 289.296875 123.488281 Z M 289.296875 123.488281 "/>
<path fill-rule="nonzero" fill="rgb(50.195312%, 50.195312%, 50.195312%)" fill-opacity="1" d="M 402.886719 124.613281 C 402.886719 124.007812 402.515625 123.449219 401.820312 123.253906 C 402.414062 123.03125 402.761719 122.597656 402.761719 122.027344 C 402.761719 121.074219 401.96875 120.640625 401.101562 120.640625 C 400.667969 120.640625 400.136719 120.738281 399.753906 120.863281 L 399.753906 121.46875 C 400.171875 121.320312 400.53125 121.195312 401.039062 121.195312 C 401.683594 121.195312 402.203125 121.429688 402.203125 122.125 C 402.191406 122.757812 401.683594 123.015625 401.066406 123.015625 L 400.484375 123.015625 L 400.484375 123.550781 L 401.039062 123.550781 C 401.757812 123.550781 402.328125 123.859375 402.328125 124.613281 C 402.328125 125.507812 401.710938 125.753906 400.902344 125.753906 C 400.335938 125.753906 399.988281 125.65625 399.589844 125.382812 L 399.589844 126.050781 C 399.988281 126.1875 400.445312 126.3125 400.917969 126.3125 C 402.019531 126.3125 402.886719 125.816406 402.886719 124.613281 Z M 402.886719 124.613281 "/>
<path fill-rule="nonzero" fill="rgb(50.195312%, 50.195312%, 50.195312%)" fill-opacity="1" d="M 403.859375 125.394531 L 404.617188 125.394531 L 404.617188 126.199219 L 403.859375 126.199219 Z M 403.859375 125.394531 "/>
<g clip-path="url(#clip-4)">
<path fill-rule="nonzero" fill="rgb(50.195312%, 50.195312%, 50.195312%)" fill-opacity="1" d="M 409.09375 123.488281 C 409.082031 122.324219 408.824219 120.640625 407.347656 120.640625 C 405.875 120.640625 405.625 122.347656 405.625 123.488281 C 405.625 124.640625 405.886719 126.3125 407.347656 126.3125 C 408.808594 126.3125 409.09375 124.640625 409.09375 123.488281 Z M 408.523438 123.488281 C 408.523438 124.242188 408.464844 125.792969 407.347656 125.792969 C 406.234375 125.792969 406.195312 124.21875 406.195312 123.488281 C 406.195312 122.746094 406.222656 121.148438 407.347656 121.148438 C 408.464844 121.148438 408.523438 122.757812 408.523438 123.488281 Z M 408.523438 123.488281 "/>
</g>
<path fill="none" stroke-width="0.850394" stroke-linecap="butt" stroke-linejoin="miter" stroke="rgb(50.195312%, 50.195312%, 50.195312%)" stroke-opacity="1" stroke-miterlimit="4" d="M -16.464844 -16.164062 L -16.464844 -14.28125 " transform="matrix(0, -1, -1, 0, 0, 0)"/>
<path fill="none" stroke-width="0.850394" stroke-linecap="butt" stroke-linejoin="miter" stroke="rgb(50.195312%, 50.195312%, 50.195312%)" stroke-opacity="1" stroke-miterlimit="4" d="M -97.230469 -14.882812 L -97.230469 -16.164062 " transform="matrix(0, -1, -1, 0, 0, 0)"/>
<path fill="none" stroke-width="0.850394" stroke-linecap="butt" stroke-linejoin="miter" stroke="rgb(50.195312%, 50.195312%, 50.195312%)" stroke-opacity="1" stroke-miterlimit="4" d="M -77.039062 -14.882812 L -77.039062 -16.164062 " transform="matrix(0, -1, -1, 0, 0, 0)"/>
<path fill="none" stroke-width="0.850394" stroke-linecap="butt" stroke-linejoin="miter" stroke="rgb(50.195312%, 50.195312%, 50.195312%)" stroke-opacity="1" stroke-miterlimit="4" d="M -36.65625 -14.882812 L -36.65625 -16.164062 " transform="matrix(0, -1, -1, 0, 0, 0)"/>
<path fill="none" stroke-width="0.850394" stroke-linecap="butt" stroke-linejoin="miter" stroke="rgb(50.195312%, 50.195312%, 50.195312%)" stroke-opacity="1" stroke-miterlimit="4" d="M -56.847656 -14.882812 L -56.847656 -16.164062 " transform="matrix(0, -1, -1, 0, 0, 0)"/>
<path fill-rule="nonzero" fill="rgb(50.195312%, 50.195312%, 50.195312%)" fill-opacity="1" d="M 7.128906 16.152344 C 7.117188 14.984375 6.855469 13.300781 5.382812 13.300781 C 3.910156 13.300781 3.660156 15.011719 3.660156 16.152344 C 3.660156 17.300781 3.921875 18.976562 5.382812 18.976562 C 6.84375 18.976562 7.128906 17.300781 7.128906 16.152344 Z M 6.558594 16.152344 C 6.558594 16.90625 6.496094 18.453125 5.382812 18.453125 C 4.269531 18.453125 4.230469 16.882812 4.230469 16.152344 C 4.230469 15.40625 4.253906 13.808594 5.382812 13.808594 C 6.496094 13.808594 6.558594 15.417969 6.558594 16.152344 Z M 6.558594 16.152344 "/>
<path fill-rule="nonzero" fill="rgb(50.195312%, 50.195312%, 50.195312%)" fill-opacity="1" d="M 8.140625 18.058594 L 8.898438 18.058594 L 8.898438 18.863281 L 8.140625 18.863281 Z M 8.140625 18.058594 "/>
<path fill-rule="nonzero" fill="rgb(50.195312%, 50.195312%, 50.195312%)" fill-opacity="1" d="M 12.980469 17.128906 C 12.96875 16.015625 12.273438 15.285156 11.160156 15.285156 C 11.011719 15.296875 10.675781 15.332031 10.476562 15.40625 L 10.675781 13.96875 L 12.609375 13.96875 L 12.609375 13.402344 L 10.28125 13.402344 L 9.945312 16.101562 C 10.378906 15.890625 10.476562 15.839844 11.035156 15.839844 C 11.839844 15.839844 12.410156 16.285156 12.410156 17.128906 C 12.410156 17.996094 11.851562 18.417969 11.035156 18.417969 C 10.492188 18.417969 10.132812 18.304688 9.734375 18.058594 L 9.734375 18.738281 C 10.09375 18.875 10.625 18.976562 11.046875 18.976562 C 12.222656 18.976562 12.980469 18.332031 12.980469 17.128906 Z M 12.980469 17.128906 "/>
<path fill-rule="nonzero" fill="rgb(50.195312%, 50.195312%, 50.195312%)" fill-opacity="1" d="M 6.929688 117.503906 C 6.917969 116.339844 6.660156 114.652344 5.183594 114.652344 C 3.710938 114.652344 3.464844 116.363281 3.464844 117.503906 C 3.464844 118.65625 3.722656 120.328125 5.183594 120.328125 C 6.644531 120.328125 6.929688 118.65625 6.929688 117.503906 Z M 6.363281 117.503906 C 6.363281 118.257812 6.300781 119.804688 5.183594 119.804688 C 4.070312 119.804688 4.03125 118.234375 4.03125 117.503906 C 4.03125 116.757812 4.058594 115.160156 5.183594 115.160156 C 6.300781 115.160156 6.363281 116.773438 6.363281 117.503906 Z M 6.363281 117.503906 "/>
<path fill-rule="nonzero" fill="rgb(50.195312%, 50.195312%, 50.195312%)" fill-opacity="1" d="M 7.945312 119.410156 L 8.699219 119.410156 L 8.699219 120.214844 L 7.945312 120.214844 Z M 7.945312 119.410156 "/>
<path fill-rule="nonzero" fill="rgb(50.195312%, 50.195312%, 50.195312%)" fill-opacity="1" d="M 13.179688 117.503906 C 13.164062 116.339844 12.90625 114.652344 11.433594 114.652344 C 9.957031 114.652344 9.710938 116.363281 9.710938 117.503906 C 9.710938 118.65625 9.96875 120.328125 11.433594 120.328125 C 12.894531 120.328125 13.179688 118.65625 13.179688 117.503906 Z M 12.609375 117.503906 C 12.609375 118.257812 12.546875 119.804688 11.433594 119.804688 C 10.316406 119.804688 10.28125 118.234375 10.28125 117.503906 C 10.28125 116.757812 10.304688 115.160156 11.433594 115.160156 C 12.546875 115.160156 12.609375 116.773438 12.609375 117.503906 Z M 12.609375 117.503906 "/>
<path fill="none" stroke-width="0.850394" stroke-linecap="butt" stroke-linejoin="miter" stroke="rgb(50.195312%, 50.195312%, 50.195312%)" stroke-opacity="1" stroke-miterlimit="4" d="M -16.464844 -283.4375 L -16.464844 -281.554688 " transform="matrix(0, -1, -1, 0, 0, 0)"/>
<path fill="none" stroke-width="0.850394" stroke-linecap="butt" stroke-linejoin="miter" stroke="rgb(50.195312%, 50.195312%, 50.195312%)" stroke-opacity="1" stroke-miterlimit="4" d="M -97.230469 -282.152344 L -97.230469 -283.4375 " transform="matrix(0, -1, -1, 0, 0, 0)"/>
<path fill="none" stroke-width="0.850394" stroke-linecap="butt" stroke-linejoin="miter" stroke="rgb(50.195312%, 50.195312%, 50.195312%)" stroke-opacity="1" stroke-miterlimit="4" d="M -77.039062 -282.152344 L -77.039062 -283.4375 " transform="matrix(0, -1, -1, 0, 0, 0)"/>
<path fill="none" stroke-width="0.850394" stroke-linecap="butt" stroke-linejoin="miter" stroke="rgb(50.195312%, 50.195312%, 50.195312%)" stroke-opacity="1" stroke-miterlimit="4" d="M -36.65625 -282.152344 L -36.65625 -283.4375 " transform="matrix(0, -1, -1, 0, 0, 0)"/>
<path fill="none" stroke-width="0.850394" stroke-linecap="butt" stroke-linejoin="miter" stroke="rgb(50.195312%, 50.195312%, 50.195312%)" stroke-opacity="1" stroke-miterlimit="4" d="M -56.847656 -282.152344 L -56.847656 -283.4375 " transform="matrix(0, -1, -1, 0, 0, 0)"/>
<path fill-rule="nonzero" fill="rgb(50.195312%, 50.195312%, 50.195312%)" fill-opacity="1" d="M 274.402344 16.152344 C 274.390625 14.984375 274.128906 13.300781 272.65625 13.300781 C 271.179688 13.300781 270.933594 15.011719 270.933594 16.152344 C 270.933594 17.300781 271.195312 18.976562 272.65625 18.976562 C 274.117188 18.976562 274.402344 17.300781 274.402344 16.152344 Z M 273.832031 16.152344 C 273.832031 16.90625 273.769531 18.453125 272.65625 18.453125 C 271.539062 18.453125 271.503906 16.882812 271.503906 16.152344 C 271.503906 15.40625 271.527344 13.808594 272.65625 13.808594 C 273.769531 13.808594 273.832031 15.417969 273.832031 16.152344 Z M 273.832031 16.152344 "/>
<path fill-rule="nonzero" fill="rgb(50.195312%, 50.195312%, 50.195312%)" fill-opacity="1" d="M 275.414062 18.058594 L 276.171875 18.058594 L 276.171875 18.863281 L 275.414062 18.863281 Z M 275.414062 18.058594 "/>
<path fill-rule="nonzero" fill="rgb(50.195312%, 50.195312%, 50.195312%)" fill-opacity="1" d="M 280.253906 17.128906 C 280.238281 16.015625 279.546875 15.285156 278.429688 15.285156 C 278.28125 15.296875 277.949219 15.332031 277.75 15.40625 L 277.949219 13.96875 L 279.878906 13.96875 L 279.878906 13.402344 L 277.550781 13.402344 L 277.21875 16.101562 C 277.652344 15.890625 277.75 15.839844 278.308594 15.839844 C 279.113281 15.839844 279.683594 16.285156 279.683594 17.128906 C 279.683594 17.996094 279.125 18.417969 278.308594 18.417969 C 277.761719 18.417969 277.402344 18.304688 277.007812 18.058594 L 277.007812 18.738281 C 277.367188 18.875 277.898438 18.976562 278.320312 18.976562 C 279.496094 18.976562 280.253906 18.332031 280.253906 17.128906 Z M 280.253906 17.128906 "/>
<path fill-rule="nonzero" fill="rgb(50.195312%, 50.195312%, 50.195312%)" fill-opacity="1" d="M 274.203125 117.503906 C 274.191406 116.339844 273.929688 114.652344 272.457031 114.652344 C 270.984375 114.652344 270.734375 116.363281 270.734375 117.503906 C 270.734375 118.65625 270.996094 120.328125 272.457031 120.328125 C 273.917969 120.328125 274.203125 118.65625 274.203125 117.503906 Z M 273.632812 117.503906 C 273.632812 118.257812 273.570312 119.804688 272.457031 119.804688 C 271.34375 119.804688 271.304688 118.234375 271.304688 117.503906 C 271.304688 116.757812 271.328125 115.160156 272.457031 115.160156 C 273.570312 115.160156 273.632812 116.773438 273.632812 117.503906 Z M 273.632812 117.503906 "/>
<path fill-rule="nonzero" fill="rgb(50.195312%, 50.195312%, 50.195312%)" fill-opacity="1" d="M 275.214844 119.410156 L 275.972656 119.410156 L 275.972656 120.214844 L 275.214844 120.214844 Z M 275.214844 119.410156 "/>
<path fill-rule="nonzero" fill="rgb(50.195312%, 50.195312%, 50.195312%)" fill-opacity="1" d="M 280.449219 117.503906 C 280.4375 116.339844 280.175781 114.652344 278.703125 114.652344 C 277.230469 114.652344 276.980469 116.363281 276.980469 117.503906 C 276.980469 118.65625 277.242188 120.328125 278.703125 120.328125 C 280.164062 120.328125 280.449219 118.65625 280.449219 117.503906 Z M 279.878906 117.503906 C 279.878906 118.257812 279.820312 119.804688 278.703125 119.804688 C 277.589844 119.804688 277.550781 118.234375 277.550781 117.503906 C 277.550781 116.757812 277.578125 115.160156 278.703125 115.160156 C 279.820312 115.160156 279.878906 116.773438 279.878906 117.503906 Z M 279.878906 117.503906 "/>
<path fill-rule="nonzero" fill="rgb(62.35199%, 85.096741%, 82.743835%)" fill-opacity="0.501961" d="M 22.625 116.589844 C 25.175781 115.84375 26.195312 115.449219 28.234375 114.425781 C 36.988281 110.035156 43.730469 100.964844 51.824219 82.699219 C 52.800781 80.503906 55.390625 74.40625 57.582031 69.148438 C 62 58.566406 62.574219 57.230469 64.339844 53.46875 C 67.191406 47.386719 69.910156 42.980469 72.257812 40.644531 C 74.160156 38.753906 75.148438 38.246094 76.921875 38.246094 C 78.699219 38.246094 79.683594 38.753906 81.574219 40.644531 C 83.972656 43.042969 86.648438 47.371094 89.496094 53.464844 C 91.300781 57.328125 91.636719 58.109375 97.097656 71.101562 C 104.84375 89.535156 107.175781 94.3125 111.828125 101.265625 C 117.644531 109.957031 123.445312 114.46875 131.773438 116.765625 L 133.351562 117.203125 L 20.492188 117.210938 Z M 22.625 116.589844 "/>
<path fill="none" stroke-width="1.133858" stroke-linecap="butt" stroke-linejoin="miter" stroke="rgb(46.665955%, 23.529053%, 13.725281%)" stroke-opacity="1" stroke-miterlimit="4" d="M 106.824219 117.40625 L 106.824219 84.730469 "/>
<path fill-rule="evenodd" fill="rgb(46.665955%, 23.529053%, 13.725281%)" fill-opacity="1" stroke-width="0.302362" stroke-linecap="butt" stroke-linejoin="round" stroke="rgb(46.665955%, 23.529053%, 13.725281%)" stroke-opacity="1" stroke-miterlimit="4" d="M 86.089844 -106.824219 L 87.222656 -107.957031 L 83.253906 -106.824219 L 87.222656 -105.691406 Z M 86.089844 -106.824219 " transform="matrix(0, 1, -1, 0, 0, 0)"/>
<path fill="none" stroke-width="1.133858" stroke-linecap="butt" stroke-linejoin="miter" stroke="rgb(20.391846%, 51.371765%, 47.842407%)" stroke-opacity="1" stroke-miterlimit="4" d="M 52.621094 117.40625 L 52.621094 84.730469 "/>
<path fill-rule="evenodd" fill="rgb(20.391846%, 51.371765%, 47.842407%)" fill-opacity="1" stroke-width="0.302362" stroke-linecap="butt" stroke-linejoin="round" stroke="rgb(20.391846%, 51.371765%, 47.842407%)" stroke-opacity="1" stroke-miterlimit="4" d="M 86.089844 -52.621094 L 87.222656 -53.753906 L 83.253906 -52.621094 L 87.222656 -51.488281 Z M 86.089844 -52.621094 " transform="matrix(0, 1, -1, 0, 0, 0)"/>
<path fill="none" stroke-width="0.8505" stroke-linecap="butt" stroke-linejoin="round" stroke="rgb(0%, 0%, 0%)" stroke-opacity="1" stroke-miterlimit="4" d="M 16.460938 16.464844 L 137.15625 16.464844 L 137.15625 117.734375 L 16.460938 117.734375 Z M 16.460938 16.464844 "/>
<path fill="none" stroke-width="1.133858" stroke-linecap="butt" stroke-linejoin="miter" stroke="rgb(46.665955%, 23.529053%, 13.725281%)" stroke-opacity="1" stroke-miterlimit="4" d="M 386.535156 117.617188 L 386.535156 84.9375 "/>
<path fill-rule="evenodd" fill="rgb(46.665955%, 23.529053%, 13.725281%)" fill-opacity="1" stroke-width="0.302362" stroke-linecap="butt" stroke-linejoin="round" stroke="rgb(46.665955%, 23.529053%, 13.725281%)" stroke-opacity="1" stroke-miterlimit="4" d="M 86.296875 -386.535156 L 87.433594 -387.667969 L 83.464844 -386.535156 L 87.433594 -385.398438 Z M 86.296875 -386.535156 " transform="matrix(0, 1, -1, 0, 0, 0)"/>
<path fill="none" stroke-width="1.133858" stroke-linecap="butt" stroke-linejoin="miter" stroke="rgb(20.391846%, 51.371765%, 47.842407%)" stroke-opacity="1" stroke-miterlimit="4" d="M 297.988281 117.617188 L 297.988281 84.9375 "/>
<path fill-rule="evenodd" fill="rgb(20.391846%, 51.371765%, 47.842407%)" fill-opacity="1" stroke-width="0.302362" stroke-linecap="butt" stroke-linejoin="round" stroke="rgb(20.391846%, 51.371765%, 47.842407%)" stroke-opacity="1" stroke-miterlimit="4" d="M 86.296875 -297.988281 L 87.433594 -299.125 L 83.464844 -297.988281 L 87.433594 -296.855469 Z M 86.296875 -297.988281 " transform="matrix(0, 1, -1, 0, 0, 0)"/>
<path fill="none" stroke-width="0.850394" stroke-linecap="butt" stroke-linejoin="round" stroke="rgb(0%, 0%, 0%)" stroke-opacity="1" stroke-miterlimit="4" d="M 283.777344 16.464844 L 404.476562 16.464844 L 404.476562 117.734375 L 283.777344 117.734375 Z M 283.777344 16.464844 "/>
<path fill="none" stroke-width="0.850394" stroke-linecap="butt" stroke-linejoin="miter" stroke="rgb(20.391846%, 51.371765%, 47.842407%)" stroke-opacity="1" stroke-dasharray="1.700788 0.850394" stroke-miterlimit="4" d="M 193.066406 117.929688 L 193.066406 105.867188 L 167.539062 105.867188 "/>
<path fill-rule="evenodd" fill="rgb(20.391846%, 51.371765%, 47.842407%)" fill-opacity="1" stroke-width="0.226772" stroke-linecap="butt" stroke-linejoin="round" stroke="rgb(20.391846%, 51.371765%, 47.842407%)" stroke-opacity="1" stroke-miterlimit="4" d="M 168.558594 105.867188 L 169.410156 105.015625 L 166.433594 105.867188 L 169.410156 106.714844 Z M 168.558594 105.867188 "/>
<g clip-path="url(#clip-5)">
<path fill-rule="nonzero" fill="rgb(0%, 0%, 0%)" fill-opacity="1" d="M 209.871094 126.226562 C 210.441406 125.609375 210.757812 125.34375 211.140625 125.007812 C 211.140625 125.007812 211.792969 124.441406 212.179688 124.058594 C 213.195312 123.070312 213.429688 122.554688 213.429688 122.503906 C 213.429688 122.402344 213.332031 122.402344 213.3125 122.402344 C 213.230469 122.402344 213.214844 122.417969 213.148438 122.519531 C 212.828125 123.039062 212.613281 123.203125 212.363281 123.203125 C 212.09375 123.203125 211.976562 123.039062 211.808594 122.855469 C 211.609375 122.621094 211.425781 122.402344 211.074219 122.402344 C 210.273438 122.402344 209.789062 123.390625 209.789062 123.621094 C 209.789062 123.671875 209.824219 123.738281 209.90625 123.738281 C 210.007812 123.738281 210.023438 123.6875 210.054688 123.621094 C 210.257812 123.121094 210.875 123.121094 210.957031 123.121094 C 211.175781 123.121094 211.375 123.1875 211.625 123.273438 C 212.0625 123.4375 212.179688 123.4375 212.445312 123.4375 C 212.0625 123.890625 211.175781 124.65625 210.976562 124.824219 L 210.007812 125.726562 C 209.289062 126.445312 208.902344 127.046875 208.902344 127.128906 C 208.902344 127.230469 209.019531 127.230469 209.039062 127.230469 C 209.121094 127.230469 209.136719 127.214844 209.203125 127.097656 C 209.453125 126.710938 209.773438 126.429688 210.125 126.429688 C 210.355469 126.429688 210.472656 126.527344 210.742188 126.828125 C 210.910156 127.0625 211.109375 127.230469 211.410156 127.230469 C 212.476562 127.230469 213.097656 125.878906 213.097656 125.59375 C 213.097656 125.542969 213.046875 125.476562 212.960938 125.476562 C 212.863281 125.476562 212.847656 125.542969 212.8125 125.628906 C 212.5625 126.3125 211.878906 126.511719 211.527344 126.511719 C 211.324219 126.511719 211.125 126.445312 210.910156 126.378906 C 210.539062 126.246094 210.375 126.195312 210.15625 126.195312 C 210.140625 126.195312 209.972656 126.195312 209.871094 126.226562 Z M 209.871094 126.226562 "/>
</g>
<path fill-rule="nonzero" fill="rgb(0%, 0%, 0%)" fill-opacity="1" d="M 157.191406 71.976562 C 156.921875 71.910156 155.9375 71.660156 155.9375 70.925781 C 155.9375 70.875 155.9375 70.609375 156.070312 70.390625 C 156.136719 70.691406 156.386719 70.890625 156.65625 70.890625 C 156.824219 70.890625 157.023438 70.773438 157.023438 70.492188 C 157.023438 70.257812 156.839844 69.921875 156.40625 69.921875 C 155.855469 69.921875 155.703125 70.539062 155.703125 70.910156 C 155.703125 71.527344 156.273438 71.894531 156.503906 72.027344 C 155.804688 72.292969 155.703125 72.863281 155.703125 73.179688 C 155.703125 74.28125 157.074219 74.902344 157.339844 74.902344 C 157.457031 74.902344 157.457031 74.785156 157.457031 74.765625 C 157.457031 74.683594 157.425781 74.648438 157.339844 74.632812 C 156.203125 74.265625 155.9375 73.5625 155.9375 73.195312 C 155.9375 72.996094 156.039062 72.628906 156.65625 72.628906 C 156.988281 72.628906 157.691406 72.8125 159.195312 73.195312 C 159.847656 73.363281 160.296875 73.746094 160.296875 74.214844 C 160.296875 74.28125 160.296875 74.515625 160.164062 74.75 C 160.097656 74.484375 159.878906 74.25 159.578125 74.25 C 159.296875 74.25 159.210938 74.484375 159.210938 74.632812 C 159.210938 74.96875 159.480469 75.21875 159.828125 75.21875 C 160.3125 75.21875 160.53125 74.699219 160.53125 74.230469 C 160.53125 73.515625 159.78125 73.128906 159.730469 73.113281 C 160.113281 72.980469 160.53125 72.59375 160.53125 71.960938 C 160.53125 70.859375 159.160156 70.257812 158.894531 70.257812 C 158.777344 70.257812 158.777344 70.339844 158.777344 70.375 C 158.777344 70.472656 158.828125 70.492188 158.894531 70.523438 C 160.046875 70.875 160.296875 71.59375 160.296875 71.925781 C 160.296875 72.34375 159.964844 72.511719 159.59375 72.511719 C 159.363281 72.511719 159.128906 72.460938 158.660156 72.34375 Z M 157.191406 71.976562 "/>
<path fill="none" stroke-width="0.850394" stroke-linecap="butt" stroke-linejoin="miter" stroke="rgb(50.195312%, 50.195312%, 50.195312%)" stroke-opacity="1" stroke-miterlimit="4" d="M 166.144531 117.953125 L 166.144531 119.835938 "/>
<path fill="none" stroke-width="0.850394" stroke-linecap="butt" stroke-linejoin="miter" stroke="rgb(50.195312%, 50.195312%, 50.195312%)" stroke-opacity="1" stroke-miterlimit="4" d="M 211.148438 117.953125 L 211.148438 119.835938 "/>
<path fill="none" stroke-width="0.850394" stroke-linecap="butt" stroke-linejoin="miter" stroke="rgb(50.195312%, 50.195312%, 50.195312%)" stroke-opacity="1" stroke-miterlimit="4" d="M 256.152344 117.953125 L 256.152344 119.835938 "/>
<path fill="none" stroke-width="0.850394" stroke-linecap="butt" stroke-linejoin="miter" stroke="rgb(50.195312%, 50.195312%, 50.195312%)" stroke-opacity="1" stroke-miterlimit="4" d="M 175.148438 119.234375 L 175.148438 117.953125 "/>
<path fill="none" stroke-width="0.850394" stroke-linecap="butt" stroke-linejoin="miter" stroke="rgb(50.195312%, 50.195312%, 50.195312%)" stroke-opacity="1" stroke-miterlimit="4" d="M 184.148438 119.234375 L 184.148438 117.953125 "/>
<path fill="none" stroke-width="0.850394" stroke-linecap="butt" stroke-linejoin="miter" stroke="rgb(50.195312%, 50.195312%, 50.195312%)" stroke-opacity="1" stroke-miterlimit="4" d="M 193.148438 119.234375 L 193.148438 117.953125 "/>
<path fill="none" stroke-width="0.850394" stroke-linecap="butt" stroke-linejoin="miter" stroke="rgb(50.195312%, 50.195312%, 50.195312%)" stroke-opacity="1" stroke-miterlimit="4" d="M 202.148438 119.234375 L 202.148438 117.953125 "/>
<path fill="none" stroke-width="0.850394" stroke-linecap="butt" stroke-linejoin="miter" stroke="rgb(50.195312%, 50.195312%, 50.195312%)" stroke-opacity="1" stroke-miterlimit="4" d="M 229.152344 119.234375 L 229.152344 117.953125 "/>
<path fill="none" stroke-width="0.850394" stroke-linecap="butt" stroke-linejoin="miter" stroke="rgb(50.195312%, 50.195312%, 50.195312%)" stroke-opacity="1" stroke-miterlimit="4" d="M 220.152344 119.234375 L 220.152344 117.953125 "/>
<path fill="none" stroke-width="0.850394" stroke-linecap="butt" stroke-linejoin="miter" stroke="rgb(50.195312%, 50.195312%, 50.195312%)" stroke-opacity="1" stroke-miterlimit="4" d="M 247.152344 119.234375 L 247.152344 117.953125 "/>
<path fill="none" stroke-width="0.850394" stroke-linecap="butt" stroke-linejoin="miter" stroke="rgb(50.195312%, 50.195312%, 50.195312%)" stroke-opacity="1" stroke-miterlimit="4" d="M 238.152344 119.234375 L 238.152344 117.953125 "/>
<path fill-rule="nonzero" fill="rgb(50.195312%, 50.195312%, 50.195312%)" fill-opacity="1" d="M 160.097656 124.234375 L 161.894531 124.234375 L 161.894531 124.753906 L 160.097656 124.753906 Z M 160.097656 124.234375 "/>
<path fill-rule="nonzero" fill="rgb(50.195312%, 50.195312%, 50.195312%)" fill-opacity="1" d="M 165.984375 124.691406 C 165.984375 124.085938 165.613281 123.527344 164.921875 123.328125 C 165.515625 123.105469 165.863281 122.671875 165.863281 122.101562 C 165.863281 121.148438 165.070312 120.714844 164.203125 120.714844 C 163.769531 120.714844 163.234375 120.816406 162.851562 120.9375 L 162.851562 121.546875 C 163.273438 121.398438 163.632812 121.273438 164.140625 121.273438 C 164.785156 121.273438 165.304688 121.507812 165.304688 122.203125 C 165.292969 122.835938 164.785156 123.09375 164.164062 123.09375 L 163.582031 123.09375 L 163.582031 123.625 L 164.140625 123.625 C 164.859375 123.625 165.429688 123.9375 165.429688 124.691406 C 165.429688 125.582031 164.808594 125.832031 164.003906 125.832031 C 163.433594 125.832031 163.085938 125.734375 162.691406 125.460938 L 162.691406 126.128906 C 163.085938 126.265625 163.546875 126.390625 164.015625 126.390625 C 165.117188 126.390625 165.984375 125.894531 165.984375 124.691406 Z M 165.984375 124.691406 "/>
<path fill-rule="nonzero" fill="rgb(50.195312%, 50.195312%, 50.195312%)" fill-opacity="1" d="M 166.960938 125.472656 L 167.714844 125.472656 L 167.714844 126.277344 L 166.960938 126.277344 Z M 166.960938 125.472656 "/>
<path fill-rule="nonzero" fill="rgb(50.195312%, 50.195312%, 50.195312%)" fill-opacity="1" d="M 172.195312 123.566406 C 172.183594 122.402344 171.921875 120.714844 170.449219 120.714844 C 168.972656 120.714844 168.726562 122.425781 168.726562 123.566406 C 168.726562 124.71875 168.988281 126.390625 170.449219 126.390625 C 171.910156 126.390625 172.195312 124.71875 172.195312 123.566406 Z M 171.625 123.566406 C 171.625 124.320312 171.5625 125.867188 170.449219 125.867188 C 169.332031 125.867188 169.296875 124.296875 169.296875 123.566406 C 169.296875 122.820312 169.320312 121.222656 170.449219 121.222656 C 171.5625 121.222656 171.625 122.835938 171.625 123.566406 Z M 171.625 123.566406 "/>
<path fill-rule="nonzero" fill="rgb(50.195312%, 50.195312%, 50.195312%)" fill-opacity="1" d="M 254.695312 124.691406 C 254.695312 124.085938 254.324219 123.527344 253.632812 123.328125 C 254.226562 123.105469 254.574219 122.671875 254.574219 122.101562 C 254.574219 121.148438 253.78125 120.714844 252.914062 120.714844 C 252.480469 120.714844 251.945312 120.816406 251.5625 120.9375 L 251.5625 121.546875 C 251.984375 121.398438 252.34375 121.273438 252.851562 121.273438 C 253.496094 121.273438 254.015625 121.507812 254.015625 122.203125 C 254.003906 122.835938 253.496094 123.09375 252.875 123.09375 L 252.292969 123.09375 L 252.292969 123.625 L 252.851562 123.625 C 253.570312 123.625 254.140625 123.9375 254.140625 124.691406 C 254.140625 125.582031 253.519531 125.832031 252.714844 125.832031 C 252.144531 125.832031 251.796875 125.734375 251.402344 125.460938 L 251.402344 126.128906 C 251.796875 126.265625 252.257812 126.390625 252.726562 126.390625 C 253.828125 126.390625 254.695312 125.894531 254.695312 124.691406 Z M 254.695312 124.691406 "/>
<path fill-rule="nonzero" fill="rgb(50.195312%, 50.195312%, 50.195312%)" fill-opacity="1" d="M 255.671875 125.472656 L 256.425781 125.472656 L 256.425781 126.277344 L 255.671875 126.277344 Z M 255.671875 125.472656 "/>
<path fill-rule="nonzero" fill="rgb(50.195312%, 50.195312%, 50.195312%)" fill-opacity="1" d="M 260.90625 123.566406 C 260.894531 122.402344 260.632812 120.714844 259.160156 120.714844 C 257.683594 120.714844 257.4375 122.425781 257.4375 123.566406 C 257.4375 124.71875 257.699219 126.390625 259.160156 126.390625 C 260.621094 126.390625 260.90625 124.71875 260.90625 123.566406 Z M 260.335938 123.566406 C 260.335938 124.320312 260.273438 125.867188 259.160156 125.867188 C 258.042969 125.867188 258.007812 124.296875 258.007812 123.566406 C 258.007812 122.820312 258.03125 121.222656 259.160156 121.222656 C 260.273438 121.222656 260.335938 122.835938 260.335938 123.566406 Z M 260.335938 123.566406 "/>
<path fill="none" stroke-width="0.850394" stroke-linecap="butt" stroke-linejoin="miter" stroke="rgb(50.195312%, 50.195312%, 50.195312%)" stroke-opacity="1" stroke-miterlimit="4" d="M -117.492188 -165.878906 L -117.492188 -163.996094 " transform="matrix(0, -1, -1, 0, 0, 0)"/>
<path fill="none" stroke-width="0.850394" stroke-linecap="butt" stroke-linejoin="miter" stroke="rgb(50.195312%, 50.195312%, 50.195312%)" stroke-opacity="1" stroke-miterlimit="4" d="M -72.488281 -165.878906 L -72.488281 -163.996094 " transform="matrix(0, -1, -1, 0, 0, 0)"/>
<path fill="none" stroke-width="0.850394" stroke-linecap="butt" stroke-linejoin="miter" stroke="rgb(50.195312%, 50.195312%, 50.195312%)" stroke-opacity="1" stroke-miterlimit="4" d="M -27.484375 -165.878906 L -27.484375 -163.996094 " transform="matrix(0, -1, -1, 0, 0, 0)"/>
<path fill="none" stroke-width="0.850394" stroke-linecap="butt" stroke-linejoin="miter" stroke="rgb(50.195312%, 50.195312%, 50.195312%)" stroke-opacity="1" stroke-miterlimit="4" d="M -108.488281 -164.59375 L -108.488281 -165.878906 " transform="matrix(0, -1, -1, 0, 0, 0)"/>
<path fill="none" stroke-width="0.850394" stroke-linecap="butt" stroke-linejoin="miter" stroke="rgb(50.195312%, 50.195312%, 50.195312%)" stroke-opacity="1" stroke-miterlimit="4" d="M -99.488281 -164.59375 L -99.488281 -165.878906 " transform="matrix(0, -1, -1, 0, 0, 0)"/>
<path fill="none" stroke-width="0.850394" stroke-linecap="butt" stroke-linejoin="miter" stroke="rgb(50.195312%, 50.195312%, 50.195312%)" stroke-opacity="1" stroke-miterlimit="4" d="M -90.488281 -164.59375 L -90.488281 -165.878906 " transform="matrix(0, -1, -1, 0, 0, 0)"/>
<path fill="none" stroke-width="0.850394" stroke-linecap="butt" stroke-linejoin="miter" stroke="rgb(50.195312%, 50.195312%, 50.195312%)" stroke-opacity="1" stroke-miterlimit="4" d="M -81.488281 -164.59375 L -81.488281 -165.878906 " transform="matrix(0, -1, -1, 0, 0, 0)"/>
<path fill="none" stroke-width="0.850394" stroke-linecap="butt" stroke-linejoin="miter" stroke="rgb(50.195312%, 50.195312%, 50.195312%)" stroke-opacity="1" stroke-miterlimit="4" d="M -54.484375 -164.59375 L -54.484375 -165.878906 " transform="matrix(0, -1, -1, 0, 0, 0)"/>
<path fill="none" stroke-width="0.850394" stroke-linecap="butt" stroke-linejoin="miter" stroke="rgb(50.195312%, 50.195312%, 50.195312%)" stroke-opacity="1" stroke-miterlimit="4" d="M -63.484375 -164.59375 L -63.484375 -165.878906 " transform="matrix(0, -1, -1, 0, 0, 0)"/>
<path fill="none" stroke-width="0.850394" stroke-linecap="butt" stroke-linejoin="miter" stroke="rgb(50.195312%, 50.195312%, 50.195312%)" stroke-opacity="1" stroke-miterlimit="4" d="M -36.484375 -164.59375 L -36.484375 -165.878906 " transform="matrix(0, -1, -1, 0, 0, 0)"/>
<path fill="none" stroke-width="0.850394" stroke-linecap="butt" stroke-linejoin="miter" stroke="rgb(50.195312%, 50.195312%, 50.195312%)" stroke-opacity="1" stroke-miterlimit="4" d="M -45.484375 -164.59375 L -45.484375 -165.878906 " transform="matrix(0, -1, -1, 0, 0, 0)"/>
<path fill-rule="nonzero" fill="rgb(50.195312%, 50.195312%, 50.195312%)" fill-opacity="1" d="M 150.777344 117.539062 L 152.574219 117.539062 L 152.574219 118.058594 L 150.777344 118.058594 Z M 150.777344 117.539062 "/>
<path fill-rule="nonzero" fill="rgb(50.195312%, 50.195312%, 50.195312%)" fill-opacity="1" d="M 156.667969 117.996094 C 156.667969 117.390625 156.296875 116.832031 155.601562 116.636719 C 156.195312 116.414062 156.542969 115.980469 156.542969 115.410156 C 156.542969 114.457031 155.75 114.023438 154.882812 114.023438 C 154.449219 114.023438 153.917969 114.121094 153.53125 114.246094 L 153.53125 114.851562 C 153.953125 114.703125 154.3125 114.578125 154.820312 114.578125 C 155.464844 114.578125 155.984375 114.816406 155.984375 115.507812 C 155.972656 116.140625 155.464844 116.398438 154.847656 116.398438 L 154.261719 116.398438 L 154.261719 116.933594 L 154.820312 116.933594 C 155.539062 116.933594 156.109375 117.242188 156.109375 117.996094 C 156.109375 118.890625 155.488281 119.136719 154.683594 119.136719 C 154.113281 119.136719 153.769531 119.039062 153.371094 118.765625 L 153.371094 119.433594 C 153.769531 119.570312 154.226562 119.695312 154.695312 119.695312 C 155.800781 119.695312 156.667969 119.199219 156.667969 117.996094 Z M 156.667969 117.996094 "/>
<path fill-rule="nonzero" fill="rgb(50.195312%, 50.195312%, 50.195312%)" fill-opacity="1" d="M 157.640625 118.777344 L 158.398438 118.777344 L 158.398438 119.582031 L 157.640625 119.582031 Z M 157.640625 118.777344 "/>
<path fill-rule="nonzero" fill="rgb(50.195312%, 50.195312%, 50.195312%)" fill-opacity="1" d="M 162.875 116.871094 C 162.863281 115.707031 162.601562 114.023438 161.128906 114.023438 C 159.65625 114.023438 159.40625 115.730469 159.40625 116.871094 C 159.40625 118.023438 159.667969 119.695312 161.128906 119.695312 C 162.589844 119.695312 162.875 118.023438 162.875 116.871094 Z M 162.304688 116.871094 C 162.304688 117.625 162.242188 119.175781 161.128906 119.175781 C 160.015625 119.175781 159.976562 117.601562 159.976562 116.871094 C 159.976562 116.128906 160 114.53125 161.128906 114.53125 C 162.242188 114.53125 162.304688 116.140625 162.304688 116.871094 Z M 162.304688 116.871094 "/>
<path fill-rule="nonzero" fill="rgb(50.195312%, 50.195312%, 50.195312%)" fill-opacity="1" d="M 156.386719 28.347656 C 156.386719 27.742188 156.011719 27.183594 155.320312 26.988281 C 155.914062 26.761719 156.261719 26.328125 156.261719 25.761719 C 156.261719 24.804688 155.46875 24.371094 154.601562 24.371094 C 154.167969 24.371094 153.636719 24.472656 153.25 24.597656 L 153.25 25.203125 C 153.671875 25.054688 154.03125 24.929688 154.539062 24.929688 C 155.183594 24.929688 155.703125 25.164062 155.703125 25.859375 C 155.691406 26.492188 155.183594 26.75 154.5625 26.75 L 153.980469 26.75 L 153.980469 27.285156 L 154.539062 27.285156 C 155.257812 27.285156 155.828125 27.59375 155.828125 28.347656 C 155.828125 29.242188 155.207031 29.488281 154.402344 29.488281 C 153.832031 29.488281 153.488281 29.390625 153.089844 29.117188 L 153.089844 29.785156 C 153.488281 29.921875 153.945312 30.046875 154.414062 30.046875 C 155.519531 30.046875 156.386719 29.550781 156.386719 28.347656 Z M 156.386719 28.347656 "/>
<path fill-rule="nonzero" fill="rgb(50.195312%, 50.195312%, 50.195312%)" fill-opacity="1" d="M 157.359375 29.128906 L 158.117188 29.128906 L 158.117188 29.933594 L 157.359375 29.933594 Z M 157.359375 29.128906 "/>
<path fill-rule="nonzero" fill="rgb(50.195312%, 50.195312%, 50.195312%)" fill-opacity="1" d="M 162.59375 27.222656 C 162.582031 26.058594 162.320312 24.371094 160.847656 24.371094 C 159.375 24.371094 159.125 26.082031 159.125 27.222656 C 159.125 28.375 159.386719 30.046875 160.847656 30.046875 C 162.308594 30.046875 162.59375 28.375 162.59375 27.222656 Z M 162.023438 27.222656 C 162.023438 27.976562 161.960938 29.527344 160.847656 29.527344 C 159.734375 29.527344 159.695312 27.953125 159.695312 27.222656 C 159.695312 26.480469 159.71875 24.878906 160.847656 24.878906 C 161.960938 24.878906 162.023438 26.492188 162.023438 27.222656 Z M 162.023438 27.222656 "/>
<path fill="none" stroke-width="0.850394" stroke-linecap="butt" stroke-linejoin="miter" stroke="rgb(46.665955%, 23.529053%, 13.725281%)" stroke-opacity="1" stroke-dasharray="1.700788 0.850394" stroke-miterlimit="4" d="M 233.53125 117.929688 L 233.53125 41.824219 L 167.75 41.824219 "/>
<path fill-rule="evenodd" fill="rgb(46.665955%, 23.529053%, 13.725281%)" fill-opacity="1" stroke-width="0.226772" stroke-linecap="butt" stroke-linejoin="round" stroke="rgb(46.665955%, 23.529053%, 13.725281%)" stroke-opacity="1" stroke-miterlimit="4" d="M 168.769531 41.824219 L 169.617188 40.972656 L 166.644531 41.824219 L 169.617188 42.675781 Z M 168.769531 41.824219 "/>
<g clip-path="url(#clip-6)">
<path fill="none" stroke-width="2.02265" stroke-linecap="square" stroke-linejoin="round" stroke="rgb(27.842712%, 40.391541%, 47.450256%)" stroke-opacity="1" stroke-miterlimit="4" d="M 172.84389 118.15625 L 174.008792 117.039062 L 175.173695 116.023438 L 176.338597 115.105469 L 177.503499 114.277344 L 178.668401 113.53125 L 179.829245 112.867188 L 180.994147 112.273438 L 182.159049 111.746094 L 183.323951 111.277344 L 184.488854 110.863281 L 186.039351 110.378906 L 187.593907 109.957031 L 189.534057 109.492188 L 194.579261 108.320312 L 196.133817 107.886719 L 197.29466 107.511719 L 198.459563 107.082031 L 199.624465 106.589844 L 200.789367 106.023438 L 201.954269 105.371094 L 202.729518 104.886719 L 203.504766 104.351562 L 204.284074 103.773438 L 205.059322 103.144531 L 205.834571 102.460938 L 206.609819 101.722656 L 207.389127 100.929688 L 208.164375 100.074219 L 208.939624 99.160156 L 209.714872 98.1875 L 210.49418 97.152344 L 211.269428 96.054688 L 212.43433 94.292969 L 213.599233 92.398438 L 214.760076 90.375 L 215.924978 88.226562 L 217.08988 85.972656 L 218.644436 82.820312 L 220.194933 79.535156 L 222.524738 74.460938 L 225.629791 67.683594 L 227.180288 64.398438 L 228.734844 61.242188 L 229.899746 58.984375 L 231.064648 56.832031 L 232.225492 54.796875 L 233.390394 52.886719 L 234.555296 51.105469 L 235.720198 49.457031 L 236.8851 47.9375 L 238.050003 46.542969 L 238.825251 45.683594 L 239.990153 44.496094 L 241.155056 43.414062 L 242.319958 42.4375 L 243.48486 41.550781 L 244.645703 40.746094 L 245.810606 40.007812 L 246.975508 39.332031 L 248.530064 38.5 L 250.470215 37.539062 L 255.515418 35.085938 L 257.065915 34.253906 L 258.230818 33.578125 L 259.39572 32.855469 L 260.560622 32.070312 L 261.725524 31.21875 L 262.890427 30.292969 L 264.055329 29.289062 L 265.216172 28.191406 L 265.605826 27.808594 " transform="matrix(0.962393, 0, 0, 1, 0, 0)"/>
</g>
<path fill="none" stroke-width="0.850394" stroke-linecap="butt" stroke-linejoin="round" stroke="rgb(0%, 0%, 0%)" stroke-opacity="1" stroke-miterlimit="4" d="M 166.082031 27.484375 L 256.253906 27.484375 L 256.253906 117.65625 L 166.082031 117.65625 Z M 166.082031 27.484375 "/>
<path fill-rule="nonzero" fill="rgb(0%, 0%, 0%)" fill-opacity="1" d="M 4.492188 5.839844 C 4.492188 4.550781 3.5625 3.660156 2.394531 3.660156 C 1.582031 3.660156 1.007812 3.859375 0.414062 4.195312 L 0.496094 5.027344 C 1.148438 4.570312 1.78125 4.414062 2.394531 4.414062 C 2.988281 4.414062 3.503906 4.910156 3.503906 5.839844 L 3.503906 6.394531 C 1.601562 6.414062 0 6.945312 0 8.054688 C 0 8.589844 0.335938 9.621094 1.445312 9.621094 C 1.621094 9.621094 2.808594 9.597656 3.542969 9.027344 L 3.542969 9.480469 L 4.492188 9.480469 Z M 3.503906 7.816406 C 3.503906 8.054688 3.503906 8.371094 3.066406 8.609375 C 2.710938 8.828125 2.214844 8.847656 2.078125 8.847656 C 1.484375 8.847656 0.910156 8.550781 0.910156 8.035156 C 0.910156 7.144531 2.949219 7.066406 3.503906 7.027344 Z M 3.503906 7.816406 "/>
<path fill-rule="nonzero" fill="rgb(0%, 0%, 0%)" fill-opacity="1" d="M 6.996094 12.648438 C 7.390625 12.25 8.242188 11.480469 8.816406 9.9375 C 9.332031 8.589844 9.410156 7.242188 9.410156 6.3125 C 9.410156 2.238281 7.589844 0.574219 6.996094 0 L 6.222656 0 C 6.816406 0.613281 8.421875 2.238281 8.421875 6.3125 C 8.421875 7.027344 8.378906 8.511719 7.867188 9.996094 C 7.351562 11.460938 6.640625 12.210938 6.222656 12.648438 Z M 6.996094 12.648438 "/>
<path fill-rule="nonzero" fill="rgb(0%, 0%, 0%)" fill-opacity="1" d="M 151.789062 0.710938 L 150.839844 0.710938 L 150.839844 9.480469 L 151.832031 9.480469 L 151.832031 8.90625 C 152.128906 9.183594 152.679688 9.621094 153.53125 9.621094 C 154.78125 9.621094 155.867188 8.351562 155.867188 6.671875 C 155.867188 5.105469 155.015625 3.742188 153.828125 3.742188 C 153.335938 3.742188 152.542969 3.859375 151.789062 4.472656 Z M 151.832031 5.246094 C 152.027344 4.949219 152.484375 4.511719 153.175781 4.511719 C 153.929688 4.511719 154.878906 5.046875 154.878906 6.671875 C 154.878906 8.3125 153.828125 8.847656 153.058594 8.847656 C 152.5625 8.847656 152.148438 8.628906 151.832031 8.035156 Z M 151.832031 5.246094 "/>
<path fill-rule="nonzero" fill="rgb(0%, 0%, 0%)" fill-opacity="1" d="M 157.816406 12.648438 C 158.214844 12.25 159.0625 11.480469 159.636719 9.9375 C 160.152344 8.589844 160.230469 7.242188 160.230469 6.3125 C 160.230469 2.238281 158.410156 0.574219 157.816406 0 L 157.046875 0 C 157.640625 0.613281 159.242188 2.238281 159.242188 6.3125 C 159.242188 7.027344 159.203125 8.511719 158.6875 9.996094 C 158.171875 11.460938 157.460938 12.210938 157.046875 12.648438 Z M 157.816406 12.648438 "/>
<path fill-rule="nonzero" fill="rgb(0%, 0%, 0%)" fill-opacity="1" d="M 265.539062 4.195312 C 264.785156 3.78125 264.351562 3.660156 263.578125 3.660156 C 261.835938 3.660156 260.808594 5.1875 260.808594 6.671875 C 260.808594 8.234375 261.957031 9.621094 263.539062 9.621094 C 264.210938 9.621094 264.90625 9.441406 265.597656 8.964844 L 265.519531 8.132812 C 264.863281 8.628906 264.191406 8.808594 263.539062 8.808594 C 262.488281 8.808594 261.796875 7.898438 261.796875 6.671875 C 261.796875 5.679688 262.253906 4.472656 263.597656 4.472656 C 264.25 4.472656 264.6875 4.570312 265.378906 5.027344 Z M 265.539062 4.195312 "/>
<path fill-rule="nonzero" fill="rgb(0%, 0%, 0%)" fill-opacity="1" d="M 267.445312 12.648438 C 267.839844 12.25 268.691406 11.480469 269.265625 9.9375 C 269.78125 8.589844 269.859375 7.242188 269.859375 6.3125 C 269.859375 2.238281 268.039062 0.574219 267.445312 0 L 266.671875 0 C 267.265625 0.613281 268.871094 2.238281 268.871094 6.3125 C 268.871094 7.027344 268.828125 8.511719 268.316406 9.996094 C 267.800781 11.460938 267.089844 12.210938 266.671875 12.648438 Z M 267.445312 12.648438 "/>
<path fill-rule="nonzero" fill="rgb(0%, 0%, 0%)" fill-opacity="1" d="M 53.457031 10.164062 C 53.457031 9.292969 53.003906 8.542969 52.203125 8.292969 L 52.203125 8.191406 C 52.886719 8.023438 53.171875 7.371094 53.171875 6.636719 C 53.121094 5.300781 52.203125 4.851562 51.015625 4.851562 L 48.660156 4.851562 L 48.660156 12.21875 L 51.117188 12.21875 C 52.503906 12.21875 53.457031 11.632812 53.457031 10.164062 Z M 52.4375 6.753906 C 52.417969 7.574219 51.785156 7.941406 50.949219 7.941406 L 49.480469 7.941406 L 49.480469 5.585938 L 50.949219 5.585938 C 51.769531 5.601562 52.4375 5.851562 52.4375 6.753906 Z M 52.652344 10.046875 C 52.652344 11.097656 52.070312 11.480469 51.066406 11.480469 L 49.480469 11.480469 L 49.480469 8.660156 L 51.066406 8.660156 C 52.070312 8.660156 52.652344 8.992188 52.652344 10.046875 Z M 52.652344 10.046875 "/>
<path fill-rule="nonzero" fill="rgb(0%, 0%, 0%)" fill-opacity="1" d="M 58.316406 12.21875 L 58.316406 9.476562 C 58.316406 8.089844 57.734375 7.289062 56.296875 7.289062 C 55.777344 7.289062 55.144531 7.457031 54.675781 7.625 L 54.675781 8.410156 C 55.160156 8.140625 55.5625 7.972656 56.230469 7.972656 C 56.996094 7.992188 57.582031 8.375 57.582031 9.175781 L 56.480469 9.175781 C 55.34375 9.175781 54.339844 9.5625 54.339844 10.8125 C 54.375 11.78125 54.941406 12.351562 55.910156 12.351562 C 56.597656 12.351562 57.214844 12.066406 57.582031 11.582031 L 57.582031 12.21875 Z M 57.582031 9.980469 C 57.582031 10.914062 57.148438 11.664062 56.144531 11.664062 C 55.5625 11.664062 55.078125 11.398438 55.078125 10.761719 C 55.078125 9.828125 55.960938 9.828125 56.796875 9.828125 L 57.582031 9.828125 Z M 57.582031 9.980469 "/>
<path fill-rule="nonzero" fill="rgb(0%, 0%, 0%)" fill-opacity="1" d="M 63.25 10.878906 C 63.25 9.929688 62.601562 9.628906 61.730469 9.460938 L 61.398438 9.394531 C 60.929688 9.292969 60.246094 9.195312 60.246094 8.675781 C 60.277344 8.074219 60.980469 7.957031 61.515625 7.957031 C 62.367188 7.992188 62.300781 8.039062 63.019531 8.339844 L 63.019531 7.554688 C 62.566406 7.371094 62 7.289062 61.414062 7.289062 C 60.460938 7.289062 59.527344 7.640625 59.527344 8.710938 C 59.542969 9.578125 60.128906 9.910156 60.929688 10.0625 L 61.230469 10.128906 C 61.816406 10.261719 62.484375 10.328125 62.484375 10.949219 C 62.449219 11.546875 61.765625 11.664062 61.230469 11.664062 C 60.34375 11.648438 60.210938 11.546875 59.441406 11.179688 L 59.441406 12.050781 C 59.894531 12.167969 60.679688 12.351562 61.214844 12.351562 C 62.148438 12.351562 63.25 12 63.25 10.878906 Z M 63.25 10.878906 "/>
<path fill-rule="nonzero" fill="rgb(0%, 0%, 0%)" fill-opacity="1" d="M 68.550781 9.8125 L 68.550781 9.726562 C 68.550781 8.339844 67.980469 7.324219 66.394531 7.289062 C 64.976562 7.289062 64.171875 8.523438 64.171875 9.863281 C 64.171875 11.316406 65.058594 12.351562 66.527344 12.351562 C 67.195312 12.351562 67.796875 12.199219 68.382812 11.984375 L 68.382812 11.179688 C 67.613281 11.546875 67.496094 11.632812 66.59375 11.632812 C 65.59375 11.632812 64.992188 11.03125 64.992188 9.894531 L 64.992188 9.8125 Z M 67.765625 9.160156 L 65.027344 9.160156 C 65.125 8.523438 65.59375 7.972656 66.394531 7.972656 C 67.230469 7.972656 67.765625 8.492188 67.765625 9.160156 Z M 67.765625 9.160156 "/>
<path fill-rule="nonzero" fill="rgb(0%, 0%, 0%)" fill-opacity="1" d="M 72.632812 9.8125 C 72.632812 11.230469 73.570312 12.21875 75.007812 12.21875 L 77.042969 12.21875 L 77.042969 4.851562 L 76.242188 4.851562 L 76.242188 7.40625 L 75.074219 7.40625 C 73.503906 7.40625 72.632812 8.375 72.632812 9.8125 Z M 73.402344 9.8125 C 73.402344 8.875 74.003906 8.109375 75.074219 8.109375 L 76.242188 8.109375 L 76.242188 11.515625 L 75.074219 11.515625 C 74.019531 11.515625 73.402344 10.847656 73.402344 9.8125 Z M 73.402344 9.8125 "/>
<path fill-rule="nonzero" fill="rgb(0%, 0%, 0%)" fill-opacity="1" d="M 82.640625 9.8125 L 82.640625 9.726562 C 82.640625 8.339844 82.074219 7.324219 80.484375 7.289062 C 79.066406 7.289062 78.265625 8.523438 78.265625 9.863281 C 78.265625 11.316406 79.148438 12.351562 80.621094 12.351562 C 81.289062 12.351562 81.890625 12.199219 82.472656 11.984375 L 82.472656 11.179688 C 81.703125 11.546875 81.589844 11.632812 80.6875 11.632812 C 79.683594 11.632812 79.082031 11.03125 79.082031 9.894531 L 79.082031 9.8125 Z M 81.855469 9.160156 L 79.117188 9.160156 C 79.214844 8.523438 79.683594 7.972656 80.484375 7.972656 C 81.320312 7.972656 81.855469 8.492188 81.855469 9.160156 Z M 81.855469 9.160156 "/>
<path fill-rule="nonzero" fill="rgb(0%, 0%, 0%)" fill-opacity="1" d="M 87.941406 12.21875 L 87.941406 9.308594 C 87.941406 8.175781 87.457031 7.289062 86.21875 7.289062 C 85.601562 7.289062 84.964844 7.523438 84.582031 8.058594 L 84.582031 7.40625 L 83.796875 7.40625 L 83.796875 12.21875 L 84.582031 12.21875 L 84.582031 9.496094 C 84.617188 8.574219 85.183594 7.992188 86.035156 7.992188 C 86.871094 7.992188 87.171875 8.492188 87.171875 9.34375 L 87.171875 12.21875 Z M 87.941406 12.21875 "/>
<path fill-rule="nonzero" fill="rgb(0%, 0%, 0%)" fill-opacity="1" d="M 92.871094 10.878906 C 92.871094 9.929688 92.21875 9.628906 91.351562 9.460938 L 91.015625 9.394531 C 90.546875 9.292969 89.863281 9.195312 89.863281 8.675781 C 89.898438 8.074219 90.597656 7.957031 91.132812 7.957031 C 91.984375 7.992188 91.917969 8.039062 92.636719 8.339844 L 92.636719 7.554688 C 92.1875 7.371094 91.617188 7.289062 91.03125 7.289062 C 90.082031 7.289062 89.144531 7.640625 89.144531 8.710938 C 89.164062 9.578125 89.746094 9.910156 90.546875 10.0625 L 90.847656 10.128906 C 91.433594 10.261719 92.101562 10.328125 92.101562 10.949219 C 92.070312 11.546875 91.382812 11.664062 90.847656 11.664062 C 89.964844 11.648438 89.832031 11.546875 89.0625 11.179688 L 89.0625 12.050781 C 89.511719 12.167969 90.296875 12.351562 90.832031 12.351562 C 91.769531 12.351562 92.871094 12 92.871094 10.878906 Z M 92.871094 10.878906 "/>
<path fill-rule="nonzero" fill="rgb(0%, 0%, 0%)" fill-opacity="1" d="M 94.84375 12.21875 L 94.84375 7.40625 L 94.042969 7.40625 L 94.042969 12.21875 Z M 94.445312 4.851562 C 94.191406 4.851562 93.976562 5.085938 93.976562 5.335938 C 93.976562 5.601562 94.191406 5.835938 94.445312 5.835938 C 94.710938 5.835938 94.910156 5.601562 94.910156 5.335938 C 94.910156 5.085938 94.710938 4.851562 94.445312 4.851562 Z M 94.445312 4.851562 "/>
<path fill-rule="nonzero" fill="rgb(0%, 0%, 0%)" fill-opacity="1" d="M 99 12.21875 L 99 11.53125 L 98.164062 11.53125 C 97.414062 11.53125 97.28125 11.347656 97.28125 10.648438 L 97.28125 8.039062 L 98.699219 8.039062 L 98.699219 7.40625 L 97.28125 7.40625 L 97.28125 6.035156 L 96.945312 6.035156 L 96.496094 7.40625 L 95.925781 7.40625 L 95.925781 8.039062 L 96.496094 8.039062 L 96.496094 10.648438 C 96.496094 11.847656 96.980469 12.21875 98.164062 12.21875 Z M 99 12.21875 "/>
<path fill-rule="nonzero" fill="rgb(0%, 0%, 0%)" fill-opacity="1" d="M 104.128906 7.40625 L 103.394531 7.40625 L 101.90625 10.929688 L 100.167969 7.40625 L 99.417969 7.40625 L 101.507812 11.714844 L 100.6875 13.652344 C 100.554688 13.988281 100.101562 14.238281 99.886719 14.238281 L 100.152344 14.789062 C 100.554688 14.753906 100.972656 14.472656 101.238281 14.054688 Z M 104.128906 7.40625 "/>
<path fill-rule="nonzero" fill="rgb(0%, 0%, 0%)" fill-opacity="1" d="M 7.429688 77.121094 L 7.429688 75.300781 C 7.429688 73.796875 6.328125 72.3125 5.140625 72.3125 C 4.308594 72.3125 3.523438 73.011719 3.523438 74.414062 L 3.523438 77.855469 C 3.523438 78.058594 3.523438 78.171875 3.722656 78.171875 C 3.855469 78.171875 3.855469 78.089844 3.855469 77.875 C 3.855469 77.738281 3.875 77.539062 3.875 77.421875 C 3.90625 77.238281 3.921875 77.1875 4.058594 77.1875 C 4.089844 77.1875 4.125 77.1875 4.257812 77.222656 L 9.96875 78.660156 C 10.386719 78.757812 10.472656 78.773438 10.472656 79.628906 C 10.472656 79.792969 10.472656 79.910156 10.671875 79.910156 C 10.804688 79.910156 10.804688 79.792969 10.804688 79.761719 C 10.804688 79.460938 10.773438 78.707031 10.773438 78.40625 C 10.773438 78.171875 10.789062 77.941406 10.789062 77.722656 C 10.789062 77.488281 10.804688 77.253906 10.804688 77.039062 C 10.804688 76.953125 10.804688 76.820312 10.589844 76.820312 C 10.472656 76.820312 10.472656 76.921875 10.472656 77.121094 C 10.472656 77.503906 10.472656 77.804688 10.289062 77.804688 C 10.21875 77.804688 10.171875 77.789062 10.105469 77.773438 Z M 4.257812 76.351562 C 3.890625 76.253906 3.855469 76.234375 3.855469 75.769531 L 3.855469 74.75 C 3.855469 73.863281 4.140625 73.296875 4.875 73.296875 C 5.292969 73.296875 6.210938 73.511719 6.597656 73.929688 C 7.082031 74.464844 7.164062 75.101562 7.164062 75.566406 L 7.164062 77.070312 Z M 4.257812 76.351562 "/>
<path fill-rule="nonzero" fill="rgb(0%, 0%, 0%)" fill-opacity="1" d="M 10.171875 71.09375 C 10.335938 71.125 10.589844 71.191406 10.636719 71.191406 C 10.820312 71.191406 10.921875 71.042969 10.921875 70.875 C 10.921875 70.742188 10.839844 70.558594 10.621094 70.472656 C 10.589844 70.457031 9.132812 70.105469 8.933594 70.054688 C 8.582031 69.972656 7.847656 69.773438 7.546875 69.722656 C 7.414062 69.671875 6.914062 69.371094 6.679688 69.121094 C 6.613281 69.039062 6.328125 68.71875 6.328125 68.269531 C 6.328125 67.984375 6.460938 67.835938 6.460938 67.816406 C 6.511719 68.136719 6.761719 68.371094 7.046875 68.371094 C 7.214844 68.371094 7.414062 68.253906 7.414062 67.96875 C 7.414062 67.683594 7.164062 67.382812 6.78125 67.382812 C 6.410156 67.382812 6.09375 67.71875 6.09375 68.269531 C 6.09375 68.953125 6.613281 69.421875 6.914062 69.621094 C 6.429688 69.722656 6.09375 70.105469 6.09375 70.609375 C 6.09375 71.09375 6.511719 71.292969 6.695312 71.394531 C 7.0625 71.578125 7.699219 71.710938 7.730469 71.710938 C 7.847656 71.710938 7.847656 71.609375 7.847656 71.59375 C 7.847656 71.476562 7.832031 71.476562 7.597656 71.410156 C 6.847656 71.226562 6.328125 71.007812 6.328125 70.625 C 6.328125 70.457031 6.410156 70.308594 6.8125 70.308594 C 7.046875 70.308594 7.164062 70.339844 7.714844 70.472656 Z M 10.171875 71.09375 "/>
<path fill-rule="nonzero" fill="rgb(0%, 0%, 0%)" fill-opacity="1" d="M 13.359375 63.402344 C 13.328125 63.402344 13.3125 63.402344 13.125 63.585938 C 11.789062 64.90625 9.769531 65.257812 8.132812 65.257812 C 6.277344 65.257812 4.425781 64.855469 3.105469 63.535156 C 2.972656 63.402344 2.953125 63.402344 2.921875 63.402344 C 2.835938 63.402344 2.804688 63.4375 2.804688 63.503906 C 2.804688 63.621094 3.539062 64.570312 4.890625 65.207031 C 6.0625 65.742188 7.246094 65.875 8.132812 65.875 C 8.96875 65.875 10.253906 65.757812 11.472656 65.171875 C 12.777344 64.519531 13.476562 63.621094 13.476562 63.503906 C 13.476562 63.4375 13.445312 63.402344 13.359375 63.402344 Z M 13.359375 63.402344 "/>
<path fill-rule="nonzero" fill="rgb(0%, 0%, 0%)" fill-opacity="1" d="M 9.917969 61.367188 C 9.300781 60.796875 9.035156 60.480469 8.699219 60.097656 C 8.699219 60.097656 8.132812 59.445312 7.75 59.058594 C 6.761719 58.042969 6.246094 57.808594 6.195312 57.808594 C 6.09375 57.808594 6.09375 57.90625 6.09375 57.925781 C 6.09375 58.007812 6.113281 58.023438 6.210938 58.089844 C 6.730469 58.410156 6.894531 58.625 6.894531 58.875 C 6.894531 59.144531 6.730469 59.261719 6.546875 59.429688 C 6.3125 59.628906 6.09375 59.8125 6.09375 60.164062 C 6.09375 60.964844 7.082031 61.449219 7.3125 61.449219 C 7.363281 61.449219 7.429688 61.414062 7.429688 61.332031 C 7.429688 61.230469 7.378906 61.214844 7.3125 61.183594 C 6.8125 60.980469 6.8125 60.363281 6.8125 60.28125 C 6.8125 60.0625 6.878906 59.863281 6.964844 59.613281 C 7.128906 59.175781 7.128906 59.058594 7.128906 58.792969 C 7.582031 59.175781 8.351562 60.0625 8.515625 60.261719 L 9.417969 61.230469 C 10.136719 61.949219 10.738281 62.335938 10.820312 62.335938 C 10.921875 62.335938 10.921875 62.21875 10.921875 62.199219 C 10.921875 62.117188 10.90625 62.101562 10.789062 62.035156 C 10.402344 61.78125 10.121094 61.464844 10.121094 61.113281 C 10.121094 60.882812 10.21875 60.765625 10.519531 60.496094 C 10.753906 60.328125 10.921875 60.128906 10.921875 59.828125 C 10.921875 58.757812 9.570312 58.140625 9.285156 58.140625 C 9.234375 58.140625 9.167969 58.191406 9.167969 58.273438 C 9.167969 58.375 9.234375 58.390625 9.320312 58.425781 C 10.003906 58.675781 10.203125 59.359375 10.203125 59.710938 C 10.203125 59.914062 10.136719 60.113281 10.070312 60.328125 C 9.9375 60.699219 9.886719 60.863281 9.886719 61.082031 C 9.886719 61.097656 9.886719 61.265625 9.917969 61.367188 Z M 9.917969 61.367188 "/>
<path fill-rule="nonzero" fill="rgb(0%, 0%, 0%)" fill-opacity="1" d="M 8.132812 54.289062 C 7.3125 54.289062 6.027344 54.40625 4.808594 54.992188 C 3.503906 55.625 2.804688 56.546875 2.804688 56.644531 C 2.804688 56.710938 2.855469 56.761719 2.921875 56.761719 C 2.953125 56.761719 2.972656 56.761719 3.171875 56.5625 C 4.222656 55.511719 5.910156 54.910156 8.132812 54.910156 C 9.96875 54.910156 11.839844 55.292969 13.175781 56.613281 C 13.3125 56.761719 13.328125 56.761719 13.359375 56.761719 C 13.425781 56.761719 13.476562 56.710938 13.476562 56.644531 C 13.476562 56.546875 12.742188 55.578125 11.390625 54.957031 C 10.21875 54.40625 9.035156 54.289062 8.132812 54.289062 Z M 8.132812 54.289062 "/>
<path fill-rule="nonzero" fill="rgb(0%, 0%, 0%)" fill-opacity="1" d="M 274.675781 77.453125 L 274.675781 75.632812 C 274.675781 74.128906 273.574219 72.644531 272.386719 72.644531 C 271.550781 72.644531 270.765625 73.34375 270.765625 74.75 L 270.765625 78.1875 C 270.765625 78.390625 270.765625 78.507812 270.96875 78.507812 C 271.101562 78.507812 271.101562 78.421875 271.101562 78.207031 C 271.101562 78.074219 271.117188 77.871094 271.117188 77.753906 C 271.152344 77.570312 271.167969 77.519531 271.300781 77.519531 C 271.335938 77.519531 271.367188 77.519531 271.5 77.554688 L 277.214844 78.992188 C 277.632812 79.089844 277.714844 79.109375 277.714844 79.960938 C 277.714844 80.128906 277.714844 80.242188 277.914062 80.242188 C 278.050781 80.242188 278.050781 80.128906 278.050781 80.09375 C 278.050781 79.792969 278.015625 79.042969 278.015625 78.742188 C 278.015625 78.507812 278.03125 78.273438 278.03125 78.054688 C 278.03125 77.820312 278.050781 77.589844 278.050781 77.371094 C 278.050781 77.289062 278.050781 77.152344 277.832031 77.152344 C 277.714844 77.152344 277.714844 77.253906 277.714844 77.453125 C 277.714844 77.839844 277.714844 78.140625 277.53125 78.140625 C 277.464844 78.140625 277.414062 78.121094 277.347656 78.105469 Z M 271.5 76.6875 C 271.132812 76.585938 271.101562 76.570312 271.101562 76.101562 L 271.101562 75.082031 C 271.101562 74.195312 271.382812 73.628906 272.121094 73.628906 C 272.539062 73.628906 273.457031 73.847656 273.839844 74.265625 C 274.324219 74.796875 274.40625 75.433594 274.40625 75.902344 L 274.40625 77.40625 Z M 271.5 76.6875 "/>
<path fill-rule="nonzero" fill="rgb(0%, 0%, 0%)" fill-opacity="1" d="M 277.414062 71.425781 C 277.582031 71.457031 277.832031 71.523438 277.882812 71.523438 C 278.066406 71.523438 278.167969 71.375 278.167969 71.207031 C 278.167969 71.074219 278.082031 70.890625 277.867188 70.808594 C 277.832031 70.789062 276.378906 70.4375 276.179688 70.390625 C 275.828125 70.304688 275.09375 70.105469 274.792969 70.054688 C 274.660156 70.003906 274.15625 69.703125 273.921875 69.453125 C 273.855469 69.371094 273.574219 69.054688 273.574219 68.601562 C 273.574219 68.316406 273.707031 68.167969 273.707031 68.152344 C 273.757812 68.46875 274.007812 68.703125 274.292969 68.703125 C 274.457031 68.703125 274.660156 68.585938 274.660156 68.300781 C 274.660156 68.015625 274.40625 67.714844 274.023438 67.714844 C 273.65625 67.714844 273.339844 68.050781 273.339844 68.601562 C 273.339844 69.285156 273.855469 69.753906 274.15625 69.953125 C 273.671875 70.054688 273.339844 70.4375 273.339844 70.941406 C 273.339844 71.425781 273.757812 71.625 273.941406 71.726562 C 274.308594 71.910156 274.941406 72.042969 274.976562 72.042969 C 275.09375 72.042969 275.09375 71.941406 275.09375 71.925781 C 275.09375 71.808594 275.078125 71.808594 274.84375 71.742188 C 274.089844 71.558594 273.574219 71.339844 273.574219 70.957031 C 273.574219 70.789062 273.65625 70.640625 274.058594 70.640625 C 274.292969 70.640625 274.40625 70.671875 274.960938 70.808594 Z M 277.414062 71.425781 "/>
<path fill-rule="nonzero" fill="rgb(0%, 0%, 0%)" fill-opacity="1" d="M 280.605469 63.734375 C 280.570312 63.734375 280.554688 63.734375 280.371094 63.917969 C 279.035156 65.238281 277.015625 65.589844 275.375 65.589844 C 273.523438 65.589844 271.667969 65.1875 270.347656 63.867188 C 270.214844 63.734375 270.199219 63.734375 270.164062 63.734375 C 270.082031 63.734375 270.046875 63.769531 270.046875 63.835938 C 270.046875 63.953125 270.785156 64.90625 272.136719 65.539062 C 273.304688 66.074219 274.492188 66.207031 275.375 66.207031 C 276.210938 66.207031 277.5 66.089844 278.71875 65.503906 C 280.019531 64.855469 280.722656 63.953125 280.722656 63.835938 C 280.722656 63.769531 280.6875 63.734375 280.605469 63.734375 Z M 280.605469 63.734375 "/>
<path fill-rule="nonzero" fill="rgb(0%, 0%, 0%)" fill-opacity="1" d="M 274.824219 59.558594 C 274.558594 59.492188 273.574219 59.242188 273.574219 58.507812 C 273.574219 58.457031 273.574219 58.191406 273.707031 57.972656 C 273.773438 58.273438 274.023438 58.472656 274.292969 58.472656 C 274.457031 58.472656 274.660156 58.359375 274.660156 58.074219 C 274.660156 57.839844 274.476562 57.503906 274.039062 57.503906 C 273.488281 57.503906 273.339844 58.125 273.339844 58.492188 C 273.339844 59.109375 273.90625 59.476562 274.140625 59.609375 C 273.4375 59.878906 273.339844 60.445312 273.339844 60.761719 C 273.339844 61.867188 274.707031 62.484375 274.976562 62.484375 C 275.09375 62.484375 275.09375 62.367188 275.09375 62.351562 C 275.09375 62.265625 275.058594 62.234375 274.976562 62.214844 C 273.839844 61.847656 273.574219 61.148438 273.574219 60.78125 C 273.574219 60.578125 273.671875 60.210938 274.292969 60.210938 C 274.625 60.210938 275.328125 60.394531 276.832031 60.78125 C 277.480469 60.945312 277.933594 61.332031 277.933594 61.796875 C 277.933594 61.867188 277.933594 62.097656 277.800781 62.332031 C 277.730469 62.066406 277.515625 61.832031 277.214844 61.832031 C 276.929688 61.832031 276.847656 62.066406 276.847656 62.214844 C 276.847656 62.550781 277.113281 62.800781 277.464844 62.800781 C 277.949219 62.800781 278.167969 62.28125 278.167969 61.816406 C 278.167969 61.097656 277.414062 60.714844 277.363281 60.695312 C 277.75 60.5625 278.167969 60.179688 278.167969 59.542969 C 278.167969 58.441406 276.796875 57.839844 276.53125 57.839844 C 276.414062 57.839844 276.414062 57.921875 276.414062 57.957031 C 276.414062 58.058594 276.460938 58.074219 276.53125 58.105469 C 277.683594 58.457031 277.933594 59.175781 277.933594 59.511719 C 277.933594 59.929688 277.597656 60.09375 277.230469 60.09375 C 276.996094 60.09375 276.761719 60.042969 276.296875 59.929688 Z M 274.824219 59.558594 "/>
<path fill-rule="nonzero" fill="rgb(0%, 0%, 0%)" fill-opacity="1" d="M 275.375 53.957031 C 274.558594 53.957031 273.273438 54.074219 272.054688 54.660156 C 270.75 55.292969 270.046875 56.210938 270.046875 56.3125 C 270.046875 56.378906 270.097656 56.429688 270.164062 56.429688 C 270.199219 56.429688 270.214844 56.429688 270.414062 56.230469 C 271.46875 55.175781 273.15625 54.574219 275.375 54.574219 C 277.214844 54.574219 279.085938 54.960938 280.421875 56.28125 C 280.554688 56.429688 280.570312 56.429688 280.605469 56.429688 C 280.671875 56.429688 280.722656 56.378906 280.722656 56.3125 C 280.722656 56.210938 279.988281 55.242188 278.632812 54.625 C 277.464844 54.074219 276.277344 53.957031 275.375 53.957031 Z M 275.375 53.957031 "/>
<g clip-path="url(#clip-7)">
<path fill-rule="nonzero" fill="rgb(0%, 0%, 0%)" fill-opacity="1" d="M 75.101562 126.226562 C 75.667969 125.609375 75.984375 125.34375 76.371094 125.007812 C 76.371094 125.007812 77.019531 124.441406 77.40625 124.058594 C 78.425781 123.070312 78.65625 122.554688 78.65625 122.503906 C 78.65625 122.402344 78.558594 122.402344 78.542969 122.402344 C 78.457031 122.402344 78.441406 122.417969 78.375 122.519531 C 78.058594 123.039062 77.839844 123.203125 77.589844 123.203125 C 77.320312 123.203125 77.203125 123.039062 77.039062 122.855469 C 76.835938 122.621094 76.652344 122.402344 76.304688 122.402344 C 75.5 122.402344 75.015625 123.390625 75.015625 123.621094 C 75.015625 123.671875 75.050781 123.738281 75.132812 123.738281 C 75.234375 123.738281 75.25 123.6875 75.285156 123.621094 C 75.484375 123.121094 76.101562 123.121094 76.1875 123.121094 C 76.402344 123.121094 76.605469 123.1875 76.855469 123.273438 C 77.289062 123.4375 77.40625 123.4375 77.671875 123.4375 C 77.289062 123.890625 76.402344 124.65625 76.203125 124.824219 L 75.234375 125.726562 C 74.515625 126.445312 74.132812 127.046875 74.132812 127.128906 C 74.132812 127.230469 74.25 127.230469 74.265625 127.230469 C 74.347656 127.230469 74.367188 127.214844 74.433594 127.097656 C 74.683594 126.710938 75 126.429688 75.351562 126.429688 C 75.585938 126.429688 75.703125 126.527344 75.96875 126.828125 C 76.136719 127.0625 76.335938 127.230469 76.636719 127.230469 C 77.707031 127.230469 78.324219 125.878906 78.324219 125.59375 C 78.324219 125.542969 78.273438 125.476562 78.191406 125.476562 C 78.089844 125.476562 78.074219 125.542969 78.039062 125.628906 C 77.789062 126.3125 77.105469 126.511719 76.753906 126.511719 C 76.554688 126.511719 76.351562 126.445312 76.136719 126.378906 C 75.769531 126.246094 75.601562 126.195312 75.382812 126.195312 C 75.367188 126.195312 75.199219 126.195312 75.101562 126.226562 Z M 75.101562 126.226562 "/>
</g>
<g clip-path="url(#clip-8)">
<path fill-rule="nonzero" fill="rgb(0%, 0%, 0%)" fill-opacity="1" d="M 344.71875 123.890625 C 344.785156 123.621094 345.039062 122.636719 345.773438 122.636719 C 345.824219 122.636719 346.089844 122.636719 346.308594 122.769531 C 346.007812 122.835938 345.804688 123.089844 345.804688 123.355469 C 345.804688 123.523438 345.921875 123.722656 346.207031 123.722656 C 346.441406 123.722656 346.773438 123.539062 346.773438 123.105469 C 346.773438 122.554688 346.15625 122.402344 345.789062 122.402344 C 345.171875 122.402344 344.804688 122.972656 344.667969 123.203125 C 344.402344 122.503906 343.835938 122.402344 343.515625 122.402344 C 342.414062 122.402344 341.796875 123.773438 341.796875 124.039062 C 341.796875 124.15625 341.914062 124.15625 341.929688 124.15625 C 342.015625 124.15625 342.046875 124.125 342.0625 124.039062 C 342.429688 122.902344 343.132812 122.636719 343.5 122.636719 C 343.699219 122.636719 344.070312 122.738281 344.070312 123.355469 C 344.070312 123.6875 343.886719 124.390625 343.5 125.894531 C 343.332031 126.546875 342.949219 126.996094 342.480469 126.996094 C 342.414062 126.996094 342.179688 126.996094 341.945312 126.863281 C 342.214844 126.796875 342.449219 126.578125 342.449219 126.277344 C 342.449219 125.996094 342.214844 125.910156 342.0625 125.910156 C 341.730469 125.910156 341.480469 126.179688 341.480469 126.527344 C 341.480469 127.011719 341.996094 127.230469 342.464844 127.230469 C 343.183594 127.230469 343.566406 126.480469 343.585938 126.429688 C 343.71875 126.8125 344.101562 127.230469 344.738281 127.230469 C 345.839844 127.230469 346.441406 125.859375 346.441406 125.59375 C 346.441406 125.476562 346.355469 125.476562 346.324219 125.476562 C 346.222656 125.476562 346.207031 125.527344 346.171875 125.59375 C 345.824219 126.746094 345.105469 126.996094 344.769531 126.996094 C 344.351562 126.996094 344.183594 126.664062 344.183594 126.296875 C 344.183594 126.0625 344.234375 125.828125 344.351562 125.359375 Z M 344.71875 123.890625 "/>
</g>
</svg>
