<?xml version="1.0" encoding="UTF-8"?>
<svg xmlns="http://www.w3.org/2000/svg" xmlns:xlink="http://www.w3.org/1999/xlink" width="410.036896pt" height="191.610077pt" viewBox="0 0 410.036896 191.610077">
<path fill-rule="nonzero" fill="rgb(0%, 0%, 0%)" fill-opacity="1" d="M 225.46875 114.648438 C 223.351562 114.648438 221.445312 115.628906 221.445312 117.9375 C 221.445312 120.191406 223.40625 121.191406 225.46875 121.191406 C 227.535156 121.191406 229.457031 120.175781 229.457031 117.9375 C 229.457031 115.644531 227.585938 114.648438 225.46875 114.648438 Z M 225.46875 115.46875 C 227.027344 115.46875 228.707031 116.152344 228.707031 117.9375 C 228.707031 119.683594 227.007812 120.367188 225.46875 120.367188 C 223.878906 120.367188 222.199219 119.71875 222.199219 117.9375 C 222.199219 116.117188 223.859375 115.46875 225.46875 115.46875 Z M 225.46875 115.46875 "/>
<path fill-rule="nonzero" fill="rgb(0%, 0%, 0%)" fill-opacity="1" d="M 229.300781 109.085938 L 224.261719 109.085938 L 224.261719 109.945312 L 227.113281 109.945312 C 228.058594 109.945312 228.707031 110.417969 228.707031 111.429688 C 228.707031 112.324219 228.144531 112.636719 227.289062 112.636719 L 224.261719 112.636719 L 224.261719 113.441406 L 227.304688 113.441406 C 228.496094 113.441406 229.441406 112.882812 229.441406 111.625 C 229.441406 110.976562 229.074219 110.3125 228.636719 109.945312 L 229.300781 109.945312 Z M 229.300781 109.085938 "/>
<path fill-rule="nonzero" fill="rgb(0%, 0%, 0%)" fill-opacity="1" d="M 229.300781 104.730469 L 228.582031 104.730469 L 228.582031 105.605469 C 228.582031 106.390625 228.390625 106.53125 227.65625 106.53125 L 224.925781 106.53125 L 224.925781 105.042969 L 224.261719 105.042969 L 224.261719 106.53125 L 222.828125 106.53125 L 222.828125 106.882812 L 224.261719 107.355469 L 224.261719 107.949219 L 224.925781 107.949219 L 224.925781 107.355469 L 227.65625 107.355469 C 228.914062 107.355469 229.300781 106.847656 229.300781 105.605469 Z M 229.300781 104.730469 "/>
<path fill-rule="nonzero" fill="rgb(0%, 0%, 0%)" fill-opacity="1" d="M 226.78125 99.082031 C 225.3125 99.082031 224.261719 100.058594 224.261719 101.546875 L 224.261719 103.699219 L 231.992188 103.699219 L 231.992188 102.859375 L 229.300781 102.859375 L 229.300781 101.617188 C 229.300781 99.988281 228.285156 99.082031 226.78125 99.082031 Z M 226.78125 99.886719 C 227.777344 99.886719 228.566406 100.515625 228.566406 101.617188 L 228.566406 102.859375 L 224.996094 102.859375 L 224.996094 101.617188 C 224.996094 100.53125 225.714844 99.886719 226.78125 99.886719 Z M 226.78125 99.886719 "/>
<path fill-rule="nonzero" fill="rgb(0%, 0%, 0%)" fill-opacity="1" d="M 229.300781 93.496094 L 224.261719 93.496094 L 224.261719 94.351562 L 227.113281 94.351562 C 228.058594 94.351562 228.707031 94.824219 228.707031 95.839844 C 228.707031 96.730469 228.144531 97.046875 227.289062 97.046875 L 224.261719 97.046875 L 224.261719 97.851562 L 227.304688 97.851562 C 228.496094 97.851562 229.441406 97.289062 229.441406 96.03125 C 229.441406 95.382812 229.074219 94.71875 228.636719 94.351562 L 229.300781 94.351562 Z M 229.300781 93.496094 "/>
<path fill-rule="nonzero" fill="rgb(0%, 0%, 0%)" fill-opacity="1" d="M 229.300781 89.136719 L 228.582031 89.136719 L 228.582031 90.011719 C 228.582031 90.800781 228.390625 90.9375 227.65625 90.9375 L 224.925781 90.9375 L 224.925781 89.453125 L 224.261719 89.453125 L 224.261719 90.9375 L 222.828125 90.9375 L 222.828125 91.289062 L 224.261719 91.761719 L 224.261719 92.355469 L 224.925781 92.355469 L 224.925781 91.761719 L 227.65625 91.761719 C 228.914062 91.761719 229.300781 91.253906 229.300781 90.011719 Z M 229.300781 89.136719 "/>
<path fill-rule="nonzero" fill="rgb(0%, 0%, 0%)" fill-opacity="1" d="M 228.164062 87.019531 L 228.164062 88.035156 L 228.933594 88.035156 C 229.074219 87.964844 229.210938 87.949219 229.351562 87.949219 C 229.753906 87.949219 230.175781 88.15625 230.367188 88.457031 C 230.351562 87.878906 229.492188 87.039062 228.949219 87.019531 Z M 228.164062 87.019531 "/>
<path fill-rule="nonzero" fill="rgb(0%, 0%, 0%)" fill-opacity="1" d="M 222.285156 79.472656 L 221.585938 79.472656 L 221.585938 80.277344 C 221.585938 81.082031 222.128906 81.886719 223.597656 81.921875 L 224.261719 81.921875 L 224.261719 82.746094 L 224.945312 82.746094 L 224.945312 81.921875 L 229.300781 81.921875 L 229.300781 81.082031 L 224.945312 81.082031 L 224.945312 79.664062 L 224.261719 79.664062 L 224.261719 81.082031 L 223.492188 81.082031 C 222.511719 81.082031 222.285156 80.523438 222.285156 80.296875 Z M 222.285156 79.472656 "/>
<path fill-rule="nonzero" fill="rgb(0%, 0%, 0%)" fill-opacity="1" d="M 232.097656 76.609375 L 231.644531 76.609375 L 231.644531 77.695312 L 221.375 77.695312 L 221.375 76.609375 L 220.921875 76.609375 L 220.921875 78.148438 L 232.097656 78.148438 Z M 232.097656 76.609375 "/>
<path fill-rule="nonzero" fill="rgb(0%, 0%, 0%)" fill-opacity="1" d="M 228.375 74.875 C 227.726562 74.28125 227.445312 73.949219 227.097656 73.546875 C 227.097656 73.546875 226.5 72.863281 226.097656 72.460938 C 225.066406 71.394531 224.523438 71.152344 224.472656 71.152344 C 224.367188 71.152344 224.367188 71.253906 224.367188 71.273438 C 224.367188 71.359375 224.382812 71.378906 224.488281 71.449219 C 225.03125 71.78125 225.207031 72.007812 225.207031 72.269531 C 225.207031 72.550781 225.03125 72.671875 224.839844 72.847656 C 224.59375 73.058594 224.367188 73.25 224.367188 73.617188 C 224.367188 74.457031 225.398438 74.964844 225.644531 74.964844 C 225.695312 74.964844 225.765625 74.929688 225.765625 74.839844 C 225.765625 74.738281 225.714844 74.71875 225.644531 74.683594 C 225.121094 74.472656 225.121094 73.828125 225.121094 73.738281 C 225.121094 73.511719 225.1875 73.300781 225.277344 73.039062 C 225.453125 72.585938 225.453125 72.460938 225.453125 72.183594 C 225.925781 72.585938 226.730469 73.511719 226.902344 73.722656 L 227.847656 74.738281 C 228.601562 75.488281 229.230469 75.890625 229.316406 75.890625 C 229.421875 75.890625 229.421875 75.769531 229.421875 75.75 C 229.421875 75.664062 229.40625 75.644531 229.28125 75.578125 C 228.878906 75.3125 228.582031 74.980469 228.582031 74.613281 C 228.582031 74.371094 228.6875 74.246094 229.003906 73.96875 C 229.246094 73.792969 229.421875 73.582031 229.421875 73.265625 C 229.421875 72.148438 228.003906 71.5 227.707031 71.5 C 227.65625 71.5 227.585938 71.554688 227.585938 71.640625 C 227.585938 71.746094 227.65625 71.761719 227.742188 71.796875 C 228.460938 72.058594 228.671875 72.777344 228.671875 73.144531 C 228.671875 73.355469 228.601562 73.566406 228.53125 73.792969 C 228.390625 74.175781 228.339844 74.351562 228.339844 74.578125 C 228.339844 74.597656 228.339844 74.773438 228.375 74.875 Z M 228.375 74.875 "/>
<path fill-rule="nonzero" fill="rgb(0%, 0%, 0%)" fill-opacity="1" d="M 220.921875 68.917969 L 220.921875 70.441406 L 221.375 70.441406 L 221.375 69.355469 L 231.644531 69.355469 L 231.644531 70.441406 L 232.097656 70.441406 L 232.097656 68.917969 Z M 220.921875 68.917969 "/>
<path fill="none" stroke-width="1.984252" stroke-linecap="butt" stroke-linejoin="miter" stroke="rgb(62.744141%, 85.096741%, 82.743835%)" stroke-opacity="1" stroke-miterlimit="4" d="M 33.027344 48.644531 C 33.027344 48.644531 52.277344 58.453125 61.417969 64.183594 C 68.199219 68.433594 73.4375 75.417969 80.972656 78.109375 C 87.882812 80.578125 94.785156 78.296875 101.730469 80.65625 C 111.5 83.96875 117.320312 93.65625 125.707031 97.394531 C 133.273438 100.773438 141.082031 98.460938 149.007812 100.878906 C 158.753906 103.851562 167.292969 109.972656 176.867188 113.46875 C 181.484375 115.15625 186.308594 116.21875 191.0625 117.484375 C 191.417969 117.582031 192.132812 117.753906 192.132812 117.753906 "/>
<path fill="none" stroke-width="0.867582" stroke-linecap="butt" stroke-linejoin="miter" stroke="rgb(50.195312%, 50.195312%, 50.195312%)" stroke-opacity="1" stroke-miterlimit="4" d="M 34.209286 174.570312 L 31.574675 174.570312 " transform="matrix(0.960768, 0, 0, 1, 0, 0)"/>
<path fill="none" stroke-width="0.867582" stroke-linecap="butt" stroke-linejoin="miter" stroke="rgb(50.195312%, 50.195312%, 50.195312%)" stroke-opacity="1" stroke-miterlimit="4" d="M 34.331259 126.914062 L 32.534194 126.914062 " transform="matrix(0.960768, 0, 0, 1, 0, 0)"/>
<path fill="none" stroke-width="0.867582" stroke-linecap="butt" stroke-linejoin="miter" stroke="rgb(50.195312%, 50.195312%, 50.195312%)" stroke-opacity="1" stroke-miterlimit="4" d="M 34.331259 142.800781 L 32.534194 142.800781 " transform="matrix(0.960768, 0, 0, 1, 0, 0)"/>
<path fill="none" stroke-width="0.867582" stroke-linecap="butt" stroke-linejoin="miter" stroke="rgb(50.195312%, 50.195312%, 50.195312%)" stroke-opacity="1" stroke-miterlimit="4" d="M 34.331259 158.683594 L 32.534194 158.683594 " transform="matrix(0.960768, 0, 0, 1, 0, 0)"/>
<path fill="none" stroke-width="0.867582" stroke-linecap="butt" stroke-linejoin="miter" stroke="rgb(50.195312%, 50.195312%, 50.195312%)" stroke-opacity="1" stroke-miterlimit="4" d="M 34.331259 31.605469 L 32.534194 31.605469 " transform="matrix(0.960768, 0, 0, 1, 0, 0)"/>
<path fill="none" stroke-width="0.867582" stroke-linecap="butt" stroke-linejoin="miter" stroke="rgb(50.195312%, 50.195312%, 50.195312%)" stroke-opacity="1" stroke-miterlimit="4" d="M 34.331259 15.71875 L 31.700714 15.71875 " transform="matrix(0.960768, 0, 0, 1, 0, 0)"/>
<path fill-rule="nonzero" fill="rgb(50.195312%, 50.195312%, 50.195312%)" fill-opacity="1" d="M 21.558594 18.363281 L 21.558594 12.902344 L 20.902344 12.902344 L 20.121094 13.535156 L 20.121094 14.152344 L 20.941406 13.484375 L 20.941406 18.363281 Z M 21.558594 18.363281 "/>
<path fill-rule="nonzero" fill="rgb(50.195312%, 50.195312%, 50.195312%)" fill-opacity="1" d="M 22.746094 17.558594 L 23.5 17.558594 L 23.5 18.363281 L 22.746094 18.363281 Z M 22.746094 17.558594 "/>
<path fill-rule="nonzero" fill="rgb(50.195312%, 50.195312%, 50.195312%)" fill-opacity="1" d="M 27.980469 15.652344 C 27.96875 14.488281 27.707031 12.804688 26.234375 12.804688 C 24.757812 12.804688 24.511719 14.511719 24.511719 15.652344 C 24.511719 16.804688 24.773438 18.476562 26.234375 18.476562 C 27.695312 18.476562 27.980469 16.804688 27.980469 15.652344 Z M 27.410156 15.652344 C 27.410156 16.40625 27.347656 17.957031 26.234375 17.957031 C 25.117188 17.957031 25.082031 16.382812 25.082031 15.652344 C 25.082031 14.910156 25.105469 13.3125 26.234375 13.3125 C 27.347656 13.3125 27.410156 14.921875 27.410156 15.652344 Z M 27.410156 15.652344 "/>
<path fill="none" stroke-width="0.867582" stroke-linecap="butt" stroke-linejoin="miter" stroke="rgb(50.195312%, 50.195312%, 50.195312%)" stroke-opacity="1" stroke-miterlimit="4" d="M -181.918267 191.875 L -184.552879 191.875 " transform="matrix(0, -0.960768, 1, 0, 0, 0)"/>
<path fill="none" stroke-width="0.867582" stroke-linecap="butt" stroke-linejoin="miter" stroke="rgb(50.195312%, 50.195312%, 50.195312%)" stroke-opacity="1" stroke-miterlimit="4" d="M -181.796295 80.722656 L -183.59336 80.722656 " transform="matrix(0, -0.960768, 1, 0, 0, 0)"/>
<path fill="none" stroke-width="0.867582" stroke-linecap="butt" stroke-linejoin="miter" stroke="rgb(50.195312%, 50.195312%, 50.195312%)" stroke-opacity="1" stroke-miterlimit="4" d="M -181.796295 112.480469 L -183.59336 112.480469 " transform="matrix(0, -0.960768, 1, 0, 0, 0)"/>
<path fill="none" stroke-width="0.867582" stroke-linecap="butt" stroke-linejoin="miter" stroke="rgb(50.195312%, 50.195312%, 50.195312%)" stroke-opacity="1" stroke-miterlimit="4" d="M -181.796295 144.238281 L -183.59336 144.238281 " transform="matrix(0, -0.960768, 1, 0, 0, 0)"/>
<path fill="none" stroke-width="0.867582" stroke-linecap="butt" stroke-linejoin="miter" stroke="rgb(50.195312%, 50.195312%, 50.195312%)" stroke-opacity="1" stroke-miterlimit="4" d="M -181.796295 48.96875 L -183.59336 48.96875 " transform="matrix(0, -0.960768, 1, 0, 0, 0)"/>
<path fill="none" stroke-width="0.867582" stroke-linecap="butt" stroke-linejoin="miter" stroke="rgb(50.195312%, 50.195312%, 50.195312%)" stroke-opacity="1" stroke-miterlimit="4" d="M -181.796295 33.089844 L -184.430906 33.089844 " transform="matrix(0, -0.960768, 1, 0, 0, 0)"/>
<path fill-rule="nonzero" fill="rgb(50.195312%, 50.195312%, 50.195312%)" fill-opacity="1" d="M 189.527344 183.117188 L 189.527344 177.65625 L 188.871094 177.65625 L 188.089844 178.285156 L 188.089844 178.90625 L 188.910156 178.238281 L 188.910156 183.117188 Z M 189.527344 183.117188 "/>
<path fill-rule="nonzero" fill="rgb(50.195312%, 50.195312%, 50.195312%)" fill-opacity="1" d="M 190.714844 182.3125 L 191.46875 182.3125 L 191.46875 183.117188 L 190.714844 183.117188 Z M 190.714844 182.3125 "/>
<path fill-rule="nonzero" fill="rgb(50.195312%, 50.195312%, 50.195312%)" fill-opacity="1" d="M 195.949219 180.402344 C 195.9375 179.238281 195.675781 177.554688 194.203125 177.554688 C 192.730469 177.554688 192.480469 179.265625 192.480469 180.402344 C 192.480469 181.554688 192.742188 183.226562 194.203125 183.226562 C 195.664062 183.226562 195.949219 181.554688 195.949219 180.402344 Z M 195.378906 180.402344 C 195.378906 181.160156 195.316406 182.707031 194.203125 182.707031 C 193.085938 182.707031 193.050781 181.136719 193.050781 180.402344 C 193.050781 179.660156 193.074219 178.0625 194.203125 178.0625 C 195.316406 178.0625 195.378906 179.671875 195.378906 180.402344 Z M 195.378906 180.402344 "/>
<path fill-rule="nonzero" fill="rgb(50.195312%, 50.195312%, 50.195312%)" fill-opacity="1" d="M 32.257812 180.402344 C 32.246094 179.238281 31.984375 177.554688 30.511719 177.554688 C 29.035156 177.554688 28.789062 179.265625 28.789062 180.402344 C 28.789062 181.554688 29.046875 183.226562 30.511719 183.226562 C 31.972656 183.226562 32.257812 181.554688 32.257812 180.402344 Z M 31.6875 180.402344 C 31.6875 181.160156 31.625 182.707031 30.511719 182.707031 C 29.394531 182.707031 29.359375 181.136719 29.359375 180.402344 C 29.359375 179.660156 29.382812 178.0625 30.511719 178.0625 C 31.625 178.0625 31.6875 179.671875 31.6875 180.402344 Z M 31.6875 180.402344 "/>
<path fill-rule="nonzero" fill="rgb(50.195312%, 50.195312%, 50.195312%)" fill-opacity="1" d="M 33.269531 182.3125 L 34.023438 182.3125 L 34.023438 183.117188 L 33.269531 183.117188 Z M 33.269531 182.3125 "/>
<path fill-rule="nonzero" fill="rgb(50.195312%, 50.195312%, 50.195312%)" fill-opacity="1" d="M 38.503906 180.402344 C 38.492188 179.238281 38.230469 177.554688 36.757812 177.554688 C 35.28125 177.554688 35.035156 179.265625 35.035156 180.402344 C 35.035156 181.554688 35.296875 183.226562 36.757812 183.226562 C 38.21875 183.226562 38.503906 181.554688 38.503906 180.402344 Z M 37.933594 180.402344 C 37.933594 181.160156 37.871094 182.707031 36.757812 182.707031 C 35.640625 182.707031 35.605469 181.136719 35.605469 180.402344 C 35.605469 179.660156 35.628906 178.0625 36.757812 178.0625 C 37.871094 178.0625 37.933594 179.671875 37.933594 180.402344 Z M 37.933594 180.402344 "/>
<path fill="none" stroke-width="0.850394" stroke-linecap="butt" stroke-linejoin="round" stroke="rgb(1.176453%, 0%, 0%)" stroke-opacity="1" stroke-miterlimit="4" d="M 33.078125 15.710938 L 191.960938 15.710938 L 191.960938 174.664062 L 33.078125 174.664062 Z M 33.078125 15.710938 "/>
<path fill="none" stroke-width="0.867582" stroke-linecap="butt" stroke-linejoin="miter" stroke="rgb(50.195312%, 50.195312%, 50.195312%)" stroke-opacity="1" stroke-miterlimit="4" d="M 250.288051 174.570312 L 247.657506 174.570312 " transform="matrix(0.960768, 0, 0, 1, 0, 0)"/>
<path fill="none" stroke-width="0.867582" stroke-linecap="butt" stroke-linejoin="miter" stroke="rgb(50.195312%, 50.195312%, 50.195312%)" stroke-opacity="1" stroke-miterlimit="4" d="M 250.414089 47.277344 L 248.617024 47.277344 " transform="matrix(0.960768, 0, 0, 1, 0, 0)"/>
<path fill="none" stroke-width="0.867582" stroke-linecap="butt" stroke-linejoin="miter" stroke="rgb(50.195312%, 50.195312%, 50.195312%)" stroke-opacity="1" stroke-miterlimit="4" d="M 250.414089 63.1875 L 248.617024 63.1875 " transform="matrix(0.960768, 0, 0, 1, 0, 0)"/>
<path fill="none" stroke-width="0.867582" stroke-linecap="butt" stroke-linejoin="miter" stroke="rgb(50.195312%, 50.195312%, 50.195312%)" stroke-opacity="1" stroke-miterlimit="4" d="M 250.414089 79.101562 L 248.617024 79.101562 " transform="matrix(0.960768, 0, 0, 1, 0, 0)"/>
<path fill="none" stroke-width="0.867582" stroke-linecap="butt" stroke-linejoin="miter" stroke="rgb(50.195312%, 50.195312%, 50.195312%)" stroke-opacity="1" stroke-miterlimit="4" d="M 250.414089 31.363281 L 248.617024 31.363281 " transform="matrix(0.960768, 0, 0, 1, 0, 0)"/>
<path fill="none" stroke-width="0.867582" stroke-linecap="butt" stroke-linejoin="miter" stroke="rgb(50.195312%, 50.195312%, 50.195312%)" stroke-opacity="1" stroke-miterlimit="4" d="M 250.414089 15.453125 L 247.779478 15.453125 " transform="matrix(0.960768, 0, 0, 1, 0, 0)"/>
<path fill="none" stroke-width="0.867582" stroke-linecap="butt" stroke-linejoin="miter" stroke="rgb(50.195312%, 50.195312%, 50.195312%)" stroke-opacity="1" stroke-miterlimit="4" d="M 241.042969 165.138885 L 238.410156 165.138885 " transform="matrix(1, 0, 0, 0.960768, 0, 0)"/>
<path fill-rule="nonzero" fill="rgb(50.195312%, 50.195312%, 50.195312%)" fill-opacity="1" d="M 229.160156 18.363281 L 229.160156 12.902344 L 228.503906 12.902344 L 227.726562 13.535156 L 227.726562 14.152344 L 228.542969 13.484375 L 228.542969 18.363281 Z M 229.160156 18.363281 "/>
<path fill-rule="nonzero" fill="rgb(50.195312%, 50.195312%, 50.195312%)" fill-opacity="1" d="M 230.347656 17.558594 L 231.105469 17.558594 L 231.105469 18.363281 L 230.347656 18.363281 Z M 230.347656 17.558594 "/>
<path fill-rule="nonzero" fill="rgb(50.195312%, 50.195312%, 50.195312%)" fill-opacity="1" d="M 235.582031 15.652344 C 235.570312 14.488281 235.308594 12.804688 233.835938 12.804688 C 232.363281 12.804688 232.113281 14.511719 232.113281 15.652344 C 232.113281 16.804688 232.375 18.476562 233.835938 18.476562 C 235.296875 18.476562 235.582031 16.804688 235.582031 15.652344 Z M 235.011719 15.652344 C 235.011719 16.40625 234.949219 17.957031 233.835938 17.957031 C 232.722656 17.957031 232.683594 16.382812 232.683594 15.652344 C 232.683594 14.910156 232.707031 13.3125 233.835938 13.3125 C 234.949219 13.3125 235.011719 14.921875 235.011719 15.652344 Z M 235.011719 15.652344 "/>
<path fill="none" stroke-width="0.867582" stroke-linecap="butt" stroke-linejoin="miter" stroke="rgb(50.195312%, 50.195312%, 50.195312%)" stroke-opacity="1" stroke-miterlimit="4" d="M -181.918267 399.476562 L -184.552879 399.476562 " transform="matrix(0, -0.960768, 1, 0, 0, 0)"/>
<path fill="none" stroke-width="0.867582" stroke-linecap="butt" stroke-linejoin="miter" stroke="rgb(50.195312%, 50.195312%, 50.195312%)" stroke-opacity="1" stroke-miterlimit="4" d="M -181.796295 272.464844 L -183.59336 272.464844 " transform="matrix(0, -0.960768, 1, 0, 0, 0)"/>
<path fill="none" stroke-width="0.867582" stroke-linecap="butt" stroke-linejoin="miter" stroke="rgb(50.195312%, 50.195312%, 50.195312%)" stroke-opacity="1" stroke-miterlimit="4" d="M -181.796295 335.972656 L -183.59336 335.972656 " transform="matrix(0, -0.960768, 1, 0, 0, 0)"/>
<path fill="none" stroke-width="0.867582" stroke-linecap="butt" stroke-linejoin="miter" stroke="rgb(50.195312%, 50.195312%, 50.195312%)" stroke-opacity="1" stroke-miterlimit="4" d="M -181.796295 367.726562 L -183.59336 367.726562 " transform="matrix(0, -0.960768, 1, 0, 0, 0)"/>
<path fill="none" stroke-width="0.867582" stroke-linecap="butt" stroke-linejoin="miter" stroke="rgb(50.195312%, 50.195312%, 50.195312%)" stroke-opacity="1" stroke-miterlimit="4" d="M -181.796295 256.589844 L -183.59336 256.589844 " transform="matrix(0, -0.960768, 1, 0, 0, 0)"/>
<path fill="none" stroke-width="0.867582" stroke-linecap="butt" stroke-linejoin="miter" stroke="rgb(50.195312%, 50.195312%, 50.195312%)" stroke-opacity="1" stroke-miterlimit="4" d="M -181.796295 240.710938 L -184.430906 240.710938 " transform="matrix(0, -0.960768, 1, 0, 0, 0)"/>
<path fill-rule="nonzero" fill="rgb(50.195312%, 50.195312%, 50.195312%)" fill-opacity="1" d="M 397.132812 183.117188 L 397.132812 177.65625 L 396.476562 177.65625 L 395.695312 178.285156 L 395.695312 178.90625 L 396.511719 178.238281 L 396.511719 183.117188 Z M 397.132812 183.117188 "/>
<path fill-rule="nonzero" fill="rgb(50.195312%, 50.195312%, 50.195312%)" fill-opacity="1" d="M 398.316406 182.3125 L 399.074219 182.3125 L 399.074219 183.117188 L 398.316406 183.117188 Z M 398.316406 182.3125 "/>
<path fill-rule="nonzero" fill="rgb(50.195312%, 50.195312%, 50.195312%)" fill-opacity="1" d="M 403.550781 180.402344 C 403.539062 179.238281 403.28125 177.554688 401.804688 177.554688 C 400.332031 177.554688 400.082031 179.265625 400.082031 180.402344 C 400.082031 181.554688 400.34375 183.226562 401.804688 183.226562 C 403.265625 183.226562 403.550781 181.554688 403.550781 180.402344 Z M 402.980469 180.402344 C 402.980469 181.160156 402.921875 182.707031 401.804688 182.707031 C 400.691406 182.707031 400.652344 181.136719 400.652344 180.402344 C 400.652344 179.660156 400.679688 178.0625 401.804688 178.0625 C 402.921875 178.0625 402.980469 179.671875 402.980469 180.402344 Z M 402.980469 180.402344 "/>
<path fill-rule="nonzero" fill="rgb(50.195312%, 50.195312%, 50.195312%)" fill-opacity="1" d="M 230.769531 174.058594 C 230.757812 172.894531 230.496094 171.210938 229.023438 171.210938 C 227.546875 171.210938 227.300781 172.917969 227.300781 174.058594 C 227.300781 175.210938 227.558594 176.882812 229.023438 176.882812 C 230.484375 176.882812 230.769531 175.210938 230.769531 174.058594 Z M 230.199219 174.058594 C 230.199219 174.816406 230.136719 176.363281 229.023438 176.363281 C 227.90625 176.363281 227.871094 174.789062 227.871094 174.058594 C 227.871094 173.316406 227.894531 171.71875 229.023438 171.71875 C 230.136719 171.71875 230.199219 173.328125 230.199219 174.058594 Z M 230.199219 174.058594 "/>
<path fill-rule="nonzero" fill="rgb(50.195312%, 50.195312%, 50.195312%)" fill-opacity="1" d="M 231.78125 175.964844 L 232.535156 175.964844 L 232.535156 176.773438 L 231.78125 176.773438 Z M 231.78125 175.964844 "/>
<path fill-rule="nonzero" fill="rgb(50.195312%, 50.195312%, 50.195312%)" fill-opacity="1" d="M 237.015625 174.058594 C 237.003906 172.894531 236.742188 171.210938 235.269531 171.210938 C 233.792969 171.210938 233.546875 172.917969 233.546875 174.058594 C 233.546875 175.210938 233.808594 176.882812 235.269531 176.882812 C 236.730469 176.882812 237.015625 175.210938 237.015625 174.058594 Z M 236.445312 174.058594 C 236.445312 174.816406 236.382812 176.363281 235.269531 176.363281 C 234.152344 176.363281 234.117188 174.789062 234.117188 174.058594 C 234.117188 173.316406 234.140625 171.71875 235.269531 171.71875 C 236.382812 171.71875 236.445312 173.328125 236.445312 174.058594 Z M 236.445312 174.058594 "/>
<path fill="none" stroke-width="0.850394" stroke-linecap="butt" stroke-linejoin="miter" stroke="rgb(0%, 0%, 0%)" stroke-opacity="1" stroke-dasharray="5.102362 0.850394" stroke-miterlimit="4" d="M 32.867188 174.570312 L 191.960938 15.710938 "/>
<path fill="none" stroke-width="0.867582" stroke-linecap="butt" stroke-linejoin="miter" stroke="rgb(50.195312%, 50.195312%, 50.195312%)" stroke-opacity="1" stroke-miterlimit="4" d="M -181.796295 96.601562 L -183.59336 96.601562 " transform="matrix(0, -0.960768, 1, 0, 0, 0)"/>
<path fill="none" stroke-width="0.867582" stroke-linecap="butt" stroke-linejoin="miter" stroke="rgb(50.195312%, 50.195312%, 50.195312%)" stroke-opacity="1" stroke-miterlimit="4" d="M -181.796295 128.359375 L -183.59336 128.359375 " transform="matrix(0, -0.960768, 1, 0, 0, 0)"/>
<path fill="none" stroke-width="0.867582" stroke-linecap="butt" stroke-linejoin="miter" stroke="rgb(50.195312%, 50.195312%, 50.195312%)" stroke-opacity="1" stroke-miterlimit="4" d="M -181.796295 160.117188 L -183.59336 160.117188 " transform="matrix(0, -0.960768, 1, 0, 0, 0)"/>
<path fill="none" stroke-width="0.867582" stroke-linecap="butt" stroke-linejoin="miter" stroke="rgb(50.195312%, 50.195312%, 50.195312%)" stroke-opacity="1" stroke-miterlimit="4" d="M -181.796295 64.847656 L -183.59336 64.847656 " transform="matrix(0, -0.960768, 1, 0, 0, 0)"/>
<path fill="none" stroke-width="0.867582" stroke-linecap="butt" stroke-linejoin="miter" stroke="rgb(50.195312%, 50.195312%, 50.195312%)" stroke-opacity="1" stroke-miterlimit="4" d="M -181.796295 175.996094 L -183.59336 175.996094 " transform="matrix(0, -0.960768, 1, 0, 0, 0)"/>
<path fill="none" stroke-width="0.867582" stroke-linecap="butt" stroke-linejoin="miter" stroke="rgb(50.195312%, 50.195312%, 50.195312%)" stroke-opacity="1" stroke-miterlimit="4" d="M 34.331259 47.492188 L 32.534194 47.492188 " transform="matrix(0.960768, 0, 0, 1, 0, 0)"/>
<path fill="none" stroke-width="0.867582" stroke-linecap="butt" stroke-linejoin="miter" stroke="rgb(50.195312%, 50.195312%, 50.195312%)" stroke-opacity="1" stroke-miterlimit="4" d="M 34.331259 63.375 L 32.534194 63.375 " transform="matrix(0.960768, 0, 0, 1, 0, 0)"/>
<path fill="none" stroke-width="0.867582" stroke-linecap="butt" stroke-linejoin="miter" stroke="rgb(50.195312%, 50.195312%, 50.195312%)" stroke-opacity="1" stroke-miterlimit="4" d="M 34.331259 79.261719 L 32.534194 79.261719 " transform="matrix(0.960768, 0, 0, 1, 0, 0)"/>
<path fill="none" stroke-width="0.867582" stroke-linecap="butt" stroke-linejoin="miter" stroke="rgb(50.195312%, 50.195312%, 50.195312%)" stroke-opacity="1" stroke-miterlimit="4" d="M 34.331259 95.144531 L 32.534194 95.144531 " transform="matrix(0.960768, 0, 0, 1, 0, 0)"/>
<path fill="none" stroke-width="0.867582" stroke-linecap="butt" stroke-linejoin="miter" stroke="rgb(50.195312%, 50.195312%, 50.195312%)" stroke-opacity="1" stroke-miterlimit="4" d="M 34.331259 111.03125 L 32.534194 111.03125 " transform="matrix(0.960768, 0, 0, 1, 0, 0)"/>
<path fill-rule="nonzero" fill="rgb(0%, 0%, 0%)" fill-opacity="1" d="M 95.429688 178.726562 L 96.269531 178.726562 L 96.269531 186.4375 L 95.429688 186.4375 Z M 95.429688 178.726562 "/>
<path fill-rule="nonzero" fill="rgb(0%, 0%, 0%)" fill-opacity="1" d="M 102.144531 186.4375 L 102.144531 183.394531 C 102.144531 182.207031 101.636719 181.277344 100.34375 181.277344 C 99.695312 181.277344 99.03125 181.523438 98.628906 182.082031 L 98.628906 181.402344 L 97.808594 181.402344 L 97.808594 186.4375 L 98.628906 186.4375 L 98.628906 183.589844 C 98.664062 182.625 99.257812 182.015625 100.152344 182.015625 C 101.027344 182.015625 101.339844 182.539062 101.339844 183.429688 L 101.339844 186.4375 Z M 102.144531 186.4375 "/>
<path fill-rule="nonzero" fill="rgb(0%, 0%, 0%)" fill-opacity="1" d="M 108.234375 183.921875 C 108.234375 182.449219 107.257812 181.402344 105.769531 181.402344 L 103.617188 181.402344 L 103.617188 189.132812 L 104.457031 189.132812 L 104.457031 186.4375 L 105.699219 186.4375 C 107.328125 186.4375 108.234375 185.425781 108.234375 183.921875 Z M 107.429688 183.921875 C 107.429688 184.917969 106.800781 185.703125 105.699219 185.703125 L 104.457031 185.703125 L 104.457031 182.136719 L 105.699219 182.136719 C 106.785156 182.136719 107.429688 182.851562 107.429688 183.921875 Z M 107.429688 183.921875 "/>
<path fill-rule="nonzero" fill="rgb(0%, 0%, 0%)" fill-opacity="1" d="M 113.820312 186.4375 L 113.820312 181.402344 L 112.964844 181.402344 L 112.964844 184.253906 C 112.964844 185.199219 112.492188 185.84375 111.476562 185.84375 C 110.585938 185.84375 110.269531 185.285156 110.269531 184.429688 L 110.269531 181.402344 L 109.464844 181.402344 L 109.464844 184.445312 C 109.464844 185.632812 110.027344 186.578125 111.285156 186.578125 C 111.933594 186.578125 112.597656 186.210938 112.964844 185.773438 L 112.964844 186.4375 Z M 113.820312 186.4375 "/>
<path fill-rule="nonzero" fill="rgb(0%, 0%, 0%)" fill-opacity="1" d="M 118.179688 186.4375 L 118.179688 185.722656 L 117.304688 185.722656 C 116.515625 185.722656 116.378906 185.53125 116.378906 184.796875 L 116.378906 182.066406 L 117.863281 182.066406 L 117.863281 181.402344 L 116.378906 181.402344 L 116.378906 179.96875 L 116.027344 179.96875 L 115.554688 181.402344 L 114.960938 181.402344 L 114.960938 182.066406 L 115.554688 182.066406 L 115.554688 184.796875 C 115.554688 186.054688 116.0625 186.4375 117.304688 186.4375 Z M 118.179688 186.4375 "/>
<path fill-rule="nonzero" fill="rgb(0%, 0%, 0%)" fill-opacity="1" d="M 120.296875 185.300781 L 119.28125 185.300781 L 119.28125 186.070312 C 119.351562 186.210938 119.367188 186.351562 119.367188 186.492188 C 119.367188 186.894531 119.15625 187.3125 118.859375 187.507812 C 119.4375 187.488281 120.277344 186.632812 120.296875 186.089844 Z M 120.296875 185.300781 "/>
<path fill-rule="nonzero" fill="rgb(0%, 0%, 0%)" fill-opacity="1" d="M 125.761719 185.511719 C 126.355469 184.863281 126.6875 184.585938 127.089844 184.234375 C 127.089844 184.234375 127.773438 183.640625 128.175781 183.238281 C 129.242188 182.207031 129.488281 181.664062 129.488281 181.613281 C 129.488281 181.507812 129.382812 181.507812 129.363281 181.507812 C 129.277344 181.507812 129.261719 181.523438 129.191406 181.628906 C 128.859375 182.171875 128.628906 182.347656 128.367188 182.347656 C 128.089844 182.347656 127.964844 182.171875 127.789062 181.980469 C 127.582031 181.734375 127.386719 181.507812 127.019531 181.507812 C 126.179688 181.507812 125.675781 182.539062 125.675781 182.785156 C 125.675781 182.835938 125.710938 182.90625 125.796875 182.90625 C 125.902344 182.90625 125.917969 182.851562 125.953125 182.785156 C 126.164062 182.257812 126.8125 182.257812 126.898438 182.257812 C 127.125 182.257812 127.335938 182.328125 127.597656 182.417969 C 128.054688 182.589844 128.175781 182.589844 128.457031 182.589844 C 128.054688 183.0625 127.125 183.867188 126.914062 184.042969 L 125.902344 184.988281 C 125.148438 185.738281 124.746094 186.371094 124.746094 186.457031 C 124.746094 186.5625 124.871094 186.5625 124.886719 186.5625 C 124.972656 186.5625 124.992188 186.542969 125.0625 186.421875 C 125.324219 186.019531 125.65625 185.722656 126.023438 185.722656 C 126.269531 185.722656 126.390625 185.828125 126.671875 186.140625 C 126.847656 186.386719 127.054688 186.5625 127.371094 186.5625 C 128.492188 186.5625 129.136719 185.144531 129.136719 184.847656 C 129.136719 184.796875 129.085938 184.726562 128.996094 184.726562 C 128.894531 184.726562 128.875 184.796875 128.839844 184.882812 C 128.578125 185.601562 127.859375 185.808594 127.492188 185.808594 C 127.285156 185.808594 127.074219 185.738281 126.847656 185.667969 C 126.460938 185.53125 126.285156 185.476562 126.058594 185.476562 C 126.042969 185.476562 125.867188 185.476562 125.761719 185.511719 Z M 125.761719 185.511719 "/>
<path fill-rule="nonzero" fill="rgb(0%, 0%, 0%)" fill-opacity="1" d="M 19.398438 114.648438 C 17.28125 114.648438 15.375 115.628906 15.375 117.9375 C 15.375 120.191406 17.335938 121.191406 19.398438 121.191406 C 21.460938 121.191406 23.386719 120.175781 23.386719 117.9375 C 23.386719 115.644531 21.515625 114.648438 19.398438 114.648438 Z M 19.398438 115.46875 C 20.953125 115.46875 22.632812 116.152344 22.632812 117.9375 C 22.632812 119.683594 20.9375 120.367188 19.398438 120.367188 C 17.804688 120.367188 16.128906 119.71875 16.128906 117.9375 C 16.128906 116.117188 17.789062 115.46875 19.398438 115.46875 Z M 19.398438 115.46875 "/>
<path fill-rule="nonzero" fill="rgb(0%, 0%, 0%)" fill-opacity="1" d="M 23.230469 109.085938 L 18.191406 109.085938 L 18.191406 109.945312 L 21.042969 109.945312 C 21.988281 109.945312 22.632812 110.417969 22.632812 111.429688 C 22.632812 112.324219 22.074219 112.636719 21.21875 112.636719 L 18.191406 112.636719 L 18.191406 113.441406 L 21.234375 113.441406 C 22.425781 113.441406 23.367188 112.882812 23.367188 111.625 C 23.367188 110.976562 23 110.3125 22.5625 109.945312 L 23.230469 109.945312 Z M 23.230469 109.085938 "/>
<path fill-rule="nonzero" fill="rgb(0%, 0%, 0%)" fill-opacity="1" d="M 23.230469 104.730469 L 22.511719 104.730469 L 22.511719 105.605469 C 22.511719 106.390625 22.320312 106.53125 21.585938 106.53125 L 18.855469 106.53125 L 18.855469 105.042969 L 18.191406 105.042969 L 18.191406 106.53125 L 16.757812 106.53125 L 16.757812 106.882812 L 18.191406 107.355469 L 18.191406 107.949219 L 18.855469 107.949219 L 18.855469 107.355469 L 21.585938 107.355469 C 22.84375 107.355469 23.230469 106.847656 23.230469 105.605469 Z M 23.230469 104.730469 "/>
<path fill-rule="nonzero" fill="rgb(0%, 0%, 0%)" fill-opacity="1" d="M 20.710938 99.082031 C 19.242188 99.082031 18.191406 100.058594 18.191406 101.546875 L 18.191406 103.699219 L 25.921875 103.699219 L 25.921875 102.859375 L 23.230469 102.859375 L 23.230469 101.617188 C 23.230469 99.988281 22.214844 99.082031 20.710938 99.082031 Z M 20.710938 99.886719 C 21.707031 99.886719 22.496094 100.515625 22.496094 101.617188 L 22.496094 102.859375 L 18.925781 102.859375 L 18.925781 101.617188 C 18.925781 100.53125 19.644531 99.886719 20.710938 99.886719 Z M 20.710938 99.886719 "/>
<path fill-rule="nonzero" fill="rgb(0%, 0%, 0%)" fill-opacity="1" d="M 23.230469 93.496094 L 18.191406 93.496094 L 18.191406 94.351562 L 21.042969 94.351562 C 21.988281 94.351562 22.632812 94.824219 22.632812 95.839844 C 22.632812 96.730469 22.074219 97.046875 21.21875 97.046875 L 18.191406 97.046875 L 18.191406 97.851562 L 21.234375 97.851562 C 22.425781 97.851562 23.367188 97.289062 23.367188 96.03125 C 23.367188 95.382812 23 94.71875 22.5625 94.351562 L 23.230469 94.351562 Z M 23.230469 93.496094 "/>
<path fill-rule="nonzero" fill="rgb(0%, 0%, 0%)" fill-opacity="1" d="M 23.230469 89.136719 L 22.511719 89.136719 L 22.511719 90.011719 C 22.511719 90.800781 22.320312 90.9375 21.585938 90.9375 L 18.855469 90.9375 L 18.855469 89.453125 L 18.191406 89.453125 L 18.191406 90.9375 L 16.757812 90.9375 L 16.757812 91.289062 L 18.191406 91.761719 L 18.191406 92.355469 L 18.855469 92.355469 L 18.855469 91.761719 L 21.585938 91.761719 C 22.84375 91.761719 23.230469 91.253906 23.230469 90.011719 Z M 23.230469 89.136719 "/>
<path fill-rule="nonzero" fill="rgb(0%, 0%, 0%)" fill-opacity="1" d="M 22.09375 87.019531 L 22.09375 88.035156 L 22.863281 88.035156 C 23 87.964844 23.140625 87.949219 23.28125 87.949219 C 23.683594 87.949219 24.105469 88.15625 24.296875 88.457031 C 24.277344 87.878906 23.421875 87.039062 22.878906 87.019531 Z M 22.09375 87.019531 "/>
<path fill-rule="nonzero" fill="rgb(0%, 0%, 0%)" fill-opacity="1" d="M 16.214844 79.472656 L 15.515625 79.472656 L 15.515625 80.277344 C 15.515625 81.082031 16.058594 81.886719 17.527344 81.921875 L 18.191406 81.921875 L 18.191406 82.746094 L 18.875 82.746094 L 18.875 81.921875 L 23.230469 81.921875 L 23.230469 81.082031 L 18.875 81.082031 L 18.875 79.664062 L 18.191406 79.664062 L 18.191406 81.082031 L 17.421875 81.082031 C 16.441406 81.082031 16.214844 80.523438 16.214844 80.296875 Z M 16.214844 79.472656 "/>
<path fill-rule="nonzero" fill="rgb(0%, 0%, 0%)" fill-opacity="1" d="M 26.027344 76.609375 L 25.574219 76.609375 L 25.574219 77.695312 L 15.304688 77.695312 L 15.304688 76.609375 L 14.851562 76.609375 L 14.851562 78.148438 L 26.027344 78.148438 Z M 26.027344 76.609375 "/>
<path fill-rule="nonzero" fill="rgb(0%, 0%, 0%)" fill-opacity="1" d="M 22.300781 74.875 C 21.65625 74.28125 21.375 73.949219 21.023438 73.546875 C 21.023438 73.546875 20.429688 72.863281 20.027344 72.460938 C 18.996094 71.394531 18.453125 71.152344 18.402344 71.152344 C 18.296875 71.152344 18.296875 71.253906 18.296875 71.273438 C 18.296875 71.359375 18.3125 71.378906 18.417969 71.449219 C 18.960938 71.78125 19.136719 72.007812 19.136719 72.269531 C 19.136719 72.550781 18.960938 72.671875 18.769531 72.847656 C 18.523438 73.058594 18.296875 73.25 18.296875 73.617188 C 18.296875 74.457031 19.328125 74.964844 19.574219 74.964844 C 19.625 74.964844 19.695312 74.929688 19.695312 74.839844 C 19.695312 74.738281 19.644531 74.71875 19.574219 74.683594 C 19.046875 74.472656 19.046875 73.828125 19.046875 73.738281 C 19.046875 73.511719 19.117188 73.300781 19.207031 73.039062 C 19.378906 72.585938 19.378906 72.460938 19.378906 72.183594 C 19.851562 72.585938 20.65625 73.511719 20.832031 73.722656 L 21.777344 74.738281 C 22.53125 75.488281 23.160156 75.890625 23.246094 75.890625 C 23.351562 75.890625 23.351562 75.769531 23.351562 75.75 C 23.351562 75.664062 23.335938 75.644531 23.210938 75.578125 C 22.808594 75.3125 22.511719 74.980469 22.511719 74.613281 C 22.511719 74.371094 22.617188 74.246094 22.933594 73.96875 C 23.175781 73.792969 23.351562 73.582031 23.351562 73.265625 C 23.351562 72.148438 21.933594 71.5 21.636719 71.5 C 21.585938 71.5 21.515625 71.554688 21.515625 71.640625 C 21.515625 71.746094 21.585938 71.761719 21.671875 71.796875 C 22.390625 72.058594 22.597656 72.777344 22.597656 73.144531 C 22.597656 73.355469 22.53125 73.566406 22.460938 73.792969 C 22.320312 74.175781 22.265625 74.351562 22.265625 74.578125 C 22.265625 74.597656 22.265625 74.773438 22.300781 74.875 Z M 22.300781 74.875 "/>
<path fill-rule="nonzero" fill="rgb(0%, 0%, 0%)" fill-opacity="1" d="M 14.851562 68.917969 L 14.851562 70.441406 L 15.304688 70.441406 L 15.304688 69.355469 L 25.574219 69.355469 L 25.574219 70.441406 L 26.027344 70.441406 L 26.027344 68.917969 Z M 14.851562 68.917969 "/>
<path fill-rule="nonzero" fill="rgb(81.959534%, 51.371765%, 38.430786%)" fill-opacity="1" stroke-width="0.850394" stroke-linecap="butt" stroke-linejoin="round" stroke="rgb(46.665955%, 23.529053%, 13.725281%)" stroke-opacity="1" stroke-miterlimit="4" d="M 59.894531 174.589844 C 59.894531 176.199219 58.589844 177.503906 56.980469 177.503906 C 55.367188 177.503906 54.0625 176.199219 54.0625 174.589844 C 54.0625 172.976562 55.367188 171.671875 56.980469 171.671875 C 58.589844 171.671875 59.894531 172.976562 59.894531 174.589844 Z M 59.894531 174.589844 "/>
<path fill-rule="nonzero" fill="rgb(62.744141%, 85.096741%, 82.743835%)" fill-opacity="1" stroke-width="0.850394" stroke-linecap="butt" stroke-linejoin="round" stroke="rgb(20.391846%, 51.371765%, 47.842407%)" stroke-opacity="1" stroke-miterlimit="4" d="M 119.871094 91.753906 C 119.871094 93.367188 118.566406 94.671875 116.953125 94.671875 C 115.34375 94.671875 114.039062 93.367188 114.039062 91.753906 C 114.039062 90.144531 115.34375 88.839844 116.953125 88.839844 C 118.566406 88.839844 119.871094 90.144531 119.871094 91.753906 Z M 119.871094 91.753906 "/>
<path fill-rule="nonzero" fill="rgb(46.665955%, 23.529053%, 13.725281%)" fill-opacity="1" d="M 59.902344 166.984375 C 60.507812 166.328125 60.847656 166.042969 61.257812 165.683594 C 61.257812 165.683594 61.953125 165.078125 62.363281 164.667969 C 63.449219 163.617188 63.699219 163.066406 63.699219 163.011719 C 63.699219 162.90625 63.589844 162.90625 63.574219 162.90625 C 63.484375 162.90625 63.464844 162.921875 63.394531 163.03125 C 63.058594 163.582031 62.824219 163.761719 62.558594 163.761719 C 62.273438 163.761719 62.148438 163.582031 61.96875 163.386719 C 61.757812 163.136719 61.558594 162.90625 61.1875 162.90625 C 60.332031 162.90625 59.8125 163.957031 59.8125 164.207031 C 59.8125 164.261719 59.851562 164.332031 59.9375 164.332031 C 60.046875 164.332031 60.0625 164.277344 60.097656 164.207031 C 60.3125 163.671875 60.972656 163.671875 61.0625 163.671875 C 61.292969 163.671875 61.507812 163.742188 61.773438 163.832031 C 62.238281 164.011719 62.363281 164.011719 62.648438 164.011719 C 62.238281 164.492188 61.292969 165.3125 61.078125 165.488281 L 60.046875 166.449219 C 59.28125 167.21875 58.871094 167.859375 58.871094 167.949219 C 58.871094 168.054688 58.996094 168.054688 59.011719 168.054688 C 59.101562 168.054688 59.121094 168.035156 59.191406 167.910156 C 59.457031 167.503906 59.796875 167.199219 60.171875 167.199219 C 60.421875 167.199219 60.542969 167.304688 60.828125 167.625 C 61.007812 167.875 61.222656 168.054688 61.542969 168.054688 C 62.683594 168.054688 63.339844 166.613281 63.339844 166.308594 C 63.339844 166.253906 63.289062 166.183594 63.199219 166.183594 C 63.09375 166.183594 63.074219 166.253906 63.039062 166.34375 C 62.773438 167.074219 62.042969 167.289062 61.667969 167.289062 C 61.453125 167.289062 61.238281 167.21875 61.007812 167.144531 C 60.617188 167.003906 60.4375 166.949219 60.207031 166.949219 C 60.1875 166.949219 60.011719 166.949219 59.902344 166.984375 Z M 59.902344 166.984375 "/>
<path fill-rule="nonzero" fill="rgb(46.665955%, 23.529053%, 13.725281%)" fill-opacity="1" d="M 67.769531 167.101562 C 67.769531 166.230469 67.660156 165.589844 67.304688 165.035156 C 67.054688 164.679688 66.558594 164.359375 65.933594 164.359375 C 64.082031 164.359375 64.082031 166.535156 64.082031 167.101562 C 64.082031 167.671875 64.082031 169.792969 65.933594 169.792969 C 67.769531 169.792969 67.769531 167.671875 67.769531 167.101562 Z M 65.933594 169.5625 C 65.558594 169.5625 65.078125 169.347656 64.917969 168.707031 C 64.8125 168.242188 64.8125 167.585938 64.8125 166.996094 C 64.8125 166.410156 64.8125 165.804688 64.917969 165.375 C 65.097656 164.75 65.59375 164.574219 65.933594 164.574219 C 66.363281 164.574219 66.769531 164.839844 66.914062 165.304688 C 67.039062 165.730469 67.054688 166.300781 67.054688 166.996094 C 67.054688 167.585938 67.054688 168.171875 66.949219 168.671875 C 66.789062 169.402344 66.253906 169.5625 65.933594 169.5625 Z M 65.933594 169.5625 "/>
<path fill-rule="nonzero" fill="rgb(0%, 0%, 0%)" fill-opacity="1" d="M 111.027344 103.34375 L 111.027344 102.023438 C 111.027344 101.027344 111.5625 100.476562 112.0625 100.476562 C 112.097656 100.476562 112.273438 100.476562 112.433594 100.5625 C 112.308594 100.597656 112.097656 100.757812 112.097656 101.042969 C 112.097656 101.292969 112.273438 101.527344 112.59375 101.527344 C 112.914062 101.527344 113.09375 101.292969 113.09375 101.027344 C 113.09375 100.597656 112.667969 100.226562 112.0625 100.226562 C 111.277344 100.226562 110.296875 100.832031 110.296875 102.042969 L 110.296875 103.34375 L 109.40625 103.34375 L 109.40625 103.699219 L 110.296875 103.699219 L 110.296875 107.386719 C 110.296875 107.886719 110.171875 107.886719 109.425781 107.886719 L 109.425781 108.242188 C 109.871094 108.222656 110.402344 108.207031 110.707031 108.207031 C 111.171875 108.207031 111.703125 108.207031 112.148438 108.242188 L 112.148438 107.886719 L 111.917969 107.886719 C 111.082031 107.886719 111.0625 107.761719 111.0625 107.351562 L 111.0625 103.699219 L 112.347656 103.699219 L 112.347656 103.34375 Z M 111.027344 103.34375 "/>
<path fill-rule="nonzero" fill="rgb(0%, 0%, 0%)" fill-opacity="1" d="M 115.40625 111.09375 L 115.40625 110.628906 L 114.300781 110.628906 L 114.300781 100.171875 L 115.40625 100.171875 L 115.40625 99.707031 L 113.839844 99.707031 L 113.839844 111.09375 Z M 115.40625 111.09375 "/>
<path fill-rule="nonzero" fill="rgb(0%, 0%, 0%)" fill-opacity="1" d="M 117.171875 107.296875 C 117.777344 106.636719 118.117188 106.351562 118.527344 105.996094 C 118.527344 105.996094 119.222656 105.390625 119.632812 104.980469 C 120.71875 103.929688 120.96875 103.378906 120.96875 103.324219 C 120.96875 103.21875 120.859375 103.21875 120.84375 103.21875 C 120.753906 103.21875 120.734375 103.234375 120.664062 103.34375 C 120.324219 103.894531 120.09375 104.074219 119.828125 104.074219 C 119.542969 104.074219 119.417969 103.894531 119.238281 103.699219 C 119.027344 103.449219 118.828125 103.21875 118.457031 103.21875 C 117.601562 103.21875 117.082031 104.269531 117.082031 104.519531 C 117.082031 104.570312 117.121094 104.644531 117.207031 104.644531 C 117.316406 104.644531 117.332031 104.589844 117.367188 104.519531 C 117.582031 103.984375 118.242188 103.984375 118.332031 103.984375 C 118.5625 103.984375 118.777344 104.054688 119.042969 104.144531 C 119.507812 104.324219 119.632812 104.324219 119.917969 104.324219 C 119.507812 104.804688 118.5625 105.625 118.347656 105.800781 L 117.316406 106.761719 C 116.550781 107.527344 116.140625 108.171875 116.140625 108.257812 C 116.140625 108.367188 116.265625 108.367188 116.28125 108.367188 C 116.371094 108.367188 116.390625 108.347656 116.460938 108.222656 C 116.726562 107.8125 117.066406 107.511719 117.441406 107.511719 C 117.691406 107.511719 117.8125 107.617188 118.097656 107.9375 C 118.277344 108.1875 118.492188 108.367188 118.8125 108.367188 C 119.953125 108.367188 120.609375 106.921875 120.609375 106.621094 C 120.609375 106.566406 120.558594 106.496094 120.46875 106.496094 C 120.363281 106.496094 120.34375 106.566406 120.308594 106.65625 C 120.042969 107.386719 119.3125 107.601562 118.9375 107.601562 C 118.722656 107.601562 118.507812 107.527344 118.277344 107.457031 C 117.886719 107.316406 117.707031 107.261719 117.476562 107.261719 C 117.457031 107.261719 117.28125 107.261719 117.171875 107.296875 Z M 117.171875 107.296875 "/>
<path fill-rule="nonzero" fill="rgb(0%, 0%, 0%)" fill-opacity="1" d="M 123.238281 99.707031 L 121.691406 99.707031 L 121.691406 100.171875 L 122.792969 100.171875 L 122.792969 110.628906 L 121.691406 110.628906 L 121.691406 111.09375 L 123.238281 111.09375 Z M 123.238281 99.707031 "/>
<path fill-rule="nonzero" fill="rgb(0%, 0%, 0%)" fill-opacity="1" d="M 133.660156 104.519531 C 133.835938 104.519531 134.050781 104.519531 134.050781 104.304688 C 134.050781 104.074219 133.835938 104.074219 133.675781 104.074219 L 126.871094 104.074219 C 126.710938 104.074219 126.496094 104.074219 126.496094 104.304688 C 126.496094 104.519531 126.710938 104.519531 126.871094 104.519531 Z M 133.675781 106.726562 C 133.835938 106.726562 134.050781 106.726562 134.050781 106.496094 C 134.050781 106.28125 133.835938 106.28125 133.660156 106.28125 L 126.871094 106.28125 C 126.710938 106.28125 126.496094 106.28125 126.496094 106.496094 C 126.496094 106.726562 126.710938 106.726562 126.871094 106.726562 Z M 133.675781 106.726562 "/>
<path fill-rule="nonzero" fill="rgb(0%, 0%, 0%)" fill-opacity="1" d="M 137.46875 107.296875 C 138.074219 106.636719 138.414062 106.351562 138.824219 105.996094 C 138.824219 105.996094 139.515625 105.390625 139.925781 104.980469 C 141.011719 103.929688 141.261719 103.378906 141.261719 103.324219 C 141.261719 103.21875 141.15625 103.21875 141.136719 103.21875 C 141.050781 103.21875 141.03125 103.234375 140.960938 103.34375 C 140.621094 103.894531 140.390625 104.074219 140.121094 104.074219 C 139.835938 104.074219 139.714844 103.894531 139.535156 103.699219 C 139.320312 103.449219 139.125 103.21875 138.75 103.21875 C 137.894531 103.21875 137.378906 104.269531 137.378906 104.519531 C 137.378906 104.570312 137.414062 104.644531 137.503906 104.644531 C 137.609375 104.644531 137.628906 104.589844 137.664062 104.519531 C 137.878906 103.984375 138.539062 103.984375 138.625 103.984375 C 138.859375 103.984375 139.070312 104.054688 139.339844 104.144531 C 139.800781 104.324219 139.925781 104.324219 140.210938 104.324219 C 139.800781 104.804688 138.859375 105.625 138.644531 105.800781 L 137.609375 106.761719 C 136.84375 107.527344 136.433594 108.171875 136.433594 108.257812 C 136.433594 108.367188 136.558594 108.367188 136.578125 108.367188 C 136.667969 108.367188 136.683594 108.347656 136.753906 108.222656 C 137.023438 107.8125 137.363281 107.511719 137.734375 107.511719 C 137.984375 107.511719 138.109375 107.617188 138.394531 107.9375 C 138.574219 108.1875 138.785156 108.367188 139.105469 108.367188 C 140.246094 108.367188 140.90625 106.921875 140.90625 106.621094 C 140.90625 106.566406 140.851562 106.496094 140.765625 106.496094 C 140.65625 106.496094 140.640625 106.566406 140.605469 106.65625 C 140.335938 107.386719 139.605469 107.601562 139.230469 107.601562 C 139.019531 107.601562 138.804688 107.527344 138.574219 107.457031 C 138.179688 107.316406 138.003906 107.261719 137.769531 107.261719 C 137.753906 107.261719 137.574219 107.261719 137.46875 107.296875 Z M 137.46875 107.296875 "/>
<path fill-rule="nonzero" fill="rgb(50.195312%, 50.195312%, 50.195312%)" fill-opacity="1" d="M 22.976562 173.871094 C 22.964844 172.707031 22.703125 171.019531 21.230469 171.019531 C 19.753906 171.019531 19.507812 172.730469 19.507812 173.871094 C 19.507812 175.023438 19.769531 176.695312 21.230469 176.695312 C 22.691406 176.695312 22.976562 175.023438 22.976562 173.871094 Z M 22.40625 173.871094 C 22.40625 174.625 22.34375 176.171875 21.230469 176.171875 C 20.113281 176.171875 20.078125 174.601562 20.078125 173.871094 C 20.078125 173.125 20.101562 171.527344 21.230469 171.527344 C 22.34375 171.527344 22.40625 173.140625 22.40625 173.871094 Z M 22.40625 173.871094 "/>
<path fill-rule="nonzero" fill="rgb(50.195312%, 50.195312%, 50.195312%)" fill-opacity="1" d="M 23.988281 175.777344 L 24.746094 175.777344 L 24.746094 176.582031 L 23.988281 176.582031 Z M 23.988281 175.777344 "/>
<path fill-rule="nonzero" fill="rgb(50.195312%, 50.195312%, 50.195312%)" fill-opacity="1" d="M 29.222656 173.871094 C 29.210938 172.707031 28.949219 171.019531 27.476562 171.019531 C 26.003906 171.019531 25.753906 172.730469 25.753906 173.871094 C 25.753906 175.023438 26.015625 176.695312 27.476562 176.695312 C 28.9375 176.695312 29.222656 175.023438 29.222656 173.871094 Z M 28.652344 173.871094 C 28.652344 174.625 28.589844 176.171875 27.476562 176.171875 C 26.363281 176.171875 26.324219 174.601562 26.324219 173.871094 C 26.324219 173.125 26.347656 171.527344 27.476562 171.527344 C 28.589844 171.527344 28.652344 173.140625 28.652344 173.871094 Z M 28.652344 173.871094 "/>
<path fill="none" stroke-width="0.867582" stroke-linecap="butt" stroke-linejoin="miter" stroke="rgb(50.195312%, 50.195312%, 50.195312%)" stroke-opacity="1" stroke-miterlimit="4" d="M 250.414089 95.011719 L 248.617024 95.011719 " transform="matrix(0.960768, 0, 0, 1, 0, 0)"/>
<path fill="none" stroke-width="0.867582" stroke-linecap="butt" stroke-linejoin="miter" stroke="rgb(50.195312%, 50.195312%, 50.195312%)" stroke-opacity="1" stroke-miterlimit="4" d="M 250.414089 110.921875 L 248.617024 110.921875 " transform="matrix(0.960768, 0, 0, 1, 0, 0)"/>
<path fill="none" stroke-width="0.867582" stroke-linecap="butt" stroke-linejoin="miter" stroke="rgb(50.195312%, 50.195312%, 50.195312%)" stroke-opacity="1" stroke-miterlimit="4" d="M 250.414089 126.835938 L 248.617024 126.835938 " transform="matrix(0.960768, 0, 0, 1, 0, 0)"/>
<path fill="none" stroke-width="0.867582" stroke-linecap="butt" stroke-linejoin="miter" stroke="rgb(50.195312%, 50.195312%, 50.195312%)" stroke-opacity="1" stroke-miterlimit="4" d="M 250.414089 142.746094 L 248.617024 142.746094 " transform="matrix(0.960768, 0, 0, 1, 0, 0)"/>
<path fill="none" stroke-width="0.867582" stroke-linecap="butt" stroke-linejoin="miter" stroke="rgb(50.195312%, 50.195312%, 50.195312%)" stroke-opacity="1" stroke-miterlimit="4" d="M -181.796295 383.601562 L -183.59336 383.601562 " transform="matrix(0, -0.960768, 1, 0, 0, 0)"/>
<path fill="none" stroke-width="0.867582" stroke-linecap="butt" stroke-linejoin="miter" stroke="rgb(50.195312%, 50.195312%, 50.195312%)" stroke-opacity="1" stroke-miterlimit="4" d="M -181.796295 351.847656 L -183.59336 351.847656 " transform="matrix(0, -0.960768, 1, 0, 0, 0)"/>
<path fill="none" stroke-width="0.867582" stroke-linecap="butt" stroke-linejoin="miter" stroke="rgb(50.195312%, 50.195312%, 50.195312%)" stroke-opacity="1" stroke-miterlimit="4" d="M -181.796295 320.09375 L -183.59336 320.09375 " transform="matrix(0, -0.960768, 1, 0, 0, 0)"/>
<path fill="none" stroke-width="0.867582" stroke-linecap="butt" stroke-linejoin="miter" stroke="rgb(50.195312%, 50.195312%, 50.195312%)" stroke-opacity="1" stroke-miterlimit="4" d="M -181.796295 304.21875 L -183.59336 304.21875 " transform="matrix(0, -0.960768, 1, 0, 0, 0)"/>
<path fill="none" stroke-width="0.867582" stroke-linecap="butt" stroke-linejoin="miter" stroke="rgb(50.195312%, 50.195312%, 50.195312%)" stroke-opacity="1" stroke-miterlimit="4" d="M -181.796295 288.339844 L -183.59336 288.339844 " transform="matrix(0, -0.960768, 1, 0, 0, 0)"/>
<path fill="none" stroke-width="0.850394" stroke-linecap="butt" stroke-linejoin="miter" stroke="rgb(0%, 0%, 0%)" stroke-opacity="1" stroke-dasharray="5.102362 0.850394" stroke-miterlimit="4" d="M 240.535156 174.570312 L 399.628906 15.710938 "/>
<path fill-rule="nonzero" fill="rgb(0%, 0%, 0%)" fill-opacity="1" d="M 308.6875 178.726562 L 309.527344 178.726562 L 309.527344 186.4375 L 308.6875 186.4375 Z M 308.6875 178.726562 "/>
<path fill-rule="nonzero" fill="rgb(0%, 0%, 0%)" fill-opacity="1" d="M 315.402344 186.4375 L 315.402344 183.394531 C 315.402344 182.207031 314.894531 181.277344 313.601562 181.277344 C 312.953125 181.277344 312.289062 181.523438 311.886719 182.082031 L 311.886719 181.402344 L 311.0625 181.402344 L 311.0625 186.4375 L 311.886719 186.4375 L 311.886719 183.589844 C 311.921875 182.625 312.515625 182.015625 313.40625 182.015625 C 314.28125 182.015625 314.597656 182.539062 314.597656 183.429688 L 314.597656 186.4375 Z M 315.402344 186.4375 "/>
<path fill-rule="nonzero" fill="rgb(0%, 0%, 0%)" fill-opacity="1" d="M 321.492188 183.921875 C 321.492188 182.449219 320.515625 181.402344 319.027344 181.402344 L 316.875 181.402344 L 316.875 189.132812 L 317.714844 189.132812 L 317.714844 186.4375 L 318.957031 186.4375 C 320.582031 186.4375 321.492188 185.425781 321.492188 183.921875 Z M 320.6875 183.921875 C 320.6875 184.917969 320.058594 185.703125 318.957031 185.703125 L 317.714844 185.703125 L 317.714844 182.136719 L 318.957031 182.136719 C 320.042969 182.136719 320.6875 182.851562 320.6875 183.921875 Z M 320.6875 183.921875 "/>
<path fill-rule="nonzero" fill="rgb(0%, 0%, 0%)" fill-opacity="1" d="M 327.078125 186.4375 L 327.078125 181.402344 L 326.222656 181.402344 L 326.222656 184.253906 C 326.222656 185.199219 325.75 185.84375 324.734375 185.84375 C 323.84375 185.84375 323.527344 185.285156 323.527344 184.429688 L 323.527344 181.402344 L 322.722656 181.402344 L 322.722656 184.445312 C 322.722656 185.632812 323.28125 186.578125 324.542969 186.578125 C 325.1875 186.578125 325.855469 186.210938 326.222656 185.773438 L 326.222656 186.4375 Z M 327.078125 186.4375 "/>
<path fill-rule="nonzero" fill="rgb(0%, 0%, 0%)" fill-opacity="1" d="M 331.4375 186.4375 L 331.4375 185.722656 L 330.5625 185.722656 C 329.773438 185.722656 329.632812 185.53125 329.632812 184.796875 L 329.632812 182.066406 L 331.121094 182.066406 L 331.121094 181.402344 L 329.632812 181.402344 L 329.632812 179.96875 L 329.285156 179.96875 L 328.8125 181.402344 L 328.21875 181.402344 L 328.21875 182.066406 L 328.8125 182.066406 L 328.8125 184.796875 C 328.8125 186.054688 329.320312 186.4375 330.5625 186.4375 Z M 331.4375 186.4375 "/>
<path fill-rule="nonzero" fill="rgb(50.195312%, 50.195312%, 50.195312%)" fill-opacity="1" d="M 239.464844 180.402344 C 239.453125 179.238281 239.191406 177.554688 237.71875 177.554688 C 236.242188 177.554688 235.996094 179.265625 235.996094 180.402344 C 235.996094 181.554688 236.257812 183.226562 237.71875 183.226562 C 239.179688 183.226562 239.464844 181.554688 239.464844 180.402344 Z M 238.894531 180.402344 C 238.894531 181.160156 238.832031 182.707031 237.71875 182.707031 C 236.601562 182.707031 236.566406 181.136719 236.566406 180.402344 C 236.566406 179.660156 236.589844 178.0625 237.71875 178.0625 C 238.832031 178.0625 238.894531 179.671875 238.894531 180.402344 Z M 238.894531 180.402344 "/>
<path fill-rule="nonzero" fill="rgb(50.195312%, 50.195312%, 50.195312%)" fill-opacity="1" d="M 240.476562 182.3125 L 241.234375 182.3125 L 241.234375 183.117188 L 240.476562 183.117188 Z M 240.476562 182.3125 "/>
<path fill-rule="nonzero" fill="rgb(50.195312%, 50.195312%, 50.195312%)" fill-opacity="1" d="M 245.710938 180.402344 C 245.699219 179.238281 245.4375 177.554688 243.964844 177.554688 C 242.492188 177.554688 242.242188 179.265625 242.242188 180.402344 C 242.242188 181.554688 242.503906 183.226562 243.964844 183.226562 C 245.425781 183.226562 245.710938 181.554688 245.710938 180.402344 Z M 245.140625 180.402344 C 245.140625 181.160156 245.078125 182.707031 243.964844 182.707031 C 242.851562 182.707031 242.8125 181.136719 242.8125 180.402344 C 242.8125 179.660156 242.835938 178.0625 243.964844 178.0625 C 245.078125 178.0625 245.140625 179.671875 245.140625 180.402344 Z M 245.140625 180.402344 "/>
<path fill="none" stroke-width="1.984252" stroke-linecap="butt" stroke-linejoin="miter" stroke="rgb(62.744141%, 85.096741%, 82.743835%)" stroke-opacity="1" stroke-miterlimit="4" d="M 269.8125 174.480469 L 282.96875 150.007812 L 301.910156 122.734375 L 312.136719 107.203125 L 319.714844 88.640625 L 331.835938 73.488281 L 335.246094 60.988281 L 342.441406 42.425781 L 360.855469 15.679688 "/>
<path fill-rule="nonzero" fill="rgb(62.744141%, 85.096741%, 82.743835%)" fill-opacity="1" stroke-width="0.850394" stroke-linecap="butt" stroke-linejoin="round" stroke="rgb(20.391846%, 51.371765%, 47.842407%)" stroke-opacity="1" stroke-miterlimit="4" d="M 317.988281 100.089844 C 317.988281 101.699219 316.679688 103.003906 315.070312 103.003906 C 313.460938 103.003906 312.152344 101.699219 312.152344 100.089844 C 312.152344 98.476562 313.460938 97.171875 315.070312 97.171875 C 316.679688 97.171875 317.988281 98.476562 317.988281 100.089844 Z M 317.988281 100.089844 "/>
<path fill-rule="nonzero" fill="rgb(46.665955%, 23.529053%, 13.725281%)" fill-opacity="1" d="M 346.40625 166.984375 C 347.011719 166.328125 347.347656 166.042969 347.757812 165.683594 C 347.757812 165.683594 348.453125 165.078125 348.863281 164.667969 C 349.949219 163.617188 350.199219 163.066406 350.199219 163.011719 C 350.199219 162.90625 350.09375 162.90625 350.074219 162.90625 C 349.984375 162.90625 349.96875 162.921875 349.898438 163.03125 C 349.558594 163.582031 349.328125 163.761719 349.058594 163.761719 C 348.773438 163.761719 348.648438 163.582031 348.472656 163.386719 C 348.257812 163.136719 348.0625 162.90625 347.6875 162.90625 C 346.832031 162.90625 346.316406 163.957031 346.316406 164.207031 C 346.316406 164.261719 346.351562 164.332031 346.441406 164.332031 C 346.546875 164.332031 346.566406 164.277344 346.601562 164.207031 C 346.816406 163.671875 347.472656 163.671875 347.5625 163.671875 C 347.792969 163.671875 348.007812 163.742188 348.277344 163.832031 C 348.738281 164.011719 348.863281 164.011719 349.148438 164.011719 C 348.738281 164.492188 347.792969 165.3125 347.582031 165.488281 L 346.546875 166.449219 C 345.78125 167.21875 345.371094 167.859375 345.371094 167.949219 C 345.371094 168.054688 345.496094 168.054688 345.515625 168.054688 C 345.605469 168.054688 345.621094 168.035156 345.691406 167.910156 C 345.960938 167.503906 346.296875 167.199219 346.671875 167.199219 C 346.921875 167.199219 347.046875 167.304688 347.332031 167.625 C 347.511719 167.875 347.722656 168.054688 348.042969 168.054688 C 349.183594 168.054688 349.84375 166.613281 349.84375 166.308594 C 349.84375 166.253906 349.789062 166.183594 349.699219 166.183594 C 349.59375 166.183594 349.578125 166.253906 349.539062 166.34375 C 349.273438 167.074219 348.542969 167.289062 348.167969 167.289062 C 347.957031 167.289062 347.742188 167.21875 347.511719 167.144531 C 347.117188 167.003906 346.941406 166.949219 346.707031 166.949219 C 346.691406 166.949219 346.511719 166.949219 346.40625 166.984375 Z M 346.40625 166.984375 "/>
<path fill-rule="nonzero" fill="rgb(46.665955%, 23.529053%, 13.725281%)" fill-opacity="1" d="M 354.269531 167.101562 C 354.269531 166.230469 354.164062 165.589844 353.808594 165.035156 C 353.558594 164.679688 353.058594 164.359375 352.4375 164.359375 C 350.582031 164.359375 350.582031 166.535156 350.582031 167.101562 C 350.582031 167.671875 350.582031 169.792969 352.4375 169.792969 C 354.269531 169.792969 354.269531 167.671875 354.269531 167.101562 Z M 352.4375 169.5625 C 352.0625 169.5625 351.582031 169.347656 351.421875 168.707031 C 351.3125 168.242188 351.3125 167.585938 351.3125 166.996094 C 351.3125 166.410156 351.3125 165.804688 351.421875 165.375 C 351.597656 164.75 352.097656 164.574219 352.4375 164.574219 C 352.863281 164.574219 353.273438 164.839844 353.414062 165.304688 C 353.539062 165.730469 353.558594 166.300781 353.558594 166.996094 C 353.558594 167.585938 353.558594 168.171875 353.449219 168.671875 C 353.289062 169.402344 352.757812 169.5625 352.4375 169.5625 Z M 352.4375 169.5625 "/>
<path fill-rule="nonzero" fill="rgb(0%, 0%, 0%)" fill-opacity="1" d="M 322.226562 104.480469 L 322.226562 103.160156 C 322.226562 102.164062 322.761719 101.609375 323.261719 101.609375 C 323.296875 101.609375 323.476562 101.609375 323.636719 101.699219 C 323.511719 101.734375 323.296875 101.894531 323.296875 102.179688 C 323.296875 102.429688 323.476562 102.664062 323.796875 102.664062 C 324.117188 102.664062 324.292969 102.429688 324.292969 102.164062 C 324.292969 101.734375 323.867188 101.363281 323.261719 101.363281 C 322.476562 101.363281 321.496094 101.96875 321.496094 103.179688 L 321.496094 104.480469 L 320.605469 104.480469 L 320.605469 104.835938 L 321.496094 104.835938 L 321.496094 108.523438 C 321.496094 109.023438 321.371094 109.023438 320.625 109.023438 L 320.625 109.378906 C 321.070312 109.359375 321.605469 109.34375 321.90625 109.34375 C 322.371094 109.34375 322.90625 109.34375 323.351562 109.378906 L 323.351562 109.023438 L 323.117188 109.023438 C 322.28125 109.023438 322.261719 108.898438 322.261719 108.488281 L 322.261719 104.835938 L 323.546875 104.835938 L 323.546875 104.480469 Z M 322.226562 104.480469 "/>
<path fill-rule="nonzero" fill="rgb(0%, 0%, 0%)" fill-opacity="1" d="M 326.609375 112.230469 L 326.609375 111.765625 L 325.503906 111.765625 L 325.503906 101.308594 L 326.609375 101.308594 L 326.609375 100.84375 L 325.039062 100.84375 L 325.039062 112.230469 Z M 326.609375 112.230469 "/>
<path fill-rule="nonzero" fill="rgb(0%, 0%, 0%)" fill-opacity="1" d="M 328.375 108.433594 C 328.980469 107.773438 329.316406 107.488281 329.726562 107.132812 C 329.726562 107.132812 330.421875 106.527344 330.832031 106.117188 C 331.917969 105.066406 332.167969 104.515625 332.167969 104.460938 C 332.167969 104.355469 332.0625 104.355469 332.042969 104.355469 C 331.953125 104.355469 331.9375 104.371094 331.863281 104.480469 C 331.527344 105.03125 331.292969 105.210938 331.027344 105.210938 C 330.742188 105.210938 330.617188 105.03125 330.441406 104.835938 C 330.226562 104.585938 330.03125 104.355469 329.65625 104.355469 C 328.800781 104.355469 328.285156 105.40625 328.285156 105.65625 C 328.285156 105.707031 328.320312 105.78125 328.410156 105.78125 C 328.515625 105.78125 328.535156 105.726562 328.570312 105.65625 C 328.78125 105.121094 329.441406 105.121094 329.53125 105.121094 C 329.761719 105.121094 329.976562 105.191406 330.242188 105.28125 C 330.707031 105.460938 330.832031 105.460938 331.117188 105.460938 C 330.707031 105.941406 329.761719 106.757812 329.550781 106.9375 L 328.515625 107.898438 C 327.75 108.664062 327.339844 109.308594 327.339844 109.394531 C 327.339844 109.503906 327.464844 109.503906 327.484375 109.503906 C 327.570312 109.503906 327.589844 109.484375 327.660156 109.359375 C 327.929688 108.949219 328.265625 108.648438 328.640625 108.648438 C 328.890625 108.648438 329.015625 108.753906 329.300781 109.074219 C 329.476562 109.324219 329.691406 109.503906 330.011719 109.503906 C 331.152344 109.503906 331.8125 108.058594 331.8125 107.757812 C 331.8125 107.703125 331.757812 107.632812 331.667969 107.632812 C 331.5625 107.632812 331.542969 107.703125 331.507812 107.792969 C 331.242188 108.523438 330.511719 108.738281 330.136719 108.738281 C 329.921875 108.738281 329.710938 108.664062 329.476562 108.59375 C 329.085938 108.453125 328.90625 108.398438 328.675781 108.398438 C 328.660156 108.398438 328.480469 108.398438 328.375 108.433594 Z M 328.375 108.433594 "/>
<path fill-rule="nonzero" fill="rgb(0%, 0%, 0%)" fill-opacity="1" d="M 334.441406 100.84375 L 332.890625 100.84375 L 332.890625 101.308594 L 333.996094 101.308594 L 333.996094 111.765625 L 332.890625 111.765625 L 332.890625 112.230469 L 334.441406 112.230469 Z M 334.441406 100.84375 "/>
<path fill-rule="nonzero" fill="rgb(0%, 0%, 0%)" fill-opacity="1" d="M 344.859375 105.65625 C 345.039062 105.65625 345.25 105.65625 345.25 105.441406 C 345.25 105.210938 345.039062 105.210938 344.878906 105.210938 L 338.070312 105.210938 C 337.910156 105.210938 337.699219 105.210938 337.699219 105.441406 C 337.699219 105.65625 337.910156 105.65625 338.070312 105.65625 Z M 344.878906 107.863281 C 345.039062 107.863281 345.25 107.863281 345.25 107.632812 C 345.25 107.417969 345.039062 107.417969 344.859375 107.417969 L 338.070312 107.417969 C 337.910156 107.417969 337.699219 107.417969 337.699219 107.632812 C 337.699219 107.863281 337.910156 107.863281 338.070312 107.863281 Z M 344.878906 107.863281 "/>
<path fill-rule="nonzero" fill="rgb(0%, 0%, 0%)" fill-opacity="1" d="M 348.667969 108.433594 C 349.273438 107.773438 349.613281 107.488281 350.023438 107.132812 C 350.023438 107.132812 350.71875 106.527344 351.128906 106.117188 C 352.214844 105.066406 352.464844 104.515625 352.464844 104.460938 C 352.464844 104.355469 352.355469 104.355469 352.339844 104.355469 C 352.25 104.355469 352.230469 104.371094 352.160156 104.480469 C 351.820312 105.03125 351.589844 105.210938 351.324219 105.210938 C 351.039062 105.210938 350.914062 105.03125 350.734375 104.835938 C 350.519531 104.585938 350.324219 104.355469 349.953125 104.355469 C 349.097656 104.355469 348.578125 105.40625 348.578125 105.65625 C 348.578125 105.707031 348.613281 105.78125 348.703125 105.78125 C 348.8125 105.78125 348.828125 105.726562 348.863281 105.65625 C 349.078125 105.121094 349.738281 105.121094 349.828125 105.121094 C 350.058594 105.121094 350.273438 105.191406 350.539062 105.28125 C 351.003906 105.460938 351.128906 105.460938 351.410156 105.460938 C 351.003906 105.941406 350.058594 106.757812 349.84375 106.9375 L 348.8125 107.898438 C 348.046875 108.664062 347.636719 109.308594 347.636719 109.394531 C 347.636719 109.503906 347.761719 109.503906 347.777344 109.503906 C 347.867188 109.503906 347.886719 109.484375 347.957031 109.359375 C 348.222656 108.949219 348.5625 108.648438 348.9375 108.648438 C 349.183594 108.648438 349.308594 108.753906 349.59375 109.074219 C 349.773438 109.324219 349.988281 109.503906 350.308594 109.503906 C 351.449219 109.503906 352.105469 108.058594 352.105469 107.757812 C 352.105469 107.703125 352.054688 107.632812 351.964844 107.632812 C 351.859375 107.632812 351.839844 107.703125 351.804688 107.792969 C 351.535156 108.523438 350.804688 108.738281 350.433594 108.738281 C 350.21875 108.738281 350.003906 108.664062 349.773438 108.59375 C 349.382812 108.453125 349.203125 108.398438 348.972656 108.398438 C 348.953125 108.398438 348.777344 108.398438 348.667969 108.433594 Z M 348.667969 108.433594 "/>
<path fill="none" stroke-width="0.850394" stroke-linecap="butt" stroke-linejoin="round" stroke="rgb(1.176453%, 0%, 0%)" stroke-opacity="1" stroke-miterlimit="4" d="M 240.621094 15.445312 L 399.503906 15.445312 L 399.503906 174.664062 L 240.621094 174.664062 Z M 240.621094 15.445312 "/>
<path fill-rule="nonzero" fill="rgb(81.959534%, 51.371765%, 38.430786%)" fill-opacity="1" stroke-width="0.850394" stroke-linecap="butt" stroke-linejoin="round" stroke="rgb(46.665955%, 23.529053%, 13.725281%)" stroke-opacity="1" stroke-miterlimit="4" d="M 342.960938 174.449219 C 342.960938 176.0625 341.65625 177.367188 340.042969 177.367188 C 338.433594 177.367188 337.128906 176.0625 337.128906 174.449219 C 337.128906 172.839844 338.433594 171.535156 340.042969 171.535156 C 341.65625 171.535156 342.960938 172.839844 342.960938 174.449219 Z M 342.960938 174.449219 "/>
<path fill-rule="nonzero" fill="rgb(0%, 0%, 0%)" fill-opacity="1" d="M 7.660156 6.214844 C 7.660156 4.929688 6.730469 4.039062 5.5625 4.039062 C 4.75 4.039062 4.175781 4.234375 3.582031 4.570312 L 3.664062 5.402344 C 4.316406 4.949219 4.949219 4.789062 5.5625 4.789062 C 6.15625 4.789062 6.671875 5.285156 6.671875 6.214844 L 6.671875 6.769531 C 4.769531 6.789062 3.167969 7.324219 3.167969 8.429688 C 3.167969 8.964844 3.503906 9.996094 4.613281 9.996094 C 4.789062 9.996094 5.976562 9.976562 6.710938 9.402344 L 6.710938 9.855469 L 7.660156 9.855469 Z M 6.671875 8.195312 C 6.671875 8.429688 6.671875 8.746094 6.234375 8.984375 C 5.878906 9.203125 5.382812 9.222656 5.246094 9.222656 C 4.652344 9.222656 4.078125 8.925781 4.078125 8.410156 C 4.078125 7.519531 6.117188 7.441406 6.671875 7.402344 Z M 6.671875 8.195312 "/>
<path fill-rule="nonzero" fill="rgb(0%, 0%, 0%)" fill-opacity="1" d="M 10.164062 13.023438 C 10.558594 12.628906 11.410156 11.855469 11.984375 10.3125 C 12.5 8.964844 12.578125 7.621094 12.578125 6.6875 C 12.578125 2.613281 10.757812 0.949219 10.164062 0.375 L 9.390625 0.375 C 9.984375 0.988281 11.589844 2.613281 11.589844 6.6875 C 11.589844 7.402344 11.546875 8.886719 11.035156 10.371094 C 10.519531 11.835938 9.808594 12.585938 9.390625 13.023438 Z M 10.164062 13.023438 "/>
<path fill-rule="nonzero" fill="rgb(0%, 0%, 0%)" fill-opacity="1" d="M 212.113281 1.089844 L 211.160156 1.089844 L 211.160156 9.855469 L 212.152344 9.855469 L 212.152344 9.28125 C 212.449219 9.558594 213.003906 9.996094 213.851562 9.996094 C 215.101562 9.996094 216.1875 8.726562 216.1875 7.046875 C 216.1875 5.480469 215.335938 4.117188 214.148438 4.117188 C 213.65625 4.117188 212.863281 4.234375 212.113281 4.847656 Z M 212.152344 5.621094 C 212.347656 5.324219 212.804688 4.886719 213.496094 4.886719 C 214.25 4.886719 215.199219 5.421875 215.199219 7.046875 C 215.199219 8.6875 214.148438 9.222656 213.378906 9.222656 C 212.882812 9.222656 212.46875 9.003906 212.152344 8.410156 Z M 212.152344 5.621094 "/>
<path fill-rule="nonzero" fill="rgb(0%, 0%, 0%)" fill-opacity="1" d="M 218.136719 13.023438 C 218.535156 12.628906 219.382812 11.855469 219.957031 10.3125 C 220.472656 8.964844 220.550781 7.621094 220.550781 6.6875 C 220.550781 2.613281 218.730469 0.949219 218.136719 0.375 L 217.367188 0.375 C 217.960938 0.988281 219.5625 2.613281 219.5625 6.6875 C 219.5625 7.402344 219.523438 8.886719 219.007812 10.371094 C 218.492188 11.835938 217.78125 12.585938 217.367188 13.023438 Z M 218.136719 13.023438 "/>
</svg>
