<?xml version="1.0" encoding="UTF-8"?>
<svg xmlns="http://www.w3.org/2000/svg" xmlns:xlink="http://www.w3.org/1999/xlink" width="410.036896pt" height="142.092285pt" viewBox="0 0 410.036896 142.092285">
<path fill-rule="nonzero" fill="rgb(62.744141%, 85.096741%, 82.743835%)" fill-opacity="0.68" stroke-width="0.850397" stroke-linecap="butt" stroke-linejoin="round" stroke="rgb(37.646484%, 65.489197%, 62.35199%)" stroke-opacity="1" stroke-miterlimit="4" d="M 169.066406 9.976562 L 176.15625 9.976562 C 178.253906 9.976562 179.945312 11.375 179.945312 13.113281 L 179.945312 127.863281 C 179.945312 129.605469 178.253906 131.003906 176.15625 131.003906 L 169.066406 131.003906 C 166.964844 131.003906 165.273438 129.605469 165.273438 127.863281 L 165.273438 13.113281 C 165.273438 11.375 166.964844 9.976562 169.066406 9.976562 Z M 169.066406 9.976562 "/>
<path fill="none" stroke-width="0.850394" stroke-linecap="butt" stroke-linejoin="miter" stroke="rgb(37.646484%, 65.489197%, 62.35199%)" stroke-opacity="1" stroke-miterlimit="4" d="M 165.160156 70.488281 L 179.839844 70.488281 "/>
<path fill-rule="nonzero" fill="rgb(81.959534%, 51.371765%, 38.430786%)" fill-opacity="0.68" stroke-width="0.850397" stroke-linecap="butt" stroke-linejoin="round" stroke="rgb(46.665955%, 23.529053%, 13.725281%)" stroke-opacity="1" stroke-miterlimit="4" d="M 62.355469 9.96875 L 69.445312 9.96875 C 71.546875 9.96875 73.234375 11.371094 73.234375 13.109375 L 73.234375 127.871094 C 73.234375 129.609375 71.546875 131.007812 69.445312 131.007812 L 62.355469 131.007812 C 60.253906 131.007812 58.5625 129.609375 58.5625 127.871094 L 58.5625 13.109375 C 58.5625 11.371094 60.253906 9.96875 62.355469 9.96875 Z M 62.355469 9.96875 "/>
<path fill="none" stroke-width="0.850397" stroke-linecap="butt" stroke-linejoin="miter" stroke="rgb(46.665955%, 23.529053%, 13.725281%)" stroke-opacity="1" stroke-miterlimit="4" d="M 58.453125 70.488281 L 73.128906 70.488281 "/>
<path fill="none" stroke-width="0.850394" stroke-linecap="butt" stroke-linejoin="miter" stroke="rgb(0%, 0%, 0%)" stroke-opacity="1" stroke-miterlimit="4" d="M 148.527344 98.421875 L 161.511719 98.421875 "/>
<path fill-rule="evenodd" fill="rgb(0%, 0%, 0%)" fill-opacity="1" d="M 160.746094 96.890625 L 164.953125 98.425781 L 160.746094 99.953125 C 161.511719 99.0625 161.511719 97.789062 160.746094 96.890625 Z M 160.746094 96.890625 "/>
<path fill-rule="nonzero" fill="rgb(77.645874%, 80.39093%, 81.175232%)" fill-opacity="0.675105" stroke-width="0.850394" stroke-linecap="butt" stroke-linejoin="round" stroke="rgb(25.881958%, 29.411316%, 30.979919%)" stroke-opacity="1" stroke-miterlimit="4" d="M 103.417969 84.109375 L 137.398438 84.109375 C 143.390625 84.109375 148.210938 88.933594 148.210938 94.921875 L 148.210938 101.925781 C 148.210938 107.917969 143.390625 112.738281 137.398438 112.738281 L 103.417969 112.738281 C 97.429688 112.738281 92.609375 107.917969 92.609375 101.925781 L 92.609375 94.921875 C 92.609375 88.933594 97.429688 84.109375 103.417969 84.109375 Z M 103.417969 84.109375 "/>
<path fill="none" stroke-width="0.850394" stroke-linecap="butt" stroke-linejoin="miter" stroke="rgb(0%, 0%, 0%)" stroke-opacity="1" stroke-miterlimit="4" d="M 73.574219 35.695312 L 161.527344 35.695312 "/>
<path fill-rule="evenodd" fill="rgb(0%, 0%, 0%)" fill-opacity="1" d="M 160.761719 34.164062 L 164.96875 35.695312 L 160.761719 37.226562 C 161.527344 36.335938 161.527344 35.0625 160.761719 34.164062 Z M 160.761719 34.164062 "/>
<path fill="none" stroke-width="0.850394" stroke-linecap="butt" stroke-linejoin="miter" stroke="rgb(27.842712%, 40.391541%, 47.450256%)" stroke-opacity="1" stroke-miterlimit="4" d="M 121.171875 66.167969 L 121.289062 80.335938 "/>
<path fill-rule="evenodd" fill="rgb(0%, 0%, 0%)" fill-opacity="1" d="M 122.8125 79.558594 L 121.316406 83.78125 L 119.753906 79.585938 C 120.648438 80.34375 121.925781 80.332031 122.8125 79.558594 Z M 122.8125 79.558594 "/>
<path fill-rule="nonzero" fill="rgb(68.234253%, 76.469421%, 81.175232%)" fill-opacity="0.675105" stroke-width="0.850394" stroke-linecap="butt" stroke-linejoin="round" stroke="rgb(27.842712%, 40.391541%, 47.450256%)" stroke-opacity="1" stroke-miterlimit="4" d="M 114.082031 45.488281 L 126.738281 45.488281 C 132.503906 45.488281 137.144531 50.128906 137.144531 55.894531 C 137.144531 61.660156 132.503906 66.300781 126.738281 66.300781 L 114.082031 66.300781 C 108.316406 66.300781 103.671875 61.660156 103.671875 55.894531 C 103.671875 50.128906 108.316406 45.488281 114.082031 45.488281 Z M 114.082031 45.488281 "/>
<path fill="none" stroke-width="0.850394" stroke-linecap="butt" stroke-linejoin="miter" stroke="rgb(27.842712%, 40.391541%, 47.450256%)" stroke-opacity="1" stroke-miterlimit="4" d="M 73.640625 55.890625 L 99.910156 55.894531 "/>
<path fill-rule="evenodd" fill="rgb(0%, 0%, 0%)" fill-opacity="1" d="M 99.148438 54.363281 L 103.355469 55.894531 L 99.144531 57.425781 C 99.910156 56.53125 99.910156 55.257812 99.148438 54.363281 Z M 99.148438 54.363281 "/>
<path fill="none" stroke-width="0.850394" stroke-linecap="butt" stroke-linejoin="miter" stroke="rgb(0%, 0%, 0%)" stroke-opacity="1" stroke-miterlimit="4" d="M 73.640625 98.421875 L 89.046875 98.421875 "/>
<path fill-rule="evenodd" fill="rgb(0%, 0%, 0%)" fill-opacity="1" d="M 88.285156 96.890625 L 92.492188 98.425781 L 88.28125 99.953125 C 89.046875 99.0625 89.046875 97.789062 88.285156 96.890625 Z M 88.285156 96.890625 "/>
<path fill-rule="nonzero" fill="rgb(0%, 0%, 0%)" fill-opacity="1" d="M 61.515625 43.457031 L 60.746094 43.457031 L 60.746094 43.980469 C 61.058594 43.964844 61.726562 43.945312 62.144531 43.945312 C 62.582031 43.945312 63.246094 43.964844 63.542969 43.980469 L 63.542969 43.457031 L 62.773438 43.457031 L 62.773438 41.128906 C 62.773438 39.90625 63.738281 39.363281 64.453125 39.363281 C 64.820312 39.363281 65.066406 39.589844 65.066406 40.449219 L 65.066406 43.457031 L 64.296875 43.457031 L 64.296875 43.980469 C 64.59375 43.964844 65.277344 43.945312 65.695312 43.945312 C 66.132812 43.945312 66.796875 43.964844 67.09375 43.980469 L 67.09375 43.457031 L 66.324219 43.457031 L 66.324219 40.570312 C 66.324219 39.398438 65.730469 38.960938 64.613281 38.960938 C 63.542969 38.960938 62.96875 39.609375 62.722656 40.046875 L 62.722656 36.230469 L 60.746094 36.320312 L 60.746094 36.84375 C 61.429688 36.84375 61.515625 36.84375 61.515625 37.28125 Z M 61.515625 43.457031 "/>
<path fill-rule="nonzero" fill="rgb(0%, 0%, 0%)" fill-opacity="1" d="M 69.96875 40.6875 C 69.96875 40.476562 69.96875 40.476562 69.742188 40.476562 C 69.234375 40.964844 68.535156 40.964844 68.222656 40.964844 L 68.222656 41.246094 C 68.394531 41.246094 68.921875 41.246094 69.339844 41.035156 L 69.339844 45.007812 C 69.339844 45.269531 69.339844 45.375 68.570312 45.375 L 68.273438 45.375 L 68.273438 45.652344 C 68.414062 45.652344 69.375 45.621094 69.65625 45.621094 C 69.902344 45.621094 70.878906 45.652344 71.054688 45.652344 L 71.054688 45.375 L 70.757812 45.375 C 69.96875 45.375 69.96875 45.269531 69.96875 45.007812 Z M 69.96875 40.6875 "/>
<path fill-rule="nonzero" fill="rgb(0%, 0%, 0%)" fill-opacity="1" d="M 61.394531 100.089844 L 60.625 100.089844 L 60.625 100.613281 C 60.9375 100.597656 61.601562 100.578125 62.023438 100.578125 C 62.460938 100.578125 63.125 100.597656 63.421875 100.613281 L 63.421875 100.089844 L 62.652344 100.089844 L 62.652344 97.761719 C 62.652344 96.539062 63.613281 95.996094 64.332031 95.996094 C 64.699219 95.996094 64.945312 96.222656 64.945312 97.078125 L 64.945312 100.089844 L 64.175781 100.089844 L 64.175781 100.613281 C 64.472656 100.597656 65.152344 100.578125 65.574219 100.578125 C 66.011719 100.578125 66.675781 100.597656 66.972656 100.613281 L 66.972656 100.089844 L 66.203125 100.089844 L 66.203125 97.203125 C 66.203125 96.03125 65.609375 95.59375 64.488281 95.59375 C 63.421875 95.59375 62.84375 96.238281 62.601562 96.675781 L 62.601562 92.863281 L 60.625 92.953125 L 60.625 93.476562 C 61.304688 93.476562 61.394531 93.476562 61.394531 93.914062 Z M 61.394531 100.089844 "/>
<path fill-rule="nonzero" fill="rgb(0%, 0%, 0%)" fill-opacity="1" d="M 71.175781 100.867188 L 70.914062 100.867188 C 70.898438 101.042969 70.808594 101.5 70.707031 101.570312 C 70.652344 101.621094 70.058594 101.621094 69.9375 101.621094 L 68.5 101.621094 C 69.324219 100.902344 69.601562 100.675781 70.058594 100.308594 C 70.636719 99.855469 71.175781 99.363281 71.175781 98.628906 C 71.175781 97.683594 70.355469 97.109375 69.359375 97.109375 C 68.394531 97.109375 67.730469 97.789062 67.730469 98.507812 C 67.730469 98.890625 68.0625 98.945312 68.152344 98.945312 C 68.328125 98.945312 68.554688 98.804688 68.554688 98.523438 C 68.554688 98.386719 68.5 98.105469 68.097656 98.105469 C 68.34375 97.5625 68.867188 97.386719 69.234375 97.386719 C 70.023438 97.386719 70.425781 98 70.425781 98.628906 C 70.425781 99.3125 69.9375 99.835938 69.691406 100.117188 L 67.820312 101.988281 C 67.730469 102.058594 67.730469 102.074219 67.730469 102.285156 L 70.949219 102.285156 Z M 71.175781 100.867188 "/>
<path fill-rule="nonzero" fill="rgb(0%, 0%, 0%)" fill-opacity="1" d="M 114.945312 52.351562 C 114.972656 52.246094 114.972656 52.230469 114.972656 52.21875 C 114.972656 52.097656 114.851562 52.097656 114.773438 52.097656 C 114.597656 52.097656 114.597656 52.125 114.542969 52.300781 L 114.128906 53.988281 C 114.089844 54.105469 114.089844 54.105469 114.074219 54.121094 C 114.0625 54.121094 114.050781 54.132812 113.914062 54.148438 C 112.148438 54.242188 111.101562 55.460938 111.101562 56.542969 C 111.101562 57.453125 111.839844 58.085938 113.085938 58.125 L 112.722656 59.636719 C 112.722656 59.757812 112.84375 59.757812 112.925781 59.757812 C 113.058594 59.757812 113.097656 59.746094 113.140625 59.597656 L 113.433594 58.40625 C 113.488281 58.164062 113.5 58.152344 113.511719 58.136719 C 113.527344 58.136719 113.539062 58.136719 113.675781 58.125 C 115.414062 58.015625 116.488281 56.824219 116.488281 55.726562 C 116.488281 54.804688 115.75 54.1875 114.503906 54.148438 Z M 113.164062 57.816406 C 112.429688 57.777344 111.972656 57.453125 111.972656 56.773438 C 111.972656 56.53125 112.066406 55.742188 112.523438 55.179688 C 112.816406 54.804688 113.3125 54.507812 114.007812 54.457031 Z M 114.425781 54.457031 C 115.160156 54.496094 115.617188 54.804688 115.617188 55.5 C 115.617188 55.742188 115.523438 56.53125 115.066406 57.09375 C 114.773438 57.46875 114.277344 57.761719 113.582031 57.816406 Z M 114.425781 54.457031 "/>
<path fill-rule="nonzero" fill="rgb(0%, 0%, 0%)" fill-opacity="1" d="M 118.886719 60.171875 L 118.886719 59.824219 L 118.058594 59.824219 L 118.058594 51.964844 L 118.886719 51.964844 L 118.886719 51.617188 L 117.710938 51.617188 L 117.710938 60.171875 Z M 118.886719 60.171875 "/>
<path fill-rule="nonzero" fill="rgb(0%, 0%, 0%)" fill-opacity="1" d="M 120.054688 57.628906 L 119.464844 57.628906 L 119.464844 58.03125 C 119.707031 58.015625 120.214844 58.003906 120.535156 58.003906 C 120.871094 58.003906 121.378906 58.015625 121.609375 58.03125 L 121.609375 57.628906 L 121.019531 57.628906 L 121.019531 55.847656 C 121.019531 54.910156 121.753906 54.496094 122.304688 54.496094 C 122.585938 54.496094 122.773438 54.667969 122.773438 55.324219 L 122.773438 57.628906 L 122.183594 57.628906 L 122.183594 58.03125 C 122.410156 58.015625 122.933594 58.003906 123.253906 58.003906 C 123.589844 58.003906 124.097656 58.015625 124.324219 58.03125 L 124.324219 57.628906 L 123.738281 57.628906 L 123.738281 55.417969 C 123.738281 54.523438 123.28125 54.1875 122.425781 54.1875 C 121.609375 54.1875 121.164062 54.683594 120.976562 55.019531 L 120.976562 52.097656 L 119.464844 52.164062 L 119.464844 52.566406 C 119.988281 52.566406 120.054688 52.566406 120.054688 52.902344 Z M 120.054688 57.628906 "/>
<path fill-rule="nonzero" fill="rgb(0%, 0%, 0%)" fill-opacity="1" d="M 126.527344 55.507812 C 126.527344 55.347656 126.527344 55.347656 126.351562 55.347656 C 125.964844 55.722656 125.429688 55.722656 125.1875 55.722656 L 125.1875 55.9375 C 125.320312 55.9375 125.722656 55.9375 126.042969 55.777344 L 126.042969 58.816406 C 126.042969 59.015625 126.042969 59.097656 125.457031 59.097656 L 125.226562 59.097656 L 125.226562 59.3125 C 125.335938 59.3125 126.070312 59.285156 126.285156 59.285156 C 126.472656 59.285156 127.222656 59.3125 127.355469 59.3125 L 127.355469 59.097656 L 127.128906 59.097656 C 126.527344 59.097656 126.527344 59.015625 126.527344 58.816406 Z M 126.527344 55.507812 "/>
<path fill-rule="nonzero" fill="rgb(0%, 0%, 0%)" fill-opacity="1" d="M 129.714844 51.617188 L 128.550781 51.617188 L 128.550781 51.964844 L 129.378906 51.964844 L 129.378906 59.824219 L 128.550781 59.824219 L 128.550781 60.171875 L 129.714844 60.171875 Z M 129.714844 51.617188 "/>
<path fill-rule="nonzero" fill="rgb(0%, 0%, 0%)" fill-opacity="1" d="M 168.226562 42.363281 L 167.457031 42.363281 L 167.457031 42.886719 C 167.769531 42.867188 168.433594 42.851562 168.855469 42.851562 C 169.292969 42.851562 169.957031 42.867188 170.253906 42.886719 L 170.253906 42.363281 L 169.484375 42.363281 L 169.484375 40.035156 C 169.484375 38.8125 170.445312 38.269531 171.164062 38.269531 C 171.53125 38.269531 171.777344 38.496094 171.777344 39.351562 L 171.777344 42.363281 L 171.007812 42.363281 L 171.007812 42.886719 C 171.304688 42.867188 171.984375 42.851562 172.40625 42.851562 C 172.84375 42.851562 173.507812 42.867188 173.804688 42.886719 L 173.804688 42.363281 L 173.035156 42.363281 L 173.035156 39.476562 C 173.035156 38.304688 172.441406 37.867188 171.320312 37.867188 C 170.253906 37.867188 169.675781 38.511719 169.433594 38.949219 L 169.433594 35.136719 L 167.457031 35.226562 L 167.457031 35.75 C 168.136719 35.75 168.226562 35.75 168.226562 36.1875 Z M 168.226562 42.363281 "/>
<path fill-rule="nonzero" fill="rgb(0%, 0%, 0%)" fill-opacity="1" d="M 176.332031 35.148438 C 176.402344 35.023438 176.402344 34.953125 176.402344 34.902344 C 176.402344 34.65625 176.191406 34.484375 175.945312 34.484375 C 175.648438 34.484375 175.5625 34.726562 175.527344 34.851562 L 174.492188 38.226562 C 174.476562 38.242188 174.441406 38.332031 174.441406 38.347656 C 174.441406 38.4375 174.6875 38.523438 174.757812 38.523438 C 174.808594 38.523438 174.808594 38.507812 174.863281 38.382812 Z M 176.332031 35.148438 "/>
<path fill-rule="nonzero" fill="rgb(0%, 0%, 0%)" fill-opacity="1" d="M 176.679688 40.6875 C 176.679688 40.476562 176.679688 40.476562 176.453125 40.476562 C 175.945312 40.964844 175.246094 40.964844 174.929688 40.964844 L 174.929688 41.246094 C 175.105469 41.246094 175.632812 41.246094 176.050781 41.035156 L 176.050781 45.007812 C 176.050781 45.269531 176.050781 45.375 175.28125 45.375 L 174.984375 45.375 L 174.984375 45.652344 C 175.125 45.652344 176.085938 45.621094 176.367188 45.621094 C 176.609375 45.621094 177.589844 45.652344 177.765625 45.652344 L 177.765625 45.375 L 177.46875 45.375 C 176.679688 45.375 176.679688 45.269531 176.679688 45.007812 Z M 176.679688 40.6875 "/>
<path fill-rule="nonzero" fill="rgb(0%, 0%, 0%)" fill-opacity="1" d="M 168.101562 98.992188 L 167.332031 98.992188 L 167.332031 99.519531 C 167.648438 99.5 168.3125 99.484375 168.734375 99.484375 C 169.171875 99.484375 169.835938 99.5 170.132812 99.519531 L 170.132812 98.992188 L 169.363281 98.992188 L 169.363281 96.667969 C 169.363281 95.441406 170.324219 94.898438 171.042969 94.898438 C 171.410156 94.898438 171.652344 95.128906 171.652344 95.984375 L 171.652344 98.992188 L 170.882812 98.992188 L 170.882812 99.519531 C 171.179688 99.5 171.863281 99.484375 172.285156 99.484375 C 172.722656 99.484375 173.386719 99.5 173.683594 99.519531 L 173.683594 98.992188 L 172.914062 98.992188 L 172.914062 96.105469 C 172.914062 94.933594 172.320312 94.496094 171.199219 94.496094 C 170.132812 94.496094 169.554688 95.144531 169.308594 95.582031 L 169.308594 91.769531 L 167.332031 91.855469 L 167.332031 92.382812 C 168.015625 92.382812 168.101562 92.382812 168.101562 92.820312 Z M 168.101562 98.992188 "/>
<path fill-rule="nonzero" fill="rgb(0%, 0%, 0%)" fill-opacity="1" d="M 176.207031 91.777344 C 176.277344 91.65625 176.277344 91.585938 176.277344 91.535156 C 176.277344 91.289062 176.070312 91.113281 175.824219 91.113281 C 175.527344 91.113281 175.4375 91.359375 175.402344 91.480469 L 174.371094 94.859375 C 174.355469 94.875 174.320312 94.960938 174.320312 94.980469 C 174.320312 95.066406 174.5625 95.15625 174.632812 95.15625 C 174.6875 95.15625 174.6875 95.136719 174.738281 95.015625 Z M 176.207031 91.777344 "/>
<path fill-rule="nonzero" fill="rgb(0%, 0%, 0%)" fill-opacity="1" d="M 177.886719 100.867188 L 177.625 100.867188 C 177.609375 101.042969 177.519531 101.5 177.414062 101.570312 C 177.363281 101.621094 176.769531 101.621094 176.644531 101.621094 L 175.210938 101.621094 C 176.035156 100.902344 176.3125 100.675781 176.769531 100.308594 C 177.34375 99.855469 177.886719 99.363281 177.886719 98.628906 C 177.886719 97.683594 177.066406 97.109375 176.070312 97.109375 C 175.105469 97.109375 174.441406 97.789062 174.441406 98.507812 C 174.441406 98.890625 174.773438 98.945312 174.863281 98.945312 C 175.035156 98.945312 175.265625 98.804688 175.265625 98.523438 C 175.265625 98.386719 175.210938 98.105469 174.808594 98.105469 C 175.054688 97.5625 175.578125 97.386719 175.945312 97.386719 C 176.734375 97.386719 177.136719 98 177.136719 98.628906 C 177.136719 99.3125 176.644531 99.835938 176.402344 100.117188 L 174.527344 101.988281 C 174.441406 102.058594 174.441406 102.074219 174.441406 102.285156 L 177.660156 102.285156 Z M 177.886719 100.867188 "/>
<path fill-rule="nonzero" fill="rgb(62.744141%, 85.096741%, 82.743835%)" fill-opacity="0.68" stroke-width="0.850394" stroke-linecap="butt" stroke-linejoin="round" stroke="rgb(37.646484%, 65.489197%, 62.35199%)" stroke-opacity="1" stroke-miterlimit="4" d="M -358.355469 9.992188 L -351.265625 9.992188 C -349.164062 9.992188 -347.472656 11.386719 -347.472656 13.117188 L -347.472656 127.328125 C -347.472656 129.058594 -349.164062 130.453125 -351.265625 130.453125 L -358.355469 130.453125 C -360.453125 130.453125 -362.144531 129.058594 -362.144531 127.328125 L -362.144531 13.117188 C -362.144531 11.386719 -360.453125 9.992188 -358.355469 9.992188 Z M -358.355469 9.992188 " transform="matrix(-1, 0, 0, 1, 0, 0)"/>
<path fill="none" stroke-width="0.850394" stroke-linecap="butt" stroke-linejoin="miter" stroke="rgb(37.646484%, 65.489197%, 62.35199%)" stroke-opacity="1" stroke-miterlimit="4" d="M 362.257812 70.222656 L 347.578125 70.222656 "/>
<path fill-rule="nonzero" fill="rgb(81.959534%, 51.371765%, 38.430786%)" fill-opacity="0.679325" stroke-width="0.850394" stroke-linecap="butt" stroke-linejoin="round" stroke="rgb(46.665955%, 23.529053%, 13.725281%)" stroke-opacity="1" stroke-miterlimit="4" d="M -247.128906 9.890625 L -240.074219 9.890625 C -237.984375 9.890625 -236.300781 11.296875 -236.300781 13.035156 L -236.300781 127.976562 C -236.300781 129.71875 -237.984375 131.121094 -240.074219 131.121094 L -247.128906 131.121094 C -249.21875 131.121094 -250.898438 129.71875 -250.898438 127.976562 L -250.898438 13.035156 C -250.898438 11.296875 -249.21875 9.890625 -247.128906 9.890625 Z M -247.128906 9.890625 " transform="matrix(-1, 0, 0, 1, 0, 0)"/>
<path fill="none" stroke-width="0.850397" stroke-linecap="butt" stroke-linejoin="miter" stroke="rgb(46.665955%, 23.529053%, 13.725281%)" stroke-opacity="1" stroke-miterlimit="4" d="M 251.011719 70.507812 L 236.40625 70.507812 "/>
<path fill-rule="nonzero" fill="rgb(0%, 0%, 0%)" fill-opacity="1" d="M 239.214844 42.921875 L 238.445312 42.921875 L 238.445312 43.445312 C 238.761719 43.429688 239.425781 43.410156 239.84375 43.410156 C 240.28125 43.410156 240.945312 43.429688 241.246094 43.445312 L 241.246094 42.921875 L 240.472656 42.921875 L 240.472656 40.59375 C 240.472656 39.371094 241.4375 38.828125 242.152344 38.828125 C 242.519531 38.828125 242.765625 39.054688 242.765625 39.914062 L 242.765625 42.921875 L 241.996094 42.921875 L 241.996094 43.445312 C 242.292969 43.429688 242.976562 43.410156 243.394531 43.410156 C 243.832031 43.410156 244.496094 43.429688 244.796875 43.445312 L 244.796875 42.921875 L 244.027344 42.921875 L 244.027344 40.035156 C 244.027344 38.863281 243.429688 38.425781 242.3125 38.425781 C 241.246094 38.425781 240.667969 39.074219 240.421875 39.511719 L 240.421875 35.695312 L 238.445312 35.785156 L 238.445312 36.308594 C 239.128906 36.308594 239.214844 36.308594 239.214844 36.746094 Z M 239.214844 42.921875 "/>
<path fill-rule="nonzero" fill="rgb(0%, 0%, 0%)" fill-opacity="1" d="M 247.671875 40.152344 C 247.671875 39.941406 247.671875 39.941406 247.441406 39.941406 C 246.9375 40.429688 246.234375 40.429688 245.921875 40.429688 L 245.921875 40.710938 C 246.097656 40.710938 246.621094 40.710938 247.039062 40.5 L 247.039062 44.472656 C 247.039062 44.734375 247.039062 44.839844 246.269531 44.839844 L 245.972656 44.839844 L 245.972656 45.117188 C 246.113281 45.117188 247.074219 45.082031 247.355469 45.082031 C 247.601562 45.082031 248.578125 45.117188 248.753906 45.117188 L 248.753906 44.839844 L 248.457031 44.839844 C 247.671875 44.839844 247.671875 44.734375 247.671875 44.472656 Z M 247.671875 40.152344 "/>
<path fill-rule="nonzero" fill="rgb(77.645874%, 80.39093%, 81.175232%)" fill-opacity="0.675105" stroke-width="0.850394" stroke-linecap="butt" stroke-linejoin="round" stroke="rgb(25.881958%, 29.411316%, 30.979919%)" stroke-opacity="1" stroke-miterlimit="4" d="M -317.316406 84.109375 L -279.167969 84.109375 C -273.179688 84.109375 -268.359375 88.929688 -268.359375 94.917969 L -268.359375 101.925781 C -268.359375 107.914062 -273.179688 112.738281 -279.167969 112.738281 L -317.316406 112.738281 C -323.304688 112.738281 -328.128906 107.914062 -328.128906 101.925781 L -328.128906 94.917969 C -328.128906 88.929688 -323.304688 84.109375 -317.316406 84.109375 Z M -317.316406 84.109375 " transform="matrix(-1, 0, 0, 1, 0, 0)"/>
<path fill="none" stroke-width="0.850394" stroke-linecap="butt" stroke-linejoin="miter" stroke="rgb(0%, 0%, 0%)" stroke-opacity="1" stroke-miterlimit="4" d="M 268.402344 98.421875 L 254.453125 98.421875 "/>
<path fill-rule="evenodd" fill="rgb(0%, 0%, 0%)" fill-opacity="1" d="M 255.21875 99.953125 L 251.007812 98.421875 L 255.214844 96.890625 C 254.453125 97.785156 254.453125 99.058594 255.21875 99.953125 Z M 255.21875 99.953125 "/>
<path fill-rule="nonzero" fill="rgb(68.234253%, 76.469421%, 81.175232%)" fill-opacity="0.675105" stroke-width="0.850394" stroke-linecap="butt" stroke-linejoin="round" stroke="rgb(27.842712%, 40.391541%, 47.450256%)" stroke-opacity="1" stroke-miterlimit="4" d="M -304.570312 45.488281 L -291.914062 45.488281 C -286.148438 45.488281 -281.507812 50.128906 -281.507812 55.894531 C -281.507812 61.660156 -286.148438 66.300781 -291.914062 66.300781 L -304.570312 66.300781 C -310.335938 66.300781 -314.980469 61.660156 -314.980469 55.894531 C -314.980469 50.128906 -310.335938 45.488281 -304.570312 45.488281 Z M -304.570312 45.488281 " transform="matrix(-1, 0, 0, 1, 0, 0)"/>
<path fill="none" stroke-width="0.850394" stroke-linecap="butt" stroke-linejoin="miter" stroke="rgb(0%, 0%, 0%)" stroke-opacity="1" stroke-miterlimit="4" d="M 347.042969 98.421875 L 331.335938 98.421875 "/>
<path fill-rule="evenodd" fill="rgb(0%, 0%, 0%)" fill-opacity="1" d="M 332.101562 99.953125 L 327.890625 98.421875 L 332.101562 96.890625 C 331.335938 97.785156 331.335938 99.058594 332.101562 99.953125 Z M 332.101562 99.953125 "/>
<path fill-rule="nonzero" fill="rgb(0%, 0%, 0%)" fill-opacity="1" d="M 350.910156 42.363281 L 350.140625 42.363281 L 350.140625 42.886719 C 350.457031 42.867188 351.121094 42.851562 351.542969 42.851562 C 351.980469 42.851562 352.644531 42.867188 352.941406 42.886719 L 352.941406 42.363281 L 352.171875 42.363281 L 352.171875 40.035156 C 352.171875 38.8125 353.132812 38.269531 353.851562 38.269531 C 354.21875 38.269531 354.460938 38.496094 354.460938 39.351562 L 354.460938 42.363281 L 353.691406 42.363281 L 353.691406 42.886719 C 353.988281 42.867188 354.671875 42.851562 355.09375 42.851562 C 355.53125 42.851562 356.195312 42.867188 356.492188 42.886719 L 356.492188 42.363281 L 355.722656 42.363281 L 355.722656 39.476562 C 355.722656 38.304688 355.128906 37.867188 354.007812 37.867188 C 352.941406 37.867188 352.363281 38.511719 352.117188 38.949219 L 352.117188 35.136719 L 350.140625 35.226562 L 350.140625 35.75 C 350.824219 35.75 350.910156 35.75 350.910156 36.1875 Z M 350.910156 42.363281 "/>
<path fill-rule="nonzero" fill="rgb(0%, 0%, 0%)" fill-opacity="1" d="M 359.015625 35.148438 C 359.085938 35.023438 359.085938 34.953125 359.085938 34.902344 C 359.085938 34.65625 358.878906 34.484375 358.632812 34.484375 C 358.335938 34.484375 358.246094 34.726562 358.210938 34.851562 L 357.179688 38.226562 C 357.164062 38.242188 357.128906 38.332031 357.128906 38.347656 C 357.128906 38.4375 357.371094 38.523438 357.441406 38.523438 C 357.496094 38.523438 357.496094 38.507812 357.546875 38.382812 Z M 359.015625 35.148438 "/>
<path fill-rule="nonzero" fill="rgb(0%, 0%, 0%)" fill-opacity="1" d="M 359.367188 40.6875 C 359.367188 40.476562 359.367188 40.476562 359.140625 40.476562 C 358.632812 40.964844 357.933594 40.964844 357.617188 40.964844 L 357.617188 41.246094 C 357.792969 41.246094 358.316406 41.246094 358.738281 41.035156 L 358.738281 45.007812 C 358.738281 45.269531 358.738281 45.375 357.96875 45.375 L 357.671875 45.375 L 357.671875 45.652344 C 357.808594 45.652344 358.773438 45.621094 359.050781 45.621094 C 359.296875 45.621094 360.277344 45.652344 360.453125 45.652344 L 360.453125 45.375 L 360.152344 45.375 C 359.367188 45.375 359.367188 45.269531 359.367188 45.007812 Z M 359.367188 40.6875 "/>
<path fill-rule="nonzero" fill="rgb(0%, 0%, 0%)" fill-opacity="1" d="M 350.789062 98.992188 L 350.019531 98.992188 L 350.019531 99.519531 C 350.335938 99.5 351 99.484375 351.417969 99.484375 C 351.855469 99.484375 352.519531 99.5 352.816406 99.519531 L 352.816406 98.992188 L 352.046875 98.992188 L 352.046875 96.667969 C 352.046875 95.441406 353.011719 94.898438 353.726562 94.898438 C 354.09375 94.898438 354.339844 95.128906 354.339844 95.984375 L 354.339844 98.992188 L 353.570312 98.992188 L 353.570312 99.519531 C 353.867188 99.5 354.550781 99.484375 354.96875 99.484375 C 355.40625 99.484375 356.070312 99.5 356.371094 99.519531 L 356.371094 98.992188 L 355.597656 98.992188 L 355.597656 96.105469 C 355.597656 94.933594 355.003906 94.496094 353.886719 94.496094 C 352.816406 94.496094 352.242188 95.144531 351.996094 95.582031 L 351.996094 91.769531 L 350.019531 91.855469 L 350.019531 92.382812 C 350.703125 92.382812 350.789062 92.382812 350.789062 92.820312 Z M 350.789062 98.992188 "/>
<path fill-rule="nonzero" fill="rgb(0%, 0%, 0%)" fill-opacity="1" d="M 358.894531 91.777344 C 358.964844 91.65625 358.964844 91.585938 358.964844 91.535156 C 358.964844 91.289062 358.753906 91.113281 358.507812 91.113281 C 358.210938 91.113281 358.125 91.359375 358.089844 91.480469 L 357.058594 94.859375 C 357.039062 94.875 357.003906 94.960938 357.003906 94.980469 C 357.003906 95.066406 357.25 95.15625 357.320312 95.15625 C 357.371094 95.15625 357.371094 95.136719 357.425781 95.015625 Z M 358.894531 91.777344 "/>
<path fill-rule="nonzero" fill="rgb(0%, 0%, 0%)" fill-opacity="1" d="M 360.574219 100.867188 L 360.3125 100.867188 C 360.292969 101.042969 360.207031 101.5 360.101562 101.570312 C 360.050781 101.621094 359.453125 101.621094 359.332031 101.621094 L 357.898438 101.621094 C 358.71875 100.902344 359 100.675781 359.453125 100.308594 C 360.03125 99.855469 360.574219 99.363281 360.574219 98.628906 C 360.574219 97.683594 359.75 97.109375 358.753906 97.109375 C 357.792969 97.109375 357.128906 97.789062 357.128906 98.507812 C 357.128906 98.890625 357.460938 98.945312 357.546875 98.945312 C 357.722656 98.945312 357.949219 98.804688 357.949219 98.523438 C 357.949219 98.386719 357.898438 98.105469 357.496094 98.105469 C 357.738281 97.5625 358.265625 97.386719 358.632812 97.386719 C 359.417969 97.386719 359.820312 98 359.820312 98.628906 C 359.820312 99.3125 359.332031 99.835938 359.085938 100.117188 L 357.214844 101.988281 C 357.128906 102.058594 357.128906 102.074219 357.128906 102.285156 L 360.347656 102.285156 Z M 360.574219 100.867188 "/>
<path fill-rule="nonzero" fill="rgb(0%, 0%, 0%)" fill-opacity="1" d="M 293.203125 52.351562 C 293.230469 52.246094 293.230469 52.230469 293.230469 52.21875 C 293.230469 52.097656 293.109375 52.097656 293.03125 52.097656 C 292.855469 52.097656 292.855469 52.125 292.804688 52.296875 L 292.386719 53.984375 C 292.347656 54.105469 292.347656 54.105469 292.335938 54.121094 C 292.320312 54.121094 292.308594 54.132812 292.175781 54.144531 C 290.40625 54.238281 289.363281 55.457031 289.363281 56.542969 C 289.363281 57.453125 290.097656 58.082031 291.34375 58.125 L 290.980469 59.636719 C 290.980469 59.757812 291.101562 59.757812 291.183594 59.757812 C 291.316406 59.757812 291.355469 59.742188 291.398438 59.597656 L 291.691406 58.40625 C 291.746094 58.164062 291.757812 58.148438 291.773438 58.136719 C 291.785156 58.136719 291.800781 58.136719 291.933594 58.125 C 293.671875 58.015625 294.746094 56.824219 294.746094 55.726562 C 294.746094 54.800781 294.007812 54.1875 292.761719 54.144531 Z M 291.425781 57.816406 C 290.6875 57.773438 290.230469 57.453125 290.230469 56.769531 C 290.230469 56.53125 290.324219 55.738281 290.78125 55.175781 C 291.074219 54.800781 291.570312 54.507812 292.269531 54.453125 Z M 292.683594 54.453125 C 293.417969 54.496094 293.875 54.800781 293.875 55.5 C 293.875 55.738281 293.78125 56.53125 293.324219 57.09375 C 293.03125 57.46875 292.535156 57.761719 291.839844 57.816406 Z M 292.683594 54.453125 "/>
<path fill-rule="nonzero" fill="rgb(0%, 0%, 0%)" fill-opacity="1" d="M 297.144531 60.171875 L 297.144531 59.824219 L 296.316406 59.824219 L 296.316406 51.964844 L 297.144531 51.964844 L 297.144531 51.613281 L 295.96875 51.613281 L 295.96875 60.171875 Z M 297.144531 60.171875 "/>
<path fill-rule="nonzero" fill="rgb(0%, 0%, 0%)" fill-opacity="1" d="M 298.3125 57.628906 L 297.722656 57.628906 L 297.722656 58.03125 C 297.964844 58.015625 298.472656 58.003906 298.792969 58.003906 C 299.128906 58.003906 299.636719 58.015625 299.867188 58.03125 L 299.867188 57.628906 L 299.277344 57.628906 L 299.277344 55.847656 C 299.277344 54.910156 300.011719 54.496094 300.5625 54.496094 C 300.84375 54.496094 301.03125 54.667969 301.03125 55.324219 L 301.03125 57.628906 L 300.441406 57.628906 L 300.441406 58.03125 C 300.667969 58.015625 301.191406 58.003906 301.511719 58.003906 C 301.847656 58.003906 302.355469 58.015625 302.585938 58.03125 L 302.585938 57.628906 L 301.996094 57.628906 L 301.996094 55.417969 C 301.996094 54.519531 301.539062 54.1875 300.683594 54.1875 C 299.867188 54.1875 299.425781 54.683594 299.238281 55.015625 L 299.238281 52.097656 L 297.722656 52.164062 L 297.722656 52.566406 C 298.246094 52.566406 298.3125 52.566406 298.3125 52.902344 Z M 298.3125 57.628906 "/>
<path fill-rule="nonzero" fill="rgb(0%, 0%, 0%)" fill-opacity="1" d="M 304.785156 55.507812 C 304.785156 55.347656 304.785156 55.347656 304.609375 55.347656 C 304.222656 55.722656 303.6875 55.722656 303.445312 55.722656 L 303.445312 55.933594 C 303.582031 55.933594 303.980469 55.933594 304.304688 55.773438 L 304.304688 58.8125 C 304.304688 59.015625 304.304688 59.09375 303.714844 59.09375 L 303.488281 59.09375 L 303.488281 59.308594 C 303.59375 59.308594 304.328125 59.28125 304.542969 59.28125 C 304.730469 59.28125 305.480469 59.308594 305.617188 59.308594 L 305.617188 59.09375 L 305.386719 59.09375 C 304.785156 59.09375 304.785156 59.015625 304.785156 58.8125 Z M 304.785156 55.507812 "/>
<path fill-rule="nonzero" fill="rgb(0%, 0%, 0%)" fill-opacity="1" d="M 307.972656 51.613281 L 306.808594 51.613281 L 306.808594 51.964844 L 307.636719 51.964844 L 307.636719 59.824219 L 306.808594 59.824219 L 306.808594 60.171875 L 307.972656 60.171875 Z M 307.972656 51.613281 "/>
<path fill-rule="nonzero" fill="rgb(0%, 0%, 0%)" fill-opacity="1" d="M 239.09375 100.089844 L 238.324219 100.089844 L 238.324219 100.613281 C 238.636719 100.597656 239.300781 100.578125 239.722656 100.578125 C 240.160156 100.578125 240.824219 100.597656 241.121094 100.613281 L 241.121094 100.089844 L 240.351562 100.089844 L 240.351562 97.761719 C 240.351562 96.539062 241.3125 95.996094 242.03125 95.996094 C 242.398438 95.996094 242.644531 96.222656 242.644531 97.078125 L 242.644531 100.089844 L 241.875 100.089844 L 241.875 100.613281 C 242.171875 100.597656 242.855469 100.578125 243.273438 100.578125 C 243.710938 100.578125 244.375 100.597656 244.671875 100.613281 L 244.671875 100.089844 L 243.902344 100.089844 L 243.902344 97.203125 C 243.902344 96.03125 243.308594 95.59375 242.1875 95.59375 C 241.121094 95.59375 240.542969 96.238281 240.300781 96.675781 L 240.300781 92.863281 L 238.324219 92.953125 L 238.324219 93.476562 C 239.003906 93.476562 239.09375 93.476562 239.09375 93.914062 Z M 239.09375 100.089844 "/>
<path fill-rule="nonzero" fill="rgb(0%, 0%, 0%)" fill-opacity="1" d="M 248.878906 100.867188 L 248.613281 100.867188 C 248.597656 101.042969 248.511719 101.5 248.40625 101.570312 C 248.351562 101.621094 247.757812 101.621094 247.636719 101.621094 L 246.199219 101.621094 C 247.023438 100.902344 247.304688 100.675781 247.757812 100.308594 C 248.335938 99.855469 248.878906 99.363281 248.878906 98.628906 C 248.878906 97.683594 248.054688 97.109375 247.058594 97.109375 C 246.097656 97.109375 245.429688 97.789062 245.429688 98.507812 C 245.429688 98.890625 245.765625 98.945312 245.851562 98.945312 C 246.027344 98.945312 246.253906 98.804688 246.253906 98.523438 C 246.253906 98.386719 246.199219 98.105469 245.796875 98.105469 C 246.042969 97.5625 246.570312 97.386719 246.9375 97.386719 C 247.722656 97.386719 248.125 98 248.125 98.628906 C 248.125 99.3125 247.636719 99.835938 247.390625 100.117188 L 245.519531 101.988281 C 245.429688 102.058594 245.429688 102.074219 245.429688 102.285156 L 248.648438 102.285156 Z M 248.878906 100.867188 "/>
<path fill-rule="nonzero" fill="rgb(0%, 0%, 0%)" fill-opacity="1" d="M 88.660156 5.3125 L 88.660156 4.691406 L 85.609375 4.691406 L 85.609375 2.144531 L 86.929688 2.144531 C 87.054688 2.144531 87.183594 2.160156 87.292969 2.160156 L 89.09375 2.160156 L 89.09375 1.492188 L 84.703125 1.492188 L 84.699219 8.507812 L 85.605469 8.507812 L 85.609375 5.308594 Z M 88.660156 5.3125 "/>
<path fill-rule="nonzero" fill="rgb(0%, 0%, 0%)" fill-opacity="1" d="M 93.992188 6.285156 C 93.992188 4.914062 92.976562 3.832031 91.785156 3.832031 C 90.527344 3.832031 89.539062 4.945312 89.539062 6.28125 C 89.539062 7.617188 90.574219 8.621094 91.765625 8.621094 C 92.976562 8.621094 93.992188 7.601562 93.992188 6.285156 Z M 91.765625 7.96875 C 91.066406 7.96875 90.335938 7.394531 90.335938 6.171875 C 90.335938 4.945312 91.097656 4.453125 91.765625 4.453125 C 92.484375 4.453125 93.199219 4.980469 93.199219 6.171875 C 93.199219 7.378906 92.511719 7.96875 91.765625 7.96875 Z M 91.765625 7.96875 "/>
<path fill-rule="nonzero" fill="rgb(0%, 0%, 0%)" fill-opacity="1" d="M 95.625 6.332031 C 95.625 5.328125 96.355469 4.597656 97.359375 4.566406 L 97.359375 3.898438 C 96.453125 3.898438 95.894531 4.40625 95.578125 4.867188 L 95.578125 3.945312 L 94.863281 3.945312 L 94.859375 8.511719 L 95.625 8.511719 Z M 95.625 6.332031 "/>
<path fill-rule="nonzero" fill="rgb(0%, 0%, 0%)" fill-opacity="1" d="M 104.265625 4.011719 L 103.535156 4.011719 L 102.882812 6.160156 C 102.769531 6.523438 102.46875 7.527344 102.402344 7.972656 C 102.355469 7.652344 102.101562 6.746094 101.925781 6.175781 L 101.277344 4.011719 L 100.558594 4.011719 L 99.988281 5.917969 C 99.875 6.269531 99.523438 7.429688 99.492188 7.957031 L 99.476562 7.957031 C 99.429688 7.460938 99.097656 6.316406 98.9375 5.761719 L 98.398438 4.011719 L 97.632812 4.011719 L 99.015625 8.511719 L 99.828125 8.511719 C 99.875 8.351562 100.226562 7.207031 100.449219 6.429688 C 100.589844 5.953125 100.878906 4.949219 100.910156 4.566406 L 100.925781 4.566406 C 100.941406 4.855469 101.117188 5.554688 101.242188 6 L 101.992188 8.511719 L 102.882812 8.511719 Z M 104.265625 4.011719 "/>
<path fill-rule="nonzero" fill="rgb(0%, 0%, 0%)" fill-opacity="1" d="M 108.203125 5.589844 C 108.203125 4.554688 107.457031 3.839844 106.515625 3.835938 C 105.863281 3.835938 105.402344 3.996094 104.925781 4.265625 L 104.988281 4.933594 C 105.515625 4.570312 106.023438 4.441406 106.515625 4.441406 C 106.992188 4.441406 107.40625 4.839844 107.40625 5.585938 L 107.40625 6.03125 C 105.878906 6.046875 104.589844 6.476562 104.589844 7.367188 C 104.589844 7.796875 104.859375 8.625 105.753906 8.625 C 105.894531 8.625 106.851562 8.609375 107.4375 8.148438 L 107.4375 8.515625 L 108.203125 8.515625 Z M 107.40625 7.179688 C 107.40625 7.371094 107.40625 7.625 107.058594 7.816406 C 106.769531 7.988281 106.371094 8.003906 106.261719 8.003906 C 105.785156 8.003906 105.324219 7.765625 105.324219 7.351562 C 105.324219 6.636719 106.960938 6.574219 107.40625 6.542969 Z M 107.40625 7.179688 "/>
<path fill-rule="nonzero" fill="rgb(0%, 0%, 0%)" fill-opacity="1" d="M 110.328125 6.335938 C 110.328125 5.335938 111.058594 4.601562 112.0625 4.570312 L 112.0625 3.902344 C 111.15625 3.902344 110.597656 4.410156 110.28125 4.871094 L 110.28125 3.949219 L 109.5625 3.949219 L 109.5625 8.515625 L 110.328125 8.515625 Z M 110.328125 6.335938 "/>
<path fill-rule="nonzero" fill="rgb(0%, 0%, 0%)" fill-opacity="1" d="M 116.609375 1.472656 L 115.847656 1.46875 L 115.84375 4.460938 C 115.304688 4.015625 114.746094 3.902344 114.367188 3.902344 C 113.363281 3.902344 112.566406 4.953125 112.566406 6.257812 C 112.566406 7.59375 113.347656 8.628906 114.316406 8.628906 C 114.652344 8.628906 115.238281 8.53125 115.8125 7.992188 L 115.8125 8.515625 L 116.605469 8.515625 Z M 115.8125 7.101562 C 115.8125 7.246094 115.796875 7.4375 115.476562 7.722656 C 115.238281 7.929688 114.984375 8.007812 114.730469 8.007812 C 114.09375 8.007812 113.363281 7.53125 113.363281 6.273438 C 113.363281 4.9375 114.238281 4.523438 114.828125 4.523438 C 115.289062 4.523438 115.589844 4.746094 115.8125 5.082031 Z M 115.8125 7.101562 "/>
<path fill-rule="nonzero" fill="rgb(0%, 0%, 0%)" fill-opacity="1" d="M 128.058594 5.5 C 128.058594 4.816406 127.898438 3.910156 126.65625 3.90625 C 126.054688 3.90625 125.527344 4.195312 125.144531 4.734375 C 124.890625 3.972656 124.175781 3.90625 123.859375 3.90625 C 123.125 3.90625 122.648438 4.320312 122.378906 4.6875 L 122.378906 3.953125 L 121.648438 3.953125 L 121.644531 8.519531 L 122.425781 8.519531 L 122.425781 6.039062 C 122.425781 5.339844 122.710938 4.527344 123.460938 4.527344 C 124.398438 4.527344 124.445312 5.179688 124.445312 5.5625 L 124.445312 8.519531 L 125.242188 8.519531 L 125.242188 6.039062 C 125.242188 5.339844 125.511719 4.527344 126.277344 4.527344 C 127.214844 4.527344 127.261719 5.179688 127.261719 5.5625 L 127.261719 8.519531 L 128.054688 8.519531 Z M 128.058594 5.5 "/>
<path fill-rule="nonzero" fill="rgb(0%, 0%, 0%)" fill-opacity="1" d="M 132.933594 5.597656 C 132.933594 4.5625 132.1875 3.847656 131.246094 3.84375 C 130.59375 3.84375 130.132812 4.003906 129.65625 4.273438 L 129.71875 4.941406 C 130.246094 4.578125 130.753906 4.449219 131.246094 4.449219 C 131.726562 4.449219 132.136719 4.847656 132.136719 5.59375 L 132.136719 6.042969 C 130.609375 6.054688 129.320312 6.484375 129.320312 7.375 C 129.320312 7.804688 129.59375 8.632812 130.484375 8.632812 C 130.625 8.632812 131.582031 8.617188 132.167969 8.15625 L 132.167969 8.523438 L 132.933594 8.523438 Z M 132.136719 7.1875 C 132.136719 7.378906 132.136719 7.632812 131.789062 7.824219 C 131.5 7.996094 131.101562 8.011719 130.992188 8.011719 C 130.515625 8.011719 130.054688 7.773438 130.054688 7.359375 C 130.054688 6.644531 131.691406 6.582031 132.136719 6.550781 Z M 132.136719 7.1875 "/>
<path fill-rule="nonzero" fill="rgb(0%, 0%, 0%)" fill-opacity="1" d="M 135.375 8.0625 C 135.691406 8.347656 136.136719 8.636719 136.742188 8.636719 C 137.726562 8.636719 138.617188 7.632812 138.617188 6.265625 C 138.617188 5.042969 137.984375 3.910156 137.011719 3.910156 C 136.410156 3.910156 135.820312 4.117188 135.34375 4.515625 L 135.34375 4.023438 L 134.578125 4.023438 L 134.578125 10.496094 L 135.371094 10.496094 Z M 135.375 5.152344 C 135.613281 4.785156 136.011719 4.5625 136.457031 4.5625 C 137.21875 4.5625 137.824219 5.328125 137.824219 6.265625 C 137.824219 7.300781 137.105469 8.015625 136.34375 8.015625 C 135.945312 8.015625 135.675781 7.808594 135.46875 7.539062 C 135.375 7.394531 135.375 7.363281 135.375 7.1875 Z M 135.375 5.152344 "/>
<path fill-rule="nonzero" fill="rgb(0%, 0%, 0%)" fill-opacity="1" d="M 140.613281 8.0625 C 140.929688 8.351562 141.375 8.636719 141.980469 8.636719 C 142.964844 8.636719 143.859375 7.636719 143.859375 6.265625 C 143.859375 5.042969 143.222656 3.914062 142.253906 3.914062 C 141.648438 3.914062 141.058594 4.121094 140.582031 4.515625 L 140.582031 4.023438 L 139.820312 4.023438 L 139.816406 10.496094 L 140.613281 10.496094 Z M 140.613281 5.152344 C 140.851562 4.789062 141.25 4.566406 141.695312 4.566406 C 142.460938 4.566406 143.0625 5.328125 143.0625 6.265625 C 143.0625 7.300781 142.347656 8.015625 141.582031 8.015625 C 141.183594 8.015625 140.914062 7.808594 140.707031 7.539062 C 140.613281 7.394531 140.613281 7.363281 140.613281 7.1875 Z M 140.613281 5.152344 "/>
<path fill-rule="nonzero" fill="rgb(0%, 0%, 0%)" fill-opacity="1" d="M 145.886719 1.625 L 144.980469 1.625 L 144.980469 2.53125 L 145.886719 2.53125 Z M 145.824219 4.023438 L 145.058594 4.023438 L 145.058594 8.527344 L 145.820312 8.527344 Z M 145.824219 4.023438 "/>
<path fill-rule="nonzero" fill="rgb(0%, 0%, 0%)" fill-opacity="1" d="M 151.078125 5.507812 C 151.078125 4.839844 150.917969 3.914062 149.675781 3.914062 C 148.769531 3.914062 148.261719 4.597656 148.214844 4.679688 L 148.214844 3.960938 L 147.480469 3.960938 L 147.480469 8.527344 L 148.261719 8.527344 L 148.261719 6.046875 C 148.261719 5.378906 148.515625 4.535156 149.296875 4.535156 C 150.265625 4.535156 150.28125 5.25 150.28125 5.570312 L 150.28125 8.527344 L 151.074219 8.527344 Z M 151.078125 5.507812 "/>
<path fill-rule="nonzero" fill="rgb(0%, 0%, 0%)" fill-opacity="1" d="M 155.476562 4.570312 C 155.699219 4.570312 155.96875 4.523438 156.222656 4.523438 C 156.398438 4.523438 156.796875 4.554688 156.8125 4.554688 L 156.699219 3.917969 C 156 3.917969 155.410156 4.109375 155.109375 4.234375 C 154.886719 4.058594 154.550781 3.917969 154.140625 3.917969 C 153.265625 3.917969 152.53125 4.648438 152.53125 5.570312 C 152.53125 5.9375 152.660156 6.300781 152.867188 6.574219 C 152.5625 6.984375 152.5625 7.382812 152.5625 7.429688 C 152.5625 7.703125 152.660156 7.988281 152.832031 8.210938 C 152.308594 8.511719 152.179688 8.992188 152.179688 9.246094 C 152.179688 10.007812 153.183594 10.613281 154.421875 10.613281 C 155.664062 10.613281 156.664062 10.027344 156.667969 9.246094 C 156.667969 7.832031 154.980469 7.828125 154.582031 7.828125 L 153.691406 7.828125 C 153.566406 7.828125 153.105469 7.828125 153.105469 7.289062 C 153.105469 7.175781 153.136719 7.019531 153.214844 6.921875 C 153.421875 7.082031 153.757812 7.226562 154.136719 7.226562 C 155.042969 7.226562 155.761719 6.460938 155.761719 5.570312 C 155.761719 5.078125 155.539062 4.695312 155.425781 4.554688 Z M 154.136719 6.636719 C 153.757812 6.636719 153.230469 6.414062 153.230469 5.570312 C 153.230469 4.726562 153.757812 4.488281 154.136719 4.488281 C 154.566406 4.488281 155.046875 4.777344 155.046875 5.570312 C 155.042969 6.351562 154.566406 6.636719 154.136719 6.636719 Z M 154.597656 8.5625 C 154.820312 8.5625 155.964844 8.5625 155.964844 9.261719 C 155.964844 9.707031 155.265625 10.042969 154.4375 10.039062 C 153.613281 10.039062 152.894531 9.722656 152.894531 9.246094 C 152.894531 9.214844 152.898438 8.5625 153.675781 8.5625 Z M 154.597656 8.5625 "/>
<path fill-rule="nonzero" fill="rgb(0%, 0%, 0%)" fill-opacity="1" d="M 267.316406 1.46875 L 266.410156 1.46875 L 266.40625 8.511719 L 267.3125 8.515625 Z M 267.316406 1.46875 "/>
<path fill-rule="nonzero" fill="rgb(0%, 0%, 0%)" fill-opacity="1" d="M 272.695312 5.492188 C 272.695312 4.824219 272.535156 3.902344 271.292969 3.902344 C 270.386719 3.902344 269.878906 4.585938 269.832031 4.664062 L 269.832031 3.949219 L 269.097656 3.949219 L 269.097656 8.515625 L 269.878906 8.515625 L 269.878906 6.035156 C 269.878906 5.367188 270.132812 4.523438 270.914062 4.523438 C 271.882812 4.523438 271.898438 5.238281 271.898438 5.558594 L 271.898438 8.515625 L 272.691406 8.515625 Z M 272.695312 5.492188 "/>
<path fill-rule="nonzero" fill="rgb(0%, 0%, 0%)" fill-opacity="1" d="M 278.046875 4.015625 L 277.28125 4.015625 L 276.46875 6.113281 C 276.261719 6.6875 275.945312 7.5 275.863281 7.976562 L 275.847656 7.976562 C 275.800781 7.609375 275.53125 6.910156 275.4375 6.640625 L 274.449219 4.015625 L 273.65625 4.015625 L 275.402344 8.515625 L 276.292969 8.515625 Z M 278.046875 4.015625 "/>
<path fill-rule="nonzero" fill="rgb(0%, 0%, 0%)" fill-opacity="1" d="M 282.386719 6.292969 C 282.386719 5.957031 282.371094 5.195312 281.992188 4.574219 C 281.5625 3.953125 280.957031 3.84375 280.589844 3.839844 C 279.460938 3.839844 278.539062 4.921875 278.539062 6.226562 C 278.539062 7.5625 279.523438 8.628906 280.730469 8.628906 C 281.367188 8.628906 281.957031 8.390625 282.355469 8.105469 L 282.292969 7.4375 C 281.65625 7.976562 280.972656 8.007812 280.75 8.007812 C 279.9375 8.007812 279.285156 7.292969 279.253906 6.289062 Z M 279.300781 5.734375 C 279.460938 4.96875 280.003906 4.460938 280.589844 4.460938 C 281.117188 4.460938 281.671875 4.796875 281.816406 5.734375 Z M 279.300781 5.734375 "/>
<path fill-rule="nonzero" fill="rgb(0%, 0%, 0%)" fill-opacity="1" d="M 284.285156 6.339844 C 284.285156 5.339844 285.019531 4.605469 286.019531 4.574219 L 286.019531 3.90625 C 285.113281 3.90625 284.554688 4.414062 284.238281 4.875 L 284.238281 3.953125 L 283.523438 3.953125 L 283.519531 8.519531 L 284.285156 8.519531 Z M 284.285156 6.339844 "/>
<path fill-rule="nonzero" fill="rgb(0%, 0%, 0%)" fill-opacity="1" d="M 289.644531 4.164062 C 289.121094 3.925781 288.707031 3.84375 288.183594 3.84375 C 287.925781 3.84375 286.496094 3.84375 286.496094 5.164062 C 286.496094 5.671875 286.796875 5.992188 287.050781 6.183594 C 287.355469 6.40625 287.578125 6.453125 288.132812 6.5625 C 288.5 6.628906 289.085938 6.753906 289.085938 7.296875 C 289.085938 7.996094 288.292969 7.996094 288.132812 7.996094 C 287.320312 7.996094 286.75 7.613281 286.574219 7.503906 L 286.445312 8.1875 C 286.765625 8.34375 287.320312 8.632812 288.148438 8.632812 C 288.339844 8.632812 288.894531 8.632812 289.324219 8.3125 C 289.644531 8.058594 289.820312 7.664062 289.820312 7.21875 C 289.820312 6.660156 289.4375 6.324219 289.421875 6.292969 C 289.023438 5.929688 288.753906 5.863281 288.246094 5.785156 C 287.6875 5.671875 287.210938 5.5625 287.210938 5.070312 C 287.210938 4.449219 287.941406 4.449219 288.085938 4.449219 C 288.40625 4.449219 288.945312 4.480469 289.519531 4.832031 Z M 289.644531 4.164062 "/>
<path fill-rule="nonzero" fill="rgb(0%, 0%, 0%)" fill-opacity="1" d="M 294.246094 6.296875 C 294.246094 5.960938 294.230469 5.199219 293.851562 4.578125 C 293.421875 3.957031 292.816406 3.84375 292.449219 3.84375 C 291.320312 3.84375 290.398438 4.925781 290.398438 6.230469 C 290.398438 7.566406 291.382812 8.632812 292.59375 8.632812 C 293.226562 8.632812 293.816406 8.394531 294.214844 8.109375 L 294.152344 7.441406 C 293.515625 7.980469 292.832031 8.011719 292.609375 8.011719 C 291.796875 8.011719 291.144531 7.296875 291.113281 6.292969 Z M 291.160156 5.738281 C 291.320312 4.972656 291.863281 4.464844 292.449219 4.464844 C 292.976562 4.464844 293.53125 4.800781 293.675781 5.738281 Z M 291.160156 5.738281 "/>
<path fill-rule="nonzero" fill="rgb(0%, 0%, 0%)" fill-opacity="1" d="M 305.171875 5.503906 C 305.171875 4.820312 305.011719 3.914062 303.769531 3.914062 C 303.167969 3.914062 302.640625 4.199219 302.257812 4.738281 C 302.003906 3.976562 301.289062 3.910156 300.972656 3.910156 C 300.238281 3.910156 299.761719 4.324219 299.492188 4.691406 L 299.492188 3.960938 L 298.761719 3.957031 L 298.757812 8.523438 L 299.539062 8.523438 L 299.539062 6.042969 C 299.539062 5.34375 299.824219 4.53125 300.574219 4.53125 C 301.511719 4.53125 301.558594 5.183594 301.558594 5.566406 L 301.558594 8.523438 L 302.355469 8.523438 L 302.355469 6.042969 C 302.355469 5.34375 302.625 4.53125 303.390625 4.53125 C 304.328125 4.535156 304.375 5.183594 304.375 5.566406 L 304.375 8.527344 L 305.167969 8.527344 Z M 305.171875 5.503906 "/>
<path fill-rule="nonzero" fill="rgb(0%, 0%, 0%)" fill-opacity="1" d="M 310.046875 5.601562 C 310.046875 4.566406 309.300781 3.851562 308.359375 3.851562 C 307.707031 3.851562 307.246094 4.007812 306.769531 4.28125 L 306.832031 4.949219 C 307.359375 4.582031 307.867188 4.453125 308.359375 4.457031 C 308.839844 4.457031 309.25 4.851562 309.25 5.601562 L 309.25 6.046875 C 307.722656 6.0625 306.433594 6.492188 306.433594 7.382812 C 306.433594 7.8125 306.707031 8.636719 307.597656 8.636719 C 307.738281 8.636719 308.695312 8.621094 309.28125 8.160156 L 309.28125 8.527344 L 310.046875 8.527344 Z M 309.25 7.191406 C 309.25 7.382812 309.25 7.636719 308.902344 7.828125 C 308.613281 8.003906 308.214844 8.019531 308.105469 8.019531 C 307.628906 8.019531 307.167969 7.777344 307.167969 7.367188 C 307.167969 6.648438 308.804688 6.585938 309.25 6.554688 Z M 309.25 7.191406 "/>
<path fill-rule="nonzero" fill="rgb(0%, 0%, 0%)" fill-opacity="1" d="M 312.484375 8.066406 C 312.804688 8.355469 313.25 8.640625 313.855469 8.640625 C 314.839844 8.640625 315.730469 7.640625 315.730469 6.269531 C 315.730469 5.046875 315.097656 3.917969 314.125 3.917969 C 313.519531 3.914062 312.933594 4.121094 312.457031 4.519531 L 312.457031 4.027344 L 311.691406 4.027344 L 311.691406 10.5 L 312.484375 10.5 Z M 312.488281 5.15625 C 312.726562 4.789062 313.125 4.566406 313.570312 4.566406 C 314.332031 4.570312 314.9375 5.332031 314.9375 6.269531 C 314.9375 7.304688 314.21875 8.019531 313.457031 8.019531 C 313.058594 8.019531 312.789062 7.8125 312.582031 7.542969 C 312.488281 7.398438 312.488281 7.367188 312.488281 7.191406 Z M 312.488281 5.15625 "/>
<path fill-rule="nonzero" fill="rgb(0%, 0%, 0%)" fill-opacity="1" d="M 317.726562 8.070312 C 318.042969 8.355469 318.488281 8.640625 319.09375 8.640625 C 320.078125 8.640625 320.972656 7.640625 320.972656 6.273438 C 320.972656 5.046875 320.335938 3.917969 319.367188 3.917969 C 318.761719 3.917969 318.171875 4.125 317.695312 4.523438 L 317.695312 4.027344 L 316.933594 4.027344 L 316.929688 10.503906 L 317.726562 10.503906 Z M 317.726562 5.15625 C 317.964844 4.792969 318.363281 4.570312 318.808594 4.570312 C 319.570312 4.570312 320.175781 5.332031 320.175781 6.273438 C 320.175781 7.304688 319.460938 8.023438 318.695312 8.023438 C 318.296875 8.019531 318.027344 7.816406 317.820312 7.542969 C 317.726562 7.402344 317.726562 7.367188 317.726562 7.195312 Z M 317.726562 5.15625 "/>
<path fill-rule="nonzero" fill="rgb(0%, 0%, 0%)" fill-opacity="1" d="M 323 1.628906 L 322.09375 1.628906 L 322.09375 2.535156 L 323 2.535156 Z M 322.9375 4.03125 L 322.171875 4.03125 L 322.171875 8.53125 L 322.933594 8.53125 Z M 322.9375 4.03125 "/>
<path fill-rule="nonzero" fill="rgb(0%, 0%, 0%)" fill-opacity="1" d="M 328.191406 5.511719 C 328.191406 4.84375 328.03125 3.921875 326.789062 3.921875 C 325.882812 3.921875 325.375 4.605469 325.328125 4.683594 L 325.328125 3.96875 L 324.59375 3.96875 L 324.59375 8.53125 L 325.375 8.53125 L 325.375 6.050781 C 325.375 5.382812 325.628906 4.539062 326.410156 4.539062 C 327.378906 4.539062 327.394531 5.257812 327.394531 5.574219 L 327.394531 8.535156 L 328.1875 8.535156 Z M 328.191406 5.511719 "/>
<path fill-rule="nonzero" fill="rgb(0%, 0%, 0%)" fill-opacity="1" d="M 332.589844 4.574219 C 332.8125 4.574219 333.082031 4.527344 333.335938 4.527344 C 333.511719 4.527344 333.90625 4.558594 333.925781 4.558594 L 333.8125 3.921875 C 333.113281 3.921875 332.523438 4.113281 332.222656 4.238281 C 332 4.066406 331.664062 3.921875 331.253906 3.921875 C 330.378906 3.921875 329.644531 4.652344 329.644531 5.574219 C 329.644531 5.941406 329.773438 6.308594 329.980469 6.578125 C 329.675781 6.992188 329.675781 7.390625 329.675781 7.4375 C 329.675781 7.707031 329.769531 7.992188 329.945312 8.214844 C 329.421875 8.519531 329.292969 8.996094 329.292969 9.25 C 329.292969 10.011719 330.296875 10.617188 331.535156 10.617188 C 332.777344 10.617188 333.777344 10.03125 333.78125 9.25 C 333.78125 7.835938 332.09375 7.835938 331.695312 7.835938 L 330.804688 7.835938 C 330.679688 7.835938 330.214844 7.835938 330.21875 7.292969 C 330.21875 7.183594 330.25 7.023438 330.328125 6.925781 C 330.535156 7.085938 330.871094 7.230469 331.25 7.230469 C 332.15625 7.230469 332.875 6.46875 332.875 5.578125 C 332.875 5.082031 332.652344 4.703125 332.539062 4.558594 Z M 331.25 6.640625 C 330.871094 6.640625 330.34375 6.417969 330.34375 5.574219 C 330.34375 4.734375 330.871094 4.496094 331.25 4.496094 C 331.679688 4.496094 332.160156 4.78125 332.15625 5.578125 C 332.15625 6.355469 331.679688 6.640625 331.25 6.640625 Z M 331.710938 8.566406 C 331.933594 8.566406 333.078125 8.566406 333.078125 9.265625 C 333.078125 9.710938 332.378906 10.046875 331.550781 10.046875 C 330.726562 10.046875 330.007812 9.726562 330.007812 9.25 C 330.007812 9.21875 330.007812 8.566406 330.789062 8.566406 Z M 331.710938 8.566406 "/>
<path fill="none" stroke-width="0.850394" stroke-linecap="butt" stroke-linejoin="miter" stroke="rgb(0%, 0%, 0%)" stroke-opacity="1" stroke-miterlimit="4" d="M 347.566406 34.589844 L 253.027344 34.59375 C 249.582031 34.59375 249.859375 34.65625 249.867188 37.695312 L 249.90625 53.082031 C 249.859375 55.195312 250.203125 55.347656 252.046875 55.28125 "/>
<path fill="none" stroke-width="0.850394" stroke-linecap="butt" stroke-linejoin="miter" stroke="rgb(0%, 0%, 0%)" stroke-opacity="1" stroke-miterlimit="4" d="M 265.9375 34.578125 L 259.105469 34.582031 "/>
<path fill-rule="evenodd" fill="rgb(0%, 0%, 0%)" fill-opacity="1" d="M 259.988281 36.34375 L 255.140625 34.582031 L 259.988281 32.816406 C 259.105469 33.84375 259.105469 35.3125 259.988281 36.34375 Z M 259.988281 36.34375 "/>
<path fill="none" stroke-width="0.850394" stroke-linecap="butt" stroke-linejoin="miter" stroke="rgb(27.842712%, 40.391541%, 47.450256%)" stroke-opacity="1" stroke-miterlimit="4" d="M 298.8125 66.167969 L 298.933594 80.335938 "/>
<path fill-rule="evenodd" fill="rgb(0%, 0%, 0%)" fill-opacity="1" d="M 300.457031 79.558594 L 298.960938 83.78125 L 297.394531 79.585938 C 298.292969 80.34375 299.566406 80.332031 300.457031 79.558594 Z M 300.457031 79.558594 "/>
<path fill-rule="nonzero" fill="rgb(0%, 0%, 0%)" fill-opacity="1" d="M 56.332031 132.46875 L 55.425781 132.46875 L 55.421875 139.515625 L 56.328125 139.515625 Z M 56.332031 132.46875 "/>
<path fill-rule="nonzero" fill="rgb(0%, 0%, 0%)" fill-opacity="1" d="M 61.707031 136.496094 C 61.710938 135.828125 61.550781 134.90625 60.308594 134.90625 C 59.402344 134.902344 58.894531 135.585938 58.847656 135.667969 L 58.847656 134.953125 L 58.113281 134.953125 L 58.113281 139.515625 L 58.890625 139.515625 L 58.894531 137.035156 C 58.894531 136.367188 59.148438 135.523438 59.925781 135.523438 C 60.898438 135.523438 60.914062 136.242188 60.914062 136.558594 L 60.914062 139.515625 L 61.707031 139.519531 Z M 61.707031 136.496094 "/>
<path fill-rule="nonzero" fill="rgb(0%, 0%, 0%)" fill-opacity="1" d="M 64.148438 139.058594 C 64.464844 139.34375 64.910156 139.628906 65.515625 139.628906 C 66.503906 139.628906 67.394531 138.628906 67.394531 137.261719 C 67.394531 136.035156 66.757812 134.90625 65.789062 134.90625 C 65.183594 134.90625 64.59375 135.113281 64.117188 135.511719 L 64.117188 135.015625 L 63.355469 135.015625 L 63.351562 141.492188 L 64.148438 141.492188 Z M 64.148438 136.144531 C 64.386719 135.78125 64.785156 135.558594 65.230469 135.558594 C 65.996094 135.558594 66.597656 136.320312 66.597656 137.261719 C 66.597656 138.292969 65.882812 139.011719 65.117188 139.007812 C 64.722656 139.007812 64.449219 138.804688 64.242188 138.53125 C 64.148438 138.390625 64.148438 138.355469 64.148438 138.183594 Z M 64.148438 136.144531 "/>
<path fill-rule="nonzero" fill="rgb(0%, 0%, 0%)" fill-opacity="1" d="M 72.191406 135.019531 L 71.394531 135.019531 L 71.394531 137.960938 C 71.394531 138.726562 70.820312 139.074219 70.167969 139.074219 C 69.453125 139.074219 69.375 138.804688 69.375 138.375 L 69.375 135.019531 L 68.59375 135.019531 L 68.59375 138.40625 C 68.59375 139.136719 68.816406 139.632812 69.660156 139.632812 C 70.199219 139.632812 70.914062 139.472656 71.425781 139.027344 L 71.425781 139.519531 L 72.1875 139.519531 Z M 72.191406 135.019531 "/>
<path fill-rule="nonzero" fill="rgb(0%, 0%, 0%)" fill-opacity="1" d="M 74.789062 135.609375 L 76.222656 135.609375 L 76.222656 135.019531 L 74.789062 135.019531 L 74.789062 133.730469 L 74.089844 133.730469 L 74.089844 135.019531 L 73.199219 135.019531 L 73.199219 135.609375 L 74.058594 135.609375 L 74.058594 138.3125 C 74.058594 138.917969 74.199219 139.632812 74.898438 139.632812 C 75.601562 139.632812 76.125 139.378906 76.378906 139.253906 L 76.21875 138.648438 C 75.949219 138.871094 75.632812 138.980469 75.296875 138.980469 C 74.933594 138.980469 74.789062 138.679688 74.789062 138.136719 Z M 74.789062 135.609375 "/>
<path fill-rule="nonzero" fill="rgb(0%, 0%, 0%)" fill-opacity="1" d="M 164.101562 135.835938 C 164.101562 133.703125 162.636719 132.066406 160.953125 132.066406 C 159.21875 132.0625 157.785156 133.71875 157.785156 135.832031 C 157.785156 137.980469 159.28125 139.554688 160.933594 139.558594 C 162.636719 139.558594 164.097656 137.96875 164.101562 135.835938 Z M 160.949219 138.90625 C 159.757812 138.90625 158.691406 137.632812 158.691406 135.675781 C 158.691406 133.828125 159.804688 132.714844 160.9375 132.71875 C 162.113281 132.71875 163.195312 133.863281 163.195312 135.675781 C 163.191406 137.664062 162.109375 138.90625 160.949219 138.90625 Z M 160.949219 138.90625 "/>
<path fill-rule="nonzero" fill="rgb(0%, 0%, 0%)" fill-opacity="1" d="M 169.101562 134.835938 L 168.304688 134.835938 L 168.304688 137.777344 C 168.304688 138.542969 167.730469 138.890625 167.078125 138.890625 C 166.363281 138.890625 166.285156 138.621094 166.285156 138.191406 L 166.285156 134.835938 L 165.503906 134.835938 L 165.503906 138.222656 C 165.503906 138.953125 165.726562 139.445312 166.570312 139.449219 C 167.109375 139.449219 167.828125 139.289062 168.335938 138.84375 L 168.335938 139.335938 L 169.097656 139.335938 Z M 169.101562 134.835938 "/>
<path fill-rule="nonzero" fill="rgb(0%, 0%, 0%)" fill-opacity="1" d="M 171.699219 135.425781 L 173.132812 135.425781 L 173.132812 134.835938 L 171.699219 134.835938 L 171.699219 133.546875 L 171 133.546875 L 171 134.835938 L 170.109375 134.835938 L 170.109375 135.425781 L 170.96875 135.425781 L 170.96875 138.128906 C 170.96875 138.734375 171.109375 139.449219 171.808594 139.449219 C 172.511719 139.449219 173.035156 139.195312 173.289062 139.066406 L 173.132812 138.464844 C 172.859375 138.6875 172.542969 138.796875 172.207031 138.796875 C 171.84375 138.796875 171.699219 138.496094 171.699219 137.953125 Z M 171.699219 135.425781 "/>
<path fill-rule="nonzero" fill="rgb(0%, 0%, 0%)" fill-opacity="1" d="M 175.203125 138.878906 C 175.519531 139.164062 175.964844 139.449219 176.570312 139.449219 C 177.558594 139.449219 178.449219 138.449219 178.449219 137.082031 C 178.449219 135.855469 177.8125 134.726562 176.84375 134.726562 C 176.238281 134.726562 175.648438 134.933594 175.171875 135.332031 L 175.171875 134.835938 L 174.410156 134.835938 L 174.40625 141.3125 L 175.203125 141.3125 Z M 175.203125 135.964844 C 175.441406 135.601562 175.839844 135.378906 176.285156 135.378906 C 177.050781 135.378906 177.652344 136.140625 177.652344 137.082031 C 177.652344 138.113281 176.9375 138.832031 176.171875 138.832031 C 175.777344 138.828125 175.503906 138.625 175.296875 138.351562 C 175.203125 138.210938 175.203125 138.175781 175.203125 138.003906 Z M 175.203125 135.964844 "/>
<path fill-rule="nonzero" fill="rgb(0%, 0%, 0%)" fill-opacity="1" d="M 183.242188 134.839844 L 182.449219 134.839844 L 182.445312 137.78125 C 182.445312 138.546875 181.875 138.894531 181.222656 138.894531 C 180.507812 138.894531 180.425781 138.625 180.425781 138.195312 L 180.429688 134.839844 L 179.648438 134.839844 L 179.648438 138.226562 C 179.648438 138.957031 179.871094 139.453125 180.710938 139.453125 C 181.253906 139.453125 181.96875 139.292969 182.480469 138.847656 L 182.480469 139.339844 L 183.242188 139.339844 Z M 183.242188 134.839844 "/>
<path fill-rule="nonzero" fill="rgb(0%, 0%, 0%)" fill-opacity="1" d="M 185.84375 135.429688 L 187.273438 135.429688 L 187.273438 134.839844 L 185.84375 134.839844 L 185.84375 133.550781 L 185.144531 133.550781 L 185.144531 134.839844 L 184.253906 134.839844 L 184.253906 135.429688 L 185.113281 135.429688 L 185.109375 138.132812 C 185.109375 138.738281 185.253906 139.453125 185.953125 139.453125 C 186.652344 139.453125 187.179688 139.199219 187.433594 139.074219 L 187.273438 138.46875 C 187.003906 138.691406 186.683594 138.800781 186.351562 138.800781 C 185.984375 138.800781 185.84375 138.5 185.84375 137.957031 Z M 185.84375 135.429688 "/>
<path fill-rule="nonzero" fill="rgb(0%, 0%, 0%)" fill-opacity="1" d="M 234.03125 132.46875 L 233.125 132.46875 L 233.121094 139.515625 L 234.027344 139.515625 Z M 234.03125 132.46875 "/>
<path fill-rule="nonzero" fill="rgb(0%, 0%, 0%)" fill-opacity="1" d="M 239.40625 136.496094 C 239.410156 135.828125 239.25 134.90625 238.007812 134.90625 C 237.101562 134.902344 236.59375 135.585938 236.546875 135.667969 L 236.546875 134.953125 L 235.8125 134.953125 L 235.8125 139.515625 L 236.589844 139.515625 L 236.59375 137.035156 C 236.59375 136.367188 236.847656 135.523438 237.625 135.523438 C 238.597656 135.523438 238.613281 136.242188 238.613281 136.558594 L 238.613281 139.515625 L 239.40625 139.519531 Z M 239.40625 136.496094 "/>
<path fill-rule="nonzero" fill="rgb(0%, 0%, 0%)" fill-opacity="1" d="M 241.847656 139.058594 C 242.164062 139.34375 242.609375 139.628906 243.214844 139.628906 C 244.203125 139.628906 245.09375 138.628906 245.09375 137.261719 C 245.09375 136.035156 244.457031 134.90625 243.488281 134.90625 C 242.882812 134.90625 242.292969 135.113281 241.816406 135.511719 L 241.816406 135.015625 L 241.054688 135.015625 L 241.050781 141.492188 L 241.847656 141.492188 Z M 241.847656 136.144531 C 242.085938 135.78125 242.484375 135.558594 242.929688 135.558594 C 243.695312 135.558594 244.296875 136.320312 244.296875 137.261719 C 244.296875 138.292969 243.582031 139.011719 242.816406 139.007812 C 242.421875 139.007812 242.148438 138.804688 241.941406 138.53125 C 241.847656 138.390625 241.847656 138.355469 241.847656 138.183594 Z M 241.847656 136.144531 "/>
<path fill-rule="nonzero" fill="rgb(0%, 0%, 0%)" fill-opacity="1" d="M 249.890625 135.019531 L 249.09375 135.019531 L 249.09375 137.960938 C 249.09375 138.726562 248.519531 139.074219 247.867188 139.074219 C 247.152344 139.074219 247.074219 138.804688 247.074219 138.375 L 247.074219 135.019531 L 246.292969 135.019531 L 246.292969 138.40625 C 246.292969 139.136719 246.515625 139.632812 247.359375 139.632812 C 247.898438 139.632812 248.613281 139.472656 249.125 139.027344 L 249.125 139.519531 L 249.886719 139.519531 Z M 249.890625 135.019531 "/>
<path fill-rule="nonzero" fill="rgb(0%, 0%, 0%)" fill-opacity="1" d="M 252.488281 135.609375 L 253.921875 135.609375 L 253.921875 135.019531 L 252.488281 135.019531 L 252.488281 133.730469 L 251.789062 133.730469 L 251.789062 135.019531 L 250.898438 135.019531 L 250.898438 135.609375 L 251.757812 135.609375 L 251.757812 138.3125 C 251.757812 138.917969 251.898438 139.632812 252.597656 139.632812 C 253.300781 139.632812 253.824219 139.378906 254.078125 139.253906 L 253.917969 138.648438 C 253.648438 138.871094 253.332031 138.980469 252.996094 138.980469 C 252.632812 138.980469 252.488281 138.679688 252.488281 138.136719 Z M 252.488281 135.609375 "/>
<path fill-rule="nonzero" fill="rgb(0%, 0%, 0%)" fill-opacity="1" d="M 347.800781 135.835938 C 347.800781 133.703125 346.339844 132.066406 344.652344 132.066406 C 342.917969 132.0625 341.484375 133.71875 341.484375 135.832031 C 341.484375 137.980469 342.980469 139.554688 344.632812 139.558594 C 346.335938 139.558594 347.800781 137.96875 347.800781 135.835938 Z M 344.648438 138.90625 C 343.457031 138.90625 342.390625 137.632812 342.390625 135.675781 C 342.394531 133.828125 343.507812 132.714844 344.636719 132.71875 C 345.8125 132.71875 346.894531 133.863281 346.894531 135.675781 C 346.894531 137.664062 345.8125 138.90625 344.648438 138.90625 Z M 344.648438 138.90625 "/>
<path fill-rule="nonzero" fill="rgb(0%, 0%, 0%)" fill-opacity="1" d="M 352.800781 134.835938 L 352.003906 134.835938 L 352.003906 137.777344 C 352.003906 138.542969 351.429688 138.890625 350.777344 138.890625 C 350.0625 138.890625 349.984375 138.621094 349.984375 138.191406 L 349.984375 134.835938 L 349.207031 134.835938 L 349.203125 138.222656 C 349.203125 138.953125 349.425781 139.445312 350.269531 139.449219 C 350.8125 139.449219 351.527344 139.289062 352.035156 138.84375 L 352.035156 139.335938 L 352.800781 139.335938 Z M 352.800781 134.835938 "/>
<path fill-rule="nonzero" fill="rgb(0%, 0%, 0%)" fill-opacity="1" d="M 355.402344 135.425781 L 356.832031 135.425781 L 356.832031 134.835938 L 355.402344 134.835938 L 355.402344 133.546875 L 354.703125 133.546875 L 354.699219 134.835938 L 353.808594 134.835938 L 353.808594 135.425781 L 354.667969 135.425781 L 354.667969 138.128906 C 354.667969 138.734375 354.8125 139.449219 355.511719 139.449219 C 356.210938 139.449219 356.734375 139.195312 356.988281 139.066406 L 356.832031 138.464844 C 356.5625 138.6875 356.242188 138.796875 355.910156 138.796875 C 355.542969 138.796875 355.398438 138.496094 355.398438 137.953125 Z M 355.402344 135.425781 "/>
<path fill-rule="nonzero" fill="rgb(0%, 0%, 0%)" fill-opacity="1" d="M 358.902344 138.878906 C 359.222656 139.164062 359.667969 139.449219 360.269531 139.449219 C 361.257812 139.449219 362.148438 138.449219 362.148438 137.082031 C 362.148438 135.855469 361.511719 134.726562 360.542969 134.726562 C 359.9375 134.726562 359.351562 134.933594 358.871094 135.332031 L 358.871094 134.835938 L 358.109375 134.835938 L 358.105469 141.3125 L 358.902344 141.3125 Z M 358.902344 135.964844 C 359.144531 135.601562 359.539062 135.378906 359.984375 135.378906 C 360.75 135.378906 361.355469 136.140625 361.351562 137.082031 C 361.351562 138.113281 360.636719 138.832031 359.875 138.832031 C 359.476562 138.828125 359.207031 138.625 359 138.351562 C 358.902344 138.210938 358.902344 138.175781 358.902344 138.003906 Z M 358.902344 135.964844 "/>
<path fill-rule="nonzero" fill="rgb(0%, 0%, 0%)" fill-opacity="1" d="M 366.945312 134.839844 L 366.148438 134.839844 L 366.148438 137.78125 C 366.148438 138.546875 365.574219 138.894531 364.921875 138.894531 C 364.207031 138.894531 364.128906 138.625 364.128906 138.195312 L 364.128906 134.839844 L 363.347656 134.839844 L 363.347656 138.226562 C 363.347656 138.957031 363.570312 139.453125 364.414062 139.453125 C 364.953125 139.453125 365.667969 139.292969 366.179688 138.847656 L 366.179688 139.339844 L 366.941406 139.339844 Z M 366.945312 134.839844 "/>
<path fill-rule="nonzero" fill="rgb(0%, 0%, 0%)" fill-opacity="1" d="M 369.542969 135.429688 L 370.976562 135.429688 L 370.976562 134.839844 L 369.542969 134.839844 L 369.542969 133.550781 L 368.84375 133.550781 L 368.84375 134.839844 L 367.953125 134.839844 L 367.953125 135.429688 L 368.8125 135.429688 L 368.8125 138.132812 C 368.8125 138.738281 368.953125 139.453125 369.652344 139.453125 C 370.355469 139.453125 370.878906 139.199219 371.132812 139.074219 L 370.972656 138.46875 C 370.703125 138.691406 370.386719 138.800781 370.050781 138.800781 C 369.6875 138.800781 369.542969 138.5 369.542969 137.957031 Z M 369.542969 135.429688 "/>
<path fill-rule="nonzero" fill="rgb(0%, 0%, 0%)" fill-opacity="1" d="M 100.011719 99.773438 C 99.703125 99.773438 99.582031 99.773438 99.460938 99.679688 C 99.421875 99.640625 99.273438 99.519531 99.273438 99.292969 C 99.273438 99.222656 99.285156 99.210938 99.300781 99.15625 C 99.703125 99.386719 100.199219 99.386719 100.386719 99.386719 C 100.734375 99.386719 102.097656 99.386719 102.097656 97.980469 C 102.097656 97.484375 101.910156 97.175781 101.832031 97.082031 C 101.976562 97.082031 102.273438 97.082031 102.621094 97.175781 C 102.660156 97.203125 102.714844 97.214844 102.742188 97.214844 C 102.820312 97.214844 102.863281 97.164062 102.863281 97.109375 C 102.863281 97.070312 102.820312 96.867188 102.796875 96.773438 C 102.769531 96.574219 102.769531 96.558594 102.609375 96.558594 C 102.339844 96.558594 101.925781 96.652344 101.589844 96.855469 C 101.1875 96.585938 100.746094 96.558594 100.386719 96.558594 C 100.023438 96.558594 98.65625 96.558594 98.65625 97.964844 C 98.65625 98.3125 98.75 98.730469 99.085938 99.023438 C 98.84375 99.332031 98.84375 99.667969 98.84375 99.707031 C 98.84375 99.867188 98.898438 100.148438 99.085938 100.390625 C 98.953125 100.429688 98.511719 100.589844 98.511719 101.140625 C 98.511719 101.40625 98.644531 101.847656 99.179688 102.089844 C 99.660156 102.316406 100.238281 102.316406 100.640625 102.316406 C 101.136719 102.316406 102.769531 102.316406 102.769531 101.113281 C 102.769531 99.773438 101.5625 99.773438 100.410156 99.773438 Z M 100.386719 98.769531 C 99.78125 98.769531 99.753906 98.449219 99.753906 97.980469 C 99.753906 97.511719 99.78125 97.175781 100.386719 97.175781 C 100.972656 97.175781 101 97.496094 101 97.964844 C 101 98.433594 100.972656 98.769531 100.386719 98.769531 Z M 100.839844 100.710938 C 101.535156 100.710938 101.898438 100.832031 101.898438 101.140625 C 101.898438 101.703125 100.921875 101.703125 100.640625 101.703125 C 100.304688 101.703125 99.394531 101.703125 99.394531 101.113281 C 99.394531 100.710938 99.648438 100.710938 99.847656 100.710938 Z M 100.839844 100.710938 "/>
<path fill-rule="nonzero" fill="rgb(0%, 0%, 0%)" fill-opacity="1" d="M 104.921875 106.109375 L 106.863281 106.109375 L 106.863281 105.707031 L 105.324219 105.707031 L 105.324219 91.140625 L 106.863281 91.140625 L 106.863281 90.738281 L 104.921875 90.738281 Z M 104.921875 106.109375 "/>
<path fill-rule="nonzero" fill="rgb(0%, 0%, 0%)" fill-opacity="1" d="M 108 100.160156 L 107.410156 100.160156 L 107.410156 100.5625 C 107.652344 100.550781 108.160156 100.535156 108.484375 100.535156 C 108.816406 100.535156 109.328125 100.550781 109.554688 100.5625 L 109.554688 100.160156 L 108.964844 100.160156 L 108.964844 98.378906 C 108.964844 97.445312 109.703125 97.027344 110.25 97.027344 C 110.53125 97.027344 110.71875 97.203125 110.71875 97.859375 L 110.71875 100.160156 L 110.128906 100.160156 L 110.128906 100.5625 C 110.359375 100.550781 110.878906 100.535156 111.203125 100.535156 C 111.535156 100.535156 112.046875 100.550781 112.273438 100.5625 L 112.273438 100.160156 L 111.683594 100.160156 L 111.683594 97.953125 C 111.683594 97.054688 111.226562 96.71875 110.371094 96.71875 C 109.554688 96.71875 109.113281 97.214844 108.925781 97.550781 L 108.925781 94.632812 L 107.410156 94.699219 L 107.410156 95.101562 C 107.933594 95.101562 108 95.101562 108 95.433594 Z M 108 100.160156 "/>
<path fill-rule="nonzero" fill="rgb(0%, 0%, 0%)" fill-opacity="1" d="M 115.492188 100.757812 L 115.289062 100.757812 C 115.277344 100.894531 115.210938 101.242188 115.128906 101.292969 C 115.089844 101.335938 114.632812 101.335938 114.539062 101.335938 L 113.441406 101.335938 C 114.070312 100.785156 114.285156 100.613281 114.632812 100.332031 C 115.078125 99.984375 115.492188 99.609375 115.492188 99.046875 C 115.492188 98.320312 114.863281 97.878906 114.097656 97.878906 C 113.363281 97.878906 112.855469 98.402344 112.855469 98.953125 C 112.855469 99.246094 113.109375 99.285156 113.175781 99.285156 C 113.308594 99.285156 113.484375 99.179688 113.484375 98.964844 C 113.484375 98.859375 113.441406 98.644531 113.136719 98.644531 C 113.324219 98.226562 113.722656 98.09375 114.003906 98.09375 C 114.609375 98.09375 114.914062 98.5625 114.914062 99.046875 C 114.914062 99.566406 114.539062 99.96875 114.351562 100.183594 L 112.921875 101.617188 C 112.855469 101.667969 112.855469 101.683594 112.855469 101.84375 L 115.316406 101.84375 Z M 115.492188 100.757812 "/>
<path fill-rule="nonzero" fill="rgb(0%, 0%, 0%)" fill-opacity="1" d="M 118.050781 100.550781 C 118.050781 99.988281 117.835938 99.652344 117.5 99.652344 C 117.21875 99.652344 117.046875 99.867188 117.046875 100.109375 C 117.046875 100.335938 117.21875 100.5625 117.5 100.5625 C 117.59375 100.5625 117.714844 100.523438 117.796875 100.457031 C 117.824219 100.429688 117.835938 100.429688 117.835938 100.429688 C 117.847656 100.429688 117.847656 100.429688 117.847656 100.550781 C 117.847656 101.191406 117.554688 101.703125 117.273438 101.984375 C 117.179688 102.078125 117.179688 102.089844 117.179688 102.117188 C 117.179688 102.183594 117.21875 102.210938 117.261719 102.210938 C 117.355469 102.210938 118.050781 101.554688 118.050781 100.550781 Z M 118.050781 100.550781 "/>
<path fill-rule="nonzero" fill="rgb(0%, 0%, 0%)" fill-opacity="1" d="M 124.429688 94.886719 C 124.457031 94.777344 124.457031 94.765625 124.457031 94.75 C 124.457031 94.632812 124.335938 94.632812 124.253906 94.632812 C 124.082031 94.632812 124.082031 94.65625 124.027344 94.832031 L 123.613281 96.519531 C 123.574219 96.640625 123.574219 96.640625 123.558594 96.652344 C 123.546875 96.652344 123.53125 96.667969 123.398438 96.679688 C 121.632812 96.773438 120.585938 97.992188 120.585938 99.078125 C 120.585938 99.988281 121.324219 100.617188 122.566406 100.65625 L 122.207031 102.171875 C 122.207031 102.289062 122.328125 102.289062 122.40625 102.289062 C 122.542969 102.289062 122.582031 102.277344 122.621094 102.128906 L 122.917969 100.9375 C 122.96875 100.699219 122.984375 100.683594 122.996094 100.671875 C 123.011719 100.671875 123.023438 100.671875 123.15625 100.65625 C 124.898438 100.550781 125.96875 99.359375 125.96875 98.261719 C 125.96875 97.335938 125.234375 96.71875 123.988281 96.679688 Z M 122.648438 100.347656 C 121.914062 100.308594 121.457031 99.988281 121.457031 99.304688 C 121.457031 99.0625 121.550781 98.273438 122.007812 97.710938 C 122.300781 97.335938 122.796875 97.042969 123.492188 96.988281 Z M 123.90625 96.988281 C 124.644531 97.027344 125.097656 97.335938 125.097656 98.03125 C 125.097656 98.273438 125.003906 99.0625 124.550781 99.625 C 124.253906 100 123.761719 100.296875 123.0625 100.347656 Z M 123.90625 96.988281 "/>
<path fill-rule="nonzero" fill="rgb(0%, 0%, 0%)" fill-opacity="1" d="M 128.371094 102.707031 L 128.371094 102.359375 L 127.539062 102.359375 L 127.539062 94.496094 L 128.371094 94.496094 L 128.371094 94.148438 L 127.191406 94.148438 L 127.191406 102.707031 Z M 128.371094 102.707031 "/>
<path fill-rule="nonzero" fill="rgb(0%, 0%, 0%)" fill-opacity="1" d="M 129.535156 100.160156 L 128.945312 100.160156 L 128.945312 100.5625 C 129.1875 100.550781 129.695312 100.535156 130.019531 100.535156 C 130.351562 100.535156 130.863281 100.550781 131.089844 100.5625 L 131.089844 100.160156 L 130.5 100.160156 L 130.5 98.378906 C 130.5 97.445312 131.238281 97.027344 131.785156 97.027344 C 132.066406 97.027344 132.253906 97.203125 132.253906 97.859375 L 132.253906 100.160156 L 131.664062 100.160156 L 131.664062 100.5625 C 131.894531 100.550781 132.414062 100.535156 132.738281 100.535156 C 133.070312 100.535156 133.582031 100.550781 133.808594 100.5625 L 133.808594 100.160156 L 133.21875 100.160156 L 133.21875 97.953125 C 133.21875 97.054688 132.761719 96.71875 131.90625 96.71875 C 131.089844 96.71875 130.648438 97.214844 130.460938 97.550781 L 130.460938 94.632812 L 128.945312 94.699219 L 128.945312 95.101562 C 129.46875 95.101562 129.535156 95.101562 129.535156 95.433594 Z M 129.535156 100.160156 "/>
<path fill-rule="nonzero" fill="rgb(0%, 0%, 0%)" fill-opacity="1" d="M 136.007812 98.039062 C 136.007812 97.878906 136.007812 97.878906 135.835938 97.878906 C 135.445312 98.253906 134.910156 98.253906 134.667969 98.253906 L 134.667969 98.46875 C 134.804688 98.46875 135.207031 98.46875 135.527344 98.308594 L 135.527344 101.347656 C 135.527344 101.550781 135.527344 101.628906 134.9375 101.628906 L 134.710938 101.628906 L 134.710938 101.84375 C 134.816406 101.84375 135.554688 101.816406 135.769531 101.816406 C 135.957031 101.816406 136.707031 101.84375 136.839844 101.84375 L 136.839844 101.628906 L 136.613281 101.628906 C 136.007812 101.628906 136.007812 101.550781 136.007812 101.347656 Z M 136.007812 98.039062 "/>
<path fill-rule="nonzero" fill="rgb(0%, 0%, 0%)" fill-opacity="1" d="M 139.195312 94.148438 L 138.03125 94.148438 L 138.03125 94.496094 L 138.863281 94.496094 L 138.863281 102.359375 L 138.03125 102.359375 L 138.03125 102.707031 L 139.195312 102.707031 Z M 139.195312 94.148438 "/>
<path fill-rule="nonzero" fill="rgb(0%, 0%, 0%)" fill-opacity="1" d="M 141.902344 105.707031 L 140.363281 105.707031 L 140.363281 106.109375 L 142.304688 106.109375 L 142.304688 90.738281 L 140.363281 90.738281 L 140.363281 91.140625 L 141.902344 91.140625 Z M 141.902344 105.707031 "/>
<path fill-rule="nonzero" fill="rgb(0%, 0%, 0%)" fill-opacity="1" d="M 273.6875 99.773438 C 273.378906 99.773438 273.257812 99.773438 273.136719 99.679688 C 273.097656 99.640625 272.949219 99.519531 272.949219 99.292969 C 272.949219 99.222656 272.964844 99.210938 272.976562 99.15625 C 273.378906 99.386719 273.875 99.386719 274.0625 99.386719 C 274.410156 99.386719 275.777344 99.386719 275.777344 97.980469 C 275.777344 97.484375 275.589844 97.175781 275.507812 97.082031 C 275.65625 97.082031 275.949219 97.082031 276.296875 97.175781 C 276.339844 97.203125 276.390625 97.214844 276.417969 97.214844 C 276.5 97.214844 276.539062 97.164062 276.539062 97.109375 C 276.539062 97.070312 276.5 96.867188 276.472656 96.773438 C 276.445312 96.574219 276.445312 96.558594 276.285156 96.558594 C 276.015625 96.558594 275.601562 96.652344 275.265625 96.855469 C 274.863281 96.585938 274.421875 96.558594 274.0625 96.558594 C 273.699219 96.558594 272.335938 96.558594 272.335938 97.964844 C 272.335938 98.3125 272.429688 98.730469 272.761719 99.023438 C 272.523438 99.332031 272.523438 99.667969 272.523438 99.707031 C 272.523438 99.867188 272.574219 100.148438 272.761719 100.390625 C 272.628906 100.429688 272.1875 100.589844 272.1875 101.140625 C 272.1875 101.40625 272.320312 101.847656 272.855469 102.089844 C 273.339844 102.316406 273.914062 102.316406 274.316406 102.316406 C 274.8125 102.316406 276.445312 102.316406 276.445312 101.113281 C 276.445312 99.773438 275.238281 99.773438 274.089844 99.773438 Z M 274.0625 98.769531 C 273.460938 98.769531 273.433594 98.449219 273.433594 97.980469 C 273.433594 97.511719 273.460938 97.175781 274.0625 97.175781 C 274.652344 97.175781 274.679688 97.496094 274.679688 97.964844 C 274.679688 98.433594 274.652344 98.769531 274.0625 98.769531 Z M 274.515625 100.710938 C 275.214844 100.710938 275.574219 100.832031 275.574219 101.140625 C 275.574219 101.703125 274.597656 101.703125 274.316406 101.703125 C 273.980469 101.703125 273.070312 101.703125 273.070312 101.113281 C 273.070312 100.710938 273.324219 100.710938 273.527344 100.710938 Z M 274.515625 100.710938 "/>
<path fill-rule="nonzero" fill="rgb(0%, 0%, 0%)" fill-opacity="1" d="M 281.113281 96.113281 C 281.207031 96.113281 281.355469 96.113281 281.355469 95.980469 C 281.355469 95.816406 281.207031 95.816406 281.113281 95.816406 L 277.554688 95.816406 C 277.460938 95.816406 277.3125 95.816406 277.3125 95.964844 C 277.3125 96.113281 277.445312 96.113281 277.554688 96.113281 Z M 281.113281 96.113281 "/>
<path fill-rule="nonzero" fill="rgb(0%, 0%, 0%)" fill-opacity="1" d="M 284 93.664062 C 284 93.5 284 93.5 283.824219 93.5 C 283.4375 93.875 282.902344 93.875 282.660156 93.875 L 282.660156 94.089844 C 282.796875 94.089844 283.195312 94.089844 283.519531 93.929688 L 283.519531 96.96875 C 283.519531 97.171875 283.519531 97.25 282.929688 97.25 L 282.703125 97.25 L 282.703125 97.464844 C 282.808594 97.464844 283.546875 97.4375 283.757812 97.4375 C 283.945312 97.4375 284.695312 97.464844 284.832031 97.464844 L 284.832031 97.25 L 284.601562 97.25 C 284 97.25 284 97.171875 284 96.96875 Z M 284 93.664062 "/>
<path fill-rule="nonzero" fill="rgb(0%, 0%, 0%)" fill-opacity="1" d="M 287.765625 106.109375 L 289.707031 106.109375 L 289.707031 105.707031 L 288.164062 105.707031 L 288.164062 91.140625 L 289.707031 91.140625 L 289.707031 90.738281 L 287.765625 90.738281 Z M 287.765625 106.109375 "/>
<path fill-rule="nonzero" fill="rgb(0%, 0%, 0%)" fill-opacity="1" d="M 290.84375 100.160156 L 290.253906 100.160156 L 290.253906 100.5625 C 290.496094 100.550781 291.003906 100.535156 291.328125 100.535156 C 291.660156 100.535156 292.171875 100.550781 292.398438 100.5625 L 292.398438 100.160156 L 291.808594 100.160156 L 291.808594 98.378906 C 291.808594 97.445312 292.546875 97.027344 293.09375 97.027344 C 293.375 97.027344 293.5625 97.203125 293.5625 97.859375 L 293.5625 100.160156 L 292.972656 100.160156 L 292.972656 100.5625 C 293.203125 100.550781 293.722656 100.535156 294.046875 100.535156 C 294.378906 100.535156 294.890625 100.550781 295.117188 100.5625 L 295.117188 100.160156 L 294.527344 100.160156 L 294.527344 97.953125 C 294.527344 97.054688 294.070312 96.71875 293.214844 96.71875 C 292.398438 96.71875 291.957031 97.214844 291.769531 97.550781 L 291.769531 94.632812 L 290.253906 94.699219 L 290.253906 95.101562 C 290.777344 95.101562 290.84375 95.101562 290.84375 95.433594 Z M 290.84375 100.160156 "/>
<path fill-rule="nonzero" fill="rgb(0%, 0%, 0%)" fill-opacity="1" d="M 297.050781 94.640625 C 297.101562 94.546875 297.101562 94.492188 297.101562 94.453125 C 297.101562 94.265625 296.941406 94.132812 296.753906 94.132812 C 296.527344 94.132812 296.460938 94.320312 296.433594 94.414062 L 295.644531 96.996094 C 295.628906 97.011719 295.601562 97.078125 295.601562 97.089844 C 295.601562 97.15625 295.789062 97.222656 295.84375 97.222656 C 295.882812 97.222656 295.882812 97.210938 295.925781 97.117188 Z M 297.050781 94.640625 "/>
<path fill-rule="nonzero" fill="rgb(0%, 0%, 0%)" fill-opacity="1" d="M 298.335938 101.597656 L 298.132812 101.597656 C 298.121094 101.730469 298.054688 102.082031 297.972656 102.132812 C 297.933594 102.175781 297.476562 102.175781 297.382812 102.175781 L 296.285156 102.175781 C 296.914062 101.625 297.128906 101.449219 297.476562 101.167969 C 297.921875 100.820312 298.335938 100.445312 298.335938 99.882812 C 298.335938 99.160156 297.707031 98.71875 296.941406 98.71875 C 296.207031 98.71875 295.695312 99.242188 295.695312 99.789062 C 295.695312 100.085938 295.953125 100.125 296.019531 100.125 C 296.152344 100.125 296.328125 100.019531 296.328125 99.804688 C 296.328125 99.695312 296.285156 99.484375 295.976562 99.484375 C 296.164062 99.066406 296.566406 98.933594 296.847656 98.933594 C 297.453125 98.933594 297.757812 99.402344 297.757812 99.882812 C 297.757812 100.40625 297.382812 100.808594 297.195312 101.023438 L 295.765625 102.457031 C 295.695312 102.507812 295.695312 102.523438 295.695312 102.683594 L 298.160156 102.683594 Z M 298.335938 101.597656 "/>
<path fill-rule="nonzero" fill="rgb(0%, 0%, 0%)" fill-opacity="1" d="M 300.894531 100.550781 C 300.894531 99.988281 300.679688 99.652344 300.34375 99.652344 C 300.0625 99.652344 299.890625 99.867188 299.890625 100.109375 C 299.890625 100.335938 300.0625 100.5625 300.34375 100.5625 C 300.4375 100.5625 300.558594 100.523438 300.640625 100.457031 C 300.667969 100.429688 300.679688 100.429688 300.679688 100.429688 C 300.691406 100.429688 300.691406 100.429688 300.691406 100.550781 C 300.691406 101.191406 300.398438 101.703125 300.117188 101.984375 C 300.023438 102.078125 300.023438 102.089844 300.023438 102.117188 C 300.023438 102.183594 300.0625 102.210938 300.105469 102.210938 C 300.199219 102.210938 300.894531 101.554688 300.894531 100.550781 Z M 300.894531 100.550781 "/>
<path fill-rule="nonzero" fill="rgb(0%, 0%, 0%)" fill-opacity="1" d="M 307.273438 94.886719 C 307.300781 94.777344 307.300781 94.765625 307.300781 94.75 C 307.300781 94.632812 307.179688 94.632812 307.097656 94.632812 C 306.925781 94.632812 306.925781 94.65625 306.871094 94.832031 L 306.457031 96.519531 C 306.417969 96.640625 306.417969 96.640625 306.402344 96.652344 C 306.390625 96.652344 306.375 96.667969 306.242188 96.679688 C 304.472656 96.773438 303.429688 97.992188 303.429688 99.078125 C 303.429688 99.988281 304.167969 100.617188 305.410156 100.65625 L 305.050781 102.171875 C 305.050781 102.289062 305.171875 102.289062 305.25 102.289062 C 305.386719 102.289062 305.425781 102.277344 305.464844 102.128906 L 305.761719 100.9375 C 305.8125 100.699219 305.828125 100.683594 305.839844 100.671875 C 305.855469 100.671875 305.867188 100.671875 306 100.65625 C 307.742188 100.550781 308.8125 99.359375 308.8125 98.261719 C 308.8125 97.335938 308.078125 96.71875 306.832031 96.679688 Z M 305.492188 100.347656 C 304.753906 100.308594 304.300781 99.988281 304.300781 99.304688 C 304.300781 99.0625 304.394531 98.273438 304.847656 97.710938 C 305.144531 97.335938 305.640625 97.042969 306.335938 96.988281 Z M 306.75 96.988281 C 307.488281 97.027344 307.941406 97.335938 307.941406 98.03125 C 307.941406 98.273438 307.847656 99.0625 307.394531 99.625 C 307.097656 100 306.605469 100.296875 305.90625 100.347656 Z M 306.75 96.988281 "/>
<path fill-rule="nonzero" fill="rgb(0%, 0%, 0%)" fill-opacity="1" d="M 311.214844 102.707031 L 311.214844 102.359375 L 310.382812 102.359375 L 310.382812 94.496094 L 311.214844 94.496094 L 311.214844 94.148438 L 310.035156 94.148438 L 310.035156 102.707031 Z M 311.214844 102.707031 "/>
<path fill-rule="nonzero" fill="rgb(0%, 0%, 0%)" fill-opacity="1" d="M 312.378906 100.160156 L 311.789062 100.160156 L 311.789062 100.5625 C 312.03125 100.550781 312.539062 100.535156 312.863281 100.535156 C 313.195312 100.535156 313.707031 100.550781 313.933594 100.5625 L 313.933594 100.160156 L 313.34375 100.160156 L 313.34375 98.378906 C 313.34375 97.445312 314.082031 97.027344 314.628906 97.027344 C 314.910156 97.027344 315.097656 97.203125 315.097656 97.859375 L 315.097656 100.160156 L 314.507812 100.160156 L 314.507812 100.5625 C 314.738281 100.550781 315.257812 100.535156 315.582031 100.535156 C 315.914062 100.535156 316.425781 100.550781 316.652344 100.5625 L 316.652344 100.160156 L 316.0625 100.160156 L 316.0625 97.953125 C 316.0625 97.054688 315.605469 96.71875 314.75 96.71875 C 313.933594 96.71875 313.492188 97.214844 313.304688 97.550781 L 313.304688 94.632812 L 311.789062 94.699219 L 311.789062 95.101562 C 312.3125 95.101562 312.378906 95.101562 312.378906 95.433594 Z M 312.378906 100.160156 "/>
<path fill-rule="nonzero" fill="rgb(0%, 0%, 0%)" fill-opacity="1" d="M 318.851562 98.042969 C 318.851562 97.882812 318.851562 97.882812 318.679688 97.882812 C 318.289062 98.257812 317.753906 98.257812 317.511719 98.257812 L 317.511719 98.46875 C 317.648438 98.46875 318.050781 98.46875 318.371094 98.308594 L 318.371094 101.347656 C 318.371094 101.550781 318.371094 101.628906 317.78125 101.628906 L 317.554688 101.628906 L 317.554688 101.84375 C 317.660156 101.84375 318.398438 101.816406 318.613281 101.816406 C 318.800781 101.816406 319.546875 101.84375 319.683594 101.84375 L 319.683594 101.628906 L 319.457031 101.628906 C 318.851562 101.628906 318.851562 101.550781 318.851562 101.347656 Z M 318.851562 98.042969 "/>
<path fill-rule="nonzero" fill="rgb(0%, 0%, 0%)" fill-opacity="1" d="M 322.039062 94.148438 L 320.875 94.148438 L 320.875 94.496094 L 321.707031 94.496094 L 321.707031 102.359375 L 320.875 102.359375 L 320.875 102.707031 L 322.039062 102.707031 Z M 322.039062 94.148438 "/>
<path fill-rule="nonzero" fill="rgb(0%, 0%, 0%)" fill-opacity="1" d="M 324.746094 105.707031 L 323.207031 105.707031 L 323.207031 106.109375 L 325.148438 106.109375 L 325.148438 90.738281 L 323.207031 90.738281 L 323.207031 91.140625 L 324.746094 91.140625 Z M 324.746094 105.707031 "/>
<path fill="none" stroke-width="0.850394" stroke-linecap="butt" stroke-linejoin="miter" stroke="rgb(27.842712%, 40.391541%, 47.450256%)" stroke-opacity="1" stroke-miterlimit="4" d="M 251.292969 55.304688 L 277.273438 55.304688 "/>
<path fill-rule="evenodd" fill="rgb(0%, 0%, 0%)" fill-opacity="1" stroke-width="0.440659" stroke-linecap="butt" stroke-linejoin="miter" stroke="rgb(27.842712%, 40.391541%, 47.450256%)" stroke-opacity="1" stroke-miterlimit="4" d="M 276.39856 53.522161 L 281.24635 55.287421 L 276.398826 57.049505 C 277.277655 56.022095 277.277544 54.553345 276.39856 53.522161 Z M 276.39856 53.522161 " transform="matrix(1, 0.0000752801, -0.0000752801, 1, 0, 0)"/>
<path fill-rule="nonzero" fill="rgb(0%, 0%, 0%)" fill-opacity="1" d="M 47.945312 6.203125 C 47.945312 4.914062 47.015625 4.023438 45.847656 4.023438 C 45.035156 4.023438 44.460938 4.222656 43.867188 4.558594 L 43.949219 5.390625 C 44.601562 4.933594 45.234375 4.777344 45.847656 4.777344 C 46.441406 4.777344 46.957031 5.269531 46.957031 6.203125 L 46.957031 6.753906 C 45.054688 6.777344 43.453125 7.308594 43.453125 8.417969 C 43.453125 8.953125 43.789062 9.980469 44.898438 9.980469 C 45.074219 9.980469 46.261719 9.960938 46.996094 9.386719 L 46.996094 9.84375 L 47.945312 9.84375 Z M 46.957031 8.179688 C 46.957031 8.417969 46.957031 8.734375 46.519531 8.972656 C 46.164062 9.191406 45.667969 9.210938 45.53125 9.210938 C 44.9375 9.210938 44.363281 8.914062 44.363281 8.398438 C 44.363281 7.507812 46.402344 7.429688 46.957031 7.390625 Z M 46.957031 8.179688 "/>
<path fill-rule="nonzero" fill="rgb(0%, 0%, 0%)" fill-opacity="1" d="M 50.449219 13.011719 C 50.84375 12.613281 51.695312 11.84375 52.269531 10.296875 C 52.785156 8.953125 52.863281 7.605469 52.863281 6.675781 C 52.863281 2.597656 51.042969 0.9375 50.449219 0.363281 L 49.675781 0.363281 C 50.269531 0.976562 51.871094 2.597656 51.871094 6.675781 C 51.871094 7.390625 51.832031 8.875 51.320312 10.359375 C 50.804688 11.824219 50.089844 12.574219 49.675781 13.011719 Z M 50.449219 13.011719 "/>
<path fill-rule="nonzero" fill="rgb(0%, 0%, 0%)" fill-opacity="1" d="M 222.632812 1.074219 L 221.683594 1.074219 L 221.683594 9.84375 L 222.675781 9.84375 L 222.675781 9.269531 C 222.972656 9.546875 223.523438 9.980469 224.375 9.980469 C 225.621094 9.980469 226.710938 8.714844 226.710938 7.03125 C 226.710938 5.46875 225.859375 4.105469 224.671875 4.105469 C 224.179688 4.105469 223.386719 4.222656 222.632812 4.835938 Z M 222.675781 5.609375 C 222.871094 5.3125 223.328125 4.875 224.019531 4.875 C 224.773438 4.875 225.722656 5.410156 225.722656 7.03125 C 225.722656 8.675781 224.671875 9.210938 223.902344 9.210938 C 223.40625 9.210938 222.992188 8.992188 222.675781 8.398438 Z M 222.675781 5.609375 "/>
<path fill-rule="nonzero" fill="rgb(0%, 0%, 0%)" fill-opacity="1" d="M 228.660156 13.011719 C 229.054688 12.613281 229.90625 11.84375 230.480469 10.296875 C 230.996094 8.953125 231.074219 7.605469 231.074219 6.675781 C 231.074219 2.597656 229.253906 0.9375 228.660156 0.363281 L 227.890625 0.363281 C 228.484375 0.976562 230.085938 2.597656 230.085938 6.675781 C 230.085938 7.390625 230.046875 8.875 229.53125 10.359375 C 229.015625 11.824219 228.304688 12.574219 227.890625 13.011719 Z M 228.660156 13.011719 "/>
</svg>
