<?xml version="1.0" encoding="UTF-8"?>
<svg xmlns="http://www.w3.org/2000/svg" xmlns:xlink="http://www.w3.org/1999/xlink" width="409.590729pt" height="232.081497pt" viewBox="0 0 409.590729 232.081497">
<defs>
<clipPath id="clip-0">
<path clip-rule="nonzero" d="M 277 224 L 283 224 L 283 232.082031 L 277 232.082031 Z M 277 224 "/>
</clipPath>
<clipPath id="clip-1">
<path clip-rule="nonzero" d="M 191.285156 142.941406 L 312.316406 142.941406 L 312.316406 199 L 191.285156 199 Z M 191.285156 142.941406 "/>
</clipPath>
<clipPath id="clip-2">
<path clip-rule="nonzero" d="M 191.34375 12.816406 L 312.003906 12.816406 L 312.003906 133.761719 L 191.34375 133.761719 Z M 191.34375 12.816406 "/>
</clipPath>
<clipPath id="clip-3">
<path clip-rule="nonzero" d="M 111.996094 13.046875 L 180.710938 13.046875 L 180.710938 133.929688 L 111.996094 133.929688 Z M 111.996094 13.046875 "/>
</clipPath>
<clipPath id="clip-4">
<path clip-rule="nonzero" d="M 11 0.046875 L 69.710938 0.046875 L 69.710938 120.929688 L 11 120.929688 Z M 11 0.046875 "/>
</clipPath>
<clipPath id="clip-5">
<rect x="0" y="0" width="70" height="121"/>
</clipPath>
<g id="source-5" clip-path="url(#clip-5)">
<g clip-path="url(#clip-4)">
<path fill="none" stroke-width="2.404962" stroke-linecap="square" stroke-linejoin="round" stroke="rgb(81.959534%, 51.371765%, 38.430786%)" stroke-opacity="0.952941" stroke-miterlimit="4" d="M -133.929688 264.598351 L -132.769531 264.357343 L -131.796875 264.087643 L -130.972656 263.789252 L -130.261719 263.456431 L -129.636719 263.094918 L -129.074219 262.693238 L -128.554688 262.234175 L -128.078125 261.717729 L -127.636719 261.132423 L -127.214844 260.466781 L -126.816406 259.69785 L -126.441406 258.814153 L -126.085938 257.792737 L -125.738281 256.593434 L -125.402344 255.176076 L -125.074219 253.494757 L -124.761719 251.50357 L -124.449219 249.087749 L -124.148438 246.161221 L -123.84375 242.546097 L -123.542969 238.10466 L -123.230469 232.498349 L -122.902344 225.210719 L -122.5 214.709646 L -121.679688 192.875448 L -121.414062 187.7282 L -121.1875 184.623785 L -120.988281 182.764578 L -120.820312 181.748901 L -120.671875 181.232455 L -120.550781 181.031614 L -120.457031 180.985708 L -120.375 181.020138 L -120.269531 181.14638 L -120.128906 181.444771 L -119.9375 182.030077 L -119.671875 183.085923 L -119.246094 185.100063 L -117.691406 192.634439 L -117.035156 195.388819 L -116.386719 197.816117 L -115.734375 199.996667 L -115.058594 202.016546 L -114.359375 203.88149 L -113.648438 205.591501 L -112.910156 207.192485 L -112.140625 208.695917 L -111.328125 210.136228 L -110.492188 211.478988 L -109.609375 212.770104 L -108.679688 214.003836 L -107.703125 215.185924 L -106.679688 216.316368 L -105.609375 217.395166 L -104.488281 218.428059 L -103.292969 219.43226 L -102.046875 220.396293 L -100.71875 221.331634 L -99.304688 222.244023 L -97.839844 223.104766 L -96.285156 223.942557 L -94.609375 224.763133 L -92.839844 225.555017 L -90.976562 226.306733 L -88.984375 227.041234 L -86.902344 227.735567 L -84.691406 228.395471 L -82.351562 229.020945 L -79.890625 229.611989 L -77.316406 230.157126 L -74.636719 230.650619 L -71.820312 231.103944 L -68.929688 231.499887 L -65.941406 231.838446 L -62.878906 232.113884 L -59.8125 232.320462 L -56.734375 232.463919 L -53.632812 232.532779 L -50.554688 232.538517 L -47.476562 232.475396 L -44.21875 232.331939 L -36.464844 231.95895 L -35.269531 232.004856 L -34.332031 232.102407 L -33.550781 232.251603 L -32.882812 232.452443 L -32.277344 232.704928 L -31.734375 233.003319 L -31.226562 233.359093 L -30.742188 233.789465 L -30.277344 234.300173 L -29.828125 234.891217 L -29.386719 235.58555 L -28.9375 236.42334 L -28.484375 237.421803 L -28.003906 238.655536 L -27.492188 240.147492 L -26.917969 242.064081 L -26.210938 244.68648 L -24.054688 252.840592 L -23.441406 254.791611 L -22.882812 256.352426 L -22.34375 257.643542 L -21.820312 258.728079 L -21.300781 259.651944 L -20.773438 260.449566 L -20.230469 261.138161 L -19.683594 261.729205 L -19.109375 262.245651 L -18.496094 262.710453 L -17.835938 263.117872 L -17.109375 263.490861 L -16.3125 263.817943 L -15.417969 264.110596 L -14.390625 264.368819 L -13.195312 264.598351 L -13.066406 264.621304 " transform="matrix(0, -1, 0.680734, 0, -111, -13)"/>
</g>
</g>
</defs>
<path fill-rule="nonzero" fill="rgb(0%, 0%, 0%)" fill-opacity="1" d="M 231.914062 227.476562 C 231.914062 226.609375 231.460938 225.855469 230.660156 225.605469 L 230.660156 225.503906 C 231.34375 225.339844 231.628906 224.6875 231.628906 223.953125 C 231.578125 222.617188 230.660156 222.164062 229.472656 222.164062 L 227.117188 222.164062 L 227.117188 229.53125 L 229.574219 229.53125 C 230.960938 229.53125 231.914062 228.945312 231.914062 227.476562 Z M 230.894531 224.070312 C 230.875 224.886719 230.242188 225.253906 229.40625 225.253906 L 227.9375 225.253906 L 227.9375 222.898438 L 229.40625 222.898438 C 230.226562 222.914062 230.894531 223.167969 230.894531 224.070312 Z M 231.109375 227.359375 C 231.109375 228.410156 230.527344 228.796875 229.523438 228.796875 L 227.9375 228.796875 L 227.9375 225.972656 L 229.523438 225.972656 C 230.527344 225.972656 231.109375 226.308594 231.109375 227.359375 Z M 231.109375 227.359375 "/>
<path fill-rule="nonzero" fill="rgb(0%, 0%, 0%)" fill-opacity="1" d="M 236.773438 229.53125 L 236.773438 226.792969 C 236.773438 225.40625 236.1875 224.601562 234.753906 224.601562 C 234.234375 224.601562 233.601562 224.769531 233.132812 224.9375 L 233.132812 225.722656 C 233.617188 225.453125 234.019531 225.289062 234.6875 225.289062 C 235.453125 225.304688 236.039062 225.6875 236.039062 226.492188 L 234.9375 226.492188 C 233.800781 226.492188 232.796875 226.875 232.796875 228.128906 C 232.832031 229.097656 233.398438 229.664062 234.367188 229.664062 C 235.054688 229.664062 235.671875 229.378906 236.039062 228.894531 L 236.039062 229.53125 Z M 236.039062 227.292969 C 236.039062 228.226562 235.605469 228.980469 234.601562 228.980469 C 234.019531 228.980469 233.535156 228.710938 233.535156 228.078125 C 233.535156 227.140625 234.417969 227.140625 235.253906 227.140625 L 236.039062 227.140625 Z M 236.039062 227.292969 "/>
<path fill-rule="nonzero" fill="rgb(0%, 0%, 0%)" fill-opacity="1" d="M 241.707031 228.195312 C 241.707031 227.242188 241.058594 226.941406 240.1875 226.773438 L 239.855469 226.707031 C 239.386719 226.609375 238.703125 226.507812 238.703125 225.988281 C 238.734375 225.386719 239.4375 225.269531 239.972656 225.269531 C 240.824219 225.304688 240.757812 225.355469 241.476562 225.65625 L 241.476562 224.871094 C 241.023438 224.6875 240.457031 224.601562 239.871094 224.601562 C 238.917969 224.601562 237.984375 224.953125 237.984375 226.023438 C 238 226.890625 238.585938 227.226562 239.386719 227.375 L 239.6875 227.441406 C 240.273438 227.578125 240.941406 227.644531 240.941406 228.261719 C 240.90625 228.863281 240.222656 228.980469 239.6875 228.980469 C 238.800781 228.960938 238.667969 228.863281 237.898438 228.496094 L 237.898438 229.363281 C 238.351562 229.480469 239.136719 229.664062 239.671875 229.664062 C 240.605469 229.664062 241.707031 229.3125 241.707031 228.195312 Z M 241.707031 228.195312 "/>
<path fill-rule="nonzero" fill="rgb(0%, 0%, 0%)" fill-opacity="1" d="M 247.007812 227.125 L 247.007812 227.042969 C 247.007812 225.65625 246.4375 224.636719 244.851562 224.601562 C 243.433594 224.601562 242.628906 225.839844 242.628906 227.175781 C 242.628906 228.628906 243.515625 229.664062 244.984375 229.664062 C 245.652344 229.664062 246.253906 229.515625 246.839844 229.296875 L 246.839844 228.496094 C 246.070312 228.863281 245.953125 228.945312 245.050781 228.945312 C 244.050781 228.945312 243.449219 228.34375 243.449219 227.207031 L 243.449219 227.125 Z M 246.222656 226.472656 L 243.480469 226.472656 C 243.582031 225.839844 244.050781 225.289062 244.851562 225.289062 C 245.6875 225.289062 246.222656 225.804688 246.222656 226.472656 Z M 246.222656 226.472656 "/>
<path fill-rule="nonzero" fill="rgb(0%, 0%, 0%)" fill-opacity="1" d="M 251.089844 227.125 C 251.089844 228.546875 252.027344 229.53125 253.464844 229.53125 L 255.5 229.53125 L 255.5 222.164062 L 254.699219 222.164062 L 254.699219 224.71875 L 253.53125 224.71875 C 251.960938 224.71875 251.089844 225.6875 251.089844 227.125 Z M 251.859375 227.125 C 251.859375 226.191406 252.460938 225.421875 253.53125 225.421875 L 254.699219 225.421875 L 254.699219 228.828125 L 253.53125 228.828125 C 252.476562 228.828125 251.859375 228.160156 251.859375 227.125 Z M 251.859375 227.125 "/>
<path fill-rule="nonzero" fill="rgb(0%, 0%, 0%)" fill-opacity="1" d="M 261.097656 227.125 L 261.097656 227.042969 C 261.097656 225.65625 260.527344 224.636719 258.941406 224.601562 C 257.523438 224.601562 256.722656 225.839844 256.722656 227.175781 C 256.722656 228.628906 257.605469 229.664062 259.074219 229.664062 C 259.746094 229.664062 260.34375 229.515625 260.929688 229.296875 L 260.929688 228.496094 C 260.160156 228.863281 260.042969 228.945312 259.144531 228.945312 C 258.140625 228.945312 257.539062 228.34375 257.539062 227.207031 L 257.539062 227.125 Z M 260.3125 226.472656 L 257.574219 226.472656 C 257.671875 225.839844 258.140625 225.289062 258.941406 225.289062 C 259.777344 225.289062 260.3125 225.804688 260.3125 226.472656 Z M 260.3125 226.472656 "/>
<path fill-rule="nonzero" fill="rgb(0%, 0%, 0%)" fill-opacity="1" d="M 266.398438 229.53125 L 266.398438 226.625 C 266.398438 225.488281 265.914062 224.601562 264.675781 224.601562 C 264.058594 224.601562 263.421875 224.835938 263.039062 225.371094 L 263.039062 224.71875 L 262.253906 224.71875 L 262.253906 229.53125 L 263.039062 229.53125 L 263.039062 226.808594 C 263.074219 225.890625 263.640625 225.304688 264.492188 225.304688 C 265.328125 225.304688 265.628906 225.804688 265.628906 226.65625 L 265.628906 229.53125 Z M 266.398438 229.53125 "/>
<path fill-rule="nonzero" fill="rgb(0%, 0%, 0%)" fill-opacity="1" d="M 271.328125 228.195312 C 271.328125 227.242188 270.675781 226.941406 269.808594 226.773438 L 269.472656 226.707031 C 269.003906 226.609375 268.320312 226.507812 268.320312 225.988281 C 268.355469 225.386719 269.054688 225.269531 269.589844 225.269531 C 270.441406 225.304688 270.375 225.355469 271.09375 225.65625 L 271.09375 224.871094 C 270.640625 224.6875 270.074219 224.601562 269.488281 224.601562 C 268.539062 224.601562 267.601562 224.953125 267.601562 226.023438 C 267.617188 226.890625 268.203125 227.226562 269.003906 227.375 L 269.304688 227.441406 C 269.890625 227.578125 270.558594 227.644531 270.558594 228.261719 C 270.527344 228.863281 269.839844 228.980469 269.304688 228.980469 C 268.421875 228.960938 268.289062 228.863281 267.519531 228.496094 L 267.519531 229.363281 C 267.96875 229.480469 268.753906 229.664062 269.289062 229.664062 C 270.226562 229.664062 271.328125 229.3125 271.328125 228.195312 Z M 271.328125 228.195312 "/>
<path fill-rule="nonzero" fill="rgb(0%, 0%, 0%)" fill-opacity="1" d="M 273.300781 229.53125 L 273.300781 224.71875 L 272.5 224.71875 L 272.5 229.53125 Z M 272.902344 222.164062 C 272.648438 222.164062 272.433594 222.398438 272.433594 222.648438 C 272.433594 222.914062 272.648438 223.148438 272.902344 223.148438 C 273.167969 223.148438 273.367188 222.914062 273.367188 222.648438 C 273.367188 222.398438 273.167969 222.164062 272.902344 222.164062 Z M 272.902344 222.164062 "/>
<path fill-rule="nonzero" fill="rgb(0%, 0%, 0%)" fill-opacity="1" d="M 277.457031 229.53125 L 277.457031 228.847656 L 276.621094 228.847656 C 275.871094 228.847656 275.738281 228.660156 275.738281 227.960938 L 275.738281 225.355469 L 277.15625 225.355469 L 277.15625 224.71875 L 275.738281 224.71875 L 275.738281 223.351562 L 275.402344 223.351562 L 274.953125 224.71875 L 274.382812 224.71875 L 274.382812 225.355469 L 274.953125 225.355469 L 274.953125 227.960938 C 274.953125 229.164062 275.4375 229.53125 276.621094 229.53125 Z M 277.457031 229.53125 "/>
<g clip-path="url(#clip-0)">
<path fill-rule="nonzero" fill="rgb(0%, 0%, 0%)" fill-opacity="1" d="M 282.585938 224.71875 L 281.851562 224.71875 L 280.363281 228.246094 L 278.625 224.71875 L 277.875 224.71875 L 279.960938 229.03125 L 279.144531 230.96875 C 279.011719 231.300781 278.558594 231.550781 278.34375 231.550781 L 278.609375 232.101562 C 279.011719 232.070312 279.429688 231.785156 279.695312 231.367188 Z M 282.585938 224.71875 "/>
</g>
<path fill-rule="nonzero" fill="rgb(50.195312%, 50.195312%, 50.195312%)" fill-opacity="1" d="M 110.679688 140.054688 C 110.667969 138.890625 110.40625 137.207031 108.933594 137.207031 C 107.460938 137.207031 107.210938 138.914062 107.210938 140.054688 C 107.210938 141.207031 107.472656 142.878906 108.933594 142.878906 C 110.394531 142.878906 110.679688 141.207031 110.679688 140.054688 Z M 110.109375 140.054688 C 110.109375 140.808594 110.046875 142.359375 108.933594 142.359375 C 107.820312 142.359375 107.78125 140.785156 107.78125 140.054688 C 107.78125 139.3125 107.804688 137.714844 108.933594 137.714844 C 110.046875 137.714844 110.109375 139.324219 110.109375 140.054688 Z M 110.109375 140.054688 "/>
<path fill-rule="nonzero" fill="rgb(50.195312%, 50.195312%, 50.195312%)" fill-opacity="1" d="M 111.691406 141.960938 L 112.449219 141.960938 L 112.449219 142.765625 L 111.691406 142.765625 Z M 111.691406 141.960938 "/>
<path fill-rule="nonzero" fill="rgb(50.195312%, 50.195312%, 50.195312%)" fill-opacity="1" d="M 116.53125 141.03125 C 116.519531 139.917969 115.824219 139.1875 114.710938 139.1875 C 114.5625 139.199219 114.226562 139.238281 114.027344 139.3125 L 114.226562 137.875 L 116.160156 137.875 L 116.160156 137.304688 L 113.832031 137.304688 L 113.496094 140.003906 C 113.929688 139.792969 114.027344 139.746094 114.585938 139.746094 C 115.390625 139.746094 115.960938 140.191406 115.960938 141.03125 C 115.960938 141.898438 115.402344 142.320312 114.585938 142.320312 C 114.039062 142.320312 113.679688 142.210938 113.285156 141.960938 L 113.285156 142.644531 C 113.644531 142.78125 114.175781 142.878906 114.597656 142.878906 C 115.773438 142.878906 116.53125 142.234375 116.53125 141.03125 Z M 116.53125 141.03125 "/>
<path fill-rule="nonzero" fill="rgb(0%, 0%, 0%)" fill-opacity="1" d="M 250.398438 219.519531 C 250.964844 218.902344 251.28125 218.636719 251.667969 218.300781 C 251.667969 218.300781 252.320312 217.734375 252.703125 217.347656 C 253.722656 216.363281 253.957031 215.847656 253.957031 215.796875 C 253.957031 215.695312 253.855469 215.695312 253.839844 215.695312 C 253.753906 215.695312 253.738281 215.710938 253.671875 215.8125 C 253.355469 216.332031 253.136719 216.496094 252.886719 216.496094 C 252.621094 216.496094 252.503906 216.332031 252.335938 216.148438 C 252.136719 215.914062 251.953125 215.695312 251.601562 215.695312 C 250.796875 215.695312 250.3125 216.679688 250.3125 216.914062 C 250.3125 216.964844 250.347656 217.03125 250.429688 217.03125 C 250.53125 217.03125 250.546875 216.980469 250.582031 216.914062 C 250.78125 216.414062 251.398438 216.414062 251.484375 216.414062 C 251.699219 216.414062 251.902344 216.480469 252.152344 216.5625 C 252.585938 216.730469 252.703125 216.730469 252.96875 216.730469 C 252.585938 217.183594 251.699219 217.949219 251.5 218.117188 L 250.53125 219.019531 C 249.8125 219.738281 249.429688 220.339844 249.429688 220.421875 C 249.429688 220.523438 249.546875 220.523438 249.5625 220.523438 C 249.644531 220.523438 249.664062 220.507812 249.730469 220.390625 C 249.980469 220.003906 250.296875 219.722656 250.648438 219.722656 C 250.882812 219.722656 251 219.820312 251.265625 220.121094 C 251.433594 220.355469 251.632812 220.523438 251.933594 220.523438 C 253.003906 220.523438 253.621094 219.167969 253.621094 218.886719 C 253.621094 218.835938 253.570312 218.769531 253.488281 218.769531 C 253.386719 218.769531 253.371094 218.835938 253.335938 218.917969 C 253.085938 219.605469 252.402344 219.804688 252.050781 219.804688 C 251.851562 219.804688 251.652344 219.738281 251.433594 219.671875 C 251.066406 219.539062 250.898438 219.488281 250.683594 219.488281 C 250.664062 219.488281 250.5 219.488281 250.398438 219.519531 Z M 250.398438 219.519531 "/>
<path fill-rule="nonzero" fill="rgb(0%, 0%, 0%)" fill-opacity="1" d="M 232.125 5.03125 C 232.191406 4.761719 232.441406 3.777344 233.179688 3.777344 C 233.226562 3.777344 233.496094 3.777344 233.710938 3.910156 C 233.410156 3.976562 233.210938 4.226562 233.210938 4.496094 C 233.210938 4.660156 233.328125 4.863281 233.613281 4.863281 C 233.847656 4.863281 234.179688 4.679688 234.179688 4.246094 C 234.179688 3.691406 233.5625 3.542969 233.195312 3.542969 C 232.578125 3.542969 232.210938 4.109375 232.074219 4.34375 C 231.808594 3.644531 231.238281 3.542969 230.921875 3.542969 C 229.820312 3.542969 229.203125 4.914062 229.203125 5.179688 C 229.203125 5.296875 229.320312 5.296875 229.335938 5.296875 C 229.417969 5.296875 229.453125 5.261719 229.46875 5.179688 C 229.835938 4.042969 230.539062 3.777344 230.90625 3.777344 C 231.105469 3.777344 231.472656 3.878906 231.472656 4.496094 C 231.472656 4.828125 231.289062 5.53125 230.90625 7.035156 C 230.738281 7.683594 230.355469 8.136719 229.886719 8.136719 C 229.820312 8.136719 229.585938 8.136719 229.351562 8.003906 C 229.621094 7.9375 229.855469 7.71875 229.855469 7.417969 C 229.855469 7.132812 229.621094 7.050781 229.46875 7.050781 C 229.136719 7.050781 228.886719 7.316406 228.886719 7.667969 C 228.886719 8.152344 229.402344 8.371094 229.871094 8.371094 C 230.589844 8.371094 230.972656 7.617188 230.988281 7.570312 C 231.125 7.953125 231.507812 8.371094 232.140625 8.371094 C 233.246094 8.371094 233.847656 7 233.847656 6.734375 C 233.847656 6.617188 233.761719 6.617188 233.730469 6.617188 C 233.628906 6.617188 233.613281 6.667969 233.578125 6.734375 C 233.226562 7.886719 232.507812 8.136719 232.175781 8.136719 C 231.757812 8.136719 231.589844 7.800781 231.589844 7.433594 C 231.589844 7.199219 231.640625 6.96875 231.757812 6.5 Z M 232.125 5.03125 "/>
<path fill-rule="nonzero" fill="rgb(0%, 0%, 0%)" fill-opacity="1" d="M 244.929688 4.761719 C 245.097656 4.761719 245.296875 4.761719 245.296875 4.5625 C 245.296875 4.34375 245.097656 4.34375 244.945312 4.34375 L 238.566406 4.34375 C 238.414062 4.34375 238.214844 4.34375 238.214844 4.5625 C 238.214844 4.761719 238.414062 4.761719 238.566406 4.761719 Z M 244.945312 6.832031 C 245.097656 6.832031 245.296875 6.832031 245.296875 6.617188 C 245.296875 6.414062 245.097656 6.414062 244.929688 6.414062 L 238.566406 6.414062 C 238.414062 6.414062 238.214844 6.414062 238.214844 6.617188 C 238.214844 6.832031 238.414062 6.832031 238.566406 6.832031 Z M 244.945312 6.832031 "/>
<path fill-rule="nonzero" fill="rgb(0%, 0%, 0%)" fill-opacity="1" d="M 252.261719 1.554688 L 252.261719 0.886719 L 251.496094 0.886719 C 250.726562 0.886719 249.957031 1.40625 249.925781 2.808594 L 249.925781 3.441406 L 249.140625 3.441406 L 249.140625 4.09375 L 249.925781 4.09375 L 249.925781 8.253906 L 250.726562 8.253906 L 250.726562 4.09375 L 252.078125 4.09375 L 252.078125 3.441406 L 250.726562 3.441406 L 250.726562 2.707031 C 250.726562 1.773438 251.261719 1.554688 251.476562 1.554688 Z M 252.261719 1.554688 "/>
<path fill-rule="nonzero" fill="rgb(0%, 0%, 0%)" fill-opacity="1" d="M 254.996094 10.925781 L 254.996094 10.492188 L 253.960938 10.492188 L 253.960938 0.6875 L 254.996094 0.6875 L 254.996094 0.253906 L 253.527344 0.253906 L 253.527344 10.925781 Z M 254.996094 10.925781 "/>
<path fill-rule="nonzero" fill="rgb(0%, 0%, 0%)" fill-opacity="1" d="M 256.652344 7.367188 C 257.21875 6.75 257.539062 6.484375 257.921875 6.148438 C 257.921875 6.148438 258.574219 5.582031 258.957031 5.195312 C 259.976562 4.210938 260.210938 3.691406 260.210938 3.644531 C 260.210938 3.542969 260.109375 3.542969 260.09375 3.542969 C 260.011719 3.542969 259.992188 3.558594 259.925781 3.660156 C 259.609375 4.175781 259.390625 4.34375 259.140625 4.34375 C 258.875 4.34375 258.757812 4.175781 258.589844 3.992188 C 258.390625 3.761719 258.207031 3.542969 257.855469 3.542969 C 257.054688 3.542969 256.570312 4.527344 256.570312 4.761719 C 256.570312 4.8125 256.601562 4.878906 256.6875 4.878906 C 256.785156 4.878906 256.804688 4.828125 256.835938 4.761719 C 257.035156 4.261719 257.65625 4.261719 257.738281 4.261719 C 257.957031 4.261719 258.15625 4.328125 258.40625 4.410156 C 258.839844 4.578125 258.957031 4.578125 259.226562 4.578125 C 258.839844 5.03125 257.957031 5.796875 257.753906 5.964844 L 256.785156 6.867188 C 256.066406 7.585938 255.683594 8.1875 255.683594 8.269531 C 255.683594 8.371094 255.800781 8.371094 255.816406 8.371094 C 255.902344 8.371094 255.917969 8.355469 255.984375 8.238281 C 256.234375 7.851562 256.550781 7.570312 256.902344 7.570312 C 257.136719 7.570312 257.253906 7.667969 257.519531 7.96875 C 257.6875 8.203125 257.886719 8.371094 258.1875 8.371094 C 259.257812 8.371094 259.875 7.015625 259.875 6.734375 C 259.875 6.683594 259.828125 6.617188 259.742188 6.617188 C 259.640625 6.617188 259.625 6.683594 259.59375 6.765625 C 259.34375 7.453125 258.65625 7.652344 258.304688 7.652344 C 258.105469 7.652344 257.90625 7.585938 257.6875 7.519531 C 257.320312 7.386719 257.152344 7.335938 256.9375 7.335938 C 256.917969 7.335938 256.753906 7.335938 256.652344 7.367188 Z M 256.652344 7.367188 "/>
<path fill-rule="nonzero" fill="rgb(0%, 0%, 0%)" fill-opacity="1" d="M 262.828125 8.238281 C 262.828125 7.535156 262.558594 7.117188 262.140625 7.117188 C 261.789062 7.117188 261.574219 7.386719 261.574219 7.683594 C 261.574219 7.96875 261.789062 8.253906 262.140625 8.253906 C 262.257812 8.253906 262.410156 8.203125 262.507812 8.121094 C 262.542969 8.085938 262.558594 8.085938 262.558594 8.085938 C 262.574219 8.085938 262.574219 8.085938 262.574219 8.238281 C 262.574219 9.039062 262.207031 9.671875 261.859375 10.023438 C 261.742188 10.140625 261.742188 10.15625 261.742188 10.191406 C 261.742188 10.273438 261.789062 10.308594 261.839844 10.308594 C 261.957031 10.308594 262.828125 9.488281 262.828125 8.238281 Z M 262.828125 8.238281 "/>
<path fill-rule="nonzero" fill="rgb(0%, 0%, 0%)" fill-opacity="1" d="M 270.78125 1.171875 C 270.816406 1.039062 270.816406 1.019531 270.816406 1.003906 C 270.816406 0.855469 270.664062 0.855469 270.566406 0.855469 C 270.347656 0.855469 270.347656 0.886719 270.28125 1.105469 L 269.765625 3.207031 C 269.714844 3.359375 269.714844 3.359375 269.695312 3.375 C 269.679688 3.375 269.664062 3.390625 269.496094 3.410156 C 267.292969 3.527344 265.988281 5.046875 265.988281 6.398438 C 265.988281 7.535156 266.90625 8.320312 268.460938 8.371094 L 268.011719 10.257812 C 268.011719 10.40625 268.160156 10.40625 268.261719 10.40625 C 268.425781 10.40625 268.476562 10.390625 268.527344 10.207031 L 268.894531 8.722656 C 268.960938 8.421875 268.980469 8.402344 268.996094 8.386719 C 269.011719 8.386719 269.027344 8.386719 269.195312 8.371094 C 271.367188 8.238281 272.703125 6.75 272.703125 5.378906 C 272.703125 4.226562 271.785156 3.460938 270.230469 3.410156 Z M 268.5625 7.984375 C 267.640625 7.9375 267.074219 7.535156 267.074219 6.683594 C 267.074219 6.382812 267.191406 5.398438 267.757812 4.695312 C 268.125 4.226562 268.746094 3.859375 269.613281 3.792969 Z M 270.132812 3.792969 C 271.050781 3.84375 271.617188 4.226562 271.617188 5.097656 C 271.617188 5.398438 271.5 6.382812 270.933594 7.085938 C 270.566406 7.550781 269.949219 7.917969 269.078125 7.984375 Z M 270.132812 3.792969 "/>
<path fill-rule="nonzero" fill="rgb(0%, 0%, 0%)" fill-opacity="1" d="M 274.664062 0.253906 L 273.210938 0.253906 L 273.210938 0.6875 L 274.246094 0.6875 L 274.246094 10.492188 L 273.210938 10.492188 L 273.210938 10.925781 L 274.664062 10.925781 Z M 274.664062 0.253906 "/>
<path fill-rule="nonzero" fill="rgb(0%, 0%, 0%)" fill-opacity="1" d="M 102.984375 72.886719 C 102.714844 72.820312 101.730469 72.570312 101.730469 71.835938 C 101.730469 71.785156 101.730469 71.515625 101.863281 71.300781 C 101.929688 71.601562 102.179688 71.800781 102.449219 71.800781 C 102.617188 71.800781 102.816406 71.683594 102.816406 71.398438 C 102.816406 71.164062 102.632812 70.832031 102.199219 70.832031 C 101.648438 70.832031 101.496094 71.449219 101.496094 71.816406 C 101.496094 72.433594 102.0625 72.804688 102.296875 72.9375 C 101.597656 73.203125 101.496094 73.773438 101.496094 74.089844 C 101.496094 75.191406 102.867188 75.808594 103.132812 75.808594 C 103.25 75.808594 103.25 75.691406 103.25 75.675781 C 103.25 75.59375 103.214844 75.558594 103.132812 75.542969 C 101.996094 75.175781 101.730469 74.472656 101.730469 74.105469 C 101.730469 73.90625 101.832031 73.539062 102.449219 73.539062 C 102.78125 73.539062 103.484375 73.722656 104.988281 74.105469 C 105.640625 74.273438 106.089844 74.65625 106.089844 75.125 C 106.089844 75.191406 106.089844 75.425781 105.957031 75.660156 C 105.890625 75.390625 105.671875 75.15625 105.371094 75.15625 C 105.085938 75.15625 105.003906 75.390625 105.003906 75.542969 C 105.003906 75.875 105.269531 76.128906 105.621094 76.128906 C 106.105469 76.128906 106.324219 75.609375 106.324219 75.140625 C 106.324219 74.421875 105.570312 74.039062 105.523438 74.023438 C 105.90625 73.890625 106.324219 73.503906 106.324219 72.871094 C 106.324219 71.765625 104.953125 71.164062 104.6875 71.164062 C 104.570312 71.164062 104.570312 71.25 104.570312 71.28125 C 104.570312 71.382812 104.621094 71.398438 104.6875 71.433594 C 105.839844 71.785156 106.089844 72.503906 106.089844 72.835938 C 106.089844 73.253906 105.753906 73.421875 105.386719 73.421875 C 105.15625 73.421875 104.921875 73.371094 104.453125 73.253906 Z M 102.984375 72.886719 "/>
<path fill-rule="nonzero" fill="rgb(50.195312%, 50.195312%, 50.195312%)" fill-opacity="1" d="M 184.769531 219.121094 L 186.5625 219.121094 L 186.5625 219.640625 L 184.769531 219.640625 Z M 184.769531 219.121094 "/>
<path fill-rule="nonzero" fill="rgb(50.195312%, 50.195312%, 50.195312%)" fill-opacity="1" d="M 190.65625 219.578125 C 190.65625 218.96875 190.285156 218.414062 189.589844 218.214844 C 190.1875 217.992188 190.53125 217.558594 190.53125 216.988281 C 190.53125 216.035156 189.738281 215.601562 188.871094 215.601562 C 188.4375 215.601562 187.90625 215.699219 187.523438 215.824219 L 187.523438 216.429688 C 187.945312 216.28125 188.304688 216.160156 188.8125 216.160156 C 189.453125 216.160156 189.976562 216.394531 189.976562 217.089844 C 189.960938 217.71875 189.453125 217.980469 188.835938 217.980469 L 188.253906 217.980469 L 188.253906 218.511719 L 188.8125 218.511719 C 189.527344 218.511719 190.097656 218.820312 190.097656 219.578125 C 190.097656 220.46875 189.480469 220.71875 188.675781 220.71875 C 188.105469 220.71875 187.757812 220.617188 187.363281 220.34375 L 187.363281 221.015625 C 187.757812 221.152344 188.214844 221.273438 188.6875 221.273438 C 189.789062 221.273438 190.65625 220.777344 190.65625 219.578125 Z M 190.65625 219.578125 "/>
<path fill-rule="nonzero" fill="rgb(50.195312%, 50.195312%, 50.195312%)" fill-opacity="1" d="M 191.632812 220.359375 L 192.386719 220.359375 L 192.386719 221.164062 L 191.632812 221.164062 Z M 191.632812 220.359375 "/>
<path fill-rule="nonzero" fill="rgb(50.195312%, 50.195312%, 50.195312%)" fill-opacity="1" d="M 196.863281 218.449219 C 196.851562 217.285156 196.59375 215.601562 195.117188 215.601562 C 193.644531 215.601562 193.398438 217.3125 193.398438 218.449219 C 193.398438 219.601562 193.65625 221.273438 195.117188 221.273438 C 196.582031 221.273438 196.863281 219.601562 196.863281 218.449219 Z M 196.296875 218.449219 C 196.296875 219.207031 196.234375 220.753906 195.117188 220.753906 C 194.003906 220.753906 193.96875 219.179688 193.96875 218.449219 C 193.96875 217.707031 193.992188 216.109375 195.117188 216.109375 C 196.234375 216.109375 196.296875 217.71875 196.296875 218.449219 Z M 196.296875 218.449219 "/>
<path fill-rule="nonzero" fill="rgb(50.195312%, 50.195312%, 50.195312%)" fill-opacity="1" d="M 96.289062 134.28125 L 98.085938 134.28125 L 98.085938 134.804688 L 96.289062 134.804688 Z M 96.289062 134.28125 "/>
<path fill-rule="nonzero" fill="rgb(50.195312%, 50.195312%, 50.195312%)" fill-opacity="1" d="M 102.179688 134.742188 C 102.179688 134.132812 101.808594 133.578125 101.113281 133.378906 C 101.707031 133.15625 102.054688 132.722656 102.054688 132.152344 C 102.054688 131.199219 101.261719 130.765625 100.394531 130.765625 C 99.960938 130.765625 99.429688 130.863281 99.042969 130.988281 L 99.042969 131.59375 C 99.464844 131.445312 99.824219 131.320312 100.332031 131.320312 C 100.976562 131.320312 101.496094 131.558594 101.496094 132.25 C 101.484375 132.882812 100.976562 133.144531 100.359375 133.144531 L 99.777344 133.144531 L 99.777344 133.675781 L 100.332031 133.675781 C 101.050781 133.675781 101.621094 133.984375 101.621094 134.742188 C 101.621094 135.632812 101 135.878906 100.195312 135.878906 C 99.625 135.878906 99.28125 135.78125 98.882812 135.507812 L 98.882812 136.175781 C 99.28125 136.3125 99.738281 136.4375 100.210938 136.4375 C 101.3125 136.4375 102.179688 135.941406 102.179688 134.742188 Z M 102.179688 134.742188 "/>
<path fill-rule="nonzero" fill="rgb(50.195312%, 50.195312%, 50.195312%)" fill-opacity="1" d="M 103.152344 135.519531 L 103.910156 135.519531 L 103.910156 136.328125 L 103.152344 136.328125 Z M 103.152344 135.519531 "/>
<path fill-rule="nonzero" fill="rgb(50.195312%, 50.195312%, 50.195312%)" fill-opacity="1" d="M 108.386719 133.613281 C 108.375 132.449219 108.113281 130.765625 106.640625 130.765625 C 105.167969 130.765625 104.917969 132.472656 104.917969 133.613281 C 104.917969 134.765625 105.179688 136.4375 106.640625 136.4375 C 108.101562 136.4375 108.386719 134.765625 108.386719 133.613281 Z M 107.816406 133.613281 C 107.816406 134.371094 107.753906 135.917969 106.640625 135.917969 C 105.527344 135.917969 105.488281 134.34375 105.488281 133.613281 C 105.488281 132.871094 105.515625 131.273438 106.640625 131.273438 C 107.753906 131.273438 107.816406 132.882812 107.816406 133.613281 Z M 107.816406 133.613281 "/>
<path fill-rule="nonzero" fill="rgb(0%, 0%, 0%)" fill-opacity="1" d="M 96.34375 97.609375 L 88.976562 97.609375 L 88.976562 98.410156 L 93.335938 100.683594 L 88.976562 102.988281 L 88.976562 103.789062 L 96.34375 103.789062 L 96.34375 102.988281 L 90.445312 102.988281 L 94.90625 100.683594 L 90.445312 98.410156 L 96.34375 98.410156 Z M 96.34375 97.609375 "/>
<path fill-rule="nonzero" fill="rgb(0%, 0%, 0%)" fill-opacity="1" d="M 93.9375 91.867188 C 92.71875 91.867188 91.414062 92.519531 91.414062 94.121094 C 91.414062 95.574219 92.535156 96.394531 93.9375 96.394531 C 95.257812 96.394531 96.441406 95.542969 96.476562 94.121094 C 96.441406 92.6875 95.289062 91.867188 93.9375 91.867188 Z M 93.9375 92.652344 C 94.890625 92.652344 95.742188 93.238281 95.742188 94.121094 C 95.722656 95.324219 94.65625 95.59375 93.921875 95.59375 C 92.953125 95.59375 92.148438 95.125 92.132812 94.121094 C 92.148438 93.1875 93.019531 92.652344 93.9375 92.652344 Z M 93.9375 92.652344 "/>
<path fill-rule="nonzero" fill="rgb(0%, 0%, 0%)" fill-opacity="1" d="M 93.9375 90.882812 C 95.355469 90.882812 96.34375 89.949219 96.34375 88.511719 L 96.34375 86.472656 L 88.976562 86.472656 L 88.976562 87.273438 L 91.53125 87.273438 L 91.53125 88.445312 C 91.53125 90.015625 92.5 90.882812 93.9375 90.882812 Z M 93.9375 90.113281 C 93 90.113281 92.234375 89.511719 92.234375 88.445312 L 92.234375 87.273438 L 95.640625 87.273438 L 95.640625 88.445312 C 95.640625 89.496094 94.972656 90.113281 93.9375 90.113281 Z M 93.9375 90.113281 "/>
<path fill-rule="nonzero" fill="rgb(0%, 0%, 0%)" fill-opacity="1" d="M 93.9375 80.878906 L 93.851562 80.878906 C 92.46875 80.878906 91.449219 81.445312 91.414062 83.03125 C 91.414062 84.453125 92.652344 85.253906 93.988281 85.253906 C 95.441406 85.253906 96.476562 84.367188 96.476562 82.898438 C 96.476562 82.230469 96.324219 81.628906 96.109375 81.042969 L 95.304688 81.042969 C 95.675781 81.8125 95.757812 81.929688 95.757812 82.832031 C 95.757812 83.832031 95.15625 84.433594 94.019531 84.433594 L 93.9375 84.433594 Z M 93.285156 81.664062 L 93.285156 84.402344 C 92.652344 84.300781 92.097656 83.832031 92.097656 83.03125 C 92.097656 82.195312 92.617188 81.664062 93.285156 81.664062 Z M 93.285156 81.664062 "/>
<path fill-rule="nonzero" fill="rgb(0%, 0%, 0%)" fill-opacity="1" d="M 88.976562 79.050781 L 96.34375 79.050781 L 96.34375 79.835938 L 88.976562 79.835938 Z M 88.976562 79.050781 "/>
<path fill-rule="nonzero" fill="rgb(0%, 0%, 0%)" fill-opacity="1" d="M 93.9375 74.664062 C 95.355469 74.664062 96.34375 73.726562 96.34375 72.289062 L 96.34375 70.253906 L 88.976562 70.253906 L 88.976562 71.054688 L 91.53125 71.054688 L 91.53125 72.222656 C 91.53125 73.792969 92.5 74.664062 93.9375 74.664062 Z M 93.9375 73.894531 C 93 73.894531 92.234375 73.292969 92.234375 72.222656 L 92.234375 71.054688 L 95.640625 71.054688 L 95.640625 72.222656 C 95.640625 73.277344 94.972656 73.894531 93.9375 73.894531 Z M 93.9375 73.894531 "/>
<path fill-rule="nonzero" fill="rgb(0%, 0%, 0%)" fill-opacity="1" d="M 93.9375 64.65625 L 93.851562 64.65625 C 92.46875 64.65625 91.449219 65.222656 91.414062 66.8125 C 91.414062 68.230469 92.652344 69.03125 93.988281 69.03125 C 95.441406 69.03125 96.476562 68.148438 96.476562 66.675781 C 96.476562 66.007812 96.324219 65.410156 96.109375 64.824219 L 95.304688 64.824219 C 95.675781 65.59375 95.757812 65.707031 95.757812 66.609375 C 95.757812 67.613281 95.15625 68.214844 94.019531 68.214844 L 93.9375 68.214844 Z M 93.285156 65.441406 L 93.285156 68.179688 C 92.652344 68.082031 92.097656 67.613281 92.097656 66.8125 C 92.097656 65.976562 92.617188 65.441406 93.285156 65.441406 Z M 93.285156 65.441406 "/>
<path fill-rule="nonzero" fill="rgb(0%, 0%, 0%)" fill-opacity="1" d="M 96.34375 59.355469 L 93.4375 59.355469 C 92.300781 59.355469 91.414062 59.839844 91.414062 61.078125 C 91.414062 61.695312 91.648438 62.332031 92.183594 62.714844 L 91.53125 62.714844 L 91.53125 63.5 L 96.34375 63.5 L 96.34375 62.714844 L 93.621094 62.714844 C 92.699219 62.679688 92.117188 62.113281 92.117188 61.261719 C 92.117188 60.425781 92.617188 60.125 93.46875 60.125 L 96.34375 60.125 Z M 96.34375 59.355469 "/>
<path fill-rule="nonzero" fill="rgb(0%, 0%, 0%)" fill-opacity="1" d="M 95.007812 54.425781 C 94.054688 54.425781 93.753906 55.078125 93.585938 55.945312 L 93.519531 56.28125 C 93.417969 56.75 93.320312 57.433594 92.800781 57.433594 C 92.199219 57.398438 92.082031 56.699219 92.082031 56.164062 C 92.117188 55.3125 92.167969 55.378906 92.46875 54.660156 L 91.683594 54.660156 C 91.5 55.109375 91.414062 55.679688 91.414062 56.265625 C 91.414062 57.214844 91.765625 58.152344 92.835938 58.152344 C 93.703125 58.132812 94.039062 57.550781 94.1875 56.75 L 94.253906 56.449219 C 94.386719 55.863281 94.453125 55.195312 95.074219 55.195312 C 95.675781 55.226562 95.792969 55.914062 95.792969 56.449219 C 95.773438 57.332031 95.675781 57.464844 95.304688 58.234375 L 96.175781 58.234375 C 96.292969 57.785156 96.476562 57 96.476562 56.464844 C 96.476562 55.527344 96.125 54.425781 95.007812 54.425781 Z M 95.007812 54.425781 "/>
<path fill-rule="nonzero" fill="rgb(0%, 0%, 0%)" fill-opacity="1" d="M 96.34375 52.453125 L 91.53125 52.453125 L 91.53125 53.253906 L 96.34375 53.253906 Z M 88.976562 52.851562 C 88.976562 53.105469 89.210938 53.320312 89.460938 53.320312 C 89.726562 53.320312 89.960938 53.105469 89.960938 52.851562 C 89.960938 52.585938 89.726562 52.386719 89.460938 52.386719 C 89.210938 52.386719 88.976562 52.585938 88.976562 52.851562 Z M 88.976562 52.851562 "/>
<path fill-rule="nonzero" fill="rgb(0%, 0%, 0%)" fill-opacity="1" d="M 96.34375 48.296875 L 95.65625 48.296875 L 95.65625 49.132812 C 95.65625 49.882812 95.472656 50.015625 94.773438 50.015625 L 92.167969 50.015625 L 92.167969 48.597656 L 91.53125 48.597656 L 91.53125 50.015625 L 90.160156 50.015625 L 90.160156 50.351562 L 91.53125 50.800781 L 91.53125 51.371094 L 92.167969 51.371094 L 92.167969 50.800781 L 94.773438 50.800781 C 95.976562 50.800781 96.34375 50.316406 96.34375 49.132812 Z M 96.34375 48.296875 "/>
<path fill-rule="nonzero" fill="rgb(0%, 0%, 0%)" fill-opacity="1" d="M 91.53125 43.167969 L 91.53125 43.902344 L 95.054688 45.390625 L 91.53125 47.128906 L 91.53125 47.878906 L 95.839844 45.792969 L 97.777344 46.609375 C 98.113281 46.742188 98.363281 47.195312 98.363281 47.410156 L 98.914062 47.144531 C 98.882812 46.742188 98.597656 46.324219 98.179688 46.058594 Z M 91.53125 43.167969 "/>
<path fill-rule="nonzero" fill="rgb(50.195312%, 50.195312%, 50.195312%)" fill-opacity="1" d="M 309.515625 219.578125 C 309.515625 218.96875 309.144531 218.414062 308.453125 218.214844 C 309.046875 217.992188 309.394531 217.558594 309.394531 216.988281 C 309.394531 216.035156 308.601562 215.601562 307.734375 215.601562 C 307.300781 215.601562 306.765625 215.699219 306.382812 215.824219 L 306.382812 216.429688 C 306.804688 216.28125 307.164062 216.160156 307.671875 216.160156 C 308.316406 216.160156 308.835938 216.394531 308.835938 217.089844 C 308.824219 217.71875 308.316406 217.980469 307.695312 217.980469 L 307.113281 217.980469 L 307.113281 218.511719 L 307.671875 218.511719 C 308.390625 218.511719 308.960938 218.820312 308.960938 219.578125 C 308.960938 220.46875 308.339844 220.71875 307.535156 220.71875 C 306.964844 220.71875 306.617188 220.617188 306.222656 220.34375 L 306.222656 221.015625 C 306.617188 221.152344 307.078125 221.273438 307.546875 221.273438 C 308.648438 221.273438 309.515625 220.777344 309.515625 219.578125 Z M 309.515625 219.578125 "/>
<path fill-rule="nonzero" fill="rgb(50.195312%, 50.195312%, 50.195312%)" fill-opacity="1" d="M 310.492188 220.359375 L 311.246094 220.359375 L 311.246094 221.164062 L 310.492188 221.164062 Z M 310.492188 220.359375 "/>
<path fill-rule="nonzero" fill="rgb(50.195312%, 50.195312%, 50.195312%)" fill-opacity="1" d="M 315.726562 218.449219 C 315.714844 217.285156 315.453125 215.601562 313.980469 215.601562 C 312.503906 215.601562 312.257812 217.3125 312.257812 218.449219 C 312.257812 219.601562 312.515625 221.273438 313.980469 221.273438 C 315.441406 221.273438 315.726562 219.601562 315.726562 218.449219 Z M 315.15625 218.449219 C 315.15625 219.207031 315.09375 220.753906 313.980469 220.753906 C 312.863281 220.753906 312.828125 219.179688 312.828125 218.449219 C 312.828125 217.707031 312.851562 216.109375 313.980469 216.109375 C 315.09375 216.109375 315.15625 217.71875 315.15625 218.449219 Z M 315.15625 218.449219 "/>
<path fill-rule="nonzero" fill="rgb(50.195312%, 50.195312%, 50.195312%)" fill-opacity="1" d="M 181.367188 211.105469 C 181.351562 209.941406 181.09375 208.257812 179.617188 208.257812 C 178.144531 208.257812 177.898438 209.96875 177.898438 211.105469 C 177.898438 212.257812 178.15625 213.929688 179.617188 213.929688 C 181.082031 213.929688 181.367188 212.257812 181.367188 211.105469 Z M 180.796875 211.105469 C 180.796875 211.863281 180.734375 213.410156 179.617188 213.410156 C 178.503906 213.410156 178.46875 211.839844 178.46875 211.105469 C 178.46875 210.363281 178.492188 208.765625 179.617188 208.765625 C 180.734375 208.765625 180.796875 210.375 180.796875 211.105469 Z M 180.796875 211.105469 "/>
<path fill-rule="nonzero" fill="rgb(50.195312%, 50.195312%, 50.195312%)" fill-opacity="1" d="M 182.378906 213.015625 L 183.132812 213.015625 L 183.132812 213.820312 L 182.378906 213.820312 Z M 182.378906 213.015625 "/>
<path fill-rule="nonzero" fill="rgb(50.195312%, 50.195312%, 50.195312%)" fill-opacity="1" d="M 187.214844 212.085938 C 187.203125 210.972656 186.511719 210.238281 185.394531 210.238281 C 185.246094 210.253906 184.914062 210.289062 184.714844 210.363281 L 184.914062 208.925781 L 186.84375 208.925781 L 186.84375 208.355469 L 184.515625 208.355469 L 184.179688 211.058594 C 184.613281 210.847656 184.714844 210.796875 185.269531 210.796875 C 186.078125 210.796875 186.644531 211.242188 186.644531 212.085938 C 186.644531 212.953125 186.089844 213.375 185.269531 213.375 C 184.726562 213.375 184.367188 213.261719 183.972656 213.015625 L 183.972656 213.695312 C 184.328125 213.832031 184.863281 213.929688 185.285156 213.929688 C 186.460938 213.929688 187.214844 213.285156 187.214844 212.085938 Z M 187.214844 212.085938 "/>
<path fill-rule="nonzero" fill="rgb(50.195312%, 50.195312%, 50.195312%)" fill-opacity="1" d="M 181.558594 144.765625 C 181.546875 143.601562 181.285156 141.917969 179.8125 141.917969 C 178.339844 141.917969 178.089844 143.628906 178.089844 144.765625 C 178.089844 145.917969 178.351562 147.589844 179.8125 147.589844 C 181.273438 147.589844 181.558594 145.917969 181.558594 144.765625 Z M 180.988281 144.765625 C 180.988281 145.523438 180.925781 147.070312 179.8125 147.070312 C 178.699219 147.070312 178.660156 145.5 178.660156 144.765625 C 178.660156 144.023438 178.6875 142.425781 179.8125 142.425781 C 180.925781 142.425781 180.988281 144.035156 180.988281 144.765625 Z M 180.988281 144.765625 "/>
<path fill-rule="nonzero" fill="rgb(50.195312%, 50.195312%, 50.195312%)" fill-opacity="1" d="M 182.574219 146.675781 L 183.328125 146.675781 L 183.328125 147.480469 L 182.574219 147.480469 Z M 182.574219 146.675781 "/>
<path fill-rule="nonzero" fill="rgb(50.195312%, 50.195312%, 50.195312%)" fill-opacity="1" d="M 187.804688 144.765625 C 187.792969 143.601562 187.535156 141.917969 186.058594 141.917969 C 184.585938 141.917969 184.339844 143.628906 184.339844 144.765625 C 184.339844 145.917969 184.597656 147.589844 186.058594 147.589844 C 187.523438 147.589844 187.804688 145.917969 187.804688 144.765625 Z M 187.238281 144.765625 C 187.238281 145.523438 187.175781 147.070312 186.058594 147.070312 C 184.945312 147.070312 184.90625 145.5 184.90625 144.765625 C 184.90625 144.023438 184.933594 142.425781 186.058594 142.425781 C 187.175781 142.425781 187.238281 144.035156 187.238281 144.765625 Z M 187.238281 144.765625 "/>
<path fill-rule="nonzero" fill="rgb(50.195312%, 50.195312%, 50.195312%)" fill-opacity="1" d="M 178.5625 139.003906 C 178.550781 137.839844 178.289062 136.15625 176.816406 136.15625 C 175.34375 136.15625 175.09375 137.863281 175.09375 139.003906 C 175.09375 140.15625 175.355469 141.828125 176.816406 141.828125 C 178.277344 141.828125 178.5625 140.15625 178.5625 139.003906 Z M 177.992188 139.003906 C 177.992188 139.761719 177.929688 141.308594 176.816406 141.308594 C 175.703125 141.308594 175.664062 139.734375 175.664062 139.003906 C 175.664062 138.261719 175.6875 136.664062 176.816406 136.664062 C 177.929688 136.664062 177.992188 138.273438 177.992188 139.003906 Z M 177.992188 139.003906 "/>
<path fill-rule="nonzero" fill="rgb(50.195312%, 50.195312%, 50.195312%)" fill-opacity="1" d="M 179.574219 140.910156 L 180.332031 140.910156 L 180.332031 141.71875 L 179.574219 141.71875 Z M 179.574219 140.910156 "/>
<path fill-rule="nonzero" fill="rgb(50.195312%, 50.195312%, 50.195312%)" fill-opacity="1" d="M 184.808594 139.003906 C 184.796875 137.839844 184.539062 136.15625 183.0625 136.15625 C 181.589844 136.15625 181.34375 137.863281 181.34375 139.003906 C 181.34375 140.15625 181.601562 141.828125 183.0625 141.828125 C 184.523438 141.828125 184.808594 140.15625 184.808594 139.003906 Z M 184.238281 139.003906 C 184.238281 139.761719 184.179688 141.308594 183.0625 141.308594 C 181.949219 141.308594 181.910156 139.734375 181.910156 139.003906 C 181.910156 138.261719 181.9375 136.664062 183.0625 136.664062 C 184.179688 136.664062 184.238281 138.273438 184.238281 139.003906 Z M 184.238281 139.003906 "/>
<path fill-rule="nonzero" fill="rgb(50.195312%, 50.195312%, 50.195312%)" fill-opacity="1" d="M 102.179688 14.378906 C 102.179688 13.769531 101.808594 13.214844 101.113281 13.015625 C 101.707031 12.792969 102.054688 12.359375 102.054688 11.789062 C 102.054688 10.835938 101.261719 10.402344 100.394531 10.402344 C 99.960938 10.402344 99.429688 10.5 99.042969 10.625 L 99.042969 11.230469 C 99.464844 11.082031 99.824219 10.957031 100.332031 10.957031 C 100.976562 10.957031 101.496094 11.195312 101.496094 11.886719 C 101.484375 12.519531 100.976562 12.78125 100.359375 12.78125 L 99.777344 12.78125 L 99.777344 13.3125 L 100.332031 13.3125 C 101.050781 13.3125 101.621094 13.621094 101.621094 14.378906 C 101.621094 15.269531 101 15.515625 100.195312 15.515625 C 99.625 15.515625 99.28125 15.417969 98.882812 15.144531 L 98.882812 15.8125 C 99.28125 15.949219 99.738281 16.074219 100.210938 16.074219 C 101.3125 16.074219 102.179688 15.578125 102.179688 14.378906 Z M 102.179688 14.378906 "/>
<path fill-rule="nonzero" fill="rgb(50.195312%, 50.195312%, 50.195312%)" fill-opacity="1" d="M 103.152344 15.15625 L 103.910156 15.15625 L 103.910156 15.964844 L 103.152344 15.964844 Z M 103.152344 15.15625 "/>
<path fill-rule="nonzero" fill="rgb(50.195312%, 50.195312%, 50.195312%)" fill-opacity="1" d="M 108.386719 13.25 C 108.375 12.085938 108.113281 10.402344 106.640625 10.402344 C 105.167969 10.402344 104.917969 12.109375 104.917969 13.25 C 104.917969 14.402344 105.179688 16.074219 106.640625 16.074219 C 108.101562 16.074219 108.386719 14.402344 108.386719 13.25 Z M 107.816406 13.25 C 107.816406 14.007812 107.753906 15.554688 106.640625 15.554688 C 105.527344 15.554688 105.488281 13.980469 105.488281 13.25 C 105.488281 12.507812 105.515625 10.910156 106.640625 10.910156 C 107.753906 10.910156 107.816406 12.519531 107.816406 13.25 Z M 107.816406 13.25 "/>
<g clip-path="url(#clip-1)">
<path fill="none" stroke-width="2.406011" stroke-linecap="square" stroke-linejoin="round" stroke="rgb(62.744141%, 85.096741%, 82.743835%)" stroke-opacity="1" stroke-miterlimit="4" d="M 191.285156 -211.301855 L 193.203125 -211.347802 L 194.9375 -211.680913 L 196.550781 -212.054228 L 198.042969 -212.473489 L 199.457031 -212.94444 L 200.785156 -213.455594 L 202.078125 -214.029924 L 203.308594 -214.644457 L 204.519531 -215.333654 L 205.6875 -216.07454 L 206.839844 -216.884346 L 207.96875 -217.768814 L 209.097656 -218.739432 L 210.207031 -219.784713 L 211.316406 -220.921887 L 212.425781 -222.162441 L 213.554688 -223.529347 L 214.683594 -224.999632 L 215.835938 -226.613501 L 217.003906 -228.376695 L 218.214844 -230.323674 L 219.445312 -232.442953 L 220.738281 -234.797707 L 222.066406 -237.37645 L 223.480469 -240.259588 L 225.011719 -243.550501 L 226.707031 -247.35831 L 228.683594 -251.981669 L 231.507812 -258.78174 L 235.140625 -267.49433 L 236.957031 -271.669711 L 238.449219 -274.937651 L 239.757812 -277.642746 L 240.929688 -279.899864 L 242 -281.818128 L 242.988281 -283.460712 L 243.914062 -284.867821 L 244.78125 -286.068172 L 245.609375 -287.09048 L 246.394531 -287.957718 L 247.140625 -288.681374 L 247.847656 -289.267191 L 248.535156 -289.749629 L 249.179688 -290.122943 L 249.804688 -290.410109 L 250.410156 -290.611124 L 251.015625 -290.74322 L 251.601562 -290.800653 L 252.183594 -290.789167 L 252.769531 -290.70876 L 253.375 -290.559434 L 253.980469 -290.335446 L 254.605469 -290.031051 L 255.25 -289.634763 L 255.917969 -289.140839 L 256.601562 -288.549278 L 257.328125 -287.831366 L 258.09375 -286.96987 L 258.902344 -285.959049 L 259.75 -284.781672 L 260.636719 -283.426252 L 261.585938 -281.858331 L 262.613281 -280.01473 L 263.722656 -277.883965 L 264.933594 -275.402858 L 266.304688 -272.433571 L 267.898438 -268.81529 L 269.894531 -264.094295 L 277.199219 -246.669114 L 278.933594 -242.803871 L 280.484375 -239.501472 L 281.9375 -236.578131 L 283.308594 -233.970671 L 284.621094 -231.627404 L 285.871094 -229.531098 L 287.082031 -227.630065 L 288.273438 -225.889844 L 289.441406 -224.304693 L 290.59375 -222.85738 L 291.722656 -221.542164 L 292.851562 -220.330327 L 293.980469 -219.22187 L 295.109375 -218.211048 L 296.242188 -217.286377 L 297.390625 -216.436368 L 298.558594 -215.655279 L 299.75 -214.943109 L 300.960938 -214.299859 L 302.210938 -213.714042 L 303.523438 -213.174172 L 304.894531 -212.685991 L 306.328125 -212.2495 L 307.839844 -211.864699 L 309.472656 -211.514357 L 311.199219 -211.456924 L 312.296875 -211.307598 " transform="matrix(1, 0, 0, -0.68014, 0, 0)"/>
</g>
<path fill="none" stroke-width="0.850392" stroke-linecap="butt" stroke-linejoin="miter" stroke="rgb(50.195312%, 50.195312%, 50.195312%)" stroke-opacity="1" stroke-miterlimit="4" d="M 191.003906 143.429688 L 189.121094 143.429688 "/>
<path fill="none" stroke-width="0.850392" stroke-linecap="butt" stroke-linejoin="miter" stroke="rgb(50.195312%, 50.195312%, 50.195312%)" stroke-opacity="1" stroke-miterlimit="4" d="M 191.003906 212.332031 L 189.121094 212.332031 "/>
<path fill="none" stroke-width="0.850392" stroke-linecap="butt" stroke-linejoin="miter" stroke="rgb(50.195312%, 50.195312%, 50.195312%)" stroke-opacity="1" stroke-miterlimit="4" d="M 189.71875 157.195312 L 191.003906 157.195312 "/>
<path fill="none" stroke-width="0.850392" stroke-linecap="butt" stroke-linejoin="miter" stroke="rgb(50.195312%, 50.195312%, 50.195312%)" stroke-opacity="1" stroke-miterlimit="4" d="M 189.71875 184.535156 L 191.003906 184.535156 "/>
<path fill="none" stroke-width="0.850392" stroke-linecap="butt" stroke-linejoin="miter" stroke="rgb(50.195312%, 50.195312%, 50.195312%)" stroke-opacity="1" stroke-miterlimit="4" d="M 189.71875 198.207031 L 191.003906 198.207031 "/>
<path fill="none" stroke-width="0.850392" stroke-linecap="butt" stroke-linejoin="miter" stroke="rgb(50.195312%, 50.195312%, 50.195312%)" stroke-opacity="1" stroke-miterlimit="4" d="M 189.71875 170.863281 L 191.003906 170.863281 "/>
<path fill-rule="nonzero" fill="rgb(62.35199%, 85.096741%, 82.743835%)" fill-opacity="0.501961" d="M 197.492188 143.980469 C 200.042969 144.488281 201.0625 144.757812 203.101562 145.453125 C 211.859375 148.4375 218.605469 154.609375 226.703125 167.039062 C 227.675781 168.53125 230.269531 172.679688 232.460938 176.257812 C 236.878906 183.457031 237.453125 184.367188 239.21875 186.925781 C 242.070312 191.066406 244.792969 194.0625 247.140625 195.652344 C 249.042969 196.9375 250.03125 197.285156 251.804688 197.285156 C 253.582031 197.285156 254.570312 196.9375 256.460938 195.652344 C 258.859375 194.019531 261.535156 191.074219 264.382812 186.929688 C 266.1875 184.300781 266.523438 183.769531 271.988281 174.929688 C 279.738281 162.386719 282.070312 159.140625 286.726562 154.40625 C 292.542969 148.492188 298.347656 145.421875 306.675781 143.859375 L 308.257812 143.5625 L 251.804688 143.558594 L 195.355469 143.558594 Z M 197.492188 143.980469 "/>
<path fill="none" stroke-width="0.850392" stroke-linecap="butt" stroke-linejoin="miter" stroke="rgb(67.842102%, 71.763611%, 72.940063%)" stroke-opacity="1" stroke-dasharray="1.700784 0.850392" stroke-miterlimit="4" d="M 197.980469 134.101562 L 197.980469 128.257812 L 192.53125 128.257812 "/>
<path fill-rule="evenodd" fill="rgb(67.842102%, 71.763611%, 72.940063%)" fill-opacity="1" stroke-width="0.226771" stroke-linecap="butt" stroke-linejoin="round" stroke="rgb(67.842102%, 71.763611%, 72.940063%)" stroke-opacity="1" stroke-miterlimit="4" d="M 193.550781 128.257812 L 194.402344 127.40625 L 191.425781 128.257812 L 194.402344 129.109375 Z M 193.550781 128.257812 "/>
<path fill="none" stroke-width="1.004053" stroke-linecap="butt" stroke-linejoin="miter" stroke="rgb(50.195312%, 50.195312%, 50.195312%)" stroke-opacity="1" stroke-miterlimit="4" d="M 350.889441 212.246094 L 350.889441 214.210938 " transform="matrix(0.71734, 0, 0, 1, 0, 0)"/>
<path fill="none" stroke-width="1.004053" stroke-linecap="butt" stroke-linejoin="miter" stroke="rgb(50.195312%, 50.195312%, 50.195312%)" stroke-opacity="1" stroke-miterlimit="4" d="M 435.059996 212.246094 L 435.059996 214.210938 " transform="matrix(0.71734, 0, 0, 1, 0, 0)"/>
<path fill="none" stroke-width="1.004053" stroke-linecap="butt" stroke-linejoin="miter" stroke="rgb(50.195312%, 50.195312%, 50.195312%)" stroke-opacity="1" stroke-miterlimit="4" d="M 322.828958 213.585938 L 322.828958 212.246094 " transform="matrix(0.71734, 0, 0, 1, 0, 0)"/>
<path fill="none" stroke-width="1.004053" stroke-linecap="butt" stroke-linejoin="miter" stroke="rgb(50.195312%, 50.195312%, 50.195312%)" stroke-opacity="1" stroke-miterlimit="4" d="M 378.944477 213.585938 L 378.944477 212.246094 " transform="matrix(0.71734, 0, 0, 1, 0, 0)"/>
<path fill="none" stroke-width="1.004053" stroke-linecap="butt" stroke-linejoin="miter" stroke="rgb(50.195312%, 50.195312%, 50.195312%)" stroke-opacity="1" stroke-miterlimit="4" d="M 266.718885 212.246094 L 266.718885 214.210938 " transform="matrix(0.71734, 0, 0, 1, 0, 0)"/>
<path fill="none" stroke-width="1.004053" stroke-linecap="butt" stroke-linejoin="miter" stroke="rgb(50.195312%, 50.195312%, 50.195312%)" stroke-opacity="1" stroke-miterlimit="4" d="M 406.999514 212.246094 L 406.999514 214.210938 " transform="matrix(0.71734, 0, 0, 1, 0, 0)"/>
<path fill="none" stroke-width="1.004053" stroke-linecap="butt" stroke-linejoin="miter" stroke="rgb(50.195312%, 50.195312%, 50.195312%)" stroke-opacity="1" stroke-miterlimit="4" d="M 294.773922 213.585938 L 294.773922 212.246094 " transform="matrix(0.71734, 0, 0, 1, 0, 0)"/>
<path fill="none" stroke-width="0.850392" stroke-linecap="butt" stroke-linejoin="miter" stroke="rgb(67.842102%, 71.763611%, 72.940063%)" stroke-opacity="1" stroke-dasharray="1.700784 0.850392" stroke-miterlimit="4" d="M 206.933594 134.101562 L 206.933594 123.945312 L 192.480469 123.945312 "/>
<path fill-rule="evenodd" fill="rgb(67.842102%, 71.763611%, 72.940063%)" fill-opacity="1" stroke-width="0.226771" stroke-linecap="butt" stroke-linejoin="round" stroke="rgb(67.842102%, 71.763611%, 72.940063%)" stroke-opacity="1" stroke-miterlimit="4" d="M 193.5 123.945312 L 194.351562 123.09375 L 191.375 123.945312 L 194.351562 124.796875 Z M 193.5 123.945312 "/>
<path fill="none" stroke-width="0.850392" stroke-linecap="butt" stroke-linejoin="miter" stroke="rgb(67.842102%, 71.763611%, 72.940063%)" stroke-opacity="1" stroke-dasharray="1.700784 0.850392" stroke-miterlimit="4" d="M 215.886719 134.101562 L 215.886719 121.511719 L 192.519531 121.511719 "/>
<path fill-rule="evenodd" fill="rgb(67.842102%, 71.763611%, 72.940063%)" fill-opacity="1" stroke-width="0.226771" stroke-linecap="butt" stroke-linejoin="round" stroke="rgb(67.842102%, 71.763611%, 72.940063%)" stroke-opacity="1" stroke-miterlimit="4" d="M 193.539062 121.511719 L 194.390625 120.664062 L 191.414062 121.511719 L 194.390625 122.363281 Z M 193.539062 121.511719 "/>
<path fill="none" stroke-width="0.850392" stroke-linecap="butt" stroke-linejoin="miter" stroke="rgb(67.842102%, 71.763611%, 72.940063%)" stroke-opacity="1" stroke-dasharray="1.700784 0.850392" stroke-miterlimit="4" d="M 224.839844 134.101562 L 224.839844 118.9375 L 192.472656 118.9375 "/>
<path fill-rule="evenodd" fill="rgb(67.842102%, 71.763611%, 72.940063%)" fill-opacity="1" stroke-width="0.226771" stroke-linecap="butt" stroke-linejoin="round" stroke="rgb(67.842102%, 71.763611%, 72.940063%)" stroke-opacity="1" stroke-miterlimit="4" d="M 193.496094 118.9375 L 194.34375 118.085938 L 191.367188 118.9375 L 194.34375 119.785156 Z M 193.496094 118.9375 "/>
<path fill="none" stroke-width="0.850392" stroke-linecap="butt" stroke-linejoin="miter" stroke="rgb(67.842102%, 71.763611%, 72.940063%)" stroke-opacity="1" stroke-dasharray="1.700784 0.850392" stroke-miterlimit="4" d="M 233.792969 134.101562 L 233.792969 113.648438 L 192.472656 113.648438 "/>
<path fill-rule="evenodd" fill="rgb(67.842102%, 71.763611%, 72.940063%)" fill-opacity="1" stroke-width="0.226771" stroke-linecap="butt" stroke-linejoin="round" stroke="rgb(67.842102%, 71.763611%, 72.940063%)" stroke-opacity="1" stroke-miterlimit="4" d="M 193.492188 113.648438 L 194.34375 112.800781 L 191.367188 113.648438 L 194.34375 114.5 Z M 193.492188 113.648438 "/>
<path fill="none" stroke-width="0.850392" stroke-linecap="butt" stroke-linejoin="miter" stroke="rgb(67.842102%, 71.763611%, 72.940063%)" stroke-opacity="1" stroke-dasharray="1.700784 0.850392" stroke-miterlimit="4" d="M 242.746094 134.101562 L 242.746094 101.40625 L 192.519531 101.40625 "/>
<path fill-rule="evenodd" fill="rgb(67.842102%, 71.763611%, 72.940063%)" fill-opacity="1" stroke-width="0.226771" stroke-linecap="butt" stroke-linejoin="round" stroke="rgb(67.842102%, 71.763611%, 72.940063%)" stroke-opacity="1" stroke-miterlimit="4" d="M 193.539062 101.40625 L 194.390625 100.554688 L 191.414062 101.40625 L 194.390625 102.257812 Z M 193.539062 101.40625 "/>
<path fill="none" stroke-width="0.850392" stroke-linecap="butt" stroke-linejoin="miter" stroke="rgb(67.842102%, 71.763611%, 72.940063%)" stroke-opacity="1" stroke-dasharray="1.700784 0.850392" stroke-miterlimit="4" d="M 251.644531 143.179688 L 251.644531 84.648438 L 181.96875 84.183594 "/>
<path fill-rule="evenodd" fill="rgb(67.842102%, 71.763611%, 72.940063%)" fill-opacity="1" stroke-width="0.226766" stroke-linecap="butt" stroke-linejoin="round" stroke="rgb(67.842102%, 71.763611%, 72.940063%)" stroke-opacity="1" stroke-miterlimit="4" d="M 183.543389 82.963317 L 184.393174 82.113882 L 181.418379 82.961911 L 184.392825 83.813103 Z M 183.543389 82.963317 " transform="matrix(1, 0.006691, -0.006691, 1, 0, 0)"/>
<path fill="none" stroke-width="0.850392" stroke-linecap="butt" stroke-linejoin="miter" stroke="rgb(67.842102%, 71.763611%, 72.940063%)" stroke-opacity="1" stroke-dasharray="1.700784 0.850392" stroke-miterlimit="4" d="M 260.574219 143.152344 L 260.574219 64.613281 L 181.714844 64.195312 "/>
<path fill-rule="evenodd" fill="rgb(67.842102%, 71.763611%, 72.940063%)" fill-opacity="1" stroke-width="0.226768" stroke-linecap="butt" stroke-linejoin="round" stroke="rgb(67.842102%, 71.763611%, 72.940063%)" stroke-opacity="1" stroke-miterlimit="4" d="M 183.068845 63.234812 L 183.919807 62.382654 L 180.943843 63.234333 L 183.921003 64.085773 Z M 183.068845 63.234812 " transform="matrix(1, 0.00528934, -0.00528934, 1, 0, 0)"/>
<path fill="none" stroke-width="0.850392" stroke-linecap="butt" stroke-linejoin="miter" stroke="rgb(67.842102%, 71.763611%, 72.940063%)" stroke-opacity="1" stroke-dasharray="1.700784 0.850392" stroke-miterlimit="4" d="M 278.558594 134.074219 L 278.558594 34.992188 L 192.460938 35.042969 "/>
<path fill-rule="evenodd" fill="rgb(67.842102%, 71.763611%, 72.940063%)" fill-opacity="1" stroke-width="0.226771" stroke-linecap="butt" stroke-linejoin="round" stroke="rgb(67.842102%, 71.763611%, 72.940063%)" stroke-opacity="1" stroke-miterlimit="4" d="M 193.464286 35.153525 L 194.312429 34.302448 L 191.335381 35.152309 L 194.311458 36.001666 Z M 193.464286 35.153525 " transform="matrix(1, -0.000571458, 0.000571458, 1, 0, 0)"/>
<path fill="none" stroke-width="0.850392" stroke-linecap="butt" stroke-linejoin="miter" stroke="rgb(67.842102%, 71.763611%, 72.940063%)" stroke-opacity="1" stroke-dasharray="1.700784 0.850392" stroke-miterlimit="4" d="M 269.605469 134.101562 L 269.605469 47.425781 L 192.488281 47.425781 "/>
<path fill-rule="evenodd" fill="rgb(67.842102%, 71.763611%, 72.940063%)" fill-opacity="1" stroke-width="0.226771" stroke-linecap="butt" stroke-linejoin="round" stroke="rgb(67.842102%, 71.763611%, 72.940063%)" stroke-opacity="1" stroke-miterlimit="4" d="M 193.511719 47.425781 L 194.359375 46.574219 L 191.382812 47.425781 L 194.359375 48.273438 Z M 193.511719 47.425781 "/>
<path fill="none" stroke-width="0.850392" stroke-linecap="butt" stroke-linejoin="miter" stroke="rgb(67.842102%, 71.763611%, 72.940063%)" stroke-opacity="1" stroke-dasharray="1.700784 0.850392" stroke-miterlimit="4" d="M 287.511719 133.882812 L 287.511719 28.988281 L 192.542969 28.988281 "/>
<path fill-rule="evenodd" fill="rgb(67.842102%, 71.763611%, 72.940063%)" fill-opacity="1" stroke-width="0.226771" stroke-linecap="butt" stroke-linejoin="round" stroke="rgb(67.842102%, 71.763611%, 72.940063%)" stroke-opacity="1" stroke-miterlimit="4" d="M 193.5625 28.988281 L 194.414062 28.136719 L 191.4375 28.988281 L 194.414062 29.835938 Z M 193.5625 28.988281 "/>
<path fill="none" stroke-width="0.850392" stroke-linecap="butt" stroke-linejoin="miter" stroke="rgb(67.842102%, 71.763611%, 72.940063%)" stroke-opacity="1" stroke-dasharray="1.700784 0.850392" stroke-miterlimit="4" d="M 305.417969 134.101562 L 305.417969 18.902344 L 192.496094 18.902344 "/>
<path fill-rule="evenodd" fill="rgb(67.842102%, 71.763611%, 72.940063%)" fill-opacity="1" stroke-width="0.226771" stroke-linecap="butt" stroke-linejoin="round" stroke="rgb(67.842102%, 71.763611%, 72.940063%)" stroke-opacity="1" stroke-miterlimit="4" d="M 193.519531 18.902344 L 194.367188 18.050781 L 191.390625 18.902344 L 194.367188 19.753906 Z M 193.519531 18.902344 "/>
<path fill="none" stroke-width="0.850392" stroke-linecap="butt" stroke-linejoin="miter" stroke="rgb(67.842102%, 71.763611%, 72.940063%)" stroke-opacity="1" stroke-dasharray="1.700784 0.850392" stroke-miterlimit="4" d="M 296.464844 134.101562 L 296.464844 24.050781 L 192.457031 24.050781 "/>
<path fill-rule="evenodd" fill="rgb(67.842102%, 71.763611%, 72.940063%)" fill-opacity="1" stroke-width="0.226771" stroke-linecap="butt" stroke-linejoin="round" stroke="rgb(67.842102%, 71.763611%, 72.940063%)" stroke-opacity="1" stroke-miterlimit="4" d="M 193.480469 24.050781 L 194.328125 23.199219 L 191.351562 24.050781 L 194.328125 24.902344 Z M 193.480469 24.050781 "/>
<path fill-rule="nonzero" fill="rgb(62.35199%, 85.096741%, 82.743835%)" fill-opacity="0.501961" d="M 251.449219 170.480469 L 251.449219 143.628906 L 260.808594 143.628906 L 260.808594 167.808594 C 260.808594 189.507812 260.820312 191.988281 260.925781 192.027344 C 261.027344 192.058594 260.941406 192.167969 260.425781 192.652344 C 258.53125 194.429688 256.585938 195.804688 254.875 196.578125 C 253.84375 197.039062 253.097656 197.226562 251.941406 197.300781 L 251.449219 197.332031 Z M 251.449219 170.480469 "/>
<g clip-path="url(#clip-2)">
<path fill="none" stroke-width="2.012725" stroke-linecap="square" stroke-linejoin="round" stroke="rgb(27.842712%, 40.391541%, 47.450256%)" stroke-opacity="1" stroke-miterlimit="4" d="M 196.874142 133.761719 L 198.425534 132.273438 L 199.976927 130.921875 L 201.52832 129.695312 L 203.079712 128.589844 L 204.631105 127.597656 L 206.182498 126.710938 L 207.737909 125.921875 L 209.289302 125.21875 L 210.840695 124.59375 L 212.392087 124.039062 L 214.461951 123.394531 L 216.531814 122.835938 L 219.116129 122.214844 L 225.84017 120.65625 L 227.910033 120.074219 L 229.461426 119.574219 L 231.012819 119.003906 L 232.564211 118.347656 L 234.115604 117.589844 L 235.671016 116.722656 L 236.703938 116.074219 L 237.73686 115.363281 L 238.773801 114.59375 L 239.806723 113.753906 L 240.843664 112.84375 L 241.876586 111.859375 L 242.909509 110.800781 L 243.94645 109.664062 L 244.979372 108.445312 L 246.016313 107.148438 L 247.049235 105.765625 L 248.082157 104.304688 L 249.637569 101.957031 L 251.188962 99.429688 L 252.740354 96.734375 L 254.291747 93.875 L 255.84314 90.867188 L 257.913003 86.667969 L 259.982866 82.289062 L 263.085652 75.527344 L 267.225378 66.492188 L 269.291222 62.113281 L 271.361086 57.90625 L 272.912478 54.894531 L 274.463871 52.027344 L 276.015264 49.316406 L 277.570675 46.769531 L 279.122068 44.398438 L 280.673461 42.199219 L 282.224853 40.171875 L 283.776246 38.320312 L 284.809168 37.175781 L 286.36458 35.585938 L 287.915973 34.148438 L 289.467365 32.84375 L 291.018758 31.660156 L 292.570151 30.589844 L 294.121543 29.609375 L 295.672936 28.707031 L 297.742799 27.597656 L 300.331133 26.3125 L 307.055174 23.046875 L 309.125038 21.9375 L 310.67643 21.039062 L 312.227823 20.074219 L 313.779216 19.027344 L 315.330608 17.894531 L 316.882001 16.660156 L 318.433394 15.320312 L 319.984786 13.859375 L 320.503257 13.347656 " transform="matrix(0.971909, 0, 0, 1, 0, 0)"/>
</g>
<path fill="none" stroke-width="0.850496" stroke-linecap="butt" stroke-linejoin="round" stroke="rgb(0%, 0%, 0%)" stroke-opacity="1" stroke-miterlimit="4" d="M 191.253906 12.886719 L 312.292969 12.886719 L 312.292969 133.894531 L 191.253906 133.894531 Z M 191.253906 12.886719 "/>
<path fill="none" stroke-width="0.850392" stroke-linecap="butt" stroke-linejoin="miter" stroke="rgb(50.195312%, 50.195312%, 50.195312%)" stroke-opacity="1" stroke-miterlimit="4" d="M 111.628906 73.488281 L 109.949219 73.488281 "/>
<path fill="none" stroke-width="0.850392" stroke-linecap="butt" stroke-linejoin="miter" stroke="rgb(50.195312%, 50.195312%, 50.195312%)" stroke-opacity="1" stroke-miterlimit="4" d="M 111.601562 13.046875 L 109.921875 13.046875 "/>
<path fill="none" stroke-width="0.850392" stroke-linecap="butt" stroke-linejoin="miter" stroke="rgb(50.195312%, 50.195312%, 50.195312%)" stroke-opacity="1" stroke-miterlimit="4" d="M 110.457031 113.757812 L 111.601562 113.757812 "/>
<path fill="none" stroke-width="0.850392" stroke-linecap="butt" stroke-linejoin="miter" stroke="rgb(50.195312%, 50.195312%, 50.195312%)" stroke-opacity="1" stroke-miterlimit="4" d="M 110.375 93.621094 L 111.523438 93.621094 "/>
<path fill="none" stroke-width="0.850392" stroke-linecap="butt" stroke-linejoin="miter" stroke="rgb(50.195312%, 50.195312%, 50.195312%)" stroke-opacity="1" stroke-miterlimit="4" d="M 110.320312 53.351562 L 111.46875 53.351562 "/>
<path fill="none" stroke-width="0.850392" stroke-linecap="butt" stroke-linejoin="miter" stroke="rgb(50.195312%, 50.195312%, 50.195312%)" stroke-opacity="1" stroke-miterlimit="4" d="M 110.296875 33.21875 L 111.441406 33.21875 "/>
<path fill="none" stroke-width="0.850392" stroke-linecap="butt" stroke-linejoin="miter" stroke="rgb(50.195312%, 50.195312%, 50.195312%)" stroke-opacity="1" stroke-miterlimit="4" d="M 180.585938 134.078125 L 180.585938 135.957031 "/>
<path fill="none" stroke-width="0.850392" stroke-linecap="butt" stroke-linejoin="miter" stroke="rgb(50.195312%, 50.195312%, 50.195312%)" stroke-opacity="1" stroke-miterlimit="4" d="M 111.925781 134.109375 L 111.925781 135.988281 "/>
<path fill="none" stroke-width="0.850392" stroke-linecap="butt" stroke-linejoin="miter" stroke="rgb(50.195312%, 50.195312%, 50.195312%)" stroke-opacity="1" stroke-miterlimit="4" d="M 166.855469 135.390625 L 166.855469 134.109375 "/>
<path fill="none" stroke-width="0.850392" stroke-linecap="butt" stroke-linejoin="miter" stroke="rgb(50.195312%, 50.195312%, 50.195312%)" stroke-opacity="1" stroke-miterlimit="4" d="M 153.121094 135.390625 L 153.121094 134.109375 "/>
<path fill="none" stroke-width="0.850392" stroke-linecap="butt" stroke-linejoin="miter" stroke="rgb(50.195312%, 50.195312%, 50.195312%)" stroke-opacity="1" stroke-miterlimit="4" d="M 139.390625 135.390625 L 139.390625 134.109375 "/>
<path fill="none" stroke-width="0.850392" stroke-linecap="butt" stroke-linejoin="miter" stroke="rgb(50.195312%, 50.195312%, 50.195312%)" stroke-opacity="1" stroke-miterlimit="4" d="M 125.660156 135.390625 L 125.660156 134.109375 "/>
<path fill="none" stroke-width="0.850392" stroke-linecap="butt" stroke-linejoin="miter" stroke="rgb(50.195312%, 50.195312%, 50.195312%)" stroke-opacity="1" stroke-miterlimit="4" d="M 111.601562 133.890625 L 110.039062 133.890625 "/>
<g clip-path="url(#clip-3)">
<use xlink:href="#source-5" transform="matrix(1, 0, 0, 1, 111, 13)"/>
</g>
<path fill-rule="nonzero" fill="rgb(86.273193%, 63.136292%, 52.940369%)" fill-opacity="0.532663" stroke-width="0.368804" stroke-linecap="butt" stroke-linejoin="round" stroke="rgb(81.959534%, 51.371765%, 38.430786%)" stroke-opacity="0.515151" stroke-miterlimit="4" d="M 305.097674 131.613281 C 304.786896 130.578125 303.920686 129.191406 303.054476 128.34375 C 299.338369 124.703125 291.178803 123.4375 264.511437 122.363281 C 260.074591 122.183594 252.860582 121.941406 236.977862 121.433594 C 230.312674 121.21875 224.242591 121.019531 223.482178 120.992188 C 216.307843 120.710938 211.335401 120.414062 211.705689 120.289062 C 211.758588 120.269531 214.158849 119.835938 217.041807 119.320312 C 222.787887 118.292969 225.39313 117.765625 228.441395 117.011719 C 242.763616 113.464844 251.531512 107.839844 257.806575 98.167969 C 264.068414 88.523438 267.903542 74.039062 268.67718 57.09375 C 268.888773 52.507812 268.822651 49.078125 268.346566 40.359375 C 268.088686 35.675781 268.115136 34.824219 268.544934 33.503906 C 269.232613 31.375 270.965033 30.121094 275.110938 28.761719 C 276.843358 28.191406 279.924685 27.421875 286.444403 25.933594 C 292.144197 24.632812 293.327797 24.328125 295.575976 23.578125 C 301.1303 21.726562 303.662807 19.65625 305.051388 15.824219 L 305.282818 15.183594 L 305.28943 73.605469 C 305.28943 105.738281 305.276205 132.027344 305.256369 132.027344 C 305.236532 132.027344 305.163796 131.839844 305.097674 131.613281 Z M 305.097674 131.613281 " transform="matrix(0.590756, 0, 0, 1, 0, 0)"/>
<path fill-rule="nonzero" fill="rgb(86.273193%, 63.136292%, 52.940369%)" fill-opacity="0.809045" d="M 166.183594 84 C 160.703125 83.960938 156.210938 83.925781 156.207031 83.917969 C 156.199219 83.910156 156.222656 83.757812 156.253906 83.585938 C 157.199219 78.460938 157.960938 72.125 158.382812 65.773438 C 158.425781 65.136719 158.464844 64.613281 158.46875 64.605469 C 158.46875 64.597656 162.398438 64.617188 167.199219 64.644531 C 171.996094 64.667969 176.902344 64.691406 178.101562 64.691406 L 180.285156 64.691406 L 180.285156 84.078125 L 178.21875 84.070312 C 177.082031 84.066406 171.667969 84.035156 166.183594 84 Z M 166.183594 84 "/>
<path fill="none" stroke-width="0.850392" stroke-linecap="butt" stroke-linejoin="round" stroke="rgb(0%, 0%, 0%)" stroke-opacity="1" stroke-miterlimit="4" d="M -133.914062 111.871094 L -13.046875 111.871094 L -13.046875 180.585938 L -133.914062 180.585938 Z M -133.914062 111.871094 " transform="matrix(0, -1, 1, 0, 0, 0)"/>
<path fill="none" stroke-width="0.8505" stroke-linecap="butt" stroke-linejoin="round" stroke="rgb(0%, 0%, 0%)" stroke-opacity="1" stroke-miterlimit="4" d="M 191.324219 -143.429688 L 312.0625 -143.429688 L 312.0625 -212.332031 L 191.324219 -212.332031 Z M 191.324219 -143.429688 " transform="matrix(1, 0, 0, -1, 0, 0)"/>
</svg>
