<?xml version="1.0" encoding="UTF-8"?>
<svg xmlns="http://www.w3.org/2000/svg" xmlns:xlink="http://www.w3.org/1999/xlink" width="410.036896pt" height="160.914322pt" viewBox="0 0 410.036896 160.914322">
<defs>
<clipPath id="clip-0">
<path clip-rule="nonzero" d="M 149 150 L 157 150 L 157 160.914062 L 149 160.914062 Z M 149 150 "/>
</clipPath>
<clipPath id="clip-1">
<path clip-rule="nonzero" d="M 292 153 L 298 153 L 298 160.914062 L 292 160.914062 Z M 292 153 "/>
</clipPath>
</defs>
<path fill="none" stroke-width="1.984252" stroke-linecap="butt" stroke-linejoin="miter" stroke="rgb(81.959534%, 51.371765%, 38.430786%)" stroke-opacity="1" stroke-miterlimit="4" d="M 237.554688 140.082031 L 263.449219 114.109375 "/>
<path fill="none" stroke-width="1.984252" stroke-linecap="butt" stroke-linejoin="miter" stroke="rgb(62.744141%, 85.096741%, 82.743835%)" stroke-opacity="1" stroke-miterlimit="4" d="M 263.214844 114.292969 L 289.503906 101.339844 "/>
<path fill="none" stroke-width="1.984252" stroke-linecap="butt" stroke-linejoin="miter" stroke="rgb(77.645874%, 80.39093%, 81.175232%)" stroke-opacity="1" stroke-miterlimit="4" d="M 315.6875 50.007812 L 289 101.796875 "/>
<path fill="none" stroke-width="1.984252" stroke-linecap="butt" stroke-linejoin="miter" stroke="rgb(81.959534%, 51.371765%, 38.430786%)" stroke-opacity="1" stroke-miterlimit="4" d="M 315.015625 50.527344 L 341.460938 43.710938 "/>
<path fill="none" stroke-width="1.984252" stroke-linecap="butt" stroke-linejoin="miter" stroke="rgb(68.234253%, 76.469421%, 81.175232%)" stroke-opacity="1" stroke-miterlimit="4" d="M 367.082031 10.113281 L 340.925781 44.0625 "/>
<path fill="none" stroke-width="0.751181" stroke-linecap="butt" stroke-linejoin="miter" stroke="rgb(77.645874%, 80.39093%, 81.175232%)" stroke-opacity="1" stroke-dasharray="0.751181 0.751181" stroke-miterlimit="4" d="M 341.410156 10.433594 C 341.410156 140.554688 341.410156 140.554688 341.410156 140.554688 "/>
<path fill="none" stroke-width="0.751181" stroke-linecap="butt" stroke-linejoin="miter" stroke="rgb(77.645874%, 80.39093%, 81.175232%)" stroke-opacity="1" stroke-dasharray="0.751181 0.751181" stroke-miterlimit="4" d="M 315.328125 10.433594 C 315.328125 140.554688 315.328125 140.554688 315.328125 140.554688 "/>
<path fill="none" stroke-width="0.751181" stroke-linecap="butt" stroke-linejoin="miter" stroke="rgb(77.645874%, 80.39093%, 81.175232%)" stroke-opacity="1" stroke-dasharray="0.751181 0.751181" stroke-miterlimit="4" d="M 263.1875 10.433594 C 263.1875 140.554688 263.1875 140.554688 263.1875 140.554688 "/>
<path fill="none" stroke-width="0.751181" stroke-linecap="butt" stroke-linejoin="miter" stroke="rgb(77.645874%, 80.39093%, 81.175232%)" stroke-opacity="1" stroke-dasharray="0.751181 0.751181" stroke-miterlimit="4" d="M 289.25 10.433594 C 289.25 140.554688 289.25 140.554688 289.25 140.554688 "/>
<path fill-rule="nonzero" fill="rgb(0%, 0%, 0%)" fill-opacity="1" d="M 146.054688 66.191406 C 146.054688 66.15625 146.089844 66.03125 146.089844 66.03125 C 146.089844 66.011719 146.089844 65.90625 145.949219 65.90625 C 145.84375 65.90625 145.824219 65.941406 145.769531 66.136719 L 145.113281 68.757812 C 143.3125 68.828125 141.636719 70.324219 141.636719 71.875 C 141.636719 72.960938 142.4375 73.851562 143.828125 73.941406 C 143.738281 74.277344 143.652344 74.652344 143.5625 75.007812 C 143.417969 75.542969 143.3125 75.972656 143.3125 76.007812 C 143.3125 76.113281 143.402344 76.132812 143.453125 76.132812 C 143.507812 76.132812 143.527344 76.113281 143.5625 76.078125 C 143.578125 76.0625 143.652344 75.792969 143.6875 75.632812 L 144.113281 73.941406 C 145.949219 73.871094 147.605469 72.335938 147.605469 70.824219 C 147.605469 69.914062 147 68.882812 145.414062 68.757812 Z M 143.882812 73.691406 C 143.207031 73.65625 142.386719 73.246094 142.386719 72.125 C 142.386719 70.75 143.367188 69.167969 145.058594 69.007812 Z M 145.34375 69.007812 C 146.214844 69.058594 146.855469 69.574219 146.855469 70.574219 C 146.855469 71.925781 145.878906 73.546875 144.183594 73.691406 Z M 145.34375 69.007812 "/>
<path fill-rule="nonzero" fill="rgb(0%, 0%, 0%)" fill-opacity="1" d="M 149.082031 71.066406 C 149.492188 71.171875 149.722656 71.171875 149.847656 71.171875 C 150.898438 71.171875 151.523438 70.460938 151.523438 70.335938 C 151.523438 70.246094 151.46875 70.226562 151.433594 70.226562 C 151.417969 70.226562 151.398438 70.226562 151.363281 70.246094 C 151.167969 70.316406 150.757812 70.476562 150.167969 70.476562 C 149.9375 70.476562 149.527344 70.460938 149.011719 70.265625 C 148.921875 70.226562 148.90625 70.226562 148.90625 70.226562 C 148.796875 70.226562 148.796875 70.316406 148.796875 70.441406 L 148.796875 72.777344 C 148.796875 72.917969 148.796875 73.007812 148.921875 73.007812 C 148.992188 73.007812 149.011719 73.007812 149.082031 72.902344 C 149.421875 72.472656 149.917969 72.402344 150.1875 72.402344 C 150.667969 72.402344 150.882812 72.777344 150.917969 72.847656 C 151.058594 73.113281 151.113281 73.417969 151.113281 73.878906 C 151.113281 74.113281 151.113281 74.574219 150.863281 74.929688 C 150.667969 75.214844 150.328125 75.414062 149.9375 75.414062 C 149.421875 75.414062 148.886719 75.128906 148.691406 74.59375 C 148.992188 74.609375 149.152344 74.414062 149.152344 74.199219 C 149.152344 73.863281 148.851562 73.808594 148.742188 73.808594 C 148.742188 73.808594 148.351562 73.808594 148.351562 74.238281 C 148.351562 74.949219 149.011719 75.660156 149.957031 75.660156 C 150.972656 75.660156 151.863281 74.914062 151.863281 73.898438 C 151.863281 73.007812 151.183594 72.1875 150.203125 72.1875 C 149.847656 72.1875 149.4375 72.257812 149.082031 72.5625 Z M 149.082031 71.066406 "/>
<path fill-rule="nonzero" fill="rgb(0%, 0%, 0%)" fill-opacity="1" d="M 93.636719 31.707031 C 93.636719 31.671875 93.671875 31.546875 93.671875 31.546875 C 93.671875 31.53125 93.671875 31.421875 93.53125 31.421875 C 93.421875 31.421875 93.40625 31.457031 93.351562 31.65625 L 92.691406 34.273438 C 90.894531 34.34375 89.21875 35.839844 89.21875 37.390625 C 89.21875 38.476562 90.019531 39.367188 91.410156 39.457031 C 91.320312 39.796875 91.230469 40.167969 91.140625 40.527344 C 91 41.0625 90.894531 41.488281 90.894531 41.523438 C 90.894531 41.628906 90.980469 41.648438 91.035156 41.648438 C 91.089844 41.648438 91.105469 41.628906 91.140625 41.59375 C 91.160156 41.578125 91.230469 41.308594 91.265625 41.148438 L 91.695312 39.457031 C 93.53125 39.386719 95.1875 37.855469 95.1875 36.339844 C 95.1875 35.429688 94.582031 34.398438 92.996094 34.273438 Z M 91.460938 39.207031 C 90.785156 39.171875 89.964844 38.761719 89.964844 37.640625 C 89.964844 36.269531 90.945312 34.683594 92.636719 34.523438 Z M 92.921875 34.523438 C 93.796875 34.574219 94.4375 35.09375 94.4375 36.089844 C 94.4375 37.445312 93.457031 39.066406 91.765625 39.207031 Z M 92.921875 34.523438 "/>
<path fill-rule="nonzero" fill="rgb(0%, 0%, 0%)" fill-opacity="1" d="M 97.605469 38.363281 C 98.230469 38.363281 98.675781 38.792969 98.675781 39.644531 C 98.675781 40.625 98.089844 40.929688 97.644531 40.929688 C 97.320312 40.929688 96.609375 40.839844 96.289062 40.359375 C 96.664062 40.359375 96.753906 40.089844 96.753906 39.914062 C 96.753906 39.664062 96.554688 39.484375 96.308594 39.484375 C 96.09375 39.484375 95.859375 39.628906 95.859375 39.949219 C 95.859375 40.699219 96.679688 41.179688 97.644531 41.179688 C 98.746094 41.179688 99.511719 40.429688 99.511719 39.644531 C 99.511719 39.023438 99.015625 38.398438 98.140625 38.222656 C 98.960938 37.917969 99.265625 37.332031 99.265625 36.832031 C 99.265625 36.207031 98.550781 35.746094 97.660156 35.746094 C 96.789062 35.746094 96.109375 36.171875 96.109375 36.8125 C 96.109375 37.082031 96.289062 37.222656 96.519531 37.222656 C 96.769531 37.222656 96.929688 37.046875 96.929688 36.832031 C 96.929688 36.601562 96.769531 36.421875 96.519531 36.402344 C 96.804688 36.066406 97.339844 35.976562 97.644531 35.976562 C 98 35.976562 98.496094 36.15625 98.496094 36.832031 C 98.496094 37.171875 98.390625 37.542969 98.175781 37.777344 C 97.929688 38.078125 97.695312 38.097656 97.304688 38.132812 C 97.109375 38.148438 97.089844 38.148438 97.054688 38.148438 C 97.035156 38.148438 96.964844 38.167969 96.964844 38.257812 C 96.964844 38.363281 97.035156 38.363281 97.179688 38.363281 Z M 97.605469 38.363281 "/>
<path fill-rule="nonzero" fill="rgb(0%, 0%, 0%)" fill-opacity="1" d="M 96.488281 153.078125 C 96.488281 151.519531 95.613281 150.785156 94.09375 150.785156 L 91.925781 150.785156 L 91.925781 158.5 L 92.761719 158.5 L 92.761719 155.367188 L 94.09375 155.367188 C 95.613281 155.367188 96.488281 154.652344 96.488281 153.078125 Z M 95.648438 153.078125 C 95.632812 154.039062 95.089844 154.582031 94.09375 154.582031 L 92.761719 154.582031 L 92.761719 151.554688 L 94.09375 151.554688 C 95.054688 151.574219 95.648438 152.046875 95.648438 153.078125 Z M 95.648438 153.078125 "/>
<path fill-rule="nonzero" fill="rgb(0%, 0%, 0%)" fill-opacity="1" d="M 101.109375 158.5 L 101.109375 155.632812 C 101.109375 154.179688 100.496094 153.339844 98.992188 153.339844 C 98.449219 153.339844 97.785156 153.515625 97.296875 153.691406 L 97.296875 154.511719 C 97.804688 154.230469 98.222656 154.058594 98.921875 154.058594 C 99.726562 154.074219 100.339844 154.476562 100.339844 155.316406 L 99.1875 155.316406 C 97.996094 155.316406 96.945312 155.71875 96.945312 157.03125 C 96.980469 158.046875 97.578125 158.640625 98.589844 158.640625 C 99.308594 158.640625 99.957031 158.34375 100.339844 157.835938 L 100.339844 158.5 Z M 100.339844 156.15625 C 100.339844 157.136719 99.886719 157.921875 98.835938 157.921875 C 98.222656 157.921875 97.714844 157.644531 97.714844 156.976562 C 97.714844 156 98.644531 156 99.519531 156 L 100.339844 156 Z M 100.339844 156.15625 "/>
<path fill-rule="nonzero" fill="rgb(0%, 0%, 0%)" fill-opacity="1" d="M 105.386719 154.476562 L 105.648438 153.671875 C 105.527344 153.53125 104.984375 153.390625 104.617188 153.390625 C 104.089844 153.410156 103.652344 153.671875 103.425781 154.144531 L 103.425781 153.460938 L 102.585938 153.460938 L 102.585938 158.5 L 103.425781 158.5 L 103.425781 155.839844 C 103.425781 155.824219 103.425781 155.804688 103.425781 155.804688 C 103.425781 155.070312 103.8125 154.109375 104.597656 154.109375 L 104.652344 154.109375 C 104.914062 154.109375 105.125 154.265625 105.386719 154.476562 Z M 105.386719 154.476562 "/>
<path fill-rule="nonzero" fill="rgb(0%, 0%, 0%)" fill-opacity="1" d="M 110.289062 158.5 L 110.289062 155.632812 C 110.289062 154.179688 109.675781 153.339844 108.171875 153.339844 C 107.628906 153.339844 106.964844 153.515625 106.476562 153.691406 L 106.476562 154.511719 C 106.984375 154.230469 107.402344 154.058594 108.101562 154.058594 C 108.90625 154.074219 109.519531 154.476562 109.519531 155.316406 L 108.363281 155.316406 C 107.175781 155.316406 106.125 155.71875 106.125 157.03125 C 106.160156 158.046875 106.757812 158.640625 107.769531 158.640625 C 108.488281 158.640625 109.136719 158.34375 109.519531 157.835938 L 109.519531 158.5 Z M 109.519531 156.15625 C 109.519531 157.136719 109.066406 157.921875 108.015625 157.921875 C 107.402344 157.921875 106.894531 157.644531 106.894531 156.976562 C 106.894531 156 107.824219 156 108.699219 156 L 109.519531 156 Z M 109.519531 156.15625 "/>
<path fill-rule="nonzero" fill="rgb(0%, 0%, 0%)" fill-opacity="1" d="M 119.253906 158.5 L 119.253906 155.457031 C 119.253906 154.371094 118.851562 153.339844 117.609375 153.339844 C 116.839844 153.339844 116.210938 153.742188 115.808594 154.355469 C 115.542969 153.757812 114.984375 153.339844 114.265625 153.339844 C 113.601562 153.339844 112.957031 153.691406 112.589844 154.144531 L 112.589844 153.460938 L 111.765625 153.460938 L 111.765625 158.5 L 112.589844 158.5 L 112.589844 155.648438 C 112.625 154.757812 113.164062 154.074219 113.96875 154.074219 L 114.023438 154.074219 C 114.863281 154.074219 115.105469 154.597656 115.105469 155.492188 L 115.105469 158.5 L 115.910156 158.5 L 115.910156 155.648438 C 115.929688 154.703125 116.402344 154.074219 117.382812 154.074219 C 118.222656 154.074219 118.464844 154.652344 118.464844 155.492188 L 118.464844 158.5 Z M 119.253906 158.5 "/>
<path fill-rule="nonzero" fill="rgb(0%, 0%, 0%)" fill-opacity="1" d="M 125.054688 155.980469 L 125.054688 155.894531 C 125.054688 154.441406 124.460938 153.375 122.796875 153.339844 C 121.3125 153.339844 120.472656 154.632812 120.472656 156.035156 C 120.472656 157.554688 121.398438 158.640625 122.9375 158.640625 C 123.636719 158.640625 124.265625 158.484375 124.878906 158.253906 L 124.878906 157.414062 C 124.074219 157.800781 123.953125 157.886719 123.007812 157.886719 C 121.957031 157.886719 121.328125 157.257812 121.328125 156.070312 L 121.328125 155.980469 Z M 124.230469 155.300781 L 121.363281 155.300781 C 121.46875 154.632812 121.957031 154.058594 122.796875 154.058594 C 123.671875 154.058594 124.230469 154.597656 124.230469 155.300781 Z M 124.230469 155.300781 "/>
<path fill-rule="nonzero" fill="rgb(0%, 0%, 0%)" fill-opacity="1" d="M 128.949219 158.5 L 128.949219 157.78125 L 128.074219 157.78125 C 127.285156 157.78125 127.144531 157.589844 127.144531 156.855469 L 127.144531 154.125 L 128.632812 154.125 L 128.632812 153.460938 L 127.144531 153.460938 L 127.144531 152.027344 L 126.796875 152.027344 L 126.324219 153.460938 L 125.730469 153.460938 L 125.730469 154.125 L 126.324219 154.125 L 126.324219 156.855469 C 126.324219 158.117188 126.832031 158.5 128.074219 158.5 Z M 128.949219 158.5 "/>
<path fill-rule="nonzero" fill="rgb(0%, 0%, 0%)" fill-opacity="1" d="M 133.964844 155.980469 L 133.964844 155.894531 C 133.964844 154.441406 133.371094 153.375 131.710938 153.339844 C 130.222656 153.339844 129.382812 154.632812 129.382812 156.035156 C 129.382812 157.554688 130.308594 158.640625 131.847656 158.640625 C 132.550781 158.640625 133.179688 158.484375 133.792969 158.253906 L 133.792969 157.414062 C 132.988281 157.800781 132.863281 157.886719 131.917969 157.886719 C 130.871094 157.886719 130.238281 157.257812 130.238281 156.070312 L 130.238281 155.980469 Z M 133.144531 155.300781 L 130.273438 155.300781 C 130.378906 154.632812 130.871094 154.058594 131.710938 154.058594 C 132.585938 154.058594 133.144531 154.597656 133.144531 155.300781 Z M 133.144531 155.300781 "/>
<path fill-rule="nonzero" fill="rgb(0%, 0%, 0%)" fill-opacity="1" d="M 137.976562 154.476562 L 138.238281 153.671875 C 138.117188 153.53125 137.574219 153.390625 137.207031 153.390625 C 136.683594 153.410156 136.246094 153.671875 136.015625 154.144531 L 136.015625 153.460938 L 135.175781 153.460938 L 135.175781 158.5 L 136.015625 158.5 L 136.015625 155.839844 C 136.015625 155.824219 136.015625 155.804688 136.015625 155.804688 C 136.015625 155.070312 136.402344 154.109375 137.1875 154.109375 L 137.242188 154.109375 C 137.503906 154.109375 137.714844 154.265625 137.976562 154.476562 Z M 137.976562 154.476562 "/>
<path fill-rule="nonzero" fill="rgb(0%, 0%, 0%)" fill-opacity="1" d="M 142.738281 157.101562 C 142.738281 156.105469 142.054688 155.789062 141.148438 155.613281 L 140.796875 155.542969 C 140.308594 155.4375 139.589844 155.332031 139.589844 154.792969 C 139.625 154.160156 140.359375 154.039062 140.917969 154.039062 C 141.8125 154.074219 141.742188 154.125 142.492188 154.441406 L 142.492188 153.621094 C 142.023438 153.425781 141.425781 153.339844 140.816406 153.339844 C 139.816406 153.339844 138.835938 153.707031 138.835938 154.828125 C 138.855469 155.734375 139.46875 156.085938 140.308594 156.242188 L 140.621094 156.3125 C 141.234375 156.453125 141.933594 156.523438 141.933594 157.171875 C 141.898438 157.800781 141.183594 157.921875 140.621094 157.921875 C 139.695312 157.90625 139.554688 157.800781 138.75 157.414062 L 138.75 158.324219 C 139.222656 158.449219 140.042969 158.640625 140.605469 158.640625 C 141.585938 158.640625 142.738281 158.273438 142.738281 157.101562 Z M 142.738281 157.101562 "/>
<path fill-rule="nonzero" fill="rgb(0%, 0%, 0%)" fill-opacity="1" d="M 145.050781 157.363281 L 144.035156 157.363281 L 144.035156 158.132812 C 144.105469 158.273438 144.125 158.414062 144.125 158.550781 C 144.125 158.953125 143.914062 159.375 143.617188 159.566406 C 144.195312 159.550781 145.035156 158.691406 145.050781 158.148438 Z M 145.050781 157.363281 "/>
<g clip-path="url(#clip-0)">
<path fill-rule="nonzero" fill="rgb(0%, 0%, 0%)" fill-opacity="1" d="M 154.679688 151.082031 C 154.714844 150.941406 154.714844 150.925781 154.714844 150.90625 C 154.714844 150.75 154.558594 150.75 154.453125 150.75 C 154.226562 150.75 154.226562 150.785156 154.15625 151.011719 L 153.613281 153.21875 C 153.5625 153.375 153.5625 153.375 153.542969 153.390625 C 153.527344 153.390625 153.507812 153.410156 153.332031 153.425781 C 151.023438 153.550781 149.660156 155.140625 149.660156 156.558594 C 149.660156 157.746094 150.621094 158.570312 152.25 158.621094 L 151.777344 160.597656 C 151.777344 160.757812 151.933594 160.757812 152.039062 160.757812 C 152.214844 160.757812 152.265625 160.738281 152.320312 160.546875 L 152.703125 158.988281 C 152.773438 158.675781 152.792969 158.65625 152.808594 158.640625 C 152.824219 158.640625 152.84375 158.640625 153.019531 158.621094 C 155.292969 158.484375 156.691406 156.925781 156.691406 155.492188 C 156.691406 154.285156 155.730469 153.480469 154.101562 153.425781 Z M 152.355469 158.21875 C 151.390625 158.167969 150.796875 157.746094 150.796875 156.855469 C 150.796875 156.539062 150.917969 155.507812 151.515625 154.773438 C 151.898438 154.285156 152.546875 153.898438 153.457031 153.828125 Z M 154 153.828125 C 154.960938 153.882812 155.554688 154.285156 155.554688 155.195312 C 155.554688 155.507812 155.433594 156.539062 154.835938 157.277344 C 154.453125 157.765625 153.804688 158.148438 152.894531 158.21875 Z M 154 153.828125 "/>
</g>
<path fill-rule="nonzero" fill="rgb(50.195312%, 50.195312%, 50.195312%)" fill-opacity="1" d="M 48.589844 140.863281 C 48.578125 139.699219 48.320312 138.015625 46.84375 138.015625 C 45.371094 138.015625 45.121094 139.722656 45.121094 140.863281 C 45.121094 142.015625 45.382812 143.6875 46.84375 143.6875 C 48.304688 143.6875 48.589844 142.015625 48.589844 140.863281 Z M 48.019531 140.863281 C 48.019531 141.617188 47.960938 143.167969 46.84375 143.167969 C 45.730469 143.167969 45.691406 141.59375 45.691406 140.863281 C 45.691406 140.121094 45.71875 138.523438 46.84375 138.523438 C 47.960938 138.523438 48.019531 140.132812 48.019531 140.863281 Z M 48.019531 140.863281 "/>
<path fill-rule="nonzero" fill="rgb(50.195312%, 50.195312%, 50.195312%)" fill-opacity="1" d="M 49.605469 142.769531 L 50.359375 142.769531 L 50.359375 143.574219 L 49.605469 143.574219 Z M 49.605469 142.769531 "/>
<path fill-rule="nonzero" fill="rgb(50.195312%, 50.195312%, 50.195312%)" fill-opacity="1" d="M 54.835938 140.863281 C 54.824219 139.699219 54.566406 138.015625 53.089844 138.015625 C 51.617188 138.015625 51.371094 139.722656 51.371094 140.863281 C 51.371094 142.015625 51.628906 143.6875 53.089844 143.6875 C 54.554688 143.6875 54.835938 142.015625 54.835938 140.863281 Z M 54.269531 140.863281 C 54.269531 141.617188 54.207031 143.167969 53.089844 143.167969 C 51.976562 143.167969 51.941406 141.59375 51.941406 140.863281 C 51.941406 140.121094 51.964844 138.523438 53.089844 138.523438 C 54.207031 138.523438 54.269531 140.132812 54.269531 140.863281 Z M 54.269531 140.863281 "/>
<path fill-rule="nonzero" fill="rgb(50.195312%, 50.195312%, 50.195312%)" fill-opacity="1" d="M 176.105469 146.714844 C 176.089844 145.601562 175.398438 144.871094 174.28125 144.871094 C 174.132812 144.882812 173.800781 144.921875 173.601562 144.996094 L 173.800781 143.558594 L 175.730469 143.558594 L 175.730469 142.988281 L 173.402344 142.988281 L 173.070312 145.6875 C 173.503906 145.476562 173.601562 145.429688 174.160156 145.429688 C 174.964844 145.429688 175.535156 145.875 175.535156 146.714844 C 175.535156 147.582031 174.976562 148.003906 174.160156 148.003906 C 173.613281 148.003906 173.253906 147.894531 172.859375 147.644531 L 172.859375 148.328125 C 173.21875 148.464844 173.75 148.5625 174.171875 148.5625 C 175.347656 148.5625 176.105469 147.917969 176.105469 146.714844 Z M 176.105469 146.714844 "/>
<path fill-rule="nonzero" fill="rgb(50.195312%, 50.195312%, 50.195312%)" fill-opacity="1" d="M 150.972656 147.207031 L 150.972656 146.636719 L 150.230469 146.636719 L 150.230469 143.042969 L 149.4375 143.042969 L 147.316406 146.511719 L 147.316406 147.207031 L 149.632812 147.207031 L 149.632812 148.507812 L 150.230469 148.507812 L 150.230469 147.207031 Z M 149.632812 146.636719 L 147.765625 146.636719 L 149.632812 143.625 Z M 149.632812 146.636719 "/>
<path fill-rule="nonzero" fill="rgb(50.195312%, 50.195312%, 50.195312%)" fill-opacity="1" d="M 125.707031 146.914062 C 125.707031 146.308594 125.335938 145.75 124.640625 145.550781 C 125.234375 145.328125 125.582031 144.894531 125.582031 144.324219 C 125.582031 143.371094 124.789062 142.9375 123.921875 142.9375 C 123.488281 142.9375 122.957031 143.039062 122.574219 143.160156 L 122.574219 143.769531 C 122.996094 143.621094 123.355469 143.496094 123.863281 143.496094 C 124.503906 143.496094 125.027344 143.730469 125.027344 144.425781 C 125.011719 145.058594 124.503906 145.316406 123.886719 145.316406 L 123.304688 145.316406 L 123.304688 145.851562 L 123.863281 145.851562 C 124.578125 145.851562 125.148438 146.160156 125.148438 146.914062 C 125.148438 147.804688 124.53125 148.054688 123.726562 148.054688 C 123.15625 148.054688 122.808594 147.957031 122.414062 147.683594 L 122.414062 148.351562 C 122.808594 148.488281 123.265625 148.613281 123.738281 148.613281 C 124.839844 148.613281 125.707031 148.117188 125.707031 146.914062 Z M 125.707031 146.914062 "/>
<path fill-rule="nonzero" fill="rgb(50.195312%, 50.195312%, 50.195312%)" fill-opacity="1" d="M 100.5 148.554688 L 100.5 147.984375 L 98.046875 147.984375 L 99.917969 145.878906 C 100.226562 145.445312 100.460938 145.113281 100.460938 144.542969 C 100.460938 143.527344 99.71875 142.996094 98.777344 142.996094 C 98.246094 142.996094 97.800781 143.15625 97.355469 143.339844 L 97.355469 144.046875 C 97.800781 143.761719 98.246094 143.550781 98.789062 143.550781 C 99.410156 143.550781 99.894531 143.9375 99.894531 144.578125 C 99.894531 145.011719 99.546875 145.546875 99.261719 145.84375 C 99.175781 145.96875 97.453125 147.851562 97.316406 147.984375 L 97.316406 148.554688 Z M 100.5 148.554688 "/>
<path fill-rule="nonzero" fill="rgb(50.195312%, 50.195312%, 50.195312%)" fill-opacity="1" d="M 74.5625 148.507812 L 74.5625 143.042969 L 73.90625 143.042969 L 73.128906 143.675781 L 73.128906 144.296875 L 73.945312 143.625 L 73.945312 148.507812 Z M 74.5625 148.507812 "/>
<path fill-rule="nonzero" fill="rgb(50.195312%, 50.195312%, 50.195312%)" fill-opacity="1" d="M 227.03125 140.390625 C 227.019531 139.226562 226.761719 137.539062 225.285156 137.539062 C 223.8125 137.539062 223.566406 139.25 223.566406 140.390625 C 223.566406 141.542969 223.824219 143.214844 225.285156 143.214844 C 226.746094 143.214844 227.03125 141.542969 227.03125 140.390625 Z M 226.460938 140.390625 C 226.460938 141.144531 226.402344 142.695312 225.285156 142.695312 C 224.171875 142.695312 224.132812 141.121094 224.132812 140.390625 C 224.132812 139.648438 224.160156 138.046875 225.285156 138.046875 C 226.402344 138.046875 226.460938 139.660156 226.460938 140.390625 Z M 226.460938 140.390625 "/>
<path fill-rule="nonzero" fill="rgb(50.195312%, 50.195312%, 50.195312%)" fill-opacity="1" d="M 228.046875 142.296875 L 228.800781 142.296875 L 228.800781 143.101562 L 228.046875 143.101562 Z M 228.046875 142.296875 "/>
<path fill-rule="nonzero" fill="rgb(50.195312%, 50.195312%, 50.195312%)" fill-opacity="1" d="M 233.28125 140.390625 C 233.265625 139.226562 233.007812 137.539062 231.53125 137.539062 C 230.058594 137.539062 229.8125 139.25 229.8125 140.390625 C 229.8125 141.542969 230.070312 143.214844 231.53125 143.214844 C 232.996094 143.214844 233.28125 141.542969 233.28125 140.390625 Z M 232.710938 140.390625 C 232.710938 141.144531 232.648438 142.695312 231.53125 142.695312 C 230.417969 142.695312 230.382812 141.121094 230.382812 140.390625 C 230.382812 139.648438 230.40625 138.046875 231.53125 138.046875 C 232.648438 138.046875 232.710938 139.660156 232.710938 140.390625 Z M 232.710938 140.390625 "/>
<path fill-rule="nonzero" fill="rgb(50.195312%, 50.195312%, 50.195312%)" fill-opacity="1" d="M 364.996094 148.824219 L 364.996094 143.363281 L 364.339844 143.363281 L 363.558594 143.992188 L 363.558594 144.613281 L 364.378906 143.945312 L 364.378906 148.824219 Z M 364.996094 148.824219 "/>
<path fill-rule="nonzero" fill="rgb(50.195312%, 50.195312%, 50.195312%)" fill-opacity="1" d="M 366.183594 148.019531 L 366.941406 148.019531 L 366.941406 148.824219 L 366.183594 148.824219 Z M 366.183594 148.019531 "/>
<path fill-rule="nonzero" fill="rgb(50.195312%, 50.195312%, 50.195312%)" fill-opacity="1" d="M 371.417969 146.113281 C 371.40625 144.949219 371.144531 143.261719 369.671875 143.261719 C 368.199219 143.261719 367.949219 144.972656 367.949219 146.113281 C 367.949219 147.261719 368.210938 148.9375 369.671875 148.9375 C 371.132812 148.9375 371.417969 147.261719 371.417969 146.113281 Z M 370.847656 146.113281 C 370.847656 146.867188 370.785156 148.414062 369.671875 148.414062 C 368.558594 148.414062 368.519531 146.84375 368.519531 146.113281 C 368.519531 145.367188 368.542969 143.769531 369.671875 143.769531 C 370.785156 143.769531 370.847656 145.382812 370.847656 146.113281 Z M 370.847656 146.113281 "/>
<path fill-rule="nonzero" fill="rgb(50.195312%, 50.195312%, 50.195312%)" fill-opacity="1" d="M 48.988281 10.519531 C 48.976562 9.355469 48.714844 7.671875 47.242188 7.671875 C 45.765625 7.671875 45.519531 9.378906 45.519531 10.519531 C 45.519531 11.671875 45.777344 13.34375 47.242188 13.34375 C 48.703125 13.34375 48.988281 11.671875 48.988281 10.519531 Z M 48.417969 10.519531 C 48.417969 11.273438 48.355469 12.824219 47.242188 12.824219 C 46.125 12.824219 46.089844 11.25 46.089844 10.519531 C 46.089844 9.777344 46.113281 8.179688 47.242188 8.179688 C 48.355469 8.179688 48.417969 9.789062 48.417969 10.519531 Z M 48.417969 10.519531 "/>
<path fill-rule="nonzero" fill="rgb(50.195312%, 50.195312%, 50.195312%)" fill-opacity="1" d="M 50 12.425781 L 50.753906 12.425781 L 50.753906 13.230469 L 50 13.230469 Z M 50 12.425781 "/>
<path fill-rule="nonzero" fill="rgb(50.195312%, 50.195312%, 50.195312%)" fill-opacity="1" d="M 54.835938 11.5 C 54.824219 10.382812 54.132812 9.652344 53.015625 9.652344 C 52.867188 9.664062 52.535156 9.703125 52.335938 9.777344 L 52.535156 8.339844 L 54.464844 8.339844 L 54.464844 7.769531 L 52.136719 7.769531 L 51.804688 10.46875 C 52.238281 10.257812 52.335938 10.210938 52.894531 10.210938 C 53.699219 10.210938 54.269531 10.65625 54.269531 11.5 C 54.269531 12.367188 53.710938 12.785156 52.894531 12.785156 C 52.347656 12.785156 51.988281 12.675781 51.59375 12.425781 L 51.59375 13.109375 C 51.953125 13.246094 52.484375 13.34375 52.90625 13.34375 C 54.082031 13.34375 54.835938 12.699219 54.835938 11.5 Z M 54.835938 11.5 "/>
<path fill-rule="nonzero" fill="rgb(50.195312%, 50.195312%, 50.195312%)" fill-opacity="1" d="M 235.882812 146.113281 C 235.871094 144.949219 235.609375 143.261719 234.136719 143.261719 C 232.660156 143.261719 232.414062 144.972656 232.414062 146.113281 C 232.414062 147.261719 232.675781 148.9375 234.136719 148.9375 C 235.597656 148.9375 235.882812 147.261719 235.882812 146.113281 Z M 235.3125 146.113281 C 235.3125 146.867188 235.25 148.414062 234.136719 148.414062 C 233.019531 148.414062 232.984375 146.84375 232.984375 146.113281 C 232.984375 145.367188 233.007812 143.769531 234.136719 143.769531 C 235.25 143.769531 235.3125 145.382812 235.3125 146.113281 Z M 235.3125 146.113281 "/>
<path fill-rule="nonzero" fill="rgb(50.195312%, 50.195312%, 50.195312%)" fill-opacity="1" d="M 236.894531 148.019531 L 237.652344 148.019531 L 237.652344 148.824219 L 236.894531 148.824219 Z M 236.894531 148.019531 "/>
<path fill-rule="nonzero" fill="rgb(50.195312%, 50.195312%, 50.195312%)" fill-opacity="1" d="M 242.128906 146.113281 C 242.117188 144.949219 241.855469 143.261719 240.382812 143.261719 C 238.910156 143.261719 238.660156 144.972656 238.660156 146.113281 C 238.660156 147.261719 238.921875 148.9375 240.382812 148.9375 C 241.84375 148.9375 242.128906 147.261719 242.128906 146.113281 Z M 241.558594 146.113281 C 241.558594 146.867188 241.496094 148.414062 240.382812 148.414062 C 239.269531 148.414062 239.230469 146.84375 239.230469 146.113281 C 239.230469 145.367188 239.253906 143.769531 240.382812 143.769531 C 241.496094 143.769531 241.558594 145.382812 241.558594 146.113281 Z M 241.558594 146.113281 "/>
<path fill-rule="nonzero" fill="rgb(0%, 0%, 0%)" fill-opacity="1" d="M 284.796875 150.785156 L 285.636719 150.785156 L 285.636719 158.5 L 284.796875 158.5 Z M 284.796875 150.785156 "/>
<path fill-rule="nonzero" fill="rgb(0%, 0%, 0%)" fill-opacity="1" d="M 291.511719 158.5 L 291.511719 155.457031 C 291.511719 154.265625 291.003906 153.339844 289.710938 153.339844 C 289.0625 153.339844 288.398438 153.585938 287.996094 154.144531 L 287.996094 153.460938 L 287.171875 153.460938 L 287.171875 158.5 L 287.996094 158.5 L 287.996094 155.648438 C 288.03125 154.6875 288.625 154.074219 289.519531 154.074219 C 290.390625 154.074219 290.707031 154.597656 290.707031 155.492188 L 290.707031 158.5 Z M 291.511719 158.5 "/>
<g clip-path="url(#clip-1)">
<path fill-rule="nonzero" fill="rgb(0%, 0%, 0%)" fill-opacity="1" d="M 297.601562 155.980469 C 297.601562 154.511719 296.625 153.460938 295.136719 153.460938 L 292.984375 153.460938 L 292.984375 161.195312 L 293.824219 161.195312 L 293.824219 158.5 L 295.066406 158.5 C 296.691406 158.5 297.601562 157.484375 297.601562 155.980469 Z M 296.796875 155.980469 C 296.796875 156.976562 296.167969 157.765625 295.066406 157.765625 L 293.824219 157.765625 L 293.824219 154.195312 L 295.066406 154.195312 C 296.152344 154.195312 296.796875 154.914062 296.796875 155.980469 Z M 296.796875 155.980469 "/>
</g>
<path fill-rule="nonzero" fill="rgb(0%, 0%, 0%)" fill-opacity="1" d="M 303.1875 158.5 L 303.1875 153.460938 L 302.332031 153.460938 L 302.332031 156.3125 C 302.332031 157.257812 301.859375 157.90625 300.84375 157.90625 C 299.953125 157.90625 299.636719 157.34375 299.636719 156.488281 L 299.636719 153.460938 L 298.832031 153.460938 L 298.832031 156.507812 C 298.832031 157.695312 299.390625 158.640625 300.652344 158.640625 C 301.300781 158.640625 301.964844 158.273438 302.332031 157.835938 L 302.332031 158.5 Z M 303.1875 158.5 "/>
<path fill-rule="nonzero" fill="rgb(0%, 0%, 0%)" fill-opacity="1" d="M 307.546875 158.5 L 307.546875 157.78125 L 306.671875 157.78125 C 305.882812 157.78125 305.742188 157.589844 305.742188 156.855469 L 305.742188 154.125 L 307.230469 154.125 L 307.230469 153.460938 L 305.742188 153.460938 L 305.742188 152.027344 L 305.394531 152.027344 L 304.921875 153.460938 L 304.328125 153.460938 L 304.328125 154.125 L 304.921875 154.125 L 304.921875 156.855469 C 304.921875 158.117188 305.429688 158.5 306.671875 158.5 Z M 307.546875 158.5 "/>
<path fill-rule="nonzero" fill="rgb(0%, 0%, 0%)" fill-opacity="1" d="M 309.660156 157.363281 L 308.648438 157.363281 L 308.648438 158.132812 C 308.71875 158.273438 308.734375 158.414062 308.734375 158.550781 C 308.734375 158.953125 308.523438 159.375 308.226562 159.566406 C 308.804688 159.550781 309.644531 158.691406 309.660156 158.148438 Z M 309.660156 157.363281 "/>
<path fill-rule="nonzero" fill="rgb(0%, 0%, 0%)" fill-opacity="1" d="M 316.84375 150.875 C 316.84375 150.875 316.84375 150.75 316.703125 150.75 C 316.441406 150.75 315.636719 150.839844 315.339844 150.875 C 315.25 150.875 315.128906 150.890625 315.128906 151.082031 C 315.128906 151.222656 315.234375 151.222656 315.390625 151.222656 C 315.933594 151.222656 315.949219 151.292969 315.949219 151.414062 L 315.914062 151.644531 L 314.304688 158.0625 C 314.253906 158.21875 314.253906 158.238281 314.253906 158.308594 C 314.253906 158.570312 314.480469 158.621094 314.585938 158.621094 C 314.761719 158.621094 314.9375 158.484375 314.988281 158.324219 L 315.199219 157.484375 L 315.441406 156.488281 C 315.511719 156.226562 315.582031 155.980469 315.636719 155.734375 C 315.652344 155.667969 315.757812 155.300781 315.757812 155.230469 C 315.792969 155.125 316.144531 154.511719 316.527344 154.195312 C 316.773438 154.023438 317.105469 153.8125 317.59375 153.8125 C 318.066406 153.8125 318.191406 154.195312 318.191406 154.597656 C 318.191406 155.195312 317.769531 156.417969 317.507812 157.101562 C 317.417969 157.34375 317.351562 157.484375 317.351562 157.714844 C 317.351562 158.238281 317.753906 158.621094 318.277344 158.621094 C 319.328125 158.621094 319.730469 156.996094 319.730469 156.910156 C 319.730469 156.785156 319.640625 156.785156 319.605469 156.785156 C 319.484375 156.785156 319.484375 156.820312 319.429688 156.996094 C 319.273438 157.589844 318.90625 158.378906 318.292969 158.378906 C 318.101562 158.378906 318.03125 158.273438 318.03125 158.011719 C 318.03125 157.730469 318.121094 157.46875 318.222656 157.222656 C 318.398438 156.734375 318.90625 155.402344 318.90625 154.757812 C 318.90625 154.039062 318.46875 153.566406 317.628906 153.566406 C 316.929688 153.566406 316.386719 153.917969 315.96875 154.425781 Z M 316.84375 150.875 "/>
<path fill-rule="nonzero" fill="rgb(50.195312%, 50.195312%, 50.195312%)" fill-opacity="1" d="M 226.859375 12.867188 L 226.859375 7.40625 L 226.203125 7.40625 L 225.421875 8.035156 L 225.421875 8.65625 L 226.238281 7.988281 L 226.238281 12.867188 Z M 226.859375 12.867188 "/>
<path fill-rule="nonzero" fill="rgb(50.195312%, 50.195312%, 50.195312%)" fill-opacity="1" d="M 228.046875 12.0625 L 228.800781 12.0625 L 228.800781 12.867188 L 228.046875 12.867188 Z M 228.046875 12.0625 "/>
<path fill-rule="nonzero" fill="rgb(50.195312%, 50.195312%, 50.195312%)" fill-opacity="1" d="M 233.28125 10.15625 C 233.265625 8.988281 233.007812 7.304688 231.53125 7.304688 C 230.058594 7.304688 229.8125 9.015625 229.8125 10.15625 C 229.8125 11.304688 230.070312 12.976562 231.53125 12.976562 C 232.996094 12.976562 233.28125 11.304688 233.28125 10.15625 Z M 232.710938 10.15625 C 232.710938 10.910156 232.648438 12.457031 231.53125 12.457031 C 230.417969 12.457031 230.382812 10.886719 230.382812 10.15625 C 230.382812 9.410156 230.40625 7.8125 231.53125 7.8125 C 232.648438 7.8125 232.710938 9.421875 232.710938 10.15625 Z M 232.710938 10.15625 "/>
<path fill="none" stroke-width="0.850394" stroke-linecap="butt" stroke-linejoin="miter" stroke="rgb(50.195312%, 50.195312%, 50.195312%)" stroke-opacity="1" stroke-miterlimit="4" d="M 236.894531 140.523438 L 234.816406 140.523438 "/>
<path fill="none" stroke-width="0.850394" stroke-linecap="butt" stroke-linejoin="miter" stroke="rgb(50.195312%, 50.195312%, 50.195312%)" stroke-opacity="1" stroke-miterlimit="4" d="M 236.992188 62.328125 L 235.574219 62.328125 "/>
<path fill="none" stroke-width="0.850394" stroke-linecap="butt" stroke-linejoin="miter" stroke="rgb(50.195312%, 50.195312%, 50.195312%)" stroke-opacity="1" stroke-miterlimit="4" d="M 236.992188 88.390625 L 235.574219 88.390625 "/>
<path fill="none" stroke-width="0.850394" stroke-linecap="butt" stroke-linejoin="miter" stroke="rgb(50.195312%, 50.195312%, 50.195312%)" stroke-opacity="1" stroke-miterlimit="4" d="M 236.992188 114.457031 L 235.574219 114.457031 "/>
<path fill="none" stroke-width="0.850394" stroke-linecap="butt" stroke-linejoin="miter" stroke="rgb(50.195312%, 50.195312%, 50.195312%)" stroke-opacity="1" stroke-miterlimit="4" d="M 236.992188 36.261719 L 235.574219 36.261719 "/>
<path fill="none" stroke-width="0.850394" stroke-linecap="butt" stroke-linejoin="miter" stroke="rgb(50.195312%, 50.195312%, 50.195312%)" stroke-opacity="1" stroke-miterlimit="4" d="M 236.992188 9.90625 L 234.914062 9.90625 "/>
<path fill="none" stroke-width="0.751178" stroke-linecap="butt" stroke-linejoin="miter" stroke="rgb(25.881958%, 29.411316%, 30.979919%)" stroke-opacity="1" stroke-dasharray="0.751178 0.751178" stroke-miterlimit="4" d="M 154.378906 72.472656 L 165.917969 72.472656 "/>
<path fill-rule="nonzero" fill="rgb(81.959534%, 51.371765%, 38.430786%)" fill-opacity="1" d="M 137.949219 127.277344 L 160.34375 127.277344 L 160.34375 140.53125 L 137.949219 140.53125 Z M 137.949219 127.277344 "/>
<path fill="none" stroke-width="1.034646" stroke-linecap="butt" stroke-linejoin="miter" stroke="rgb(46.665955%, 23.529053%, 13.725281%)" stroke-opacity="1" stroke-miterlimit="4" d="M 160.539062 140.53125 L 160.539062 127.277344 L 137.992188 127.277344 L 137.992188 140.53125 "/>
<path fill-rule="nonzero" fill="rgb(62.744141%, 85.096741%, 82.743835%)" fill-opacity="1" d="M 87.710938 115.726562 L 110.105469 115.726562 L 110.105469 140.53125 L 87.710938 140.53125 Z M 87.710938 115.726562 "/>
<path fill="none" stroke-width="1.034646" stroke-linecap="butt" stroke-linejoin="miter" stroke="rgb(20.391846%, 51.371765%, 47.842407%)" stroke-opacity="1" stroke-miterlimit="4" d="M 110.257812 140.53125 L 110.257812 115.726562 L 87.710938 115.726562 L 87.710938 140.53125 "/>
<path fill-rule="nonzero" fill="rgb(81.959534%, 51.371765%, 38.430786%)" fill-opacity="1" d="M 62.726562 88.195312 L 85.121094 88.195312 L 85.121094 140.53125 L 62.726562 140.53125 Z M 62.726562 88.195312 "/>
<path fill="none" stroke-width="1.156827" stroke-linecap="butt" stroke-linejoin="miter" stroke="rgb(46.665955%, 23.529053%, 13.725281%)" stroke-opacity="1" stroke-miterlimit="4" d="M 78.220908 140.53125 L 78.220908 88.390625 L 106.412274 88.390625 L 106.412274 140.53125 " transform="matrix(0.799918, 0, 0, 1, 0, 0)"/>
<path fill-rule="nonzero" fill="rgb(68.234253%, 76.469421%, 81.175232%)" fill-opacity="1" d="M 163.285156 72.410156 L 185.679688 72.410156 L 185.679688 140.53125 L 163.285156 140.53125 Z M 163.285156 72.410156 "/>
<path fill="none" stroke-width="1.034646" stroke-linecap="butt" stroke-linejoin="miter" stroke="rgb(27.842712%, 40.391541%, 47.450256%)" stroke-opacity="1" stroke-miterlimit="4" d="M 163.128906 140.53125 L 163.128906 72.605469 L 185.679688 72.605469 L 185.679688 140.53125 "/>
<path fill-rule="nonzero" fill="rgb(77.645874%, 80.39093%, 81.175232%)" fill-opacity="1" d="M 112.71875 37.125 L 135.398438 37.125 L 135.398438 140.53125 L 112.71875 140.53125 Z M 112.71875 37.125 "/>
<path fill="none" stroke-width="1.034646" stroke-linecap="butt" stroke-linejoin="miter" stroke="rgb(25.881958%, 29.411316%, 30.979919%)" stroke-opacity="1" stroke-miterlimit="4" d="M 112.851562 140.53125 L 112.851562 36.988281 L 135.398438 36.988281 L 135.398438 140.53125 "/>
<path fill="none" stroke-width="0.850394" stroke-linecap="butt" stroke-linejoin="miter" stroke="rgb(50.195312%, 50.195312%, 50.195312%)" stroke-opacity="1" stroke-miterlimit="4" d="M 58.851562 140.601562 L 56.773438 140.601562 "/>
<path fill="none" stroke-width="0.850394" stroke-linecap="butt" stroke-linejoin="miter" stroke="rgb(50.195312%, 50.195312%, 50.195312%)" stroke-opacity="1" stroke-miterlimit="4" d="M 58.949219 62.339844 L 57.53125 62.339844 "/>
<path fill="none" stroke-width="0.850394" stroke-linecap="butt" stroke-linejoin="miter" stroke="rgb(50.195312%, 50.195312%, 50.195312%)" stroke-opacity="1" stroke-miterlimit="4" d="M 58.949219 88.425781 L 57.53125 88.425781 "/>
<path fill="none" stroke-width="0.850394" stroke-linecap="butt" stroke-linejoin="miter" stroke="rgb(50.195312%, 50.195312%, 50.195312%)" stroke-opacity="1" stroke-miterlimit="4" d="M 58.949219 114.511719 L 57.53125 114.511719 "/>
<path fill="none" stroke-width="0.850394" stroke-linecap="butt" stroke-linejoin="miter" stroke="rgb(50.195312%, 50.195312%, 50.195312%)" stroke-opacity="1" stroke-miterlimit="4" d="M 58.949219 36.253906 L 57.53125 36.253906 "/>
<path fill="none" stroke-width="0.751178" stroke-linecap="butt" stroke-linejoin="miter" stroke="rgb(25.881958%, 29.411316%, 30.979919%)" stroke-opacity="1" stroke-dasharray="0.751178 0.751178" stroke-miterlimit="4" d="M 101.3125 36.859375 L 112.851562 36.859375 "/>
<path fill="none" stroke-width="0.850394" stroke-linecap="butt" stroke-linejoin="miter" stroke="rgb(50.195312%, 50.195312%, 50.195312%)" stroke-opacity="1" stroke-miterlimit="4" d="M 58.949219 10.121094 L 56.871094 10.121094 "/>
<path fill="none" stroke-width="0.850394" stroke-linecap="butt" stroke-linejoin="round" stroke="rgb(1.176453%, 0%, 0%)" stroke-opacity="1" stroke-miterlimit="4" d="M 59.0625 10.121094 L 189.554688 10.121094 L 189.554688 140.601562 L 59.0625 140.601562 Z M 59.0625 10.121094 "/>
<path fill="none" stroke-width="0.867806" stroke-linecap="butt" stroke-linejoin="miter" stroke="rgb(50.195312%, 50.195312%, 50.195312%)" stroke-opacity="1" stroke-miterlimit="4" d="M -146.65909 367.488281 L -148.819132 367.488281 " transform="matrix(0, -0.960268, 1, 0, 0, 0)"/>
<path fill="none" stroke-width="0.867806" stroke-linecap="butt" stroke-linejoin="miter" stroke="rgb(50.195312%, 50.195312%, 50.195312%)" stroke-opacity="1" stroke-miterlimit="4" d="M -146.557393 289.25 L -148.034032 289.25 " transform="matrix(0, -0.960268, 1, 0, 0, 0)"/>
<path fill="none" stroke-width="0.867806" stroke-linecap="butt" stroke-linejoin="miter" stroke="rgb(50.195312%, 50.195312%, 50.195312%)" stroke-opacity="1" stroke-miterlimit="4" d="M -146.557393 315.328125 L -148.034032 315.328125 " transform="matrix(0, -0.960268, 1, 0, 0, 0)"/>
<path fill="none" stroke-width="0.867806" stroke-linecap="butt" stroke-linejoin="miter" stroke="rgb(50.195312%, 50.195312%, 50.195312%)" stroke-opacity="1" stroke-miterlimit="4" d="M -146.557393 341.410156 L -148.034032 341.410156 " transform="matrix(0, -0.960268, 1, 0, 0, 0)"/>
<path fill="none" stroke-width="0.867806" stroke-linecap="butt" stroke-linejoin="miter" stroke="rgb(50.195312%, 50.195312%, 50.195312%)" stroke-opacity="1" stroke-miterlimit="4" d="M -146.557393 263.171875 L -148.034032 263.171875 " transform="matrix(0, -0.960268, 1, 0, 0, 0)"/>
<path fill="none" stroke-width="0.867806" stroke-linecap="butt" stroke-linejoin="miter" stroke="rgb(50.195312%, 50.195312%, 50.195312%)" stroke-opacity="1" stroke-miterlimit="4" d="M -146.557393 237.09375 L -148.721503 237.09375 " transform="matrix(0, -0.960268, 1, 0, 0, 0)"/>
<path fill="none" stroke-width="0.850394" stroke-linecap="butt" stroke-linejoin="round" stroke="rgb(1.176453%, 0%, 0%)" stroke-opacity="1" stroke-miterlimit="4" d="M 237.019531 9.898438 L 367.507812 9.898438 L 367.507812 140.601562 L 237.019531 140.601562 Z M 237.019531 9.898438 "/>
<path fill-rule="nonzero" fill="rgb(0%, 0%, 0%)" fill-opacity="1" d="M 226.601562 92.554688 C 224.257812 92.554688 222.457031 94.164062 222.457031 96.015625 C 222.457031 97.921875 224.277344 99.496094 226.601562 99.496094 C 228.964844 99.496094 230.695312 97.851562 230.695312 96.035156 C 230.695312 94.164062 228.949219 92.554688 226.601562 92.554688 Z M 229.980469 96.015625 C 229.980469 97.328125 228.578125 98.5 226.429688 98.5 C 224.398438 98.5 223.175781 97.277344 223.175781 96.035156 C 223.175781 94.738281 224.433594 93.550781 226.429688 93.550781 C 228.613281 93.550781 229.980469 94.738281 229.980469 96.015625 Z M 229.980469 96.015625 "/>
<path fill-rule="nonzero" fill="rgb(0%, 0%, 0%)" fill-opacity="1" d="M 225.5 87.054688 L 225.5 87.929688 L 228.738281 87.929688 C 229.578125 87.929688 229.960938 88.558594 229.960938 89.277344 C 229.960938 90.0625 229.664062 90.152344 229.191406 90.152344 L 225.5 90.152344 L 225.5 91.007812 L 229.226562 91.007812 C 230.03125 91.007812 230.574219 90.761719 230.574219 89.835938 C 230.574219 89.242188 230.398438 88.453125 229.910156 87.894531 L 230.453125 87.894531 L 230.453125 87.054688 Z M 225.5 87.054688 "/>
<path fill-rule="nonzero" fill="rgb(0%, 0%, 0%)" fill-opacity="1" d="M 226.148438 84.195312 L 226.148438 82.621094 L 225.5 82.621094 L 225.5 84.195312 L 224.085938 84.195312 L 224.085938 84.964844 L 225.5 84.964844 L 225.5 85.945312 L 226.148438 85.945312 L 226.148438 85 L 229.121094 85 C 229.785156 85 230.574219 84.84375 230.574219 84.074219 C 230.574219 83.304688 230.292969 82.726562 230.15625 82.445312 L 229.488281 82.621094 C 229.734375 82.917969 229.855469 83.269531 229.855469 83.636719 C 229.855469 84.039062 229.523438 84.195312 228.929688 84.195312 Z M 226.148438 84.195312 "/>
<path fill-rule="nonzero" fill="rgb(0%, 0%, 0%)" fill-opacity="1" d="M 229.945312 80.34375 C 230.257812 79.992188 230.574219 79.503906 230.574219 78.835938 C 230.574219 77.753906 229.472656 76.773438 227.96875 76.773438 C 226.621094 76.773438 225.378906 77.472656 225.378906 78.539062 C 225.378906 79.207031 225.605469 79.851562 226.042969 80.378906 L 225.5 80.378906 L 225.5 81.214844 L 232.621094 81.214844 L 232.621094 80.34375 Z M 226.742188 80.34375 C 226.339844 80.078125 226.097656 79.640625 226.097656 79.152344 C 226.097656 78.3125 226.9375 77.648438 227.96875 77.648438 C 229.105469 77.648438 229.890625 78.433594 229.890625 79.273438 C 229.890625 79.710938 229.664062 80.007812 229.367188 80.238281 C 229.210938 80.34375 229.175781 80.34375 228.980469 80.34375 Z M 226.742188 80.34375 "/>
<path fill-rule="nonzero" fill="rgb(0%, 0%, 0%)" fill-opacity="1" d="M 225.5 71.5 L 225.5 72.375 L 228.738281 72.375 C 229.578125 72.375 229.960938 73.003906 229.960938 73.722656 C 229.960938 74.511719 229.664062 74.597656 229.191406 74.597656 L 225.5 74.597656 L 225.5 75.453125 L 229.226562 75.453125 C 230.03125 75.453125 230.574219 75.210938 230.574219 74.28125 C 230.574219 73.6875 230.398438 72.902344 229.910156 72.339844 L 230.453125 72.339844 L 230.453125 71.5 Z M 225.5 71.5 "/>
<path fill-rule="nonzero" fill="rgb(0%, 0%, 0%)" fill-opacity="1" d="M 226.148438 68.640625 L 226.148438 67.066406 L 225.5 67.066406 L 225.5 68.640625 L 224.085938 68.640625 L 224.085938 69.410156 L 225.5 69.410156 L 225.5 70.390625 L 226.148438 70.390625 L 226.148438 69.445312 L 229.121094 69.445312 C 229.785156 69.445312 230.574219 69.289062 230.574219 68.519531 C 230.574219 67.75 230.292969 67.171875 230.15625 66.890625 L 229.488281 67.066406 C 229.734375 67.363281 229.855469 67.714844 229.855469 68.082031 C 229.855469 68.484375 229.523438 68.640625 228.929688 68.640625 Z M 226.148438 68.640625 "/>
<path fill-rule="nonzero" fill="rgb(0%, 0%, 0%)" fill-opacity="1" d="M 230.433594 64.5625 L 229.523438 64.5625 L 229.523438 65.488281 L 230.453125 65.488281 L 230.453125 65.210938 L 231.851562 65.488281 L 231.851562 65.035156 Z M 230.433594 64.5625 "/>
<path fill-rule="nonzero" fill="rgb(0%, 0%, 0%)" fill-opacity="1" d="M 222.824219 56.554688 C 222.824219 56.554688 222.703125 56.554688 222.703125 56.695312 C 222.703125 56.957031 222.789062 57.761719 222.824219 58.058594 C 222.824219 58.148438 222.84375 58.269531 223.035156 58.269531 C 223.175781 58.269531 223.175781 58.164062 223.175781 58.007812 C 223.175781 57.464844 223.246094 57.449219 223.367188 57.449219 L 223.59375 57.484375 L 230.015625 59.09375 C 230.171875 59.144531 230.1875 59.144531 230.257812 59.144531 C 230.523438 59.144531 230.574219 58.917969 230.574219 58.8125 C 230.574219 58.636719 230.433594 58.460938 230.277344 58.410156 L 229.4375 58.199219 L 228.441406 57.953125 C 228.175781 57.886719 227.933594 57.816406 227.6875 57.761719 C 227.617188 57.746094 227.25 57.640625 227.179688 57.640625 C 227.074219 57.605469 226.464844 57.253906 226.148438 56.871094 C 225.972656 56.625 225.761719 56.292969 225.761719 55.804688 C 225.761719 55.332031 226.148438 55.207031 226.550781 55.207031 C 227.144531 55.207031 228.371094 55.628906 229.050781 55.890625 C 229.296875 55.976562 229.4375 56.046875 229.664062 56.046875 C 230.1875 56.046875 230.574219 55.644531 230.574219 55.121094 C 230.574219 54.070312 228.949219 53.667969 228.859375 53.667969 C 228.738281 53.667969 228.738281 53.757812 228.738281 53.792969 C 228.738281 53.914062 228.773438 53.914062 228.949219 53.964844 C 229.542969 54.125 230.328125 54.492188 230.328125 55.105469 C 230.328125 55.296875 230.222656 55.367188 229.960938 55.367188 C 229.683594 55.367188 229.417969 55.277344 229.175781 55.171875 C 228.683594 55 227.355469 54.492188 226.707031 54.492188 C 225.992188 54.492188 225.519531 54.929688 225.519531 55.769531 C 225.519531 56.46875 225.867188 57.011719 226.375 57.429688 Z M 222.824219 56.554688 "/>
<path fill-rule="nonzero" fill="rgb(0%, 0%, 0%)" fill-opacity="1" d="M 222.710938 51.074219 C 222.589844 51.003906 222.519531 51.003906 222.46875 51.003906 C 222.222656 51.003906 222.046875 51.214844 222.046875 51.457031 C 222.046875 51.757812 222.292969 51.84375 222.414062 51.878906 L 225.792969 52.910156 C 225.808594 52.929688 225.894531 52.964844 225.914062 52.964844 C 226 52.964844 226.089844 52.71875 226.089844 52.648438 C 226.089844 52.597656 226.070312 52.597656 225.949219 52.542969 Z M 222.710938 51.074219 "/>
<path fill-rule="nonzero" fill="rgb(0%, 0%, 0%)" fill-opacity="1" d="M 305.371094 84.027344 L 306.597656 84.027344 L 306.597656 83.378906 L 305.335938 83.378906 L 305.335938 82.050781 C 305.335938 81.226562 306.089844 81.140625 306.386719 81.140625 C 306.597656 81.140625 306.910156 81.15625 307.277344 81.332031 L 307.277344 80.582031 C 307.15625 80.546875 306.804688 80.457031 306.386719 80.457031 C 305.335938 80.457031 304.53125 81.261719 304.53125 82.363281 L 304.53125 83.378906 L 303.710938 83.378906 L 303.710938 84.027344 L 304.53125 84.027344 L 304.53125 88.332031 L 305.371094 88.332031 Z M 305.371094 84.027344 "/>
<path fill-rule="nonzero" fill="rgb(0%, 0%, 0%)" fill-opacity="1" d="M 309.671875 91.128906 L 309.671875 90.675781 L 308.585938 90.675781 L 308.585938 80.40625 L 309.671875 80.40625 L 309.671875 79.949219 L 308.132812 79.949219 L 308.132812 91.128906 Z M 309.671875 91.128906 "/>
<path fill-rule="nonzero" fill="rgb(0%, 0%, 0%)" fill-opacity="1" d="M 313.121094 80.703125 C 313.121094 80.703125 313.121094 80.582031 312.980469 80.582031 C 312.71875 80.582031 311.914062 80.667969 311.617188 80.703125 C 311.527344 80.703125 311.40625 80.722656 311.40625 80.914062 C 311.40625 81.054688 311.511719 81.054688 311.667969 81.054688 C 312.210938 81.054688 312.226562 81.125 312.226562 81.246094 L 312.191406 81.472656 L 310.582031 87.894531 C 310.53125 88.050781 310.53125 88.066406 310.53125 88.136719 C 310.53125 88.398438 310.757812 88.453125 310.863281 88.453125 C 311.039062 88.453125 311.214844 88.3125 311.265625 88.15625 L 311.476562 87.316406 L 311.722656 86.320312 C 311.789062 86.054688 311.859375 85.8125 311.914062 85.566406 C 311.929688 85.496094 312.035156 85.128906 312.035156 85.058594 C 312.070312 84.953125 312.421875 84.34375 312.804688 84.027344 C 313.050781 83.851562 313.382812 83.640625 313.871094 83.640625 C 314.34375 83.640625 314.46875 84.027344 314.46875 84.429688 C 314.46875 85.023438 314.046875 86.25 313.785156 86.929688 C 313.699219 87.175781 313.628906 87.316406 313.628906 87.542969 C 313.628906 88.066406 314.03125 88.453125 314.554688 88.453125 C 315.605469 88.453125 316.007812 86.824219 316.007812 86.738281 C 316.007812 86.617188 315.917969 86.617188 315.882812 86.617188 C 315.761719 86.617188 315.761719 86.652344 315.710938 86.824219 C 315.550781 87.421875 315.183594 88.207031 314.574219 88.207031 C 314.378906 88.207031 314.308594 88.101562 314.308594 87.839844 C 314.308594 87.558594 314.398438 87.296875 314.503906 87.054688 C 314.675781 86.5625 315.183594 85.234375 315.183594 84.585938 C 315.183594 83.871094 314.746094 83.398438 313.90625 83.398438 C 313.207031 83.398438 312.664062 83.746094 312.246094 84.253906 Z M 313.121094 80.703125 "/>
<path fill-rule="nonzero" fill="rgb(0%, 0%, 0%)" fill-opacity="1" d="M 318.621094 88.3125 C 318.621094 87.578125 318.339844 87.140625 317.902344 87.140625 C 317.535156 87.140625 317.308594 87.421875 317.308594 87.734375 C 317.308594 88.03125 317.535156 88.332031 317.902344 88.332031 C 318.023438 88.332031 318.183594 88.277344 318.285156 88.191406 C 318.320312 88.15625 318.339844 88.15625 318.339844 88.15625 C 318.355469 88.15625 318.355469 88.15625 318.355469 88.3125 C 318.355469 89.152344 317.972656 89.816406 317.605469 90.183594 C 317.484375 90.308594 317.484375 90.324219 317.484375 90.359375 C 317.484375 90.445312 317.535156 90.480469 317.585938 90.480469 C 317.710938 90.480469 318.621094 89.625 318.621094 88.3125 Z M 318.621094 88.3125 "/>
<path fill-rule="nonzero" fill="rgb(0%, 0%, 0%)" fill-opacity="1" d="M 326.953125 80.914062 C 326.988281 80.773438 326.988281 80.753906 326.988281 80.738281 C 326.988281 80.582031 326.832031 80.582031 326.726562 80.582031 C 326.5 80.582031 326.5 80.617188 326.429688 80.84375 L 325.886719 83.046875 C 325.832031 83.203125 325.832031 83.203125 325.816406 83.222656 C 325.796875 83.222656 325.78125 83.238281 325.605469 83.257812 C 323.296875 83.378906 321.933594 84.972656 321.933594 86.386719 C 321.933594 87.578125 322.894531 88.398438 324.519531 88.453125 L 324.050781 90.429688 C 324.050781 90.585938 324.207031 90.585938 324.3125 90.585938 C 324.488281 90.585938 324.539062 90.570312 324.589844 90.375 L 324.976562 88.820312 C 325.046875 88.503906 325.0625 88.488281 325.082031 88.46875 C 325.097656 88.46875 325.117188 88.46875 325.292969 88.453125 C 327.566406 88.3125 328.964844 86.753906 328.964844 85.320312 C 328.964844 84.113281 328.003906 83.308594 326.375 83.257812 Z M 324.625 88.050781 C 323.664062 87.996094 323.070312 87.578125 323.070312 86.6875 C 323.070312 86.371094 323.191406 85.339844 323.785156 84.605469 C 324.171875 84.113281 324.820312 83.730469 325.726562 83.660156 Z M 326.269531 83.660156 C 327.234375 83.710938 327.828125 84.113281 327.828125 85.023438 C 327.828125 85.339844 327.707031 86.371094 327.109375 87.105469 C 326.726562 87.59375 326.078125 87.980469 325.167969 88.050781 Z M 326.269531 83.660156 "/>
<path fill-rule="nonzero" fill="rgb(0%, 0%, 0%)" fill-opacity="1" d="M 331.015625 79.949219 L 329.496094 79.949219 L 329.496094 80.40625 L 330.578125 80.40625 L 330.578125 90.675781 L 329.496094 90.675781 L 329.496094 91.128906 L 331.015625 91.128906 Z M 331.015625 79.949219 "/>
<path fill-rule="nonzero" fill="rgb(0%, 0%, 0%)" fill-opacity="1" d="M 35.410156 6.398438 C 35.410156 5.113281 34.480469 4.222656 33.3125 4.222656 C 32.5 4.222656 31.925781 4.417969 31.332031 4.753906 L 31.410156 5.585938 C 32.0625 5.132812 32.699219 4.972656 33.3125 4.972656 C 33.90625 4.972656 34.417969 5.46875 34.417969 6.398438 L 34.417969 6.953125 C 32.519531 6.972656 30.917969 7.507812 30.917969 8.617188 C 30.917969 9.148438 31.253906 10.179688 32.359375 10.179688 C 32.539062 10.179688 33.726562 10.160156 34.460938 9.585938 L 34.460938 10.039062 L 35.410156 10.039062 Z M 34.417969 8.378906 C 34.417969 8.617188 34.417969 8.933594 33.984375 9.167969 C 33.628906 9.386719 33.132812 9.40625 32.996094 9.40625 C 32.402344 9.40625 31.828125 9.109375 31.828125 8.59375 C 31.828125 7.703125 33.867188 7.625 34.417969 7.585938 Z M 34.417969 8.378906 "/>
<path fill-rule="nonzero" fill="rgb(0%, 0%, 0%)" fill-opacity="1" d="M 37.910156 13.207031 C 38.308594 12.8125 39.160156 12.039062 39.734375 10.496094 C 40.246094 9.148438 40.328125 7.804688 40.328125 6.875 C 40.328125 2.796875 38.503906 1.132812 37.910156 0.558594 L 37.140625 0.558594 C 37.734375 1.171875 39.335938 2.796875 39.335938 6.875 C 39.335938 7.585938 39.296875 9.070312 38.78125 10.554688 C 38.269531 12.019531 37.554688 12.773438 37.140625 13.207031 Z M 37.910156 13.207031 "/>
<path fill-rule="nonzero" fill="rgb(0%, 0%, 0%)" fill-opacity="1" d="M 209.617188 1.273438 L 208.667969 1.273438 L 208.667969 10.039062 L 209.660156 10.039062 L 209.660156 9.464844 C 209.957031 9.742188 210.511719 10.179688 211.359375 10.179688 C 212.609375 10.179688 213.695312 8.914062 213.695312 7.230469 C 213.695312 5.667969 212.84375 4.300781 211.65625 4.300781 C 211.164062 4.300781 210.371094 4.417969 209.617188 5.03125 Z M 209.660156 5.804688 C 209.855469 5.507812 210.3125 5.074219 211.003906 5.074219 C 211.757812 5.074219 212.707031 5.605469 212.707031 7.230469 C 212.707031 8.871094 211.65625 9.40625 210.886719 9.40625 C 210.390625 9.40625 209.976562 9.1875 209.660156 8.59375 Z M 209.660156 5.804688 "/>
<path fill-rule="nonzero" fill="rgb(0%, 0%, 0%)" fill-opacity="1" d="M 215.644531 13.207031 C 216.042969 12.8125 216.890625 12.039062 217.464844 10.496094 C 217.980469 9.148438 218.058594 7.804688 218.058594 6.875 C 218.058594 2.796875 216.238281 1.132812 215.644531 0.558594 L 214.875 0.558594 C 215.46875 1.171875 217.070312 2.796875 217.070312 6.875 C 217.070312 7.585938 217.03125 9.070312 216.515625 10.554688 C 216 12.019531 215.289062 12.773438 214.875 13.207031 Z M 215.644531 13.207031 "/>
</svg>
