<?xml version="1.0" encoding="UTF-8"?>
<svg xmlns="http://www.w3.org/2000/svg" xmlns:xlink="http://www.w3.org/1999/xlink" width="407.135681pt" height="171.972275pt" viewBox="0 0 407.135681 171.972275">
<defs>
<clipPath id="clip-0">
<path clip-rule="nonzero" d="M 64 165 L 70 165 L 70 171.972656 L 64 171.972656 Z M 64 165 "/>
</clipPath>
<clipPath id="clip-1">
<path clip-rule="nonzero" d="M 393 165 L 399 165 L 399 171.972656 L 393 171.972656 Z M 393 165 "/>
</clipPath>
</defs>
<path fill-rule="nonzero" fill="rgb(81.959534%, 51.371765%, 38.430786%)" fill-opacity="0.683544" stroke-width="0.850394" stroke-linecap="butt" stroke-linejoin="round" stroke="rgb(46.665955%, 23.529053%, 13.725281%)" stroke-opacity="1" stroke-miterlimit="4" d="M 363.230469 0.660156 L 369.929688 0.660156 C 371.917969 0.660156 373.515625 2.257812 373.515625 4.242188 L 373.515625 154.21875 C 373.515625 156.203125 371.917969 157.800781 369.929688 157.800781 L 363.230469 157.800781 C 361.246094 157.800781 359.648438 156.203125 359.648438 154.21875 L 359.648438 4.242188 C 359.648438 2.257812 361.246094 0.660156 363.230469 0.660156 Z M 363.230469 0.660156 "/>
<path fill="none" stroke-width="1.034646" stroke-linecap="butt" stroke-linejoin="miter" stroke="rgb(0%, 0%, 0%)" stroke-opacity="1" stroke-miterlimit="4" d="M 64.085938 20.589844 L 93.550781 20.589844 "/>
<path fill-rule="evenodd" fill="rgb(0%, 0%, 0%)" fill-opacity="1" d="M 92.480469 18.445312 L 98.378906 20.589844 L 92.480469 22.734375 C 93.550781 21.488281 93.550781 19.703125 92.480469 18.445312 Z M 92.480469 18.445312 "/>
<path fill-rule="nonzero" fill="rgb(0%, 0%, 0%)" fill-opacity="1" d="M 64.925781 26.78125 L 64.925781 26.070312 L 64.109375 26.070312 C 63.296875 26.070312 62.480469 26.621094 62.445312 28.109375 L 62.445312 28.785156 L 61.613281 28.785156 L 61.613281 29.472656 L 62.445312 29.472656 L 62.445312 33.886719 L 63.296875 33.886719 L 63.296875 29.472656 L 64.730469 29.472656 L 64.730469 28.785156 L 63.296875 28.785156 L 63.296875 28.003906 C 63.296875 27.011719 63.863281 26.78125 64.09375 26.78125 Z M 64.925781 26.78125 "/>
<path fill-rule="nonzero" fill="rgb(0%, 0%, 0%)" fill-opacity="1" d="M 67.578125 30.550781 C 67.578125 30.335938 67.578125 30.335938 67.347656 30.335938 C 66.832031 30.832031 66.125 30.832031 65.804688 30.832031 L 65.804688 31.117188 C 65.984375 31.117188 66.515625 31.117188 66.941406 30.902344 L 66.941406 34.925781 C 66.941406 35.191406 66.941406 35.300781 66.160156 35.300781 L 65.859375 35.300781 L 65.859375 35.582031 C 66 35.582031 66.976562 35.546875 67.257812 35.546875 C 67.507812 35.546875 68.5 35.582031 68.675781 35.582031 L 68.675781 35.300781 L 68.375 35.300781 C 67.578125 35.300781 67.578125 35.191406 67.578125 34.925781 Z M 67.578125 30.550781 "/>
<path fill-rule="nonzero" fill="rgb(0%, 0%, 0%)" fill-opacity="1" d="M 72.898438 36.722656 L 72.898438 36.261719 L 71.796875 36.261719 L 71.796875 25.859375 L 72.898438 25.859375 L 72.898438 25.398438 L 71.335938 25.398438 L 71.335938 36.722656 Z M 72.898438 36.722656 "/>
<path fill-rule="nonzero" fill="rgb(0%, 0%, 0%)" fill-opacity="1" d="M 78.160156 31.050781 C 78.160156 29.847656 77.152344 28.871094 75.980469 28.871094 C 74.757812 28.871094 73.765625 29.882812 73.765625 31.050781 C 73.765625 32.257812 74.757812 33.25 75.980469 33.25 C 77.152344 33.25 78.160156 32.273438 78.160156 31.050781 Z M 78.160156 31.050781 "/>
<path fill-rule="nonzero" fill="rgb(0%, 0%, 0%)" fill-opacity="1" d="M 81.101562 33.871094 C 81.101562 33.125 80.816406 32.683594 80.375 32.683594 C 80 32.683594 79.769531 32.964844 79.769531 33.285156 C 79.769531 33.585938 80 33.886719 80.375 33.886719 C 80.496094 33.886719 80.65625 33.835938 80.761719 33.746094 C 80.800781 33.710938 80.816406 33.710938 80.816406 33.710938 C 80.835938 33.710938 80.835938 33.710938 80.835938 33.871094 C 80.835938 34.722656 80.445312 35.394531 80.074219 35.765625 C 79.949219 35.890625 79.949219 35.910156 79.949219 35.945312 C 79.949219 36.03125 80 36.066406 80.054688 36.066406 C 80.179688 36.066406 81.101562 35.199219 81.101562 33.871094 Z M 81.101562 33.871094 "/>
<path fill-rule="nonzero" fill="rgb(0%, 0%, 0%)" fill-opacity="1" d="M 89.542969 26.371094 C 89.578125 26.230469 89.578125 26.214844 89.578125 26.195312 C 89.578125 26.035156 89.417969 26.035156 89.3125 26.035156 C 89.082031 26.035156 89.082031 26.070312 89.011719 26.300781 L 88.460938 28.535156 C 88.410156 28.695312 88.410156 28.695312 88.390625 28.710938 C 88.375 28.710938 88.355469 28.730469 88.179688 28.746094 C 85.839844 28.871094 84.457031 30.484375 84.457031 31.921875 C 84.457031 33.125 85.429688 33.957031 87.078125 34.011719 L 86.601562 36.015625 C 86.601562 36.175781 86.761719 36.175781 86.867188 36.175781 C 87.042969 36.175781 87.097656 36.15625 87.152344 35.960938 L 87.539062 34.382812 C 87.613281 34.066406 87.628906 34.046875 87.648438 34.03125 C 87.664062 34.03125 87.683594 34.03125 87.859375 34.011719 C 90.164062 33.871094 91.582031 32.292969 91.582031 30.839844 C 91.582031 29.617188 90.605469 28.800781 88.957031 28.746094 Z M 87.1875 33.605469 C 86.210938 33.550781 85.609375 33.125 85.609375 32.222656 C 85.609375 31.902344 85.734375 30.855469 86.335938 30.113281 C 86.726562 29.617188 87.382812 29.226562 88.304688 29.15625 Z M 88.851562 29.15625 C 89.828125 29.207031 90.429688 29.617188 90.429688 30.539062 C 90.429688 30.855469 90.304688 31.902344 89.703125 32.648438 C 89.3125 33.144531 88.65625 33.535156 87.734375 33.605469 Z M 88.851562 29.15625 "/>
<path fill-rule="nonzero" fill="rgb(0%, 0%, 0%)" fill-opacity="1" d="M 94.511719 31.617188 C 94.511719 31.402344 94.511719 31.402344 94.28125 31.402344 C 93.765625 31.898438 93.058594 31.898438 92.738281 31.898438 L 92.738281 32.183594 C 92.917969 32.183594 93.449219 32.183594 93.875 31.972656 L 93.875 35.992188 C 93.875 36.261719 93.875 36.367188 93.09375 36.367188 L 92.792969 36.367188 L 92.792969 36.648438 C 92.933594 36.648438 93.910156 36.613281 94.191406 36.613281 C 94.441406 36.613281 95.433594 36.648438 95.609375 36.648438 L 95.609375 36.367188 L 95.308594 36.367188 C 94.511719 36.367188 94.511719 36.261719 94.511719 35.992188 Z M 94.511719 31.617188 "/>
<path fill-rule="nonzero" fill="rgb(0%, 0%, 0%)" fill-opacity="1" d="M 98.730469 25.398438 L 97.1875 25.398438 L 97.1875 25.859375 L 98.289062 25.859375 L 98.289062 36.261719 L 97.1875 36.261719 L 97.1875 36.722656 L 98.730469 36.722656 Z M 98.730469 25.398438 "/>
<path fill="none" stroke-width="1.034646" stroke-linecap="butt" stroke-linejoin="miter" stroke="rgb(0%, 0%, 0%)" stroke-opacity="1" stroke-miterlimit="4" d="M 147.015625 39.875 L 176.480469 39.875 "/>
<path fill-rule="evenodd" fill="rgb(0%, 0%, 0%)" fill-opacity="1" d="M 175.40625 37.730469 L 181.304688 39.875 L 175.40625 42.019531 C 176.480469 40.769531 176.480469 38.984375 175.40625 37.730469 Z M 175.40625 37.730469 "/>
<path fill-rule="nonzero" fill="rgb(0%, 0%, 0%)" fill-opacity="1" d="M 146.683594 45.722656 L 146.683594 45.011719 L 145.871094 45.011719 C 145.054688 45.011719 144.238281 45.5625 144.203125 47.050781 L 144.203125 47.722656 L 143.371094 47.722656 L 143.371094 48.414062 L 144.203125 48.414062 L 144.203125 52.828125 L 145.054688 52.828125 L 145.054688 48.414062 L 146.488281 48.414062 L 146.488281 47.722656 L 145.054688 47.722656 L 145.054688 46.945312 C 145.054688 45.953125 145.621094 45.722656 145.851562 45.722656 Z M 146.683594 45.722656 "/>
<path fill-rule="nonzero" fill="rgb(0%, 0%, 0%)" fill-opacity="1" d="M 150.683594 53.085938 L 150.417969 53.085938 C 150.402344 53.265625 150.3125 53.726562 150.207031 53.796875 C 150.152344 53.847656 149.550781 53.847656 149.425781 53.847656 L 147.972656 53.847656 C 148.804688 53.121094 149.089844 52.890625 149.550781 52.519531 C 150.136719 52.058594 150.683594 51.5625 150.683594 50.820312 C 150.683594 49.863281 149.851562 49.277344 148.839844 49.277344 C 147.867188 49.277344 147.191406 49.96875 147.191406 50.695312 C 147.191406 51.085938 147.53125 51.136719 147.617188 51.136719 C 147.796875 51.136719 148.027344 50.996094 148.027344 50.710938 C 148.027344 50.570312 147.972656 50.285156 147.566406 50.285156 C 147.8125 49.738281 148.34375 49.558594 148.71875 49.558594 C 149.515625 49.558594 149.921875 50.179688 149.921875 50.820312 C 149.921875 51.507812 149.425781 52.042969 149.179688 52.324219 L 147.28125 54.222656 C 147.191406 54.292969 147.191406 54.308594 147.191406 54.523438 L 150.453125 54.523438 Z M 150.683594 53.085938 "/>
<path fill-rule="nonzero" fill="rgb(0%, 0%, 0%)" fill-opacity="1" d="M 154.65625 55.664062 L 154.65625 55.203125 L 153.558594 55.203125 L 153.558594 44.800781 L 154.65625 44.800781 L 154.65625 44.339844 L 153.097656 44.339844 L 153.097656 55.664062 Z M 154.65625 55.664062 "/>
<path fill-rule="nonzero" fill="rgb(0%, 0%, 0%)" fill-opacity="1" d="M 159.921875 49.992188 C 159.921875 48.785156 158.910156 47.8125 157.742188 47.8125 C 156.519531 47.8125 155.527344 48.824219 155.527344 49.992188 C 155.527344 51.199219 156.519531 52.191406 157.742188 52.191406 C 158.910156 52.191406 159.921875 51.214844 159.921875 49.992188 Z M 159.921875 49.992188 "/>
<path fill-rule="nonzero" fill="rgb(0%, 0%, 0%)" fill-opacity="1" d="M 162.859375 52.808594 C 162.859375 52.066406 162.574219 51.621094 162.132812 51.621094 C 161.761719 51.621094 161.53125 51.90625 161.53125 52.226562 C 161.53125 52.527344 161.761719 52.828125 162.132812 52.828125 C 162.257812 52.828125 162.417969 52.773438 162.523438 52.6875 C 162.558594 52.652344 162.574219 52.652344 162.574219 52.652344 C 162.59375 52.652344 162.59375 52.652344 162.59375 52.808594 C 162.59375 53.660156 162.203125 54.335938 161.832031 54.707031 C 161.707031 54.832031 161.707031 54.847656 161.707031 54.882812 C 161.707031 54.972656 161.761719 55.007812 161.8125 55.007812 C 161.9375 55.007812 162.859375 54.140625 162.859375 52.808594 Z M 162.859375 52.808594 "/>
<path fill-rule="nonzero" fill="rgb(0%, 0%, 0%)" fill-opacity="1" d="M 171.300781 45.3125 C 171.339844 45.171875 171.339844 45.152344 171.339844 45.136719 C 171.339844 44.976562 171.179688 44.976562 171.070312 44.976562 C 170.84375 44.976562 170.84375 45.011719 170.769531 45.242188 L 170.222656 47.476562 C 170.167969 47.636719 170.167969 47.636719 170.152344 47.652344 C 170.132812 47.652344 170.113281 47.671875 169.9375 47.6875 C 167.597656 47.8125 166.214844 49.425781 166.214844 50.859375 C 166.214844 52.066406 167.191406 52.898438 168.839844 52.953125 L 168.359375 54.953125 C 168.359375 55.113281 168.519531 55.113281 168.625 55.113281 C 168.804688 55.113281 168.855469 55.097656 168.910156 54.902344 L 169.300781 53.324219 C 169.371094 53.003906 169.386719 52.988281 169.40625 52.96875 C 169.425781 52.96875 169.441406 52.96875 169.617188 52.953125 C 171.921875 52.808594 173.339844 51.234375 173.339844 49.78125 C 173.339844 48.558594 172.367188 47.742188 170.71875 47.6875 Z M 168.945312 52.542969 C 167.96875 52.492188 167.367188 52.066406 167.367188 51.160156 C 167.367188 50.84375 167.492188 49.796875 168.09375 49.054688 C 168.484375 48.558594 169.140625 48.167969 170.0625 48.097656 Z M 170.613281 48.097656 C 171.585938 48.148438 172.1875 48.558594 172.1875 49.476562 C 172.1875 49.796875 172.066406 50.84375 171.460938 51.585938 C 171.070312 52.082031 170.417969 52.472656 169.496094 52.542969 Z M 170.613281 48.097656 "/>
<path fill-rule="nonzero" fill="rgb(0%, 0%, 0%)" fill-opacity="1" d="M 177.617188 54.15625 L 177.351562 54.15625 C 177.335938 54.332031 177.246094 54.792969 177.140625 54.863281 C 177.085938 54.917969 176.484375 54.917969 176.359375 54.917969 L 174.90625 54.917969 C 175.738281 54.191406 176.023438 53.960938 176.484375 53.585938 C 177.070312 53.125 177.617188 52.628906 177.617188 51.886719 C 177.617188 50.929688 176.785156 50.34375 175.773438 50.34375 C 174.800781 50.34375 174.125 51.035156 174.125 51.761719 C 174.125 52.152344 174.464844 52.203125 174.550781 52.203125 C 174.730469 52.203125 174.960938 52.0625 174.960938 51.78125 C 174.960938 51.636719 174.90625 51.355469 174.5 51.355469 C 174.746094 50.804688 175.277344 50.628906 175.652344 50.628906 C 176.449219 50.628906 176.855469 51.246094 176.855469 51.886719 C 176.855469 52.578125 176.359375 53.109375 176.113281 53.390625 L 174.214844 55.289062 C 174.125 55.359375 174.125 55.378906 174.125 55.589844 L 177.386719 55.589844 Z M 177.617188 54.15625 "/>
<path fill-rule="nonzero" fill="rgb(0%, 0%, 0%)" fill-opacity="1" d="M 180.488281 44.339844 L 178.949219 44.339844 L 178.949219 44.800781 L 180.046875 44.800781 L 180.046875 55.203125 L 178.949219 55.203125 L 178.949219 55.664062 L 180.488281 55.664062 Z M 180.488281 44.339844 "/>
<path fill="none" stroke-width="1.034646" stroke-linecap="butt" stroke-linejoin="miter" stroke="rgb(0%, 0%, 0%)" stroke-opacity="1" stroke-miterlimit="4" d="M 64.085938 138.285156 L 258.4375 138.285156 "/>
<path fill-rule="evenodd" fill="rgb(0%, 0%, 0%)" fill-opacity="1" d="M 257.367188 136.140625 L 263.261719 138.285156 L 257.367188 140.429688 C 258.4375 139.179688 258.4375 137.394531 257.367188 136.140625 Z M 257.367188 136.140625 "/>
<path fill-rule="nonzero" fill="rgb(0%, 0%, 0%)" fill-opacity="1" d="M 17.441406 162.515625 L 17.441406 169.5625 L 20.113281 169.5625 C 21.574219 169.5625 22.640625 168.65625 22.640625 167.652344 C 22.644531 166.78125 21.769531 166.046875 20.6875 165.871094 C 21.609375 165.648438 22.371094 165.0625 22.375 164.28125 C 22.375 163.359375 21.292969 162.515625 19.84375 162.515625 Z M 18.285156 165.601562 L 18.285156 163.085938 L 19.558594 163.089844 C 20.6875 163.089844 21.578125 163.628906 21.578125 164.296875 C 21.578125 164.902344 20.863281 165.601562 19.460938 165.601562 Z M 18.285156 168.988281 L 18.285156 166.207031 L 19.746094 166.207031 C 20.828125 166.207031 21.832031 166.828125 21.832031 167.636719 C 21.832031 168.402344 20.925781 168.988281 19.828125 168.988281 Z M 18.285156 168.988281 "/>
<path fill-rule="nonzero" fill="rgb(0%, 0%, 0%)" fill-opacity="1" d="M 27.273438 166.636719 C 27.273438 165.605469 26.527344 164.886719 25.585938 164.886719 C 24.933594 164.886719 24.472656 165.046875 23.996094 165.316406 L 24.058594 165.984375 C 24.585938 165.617188 25.09375 165.492188 25.585938 165.492188 C 26.0625 165.492188 26.476562 165.890625 26.476562 166.636719 L 26.476562 167.082031 C 24.949219 167.097656 23.660156 167.527344 23.660156 168.417969 C 23.660156 168.847656 23.929688 169.675781 24.824219 169.675781 C 24.964844 169.675781 25.917969 169.660156 26.507812 169.199219 L 26.507812 169.5625 L 27.273438 169.5625 Z M 26.476562 168.226562 C 26.476562 168.417969 26.476562 168.671875 26.125 168.863281 C 25.839844 169.039062 25.441406 169.054688 25.332031 169.054688 C 24.855469 169.054688 24.394531 168.816406 24.394531 168.402344 C 24.394531 167.6875 26.03125 167.625 26.476562 167.589844 Z M 26.476562 168.226562 "/>
<path fill-rule="nonzero" fill="rgb(0%, 0%, 0%)" fill-opacity="1" d="M 31.574219 165.207031 C 31.050781 164.96875 30.636719 164.890625 30.113281 164.890625 C 29.855469 164.890625 28.425781 164.886719 28.425781 166.207031 C 28.425781 166.71875 28.726562 167.035156 28.980469 167.226562 C 29.285156 167.449219 29.507812 167.496094 30.0625 167.609375 C 30.429688 167.671875 31.015625 167.800781 31.015625 168.339844 C 31.015625 169.039062 30.222656 169.039062 30.0625 169.039062 C 29.25 169.039062 28.679688 168.660156 28.503906 168.546875 L 28.375 169.230469 C 28.695312 169.390625 29.25 169.675781 30.078125 169.675781 C 30.269531 169.675781 30.824219 169.675781 31.253906 169.359375 C 31.574219 169.105469 31.75 168.707031 31.75 168.261719 C 31.75 167.703125 31.367188 167.371094 31.351562 167.339844 C 30.953125 166.972656 30.683594 166.910156 30.175781 166.828125 C 29.617188 166.71875 29.140625 166.605469 29.140625 166.113281 C 29.140625 165.492188 29.871094 165.492188 30.015625 165.492188 C 30.335938 165.492188 30.875 165.523438 31.449219 165.875 Z M 31.574219 165.207031 "/>
<path fill-rule="nonzero" fill="rgb(0%, 0%, 0%)" fill-opacity="1" d="M 36.179688 167.339844 C 36.179688 167.007812 36.164062 166.242188 35.78125 165.621094 C 35.351562 165 34.746094 164.890625 34.382812 164.890625 C 33.25 164.890625 32.328125 165.972656 32.328125 167.277344 C 32.328125 168.613281 33.3125 169.675781 34.523438 169.679688 C 35.160156 169.679688 35.746094 169.441406 36.144531 169.152344 L 36.082031 168.484375 C 35.445312 169.027344 34.761719 169.058594 34.539062 169.058594 C 33.726562 169.058594 33.074219 168.339844 33.042969 167.339844 Z M 33.09375 166.78125 C 33.25 166.019531 33.792969 165.511719 34.382812 165.511719 C 34.90625 165.511719 35.460938 165.84375 35.605469 166.785156 Z M 33.09375 166.78125 "/>
<path fill-rule="nonzero" fill="rgb(0%, 0%, 0%)" fill-opacity="1" d="M 44.269531 162.523438 L 43.507812 162.523438 L 43.507812 165.511719 C 42.964844 165.066406 42.410156 164.957031 42.027344 164.957031 C 41.023438 164.957031 40.230469 166.003906 40.230469 167.308594 C 40.230469 168.644531 41.007812 169.679688 41.976562 169.679688 C 42.3125 169.679688 42.902344 169.585938 43.472656 169.042969 L 43.472656 169.570312 L 44.269531 169.570312 Z M 43.472656 168.152344 C 43.472656 168.296875 43.457031 168.488281 43.140625 168.773438 C 42.902344 168.980469 42.644531 169.058594 42.390625 169.058594 C 41.753906 169.058594 41.023438 168.582031 41.023438 167.324219 C 41.023438 165.988281 41.898438 165.578125 42.488281 165.578125 C 42.949219 165.578125 43.25 165.800781 43.472656 166.132812 Z M 43.472656 168.152344 "/>
<path fill-rule="nonzero" fill="rgb(0%, 0%, 0%)" fill-opacity="1" d="M 49.300781 167.34375 C 49.300781 167.011719 49.285156 166.246094 48.90625 165.625 C 48.476562 165.007812 47.871094 164.894531 47.503906 164.894531 C 46.375 164.894531 45.453125 165.976562 45.453125 167.28125 C 45.453125 168.617188 46.4375 169.683594 47.648438 169.683594 C 48.285156 169.683594 48.871094 169.445312 49.269531 169.15625 L 49.207031 168.488281 C 48.570312 169.03125 47.886719 169.0625 47.664062 169.0625 C 46.851562 169.0625 46.199219 168.347656 46.167969 167.34375 Z M 46.214844 166.785156 C 46.375 166.023438 46.917969 165.515625 47.503906 165.515625 C 48.03125 165.515625 48.585938 165.847656 48.730469 166.789062 Z M 46.214844 166.785156 "/>
<path fill-rule="nonzero" fill="rgb(0%, 0%, 0%)" fill-opacity="1" d="M 54.03125 166.550781 C 54.03125 165.882812 53.875 164.960938 52.632812 164.960938 C 51.726562 164.960938 51.21875 165.644531 51.171875 165.722656 L 51.171875 165.007812 L 50.4375 165.007812 L 50.4375 169.570312 L 51.214844 169.570312 L 51.21875 167.089844 C 51.21875 166.421875 51.472656 165.578125 52.25 165.578125 C 53.222656 165.582031 53.238281 166.296875 53.238281 166.613281 L 53.238281 169.574219 L 54.03125 169.574219 Z M 54.03125 166.550781 "/>
<path fill-rule="nonzero" fill="rgb(0%, 0%, 0%)" fill-opacity="1" d="M 58.335938 165.214844 C 57.808594 164.976562 57.394531 164.898438 56.871094 164.898438 C 56.617188 164.898438 55.183594 164.898438 55.183594 166.21875 C 55.183594 166.726562 55.488281 167.042969 55.742188 167.234375 C 56.042969 167.457031 56.265625 167.507812 56.824219 167.617188 C 57.1875 167.679688 57.777344 167.808594 57.777344 168.347656 C 57.777344 169.050781 56.980469 169.050781 56.820312 169.050781 C 56.011719 169.046875 55.4375 168.667969 55.261719 168.554688 L 55.136719 169.238281 C 55.453125 169.398438 56.011719 169.683594 56.835938 169.683594 C 57.027344 169.683594 57.585938 169.6875 58.015625 169.367188 C 58.332031 169.113281 58.507812 168.714844 58.507812 168.269531 C 58.507812 167.714844 58.128906 167.378906 58.109375 167.347656 C 57.714844 166.980469 57.441406 166.917969 56.933594 166.839844 C 56.378906 166.726562 55.898438 166.613281 55.902344 166.121094 C 55.902344 165.5 56.632812 165.5 56.777344 165.5 C 57.09375 165.503906 57.632812 165.535156 58.207031 165.882812 Z M 58.335938 165.214844 "/>
<path fill-rule="nonzero" fill="rgb(0%, 0%, 0%)" fill-opacity="1" d="M 60.394531 162.671875 L 59.488281 162.671875 L 59.488281 163.578125 L 60.394531 163.578125 Z M 60.328125 165.074219 L 59.566406 165.074219 L 59.566406 169.574219 L 60.328125 169.574219 Z M 60.328125 165.074219 "/>
<path fill-rule="nonzero" fill="rgb(0%, 0%, 0%)" fill-opacity="1" d="M 62.941406 165.664062 L 64.375 165.664062 L 64.375 165.074219 L 62.941406 165.074219 L 62.945312 163.785156 L 62.242188 163.785156 L 62.242188 165.074219 L 61.351562 165.074219 L 61.351562 165.664062 L 62.210938 165.664062 L 62.210938 168.367188 C 62.210938 168.972656 62.351562 169.6875 63.054688 169.6875 C 63.753906 169.6875 64.277344 169.433594 64.53125 169.304688 L 64.375 168.703125 C 64.101562 168.925781 63.785156 169.035156 63.449219 169.035156 C 63.085938 169.035156 62.941406 168.734375 62.941406 168.191406 Z M 62.941406 165.664062 "/>
<g clip-path="url(#clip-0)">
<path fill-rule="nonzero" fill="rgb(0%, 0%, 0%)" fill-opacity="1" d="M 69.085938 165.078125 L 68.320312 165.074219 C 67 168.304688 66.96875 168.765625 66.96875 169.003906 L 66.953125 169.003906 C 66.886719 168.320312 66.078125 166.425781 66.046875 166.332031 L 65.488281 165.074219 L 64.695312 165.074219 L 66.664062 169.578125 C 66.539062 169.894531 66.332031 170.402344 66.296875 170.484375 C 66.027344 171.070312 65.851562 171.070312 65.710938 171.070312 C 65.550781 171.070312 65.234375 171.039062 64.929688 170.914062 L 64.976562 171.582031 C 65.199219 171.628906 65.488281 171.660156 65.710938 171.660156 C 66.074219 171.660156 66.441406 171.535156 66.855469 170.5 Z M 69.085938 165.078125 "/>
</g>
<path fill-rule="nonzero" fill="rgb(0%, 0%, 0%)" fill-opacity="1" d="M 344.636719 165.964844 C 344.289062 166.886719 343.808594 168.144531 343.699219 168.621094 L 343.683594 168.621094 C 343.636719 168.398438 343.507812 168.035156 343.363281 167.605469 L 341.777344 163.402344 L 341.425781 162.511719 L 340.28125 162.511719 L 340.277344 169.558594 L 341.074219 169.558594 L 341.074219 163.261719 C 341.140625 163.59375 341.550781 164.691406 341.808594 165.390625 L 343.316406 169.335938 L 344.046875 169.335938 L 345.402344 165.808594 C 345.71875 164.980469 345.816406 164.726562 345.894531 164.519531 C 345.992188 164.214844 346.261719 163.484375 346.308594 163.261719 L 346.324219 163.261719 L 346.324219 169.5625 L 347.117188 169.5625 L 347.121094 162.515625 L 345.960938 162.515625 Z M 344.636719 165.964844 "/>
<path fill-rule="nonzero" fill="rgb(0%, 0%, 0%)" fill-opacity="1" d="M 352.890625 167.335938 C 352.890625 165.96875 351.875 164.886719 350.679688 164.886719 C 349.425781 164.886719 348.4375 166 348.4375 167.335938 C 348.4375 168.671875 349.46875 169.671875 350.664062 169.675781 C 351.871094 169.675781 352.890625 168.65625 352.890625 167.335938 Z M 350.664062 169.023438 C 349.964844 169.023438 349.234375 168.449219 349.234375 167.222656 C 349.234375 166 349.996094 165.507812 350.664062 165.507812 C 351.378906 165.507812 352.097656 166.03125 352.097656 167.226562 C 352.09375 168.433594 351.410156 169.023438 350.664062 169.023438 Z M 350.664062 169.023438 "/>
<path fill-rule="nonzero" fill="rgb(0%, 0%, 0%)" fill-opacity="1" d="M 357.898438 162.519531 L 357.136719 162.519531 L 357.132812 165.507812 C 356.59375 165.0625 356.035156 164.953125 355.65625 164.953125 C 354.652344 164.949219 353.855469 166 353.855469 167.304688 C 353.855469 168.640625 354.636719 169.675781 355.605469 169.675781 C 355.941406 169.675781 356.527344 169.582031 357.101562 169.039062 L 357.101562 169.566406 L 357.894531 169.566406 Z M 357.101562 168.148438 C 357.101562 168.292969 357.085938 168.484375 356.765625 168.769531 C 356.527344 168.976562 356.273438 169.054688 356.019531 169.054688 C 355.382812 169.054688 354.652344 168.578125 354.652344 167.320312 C 354.652344 165.984375 355.527344 165.570312 356.117188 165.570312 C 356.578125 165.570312 356.878906 165.792969 357.101562 166.128906 Z M 357.101562 168.148438 "/>
<path fill-rule="nonzero" fill="rgb(0%, 0%, 0%)" fill-opacity="1" d="M 362.929688 167.339844 C 362.929688 167.003906 362.914062 166.242188 362.53125 165.621094 C 362.105469 165 361.5 164.890625 361.132812 164.890625 C 360.003906 164.890625 359.082031 165.96875 359.082031 167.273438 C 359.082031 168.609375 360.066406 169.675781 361.273438 169.675781 C 361.910156 169.675781 362.5 169.4375 362.898438 169.152344 L 362.835938 168.484375 C 362.199219 169.027344 361.515625 169.058594 361.292969 169.058594 C 360.480469 169.058594 359.828125 168.339844 359.796875 167.339844 Z M 359.84375 166.78125 C 360.003906 166.019531 360.542969 165.507812 361.132812 165.511719 C 361.65625 165.511719 362.214844 165.84375 362.359375 166.78125 Z M 359.84375 166.78125 "/>
<path fill-rule="nonzero" fill="rgb(0%, 0%, 0%)" fill-opacity="1" d="M 364.832031 162.519531 L 364.066406 162.519531 L 364.066406 169.566406 L 364.828125 169.566406 Z M 364.832031 162.519531 "/>
<path fill-rule="nonzero" fill="rgb(0%, 0%, 0%)" fill-opacity="1" d="M 373.445312 162.523438 L 372.683594 162.523438 L 372.679688 165.511719 C 372.140625 165.066406 371.582031 164.957031 371.203125 164.957031 C 370.199219 164.957031 369.40625 166.003906 369.402344 167.308594 C 369.402344 168.644531 370.183594 169.679688 371.152344 169.679688 C 371.488281 169.679688 372.074219 169.585938 372.648438 169.042969 L 372.648438 169.570312 L 373.445312 169.570312 Z M 372.648438 168.152344 C 372.648438 168.296875 372.632812 168.488281 372.3125 168.773438 C 372.074219 168.980469 371.820312 169.058594 371.566406 169.058594 C 370.929688 169.058594 370.199219 168.582031 370.199219 167.324219 C 370.199219 165.988281 371.074219 165.578125 371.664062 165.578125 C 372.125 165.578125 372.425781 165.800781 372.648438 166.132812 Z M 372.648438 168.152344 "/>
<path fill-rule="nonzero" fill="rgb(0%, 0%, 0%)" fill-opacity="1" d="M 378.476562 167.34375 C 378.476562 167.011719 378.460938 166.246094 378.082031 165.625 C 377.652344 165.007812 377.046875 164.894531 376.679688 164.894531 C 375.550781 164.894531 374.628906 165.976562 374.628906 167.28125 C 374.628906 168.617188 375.613281 169.683594 376.824219 169.683594 C 377.460938 169.683594 378.046875 169.445312 378.445312 169.15625 L 378.382812 168.488281 C 377.746094 169.03125 377.0625 169.0625 376.839844 169.0625 C 376.027344 169.0625 375.375 168.347656 375.34375 167.34375 Z M 375.390625 166.785156 C 375.550781 166.023438 376.09375 165.515625 376.679688 165.515625 C 377.207031 165.515625 377.761719 165.847656 377.90625 166.789062 Z M 375.390625 166.785156 "/>
<path fill-rule="nonzero" fill="rgb(0%, 0%, 0%)" fill-opacity="1" d="M 383.207031 166.550781 C 383.207031 165.882812 383.050781 164.960938 381.808594 164.960938 C 380.902344 164.960938 380.394531 165.644531 380.34375 165.722656 L 380.34375 165.007812 L 379.613281 165.007812 L 379.613281 169.570312 L 380.390625 169.570312 L 380.390625 167.089844 C 380.390625 166.421875 380.648438 165.578125 381.425781 165.578125 C 382.398438 165.582031 382.414062 166.296875 382.414062 166.613281 L 382.410156 169.574219 L 383.207031 169.574219 Z M 383.207031 166.550781 "/>
<path fill-rule="nonzero" fill="rgb(0%, 0%, 0%)" fill-opacity="1" d="M 387.511719 165.214844 C 386.984375 164.976562 386.570312 164.898438 386.046875 164.898438 C 385.792969 164.898438 384.359375 164.898438 384.359375 166.21875 C 384.359375 166.726562 384.664062 167.042969 384.917969 167.234375 C 385.21875 167.457031 385.441406 167.507812 386 167.617188 C 386.363281 167.679688 386.953125 167.808594 386.953125 168.347656 C 386.953125 169.050781 386.15625 169.050781 386 169.050781 C 385.1875 169.046875 384.613281 168.667969 384.441406 168.554688 L 384.3125 169.238281 C 384.628906 169.398438 385.1875 169.683594 386.015625 169.683594 C 386.203125 169.683594 386.761719 169.6875 387.191406 169.367188 C 387.507812 169.113281 387.683594 168.714844 387.683594 168.269531 C 387.683594 167.714844 387.304688 167.378906 387.289062 167.347656 C 386.890625 166.980469 386.621094 166.917969 386.109375 166.839844 C 385.554688 166.726562 385.078125 166.613281 385.078125 166.121094 C 385.078125 165.5 385.808594 165.5 385.953125 165.5 C 386.269531 165.503906 386.8125 165.535156 387.382812 165.882812 Z M 387.511719 165.214844 "/>
<path fill-rule="nonzero" fill="rgb(0%, 0%, 0%)" fill-opacity="1" d="M 389.570312 162.671875 L 388.664062 162.671875 L 388.664062 163.578125 L 389.570312 163.578125 Z M 389.503906 165.074219 L 388.742188 165.074219 L 388.742188 169.574219 L 389.503906 169.574219 Z M 389.503906 165.074219 "/>
<path fill-rule="nonzero" fill="rgb(0%, 0%, 0%)" fill-opacity="1" d="M 392.117188 165.664062 L 393.550781 165.664062 L 393.550781 165.074219 L 392.121094 165.074219 L 392.121094 163.785156 L 391.417969 163.785156 L 391.417969 165.074219 L 390.527344 165.074219 L 390.527344 165.664062 L 391.386719 165.664062 L 391.386719 168.367188 C 391.386719 168.972656 391.527344 169.6875 392.230469 169.6875 C 392.929688 169.6875 393.453125 169.433594 393.707031 169.304688 L 393.550781 168.703125 C 393.277344 168.925781 392.960938 169.035156 392.628906 169.035156 C 392.261719 169.035156 392.117188 168.734375 392.117188 168.191406 Z M 392.117188 165.664062 "/>
<g clip-path="url(#clip-1)">
<path fill-rule="nonzero" fill="rgb(0%, 0%, 0%)" fill-opacity="1" d="M 398.25 165.078125 L 397.484375 165.074219 C 396.164062 168.304688 396.132812 168.765625 396.132812 169.003906 L 396.117188 169.003906 C 396.054688 168.320312 395.242188 166.425781 395.210938 166.332031 L 394.652344 165.074219 L 393.859375 165.074219 L 395.828125 169.578125 C 395.703125 169.894531 395.496094 170.402344 395.464844 170.484375 C 395.191406 171.070312 395.019531 171.070312 394.875 171.070312 C 394.714844 171.070312 394.398438 171.039062 394.09375 170.914062 L 394.144531 171.582031 C 394.367188 171.628906 394.652344 171.660156 394.875 171.660156 C 395.242188 171.660156 395.605469 171.535156 396.019531 170.5 Z M 398.25 165.078125 "/>
</g>
<path fill-rule="nonzero" fill="rgb(81.959534%, 51.371765%, 38.430786%)" fill-opacity="0.683544" stroke-width="0.850394" stroke-linecap="butt" stroke-linejoin="round" stroke="rgb(46.665955%, 23.529053%, 13.725281%)" stroke-opacity="1" stroke-miterlimit="4" d="M 35.941406 0.660156 L 42.640625 0.660156 C 44.625 0.660156 46.226562 2.257812 46.226562 4.242188 L 46.226562 154.21875 C 46.226562 156.203125 44.625 157.800781 42.640625 157.800781 L 35.941406 157.800781 C 33.957031 157.800781 32.355469 156.203125 32.355469 154.21875 L 32.355469 4.242188 C 32.355469 2.257812 33.957031 0.660156 35.941406 0.660156 Z M 35.941406 0.660156 "/>
<path fill="none" stroke-width="0.850397" stroke-linecap="butt" stroke-linejoin="miter" stroke="rgb(46.665955%, 23.529053%, 13.725281%)" stroke-opacity="1" stroke-miterlimit="4" d="M 32.25 79.195312 L 46.125 79.195312 "/>
<path fill="none" stroke-width="0.850397" stroke-linecap="butt" stroke-linejoin="miter" stroke="rgb(46.665955%, 23.529053%, 13.725281%)" stroke-opacity="1" stroke-miterlimit="4" d="M 32.25 39.875 L 46.125 39.875 "/>
<path fill="none" stroke-width="0.850397" stroke-linecap="butt" stroke-linejoin="miter" stroke="rgb(46.665955%, 23.529053%, 13.725281%)" stroke-opacity="1" stroke-miterlimit="4" d="M 32.25 118.511719 L 46.125 118.511719 "/>
<path fill-rule="nonzero" fill="rgb(0%, 0%, 0%)" fill-opacity="1" d="M 39.414062 17.53125 C 39.515625 17.414062 39.53125 17.398438 39.53125 17.300781 C 39.53125 17.085938 39.382812 17.085938 39.183594 17.085938 L 35.316406 17.085938 L 35.199219 18.917969 L 35.695312 18.917969 C 35.746094 17.84375 36.074219 17.464844 37.167969 17.464844 L 38.058594 17.464844 L 35.117188 21.300781 C 35.015625 21.417969 35.015625 21.433594 35.015625 21.53125 C 35.015625 21.761719 35.167969 21.761719 35.363281 21.761719 L 39.367188 21.761719 L 39.566406 19.628906 L 39.070312 19.628906 C 38.96875 20.707031 38.804688 21.332031 37.414062 21.332031 L 36.503906 21.332031 Z M 39.414062 17.53125 "/>
<path fill-rule="nonzero" fill="rgb(0%, 0%, 0%)" fill-opacity="1" d="M 42.539062 18.648438 C 42.539062 18.449219 42.539062 18.449219 42.324219 18.449219 C 41.84375 18.914062 41.183594 18.914062 40.886719 18.914062 L 40.886719 19.179688 C 41.050781 19.179688 41.546875 19.179688 41.945312 18.980469 L 41.945312 22.730469 C 41.945312 22.980469 41.945312 23.078125 41.214844 23.078125 L 40.933594 23.078125 L 40.933594 23.34375 C 41.066406 23.34375 41.976562 23.3125 42.242188 23.3125 C 42.472656 23.3125 43.398438 23.34375 43.5625 23.34375 L 43.5625 23.078125 L 43.28125 23.078125 C 42.539062 23.078125 42.539062 22.980469 42.539062 22.730469 Z M 42.539062 18.648438 "/>
<path fill-rule="nonzero" fill="rgb(0%, 0%, 0%)" fill-opacity="1" d="M 39.300781 56.851562 C 39.398438 56.734375 39.414062 56.71875 39.414062 56.621094 C 39.414062 56.40625 39.265625 56.40625 39.070312 56.40625 L 35.199219 56.40625 L 35.082031 58.238281 L 35.578125 58.238281 C 35.628906 57.164062 35.960938 56.785156 37.050781 56.785156 L 37.945312 56.785156 L 35 60.621094 C 34.902344 60.734375 34.902344 60.753906 34.902344 60.851562 C 34.902344 61.082031 35.050781 61.082031 35.25 61.082031 L 39.25 61.082031 L 39.449219 58.949219 L 38.953125 58.949219 C 38.855469 60.023438 38.6875 60.652344 37.300781 60.652344 L 36.390625 60.652344 Z M 39.300781 56.851562 "/>
<path fill-rule="nonzero" fill="rgb(0%, 0%, 0%)" fill-opacity="1" d="M 43.679688 61.324219 L 43.433594 61.324219 C 43.414062 61.488281 43.332031 61.917969 43.234375 61.984375 C 43.183594 62.035156 42.621094 62.035156 42.503906 62.035156 L 41.148438 62.035156 C 41.925781 61.359375 42.191406 61.144531 42.621094 60.796875 C 43.167969 60.367188 43.679688 59.902344 43.679688 59.207031 C 43.679688 58.316406 42.902344 57.769531 41.960938 57.769531 C 41.050781 57.769531 40.421875 58.414062 40.421875 59.09375 C 40.421875 59.457031 40.738281 59.507812 40.820312 59.507812 C 40.984375 59.507812 41.199219 59.375 41.199219 59.109375 C 41.199219 58.976562 41.148438 58.710938 40.769531 58.710938 C 41 58.199219 41.496094 58.035156 41.84375 58.035156 C 42.589844 58.035156 42.96875 58.613281 42.96875 59.207031 C 42.96875 59.851562 42.503906 60.347656 42.273438 60.613281 L 40.503906 62.382812 C 40.421875 62.449219 40.421875 62.464844 40.421875 62.664062 L 43.464844 62.664062 Z M 43.679688 61.324219 "/>
<path fill-rule="nonzero" fill="rgb(0%, 0%, 0%)" fill-opacity="1" d="M 39.265625 96.097656 C 39.367188 95.980469 39.382812 95.964844 39.382812 95.863281 C 39.382812 95.648438 39.234375 95.648438 39.035156 95.648438 L 35.167969 95.648438 L 35.050781 97.484375 L 35.546875 97.484375 C 35.597656 96.410156 35.925781 96.03125 37.019531 96.03125 L 37.910156 96.03125 L 34.96875 99.867188 C 34.867188 99.980469 34.867188 99.996094 34.867188 100.097656 C 34.867188 100.328125 35.015625 100.328125 35.214844 100.328125 L 39.21875 100.328125 L 39.414062 98.195312 L 38.917969 98.195312 C 38.820312 99.269531 38.65625 99.898438 37.265625 99.898438 L 36.355469 99.898438 Z M 39.265625 96.097656 "/>
<path fill-rule="nonzero" fill="rgb(0%, 0%, 0%)" fill-opacity="1" d="M 41.945312 99.445312 C 42.523438 99.445312 42.9375 99.84375 42.9375 100.636719 C 42.9375 101.546875 42.390625 101.828125 41.976562 101.828125 C 41.679688 101.828125 41.019531 101.742188 40.71875 101.296875 C 41.066406 101.296875 41.148438 101.050781 41.148438 100.882812 C 41.148438 100.652344 40.96875 100.488281 40.738281 100.488281 C 40.539062 100.488281 40.324219 100.621094 40.324219 100.917969 C 40.324219 101.613281 41.082031 102.058594 41.976562 102.058594 C 43 102.058594 43.710938 101.363281 43.710938 100.636719 C 43.710938 100.058594 43.25 99.480469 42.441406 99.3125 C 43.199219 99.03125 43.480469 98.488281 43.480469 98.023438 C 43.480469 97.445312 42.820312 97.015625 41.992188 97.015625 C 41.183594 97.015625 40.554688 97.414062 40.554688 98.007812 C 40.554688 98.257812 40.71875 98.386719 40.933594 98.386719 C 41.167969 98.386719 41.316406 98.222656 41.316406 98.023438 C 41.316406 97.808594 41.167969 97.644531 40.933594 97.628906 C 41.199219 97.3125 41.695312 97.230469 41.976562 97.230469 C 42.308594 97.230469 42.769531 97.394531 42.769531 98.023438 C 42.769531 98.339844 42.671875 98.6875 42.472656 98.902344 C 42.242188 99.179688 42.027344 99.199219 41.664062 99.230469 C 41.480469 99.246094 41.464844 99.246094 41.429688 99.246094 C 41.414062 99.246094 41.347656 99.265625 41.347656 99.347656 C 41.347656 99.445312 41.414062 99.445312 41.546875 99.445312 Z M 41.945312 99.445312 "/>
<path fill-rule="nonzero" fill="rgb(0%, 0%, 0%)" fill-opacity="1" d="M 39.210938 135.488281 C 39.308594 135.375 39.324219 135.359375 39.324219 135.257812 C 39.324219 135.042969 39.175781 135.042969 38.976562 135.042969 L 35.109375 135.042969 L 34.992188 136.878906 L 35.488281 136.878906 C 35.539062 135.804688 35.867188 135.421875 36.960938 135.421875 L 37.851562 135.421875 L 34.910156 139.257812 C 34.8125 139.375 34.8125 139.390625 34.8125 139.492188 C 34.8125 139.722656 34.960938 139.722656 35.15625 139.722656 L 39.160156 139.722656 L 39.359375 137.589844 L 38.863281 137.589844 C 38.761719 138.664062 38.597656 139.292969 37.207031 139.292969 L 36.300781 139.292969 Z M 39.210938 135.488281 "/>
<path fill-rule="nonzero" fill="rgb(0%, 0%, 0%)" fill-opacity="1" d="M 43.769531 140.097656 L 43.769531 139.832031 L 42.945312 139.832031 L 42.945312 136.542969 C 42.945312 136.394531 42.945312 136.328125 42.796875 136.328125 C 42.695312 136.328125 42.664062 136.328125 42.597656 136.441406 L 40.148438 139.832031 L 40.148438 140.097656 L 42.332031 140.097656 L 42.332031 140.691406 C 42.332031 140.957031 42.332031 141.039062 41.71875 141.039062 L 41.523438 141.039062 L 41.523438 141.300781 C 41.902344 141.285156 42.363281 141.269531 42.628906 141.269531 C 42.910156 141.269531 43.375 141.285156 43.753906 141.300781 L 43.753906 141.039062 L 43.554688 141.039062 C 42.945312 141.039062 42.945312 140.957031 42.945312 140.691406 L 42.945312 140.097656 Z M 42.382812 137.136719 L 42.382812 139.832031 L 40.429688 139.832031 Z M 42.382812 137.136719 "/>
<path fill-rule="nonzero" fill="rgb(62.744141%, 85.096741%, 82.743835%)" fill-opacity="0.675106" stroke-width="0.850394" stroke-linecap="butt" stroke-linejoin="round" stroke="rgb(20.391846%, 51.371765%, 47.842407%)" stroke-opacity="1" stroke-miterlimit="4" d="M 117.699219 0.660156 L 124.402344 0.660156 C 126.386719 0.660156 127.984375 2.257812 127.984375 4.242188 L 127.984375 75.425781 C 127.984375 77.410156 126.386719 79.007812 124.402344 79.007812 L 117.699219 79.007812 C 115.714844 79.007812 114.117188 77.410156 114.117188 75.425781 L 114.117188 4.242188 C 114.117188 2.257812 115.714844 0.660156 117.699219 0.660156 Z M 117.699219 0.660156 "/>
<path fill="none" stroke-width="0.850397" stroke-linecap="butt" stroke-linejoin="miter" stroke="rgb(20.391846%, 51.371765%, 47.842407%)" stroke-opacity="1" stroke-miterlimit="4" d="M 114.113281 39.875 L 127.988281 39.875 "/>
<path fill-rule="nonzero" fill="rgb(62.744141%, 85.096741%, 82.743835%)" fill-opacity="0.675106" stroke-width="0.850394" stroke-linecap="butt" stroke-linejoin="round" stroke="rgb(20.391846%, 51.371765%, 47.842407%)" stroke-opacity="1" stroke-miterlimit="4" d="M 199.460938 0.660156 L 206.160156 0.660156 C 208.144531 0.660156 209.742188 2.257812 209.742188 4.242188 L 209.742188 115.011719 C 209.742188 116.996094 208.144531 118.59375 206.160156 118.59375 L 199.460938 118.59375 C 197.472656 118.59375 195.875 116.996094 195.875 115.011719 L 195.875 4.242188 C 195.875 2.257812 197.472656 0.660156 199.460938 0.660156 Z M 199.460938 0.660156 "/>
<path fill="none" stroke-width="0.850397" stroke-linecap="butt" stroke-linejoin="miter" stroke="rgb(20.391846%, 51.371765%, 47.842407%)" stroke-opacity="1" stroke-miterlimit="4" d="M 195.769531 79.195312 L 209.644531 79.195312 "/>
<path fill="none" stroke-width="0.850397" stroke-linecap="butt" stroke-linejoin="miter" stroke="rgb(20.391846%, 51.371765%, 47.842407%)" stroke-opacity="1" stroke-miterlimit="4" d="M 195.769531 39.875 L 209.644531 39.875 "/>
<path fill-rule="nonzero" fill="rgb(62.744141%, 85.096741%, 82.743835%)" fill-opacity="0.675106" stroke-width="0.850394" stroke-linecap="butt" stroke-linejoin="round" stroke="rgb(20.391846%, 51.371765%, 47.842407%)" stroke-opacity="1" stroke-miterlimit="4" d="M 281.21875 0.660156 L 287.917969 0.660156 C 289.90625 0.660156 291.503906 2.257812 291.503906 4.242188 L 291.503906 154.21875 C 291.503906 156.203125 289.90625 157.800781 287.917969 157.800781 L 281.21875 157.800781 C 279.234375 157.800781 277.636719 156.203125 277.636719 154.21875 L 277.636719 4.242188 C 277.636719 2.257812 279.234375 0.660156 281.21875 0.660156 Z M 281.21875 0.660156 "/>
<path fill="none" stroke-width="0.850397" stroke-linecap="butt" stroke-linejoin="miter" stroke="rgb(46.665955%, 23.529053%, 13.725281%)" stroke-opacity="1" stroke-miterlimit="4" d="M 277.527344 79.195312 L 291.402344 79.195312 "/>
<path fill="none" stroke-width="0.850397" stroke-linecap="butt" stroke-linejoin="miter" stroke="rgb(46.665955%, 23.529053%, 13.725281%)" stroke-opacity="1" stroke-miterlimit="4" d="M 277.527344 39.875 L 291.402344 39.875 "/>
<path fill="none" stroke-width="0.850397" stroke-linecap="butt" stroke-linejoin="miter" stroke="rgb(46.665955%, 23.529053%, 13.725281%)" stroke-opacity="1" stroke-miterlimit="4" d="M 277.527344 118.511719 L 291.402344 118.511719 "/>
<path fill="none" stroke-width="1.034646" stroke-linecap="butt" stroke-linejoin="miter" stroke="rgb(0%, 0%, 0%)" stroke-opacity="1" stroke-miterlimit="4" d="M 228.933594 59.535156 L 258.394531 59.535156 "/>
<path fill-rule="evenodd" fill="rgb(0%, 0%, 0%)" fill-opacity="1" d="M 257.324219 57.390625 L 263.222656 59.535156 L 257.324219 61.679688 C 258.394531 60.429688 258.394531 58.644531 257.324219 57.390625 Z M 257.324219 57.390625 "/>
<path fill-rule="nonzero" fill="rgb(0%, 0%, 0%)" fill-opacity="1" d="M 228.445312 65.753906 L 228.445312 65.046875 L 227.628906 65.046875 C 226.8125 65.046875 226 65.59375 225.960938 67.085938 L 225.960938 67.757812 L 225.128906 67.757812 L 225.128906 68.449219 L 225.960938 68.449219 L 225.960938 72.863281 L 226.8125 72.863281 L 226.8125 68.449219 L 228.25 68.449219 L 228.25 67.757812 L 226.8125 67.757812 L 226.8125 66.976562 C 226.8125 65.984375 227.378906 65.753906 227.609375 65.753906 Z M 228.445312 65.753906 "/>
<path fill-rule="nonzero" fill="rgb(0%, 0%, 0%)" fill-opacity="1" d="M 230.617188 71.914062 C 231.238281 71.914062 231.679688 72.339844 231.679688 73.191406 C 231.679688 74.167969 231.097656 74.46875 230.652344 74.46875 C 230.335938 74.46875 229.625 74.378906 229.308594 73.902344 C 229.679688 73.902344 229.765625 73.636719 229.765625 73.457031 C 229.765625 73.210938 229.574219 73.03125 229.324219 73.03125 C 229.113281 73.03125 228.882812 73.175781 228.882812 73.492188 C 228.882812 74.238281 229.695312 74.714844 230.652344 74.714844 C 231.753906 74.714844 232.515625 73.972656 232.515625 73.191406 C 232.515625 72.570312 232.019531 71.953125 231.148438 71.773438 C 231.964844 71.472656 232.265625 70.886719 232.265625 70.390625 C 232.265625 69.769531 231.558594 69.308594 230.671875 69.308594 C 229.804688 69.308594 229.128906 69.734375 229.128906 70.375 C 229.128906 70.640625 229.308594 70.78125 229.535156 70.78125 C 229.785156 70.78125 229.945312 70.605469 229.945312 70.390625 C 229.945312 70.160156 229.785156 69.984375 229.535156 69.964844 C 229.820312 69.628906 230.351562 69.539062 230.652344 69.539062 C 231.007812 69.539062 231.503906 69.71875 231.503906 70.390625 C 231.503906 70.726562 231.398438 71.101562 231.183594 71.332031 C 230.9375 71.632812 230.707031 71.648438 230.316406 71.683594 C 230.121094 71.703125 230.105469 71.703125 230.070312 71.703125 C 230.050781 71.703125 229.980469 71.722656 229.980469 71.808594 C 229.980469 71.914062 230.050781 71.914062 230.191406 71.914062 Z M 230.617188 71.914062 "/>
<path fill-rule="nonzero" fill="rgb(0%, 0%, 0%)" fill-opacity="1" d="M 236.414062 75.699219 L 236.414062 75.238281 L 235.316406 75.238281 L 235.316406 64.832031 L 236.414062 64.832031 L 236.414062 64.371094 L 234.855469 64.371094 L 234.855469 75.699219 Z M 236.414062 75.699219 "/>
<path fill-rule="nonzero" fill="rgb(0%, 0%, 0%)" fill-opacity="1" d="M 241.679688 70.027344 C 241.679688 68.820312 240.671875 67.847656 239.5 67.847656 C 238.277344 67.847656 237.285156 68.855469 237.285156 70.027344 C 237.285156 71.230469 238.277344 72.222656 239.5 72.222656 C 240.671875 72.222656 241.679688 71.25 241.679688 70.027344 Z M 241.679688 70.027344 "/>
<path fill-rule="nonzero" fill="rgb(0%, 0%, 0%)" fill-opacity="1" d="M 244.617188 72.84375 C 244.617188 72.101562 244.335938 71.65625 243.890625 71.65625 C 243.519531 71.65625 243.289062 71.941406 243.289062 72.257812 C 243.289062 72.5625 243.519531 72.863281 243.890625 72.863281 C 244.015625 72.863281 244.175781 72.808594 244.28125 72.71875 C 244.316406 72.683594 244.335938 72.683594 244.335938 72.683594 C 244.351562 72.683594 244.351562 72.683594 244.351562 72.84375 C 244.351562 73.695312 243.964844 74.367188 243.589844 74.742188 C 243.464844 74.863281 243.464844 74.882812 243.464844 74.917969 C 243.464844 75.007812 243.519531 75.042969 243.574219 75.042969 C 243.695312 75.042969 244.617188 74.171875 244.617188 72.84375 Z M 244.617188 72.84375 "/>
<path fill-rule="nonzero" fill="rgb(0%, 0%, 0%)" fill-opacity="1" d="M 253.0625 65.347656 C 253.097656 65.207031 253.097656 65.1875 253.097656 65.167969 C 253.097656 65.011719 252.9375 65.011719 252.832031 65.011719 C 252.601562 65.011719 252.601562 65.046875 252.53125 65.277344 L 251.980469 67.507812 C 251.925781 67.667969 251.925781 67.667969 251.910156 67.6875 C 251.890625 67.6875 251.875 67.703125 251.695312 67.722656 C 249.359375 67.847656 247.976562 69.460938 247.976562 70.894531 C 247.976562 72.101562 248.949219 72.933594 250.597656 72.984375 L 250.121094 74.988281 C 250.121094 75.148438 250.28125 75.148438 250.386719 75.148438 C 250.5625 75.148438 250.617188 75.128906 250.667969 74.9375 L 251.058594 73.359375 C 251.128906 73.039062 251.148438 73.023438 251.164062 73.003906 C 251.183594 73.003906 251.199219 73.003906 251.378906 72.984375 C 253.683594 72.84375 255.101562 71.265625 255.101562 69.8125 C 255.101562 68.589844 254.125 67.773438 252.476562 67.722656 Z M 250.703125 72.578125 C 249.730469 72.523438 249.128906 72.101562 249.128906 71.195312 C 249.128906 70.875 249.25 69.832031 249.855469 69.085938 C 250.242188 68.589844 250.898438 68.199219 251.820312 68.128906 Z M 252.371094 68.128906 C 253.34375 68.183594 253.949219 68.589844 253.949219 69.511719 C 253.949219 69.832031 253.824219 70.875 253.222656 71.621094 C 252.832031 72.117188 252.175781 72.507812 251.253906 72.578125 Z M 252.371094 68.128906 "/>
<path fill-rule="nonzero" fill="rgb(0%, 0%, 0%)" fill-opacity="1" d="M 257.550781 72.984375 C 258.171875 72.984375 258.613281 73.410156 258.613281 74.257812 C 258.613281 75.234375 258.03125 75.535156 257.585938 75.535156 C 257.269531 75.535156 256.558594 75.445312 256.242188 74.96875 C 256.613281 74.96875 256.699219 74.703125 256.699219 74.523438 C 256.699219 74.277344 256.507812 74.101562 256.257812 74.101562 C 256.046875 74.101562 255.816406 74.242188 255.816406 74.5625 C 255.816406 75.304688 256.628906 75.785156 257.585938 75.785156 C 258.6875 75.785156 259.449219 75.039062 259.449219 74.257812 C 259.449219 73.640625 258.953125 73.019531 258.082031 72.839844 C 258.898438 72.539062 259.199219 71.957031 259.199219 71.457031 C 259.199219 70.839844 258.492188 70.378906 257.605469 70.378906 C 256.738281 70.378906 256.0625 70.804688 256.0625 71.441406 C 256.0625 71.707031 256.242188 71.847656 256.46875 71.847656 C 256.71875 71.847656 256.878906 71.671875 256.878906 71.457031 C 256.878906 71.230469 256.71875 71.050781 256.46875 71.035156 C 256.753906 70.695312 257.285156 70.609375 257.585938 70.609375 C 257.941406 70.609375 258.4375 70.785156 258.4375 71.457031 C 258.4375 71.796875 258.332031 72.167969 258.117188 72.398438 C 257.871094 72.699219 257.640625 72.71875 257.25 72.753906 C 257.054688 72.769531 257.039062 72.769531 257.003906 72.769531 C 256.984375 72.769531 256.914062 72.789062 256.914062 72.875 C 256.914062 72.984375 256.984375 72.984375 257.125 72.984375 Z M 257.550781 72.984375 "/>
<path fill-rule="nonzero" fill="rgb(0%, 0%, 0%)" fill-opacity="1" d="M 262.25 64.371094 L 260.707031 64.371094 L 260.707031 64.832031 L 261.804688 64.832031 L 261.804688 75.238281 L 260.707031 75.238281 L 260.707031 75.699219 L 262.25 75.699219 Z M 262.25 64.371094 "/>
<path fill="none" stroke-width="0.850397" stroke-linecap="butt" stroke-linejoin="miter" stroke="rgb(46.665955%, 23.529053%, 13.725281%)" stroke-opacity="1" stroke-miterlimit="4" d="M 359.644531 79.195312 L 373.519531 79.195312 "/>
<path fill="none" stroke-width="0.850397" stroke-linecap="butt" stroke-linejoin="miter" stroke="rgb(46.665955%, 23.529053%, 13.725281%)" stroke-opacity="1" stroke-miterlimit="4" d="M 359.644531 39.875 L 373.519531 39.875 "/>
<path fill="none" stroke-width="0.850397" stroke-linecap="butt" stroke-linejoin="miter" stroke="rgb(46.665955%, 23.529053%, 13.725281%)" stroke-opacity="1" stroke-miterlimit="4" d="M 359.644531 118.511719 L 373.519531 118.511719 "/>
<path fill="none" stroke-width="0.850397" stroke-linecap="butt" stroke-linejoin="miter" stroke="rgb(20.391846%, 51.371765%, 47.842407%)" stroke-opacity="1" stroke-miterlimit="4" d="M 277.78125 79.195312 L 291.65625 79.195312 "/>
<path fill="none" stroke-width="0.850397" stroke-linecap="butt" stroke-linejoin="miter" stroke="rgb(20.391846%, 51.371765%, 47.842407%)" stroke-opacity="1" stroke-miterlimit="4" d="M 277.78125 39.875 L 291.65625 39.875 "/>
<path fill="none" stroke-width="0.850397" stroke-linecap="butt" stroke-linejoin="miter" stroke="rgb(20.391846%, 51.371765%, 47.842407%)" stroke-opacity="1" stroke-miterlimit="4" d="M 277.78125 118.511719 L 291.65625 118.511719 "/>
<path fill="none" stroke-width="1.034646" stroke-linecap="butt" stroke-linejoin="miter" stroke="rgb(0%, 0%, 0%)" stroke-opacity="1" stroke-miterlimit="4" d="M 310.945312 79.195312 L 340.40625 79.195312 "/>
<path fill-rule="evenodd" fill="rgb(0%, 0%, 0%)" fill-opacity="1" d="M 339.335938 77.050781 L 345.234375 79.195312 L 339.335938 81.339844 C 340.40625 80.089844 340.40625 78.304688 339.335938 77.050781 Z M 339.335938 77.050781 "/>
<path fill="none" stroke-width="1.034646" stroke-linecap="butt" stroke-linejoin="miter" stroke="rgb(0%, 0%, 0%)" stroke-opacity="1" stroke-miterlimit="4" d="M 64.085938 99.269531 L 175.667969 99.269531 "/>
<path fill-rule="evenodd" fill="rgb(0%, 0%, 0%)" fill-opacity="1" d="M 174.597656 97.125 L 180.492188 99.269531 L 174.597656 101.414062 C 175.667969 100.164062 175.667969 98.378906 174.597656 97.125 Z M 174.597656 97.125 "/>
<path fill="none" stroke-width="1.034646" stroke-linecap="butt" stroke-linejoin="miter" stroke="rgb(0%, 0%, 0%)" stroke-opacity="1" stroke-miterlimit="4" d="M 64.085938 59.535156 L 93.550781 59.535156 "/>
<path fill-rule="evenodd" fill="rgb(0%, 0%, 0%)" fill-opacity="1" d="M 92.480469 57.390625 L 98.378906 59.535156 L 92.480469 61.679688 C 93.550781 60.429688 93.550781 58.644531 92.480469 57.390625 Z M 92.480469 57.390625 "/>
<path fill-rule="nonzero" fill="rgb(0%, 0%, 0%)" fill-opacity="1" d="M 365.175781 19.167969 L 366.398438 17.796875 C 366.546875 17.648438 366.613281 17.582031 367.472656 17.582031 L 367.472656 17.085938 C 367.109375 17.101562 366.5625 17.117188 366.511719 17.117188 C 366.25 17.117188 365.71875 17.085938 365.421875 17.085938 L 365.421875 17.582031 C 365.570312 17.582031 365.703125 17.597656 365.820312 17.664062 C 365.785156 17.730469 365.785156 17.761719 365.734375 17.796875 L 364.859375 18.789062 L 363.816406 17.582031 L 364.246094 17.582031 L 364.246094 17.085938 C 363.96875 17.085938 363.304688 17.117188 362.957031 17.117188 C 362.628906 17.117188 362.148438 17.085938 361.800781 17.085938 L 361.800781 17.582031 L 362.5625 17.582031 L 364.199219 19.515625 L 362.808594 21.070312 C 362.644531 21.265625 362.265625 21.265625 361.75 21.265625 L 361.75 21.761719 C 362.113281 21.746094 362.675781 21.730469 362.726562 21.730469 C 362.992188 21.730469 363.601562 21.746094 363.800781 21.761719 L 363.800781 21.265625 C 363.621094 21.265625 363.421875 21.21875 363.421875 21.152344 C 363.421875 21.136719 363.421875 21.136719 363.488281 21.050781 L 364.511719 19.894531 L 365.667969 21.265625 L 365.257812 21.265625 L 365.257812 21.761719 C 365.539062 21.746094 366.183594 21.730469 366.53125 21.730469 C 366.859375 21.730469 367.339844 21.746094 367.6875 21.761719 L 367.6875 21.265625 L 366.941406 21.265625 Z M 365.175781 19.167969 "/>
<path fill-rule="nonzero" fill="rgb(0%, 0%, 0%)" fill-opacity="1" d="M 370.382812 18.648438 C 370.382812 18.449219 370.382812 18.449219 370.167969 18.449219 C 369.6875 18.914062 369.027344 18.914062 368.730469 18.914062 L 368.730469 19.179688 C 368.894531 19.179688 369.390625 19.179688 369.785156 18.980469 L 369.785156 22.730469 C 369.785156 22.980469 369.785156 23.078125 369.058594 23.078125 L 368.777344 23.078125 L 368.777344 23.34375 C 368.910156 23.34375 369.820312 23.3125 370.085938 23.3125 C 370.316406 23.3125 371.242188 23.34375 371.40625 23.34375 L 371.40625 23.078125 L 371.125 23.078125 C 370.382812 23.078125 370.382812 22.980469 370.382812 22.730469 Z M 370.382812 18.648438 "/>
<path fill-rule="nonzero" fill="rgb(0%, 0%, 0%)" fill-opacity="1" d="M 365.058594 58.488281 L 366.28125 57.117188 C 366.429688 56.964844 366.496094 56.902344 367.355469 56.902344 L 367.355469 56.40625 C 366.992188 56.421875 366.445312 56.4375 366.398438 56.4375 C 366.132812 56.4375 365.601562 56.40625 365.304688 56.40625 L 365.304688 56.902344 C 365.453125 56.902344 365.585938 56.917969 365.703125 56.984375 C 365.667969 57.050781 365.667969 57.082031 365.621094 57.117188 L 364.742188 58.105469 L 363.703125 56.902344 L 364.132812 56.902344 L 364.132812 56.40625 C 363.851562 56.40625 363.1875 56.4375 362.84375 56.4375 C 362.511719 56.4375 362.03125 56.40625 361.683594 56.40625 L 361.683594 56.902344 L 362.445312 56.902344 L 364.082031 58.835938 L 362.691406 60.386719 C 362.527344 60.585938 362.148438 60.585938 361.636719 60.585938 L 361.636719 61.082031 C 362 61.066406 362.5625 61.050781 362.609375 61.050781 C 362.875 61.050781 363.488281 61.066406 363.683594 61.082031 L 363.683594 60.585938 C 363.503906 60.585938 363.304688 60.539062 363.304688 60.472656 C 363.304688 60.453125 363.304688 60.453125 363.371094 60.371094 L 364.394531 59.214844 L 365.554688 60.585938 L 365.140625 60.585938 L 365.140625 61.082031 C 365.421875 61.066406 366.066406 61.050781 366.414062 61.050781 C 366.746094 61.050781 367.222656 61.066406 367.570312 61.082031 L 367.570312 60.585938 L 366.828125 60.585938 Z M 365.058594 58.488281 "/>
<path fill-rule="nonzero" fill="rgb(0%, 0%, 0%)" fill-opacity="1" d="M 371.523438 61.324219 L 371.273438 61.324219 C 371.257812 61.488281 371.175781 61.917969 371.078125 61.984375 C 371.027344 62.035156 370.464844 62.035156 370.347656 62.035156 L 368.992188 62.035156 C 369.769531 61.359375 370.035156 61.144531 370.464844 60.796875 C 371.011719 60.367188 371.523438 59.902344 371.523438 59.207031 C 371.523438 58.316406 370.746094 57.769531 369.804688 57.769531 C 368.894531 57.769531 368.265625 58.414062 368.265625 59.09375 C 368.265625 59.457031 368.578125 59.507812 368.664062 59.507812 C 368.828125 59.507812 369.042969 59.375 369.042969 59.109375 C 369.042969 58.976562 368.992188 58.710938 368.613281 58.710938 C 368.84375 58.199219 369.339844 58.035156 369.6875 58.035156 C 370.429688 58.035156 370.8125 58.613281 370.8125 59.207031 C 370.8125 59.851562 370.347656 60.347656 370.117188 60.613281 L 368.347656 62.382812 C 368.265625 62.449219 368.265625 62.464844 368.265625 62.664062 L 371.308594 62.664062 Z M 371.523438 61.324219 "/>
<path fill-rule="nonzero" fill="rgb(0%, 0%, 0%)" fill-opacity="1" d="M 365.027344 97.734375 L 366.25 96.359375 C 366.398438 96.210938 366.464844 96.144531 367.324219 96.144531 L 367.324219 95.648438 C 366.960938 95.667969 366.414062 95.683594 366.367188 95.683594 C 366.101562 95.683594 365.570312 95.648438 365.273438 95.648438 L 365.273438 96.144531 C 365.421875 96.144531 365.554688 96.164062 365.671875 96.230469 C 365.636719 96.296875 365.636719 96.328125 365.589844 96.359375 L 364.710938 97.351562 L 363.671875 96.144531 L 364.101562 96.144531 L 364.101562 95.648438 C 363.820312 95.648438 363.15625 95.683594 362.8125 95.683594 C 362.480469 95.683594 362 95.648438 361.652344 95.648438 L 361.652344 96.144531 L 362.414062 96.144531 L 364.050781 98.082031 L 362.660156 99.632812 C 362.496094 99.832031 362.117188 99.832031 361.605469 99.832031 L 361.605469 100.328125 C 361.96875 100.3125 362.53125 100.296875 362.578125 100.296875 C 362.84375 100.296875 363.457031 100.3125 363.652344 100.328125 L 363.652344 99.832031 C 363.472656 99.832031 363.273438 99.78125 363.273438 99.71875 C 363.273438 99.699219 363.273438 99.699219 363.339844 99.617188 L 364.363281 98.460938 L 365.523438 99.832031 L 365.109375 99.832031 L 365.109375 100.328125 C 365.390625 100.3125 366.035156 100.296875 366.382812 100.296875 C 366.714844 100.296875 367.191406 100.3125 367.539062 100.328125 L 367.539062 99.832031 L 366.796875 99.832031 Z M 365.027344 97.734375 "/>
<path fill-rule="nonzero" fill="rgb(0%, 0%, 0%)" fill-opacity="1" d="M 369.789062 99.445312 C 370.367188 99.445312 370.78125 99.84375 370.78125 100.636719 C 370.78125 101.546875 370.234375 101.828125 369.820312 101.828125 C 369.523438 101.828125 368.863281 101.742188 368.566406 101.296875 C 368.914062 101.296875 368.996094 101.050781 368.996094 100.882812 C 368.996094 100.652344 368.8125 100.488281 368.582031 100.488281 C 368.382812 100.488281 368.167969 100.621094 368.167969 100.917969 C 368.167969 101.613281 368.929688 102.058594 369.820312 102.058594 C 370.847656 102.058594 371.558594 101.363281 371.558594 100.636719 C 371.558594 100.058594 371.09375 99.480469 370.285156 99.3125 C 371.046875 99.03125 371.324219 98.488281 371.324219 98.023438 C 371.324219 97.445312 370.664062 97.015625 369.839844 97.015625 C 369.027344 97.015625 368.398438 97.414062 368.398438 98.007812 C 368.398438 98.253906 368.566406 98.386719 368.78125 98.386719 C 369.011719 98.386719 369.160156 98.222656 369.160156 98.023438 C 369.160156 97.808594 369.011719 97.644531 368.78125 97.628906 C 369.042969 97.3125 369.539062 97.230469 369.820312 97.230469 C 370.152344 97.230469 370.613281 97.394531 370.613281 98.023438 C 370.613281 98.339844 370.515625 98.6875 370.316406 98.902344 C 370.085938 99.179688 369.871094 99.199219 369.507812 99.230469 C 369.324219 99.246094 369.308594 99.246094 369.277344 99.246094 C 369.257812 99.246094 369.191406 99.265625 369.191406 99.347656 C 369.191406 99.445312 369.257812 99.445312 369.390625 99.445312 Z M 369.789062 99.445312 "/>
<path fill-rule="nonzero" fill="rgb(0%, 0%, 0%)" fill-opacity="1" d="M 364.96875 137.128906 L 366.191406 135.753906 C 366.339844 135.605469 366.40625 135.539062 367.265625 135.539062 L 367.265625 135.042969 C 366.902344 135.0625 366.355469 135.078125 366.304688 135.078125 C 366.042969 135.078125 365.511719 135.042969 365.214844 135.042969 L 365.214844 135.539062 C 365.363281 135.539062 365.496094 135.558594 365.613281 135.625 C 365.578125 135.691406 365.578125 135.722656 365.527344 135.753906 L 364.652344 136.746094 L 363.609375 135.539062 L 364.042969 135.539062 L 364.042969 135.042969 C 363.761719 135.042969 363.097656 135.078125 362.75 135.078125 C 362.421875 135.078125 361.941406 135.042969 361.59375 135.042969 L 361.59375 135.539062 L 362.355469 135.539062 L 363.992188 137.476562 L 362.601562 139.027344 C 362.4375 139.226562 362.058594 139.226562 361.542969 139.226562 L 361.542969 139.722656 C 361.90625 139.707031 362.46875 139.691406 362.519531 139.691406 C 362.785156 139.691406 363.394531 139.707031 363.59375 139.722656 L 363.59375 139.226562 C 363.414062 139.226562 363.214844 139.175781 363.214844 139.113281 C 363.214844 139.09375 363.214844 139.09375 363.28125 139.011719 L 364.304688 137.855469 L 365.464844 139.226562 L 365.050781 139.226562 L 365.050781 139.722656 C 365.332031 139.707031 365.976562 139.691406 366.324219 139.691406 C 366.652344 139.691406 367.132812 139.707031 367.480469 139.722656 L 367.480469 139.226562 L 366.734375 139.226562 Z M 364.96875 137.128906 "/>
<path fill-rule="nonzero" fill="rgb(0%, 0%, 0%)" fill-opacity="1" d="M 371.613281 140.097656 L 371.613281 139.832031 L 370.789062 139.832031 L 370.789062 136.542969 C 370.789062 136.394531 370.789062 136.328125 370.636719 136.328125 C 370.539062 136.328125 370.507812 136.328125 370.441406 136.445312 L 367.992188 139.832031 L 367.992188 140.097656 L 370.175781 140.097656 L 370.175781 140.691406 C 370.175781 140.957031 370.175781 141.039062 369.5625 141.039062 L 369.363281 141.039062 L 369.363281 141.304688 C 369.746094 141.289062 370.207031 141.269531 370.472656 141.269531 C 370.753906 141.269531 371.21875 141.289062 371.597656 141.304688 L 371.597656 141.039062 L 371.398438 141.039062 C 370.789062 141.039062 370.789062 140.957031 370.789062 140.691406 L 370.789062 140.097656 Z M 370.226562 137.136719 L 370.226562 139.832031 L 368.273438 139.832031 Z M 370.226562 137.136719 "/>
<path fill-rule="nonzero" fill="rgb(0%, 0%, 0%)" fill-opacity="1" d="M 83.539062 63.457031 C 83.714844 63.457031 83.929688 63.457031 83.929688 63.246094 C 83.929688 63.015625 83.714844 63.015625 83.554688 63.015625 L 76.785156 63.015625 C 76.625 63.015625 76.414062 63.015625 76.414062 63.246094 C 76.414062 63.457031 76.625 63.457031 76.785156 63.457031 Z M 83.554688 65.65625 C 83.714844 65.65625 83.929688 65.65625 83.929688 65.425781 C 83.929688 65.214844 83.714844 65.214844 83.539062 65.214844 L 76.785156 65.214844 C 76.625 65.214844 76.414062 65.214844 76.414062 65.425781 C 76.414062 65.65625 76.625 65.65625 76.785156 65.65625 Z M 83.554688 65.65625 "/>
<path fill-rule="nonzero" fill="rgb(0%, 0%, 0%)" fill-opacity="1" d="M 124.597656 103.484375 C 124.773438 103.484375 124.984375 103.484375 124.984375 103.269531 C 124.984375 103.039062 124.773438 103.039062 124.613281 103.039062 L 117.84375 103.039062 C 117.683594 103.039062 117.472656 103.039062 117.472656 103.269531 C 117.472656 103.484375 117.683594 103.484375 117.84375 103.484375 Z M 124.613281 105.679688 C 124.773438 105.679688 124.984375 105.679688 124.984375 105.449219 C 124.984375 105.238281 124.773438 105.238281 124.597656 105.238281 L 117.84375 105.238281 C 117.683594 105.238281 117.472656 105.238281 117.472656 105.449219 C 117.472656 105.679688 117.683594 105.679688 117.84375 105.679688 Z M 124.613281 105.679688 "/>
<path fill-rule="nonzero" fill="rgb(0%, 0%, 0%)" fill-opacity="1" d="M 165.980469 142.121094 C 166.160156 142.121094 166.371094 142.121094 166.371094 141.90625 C 166.371094 141.675781 166.160156 141.675781 166 141.675781 L 159.226562 141.675781 C 159.070312 141.675781 158.855469 141.675781 158.855469 141.90625 C 158.855469 142.121094 159.070312 142.121094 159.226562 142.121094 Z M 166 144.320312 C 166.160156 144.320312 166.371094 144.320312 166.371094 144.089844 C 166.371094 143.875 166.160156 143.875 165.980469 143.875 L 159.226562 143.875 C 159.070312 143.875 158.855469 143.875 158.855469 144.089844 C 158.855469 144.320312 159.070312 144.320312 159.226562 144.320312 Z M 166 144.320312 "/>
<path fill-rule="nonzero" fill="rgb(0%, 0%, 0%)" fill-opacity="1" d="M 308.914062 87.675781 L 310.152344 87.675781 L 310.152344 87.019531 L 308.878906 87.019531 L 308.878906 85.671875 C 308.878906 84.839844 309.640625 84.75 309.941406 84.75 C 310.152344 84.75 310.472656 84.765625 310.84375 84.945312 L 310.84375 84.183594 C 310.722656 84.148438 310.367188 84.058594 309.941406 84.058594 C 308.878906 84.058594 308.0625 84.875 308.0625 85.988281 L 308.0625 87.019531 L 307.230469 87.019531 L 307.230469 87.675781 L 308.0625 87.675781 L 308.0625 92.035156 L 308.914062 92.035156 Z M 308.914062 87.675781 "/>
<path fill-rule="nonzero" fill="rgb(0%, 0%, 0%)" fill-opacity="1" d="M 314.5625 92.433594 L 314.5625 92.152344 L 313.675781 92.152344 L 313.675781 88.625 C 313.675781 88.464844 313.675781 88.394531 313.519531 88.394531 C 313.410156 88.394531 313.375 88.394531 313.304688 88.519531 L 310.683594 92.152344 L 310.683594 92.433594 L 313.023438 92.433594 L 313.023438 93.074219 C 313.023438 93.355469 313.023438 93.445312 312.367188 93.445312 L 312.152344 93.445312 L 312.152344 93.730469 C 312.5625 93.710938 313.058594 93.691406 313.339844 93.691406 C 313.640625 93.691406 314.136719 93.710938 314.546875 93.730469 L 314.546875 93.445312 L 314.332031 93.445312 C 313.675781 93.445312 313.675781 93.355469 313.675781 93.074219 L 313.675781 92.433594 Z M 313.074219 89.261719 L 313.074219 92.152344 L 310.984375 92.152344 Z M 313.074219 89.261719 "/>
<path fill-rule="nonzero" fill="rgb(0%, 0%, 0%)" fill-opacity="1" d="M 318.339844 94.871094 L 318.339844 94.410156 L 317.242188 94.410156 L 317.242188 84.003906 L 318.339844 84.003906 L 318.339844 83.542969 L 316.78125 83.542969 L 316.78125 94.871094 Z M 318.339844 94.871094 "/>
<path fill-rule="nonzero" fill="rgb(0%, 0%, 0%)" fill-opacity="1" d="M 323.605469 89.199219 C 323.605469 87.992188 322.59375 87.019531 321.425781 87.019531 C 320.203125 87.019531 319.210938 88.027344 319.210938 89.199219 C 319.210938 90.402344 320.203125 91.394531 321.425781 91.394531 C 322.59375 91.394531 323.605469 90.421875 323.605469 89.199219 Z M 323.605469 89.199219 "/>
<path fill-rule="nonzero" fill="rgb(0%, 0%, 0%)" fill-opacity="1" d="M 326.542969 92.015625 C 326.542969 91.273438 326.261719 90.828125 325.816406 90.828125 C 325.445312 90.828125 325.214844 91.113281 325.214844 91.429688 C 325.214844 91.734375 325.445312 92.035156 325.816406 92.035156 C 325.941406 92.035156 326.101562 91.980469 326.207031 91.890625 C 326.242188 91.855469 326.261719 91.855469 326.261719 91.855469 C 326.277344 91.855469 326.277344 91.855469 326.277344 92.015625 C 326.277344 92.867188 325.890625 93.539062 325.515625 93.914062 C 325.394531 94.035156 325.394531 94.054688 325.394531 94.089844 C 325.394531 94.179688 325.445312 94.214844 325.5 94.214844 C 325.625 94.214844 326.542969 93.34375 326.542969 92.015625 Z M 326.542969 92.015625 "/>
<path fill-rule="nonzero" fill="rgb(0%, 0%, 0%)" fill-opacity="1" d="M 334.988281 84.519531 C 335.023438 84.378906 335.023438 84.359375 335.023438 84.34375 C 335.023438 84.183594 334.863281 84.183594 334.757812 84.183594 C 334.527344 84.183594 334.527344 84.21875 334.457031 84.449219 L 333.90625 86.679688 C 333.851562 86.839844 333.851562 86.839844 333.835938 86.859375 C 333.816406 86.859375 333.800781 86.875 333.621094 86.894531 C 331.28125 87.019531 329.902344 88.632812 329.902344 90.066406 C 329.902344 91.273438 330.875 92.105469 332.523438 92.15625 L 332.046875 94.160156 C 332.046875 94.320312 332.203125 94.320312 332.3125 94.320312 C 332.488281 94.320312 332.542969 94.300781 332.59375 94.109375 L 332.984375 92.53125 C 333.054688 92.210938 333.074219 92.195312 333.089844 92.175781 C 333.109375 92.175781 333.125 92.175781 333.304688 92.15625 C 335.605469 92.015625 337.023438 90.4375 337.023438 88.984375 C 337.023438 87.761719 336.050781 86.949219 334.402344 86.894531 Z M 332.628906 91.75 C 331.65625 91.695312 331.050781 91.273438 331.050781 90.367188 C 331.050781 90.050781 331.175781 89.003906 331.777344 88.257812 C 332.167969 87.761719 332.824219 87.371094 333.746094 87.300781 Z M 334.296875 87.300781 C 335.269531 87.355469 335.875 87.761719 335.875 88.683594 C 335.875 89.003906 335.75 90.050781 335.148438 90.792969 C 334.757812 91.289062 334.101562 91.679688 333.179688 91.75 Z M 334.296875 87.300781 "/>
<path fill-rule="nonzero" fill="rgb(0%, 0%, 0%)" fill-opacity="1" d="M 341.496094 93.503906 L 341.496094 93.21875 L 340.609375 93.21875 L 340.609375 89.691406 C 340.609375 89.53125 340.609375 89.460938 340.453125 89.460938 C 340.34375 89.460938 340.308594 89.460938 340.238281 89.585938 L 337.617188 93.21875 L 337.617188 93.503906 L 339.957031 93.503906 L 339.957031 94.140625 C 339.957031 94.425781 339.957031 94.511719 339.300781 94.511719 L 339.085938 94.511719 L 339.085938 94.796875 C 339.496094 94.777344 339.992188 94.761719 340.273438 94.761719 C 340.574219 94.761719 341.070312 94.777344 341.480469 94.796875 L 341.480469 94.511719 L 341.265625 94.511719 C 340.609375 94.511719 340.609375 94.425781 340.609375 94.140625 L 340.609375 93.503906 Z M 340.007812 90.328125 L 340.007812 93.21875 L 337.917969 93.21875 Z M 340.007812 90.328125 "/>
<path fill-rule="nonzero" fill="rgb(0%, 0%, 0%)" fill-opacity="1" d="M 344.175781 83.542969 L 342.632812 83.542969 L 342.632812 84.003906 L 343.730469 84.003906 L 343.730469 94.410156 L 342.632812 94.410156 L 342.632812 94.871094 L 344.175781 94.871094 Z M 344.175781 83.542969 "/>
<path fill-rule="nonzero" fill="rgb(0%, 0%, 0%)" fill-opacity="1" d="M 132.089844 75.332031 C 131.917969 75.332031 131.871094 75.332031 131.871094 75.417969 C 131.871094 75.832031 131.8125 76.511719 131.472656 77.121094 C 131.050781 77.851562 130.570312 78.128906 130.265625 78.300781 C 130.230469 78.320312 130.230469 78.363281 130.230469 78.449219 C 130.230469 78.609375 130.242188 78.609375 130.421875 78.609375 L 130.554688 78.609375 C 132.4375 77.691406 132.800781 76.164062 132.800781 75.472656 C 132.800781 75.332031 132.789062 75.332031 132.582031 75.332031 Z M 132.089844 75.332031 "/>
<path fill-rule="nonzero" fill="rgb(0%, 0%, 0%)" fill-opacity="1" d="M 132.800781 75.398438 L 132.792969 42.925781 L 131.867188 42.925781 L 131.878906 75.398438 Z M 132.800781 75.398438 "/>
<path fill-rule="nonzero" fill="rgb(0%, 0%, 0%)" fill-opacity="1" d="M 134.117188 39.714844 C 132.222656 40.628906 131.859375 42.160156 131.863281 42.851562 C 131.863281 42.988281 131.875 42.988281 132.078125 42.988281 L 132.574219 42.988281 C 132.753906 42.988281 132.789062 42.988281 132.789062 42.890625 C 132.804688 42.488281 132.863281 41.808594 133.199219 41.203125 C 133.609375 40.46875 134.09375 40.191406 134.394531 40.023438 C 134.445312 40 134.445312 39.957031 134.445312 39.871094 C 134.445312 39.714844 134.429688 39.714844 134.238281 39.714844 Z M 134.117188 39.714844 "/>
<path fill-rule="nonzero" fill="rgb(0%, 0%, 0%)" fill-opacity="1" d="M 132.078125 36.757812 C 131.871094 36.757812 131.859375 36.757812 131.859375 36.898438 C 131.859375 37.589844 132.234375 39.121094 134.117188 40.035156 L 134.238281 40.035156 C 134.429688 40.03125 134.445312 40.03125 134.445312 39.875 C 134.445312 39.746094 134.429688 39.734375 134.371094 39.703125 C 133.367188 39.152344 132.824219 38.214844 132.789062 36.832031 C 132.789062 36.757812 132.742188 36.757812 132.570312 36.757812 Z M 132.078125 36.757812 "/>
<path fill-rule="nonzero" fill="rgb(0%, 0%, 0%)" fill-opacity="1" d="M 132.789062 36.824219 L 132.78125 4.351562 L 131.855469 4.351562 L 131.867188 36.824219 Z M 132.789062 36.824219 "/>
<path fill-rule="nonzero" fill="rgb(0%, 0%, 0%)" fill-opacity="1" d="M 130.402344 1.140625 C 130.21875 1.140625 130.207031 1.140625 130.207031 1.300781 C 130.207031 1.425781 130.21875 1.4375 130.269531 1.46875 C 131.28125 2.023438 131.824219 2.957031 131.851562 4.339844 C 131.851562 4.414062 131.910156 4.414062 132.066406 4.414062 L 132.5625 4.414062 C 132.765625 4.414062 132.78125 4.414062 132.78125 4.277344 C 132.78125 3.585938 132.40625 2.054688 130.535156 1.140625 Z M 130.402344 1.140625 "/>
<path fill-rule="nonzero" fill="rgb(0%, 0%, 0%)" fill-opacity="1" d="M 191.324219 75.332031 C 191.492188 75.332031 191.542969 75.332031 191.542969 75.417969 C 191.542969 75.832031 191.601562 76.511719 191.941406 77.121094 C 192.363281 77.851562 192.84375 78.128906 193.144531 78.300781 C 193.183594 78.320312 193.183594 78.363281 193.183594 78.449219 C 193.183594 78.609375 193.171875 78.609375 192.988281 78.609375 L 192.855469 78.609375 C 190.972656 77.691406 190.613281 76.164062 190.613281 75.472656 C 190.613281 75.332031 190.625 75.332031 190.828125 75.332031 Z M 191.324219 75.332031 "/>
<path fill-rule="nonzero" fill="rgb(0%, 0%, 0%)" fill-opacity="1" d="M 190.613281 75.398438 L 190.621094 42.925781 L 191.546875 42.925781 L 191.535156 75.398438 Z M 190.613281 75.398438 "/>
<path fill-rule="nonzero" fill="rgb(0%, 0%, 0%)" fill-opacity="1" d="M 189.296875 39.714844 C 191.191406 40.628906 191.550781 42.160156 191.550781 42.851562 C 191.550781 42.988281 191.539062 42.988281 191.335938 42.988281 L 190.839844 42.988281 C 190.660156 42.988281 190.621094 42.988281 190.621094 42.890625 C 190.609375 42.488281 190.550781 41.808594 190.210938 41.203125 C 189.800781 40.46875 189.320312 40.191406 189.019531 40.023438 C 188.96875 40 188.96875 39.957031 188.96875 39.871094 C 188.96875 39.714844 188.980469 39.714844 189.175781 39.714844 Z M 189.296875 39.714844 "/>
<path fill-rule="nonzero" fill="rgb(0%, 0%, 0%)" fill-opacity="1" d="M 191.335938 36.757812 C 191.542969 36.757812 191.554688 36.757812 191.554688 36.898438 C 191.554688 37.589844 191.179688 39.121094 189.296875 40.035156 L 189.175781 40.035156 C 188.980469 40.03125 188.96875 40.03125 188.96875 39.875 C 188.96875 39.746094 188.980469 39.734375 189.042969 39.703125 C 190.042969 39.152344 190.585938 38.214844 190.625 36.832031 C 190.625 36.757812 190.671875 36.757812 190.839844 36.757812 Z M 191.335938 36.757812 "/>
<path fill-rule="nonzero" fill="rgb(0%, 0%, 0%)" fill-opacity="1" d="M 190.625 36.824219 L 190.632812 4.351562 L 191.554688 4.351562 L 191.546875 36.824219 Z M 190.625 36.824219 "/>
<path fill-rule="nonzero" fill="rgb(0%, 0%, 0%)" fill-opacity="1" d="M 193.011719 1.140625 C 193.191406 1.140625 193.207031 1.140625 193.207031 1.300781 C 193.203125 1.425781 193.191406 1.4375 193.144531 1.46875 C 192.128906 2.023438 191.585938 2.957031 191.5625 4.339844 C 191.5625 4.414062 191.503906 4.414062 191.34375 4.414062 L 190.851562 4.414062 C 190.644531 4.414062 190.632812 4.414062 190.632812 4.277344 C 190.632812 3.585938 191.007812 2.054688 192.878906 1.140625 Z M 193.011719 1.140625 "/>
<path fill-rule="nonzero" fill="rgb(0%, 0%, 0%)" fill-opacity="1" d="M 213.757812 114.554688 C 213.589844 114.554688 213.539062 114.554688 213.539062 114.636719 C 213.539062 115.023438 213.480469 115.664062 213.140625 116.230469 C 212.71875 116.921875 212.238281 117.179688 211.933594 117.339844 C 211.898438 117.359375 211.898438 117.398438 211.898438 117.480469 C 211.898438 117.628906 211.910156 117.628906 212.09375 117.628906 L 212.226562 117.628906 C 214.109375 116.769531 214.46875 115.332031 214.46875 114.683594 C 214.46875 114.554688 214.457031 114.554688 214.25 114.554688 Z M 213.757812 114.554688 "/>
<path fill-rule="nonzero" fill="rgb(0%, 0%, 0%)" fill-opacity="1" d="M 214.46875 114.617188 L 214.453125 62.398438 L 213.53125 62.398438 L 213.546875 114.617188 Z M 214.46875 114.617188 "/>
<path fill-rule="nonzero" fill="rgb(0%, 0%, 0%)" fill-opacity="1" d="M 215.78125 59.382812 C 213.886719 60.242188 213.523438 61.679688 213.523438 62.328125 C 213.523438 62.457031 213.535156 62.457031 213.742188 62.457031 L 214.234375 62.457031 C 214.417969 62.457031 214.453125 62.457031 214.453125 62.367188 C 214.464844 61.988281 214.523438 61.347656 214.863281 60.78125 C 215.273438 60.089844 215.753906 59.832031 216.058594 59.671875 C 216.105469 59.652344 216.105469 59.613281 216.105469 59.53125 C 216.105469 59.382812 216.09375 59.382812 215.898438 59.382812 Z M 215.78125 59.382812 "/>
<path fill-rule="nonzero" fill="rgb(0%, 0%, 0%)" fill-opacity="1" d="M 213.738281 56.609375 C 213.535156 56.609375 213.523438 56.609375 213.523438 56.738281 C 213.523438 57.386719 213.894531 58.824219 215.78125 59.683594 L 215.898438 59.683594 C 216.09375 59.683594 216.105469 59.683594 216.105469 59.535156 C 216.105469 59.414062 216.09375 59.402344 216.03125 59.375 C 215.03125 58.855469 214.488281 57.976562 214.449219 56.679688 C 214.449219 56.609375 214.402344 56.609375 214.234375 56.609375 Z M 213.738281 56.609375 "/>
<path fill-rule="nonzero" fill="rgb(0%, 0%, 0%)" fill-opacity="1" d="M 214.449219 56.671875 L 214.433594 4.453125 L 213.511719 4.453125 L 213.527344 56.671875 Z M 214.449219 56.671875 "/>
<path fill-rule="nonzero" fill="rgb(0%, 0%, 0%)" fill-opacity="1" d="M 212.054688 1.4375 C 211.875 1.4375 211.863281 1.4375 211.863281 1.589844 C 211.863281 1.707031 211.875 1.71875 211.921875 1.746094 C 212.9375 2.265625 213.480469 3.144531 213.503906 4.441406 C 213.503906 4.511719 213.566406 4.511719 213.722656 4.511719 L 214.21875 4.511719 C 214.421875 4.511719 214.433594 4.511719 214.433594 4.382812 C 214.433594 3.734375 214.058594 2.296875 212.1875 1.4375 Z M 212.054688 1.4375 "/>
<path fill-rule="nonzero" fill="rgb(0%, 0%, 0%)" fill-opacity="1" d="M 273.101562 114.554688 C 273.273438 114.554688 273.320312 114.554688 273.320312 114.636719 C 273.320312 115.023438 273.378906 115.664062 273.71875 116.230469 C 274.140625 116.921875 274.621094 117.179688 274.925781 117.339844 C 274.960938 117.359375 274.960938 117.398438 274.960938 117.480469 C 274.960938 117.628906 274.949219 117.628906 274.765625 117.628906 L 274.632812 117.628906 C 272.753906 116.769531 272.390625 115.332031 272.390625 114.683594 C 272.390625 114.554688 272.402344 114.554688 272.609375 114.554688 Z M 273.101562 114.554688 "/>
<path fill-rule="nonzero" fill="rgb(0%, 0%, 0%)" fill-opacity="1" d="M 272.390625 114.617188 L 272.40625 62.398438 L 273.332031 62.398438 L 273.3125 114.617188 Z M 272.390625 114.617188 "/>
<path fill-rule="nonzero" fill="rgb(0%, 0%, 0%)" fill-opacity="1" d="M 271.082031 59.382812 C 272.976562 60.242188 273.335938 61.679688 273.335938 62.328125 C 273.335938 62.457031 273.324219 62.457031 273.121094 62.457031 L 272.625 62.457031 C 272.441406 62.457031 272.40625 62.457031 272.40625 62.367188 C 272.394531 61.988281 272.335938 61.347656 271.996094 60.78125 C 271.585938 60.089844 271.105469 59.832031 270.804688 59.671875 C 270.753906 59.652344 270.753906 59.613281 270.753906 59.53125 C 270.753906 59.382812 270.765625 59.382812 270.960938 59.382812 Z M 271.082031 59.382812 "/>
<path fill-rule="nonzero" fill="rgb(0%, 0%, 0%)" fill-opacity="1" d="M 273.121094 56.609375 C 273.328125 56.609375 273.339844 56.609375 273.339844 56.738281 C 273.339844 57.386719 272.964844 58.824219 271.082031 59.683594 L 270.960938 59.683594 C 270.765625 59.683594 270.753906 59.683594 270.753906 59.535156 C 270.753906 59.414062 270.765625 59.402344 270.828125 59.375 C 271.828125 58.855469 272.371094 57.976562 272.410156 56.679688 C 272.410156 56.609375 272.457031 56.609375 272.625 56.609375 Z M 273.121094 56.609375 "/>
<path fill-rule="nonzero" fill="rgb(0%, 0%, 0%)" fill-opacity="1" d="M 272.410156 56.671875 L 272.425781 4.453125 L 273.347656 4.453125 L 273.332031 56.671875 Z M 272.410156 56.671875 "/>
<path fill-rule="nonzero" fill="rgb(0%, 0%, 0%)" fill-opacity="1" d="M 274.804688 1.4375 C 274.984375 1.4375 274.996094 1.4375 274.996094 1.589844 C 274.996094 1.707031 274.984375 1.71875 274.9375 1.746094 C 273.921875 2.265625 273.378906 3.144531 273.355469 4.441406 C 273.355469 4.511719 273.292969 4.511719 273.136719 4.511719 L 272.640625 4.511719 C 272.4375 4.511719 272.425781 4.511719 272.425781 4.382812 C 272.425781 3.734375 272.800781 2.296875 274.671875 1.4375 Z M 274.804688 1.4375 "/>
<path fill-rule="nonzero" fill="rgb(0%, 0%, 0%)" fill-opacity="1" d="M 295.769531 154.515625 C 295.597656 154.515625 295.546875 154.515625 295.546875 154.597656 C 295.546875 154.996094 295.484375 155.652344 295.136719 156.234375 C 294.703125 156.941406 294.203125 157.210938 293.894531 157.375 C 293.855469 157.394531 293.855469 157.433594 293.855469 157.515625 C 293.855469 157.671875 293.867188 157.671875 294.054688 157.671875 L 294.191406 157.671875 C 296.132812 156.789062 296.503906 155.3125 296.503906 154.648438 C 296.503906 154.515625 296.492188 154.515625 296.28125 154.515625 Z M 295.769531 154.515625 "/>
<path fill-rule="nonzero" fill="rgb(0%, 0%, 0%)" fill-opacity="1" d="M 296.503906 154.578125 L 296.480469 82.398438 L 295.53125 82.398438 L 295.550781 154.578125 Z M 296.503906 154.578125 "/>
<path fill-rule="nonzero" fill="rgb(0%, 0%, 0%)" fill-opacity="1" d="M 297.847656 79.308594 C 295.894531 80.1875 295.523438 81.664062 295.523438 82.328125 C 295.523438 82.460938 295.535156 82.460938 295.746094 82.460938 L 296.257812 82.460938 C 296.441406 82.460938 296.480469 82.460938 296.480469 82.371094 C 296.492188 81.980469 296.554688 81.324219 296.902344 80.742188 C 297.324219 80.035156 297.820312 79.769531 298.132812 79.605469 C 298.183594 79.582031 298.183594 79.542969 298.183594 79.460938 C 298.183594 79.308594 298.167969 79.308594 297.972656 79.308594 Z M 297.847656 79.308594 "/>
<path fill-rule="nonzero" fill="rgb(0%, 0%, 0%)" fill-opacity="1" d="M 295.746094 76.460938 C 295.535156 76.460938 295.523438 76.460938 295.523438 76.59375 C 295.523438 77.257812 295.90625 78.734375 297.847656 79.613281 L 297.972656 79.613281 C 298.167969 79.613281 298.183594 79.613281 298.183594 79.460938 C 298.183594 79.339844 298.167969 79.328125 298.109375 79.296875 C 297.074219 78.765625 296.515625 77.863281 296.480469 76.53125 C 296.480469 76.460938 296.429688 76.460938 296.253906 76.460938 Z M 295.746094 76.460938 "/>
<path fill-rule="nonzero" fill="rgb(0%, 0%, 0%)" fill-opacity="1" d="M 296.480469 76.523438 L 296.457031 4.34375 L 295.503906 4.34375 L 295.527344 76.523438 Z M 296.480469 76.523438 "/>
<path fill-rule="nonzero" fill="rgb(0%, 0%, 0%)" fill-opacity="1" d="M 294.007812 1.253906 C 293.820312 1.253906 293.808594 1.253906 293.808594 1.40625 C 293.808594 1.53125 293.820312 1.539062 293.871094 1.570312 C 294.914062 2.101562 295.472656 3.003906 295.5 4.335938 C 295.5 4.40625 295.5625 4.40625 295.722656 4.40625 L 296.230469 4.40625 C 296.445312 4.40625 296.457031 4.40625 296.457031 4.273438 C 296.457031 3.609375 296.070312 2.132812 294.144531 1.253906 Z M 294.007812 1.253906 "/>
<path fill-rule="nonzero" fill="rgb(0%, 0%, 0%)" fill-opacity="1" d="M 355.273438 154.515625 C 355.445312 154.515625 355.496094 154.515625 355.496094 154.597656 C 355.496094 154.996094 355.558594 155.652344 355.90625 156.234375 C 356.339844 156.941406 356.835938 157.210938 357.148438 157.375 C 357.1875 157.394531 357.1875 157.433594 357.183594 157.515625 C 357.183594 157.671875 357.171875 157.671875 356.988281 157.671875 L 356.851562 157.671875 C 354.910156 156.789062 354.539062 155.3125 354.539062 154.648438 C 354.539062 154.515625 354.550781 154.515625 354.761719 154.515625 Z M 355.273438 154.515625 "/>
<path fill-rule="nonzero" fill="rgb(0%, 0%, 0%)" fill-opacity="1" d="M 354.539062 154.578125 L 354.5625 82.398438 L 355.511719 82.398438 L 355.488281 154.578125 Z M 354.539062 154.578125 "/>
<path fill-rule="nonzero" fill="rgb(0%, 0%, 0%)" fill-opacity="1" d="M 353.195312 79.308594 C 355.148438 80.1875 355.519531 81.664062 355.519531 82.328125 C 355.519531 82.460938 355.507812 82.460938 355.296875 82.460938 L 354.785156 82.460938 C 354.597656 82.460938 354.5625 82.460938 354.5625 82.371094 C 354.550781 81.980469 354.488281 81.324219 354.140625 80.742188 C 353.71875 80.035156 353.21875 79.769531 352.910156 79.605469 C 352.859375 79.582031 352.859375 79.542969 352.859375 79.460938 C 352.859375 79.308594 352.871094 79.308594 353.070312 79.308594 Z M 353.195312 79.308594 "/>
<path fill-rule="nonzero" fill="rgb(0%, 0%, 0%)" fill-opacity="1" d="M 355.296875 76.460938 C 355.507812 76.460938 355.519531 76.460938 355.519531 76.59375 C 355.519531 77.257812 355.132812 78.734375 353.195312 79.613281 L 353.070312 79.613281 C 352.871094 79.613281 352.859375 79.613281 352.859375 79.460938 C 352.859375 79.339844 352.871094 79.328125 352.933594 79.296875 C 353.964844 78.765625 354.527344 77.863281 354.5625 76.53125 C 354.5625 76.460938 354.613281 76.460938 354.789062 76.460938 Z M 355.296875 76.460938 "/>
<path fill-rule="nonzero" fill="rgb(0%, 0%, 0%)" fill-opacity="1" d="M 354.5625 76.523438 L 354.585938 4.34375 L 355.535156 4.34375 L 355.515625 76.523438 Z M 354.5625 76.523438 "/>
<path fill-rule="nonzero" fill="rgb(0%, 0%, 0%)" fill-opacity="1" d="M 357.035156 1.253906 C 357.222656 1.253906 357.234375 1.253906 357.234375 1.40625 C 357.234375 1.53125 357.222656 1.539062 357.171875 1.570312 C 356.128906 2.101562 355.570312 3.003906 355.542969 4.335938 C 355.542969 4.40625 355.480469 4.40625 355.320312 4.40625 L 354.808594 4.40625 C 354.597656 4.40625 354.585938 4.40625 354.585938 4.273438 C 354.585938 3.609375 354.972656 2.132812 356.898438 1.253906 Z M 357.035156 1.253906 "/>
<path fill-rule="nonzero" fill="rgb(0%, 0%, 0%)" fill-opacity="1" d="M 110.261719 36.757812 C 110.429688 36.757812 110.476562 36.757812 110.476562 36.84375 C 110.476562 37.257812 110.539062 37.9375 110.875 38.546875 C 111.296875 39.277344 111.78125 39.554688 112.082031 39.726562 C 112.117188 39.746094 112.117188 39.789062 112.117188 39.875 C 112.117188 40.035156 112.105469 40.035156 111.925781 40.035156 L 111.792969 40.035156 C 109.910156 39.121094 109.546875 37.589844 109.546875 36.898438 C 109.546875 36.757812 109.558594 36.757812 109.765625 36.757812 Z M 110.261719 36.757812 "/>
<path fill-rule="nonzero" fill="rgb(0%, 0%, 0%)" fill-opacity="1" d="M 109.546875 36.824219 L 109.550781 23.636719 L 110.476562 23.636719 L 110.472656 36.824219 Z M 109.546875 36.824219 "/>
<path fill-rule="nonzero" fill="rgb(0%, 0%, 0%)" fill-opacity="1" d="M 108.226562 20.425781 C 110.121094 21.339844 110.480469 22.871094 110.480469 23.5625 C 110.480469 23.699219 110.46875 23.699219 110.265625 23.699219 L 109.769531 23.699219 C 109.589844 23.699219 109.550781 23.699219 109.550781 23.605469 C 109.539062 23.199219 109.480469 22.519531 109.140625 21.914062 C 108.730469 21.179688 108.25 20.90625 107.949219 20.734375 C 107.898438 20.714844 107.898438 20.671875 107.898438 20.585938 C 107.898438 20.425781 107.910156 20.425781 108.105469 20.425781 Z M 108.226562 20.425781 "/>
<path fill-rule="nonzero" fill="rgb(0%, 0%, 0%)" fill-opacity="1" d="M 110.265625 17.472656 C 110.472656 17.472656 110.484375 17.472656 110.484375 17.609375 C 110.484375 18.300781 110.109375 19.832031 108.226562 20.746094 L 108.105469 20.746094 C 107.910156 20.746094 107.898438 20.746094 107.898438 20.585938 C 107.898438 20.457031 107.910156 20.449219 107.972656 20.417969 C 108.972656 19.863281 109.515625 18.929688 109.554688 17.546875 C 109.554688 17.472656 109.601562 17.472656 109.769531 17.472656 Z M 110.265625 17.472656 "/>
<path fill-rule="nonzero" fill="rgb(0%, 0%, 0%)" fill-opacity="1" d="M 109.554688 17.535156 L 109.558594 4.351562 L 110.480469 4.351562 L 110.476562 17.535156 Z M 109.554688 17.535156 "/>
<path fill-rule="nonzero" fill="rgb(0%, 0%, 0%)" fill-opacity="1" d="M 111.9375 1.140625 C 112.117188 1.140625 112.128906 1.140625 112.128906 1.300781 C 112.128906 1.425781 112.117188 1.4375 112.070312 1.46875 C 111.054688 2.023438 110.511719 2.957031 110.488281 4.339844 C 110.488281 4.414062 110.425781 4.414062 110.269531 4.414062 L 109.773438 4.414062 C 109.570312 4.414062 109.558594 4.414062 109.558594 4.277344 C 109.558594 3.585938 109.933594 2.054688 111.804688 1.140625 Z M 111.9375 1.140625 "/>
<path fill-rule="nonzero" fill="rgb(0%, 0%, 0%)" fill-opacity="1" d="M 50.390625 36.757812 C 50.222656 36.757812 50.171875 36.757812 50.171875 36.84375 C 50.171875 37.257812 50.113281 37.9375 49.773438 38.546875 C 49.351562 39.277344 48.871094 39.554688 48.570312 39.726562 C 48.53125 39.746094 48.53125 39.789062 48.53125 39.875 C 48.53125 40.035156 48.542969 40.035156 48.726562 40.035156 L 48.859375 40.035156 C 50.742188 39.121094 51.101562 37.589844 51.101562 36.898438 C 51.101562 36.757812 51.089844 36.757812 50.886719 36.757812 Z M 50.390625 36.757812 "/>
<path fill-rule="nonzero" fill="rgb(0%, 0%, 0%)" fill-opacity="1" d="M 51.101562 36.824219 L 51.097656 23.636719 L 50.175781 23.636719 L 50.179688 36.824219 Z M 51.101562 36.824219 "/>
<path fill-rule="nonzero" fill="rgb(0%, 0%, 0%)" fill-opacity="1" d="M 52.425781 20.425781 C 50.53125 21.339844 50.167969 22.871094 50.167969 23.5625 C 50.167969 23.699219 50.179688 23.699219 50.386719 23.699219 L 50.882812 23.699219 C 51.0625 23.699219 51.097656 23.699219 51.097656 23.605469 C 51.109375 23.199219 51.171875 22.519531 51.507812 21.914062 C 51.917969 21.179688 52.402344 20.90625 52.703125 20.734375 C 52.75 20.714844 52.75 20.671875 52.75 20.585938 C 52.75 20.425781 52.738281 20.425781 52.546875 20.425781 Z M 52.425781 20.425781 "/>
<path fill-rule="nonzero" fill="rgb(0%, 0%, 0%)" fill-opacity="1" d="M 50.382812 17.472656 C 50.179688 17.472656 50.167969 17.472656 50.167969 17.609375 C 50.167969 18.300781 50.542969 19.832031 52.425781 20.746094 L 52.546875 20.746094 C 52.738281 20.746094 52.75 20.746094 52.75 20.585938 C 52.75 20.457031 52.738281 20.449219 52.679688 20.417969 C 51.675781 19.863281 51.132812 18.929688 51.097656 17.546875 C 51.097656 17.472656 51.046875 17.472656 50.878906 17.472656 Z M 50.382812 17.472656 "/>
<path fill-rule="nonzero" fill="rgb(0%, 0%, 0%)" fill-opacity="1" d="M 51.097656 17.535156 L 51.09375 4.351562 L 50.167969 4.351562 L 50.171875 17.535156 Z M 51.097656 17.535156 "/>
<path fill-rule="nonzero" fill="rgb(0%, 0%, 0%)" fill-opacity="1" d="M 48.714844 1.140625 C 48.535156 1.140625 48.519531 1.140625 48.519531 1.300781 C 48.519531 1.425781 48.535156 1.4375 48.582031 1.46875 C 49.59375 2.023438 50.140625 2.957031 50.164062 4.339844 C 50.164062 4.414062 50.222656 4.414062 50.378906 4.414062 L 50.875 4.414062 C 51.082031 4.414062 51.09375 4.414062 51.09375 4.277344 C 51.09375 3.585938 50.71875 2.054688 48.847656 1.140625 Z M 48.714844 1.140625 "/>
</svg>
