<?xml version="1.0" encoding="UTF-8"?>
<svg xmlns="http://www.w3.org/2000/svg" xmlns:xlink="http://www.w3.org/1999/xlink" width="410.775726pt" height="126.050133pt" viewBox="0 0 410.775726 126.050133">
<defs>
<clipPath id="clip-0">
<path clip-rule="nonzero" d="M 233 26 L 410.777344 26 L 410.777344 82 L 233 82 Z M 233 26 "/>
</clipPath>
<clipPath id="clip-1">
<path clip-rule="nonzero" d="M 233 28 L 410.777344 28 L 410.777344 90 L 233 90 Z M 233 28 "/>
</clipPath>
<clipPath id="clip-2">
<path clip-rule="nonzero" d="M 85 96 L 117 96 L 117 126.050781 L 85 126.050781 Z M 85 96 "/>
</clipPath>
</defs>
<path fill="none" stroke-width="0.751181" stroke-linecap="butt" stroke-linejoin="miter" stroke="rgb(50.195312%, 50.195312%, 50.195312%)" stroke-opacity="1" stroke-dasharray="1.502362 1.502362" stroke-miterlimit="4" d="M 383.015625 9.851562 L 383.015625 104.550781 "/>
<path fill="none" stroke-width="0.751181" stroke-linecap="butt" stroke-linejoin="miter" stroke="rgb(50.195312%, 50.195312%, 50.195312%)" stroke-opacity="1" stroke-dasharray="1.502362 1.502362" stroke-miterlimit="4" d="M 272.59375 9.851562 L 272.59375 104.550781 "/>
<path fill="none" stroke-width="0.751181" stroke-linecap="butt" stroke-linejoin="miter" stroke="rgb(50.195312%, 50.195312%, 50.195312%)" stroke-opacity="1" stroke-dasharray="1.502362 1.502362" stroke-miterlimit="4" d="M 361.421875 9.851562 L 361.421875 104.550781 "/>
<path fill="none" stroke-width="0.751181" stroke-linecap="butt" stroke-linejoin="miter" stroke="rgb(50.195312%, 50.195312%, 50.195312%)" stroke-opacity="1" stroke-dasharray="1.502362 1.502362" stroke-miterlimit="4" d="M 329.601562 9.851562 L 329.601562 104.550781 "/>
<g clip-path="url(#clip-0)">
<path fill="none" stroke-width="1.984252" stroke-linecap="butt" stroke-linejoin="miter" stroke="rgb(27.842712%, 40.391541%, 47.450256%)" stroke-opacity="1" stroke-miterlimit="4" d="M 244.902344 50.207031 L 272.480469 50.269531 L 329.933594 70.371094 L 360.347656 58.882812 L 383.179688 41.546875 L 399.785156 37.597656 "/>
</g>
<g clip-path="url(#clip-1)">
<path fill="none" stroke-width="1.984252" stroke-linecap="butt" stroke-linejoin="miter" stroke="rgb(81.959534%, 51.371765%, 38.430786%)" stroke-opacity="1" stroke-miterlimit="4" d="M 399.851562 64.835938 L 382.984375 77.167969 L 360.449219 49.242188 L 329.996094 40.050781 L 272.734375 78.179688 L 244.851562 78.246094 "/>
</g>
<path fill="none" stroke-width="0.850394" stroke-linecap="butt" stroke-linejoin="miter" stroke="rgb(0%, 0%, 0%)" stroke-opacity="1" stroke-miterlimit="4" d="M 25.230469 66.117188 L 89.179688 29.996094 "/>
<path fill-rule="evenodd" fill="rgb(0%, 0%, 0%)" fill-opacity="1" stroke-width="0.394908" stroke-linecap="butt" stroke-linejoin="miter" stroke="rgb(0%, 0%, 0%)" stroke-opacity="1" stroke-miterlimit="4" d="M -51.806263 -60.928301 L -50.325716 -62.40849 L -55.508663 -60.929584 L -50.326074 -59.447755 Z M -51.806263 -60.928301 " transform="matrix(-1, 0.564803, -0.564803, -1, 0, 0)"/>
<path fill="none" stroke-width="0.850394" stroke-linecap="butt" stroke-linejoin="miter" stroke="rgb(0%, 0%, 0%)" stroke-opacity="1" stroke-miterlimit="4" d="M 25.691406 71.453125 L 88.605469 82.042969 "/>
<path fill-rule="evenodd" fill="rgb(0%, 0%, 0%)" fill-opacity="1" stroke-width="0.447252" stroke-linecap="butt" stroke-linejoin="miter" stroke="rgb(0%, 0%, 0%)" stroke-opacity="1" stroke-miterlimit="4" d="M -96.241558 -65.276798 L -94.562915 -66.953886 L -100.433213 -65.278274 L -94.56511 -63.601954 Z M -96.241558 -65.276798 " transform="matrix(-1, -0.168324, 0.168324, -1, 0, 0)"/>
<path fill="none" stroke-width="0.850394" stroke-linecap="butt" stroke-linejoin="miter" stroke="rgb(0%, 0%, 0%)" stroke-opacity="1" stroke-miterlimit="4" d="M 25.59375 68.875 C 25.59375 75.007812 20.621094 79.984375 14.488281 79.984375 C 8.355469 79.984375 3.378906 75.007812 3.378906 68.875 C 3.378906 62.742188 8.355469 57.769531 14.488281 57.769531 C 20.621094 57.769531 25.59375 62.742188 25.59375 68.875 Z M 25.59375 68.875 "/>
<path fill-rule="nonzero" fill="rgb(0%, 0%, 0%)" fill-opacity="1" d="M 15.121094 67.886719 C 15.191406 67.601562 15.460938 66.550781 16.242188 66.550781 C 16.296875 66.550781 16.582031 66.550781 16.8125 66.691406 C 16.492188 66.765625 16.277344 67.03125 16.277344 67.316406 C 16.277344 67.496094 16.402344 67.707031 16.707031 67.707031 C 16.957031 67.707031 17.3125 67.511719 17.3125 67.050781 C 17.3125 66.460938 16.652344 66.300781 16.261719 66.300781 C 15.601562 66.300781 15.210938 66.90625 15.066406 67.15625 C 14.78125 66.40625 14.175781 66.300781 13.835938 66.300781 C 12.664062 66.300781 12.003906 67.761719 12.003906 68.046875 C 12.003906 68.171875 12.128906 68.171875 12.144531 68.171875 C 12.234375 68.171875 12.269531 68.136719 12.289062 68.046875 C 12.679688 66.835938 13.429688 66.550781 13.820312 66.550781 C 14.035156 66.550781 14.425781 66.65625 14.425781 67.316406 C 14.425781 67.671875 14.230469 68.421875 13.820312 70.023438 C 13.640625 70.71875 13.230469 71.199219 12.734375 71.199219 C 12.664062 71.199219 12.414062 71.199219 12.164062 71.058594 C 12.449219 70.984375 12.699219 70.753906 12.699219 70.433594 C 12.699219 70.132812 12.449219 70.042969 12.289062 70.042969 C 11.933594 70.042969 11.664062 70.328125 11.664062 70.703125 C 11.664062 71.21875 12.214844 71.449219 12.714844 71.449219 C 13.480469 71.449219 13.890625 70.648438 13.910156 70.59375 C 14.050781 71.003906 14.460938 71.449219 15.136719 71.449219 C 16.3125 71.449219 16.957031 69.988281 16.957031 69.703125 C 16.957031 69.578125 16.867188 69.578125 16.832031 69.578125 C 16.722656 69.578125 16.707031 69.632812 16.671875 69.703125 C 16.296875 70.933594 15.53125 71.199219 15.175781 71.199219 C 14.730469 71.199219 14.550781 70.84375 14.550781 70.453125 C 14.550781 70.203125 14.605469 69.953125 14.730469 69.453125 Z M 15.121094 67.886719 "/>
<path fill="none" stroke-width="0.850394" stroke-linecap="butt" stroke-linejoin="miter" stroke="rgb(0%, 0%, 0%)" stroke-opacity="1" stroke-miterlimit="4" d="M 177.117188 75.445312 L 111.015625 30.207031 "/>
<path fill-rule="evenodd" fill="rgb(0%, 0%, 0%)" fill-opacity="1" stroke-width="0.374286" stroke-linecap="butt" stroke-linejoin="miter" stroke="rgb(0%, 0%, 0%)" stroke-opacity="1" stroke-miterlimit="4" d="M -152.977671 31.168973 L -151.573923 29.766892 L -156.488947 31.16962 L -151.57559 32.572721 Z M -152.977671 31.168973 " transform="matrix(-1, -0.684364, 0.684364, -1, 0, 0)"/>
<path fill="none" stroke-width="0.850394" stroke-linecap="butt" stroke-linejoin="miter" stroke="rgb(0%, 0%, 0%)" stroke-opacity="1" stroke-miterlimit="4" d="M 175.085938 79.402344 L 112.148438 55.699219 "/>
<path fill-rule="evenodd" fill="rgb(0%, 0%, 0%)" fill-opacity="1" stroke-width="0.424445" stroke-linecap="butt" stroke-linejoin="miter" stroke="rgb(0%, 0%, 0%)" stroke-opacity="1" stroke-miterlimit="4" d="M -176.344209 -11.795246 L -174.752209 -13.386951 L -180.320309 -11.794017 L -174.752505 -10.203246 Z M -176.344209 -11.795246 " transform="matrix(-1, -0.376581, 0.376581, -1, 0, 0)"/>
<path fill="none" stroke-width="0.850394" stroke-linecap="butt" stroke-linejoin="miter" stroke="rgb(0%, 0%, 0%)" stroke-opacity="1" stroke-miterlimit="4" d="M 175.40625 49.03125 L 112.003906 27.992188 "/>
<path fill-rule="evenodd" fill="rgb(0%, 0%, 0%)" fill-opacity="1" stroke-width="0.430465" stroke-linecap="butt" stroke-linejoin="miter" stroke="rgb(0%, 0%, 0%)" stroke-opacity="1" stroke-miterlimit="4" d="M -169.438759 8.260537 L -167.825653 6.647168 L -173.473028 8.26321 L -167.824222 9.877161 Z M -169.438759 8.260537 " transform="matrix(-1, -0.33181, 0.33181, -1, 0, 0)"/>
<path fill="none" stroke-width="0.850394" stroke-linecap="butt" stroke-linejoin="miter" stroke="rgb(0%, 0%, 0%)" stroke-opacity="1" stroke-miterlimit="4" d="M 174.613281 57.429688 L 111.824219 80.183594 "/>
<path fill-rule="evenodd" fill="rgb(0%, 0%, 0%)" fill-opacity="1" stroke-width="0.426406" stroke-linecap="butt" stroke-linejoin="miter" stroke="rgb(0%, 0%, 0%)" stroke-opacity="1" stroke-miterlimit="4" d="M -132.749853 -106.698921 L -131.151705 -108.295528 L -136.746273 -106.698021 L -131.149794 -105.099522 Z M -132.749853 -106.698921 " transform="matrix(-1, 0.362404, -0.362404, -1, 0, 0)"/>
<path fill="none" stroke-width="0.850394" stroke-linecap="butt" stroke-linejoin="miter" stroke="rgb(0%, 0%, 0%)" stroke-opacity="1" stroke-miterlimit="4" d="M 174.371094 53.105469 L 112.097656 52.953125 "/>
<path fill-rule="evenodd" fill="rgb(0%, 0%, 0%)" fill-opacity="1" stroke-width="0.453542" stroke-linecap="butt" stroke-linejoin="miter" stroke="rgb(0%, 0%, 0%)" stroke-opacity="1" stroke-miterlimit="4" d="M -171.095018 -52.683685 L -169.392069 -54.386985 L -175.345021 -52.685218 L -169.391727 -50.984642 Z M -171.095018 -52.683685 " transform="matrix(-1, -0.00239671, 0.00239671, -1, 0, 0)"/>
<path fill="none" stroke-width="0.850394" stroke-linecap="butt" stroke-linejoin="miter" stroke="rgb(0%, 0%, 0%)" stroke-opacity="1" stroke-miterlimit="4" d="M 198.539062 54.335938 C 198.539062 60.46875 193.566406 65.441406 187.429688 65.441406 C 181.296875 65.441406 176.324219 60.46875 176.324219 54.335938 C 176.324219 48.199219 181.296875 43.226562 187.429688 43.226562 C 193.566406 43.226562 198.539062 48.199219 198.539062 54.335938 Z M 198.539062 54.335938 "/>
<path fill-rule="nonzero" fill="rgb(0%, 0%, 0%)" fill-opacity="1" d="M 188.121094 51.351562 C 188.175781 51.191406 188.175781 51.171875 188.175781 51.085938 C 188.175781 50.886719 188.015625 50.78125 187.835938 50.78125 C 187.730469 50.78125 187.550781 50.851562 187.445312 51.011719 C 187.425781 51.085938 187.320312 51.421875 187.285156 51.636719 C 187.195312 51.921875 187.125 52.242188 187.050781 52.546875 L 186.535156 54.59375 C 186.5 54.753906 186 55.554688 185.253906 55.554688 C 184.683594 55.554688 184.558594 55.058594 184.558594 54.628906 C 184.558594 54.113281 184.753906 53.398438 185.128906 52.402344 C 185.304688 51.941406 185.359375 51.816406 185.359375 51.582031 C 185.359375 51.085938 185.003906 50.65625 184.433594 50.65625 C 183.347656 50.65625 182.9375 52.3125 182.9375 52.402344 C 182.9375 52.527344 183.042969 52.527344 183.0625 52.527344 C 183.1875 52.527344 183.1875 52.492188 183.238281 52.3125 C 183.5625 51.246094 184.007812 50.90625 184.398438 50.90625 C 184.488281 50.90625 184.683594 50.90625 184.683594 51.261719 C 184.683594 51.546875 184.558594 51.851562 184.488281 52.0625 C 184.023438 53.277344 183.828125 53.917969 183.828125 54.453125 C 183.828125 55.46875 184.539062 55.804688 185.21875 55.804688 C 185.664062 55.804688 186.035156 55.609375 186.359375 55.289062 C 186.214844 55.875 186.074219 56.445312 185.628906 57.050781 C 185.324219 57.425781 184.898438 57.765625 184.378906 57.765625 C 184.21875 57.765625 183.703125 57.730469 183.507812 57.285156 C 183.683594 57.285156 183.84375 57.285156 183.988281 57.140625 C 184.113281 57.050781 184.21875 56.890625 184.21875 56.679688 C 184.21875 56.320312 183.917969 56.285156 183.808594 56.285156 C 183.542969 56.285156 183.167969 56.464844 183.167969 57.015625 C 183.167969 57.585938 183.667969 58.015625 184.378906 58.015625 C 185.539062 58.015625 186.714844 56.980469 187.035156 55.699219 Z M 188.121094 51.351562 "/>
<path fill-rule="nonzero" fill="rgb(0%, 0%, 0%)" fill-opacity="1" d="M 190.824219 52.324219 C 190.824219 52.109375 190.824219 52.109375 190.589844 52.109375 C 190.074219 52.609375 189.363281 52.609375 189.042969 52.609375 L 189.042969 52.894531 C 189.21875 52.894531 189.753906 52.894531 190.179688 52.679688 L 190.179688 56.726562 C 190.179688 56.992188 190.179688 57.097656 189.398438 57.097656 L 189.09375 57.097656 L 189.09375 57.382812 C 189.238281 57.382812 190.21875 57.347656 190.5 57.347656 C 190.75 57.347656 191.75 57.382812 191.925781 57.382812 L 191.925781 57.097656 L 191.625 57.097656 C 190.824219 57.097656 190.824219 56.992188 190.824219 56.726562 Z M 190.824219 52.324219 "/>
<path fill="none" stroke-width="0.850394" stroke-linecap="butt" stroke-linejoin="miter" stroke="rgb(0%, 0%, 0%)" stroke-opacity="1" stroke-miterlimit="4" d="M 198.78125 83.414062 C 198.78125 89.550781 193.808594 94.523438 187.675781 94.523438 C 181.539062 94.523438 176.566406 89.550781 176.566406 83.414062 C 176.566406 77.28125 181.539062 72.308594 187.675781 72.308594 C 193.808594 72.308594 198.78125 77.28125 198.78125 83.414062 Z M 198.78125 83.414062 "/>
<path fill-rule="nonzero" fill="rgb(0%, 0%, 0%)" fill-opacity="1" d="M 188.238281 80.429688 C 188.292969 80.269531 188.292969 80.253906 188.292969 80.164062 C 188.292969 79.96875 188.132812 79.859375 187.953125 79.859375 C 187.847656 79.859375 187.667969 79.933594 187.5625 80.09375 C 187.542969 80.164062 187.4375 80.503906 187.402344 80.714844 C 187.3125 81 187.242188 81.320312 187.171875 81.625 L 186.652344 83.671875 C 186.617188 83.832031 186.117188 84.636719 185.371094 84.636719 C 184.800781 84.636719 184.675781 84.136719 184.675781 83.707031 C 184.675781 83.191406 184.871094 82.480469 185.246094 81.480469 C 185.425781 81.019531 185.476562 80.894531 185.476562 80.664062 C 185.476562 80.164062 185.121094 79.734375 184.550781 79.734375 C 183.464844 79.734375 183.054688 81.394531 183.054688 81.480469 C 183.054688 81.605469 183.160156 81.605469 183.179688 81.605469 C 183.304688 81.605469 183.304688 81.570312 183.359375 81.394531 C 183.679688 80.324219 184.125 79.984375 184.515625 79.984375 C 184.605469 79.984375 184.800781 79.984375 184.800781 80.339844 C 184.800781 80.625 184.675781 80.929688 184.605469 81.144531 C 184.140625 82.355469 183.945312 82.996094 183.945312 83.53125 C 183.945312 84.546875 184.65625 84.882812 185.335938 84.882812 C 185.78125 84.882812 186.15625 84.6875 186.476562 84.367188 C 186.332031 84.957031 186.191406 85.527344 185.746094 86.132812 C 185.441406 86.503906 185.015625 86.84375 184.496094 86.84375 C 184.335938 86.84375 183.820312 86.808594 183.625 86.363281 C 183.804688 86.363281 183.964844 86.363281 184.105469 86.21875 C 184.230469 86.132812 184.335938 85.972656 184.335938 85.757812 C 184.335938 85.402344 184.035156 85.367188 183.929688 85.367188 C 183.660156 85.367188 183.285156 85.542969 183.285156 86.097656 C 183.285156 86.664062 183.785156 87.09375 184.496094 87.09375 C 185.65625 87.09375 186.832031 86.058594 187.152344 84.777344 Z M 188.238281 80.429688 "/>
<path fill-rule="nonzero" fill="rgb(0%, 0%, 0%)" fill-opacity="1" d="M 192.292969 85.019531 L 192.027344 85.019531 C 192.007812 85.199219 191.921875 85.660156 191.8125 85.734375 C 191.761719 85.785156 191.152344 85.785156 191.03125 85.785156 L 189.570312 85.785156 C 190.40625 85.054688 190.691406 84.824219 191.152344 84.449219 C 191.742188 83.988281 192.292969 83.488281 192.292969 82.738281 C 192.292969 81.777344 191.457031 81.191406 190.441406 81.191406 C 189.460938 81.191406 188.785156 81.886719 188.785156 82.613281 C 188.785156 83.007812 189.125 83.0625 189.210938 83.0625 C 189.390625 83.0625 189.621094 82.917969 189.621094 82.632812 C 189.621094 82.492188 189.570312 82.207031 189.160156 82.207031 C 189.410156 81.652344 189.941406 81.476562 190.316406 81.476562 C 191.117188 81.476562 191.527344 82.097656 191.527344 82.738281 C 191.527344 83.433594 191.03125 83.96875 190.78125 84.253906 L 188.875 86.160156 C 188.785156 86.230469 188.785156 86.25 188.785156 86.464844 L 192.0625 86.464844 Z M 192.292969 85.019531 "/>
<path fill="none" stroke-width="0.850394" stroke-linecap="butt" stroke-linejoin="miter" stroke="rgb(50.195312%, 50.195312%, 50.195312%)" stroke-opacity="1" stroke-miterlimit="4" d="M 245.050781 105.429688 L 245.050781 107.3125 "/>
<path fill="none" stroke-width="0.850394" stroke-linecap="butt" stroke-linejoin="miter" stroke="rgb(50.195312%, 50.195312%, 50.195312%)" stroke-opacity="1" stroke-miterlimit="4" d="M 322.648438 105.429688 L 322.648438 107.3125 "/>
<path fill="none" stroke-width="0.850394" stroke-linecap="butt" stroke-linejoin="miter" stroke="rgb(50.195312%, 50.195312%, 50.195312%)" stroke-opacity="1" stroke-miterlimit="4" d="M 400.246094 105.429688 L 400.246094 107.3125 "/>
<path fill="none" stroke-width="0.850394" stroke-linecap="butt" stroke-linejoin="miter" stroke="rgb(50.195312%, 50.195312%, 50.195312%)" stroke-opacity="1" stroke-miterlimit="4" d="M 260.570312 106.714844 L 260.570312 105.429688 "/>
<path fill="none" stroke-width="0.850394" stroke-linecap="butt" stroke-linejoin="miter" stroke="rgb(50.195312%, 50.195312%, 50.195312%)" stroke-opacity="1" stroke-miterlimit="4" d="M 276.089844 106.714844 L 276.089844 105.429688 "/>
<path fill="none" stroke-width="0.850394" stroke-linecap="butt" stroke-linejoin="miter" stroke="rgb(50.195312%, 50.195312%, 50.195312%)" stroke-opacity="1" stroke-miterlimit="4" d="M 291.609375 106.714844 L 291.609375 105.429688 "/>
<path fill="none" stroke-width="0.850394" stroke-linecap="butt" stroke-linejoin="miter" stroke="rgb(50.195312%, 50.195312%, 50.195312%)" stroke-opacity="1" stroke-miterlimit="4" d="M 307.128906 106.714844 L 307.128906 105.429688 "/>
<path fill="none" stroke-width="0.850394" stroke-linecap="butt" stroke-linejoin="miter" stroke="rgb(50.195312%, 50.195312%, 50.195312%)" stroke-opacity="1" stroke-miterlimit="4" d="M 338.167969 106.714844 L 338.167969 105.429688 "/>
<path fill="none" stroke-width="0.850394" stroke-linecap="butt" stroke-linejoin="miter" stroke="rgb(50.195312%, 50.195312%, 50.195312%)" stroke-opacity="1" stroke-miterlimit="4" d="M 353.6875 106.714844 L 353.6875 105.429688 "/>
<path fill="none" stroke-width="0.850394" stroke-linecap="butt" stroke-linejoin="miter" stroke="rgb(50.195312%, 50.195312%, 50.195312%)" stroke-opacity="1" stroke-miterlimit="4" d="M 369.207031 106.714844 L 369.207031 105.429688 "/>
<path fill="none" stroke-width="0.850394" stroke-linecap="butt" stroke-linejoin="miter" stroke="rgb(50.195312%, 50.195312%, 50.195312%)" stroke-opacity="1" stroke-miterlimit="4" d="M 384.726562 106.714844 L 384.726562 105.429688 "/>
<path fill="none" stroke-width="0.850394" stroke-linecap="butt" stroke-linejoin="miter" stroke="rgb(50.195312%, 50.195312%, 50.195312%)" stroke-opacity="1" stroke-miterlimit="4" d="M 244.875 9.433594 L 242.992188 9.433594 "/>
<path fill="none" stroke-width="0.850394" stroke-linecap="butt" stroke-linejoin="miter" stroke="rgb(50.195312%, 50.195312%, 50.195312%)" stroke-opacity="1" stroke-miterlimit="4" d="M 244.875 57.210938 L 242.992188 57.210938 "/>
<path fill="none" stroke-width="0.850394" stroke-linecap="butt" stroke-linejoin="miter" stroke="rgb(50.195312%, 50.195312%, 50.195312%)" stroke-opacity="1" stroke-miterlimit="4" d="M 244.785156 104.988281 L 242.902344 104.988281 "/>
<path fill="none" stroke-width="0.850394" stroke-linecap="butt" stroke-linejoin="miter" stroke="rgb(50.195312%, 50.195312%, 50.195312%)" stroke-opacity="1" stroke-miterlimit="4" d="M 244.875 18.988281 L 243.589844 18.988281 "/>
<path fill="none" stroke-width="0.850394" stroke-linecap="butt" stroke-linejoin="miter" stroke="rgb(50.195312%, 50.195312%, 50.195312%)" stroke-opacity="1" stroke-miterlimit="4" d="M 244.875 28.542969 L 243.589844 28.542969 "/>
<path fill="none" stroke-width="0.850394" stroke-linecap="butt" stroke-linejoin="miter" stroke="rgb(50.195312%, 50.195312%, 50.195312%)" stroke-opacity="1" stroke-miterlimit="4" d="M 244.875 38.101562 L 243.589844 38.101562 "/>
<path fill="none" stroke-width="0.850394" stroke-linecap="butt" stroke-linejoin="miter" stroke="rgb(50.195312%, 50.195312%, 50.195312%)" stroke-opacity="1" stroke-miterlimit="4" d="M 244.875 47.65625 L 243.589844 47.65625 "/>
<path fill="none" stroke-width="0.850394" stroke-linecap="butt" stroke-linejoin="miter" stroke="rgb(50.195312%, 50.195312%, 50.195312%)" stroke-opacity="1" stroke-miterlimit="4" d="M 244.875 66.765625 L 243.589844 66.765625 "/>
<path fill="none" stroke-width="0.850394" stroke-linecap="butt" stroke-linejoin="miter" stroke="rgb(50.195312%, 50.195312%, 50.195312%)" stroke-opacity="1" stroke-miterlimit="4" d="M 244.875 76.320312 L 243.589844 76.320312 "/>
<path fill="none" stroke-width="0.850394" stroke-linecap="butt" stroke-linejoin="miter" stroke="rgb(50.195312%, 50.195312%, 50.195312%)" stroke-opacity="1" stroke-miterlimit="4" d="M 244.875 85.875 L 243.589844 85.875 "/>
<path fill="none" stroke-width="0.850394" stroke-linecap="butt" stroke-linejoin="miter" stroke="rgb(50.195312%, 50.195312%, 50.195312%)" stroke-opacity="1" stroke-miterlimit="4" d="M 244.875 95.433594 L 243.589844 95.433594 "/>
<path fill="none" stroke-width="0.764724" stroke-linecap="butt" stroke-linejoin="miter" stroke="rgb(1.176453%, 0%, 0%)" stroke-opacity="1" stroke-miterlimit="4" d="M 245.039062 9.460938 L 400.230469 9.460938 L 400.230469 105.046875 L 245.039062 105.046875 Z M 245.039062 9.460938 "/>
<path fill-rule="nonzero" fill="rgb(0%, 0%, 0%)" fill-opacity="1" d="M 305.273438 115.117188 L 306.113281 115.117188 L 306.113281 122.832031 L 305.273438 122.832031 Z M 305.273438 115.117188 "/>
<path fill-rule="nonzero" fill="rgb(0%, 0%, 0%)" fill-opacity="1" d="M 311.988281 122.832031 L 311.988281 119.789062 C 311.988281 118.597656 311.480469 117.671875 310.1875 117.671875 C 309.539062 117.671875 308.875 117.917969 308.472656 118.476562 L 308.472656 117.792969 L 307.652344 117.792969 L 307.652344 122.832031 L 308.472656 122.832031 L 308.472656 119.980469 C 308.507812 119.019531 309.101562 118.40625 309.996094 118.40625 C 310.871094 118.40625 311.183594 118.933594 311.183594 119.824219 L 311.183594 122.832031 Z M 311.988281 122.832031 "/>
<path fill-rule="nonzero" fill="rgb(0%, 0%, 0%)" fill-opacity="1" d="M 318.078125 120.3125 C 318.078125 118.84375 317.101562 117.792969 315.613281 117.792969 L 313.460938 117.792969 L 313.460938 125.527344 L 314.300781 125.527344 L 314.300781 122.832031 L 315.542969 122.832031 C 317.171875 122.832031 318.078125 121.816406 318.078125 120.3125 Z M 317.277344 120.3125 C 317.277344 121.3125 316.644531 122.097656 315.542969 122.097656 L 314.300781 122.097656 L 314.300781 118.53125 L 315.542969 118.53125 C 316.628906 118.53125 317.277344 119.246094 317.277344 120.3125 Z M 317.277344 120.3125 "/>
<path fill-rule="nonzero" fill="rgb(0%, 0%, 0%)" fill-opacity="1" d="M 323.664062 122.832031 L 323.664062 117.792969 L 322.808594 117.792969 L 322.808594 120.644531 C 322.808594 121.589844 322.335938 122.238281 321.320312 122.238281 C 320.429688 122.238281 320.113281 121.679688 320.113281 120.820312 L 320.113281 117.792969 L 319.308594 117.792969 L 319.308594 120.839844 C 319.308594 122.027344 319.871094 122.972656 321.128906 122.972656 C 321.777344 122.972656 322.441406 122.605469 322.808594 122.167969 L 322.808594 122.832031 Z M 323.664062 122.832031 "/>
<path fill-rule="nonzero" fill="rgb(0%, 0%, 0%)" fill-opacity="1" d="M 328.023438 122.832031 L 328.023438 122.117188 L 327.148438 122.117188 C 326.359375 122.117188 326.222656 121.921875 326.222656 121.1875 L 326.222656 118.460938 L 327.707031 118.460938 L 327.707031 117.792969 L 326.222656 117.792969 L 326.222656 116.359375 L 325.871094 116.359375 L 325.398438 117.792969 L 324.804688 117.792969 L 324.804688 118.460938 L 325.398438 118.460938 L 325.398438 121.1875 C 325.398438 122.449219 325.90625 122.832031 327.148438 122.832031 Z M 328.023438 122.832031 "/>
<path fill-rule="nonzero" fill="rgb(0%, 0%, 0%)" fill-opacity="1" d="M 330.140625 121.695312 L 329.125 121.695312 L 329.125 122.464844 C 329.195312 122.605469 329.210938 122.746094 329.210938 122.886719 C 329.210938 123.289062 329.003906 123.707031 328.703125 123.898438 C 329.28125 123.882812 330.121094 123.023438 330.140625 122.484375 Z M 330.140625 121.695312 "/>
<path fill-rule="nonzero" fill="rgb(0%, 0%, 0%)" fill-opacity="1" d="M 337.84375 119.457031 C 337.914062 119.175781 338.175781 118.144531 338.945312 118.144531 C 339 118.144531 339.277344 118.144531 339.507812 118.285156 C 339.191406 118.355469 338.980469 118.617188 338.980469 118.898438 C 338.980469 119.070312 339.105469 119.28125 339.402344 119.28125 C 339.644531 119.28125 339.996094 119.089844 339.996094 118.632812 C 339.996094 118.058594 339.347656 117.898438 338.964844 117.898438 C 338.316406 117.898438 337.933594 118.496094 337.792969 118.738281 C 337.511719 118.003906 336.917969 117.898438 336.585938 117.898438 C 335.429688 117.898438 334.785156 119.335938 334.785156 119.613281 C 334.785156 119.738281 334.90625 119.738281 334.921875 119.738281 C 335.011719 119.738281 335.046875 119.703125 335.0625 119.613281 C 335.449219 118.425781 336.183594 118.144531 336.566406 118.144531 C 336.777344 118.144531 337.164062 118.25 337.164062 118.898438 C 337.164062 119.246094 336.96875 119.980469 336.566406 121.554688 C 336.394531 122.238281 335.992188 122.710938 335.5 122.710938 C 335.429688 122.710938 335.1875 122.710938 334.941406 122.570312 C 335.21875 122.5 335.464844 122.273438 335.464844 121.957031 C 335.464844 121.660156 335.21875 121.574219 335.0625 121.574219 C 334.714844 121.574219 334.449219 121.851562 334.449219 122.21875 C 334.449219 122.726562 334.992188 122.957031 335.484375 122.957031 C 336.234375 122.957031 336.636719 122.167969 336.65625 122.117188 C 336.796875 122.519531 337.199219 122.957031 337.863281 122.957031 C 339.015625 122.957031 339.644531 121.519531 339.644531 121.242188 C 339.644531 121.117188 339.558594 121.117188 339.523438 121.117188 C 339.417969 121.117188 339.402344 121.171875 339.367188 121.242188 C 339 122.449219 338.246094 122.710938 337.898438 122.710938 C 337.460938 122.710938 337.285156 122.359375 337.285156 121.976562 C 337.285156 121.730469 337.335938 121.484375 337.460938 120.996094 Z M 337.84375 119.457031 "/>
<path fill-rule="nonzero" fill="rgb(0%, 0%, 0%)" fill-opacity="1" d="M 220.472656 72.523438 C 218.355469 72.523438 216.449219 73.503906 216.449219 75.8125 C 216.449219 78.066406 218.40625 79.066406 220.472656 79.066406 C 222.535156 79.066406 224.460938 78.050781 224.460938 75.8125 C 224.460938 73.519531 222.589844 72.523438 220.472656 72.523438 Z M 220.472656 73.34375 C 222.027344 73.34375 223.707031 74.027344 223.707031 75.8125 C 223.707031 77.5625 222.011719 78.242188 220.472656 78.242188 C 218.878906 78.242188 217.199219 77.597656 217.199219 75.8125 C 217.199219 73.992188 218.863281 73.34375 220.472656 73.34375 Z M 220.472656 73.34375 "/>
<path fill-rule="nonzero" fill="rgb(0%, 0%, 0%)" fill-opacity="1" d="M 224.300781 66.964844 L 219.265625 66.964844 L 219.265625 67.820312 L 222.117188 67.820312 C 223.058594 67.820312 223.707031 68.292969 223.707031 69.308594 C 223.707031 70.199219 223.148438 70.515625 222.289062 70.515625 L 219.265625 70.515625 L 219.265625 71.320312 L 222.308594 71.320312 C 223.496094 71.320312 224.441406 70.757812 224.441406 69.5 C 224.441406 68.851562 224.074219 68.1875 223.636719 67.820312 L 224.300781 67.820312 Z M 224.300781 66.964844 "/>
<path fill-rule="nonzero" fill="rgb(0%, 0%, 0%)" fill-opacity="1" d="M 224.300781 62.605469 L 223.585938 62.605469 L 223.585938 63.480469 C 223.585938 64.265625 223.394531 64.40625 222.65625 64.40625 L 219.929688 64.40625 L 219.929688 62.921875 L 219.265625 62.921875 L 219.265625 64.40625 L 217.828125 64.40625 L 217.828125 64.757812 L 219.265625 65.230469 L 219.265625 65.824219 L 219.929688 65.824219 L 219.929688 65.230469 L 222.65625 65.230469 C 223.917969 65.230469 224.300781 64.722656 224.300781 63.480469 Z M 224.300781 62.605469 "/>
<path fill-rule="nonzero" fill="rgb(0%, 0%, 0%)" fill-opacity="1" d="M 221.785156 56.957031 C 220.3125 56.957031 219.265625 57.933594 219.265625 59.421875 L 219.265625 61.574219 L 226.996094 61.574219 L 226.996094 60.734375 L 224.300781 60.734375 L 224.300781 59.492188 C 224.300781 57.867188 223.289062 56.957031 221.785156 56.957031 Z M 221.785156 57.761719 C 222.78125 57.761719 223.566406 58.390625 223.566406 59.492188 L 223.566406 60.734375 L 220 60.734375 L 220 59.492188 C 220 58.40625 220.714844 57.761719 221.785156 57.761719 Z M 221.785156 57.761719 "/>
<path fill-rule="nonzero" fill="rgb(0%, 0%, 0%)" fill-opacity="1" d="M 224.300781 51.371094 L 219.265625 51.371094 L 219.265625 52.226562 L 222.117188 52.226562 C 223.058594 52.226562 223.707031 52.699219 223.707031 53.714844 C 223.707031 54.605469 223.148438 54.921875 222.289062 54.921875 L 219.265625 54.921875 L 219.265625 55.726562 L 222.308594 55.726562 C 223.496094 55.726562 224.441406 55.167969 224.441406 53.90625 C 224.441406 53.257812 224.074219 52.59375 223.636719 52.226562 L 224.300781 52.226562 Z M 224.300781 51.371094 "/>
<path fill-rule="nonzero" fill="rgb(0%, 0%, 0%)" fill-opacity="1" d="M 224.300781 47.011719 L 223.585938 47.011719 L 223.585938 47.886719 C 223.585938 48.675781 223.394531 48.816406 222.65625 48.816406 L 219.929688 48.816406 L 219.929688 47.328125 L 219.265625 47.328125 L 219.265625 48.816406 L 217.828125 48.816406 L 217.828125 49.164062 L 219.265625 49.636719 L 219.265625 50.230469 L 219.929688 50.230469 L 219.929688 49.636719 L 222.65625 49.636719 C 223.917969 49.636719 224.300781 49.128906 224.300781 47.886719 Z M 224.300781 47.011719 "/>
<path fill-rule="nonzero" fill="rgb(0%, 0%, 0%)" fill-opacity="1" d="M 223.164062 44.898438 L 223.164062 45.910156 L 223.933594 45.910156 C 224.074219 45.839844 224.214844 45.824219 224.355469 45.824219 C 224.757812 45.824219 225.175781 46.035156 225.371094 46.332031 C 225.351562 45.753906 224.496094 44.914062 223.953125 44.898438 Z M 223.164062 44.898438 "/>
<path fill-rule="nonzero" fill="rgb(0%, 0%, 0%)" fill-opacity="1" d="M 220.050781 35.496094 C 219.894531 35.441406 219.875 35.441406 219.789062 35.441406 C 219.597656 35.441406 219.492188 35.597656 219.492188 35.773438 C 219.492188 35.878906 219.5625 36.054688 219.71875 36.160156 C 219.789062 36.175781 220.121094 36.28125 220.332031 36.316406 C 220.609375 36.402344 220.925781 36.472656 221.222656 36.542969 L 223.234375 37.050781 C 223.394531 37.085938 224.179688 37.574219 224.179688 38.3125 C 224.179688 38.871094 223.691406 38.992188 223.269531 38.992188 C 222.761719 38.992188 222.0625 38.800781 221.082031 38.433594 C 220.628906 38.257812 220.507812 38.207031 220.277344 38.207031 C 219.789062 38.207031 219.371094 38.554688 219.371094 39.117188 C 219.371094 40.183594 220.996094 40.585938 221.082031 40.585938 C 221.207031 40.585938 221.207031 40.480469 221.207031 40.460938 C 221.207031 40.339844 221.171875 40.339844 220.996094 40.289062 C 219.945312 39.972656 219.613281 39.535156 219.613281 39.148438 C 219.613281 39.0625 219.613281 38.871094 219.964844 38.871094 C 220.242188 38.871094 220.542969 38.992188 220.75 39.0625 C 221.941406 39.519531 222.570312 39.710938 223.09375 39.710938 C 224.09375 39.710938 224.425781 39.011719 224.425781 38.34375 C 224.425781 37.910156 224.230469 37.539062 223.917969 37.226562 C 224.496094 37.367188 225.054688 37.507812 225.648438 37.941406 C 226.015625 38.242188 226.347656 38.660156 226.347656 39.167969 C 226.347656 39.324219 226.3125 39.832031 225.875 40.023438 C 225.875 39.851562 225.875 39.691406 225.738281 39.550781 C 225.648438 39.429688 225.492188 39.324219 225.28125 39.324219 C 224.933594 39.324219 224.898438 39.621094 224.898438 39.726562 C 224.898438 39.988281 225.070312 40.355469 225.613281 40.355469 C 226.175781 40.355469 226.59375 39.867188 226.59375 39.167969 C 226.59375 38.03125 225.578125 36.875 224.320312 36.5625 Z M 220.050781 35.496094 "/>
<path fill-rule="nonzero" fill="rgb(27.842712%, 40.391541%, 47.450256%)" fill-opacity="1" d="M 265.71875 41.0625 C 265.769531 40.902344 265.769531 40.882812 265.769531 40.796875 C 265.769531 40.597656 265.609375 40.492188 265.433594 40.492188 C 265.324219 40.492188 265.148438 40.5625 265.042969 40.722656 C 265.023438 40.796875 264.917969 41.132812 264.878906 41.347656 C 264.792969 41.632812 264.71875 41.953125 264.648438 42.253906 L 264.132812 44.304688 C 264.097656 44.464844 263.597656 45.265625 262.851562 45.265625 C 262.28125 45.265625 262.15625 44.769531 262.15625 44.339844 C 262.15625 43.824219 262.351562 43.109375 262.726562 42.113281 C 262.902344 41.648438 262.957031 41.527344 262.957031 41.292969 C 262.957031 40.796875 262.601562 40.367188 262.03125 40.367188 C 260.945312 40.367188 260.535156 42.023438 260.535156 42.113281 C 260.535156 42.238281 260.640625 42.238281 260.660156 42.238281 C 260.785156 42.238281 260.785156 42.203125 260.835938 42.023438 C 261.15625 40.957031 261.601562 40.617188 261.996094 40.617188 C 262.082031 40.617188 262.28125 40.617188 262.28125 40.972656 C 262.28125 41.257812 262.15625 41.5625 262.082031 41.773438 C 261.621094 42.984375 261.425781 43.628906 261.425781 44.160156 C 261.425781 45.175781 262.136719 45.515625 262.8125 45.515625 C 263.257812 45.515625 263.632812 45.320312 263.953125 45 C 263.8125 45.585938 263.667969 46.15625 263.222656 46.761719 C 262.921875 47.136719 262.492188 47.476562 261.976562 47.476562 C 261.816406 47.476562 261.300781 47.441406 261.105469 46.996094 C 261.28125 46.996094 261.441406 46.996094 261.585938 46.851562 C 261.710938 46.761719 261.816406 46.601562 261.816406 46.390625 C 261.816406 46.03125 261.515625 45.996094 261.40625 45.996094 C 261.140625 45.996094 260.765625 46.175781 260.765625 46.726562 C 260.765625 47.296875 261.265625 47.726562 261.976562 47.726562 C 263.136719 47.726562 264.3125 46.691406 264.632812 45.410156 Z M 265.71875 41.0625 "/>
<path fill-rule="nonzero" fill="rgb(27.842712%, 40.391541%, 47.450256%)" fill-opacity="1" d="M 268.417969 42.035156 C 268.417969 41.820312 268.417969 41.820312 268.1875 41.820312 C 267.671875 42.320312 266.957031 42.320312 266.636719 42.320312 L 266.636719 42.605469 C 266.816406 42.605469 267.351562 42.605469 267.777344 42.390625 L 267.777344 46.433594 C 267.777344 46.703125 267.777344 46.808594 266.996094 46.808594 L 266.691406 46.808594 L 266.691406 47.09375 C 266.832031 47.09375 267.8125 47.058594 268.097656 47.058594 C 268.347656 47.058594 269.347656 47.09375 269.523438 47.09375 L 269.523438 46.808594 L 269.222656 46.808594 C 268.417969 46.808594 268.417969 46.703125 268.417969 46.433594 Z M 268.417969 42.035156 "/>
<path fill-rule="nonzero" fill="rgb(81.959534%, 51.371765%, 38.430786%)" fill-opacity="1" d="M 265.59375 82.132812 C 265.648438 81.972656 265.648438 81.957031 265.648438 81.867188 C 265.648438 81.671875 265.488281 81.5625 265.308594 81.5625 C 265.203125 81.5625 265.023438 81.636719 264.917969 81.796875 C 264.898438 81.867188 264.792969 82.207031 264.757812 82.417969 C 264.667969 82.703125 264.59375 83.023438 264.523438 83.328125 L 264.007812 85.375 C 263.972656 85.535156 263.472656 86.339844 262.726562 86.339844 C 262.15625 86.339844 262.03125 85.839844 262.03125 85.410156 C 262.03125 84.894531 262.226562 84.183594 262.601562 83.183594 C 262.777344 82.722656 262.832031 82.597656 262.832031 82.367188 C 262.832031 81.867188 262.476562 81.4375 261.90625 81.4375 C 260.820312 81.4375 260.410156 83.097656 260.410156 83.183594 C 260.410156 83.308594 260.515625 83.308594 260.535156 83.308594 C 260.660156 83.308594 260.660156 83.273438 260.710938 83.097656 C 261.03125 82.027344 261.476562 81.6875 261.871094 81.6875 C 261.960938 81.6875 262.15625 81.6875 262.15625 82.046875 C 262.15625 82.332031 262.03125 82.632812 261.960938 82.847656 C 261.496094 84.058594 261.300781 84.699219 261.300781 85.234375 C 261.300781 86.25 262.011719 86.585938 262.691406 86.585938 C 263.136719 86.585938 263.507812 86.390625 263.828125 86.070312 C 263.6875 86.660156 263.542969 87.230469 263.097656 87.835938 C 262.796875 88.207031 262.367188 88.546875 261.851562 88.546875 C 261.691406 88.546875 261.175781 88.511719 260.980469 88.066406 C 261.15625 88.066406 261.316406 88.066406 261.460938 87.925781 C 261.585938 87.835938 261.691406 87.675781 261.691406 87.460938 C 261.691406 87.105469 261.390625 87.070312 261.28125 87.070312 C 261.015625 87.070312 260.640625 87.246094 260.640625 87.800781 C 260.640625 88.371094 261.140625 88.796875 261.851562 88.796875 C 263.011719 88.796875 264.1875 87.761719 264.507812 86.480469 Z M 265.59375 82.132812 "/>
<path fill-rule="nonzero" fill="rgb(81.959534%, 51.371765%, 38.430786%)" fill-opacity="1" d="M 269.648438 86.722656 L 269.382812 86.722656 C 269.363281 86.902344 269.273438 87.363281 269.167969 87.4375 C 269.113281 87.488281 268.507812 87.488281 268.382812 87.488281 L 266.921875 87.488281 C 267.761719 86.757812 268.046875 86.527344 268.507812 86.152344 C 269.097656 85.691406 269.648438 85.191406 269.648438 84.441406 C 269.648438 83.480469 268.8125 82.894531 267.796875 82.894531 C 266.816406 82.894531 266.140625 83.589844 266.140625 84.320312 C 266.140625 84.710938 266.476562 84.765625 266.566406 84.765625 C 266.746094 84.765625 266.976562 84.621094 266.976562 84.335938 C 266.976562 84.195312 266.921875 83.910156 266.511719 83.910156 C 266.761719 83.355469 267.296875 83.179688 267.671875 83.179688 C 268.472656 83.179688 268.882812 83.800781 268.882812 84.441406 C 268.882812 85.136719 268.382812 85.671875 268.132812 85.957031 L 266.226562 87.863281 C 266.140625 87.933594 266.140625 87.953125 266.140625 88.167969 L 269.417969 88.167969 Z M 269.648438 86.722656 "/>
<path fill-rule="nonzero" fill="rgb(0%, 0%, 0%)" fill-opacity="1" d="M 98.878906 20.582031 C 98.878906 20.582031 98.878906 20.457031 98.734375 20.457031 C 98.46875 20.457031 97.648438 20.546875 97.347656 20.582031 C 97.257812 20.582031 97.132812 20.601562 97.132812 20.796875 C 97.132812 20.941406 97.238281 20.941406 97.398438 20.941406 C 97.953125 20.941406 97.96875 21.011719 97.96875 21.136719 L 97.933594 21.367188 L 96.296875 27.90625 C 96.242188 28.066406 96.242188 28.082031 96.242188 28.15625 C 96.242188 28.421875 96.472656 28.476562 96.578125 28.476562 C 96.757812 28.476562 96.9375 28.332031 96.988281 28.171875 L 97.203125 27.316406 L 97.453125 26.300781 C 97.523438 26.035156 97.59375 25.785156 97.648438 25.535156 C 97.667969 25.464844 97.773438 25.089844 97.773438 25.019531 C 97.808594 24.914062 98.164062 24.289062 98.558594 23.96875 C 98.808594 23.789062 99.144531 23.578125 99.644531 23.578125 C 100.125 23.578125 100.25 23.96875 100.25 24.378906 C 100.25 24.984375 99.820312 26.230469 99.554688 26.925781 C 99.464844 27.175781 99.394531 27.316406 99.394531 27.550781 C 99.394531 28.082031 99.804688 28.476562 100.339844 28.476562 C 101.40625 28.476562 101.816406 26.820312 101.816406 26.730469 C 101.816406 26.605469 101.726562 26.605469 101.691406 26.605469 C 101.566406 26.605469 101.566406 26.640625 101.515625 26.820312 C 101.355469 27.425781 100.980469 28.226562 100.355469 28.226562 C 100.160156 28.226562 100.089844 28.117188 100.089844 27.851562 C 100.089844 27.566406 100.179688 27.300781 100.285156 27.050781 C 100.464844 26.550781 100.980469 25.199219 100.980469 24.539062 C 100.980469 23.808594 100.535156 23.328125 99.679688 23.328125 C 98.96875 23.328125 98.414062 23.683594 97.988281 24.199219 Z M 98.878906 20.582031 "/>
<path fill-rule="nonzero" fill="rgb(0%, 0%, 0%)" fill-opacity="1" d="M 104.816406 24.996094 C 104.816406 24.78125 104.816406 24.78125 104.585938 24.78125 C 104.070312 25.28125 103.355469 25.28125 103.035156 25.28125 L 103.035156 25.566406 C 103.214844 25.566406 103.746094 25.566406 104.175781 25.351562 L 104.175781 29.394531 C 104.175781 29.660156 104.175781 29.769531 103.390625 29.769531 L 103.089844 29.769531 L 103.089844 30.054688 C 103.230469 30.054688 104.210938 30.019531 104.496094 30.019531 C 104.746094 30.019531 105.742188 30.054688 105.921875 30.054688 L 105.921875 29.769531 L 105.617188 29.769531 C 104.816406 29.769531 104.816406 29.660156 104.816406 29.394531 Z M 104.816406 24.996094 "/>
<path fill="none" stroke-width="0.850394" stroke-linecap="butt" stroke-linejoin="miter" stroke="rgb(0%, 0%, 0%)" stroke-opacity="1" stroke-miterlimit="4" d="M 112.1875 25.257812 C 112.1875 31.390625 107.214844 36.363281 101.082031 36.363281 C 94.945312 36.363281 89.972656 31.390625 89.972656 25.257812 C 89.972656 19.121094 94.945312 14.148438 101.082031 14.148438 C 107.214844 14.148438 112.1875 19.121094 112.1875 25.257812 Z M 112.1875 25.257812 "/>
<path fill-rule="nonzero" fill="rgb(0%, 0%, 0%)" fill-opacity="1" d="M 98.71875 78.660156 C 98.71875 78.660156 98.71875 78.535156 98.574219 78.535156 C 98.308594 78.535156 97.488281 78.625 97.1875 78.660156 C 97.097656 78.660156 96.972656 78.679688 96.972656 78.875 C 96.972656 79.019531 97.078125 79.019531 97.238281 79.019531 C 97.792969 79.019531 97.808594 79.089844 97.808594 79.214844 L 97.773438 79.445312 L 96.132812 85.984375 C 96.082031 86.144531 96.082031 86.160156 96.082031 86.234375 C 96.082031 86.5 96.3125 86.554688 96.417969 86.554688 C 96.597656 86.554688 96.777344 86.410156 96.828125 86.25 L 97.042969 85.394531 L 97.292969 84.378906 C 97.363281 84.113281 97.433594 83.863281 97.488281 83.613281 C 97.507812 83.542969 97.613281 83.167969 97.613281 83.097656 C 97.648438 82.992188 98.003906 82.367188 98.398438 82.046875 C 98.644531 81.867188 98.984375 81.65625 99.484375 81.65625 C 99.964844 81.65625 100.089844 82.046875 100.089844 82.457031 C 100.089844 83.0625 99.660156 84.308594 99.394531 85.003906 C 99.304688 85.253906 99.234375 85.394531 99.234375 85.628906 C 99.234375 86.160156 99.644531 86.554688 100.179688 86.554688 C 101.246094 86.554688 101.65625 84.898438 101.65625 84.808594 C 101.65625 84.683594 101.566406 84.683594 101.53125 84.683594 C 101.40625 84.683594 101.40625 84.71875 101.355469 84.898438 C 101.195312 85.503906 100.820312 86.304688 100.195312 86.304688 C 100 86.304688 99.929688 86.199219 99.929688 85.929688 C 99.929688 85.644531 100.019531 85.378906 100.125 85.128906 C 100.304688 84.628906 100.820312 83.277344 100.820312 82.617188 C 100.820312 81.886719 100.375 81.40625 99.519531 81.40625 C 98.808594 81.40625 98.253906 81.761719 97.828125 82.277344 Z M 98.71875 78.660156 "/>
<path fill-rule="nonzero" fill="rgb(0%, 0%, 0%)" fill-opacity="1" d="M 104.175781 85.476562 C 104.800781 85.476562 105.246094 85.90625 105.246094 86.761719 C 105.246094 87.742188 104.65625 88.042969 104.210938 88.042969 C 103.890625 88.042969 103.179688 87.953125 102.855469 87.472656 C 103.230469 87.472656 103.320312 87.207031 103.320312 87.027344 C 103.320312 86.777344 103.125 86.601562 102.875 86.601562 C 102.660156 86.601562 102.429688 86.742188 102.429688 87.0625 C 102.429688 87.8125 103.25 88.292969 104.210938 88.292969 C 105.316406 88.292969 106.082031 87.542969 106.082031 86.761719 C 106.082031 86.136719 105.582031 85.511719 104.710938 85.335938 C 105.53125 85.03125 105.832031 84.445312 105.832031 83.945312 C 105.832031 83.324219 105.121094 82.859375 104.230469 82.859375 C 103.355469 82.859375 102.679688 83.285156 102.679688 83.929688 C 102.679688 84.195312 102.855469 84.335938 103.089844 84.335938 C 103.339844 84.335938 103.5 84.160156 103.5 83.945312 C 103.5 83.714844 103.339844 83.535156 103.089844 83.519531 C 103.375 83.179688 103.90625 83.089844 104.210938 83.089844 C 104.566406 83.089844 105.066406 83.269531 105.066406 83.945312 C 105.066406 84.285156 104.960938 84.660156 104.746094 84.890625 C 104.496094 85.191406 104.265625 85.210938 103.871094 85.246094 C 103.675781 85.265625 103.660156 85.265625 103.625 85.265625 C 103.605469 85.265625 103.535156 85.28125 103.535156 85.371094 C 103.535156 85.476562 103.605469 85.476562 103.746094 85.476562 Z M 104.175781 85.476562 "/>
<path fill="none" stroke-width="0.850394" stroke-linecap="butt" stroke-linejoin="miter" stroke="rgb(0%, 0%, 0%)" stroke-opacity="1" stroke-miterlimit="4" d="M 112.1875 83.414062 C 112.1875 89.550781 107.214844 94.523438 101.082031 94.523438 C 94.945312 94.523438 89.972656 89.550781 89.972656 83.414062 C 89.972656 77.28125 94.945312 72.308594 101.082031 72.308594 C 107.214844 72.308594 112.1875 77.28125 112.1875 83.414062 Z M 112.1875 83.414062 "/>
<path fill-rule="nonzero" fill="rgb(0%, 0%, 0%)" fill-opacity="1" d="M 98.753906 49.664062 C 98.753906 49.664062 98.753906 49.539062 98.609375 49.539062 C 98.34375 49.539062 97.523438 49.628906 97.222656 49.664062 C 97.132812 49.664062 97.007812 49.679688 97.007812 49.875 C 97.007812 50.019531 97.113281 50.019531 97.273438 50.019531 C 97.828125 50.019531 97.84375 50.089844 97.84375 50.214844 L 97.808594 50.445312 L 96.171875 56.984375 C 96.117188 57.144531 96.117188 57.164062 96.117188 57.234375 C 96.117188 57.5 96.347656 57.554688 96.457031 57.554688 C 96.632812 57.554688 96.8125 57.410156 96.863281 57.25 L 97.078125 56.398438 L 97.328125 55.382812 C 97.398438 55.113281 97.46875 54.863281 97.523438 54.613281 C 97.542969 54.542969 97.648438 54.167969 97.648438 54.097656 C 97.683594 53.992188 98.039062 53.367188 98.433594 53.046875 C 98.683594 52.871094 99.019531 52.65625 99.519531 52.65625 C 100 52.65625 100.125 53.046875 100.125 53.457031 C 100.125 54.0625 99.699219 55.308594 99.429688 56.003906 C 99.339844 56.253906 99.269531 56.398438 99.269531 56.628906 C 99.269531 57.164062 99.679688 57.554688 100.214844 57.554688 C 101.28125 57.554688 101.691406 55.898438 101.691406 55.808594 C 101.691406 55.683594 101.605469 55.683594 101.566406 55.683594 C 101.441406 55.683594 101.441406 55.71875 101.390625 55.898438 C 101.230469 56.503906 100.855469 57.304688 100.230469 57.304688 C 100.035156 57.304688 99.964844 57.199219 99.964844 56.929688 C 99.964844 56.644531 100.054688 56.378906 100.160156 56.128906 C 100.339844 55.628906 100.855469 54.277344 100.855469 53.617188 C 100.855469 52.886719 100.410156 52.40625 99.554688 52.40625 C 98.84375 52.40625 98.289062 52.761719 97.863281 53.277344 Z M 98.753906 49.664062 "/>
<path fill-rule="nonzero" fill="rgb(0%, 0%, 0%)" fill-opacity="1" d="M 106.046875 57.691406 L 105.777344 57.691406 C 105.761719 57.867188 105.671875 58.332031 105.566406 58.402344 C 105.511719 58.457031 104.90625 58.457031 104.78125 58.457031 L 103.320312 58.457031 C 104.15625 57.726562 104.441406 57.496094 104.90625 57.121094 C 105.492188 56.65625 106.046875 56.15625 106.046875 55.410156 C 106.046875 54.449219 105.207031 53.859375 104.191406 53.859375 C 103.214844 53.859375 102.535156 54.554688 102.535156 55.285156 C 102.535156 55.675781 102.875 55.730469 102.964844 55.730469 C 103.140625 55.730469 103.375 55.589844 103.375 55.304688 C 103.375 55.160156 103.320312 54.875 102.910156 54.875 C 103.160156 54.324219 103.695312 54.144531 104.070312 54.144531 C 104.871094 54.144531 105.28125 54.769531 105.28125 55.410156 C 105.28125 56.105469 104.78125 56.640625 104.53125 56.925781 L 102.625 58.832031 C 102.535156 58.902344 102.535156 58.917969 102.535156 59.132812 L 105.8125 59.132812 Z M 106.046875 57.691406 "/>
<path fill="none" stroke-width="0.850394" stroke-linecap="butt" stroke-linejoin="miter" stroke="rgb(0%, 0%, 0%)" stroke-opacity="1" stroke-miterlimit="4" d="M 112.1875 54.335938 C 112.1875 60.46875 107.214844 65.441406 101.082031 65.441406 C 94.945312 65.441406 89.972656 60.46875 89.972656 54.335938 C 89.972656 48.199219 94.945312 43.226562 101.082031 43.226562 C 107.214844 43.226562 112.1875 48.199219 112.1875 54.335938 Z M 112.1875 54.335938 "/>
<g clip-path="url(#clip-2)">
<path fill="none" stroke-width="0.850394" stroke-linecap="butt" stroke-linejoin="miter" stroke="rgb(0%, 0%, 0%)" stroke-opacity="1" stroke-miterlimit="4" d="M 112.1875 112.492188 C 112.1875 118.628906 107.214844 123.601562 101.082031 123.601562 C 94.945312 123.601562 89.972656 118.628906 89.972656 112.492188 C 89.972656 106.359375 94.945312 101.386719 101.082031 101.386719 C 107.214844 101.386719 112.1875 106.359375 112.1875 112.492188 Z M 112.1875 112.492188 "/>
</g>
<path fill-rule="nonzero" fill="rgb(0%, 0%, 0%)" fill-opacity="1" d="M 98.65625 107.820312 C 98.65625 107.820312 98.65625 107.695312 98.511719 107.695312 C 98.246094 107.695312 97.425781 107.785156 97.125 107.820312 C 97.035156 107.820312 96.910156 107.839844 96.910156 108.035156 C 96.910156 108.175781 97.015625 108.175781 97.175781 108.175781 C 97.730469 108.175781 97.746094 108.25 97.746094 108.375 L 97.710938 108.605469 L 96.070312 115.144531 C 96.019531 115.304688 96.019531 115.320312 96.019531 115.390625 C 96.019531 115.660156 96.25 115.714844 96.355469 115.714844 C 96.535156 115.714844 96.714844 115.570312 96.765625 115.410156 L 96.980469 114.554688 L 97.230469 113.539062 C 97.300781 113.273438 97.371094 113.023438 97.425781 112.773438 C 97.445312 112.703125 97.550781 112.328125 97.550781 112.257812 C 97.585938 112.148438 97.941406 111.527344 98.335938 111.207031 C 98.585938 111.027344 98.921875 110.8125 99.421875 110.8125 C 99.902344 110.8125 100.027344 111.207031 100.027344 111.617188 C 100.027344 112.222656 99.597656 113.46875 99.332031 114.164062 C 99.242188 114.414062 99.171875 114.554688 99.171875 114.785156 C 99.171875 115.320312 99.582031 115.714844 100.117188 115.714844 C 101.183594 115.714844 101.59375 114.054688 101.59375 113.96875 C 101.59375 113.84375 101.503906 113.84375 101.46875 113.84375 C 101.34375 113.84375 101.34375 113.878906 101.292969 114.054688 C 101.132812 114.660156 100.757812 115.464844 100.132812 115.464844 C 99.9375 115.464844 99.867188 115.355469 99.867188 115.089844 C 99.867188 114.804688 99.957031 114.539062 100.0625 114.289062 C 100.242188 113.789062 100.757812 112.433594 100.757812 111.777344 C 100.757812 111.046875 100.3125 110.566406 99.457031 110.566406 C 98.746094 110.566406 98.191406 110.921875 97.765625 111.4375 Z M 98.65625 107.820312 "/>
<path fill-rule="nonzero" fill="rgb(0%, 0%, 0%)" fill-opacity="1" d="M 106.144531 115.992188 L 106.144531 115.707031 L 105.253906 115.707031 L 105.253906 112.160156 C 105.253906 112 105.253906 111.929688 105.09375 111.929688 C 104.984375 111.929688 104.949219 111.929688 104.878906 112.054688 L 102.242188 115.707031 L 102.242188 115.992188 L 104.59375 115.992188 L 104.59375 116.632812 C 104.59375 116.917969 104.59375 117.007812 103.933594 117.007812 L 103.722656 117.007812 L 103.722656 117.292969 C 104.128906 117.273438 104.628906 117.257812 104.914062 117.257812 C 105.21875 117.257812 105.714844 117.273438 106.125 117.292969 L 106.125 117.007812 L 105.914062 117.007812 C 105.253906 117.007812 105.253906 116.917969 105.253906 116.632812 L 105.253906 115.992188 Z M 104.648438 112.800781 L 104.648438 115.707031 L 102.546875 115.707031 Z M 104.648438 112.800781 "/>
<path fill="none" stroke-width="0.850394" stroke-linecap="butt" stroke-linejoin="miter" stroke="rgb(0%, 0%, 0%)" stroke-opacity="1" stroke-miterlimit="4" d="M 25.902344 68.683594 L 88.324219 56.40625 "/>
<path fill-rule="evenodd" fill="rgb(0%, 0%, 0%)" fill-opacity="1" stroke-width="0.445014" stroke-linecap="butt" stroke-linejoin="miter" stroke="rgb(0%, 0%, 0%)" stroke-opacity="1" stroke-miterlimit="4" d="M -71.011084 -71.031729 L -69.343118 -72.699703 L -75.183628 -71.028329 L -69.343851 -69.360003 Z M -71.011084 -71.031729 " transform="matrix(-1, 0.196719, -0.196719, -1, 0, 0)"/>
<path fill="none" stroke-width="0.850394" stroke-linecap="butt" stroke-linejoin="miter" stroke="rgb(0%, 0%, 0%)" stroke-opacity="1" stroke-miterlimit="4" d="M 24.570312 73.871094 L 89.179688 108.582031 "/>
<path fill-rule="evenodd" fill="rgb(0%, 0%, 0%)" fill-opacity="1" stroke-width="0.399538" stroke-linecap="butt" stroke-linejoin="miter" stroke="rgb(0%, 0%, 0%)" stroke-opacity="1" stroke-miterlimit="4" d="M -111.478183 -47.08379 L -109.980957 -48.579543 L -115.223953 -47.083187 L -109.980801 -45.583533 Z M -111.478183 -47.08379 " transform="matrix(-1, -0.537225, 0.537225, -1, 0, 0)"/>
<path fill="none" stroke-width="0.850394" stroke-linecap="butt" stroke-linejoin="miter" stroke="rgb(0%, 0%, 0%)" stroke-opacity="1" stroke-miterlimit="4" d="M 176.550781 61.304688 L 111.015625 107.773438 "/>
<path fill-rule="evenodd" fill="rgb(0%, 0%, 0%)" fill-opacity="1" stroke-width="0.369972" stroke-linecap="butt" stroke-linejoin="miter" stroke="rgb(0%, 0%, 0%)" stroke-opacity="1" stroke-miterlimit="4" d="M -85.778167 -124.097278 L -84.391657 -125.485221 L -89.247534 -124.096409 L -84.392068 -122.708168 Z M -85.778167 -124.097278 " transform="matrix(-1, 0.709083, -0.709083, -1, 0, 0)"/>
<path fill="none" stroke-width="0.850394" stroke-linecap="butt" stroke-linejoin="miter" stroke="rgb(0%, 0%, 0%)" stroke-opacity="1" stroke-miterlimit="4" d="M 175.503906 88.144531 L 112.003906 109.988281 "/>
<path fill-rule="evenodd" fill="rgb(0%, 0%, 0%)" fill-opacity="1" stroke-width="0.428878" stroke-linecap="butt" stroke-linejoin="miter" stroke="rgb(0%, 0%, 0%)" stroke-opacity="1" stroke-miterlimit="4" d="M -126.602888 -132.800381 L -124.994144 -134.411048 L -130.622458 -132.800268 L -124.995713 -131.192838 Z M -126.602888 -132.800381 " transform="matrix(-1, 0.343992, -0.343992, -1, 0, 0)"/>
<path fill="none" stroke-width="0.850394" stroke-linecap="butt" stroke-linejoin="miter" stroke="rgb(0%, 0%, 0%)" stroke-opacity="1" stroke-miterlimit="4" d="M 174.371094 83.429688 L 112.097656 83.28125 "/>
<path fill-rule="evenodd" fill="rgb(0%, 0%, 0%)" fill-opacity="1" stroke-width="0.453542" stroke-linecap="butt" stroke-linejoin="miter" stroke="rgb(0%, 0%, 0%)" stroke-opacity="1" stroke-miterlimit="4" d="M -171.167705 -83.011636 L -169.464747 -84.71103 L -175.417699 -83.009262 L -169.464405 -81.308687 Z M -171.167705 -83.011636 " transform="matrix(-1, -0.00239671, 0.00239671, -1, 0, 0)"/>
<path fill-rule="nonzero" fill="rgb(50.195312%, 50.195312%, 50.195312%)" fill-opacity="1" d="M 243.941406 111.191406 C 243.941406 110.570312 243.90625 109.828125 243.570312 109.195312 C 243.25 108.601562 242.703125 108.402344 242.308594 108.402344 C 241.835938 108.402344 241.277344 108.628906 240.957031 109.320312 C 240.695312 109.902344 240.660156 110.558594 240.660156 111.191406 C 240.660156 111.808594 240.683594 112.390625 240.917969 112.972656 C 241.242188 113.730469 241.835938 113.941406 242.292969 113.941406 C 242.863281 113.941406 243.371094 113.617188 243.621094 113.074219 C 243.855469 112.554688 243.941406 112.03125 243.941406 111.191406 Z M 242.308594 113.457031 C 241.886719 113.457031 241.5625 113.160156 241.402344 112.589844 C 241.277344 112.144531 241.277344 111.710938 241.277344 111.09375 C 241.277344 110.597656 241.277344 110.125 241.402344 109.691406 C 241.453125 109.542969 241.648438 108.886719 242.292969 108.886719 C 242.914062 108.886719 243.113281 109.492188 243.175781 109.628906 C 243.324219 110.074219 243.324219 110.609375 243.324219 111.09375 C 243.324219 111.613281 243.324219 112.121094 243.175781 112.617188 C 242.976562 113.332031 242.554688 113.457031 242.308594 113.457031 Z M 242.308594 113.457031 "/>
<path fill-rule="nonzero" fill="rgb(50.195312%, 50.195312%, 50.195312%)" fill-opacity="1" d="M 245.042969 113.109375 L 245.699219 113.109375 L 245.699219 113.765625 L 245.042969 113.765625 Z M 245.042969 113.109375 "/>
<path fill-rule="nonzero" fill="rgb(50.195312%, 50.195312%, 50.195312%)" fill-opacity="1" d="M 250.085938 111.191406 C 250.085938 110.570312 250.046875 109.828125 249.714844 109.195312 C 249.390625 108.601562 248.847656 108.402344 248.449219 108.402344 C 247.980469 108.402344 247.421875 108.628906 247.097656 109.320312 C 246.839844 109.902344 246.800781 110.558594 246.800781 111.191406 C 246.800781 111.808594 246.828125 112.390625 247.0625 112.972656 C 247.382812 113.730469 247.980469 113.941406 248.4375 113.941406 C 249.007812 113.941406 249.515625 113.617188 249.761719 113.074219 C 249.996094 112.554688 250.085938 112.03125 250.085938 111.191406 Z M 248.449219 113.457031 C 248.027344 113.457031 247.707031 113.160156 247.546875 112.589844 C 247.421875 112.144531 247.421875 111.710938 247.421875 111.09375 C 247.421875 110.597656 247.421875 110.125 247.546875 109.691406 C 247.59375 109.542969 247.792969 108.886719 248.4375 108.886719 C 249.054688 108.886719 249.253906 109.492188 249.316406 109.628906 C 249.464844 110.074219 249.464844 110.609375 249.464844 111.09375 C 249.464844 111.613281 249.464844 112.121094 249.316406 112.617188 C 249.117188 113.332031 248.699219 113.457031 248.449219 113.457031 Z M 248.449219 113.457031 "/>
<path fill-rule="nonzero" fill="rgb(50.195312%, 50.195312%, 50.195312%)" fill-opacity="1" d="M 235.851562 57.226562 C 235.851562 56.609375 235.8125 55.863281 235.480469 55.234375 C 235.15625 54.640625 234.613281 54.441406 234.214844 54.441406 C 233.746094 54.441406 233.1875 54.664062 232.867188 55.355469 C 232.605469 55.9375 232.570312 56.597656 232.570312 57.226562 C 232.570312 57.847656 232.59375 58.429688 232.828125 59.011719 C 233.152344 59.765625 233.746094 59.976562 234.203125 59.976562 C 234.773438 59.976562 235.28125 59.65625 235.527344 59.109375 C 235.765625 58.589844 235.851562 58.070312 235.851562 57.226562 Z M 234.214844 59.496094 C 233.796875 59.496094 233.472656 59.195312 233.3125 58.628906 C 233.1875 58.179688 233.1875 57.746094 233.1875 57.128906 C 233.1875 56.632812 233.1875 56.164062 233.3125 55.730469 C 233.363281 55.582031 233.558594 54.921875 234.203125 54.921875 C 234.824219 54.921875 235.019531 55.53125 235.082031 55.667969 C 235.230469 56.113281 235.230469 56.644531 235.230469 57.128906 C 235.230469 57.648438 235.230469 58.15625 235.082031 58.652344 C 234.886719 59.371094 234.464844 59.496094 234.214844 59.496094 Z M 234.214844 59.496094 "/>
<path fill-rule="nonzero" fill="rgb(50.195312%, 50.195312%, 50.195312%)" fill-opacity="1" d="M 236.949219 59.148438 L 237.609375 59.148438 L 237.609375 59.804688 L 236.949219 59.804688 Z M 236.949219 59.148438 "/>
<path fill-rule="nonzero" fill="rgb(50.195312%, 50.195312%, 50.195312%)" fill-opacity="1" d="M 241.992188 57.226562 C 241.992188 56.609375 241.957031 55.863281 241.621094 55.234375 C 241.300781 54.640625 240.753906 54.441406 240.359375 54.441406 C 239.886719 54.441406 239.332031 54.664062 239.007812 55.355469 C 238.75 55.9375 238.710938 56.597656 238.710938 57.226562 C 238.710938 57.847656 238.738281 58.429688 238.972656 59.011719 C 239.292969 59.765625 239.886719 59.976562 240.347656 59.976562 C 240.917969 59.976562 241.425781 59.65625 241.671875 59.109375 C 241.90625 58.589844 241.992188 58.070312 241.992188 57.226562 Z M 240.359375 59.496094 C 239.9375 59.496094 239.617188 59.195312 239.453125 58.628906 C 239.332031 58.179688 239.332031 57.746094 239.332031 57.128906 C 239.332031 56.632812 239.332031 56.164062 239.453125 55.730469 C 239.503906 55.582031 239.703125 54.921875 240.347656 54.921875 C 240.964844 54.921875 241.164062 55.53125 241.226562 55.667969 C 241.375 56.113281 241.375 56.644531 241.375 57.128906 C 241.375 57.648438 241.375 58.15625 241.226562 58.652344 C 241.027344 59.371094 240.605469 59.496094 240.359375 59.496094 Z M 240.359375 59.496094 "/>
<path fill-rule="nonzero" fill="rgb(50.195312%, 50.195312%, 50.195312%)" fill-opacity="1" d="M 235.527344 12.402344 L 235.527344 6.941406 L 234.867188 6.941406 L 234.089844 7.574219 L 234.089844 8.191406 L 234.90625 7.523438 L 234.90625 12.402344 Z M 235.527344 12.402344 "/>
<path fill-rule="nonzero" fill="rgb(50.195312%, 50.195312%, 50.195312%)" fill-opacity="1" d="M 236.710938 11.597656 L 237.46875 11.597656 L 237.46875 12.402344 L 236.710938 12.402344 Z M 236.710938 11.597656 "/>
<path fill-rule="nonzero" fill="rgb(50.195312%, 50.195312%, 50.195312%)" fill-opacity="1" d="M 241.945312 9.691406 C 241.933594 8.527344 241.675781 6.84375 240.199219 6.84375 C 238.726562 6.84375 238.476562 8.550781 238.476562 9.691406 C 238.476562 10.84375 238.738281 12.515625 240.199219 12.515625 C 241.660156 12.515625 241.945312 10.84375 241.945312 9.691406 Z M 241.375 9.691406 C 241.375 10.445312 241.316406 11.996094 240.199219 11.996094 C 239.085938 11.996094 239.046875 10.421875 239.046875 9.691406 C 239.046875 8.949219 239.074219 7.351562 240.199219 7.351562 C 241.316406 7.351562 241.375 8.960938 241.375 9.691406 Z M 241.375 9.691406 "/>
<path fill-rule="nonzero" fill="rgb(50.195312%, 50.195312%, 50.195312%)" fill-opacity="1" d="M 320.53125 113.828125 L 320.53125 108.367188 L 319.875 108.367188 L 319.09375 109 L 319.09375 109.617188 L 319.910156 108.949219 L 319.910156 113.828125 Z M 320.53125 113.828125 "/>
<path fill-rule="nonzero" fill="rgb(50.195312%, 50.195312%, 50.195312%)" fill-opacity="1" d="M 321.71875 113.023438 L 322.472656 113.023438 L 322.472656 113.828125 L 321.71875 113.828125 Z M 321.71875 113.023438 "/>
<path fill-rule="nonzero" fill="rgb(50.195312%, 50.195312%, 50.195312%)" fill-opacity="1" d="M 326.953125 111.117188 C 326.941406 109.953125 326.679688 108.269531 325.207031 108.269531 C 323.730469 108.269531 323.484375 109.976562 323.484375 111.117188 C 323.484375 112.269531 323.742188 113.941406 325.207031 113.941406 C 326.667969 113.941406 326.953125 112.269531 326.953125 111.117188 Z M 326.382812 111.117188 C 326.382812 111.871094 326.320312 113.421875 325.207031 113.421875 C 324.089844 113.421875 324.054688 111.847656 324.054688 111.117188 C 324.054688 110.375 324.078125 108.777344 325.207031 108.777344 C 326.320312 108.777344 326.382812 110.386719 326.382812 111.117188 Z M 326.382812 111.117188 "/>
<path fill-rule="nonzero" fill="rgb(50.195312%, 50.195312%, 50.195312%)" fill-opacity="1" d="M 231.203125 105.941406 L 233 105.941406 L 233 106.460938 L 231.203125 106.460938 Z M 231.203125 105.941406 "/>
<path fill-rule="nonzero" fill="rgb(50.195312%, 50.195312%, 50.195312%)" fill-opacity="1" d="M 235.222656 107.984375 L 235.222656 102.519531 L 234.566406 102.519531 L 233.785156 103.152344 L 233.785156 103.773438 L 234.601562 103.101562 L 234.601562 107.984375 Z M 235.222656 107.984375 "/>
<path fill-rule="nonzero" fill="rgb(50.195312%, 50.195312%, 50.195312%)" fill-opacity="1" d="M 236.40625 107.179688 L 237.164062 107.179688 L 237.164062 107.984375 L 236.40625 107.984375 Z M 236.40625 107.179688 "/>
<path fill-rule="nonzero" fill="rgb(50.195312%, 50.195312%, 50.195312%)" fill-opacity="1" d="M 241.640625 105.269531 C 241.628906 104.105469 241.371094 102.421875 239.894531 102.421875 C 238.421875 102.421875 238.171875 104.132812 238.171875 105.269531 C 238.171875 106.421875 238.433594 108.09375 239.894531 108.09375 C 241.355469 108.09375 241.640625 106.421875 241.640625 105.269531 Z M 241.070312 105.269531 C 241.070312 106.027344 241.011719 107.574219 239.894531 107.574219 C 238.78125 107.574219 238.742188 106 238.742188 105.269531 C 238.742188 104.527344 238.769531 102.929688 239.894531 102.929688 C 241.011719 102.929688 241.070312 104.539062 241.070312 105.269531 Z M 241.070312 105.269531 "/>
<path fill-rule="nonzero" fill="rgb(50.195312%, 50.195312%, 50.195312%)" fill-opacity="1" d="M 398.859375 113.828125 L 398.859375 113.257812 L 396.40625 113.257812 L 398.277344 111.152344 C 398.585938 110.71875 398.820312 110.386719 398.820312 109.816406 C 398.820312 108.800781 398.078125 108.269531 397.136719 108.269531 C 396.605469 108.269531 396.160156 108.429688 395.714844 108.613281 L 395.714844 109.320312 C 396.160156 109.035156 396.605469 108.824219 397.148438 108.824219 C 397.769531 108.824219 398.253906 109.210938 398.253906 109.851562 C 398.253906 110.285156 397.90625 110.820312 397.621094 111.117188 C 397.535156 111.242188 395.8125 113.125 395.675781 113.257812 L 395.675781 113.828125 Z M 398.859375 113.828125 "/>
<path fill-rule="nonzero" fill="rgb(50.195312%, 50.195312%, 50.195312%)" fill-opacity="1" d="M 399.769531 113.023438 L 400.523438 113.023438 L 400.523438 113.828125 L 399.769531 113.828125 Z M 399.769531 113.023438 "/>
<path fill-rule="nonzero" fill="rgb(50.195312%, 50.195312%, 50.195312%)" fill-opacity="1" d="M 405.003906 111.117188 C 404.992188 109.953125 404.730469 108.269531 403.257812 108.269531 C 401.785156 108.269531 401.535156 109.976562 401.535156 111.117188 C 401.535156 112.269531 401.796875 113.941406 403.257812 113.941406 C 404.71875 113.941406 405.003906 112.269531 405.003906 111.117188 Z M 404.433594 111.117188 C 404.433594 111.871094 404.371094 113.421875 403.257812 113.421875 C 402.140625 113.421875 402.105469 111.847656 402.105469 111.117188 C 402.105469 110.375 402.128906 108.777344 403.257812 108.777344 C 404.371094 108.777344 404.433594 110.386719 404.433594 111.117188 Z M 404.433594 111.117188 "/>
<path fill-rule="nonzero" fill="rgb(0%, 0%, 0%)" fill-opacity="1" d="M 6.832031 6.34375 C 6.832031 5.054688 5.902344 4.164062 4.734375 4.164062 C 3.921875 4.164062 3.347656 4.363281 2.753906 4.699219 L 2.832031 5.53125 C 3.484375 5.074219 4.121094 4.917969 4.734375 4.917969 C 5.328125 4.917969 5.839844 5.410156 5.839844 6.34375 L 5.839844 6.894531 C 3.941406 6.914062 2.335938 7.449219 2.335938 8.558594 C 2.335938 9.09375 2.675781 10.121094 3.78125 10.121094 C 3.960938 10.121094 5.148438 10.101562 5.878906 9.527344 L 5.878906 9.984375 L 6.832031 9.984375 Z M 5.839844 8.320312 C 5.839844 8.558594 5.839844 8.875 5.40625 9.113281 C 5.050781 9.332031 4.554688 9.351562 4.417969 9.351562 C 3.824219 9.351562 3.25 9.054688 3.25 8.539062 C 3.25 7.648438 5.285156 7.570312 5.839844 7.53125 Z M 5.839844 8.320312 "/>
<path fill-rule="nonzero" fill="rgb(0%, 0%, 0%)" fill-opacity="1" d="M 9.332031 13.152344 C 9.730469 12.753906 10.582031 11.984375 11.152344 10.4375 C 11.667969 9.09375 11.746094 7.746094 11.746094 6.816406 C 11.746094 2.738281 9.925781 1.078125 9.332031 0.503906 L 8.5625 0.503906 C 9.15625 1.117188 10.757812 2.738281 10.757812 6.816406 C 10.757812 7.53125 10.71875 9.015625 10.203125 10.5 C 9.6875 11.964844 8.976562 12.714844 8.5625 13.152344 Z M 9.332031 13.152344 "/>
<path fill-rule="nonzero" fill="rgb(0%, 0%, 0%)" fill-opacity="1" d="M 212.964844 1.214844 L 212.015625 1.214844 L 212.015625 9.984375 L 213.003906 9.984375 L 213.003906 9.410156 C 213.300781 9.6875 213.855469 10.121094 214.707031 10.121094 C 215.953125 10.121094 217.042969 8.855469 217.042969 7.171875 C 217.042969 5.609375 216.191406 4.242188 215.003906 4.242188 C 214.507812 4.242188 213.71875 4.363281 212.964844 4.976562 Z M 213.003906 5.75 C 213.203125 5.453125 213.660156 5.015625 214.351562 5.015625 C 215.101562 5.015625 216.054688 5.550781 216.054688 7.171875 C 216.054688 8.816406 215.003906 9.351562 214.230469 9.351562 C 213.738281 9.351562 213.320312 9.132812 213.003906 8.539062 Z M 213.003906 5.75 "/>
<path fill-rule="nonzero" fill="rgb(0%, 0%, 0%)" fill-opacity="1" d="M 218.992188 13.152344 C 219.386719 12.753906 220.238281 11.984375 220.8125 10.4375 C 221.328125 9.09375 221.40625 7.746094 221.40625 6.816406 C 221.40625 2.738281 219.585938 1.078125 218.992188 0.503906 L 218.21875 0.503906 C 218.8125 1.117188 220.417969 2.738281 220.417969 6.816406 C 220.417969 7.53125 220.378906 9.015625 219.863281 10.5 C 219.347656 11.964844 218.636719 12.714844 218.21875 13.152344 Z M 218.992188 13.152344 "/>
</svg>
