<?xml version="1.0" encoding="UTF-8"?>
<svg xmlns="http://www.w3.org/2000/svg" xmlns:xlink="http://www.w3.org/1999/xlink" width="408.622406pt" height="130.296371pt" viewBox="0 0 408.622406 130.296371">
<defs>
<clipPath id="clip-0">
<path clip-rule="nonzero" d="M 275 7 L 408.621094 7 L 408.621094 98 L 275 98 Z M 275 7 "/>
</clipPath>
<clipPath id="clip-1">
<path clip-rule="nonzero" d="M 76 122 L 82 122 L 82 130.296875 L 76 130.296875 Z M 76 122 "/>
</clipPath>
<clipPath id="clip-2">
<path clip-rule="nonzero" d="M 205 122 L 211 122 L 211 130.296875 L 205 130.296875 Z M 205 122 "/>
</clipPath>
<clipPath id="clip-3">
<path clip-rule="nonzero" d="M 335 122 L 341 122 L 341 130.296875 L 335 130.296875 Z M 335 122 "/>
</clipPath>
<clipPath id="clip-4">
<path clip-rule="nonzero" d="M 404 112 L 408.621094 112 L 408.621094 118 L 404 118 Z M 404 112 "/>
</clipPath>
</defs>
<path fill="none" stroke-width="0.751181" stroke-linecap="butt" stroke-linejoin="miter" stroke="rgb(77.645874%, 80.39093%, 81.175232%)" stroke-opacity="1" stroke-dasharray="0.751181 0.751181" stroke-miterlimit="4" d="M 25.078125 62.023438 L 142.921875 62.023438 "/>
<path fill="none" stroke-width="0.751181" stroke-linecap="butt" stroke-linejoin="miter" stroke="rgb(77.645874%, 80.39093%, 81.175232%)" stroke-opacity="1" stroke-dasharray="0.751181 0.751181" stroke-miterlimit="4" d="M 155.957031 62.023438 L 273.800781 62.023438 "/>
<path fill="none" stroke-width="0.751181" stroke-linecap="butt" stroke-linejoin="miter" stroke="rgb(77.645874%, 80.39093%, 81.175232%)" stroke-opacity="1" stroke-dasharray="0.751181 0.751181" stroke-miterlimit="4" d="M 285.699219 62.023438 L 403.539062 62.023438 "/>
<g clip-path="url(#clip-0)">
<path fill="none" stroke-width="1.972614" stroke-linecap="butt" stroke-linejoin="miter" stroke="rgb(25.881958%, 29.411316%, 30.979919%)" stroke-opacity="1" stroke-miterlimit="4" d="M 286.210938 48.992188 L 300.5625 25.636719 L 318.722656 18.765625 L 378.925781 86.234375 L 403.667969 86.296875 "/>
</g>
<path fill="none" stroke-width="0.850394" stroke-linecap="butt" stroke-linejoin="miter" stroke="rgb(50.195312%, 50.195312%, 50.195312%)" stroke-opacity="1" stroke-miterlimit="4" d="M 25.097656 110.199219 L 25.097656 112.082031 "/>
<path fill="none" stroke-width="0.850394" stroke-linecap="butt" stroke-linejoin="miter" stroke="rgb(50.195312%, 50.195312%, 50.195312%)" stroke-opacity="1" stroke-miterlimit="4" d="M 84.214844 110.199219 L 84.214844 112.082031 "/>
<path fill="none" stroke-width="0.850394" stroke-linecap="butt" stroke-linejoin="miter" stroke="rgb(50.195312%, 50.195312%, 50.195312%)" stroke-opacity="1" stroke-miterlimit="4" d="M 143.332031 110.199219 L 143.332031 112.082031 "/>
<path fill="none" stroke-width="0.850394" stroke-linecap="butt" stroke-linejoin="miter" stroke="rgb(50.195312%, 50.195312%, 50.195312%)" stroke-opacity="1" stroke-miterlimit="4" d="M 36.921875 111.484375 L 36.921875 110.199219 "/>
<path fill="none" stroke-width="0.850394" stroke-linecap="butt" stroke-linejoin="miter" stroke="rgb(50.195312%, 50.195312%, 50.195312%)" stroke-opacity="1" stroke-miterlimit="4" d="M 48.746094 111.484375 L 48.746094 110.199219 "/>
<path fill="none" stroke-width="0.850394" stroke-linecap="butt" stroke-linejoin="miter" stroke="rgb(50.195312%, 50.195312%, 50.195312%)" stroke-opacity="1" stroke-miterlimit="4" d="M 60.570312 111.484375 L 60.570312 110.199219 "/>
<path fill="none" stroke-width="0.850394" stroke-linecap="butt" stroke-linejoin="miter" stroke="rgb(50.195312%, 50.195312%, 50.195312%)" stroke-opacity="1" stroke-miterlimit="4" d="M 72.390625 111.484375 L 72.390625 110.199219 "/>
<path fill="none" stroke-width="0.850394" stroke-linecap="butt" stroke-linejoin="miter" stroke="rgb(50.195312%, 50.195312%, 50.195312%)" stroke-opacity="1" stroke-miterlimit="4" d="M 96.039062 111.484375 L 96.039062 110.199219 "/>
<path fill="none" stroke-width="0.850394" stroke-linecap="butt" stroke-linejoin="miter" stroke="rgb(50.195312%, 50.195312%, 50.195312%)" stroke-opacity="1" stroke-miterlimit="4" d="M 107.859375 111.484375 L 107.859375 110.199219 "/>
<path fill="none" stroke-width="0.850394" stroke-linecap="butt" stroke-linejoin="miter" stroke="rgb(50.195312%, 50.195312%, 50.195312%)" stroke-opacity="1" stroke-miterlimit="4" d="M 119.683594 111.484375 L 119.683594 110.199219 "/>
<path fill="none" stroke-width="0.850394" stroke-linecap="butt" stroke-linejoin="miter" stroke="rgb(50.195312%, 50.195312%, 50.195312%)" stroke-opacity="1" stroke-miterlimit="4" d="M 131.507812 111.484375 L 131.507812 110.199219 "/>
<path fill="none" stroke-width="0.850394" stroke-linecap="butt" stroke-linejoin="miter" stroke="rgb(50.195312%, 50.195312%, 50.195312%)" stroke-opacity="1" stroke-miterlimit="4" d="M 24.855469 14.203125 L 22.972656 14.203125 "/>
<path fill="none" stroke-width="0.850394" stroke-linecap="butt" stroke-linejoin="miter" stroke="rgb(50.195312%, 50.195312%, 50.195312%)" stroke-opacity="1" stroke-miterlimit="4" d="M 24.855469 61.980469 L 22.972656 61.980469 "/>
<path fill="none" stroke-width="0.850394" stroke-linecap="butt" stroke-linejoin="miter" stroke="rgb(50.195312%, 50.195312%, 50.195312%)" stroke-opacity="1" stroke-miterlimit="4" d="M 24.765625 109.757812 L 22.882812 109.757812 "/>
<path fill="none" stroke-width="0.850394" stroke-linecap="butt" stroke-linejoin="miter" stroke="rgb(50.195312%, 50.195312%, 50.195312%)" stroke-opacity="1" stroke-miterlimit="4" d="M 24.855469 23.757812 L 23.570312 23.757812 "/>
<path fill="none" stroke-width="0.850394" stroke-linecap="butt" stroke-linejoin="miter" stroke="rgb(50.195312%, 50.195312%, 50.195312%)" stroke-opacity="1" stroke-miterlimit="4" d="M 24.855469 33.3125 L 23.570312 33.3125 "/>
<path fill="none" stroke-width="0.850394" stroke-linecap="butt" stroke-linejoin="miter" stroke="rgb(50.195312%, 50.195312%, 50.195312%)" stroke-opacity="1" stroke-miterlimit="4" d="M 24.855469 42.871094 L 23.570312 42.871094 "/>
<path fill="none" stroke-width="0.850394" stroke-linecap="butt" stroke-linejoin="miter" stroke="rgb(50.195312%, 50.195312%, 50.195312%)" stroke-opacity="1" stroke-miterlimit="4" d="M 24.855469 52.425781 L 23.570312 52.425781 "/>
<path fill="none" stroke-width="0.850394" stroke-linecap="butt" stroke-linejoin="miter" stroke="rgb(50.195312%, 50.195312%, 50.195312%)" stroke-opacity="1" stroke-miterlimit="4" d="M 24.855469 71.535156 L 23.570312 71.535156 "/>
<path fill="none" stroke-width="0.850394" stroke-linecap="butt" stroke-linejoin="miter" stroke="rgb(50.195312%, 50.195312%, 50.195312%)" stroke-opacity="1" stroke-miterlimit="4" d="M 24.855469 81.089844 L 23.570312 81.089844 "/>
<path fill="none" stroke-width="0.850394" stroke-linecap="butt" stroke-linejoin="miter" stroke="rgb(50.195312%, 50.195312%, 50.195312%)" stroke-opacity="1" stroke-miterlimit="4" d="M 24.855469 90.648438 L 23.570312 90.648438 "/>
<path fill="none" stroke-width="0.850394" stroke-linecap="butt" stroke-linejoin="miter" stroke="rgb(50.195312%, 50.195312%, 50.195312%)" stroke-opacity="1" stroke-miterlimit="4" d="M 24.855469 100.203125 L 23.570312 100.203125 "/>
<path fill-rule="nonzero" fill="rgb(0%, 0%, 0%)" fill-opacity="1" d="M 68.605469 119.886719 L 69.445312 119.886719 L 69.445312 127.601562 L 68.605469 127.601562 Z M 68.605469 119.886719 "/>
<path fill-rule="nonzero" fill="rgb(0%, 0%, 0%)" fill-opacity="1" d="M 75.320312 127.601562 L 75.320312 124.558594 C 75.320312 123.371094 74.8125 122.441406 73.519531 122.441406 C 72.871094 122.441406 72.207031 122.6875 71.804688 123.246094 L 71.804688 122.566406 L 70.980469 122.566406 L 70.980469 127.601562 L 71.804688 127.601562 L 71.804688 124.75 C 71.839844 123.789062 72.433594 123.175781 73.328125 123.175781 C 74.199219 123.175781 74.515625 123.703125 74.515625 124.59375 L 74.515625 127.601562 Z M 75.320312 127.601562 "/>
<g clip-path="url(#clip-1)">
<path fill-rule="nonzero" fill="rgb(0%, 0%, 0%)" fill-opacity="1" d="M 81.410156 125.082031 C 81.410156 123.613281 80.433594 122.566406 78.945312 122.566406 L 76.792969 122.566406 L 76.792969 130.296875 L 77.632812 130.296875 L 77.632812 127.601562 L 78.875 127.601562 C 80.5 127.601562 81.410156 126.585938 81.410156 125.082031 Z M 80.605469 125.082031 C 80.605469 126.082031 79.976562 126.867188 78.875 126.867188 L 77.632812 126.867188 L 77.632812 123.300781 L 78.875 123.300781 C 79.960938 123.300781 80.605469 124.015625 80.605469 125.082031 Z M 80.605469 125.082031 "/>
</g>
<path fill-rule="nonzero" fill="rgb(0%, 0%, 0%)" fill-opacity="1" d="M 86.996094 127.601562 L 86.996094 122.566406 L 86.140625 122.566406 L 86.140625 125.414062 C 86.140625 126.359375 85.667969 127.007812 84.652344 127.007812 C 83.761719 127.007812 83.445312 126.449219 83.445312 125.589844 L 83.445312 122.566406 L 82.640625 122.566406 L 82.640625 125.609375 C 82.640625 126.796875 83.199219 127.742188 84.460938 127.742188 C 85.109375 127.742188 85.773438 127.375 86.140625 126.9375 L 86.140625 127.601562 Z M 86.996094 127.601562 "/>
<path fill-rule="nonzero" fill="rgb(0%, 0%, 0%)" fill-opacity="1" d="M 91.355469 127.601562 L 91.355469 126.886719 L 90.480469 126.886719 C 89.691406 126.886719 89.550781 126.691406 89.550781 125.957031 L 89.550781 123.230469 L 91.039062 123.230469 L 91.039062 122.566406 L 89.550781 122.566406 L 89.550781 121.128906 L 89.203125 121.128906 L 88.730469 122.566406 L 88.136719 122.566406 L 88.136719 123.230469 L 88.730469 123.230469 L 88.730469 125.957031 C 88.730469 127.21875 89.238281 127.601562 90.480469 127.601562 Z M 91.355469 127.601562 "/>
<path fill-rule="nonzero" fill="rgb(0%, 0%, 0%)" fill-opacity="1" d="M 93.46875 126.464844 L 92.457031 126.464844 L 92.457031 127.234375 C 92.527344 127.375 92.542969 127.515625 92.542969 127.65625 C 92.542969 128.058594 92.332031 128.476562 92.035156 128.667969 C 92.613281 128.652344 93.453125 127.792969 93.46875 127.253906 Z M 93.46875 126.464844 "/>
<path fill-rule="nonzero" fill="rgb(0%, 0%, 0%)" fill-opacity="1" d="M 101.175781 124.226562 C 101.246094 123.945312 101.507812 122.914062 102.277344 122.914062 C 102.332031 122.914062 102.609375 122.914062 102.835938 123.054688 C 102.523438 123.125 102.3125 123.386719 102.3125 123.667969 C 102.3125 123.839844 102.433594 124.050781 102.734375 124.050781 C 102.976562 124.050781 103.328125 123.859375 103.328125 123.402344 C 103.328125 122.828125 102.679688 122.667969 102.296875 122.667969 C 101.648438 122.667969 101.261719 123.265625 101.125 123.507812 C 100.84375 122.773438 100.25 122.667969 99.917969 122.667969 C 98.761719 122.667969 98.113281 124.105469 98.113281 124.382812 C 98.113281 124.507812 98.238281 124.507812 98.253906 124.507812 C 98.34375 124.507812 98.378906 124.472656 98.394531 124.382812 C 98.78125 123.195312 99.515625 122.914062 99.898438 122.914062 C 100.109375 122.914062 100.492188 123.019531 100.492188 123.667969 C 100.492188 124.015625 100.300781 124.75 99.898438 126.324219 C 99.722656 127.007812 99.320312 127.480469 98.832031 127.480469 C 98.761719 127.480469 98.515625 127.480469 98.273438 127.339844 C 98.550781 127.269531 98.796875 127.042969 98.796875 126.726562 C 98.796875 126.429688 98.550781 126.34375 98.394531 126.34375 C 98.042969 126.34375 97.78125 126.621094 97.78125 126.988281 C 97.78125 127.496094 98.324219 127.726562 98.8125 127.726562 C 99.566406 127.726562 99.96875 126.9375 99.988281 126.886719 C 100.125 127.289062 100.527344 127.726562 101.195312 127.726562 C 102.347656 127.726562 102.976562 126.289062 102.976562 126.011719 C 102.976562 125.886719 102.890625 125.886719 102.855469 125.886719 C 102.75 125.886719 102.734375 125.941406 102.699219 126.011719 C 102.332031 127.21875 101.578125 127.480469 101.226562 127.480469 C 100.792969 127.480469 100.617188 127.128906 100.617188 126.746094 C 100.617188 126.5 100.667969 126.253906 100.792969 125.765625 Z M 101.175781 124.226562 "/>
<path fill-rule="nonzero" fill="rgb(0%, 0%, 0%)" fill-opacity="1" d="M 4.023438 77.292969 C 1.90625 77.292969 0 78.273438 0 80.582031 C 0 82.839844 1.960938 83.835938 4.023438 83.835938 C 6.085938 83.835938 8.011719 82.820312 8.011719 80.582031 C 8.011719 78.289062 6.140625 77.292969 4.023438 77.292969 Z M 4.023438 78.113281 C 5.582031 78.113281 7.257812 78.796875 7.257812 80.582031 C 7.257812 82.332031 5.5625 83.011719 4.023438 83.011719 C 2.429688 83.011719 0.753906 82.367188 0.753906 80.582031 C 0.753906 78.761719 2.414062 78.113281 4.023438 78.113281 Z M 4.023438 78.113281 "/>
<path fill-rule="nonzero" fill="rgb(0%, 0%, 0%)" fill-opacity="1" d="M 7.855469 71.734375 L 2.816406 71.734375 L 2.816406 72.589844 L 5.667969 72.589844 C 6.613281 72.589844 7.257812 73.0625 7.257812 74.078125 C 7.257812 74.96875 6.699219 75.285156 5.84375 75.285156 L 2.816406 75.285156 L 2.816406 76.089844 L 5.859375 76.089844 C 7.050781 76.089844 7.996094 75.527344 7.996094 74.269531 C 7.996094 73.621094 7.625 72.957031 7.191406 72.589844 L 7.855469 72.589844 Z M 7.855469 71.734375 "/>
<path fill-rule="nonzero" fill="rgb(0%, 0%, 0%)" fill-opacity="1" d="M 7.855469 67.375 L 7.136719 67.375 L 7.136719 68.25 C 7.136719 69.035156 6.945312 69.175781 6.210938 69.175781 L 3.480469 69.175781 L 3.480469 67.691406 L 2.816406 67.691406 L 2.816406 69.175781 L 1.382812 69.175781 L 1.382812 69.527344 L 2.816406 70 L 2.816406 70.59375 L 3.480469 70.59375 L 3.480469 70 L 6.210938 70 C 7.46875 70 7.855469 69.492188 7.855469 68.25 Z M 7.855469 67.375 "/>
<path fill-rule="nonzero" fill="rgb(0%, 0%, 0%)" fill-opacity="1" d="M 5.335938 61.726562 C 3.867188 61.726562 2.816406 62.707031 2.816406 64.191406 L 2.816406 66.34375 L 10.546875 66.34375 L 10.546875 65.503906 L 7.855469 65.503906 L 7.855469 64.261719 C 7.855469 62.636719 6.839844 61.726562 5.335938 61.726562 Z M 5.335938 62.53125 C 6.332031 62.53125 7.121094 63.160156 7.121094 64.261719 L 7.121094 65.503906 L 3.550781 65.503906 L 3.550781 64.261719 C 3.550781 63.175781 4.269531 62.53125 5.335938 62.53125 Z M 5.335938 62.53125 "/>
<path fill-rule="nonzero" fill="rgb(0%, 0%, 0%)" fill-opacity="1" d="M 7.855469 56.140625 L 2.816406 56.140625 L 2.816406 56.996094 L 5.667969 56.996094 C 6.613281 56.996094 7.257812 57.46875 7.257812 58.484375 C 7.257812 59.375 6.699219 59.691406 5.84375 59.691406 L 2.816406 59.691406 L 2.816406 60.496094 L 5.859375 60.496094 C 7.050781 60.496094 7.996094 59.9375 7.996094 58.675781 C 7.996094 58.03125 7.625 57.363281 7.191406 56.996094 L 7.855469 56.996094 Z M 7.855469 56.140625 "/>
<path fill-rule="nonzero" fill="rgb(0%, 0%, 0%)" fill-opacity="1" d="M 7.855469 51.78125 L 7.136719 51.78125 L 7.136719 52.65625 C 7.136719 53.445312 6.945312 53.585938 6.210938 53.585938 L 3.480469 53.585938 L 3.480469 52.097656 L 2.816406 52.097656 L 2.816406 53.585938 L 1.382812 53.585938 L 1.382812 53.933594 L 2.816406 54.40625 L 2.816406 55 L 3.480469 55 L 3.480469 54.40625 L 6.210938 54.40625 C 7.46875 54.40625 7.855469 53.898438 7.855469 52.65625 Z M 7.855469 51.78125 "/>
<path fill-rule="nonzero" fill="rgb(0%, 0%, 0%)" fill-opacity="1" d="M 6.71875 49.667969 L 6.71875 50.679688 L 7.488281 50.679688 C 7.625 50.609375 7.765625 50.59375 7.90625 50.59375 C 8.308594 50.59375 8.730469 50.804688 8.921875 51.101562 C 8.902344 50.523438 8.046875 49.683594 7.503906 49.667969 Z M 6.71875 49.667969 "/>
<path fill-rule="nonzero" fill="rgb(0%, 0%, 0%)" fill-opacity="1" d="M 3.605469 40.265625 C 3.445312 40.210938 3.429688 40.210938 3.339844 40.210938 C 3.148438 40.210938 3.042969 40.367188 3.042969 40.542969 C 3.042969 40.648438 3.113281 40.824219 3.269531 40.929688 C 3.339844 40.945312 3.671875 41.050781 3.882812 41.085938 C 4.164062 41.171875 4.476562 41.242188 4.777344 41.3125 L 6.789062 41.820312 C 6.945312 41.855469 7.730469 42.34375 7.730469 43.082031 C 7.730469 43.640625 7.242188 43.761719 6.820312 43.761719 C 6.316406 43.761719 5.613281 43.570312 4.636719 43.203125 C 4.179688 43.027344 4.058594 42.976562 3.832031 42.976562 C 3.339844 42.976562 2.921875 43.324219 2.921875 43.886719 C 2.921875 44.953125 4.546875 45.355469 4.636719 45.355469 C 4.757812 45.355469 4.757812 45.25 4.757812 45.230469 C 4.757812 45.109375 4.722656 45.109375 4.546875 45.058594 C 3.5 44.742188 3.167969 44.304688 3.167969 43.921875 C 3.167969 43.832031 3.167969 43.640625 3.515625 43.640625 C 3.796875 43.640625 4.09375 43.761719 4.304688 43.832031 C 5.492188 44.289062 6.121094 44.480469 6.648438 44.480469 C 7.644531 44.480469 7.976562 43.78125 7.976562 43.117188 C 7.976562 42.679688 7.785156 42.3125 7.46875 41.996094 C 8.046875 42.136719 8.605469 42.277344 9.203125 42.714844 C 9.570312 43.011719 9.902344 43.429688 9.902344 43.9375 C 9.902344 44.09375 9.867188 44.601562 9.429688 44.792969 C 9.429688 44.621094 9.429688 44.460938 9.289062 44.324219 C 9.203125 44.199219 9.042969 44.09375 8.832031 44.09375 C 8.484375 44.09375 8.449219 44.390625 8.449219 44.496094 C 8.449219 44.757812 8.625 45.128906 9.167969 45.128906 C 9.726562 45.128906 10.144531 44.636719 10.144531 43.9375 C 10.144531 42.800781 9.132812 41.644531 7.871094 41.332031 Z M 3.605469 40.265625 "/>
<path fill="none" stroke-width="0.850394" stroke-linecap="butt" stroke-linejoin="miter" stroke="rgb(50.195312%, 50.195312%, 50.195312%)" stroke-opacity="1" stroke-miterlimit="4" d="M 155.953125 110.199219 L 155.953125 112.082031 "/>
<path fill="none" stroke-width="0.850394" stroke-linecap="butt" stroke-linejoin="miter" stroke="rgb(50.195312%, 50.195312%, 50.195312%)" stroke-opacity="1" stroke-miterlimit="4" d="M 215.066406 110.199219 L 215.066406 112.082031 "/>
<path fill="none" stroke-width="0.850394" stroke-linecap="butt" stroke-linejoin="miter" stroke="rgb(50.195312%, 50.195312%, 50.195312%)" stroke-opacity="1" stroke-miterlimit="4" d="M 274.183594 110.199219 L 274.183594 112.082031 "/>
<path fill="none" stroke-width="0.850394" stroke-linecap="butt" stroke-linejoin="miter" stroke="rgb(50.195312%, 50.195312%, 50.195312%)" stroke-opacity="1" stroke-miterlimit="4" d="M 167.773438 111.484375 L 167.773438 110.199219 "/>
<path fill="none" stroke-width="0.850394" stroke-linecap="butt" stroke-linejoin="miter" stroke="rgb(50.195312%, 50.195312%, 50.195312%)" stroke-opacity="1" stroke-miterlimit="4" d="M 179.597656 111.484375 L 179.597656 110.199219 "/>
<path fill="none" stroke-width="0.850394" stroke-linecap="butt" stroke-linejoin="miter" stroke="rgb(50.195312%, 50.195312%, 50.195312%)" stroke-opacity="1" stroke-miterlimit="4" d="M 191.421875 111.484375 L 191.421875 110.199219 "/>
<path fill="none" stroke-width="0.850394" stroke-linecap="butt" stroke-linejoin="miter" stroke="rgb(50.195312%, 50.195312%, 50.195312%)" stroke-opacity="1" stroke-miterlimit="4" d="M 203.242188 111.484375 L 203.242188 110.199219 "/>
<path fill="none" stroke-width="0.850394" stroke-linecap="butt" stroke-linejoin="miter" stroke="rgb(50.195312%, 50.195312%, 50.195312%)" stroke-opacity="1" stroke-miterlimit="4" d="M 226.890625 111.484375 L 226.890625 110.199219 "/>
<path fill="none" stroke-width="0.850394" stroke-linecap="butt" stroke-linejoin="miter" stroke="rgb(50.195312%, 50.195312%, 50.195312%)" stroke-opacity="1" stroke-miterlimit="4" d="M 238.714844 111.484375 L 238.714844 110.199219 "/>
<path fill="none" stroke-width="0.850394" stroke-linecap="butt" stroke-linejoin="miter" stroke="rgb(50.195312%, 50.195312%, 50.195312%)" stroke-opacity="1" stroke-miterlimit="4" d="M 250.535156 111.484375 L 250.535156 110.199219 "/>
<path fill="none" stroke-width="0.850394" stroke-linecap="butt" stroke-linejoin="miter" stroke="rgb(50.195312%, 50.195312%, 50.195312%)" stroke-opacity="1" stroke-miterlimit="4" d="M 262.359375 111.484375 L 262.359375 110.199219 "/>
<path fill="none" stroke-width="0.850394" stroke-linecap="butt" stroke-linejoin="miter" stroke="rgb(50.195312%, 50.195312%, 50.195312%)" stroke-opacity="1" stroke-miterlimit="4" d="M 155.753906 14.21875 L 153.871094 14.21875 "/>
<path fill="none" stroke-width="0.850394" stroke-linecap="butt" stroke-linejoin="miter" stroke="rgb(50.195312%, 50.195312%, 50.195312%)" stroke-opacity="1" stroke-miterlimit="4" d="M 155.753906 61.988281 L 153.871094 61.988281 "/>
<path fill="none" stroke-width="0.850394" stroke-linecap="butt" stroke-linejoin="miter" stroke="rgb(50.195312%, 50.195312%, 50.195312%)" stroke-opacity="1" stroke-miterlimit="4" d="M 155.753906 109.757812 L 153.871094 109.757812 "/>
<path fill="none" stroke-width="0.850394" stroke-linecap="butt" stroke-linejoin="miter" stroke="rgb(50.195312%, 50.195312%, 50.195312%)" stroke-opacity="1" stroke-miterlimit="4" d="M 155.753906 23.773438 L 154.46875 23.773438 "/>
<path fill="none" stroke-width="0.850394" stroke-linecap="butt" stroke-linejoin="miter" stroke="rgb(50.195312%, 50.195312%, 50.195312%)" stroke-opacity="1" stroke-miterlimit="4" d="M 155.753906 33.328125 L 154.46875 33.328125 "/>
<path fill="none" stroke-width="0.850394" stroke-linecap="butt" stroke-linejoin="miter" stroke="rgb(50.195312%, 50.195312%, 50.195312%)" stroke-opacity="1" stroke-miterlimit="4" d="M 155.753906 42.882812 L 154.46875 42.882812 "/>
<path fill="none" stroke-width="0.850394" stroke-linecap="butt" stroke-linejoin="miter" stroke="rgb(50.195312%, 50.195312%, 50.195312%)" stroke-opacity="1" stroke-miterlimit="4" d="M 155.753906 71.542969 L 154.46875 71.542969 "/>
<path fill="none" stroke-width="0.850394" stroke-linecap="butt" stroke-linejoin="miter" stroke="rgb(50.195312%, 50.195312%, 50.195312%)" stroke-opacity="1" stroke-miterlimit="4" d="M 155.753906 52.433594 L 154.46875 52.433594 "/>
<path fill="none" stroke-width="0.850394" stroke-linecap="butt" stroke-linejoin="miter" stroke="rgb(50.195312%, 50.195312%, 50.195312%)" stroke-opacity="1" stroke-miterlimit="4" d="M 155.753906 81.097656 L 154.46875 81.097656 "/>
<path fill="none" stroke-width="0.850394" stroke-linecap="butt" stroke-linejoin="miter" stroke="rgb(50.195312%, 50.195312%, 50.195312%)" stroke-opacity="1" stroke-miterlimit="4" d="M 155.753906 90.648438 L 154.46875 90.648438 "/>
<path fill="none" stroke-width="0.850394" stroke-linecap="butt" stroke-linejoin="miter" stroke="rgb(50.195312%, 50.195312%, 50.195312%)" stroke-opacity="1" stroke-miterlimit="4" d="M 155.753906 100.203125 L 154.46875 100.203125 "/>
<path fill="none" stroke-width="0.850394" stroke-linecap="butt" stroke-linejoin="miter" stroke="rgb(50.195312%, 50.195312%, 50.195312%)" stroke-opacity="1" stroke-miterlimit="4" d="M 285.679688 110.199219 L 285.679688 112.082031 "/>
<path fill="none" stroke-width="0.850394" stroke-linecap="butt" stroke-linejoin="miter" stroke="rgb(50.195312%, 50.195312%, 50.195312%)" stroke-opacity="1" stroke-miterlimit="4" d="M 344.796875 110.199219 L 344.796875 112.082031 "/>
<path fill="none" stroke-width="0.850394" stroke-linecap="butt" stroke-linejoin="miter" stroke="rgb(50.195312%, 50.195312%, 50.195312%)" stroke-opacity="1" stroke-miterlimit="4" d="M 403.910156 110.199219 L 403.910156 112.082031 "/>
<path fill="none" stroke-width="0.850394" stroke-linecap="butt" stroke-linejoin="miter" stroke="rgb(50.195312%, 50.195312%, 50.195312%)" stroke-opacity="1" stroke-miterlimit="4" d="M 297.503906 111.484375 L 297.503906 110.199219 "/>
<path fill="none" stroke-width="0.850394" stroke-linecap="butt" stroke-linejoin="miter" stroke="rgb(50.195312%, 50.195312%, 50.195312%)" stroke-opacity="1" stroke-miterlimit="4" d="M 309.328125 111.484375 L 309.328125 110.199219 "/>
<path fill="none" stroke-width="0.850394" stroke-linecap="butt" stroke-linejoin="miter" stroke="rgb(50.195312%, 50.195312%, 50.195312%)" stroke-opacity="1" stroke-miterlimit="4" d="M 321.148438 111.484375 L 321.148438 110.199219 "/>
<path fill="none" stroke-width="0.850394" stroke-linecap="butt" stroke-linejoin="miter" stroke="rgb(50.195312%, 50.195312%, 50.195312%)" stroke-opacity="1" stroke-miterlimit="4" d="M 332.972656 111.484375 L 332.972656 110.199219 "/>
<path fill="none" stroke-width="0.850394" stroke-linecap="butt" stroke-linejoin="miter" stroke="rgb(50.195312%, 50.195312%, 50.195312%)" stroke-opacity="1" stroke-miterlimit="4" d="M 356.617188 111.484375 L 356.617188 110.199219 "/>
<path fill="none" stroke-width="0.850394" stroke-linecap="butt" stroke-linejoin="miter" stroke="rgb(50.195312%, 50.195312%, 50.195312%)" stroke-opacity="1" stroke-miterlimit="4" d="M 368.441406 111.484375 L 368.441406 110.199219 "/>
<path fill="none" stroke-width="0.850394" stroke-linecap="butt" stroke-linejoin="miter" stroke="rgb(50.195312%, 50.195312%, 50.195312%)" stroke-opacity="1" stroke-miterlimit="4" d="M 380.265625 111.484375 L 380.265625 110.199219 "/>
<path fill="none" stroke-width="0.850394" stroke-linecap="butt" stroke-linejoin="miter" stroke="rgb(50.195312%, 50.195312%, 50.195312%)" stroke-opacity="1" stroke-miterlimit="4" d="M 392.089844 111.484375 L 392.089844 110.199219 "/>
<path fill="none" stroke-width="0.850394" stroke-linecap="butt" stroke-linejoin="miter" stroke="rgb(50.195312%, 50.195312%, 50.195312%)" stroke-opacity="1" stroke-miterlimit="4" d="M 285.679688 14.285156 L 283.796875 14.285156 "/>
<path fill="none" stroke-width="0.850394" stroke-linecap="butt" stroke-linejoin="miter" stroke="rgb(50.195312%, 50.195312%, 50.195312%)" stroke-opacity="1" stroke-miterlimit="4" d="M 285.679688 62.023438 L 283.796875 62.023438 "/>
<path fill="none" stroke-width="0.850394" stroke-linecap="butt" stroke-linejoin="miter" stroke="rgb(50.195312%, 50.195312%, 50.195312%)" stroke-opacity="1" stroke-miterlimit="4" d="M 285.679688 109.757812 L 283.796875 109.757812 "/>
<path fill="none" stroke-width="0.850394" stroke-linecap="butt" stroke-linejoin="miter" stroke="rgb(50.195312%, 50.195312%, 50.195312%)" stroke-opacity="1" stroke-miterlimit="4" d="M 285.679688 23.832031 L 284.398438 23.832031 "/>
<path fill="none" stroke-width="0.850394" stroke-linecap="butt" stroke-linejoin="miter" stroke="rgb(50.195312%, 50.195312%, 50.195312%)" stroke-opacity="1" stroke-miterlimit="4" d="M 285.679688 52.472656 L 284.398438 52.472656 "/>
<path fill="none" stroke-width="0.850394" stroke-linecap="butt" stroke-linejoin="miter" stroke="rgb(50.195312%, 50.195312%, 50.195312%)" stroke-opacity="1" stroke-miterlimit="4" d="M 285.679688 71.570312 L 284.398438 71.570312 "/>
<path fill="none" stroke-width="0.850394" stroke-linecap="butt" stroke-linejoin="miter" stroke="rgb(50.195312%, 50.195312%, 50.195312%)" stroke-opacity="1" stroke-miterlimit="4" d="M 285.679688 81.117188 L 284.398438 81.117188 "/>
<path fill="none" stroke-width="0.850394" stroke-linecap="butt" stroke-linejoin="miter" stroke="rgb(50.195312%, 50.195312%, 50.195312%)" stroke-opacity="1" stroke-miterlimit="4" d="M 285.679688 90.664062 L 284.398438 90.664062 "/>
<path fill="none" stroke-width="0.850394" stroke-linecap="butt" stroke-linejoin="miter" stroke="rgb(50.195312%, 50.195312%, 50.195312%)" stroke-opacity="1" stroke-miterlimit="4" d="M 285.679688 100.210938 L 284.398438 100.210938 "/>
<path fill-rule="nonzero" fill="rgb(0%, 0%, 0%)" fill-opacity="1" d="M 197.707031 119.886719 L 198.546875 119.886719 L 198.546875 127.601562 L 197.707031 127.601562 Z M 197.707031 119.886719 "/>
<path fill-rule="nonzero" fill="rgb(0%, 0%, 0%)" fill-opacity="1" d="M 204.421875 127.601562 L 204.421875 124.558594 C 204.421875 123.371094 203.914062 122.441406 202.617188 122.441406 C 201.972656 122.441406 201.308594 122.6875 200.90625 123.246094 L 200.90625 122.566406 L 200.082031 122.566406 L 200.082031 127.601562 L 200.90625 127.601562 L 200.90625 124.75 C 200.941406 123.789062 201.535156 123.175781 202.425781 123.175781 C 203.300781 123.175781 203.617188 123.703125 203.617188 124.59375 L 203.617188 127.601562 Z M 204.421875 127.601562 "/>
<g clip-path="url(#clip-2)">
<path fill-rule="nonzero" fill="rgb(0%, 0%, 0%)" fill-opacity="1" d="M 210.511719 125.082031 C 210.511719 123.613281 209.53125 122.566406 208.046875 122.566406 L 205.894531 122.566406 L 205.894531 130.296875 L 206.734375 130.296875 L 206.734375 127.601562 L 207.976562 127.601562 C 209.601562 127.601562 210.511719 126.585938 210.511719 125.082031 Z M 209.707031 125.082031 C 209.707031 126.082031 209.078125 126.867188 207.976562 126.867188 L 206.734375 126.867188 L 206.734375 123.300781 L 207.976562 123.300781 C 209.058594 123.300781 209.707031 124.015625 209.707031 125.082031 Z M 209.707031 125.082031 "/>
</g>
<path fill-rule="nonzero" fill="rgb(0%, 0%, 0%)" fill-opacity="1" d="M 216.097656 127.601562 L 216.097656 122.566406 L 215.238281 122.566406 L 215.238281 125.414062 C 215.238281 126.359375 214.765625 127.007812 213.753906 127.007812 C 212.859375 127.007812 212.546875 126.449219 212.546875 125.589844 L 212.546875 122.566406 L 211.742188 122.566406 L 211.742188 125.609375 C 211.742188 126.796875 212.300781 127.742188 213.558594 127.742188 C 214.207031 127.742188 214.871094 127.375 215.238281 126.9375 L 215.238281 127.601562 Z M 216.097656 127.601562 "/>
<path fill-rule="nonzero" fill="rgb(0%, 0%, 0%)" fill-opacity="1" d="M 220.453125 127.601562 L 220.453125 126.886719 L 219.578125 126.886719 C 218.792969 126.886719 218.652344 126.691406 218.652344 125.957031 L 218.652344 123.230469 L 220.140625 123.230469 L 220.140625 122.566406 L 218.652344 122.566406 L 218.652344 121.128906 L 218.304688 121.128906 L 217.832031 122.566406 L 217.234375 122.566406 L 217.234375 123.230469 L 217.832031 123.230469 L 217.832031 125.957031 C 217.832031 127.21875 218.335938 127.601562 219.578125 127.601562 Z M 220.453125 127.601562 "/>
<path fill-rule="nonzero" fill="rgb(0%, 0%, 0%)" fill-opacity="1" d="M 222.570312 126.464844 L 221.554688 126.464844 L 221.554688 127.234375 C 221.625 127.375 221.644531 127.515625 221.644531 127.65625 C 221.644531 128.058594 221.433594 128.476562 221.136719 128.667969 C 221.714844 128.652344 222.554688 127.792969 222.570312 127.253906 Z M 222.570312 126.464844 "/>
<path fill-rule="nonzero" fill="rgb(0%, 0%, 0%)" fill-opacity="1" d="M 230.277344 124.226562 C 230.347656 123.945312 230.609375 122.914062 231.378906 122.914062 C 231.429688 122.914062 231.710938 122.914062 231.9375 123.054688 C 231.621094 123.125 231.414062 123.386719 231.414062 123.667969 C 231.414062 123.839844 231.535156 124.050781 231.832031 124.050781 C 232.078125 124.050781 232.425781 123.859375 232.425781 123.402344 C 232.425781 122.828125 231.78125 122.667969 231.394531 122.667969 C 230.75 122.667969 230.363281 123.265625 230.222656 123.507812 C 229.945312 122.773438 229.347656 122.667969 229.015625 122.667969 C 227.863281 122.667969 227.214844 124.105469 227.214844 124.382812 C 227.214844 124.507812 227.335938 124.507812 227.355469 124.507812 C 227.441406 124.507812 227.476562 124.472656 227.496094 124.382812 C 227.878906 123.195312 228.613281 122.914062 229 122.914062 C 229.207031 122.914062 229.59375 123.019531 229.59375 123.667969 C 229.59375 124.015625 229.402344 124.75 229 126.324219 C 228.824219 127.007812 228.421875 127.480469 227.933594 127.480469 C 227.863281 127.480469 227.617188 127.480469 227.371094 127.339844 C 227.652344 127.269531 227.898438 127.042969 227.898438 126.726562 C 227.898438 126.429688 227.652344 126.34375 227.496094 126.34375 C 227.144531 126.34375 226.882812 126.621094 226.882812 126.988281 C 226.882812 127.496094 227.425781 127.726562 227.914062 127.726562 C 228.667969 127.726562 229.070312 126.9375 229.085938 126.886719 C 229.226562 127.289062 229.628906 127.726562 230.292969 127.726562 C 231.449219 127.726562 232.078125 126.289062 232.078125 126.011719 C 232.078125 125.886719 231.992188 125.886719 231.957031 125.886719 C 231.851562 125.886719 231.832031 125.941406 231.796875 126.011719 C 231.429688 127.21875 230.679688 127.480469 230.328125 127.480469 C 229.890625 127.480469 229.714844 127.128906 229.714844 126.746094 C 229.714844 126.5 229.769531 126.253906 229.890625 125.765625 Z M 230.277344 124.226562 "/>
<path fill-rule="nonzero" fill="rgb(0%, 0%, 0%)" fill-opacity="1" d="M 327.433594 119.886719 L 328.273438 119.886719 L 328.273438 127.601562 L 327.433594 127.601562 Z M 327.433594 119.886719 "/>
<path fill-rule="nonzero" fill="rgb(0%, 0%, 0%)" fill-opacity="1" d="M 334.148438 127.601562 L 334.148438 124.558594 C 334.148438 123.371094 333.640625 122.441406 332.347656 122.441406 C 331.699219 122.441406 331.035156 122.6875 330.632812 123.246094 L 330.632812 122.566406 L 329.8125 122.566406 L 329.8125 127.601562 L 330.632812 127.601562 L 330.632812 124.75 C 330.667969 123.789062 331.261719 123.175781 332.15625 123.175781 C 333.03125 123.175781 333.34375 123.703125 333.34375 124.59375 L 333.34375 127.601562 Z M 334.148438 127.601562 "/>
<g clip-path="url(#clip-3)">
<path fill-rule="nonzero" fill="rgb(0%, 0%, 0%)" fill-opacity="1" d="M 340.238281 125.082031 C 340.238281 123.613281 339.261719 122.566406 337.773438 122.566406 L 335.621094 122.566406 L 335.621094 130.296875 L 336.460938 130.296875 L 336.460938 127.601562 L 337.703125 127.601562 C 339.332031 127.601562 340.238281 126.585938 340.238281 125.082031 Z M 339.433594 125.082031 C 339.433594 126.082031 338.804688 126.867188 337.703125 126.867188 L 336.460938 126.867188 L 336.460938 123.300781 L 337.703125 123.300781 C 338.789062 123.300781 339.433594 124.015625 339.433594 125.082031 Z M 339.433594 125.082031 "/>
</g>
<path fill-rule="nonzero" fill="rgb(0%, 0%, 0%)" fill-opacity="1" d="M 345.824219 127.601562 L 345.824219 122.566406 L 344.96875 122.566406 L 344.96875 125.414062 C 344.96875 126.359375 344.496094 127.007812 343.480469 127.007812 C 342.589844 127.007812 342.273438 126.449219 342.273438 125.589844 L 342.273438 122.566406 L 341.46875 122.566406 L 341.46875 125.609375 C 341.46875 126.796875 342.027344 127.742188 343.289062 127.742188 C 343.9375 127.742188 344.601562 127.375 344.96875 126.9375 L 344.96875 127.601562 Z M 345.824219 127.601562 "/>
<path fill-rule="nonzero" fill="rgb(0%, 0%, 0%)" fill-opacity="1" d="M 350.183594 127.601562 L 350.183594 126.886719 L 349.308594 126.886719 C 348.519531 126.886719 348.382812 126.691406 348.382812 125.957031 L 348.382812 123.230469 L 349.867188 123.230469 L 349.867188 122.566406 L 348.382812 122.566406 L 348.382812 121.128906 L 348.03125 121.128906 L 347.558594 122.566406 L 346.964844 122.566406 L 346.964844 123.230469 L 347.558594 123.230469 L 347.558594 125.957031 C 347.558594 127.21875 348.066406 127.601562 349.308594 127.601562 Z M 350.183594 127.601562 "/>
<path fill-rule="nonzero" fill="rgb(0%, 0%, 0%)" fill-opacity="1" d="M 352.300781 126.464844 L 351.285156 126.464844 L 351.285156 127.234375 C 351.355469 127.375 351.371094 127.515625 351.371094 127.65625 C 351.371094 128.058594 351.160156 128.476562 350.863281 128.667969 C 351.441406 128.652344 352.28125 127.792969 352.300781 127.253906 Z M 352.300781 126.464844 "/>
<path fill-rule="nonzero" fill="rgb(0%, 0%, 0%)" fill-opacity="1" d="M 360.003906 124.226562 C 360.074219 123.945312 360.335938 122.914062 361.105469 122.914062 C 361.160156 122.914062 361.4375 122.914062 361.667969 123.054688 C 361.351562 123.125 361.140625 123.386719 361.140625 123.667969 C 361.140625 123.839844 361.265625 124.050781 361.5625 124.050781 C 361.804688 124.050781 362.15625 123.859375 362.15625 123.402344 C 362.15625 122.828125 361.507812 122.667969 361.125 122.667969 C 360.476562 122.667969 360.09375 123.265625 359.953125 123.507812 C 359.671875 122.773438 359.078125 122.667969 358.746094 122.667969 C 357.589844 122.667969 356.941406 124.105469 356.941406 124.382812 C 356.941406 124.507812 357.066406 124.507812 357.082031 124.507812 C 357.171875 124.507812 357.207031 124.472656 357.222656 124.382812 C 357.609375 123.195312 358.34375 122.914062 358.726562 122.914062 C 358.9375 122.914062 359.320312 123.019531 359.320312 123.667969 C 359.320312 124.015625 359.128906 124.75 358.726562 126.324219 C 358.550781 127.007812 358.148438 127.480469 357.660156 127.480469 C 357.589844 127.480469 357.34375 127.480469 357.101562 127.339844 C 357.378906 127.269531 357.625 127.042969 357.625 126.726562 C 357.625 126.429688 357.378906 126.34375 357.222656 126.34375 C 356.875 126.34375 356.609375 126.621094 356.609375 126.988281 C 356.609375 127.496094 357.152344 127.726562 357.644531 127.726562 C 358.394531 127.726562 358.796875 126.9375 358.816406 126.886719 C 358.953125 127.289062 359.355469 127.726562 360.023438 127.726562 C 361.175781 127.726562 361.804688 126.289062 361.804688 126.011719 C 361.804688 125.886719 361.71875 125.886719 361.683594 125.886719 C 361.578125 125.886719 361.5625 125.941406 361.527344 126.011719 C 361.160156 127.21875 360.40625 127.480469 360.058594 127.480469 C 359.621094 127.480469 359.445312 127.128906 359.445312 126.746094 C 359.445312 126.5 359.496094 126.253906 359.621094 125.765625 Z M 360.003906 124.226562 "/>
<path fill="none" stroke-width="1.984252" stroke-linecap="butt" stroke-linejoin="miter" stroke="rgb(81.959534%, 51.371765%, 38.430786%)" stroke-opacity="1" stroke-miterlimit="4" d="M 273.878906 93.007812 L 234.597656 46.433594 L 220.816406 42.925781 L 192.339844 62.351562 L 156.21875 62.371094 "/>
<path fill="none" stroke-width="0.850394" stroke-linecap="butt" stroke-linejoin="miter" stroke="rgb(50.195312%, 50.195312%, 50.195312%)" stroke-opacity="1" stroke-miterlimit="4" d="M 285.679688 33.378906 L 284.398438 33.378906 "/>
<path fill="none" stroke-width="0.850394" stroke-linecap="butt" stroke-linejoin="miter" stroke="rgb(50.195312%, 50.195312%, 50.195312%)" stroke-opacity="1" stroke-miterlimit="4" d="M 285.679688 42.925781 L 284.398438 42.925781 "/>
<path fill="none" stroke-width="1.984252" stroke-linecap="butt" stroke-linejoin="miter" stroke="rgb(27.842712%, 40.391541%, 47.450256%)" stroke-opacity="1" stroke-miterlimit="4" d="M 25.398438 34.566406 L 56.273438 47.566406 L 86.125 72.121094 L 115.652344 69.433594 L 142.863281 60.269531 "/>
<path fill="none" stroke-width="0.850394" stroke-linecap="butt" stroke-linejoin="miter" stroke="rgb(1.176453%, 0%, 0%)" stroke-opacity="1" stroke-miterlimit="4" d="M 25.054688 14.230469 L 143.3125 14.230469 L 143.3125 109.816406 L 25.054688 109.816406 Z M 25.054688 14.230469 "/>
<path fill="none" stroke-width="0.850394" stroke-linecap="butt" stroke-linejoin="miter" stroke="rgb(1.176453%, 0%, 0%)" stroke-opacity="1" stroke-miterlimit="4" d="M 155.9375 14.230469 L 274.195312 14.230469 L 274.195312 109.816406 L 155.9375 109.816406 Z M 155.9375 14.230469 "/>
<path fill="none" stroke-width="0.850394" stroke-linecap="butt" stroke-linejoin="miter" stroke="rgb(1.176453%, 0%, 0%)" stroke-opacity="1" stroke-miterlimit="4" d="M 285.695312 14.230469 L 403.953125 14.230469 L 403.953125 109.816406 L 285.695312 109.816406 Z M 285.695312 14.230469 "/>
<path fill-rule="nonzero" fill="rgb(50.195312%, 50.195312%, 50.195312%)" fill-opacity="1" d="M 23.851562 115.175781 C 23.851562 114.554688 23.8125 113.8125 23.480469 113.179688 C 23.15625 112.585938 22.613281 112.386719 22.214844 112.386719 C 21.746094 112.386719 21.1875 112.613281 20.867188 113.304688 C 20.605469 113.886719 20.570312 114.542969 20.570312 115.175781 C 20.570312 115.792969 20.59375 116.378906 20.828125 116.960938 C 21.152344 117.714844 21.746094 117.925781 22.203125 117.925781 C 22.773438 117.925781 23.28125 117.601562 23.527344 117.058594 C 23.765625 116.539062 23.851562 116.019531 23.851562 115.175781 Z M 22.214844 117.441406 C 21.792969 117.441406 21.472656 117.144531 21.3125 116.574219 C 21.1875 116.128906 21.1875 115.695312 21.1875 115.078125 C 21.1875 114.582031 21.1875 114.109375 21.3125 113.675781 C 21.359375 113.527344 21.558594 112.871094 22.203125 112.871094 C 22.824219 112.871094 23.019531 113.480469 23.082031 113.613281 C 23.230469 114.0625 23.230469 114.59375 23.230469 115.078125 C 23.230469 115.597656 23.230469 116.105469 23.082031 116.601562 C 22.882812 117.316406 22.464844 117.441406 22.214844 117.441406 Z M 22.214844 117.441406 "/>
<path fill-rule="nonzero" fill="rgb(50.195312%, 50.195312%, 50.195312%)" fill-opacity="1" d="M 24.949219 117.09375 L 25.605469 117.09375 L 25.605469 117.75 L 24.949219 117.75 Z M 24.949219 117.09375 "/>
<path fill-rule="nonzero" fill="rgb(50.195312%, 50.195312%, 50.195312%)" fill-opacity="1" d="M 29.992188 115.175781 C 29.992188 114.554688 29.957031 113.8125 29.621094 113.179688 C 29.300781 112.585938 28.753906 112.386719 28.359375 112.386719 C 27.886719 112.386719 27.332031 112.613281 27.007812 113.304688 C 26.75 113.886719 26.710938 114.542969 26.710938 115.175781 C 26.710938 115.792969 26.734375 116.378906 26.972656 116.960938 C 27.292969 117.714844 27.886719 117.925781 28.347656 117.925781 C 28.917969 117.925781 29.425781 117.601562 29.671875 117.058594 C 29.90625 116.539062 29.992188 116.019531 29.992188 115.175781 Z M 28.359375 117.441406 C 27.9375 117.441406 27.617188 117.144531 27.453125 116.574219 C 27.332031 116.128906 27.332031 115.695312 27.332031 115.078125 C 27.332031 114.582031 27.332031 114.109375 27.453125 113.675781 C 27.503906 113.527344 27.703125 112.871094 28.347656 112.871094 C 28.964844 112.871094 29.164062 113.480469 29.226562 113.613281 C 29.375 114.0625 29.375 114.59375 29.375 115.078125 C 29.375 115.597656 29.375 116.105469 29.226562 116.601562 C 29.027344 117.316406 28.605469 117.441406 28.359375 117.441406 Z M 28.359375 117.441406 "/>
<path fill-rule="nonzero" fill="rgb(50.195312%, 50.195312%, 50.195312%)" fill-opacity="1" d="M 14.628906 61.65625 C 14.628906 61.035156 14.589844 60.292969 14.257812 59.660156 C 13.933594 59.066406 13.390625 58.867188 12.992188 58.867188 C 12.523438 58.867188 11.964844 59.089844 11.644531 59.785156 C 11.382812 60.367188 11.347656 61.023438 11.347656 61.65625 C 11.347656 62.273438 11.371094 62.855469 11.605469 63.4375 C 11.929688 64.195312 12.523438 64.40625 12.980469 64.40625 C 13.550781 64.40625 14.058594 64.082031 14.308594 63.539062 C 14.542969 63.015625 14.628906 62.496094 14.628906 61.65625 Z M 12.992188 63.921875 C 12.574219 63.921875 12.25 63.625 12.089844 63.054688 C 11.964844 62.609375 11.964844 62.175781 11.964844 61.554688 C 11.964844 61.058594 11.964844 60.589844 12.089844 60.15625 C 12.140625 60.007812 12.335938 59.351562 12.980469 59.351562 C 13.601562 59.351562 13.800781 59.957031 13.859375 60.09375 C 14.007812 60.539062 14.007812 61.074219 14.007812 61.554688 C 14.007812 62.074219 14.007812 62.582031 13.859375 63.078125 C 13.664062 63.796875 13.242188 63.921875 12.992188 63.921875 Z M 12.992188 63.921875 "/>
<path fill-rule="nonzero" fill="rgb(50.195312%, 50.195312%, 50.195312%)" fill-opacity="1" d="M 15.730469 63.574219 L 16.386719 63.574219 L 16.386719 64.230469 L 15.730469 64.230469 Z M 15.730469 63.574219 "/>
<path fill-rule="nonzero" fill="rgb(50.195312%, 50.195312%, 50.195312%)" fill-opacity="1" d="M 20.773438 61.65625 C 20.773438 61.035156 20.734375 60.292969 20.398438 59.660156 C 20.078125 59.066406 19.53125 58.867188 19.136719 58.867188 C 18.667969 58.867188 18.109375 59.089844 17.785156 59.785156 C 17.527344 60.367188 17.488281 61.023438 17.488281 61.65625 C 17.488281 62.273438 17.515625 62.855469 17.75 63.4375 C 18.070312 64.195312 18.667969 64.40625 19.125 64.40625 C 19.695312 64.40625 20.203125 64.082031 20.449219 63.539062 C 20.683594 63.015625 20.773438 62.496094 20.773438 61.65625 Z M 19.136719 63.921875 C 18.714844 63.921875 18.394531 63.625 18.234375 63.054688 C 18.109375 62.609375 18.109375 62.175781 18.109375 61.554688 C 18.109375 61.058594 18.109375 60.589844 18.234375 60.15625 C 18.28125 60.007812 18.480469 59.351562 19.125 59.351562 C 19.742188 59.351562 19.941406 59.957031 20.003906 60.09375 C 20.152344 60.539062 20.152344 61.074219 20.152344 61.554688 C 20.152344 62.074219 20.152344 62.582031 20.003906 63.078125 C 19.804688 63.796875 19.382812 63.921875 19.136719 63.921875 Z M 19.136719 63.921875 "/>
<path fill-rule="nonzero" fill="rgb(50.195312%, 50.195312%, 50.195312%)" fill-opacity="1" d="M 154.347656 115.175781 C 154.347656 114.554688 154.3125 113.8125 153.976562 113.179688 C 153.65625 112.585938 153.109375 112.386719 152.714844 112.386719 C 152.242188 112.386719 151.683594 112.613281 151.363281 113.304688 C 151.101562 113.886719 151.066406 114.542969 151.066406 115.175781 C 151.066406 115.792969 151.089844 116.378906 151.328125 116.960938 C 151.648438 117.714844 152.242188 117.925781 152.703125 117.925781 C 153.269531 117.925781 153.777344 117.601562 154.027344 117.058594 C 154.261719 116.539062 154.347656 116.019531 154.347656 115.175781 Z M 152.714844 117.441406 C 152.292969 117.441406 151.96875 117.144531 151.808594 116.574219 C 151.683594 116.128906 151.683594 115.695312 151.683594 115.078125 C 151.683594 114.582031 151.683594 114.109375 151.808594 113.675781 C 151.859375 113.527344 152.058594 112.871094 152.703125 112.871094 C 153.320312 112.871094 153.519531 113.480469 153.582031 113.613281 C 153.730469 114.0625 153.730469 114.59375 153.730469 115.078125 C 153.730469 115.597656 153.730469 116.105469 153.582031 116.601562 C 153.382812 117.316406 152.960938 117.441406 152.714844 117.441406 Z M 152.714844 117.441406 "/>
<path fill-rule="nonzero" fill="rgb(50.195312%, 50.195312%, 50.195312%)" fill-opacity="1" d="M 155.449219 117.09375 L 156.105469 117.09375 L 156.105469 117.75 L 155.449219 117.75 Z M 155.449219 117.09375 "/>
<path fill-rule="nonzero" fill="rgb(50.195312%, 50.195312%, 50.195312%)" fill-opacity="1" d="M 160.492188 115.175781 C 160.492188 114.554688 160.453125 113.8125 160.121094 113.179688 C 159.796875 112.585938 159.253906 112.386719 158.855469 112.386719 C 158.386719 112.386719 157.828125 112.613281 157.507812 113.304688 C 157.246094 113.886719 157.207031 114.542969 157.207031 115.175781 C 157.207031 115.792969 157.234375 116.378906 157.46875 116.960938 C 157.792969 117.714844 158.386719 117.925781 158.84375 117.925781 C 159.414062 117.925781 159.921875 117.601562 160.167969 117.058594 C 160.40625 116.539062 160.492188 116.019531 160.492188 115.175781 Z M 158.855469 117.441406 C 158.433594 117.441406 158.113281 117.144531 157.953125 116.574219 C 157.828125 116.128906 157.828125 115.695312 157.828125 115.078125 C 157.828125 114.582031 157.828125 114.109375 157.953125 113.675781 C 158 113.527344 158.199219 112.871094 158.84375 112.871094 C 159.464844 112.871094 159.660156 113.480469 159.722656 113.613281 C 159.871094 114.0625 159.871094 114.59375 159.871094 115.078125 C 159.871094 115.597656 159.871094 116.105469 159.722656 116.601562 C 159.523438 117.316406 159.105469 117.441406 158.855469 117.441406 Z M 158.855469 117.441406 "/>
<path fill-rule="nonzero" fill="rgb(50.195312%, 50.195312%, 50.195312%)" fill-opacity="1" d="M 284.875 115.175781 C 284.875 114.554688 284.839844 113.8125 284.503906 113.179688 C 284.183594 112.585938 283.636719 112.386719 283.242188 112.386719 C 282.769531 112.386719 282.214844 112.613281 281.890625 113.304688 C 281.632812 113.886719 281.59375 114.542969 281.59375 115.175781 C 281.59375 115.792969 281.621094 116.378906 281.855469 116.960938 C 282.175781 117.714844 282.769531 117.925781 283.230469 117.925781 C 283.800781 117.925781 284.308594 117.601562 284.554688 117.058594 C 284.789062 116.539062 284.875 116.019531 284.875 115.175781 Z M 283.242188 117.441406 C 282.820312 117.441406 282.5 117.144531 282.335938 116.574219 C 282.214844 116.128906 282.214844 115.695312 282.214844 115.078125 C 282.214844 114.582031 282.214844 114.109375 282.335938 113.675781 C 282.386719 113.527344 282.585938 112.871094 283.230469 112.871094 C 283.847656 112.871094 284.046875 113.480469 284.109375 113.613281 C 284.257812 114.0625 284.257812 114.59375 284.257812 115.078125 C 284.257812 115.597656 284.257812 116.105469 284.109375 116.601562 C 283.910156 117.316406 283.488281 117.441406 283.242188 117.441406 Z M 283.242188 117.441406 "/>
<path fill-rule="nonzero" fill="rgb(50.195312%, 50.195312%, 50.195312%)" fill-opacity="1" d="M 285.976562 117.09375 L 286.632812 117.09375 L 286.632812 117.75 L 285.976562 117.75 Z M 285.976562 117.09375 "/>
<path fill-rule="nonzero" fill="rgb(50.195312%, 50.195312%, 50.195312%)" fill-opacity="1" d="M 291.019531 115.175781 C 291.019531 114.554688 290.984375 113.8125 290.648438 113.179688 C 290.324219 112.585938 289.78125 112.386719 289.382812 112.386719 C 288.914062 112.386719 288.355469 112.613281 288.035156 113.304688 C 287.773438 113.886719 287.738281 114.542969 287.738281 115.175781 C 287.738281 115.792969 287.761719 116.378906 287.996094 116.960938 C 288.320312 117.714844 288.914062 117.925781 289.371094 117.925781 C 289.941406 117.925781 290.449219 117.601562 290.699219 117.058594 C 290.933594 116.539062 291.019531 116.019531 291.019531 115.175781 Z M 289.382812 117.441406 C 288.964844 117.441406 288.640625 117.144531 288.480469 116.574219 C 288.355469 116.128906 288.355469 115.695312 288.355469 115.078125 C 288.355469 114.582031 288.355469 114.109375 288.480469 113.675781 C 288.53125 113.527344 288.726562 112.871094 289.371094 112.871094 C 289.992188 112.871094 290.191406 113.480469 290.25 113.613281 C 290.398438 114.0625 290.398438 114.59375 290.398438 115.078125 C 290.398438 115.597656 290.398438 116.105469 290.25 116.601562 C 290.054688 117.316406 289.632812 117.441406 289.382812 117.441406 Z M 289.382812 117.441406 "/>
<path fill-rule="nonzero" fill="rgb(50.195312%, 50.195312%, 50.195312%)" fill-opacity="1" d="M 14.304688 16.832031 L 14.304688 11.367188 L 13.648438 11.367188 L 12.867188 12 L 12.867188 12.621094 L 13.683594 11.949219 L 13.683594 16.832031 Z M 14.304688 16.832031 "/>
<path fill-rule="nonzero" fill="rgb(50.195312%, 50.195312%, 50.195312%)" fill-opacity="1" d="M 15.488281 16.027344 L 16.246094 16.027344 L 16.246094 16.832031 L 15.488281 16.832031 Z M 15.488281 16.027344 "/>
<path fill-rule="nonzero" fill="rgb(50.195312%, 50.195312%, 50.195312%)" fill-opacity="1" d="M 20.722656 14.117188 C 20.710938 12.953125 20.453125 11.269531 18.976562 11.269531 C 17.503906 11.269531 17.253906 12.980469 17.253906 14.117188 C 17.253906 15.269531 17.515625 16.941406 18.976562 16.941406 C 20.4375 16.941406 20.722656 15.269531 20.722656 14.117188 Z M 20.152344 14.117188 C 20.152344 14.875 20.09375 16.421875 18.976562 16.421875 C 17.863281 16.421875 17.824219 14.847656 17.824219 14.117188 C 17.824219 13.375 17.851562 11.777344 18.976562 11.777344 C 20.09375 11.777344 20.152344 13.386719 20.152344 14.117188 Z M 20.152344 14.117188 "/>
<path fill-rule="nonzero" fill="rgb(50.195312%, 50.195312%, 50.195312%)" fill-opacity="1" d="M 81.976562 117.882812 L 81.976562 112.417969 L 81.320312 112.417969 L 80.539062 113.050781 L 80.539062 113.671875 L 81.355469 113 L 81.355469 117.882812 Z M 81.976562 117.882812 "/>
<path fill-rule="nonzero" fill="rgb(50.195312%, 50.195312%, 50.195312%)" fill-opacity="1" d="M 83.160156 117.078125 L 83.917969 117.078125 L 83.917969 117.882812 L 83.160156 117.882812 Z M 83.160156 117.078125 "/>
<path fill-rule="nonzero" fill="rgb(50.195312%, 50.195312%, 50.195312%)" fill-opacity="1" d="M 88.394531 115.167969 C 88.382812 114.003906 88.125 112.320312 86.648438 112.320312 C 85.175781 112.320312 84.925781 114.03125 84.925781 115.167969 C 84.925781 116.320312 85.1875 117.992188 86.648438 117.992188 C 88.109375 117.992188 88.394531 116.320312 88.394531 115.167969 Z M 87.824219 115.167969 C 87.824219 115.925781 87.765625 117.472656 86.648438 117.472656 C 85.535156 117.472656 85.496094 115.898438 85.496094 115.167969 C 85.496094 114.425781 85.523438 112.828125 86.648438 112.828125 C 87.765625 112.828125 87.824219 114.4375 87.824219 115.167969 Z M 87.824219 115.167969 "/>
<path fill-rule="nonzero" fill="rgb(50.195312%, 50.195312%, 50.195312%)" fill-opacity="1" d="M 213.117188 117.882812 L 213.117188 112.417969 L 212.460938 112.417969 L 211.683594 113.050781 L 211.683594 113.671875 L 212.5 113 L 212.5 117.882812 Z M 213.117188 117.882812 "/>
<path fill-rule="nonzero" fill="rgb(50.195312%, 50.195312%, 50.195312%)" fill-opacity="1" d="M 214.304688 117.078125 L 215.0625 117.078125 L 215.0625 117.882812 L 214.304688 117.882812 Z M 214.304688 117.078125 "/>
<path fill-rule="nonzero" fill="rgb(50.195312%, 50.195312%, 50.195312%)" fill-opacity="1" d="M 219.539062 115.167969 C 219.527344 114.003906 219.265625 112.320312 217.792969 112.320312 C 216.320312 112.320312 216.070312 114.03125 216.070312 115.167969 C 216.070312 116.320312 216.332031 117.992188 217.792969 117.992188 C 219.253906 117.992188 219.539062 116.320312 219.539062 115.167969 Z M 218.96875 115.167969 C 218.96875 115.925781 218.90625 117.472656 217.792969 117.472656 C 216.679688 117.472656 216.640625 115.898438 216.640625 115.167969 C 216.640625 114.425781 216.664062 112.828125 217.792969 112.828125 C 218.90625 112.828125 218.96875 114.4375 218.96875 115.167969 Z M 218.96875 115.167969 "/>
<path fill-rule="nonzero" fill="rgb(50.195312%, 50.195312%, 50.195312%)" fill-opacity="1" d="M 342.738281 117.882812 L 342.738281 112.417969 L 342.082031 112.417969 L 341.300781 113.050781 L 341.300781 113.671875 L 342.117188 113 L 342.117188 117.882812 Z M 342.738281 117.882812 "/>
<path fill-rule="nonzero" fill="rgb(50.195312%, 50.195312%, 50.195312%)" fill-opacity="1" d="M 343.925781 117.078125 L 344.679688 117.078125 L 344.679688 117.882812 L 343.925781 117.882812 Z M 343.925781 117.078125 "/>
<path fill-rule="nonzero" fill="rgb(50.195312%, 50.195312%, 50.195312%)" fill-opacity="1" d="M 349.160156 115.167969 C 349.144531 114.003906 348.886719 112.320312 347.414062 112.320312 C 345.9375 112.320312 345.691406 114.03125 345.691406 115.167969 C 345.691406 116.320312 345.949219 117.992188 347.414062 117.992188 C 348.875 117.992188 349.160156 116.320312 349.160156 115.167969 Z M 348.589844 115.167969 C 348.589844 115.925781 348.527344 117.472656 347.414062 117.472656 C 346.296875 117.472656 346.261719 115.898438 346.261719 115.167969 C 346.261719 114.425781 346.285156 112.828125 347.414062 112.828125 C 348.527344 112.828125 348.589844 114.4375 348.589844 115.167969 Z M 348.589844 115.167969 "/>
<path fill-rule="nonzero" fill="rgb(50.195312%, 50.195312%, 50.195312%)" fill-opacity="1" d="M 9.488281 110.367188 L 11.285156 110.367188 L 11.285156 110.886719 L 9.488281 110.886719 Z M 9.488281 110.367188 "/>
<path fill-rule="nonzero" fill="rgb(50.195312%, 50.195312%, 50.195312%)" fill-opacity="1" d="M 13.503906 112.410156 L 13.503906 106.949219 L 12.847656 106.949219 L 12.066406 107.582031 L 12.066406 108.199219 L 12.886719 107.53125 L 12.886719 112.410156 Z M 13.503906 112.410156 "/>
<path fill-rule="nonzero" fill="rgb(50.195312%, 50.195312%, 50.195312%)" fill-opacity="1" d="M 14.691406 111.605469 L 15.449219 111.605469 L 15.449219 112.410156 L 14.691406 112.410156 Z M 14.691406 111.605469 "/>
<path fill-rule="nonzero" fill="rgb(50.195312%, 50.195312%, 50.195312%)" fill-opacity="1" d="M 19.925781 109.699219 C 19.914062 108.535156 19.652344 106.847656 18.179688 106.847656 C 16.707031 106.847656 16.457031 108.558594 16.457031 109.699219 C 16.457031 110.851562 16.71875 112.523438 18.179688 112.523438 C 19.640625 112.523438 19.925781 110.851562 19.925781 109.699219 Z M 19.355469 109.699219 C 19.355469 110.453125 19.292969 112.003906 18.179688 112.003906 C 17.066406 112.003906 17.027344 110.429688 17.027344 109.699219 C 17.027344 108.953125 17.050781 107.355469 18.179688 107.355469 C 19.292969 107.355469 19.355469 108.96875 19.355469 109.699219 Z M 19.355469 109.699219 "/>
<path fill-rule="nonzero" fill="rgb(50.195312%, 50.195312%, 50.195312%)" fill-opacity="1" d="M 140.851562 118.046875 L 140.851562 117.476562 L 138.398438 117.476562 L 140.269531 115.371094 C 140.578125 114.9375 140.8125 114.601562 140.8125 114.03125 C 140.8125 113.015625 140.070312 112.484375 139.128906 112.484375 C 138.597656 112.484375 138.148438 112.644531 137.703125 112.832031 L 137.703125 113.539062 C 138.148438 113.253906 138.597656 113.042969 139.140625 113.042969 C 139.761719 113.042969 140.242188 113.425781 140.242188 114.070312 C 140.242188 114.503906 139.898438 115.035156 139.613281 115.332031 C 139.523438 115.457031 137.804688 117.339844 137.667969 117.476562 L 137.667969 118.046875 Z M 140.851562 118.046875 "/>
<path fill-rule="nonzero" fill="rgb(50.195312%, 50.195312%, 50.195312%)" fill-opacity="1" d="M 141.761719 117.242188 L 142.515625 117.242188 L 142.515625 118.046875 L 141.761719 118.046875 Z M 141.761719 117.242188 "/>
<path fill-rule="nonzero" fill="rgb(50.195312%, 50.195312%, 50.195312%)" fill-opacity="1" d="M 146.996094 115.332031 C 146.984375 114.167969 146.722656 112.484375 145.25 112.484375 C 143.773438 112.484375 143.527344 114.195312 143.527344 115.332031 C 143.527344 116.484375 143.785156 118.15625 145.25 118.15625 C 146.710938 118.15625 146.996094 116.484375 146.996094 115.332031 Z M 146.425781 115.332031 C 146.425781 116.089844 146.363281 117.636719 145.25 117.636719 C 144.132812 117.636719 144.097656 116.0625 144.097656 115.332031 C 144.097656 114.589844 144.121094 112.992188 145.25 112.992188 C 146.363281 112.992188 146.425781 114.601562 146.425781 115.332031 Z M 146.425781 115.332031 "/>
<path fill-rule="nonzero" fill="rgb(50.195312%, 50.195312%, 50.195312%)" fill-opacity="1" d="M 272.203125 117.882812 L 272.203125 117.3125 L 269.75 117.3125 L 271.621094 115.207031 C 271.929688 114.773438 272.167969 114.4375 272.167969 113.867188 C 272.167969 112.851562 271.421875 112.320312 270.480469 112.320312 C 269.949219 112.320312 269.503906 112.480469 269.058594 112.667969 L 269.058594 113.375 C 269.503906 113.089844 269.949219 112.878906 270.496094 112.878906 C 271.113281 112.878906 271.597656 113.261719 271.597656 113.90625 C 271.597656 114.339844 271.25 114.871094 270.964844 115.167969 C 270.878906 115.292969 269.15625 117.175781 269.019531 117.3125 L 269.019531 117.882812 Z M 272.203125 117.882812 "/>
<path fill-rule="nonzero" fill="rgb(50.195312%, 50.195312%, 50.195312%)" fill-opacity="1" d="M 273.113281 117.078125 L 273.871094 117.078125 L 273.871094 117.882812 L 273.113281 117.882812 Z M 273.113281 117.078125 "/>
<path fill-rule="nonzero" fill="rgb(50.195312%, 50.195312%, 50.195312%)" fill-opacity="1" d="M 278.347656 115.167969 C 278.335938 114.003906 278.074219 112.320312 276.601562 112.320312 C 275.128906 112.320312 274.878906 114.03125 274.878906 115.167969 C 274.878906 116.320312 275.140625 117.992188 276.601562 117.992188 C 278.0625 117.992188 278.347656 116.320312 278.347656 115.167969 Z M 277.777344 115.167969 C 277.777344 115.925781 277.71875 117.472656 276.601562 117.472656 C 275.488281 117.472656 275.449219 115.898438 275.449219 115.167969 C 275.449219 114.425781 275.476562 112.828125 276.601562 112.828125 C 277.71875 112.828125 277.777344 114.4375 277.777344 115.167969 Z M 277.777344 115.167969 "/>
<path fill-rule="nonzero" fill="rgb(50.195312%, 50.195312%, 50.195312%)" fill-opacity="1" d="M 402.183594 117.882812 L 402.183594 117.3125 L 399.730469 117.3125 L 401.601562 115.207031 C 401.910156 114.773438 402.144531 114.4375 402.144531 113.867188 C 402.144531 112.851562 401.402344 112.320312 400.460938 112.320312 C 399.929688 112.320312 399.480469 112.480469 399.035156 112.667969 L 399.035156 113.375 C 399.480469 113.089844 399.929688 112.878906 400.472656 112.878906 C 401.09375 112.878906 401.574219 113.261719 401.574219 113.90625 C 401.574219 114.339844 401.230469 114.871094 400.945312 115.167969 C 400.855469 115.292969 399.136719 117.175781 399 117.3125 L 399 117.882812 Z M 402.183594 117.882812 "/>
<path fill-rule="nonzero" fill="rgb(50.195312%, 50.195312%, 50.195312%)" fill-opacity="1" d="M 403.09375 117.078125 L 403.847656 117.078125 L 403.847656 117.882812 L 403.09375 117.882812 Z M 403.09375 117.078125 "/>
<g clip-path="url(#clip-4)">
<path fill-rule="nonzero" fill="rgb(50.195312%, 50.195312%, 50.195312%)" fill-opacity="1" d="M 408.328125 115.167969 C 408.316406 114.003906 408.054688 112.320312 406.582031 112.320312 C 405.105469 112.320312 404.859375 114.03125 404.859375 115.167969 C 404.859375 116.320312 405.117188 117.992188 406.582031 117.992188 C 408.042969 117.992188 408.328125 116.320312 408.328125 115.167969 Z M 407.757812 115.167969 C 407.757812 115.925781 407.695312 117.472656 406.582031 117.472656 C 405.464844 117.472656 405.429688 115.898438 405.429688 115.167969 C 405.429688 114.425781 405.453125 112.828125 406.582031 112.828125 C 407.695312 112.828125 407.757812 114.4375 407.757812 115.167969 Z M 407.757812 115.167969 "/>
</g>
<path fill-rule="nonzero" fill="rgb(0%, 0%, 0%)" fill-opacity="1" d="M 7.382812 5.839844 C 7.382812 4.550781 6.453125 3.660156 5.285156 3.660156 C 4.472656 3.660156 3.898438 3.859375 3.304688 4.195312 L 3.382812 5.027344 C 4.035156 4.570312 4.671875 4.414062 5.285156 4.414062 C 5.878906 4.414062 6.390625 4.910156 6.390625 5.839844 L 6.390625 6.394531 C 4.492188 6.414062 2.890625 6.945312 2.890625 8.054688 C 2.890625 8.589844 3.226562 9.621094 4.332031 9.621094 C 4.511719 9.621094 5.699219 9.597656 6.429688 9.027344 L 6.429688 9.480469 L 7.382812 9.480469 Z M 6.390625 7.816406 C 6.390625 8.054688 6.390625 8.371094 5.957031 8.609375 C 5.601562 8.828125 5.105469 8.847656 4.96875 8.847656 C 4.375 8.847656 3.800781 8.550781 3.800781 8.035156 C 3.800781 7.144531 5.835938 7.066406 6.390625 7.027344 Z M 6.390625 7.816406 "/>
<path fill-rule="nonzero" fill="rgb(0%, 0%, 0%)" fill-opacity="1" d="M 9.882812 12.648438 C 10.28125 12.25 11.132812 11.480469 11.703125 9.9375 C 12.21875 8.589844 12.296875 7.242188 12.296875 6.3125 C 12.296875 2.238281 10.476562 0.574219 9.882812 0 L 9.113281 0 C 9.707031 0.613281 11.308594 2.238281 11.308594 6.3125 C 11.308594 7.027344 11.269531 8.511719 10.753906 9.996094 C 10.242188 11.460938 9.527344 12.210938 9.113281 12.648438 Z M 9.882812 12.648438 "/>
<path fill-rule="nonzero" fill="rgb(0%, 0%, 0%)" fill-opacity="1" d="M 145.796875 0.710938 L 144.847656 0.710938 L 144.847656 9.480469 L 145.835938 9.480469 L 145.835938 8.90625 C 146.132812 9.183594 146.6875 9.621094 147.539062 9.621094 C 148.785156 9.621094 149.875 8.351562 149.875 6.671875 C 149.875 5.105469 149.023438 3.742188 147.835938 3.742188 C 147.34375 3.742188 146.550781 3.859375 145.796875 4.472656 Z M 145.835938 5.246094 C 146.035156 4.949219 146.492188 4.511719 147.183594 4.511719 C 147.9375 4.511719 148.886719 5.046875 148.886719 6.671875 C 148.886719 8.3125 147.835938 8.847656 147.066406 8.847656 C 146.570312 8.847656 146.152344 8.628906 145.835938 8.035156 Z M 145.835938 5.246094 "/>
<path fill-rule="nonzero" fill="rgb(0%, 0%, 0%)" fill-opacity="1" d="M 151.824219 12.648438 C 152.21875 12.25 153.070312 11.480469 153.644531 9.9375 C 154.160156 8.589844 154.238281 7.242188 154.238281 6.3125 C 154.238281 2.238281 152.417969 0.574219 151.824219 0 L 151.050781 0 C 151.644531 0.613281 153.25 2.238281 153.25 6.3125 C 153.25 7.027344 153.210938 8.511719 152.695312 9.996094 C 152.179688 11.460938 151.46875 12.210938 151.050781 12.648438 Z M 151.824219 12.648438 "/>
<path fill-rule="nonzero" fill="rgb(0%, 0%, 0%)" fill-opacity="1" d="M 280.296875 4.195312 C 279.542969 3.78125 279.109375 3.660156 278.335938 3.660156 C 276.59375 3.660156 275.566406 5.1875 275.566406 6.671875 C 275.566406 8.234375 276.714844 9.621094 278.296875 9.621094 C 278.96875 9.621094 279.664062 9.441406 280.355469 8.964844 L 280.277344 8.132812 C 279.621094 8.628906 278.949219 8.808594 278.296875 8.808594 C 277.246094 8.808594 276.554688 7.898438 276.554688 6.671875 C 276.554688 5.679688 277.011719 4.472656 278.355469 4.472656 C 279.007812 4.472656 279.445312 4.570312 280.136719 5.027344 Z M 280.296875 4.195312 "/>
<path fill-rule="nonzero" fill="rgb(0%, 0%, 0%)" fill-opacity="1" d="M 282.203125 12.648438 C 282.597656 12.25 283.449219 11.480469 284.023438 9.9375 C 284.539062 8.589844 284.617188 7.242188 284.617188 6.3125 C 284.617188 2.238281 282.796875 0.574219 282.203125 0 L 281.429688 0 C 282.023438 0.613281 283.628906 2.238281 283.628906 6.3125 C 283.628906 7.027344 283.585938 8.511719 283.074219 9.996094 C 282.558594 11.460938 281.847656 12.210938 281.429688 12.648438 Z M 282.203125 12.648438 "/>
</svg>
