<?xml version="1.0" encoding="UTF-8"?>
<svg xmlns="http://www.w3.org/2000/svg" xmlns:xlink="http://www.w3.org/1999/xlink" width="187.251907pt" height="79.283012pt" viewBox="0 0 187.251907 79.283012">
<defs>
<clipPath id="clip-0">
<path clip-rule="nonzero" d="M 159 23 L 187.25 23 L 187.25 56 L 159 56 Z M 159 23 "/>
</clipPath>
<clipPath id="clip-1">
<path clip-rule="nonzero" d="M 77 51 L 110 51 L 110 79.28125 L 77 79.28125 Z M 77 51 "/>
</clipPath>
</defs>
<path fill="none" stroke-width="0.850394" stroke-linecap="butt" stroke-linejoin="miter" stroke="rgb(0%, 0%, 0%)" stroke-opacity="1" stroke-miterlimit="4" d="M 22.773438 24.339844 L 81.460938 13.242188 "/>
<path fill-rule="evenodd" fill="rgb(0%, 0%, 0%)" fill-opacity="1" stroke-width="0.445649" stroke-linecap="butt" stroke-linejoin="miter" stroke="rgb(0%, 0%, 0%)" stroke-opacity="1" stroke-miterlimit="4" d="M -72.88887 -27.655005 L -71.217254 -29.327259 L -77.068352 -27.656095 L -71.220388 -25.984102 Z M -72.88887 -27.655005 " transform="matrix(-1, 0.189055, -0.189055, -1, 0, 0)"/>
<path fill="none" stroke-width="0.850394" stroke-linecap="butt" stroke-linejoin="miter" stroke="rgb(0%, 0%, 0%)" stroke-opacity="1" stroke-miterlimit="4" d="M 21.332031 31.359375 L 82.332031 62.179688 "/>
<path fill-rule="evenodd" fill="rgb(0%, 0%, 0%)" fill-opacity="1" stroke-width="0.404802" stroke-linecap="butt" stroke-linejoin="miter" stroke="rgb(0%, 0%, 0%)" stroke-opacity="1" stroke-miterlimit="4" d="M -87.579475 -16.391936 L -86.060975 -17.909212 L -91.373022 -16.393082 L -86.062199 -14.873437 Z M -87.579475 -16.391936 " transform="matrix(-1, -0.505285, 0.505285, -1, 0, 0)"/>
<path fill="none" stroke-width="0.850394" stroke-linecap="butt" stroke-linejoin="miter" stroke="rgb(0%, 0%, 0%)" stroke-opacity="1" stroke-miterlimit="4" d="M 22.785156 27.730469 L 80.644531 37.734375 "/>
<path fill-rule="evenodd" fill="rgb(0%, 0%, 0%)" fill-opacity="1" stroke-width="0.44691" stroke-linecap="butt" stroke-linejoin="miter" stroke="rgb(0%, 0%, 0%)" stroke-opacity="1" stroke-miterlimit="4" d="M -81.287584 -23.098538 L -79.608201 -24.771779 L -85.474828 -23.09706 L -79.610549 -21.419811 Z M -81.287584 -23.098538 " transform="matrix(-1, -0.172938, 0.172938, -1, 0, 0)"/>
<path fill="none" stroke-width="0.850394" stroke-linecap="butt" stroke-linejoin="miter" stroke="rgb(0%, 0%, 0%)" stroke-opacity="1" stroke-miterlimit="4" d="M 164.179688 34.851562 L 104.109375 14.519531 "/>
<path fill-rule="evenodd" fill="rgb(0%, 0%, 0%)" fill-opacity="1" stroke-width="0.429606" stroke-linecap="butt" stroke-linejoin="miter" stroke="rgb(0%, 0%, 0%)" stroke-opacity="1" stroke-miterlimit="4" d="M -154.666359 18.587315 L -153.055528 16.975741 L -158.693785 18.587072 L -153.054785 20.198146 Z M -154.666359 18.587315 " transform="matrix(-1, -0.338439, 0.338439, -1, 0, 0)"/>
<path fill="none" stroke-width="0.850394" stroke-linecap="butt" stroke-linejoin="miter" stroke="rgb(0%, 0%, 0%)" stroke-opacity="1" stroke-miterlimit="4" d="M 163.3125 43.761719 L 104.875 65.871094 "/>
<path fill-rule="evenodd" fill="rgb(0%, 0%, 0%)" fill-opacity="1" stroke-width="0.424199" stroke-linecap="butt" stroke-linejoin="miter" stroke="rgb(0%, 0%, 0%)" stroke-opacity="1" stroke-miterlimit="4" d="M -125.200087 -92.332544 L -123.608987 -93.925886 L -129.176461 -92.333043 L -123.606745 -90.741444 Z M -125.200087 -92.332544 " transform="matrix(-1, 0.378336, -0.378336, -1, 0, 0)"/>
<path fill="none" stroke-width="0.850394" stroke-linecap="butt" stroke-linejoin="miter" stroke="rgb(0%, 0%, 0%)" stroke-opacity="1" stroke-miterlimit="4" d="M 162.703125 39.488281 L 105.105469 39.410156 "/>
<path fill-rule="evenodd" fill="rgb(0%, 0%, 0%)" fill-opacity="1" stroke-width="0.453543" stroke-linecap="butt" stroke-linejoin="miter" stroke="rgb(0%, 0%, 0%)" stroke-opacity="1" stroke-miterlimit="4" d="M -159.354096 -39.26409 L -157.653281 -40.965618 L -163.604099 -39.266131 L -157.652568 -37.563275 Z M -159.354096 -39.26409 " transform="matrix(-1, -0.00135785, 0.00135785, -1, 0, 0)"/>
<path fill-rule="nonzero" fill="rgb(0%, 0%, 0%)" fill-opacity="1" d="M 178.285156 36.65625 C 178.339844 36.496094 178.339844 36.480469 178.339844 36.390625 C 178.339844 36.195312 178.175781 36.085938 178 36.085938 C 177.890625 36.085938 177.714844 36.160156 177.609375 36.320312 C 177.589844 36.390625 177.484375 36.730469 177.445312 36.941406 C 177.359375 37.226562 177.285156 37.546875 177.214844 37.851562 L 176.699219 39.898438 C 176.664062 40.058594 176.164062 40.863281 175.417969 40.863281 C 174.847656 40.863281 174.722656 40.363281 174.722656 39.933594 C 174.722656 39.417969 174.917969 38.707031 175.292969 37.707031 C 175.46875 37.246094 175.523438 37.121094 175.523438 36.890625 C 175.523438 36.390625 175.167969 35.960938 174.597656 35.960938 C 173.511719 35.960938 173.101562 37.621094 173.101562 37.707031 C 173.101562 37.832031 173.207031 37.832031 173.226562 37.832031 C 173.351562 37.832031 173.351562 37.796875 173.402344 37.621094 C 173.722656 36.550781 174.167969 36.210938 174.5625 36.210938 C 174.648438 36.210938 174.847656 36.210938 174.847656 36.570312 C 174.847656 36.851562 174.722656 37.15625 174.648438 37.371094 C 174.1875 38.582031 173.992188 39.222656 173.992188 39.757812 C 173.992188 40.773438 174.703125 41.109375 175.378906 41.109375 C 175.824219 41.109375 176.199219 40.914062 176.519531 40.59375 C 176.378906 41.183594 176.234375 41.753906 175.789062 42.359375 C 175.488281 42.730469 175.058594 43.070312 174.542969 43.070312 C 174.382812 43.070312 173.867188 43.035156 173.671875 42.589844 C 173.847656 42.589844 174.007812 42.589844 174.152344 42.445312 C 174.277344 42.359375 174.382812 42.199219 174.382812 41.984375 C 174.382812 41.628906 174.082031 41.59375 173.972656 41.59375 C 173.707031 41.59375 173.332031 41.769531 173.332031 42.324219 C 173.332031 42.894531 173.832031 43.320312 174.542969 43.320312 C 175.703125 43.320312 176.878906 42.285156 177.199219 41.003906 Z M 178.285156 36.65625 "/>
<g clip-path="url(#clip-0)">
<path fill="none" stroke-width="0.850394" stroke-linecap="butt" stroke-linejoin="miter" stroke="rgb(0%, 0%, 0%)" stroke-opacity="1" stroke-miterlimit="4" d="M 186.828125 39.640625 C 186.828125 45.777344 181.855469 50.75 175.71875 50.75 C 169.585938 50.75 164.613281 45.777344 164.613281 39.640625 C 164.613281 33.507812 169.585938 28.535156 175.71875 28.535156 C 181.855469 28.535156 186.828125 33.507812 186.828125 39.640625 Z M 186.828125 39.640625 "/>
</g>
<path fill-rule="nonzero" fill="rgb(0%, 0%, 0%)" fill-opacity="1" d="M 91.261719 62.996094 C 91.261719 62.996094 91.261719 62.871094 91.121094 62.871094 C 90.851562 62.871094 90.03125 62.960938 89.730469 62.996094 C 89.640625 62.996094 89.515625 63.015625 89.515625 63.210938 C 89.515625 63.355469 89.625 63.355469 89.785156 63.355469 C 90.335938 63.355469 90.355469 63.425781 90.355469 63.550781 L 90.316406 63.78125 L 88.679688 70.320312 C 88.625 70.480469 88.625 70.496094 88.625 70.570312 C 88.625 70.835938 88.855469 70.890625 88.964844 70.890625 C 89.140625 70.890625 89.320312 70.746094 89.375 70.585938 L 89.585938 69.730469 L 89.835938 68.714844 C 89.910156 68.449219 89.980469 68.199219 90.03125 67.949219 C 90.050781 67.878906 90.15625 67.503906 90.15625 67.433594 C 90.195312 67.328125 90.550781 66.703125 90.941406 66.382812 C 91.191406 66.203125 91.53125 65.988281 92.027344 65.988281 C 92.507812 65.988281 92.632812 66.382812 92.632812 66.792969 C 92.632812 67.398438 92.207031 68.644531 91.9375 69.339844 C 91.851562 69.589844 91.777344 69.730469 91.777344 69.960938 C 91.777344 70.496094 92.1875 70.890625 92.722656 70.890625 C 93.792969 70.890625 94.203125 69.230469 94.203125 69.144531 C 94.203125 69.019531 94.113281 69.019531 94.078125 69.019531 C 93.953125 69.019531 93.953125 69.054688 93.898438 69.230469 C 93.738281 69.839844 93.363281 70.640625 92.742188 70.640625 C 92.546875 70.640625 92.472656 70.53125 92.472656 70.265625 C 92.472656 69.980469 92.5625 69.714844 92.667969 69.464844 C 92.847656 68.964844 93.363281 67.609375 93.363281 66.953125 C 93.363281 66.222656 92.917969 65.742188 92.0625 65.742188 C 91.351562 65.742188 90.800781 66.097656 90.371094 66.613281 Z M 91.261719 62.996094 "/>
<path fill-rule="nonzero" fill="rgb(0%, 0%, 0%)" fill-opacity="1" d="M 96.71875 69.8125 C 97.34375 69.8125 97.789062 70.242188 97.789062 71.097656 C 97.789062 72.074219 97.199219 72.378906 96.753906 72.378906 C 96.433594 72.378906 95.722656 72.289062 95.402344 71.808594 C 95.777344 71.808594 95.863281 71.542969 95.863281 71.363281 C 95.863281 71.113281 95.667969 70.9375 95.417969 70.9375 C 95.207031 70.9375 94.972656 71.078125 94.972656 71.398438 C 94.972656 72.148438 95.792969 72.628906 96.753906 72.628906 C 97.859375 72.628906 98.625 71.878906 98.625 71.097656 C 98.625 70.472656 98.128906 69.847656 97.253906 69.671875 C 98.074219 69.367188 98.375 68.78125 98.375 68.28125 C 98.375 67.65625 97.664062 67.195312 96.773438 67.195312 C 95.902344 67.195312 95.222656 67.621094 95.222656 68.261719 C 95.222656 68.53125 95.402344 68.671875 95.632812 68.671875 C 95.882812 68.671875 96.042969 68.496094 96.042969 68.28125 C 96.042969 68.050781 95.882812 67.871094 95.632812 67.855469 C 95.917969 67.515625 96.453125 67.425781 96.753906 67.425781 C 97.113281 67.425781 97.609375 67.605469 97.609375 68.28125 C 97.609375 68.621094 97.503906 68.992188 97.289062 69.226562 C 97.039062 69.527344 96.808594 69.546875 96.417969 69.582031 C 96.222656 69.597656 96.203125 69.597656 96.167969 69.597656 C 96.148438 69.597656 96.078125 69.617188 96.078125 69.707031 C 96.078125 69.8125 96.148438 69.8125 96.292969 69.8125 Z M 96.71875 69.8125 "/>
<path fill-rule="nonzero" fill="rgb(0%, 0%, 0%)" fill-opacity="1" d="M 91.421875 6.859375 C 91.421875 6.859375 91.421875 6.734375 91.28125 6.734375 C 91.011719 6.734375 90.195312 6.824219 89.890625 6.859375 C 89.800781 6.859375 89.675781 6.878906 89.675781 7.074219 C 89.675781 7.214844 89.785156 7.214844 89.945312 7.214844 C 90.496094 7.214844 90.515625 7.289062 90.515625 7.410156 L 90.476562 7.644531 L 88.839844 14.179688 C 88.785156 14.34375 88.785156 14.359375 88.785156 14.429688 C 88.785156 14.699219 89.019531 14.75 89.125 14.75 C 89.300781 14.75 89.480469 14.609375 89.535156 14.449219 L 89.75 13.59375 L 89.996094 12.578125 C 90.070312 12.3125 90.140625 12.0625 90.195312 11.8125 C 90.210938 11.742188 90.316406 11.367188 90.316406 11.296875 C 90.355469 11.1875 90.710938 10.566406 91.101562 10.246094 C 91.351562 10.066406 91.691406 9.851562 92.1875 9.851562 C 92.667969 9.851562 92.792969 10.246094 92.792969 10.65625 C 92.792969 11.261719 92.367188 12.507812 92.097656 13.203125 C 92.011719 13.453125 91.9375 13.59375 91.9375 13.824219 C 91.9375 14.359375 92.347656 14.75 92.882812 14.75 C 93.953125 14.75 94.363281 13.09375 94.363281 13.003906 C 94.363281 12.882812 94.273438 12.882812 94.238281 12.882812 C 94.113281 12.882812 94.113281 12.917969 94.058594 13.09375 C 93.898438 13.699219 93.523438 14.503906 92.902344 14.503906 C 92.707031 14.503906 92.632812 14.394531 92.632812 14.128906 C 92.632812 13.84375 92.722656 13.574219 92.828125 13.328125 C 93.007812 12.828125 93.523438 11.472656 93.523438 10.816406 C 93.523438 10.085938 93.078125 9.601562 92.222656 9.601562 C 91.511719 9.601562 90.960938 9.960938 90.53125 10.476562 Z M 91.421875 6.859375 "/>
<path fill-rule="nonzero" fill="rgb(0%, 0%, 0%)" fill-opacity="1" d="M 97.359375 11.269531 C 97.359375 11.058594 97.359375 11.058594 97.128906 11.058594 C 96.613281 11.554688 95.902344 11.554688 95.578125 11.554688 L 95.578125 11.839844 C 95.757812 11.839844 96.292969 11.839844 96.71875 11.628906 L 96.71875 15.671875 C 96.71875 15.9375 96.71875 16.046875 95.9375 16.046875 L 95.632812 16.046875 L 95.632812 16.332031 C 95.777344 16.332031 96.753906 16.292969 97.039062 16.292969 C 97.289062 16.292969 98.289062 16.332031 98.464844 16.332031 L 98.464844 16.046875 L 98.164062 16.046875 C 97.359375 16.046875 97.359375 15.9375 97.359375 15.671875 Z M 97.359375 11.269531 "/>
<path fill-rule="nonzero" fill="rgb(0%, 0%, 0%)" fill-opacity="1" d="M 91.296875 34.96875 C 91.296875 34.96875 91.296875 34.84375 91.15625 34.84375 C 90.886719 34.84375 90.070312 34.933594 89.765625 34.96875 C 89.675781 34.96875 89.550781 34.988281 89.550781 35.183594 C 89.550781 35.324219 89.660156 35.324219 89.820312 35.324219 C 90.371094 35.324219 90.390625 35.394531 90.390625 35.519531 L 90.355469 35.753906 L 88.714844 42.289062 C 88.660156 42.449219 88.660156 42.46875 88.660156 42.539062 C 88.660156 42.808594 88.894531 42.859375 89 42.859375 C 89.179688 42.859375 89.355469 42.71875 89.410156 42.558594 L 89.625 41.703125 L 89.871094 40.6875 C 89.945312 40.417969 90.015625 40.171875 90.070312 39.921875 C 90.085938 39.851562 90.195312 39.476562 90.195312 39.40625 C 90.230469 39.296875 90.585938 38.675781 90.976562 38.351562 C 91.226562 38.175781 91.566406 37.960938 92.0625 37.960938 C 92.546875 37.960938 92.667969 38.351562 92.667969 38.761719 C 92.667969 39.367188 92.242188 40.617188 91.976562 41.3125 C 91.886719 41.558594 91.816406 41.703125 91.816406 41.933594 C 91.816406 42.46875 92.222656 42.859375 92.757812 42.859375 C 93.828125 42.859375 94.238281 41.203125 94.238281 41.113281 C 94.238281 40.988281 94.148438 40.988281 94.113281 40.988281 C 93.988281 40.988281 93.988281 41.027344 93.933594 41.203125 C 93.773438 41.808594 93.398438 42.609375 92.777344 42.609375 C 92.582031 42.609375 92.507812 42.503906 92.507812 42.238281 C 92.507812 41.953125 92.597656 41.683594 92.707031 41.433594 C 92.882812 40.9375 93.398438 39.582031 93.398438 38.921875 C 93.398438 38.191406 92.953125 37.710938 92.097656 37.710938 C 91.386719 37.710938 90.835938 38.070312 90.40625 38.585938 Z M 91.296875 34.96875 "/>
<path fill-rule="nonzero" fill="rgb(0%, 0%, 0%)" fill-opacity="1" d="M 98.589844 42.996094 L 98.324219 42.996094 C 98.304688 43.175781 98.214844 43.636719 98.109375 43.707031 C 98.054688 43.761719 97.449219 43.761719 97.324219 43.761719 L 95.863281 43.761719 C 96.703125 43.03125 96.988281 42.800781 97.449219 42.425781 C 98.039062 41.964844 98.589844 41.464844 98.589844 40.714844 C 98.589844 39.753906 97.753906 39.167969 96.738281 39.167969 C 95.757812 39.167969 95.082031 39.859375 95.082031 40.589844 C 95.082031 40.984375 95.417969 41.035156 95.507812 41.035156 C 95.6875 41.035156 95.917969 40.894531 95.917969 40.609375 C 95.917969 40.464844 95.863281 40.179688 95.457031 40.179688 C 95.703125 39.628906 96.238281 39.449219 96.613281 39.449219 C 97.414062 39.449219 97.824219 40.074219 97.824219 40.714844 C 97.824219 41.410156 97.324219 41.945312 97.078125 42.230469 L 95.171875 44.136719 C 95.082031 44.207031 95.082031 44.226562 95.082031 44.4375 L 98.359375 44.4375 Z M 98.589844 42.996094 "/>
<path fill="none" stroke-width="0.850394" stroke-linecap="butt" stroke-linejoin="miter" stroke="rgb(0%, 0%, 0%)" stroke-opacity="1" stroke-miterlimit="4" d="M 104.734375 11.53125 C 104.734375 17.667969 99.761719 22.640625 93.625 22.640625 C 87.492188 22.640625 82.519531 17.667969 82.519531 11.53125 C 82.519531 5.398438 87.492188 0.425781 93.625 0.425781 C 99.761719 0.425781 104.734375 5.398438 104.734375 11.53125 Z M 104.734375 11.53125 "/>
<path fill="none" stroke-width="0.850394" stroke-linecap="butt" stroke-linejoin="miter" stroke="rgb(0%, 0%, 0%)" stroke-opacity="1" stroke-miterlimit="4" d="M 104.734375 39.640625 C 104.734375 45.777344 99.761719 50.75 93.625 50.75 C 87.492188 50.75 82.519531 45.777344 82.519531 39.640625 C 82.519531 33.507812 87.492188 28.535156 93.625 28.535156 C 99.761719 28.535156 104.734375 33.507812 104.734375 39.640625 Z M 104.734375 39.640625 "/>
<g clip-path="url(#clip-1)">
<path fill="none" stroke-width="0.850394" stroke-linecap="butt" stroke-linejoin="miter" stroke="rgb(0%, 0%, 0%)" stroke-opacity="1" stroke-miterlimit="4" d="M 104.734375 67.75 C 104.734375 73.886719 99.761719 78.859375 93.625 78.859375 C 87.492188 78.859375 82.519531 73.886719 82.519531 67.75 C 82.519531 61.617188 87.492188 56.644531 93.625 56.644531 C 99.761719 56.644531 104.734375 61.617188 104.734375 67.75 Z M 104.734375 67.75 "/>
</g>
<path fill="none" stroke-width="0.850394" stroke-linecap="butt" stroke-linejoin="miter" stroke="rgb(0%, 0%, 0%)" stroke-opacity="1" stroke-miterlimit="4" d="M 104.734375 39.640625 C 104.734375 45.777344 99.761719 50.75 93.625 50.75 C 87.492188 50.75 82.519531 45.777344 82.519531 39.640625 C 82.519531 33.507812 87.492188 28.535156 93.625 28.535156 C 99.761719 28.535156 104.734375 33.507812 104.734375 39.640625 Z M 104.734375 39.640625 "/>
<path fill="none" stroke-width="0.850394" stroke-linecap="butt" stroke-linejoin="miter" stroke="rgb(0%, 0%, 0%)" stroke-opacity="1" stroke-miterlimit="4" d="M 22.640625 25.585938 C 22.640625 31.722656 17.667969 36.695312 11.53125 36.695312 C 5.398438 36.695312 0.425781 31.722656 0.425781 25.585938 C 0.425781 19.453125 5.398438 14.480469 11.53125 14.480469 C 17.667969 14.480469 22.640625 19.453125 22.640625 25.585938 Z M 22.640625 25.585938 "/>
<path fill="none" stroke-width="0.850394" stroke-linecap="butt" stroke-linejoin="miter" stroke="rgb(0%, 0%, 0%)" stroke-opacity="1" stroke-miterlimit="4" d="M 22.640625 53.695312 C 22.640625 59.832031 17.667969 64.804688 11.53125 64.804688 C 5.398438 64.804688 0.425781 59.832031 0.425781 53.695312 C 0.425781 47.5625 5.398438 42.589844 11.53125 42.589844 C 17.667969 42.589844 22.640625 47.5625 22.640625 53.695312 Z M 22.640625 53.695312 "/>
<path fill-rule="nonzero" fill="rgb(0%, 0%, 0%)" fill-opacity="1" d="M 9.90625 51.917969 C 9.980469 51.632812 10.246094 50.582031 11.03125 50.582031 C 11.082031 50.582031 11.367188 50.582031 11.601562 50.722656 C 11.28125 50.796875 11.066406 51.0625 11.066406 51.347656 C 11.066406 51.527344 11.191406 51.738281 11.492188 51.738281 C 11.742188 51.738281 12.097656 51.542969 12.097656 51.082031 C 12.097656 50.492188 11.441406 50.332031 11.046875 50.332031 C 10.390625 50.332031 9.996094 50.9375 9.855469 51.1875 C 9.570312 50.4375 8.964844 50.332031 8.625 50.332031 C 7.449219 50.332031 6.789062 51.792969 6.789062 52.078125 C 6.789062 52.203125 6.914062 52.203125 6.933594 52.203125 C 7.023438 52.203125 7.058594 52.167969 7.074219 52.078125 C 7.46875 50.867188 8.214844 50.582031 8.605469 50.582031 C 8.820312 50.582031 9.214844 50.6875 9.214844 51.347656 C 9.214844 51.703125 9.015625 52.453125 8.605469 54.054688 C 8.429688 54.75 8.019531 55.230469 7.519531 55.230469 C 7.449219 55.230469 7.199219 55.230469 6.949219 55.089844 C 7.234375 55.019531 7.484375 54.785156 7.484375 54.464844 C 7.484375 54.164062 7.234375 54.074219 7.074219 54.074219 C 6.71875 54.074219 6.453125 54.359375 6.453125 54.734375 C 6.453125 55.25 7.003906 55.480469 7.503906 55.480469 C 8.269531 55.480469 8.679688 54.679688 8.695312 54.625 C 8.839844 55.035156 9.25 55.480469 9.925781 55.480469 C 11.101562 55.480469 11.742188 54.019531 11.742188 53.734375 C 11.742188 53.609375 11.652344 53.609375 11.617188 53.609375 C 11.511719 53.609375 11.492188 53.664062 11.457031 53.734375 C 11.082031 54.964844 10.316406 55.230469 9.960938 55.230469 C 9.515625 55.230469 9.335938 54.875 9.335938 54.484375 C 9.335938 54.234375 9.390625 53.984375 9.515625 53.484375 Z M 9.90625 51.917969 "/>
<path fill-rule="nonzero" fill="rgb(0%, 0%, 0%)" fill-opacity="1" d="M 16.613281 55.617188 L 16.347656 55.617188 C 16.328125 55.792969 16.238281 56.257812 16.132812 56.328125 C 16.078125 56.382812 15.472656 56.382812 15.347656 56.382812 L 13.886719 56.382812 C 14.726562 55.652344 15.011719 55.421875 15.472656 55.046875 C 16.0625 54.582031 16.613281 54.085938 16.613281 53.335938 C 16.613281 52.375 15.777344 51.785156 14.761719 51.785156 C 13.78125 51.785156 13.105469 52.480469 13.105469 53.210938 C 13.105469 53.601562 13.441406 53.65625 13.53125 53.65625 C 13.710938 53.65625 13.941406 53.515625 13.941406 53.230469 C 13.941406 53.085938 13.886719 52.800781 13.476562 52.800781 C 13.726562 52.25 14.261719 52.070312 14.636719 52.070312 C 15.4375 52.070312 15.847656 52.695312 15.847656 53.335938 C 15.847656 54.03125 15.347656 54.566406 15.097656 54.851562 L 13.191406 56.757812 C 13.105469 56.828125 13.105469 56.84375 13.105469 57.058594 L 16.382812 57.058594 Z M 16.613281 55.617188 "/>
<path fill-rule="nonzero" fill="rgb(0%, 0%, 0%)" fill-opacity="1" d="M 10.03125 23.808594 C 10.105469 23.523438 10.371094 22.472656 11.15625 22.472656 C 11.207031 22.472656 11.492188 22.472656 11.726562 22.617188 C 11.402344 22.6875 11.191406 22.953125 11.191406 23.238281 C 11.191406 23.417969 11.316406 23.632812 11.617188 23.632812 C 11.867188 23.632812 12.222656 23.433594 12.222656 22.972656 C 12.222656 22.382812 11.566406 22.222656 11.171875 22.222656 C 10.511719 22.222656 10.121094 22.828125 9.980469 23.078125 C 9.695312 22.332031 9.089844 22.222656 8.75 22.222656 C 7.574219 22.222656 6.914062 23.683594 6.914062 23.96875 C 6.914062 24.09375 7.039062 24.09375 7.058594 24.09375 C 7.148438 24.09375 7.183594 24.058594 7.199219 23.96875 C 7.59375 22.757812 8.339844 22.472656 8.730469 22.472656 C 8.945312 22.472656 9.335938 22.578125 9.335938 23.238281 C 9.335938 23.59375 9.140625 24.34375 8.730469 25.945312 C 8.554688 26.640625 8.144531 27.121094 7.644531 27.121094 C 7.574219 27.121094 7.324219 27.121094 7.074219 26.980469 C 7.359375 26.910156 7.609375 26.675781 7.609375 26.355469 C 7.609375 26.054688 7.359375 25.964844 7.199219 25.964844 C 6.84375 25.964844 6.578125 26.25 6.578125 26.625 C 6.578125 27.140625 7.128906 27.371094 7.628906 27.371094 C 8.394531 27.371094 8.804688 26.570312 8.820312 26.515625 C 8.964844 26.925781 9.375 27.371094 10.050781 27.371094 C 11.226562 27.371094 11.867188 25.910156 11.867188 25.625 C 11.867188 25.5 11.777344 25.5 11.742188 25.5 C 11.636719 25.5 11.617188 25.554688 11.582031 25.625 C 11.207031 26.855469 10.441406 27.121094 10.085938 27.121094 C 9.640625 27.121094 9.460938 26.765625 9.460938 26.375 C 9.460938 26.125 9.515625 25.875 9.640625 25.375 Z M 10.03125 23.808594 "/>
<path fill-rule="nonzero" fill="rgb(0%, 0%, 0%)" fill-opacity="1" d="M 15.382812 23.890625 C 15.382812 23.675781 15.382812 23.675781 15.152344 23.675781 C 14.636719 24.175781 13.921875 24.175781 13.601562 24.175781 L 13.601562 24.460938 C 13.78125 24.460938 14.316406 24.460938 14.742188 24.246094 L 14.742188 28.292969 C 14.742188 28.558594 14.742188 28.664062 13.960938 28.664062 L 13.65625 28.664062 L 13.65625 28.949219 C 13.800781 28.949219 14.777344 28.914062 15.0625 28.914062 C 15.3125 28.914062 16.3125 28.949219 16.488281 28.949219 L 16.488281 28.664062 L 16.1875 28.664062 C 15.382812 28.664062 15.382812 28.558594 15.382812 28.292969 Z M 15.382812 23.890625 "/>
<path fill="none" stroke-width="0.850394" stroke-linecap="butt" stroke-linejoin="miter" stroke="rgb(0%, 0%, 0%)" stroke-opacity="1" stroke-miterlimit="4" d="M 22.773438 55.28125 L 81.460938 66.375 "/>
<path fill-rule="evenodd" fill="rgb(0%, 0%, 0%)" fill-opacity="1" stroke-width="0.445649" stroke-linecap="butt" stroke-linejoin="miter" stroke="rgb(0%, 0%, 0%)" stroke-opacity="1" stroke-miterlimit="4" d="M -87.421476 -49.21472 L -85.752994 -50.885624 L -91.601671 -49.217402 L -85.750573 -47.546238 Z M -87.421476 -49.21472 " transform="matrix(-1, -0.189055, 0.189055, -1, 0, 0)"/>
<path fill="none" stroke-width="0.850394" stroke-linecap="butt" stroke-linejoin="miter" stroke="rgb(0%, 0%, 0%)" stroke-opacity="1" stroke-miterlimit="4" d="M 21.332031 48.261719 L 82.480469 17.589844 "/>
<path fill-rule="evenodd" fill="rgb(0%, 0%, 0%)" fill-opacity="1" stroke-width="0.405396" stroke-linecap="butt" stroke-linejoin="miter" stroke="rgb(0%, 0%, 0%)" stroke-opacity="1" stroke-miterlimit="4" d="M -55.809694 -47.109377 L -54.289951 -48.628271 L -59.610333 -47.109661 L -54.287679 -45.588069 Z M -55.809694 -47.109377 " transform="matrix(-1, 0.501635, -0.501635, -1, 0, 0)"/>
<path fill="none" stroke-width="0.850394" stroke-linecap="butt" stroke-linejoin="miter" stroke="rgb(0%, 0%, 0%)" stroke-opacity="1" stroke-miterlimit="4" d="M 22.785156 51.890625 L 80.941406 41.292969 "/>
<path fill-rule="evenodd" fill="rgb(0%, 0%, 0%)" fill-opacity="1" stroke-width="0.446193" stroke-linecap="butt" stroke-linejoin="miter" stroke="rgb(0%, 0%, 0%)" stroke-opacity="1" stroke-miterlimit="4" d="M -67.707732 -54.242484 L -66.03584 -55.914334 L -71.89119 -54.243226 L -66.032101 -52.569903 Z M -67.707732 -54.242484 " transform="matrix(-1, 0.182256, -0.182256, -1, 0, 0)"/>
</svg>
