<?xml version="1.0" encoding="UTF-8"?>
<svg xmlns="http://www.w3.org/2000/svg" xmlns:xlink="http://www.w3.org/1999/xlink" width="189.319977pt" height="139.377426pt" viewBox="0 0 189.319977 139.377426">
<defs>
<clipPath id="clip-0">
<path clip-rule="nonzero" d="M 0 0 L 189.320312 0 L 189.320312 139 L 0 139 Z M 0 0 "/>
</clipPath>
</defs>
<g clip-path="url(#clip-0)">
<path fill="none" stroke-width="0.446501" stroke-linecap="butt" stroke-linejoin="miter" stroke="rgb(100%, 100%, 100%)" stroke-opacity="1" stroke-miterlimit="4" d="M 0.222656 0.542969 L 189.097656 0.542969 L 189.097656 138.449219 L 0.222656 138.449219 Z M 0.222656 0.542969 "/>
</g>
<path fill="none" stroke-width="0.566929" stroke-linecap="butt" stroke-linejoin="miter" stroke="rgb(77.645874%, 80.39093%, 81.175232%)" stroke-opacity="1" stroke-miterlimit="4" d="M 47.441406 59.585938 L 161.695312 59.585938 "/>
<path fill="none" stroke-width="0.566929" stroke-linecap="butt" stroke-linejoin="miter" stroke="rgb(77.645874%, 80.39093%, 81.175232%)" stroke-opacity="1" stroke-miterlimit="4" d="M 104.976562 2.460938 L 104.976562 116.714844 "/>
<path fill="none" stroke-width="0.850394" stroke-linecap="butt" stroke-linejoin="miter" stroke="rgb(50.195312%, 50.195312%, 50.195312%)" stroke-opacity="1" stroke-miterlimit="4" d="M 47.980469 116.734375 L 47.980469 118.546875 "/>
<path fill="none" stroke-width="0.850394" stroke-linecap="butt" stroke-linejoin="miter" stroke="rgb(50.195312%, 50.195312%, 50.195312%)" stroke-opacity="1" stroke-miterlimit="4" d="M 104.949219 116.734375 L 104.949219 118.546875 "/>
<path fill="none" stroke-width="0.850394" stroke-linecap="butt" stroke-linejoin="miter" stroke="rgb(50.195312%, 50.195312%, 50.195312%)" stroke-opacity="1" stroke-miterlimit="4" d="M 161.917969 116.734375 L 161.917969 118.546875 "/>
<path fill="none" stroke-width="0.850394" stroke-linecap="butt" stroke-linejoin="miter" stroke="rgb(50.195312%, 50.195312%, 50.195312%)" stroke-opacity="1" stroke-miterlimit="4" d="M 59.375 117.972656 L 59.375 116.734375 "/>
<path fill="none" stroke-width="0.850394" stroke-linecap="butt" stroke-linejoin="miter" stroke="rgb(50.195312%, 50.195312%, 50.195312%)" stroke-opacity="1" stroke-miterlimit="4" d="M 70.765625 117.972656 L 70.765625 116.734375 "/>
<path fill="none" stroke-width="0.850394" stroke-linecap="butt" stroke-linejoin="miter" stroke="rgb(50.195312%, 50.195312%, 50.195312%)" stroke-opacity="1" stroke-miterlimit="4" d="M 82.160156 117.972656 L 82.160156 116.734375 "/>
<path fill="none" stroke-width="0.850394" stroke-linecap="butt" stroke-linejoin="miter" stroke="rgb(50.195312%, 50.195312%, 50.195312%)" stroke-opacity="1" stroke-miterlimit="4" d="M 93.554688 117.972656 L 93.554688 116.734375 "/>
<path fill="none" stroke-width="0.850394" stroke-linecap="butt" stroke-linejoin="miter" stroke="rgb(50.195312%, 50.195312%, 50.195312%)" stroke-opacity="1" stroke-miterlimit="4" d="M 116.34375 117.972656 L 116.34375 116.734375 "/>
<path fill="none" stroke-width="0.850394" stroke-linecap="butt" stroke-linejoin="miter" stroke="rgb(50.195312%, 50.195312%, 50.195312%)" stroke-opacity="1" stroke-miterlimit="4" d="M 127.738281 117.972656 L 127.738281 116.734375 "/>
<path fill="none" stroke-width="0.850394" stroke-linecap="butt" stroke-linejoin="miter" stroke="rgb(50.195312%, 50.195312%, 50.195312%)" stroke-opacity="1" stroke-miterlimit="4" d="M 139.128906 117.972656 L 139.128906 116.734375 "/>
<path fill="none" stroke-width="0.850394" stroke-linecap="butt" stroke-linejoin="miter" stroke="rgb(50.195312%, 50.195312%, 50.195312%)" stroke-opacity="1" stroke-miterlimit="4" d="M 150.523438 117.972656 L 150.523438 116.734375 "/>
<path fill="none" stroke-width="0.850394" stroke-linecap="butt" stroke-linejoin="miter" stroke="rgb(50.195312%, 50.195312%, 50.195312%)" stroke-opacity="1" stroke-miterlimit="4" d="M 48.066406 2.796875 L 46.25 2.796875 "/>
<path fill="none" stroke-width="0.850394" stroke-linecap="butt" stroke-linejoin="miter" stroke="rgb(50.195312%, 50.195312%, 50.195312%)" stroke-opacity="1" stroke-miterlimit="4" d="M 48.066406 59.765625 L 46.25 59.765625 "/>
<path fill="none" stroke-width="0.850394" stroke-linecap="butt" stroke-linejoin="miter" stroke="rgb(50.195312%, 50.195312%, 50.195312%)" stroke-opacity="1" stroke-miterlimit="4" d="M 47.980469 116.734375 L 46.167969 116.734375 "/>
<path fill="none" stroke-width="0.850394" stroke-linecap="butt" stroke-linejoin="miter" stroke="rgb(50.195312%, 50.195312%, 50.195312%)" stroke-opacity="1" stroke-miterlimit="4" d="M 48.066406 14.1875 L 46.828125 14.1875 "/>
<path fill="none" stroke-width="0.850394" stroke-linecap="butt" stroke-linejoin="miter" stroke="rgb(50.195312%, 50.195312%, 50.195312%)" stroke-opacity="1" stroke-miterlimit="4" d="M 48.066406 25.582031 L 46.828125 25.582031 "/>
<path fill="none" stroke-width="0.850394" stroke-linecap="butt" stroke-linejoin="miter" stroke="rgb(50.195312%, 50.195312%, 50.195312%)" stroke-opacity="1" stroke-miterlimit="4" d="M 48.066406 36.976562 L 46.828125 36.976562 "/>
<path fill="none" stroke-width="0.850394" stroke-linecap="butt" stroke-linejoin="miter" stroke="rgb(50.195312%, 50.195312%, 50.195312%)" stroke-opacity="1" stroke-miterlimit="4" d="M 48.066406 48.371094 L 46.828125 48.371094 "/>
<path fill="none" stroke-width="0.850394" stroke-linecap="butt" stroke-linejoin="miter" stroke="rgb(50.195312%, 50.195312%, 50.195312%)" stroke-opacity="1" stroke-miterlimit="4" d="M 48.066406 71.160156 L 46.828125 71.160156 "/>
<path fill="none" stroke-width="0.850394" stroke-linecap="butt" stroke-linejoin="miter" stroke="rgb(50.195312%, 50.195312%, 50.195312%)" stroke-opacity="1" stroke-miterlimit="4" d="M 48.066406 82.550781 L 46.828125 82.550781 "/>
<path fill="none" stroke-width="0.850394" stroke-linecap="butt" stroke-linejoin="miter" stroke="rgb(50.195312%, 50.195312%, 50.195312%)" stroke-opacity="1" stroke-miterlimit="4" d="M 48.066406 93.945312 L 46.828125 93.945312 "/>
<path fill="none" stroke-width="0.850394" stroke-linecap="butt" stroke-linejoin="miter" stroke="rgb(50.195312%, 50.195312%, 50.195312%)" stroke-opacity="1" stroke-miterlimit="4" d="M 48.066406 105.339844 L 46.828125 105.339844 "/>
<path fill="none" stroke-width="1.984252" stroke-linecap="butt" stroke-linejoin="miter" stroke="rgb(81.959534%, 51.371765%, 38.430786%)" stroke-opacity="1" stroke-miterlimit="4" d="M 48.273438 59.65625 L 104.550781 59.824219 L 161.445312 3.1875 "/>
<path fill-rule="nonzero" fill="rgb(0%, 0%, 0%)" fill-opacity="1" d="M 30.828125 70.839844 C 29.929688 71.628906 27.851562 71.789062 27.148438 72.933594 C 26.816406 71.699219 26.183594 71.488281 25.265625 71.488281 C 23.71875 71.488281 23.066406 72.386719 23.066406 73.863281 L 23.066406 76.046875 L 30.828125 76.046875 L 30.828125 75.203125 L 27.5 75.203125 L 27.5 73.96875 C 27.5 73.460938 27.941406 73.019531 28.820312 72.597656 C 29.507812 72.332031 30.335938 72.261719 30.828125 71.71875 Z M 25.265625 72.316406 C 26.253906 72.316406 26.726562 72.914062 26.726562 73.863281 L 26.726562 75.203125 L 23.839844 75.203125 L 23.839844 73.863281 C 23.859375 72.933594 24.230469 72.316406 25.265625 72.316406 Z M 25.265625 72.316406 "/>
<path fill-rule="nonzero" fill="rgb(0%, 0%, 0%)" fill-opacity="1" d="M 28.292969 65.753906 L 28.207031 65.753906 C 26.746094 65.753906 25.671875 66.351562 25.636719 68.023438 C 25.636719 69.519531 26.9375 70.363281 28.347656 70.363281 C 29.878906 70.363281 30.96875 69.433594 30.96875 67.882812 C 30.96875 67.179688 30.808594 66.546875 30.582031 65.929688 L 29.734375 65.929688 C 30.125 66.738281 30.210938 66.863281 30.210938 67.8125 C 30.210938 68.867188 29.578125 69.503906 28.382812 69.503906 L 28.292969 69.503906 Z M 27.605469 66.582031 L 27.605469 69.46875 C 26.9375 69.359375 26.359375 68.867188 26.359375 68.023438 C 26.359375 67.144531 26.902344 66.582031 27.605469 66.582031 Z M 27.605469 66.582031 "/>
<path fill-rule="nonzero" fill="rgb(0%, 0%, 0%)" fill-opacity="1" d="M 30.828125 60.082031 L 30.019531 60.082031 L 30.019531 63.671875 L 23.066406 63.671875 L 23.066406 64.535156 L 30.828125 64.535156 Z M 30.828125 60.082031 "/>
<path fill-rule="nonzero" fill="rgb(0%, 0%, 0%)" fill-opacity="1" d="M 27.921875 54.4375 L 23.066406 54.4375 L 23.066406 55.265625 L 27.800781 55.265625 C 29.226562 55.265625 30.230469 55.601562 30.230469 57.132812 C 30.230469 58.695312 29.261719 59.050781 27.800781 59.050781 L 23.066406 59.050781 L 23.066406 59.894531 L 27.921875 59.894531 C 29.804688 59.894531 30.984375 59.066406 30.984375 57.132812 C 30.984375 55.214844 29.769531 54.4375 27.921875 54.4375 Z M 27.921875 54.4375 "/>
<path fill-rule="nonzero" fill="rgb(0%, 0%, 0%)" fill-opacity="1" d="M 33.640625 50.863281 L 33.183594 50.863281 L 33.183594 51.953125 L 22.855469 51.953125 L 22.855469 50.863281 L 22.398438 50.863281 L 22.398438 52.410156 L 33.640625 52.410156 Z M 33.640625 50.863281 "/>
<path fill-rule="nonzero" fill="rgb(0%, 0%, 0%)" fill-opacity="1" d="M 29.894531 49.117188 C 29.242188 48.519531 28.960938 48.1875 28.609375 47.78125 C 28.609375 47.78125 28.011719 47.09375 27.605469 46.691406 C 26.570312 45.617188 26.023438 45.371094 25.96875 45.371094 C 25.863281 45.371094 25.863281 45.476562 25.863281 45.492188 C 25.863281 45.582031 25.882812 45.597656 25.988281 45.667969 C 26.535156 46.003906 26.710938 46.234375 26.710938 46.496094 C 26.710938 46.777344 26.535156 46.902344 26.339844 47.078125 C 26.09375 47.289062 25.863281 47.480469 25.863281 47.851562 C 25.863281 48.695312 26.902344 49.207031 27.148438 49.207031 C 27.203125 49.207031 27.273438 49.171875 27.273438 49.082031 C 27.273438 48.976562 27.21875 48.960938 27.148438 48.925781 C 26.621094 48.714844 26.621094 48.0625 26.621094 47.976562 C 26.621094 47.746094 26.691406 47.535156 26.78125 47.269531 C 26.957031 46.8125 26.957031 46.691406 26.957031 46.410156 C 27.429688 46.8125 28.242188 47.746094 28.417969 47.957031 L 29.367188 48.976562 C 30.125 49.734375 30.757812 50.140625 30.84375 50.140625 C 30.949219 50.140625 30.949219 50.015625 30.949219 50 C 30.949219 49.910156 30.933594 49.894531 30.808594 49.824219 C 30.40625 49.558594 30.105469 49.222656 30.105469 48.855469 C 30.105469 48.609375 30.210938 48.484375 30.527344 48.203125 C 30.773438 48.027344 30.949219 47.816406 30.949219 47.5 C 30.949219 46.375 29.523438 45.722656 29.226562 45.722656 C 29.171875 45.722656 29.101562 45.773438 29.101562 45.863281 C 29.101562 45.96875 29.171875 45.988281 29.261719 46.023438 C 29.984375 46.285156 30.195312 47.007812 30.195312 47.375 C 30.195312 47.585938 30.125 47.796875 30.054688 48.027344 C 29.914062 48.414062 29.859375 48.589844 29.859375 48.820312 C 29.859375 48.835938 29.859375 49.011719 29.894531 49.117188 Z M 29.894531 49.117188 "/>
<path fill-rule="nonzero" fill="rgb(0%, 0%, 0%)" fill-opacity="1" d="M 22.398438 43.125 L 22.398438 44.65625 L 22.855469 44.65625 L 22.855469 43.566406 L 33.183594 43.566406 L 33.183594 44.65625 L 33.640625 44.65625 L 33.640625 43.125 Z M 22.398438 43.125 "/>
<path fill-rule="nonzero" fill="rgb(0%, 0%, 0%)" fill-opacity="1" d="M 103.613281 135.628906 C 104.210938 134.976562 104.546875 134.695312 104.949219 134.34375 C 104.949219 134.34375 105.636719 133.746094 106.042969 133.34375 C 107.113281 132.304688 107.359375 131.757812 107.359375 131.707031 C 107.359375 131.601562 107.253906 131.601562 107.238281 131.601562 C 107.148438 131.601562 107.132812 131.617188 107.0625 131.722656 C 106.726562 132.269531 106.5 132.445312 106.234375 132.445312 C 105.953125 132.445312 105.832031 132.269531 105.652344 132.074219 C 105.441406 131.828125 105.25 131.601562 104.878906 131.601562 C 104.035156 131.601562 103.523438 132.636719 103.523438 132.882812 C 103.523438 132.9375 103.558594 133.007812 103.648438 133.007812 C 103.753906 133.007812 103.769531 132.953125 103.804688 132.882812 C 104.019531 132.355469 104.667969 132.355469 104.757812 132.355469 C 104.984375 132.355469 105.195312 132.425781 105.460938 132.515625 C 105.917969 132.691406 106.042969 132.691406 106.324219 132.691406 C 105.917969 133.164062 104.984375 133.976562 104.773438 134.152344 L 103.753906 135.101562 C 102.996094 135.859375 102.59375 136.492188 102.59375 136.578125 C 102.59375 136.683594 102.714844 136.683594 102.734375 136.683594 C 102.820312 136.683594 102.839844 136.667969 102.910156 136.542969 C 103.171875 136.140625 103.507812 135.839844 103.875 135.839844 C 104.125 135.839844 104.246094 135.945312 104.527344 136.261719 C 104.703125 136.507812 104.914062 136.683594 105.230469 136.683594 C 106.359375 136.683594 107.007812 135.261719 107.007812 134.960938 C 107.007812 134.90625 106.957031 134.835938 106.867188 134.835938 C 106.761719 134.835938 106.746094 134.90625 106.710938 134.996094 C 106.445312 135.71875 105.722656 135.929688 105.355469 135.929688 C 105.144531 135.929688 104.933594 135.859375 104.703125 135.789062 C 104.316406 135.648438 104.140625 135.59375 103.914062 135.59375 C 103.894531 135.59375 103.71875 135.59375 103.613281 135.628906 Z M 103.613281 135.628906 "/>
<path fill="none" stroke-width="0.850394" stroke-linecap="butt" stroke-linejoin="miter" stroke="rgb(1.176453%, 0%, 0%)" stroke-opacity="1" stroke-miterlimit="4" d="M 47.980469 2.796875 L 161.917969 2.796875 L 161.917969 116.734375 L 47.980469 116.734375 Z M 47.980469 2.796875 "/>
<path fill-rule="nonzero" fill="rgb(50.195312%, 50.195312%, 50.195312%)" fill-opacity="1" d="M 103.707031 123.050781 C 103.707031 122.433594 103.671875 121.6875 103.335938 121.058594 C 103.015625 120.460938 102.46875 120.265625 102.074219 120.265625 C 101.601562 120.265625 101.042969 120.488281 100.722656 121.179688 C 100.460938 121.761719 100.425781 122.417969 100.425781 123.050781 C 100.425781 123.671875 100.449219 124.253906 100.683594 124.835938 C 101.007812 125.589844 101.601562 125.800781 102.058594 125.800781 C 102.628906 125.800781 103.136719 125.480469 103.386719 124.933594 C 103.621094 124.414062 103.707031 123.894531 103.707031 123.050781 Z M 102.074219 125.316406 C 101.652344 125.316406 101.328125 125.019531 101.167969 124.449219 C 101.042969 124.003906 101.042969 123.570312 101.042969 122.953125 C 101.042969 122.457031 101.042969 121.984375 101.167969 121.550781 C 101.21875 121.402344 101.417969 120.746094 102.058594 120.746094 C 102.679688 120.746094 102.878906 121.355469 102.941406 121.492188 C 103.089844 121.9375 103.089844 122.46875 103.089844 122.953125 C 103.089844 123.472656 103.089844 123.980469 102.941406 124.476562 C 102.742188 125.195312 102.320312 125.316406 102.074219 125.316406 Z M 102.074219 125.316406 "/>
<path fill-rule="nonzero" fill="rgb(50.195312%, 50.195312%, 50.195312%)" fill-opacity="1" d="M 104.808594 124.972656 L 105.464844 124.972656 L 105.464844 125.628906 L 104.808594 125.628906 Z M 104.808594 124.972656 "/>
<path fill-rule="nonzero" fill="rgb(50.195312%, 50.195312%, 50.195312%)" fill-opacity="1" d="M 109.851562 123.050781 C 109.851562 122.433594 109.8125 121.6875 109.480469 121.058594 C 109.15625 120.460938 108.613281 120.265625 108.214844 120.265625 C 107.746094 120.265625 107.1875 120.488281 106.867188 121.179688 C 106.605469 121.761719 106.566406 122.417969 106.566406 123.050781 C 106.566406 123.671875 106.59375 124.253906 106.828125 124.835938 C 107.148438 125.589844 107.746094 125.800781 108.203125 125.800781 C 108.773438 125.800781 109.28125 125.480469 109.527344 124.933594 C 109.761719 124.414062 109.851562 123.894531 109.851562 123.050781 Z M 108.214844 125.316406 C 107.792969 125.316406 107.472656 125.019531 107.3125 124.449219 C 107.1875 124.003906 107.1875 123.570312 107.1875 122.953125 C 107.1875 122.457031 107.1875 121.984375 107.3125 121.550781 C 107.359375 121.402344 107.558594 120.746094 108.203125 120.746094 C 108.824219 120.746094 109.019531 121.355469 109.082031 121.492188 C 109.230469 121.9375 109.230469 122.46875 109.230469 122.953125 C 109.230469 123.472656 109.230469 123.980469 109.082031 124.476562 C 108.882812 125.195312 108.464844 125.316406 108.214844 125.316406 Z M 108.214844 125.316406 "/>
<path fill-rule="nonzero" fill="rgb(50.195312%, 50.195312%, 50.195312%)" fill-opacity="1" d="M 38.503906 59.78125 C 38.503906 59.164062 38.46875 58.421875 38.132812 57.789062 C 37.8125 57.195312 37.265625 56.996094 36.871094 56.996094 C 36.398438 56.996094 35.84375 57.21875 35.519531 57.914062 C 35.261719 58.496094 35.222656 59.152344 35.222656 59.78125 C 35.222656 60.402344 35.25 60.984375 35.484375 61.566406 C 35.804688 62.320312 36.398438 62.53125 36.859375 62.53125 C 37.429688 62.53125 37.9375 62.210938 38.183594 61.664062 C 38.417969 61.144531 38.503906 60.625 38.503906 59.78125 Z M 36.871094 62.050781 C 36.449219 62.050781 36.128906 61.753906 35.964844 61.183594 C 35.84375 60.738281 35.84375 60.304688 35.84375 59.683594 C 35.84375 59.1875 35.84375 58.71875 35.964844 58.285156 C 36.015625 58.136719 36.214844 57.480469 36.859375 57.480469 C 37.476562 57.480469 37.675781 58.085938 37.738281 58.222656 C 37.886719 58.667969 37.886719 59.199219 37.886719 59.683594 C 37.886719 60.203125 37.886719 60.710938 37.738281 61.207031 C 37.539062 61.925781 37.117188 62.050781 36.871094 62.050781 Z M 36.871094 62.050781 "/>
<path fill-rule="nonzero" fill="rgb(50.195312%, 50.195312%, 50.195312%)" fill-opacity="1" d="M 39.605469 61.703125 L 40.261719 61.703125 L 40.261719 62.359375 L 39.605469 62.359375 Z M 39.605469 61.703125 "/>
<path fill-rule="nonzero" fill="rgb(50.195312%, 50.195312%, 50.195312%)" fill-opacity="1" d="M 44.648438 59.78125 C 44.648438 59.164062 44.609375 58.421875 44.277344 57.789062 C 43.953125 57.195312 43.410156 56.996094 43.011719 56.996094 C 42.542969 56.996094 41.984375 57.21875 41.664062 57.914062 C 41.402344 58.496094 41.367188 59.152344 41.367188 59.78125 C 41.367188 60.402344 41.390625 60.984375 41.625 61.566406 C 41.949219 62.320312 42.542969 62.53125 43 62.53125 C 43.570312 62.53125 44.078125 62.210938 44.328125 61.664062 C 44.5625 61.144531 44.648438 60.625 44.648438 59.78125 Z M 43.011719 62.050781 C 42.59375 62.050781 42.269531 61.753906 42.109375 61.183594 C 41.984375 60.738281 41.984375 60.304688 41.984375 59.683594 C 41.984375 59.1875 41.984375 58.71875 42.109375 58.285156 C 42.160156 58.136719 42.355469 57.480469 43 57.480469 C 43.621094 57.480469 43.820312 58.085938 43.878906 58.222656 C 44.027344 58.667969 44.027344 59.199219 44.027344 59.683594 C 44.027344 60.203125 44.027344 60.710938 43.878906 61.207031 C 43.683594 61.925781 43.261719 62.050781 43.011719 62.050781 Z M 43.011719 62.050781 "/>
<path fill-rule="nonzero" fill="rgb(50.195312%, 50.195312%, 50.195312%)" fill-opacity="1" d="M 160.921875 123.957031 C 160.910156 122.839844 160.214844 122.109375 159.101562 122.109375 C 158.953125 122.121094 158.617188 122.160156 158.421875 122.234375 L 158.617188 120.796875 L 160.550781 120.796875 L 160.550781 120.226562 L 158.222656 120.226562 L 157.886719 122.925781 C 158.320312 122.71875 158.421875 122.667969 158.976562 122.667969 C 159.78125 122.667969 160.351562 123.113281 160.351562 123.957031 C 160.351562 124.824219 159.796875 125.242188 158.976562 125.242188 C 158.433594 125.242188 158.074219 125.132812 157.675781 124.882812 L 157.675781 125.566406 C 158.035156 125.703125 158.570312 125.800781 158.988281 125.800781 C 160.167969 125.800781 160.921875 125.15625 160.921875 123.957031 Z M 160.921875 123.957031 "/>
<path fill-rule="nonzero" fill="rgb(50.195312%, 50.195312%, 50.195312%)" fill-opacity="1" d="M 161.816406 124.882812 L 162.574219 124.882812 L 162.574219 125.691406 L 161.816406 125.691406 Z M 161.816406 124.882812 "/>
<path fill-rule="nonzero" fill="rgb(50.195312%, 50.195312%, 50.195312%)" fill-opacity="1" d="M 167.050781 122.976562 C 167.039062 121.8125 166.78125 120.128906 165.304688 120.128906 C 163.832031 120.128906 163.585938 121.835938 163.585938 122.976562 C 163.585938 124.128906 163.84375 125.800781 165.304688 125.800781 C 166.765625 125.800781 167.050781 124.128906 167.050781 122.976562 Z M 166.484375 122.976562 C 166.484375 123.734375 166.421875 125.28125 165.304688 125.28125 C 164.191406 125.28125 164.152344 123.707031 164.152344 122.976562 C 164.152344 122.234375 164.179688 120.636719 165.304688 120.636719 C 166.421875 120.636719 166.484375 122.246094 166.484375 122.976562 Z M 166.484375 122.976562 "/>
<path fill-rule="nonzero" fill="rgb(50.195312%, 50.195312%, 50.195312%)" fill-opacity="1" d="M 41.484375 123.644531 L 43.28125 123.644531 L 43.28125 124.167969 L 41.484375 124.167969 Z M 41.484375 123.644531 "/>
<path fill-rule="nonzero" fill="rgb(50.195312%, 50.195312%, 50.195312%)" fill-opacity="1" d="M 47.371094 123.957031 C 47.359375 122.839844 46.667969 122.109375 45.550781 122.109375 C 45.402344 122.121094 45.070312 122.160156 44.871094 122.234375 L 45.070312 120.796875 L 47 120.796875 L 47 120.226562 L 44.671875 120.226562 L 44.339844 122.925781 C 44.773438 122.71875 44.871094 122.667969 45.429688 122.667969 C 46.234375 122.667969 46.804688 123.113281 46.804688 123.957031 C 46.804688 124.824219 46.246094 125.242188 45.429688 125.242188 C 44.882812 125.242188 44.523438 125.132812 44.128906 124.882812 L 44.128906 125.566406 C 44.488281 125.703125 45.019531 125.800781 45.441406 125.800781 C 46.617188 125.800781 47.371094 125.15625 47.371094 123.957031 Z M 47.371094 123.957031 "/>
<path fill-rule="nonzero" fill="rgb(50.195312%, 50.195312%, 50.195312%)" fill-opacity="1" d="M 48.269531 124.882812 L 49.023438 124.882812 L 49.023438 125.691406 L 48.269531 125.691406 Z M 48.269531 124.882812 "/>
<path fill-rule="nonzero" fill="rgb(50.195312%, 50.195312%, 50.195312%)" fill-opacity="1" d="M 53.503906 122.976562 C 53.492188 121.8125 53.230469 120.128906 51.757812 120.128906 C 50.28125 120.128906 50.035156 121.835938 50.035156 122.976562 C 50.035156 124.128906 50.292969 125.800781 51.757812 125.800781 C 53.21875 125.800781 53.503906 124.128906 53.503906 122.976562 Z M 52.933594 122.976562 C 52.933594 123.734375 52.871094 125.28125 51.757812 125.28125 C 50.640625 125.28125 50.605469 123.707031 50.605469 122.976562 C 50.605469 122.234375 50.628906 120.636719 51.757812 120.636719 C 52.871094 120.636719 52.933594 122.246094 52.933594 122.976562 Z M 52.933594 122.976562 "/>
<path fill-rule="nonzero" fill="rgb(50.195312%, 50.195312%, 50.195312%)" fill-opacity="1" d="M 32.628906 114.734375 L 34.425781 114.734375 L 34.425781 115.253906 L 32.628906 115.253906 Z M 32.628906 114.734375 "/>
<path fill-rule="nonzero" fill="rgb(50.195312%, 50.195312%, 50.195312%)" fill-opacity="1" d="M 38.519531 115.042969 C 38.507812 113.929688 37.8125 113.199219 36.699219 113.199219 C 36.550781 113.210938 36.214844 113.246094 36.015625 113.320312 L 36.214844 111.882812 L 38.148438 111.882812 L 38.148438 111.316406 L 35.816406 111.316406 L 35.484375 114.015625 C 35.917969 113.804688 36.015625 113.753906 36.574219 113.753906 C 37.378906 113.753906 37.949219 114.199219 37.949219 115.042969 C 37.949219 115.910156 37.390625 116.332031 36.574219 116.332031 C 36.027344 116.332031 35.667969 116.21875 35.273438 115.972656 L 35.273438 116.652344 C 35.632812 116.789062 36.164062 116.886719 36.585938 116.886719 C 37.761719 116.886719 38.519531 116.246094 38.519531 115.042969 Z M 38.519531 115.042969 "/>
<path fill-rule="nonzero" fill="rgb(50.195312%, 50.195312%, 50.195312%)" fill-opacity="1" d="M 39.414062 115.972656 L 40.171875 115.972656 L 40.171875 116.777344 L 39.414062 116.777344 Z M 39.414062 115.972656 "/>
<path fill-rule="nonzero" fill="rgb(50.195312%, 50.195312%, 50.195312%)" fill-opacity="1" d="M 44.648438 114.0625 C 44.636719 112.898438 44.375 111.214844 42.902344 111.214844 C 41.429688 111.214844 41.179688 112.925781 41.179688 114.0625 C 41.179688 115.214844 41.441406 116.886719 42.902344 116.886719 C 44.363281 116.886719 44.648438 115.214844 44.648438 114.0625 Z M 44.078125 114.0625 C 44.078125 114.820312 44.015625 116.367188 42.902344 116.367188 C 41.789062 116.367188 41.75 114.796875 41.75 114.0625 C 41.75 113.320312 41.773438 111.722656 42.902344 111.722656 C 44.015625 111.722656 44.078125 113.332031 44.078125 114.0625 Z M 44.078125 114.0625 "/>
<path fill-rule="nonzero" fill="rgb(50.195312%, 50.195312%, 50.195312%)" fill-opacity="1" d="M 38.519531 3.847656 C 38.507812 2.734375 37.8125 2.003906 36.699219 2.003906 C 36.550781 2.015625 36.214844 2.050781 36.015625 2.125 L 36.214844 0.6875 L 38.148438 0.6875 L 38.148438 0.121094 L 35.816406 0.121094 L 35.484375 2.820312 C 35.917969 2.609375 36.015625 2.558594 36.574219 2.558594 C 37.378906 2.558594 37.949219 3.003906 37.949219 3.847656 C 37.949219 4.714844 37.390625 5.136719 36.574219 5.136719 C 36.027344 5.136719 35.667969 5.023438 35.273438 4.777344 L 35.273438 5.457031 C 35.632812 5.59375 36.164062 5.691406 36.585938 5.691406 C 37.761719 5.691406 38.519531 5.050781 38.519531 3.847656 Z M 38.519531 3.847656 "/>
<path fill-rule="nonzero" fill="rgb(50.195312%, 50.195312%, 50.195312%)" fill-opacity="1" d="M 39.414062 4.777344 L 40.171875 4.777344 L 40.171875 5.582031 L 39.414062 5.582031 Z M 39.414062 4.777344 "/>
<path fill-rule="nonzero" fill="rgb(50.195312%, 50.195312%, 50.195312%)" fill-opacity="1" d="M 44.648438 2.871094 C 44.636719 1.703125 44.375 0.0195312 42.902344 0.0195312 C 41.429688 0.0195312 41.179688 1.730469 41.179688 2.871094 C 41.179688 4.019531 41.441406 5.691406 42.902344 5.691406 C 44.363281 5.691406 44.648438 4.019531 44.648438 2.871094 Z M 44.078125 2.871094 C 44.078125 3.625 44.015625 5.171875 42.902344 5.171875 C 41.789062 5.171875 41.75 3.601562 41.75 2.871094 C 41.75 2.125 41.773438 0.527344 42.902344 0.527344 C 44.015625 0.527344 44.078125 2.136719 44.078125 2.871094 Z M 44.078125 2.871094 "/>
</svg>
