<?xml version="1.0" encoding="UTF-8"?>
<svg xmlns="http://www.w3.org/2000/svg" xmlns:xlink="http://www.w3.org/1999/xlink" width="428.001312pt" height="125.26577pt" viewBox="0 0 428.001312 125.26577">
<defs>
<clipPath id="clip-0">
<path clip-rule="nonzero" d="M 148 117 L 154 117 L 154 125.265625 L 148 125.265625 Z M 148 117 "/>
</clipPath>
</defs>
<path fill="none" stroke-width="0.850394" stroke-linecap="butt" stroke-linejoin="miter" stroke="rgb(0%, 0%, 0%)" stroke-opacity="1" stroke-miterlimit="4" d="M 132.507812 59.292969 L 190.773438 27.460938 "/>
<path fill-rule="evenodd" fill="rgb(0%, 0%, 0%)" fill-opacity="1" stroke-width="0.398015" stroke-linecap="butt" stroke-linejoin="miter" stroke="rgb(0%, 0%, 0%)" stroke-opacity="1" stroke-miterlimit="4" d="M -132.378806 -101.413681 L -130.887025 -102.907255 L -136.112686 -101.414586 L -130.885232 -99.9219 Z M -132.378806 -101.413681 " transform="matrix(-1, 0.54634, -0.54634, -1, 0, 0)"/>
<path fill="none" stroke-width="0.850394" stroke-linecap="butt" stroke-linejoin="miter" stroke="rgb(0%, 0%, 0%)" stroke-opacity="1" stroke-miterlimit="4" d="M 132.082031 68.246094 L 191.074219 99.496094 "/>
<path fill-rule="evenodd" fill="rgb(0%, 0%, 0%)" fill-opacity="1" stroke-width="0.400784" stroke-linecap="butt" stroke-linejoin="miter" stroke="rgb(0%, 0%, 0%)" stroke-opacity="1" stroke-miterlimit="4" d="M -187.355759 1.341529 L -185.85465 -0.160683 L -191.112604 1.343357 L -185.851931 2.845689 Z M -187.355759 1.341529 " transform="matrix(-1, -0.529729, 0.529729, -1, 0, 0)"/>
<path fill="none" stroke-width="0.850394" stroke-linecap="butt" stroke-linejoin="miter" stroke="rgb(0%, 0%, 0%)" stroke-opacity="1" stroke-miterlimit="4" d="M 133.296875 65.464844 L 189.636719 75.984375 "/>
<path fill-rule="evenodd" fill="rgb(0%, 0%, 0%)" fill-opacity="1" stroke-width="0.445843" stroke-linecap="butt" stroke-linejoin="miter" stroke="rgb(0%, 0%, 0%)" stroke-opacity="1" stroke-miterlimit="4" d="M -193.613662 -39.22003 L -191.941291 -40.891565 L -197.793545 -39.221075 L -191.942127 -37.547658 Z M -193.613662 -39.22003 " transform="matrix(-1, -0.186657, 0.186657, -1, 0, 0)"/>
<path fill="none" stroke-width="0.850394" stroke-linecap="butt" stroke-linejoin="miter" stroke="rgb(0%, 0%, 0%)" stroke-opacity="1" stroke-miterlimit="4" d="M 271.410156 72.648438 L 211.941406 28.707031 "/>
<path fill-rule="evenodd" fill="rgb(0%, 0%, 0%)" fill-opacity="1" stroke-width="0.364773" stroke-linecap="butt" stroke-linejoin="miter" stroke="rgb(0%, 0%, 0%)" stroke-opacity="1" stroke-miterlimit="4" d="M -207.551098 82.726242 L -206.182187 81.359313 L -210.970625 82.729421 L -206.18417 84.095153 Z M -207.551098 82.726242 " transform="matrix(-1, -0.738879, 0.738879, -1, 0, 0)"/>
<path fill="none" stroke-width="0.850394" stroke-linecap="butt" stroke-linejoin="miter" stroke="rgb(0%, 0%, 0%)" stroke-opacity="1" stroke-miterlimit="4" d="M 270.695312 82.375 L 212.675781 101.324219 "/>
<path fill-rule="evenodd" fill="rgb(0%, 0%, 0%)" fill-opacity="1" stroke-width="0.431133" stroke-linecap="butt" stroke-linejoin="miter" stroke="rgb(0%, 0%, 0%)" stroke-opacity="1" stroke-miterlimit="4" d="M -217.064336 -154.321597 L -215.44665 -155.937802 L -221.103746 -154.320532 L -215.448131 -152.703911 Z M -217.064336 -154.321597 " transform="matrix(-1, 0.326594, -0.326594, -1, 0, 0)"/>
<path fill="none" stroke-width="0.850394" stroke-linecap="butt" stroke-linejoin="miter" stroke="rgb(0%, 0%, 0%)" stroke-opacity="1" stroke-miterlimit="4" d="M 270.496094 75.621094 L 213.386719 53.300781 "/>
<path fill-rule="evenodd" fill="rgb(0%, 0%, 0%)" fill-opacity="1" stroke-width="0.422432" stroke-linecap="butt" stroke-linejoin="miter" stroke="rgb(0%, 0%, 0%)" stroke-opacity="1" stroke-miterlimit="4" d="M -257.128138 26.100807 L -255.543995 24.516892 L -261.088728 26.101699 L -255.544224 27.684951 Z M -257.128138 26.100807 " transform="matrix(-1, -0.390792, 0.390792, -1, 0, 0)"/>
<path fill="none" stroke-width="0.850394" stroke-linecap="butt" stroke-linejoin="miter" stroke="rgb(0%, 0%, 0%)" stroke-opacity="1" stroke-miterlimit="4" d="M 294.328125 78.171875 C 294.328125 84.308594 289.355469 89.28125 283.21875 89.28125 C 277.085938 89.28125 272.113281 84.308594 272.113281 78.171875 C 272.113281 72.039062 277.085938 67.066406 283.21875 67.066406 C 289.355469 67.066406 294.328125 72.039062 294.328125 78.171875 Z M 294.328125 78.171875 "/>
<path fill="none" stroke-width="0.850394" stroke-linecap="butt" stroke-linejoin="miter" stroke="rgb(0%, 0%, 0%)" stroke-opacity="1" stroke-miterlimit="4" d="M 294.082031 49.789062 C 294.082031 55.925781 289.109375 60.898438 282.976562 60.898438 C 276.839844 60.898438 271.867188 55.925781 271.867188 49.789062 C 271.867188 43.65625 276.839844 38.683594 282.976562 38.683594 C 289.109375 38.683594 294.082031 43.65625 294.082031 49.789062 Z M 294.082031 49.789062 "/>
<path fill-rule="nonzero" fill="rgb(0%, 0%, 0%)" fill-opacity="1" d="M 283.664062 46.804688 C 283.71875 46.644531 283.71875 46.628906 283.71875 46.539062 C 283.71875 46.34375 283.558594 46.238281 283.378906 46.238281 C 283.273438 46.238281 283.097656 46.308594 282.988281 46.46875 C 282.972656 46.539062 282.863281 46.878906 282.828125 47.089844 C 282.738281 47.375 282.667969 47.699219 282.597656 48 L 282.082031 50.046875 C 282.042969 50.210938 281.546875 51.011719 280.796875 51.011719 C 280.226562 51.011719 280.101562 50.511719 280.101562 50.085938 C 280.101562 49.566406 280.300781 48.855469 280.671875 47.859375 C 280.851562 47.394531 280.90625 47.269531 280.90625 47.039062 C 280.90625 46.539062 280.546875 46.113281 279.976562 46.113281 C 278.890625 46.113281 278.480469 47.769531 278.480469 47.859375 C 278.480469 47.980469 278.589844 47.980469 278.605469 47.980469 C 278.730469 47.980469 278.730469 47.945312 278.785156 47.769531 C 279.105469 46.699219 279.550781 46.359375 279.941406 46.359375 C 280.03125 46.359375 280.226562 46.359375 280.226562 46.71875 C 280.226562 47.003906 280.101562 47.304688 280.03125 47.519531 C 279.570312 48.730469 279.371094 49.371094 279.371094 49.90625 C 279.371094 50.921875 280.085938 51.261719 280.761719 51.261719 C 281.207031 51.261719 281.582031 51.0625 281.902344 50.742188 C 281.757812 51.332031 281.617188 51.902344 281.171875 52.507812 C 280.867188 52.882812 280.441406 53.21875 279.925781 53.21875 C 279.765625 53.21875 279.246094 53.183594 279.050781 52.738281 C 279.230469 52.738281 279.390625 52.738281 279.53125 52.597656 C 279.65625 52.507812 279.765625 52.347656 279.765625 52.132812 C 279.765625 51.777344 279.460938 51.742188 279.355469 51.742188 C 279.085938 51.742188 278.714844 51.917969 278.714844 52.472656 C 278.714844 53.042969 279.210938 53.46875 279.925781 53.46875 C 281.082031 53.46875 282.257812 52.4375 282.578125 51.152344 Z M 283.664062 46.804688 "/>
<path fill-rule="nonzero" fill="rgb(0%, 0%, 0%)" fill-opacity="1" d="M 286.367188 47.78125 C 286.367188 47.566406 286.367188 47.566406 286.136719 47.566406 C 285.617188 48.066406 284.90625 48.066406 284.585938 48.066406 L 284.585938 48.347656 C 284.765625 48.347656 285.296875 48.347656 285.726562 48.136719 L 285.726562 52.179688 C 285.726562 52.445312 285.726562 52.554688 284.941406 52.554688 L 284.640625 52.554688 L 284.640625 52.839844 C 284.78125 52.839844 285.761719 52.804688 286.046875 52.804688 C 286.296875 52.804688 287.292969 52.839844 287.472656 52.839844 L 287.472656 52.554688 L 287.167969 52.554688 C 286.367188 52.554688 286.367188 52.445312 286.367188 52.179688 Z M 286.367188 47.78125 "/>
<path fill="none" stroke-width="0.850394" stroke-linecap="butt" stroke-linejoin="miter" stroke="rgb(0%, 0%, 0%)" stroke-opacity="1" stroke-miterlimit="4" d="M 270.328125 46.082031 L 213.617188 25.425781 "/>
<path fill-rule="evenodd" fill="rgb(0%, 0%, 0%)" fill-opacity="1" stroke-width="0.426152" stroke-linecap="butt" stroke-linejoin="miter" stroke="rgb(0%, 0%, 0%)" stroke-opacity="1" stroke-miterlimit="4" d="M -250.285787 46.250381 L -248.684594 44.65151 L -254.278891 46.247866 L -248.688173 47.848126 Z M -250.285787 46.250381 " transform="matrix(-1, -0.364257, 0.364257, -1, 0, 0)"/>
<path fill="none" stroke-width="0.850394" stroke-linecap="butt" stroke-linejoin="miter" stroke="rgb(0%, 0%, 0%)" stroke-opacity="1" stroke-miterlimit="4" d="M 271.660156 56.496094 L 211.59375 98.375 "/>
<path fill-rule="evenodd" fill="rgb(0%, 0%, 0%)" fill-opacity="1" stroke-width="0.372037" stroke-linecap="butt" stroke-linejoin="miter" stroke="rgb(0%, 0%, 0%)" stroke-opacity="1" stroke-miterlimit="4" d="M -153.49786 -165.46825 L -152.103393 -166.863141 L -156.986789 -165.467322 L -152.104802 -164.071154 Z M -153.49786 -165.46825 " transform="matrix(-1, 0.697253, -0.697253, -1, 0, 0)"/>
<path fill="none" stroke-width="0.850394" stroke-linecap="butt" stroke-linejoin="miter" stroke="rgb(0%, 0%, 0%)" stroke-opacity="1" stroke-miterlimit="4" d="M 269.820312 50.164062 L 213.8125 49.953125 "/>
<path fill-rule="evenodd" fill="rgb(0%, 0%, 0%)" fill-opacity="1" stroke-width="0.45354" stroke-linecap="butt" stroke-linejoin="miter" stroke="rgb(0%, 0%, 0%)" stroke-opacity="1" stroke-miterlimit="4" d="M -266.604114 -49.142485 L -264.903528 -50.844239 L -270.858018 -49.141996 L -264.90236 -47.441899 Z M -266.604114 -49.142485 " transform="matrix(-1, -0.00378786, 0.00378786, -1, 0, 0)"/>
<path fill-rule="nonzero" fill="rgb(0%, 0%, 0%)" fill-opacity="1" d="M 283.785156 75.1875 C 283.835938 75.027344 283.835938 75.011719 283.835938 74.921875 C 283.835938 74.726562 283.675781 74.617188 283.5 74.617188 C 283.390625 74.617188 283.214844 74.691406 283.105469 74.851562 C 283.089844 74.921875 282.980469 75.257812 282.945312 75.472656 C 282.855469 75.757812 282.785156 76.078125 282.714844 76.382812 L 282.199219 78.429688 C 282.164062 78.589844 281.664062 79.394531 280.914062 79.394531 C 280.34375 79.394531 280.222656 78.894531 280.222656 78.464844 C 280.222656 77.949219 280.417969 77.238281 280.789062 76.238281 C 280.96875 75.777344 281.023438 75.652344 281.023438 75.421875 C 281.023438 74.921875 280.667969 74.492188 280.097656 74.492188 C 279.007812 74.492188 278.597656 76.152344 278.597656 76.238281 C 278.597656 76.363281 278.707031 76.363281 278.722656 76.363281 C 278.847656 76.363281 278.847656 76.328125 278.902344 76.152344 C 279.222656 75.082031 279.667969 74.742188 280.058594 74.742188 C 280.148438 74.742188 280.34375 74.742188 280.34375 75.097656 C 280.34375 75.382812 280.222656 75.6875 280.148438 75.902344 C 279.6875 77.113281 279.492188 77.753906 279.492188 78.289062 C 279.492188 79.304688 280.203125 79.640625 280.878906 79.640625 C 281.324219 79.640625 281.699219 79.445312 282.019531 79.125 C 281.878906 79.714844 281.734375 80.285156 281.289062 80.890625 C 280.988281 81.261719 280.558594 81.601562 280.042969 81.601562 C 279.882812 81.601562 279.367188 81.566406 279.167969 81.121094 C 279.347656 81.121094 279.507812 81.121094 279.652344 80.976562 C 279.773438 80.890625 279.882812 80.730469 279.882812 80.515625 C 279.882812 80.160156 279.578125 80.125 279.472656 80.125 C 279.207031 80.125 278.832031 80.300781 278.832031 80.851562 C 278.832031 81.421875 279.328125 81.851562 280.042969 81.851562 C 281.199219 81.851562 282.375 80.816406 282.695312 79.535156 Z M 283.785156 75.1875 "/>
<path fill-rule="nonzero" fill="rgb(0%, 0%, 0%)" fill-opacity="1" d="M 287.839844 79.777344 L 287.570312 79.777344 C 287.554688 79.957031 287.464844 80.417969 287.359375 80.492188 C 287.304688 80.542969 286.699219 80.542969 286.574219 80.542969 L 285.113281 80.542969 C 285.949219 79.8125 286.234375 79.582031 286.699219 79.207031 C 287.285156 78.746094 287.839844 78.246094 287.839844 77.496094 C 287.839844 76.535156 287 75.949219 285.984375 75.949219 C 285.007812 75.949219 284.328125 76.640625 284.328125 77.371094 C 284.328125 77.765625 284.667969 77.816406 284.757812 77.816406 C 284.933594 77.816406 285.167969 77.675781 285.167969 77.390625 C 285.167969 77.25 285.113281 76.964844 284.703125 76.964844 C 284.953125 76.410156 285.488281 76.234375 285.863281 76.234375 C 286.664062 76.234375 287.074219 76.855469 287.074219 77.496094 C 287.074219 78.191406 286.574219 78.726562 286.324219 79.011719 L 284.417969 80.917969 C 284.328125 80.988281 284.328125 81.007812 284.328125 81.222656 L 287.605469 81.222656 Z M 287.839844 79.777344 "/>
<path fill-rule="nonzero" fill="rgb(0%, 0%, 0%)" fill-opacity="1" d="M 120.53125 34.09375 C 120.605469 33.808594 120.871094 32.757812 121.65625 32.757812 C 121.707031 32.757812 121.992188 32.757812 122.226562 32.902344 C 121.90625 32.972656 121.691406 33.238281 121.691406 33.523438 C 121.691406 33.703125 121.816406 33.917969 122.117188 33.917969 C 122.367188 33.917969 122.722656 33.71875 122.722656 33.257812 C 122.722656 32.667969 122.066406 32.507812 121.671875 32.507812 C 121.015625 32.507812 120.621094 33.113281 120.480469 33.363281 C 120.195312 32.617188 119.589844 32.507812 119.25 32.507812 C 118.074219 32.507812 117.414062 33.96875 117.414062 34.253906 C 117.414062 34.378906 117.539062 34.378906 117.558594 34.378906 C 117.648438 34.378906 117.683594 34.34375 117.699219 34.253906 C 118.09375 33.042969 118.839844 32.757812 119.230469 32.757812 C 119.445312 32.757812 119.839844 32.867188 119.839844 33.523438 C 119.839844 33.878906 119.640625 34.628906 119.230469 36.230469 C 119.054688 36.925781 118.644531 37.40625 118.144531 37.40625 C 118.074219 37.40625 117.824219 37.40625 117.574219 37.265625 C 117.859375 37.195312 118.109375 36.960938 118.109375 36.640625 C 118.109375 36.339844 117.859375 36.25 117.699219 36.25 C 117.34375 36.25 117.078125 36.535156 117.078125 36.910156 C 117.078125 37.425781 117.628906 37.65625 118.128906 37.65625 C 118.894531 37.65625 119.304688 36.855469 119.320312 36.800781 C 119.464844 37.210938 119.875 37.65625 120.550781 37.65625 C 121.726562 37.65625 122.367188 36.195312 122.367188 35.910156 C 122.367188 35.785156 122.277344 35.785156 122.242188 35.785156 C 122.136719 35.785156 122.117188 35.839844 122.082031 35.910156 C 121.707031 37.140625 120.941406 37.40625 120.585938 37.40625 C 120.140625 37.40625 119.960938 37.050781 119.960938 36.660156 C 119.960938 36.410156 120.015625 36.160156 120.140625 35.664062 Z M 120.53125 34.09375 "/>
<path fill-rule="nonzero" fill="rgb(0%, 0%, 0%)" fill-opacity="1" d="M 125.882812 34.175781 C 125.882812 33.964844 125.882812 33.964844 125.652344 33.964844 C 125.136719 34.460938 124.421875 34.460938 124.101562 34.460938 L 124.101562 34.746094 C 124.28125 34.746094 124.816406 34.746094 125.242188 34.53125 L 125.242188 38.578125 C 125.242188 38.84375 125.242188 38.949219 124.460938 38.949219 L 124.15625 38.949219 L 124.15625 39.234375 C 124.300781 39.234375 125.277344 39.199219 125.5625 39.199219 C 125.8125 39.199219 126.8125 39.234375 126.988281 39.234375 L 126.988281 38.949219 L 126.6875 38.949219 C 125.882812 38.949219 125.882812 38.84375 125.882812 38.578125 Z M 125.882812 34.175781 "/>
<path fill-rule="nonzero" fill="rgb(0%, 0%, 0%)" fill-opacity="1" d="M 120.40625 62.203125 C 120.480469 61.917969 120.746094 60.867188 121.53125 60.867188 C 121.582031 60.867188 121.867188 60.867188 122.101562 61.011719 C 121.78125 61.082031 121.566406 61.347656 121.566406 61.632812 C 121.566406 61.8125 121.691406 62.023438 121.992188 62.023438 C 122.242188 62.023438 122.597656 61.828125 122.597656 61.367188 C 122.597656 60.777344 121.941406 60.617188 121.546875 60.617188 C 120.890625 60.617188 120.496094 61.222656 120.355469 61.472656 C 120.070312 60.726562 119.464844 60.617188 119.125 60.617188 C 117.949219 60.617188 117.289062 62.078125 117.289062 62.363281 C 117.289062 62.488281 117.414062 62.488281 117.433594 62.488281 C 117.523438 62.488281 117.558594 62.453125 117.574219 62.363281 C 117.96875 61.152344 118.714844 60.867188 119.109375 60.867188 C 119.320312 60.867188 119.714844 60.972656 119.714844 61.632812 C 119.714844 61.988281 119.515625 62.738281 119.109375 64.339844 C 118.929688 65.035156 118.519531 65.515625 118.019531 65.515625 C 117.949219 65.515625 117.699219 65.515625 117.449219 65.375 C 117.734375 65.304688 117.984375 65.070312 117.984375 64.75 C 117.984375 64.449219 117.734375 64.359375 117.574219 64.359375 C 117.21875 64.359375 116.953125 64.644531 116.953125 65.019531 C 116.953125 65.535156 117.503906 65.765625 118.003906 65.765625 C 118.769531 65.765625 119.179688 64.964844 119.195312 64.910156 C 119.339844 65.320312 119.75 65.765625 120.425781 65.765625 C 121.601562 65.765625 122.242188 64.304688 122.242188 64.019531 C 122.242188 63.894531 122.152344 63.894531 122.117188 63.894531 C 122.011719 63.894531 121.992188 63.949219 121.957031 64.019531 C 121.582031 65.25 120.816406 65.515625 120.460938 65.515625 C 120.015625 65.515625 119.839844 65.160156 119.839844 64.769531 C 119.839844 64.519531 119.890625 64.269531 120.015625 63.769531 Z M 120.40625 62.203125 "/>
<path fill-rule="nonzero" fill="rgb(0%, 0%, 0%)" fill-opacity="1" d="M 127.113281 65.902344 L 126.847656 65.902344 C 126.828125 66.082031 126.738281 66.542969 126.632812 66.613281 C 126.578125 66.667969 125.972656 66.667969 125.847656 66.667969 L 124.386719 66.667969 C 125.226562 65.9375 125.511719 65.707031 125.972656 65.332031 C 126.5625 64.867188 127.113281 64.371094 127.113281 63.621094 C 127.113281 62.660156 126.277344 62.070312 125.261719 62.070312 C 124.28125 62.070312 123.605469 62.765625 123.605469 63.496094 C 123.605469 63.890625 123.941406 63.941406 124.03125 63.941406 C 124.210938 63.941406 124.441406 63.800781 124.441406 63.515625 C 124.441406 63.371094 124.386719 63.085938 123.976562 63.085938 C 124.226562 62.535156 124.761719 62.355469 125.136719 62.355469 C 125.9375 62.355469 126.347656 62.980469 126.347656 63.621094 C 126.347656 64.316406 125.847656 64.851562 125.597656 65.136719 L 123.691406 67.042969 C 123.605469 67.113281 123.605469 67.132812 123.605469 67.34375 L 126.882812 67.34375 Z M 127.113281 65.902344 "/>
<path fill-rule="nonzero" fill="rgb(0%, 0%, 0%)" fill-opacity="1" d="M 120.371094 90.230469 C 120.445312 89.945312 120.710938 88.894531 121.496094 88.894531 C 121.546875 88.894531 121.832031 88.894531 122.066406 89.039062 C 121.742188 89.109375 121.53125 89.375 121.53125 89.660156 C 121.53125 89.839844 121.65625 90.054688 121.957031 90.054688 C 122.207031 90.054688 122.5625 89.859375 122.5625 89.394531 C 122.5625 88.808594 121.90625 88.648438 121.511719 88.648438 C 120.851562 88.648438 120.460938 89.253906 120.320312 89.5 C 120.035156 88.753906 119.429688 88.648438 119.089844 88.648438 C 117.914062 88.648438 117.253906 90.105469 117.253906 90.390625 C 117.253906 90.515625 117.378906 90.515625 117.398438 90.515625 C 117.488281 90.515625 117.523438 90.480469 117.539062 90.390625 C 117.933594 89.179688 118.679688 88.894531 119.070312 88.894531 C 119.285156 88.894531 119.675781 89.003906 119.675781 89.660156 C 119.675781 90.019531 119.480469 90.765625 119.070312 92.371094 C 118.894531 93.066406 118.484375 93.546875 117.984375 93.546875 C 117.914062 93.546875 117.664062 93.546875 117.414062 93.402344 C 117.699219 93.332031 117.949219 93.101562 117.949219 92.78125 C 117.949219 92.476562 117.699219 92.386719 117.539062 92.386719 C 117.183594 92.386719 116.917969 92.671875 116.917969 93.046875 C 116.917969 93.5625 117.46875 93.796875 117.96875 93.796875 C 118.734375 93.796875 119.144531 92.992188 119.160156 92.941406 C 119.304688 93.347656 119.714844 93.796875 120.390625 93.796875 C 121.566406 93.796875 122.207031 92.335938 122.207031 92.050781 C 122.207031 91.925781 122.117188 91.925781 122.082031 91.925781 C 121.976562 91.925781 121.957031 91.976562 121.921875 92.050781 C 121.546875 93.277344 120.78125 93.546875 120.425781 93.546875 C 119.980469 93.546875 119.800781 93.1875 119.800781 92.796875 C 119.800781 92.546875 119.855469 92.296875 119.980469 91.800781 Z M 120.371094 90.230469 "/>
<path fill-rule="nonzero" fill="rgb(0%, 0%, 0%)" fill-opacity="1" d="M 125.242188 92.71875 C 125.867188 92.71875 126.3125 93.148438 126.3125 94 C 126.3125 94.980469 125.722656 95.285156 125.277344 95.285156 C 124.957031 95.285156 124.246094 95.195312 123.925781 94.714844 C 124.300781 94.714844 124.386719 94.445312 124.386719 94.269531 C 124.386719 94.019531 124.191406 93.839844 123.941406 93.839844 C 123.730469 93.839844 123.496094 93.984375 123.496094 94.304688 C 123.496094 95.054688 124.316406 95.535156 125.277344 95.535156 C 126.382812 95.535156 127.148438 94.785156 127.148438 94 C 127.148438 93.378906 126.652344 92.753906 125.777344 92.578125 C 126.597656 92.273438 126.898438 91.6875 126.898438 91.1875 C 126.898438 90.5625 126.1875 90.101562 125.296875 90.101562 C 124.421875 90.101562 123.746094 90.527344 123.746094 91.167969 C 123.746094 91.4375 123.925781 91.578125 124.15625 91.578125 C 124.40625 91.578125 124.566406 91.402344 124.566406 91.1875 C 124.566406 90.957031 124.40625 90.777344 124.15625 90.757812 C 124.441406 90.421875 124.976562 90.332031 125.277344 90.332031 C 125.636719 90.332031 126.132812 90.511719 126.132812 91.1875 C 126.132812 91.527344 126.027344 91.898438 125.8125 92.132812 C 125.5625 92.433594 125.332031 92.453125 124.941406 92.488281 C 124.746094 92.503906 124.726562 92.503906 124.691406 92.503906 C 124.671875 92.503906 124.601562 92.523438 124.601562 92.613281 C 124.601562 92.71875 124.671875 92.71875 124.816406 92.71875 Z M 125.242188 92.71875 "/>
<path fill="none" stroke-width="0.850394" stroke-linecap="butt" stroke-linejoin="miter" stroke="rgb(0%, 0%, 0%)" stroke-opacity="1" stroke-miterlimit="4" d="M 132.457031 39.84375 L 190.824219 72.046875 "/>
<path fill-rule="evenodd" fill="rgb(0%, 0%, 0%)" fill-opacity="1" stroke-width="0.397113" stroke-linecap="butt" stroke-linejoin="miter" stroke="rgb(0%, 0%, 0%)" stroke-opacity="1" stroke-miterlimit="4" d="M -173.790789 25.478125 L -172.29882 23.990909 L -177.512136 25.480497 L -172.300578 26.968442 Z M -173.790789 25.478125 " transform="matrix(-1, -0.551723, 0.551723, -1, 0, 0)"/>
<path fill="none" stroke-width="0.850394" stroke-linecap="butt" stroke-linejoin="miter" stroke="rgb(0%, 0%, 0%)" stroke-opacity="1" stroke-miterlimit="4" d="M 133.390625 34.160156 L 189.464844 23.664062 "/>
<path fill-rule="evenodd" fill="rgb(0%, 0%, 0%)" fill-opacity="1" stroke-width="0.445801" stroke-linecap="butt" stroke-linejoin="miter" stroke="rgb(0%, 0%, 0%)" stroke-opacity="1" stroke-miterlimit="4" d="M -175.428125 -57.12605 L -173.758969 -58.801895 L -179.607612 -57.127124 L -173.756054 -55.4576 Z M -175.428125 -57.12605 " transform="matrix(-1, 0.187182, -0.187182, -1, 0, 0)"/>
<path fill="none" stroke-width="0.850394" stroke-linecap="butt" stroke-linejoin="miter" stroke="rgb(0%, 0%, 0%)" stroke-opacity="1" stroke-miterlimit="4" d="M 133.441406 90.519531 L 189.625 79.808594 "/>
<path fill-rule="evenodd" fill="rgb(0%, 0%, 0%)" fill-opacity="1" stroke-width="0.44552" stroke-linecap="butt" stroke-linejoin="miter" stroke="rgb(0%, 0%, 0%)" stroke-opacity="1" stroke-miterlimit="4" d="M -164.95376 -111.892427 L -163.28384 -113.562352 L -169.129688 -111.891659 L -163.283836 -110.222507 Z M -164.95376 -111.892427 " transform="matrix(-1, 0.190642, -0.190642, -1, 0, 0)"/>
<path fill-rule="nonzero" fill="rgb(0%, 0%, 0%)" fill-opacity="1" stroke-width="0.850394" stroke-linecap="butt" stroke-linejoin="miter" stroke="rgb(0%, 0%, 0%)" stroke-opacity="1" stroke-miterlimit="4" d="M 133.390625 93.566406 L 189.875 102.851562 "/>
<path fill-rule="evenodd" fill="rgb(0%, 0%, 0%)" fill-opacity="1" stroke-width="0.447539" stroke-linecap="butt" stroke-linejoin="miter" stroke="rgb(0%, 0%, 0%)" stroke-opacity="1" stroke-miterlimit="4" d="M -197.984683 -69.755914 L -196.307361 -71.433945 L -202.180293 -69.757726 L -196.306653 -68.078592 Z M -197.984683 -69.755914 " transform="matrix(-1, -0.164361, 0.164361, -1, 0, 0)"/>
<path fill="none" stroke-width="0.850394" stroke-linecap="butt" stroke-linejoin="miter" stroke="rgb(0%, 0%, 0%)" stroke-opacity="1" stroke-miterlimit="4" d="M 131.144531 42.097656 L 192.929688 96.695312 "/>
<path fill-rule="evenodd" fill="rgb(0%, 0%, 0%)" fill-opacity="1" stroke-width="0.339861" stroke-linecap="butt" stroke-linejoin="miter" stroke="rgb(0%, 0%, 0%)" stroke-opacity="1" stroke-miterlimit="4" d="M -153.763412 41.435476 L -152.490297 40.162019 L -156.950759 41.435649 L -152.489954 42.708591 Z M -153.763412 41.435476 " transform="matrix(-1, -0.883675, 0.883675, -1, 0, 0)"/>
<path fill="none" stroke-width="0.850394" stroke-linecap="butt" stroke-linejoin="miter" stroke="rgb(0%, 0%, 0%)" stroke-opacity="1" stroke-miterlimit="4" d="M 130.957031 85.671875 L 192.996094 31.398438 "/>
<path fill-rule="evenodd" fill="rgb(0%, 0%, 0%)" fill-opacity="1" stroke-width="0.341348" stroke-linecap="butt" stroke-linejoin="miter" stroke="rgb(0%, 0%, 0%)" stroke-opacity="1" stroke-miterlimit="4" d="M -91.203219 -113.427588 L -89.923917 -114.706804 L -94.403372 -113.426521 L -89.921791 -112.14635 Z M -91.203219 -113.427588 " transform="matrix(-1, 0.874869, -0.874869, -1, 0, 0)"/>
<path fill-rule="nonzero" fill="rgb(46.665955%, 23.529053%, 13.725281%)" fill-opacity="1" d="M 200.421875 17.699219 C 200.421875 17.699219 200.421875 17.574219 200.28125 17.574219 C 200.011719 17.574219 199.195312 17.664062 198.890625 17.699219 C 198.800781 17.699219 198.675781 17.71875 198.675781 17.914062 C 198.675781 18.054688 198.785156 18.054688 198.945312 18.054688 C 199.496094 18.054688 199.515625 18.128906 199.515625 18.253906 L 199.480469 18.484375 L 197.839844 25.023438 C 197.785156 25.183594 197.785156 25.199219 197.785156 25.269531 C 197.785156 25.539062 198.019531 25.589844 198.125 25.589844 C 198.304688 25.589844 198.480469 25.449219 198.535156 25.289062 L 198.75 24.433594 L 198.996094 23.417969 C 199.070312 23.152344 199.140625 22.902344 199.195312 22.652344 C 199.210938 22.582031 199.316406 22.207031 199.316406 22.136719 C 199.355469 22.027344 199.710938 21.40625 200.101562 21.085938 C 200.351562 20.90625 200.691406 20.691406 201.1875 20.691406 C 201.667969 20.691406 201.792969 21.085938 201.792969 21.496094 C 201.792969 22.101562 201.367188 23.347656 201.101562 24.042969 C 201.011719 24.292969 200.9375 24.433594 200.9375 24.664062 C 200.9375 25.199219 201.347656 25.589844 201.882812 25.589844 C 202.953125 25.589844 203.363281 23.933594 203.363281 23.847656 C 203.363281 23.722656 203.273438 23.722656 203.238281 23.722656 C 203.113281 23.722656 203.113281 23.757812 203.058594 23.933594 C 202.898438 24.539062 202.523438 25.34375 201.902344 25.34375 C 201.707031 25.34375 201.632812 25.234375 201.632812 24.96875 C 201.632812 24.683594 201.722656 24.414062 201.832031 24.167969 C 202.007812 23.667969 202.523438 22.3125 202.523438 21.65625 C 202.523438 20.925781 202.078125 20.441406 201.222656 20.441406 C 200.511719 20.441406 199.960938 20.800781 199.53125 21.316406 Z M 200.421875 17.699219 "/>
<path fill-rule="nonzero" fill="rgb(46.665955%, 23.529053%, 13.725281%)" fill-opacity="1" d="M 206.363281 22.109375 C 206.363281 21.898438 206.363281 21.898438 206.128906 21.898438 C 205.613281 22.394531 204.902344 22.394531 204.578125 22.394531 L 204.578125 22.679688 C 204.757812 22.679688 205.292969 22.679688 205.71875 22.46875 L 205.71875 26.511719 C 205.71875 26.777344 205.71875 26.886719 204.9375 26.886719 L 204.632812 26.886719 L 204.632812 27.171875 C 204.777344 27.171875 205.753906 27.132812 206.039062 27.132812 C 206.289062 27.132812 207.289062 27.171875 207.464844 27.171875 L 207.464844 26.886719 L 207.164062 26.886719 C 206.363281 26.886719 206.363281 26.777344 206.363281 26.511719 Z M 206.363281 22.109375 "/>
<path fill="none" stroke-width="0.850394" stroke-linecap="butt" stroke-linejoin="miter" stroke="rgb(46.665955%, 23.529053%, 13.725281%)" stroke-opacity="1" stroke-miterlimit="4" d="M 213.734375 22.371094 C 213.734375 28.507812 208.761719 33.480469 202.625 33.480469 C 196.492188 33.480469 191.519531 28.507812 191.519531 22.371094 C 191.519531 16.238281 196.492188 11.265625 202.625 11.265625 C 208.761719 11.265625 213.734375 16.238281 213.734375 22.371094 Z M 213.734375 22.371094 "/>
<path fill-rule="nonzero" fill="rgb(46.665955%, 23.529053%, 13.725281%)" fill-opacity="1" d="M 200.261719 73.097656 C 200.261719 73.097656 200.261719 72.972656 200.121094 72.972656 C 199.851562 72.972656 199.035156 73.0625 198.730469 73.097656 C 198.640625 73.097656 198.515625 73.117188 198.515625 73.3125 C 198.515625 73.453125 198.625 73.453125 198.785156 73.453125 C 199.335938 73.453125 199.355469 73.527344 199.355469 73.648438 L 199.316406 73.882812 L 197.679688 80.417969 C 197.625 80.582031 197.625 80.597656 197.625 80.667969 C 197.625 80.9375 197.859375 80.988281 197.964844 80.988281 C 198.140625 80.988281 198.320312 80.847656 198.375 80.6875 L 198.585938 79.832031 L 198.835938 78.816406 C 198.910156 78.550781 198.980469 78.300781 199.035156 78.050781 C 199.050781 77.980469 199.15625 77.605469 199.15625 77.535156 C 199.195312 77.425781 199.550781 76.804688 199.941406 76.484375 C 200.191406 76.304688 200.53125 76.089844 201.027344 76.089844 C 201.507812 76.089844 201.632812 76.484375 201.632812 76.890625 C 201.632812 77.5 201.207031 78.746094 200.9375 79.441406 C 200.851562 79.6875 200.777344 79.832031 200.777344 80.0625 C 200.777344 80.597656 201.1875 80.988281 201.722656 80.988281 C 202.792969 80.988281 203.203125 79.332031 203.203125 79.242188 C 203.203125 79.121094 203.113281 79.121094 203.078125 79.121094 C 202.953125 79.121094 202.953125 79.15625 202.898438 79.332031 C 202.738281 79.9375 202.363281 80.742188 201.742188 80.742188 C 201.546875 80.742188 201.472656 80.632812 201.472656 80.367188 C 201.472656 80.082031 201.5625 79.8125 201.667969 79.566406 C 201.847656 79.066406 202.363281 77.710938 202.363281 77.054688 C 202.363281 76.324219 201.917969 75.839844 201.0625 75.839844 C 200.351562 75.839844 199.800781 76.199219 199.371094 76.714844 Z M 200.261719 73.097656 "/>
<path fill-rule="nonzero" fill="rgb(46.665955%, 23.529053%, 13.725281%)" fill-opacity="1" d="M 205.71875 79.914062 C 206.34375 79.914062 206.789062 80.339844 206.789062 81.195312 C 206.789062 82.175781 206.199219 82.480469 205.753906 82.480469 C 205.433594 82.480469 204.722656 82.390625 204.402344 81.910156 C 204.777344 81.910156 204.863281 81.640625 204.863281 81.464844 C 204.863281 81.214844 204.667969 81.035156 204.417969 81.035156 C 204.207031 81.035156 203.972656 81.179688 203.972656 81.5 C 203.972656 82.246094 204.792969 82.730469 205.753906 82.730469 C 206.859375 82.730469 207.625 81.980469 207.625 81.195312 C 207.625 80.574219 207.128906 79.949219 206.253906 79.773438 C 207.074219 79.46875 207.375 78.882812 207.375 78.382812 C 207.375 77.757812 206.664062 77.296875 205.773438 77.296875 C 204.902344 77.296875 204.222656 77.722656 204.222656 78.363281 C 204.222656 78.632812 204.402344 78.773438 204.632812 78.773438 C 204.882812 78.773438 205.042969 78.597656 205.042969 78.382812 C 205.042969 78.152344 204.882812 77.972656 204.632812 77.953125 C 204.917969 77.617188 205.453125 77.527344 205.753906 77.527344 C 206.113281 77.527344 206.609375 77.707031 206.609375 78.382812 C 206.609375 78.71875 206.503906 79.09375 206.289062 79.328125 C 206.039062 79.628906 205.808594 79.648438 205.417969 79.683594 C 205.222656 79.699219 205.203125 79.699219 205.167969 79.699219 C 205.148438 79.699219 205.078125 79.71875 205.078125 79.808594 C 205.078125 79.914062 205.148438 79.914062 205.292969 79.914062 Z M 205.71875 79.914062 "/>
<path fill-rule="nonzero" fill="rgb(46.665955%, 23.529053%, 13.725281%)" fill-opacity="1" d="M 200.296875 45.4375 C 200.296875 45.4375 200.296875 45.3125 200.15625 45.3125 C 199.886719 45.3125 199.070312 45.402344 198.765625 45.4375 C 198.675781 45.4375 198.550781 45.457031 198.550781 45.652344 C 198.550781 45.796875 198.660156 45.796875 198.820312 45.796875 C 199.371094 45.796875 199.390625 45.867188 199.390625 45.992188 L 199.355469 46.222656 L 197.714844 52.761719 C 197.660156 52.921875 197.660156 52.9375 197.660156 53.011719 C 197.660156 53.277344 197.894531 53.332031 198 53.332031 C 198.179688 53.332031 198.355469 53.1875 198.410156 53.027344 L 198.625 52.171875 L 198.871094 51.15625 C 198.945312 50.890625 199.015625 50.640625 199.070312 50.390625 C 199.085938 50.320312 199.195312 49.945312 199.195312 49.875 C 199.230469 49.769531 199.585938 49.144531 199.976562 48.824219 C 200.226562 48.644531 200.566406 48.433594 201.0625 48.433594 C 201.546875 48.433594 201.667969 48.824219 201.667969 49.234375 C 201.667969 49.839844 201.242188 51.085938 200.976562 51.78125 C 200.886719 52.03125 200.816406 52.171875 200.816406 52.40625 C 200.816406 52.9375 201.222656 53.332031 201.757812 53.332031 C 202.828125 53.332031 203.238281 51.675781 203.238281 51.585938 C 203.238281 51.460938 203.148438 51.460938 203.113281 51.460938 C 202.988281 51.460938 202.988281 51.496094 202.933594 51.675781 C 202.773438 52.28125 202.398438 53.082031 201.777344 53.082031 C 201.582031 53.082031 201.507812 52.972656 201.507812 52.707031 C 201.507812 52.421875 201.597656 52.15625 201.707031 51.90625 C 201.882812 51.40625 202.398438 50.054688 202.398438 49.394531 C 202.398438 48.664062 201.953125 48.183594 201.101562 48.183594 C 200.386719 48.183594 199.835938 48.539062 199.40625 49.054688 Z M 200.296875 45.4375 "/>
<path fill-rule="nonzero" fill="rgb(46.665955%, 23.529053%, 13.725281%)" fill-opacity="1" d="M 207.589844 53.464844 L 207.324219 53.464844 C 207.304688 53.644531 207.214844 54.109375 207.109375 54.179688 C 207.054688 54.234375 206.449219 54.234375 206.324219 54.234375 L 204.863281 54.234375 C 205.703125 53.503906 205.988281 53.269531 206.449219 52.894531 C 207.039062 52.433594 207.589844 51.933594 207.589844 51.1875 C 207.589844 50.222656 206.753906 49.636719 205.738281 49.636719 C 204.757812 49.636719 204.082031 50.332031 204.082031 51.0625 C 204.082031 51.453125 204.417969 51.507812 204.507812 51.507812 C 204.6875 51.507812 204.917969 51.363281 204.917969 51.078125 C 204.917969 50.9375 204.863281 50.652344 204.457031 50.652344 C 204.703125 50.097656 205.238281 49.921875 205.613281 49.921875 C 206.414062 49.921875 206.824219 50.542969 206.824219 51.1875 C 206.824219 51.882812 206.324219 52.414062 206.078125 52.699219 L 204.171875 54.605469 C 204.082031 54.679688 204.082031 54.695312 204.082031 54.910156 L 207.359375 54.910156 Z M 207.589844 53.464844 "/>
<path fill="none" stroke-width="0.850394" stroke-linecap="butt" stroke-linejoin="miter" stroke="rgb(0%, 0%, 0%)" stroke-opacity="1" stroke-miterlimit="4" d="M 213.734375 50.113281 C 213.734375 56.246094 208.761719 61.21875 202.625 61.21875 C 196.492188 61.21875 191.519531 56.246094 191.519531 50.113281 C 191.519531 43.976562 196.492188 39.003906 202.625 39.003906 C 208.761719 39.003906 213.734375 43.976562 213.734375 50.113281 Z M 213.734375 50.113281 "/>
<path fill="none" stroke-width="0.850394" stroke-linecap="butt" stroke-linejoin="miter" stroke="rgb(46.665955%, 23.529053%, 13.725281%)" stroke-opacity="1" stroke-miterlimit="4" d="M 213.734375 105.589844 C 213.734375 111.726562 208.761719 116.699219 202.625 116.699219 C 196.492188 116.699219 191.519531 111.726562 191.519531 105.589844 C 191.519531 99.457031 196.492188 94.484375 202.625 94.484375 C 208.761719 94.484375 213.734375 99.457031 213.734375 105.589844 Z M 213.734375 105.589844 "/>
<path fill="none" stroke-width="0.850394" stroke-linecap="butt" stroke-linejoin="miter" stroke="rgb(0%, 0%, 0%)" stroke-opacity="1" stroke-miterlimit="4" d="M 270.363281 53.449219 L 213.386719 74.671875 "/>
<path fill-rule="evenodd" fill="rgb(0%, 0%, 0%)" fill-opacity="1" stroke-width="0.425014" stroke-linecap="butt" stroke-linejoin="miter" stroke="rgb(0%, 0%, 0%)" stroke-opacity="1" stroke-miterlimit="4" d="M -216.747648 -135.376085 L -215.153938 -136.969921 L -220.732082 -135.375927 L -215.153812 -133.782374 Z M -216.747648 -135.376085 " transform="matrix(-1, 0.372504, -0.372504, -1, 0, 0)"/>
<path fill="none" stroke-width="0.850394" stroke-linecap="butt" stroke-linejoin="miter" stroke="rgb(0%, 0%, 0%)" stroke-opacity="1" stroke-miterlimit="4" d="M 270.085938 78.738281 L 213.8125 78.019531 "/>
<path fill-rule="evenodd" fill="rgb(0%, 0%, 0%)" fill-opacity="1" stroke-width="0.453507" stroke-linecap="butt" stroke-linejoin="miter" stroke="rgb(0%, 0%, 0%)" stroke-opacity="1" stroke-miterlimit="4" d="M -267.641446 -75.286258 L -265.940435 -76.987587 L -271.895359 -75.286823 L -265.940166 -73.589153 Z M -267.641446 -75.286258 " transform="matrix(-1, -0.0127228, 0.0127228, -1, 0, 0)"/>
<path fill-rule="nonzero" fill="rgb(46.665955%, 23.529053%, 13.725281%)" fill-opacity="1" d="M 200.199219 100.917969 C 200.199219 100.917969 200.199219 100.792969 200.058594 100.792969 C 199.789062 100.792969 198.972656 100.882812 198.667969 100.917969 C 198.578125 100.917969 198.453125 100.933594 198.453125 101.132812 C 198.453125 101.273438 198.5625 101.273438 198.722656 101.273438 C 199.273438 101.273438 199.292969 101.34375 199.292969 101.46875 L 199.257812 101.703125 L 197.617188 108.238281 C 197.5625 108.398438 197.5625 108.417969 197.5625 108.488281 C 197.5625 108.753906 197.796875 108.808594 197.902344 108.808594 C 198.082031 108.808594 198.257812 108.667969 198.3125 108.507812 L 198.527344 107.652344 L 198.773438 106.636719 C 198.847656 106.367188 198.917969 106.121094 198.972656 105.871094 C 198.988281 105.796875 199.09375 105.425781 199.09375 105.351562 C 199.132812 105.246094 199.488281 104.621094 199.878906 104.300781 C 200.128906 104.125 200.46875 103.910156 200.964844 103.910156 C 201.445312 103.910156 201.570312 104.300781 201.570312 104.710938 C 201.570312 105.316406 201.144531 106.566406 200.878906 107.257812 C 200.789062 107.507812 200.714844 107.652344 200.714844 107.882812 C 200.714844 108.417969 201.125 108.808594 201.660156 108.808594 C 202.730469 108.808594 203.140625 107.152344 203.140625 107.0625 C 203.140625 106.9375 203.050781 106.9375 203.015625 106.9375 C 202.890625 106.9375 202.890625 106.972656 202.835938 107.152344 C 202.675781 107.757812 202.300781 108.558594 201.679688 108.558594 C 201.484375 108.558594 201.410156 108.453125 201.410156 108.1875 C 201.410156 107.902344 201.5 107.632812 201.609375 107.382812 C 201.785156 106.886719 202.300781 105.53125 202.300781 104.871094 C 202.300781 104.140625 201.855469 103.660156 201 103.660156 C 200.289062 103.660156 199.738281 104.015625 199.308594 104.535156 Z M 200.199219 100.917969 "/>
<path fill-rule="nonzero" fill="rgb(46.665955%, 23.529053%, 13.725281%)" fill-opacity="1" d="M 207.6875 109.085938 L 207.6875 108.800781 L 206.796875 108.800781 L 206.796875 105.257812 C 206.796875 105.097656 206.796875 105.027344 206.636719 105.027344 C 206.53125 105.027344 206.496094 105.027344 206.421875 105.148438 L 203.789062 108.800781 L 203.789062 109.085938 L 206.140625 109.085938 L 206.140625 109.730469 C 206.140625 110.015625 206.140625 110.101562 205.480469 110.101562 L 205.265625 110.101562 L 205.265625 110.386719 C 205.675781 110.371094 206.175781 110.351562 206.460938 110.351562 C 206.761719 110.351562 207.261719 110.371094 207.671875 110.386719 L 207.671875 110.101562 L 207.457031 110.101562 C 206.796875 110.101562 206.796875 110.015625 206.796875 109.730469 L 206.796875 109.085938 Z M 206.191406 105.898438 L 206.191406 108.800781 L 204.089844 108.800781 Z M 206.191406 105.898438 "/>
<path fill="none" stroke-width="0.850394" stroke-linecap="butt" stroke-linejoin="miter" stroke="rgb(0%, 0%, 0%)" stroke-opacity="1" stroke-miterlimit="4" d="M 133.117188 62.523438 L 189.503906 51.351562 "/>
<path fill-rule="evenodd" fill="rgb(0%, 0%, 0%)" fill-opacity="1" stroke-width="0.444894" stroke-linecap="butt" stroke-linejoin="miter" stroke="rgb(0%, 0%, 0%)" stroke-opacity="1" stroke-miterlimit="4" d="M -169.215165 -85.540011 L -167.548384 -87.209756 L -173.386583 -85.542317 L -167.549179 -83.873976 Z M -169.215165 -85.540011 " transform="matrix(-1, 0.19814, -0.19814, -1, 0, 0)"/>
<path fill="none" stroke-width="0.850394" stroke-linecap="butt" stroke-linejoin="miter" stroke="rgb(0%, 0%, 0%)" stroke-opacity="1" stroke-miterlimit="4" d="M 132.550781 87.855469 L 190.777344 55.769531 "/>
<path fill-rule="evenodd" fill="rgb(0%, 0%, 0%)" fill-opacity="1" stroke-width="0.397227" stroke-linecap="butt" stroke-linejoin="miter" stroke="rgb(0%, 0%, 0%)" stroke-opacity="1" stroke-miterlimit="4" d="M -119.787982 -123.418485 L -118.298121 -124.910008 L -123.513397 -123.420568 L -118.299457 -121.930275 Z M -119.787982 -123.418485 " transform="matrix(-1, 0.551043, -0.551043, -1, 0, 0)"/>
<path fill="none" stroke-width="0.850394" stroke-linecap="butt" stroke-linejoin="miter" stroke="rgb(0%, 0%, 0%)" stroke-opacity="1" stroke-miterlimit="4" d="M 133.160156 37.273438 L 189.976562 46.71875 "/>
<path fill-rule="evenodd" fill="rgb(0%, 0%, 0%)" fill-opacity="1" stroke-width="0.447403" stroke-linecap="butt" stroke-linejoin="miter" stroke="rgb(0%, 0%, 0%)" stroke-opacity="1" stroke-miterlimit="4" d="M -189.070278 -14.732641 L -187.392104 -16.410062 L -193.265246 -14.730574 L -187.392857 -13.054468 Z M -189.070278 -14.732641 " transform="matrix(-1, -0.166242, 0.166242, -1, 0, 0)"/>
<path fill-rule="nonzero" fill="rgb(0%, 0%, 0%)" fill-opacity="1" d="M 98.277344 12.09375 L 99.105469 12.09375 L 99.105469 19.707031 L 98.277344 19.707031 Z M 98.277344 12.09375 "/>
<path fill-rule="nonzero" fill="rgb(0%, 0%, 0%)" fill-opacity="1" d="M 104.902344 19.707031 L 104.902344 16.703125 C 104.902344 15.527344 104.402344 14.613281 103.125 14.613281 C 102.484375 14.613281 101.828125 14.855469 101.433594 15.410156 L 101.433594 14.734375 L 100.621094 14.734375 L 100.621094 19.707031 L 101.433594 19.707031 L 101.433594 16.894531 C 101.46875 15.945312 102.054688 15.339844 102.933594 15.339844 C 103.796875 15.339844 104.109375 15.855469 104.109375 16.738281 L 104.109375 19.707031 Z M 104.902344 19.707031 "/>
<path fill-rule="nonzero" fill="rgb(0%, 0%, 0%)" fill-opacity="1" d="M 110.914062 17.222656 C 110.914062 15.769531 109.945312 14.734375 108.480469 14.734375 L 106.355469 14.734375 L 106.355469 22.367188 L 107.183594 22.367188 L 107.183594 19.707031 L 108.410156 19.707031 C 110.015625 19.707031 110.914062 18.707031 110.914062 17.222656 Z M 110.121094 17.222656 C 110.121094 18.203125 109.496094 18.980469 108.410156 18.980469 L 107.183594 18.980469 L 107.183594 15.460938 L 108.410156 15.460938 C 109.480469 15.460938 110.121094 16.167969 110.121094 17.222656 Z M 110.121094 17.222656 "/>
<path fill-rule="nonzero" fill="rgb(0%, 0%, 0%)" fill-opacity="1" d="M 116.425781 19.707031 L 116.425781 14.734375 L 115.578125 14.734375 L 115.578125 17.550781 C 115.578125 18.480469 115.113281 19.121094 114.113281 19.121094 C 113.230469 19.121094 112.921875 18.566406 112.921875 17.722656 L 112.921875 14.734375 L 112.125 14.734375 L 112.125 17.738281 C 112.125 18.914062 112.679688 19.84375 113.921875 19.84375 C 114.5625 19.84375 115.21875 19.484375 115.578125 19.050781 L 115.578125 19.707031 Z M 116.425781 19.707031 "/>
<path fill-rule="nonzero" fill="rgb(0%, 0%, 0%)" fill-opacity="1" d="M 120.726562 19.707031 L 120.726562 19 L 119.863281 19 C 119.085938 19 118.949219 18.808594 118.949219 18.085938 L 118.949219 15.390625 L 120.414062 15.390625 L 120.414062 14.734375 L 118.949219 14.734375 L 118.949219 13.320312 L 118.601562 13.320312 L 118.136719 14.734375 L 117.550781 14.734375 L 117.550781 15.390625 L 118.136719 15.390625 L 118.136719 18.085938 C 118.136719 19.328125 118.636719 19.707031 119.863281 19.707031 Z M 120.726562 19.707031 "/>
<path fill-rule="nonzero" fill="rgb(0%, 0%, 0%)" fill-opacity="1" d="M 124.925781 12.09375 L 125.738281 12.09375 L 125.738281 19.707031 L 124.925781 19.707031 Z M 124.925781 12.09375 "/>
<path fill-rule="nonzero" fill="rgb(0%, 0%, 0%)" fill-opacity="1" d="M 131.0625 19.707031 L 131.0625 16.875 C 131.0625 15.441406 130.457031 14.613281 128.972656 14.613281 C 128.4375 14.613281 127.78125 14.785156 127.300781 14.960938 L 127.300781 15.769531 C 127.800781 15.496094 128.214844 15.320312 128.90625 15.320312 C 129.699219 15.339844 130.304688 15.738281 130.304688 16.566406 L 129.164062 16.566406 C 127.988281 16.566406 126.953125 16.960938 126.953125 18.257812 C 126.988281 19.257812 127.574219 19.84375 128.578125 19.84375 C 129.285156 19.84375 129.921875 19.550781 130.304688 19.050781 L 130.304688 19.707031 Z M 130.304688 17.394531 C 130.304688 18.359375 129.855469 19.136719 128.820312 19.136719 C 128.214844 19.136719 127.714844 18.859375 127.714844 18.203125 C 127.714844 17.238281 128.628906 17.238281 129.492188 17.238281 L 130.304688 17.238281 Z M 130.304688 17.394531 "/>
<path fill-rule="nonzero" fill="rgb(0%, 0%, 0%)" fill-opacity="1" d="M 136.570312 14.734375 L 135.8125 14.734375 L 134.273438 18.378906 L 132.480469 14.734375 L 131.703125 14.734375 L 133.859375 19.1875 L 133.015625 21.191406 C 132.875 21.535156 132.410156 21.796875 132.183594 21.796875 L 132.460938 22.367188 C 132.875 22.332031 133.308594 22.039062 133.582031 21.605469 Z M 136.570312 14.734375 "/>
<path fill-rule="nonzero" fill="rgb(0%, 0%, 0%)" fill-opacity="1" d="M 141.574219 17.222656 L 141.574219 17.132812 C 141.574219 15.703125 140.984375 14.648438 139.34375 14.613281 C 137.878906 14.613281 137.050781 15.890625 137.050781 17.273438 C 137.050781 18.773438 137.964844 19.84375 139.484375 19.84375 C 140.175781 19.84375 140.796875 19.691406 141.398438 19.464844 L 141.398438 18.636719 C 140.605469 19.015625 140.484375 19.101562 139.550781 19.101562 C 138.515625 19.101562 137.894531 18.480469 137.894531 17.308594 L 137.894531 17.222656 Z M 140.761719 16.546875 L 137.929688 16.546875 C 138.035156 15.890625 138.515625 15.320312 139.34375 15.320312 C 140.207031 15.320312 140.761719 15.855469 140.761719 16.546875 Z M 140.761719 16.546875 "/>
<path fill-rule="nonzero" fill="rgb(0%, 0%, 0%)" fill-opacity="1" d="M 145.53125 15.738281 L 145.789062 14.941406 C 145.667969 14.804688 145.132812 14.667969 144.769531 14.667969 C 144.253906 14.683594 143.820312 14.941406 143.597656 15.410156 L 143.597656 14.734375 L 142.769531 14.734375 L 142.769531 19.707031 L 143.597656 19.707031 L 143.597656 17.082031 C 143.597656 17.066406 143.597656 17.046875 143.597656 17.046875 C 143.597656 16.324219 143.976562 15.375 144.753906 15.375 L 144.804688 15.375 C 145.0625 15.375 145.269531 15.527344 145.53125 15.738281 Z M 145.53125 15.738281 "/>
<path fill-rule="nonzero" fill="rgb(46.665955%, 23.529053%, 13.725281%)" fill-opacity="1" d="M 179.933594 8.234375 L 179.933594 0.621094 L 179.105469 0.621094 L 179.105469 3.777344 L 175.445312 3.777344 L 175.445312 0.621094 L 174.617188 0.621094 L 174.617188 8.234375 L 175.445312 8.234375 L 175.445312 4.574219 L 179.105469 4.574219 L 179.105469 8.234375 Z M 179.933594 8.234375 "/>
<path fill-rule="nonzero" fill="rgb(46.665955%, 23.529053%, 13.725281%)" fill-opacity="1" d="M 182.28125 8.234375 L 182.28125 3.261719 L 181.449219 3.261719 L 181.449219 8.234375 Z M 181.863281 0.621094 C 181.605469 0.621094 181.382812 0.859375 181.382812 1.121094 C 181.382812 1.394531 181.605469 1.636719 181.863281 1.636719 C 182.140625 1.636719 182.347656 1.394531 182.347656 1.121094 C 182.347656 0.859375 182.140625 0.621094 181.863281 0.621094 Z M 181.863281 0.621094 "/>
<path fill-rule="nonzero" fill="rgb(46.665955%, 23.529053%, 13.725281%)" fill-opacity="1" d="M 183.519531 5.746094 C 183.519531 7.214844 184.484375 8.234375 185.96875 8.234375 L 188.078125 8.234375 L 188.078125 0.621094 L 187.25 0.621094 L 187.25 3.261719 L 186.039062 3.261719 C 184.417969 3.261719 183.519531 4.261719 183.519531 5.746094 Z M 184.3125 5.746094 C 184.3125 4.78125 184.933594 3.984375 186.039062 3.984375 L 187.25 3.984375 L 187.25 7.507812 L 186.039062 7.507812 C 184.953125 7.507812 184.3125 6.816406 184.3125 5.746094 Z M 184.3125 5.746094 "/>
<path fill-rule="nonzero" fill="rgb(46.665955%, 23.529053%, 13.725281%)" fill-opacity="1" d="M 189.320312 5.746094 C 189.320312 7.214844 190.285156 8.234375 191.773438 8.234375 L 193.878906 8.234375 L 193.878906 0.621094 L 193.050781 0.621094 L 193.050781 3.261719 L 191.839844 3.261719 C 190.21875 3.261719 189.320312 4.261719 189.320312 5.746094 Z M 190.113281 5.746094 C 190.113281 4.78125 190.734375 3.984375 191.839844 3.984375 L 193.050781 3.984375 L 193.050781 7.507812 L 191.839844 7.507812 C 190.753906 7.507812 190.113281 6.816406 190.113281 5.746094 Z M 190.113281 5.746094 "/>
<path fill-rule="nonzero" fill="rgb(46.665955%, 23.529053%, 13.725281%)" fill-opacity="1" d="M 199.660156 5.746094 L 199.660156 5.660156 C 199.660156 4.226562 199.074219 3.175781 197.433594 3.140625 C 195.96875 3.140625 195.136719 4.417969 195.136719 5.796875 C 195.136719 7.300781 196.054688 8.371094 197.574219 8.371094 C 198.261719 8.371094 198.882812 8.214844 199.488281 7.992188 L 199.488281 7.164062 C 198.695312 7.542969 198.574219 7.628906 197.640625 7.628906 C 196.605469 7.628906 195.984375 7.007812 195.984375 5.832031 L 195.984375 5.746094 Z M 198.851562 5.074219 L 196.019531 5.074219 C 196.121094 4.417969 196.605469 3.847656 197.433594 3.847656 C 198.296875 3.847656 198.851562 4.382812 198.851562 5.074219 Z M 198.851562 5.074219 "/>
<path fill-rule="nonzero" fill="rgb(46.665955%, 23.529053%, 13.725281%)" fill-opacity="1" d="M 205.136719 8.234375 L 205.136719 5.230469 C 205.136719 4.054688 204.636719 3.140625 203.359375 3.140625 C 202.722656 3.140625 202.066406 3.382812 201.667969 3.933594 L 201.667969 3.261719 L 200.855469 3.261719 L 200.855469 8.234375 L 201.667969 8.234375 L 201.667969 5.417969 C 201.703125 4.46875 202.289062 3.863281 203.171875 3.863281 C 204.035156 3.863281 204.34375 4.382812 204.34375 5.261719 L 204.34375 8.234375 Z M 205.136719 8.234375 "/>
<path fill-rule="nonzero" fill="rgb(46.665955%, 23.529053%, 13.725281%)" fill-opacity="1" d="M 209.773438 0.621094 L 210.585938 0.621094 L 210.585938 8.234375 L 209.773438 8.234375 Z M 209.773438 0.621094 "/>
<path fill-rule="nonzero" fill="rgb(46.665955%, 23.529053%, 13.725281%)" fill-opacity="1" d="M 215.910156 8.234375 L 215.910156 5.402344 C 215.910156 3.96875 215.304688 3.140625 213.820312 3.140625 C 213.285156 3.140625 212.628906 3.3125 212.148438 3.484375 L 212.148438 4.296875 C 212.648438 4.019531 213.0625 3.847656 213.753906 3.847656 C 214.546875 3.863281 215.152344 4.261719 215.152344 5.089844 L 214.011719 5.089844 C 212.835938 5.089844 211.800781 5.488281 211.800781 6.78125 C 211.835938 7.785156 212.421875 8.371094 213.425781 8.371094 C 214.132812 8.371094 214.769531 8.078125 215.152344 7.578125 L 215.152344 8.234375 Z M 215.152344 5.917969 C 215.152344 6.886719 214.703125 7.664062 213.667969 7.664062 C 213.0625 7.664062 212.5625 7.386719 212.5625 6.730469 C 212.5625 5.765625 213.476562 5.765625 214.339844 5.765625 L 215.152344 5.765625 Z M 215.152344 5.917969 "/>
<path fill-rule="nonzero" fill="rgb(46.665955%, 23.529053%, 13.725281%)" fill-opacity="1" d="M 221.417969 3.261719 L 220.660156 3.261719 L 219.121094 6.902344 L 217.328125 3.261719 L 216.550781 3.261719 L 218.707031 7.714844 L 217.863281 9.71875 C 217.722656 10.0625 217.257812 10.320312 217.03125 10.320312 L 217.308594 10.890625 C 217.722656 10.855469 218.15625 10.5625 218.429688 10.132812 Z M 221.417969 3.261719 "/>
<path fill-rule="nonzero" fill="rgb(46.665955%, 23.529053%, 13.725281%)" fill-opacity="1" d="M 226.421875 5.746094 L 226.421875 5.660156 C 226.421875 4.226562 225.832031 3.175781 224.191406 3.140625 C 222.726562 3.140625 221.898438 4.417969 221.898438 5.796875 C 221.898438 7.300781 222.8125 8.371094 224.332031 8.371094 C 225.023438 8.371094 225.644531 8.214844 226.246094 7.992188 L 226.246094 7.164062 C 225.453125 7.542969 225.332031 7.628906 224.398438 7.628906 C 223.363281 7.628906 222.742188 7.007812 222.742188 5.832031 L 222.742188 5.746094 Z M 225.609375 5.074219 L 222.777344 5.074219 C 222.882812 4.417969 223.363281 3.847656 224.191406 3.847656 C 225.054688 3.847656 225.609375 4.382812 225.609375 5.074219 Z M 225.609375 5.074219 "/>
<path fill-rule="nonzero" fill="rgb(46.665955%, 23.529053%, 13.725281%)" fill-opacity="1" d="M 230.378906 4.261719 L 230.636719 3.46875 C 230.515625 3.328125 229.980469 3.191406 229.617188 3.191406 C 229.101562 3.210938 228.667969 3.46875 228.445312 3.933594 L 228.445312 3.261719 L 227.617188 3.261719 L 227.617188 8.234375 L 228.445312 8.234375 L 228.445312 5.609375 C 228.445312 5.589844 228.445312 5.574219 228.445312 5.574219 C 228.445312 4.847656 228.824219 3.898438 229.601562 3.898438 L 229.652344 3.898438 C 229.910156 3.898438 230.117188 4.054688 230.378906 4.261719 Z M 230.378906 4.261719 "/>
<path fill-rule="nonzero" fill="rgb(0%, 0%, 0%)" fill-opacity="1" d="M 261.082031 15.996094 C 261.082031 13.90625 260.117188 12.023438 257.839844 12.023438 C 255.609375 12.023438 254.628906 13.957031 254.628906 15.996094 C 254.628906 18.03125 255.628906 19.929688 257.839844 19.929688 C 260.101562 19.929688 261.082031 18.085938 261.082031 15.996094 Z M 260.273438 15.996094 C 260.273438 17.53125 259.597656 19.1875 257.839844 19.1875 C 256.113281 19.1875 255.4375 17.515625 255.4375 15.996094 C 255.4375 14.425781 256.078125 12.765625 257.839844 12.765625 C 259.632812 12.765625 260.273438 14.40625 260.273438 15.996094 Z M 260.273438 15.996094 "/>
<path fill-rule="nonzero" fill="rgb(0%, 0%, 0%)" fill-opacity="1" d="M 266.570312 19.777344 L 266.570312 14.804688 L 265.726562 14.804688 L 265.726562 17.617188 C 265.726562 18.550781 265.257812 19.1875 264.257812 19.1875 C 263.378906 19.1875 263.066406 18.636719 263.066406 17.789062 L 263.066406 14.804688 L 262.273438 14.804688 L 262.273438 17.808594 C 262.273438 18.980469 262.824219 19.914062 264.066406 19.914062 C 264.707031 19.914062 265.363281 19.550781 265.726562 19.121094 L 265.726562 19.777344 Z M 266.570312 19.777344 "/>
<path fill-rule="nonzero" fill="rgb(0%, 0%, 0%)" fill-opacity="1" d="M 270.871094 19.777344 L 270.871094 19.066406 L 270.007812 19.066406 C 269.230469 19.066406 269.09375 18.878906 269.09375 18.152344 L 269.09375 15.460938 L 270.558594 15.460938 L 270.558594 14.804688 L 269.09375 14.804688 L 269.09375 13.386719 L 268.746094 13.386719 L 268.28125 14.804688 L 267.695312 14.804688 L 267.695312 15.460938 L 268.28125 15.460938 L 268.28125 18.152344 C 268.28125 19.394531 268.78125 19.777344 270.007812 19.777344 Z M 270.871094 19.777344 "/>
<path fill-rule="nonzero" fill="rgb(0%, 0%, 0%)" fill-opacity="1" d="M 276.445312 17.289062 C 276.445312 15.839844 275.480469 14.804688 274.011719 14.804688 L 271.890625 14.804688 L 271.890625 22.433594 L 272.71875 22.433594 L 272.71875 19.777344 L 273.945312 19.777344 C 275.550781 19.777344 276.445312 18.773438 276.445312 17.289062 Z M 275.652344 17.289062 C 275.652344 18.273438 275.03125 19.050781 273.945312 19.050781 L 272.71875 19.050781 L 272.71875 15.527344 L 273.945312 15.527344 C 275.015625 15.527344 275.652344 16.238281 275.652344 17.289062 Z M 275.652344 17.289062 "/>
<path fill-rule="nonzero" fill="rgb(0%, 0%, 0%)" fill-opacity="1" d="M 281.957031 19.777344 L 281.957031 14.804688 L 281.113281 14.804688 L 281.113281 17.617188 C 281.113281 18.550781 280.648438 19.1875 279.644531 19.1875 C 278.765625 19.1875 278.453125 18.636719 278.453125 17.789062 L 278.453125 14.804688 L 277.660156 14.804688 L 277.660156 17.808594 C 277.660156 18.980469 278.210938 19.914062 279.457031 19.914062 C 280.09375 19.914062 280.75 19.550781 281.113281 19.121094 L 281.113281 19.777344 Z M 281.957031 19.777344 "/>
<path fill-rule="nonzero" fill="rgb(0%, 0%, 0%)" fill-opacity="1" d="M 286.257812 19.777344 L 286.257812 19.066406 L 285.394531 19.066406 C 284.621094 19.066406 284.480469 18.878906 284.480469 18.152344 L 284.480469 15.460938 L 285.949219 15.460938 L 285.949219 14.804688 L 284.480469 14.804688 L 284.480469 13.386719 L 284.136719 13.386719 L 283.667969 14.804688 L 283.082031 14.804688 L 283.082031 15.460938 L 283.667969 15.460938 L 283.667969 18.152344 C 283.667969 19.394531 284.171875 19.777344 285.394531 19.777344 Z M 286.257812 19.777344 "/>
<path fill-rule="nonzero" fill="rgb(0%, 0%, 0%)" fill-opacity="1" d="M 290.457031 12.164062 L 291.269531 12.164062 L 291.269531 19.777344 L 290.457031 19.777344 Z M 290.457031 12.164062 "/>
<path fill-rule="nonzero" fill="rgb(0%, 0%, 0%)" fill-opacity="1" d="M 296.597656 19.777344 L 296.597656 16.945312 C 296.597656 15.511719 295.992188 14.683594 294.507812 14.683594 C 293.972656 14.683594 293.316406 14.855469 292.832031 15.027344 L 292.832031 15.839844 C 293.332031 15.5625 293.746094 15.390625 294.4375 15.390625 C 295.234375 15.410156 295.835938 15.804688 295.835938 16.632812 L 294.699219 16.632812 C 293.523438 16.632812 292.488281 17.03125 292.488281 18.324219 C 292.523438 19.328125 293.109375 19.914062 294.109375 19.914062 C 294.816406 19.914062 295.457031 19.621094 295.835938 19.121094 L 295.835938 19.777344 Z M 295.835938 17.460938 C 295.835938 18.429688 295.386719 19.207031 294.351562 19.207031 C 293.746094 19.207031 293.246094 18.929688 293.246094 18.273438 C 293.246094 17.308594 294.164062 17.308594 295.027344 17.308594 L 295.835938 17.308594 Z M 295.835938 17.460938 "/>
<path fill-rule="nonzero" fill="rgb(0%, 0%, 0%)" fill-opacity="1" d="M 302.105469 14.804688 L 301.34375 14.804688 L 299.808594 18.445312 L 298.011719 14.804688 L 297.234375 14.804688 L 299.394531 19.257812 L 298.546875 21.261719 C 298.410156 21.605469 297.945312 21.863281 297.71875 21.863281 L 297.996094 22.433594 C 298.410156 22.398438 298.839844 22.105469 299.117188 21.675781 Z M 302.105469 14.804688 "/>
<path fill-rule="nonzero" fill="rgb(0%, 0%, 0%)" fill-opacity="1" d="M 307.105469 17.289062 L 307.105469 17.203125 C 307.105469 15.769531 306.519531 14.71875 304.878906 14.683594 C 303.410156 14.683594 302.582031 15.960938 302.582031 17.34375 C 302.582031 18.84375 303.496094 19.914062 305.015625 19.914062 C 305.707031 19.914062 306.328125 19.757812 306.933594 19.535156 L 306.933594 18.707031 C 306.140625 19.085938 306.019531 19.171875 305.085938 19.171875 C 304.050781 19.171875 303.429688 18.550781 303.429688 17.375 L 303.429688 17.289062 Z M 306.292969 16.617188 L 303.464844 16.617188 C 303.566406 15.960938 304.050781 15.390625 304.878906 15.390625 C 305.742188 15.390625 306.292969 15.925781 306.292969 16.617188 Z M 306.292969 16.617188 "/>
<path fill-rule="nonzero" fill="rgb(0%, 0%, 0%)" fill-opacity="1" d="M 311.0625 15.804688 L 311.324219 15.011719 C 311.203125 14.875 310.667969 14.734375 310.304688 14.734375 C 309.785156 14.753906 309.355469 15.011719 309.128906 15.476562 L 309.128906 14.804688 L 308.300781 14.804688 L 308.300781 19.777344 L 309.128906 19.777344 L 309.128906 17.152344 C 309.128906 17.132812 309.128906 17.117188 309.128906 17.117188 C 309.128906 16.390625 309.511719 15.441406 310.285156 15.441406 L 310.339844 15.441406 C 310.597656 15.441406 310.804688 15.597656 311.0625 15.804688 Z M 311.0625 15.804688 "/>
<path fill="none" stroke-width="0.751181" stroke-linecap="butt" stroke-linejoin="miter" stroke="rgb(46.665955%, 23.529053%, 13.725281%)" stroke-opacity="1" stroke-dasharray="0.751181 0.751181" stroke-miterlimit="4" d="M 236.035156 118.28125 C 233.117188 119.175781 228.257812 119.210938 224.597656 117.71875 C 221.234375 116.347656 218.863281 114.234375 216.253906 111.8125 "/>
<path fill-rule="evenodd" fill="rgb(46.665955%, 23.529053%, 13.725281%)" fill-opacity="1" stroke-width="0.29363" stroke-linecap="butt" stroke-linejoin="miter" stroke="rgb(46.665955%, 23.529053%, 13.725281%)" stroke-opacity="1" stroke-miterlimit="4" d="M 174.121225 -47.764125 L 175.219715 -48.865801 L 171.368093 -47.76329 L 175.220803 -46.663686 Z M 174.121225 -47.764125 " transform="matrix(1, 0.928224, -0.928224, 1, 0, 0)"/>
<path fill="none" stroke-width="0.751181" stroke-linecap="butt" stroke-linejoin="miter" stroke="rgb(27.842712%, 40.391541%, 47.450256%)" stroke-opacity="1" stroke-dasharray="0.751181 0.751181" stroke-miterlimit="4" d="M 152.707031 116.453125 C 153.242188 113.445312 155.425781 109.105469 158.417969 106.527344 C 161.171875 104.15625 164.132812 103.007812 167.476562 101.789062 "/>
<path fill-rule="evenodd" fill="rgb(27.842712%, 40.391541%, 47.450256%)" fill-opacity="1" stroke-width="0.376387" stroke-linecap="butt" stroke-linejoin="miter" stroke="rgb(27.842712%, 40.391541%, 47.450256%)" stroke-opacity="1" stroke-miterlimit="4" d="M -112.239931 -143.744585 L -110.825862 -145.158633 L -115.766925 -143.745543 L -110.828073 -142.335221 Z M -112.239931 -143.744585 " transform="matrix(-1, 0.364649, -0.364649, -1, 0, 0)"/>
<path fill-rule="nonzero" fill="rgb(46.665955%, 23.529053%, 13.725281%)" fill-opacity="1" d="M 247.8125 111.144531 L 247.8125 103.53125 L 246.984375 103.53125 L 246.984375 109.679688 L 243.308594 103.53125 L 242.53125 103.53125 L 242.53125 111.144531 L 243.34375 111.144531 L 243.34375 105.019531 L 246.984375 111.144531 Z M 247.8125 111.144531 "/>
<path fill-rule="nonzero" fill="rgb(46.665955%, 23.529053%, 13.725281%)" fill-opacity="1" d="M 253.597656 108.660156 L 253.597656 108.574219 C 253.597656 107.140625 253.011719 106.089844 251.371094 106.054688 C 249.902344 106.054688 249.074219 107.332031 249.074219 108.710938 C 249.074219 110.214844 249.988281 111.285156 251.507812 111.285156 C 252.199219 111.285156 252.820312 111.128906 253.425781 110.90625 L 253.425781 110.074219 C 252.628906 110.457031 252.507812 110.542969 251.578125 110.542969 C 250.542969 110.542969 249.921875 109.921875 249.921875 108.746094 L 249.921875 108.660156 Z M 252.785156 107.988281 L 249.953125 107.988281 C 250.058594 107.332031 250.542969 106.761719 251.371094 106.761719 C 252.234375 106.761719 252.785156 107.296875 252.785156 107.988281 Z M 252.785156 107.988281 "/>
<path fill-rule="nonzero" fill="rgb(46.665955%, 23.529053%, 13.725281%)" fill-opacity="1" d="M 259.039062 111.144531 L 259.039062 106.175781 L 258.195312 106.175781 L 258.195312 108.988281 C 258.195312 109.921875 257.726562 110.558594 256.726562 110.558594 C 255.847656 110.558594 255.535156 110.007812 255.535156 109.160156 L 255.535156 106.175781 L 254.742188 106.175781 L 254.742188 109.179688 C 254.742188 110.351562 255.292969 111.285156 256.535156 111.285156 C 257.175781 111.285156 257.832031 110.921875 258.195312 110.492188 L 258.195312 111.144531 Z M 259.039062 111.144531 "/>
<path fill-rule="nonzero" fill="rgb(46.665955%, 23.529053%, 13.725281%)" fill-opacity="1" d="M 263.324219 107.175781 L 263.582031 106.382812 C 263.460938 106.242188 262.925781 106.105469 262.5625 106.105469 C 262.046875 106.121094 261.613281 106.382812 261.390625 106.847656 L 261.390625 106.175781 L 260.5625 106.175781 L 260.5625 111.144531 L 261.390625 111.144531 L 261.390625 108.523438 C 261.390625 108.503906 261.390625 108.488281 261.390625 108.488281 C 261.390625 107.761719 261.769531 106.8125 262.546875 106.8125 L 262.597656 106.8125 C 262.855469 106.8125 263.0625 106.96875 263.324219 107.175781 Z M 263.324219 107.175781 "/>
<path fill-rule="nonzero" fill="rgb(46.665955%, 23.529053%, 13.725281%)" fill-opacity="1" d="M 268.589844 108.660156 C 268.589844 107.398438 267.917969 106.054688 266.261719 106.054688 C 264.757812 106.054688 263.910156 107.210938 263.910156 108.660156 C 263.910156 110.023438 264.792969 111.25 266.261719 111.285156 C 267.746094 111.25 268.589844 110.058594 268.589844 108.660156 Z M 267.777344 108.660156 C 267.777344 109.644531 267.175781 110.523438 266.261719 110.523438 C 265.015625 110.507812 264.742188 109.402344 264.742188 108.644531 C 264.742188 107.640625 265.222656 106.8125 266.261719 106.796875 C 267.226562 106.8125 267.777344 107.710938 267.777344 108.660156 Z M 267.777344 108.660156 "/>
<path fill-rule="nonzero" fill="rgb(46.665955%, 23.529053%, 13.725281%)" fill-opacity="1" d="M 274.164062 111.144531 L 274.164062 108.140625 C 274.164062 106.96875 273.664062 106.054688 272.386719 106.054688 C 271.75 106.054688 271.09375 106.296875 270.695312 106.847656 L 270.695312 106.175781 L 269.882812 106.175781 L 269.882812 111.144531 L 270.695312 111.144531 L 270.695312 108.332031 C 270.730469 107.382812 271.316406 106.777344 272.195312 106.777344 C 273.058594 106.777344 273.371094 107.296875 273.371094 108.175781 L 273.371094 111.144531 Z M 274.164062 111.144531 "/>
<path fill-rule="nonzero" fill="rgb(46.665955%, 23.529053%, 13.725281%)" fill-opacity="1" d="M 283.339844 108.660156 C 283.339844 107.398438 282.667969 106.054688 281.007812 106.054688 C 279.507812 106.054688 278.660156 107.210938 278.660156 108.660156 C 278.660156 110.023438 279.542969 111.25 281.007812 111.285156 C 282.496094 111.25 283.339844 110.058594 283.339844 108.660156 Z M 282.527344 108.660156 C 282.527344 109.644531 281.925781 110.523438 281.007812 110.523438 C 279.765625 110.507812 279.492188 109.402344 279.492188 108.644531 C 279.492188 107.640625 279.972656 106.8125 281.007812 106.796875 C 281.976562 106.8125 282.527344 107.710938 282.527344 108.660156 Z M 282.527344 108.660156 "/>
<path fill-rule="nonzero" fill="rgb(46.665955%, 23.529053%, 13.725281%)" fill-opacity="1" d="M 287.394531 107.175781 L 287.65625 106.382812 C 287.535156 106.242188 287 106.105469 286.636719 106.105469 C 286.117188 106.121094 285.6875 106.382812 285.460938 106.847656 L 285.460938 106.175781 L 284.632812 106.175781 L 284.632812 111.144531 L 285.460938 111.144531 L 285.460938 108.523438 C 285.460938 108.503906 285.460938 108.488281 285.460938 108.488281 C 285.460938 107.761719 285.84375 106.8125 286.617188 106.8125 L 286.671875 106.8125 C 286.929688 106.8125 287.136719 106.96875 287.394531 107.175781 Z M 287.394531 107.175781 "/>
<path fill-rule="nonzero" fill="rgb(46.665955%, 23.529053%, 13.725281%)" fill-opacity="1" d="M 243.988281 124.355469 L 243.988281 121.332031 C 243.988281 120.175781 243.472656 119.261719 242.210938 119.261719 C 241.539062 119.261719 240.898438 119.46875 240.519531 120.074219 L 240.519531 116.742188 L 239.707031 116.742188 L 239.707031 124.355469 L 240.519531 124.355469 L 240.519531 121.542969 C 240.554688 120.589844 241.191406 119.988281 242.019531 119.988281 C 242.902344 120.003906 243.195312 120.503906 243.195312 121.386719 L 243.195312 124.355469 Z M 243.988281 124.355469 "/>
<path fill-rule="nonzero" fill="rgb(46.665955%, 23.529053%, 13.725281%)" fill-opacity="1" d="M 246.269531 124.355469 L 246.269531 119.382812 L 245.441406 119.382812 L 245.441406 124.355469 Z M 245.855469 116.742188 C 245.597656 116.742188 245.375 116.984375 245.375 117.242188 C 245.375 117.519531 245.597656 117.761719 245.855469 117.761719 C 246.132812 117.761719 246.339844 117.519531 246.339844 117.242188 C 246.339844 116.984375 246.132812 116.742188 245.855469 116.742188 Z M 245.855469 116.742188 "/>
<path fill-rule="nonzero" fill="rgb(46.665955%, 23.529053%, 13.725281%)" fill-opacity="1" d="M 247.511719 121.867188 C 247.511719 123.335938 248.476562 124.355469 249.960938 124.355469 L 252.070312 124.355469 L 252.070312 116.742188 L 251.238281 116.742188 L 251.238281 119.382812 L 250.03125 119.382812 C 248.410156 119.382812 247.511719 120.382812 247.511719 121.867188 Z M 248.304688 121.867188 C 248.304688 120.902344 248.925781 120.109375 250.03125 120.109375 L 251.238281 120.109375 L 251.238281 123.628906 L 250.03125 123.628906 C 248.945312 123.628906 248.304688 122.9375 248.304688 121.867188 Z M 248.304688 121.867188 "/>
<path fill-rule="nonzero" fill="rgb(46.665955%, 23.529053%, 13.725281%)" fill-opacity="1" d="M 253.3125 121.867188 C 253.3125 123.335938 254.277344 124.355469 255.761719 124.355469 L 257.871094 124.355469 L 257.871094 116.742188 L 257.039062 116.742188 L 257.039062 119.382812 L 255.832031 119.382812 C 254.210938 119.382812 253.3125 120.382812 253.3125 121.867188 Z M 254.105469 121.867188 C 254.105469 120.902344 254.726562 120.109375 255.832031 120.109375 L 257.039062 120.109375 L 257.039062 123.628906 L 255.832031 123.628906 C 254.746094 123.628906 254.105469 122.9375 254.105469 121.867188 Z M 254.105469 121.867188 "/>
<path fill-rule="nonzero" fill="rgb(46.665955%, 23.529053%, 13.725281%)" fill-opacity="1" d="M 263.652344 121.867188 L 263.652344 121.78125 C 263.652344 120.351562 263.066406 119.296875 261.425781 119.261719 C 259.957031 119.261719 259.128906 120.539062 259.128906 121.921875 C 259.128906 123.421875 260.042969 124.492188 261.5625 124.492188 C 262.253906 124.492188 262.875 124.335938 263.480469 124.113281 L 263.480469 123.285156 C 262.6875 123.664062 262.566406 123.75 261.632812 123.75 C 260.597656 123.75 259.976562 123.128906 259.976562 121.957031 L 259.976562 121.867188 Z M 262.839844 121.195312 L 260.011719 121.195312 C 260.113281 120.539062 260.597656 119.96875 261.425781 119.96875 C 262.289062 119.96875 262.839844 120.503906 262.839844 121.195312 Z M 262.839844 121.195312 "/>
<path fill-rule="nonzero" fill="rgb(46.665955%, 23.529053%, 13.725281%)" fill-opacity="1" d="M 269.128906 124.355469 L 269.128906 121.351562 C 269.128906 120.175781 268.628906 119.261719 267.351562 119.261719 C 266.710938 119.261719 266.058594 119.503906 265.660156 120.054688 L 265.660156 119.382812 L 264.847656 119.382812 L 264.847656 124.355469 L 265.660156 124.355469 L 265.660156 121.542969 C 265.695312 120.589844 266.28125 119.988281 267.160156 119.988281 C 268.023438 119.988281 268.335938 120.503906 268.335938 121.386719 L 268.335938 124.355469 Z M 269.128906 124.355469 "/>
<path fill-rule="nonzero" fill="rgb(46.665955%, 23.529053%, 13.725281%)" fill-opacity="1" d="M 278.132812 124.355469 L 278.132812 119.382812 L 277.285156 119.382812 L 277.285156 122.195312 C 277.285156 123.128906 276.820312 123.769531 275.820312 123.769531 C 274.9375 123.769531 274.628906 123.214844 274.628906 122.371094 L 274.628906 119.382812 L 273.832031 119.382812 L 273.832031 122.386719 C 273.832031 123.5625 274.386719 124.492188 275.628906 124.492188 C 276.269531 124.492188 276.921875 124.128906 277.285156 123.699219 L 277.285156 124.355469 Z M 278.132812 124.355469 "/>
<path fill-rule="nonzero" fill="rgb(46.665955%, 23.529053%, 13.725281%)" fill-opacity="1" d="M 283.933594 124.355469 L 283.933594 121.351562 C 283.933594 120.175781 283.433594 119.261719 282.15625 119.261719 C 281.519531 119.261719 280.863281 119.503906 280.464844 120.054688 L 280.464844 119.382812 L 279.652344 119.382812 L 279.652344 124.355469 L 280.464844 124.355469 L 280.464844 121.542969 C 280.5 120.589844 281.085938 119.988281 281.964844 119.988281 C 282.828125 119.988281 283.140625 120.503906 283.140625 121.386719 L 283.140625 124.355469 Z M 283.933594 124.355469 "/>
<path fill-rule="nonzero" fill="rgb(46.665955%, 23.529053%, 13.725281%)" fill-opacity="1" d="M 286.214844 124.355469 L 286.214844 119.382812 L 285.386719 119.382812 L 285.386719 124.355469 Z M 285.800781 116.742188 C 285.542969 116.742188 285.320312 116.984375 285.320312 117.242188 C 285.320312 117.519531 285.542969 117.761719 285.800781 117.761719 C 286.078125 117.761719 286.285156 117.519531 286.285156 117.242188 C 286.285156 116.984375 286.078125 116.742188 285.800781 116.742188 Z M 285.800781 116.742188 "/>
<path fill-rule="nonzero" fill="rgb(46.665955%, 23.529053%, 13.725281%)" fill-opacity="1" d="M 290.511719 124.355469 L 290.511719 123.648438 L 289.648438 123.648438 C 288.871094 123.648438 288.734375 123.457031 288.734375 122.730469 L 288.734375 120.039062 L 290.203125 120.039062 L 290.203125 119.382812 L 288.734375 119.382812 L 288.734375 117.96875 L 288.386719 117.96875 L 287.921875 119.382812 L 287.335938 119.382812 L 287.335938 120.039062 L 287.921875 120.039062 L 287.921875 122.730469 C 287.921875 123.976562 288.421875 124.355469 289.648438 124.355469 Z M 290.511719 124.355469 "/>
<path fill="none" stroke-width="0.850394" stroke-linecap="butt" stroke-linejoin="miter" stroke="rgb(46.665955%, 23.529053%, 13.725281%)" stroke-opacity="1" stroke-miterlimit="4" d="M 213.734375 77.851562 C 213.734375 83.984375 208.761719 88.957031 202.625 88.957031 C 196.492188 88.957031 191.519531 83.984375 191.519531 77.851562 C 191.519531 71.714844 196.492188 66.742188 202.625 66.742188 C 208.761719 66.742188 213.734375 71.714844 213.734375 77.851562 Z M 213.734375 77.851562 "/>
<path fill="none" stroke-width="0.850394" stroke-linecap="butt" stroke-linejoin="miter" stroke="rgb(46.665955%, 23.529053%, 13.725281%)" stroke-opacity="1" stroke-miterlimit="4" d="M 213.734375 50.113281 C 213.734375 56.246094 208.761719 61.21875 202.625 61.21875 C 196.492188 61.21875 191.519531 56.246094 191.519531 50.113281 C 191.519531 43.976562 196.492188 39.003906 202.625 39.003906 C 208.761719 39.003906 213.734375 43.976562 213.734375 50.113281 Z M 213.734375 50.113281 "/>
<path fill="none" stroke-width="0.850394" stroke-linecap="butt" stroke-linejoin="miter" stroke="rgb(0%, 0%, 0%)" stroke-opacity="1" stroke-miterlimit="4" d="M 133.140625 63.980469 C 133.140625 70.117188 128.167969 75.089844 122.03125 75.089844 C 115.898438 75.089844 110.925781 70.117188 110.925781 63.980469 C 110.925781 57.847656 115.898438 52.875 122.03125 52.875 C 128.167969 52.875 133.140625 57.847656 133.140625 63.980469 Z M 133.140625 63.980469 "/>
<path fill="none" stroke-width="0.850394" stroke-linecap="butt" stroke-linejoin="miter" stroke="rgb(0%, 0%, 0%)" stroke-opacity="1" stroke-miterlimit="4" d="M 133.140625 92.089844 C 133.140625 98.226562 128.167969 103.199219 122.03125 103.199219 C 115.898438 103.199219 110.925781 98.226562 110.925781 92.089844 C 110.925781 85.957031 115.898438 80.984375 122.03125 80.984375 C 128.167969 80.984375 133.140625 85.957031 133.140625 92.089844 Z M 133.140625 92.089844 "/>
<path fill="none" stroke-width="0.850394" stroke-linecap="butt" stroke-linejoin="miter" stroke="rgb(0%, 0%, 0%)" stroke-opacity="1" stroke-miterlimit="4" d="M 133.140625 35.871094 C 133.140625 42.007812 128.167969 46.980469 122.03125 46.980469 C 115.898438 46.980469 110.925781 42.007812 110.925781 35.871094 C 110.925781 29.738281 115.898438 24.765625 122.03125 24.765625 C 128.167969 24.765625 133.140625 29.738281 133.140625 35.871094 Z M 133.140625 35.871094 "/>
<path fill-rule="nonzero" fill="rgb(27.842712%, 40.391541%, 47.450256%)" fill-opacity="1" d="M 141.457031 115.167969 L 140.628906 115.167969 L 139.039062 120.363281 L 137.019531 114.976562 L 135.070312 120.363281 L 133.445312 115.167969 L 132.617188 115.167969 L 134.964844 122.9375 L 137.019531 117.171875 L 139.144531 122.9375 Z M 141.457031 115.167969 "/>
<path fill-rule="nonzero" fill="rgb(27.842712%, 40.391541%, 47.450256%)" fill-opacity="1" d="M 146.089844 120.296875 L 146.089844 120.210938 C 146.089844 118.777344 145.503906 117.722656 143.863281 117.6875 C 142.398438 117.6875 141.570312 118.964844 141.570312 120.347656 C 141.570312 121.847656 142.484375 122.917969 144.003906 122.917969 C 144.691406 122.917969 145.316406 122.765625 145.917969 122.539062 L 145.917969 121.710938 C 145.125 122.089844 145.003906 122.175781 144.070312 122.175781 C 143.035156 122.175781 142.414062 121.554688 142.414062 120.382812 L 142.414062 120.296875 Z M 145.28125 119.621094 L 142.449219 119.621094 C 142.550781 118.964844 143.035156 118.398438 143.863281 118.398438 C 144.726562 118.398438 145.28125 118.933594 145.28125 119.621094 Z M 145.28125 119.621094 "/>
<path fill-rule="nonzero" fill="rgb(27.842712%, 40.391541%, 47.450256%)" fill-opacity="1" d="M 148.117188 122.78125 L 148.117188 117.808594 L 147.289062 117.808594 L 147.289062 122.78125 Z M 147.703125 115.167969 C 147.441406 115.167969 147.21875 115.410156 147.21875 115.667969 C 147.21875 115.945312 147.441406 116.1875 147.703125 116.1875 C 147.976562 116.1875 148.183594 115.945312 148.183594 115.667969 C 148.183594 115.410156 147.976562 115.167969 147.703125 115.167969 Z M 147.703125 115.167969 "/>
<g clip-path="url(#clip-0)">
<path fill-rule="nonzero" fill="rgb(27.842712%, 40.391541%, 47.450256%)" fill-opacity="1" d="M 151.132812 122.660156 C 152.066406 122.660156 152.703125 123.109375 152.703125 123.714844 C 152.703125 124.316406 152.066406 124.75 151.132812 124.75 C 150.203125 124.75 149.683594 124.316406 149.683594 123.714844 C 149.683594 123.109375 150.203125 122.660156 151.132812 122.660156 Z M 151.132812 121.953125 C 151.046875 121.953125 150.960938 121.953125 150.855469 121.96875 C 150.339844 121.96875 149.890625 121.660156 149.890625 121.453125 C 149.890625 121.210938 150.167969 121.125 150.375 121.125 L 150.441406 121.125 C 150.617188 121.28125 151.132812 121.332031 151.289062 121.332031 C 152.238281 121.332031 153 120.519531 153 119.519531 C 153 119.121094 152.859375 118.742188 152.636719 118.449219 L 153.445312 118.449219 L 153.445312 117.828125 L 152.046875 117.828125 C 151.824219 117.757812 151.511719 117.722656 151.339844 117.722656 C 150.390625 117.722656 149.597656 118.535156 149.5625 119.519531 C 149.5625 120.003906 149.734375 120.433594 150.046875 120.746094 C 149.683594 120.8125 149.285156 121.054688 149.285156 121.519531 C 149.285156 121.816406 149.476562 122.089844 149.875 122.261719 C 149.234375 122.589844 148.855469 123.125 148.855469 123.695312 C 148.855469 124.59375 149.769531 125.421875 151.132812 125.421875 C 152.515625 125.421875 153.636719 124.59375 153.636719 123.714844 C 153.636719 122.558594 152.289062 121.953125 151.132812 121.953125 Z M 151.289062 118.414062 C 151.875 118.414062 152.359375 118.898438 152.359375 119.5 C 152.359375 120.089844 151.875 120.570312 151.289062 120.570312 C 150.683594 120.570312 150.21875 120.089844 150.21875 119.5 C 150.21875 118.898438 150.683594 118.414062 151.289062 118.414062 Z M 151.289062 118.414062 "/>
</g>
<path fill-rule="nonzero" fill="rgb(27.842712%, 40.391541%, 47.450256%)" fill-opacity="1" d="M 159.019531 122.78125 L 159.019531 119.761719 C 159.019531 118.605469 158.503906 117.6875 157.242188 117.6875 C 156.570312 117.6875 155.929688 117.894531 155.550781 118.5 L 155.550781 115.167969 L 154.738281 115.167969 L 154.738281 122.78125 L 155.550781 122.78125 L 155.550781 119.96875 C 155.585938 119.019531 156.222656 118.414062 157.050781 118.414062 C 157.933594 118.429688 158.226562 118.933594 158.226562 119.8125 L 158.226562 122.78125 Z M 159.019531 122.78125 "/>
<path fill-rule="nonzero" fill="rgb(27.842712%, 40.391541%, 47.450256%)" fill-opacity="1" d="M 163.054688 122.78125 L 163.054688 122.074219 L 162.191406 122.074219 C 161.414062 122.074219 161.277344 121.882812 161.277344 121.160156 L 161.277344 118.464844 L 162.746094 118.464844 L 162.746094 117.808594 L 161.277344 117.808594 L 161.277344 116.394531 L 160.933594 116.394531 L 160.464844 117.808594 L 159.878906 117.808594 L 159.878906 118.464844 L 160.464844 118.464844 L 160.464844 121.160156 C 160.464844 122.402344 160.964844 122.78125 162.191406 122.78125 Z M 163.054688 122.78125 "/>
</svg>
