<?xml version="1.0" encoding="UTF-8"?>
<svg xmlns="http://www.w3.org/2000/svg" xmlns:xlink="http://www.w3.org/1999/xlink" width="184.251953pt" height="79.282982pt" viewBox="0 0 184.251953 79.282982">
<defs>
<clipPath id="clip-0">
<path clip-rule="nonzero" d="M 76 51 L 109 51 L 109 79.28125 L 76 79.28125 Z M 76 51 "/>
</clipPath>
<clipPath id="clip-1">
<path clip-rule="nonzero" d="M 156 37 L 184.25 37 L 184.25 70 L 156 70 Z M 156 37 "/>
</clipPath>
<clipPath id="clip-2">
<path clip-rule="nonzero" d="M 156 9 L 184.25 9 L 184.25 42 L 156 42 Z M 156 9 "/>
</clipPath>
<clipPath id="clip-3">
<path clip-rule="nonzero" d="M 0 51 L 28 51 L 28 79.28125 L 0 79.28125 Z M 0 51 "/>
</clipPath>
</defs>
<path fill-rule="nonzero" fill="rgb(0%, 0%, 0%)" fill-opacity="1" d="M 89.761719 62.996094 C 89.761719 62.996094 89.761719 62.871094 89.621094 62.871094 C 89.351562 62.871094 88.53125 62.960938 88.230469 62.996094 C 88.140625 62.996094 88.015625 63.015625 88.015625 63.210938 C 88.015625 63.351562 88.125 63.351562 88.285156 63.351562 C 88.835938 63.351562 88.855469 63.425781 88.855469 63.550781 L 88.816406 63.78125 L 87.179688 70.320312 C 87.125 70.480469 87.125 70.496094 87.125 70.570312 C 87.125 70.835938 87.359375 70.890625 87.464844 70.890625 C 87.640625 70.890625 87.820312 70.746094 87.875 70.585938 L 88.085938 69.730469 L 88.335938 68.714844 C 88.410156 68.449219 88.480469 68.199219 88.53125 67.949219 C 88.550781 67.878906 88.65625 67.503906 88.65625 67.433594 C 88.695312 67.324219 89.050781 66.703125 89.441406 66.382812 C 89.691406 66.203125 90.03125 65.988281 90.527344 65.988281 C 91.007812 65.988281 91.132812 66.382812 91.132812 66.792969 C 91.132812 67.398438 90.707031 68.644531 90.4375 69.339844 C 90.351562 69.589844 90.277344 69.730469 90.277344 69.960938 C 90.277344 70.496094 90.6875 70.890625 91.222656 70.890625 C 92.292969 70.890625 92.703125 69.230469 92.703125 69.144531 C 92.703125 69.019531 92.613281 69.019531 92.578125 69.019531 C 92.453125 69.019531 92.453125 69.054688 92.398438 69.230469 C 92.238281 69.839844 91.863281 70.640625 91.242188 70.640625 C 91.046875 70.640625 90.972656 70.53125 90.972656 70.265625 C 90.972656 69.980469 91.0625 69.714844 91.167969 69.464844 C 91.347656 68.964844 91.863281 67.609375 91.863281 66.953125 C 91.863281 66.222656 91.417969 65.742188 90.5625 65.742188 C 89.851562 65.742188 89.300781 66.097656 88.871094 66.613281 Z M 89.761719 62.996094 "/>
<path fill-rule="nonzero" fill="rgb(0%, 0%, 0%)" fill-opacity="1" d="M 95.21875 69.8125 C 95.84375 69.8125 96.289062 70.242188 96.289062 71.097656 C 96.289062 72.074219 95.699219 72.378906 95.253906 72.378906 C 94.933594 72.378906 94.222656 72.289062 93.902344 71.808594 C 94.277344 71.808594 94.363281 71.542969 94.363281 71.363281 C 94.363281 71.113281 94.167969 70.9375 93.917969 70.9375 C 93.707031 70.9375 93.472656 71.078125 93.472656 71.398438 C 93.472656 72.148438 94.292969 72.628906 95.253906 72.628906 C 96.359375 72.628906 97.125 71.878906 97.125 71.097656 C 97.125 70.472656 96.628906 69.847656 95.753906 69.671875 C 96.574219 69.367188 96.875 68.78125 96.875 68.28125 C 96.875 67.65625 96.164062 67.195312 95.273438 67.195312 C 94.402344 67.195312 93.722656 67.621094 93.722656 68.261719 C 93.722656 68.53125 93.902344 68.671875 94.132812 68.671875 C 94.382812 68.671875 94.542969 68.496094 94.542969 68.28125 C 94.542969 68.050781 94.382812 67.871094 94.132812 67.855469 C 94.417969 67.515625 94.953125 67.425781 95.253906 67.425781 C 95.613281 67.425781 96.109375 67.605469 96.109375 68.28125 C 96.109375 68.621094 96.003906 68.992188 95.789062 69.226562 C 95.539062 69.527344 95.308594 69.546875 94.917969 69.582031 C 94.722656 69.597656 94.703125 69.597656 94.667969 69.597656 C 94.648438 69.597656 94.578125 69.617188 94.578125 69.707031 C 94.578125 69.8125 94.648438 69.8125 94.792969 69.8125 Z M 95.21875 69.8125 "/>
<path fill-rule="nonzero" fill="rgb(0%, 0%, 0%)" fill-opacity="1" d="M 89.921875 6.859375 C 89.921875 6.859375 89.921875 6.734375 89.78125 6.734375 C 89.511719 6.734375 88.695312 6.824219 88.390625 6.859375 C 88.300781 6.859375 88.175781 6.878906 88.175781 7.074219 C 88.175781 7.214844 88.285156 7.214844 88.445312 7.214844 C 88.996094 7.214844 89.015625 7.289062 89.015625 7.410156 L 88.980469 7.644531 L 87.339844 14.179688 C 87.285156 14.34375 87.285156 14.359375 87.285156 14.429688 C 87.285156 14.699219 87.519531 14.75 87.625 14.75 C 87.804688 14.75 87.980469 14.609375 88.035156 14.449219 L 88.25 13.59375 L 88.496094 12.578125 C 88.570312 12.3125 88.640625 12.0625 88.695312 11.8125 C 88.710938 11.742188 88.816406 11.367188 88.816406 11.296875 C 88.855469 11.1875 89.210938 10.566406 89.601562 10.246094 C 89.851562 10.066406 90.191406 9.851562 90.6875 9.851562 C 91.167969 9.851562 91.292969 10.246094 91.292969 10.652344 C 91.292969 11.261719 90.867188 12.507812 90.601562 13.203125 C 90.511719 13.449219 90.4375 13.59375 90.4375 13.824219 C 90.4375 14.359375 90.847656 14.75 91.382812 14.75 C 92.453125 14.75 92.863281 13.09375 92.863281 13.003906 C 92.863281 12.882812 92.773438 12.882812 92.738281 12.882812 C 92.613281 12.882812 92.613281 12.917969 92.558594 13.09375 C 92.398438 13.699219 92.023438 14.503906 91.402344 14.503906 C 91.207031 14.503906 91.132812 14.394531 91.132812 14.128906 C 91.132812 13.84375 91.222656 13.574219 91.328125 13.328125 C 91.507812 12.828125 92.023438 11.472656 92.023438 10.816406 C 92.023438 10.085938 91.578125 9.601562 90.722656 9.601562 C 90.011719 9.601562 89.460938 9.960938 89.03125 10.476562 Z M 89.921875 6.859375 "/>
<path fill-rule="nonzero" fill="rgb(0%, 0%, 0%)" fill-opacity="1" d="M 95.863281 11.269531 C 95.863281 11.058594 95.863281 11.058594 95.628906 11.058594 C 95.113281 11.554688 94.402344 11.554688 94.078125 11.554688 L 94.078125 11.839844 C 94.257812 11.839844 94.792969 11.839844 95.21875 11.628906 L 95.21875 15.671875 C 95.21875 15.9375 95.21875 16.046875 94.4375 16.046875 L 94.132812 16.046875 L 94.132812 16.332031 C 94.277344 16.332031 95.253906 16.292969 95.539062 16.292969 C 95.789062 16.292969 96.789062 16.332031 96.964844 16.332031 L 96.964844 16.046875 L 96.664062 16.046875 C 95.863281 16.046875 95.863281 15.9375 95.863281 15.671875 Z M 95.863281 11.269531 "/>
<path fill-rule="nonzero" fill="rgb(0%, 0%, 0%)" fill-opacity="1" d="M 89.796875 34.96875 C 89.796875 34.96875 89.796875 34.84375 89.65625 34.84375 C 89.386719 34.84375 88.570312 34.933594 88.265625 34.96875 C 88.175781 34.96875 88.050781 34.988281 88.050781 35.183594 C 88.050781 35.324219 88.160156 35.324219 88.320312 35.324219 C 88.871094 35.324219 88.890625 35.394531 88.890625 35.519531 L 88.855469 35.753906 L 87.214844 42.289062 C 87.160156 42.449219 87.160156 42.46875 87.160156 42.539062 C 87.160156 42.808594 87.394531 42.859375 87.5 42.859375 C 87.679688 42.859375 87.855469 42.71875 87.910156 42.558594 L 88.125 41.703125 L 88.371094 40.6875 C 88.445312 40.417969 88.515625 40.171875 88.570312 39.921875 C 88.585938 39.851562 88.695312 39.476562 88.695312 39.40625 C 88.730469 39.296875 89.085938 38.675781 89.476562 38.351562 C 89.726562 38.175781 90.066406 37.960938 90.5625 37.960938 C 91.046875 37.960938 91.167969 38.351562 91.167969 38.761719 C 91.167969 39.367188 90.742188 40.617188 90.476562 41.3125 C 90.386719 41.558594 90.316406 41.703125 90.316406 41.933594 C 90.316406 42.46875 90.722656 42.859375 91.257812 42.859375 C 92.328125 42.859375 92.738281 41.203125 92.738281 41.113281 C 92.738281 40.988281 92.648438 40.988281 92.613281 40.988281 C 92.488281 40.988281 92.488281 41.027344 92.433594 41.203125 C 92.273438 41.808594 91.898438 42.609375 91.277344 42.609375 C 91.082031 42.609375 91.007812 42.503906 91.007812 42.238281 C 91.007812 41.953125 91.097656 41.683594 91.207031 41.433594 C 91.382812 40.9375 91.898438 39.582031 91.898438 38.921875 C 91.898438 38.191406 91.453125 37.710938 90.601562 37.710938 C 89.886719 37.710938 89.335938 38.066406 88.90625 38.585938 Z M 89.796875 34.96875 "/>
<path fill-rule="nonzero" fill="rgb(0%, 0%, 0%)" fill-opacity="1" d="M 97.089844 42.996094 L 96.824219 42.996094 C 96.804688 43.175781 96.714844 43.636719 96.609375 43.707031 C 96.554688 43.761719 95.949219 43.761719 95.824219 43.761719 L 94.363281 43.761719 C 95.203125 43.03125 95.488281 42.800781 95.949219 42.425781 C 96.539062 41.964844 97.089844 41.464844 97.089844 40.714844 C 97.089844 39.753906 96.253906 39.167969 95.238281 39.167969 C 94.257812 39.167969 93.582031 39.859375 93.582031 40.589844 C 93.582031 40.984375 93.917969 41.035156 94.007812 41.035156 C 94.1875 41.035156 94.417969 40.894531 94.417969 40.609375 C 94.417969 40.464844 94.363281 40.179688 93.957031 40.179688 C 94.203125 39.628906 94.738281 39.449219 95.113281 39.449219 C 95.914062 39.449219 96.324219 40.074219 96.324219 40.714844 C 96.324219 41.410156 95.824219 41.945312 95.578125 42.230469 L 93.671875 44.136719 C 93.582031 44.207031 93.582031 44.226562 93.582031 44.4375 L 96.859375 44.4375 Z M 97.089844 42.996094 "/>
<path fill="none" stroke-width="0.850394" stroke-linecap="butt" stroke-linejoin="miter" stroke="rgb(0%, 0%, 0%)" stroke-opacity="1" stroke-miterlimit="4" d="M 103.234375 11.53125 C 103.234375 17.667969 98.261719 22.640625 92.125 22.640625 C 85.992188 22.640625 81.019531 17.667969 81.019531 11.53125 C 81.019531 5.398438 85.992188 0.425781 92.125 0.425781 C 98.261719 0.425781 103.234375 5.398438 103.234375 11.53125 Z M 103.234375 11.53125 "/>
<path fill="none" stroke-width="0.850394" stroke-linecap="butt" stroke-linejoin="miter" stroke="rgb(0%, 0%, 0%)" stroke-opacity="1" stroke-miterlimit="4" d="M 103.234375 39.640625 C 103.234375 45.777344 98.261719 50.75 92.125 50.75 C 85.992188 50.75 81.019531 45.777344 81.019531 39.640625 C 81.019531 33.507812 85.992188 28.535156 92.125 28.535156 C 98.261719 28.535156 103.234375 33.507812 103.234375 39.640625 Z M 103.234375 39.640625 "/>
<path fill="none" stroke-width="0.850394" stroke-linecap="butt" stroke-linejoin="miter" stroke="rgb(0%, 0%, 0%)" stroke-opacity="1" stroke-miterlimit="4" d="M 21.675781 35.429688 L 79.46875 14.503906 "/>
<path fill-rule="evenodd" fill="rgb(0%, 0%, 0%)" fill-opacity="1" stroke-width="0.426446" stroke-linecap="butt" stroke-linejoin="miter" stroke="rgb(0%, 0%, 0%)" stroke-opacity="1" stroke-miterlimit="4" d="M -62.414778 -38.261172 L -60.815645 -39.861797 L -66.410324 -38.262686 L -60.814153 -36.662038 Z M -62.414778 -38.261172 " transform="matrix(-1, 0.36211, -0.36211, -1, 0, 0)"/>
<path fill="none" stroke-width="0.850394" stroke-linecap="butt" stroke-linejoin="miter" stroke="rgb(0%, 0%, 0%)" stroke-opacity="1" stroke-miterlimit="4" d="M 22.429688 43.195312 L 79.367188 64.84375 "/>
<path fill-rule="evenodd" fill="rgb(0%, 0%, 0%)" fill-opacity="1" stroke-width="0.423934" stroke-linecap="butt" stroke-linejoin="miter" stroke="rgb(0%, 0%, 0%)" stroke-opacity="1" stroke-miterlimit="4" d="M -87.704286 -30.289795 L -86.113262 -31.879109 L -91.680765 -30.289577 L -86.114972 -28.698772 Z M -87.704286 -30.289795 " transform="matrix(-1, -0.38022, 0.38022, -1, 0, 0)"/>
<path fill="none" stroke-width="0.850394" stroke-linecap="butt" stroke-linejoin="miter" stroke="rgb(0%, 0%, 0%)" stroke-opacity="1" stroke-miterlimit="4" d="M 22.890625 39.148438 L 79.621094 39.070312 "/>
<path fill-rule="evenodd" fill="rgb(0%, 0%, 0%)" fill-opacity="1" stroke-width="0.453543" stroke-linecap="butt" stroke-linejoin="miter" stroke="rgb(0%, 0%, 0%)" stroke-opacity="1" stroke-miterlimit="4" d="M -76.168978 -39.178576 L -74.467429 -40.87937 L -80.418981 -39.176587 L -74.468185 -37.477027 Z M -76.168978 -39.178576 " transform="matrix(-1, 0.00137008, -0.00137008, -1, 0, 0)"/>
<g clip-path="url(#clip-0)">
<path fill="none" stroke-width="0.850394" stroke-linecap="butt" stroke-linejoin="miter" stroke="rgb(0%, 0%, 0%)" stroke-opacity="1" stroke-miterlimit="4" d="M 103.234375 67.75 C 103.234375 73.886719 98.261719 78.859375 92.125 78.859375 C 85.992188 78.859375 81.019531 73.886719 81.019531 67.75 C 81.019531 61.617188 85.992188 56.644531 92.125 56.644531 C 98.261719 56.644531 103.234375 61.617188 103.234375 67.75 Z M 103.234375 67.75 "/>
</g>
<path fill="none" stroke-width="0.850394" stroke-linecap="butt" stroke-linejoin="miter" stroke="rgb(0%, 0%, 0%)" stroke-opacity="1" stroke-miterlimit="4" d="M 103.234375 39.640625 C 103.234375 45.777344 98.261719 50.75 92.125 50.75 C 85.992188 50.75 81.019531 45.777344 81.019531 39.640625 C 81.019531 33.507812 85.992188 28.535156 92.125 28.535156 C 98.261719 28.535156 103.234375 33.507812 103.234375 39.640625 Z M 103.234375 39.640625 "/>
<path fill="none" stroke-width="0.850394" stroke-linecap="butt" stroke-linejoin="miter" stroke="rgb(0%, 0%, 0%)" stroke-opacity="1" stroke-miterlimit="4" d="M 161.308594 48.640625 L 102.503906 16.261719 "/>
<path fill-rule="evenodd" fill="rgb(0%, 0%, 0%)" fill-opacity="1" stroke-width="0.397298" stroke-linecap="butt" stroke-linejoin="miter" stroke="rgb(0%, 0%, 0%)" stroke-opacity="1" stroke-miterlimit="4" d="M -141.351952 30.83107 L -139.862675 29.343078 L -145.078035 30.831941 L -139.862309 32.323345 Z M -141.351952 30.83107 " transform="matrix(-1, -0.550619, 0.550619, -1, 0, 0)"/>
<path fill="none" stroke-width="0.850394" stroke-linecap="butt" stroke-linejoin="miter" stroke="rgb(0%, 0%, 0%)" stroke-opacity="1" stroke-miterlimit="4" d="M 159.832031 55.582031 L 102.984375 65.789062 "/>
<path fill-rule="evenodd" fill="rgb(0%, 0%, 0%)" fill-opacity="1" stroke-width="0.446404" stroke-linecap="butt" stroke-linejoin="miter" stroke="rgb(0%, 0%, 0%)" stroke-opacity="1" stroke-miterlimit="4" d="M -141.823408 -81.649405 L -140.148209 -83.321262 L -146.007471 -81.646789 L -140.147766 -79.973527 Z M -141.823408 -81.649405 " transform="matrix(-1, 0.17956, -0.17956, -1, 0, 0)"/>
<path fill="none" stroke-width="0.850394" stroke-linecap="butt" stroke-linejoin="miter" stroke="rgb(0%, 0%, 0%)" stroke-opacity="1" stroke-miterlimit="4" d="M 160.128906 52.074219 L 102.714844 42.597656 "/>
<path fill-rule="evenodd" fill="rgb(0%, 0%, 0%)" fill-opacity="1" stroke-width="0.447487" stroke-linecap="butt" stroke-linejoin="miter" stroke="rgb(0%, 0%, 0%)" stroke-opacity="1" stroke-miterlimit="4" d="M -160.894324 -24.962359 L -159.213947 -26.6382 L -165.089448 -24.961217 L -159.21468 -23.28261 Z M -160.894324 -24.962359 " transform="matrix(-1, -0.165084, 0.165084, -1, 0, 0)"/>
<g clip-path="url(#clip-1)">
<path fill="none" stroke-width="0.850394" stroke-linecap="butt" stroke-linejoin="miter" stroke="rgb(0%, 0%, 0%)" stroke-opacity="1" stroke-miterlimit="4" d="M 183.828125 53.832031 C 183.828125 59.96875 178.855469 64.941406 172.71875 64.941406 C 166.585938 64.941406 161.613281 59.96875 161.613281 53.832031 C 161.613281 47.699219 166.585938 42.726562 172.71875 42.726562 C 178.855469 42.726562 183.828125 47.699219 183.828125 53.832031 Z M 183.828125 53.832031 "/>
</g>
<g clip-path="url(#clip-2)">
<path fill="none" stroke-width="0.850394" stroke-linecap="butt" stroke-linejoin="miter" stroke="rgb(0%, 0%, 0%)" stroke-opacity="1" stroke-miterlimit="4" d="M 183.582031 25.449219 C 183.582031 31.585938 178.609375 36.558594 172.476562 36.558594 C 166.339844 36.558594 161.367188 31.585938 161.367188 25.449219 C 161.367188 19.316406 166.339844 14.34375 172.476562 14.34375 C 178.609375 14.34375 183.582031 19.316406 183.582031 25.449219 Z M 183.582031 25.449219 "/>
</g>
<path fill-rule="nonzero" fill="rgb(0%, 0%, 0%)" fill-opacity="1" d="M 173.164062 22.464844 C 173.21875 22.304688 173.21875 22.289062 173.21875 22.199219 C 173.21875 22.003906 173.058594 21.898438 172.878906 21.898438 C 172.773438 21.898438 172.597656 21.96875 172.488281 22.128906 C 172.472656 22.199219 172.363281 22.539062 172.328125 22.75 C 172.238281 23.035156 172.167969 23.355469 172.097656 23.660156 L 171.582031 25.707031 C 171.542969 25.871094 171.046875 26.671875 170.296875 26.671875 C 169.726562 26.671875 169.601562 26.171875 169.601562 25.746094 C 169.601562 25.226562 169.800781 24.515625 170.171875 23.519531 C 170.351562 23.054688 170.40625 22.929688 170.40625 22.699219 C 170.40625 22.199219 170.046875 21.773438 169.476562 21.773438 C 168.390625 21.773438 167.980469 23.429688 167.980469 23.519531 C 167.980469 23.640625 168.089844 23.640625 168.105469 23.640625 C 168.230469 23.640625 168.230469 23.605469 168.285156 23.429688 C 168.605469 22.359375 169.050781 22.019531 169.441406 22.019531 C 169.53125 22.019531 169.726562 22.019531 169.726562 22.378906 C 169.726562 22.664062 169.601562 22.964844 169.53125 23.179688 C 169.070312 24.390625 168.871094 25.03125 168.871094 25.566406 C 168.871094 26.582031 169.585938 26.921875 170.261719 26.921875 C 170.707031 26.921875 171.082031 26.722656 171.402344 26.402344 C 171.257812 26.992188 171.117188 27.5625 170.671875 28.167969 C 170.367188 28.542969 169.941406 28.878906 169.425781 28.878906 C 169.265625 28.878906 168.746094 28.84375 168.550781 28.398438 C 168.730469 28.398438 168.890625 28.398438 169.03125 28.257812 C 169.15625 28.167969 169.265625 28.007812 169.265625 27.792969 C 169.265625 27.4375 168.960938 27.402344 168.855469 27.402344 C 168.585938 27.402344 168.214844 27.578125 168.214844 28.132812 C 168.214844 28.703125 168.710938 29.128906 169.425781 29.128906 C 170.582031 29.128906 171.757812 28.097656 172.078125 26.8125 Z M 173.164062 22.464844 "/>
<path fill-rule="nonzero" fill="rgb(0%, 0%, 0%)" fill-opacity="1" d="M 175.867188 23.441406 C 175.867188 23.226562 175.867188 23.226562 175.636719 23.226562 C 175.117188 23.722656 174.40625 23.722656 174.085938 23.722656 L 174.085938 24.007812 C 174.265625 24.007812 174.796875 24.007812 175.226562 23.796875 L 175.226562 27.839844 C 175.226562 28.105469 175.226562 28.214844 174.441406 28.214844 L 174.140625 28.214844 L 174.140625 28.5 C 174.28125 28.5 175.261719 28.464844 175.546875 28.464844 C 175.796875 28.464844 176.792969 28.5 176.972656 28.5 L 176.972656 28.214844 L 176.667969 28.214844 C 175.867188 28.214844 175.867188 28.105469 175.867188 27.839844 Z M 175.867188 23.441406 "/>
<path fill="none" stroke-width="0.850394" stroke-linecap="butt" stroke-linejoin="miter" stroke="rgb(0%, 0%, 0%)" stroke-opacity="1" stroke-miterlimit="4" d="M 160.6875 22.273438 L 103.304688 13.023438 "/>
<path fill-rule="evenodd" fill="rgb(0%, 0%, 0%)" fill-opacity="1" stroke-width="0.447764" stroke-linecap="butt" stroke-linejoin="miter" stroke="rgb(0%, 0%, 0%)" stroke-opacity="1" stroke-miterlimit="4" d="M -156.762558 3.533084 L -155.083622 1.856218 L -160.957803 3.533505 L -155.081271 5.215215 Z M -156.762558 3.533084 " transform="matrix(-1, -0.161183, 0.161183, -1, 0, 0)"/>
<path fill="none" stroke-width="0.850394" stroke-linecap="butt" stroke-linejoin="miter" stroke="rgb(0%, 0%, 0%)" stroke-opacity="1" stroke-miterlimit="4" d="M 160.796875 29.867188 L 101.90625 62.601562 "/>
<path fill-rule="evenodd" fill="rgb(0%, 0%, 0%)" fill-opacity="1" stroke-width="0.396419" stroke-linecap="butt" stroke-linejoin="miter" stroke="rgb(0%, 0%, 0%)" stroke-opacity="1" stroke-miterlimit="4" d="M -107.186927 -91.09917 L -105.700599 -92.585498 L -110.902415 -91.098011 L -105.7006 -89.612842 Z M -107.186927 -91.09917 " transform="matrix(-1, 0.555848, -0.555848, -1, 0, 0)"/>
<path fill="none" stroke-width="0.850394" stroke-linecap="butt" stroke-linejoin="miter" stroke="rgb(0%, 0%, 0%)" stroke-opacity="1" stroke-miterlimit="4" d="M 159.886719 25.824219 L 102.957031 36.351562 "/>
<path fill-rule="evenodd" fill="rgb(0%, 0%, 0%)" fill-opacity="1" stroke-width="0.445984" stroke-linecap="butt" stroke-linejoin="miter" stroke="rgb(0%, 0%, 0%)" stroke-opacity="1" stroke-miterlimit="4" d="M -146.63967 -53.559427 L -144.967369 -55.230683 L -150.819465 -53.558847 L -144.968415 -51.887126 Z M -146.63967 -53.559427 " transform="matrix(-1, 0.184903, -0.184903, -1, 0, 0)"/>
<path fill-rule="nonzero" fill="rgb(0%, 0%, 0%)" fill-opacity="1" d="M 173.285156 50.847656 C 173.335938 50.6875 173.335938 50.671875 173.335938 50.582031 C 173.335938 50.386719 173.175781 50.277344 173 50.277344 C 172.890625 50.277344 172.714844 50.351562 172.605469 50.511719 C 172.589844 50.582031 172.480469 50.917969 172.445312 51.132812 C 172.355469 51.417969 172.285156 51.738281 172.214844 52.042969 L 171.699219 54.089844 C 171.664062 54.25 171.164062 55.050781 170.414062 55.050781 C 169.84375 55.050781 169.71875 54.554688 169.71875 54.125 C 169.71875 53.609375 169.917969 52.898438 170.289062 51.898438 C 170.46875 51.4375 170.523438 51.3125 170.523438 51.078125 C 170.523438 50.582031 170.167969 50.152344 169.597656 50.152344 C 168.507812 50.152344 168.097656 51.808594 168.097656 51.898438 C 168.097656 52.023438 168.207031 52.023438 168.222656 52.023438 C 168.347656 52.023438 168.347656 51.988281 168.402344 51.808594 C 168.722656 50.742188 169.167969 50.402344 169.558594 50.402344 C 169.648438 50.402344 169.84375 50.402344 169.84375 50.757812 C 169.84375 51.042969 169.71875 51.347656 169.648438 51.5625 C 169.1875 52.773438 168.992188 53.414062 168.992188 53.949219 C 168.992188 54.964844 169.703125 55.300781 170.378906 55.300781 C 170.824219 55.300781 171.199219 55.105469 171.519531 54.785156 C 171.378906 55.375 171.234375 55.945312 170.789062 56.550781 C 170.488281 56.921875 170.058594 57.261719 169.542969 57.261719 C 169.382812 57.261719 168.867188 57.226562 168.667969 56.78125 C 168.847656 56.78125 169.007812 56.78125 169.152344 56.636719 C 169.273438 56.550781 169.382812 56.390625 169.382812 56.175781 C 169.382812 55.820312 169.078125 55.78125 168.972656 55.78125 C 168.707031 55.78125 168.332031 55.960938 168.332031 56.511719 C 168.332031 57.082031 168.828125 57.511719 169.542969 57.511719 C 170.699219 57.511719 171.875 56.476562 172.195312 55.195312 Z M 173.285156 50.847656 "/>
<path fill-rule="nonzero" fill="rgb(0%, 0%, 0%)" fill-opacity="1" d="M 177.339844 55.4375 L 177.070312 55.4375 C 177.054688 55.617188 176.964844 56.078125 176.859375 56.148438 C 176.804688 56.203125 176.199219 56.203125 176.074219 56.203125 L 174.613281 56.203125 C 175.449219 55.472656 175.734375 55.242188 176.199219 54.867188 C 176.785156 54.40625 177.339844 53.90625 177.339844 53.15625 C 177.339844 52.195312 176.5 51.609375 175.484375 51.609375 C 174.507812 51.609375 173.828125 52.300781 173.828125 53.03125 C 173.828125 53.425781 174.167969 53.476562 174.257812 53.476562 C 174.433594 53.476562 174.667969 53.335938 174.667969 53.050781 C 174.667969 52.90625 174.613281 52.625 174.203125 52.625 C 174.453125 52.070312 174.988281 51.894531 175.363281 51.894531 C 176.164062 51.894531 176.574219 52.515625 176.574219 53.15625 C 176.574219 53.851562 176.074219 54.386719 175.824219 54.671875 L 173.917969 56.578125 C 173.828125 56.648438 173.828125 56.667969 173.828125 56.878906 L 177.105469 56.878906 Z M 177.339844 55.4375 "/>
<path fill="none" stroke-width="0.850394" stroke-linecap="butt" stroke-linejoin="miter" stroke="rgb(0%, 0%, 0%)" stroke-opacity="1" stroke-miterlimit="4" d="M 22.640625 39.640625 C 22.640625 45.777344 17.667969 50.75 11.53125 50.75 C 5.398438 50.75 0.425781 45.777344 0.425781 39.640625 C 0.425781 33.507812 5.398438 28.535156 11.53125 28.535156 C 17.667969 28.535156 22.640625 33.507812 22.640625 39.640625 Z M 22.640625 39.640625 "/>
<g clip-path="url(#clip-3)">
<path fill="none" stroke-width="0.850394" stroke-linecap="butt" stroke-linejoin="miter" stroke="rgb(0%, 0%, 0%)" stroke-opacity="1" stroke-miterlimit="4" d="M 22.640625 67.75 C 22.640625 73.886719 17.667969 78.859375 11.53125 78.859375 C 5.398438 78.859375 0.425781 73.886719 0.425781 67.75 C 0.425781 61.617188 5.398438 56.644531 11.53125 56.644531 C 17.667969 56.644531 22.640625 61.617188 22.640625 67.75 Z M 22.640625 67.75 "/>
</g>
<path fill="none" stroke-width="0.850394" stroke-linecap="butt" stroke-linejoin="miter" stroke="rgb(0%, 0%, 0%)" stroke-opacity="1" stroke-miterlimit="4" d="M 22.640625 11.53125 C 22.640625 17.667969 17.667969 22.640625 11.53125 22.640625 C 5.398438 22.640625 0.425781 17.667969 0.425781 11.53125 C 0.425781 5.398438 5.398438 0.425781 11.53125 0.425781 C 17.667969 0.425781 22.640625 5.398438 22.640625 11.53125 Z M 22.640625 11.53125 "/>
<path fill-rule="nonzero" fill="rgb(0%, 0%, 0%)" fill-opacity="1" d="M 10.03125 9.753906 C 10.105469 9.46875 10.371094 8.417969 11.15625 8.417969 C 11.207031 8.417969 11.492188 8.417969 11.726562 8.5625 C 11.40625 8.632812 11.191406 8.898438 11.191406 9.183594 C 11.191406 9.363281 11.316406 9.578125 11.617188 9.578125 C 11.867188 9.578125 12.222656 9.378906 12.222656 8.917969 C 12.222656 8.328125 11.566406 8.167969 11.171875 8.167969 C 10.511719 8.167969 10.121094 8.773438 9.980469 9.023438 C 9.695312 8.277344 9.089844 8.167969 8.75 8.167969 C 7.574219 8.167969 6.914062 9.628906 6.914062 9.914062 C 6.914062 10.039062 7.039062 10.039062 7.058594 10.039062 C 7.148438 10.039062 7.183594 10.003906 7.199219 9.914062 C 7.59375 8.703125 8.339844 8.417969 8.730469 8.417969 C 8.945312 8.417969 9.339844 8.527344 9.339844 9.183594 C 9.339844 9.539062 9.140625 10.289062 8.730469 11.890625 C 8.554688 12.585938 8.144531 13.066406 7.644531 13.066406 C 7.574219 13.066406 7.324219 13.066406 7.074219 12.925781 C 7.359375 12.855469 7.609375 12.621094 7.609375 12.300781 C 7.609375 12 7.359375 11.910156 7.199219 11.910156 C 6.84375 11.910156 6.578125 12.195312 6.578125 12.570312 C 6.578125 13.085938 7.128906 13.316406 7.628906 13.316406 C 8.394531 13.316406 8.804688 12.515625 8.820312 12.460938 C 8.964844 12.871094 9.375 13.316406 10.050781 13.316406 C 11.226562 13.316406 11.867188 11.855469 11.867188 11.570312 C 11.867188 11.445312 11.777344 11.445312 11.742188 11.445312 C 11.636719 11.445312 11.617188 11.5 11.582031 11.570312 C 11.207031 12.800781 10.441406 13.066406 10.085938 13.066406 C 9.640625 13.066406 9.460938 12.710938 9.460938 12.320312 C 9.460938 12.070312 9.515625 11.820312 9.640625 11.324219 Z M 10.03125 9.753906 "/>
<path fill-rule="nonzero" fill="rgb(0%, 0%, 0%)" fill-opacity="1" d="M 15.382812 9.835938 C 15.382812 9.625 15.382812 9.625 15.152344 9.625 C 14.636719 10.121094 13.921875 10.121094 13.601562 10.121094 L 13.601562 10.40625 C 13.78125 10.40625 14.316406 10.40625 14.742188 10.191406 L 14.742188 14.238281 C 14.742188 14.503906 14.742188 14.609375 13.960938 14.609375 L 13.65625 14.609375 L 13.65625 14.894531 C 13.800781 14.894531 14.777344 14.859375 15.0625 14.859375 C 15.3125 14.859375 16.3125 14.894531 16.488281 14.894531 L 16.488281 14.609375 L 16.1875 14.609375 C 15.382812 14.609375 15.382812 14.503906 15.382812 14.238281 Z M 15.382812 9.835938 "/>
<path fill-rule="nonzero" fill="rgb(0%, 0%, 0%)" fill-opacity="1" d="M 9.90625 37.863281 C 9.980469 37.578125 10.246094 36.527344 11.03125 36.527344 C 11.082031 36.527344 11.367188 36.527344 11.601562 36.667969 C 11.28125 36.742188 11.066406 37.007812 11.066406 37.292969 C 11.066406 37.472656 11.191406 37.683594 11.492188 37.683594 C 11.742188 37.683594 12.097656 37.488281 12.097656 37.027344 C 12.097656 36.4375 11.441406 36.277344 11.046875 36.277344 C 10.390625 36.277344 9.996094 36.882812 9.855469 37.132812 C 9.570312 36.386719 8.964844 36.277344 8.625 36.277344 C 7.449219 36.277344 6.789062 37.738281 6.789062 38.023438 C 6.789062 38.148438 6.914062 38.148438 6.933594 38.148438 C 7.023438 38.148438 7.058594 38.113281 7.074219 38.023438 C 7.46875 36.8125 8.214844 36.527344 8.609375 36.527344 C 8.820312 36.527344 9.214844 36.632812 9.214844 37.292969 C 9.214844 37.648438 9.015625 38.398438 8.609375 40 C 8.429688 40.695312 8.019531 41.175781 7.519531 41.175781 C 7.449219 41.175781 7.199219 41.175781 6.949219 41.035156 C 7.234375 40.964844 7.484375 40.730469 7.484375 40.410156 C 7.484375 40.109375 7.234375 40.019531 7.074219 40.019531 C 6.71875 40.019531 6.453125 40.304688 6.453125 40.679688 C 6.453125 41.195312 7.003906 41.425781 7.503906 41.425781 C 8.269531 41.425781 8.679688 40.625 8.695312 40.570312 C 8.839844 40.980469 9.25 41.425781 9.925781 41.425781 C 11.101562 41.425781 11.742188 39.964844 11.742188 39.679688 C 11.742188 39.554688 11.652344 39.554688 11.617188 39.554688 C 11.511719 39.554688 11.492188 39.609375 11.457031 39.679688 C 11.082031 40.910156 10.316406 41.175781 9.960938 41.175781 C 9.515625 41.175781 9.339844 40.820312 9.339844 40.429688 C 9.339844 40.179688 9.390625 39.929688 9.515625 39.429688 Z M 9.90625 37.863281 "/>
<path fill-rule="nonzero" fill="rgb(0%, 0%, 0%)" fill-opacity="1" d="M 16.613281 41.5625 L 16.347656 41.5625 C 16.328125 41.738281 16.238281 42.203125 16.132812 42.273438 C 16.078125 42.328125 15.472656 42.328125 15.347656 42.328125 L 13.886719 42.328125 C 14.726562 41.597656 15.011719 41.367188 15.472656 40.992188 C 16.0625 40.527344 16.613281 40.03125 16.613281 39.28125 C 16.613281 38.320312 15.777344 37.730469 14.761719 37.730469 C 13.78125 37.730469 13.105469 38.425781 13.105469 39.15625 C 13.105469 39.550781 13.441406 39.601562 13.53125 39.601562 C 13.710938 39.601562 13.941406 39.460938 13.941406 39.175781 C 13.941406 39.03125 13.886719 38.746094 13.476562 38.746094 C 13.726562 38.195312 14.261719 38.015625 14.636719 38.015625 C 15.4375 38.015625 15.847656 38.640625 15.847656 39.28125 C 15.847656 39.976562 15.347656 40.511719 15.097656 40.796875 L 13.191406 42.703125 C 13.105469 42.773438 13.105469 42.792969 13.105469 43.003906 L 16.382812 43.003906 Z M 16.613281 41.5625 "/>
<path fill-rule="nonzero" fill="rgb(0%, 0%, 0%)" fill-opacity="1" d="M 9.871094 65.890625 C 9.945312 65.605469 10.210938 64.554688 10.996094 64.554688 C 11.046875 64.554688 11.332031 64.554688 11.566406 64.699219 C 11.242188 64.769531 11.03125 65.035156 11.03125 65.320312 C 11.03125 65.5 11.15625 65.714844 11.457031 65.714844 C 11.707031 65.714844 12.0625 65.519531 12.0625 65.054688 C 12.0625 64.46875 11.40625 64.304688 11.011719 64.304688 C 10.351562 64.304688 9.960938 64.914062 9.820312 65.160156 C 9.535156 64.414062 8.929688 64.304688 8.589844 64.304688 C 7.414062 64.304688 6.753906 65.765625 6.753906 66.050781 C 6.753906 66.175781 6.878906 66.175781 6.898438 66.175781 C 6.988281 66.175781 7.023438 66.140625 7.039062 66.050781 C 7.433594 64.839844 8.179688 64.554688 8.570312 64.554688 C 8.785156 64.554688 9.175781 64.664062 9.175781 65.320312 C 9.175781 65.679688 8.980469 66.425781 8.570312 68.03125 C 8.394531 68.722656 7.984375 69.207031 7.484375 69.207031 C 7.414062 69.207031 7.164062 69.207031 6.914062 69.0625 C 7.199219 68.992188 7.449219 68.761719 7.449219 68.441406 C 7.449219 68.136719 7.199219 68.046875 7.039062 68.046875 C 6.683594 68.046875 6.417969 68.332031 6.417969 68.707031 C 6.417969 69.222656 6.96875 69.453125 7.46875 69.453125 C 8.234375 69.453125 8.644531 68.652344 8.660156 68.601562 C 8.804688 69.007812 9.214844 69.453125 9.890625 69.453125 C 11.066406 69.453125 11.707031 67.996094 11.707031 67.710938 C 11.707031 67.585938 11.617188 67.585938 11.582031 67.585938 C 11.476562 67.585938 11.457031 67.636719 11.421875 67.710938 C 11.046875 68.9375 10.28125 69.207031 9.925781 69.207031 C 9.480469 69.207031 9.300781 68.847656 9.300781 68.457031 C 9.300781 68.207031 9.355469 67.957031 9.480469 67.460938 Z M 9.871094 65.890625 "/>
<path fill-rule="nonzero" fill="rgb(0%, 0%, 0%)" fill-opacity="1" d="M 14.742188 68.378906 C 15.367188 68.378906 15.8125 68.808594 15.8125 69.660156 C 15.8125 70.640625 15.222656 70.945312 14.777344 70.945312 C 14.457031 70.945312 13.746094 70.855469 13.425781 70.375 C 13.800781 70.375 13.886719 70.105469 13.886719 69.929688 C 13.886719 69.679688 13.691406 69.5 13.441406 69.5 C 13.230469 69.5 12.996094 69.644531 12.996094 69.964844 C 12.996094 70.714844 13.816406 71.195312 14.777344 71.195312 C 15.882812 71.195312 16.648438 70.445312 16.648438 69.660156 C 16.648438 69.039062 16.152344 68.414062 15.277344 68.238281 C 16.097656 67.933594 16.398438 67.347656 16.398438 66.847656 C 16.398438 66.222656 15.6875 65.761719 14.796875 65.761719 C 13.921875 65.761719 13.246094 66.1875 13.246094 66.828125 C 13.246094 67.097656 13.425781 67.238281 13.65625 67.238281 C 13.90625 67.238281 14.066406 67.0625 14.066406 66.847656 C 14.066406 66.617188 13.90625 66.4375 13.65625 66.417969 C 13.941406 66.082031 14.476562 65.992188 14.777344 65.992188 C 15.136719 65.992188 15.632812 66.171875 15.632812 66.847656 C 15.632812 67.1875 15.527344 67.558594 15.3125 67.792969 C 15.0625 68.09375 14.832031 68.113281 14.441406 68.148438 C 14.246094 68.164062 14.226562 68.164062 14.191406 68.164062 C 14.171875 68.164062 14.101562 68.183594 14.101562 68.273438 C 14.101562 68.378906 14.171875 68.378906 14.316406 68.378906 Z M 14.742188 68.378906 "/>
<path fill="none" stroke-width="0.850394" stroke-linecap="butt" stroke-linejoin="miter" stroke="rgb(0%, 0%, 0%)" stroke-opacity="1" stroke-miterlimit="4" d="M 21.988281 14.570312 L 79.652344 35.769531 "/>
<path fill-rule="evenodd" fill="rgb(0%, 0%, 0%)" fill-opacity="1" stroke-width="0.42568" stroke-linecap="butt" stroke-linejoin="miter" stroke="rgb(0%, 0%, 0%)" stroke-opacity="1" stroke-miterlimit="4" d="M -78.557578 -5.71282 L -76.963911 -7.306608 L -82.550045 -5.71358 L -76.962525 -4.115712 Z M -78.557578 -5.71282 " transform="matrix(-1, -0.36769, 0.36769, -1, 0, 0)"/>
<path fill="none" stroke-width="0.850394" stroke-linecap="butt" stroke-linejoin="miter" stroke="rgb(0%, 0%, 0%)" stroke-opacity="1" stroke-miterlimit="4" d="M 22.890625 11.601562 L 79.621094 11.523438 "/>
<path fill-rule="evenodd" fill="rgb(0%, 0%, 0%)" fill-opacity="1" stroke-width="0.453543" stroke-linecap="butt" stroke-linejoin="miter" stroke="rgb(0%, 0%, 0%)" stroke-opacity="1" stroke-miterlimit="4" d="M -76.206714 -11.635659 L -74.505171 -13.332547 L -80.456717 -11.63367 L -74.505921 -9.93411 Z M -76.206714 -11.635659 " transform="matrix(-1, 0.00137008, -0.00137008, -1, 0, 0)"/>
<path fill="none" stroke-width="0.850394" stroke-linecap="butt" stroke-linejoin="miter" stroke="rgb(0%, 0%, 0%)" stroke-opacity="1" stroke-miterlimit="4" d="M 22.296875 64.21875 L 79.46875 41.777344 "/>
<path fill-rule="evenodd" fill="rgb(0%, 0%, 0%)" fill-opacity="1" stroke-width="0.422182" stroke-linecap="butt" stroke-linejoin="miter" stroke="rgb(0%, 0%, 0%)" stroke-opacity="1" stroke-miterlimit="4" d="M -51.481195 -63.228011 L -49.897878 -64.813525 L -55.438699 -63.226806 L -49.899065 -61.646023 Z M -51.481195 -63.228011 " transform="matrix(-1, 0.392541, -0.392541, -1, 0, 0)"/>
<path fill="none" stroke-width="0.850394" stroke-linecap="butt" stroke-linejoin="miter" stroke="rgb(0%, 0%, 0%)" stroke-opacity="1" stroke-miterlimit="4" d="M 22.890625 67.820312 L 79.148438 67.742188 "/>
<path fill-rule="evenodd" fill="rgb(0%, 0%, 0%)" fill-opacity="1" stroke-width="0.453543" stroke-linecap="butt" stroke-linejoin="miter" stroke="rgb(0%, 0%, 0%)" stroke-opacity="1" stroke-miterlimit="4" d="M -75.652351 -67.850616 L -73.954688 -69.551395 L -79.906254 -67.852587 L -73.951577 -66.149047 Z M -75.652351 -67.850616 " transform="matrix(-1, 0.00138161, -0.00138161, -1, 0, 0)"/>
<path fill="none" stroke-width="0.850394" stroke-linecap="butt" stroke-linejoin="miter" stroke="rgb(0%, 0%, 0%)" stroke-opacity="1" stroke-miterlimit="4" d="M 21.191406 17.863281 L 80.394531 61.773438 "/>
<path fill-rule="evenodd" fill="rgb(0%, 0%, 0%)" fill-opacity="1" stroke-width="0.364282" stroke-linecap="butt" stroke-linejoin="miter" stroke="rgb(0%, 0%, 0%)" stroke-opacity="1" stroke-miterlimit="4" d="M -78.688887 -1.387003 L -77.322431 -2.752057 L -82.102501 -1.386399 L -77.323834 -0.0205475 Z M -78.688887 -1.387003 " transform="matrix(-1, -0.741693, 0.741693, -1, 0, 0)"/>
<path fill="none" stroke-width="0.850394" stroke-linecap="butt" stroke-linejoin="miter" stroke="rgb(0%, 0%, 0%)" stroke-opacity="1" stroke-miterlimit="4" d="M 20.488281 60.707031 L 80.21875 17.371094 "/>
<path fill-rule="evenodd" fill="rgb(0%, 0%, 0%)" fill-opacity="1" stroke-width="0.367107" stroke-linecap="butt" stroke-linejoin="miter" stroke="rgb(0%, 0%, 0%)" stroke-opacity="1" stroke-miterlimit="4" d="M -41.546237 -49.508899 L -40.171675 -50.886658 L -44.987339 -49.509318 L -40.170335 -48.131779 Z M -41.546237 -49.508899 " transform="matrix(-1, 0.725498, -0.725498, -1, 0, 0)"/>
</svg>
