<?xml version="1.0" encoding="UTF-8"?>
<svg xmlns="http://www.w3.org/2000/svg" xmlns:xlink="http://www.w3.org/1999/xlink" width="420.208893pt" height="122.397491pt" viewBox="0 0 420.208893 122.397491">
<defs>
<clipPath id="clip-0">
<path clip-rule="nonzero" d="M 319 17 L 348 17 L 348 122.398438 L 319 122.398438 Z M 319 17 "/>
</clipPath>
<clipPath id="clip-1">
<path clip-rule="nonzero" d="M 392 44 L 420.207031 44 L 420.207031 62 L 392 62 Z M 392 44 "/>
</clipPath>
</defs>
<path fill-rule="nonzero" fill="rgb(62.744141%, 85.096741%, 82.743835%)" fill-opacity="1" d="M 348.074219 17.011719 L 376.070312 0 L 376.265625 89.441406 L 347.683594 106.066406 Z M 348.074219 17.011719 "/>
<path fill-rule="nonzero" fill="rgb(77.645874%, 80.39093%, 81.175232%)" fill-opacity="1" d="M 303.351562 17.207031 L 392.210938 17.207031 L 392.210938 105.871094 L 303.351562 105.871094 Z M 303.351562 17.207031 "/>
<g clip-path="url(#clip-0)">
<path fill-rule="nonzero" fill="rgb(62.744141%, 85.096741%, 82.743835%)" fill-opacity="1" d="M 319.492188 34.511719 L 347.488281 17.402344 L 347.683594 106.066406 L 319.101562 122.398438 Z M 319.492188 34.511719 "/>
</g>
<path fill-rule="nonzero" fill="rgb(81.959534%, 51.371765%, 38.430786%)" fill-opacity="1" d="M 275.355469 78.066406 L 303.433594 61.730469 L 319.355469 61.542969 L 319.296875 78.066406 Z M 275.355469 78.066406 "/>
<path fill-rule="nonzero" fill="rgb(81.959534%, 51.371765%, 38.430786%)" fill-opacity="1" d="M 319.386719 78.03125 L 347.683594 61.539062 L 392.113281 61.101562 L 363.238281 78.066406 Z M 319.386719 78.03125 "/>
<g clip-path="url(#clip-1)">
<path fill-rule="nonzero" fill="rgb(81.959534%, 51.371765%, 38.430786%)" fill-opacity="1" d="M 392.0625 61.34375 L 392.210938 44.476562 L 420.207031 44.429688 "/>
</g>
<path fill="none" stroke-width="0.823062" stroke-linecap="butt" stroke-linejoin="miter" stroke="rgb(0%, 0%, 0%)" stroke-opacity="1" stroke-dasharray="1.646123 1.646123" stroke-miterlimit="4" d="M 347.441406 61.429688 L 379.960938 41.609375 "/>
<path fill-rule="evenodd" fill="rgb(0%, 0%, 0%)" fill-opacity="1" stroke-width="0.187411" stroke-linecap="butt" stroke-linejoin="miter" stroke="rgb(0%, 0%, 0%)" stroke-opacity="1" stroke-miterlimit="4" d="M -257.692248 -199.202598 L -256.99117 -199.904159 L -259.451276 -199.200604 L -256.989575 -198.496937 Z M -257.692248 -199.202598 " transform="matrix(-1, 0.609555, -0.609555, -1, 0, 0)"/>
<path fill="none" stroke-width="0.823062" stroke-linecap="butt" stroke-linejoin="miter" stroke="rgb(0%, 0%, 0%)" stroke-opacity="1" stroke-miterlimit="4" d="M 347.5625 61.34375 L 394.933594 61.34375 "/>
<path fill-rule="evenodd" fill="rgb(0%, 0%, 0%)" fill-opacity="1" stroke-width="0.219483" stroke-linecap="butt" stroke-linejoin="miter" stroke="rgb(0%, 0%, 0%)" stroke-opacity="1" stroke-miterlimit="4" d="M -393.945312 -61.34375 L -393.121094 -62.167969 L -396.003906 -61.34375 L -393.121094 -60.523438 Z M -393.945312 -61.34375 " transform="matrix(-1, 0, 0, -1, 0, 0)"/>
<path fill="none" stroke-width="0.823062" stroke-linecap="butt" stroke-linejoin="miter" stroke="rgb(0%, 0%, 0%)" stroke-opacity="1" stroke-miterlimit="4" d="M 299.851562 61.34375 L 319.382812 61.34375 "/>
<path fill-rule="evenodd" fill="rgb(0%, 0%, 0%)" fill-opacity="1" stroke-width="0.219483" stroke-linecap="butt" stroke-linejoin="miter" stroke="rgb(0%, 0%, 0%)" stroke-opacity="1" stroke-miterlimit="4" d="M 300.839844 61.34375 L 301.664062 60.523438 L 298.78125 61.34375 L 301.664062 62.167969 Z M 300.839844 61.34375 "/>
<path fill="none" stroke-width="0.823062" stroke-linecap="butt" stroke-linejoin="miter" stroke="rgb(0%, 0%, 0%)" stroke-opacity="1" stroke-dasharray="1.646123 1.646123" stroke-miterlimit="4" d="M 319.515625 61.34375 L 347.019531 61.34375 "/>
<path fill="none" stroke-width="0.823062" stroke-linecap="butt" stroke-linejoin="miter" stroke="rgb(0%, 0%, 0%)" stroke-opacity="1" stroke-miterlimit="4" d="M 315.40625 80.886719 L 347.101562 61.546875 "/>
<path fill-rule="evenodd" fill="rgb(0%, 0%, 0%)" fill-opacity="1" stroke-width="0.187354" stroke-linecap="butt" stroke-linejoin="miter" stroke="rgb(0%, 0%, 0%)" stroke-opacity="1" stroke-miterlimit="4" d="M 194.700298 199.184419 L 195.403248 198.480573 L 192.946385 199.184429 L 195.404144 199.88737 Z M 194.700298 199.184419 " transform="matrix(1, -0.610237, 0.610237, 1, 0, 0)"/>
<path fill="none" stroke-width="0.823062" stroke-linecap="butt" stroke-linejoin="miter" stroke="rgb(0%, 0%, 0%)" stroke-opacity="1" stroke-miterlimit="4" d="M 347.394531 61.175781 L 347.394531 13.804688 "/>
<path fill-rule="evenodd" fill="rgb(0%, 0%, 0%)" fill-opacity="1" stroke-width="0.219483" stroke-linecap="butt" stroke-linejoin="miter" stroke="rgb(0%, 0%, 0%)" stroke-opacity="1" stroke-miterlimit="4" d="M 14.792969 -347.394531 L 15.617188 -348.214844 L 12.734375 -347.394531 L 15.617188 -346.570312 Z M 14.792969 -347.394531 " transform="matrix(0, 1, -1, 0, 0, 0)"/>
<path fill="none" stroke-width="0.823062" stroke-linecap="butt" stroke-linejoin="miter" stroke="rgb(0%, 0%, 0%)" stroke-opacity="1" stroke-miterlimit="4" d="M 347.394531 108.882812 L 347.394531 77.96875 "/>
<path fill-rule="evenodd" fill="rgb(0%, 0%, 0%)" fill-opacity="1" stroke-width="0.219483" stroke-linecap="butt" stroke-linejoin="miter" stroke="rgb(0%, 0%, 0%)" stroke-opacity="1" stroke-miterlimit="4" d="M -107.898438 347.394531 L -107.074219 346.570312 L -109.953125 347.394531 L -107.074219 348.214844 Z M -107.898438 347.394531 " transform="matrix(0, -1, 1, 0, 0, 0)"/>
<path fill="none" stroke-width="0.823062" stroke-linecap="butt" stroke-linejoin="miter" stroke="rgb(0%, 0%, 0%)" stroke-opacity="1" stroke-dasharray="1.646123 1.646123" stroke-miterlimit="4" d="M 347.394531 77.90625 L 347.394531 50.402344 "/>
<path fill-rule="nonzero" fill="rgb(0%, 0%, 0%)" fill-opacity="1" d="M 396.957031 65.1875 C 397.027344 64.90625 397.289062 63.875 398.058594 63.875 C 398.113281 63.875 398.390625 63.875 398.621094 64.015625 C 398.304688 64.085938 398.09375 64.347656 398.09375 64.625 C 398.09375 64.800781 398.21875 65.011719 398.515625 65.011719 C 398.757812 65.011719 399.109375 64.820312 399.109375 64.363281 C 399.109375 63.785156 398.460938 63.628906 398.078125 63.628906 C 397.429688 63.628906 397.046875 64.222656 396.90625 64.46875 C 396.625 63.734375 396.03125 63.628906 395.699219 63.628906 C 394.542969 63.628906 393.898438 65.0625 393.898438 65.34375 C 393.898438 65.464844 394.019531 65.464844 394.035156 65.464844 C 394.125 65.464844 394.160156 65.429688 394.175781 65.34375 C 394.5625 64.152344 395.296875 63.875 395.679688 63.875 C 395.890625 63.875 396.277344 63.980469 396.277344 64.625 C 396.277344 64.976562 396.082031 65.710938 395.679688 67.285156 C 395.507812 67.96875 395.105469 68.441406 394.613281 68.441406 C 394.542969 68.441406 394.300781 68.441406 394.054688 68.300781 C 394.332031 68.230469 394.578125 68.003906 394.578125 67.6875 C 394.578125 67.390625 394.332031 67.304688 394.175781 67.304688 C 393.828125 67.304688 393.5625 67.582031 393.5625 67.949219 C 393.5625 68.457031 394.105469 68.683594 394.597656 68.683594 C 395.347656 68.683594 395.75 67.898438 395.769531 67.84375 C 395.910156 68.246094 396.3125 68.683594 396.976562 68.683594 C 398.128906 68.683594 398.757812 67.25 398.757812 66.96875 C 398.757812 66.847656 398.671875 66.847656 398.636719 66.847656 C 398.53125 66.847656 398.515625 66.902344 398.480469 66.96875 C 398.113281 68.175781 397.359375 68.441406 397.011719 68.441406 C 396.574219 68.441406 396.398438 68.089844 396.398438 67.707031 C 396.398438 67.460938 396.449219 67.214844 396.574219 66.726562 Z M 396.957031 65.1875 "/>
<path fill-rule="nonzero" fill="rgb(0%, 0%, 0%)" fill-opacity="1" d="M 402.214844 65.265625 C 402.214844 65.058594 402.214844 65.058594 401.984375 65.058594 C 401.476562 65.546875 400.777344 65.546875 400.464844 65.546875 L 400.464844 65.828125 C 400.640625 65.828125 401.164062 65.828125 401.582031 65.617188 L 401.582031 69.585938 C 401.582031 69.851562 401.582031 69.953125 400.8125 69.953125 L 400.515625 69.953125 L 400.515625 70.234375 C 400.65625 70.234375 401.617188 70.199219 401.898438 70.199219 C 402.144531 70.199219 403.121094 70.234375 403.296875 70.234375 L 403.296875 69.953125 L 403 69.953125 C 402.214844 69.953125 402.214844 69.851562 402.214844 69.585938 Z M 402.214844 65.265625 "/>
<path fill-rule="nonzero" fill="rgb(0%, 0%, 0%)" fill-opacity="1" d="M 337.101562 10.007812 C 337.171875 9.726562 337.4375 8.695312 338.207031 8.695312 C 338.257812 8.695312 338.539062 8.695312 338.765625 8.835938 C 338.449219 8.90625 338.242188 9.167969 338.242188 9.449219 C 338.242188 9.621094 338.363281 9.832031 338.660156 9.832031 C 338.90625 9.832031 339.253906 9.640625 339.253906 9.183594 C 339.253906 8.609375 338.609375 8.449219 338.222656 8.449219 C 337.574219 8.449219 337.191406 9.046875 337.050781 9.289062 C 336.769531 8.554688 336.175781 8.449219 335.84375 8.449219 C 334.6875 8.449219 334.042969 9.886719 334.042969 10.164062 C 334.042969 10.289062 334.164062 10.289062 334.183594 10.289062 C 334.269531 10.289062 334.304688 10.253906 334.320312 10.164062 C 334.707031 8.976562 335.441406 8.695312 335.828125 8.695312 C 336.035156 8.695312 336.421875 8.800781 336.421875 9.449219 C 336.421875 9.796875 336.230469 10.53125 335.828125 12.105469 C 335.652344 12.789062 335.25 13.261719 334.757812 13.261719 C 334.6875 13.261719 334.445312 13.261719 334.199219 13.121094 C 334.480469 13.050781 334.722656 12.824219 334.722656 12.507812 C 334.722656 12.210938 334.480469 12.125 334.320312 12.125 C 333.972656 12.125 333.710938 12.402344 333.710938 12.769531 C 333.710938 13.277344 334.253906 13.507812 334.742188 13.507812 C 335.492188 13.507812 335.894531 12.71875 335.914062 12.667969 C 336.054688 13.070312 336.457031 13.507812 337.121094 13.507812 C 338.273438 13.507812 338.90625 12.070312 338.90625 11.792969 C 338.90625 11.667969 338.816406 11.667969 338.78125 11.667969 C 338.675781 11.667969 338.660156 11.722656 338.625 11.792969 C 338.257812 13 337.503906 13.261719 337.15625 13.261719 C 336.71875 13.261719 336.542969 12.910156 336.542969 12.527344 C 336.542969 12.28125 336.597656 12.035156 336.71875 11.546875 Z M 337.101562 10.007812 "/>
<path fill-rule="nonzero" fill="rgb(0%, 0%, 0%)" fill-opacity="1" d="M 337.101562 10.007812 C 337.171875 9.726562 337.4375 8.695312 338.207031 8.695312 C 338.257812 8.695312 338.539062 8.695312 338.765625 8.835938 C 338.449219 8.90625 338.242188 9.167969 338.242188 9.449219 C 338.242188 9.621094 338.363281 9.832031 338.660156 9.832031 C 338.90625 9.832031 339.253906 9.640625 339.253906 9.183594 C 339.253906 8.609375 338.609375 8.449219 338.222656 8.449219 C 337.574219 8.449219 337.191406 9.046875 337.050781 9.289062 C 336.769531 8.554688 336.175781 8.449219 335.84375 8.449219 C 334.6875 8.449219 334.042969 9.886719 334.042969 10.164062 C 334.042969 10.289062 334.164062 10.289062 334.183594 10.289062 C 334.269531 10.289062 334.304688 10.253906 334.320312 10.164062 C 334.707031 8.976562 335.441406 8.695312 335.828125 8.695312 C 336.035156 8.695312 336.421875 8.800781 336.421875 9.449219 C 336.421875 9.796875 336.230469 10.53125 335.828125 12.105469 C 335.652344 12.789062 335.25 13.261719 334.757812 13.261719 C 334.6875 13.261719 334.445312 13.261719 334.199219 13.121094 C 334.480469 13.050781 334.722656 12.824219 334.722656 12.507812 C 334.722656 12.210938 334.480469 12.125 334.320312 12.125 C 333.972656 12.125 333.710938 12.402344 333.710938 12.769531 C 333.710938 13.277344 334.253906 13.507812 334.742188 13.507812 C 335.492188 13.507812 335.894531 12.71875 335.914062 12.667969 C 336.054688 13.070312 336.457031 13.507812 337.121094 13.507812 C 338.273438 13.507812 338.90625 12.070312 338.90625 11.792969 C 338.90625 11.667969 338.816406 11.667969 338.78125 11.667969 C 338.675781 11.667969 338.660156 11.722656 338.625 11.792969 C 338.257812 13 337.503906 13.261719 337.15625 13.261719 C 336.71875 13.261719 336.542969 12.910156 336.542969 12.527344 C 336.542969 12.28125 336.597656 12.035156 336.71875 11.546875 Z M 337.101562 10.007812 "/>
<path fill-rule="nonzero" fill="rgb(0%, 0%, 0%)" fill-opacity="1" d="M 343.6875 13.640625 L 343.425781 13.640625 C 343.40625 13.8125 343.320312 14.269531 343.214844 14.339844 C 343.164062 14.390625 342.570312 14.390625 342.445312 14.390625 L 341.011719 14.390625 C 341.832031 13.675781 342.113281 13.445312 342.570312 13.078125 C 343.144531 12.625 343.6875 12.136719 343.6875 11.398438 C 343.6875 10.457031 342.867188 9.878906 341.867188 9.878906 C 340.90625 9.878906 340.242188 10.5625 340.242188 11.277344 C 340.242188 11.664062 340.574219 11.714844 340.660156 11.714844 C 340.835938 11.714844 341.0625 11.574219 341.0625 11.296875 C 341.0625 11.15625 341.011719 10.875 340.609375 10.875 C 340.855469 10.332031 341.378906 10.160156 341.746094 10.160156 C 342.535156 10.160156 342.9375 10.769531 342.9375 11.398438 C 342.9375 12.082031 342.445312 12.605469 342.199219 12.886719 L 340.328125 14.757812 C 340.242188 14.828125 340.242188 14.847656 340.242188 15.054688 L 343.460938 15.054688 Z M 343.6875 13.640625 "/>
<path fill-rule="nonzero" fill="rgb(0%, 0%, 0%)" fill-opacity="1" d="M 310.550781 83.855469 C 310.621094 83.578125 310.882812 82.546875 311.652344 82.546875 C 311.703125 82.546875 311.984375 82.546875 312.210938 82.683594 C 311.898438 82.753906 311.6875 83.019531 311.6875 83.296875 C 311.6875 83.472656 311.808594 83.683594 312.105469 83.683594 C 312.351562 83.683594 312.703125 83.488281 312.703125 83.035156 C 312.703125 82.457031 312.054688 82.300781 311.671875 82.300781 C 311.023438 82.300781 310.636719 82.894531 310.496094 83.140625 C 310.21875 82.40625 309.625 82.300781 309.289062 82.300781 C 308.136719 82.300781 307.488281 83.734375 307.488281 84.015625 C 307.488281 84.136719 307.613281 84.136719 307.628906 84.136719 C 307.714844 84.136719 307.75 84.101562 307.769531 84.015625 C 308.152344 82.824219 308.886719 82.546875 309.273438 82.546875 C 309.484375 82.546875 309.867188 82.648438 309.867188 83.296875 C 309.867188 83.648438 309.675781 84.382812 309.273438 85.957031 C 309.097656 86.640625 308.695312 87.109375 308.207031 87.109375 C 308.136719 87.109375 307.890625 87.109375 307.648438 86.972656 C 307.925781 86.902344 308.171875 86.671875 308.171875 86.359375 C 308.171875 86.0625 307.925781 85.972656 307.769531 85.972656 C 307.417969 85.972656 307.15625 86.253906 307.15625 86.621094 C 307.15625 87.128906 307.699219 87.355469 308.1875 87.355469 C 308.941406 87.355469 309.34375 86.570312 309.359375 86.515625 C 309.5 86.917969 309.902344 87.355469 310.566406 87.355469 C 311.722656 87.355469 312.351562 85.921875 312.351562 85.640625 C 312.351562 85.519531 312.265625 85.519531 312.230469 85.519531 C 312.125 85.519531 312.105469 85.570312 312.074219 85.640625 C 311.703125 86.847656 310.953125 87.109375 310.601562 87.109375 C 310.164062 87.109375 309.992188 86.761719 309.992188 86.375 C 309.992188 86.132812 310.042969 85.886719 310.164062 85.398438 Z M 310.550781 83.855469 "/>
<path fill-rule="nonzero" fill="rgb(0%, 0%, 0%)" fill-opacity="1" d="M 315.332031 86.300781 C 315.945312 86.300781 316.382812 86.71875 316.382812 87.558594 C 316.382812 88.519531 315.804688 88.820312 315.367188 88.820312 C 315.054688 88.820312 314.355469 88.730469 314.039062 88.257812 C 314.40625 88.257812 314.492188 87.996094 314.492188 87.820312 C 314.492188 87.578125 314.300781 87.402344 314.054688 87.402344 C 313.847656 87.402344 313.617188 87.542969 313.617188 87.855469 C 313.617188 88.589844 314.421875 89.0625 315.367188 89.0625 C 316.453125 89.0625 317.203125 88.328125 317.203125 87.558594 C 317.203125 86.945312 316.714844 86.335938 315.859375 86.160156 C 316.664062 85.863281 316.960938 85.285156 316.960938 84.796875 C 316.960938 84.183594 316.261719 83.726562 315.386719 83.726562 C 314.527344 83.726562 313.863281 84.148438 313.863281 84.777344 C 313.863281 85.039062 314.039062 85.179688 314.265625 85.179688 C 314.511719 85.179688 314.667969 85.003906 314.667969 84.796875 C 314.667969 84.566406 314.511719 84.394531 314.265625 84.375 C 314.546875 84.042969 315.070312 83.957031 315.367188 83.957031 C 315.71875 83.957031 316.207031 84.128906 316.207031 84.796875 C 316.207031 85.128906 316.101562 85.496094 315.894531 85.722656 C 315.648438 86.019531 315.421875 86.039062 315.035156 86.070312 C 314.84375 86.089844 314.824219 86.089844 314.792969 86.089844 C 314.773438 86.089844 314.703125 86.105469 314.703125 86.195312 C 314.703125 86.300781 314.773438 86.300781 314.914062 86.300781 Z M 315.332031 86.300781 "/>
<path fill="none" stroke-width="0.823062" stroke-linecap="butt" stroke-linejoin="miter" stroke="rgb(0%, 0%, 0%)" stroke-opacity="1" stroke-miterlimit="4" d="M 213.730469 61.175781 L 213.730469 13.804688 "/>
<path fill-rule="evenodd" fill="rgb(0%, 0%, 0%)" fill-opacity="1" stroke-width="0.219483" stroke-linecap="butt" stroke-linejoin="miter" stroke="rgb(0%, 0%, 0%)" stroke-opacity="1" stroke-miterlimit="4" d="M 14.792969 -213.730469 L 15.617188 -214.554688 L 12.734375 -213.730469 L 15.617188 -212.910156 Z M 14.792969 -213.730469 " transform="matrix(0, 1, -1, 0, 0, 0)"/>
<path fill="none" stroke-width="0.823062" stroke-linecap="butt" stroke-linejoin="miter" stroke="rgb(0%, 0%, 0%)" stroke-opacity="1" stroke-miterlimit="4" d="M 213.730469 108.882812 L 213.730469 60.945312 "/>
<path fill-rule="evenodd" fill="rgb(0%, 0%, 0%)" fill-opacity="1" stroke-width="0.219483" stroke-linecap="butt" stroke-linejoin="miter" stroke="rgb(0%, 0%, 0%)" stroke-opacity="1" stroke-miterlimit="4" d="M -107.898438 213.730469 L -107.074219 212.910156 L -109.953125 213.730469 L -107.074219 214.554688 Z M -107.898438 213.730469 " transform="matrix(0, -1, 1, 0, 0, 0)"/>
<path fill="none" stroke-width="0.823062" stroke-linecap="butt" stroke-linejoin="miter" stroke="rgb(0%, 0%, 0%)" stroke-opacity="1" stroke-miterlimit="4" d="M 213.898438 61.34375 L 261.273438 61.34375 "/>
<path fill-rule="evenodd" fill="rgb(0%, 0%, 0%)" fill-opacity="1" stroke-width="0.219483" stroke-linecap="butt" stroke-linejoin="miter" stroke="rgb(0%, 0%, 0%)" stroke-opacity="1" stroke-miterlimit="4" d="M -260.285156 -61.34375 L -259.460938 -62.167969 L -262.339844 -61.34375 L -259.460938 -60.523438 Z M -260.285156 -61.34375 " transform="matrix(-1, 0, 0, -1, 0, 0)"/>
<path fill="none" stroke-width="0.823062" stroke-linecap="butt" stroke-linejoin="miter" stroke="rgb(0%, 0%, 0%)" stroke-opacity="1" stroke-miterlimit="4" d="M 166.191406 61.34375 L 213.753906 61.34375 "/>
<path fill-rule="evenodd" fill="rgb(0%, 0%, 0%)" fill-opacity="1" stroke-width="0.219483" stroke-linecap="butt" stroke-linejoin="miter" stroke="rgb(0%, 0%, 0%)" stroke-opacity="1" stroke-miterlimit="4" d="M 167.179688 61.34375 L 168.003906 60.523438 L 165.121094 61.34375 L 168.003906 62.167969 Z M 167.179688 61.34375 "/>
<path fill="none" stroke-width="1.955906" stroke-linecap="butt" stroke-linejoin="miter" stroke="rgb(62.744141%, 85.096741%, 82.743835%)" stroke-opacity="1" stroke-miterlimit="4" d="M 213.730469 21.574219 L 213.730469 99.609375 "/>
<path fill="none" stroke-width="1.955906" stroke-linecap="butt" stroke-linejoin="miter" stroke="rgb(81.959534%, 51.371765%, 38.430786%)" stroke-opacity="1" stroke-miterlimit="4" d="M 252.882812 61.34375 L 174.847656 61.34375 "/>
<path fill-rule="nonzero" fill="rgb(0%, 0%, 0%)" fill-opacity="1" d="M 259.28125 65.1875 C 259.347656 64.90625 259.613281 63.875 260.382812 63.875 C 260.433594 63.875 260.714844 63.875 260.941406 64.015625 C 260.625 64.085938 260.417969 64.347656 260.417969 64.625 C 260.417969 64.800781 260.539062 65.011719 260.835938 65.011719 C 261.082031 65.011719 261.429688 64.820312 261.429688 64.363281 C 261.429688 63.785156 260.785156 63.628906 260.398438 63.628906 C 259.75 63.628906 259.367188 64.222656 259.226562 64.46875 C 258.945312 63.734375 258.351562 63.628906 258.019531 63.628906 C 256.867188 63.628906 256.21875 65.0625 256.21875 65.34375 C 256.21875 65.464844 256.339844 65.464844 256.359375 65.464844 C 256.445312 65.464844 256.480469 65.429688 256.496094 65.34375 C 256.882812 64.152344 257.617188 63.875 258.003906 63.875 C 258.210938 63.875 258.597656 63.980469 258.597656 64.625 C 258.597656 64.976562 258.40625 65.710938 258.003906 67.285156 C 257.828125 67.96875 257.425781 68.441406 256.933594 68.441406 C 256.867188 68.441406 256.621094 68.441406 256.375 68.300781 C 256.65625 68.230469 256.898438 68.003906 256.898438 67.6875 C 256.898438 67.390625 256.65625 67.304688 256.496094 67.304688 C 256.148438 67.304688 255.886719 67.582031 255.886719 67.949219 C 255.886719 68.457031 256.429688 68.683594 256.917969 68.683594 C 257.671875 68.683594 258.074219 67.898438 258.089844 67.84375 C 258.230469 68.246094 258.632812 68.683594 259.296875 68.683594 C 260.453125 68.683594 261.082031 67.25 261.082031 66.96875 C 261.082031 66.847656 260.992188 66.847656 260.957031 66.847656 C 260.855469 66.847656 260.835938 66.902344 260.800781 66.96875 C 260.433594 68.175781 259.683594 68.441406 259.332031 68.441406 C 258.894531 68.441406 258.71875 68.089844 258.71875 67.707031 C 258.71875 67.460938 258.773438 67.214844 258.894531 66.726562 Z M 259.28125 65.1875 "/>
<path fill-rule="nonzero" fill="rgb(0%, 0%, 0%)" fill-opacity="1" d="M 264.535156 65.265625 C 264.535156 65.058594 264.535156 65.058594 264.308594 65.058594 C 263.800781 65.546875 263.101562 65.546875 262.785156 65.546875 L 262.785156 65.828125 C 262.960938 65.828125 263.484375 65.828125 263.90625 65.617188 L 263.90625 69.585938 C 263.90625 69.851562 263.90625 69.953125 263.136719 69.953125 L 262.835938 69.953125 L 262.835938 70.234375 C 262.976562 70.234375 263.941406 70.199219 264.21875 70.199219 C 264.464844 70.199219 265.445312 70.234375 265.617188 70.234375 L 265.617188 69.953125 L 265.320312 69.953125 C 264.535156 69.953125 264.535156 69.851562 264.535156 69.585938 Z M 264.535156 65.265625 "/>
<path fill-rule="nonzero" fill="rgb(0%, 0%, 0%)" fill-opacity="1" d="M 220.050781 10.007812 C 220.121094 9.726562 220.382812 8.695312 221.152344 8.695312 C 221.203125 8.695312 221.484375 8.695312 221.710938 8.835938 C 221.398438 8.90625 221.1875 9.167969 221.1875 9.449219 C 221.1875 9.621094 221.308594 9.832031 221.605469 9.832031 C 221.851562 9.832031 222.203125 9.640625 222.203125 9.183594 C 222.203125 8.609375 221.554688 8.449219 221.167969 8.449219 C 220.523438 8.449219 220.136719 9.046875 219.996094 9.289062 C 219.71875 8.554688 219.121094 8.449219 218.789062 8.449219 C 217.636719 8.449219 216.988281 9.886719 216.988281 10.164062 C 216.988281 10.289062 217.109375 10.289062 217.128906 10.289062 C 217.214844 10.289062 217.25 10.253906 217.269531 10.164062 C 217.652344 8.976562 218.386719 8.695312 218.773438 8.695312 C 218.984375 8.695312 219.367188 8.800781 219.367188 9.449219 C 219.367188 9.796875 219.175781 10.53125 218.773438 12.105469 C 218.597656 12.789062 218.195312 13.261719 217.707031 13.261719 C 217.636719 13.261719 217.390625 13.261719 217.144531 13.121094 C 217.425781 13.050781 217.671875 12.824219 217.671875 12.507812 C 217.671875 12.210938 217.425781 12.125 217.269531 12.125 C 216.917969 12.125 216.65625 12.402344 216.65625 12.769531 C 216.65625 13.277344 217.199219 13.507812 217.6875 13.507812 C 218.441406 13.507812 218.84375 12.71875 218.859375 12.667969 C 219 13.070312 219.402344 13.507812 220.066406 13.507812 C 221.222656 13.507812 221.851562 12.070312 221.851562 11.792969 C 221.851562 11.667969 221.765625 11.667969 221.730469 11.667969 C 221.625 11.667969 221.605469 11.722656 221.570312 11.792969 C 221.203125 13 220.453125 13.261719 220.101562 13.261719 C 219.664062 13.261719 219.488281 12.910156 219.488281 12.527344 C 219.488281 12.28125 219.542969 12.035156 219.664062 11.546875 Z M 220.050781 10.007812 "/>
<path fill-rule="nonzero" fill="rgb(0%, 0%, 0%)" fill-opacity="1" d="M 220.050781 10.007812 C 220.121094 9.726562 220.382812 8.695312 221.152344 8.695312 C 221.203125 8.695312 221.484375 8.695312 221.710938 8.835938 C 221.398438 8.90625 221.1875 9.167969 221.1875 9.449219 C 221.1875 9.621094 221.308594 9.832031 221.605469 9.832031 C 221.851562 9.832031 222.203125 9.640625 222.203125 9.183594 C 222.203125 8.609375 221.554688 8.449219 221.167969 8.449219 C 220.523438 8.449219 220.136719 9.046875 219.996094 9.289062 C 219.71875 8.554688 219.121094 8.449219 218.789062 8.449219 C 217.636719 8.449219 216.988281 9.886719 216.988281 10.164062 C 216.988281 10.289062 217.109375 10.289062 217.128906 10.289062 C 217.214844 10.289062 217.25 10.253906 217.269531 10.164062 C 217.652344 8.976562 218.386719 8.695312 218.773438 8.695312 C 218.984375 8.695312 219.367188 8.800781 219.367188 9.449219 C 219.367188 9.796875 219.175781 10.53125 218.773438 12.105469 C 218.597656 12.789062 218.195312 13.261719 217.707031 13.261719 C 217.636719 13.261719 217.390625 13.261719 217.144531 13.121094 C 217.425781 13.050781 217.671875 12.824219 217.671875 12.507812 C 217.671875 12.210938 217.425781 12.125 217.269531 12.125 C 216.917969 12.125 216.65625 12.402344 216.65625 12.769531 C 216.65625 13.277344 217.199219 13.507812 217.6875 13.507812 C 218.441406 13.507812 218.84375 12.71875 218.859375 12.667969 C 219 13.070312 219.402344 13.507812 220.066406 13.507812 C 221.222656 13.507812 221.851562 12.070312 221.851562 11.792969 C 221.851562 11.667969 221.765625 11.667969 221.730469 11.667969 C 221.625 11.667969 221.605469 11.722656 221.570312 11.792969 C 221.203125 13 220.453125 13.261719 220.101562 13.261719 C 219.664062 13.261719 219.488281 12.910156 219.488281 12.527344 C 219.488281 12.28125 219.542969 12.035156 219.664062 11.546875 Z M 220.050781 10.007812 "/>
<path fill-rule="nonzero" fill="rgb(0%, 0%, 0%)" fill-opacity="1" d="M 226.632812 13.640625 L 226.371094 13.640625 C 226.355469 13.8125 226.265625 14.269531 226.160156 14.339844 C 226.109375 14.390625 225.515625 14.390625 225.390625 14.390625 L 223.957031 14.390625 C 224.78125 13.675781 225.058594 13.445312 225.515625 13.078125 C 226.09375 12.625 226.632812 12.136719 226.632812 11.398438 C 226.632812 10.457031 225.8125 9.878906 224.816406 9.878906 C 223.851562 9.878906 223.1875 10.5625 223.1875 11.277344 C 223.1875 11.664062 223.519531 11.714844 223.609375 11.714844 C 223.78125 11.714844 224.011719 11.574219 224.011719 11.296875 C 224.011719 11.15625 223.957031 10.875 223.554688 10.875 C 223.800781 10.332031 224.324219 10.160156 224.691406 10.160156 C 225.480469 10.160156 225.882812 10.769531 225.882812 11.398438 C 225.882812 12.082031 225.390625 12.605469 225.148438 12.886719 L 223.277344 14.757812 C 223.1875 14.828125 223.1875 14.847656 223.1875 15.054688 L 226.40625 15.054688 Z M 226.632812 13.640625 "/>
<path fill="none" stroke-width="0.823062" stroke-linecap="butt" stroke-linejoin="miter" stroke="rgb(0%, 0%, 0%)" stroke-opacity="1" stroke-miterlimit="4" d="M 72.738281 61.34375 L 120.109375 61.34375 "/>
<path fill-rule="evenodd" fill="rgb(0%, 0%, 0%)" fill-opacity="1" stroke-width="0.219483" stroke-linecap="butt" stroke-linejoin="miter" stroke="rgb(0%, 0%, 0%)" stroke-opacity="1" stroke-miterlimit="4" d="M -119.125 -61.34375 L -118.300781 -62.167969 L -121.179688 -61.34375 L -118.300781 -60.523438 Z M -119.125 -61.34375 " transform="matrix(-1, 0, 0, -1, 0, 0)"/>
<path fill="none" stroke-width="0.823062" stroke-linecap="butt" stroke-linejoin="miter" stroke="rgb(0%, 0%, 0%)" stroke-opacity="1" stroke-miterlimit="4" d="M 25.03125 61.34375 L 72.59375 61.34375 "/>
<path fill-rule="evenodd" fill="rgb(0%, 0%, 0%)" fill-opacity="1" stroke-width="0.219483" stroke-linecap="butt" stroke-linejoin="miter" stroke="rgb(0%, 0%, 0%)" stroke-opacity="1" stroke-miterlimit="4" d="M 26.019531 61.34375 L 26.84375 60.523438 L 23.960938 61.34375 L 26.84375 62.167969 Z M 26.019531 61.34375 "/>
<path fill="none" stroke-width="2.888613" stroke-linecap="butt" stroke-linejoin="miter" stroke="rgb(62.744141%, 85.096741%, 82.743835%)" stroke-opacity="1" stroke-miterlimit="4" d="M 72.570312 51.816406 L 72.570312 70.703125 "/>
<path fill-rule="nonzero" fill="rgb(0%, 0%, 0%)" fill-opacity="1" d="M 118.117188 65.1875 C 118.1875 64.90625 118.449219 63.875 119.21875 63.875 C 119.273438 63.875 119.554688 63.875 119.78125 64.015625 C 119.464844 64.085938 119.253906 64.347656 119.253906 64.625 C 119.253906 64.800781 119.378906 65.011719 119.675781 65.011719 C 119.921875 65.011719 120.269531 64.820312 120.269531 64.363281 C 120.269531 63.785156 119.621094 63.628906 119.238281 63.628906 C 118.589844 63.628906 118.207031 64.222656 118.066406 64.46875 C 117.785156 63.734375 117.191406 63.628906 116.859375 63.628906 C 115.703125 63.628906 115.058594 65.0625 115.058594 65.34375 C 115.058594 65.464844 115.179688 65.464844 115.199219 65.464844 C 115.285156 65.464844 115.320312 65.429688 115.335938 65.34375 C 115.722656 64.152344 116.457031 63.875 116.839844 63.875 C 117.050781 63.875 117.4375 63.980469 117.4375 64.625 C 117.4375 64.976562 117.242188 65.710938 116.839844 67.285156 C 116.667969 67.96875 116.265625 68.441406 115.773438 68.441406 C 115.703125 68.441406 115.460938 68.441406 115.214844 68.300781 C 115.496094 68.230469 115.738281 68.003906 115.738281 67.6875 C 115.738281 67.390625 115.496094 67.304688 115.335938 67.304688 C 114.988281 67.304688 114.726562 67.582031 114.726562 67.949219 C 114.726562 68.457031 115.265625 68.683594 115.757812 68.683594 C 116.507812 68.683594 116.910156 67.898438 116.929688 67.84375 C 117.070312 68.246094 117.472656 68.683594 118.136719 68.683594 C 119.289062 68.683594 119.921875 67.25 119.921875 66.96875 C 119.921875 66.847656 119.832031 66.847656 119.796875 66.847656 C 119.691406 66.847656 119.675781 66.902344 119.640625 66.96875 C 119.273438 68.175781 118.519531 68.441406 118.171875 68.441406 C 117.734375 68.441406 117.558594 68.089844 117.558594 67.707031 C 117.558594 67.460938 117.613281 67.214844 117.734375 66.726562 Z M 118.117188 65.1875 "/>
<path fill-rule="nonzero" fill="rgb(0%, 0%, 0%)" fill-opacity="1" d="M 123.375 65.265625 C 123.375 65.058594 123.375 65.058594 123.144531 65.058594 C 122.640625 65.546875 121.9375 65.546875 121.625 65.546875 L 121.625 65.828125 C 121.800781 65.828125 122.324219 65.828125 122.742188 65.617188 L 122.742188 69.585938 C 122.742188 69.851562 122.742188 69.953125 121.972656 69.953125 L 121.675781 69.953125 L 121.675781 70.234375 C 121.816406 70.234375 122.777344 70.199219 123.058594 70.199219 C 123.304688 70.199219 124.285156 70.234375 124.457031 70.234375 L 124.457031 69.953125 L 124.160156 69.953125 C 123.375 69.953125 123.375 69.851562 123.375 69.585938 Z M 123.375 65.265625 "/>
<path fill-rule="nonzero" fill="rgb(0%, 0%, 0%)" fill-opacity="1" d="M 215.386719 61.34375 C 215.386719 62.257812 214.644531 62.996094 213.730469 62.996094 C 212.820312 62.996094 212.078125 62.257812 212.078125 61.34375 C 212.078125 60.429688 212.820312 59.691406 213.730469 59.691406 C 214.644531 59.691406 215.386719 60.429688 215.386719 61.34375 Z M 215.386719 61.34375 "/>
<path fill-rule="nonzero" fill="rgb(0%, 0%, 0%)" fill-opacity="1" d="M 349.046875 61.34375 C 349.046875 62.257812 348.304688 62.996094 347.394531 62.996094 C 346.480469 62.996094 345.738281 62.257812 345.738281 61.34375 C 345.738281 60.429688 346.480469 59.691406 347.394531 59.691406 C 348.304688 59.691406 349.046875 60.429688 349.046875 61.34375 Z M 349.046875 61.34375 "/>
<path fill-rule="nonzero" fill="rgb(0%, 0%, 0%)" fill-opacity="1" d="M 74.222656 61.34375 C 74.222656 62.257812 73.484375 62.996094 72.570312 62.996094 C 71.65625 62.996094 70.917969 62.257812 70.917969 61.34375 C 70.917969 60.429688 71.65625 59.691406 72.570312 59.691406 C 73.484375 59.691406 74.222656 60.429688 74.222656 61.34375 Z M 74.222656 61.34375 "/>
<path fill-rule="nonzero" fill="rgb(0%, 0%, 0%)" fill-opacity="1" d="M 7.726562 6.011719 C 7.726562 4.726562 6.796875 3.835938 5.628906 3.835938 C 4.816406 3.835938 4.242188 4.035156 3.648438 4.371094 L 3.726562 5.203125 C 4.382812 4.746094 5.015625 4.585938 5.628906 4.585938 C 6.222656 4.585938 6.734375 5.082031 6.734375 6.011719 L 6.734375 6.566406 C 4.835938 6.585938 3.234375 7.121094 3.234375 8.230469 C 3.234375 8.765625 3.570312 9.792969 4.679688 9.792969 C 4.855469 9.792969 6.042969 9.773438 6.777344 9.199219 L 6.777344 9.65625 L 7.726562 9.65625 Z M 6.734375 7.992188 C 6.734375 8.230469 6.734375 8.546875 6.300781 8.785156 C 5.945312 9 5.449219 9.019531 5.3125 9.019531 C 4.71875 9.019531 4.144531 8.722656 4.144531 8.210938 C 4.144531 7.320312 6.183594 7.238281 6.734375 7.199219 Z M 6.734375 7.992188 "/>
<path fill-rule="nonzero" fill="rgb(0%, 0%, 0%)" fill-opacity="1" d="M 10.226562 12.820312 C 10.625 12.425781 11.476562 11.652344 12.050781 10.109375 C 12.5625 8.765625 12.644531 7.417969 12.644531 6.488281 C 12.644531 2.410156 10.820312 0.746094 10.226562 0.175781 L 9.457031 0.175781 C 10.050781 0.789062 11.652344 2.410156 11.652344 6.488281 C 11.652344 7.199219 11.613281 8.683594 11.097656 10.167969 C 10.585938 11.632812 9.871094 12.386719 9.457031 12.820312 Z M 10.226562 12.820312 "/>
<path fill-rule="nonzero" fill="rgb(0%, 0%, 0%)" fill-opacity="1" d="M 150.640625 0.886719 L 149.691406 0.886719 L 149.691406 9.65625 L 150.683594 9.65625 L 150.683594 9.082031 C 150.980469 9.359375 151.53125 9.792969 152.382812 9.792969 C 153.632812 9.792969 154.71875 8.527344 154.71875 6.84375 C 154.71875 5.28125 153.867188 3.914062 152.679688 3.914062 C 152.1875 3.914062 151.394531 4.035156 150.640625 4.648438 Z M 150.683594 5.417969 C 150.878906 5.121094 151.335938 4.6875 152.027344 4.6875 C 152.78125 4.6875 153.730469 5.222656 153.730469 6.84375 C 153.730469 8.488281 152.679688 9.019531 151.910156 9.019531 C 151.414062 9.019531 151 8.804688 150.683594 8.210938 Z M 150.683594 5.417969 "/>
<path fill-rule="nonzero" fill="rgb(0%, 0%, 0%)" fill-opacity="1" d="M 156.667969 12.820312 C 157.0625 12.425781 157.914062 11.652344 158.488281 10.109375 C 159.003906 8.765625 159.082031 7.417969 159.082031 6.488281 C 159.082031 2.410156 157.261719 0.746094 156.667969 0.175781 L 155.898438 0.175781 C 156.492188 0.789062 158.09375 2.410156 158.09375 6.488281 C 158.09375 7.199219 158.054688 8.683594 157.539062 10.167969 C 157.023438 11.632812 156.3125 12.386719 155.898438 12.820312 Z M 156.667969 12.820312 "/>
<path fill-rule="nonzero" fill="rgb(0%, 0%, 0%)" fill-opacity="1" d="M 283.640625 4.371094 C 282.886719 3.953125 282.453125 3.835938 281.679688 3.835938 C 279.9375 3.835938 278.910156 5.359375 278.910156 6.84375 C 278.910156 8.40625 280.058594 9.792969 281.640625 9.792969 C 282.3125 9.792969 283.007812 9.613281 283.699219 9.140625 L 283.621094 8.308594 C 282.964844 8.804688 282.292969 8.980469 281.640625 8.980469 C 280.589844 8.980469 279.898438 8.070312 279.898438 6.84375 C 279.898438 5.855469 280.355469 4.648438 281.699219 4.648438 C 282.351562 4.648438 282.789062 4.746094 283.480469 5.203125 Z M 283.640625 4.371094 "/>
<path fill-rule="nonzero" fill="rgb(0%, 0%, 0%)" fill-opacity="1" d="M 285.546875 12.820312 C 285.941406 12.425781 286.792969 11.652344 287.367188 10.109375 C 287.882812 8.765625 287.960938 7.417969 287.960938 6.488281 C 287.960938 2.410156 286.140625 0.746094 285.546875 0.175781 L 284.773438 0.175781 C 285.367188 0.789062 286.972656 2.410156 286.972656 6.488281 C 286.972656 7.199219 286.933594 8.683594 286.417969 10.167969 C 285.902344 11.632812 285.191406 12.386719 284.773438 12.820312 Z M 285.546875 12.820312 "/>
</svg>
