<?xml version="1.0" encoding="UTF-8"?>
<svg xmlns="http://www.w3.org/2000/svg" xmlns:xlink="http://www.w3.org/1999/xlink" width="410.821838pt" height="110.066727pt" viewBox="0 0 410.821838 110.066727">
<defs>
<clipPath id="clip-0">
<path clip-rule="nonzero" d="M 75 79 L 117 79 L 117 110.066406 L 75 110.066406 Z M 75 79 "/>
</clipPath>
<clipPath id="clip-1">
<path clip-rule="nonzero" d="M 383 54 L 410.820312 54 L 410.820312 87 L 383 87 Z M 383 54 "/>
</clipPath>
<clipPath id="clip-2">
<path clip-rule="nonzero" d="M 296 82 L 329 82 L 329 110.066406 L 296 110.066406 Z M 296 82 "/>
</clipPath>
<clipPath id="clip-3">
<path clip-rule="nonzero" d="M 82 82 L 114 82 L 114 110.066406 L 82 110.066406 Z M 82 82 "/>
</clipPath>
</defs>
<path fill-rule="nonzero" fill="rgb(0%, 0%, 0%)" fill-opacity="1" d="M 12.078125 69.523438 C 12.148438 69.238281 12.417969 68.1875 13.199219 68.1875 C 13.253906 68.1875 13.539062 68.1875 13.769531 68.328125 C 13.449219 68.402344 13.238281 68.667969 13.238281 68.953125 C 13.238281 69.132812 13.363281 69.34375 13.664062 69.34375 C 13.914062 69.34375 14.269531 69.148438 14.269531 68.683594 C 14.269531 68.097656 13.609375 67.9375 13.21875 67.9375 C 12.558594 67.9375 12.167969 68.542969 12.023438 68.792969 C 11.742188 68.042969 11.132812 67.9375 10.796875 67.9375 C 9.621094 67.9375 8.960938 69.398438 8.960938 69.683594 C 8.960938 69.808594 9.085938 69.808594 9.105469 69.808594 C 9.191406 69.808594 9.226562 69.773438 9.246094 69.683594 C 9.636719 68.472656 10.386719 68.1875 10.777344 68.1875 C 10.992188 68.1875 11.382812 68.292969 11.382812 68.953125 C 11.382812 69.308594 11.1875 70.058594 10.777344 71.660156 C 10.601562 72.355469 10.191406 72.835938 9.691406 72.835938 C 9.621094 72.835938 9.371094 72.835938 9.121094 72.695312 C 9.40625 72.621094 9.65625 72.390625 9.65625 72.070312 C 9.65625 71.765625 9.40625 71.679688 9.246094 71.679688 C 8.890625 71.679688 8.621094 71.964844 8.621094 72.335938 C 8.621094 72.855469 9.175781 73.085938 9.671875 73.085938 C 10.441406 73.085938 10.847656 72.285156 10.867188 72.230469 C 11.011719 72.640625 11.417969 73.085938 12.097656 73.085938 C 13.273438 73.085938 13.914062 71.625 13.914062 71.339844 C 13.914062 71.214844 13.824219 71.214844 13.789062 71.214844 C 13.683594 71.214844 13.664062 71.269531 13.628906 71.339844 C 13.253906 72.570312 12.488281 72.835938 12.132812 72.835938 C 11.6875 72.835938 11.507812 72.480469 11.507812 72.089844 C 11.507812 71.839844 11.5625 71.589844 11.6875 71.089844 Z M 12.078125 69.523438 "/>
<path fill-rule="nonzero" fill="rgb(0%, 0%, 0%)" fill-opacity="1" d="M 187.199219 67.527344 C 187.25 67.367188 187.25 67.347656 187.25 67.261719 C 187.25 67.0625 187.089844 66.957031 186.914062 66.957031 C 186.804688 66.957031 186.628906 67.027344 186.519531 67.1875 C 186.503906 67.261719 186.394531 67.597656 186.359375 67.8125 C 186.273438 68.097656 186.199219 68.417969 186.128906 68.722656 L 185.613281 70.769531 C 185.578125 70.929688 185.078125 71.730469 184.328125 71.730469 C 183.761719 71.730469 183.636719 71.234375 183.636719 70.804688 C 183.636719 70.289062 183.832031 69.578125 184.207031 68.578125 C 184.382812 68.117188 184.4375 67.992188 184.4375 67.757812 C 184.4375 67.261719 184.082031 66.832031 183.511719 66.832031 C 182.421875 66.832031 182.015625 68.488281 182.015625 68.578125 C 182.015625 68.703125 182.121094 68.703125 182.140625 68.703125 C 182.261719 68.703125 182.261719 68.667969 182.316406 68.488281 C 182.636719 67.421875 183.082031 67.082031 183.476562 67.082031 C 183.5625 67.082031 183.761719 67.082031 183.761719 67.4375 C 183.761719 67.722656 183.636719 68.027344 183.5625 68.238281 C 183.101562 69.453125 182.90625 70.09375 182.90625 70.628906 C 182.90625 71.644531 183.617188 71.980469 184.292969 71.980469 C 184.738281 71.980469 185.113281 71.785156 185.433594 71.464844 C 185.292969 72.050781 185.148438 72.621094 184.703125 73.226562 C 184.402344 73.601562 183.972656 73.941406 183.457031 73.941406 C 183.296875 73.941406 182.78125 73.90625 182.585938 73.460938 C 182.761719 73.460938 182.921875 73.460938 183.066406 73.316406 C 183.191406 73.226562 183.296875 73.066406 183.296875 72.855469 C 183.296875 72.496094 182.992188 72.460938 182.886719 72.460938 C 182.621094 72.460938 182.246094 72.640625 182.246094 73.191406 C 182.246094 73.761719 182.746094 74.191406 183.457031 74.191406 C 184.613281 74.191406 185.789062 73.15625 186.113281 71.875 Z M 187.199219 67.527344 "/>
<path fill-rule="nonzero" fill="rgb(81.959534%, 51.371765%, 38.430786%)" fill-opacity="1" d="M 98.503906 10.648438 C 98.503906 10.363281 98.503906 10.34375 98.234375 10.34375 C 97.523438 11.074219 96.523438 11.074219 96.167969 11.074219 L 96.167969 11.429688 C 96.402344 11.429688 97.058594 11.429688 97.648438 11.128906 L 97.648438 17.023438 C 97.648438 17.433594 97.613281 17.558594 96.597656 17.558594 L 96.242188 17.558594 L 96.242188 17.914062 C 96.632812 17.878906 97.613281 17.878906 98.074219 17.878906 C 98.519531 17.878906 99.519531 17.878906 99.910156 17.914062 L 99.910156 17.558594 L 99.554688 17.558594 C 98.519531 17.558594 98.503906 17.433594 98.503906 17.023438 Z M 98.503906 10.648438 "/>
<path fill-rule="nonzero" fill="rgb(81.959534%, 51.371765%, 38.430786%)" fill-opacity="1" d="M 11.910156 38.648438 C 11.910156 38.363281 11.910156 38.34375 11.640625 38.34375 C 10.929688 39.074219 9.933594 39.074219 9.574219 39.074219 L 9.574219 39.429688 C 9.808594 39.429688 10.464844 39.429688 11.054688 39.128906 L 11.054688 45.023438 C 11.054688 45.433594 11.019531 45.558594 10.003906 45.558594 L 9.648438 45.558594 L 9.648438 45.914062 C 10.039062 45.878906 11.019531 45.878906 11.480469 45.878906 C 11.925781 45.878906 12.925781 45.878906 13.316406 45.914062 L 13.316406 45.558594 L 12.960938 45.558594 C 11.925781 45.558594 11.910156 45.433594 11.910156 45.023438 Z M 11.910156 38.648438 "/>
<path fill-rule="nonzero" fill="rgb(0%, 0%, 0%)" fill-opacity="1" d="M 310.417969 93.867188 C 310.417969 93.867188 310.417969 93.742188 310.277344 93.742188 C 310.007812 93.742188 309.1875 93.832031 308.886719 93.867188 C 308.796875 93.867188 308.671875 93.886719 308.671875 94.082031 C 308.671875 94.222656 308.78125 94.222656 308.941406 94.222656 C 309.492188 94.222656 309.511719 94.292969 309.511719 94.417969 L 309.472656 94.652344 L 307.835938 101.1875 C 307.78125 101.347656 307.78125 101.367188 307.78125 101.4375 C 307.78125 101.707031 308.015625 101.757812 308.121094 101.757812 C 308.296875 101.757812 308.476562 101.617188 308.53125 101.457031 L 308.742188 100.601562 L 308.992188 99.585938 C 309.066406 99.320312 309.136719 99.070312 309.1875 98.820312 C 309.207031 98.75 309.3125 98.375 309.3125 98.304688 C 309.351562 98.195312 309.707031 97.574219 310.097656 97.253906 C 310.347656 97.074219 310.6875 96.859375 311.183594 96.859375 C 311.664062 96.859375 311.789062 97.253906 311.789062 97.660156 C 311.789062 98.265625 311.363281 99.515625 311.09375 100.210938 C 311.007812 100.457031 310.933594 100.601562 310.933594 100.832031 C 310.933594 101.367188 311.34375 101.757812 311.878906 101.757812 C 312.949219 101.757812 313.359375 100.101562 313.359375 100.011719 C 313.359375 99.886719 313.269531 99.886719 313.234375 99.886719 C 313.109375 99.886719 313.109375 99.925781 313.054688 100.101562 C 312.894531 100.707031 312.519531 101.507812 311.898438 101.507812 C 311.703125 101.507812 311.628906 101.402344 311.628906 101.136719 C 311.628906 100.851562 311.71875 100.582031 311.824219 100.335938 C 312.003906 99.835938 312.519531 98.480469 312.519531 97.820312 C 312.519531 97.089844 312.074219 96.609375 311.21875 96.609375 C 310.507812 96.609375 309.957031 96.96875 309.527344 97.484375 Z M 310.417969 93.867188 "/>
<path fill-rule="nonzero" fill="rgb(0%, 0%, 0%)" fill-opacity="1" d="M 315.875 100.683594 C 316.5 100.683594 316.945312 101.109375 316.945312 101.964844 C 316.945312 102.945312 316.355469 103.25 315.910156 103.25 C 315.589844 103.25 314.878906 103.160156 314.558594 102.679688 C 314.933594 102.679688 315.019531 102.410156 315.019531 102.234375 C 315.019531 101.984375 314.824219 101.804688 314.574219 101.804688 C 314.363281 101.804688 314.128906 101.949219 314.128906 102.269531 C 314.128906 103.015625 314.949219 103.5 315.910156 103.5 C 317.015625 103.5 317.78125 102.75 317.78125 101.964844 C 317.78125 101.34375 317.285156 100.71875 316.410156 100.539062 C 317.230469 100.238281 317.53125 99.648438 317.53125 99.152344 C 317.53125 98.527344 316.820312 98.066406 315.929688 98.066406 C 315.058594 98.066406 314.378906 98.492188 314.378906 99.132812 C 314.378906 99.402344 314.558594 99.542969 314.789062 99.542969 C 315.039062 99.542969 315.199219 99.363281 315.199219 99.152344 C 315.199219 98.917969 315.039062 98.742188 314.789062 98.722656 C 315.074219 98.386719 315.609375 98.296875 315.910156 98.296875 C 316.269531 98.296875 316.765625 98.472656 316.765625 99.152344 C 316.765625 99.488281 316.660156 99.863281 316.445312 100.09375 C 316.195312 100.398438 315.964844 100.417969 315.574219 100.453125 C 315.378906 100.46875 315.359375 100.46875 315.324219 100.46875 C 315.304688 100.46875 315.234375 100.488281 315.234375 100.578125 C 315.234375 100.683594 315.304688 100.683594 315.449219 100.683594 Z M 315.875 100.683594 "/>
<path fill-rule="nonzero" fill="rgb(0%, 0%, 0%)" fill-opacity="1" d="M 310.578125 37.730469 C 310.578125 37.730469 310.578125 37.605469 310.4375 37.605469 C 310.167969 37.605469 309.351562 37.695312 309.046875 37.730469 C 308.957031 37.730469 308.832031 37.746094 308.832031 37.945312 C 308.832031 38.085938 308.941406 38.085938 309.101562 38.085938 C 309.652344 38.085938 309.671875 38.15625 309.671875 38.28125 L 309.636719 38.515625 L 307.996094 45.050781 C 307.941406 45.210938 307.941406 45.230469 307.941406 45.300781 C 307.941406 45.566406 308.175781 45.621094 308.28125 45.621094 C 308.460938 45.621094 308.636719 45.480469 308.691406 45.320312 L 308.90625 44.464844 L 309.152344 43.449219 C 309.226562 43.179688 309.296875 42.933594 309.351562 42.683594 C 309.367188 42.609375 309.472656 42.238281 309.472656 42.164062 C 309.511719 42.058594 309.867188 41.433594 310.257812 41.113281 C 310.507812 40.9375 310.847656 40.722656 311.34375 40.722656 C 311.824219 40.722656 311.949219 41.113281 311.949219 41.523438 C 311.949219 42.128906 311.523438 43.378906 311.257812 44.070312 C 311.167969 44.320312 311.09375 44.464844 311.09375 44.695312 C 311.09375 45.230469 311.503906 45.621094 312.039062 45.621094 C 313.109375 45.621094 313.519531 43.964844 313.519531 43.875 C 313.519531 43.75 313.429688 43.75 313.394531 43.75 C 313.269531 43.75 313.269531 43.785156 313.214844 43.964844 C 313.054688 44.570312 312.679688 45.371094 312.058594 45.371094 C 311.863281 45.371094 311.789062 45.265625 311.789062 45 C 311.789062 44.714844 311.878906 44.445312 311.988281 44.195312 C 312.164062 43.699219 312.679688 42.34375 312.679688 41.683594 C 312.679688 40.953125 312.234375 40.472656 311.378906 40.472656 C 310.667969 40.472656 310.117188 40.828125 309.6875 41.347656 Z M 310.578125 37.730469 "/>
<path fill-rule="nonzero" fill="rgb(0%, 0%, 0%)" fill-opacity="1" d="M 316.519531 42.140625 C 316.519531 41.925781 316.519531 41.925781 316.285156 41.925781 C 315.769531 42.425781 315.058594 42.425781 314.734375 42.425781 L 314.734375 42.710938 C 314.914062 42.710938 315.449219 42.710938 315.875 42.496094 L 315.875 46.542969 C 315.875 46.808594 315.875 46.914062 315.09375 46.914062 L 314.789062 46.914062 L 314.789062 47.199219 C 314.933594 47.199219 315.910156 47.164062 316.195312 47.164062 C 316.445312 47.164062 317.445312 47.199219 317.621094 47.199219 L 317.621094 46.914062 L 317.320312 46.914062 C 316.519531 46.914062 316.519531 46.808594 316.519531 46.542969 Z M 316.519531 42.140625 "/>
<path fill-rule="nonzero" fill="rgb(0%, 0%, 0%)" fill-opacity="1" d="M 310.453125 65.839844 C 310.453125 65.839844 310.453125 65.714844 310.3125 65.714844 C 310.042969 65.714844 309.226562 65.804688 308.921875 65.839844 C 308.832031 65.839844 308.707031 65.855469 308.707031 66.050781 C 308.707031 66.195312 308.816406 66.195312 308.976562 66.195312 C 309.527344 66.195312 309.546875 66.265625 309.546875 66.390625 L 309.511719 66.621094 L 307.871094 73.160156 C 307.816406 73.320312 307.816406 73.339844 307.816406 73.410156 C 307.816406 73.675781 308.050781 73.730469 308.15625 73.730469 C 308.335938 73.730469 308.511719 73.589844 308.566406 73.425781 L 308.78125 72.574219 L 309.027344 71.558594 C 309.101562 71.289062 309.171875 71.039062 309.226562 70.792969 C 309.242188 70.71875 309.351562 70.347656 309.351562 70.273438 C 309.386719 70.167969 309.742188 69.542969 310.132812 69.222656 C 310.382812 69.046875 310.722656 68.832031 311.21875 68.832031 C 311.703125 68.832031 311.824219 69.222656 311.824219 69.632812 C 311.824219 70.238281 311.398438 71.484375 311.132812 72.179688 C 311.042969 72.429688 310.972656 72.574219 310.972656 72.804688 C 310.972656 73.339844 311.378906 73.730469 311.914062 73.730469 C 312.984375 73.730469 313.394531 72.074219 313.394531 71.984375 C 313.394531 71.859375 313.304688 71.859375 313.269531 71.859375 C 313.144531 71.859375 313.144531 71.894531 313.089844 72.074219 C 312.929688 72.679688 312.554688 73.480469 311.933594 73.480469 C 311.738281 73.480469 311.664062 73.375 311.664062 73.105469 C 311.664062 72.820312 311.753906 72.554688 311.863281 72.304688 C 312.039062 71.804688 312.554688 70.453125 312.554688 69.792969 C 312.554688 69.0625 312.109375 68.582031 311.257812 68.582031 C 310.542969 68.582031 309.992188 68.9375 309.5625 69.453125 Z M 310.453125 65.839844 "/>
<path fill-rule="nonzero" fill="rgb(0%, 0%, 0%)" fill-opacity="1" d="M 317.746094 73.867188 L 317.480469 73.867188 C 317.460938 74.042969 317.371094 74.507812 317.265625 74.578125 C 317.210938 74.632812 316.605469 74.632812 316.480469 74.632812 L 315.019531 74.632812 C 315.859375 73.902344 316.144531 73.671875 316.605469 73.296875 C 317.195312 72.832031 317.746094 72.335938 317.746094 71.585938 C 317.746094 70.625 316.910156 70.035156 315.894531 70.035156 C 314.914062 70.035156 314.238281 70.730469 314.238281 71.460938 C 314.238281 71.851562 314.574219 71.90625 314.664062 71.90625 C 314.84375 71.90625 315.074219 71.765625 315.074219 71.480469 C 315.074219 71.335938 315.019531 71.050781 314.613281 71.050781 C 314.859375 70.5 315.394531 70.320312 315.769531 70.320312 C 316.570312 70.320312 316.980469 70.945312 316.980469 71.585938 C 316.980469 72.28125 316.480469 72.816406 316.234375 73.101562 L 314.328125 75.007812 C 314.238281 75.078125 314.238281 75.09375 314.238281 75.308594 L 317.515625 75.308594 Z M 317.746094 73.867188 "/>
<path fill="none" stroke-width="1.984252" stroke-linecap="butt" stroke-linejoin="miter" stroke="rgb(60.783386%, 84.312439%, 81.959534%)" stroke-opacity="1" stroke-miterlimit="4" d="M 105.390625 62.589844 L 98.160156 70.835938 L 86.988281 70.84375 "/>
<g clip-path="url(#clip-0)">
<path fill="none" stroke-width="1.984252" stroke-linecap="butt" stroke-linejoin="miter" stroke="rgb(60.783386%, 84.312439%, 81.959534%)" stroke-opacity="1" stroke-miterlimit="4" d="M 105.390625 90.582031 L 98.160156 98.824219 L 86.988281 98.832031 "/>
</g>
<path fill="none" stroke-width="1.984252" stroke-linecap="butt" stroke-linejoin="miter" stroke="rgb(60.783386%, 84.312439%, 81.959534%)" stroke-opacity="1" stroke-miterlimit="4" d="M 105.390625 33.507812 L 98.160156 41.75 L 86.988281 41.757812 "/>
<path fill="none" stroke-width="0.850394" stroke-linecap="butt" stroke-linejoin="miter" stroke="rgb(0%, 0%, 0%)" stroke-opacity="1" stroke-miterlimit="4" d="M 22.554688 70.511719 C 22.554688 76.644531 17.582031 81.617188 11.445312 81.617188 C 5.3125 81.617188 0.339844 76.644531 0.339844 70.511719 C 0.339844 64.378906 5.3125 59.402344 11.445312 59.402344 C 17.582031 59.402344 22.554688 64.378906 22.554688 70.511719 Z M 22.554688 70.511719 "/>
<path fill="none" stroke-width="0.850394" stroke-linecap="butt" stroke-linejoin="miter" stroke="rgb(0%, 0%, 0%)" stroke-opacity="1" stroke-miterlimit="4" d="M 109.148438 70.511719 C 109.148438 76.644531 104.175781 81.617188 98.039062 81.617188 C 91.90625 81.617188 86.933594 76.644531 86.933594 70.511719 C 86.933594 64.378906 91.90625 59.402344 98.039062 59.402344 C 104.175781 59.402344 109.148438 64.378906 109.148438 70.511719 Z M 109.148438 70.511719 "/>
<path fill="none" stroke-width="0.850394" stroke-linecap="butt" stroke-linejoin="miter" stroke="rgb(0%, 0%, 0%)" stroke-opacity="1" stroke-miterlimit="4" d="M 22.03125 66.535156 L 85.15625 45.074219 "/>
<path fill-rule="evenodd" fill="rgb(0%, 0%, 0%)" fill-opacity="1" stroke-width="0.42941" stroke-linecap="butt" stroke-linejoin="miter" stroke="rgb(0%, 0%, 0%)" stroke-opacity="1" stroke-miterlimit="4" d="M -59.380892 -66.354087 L -57.770196 -67.966699 L -63.404162 -66.354582 L -57.771783 -64.744582 Z M -59.380892 -66.354087 " transform="matrix(-1, 0.339943, -0.339943, -1, 0, 0)"/>
<path fill="none" stroke-width="0.850394" stroke-linecap="butt" stroke-linejoin="miter" stroke="rgb(0%, 0%, 0%)" stroke-opacity="1" stroke-miterlimit="4" d="M 22.085938 73.21875 L 85.28125 96.660156 "/>
<path fill-rule="evenodd" fill="rgb(0%, 0%, 0%)" fill-opacity="1" stroke-width="0.425223" stroke-linecap="butt" stroke-linejoin="miter" stroke="rgb(0%, 0%, 0%)" stroke-opacity="1" stroke-miterlimit="4" d="M -103.295331 -57.158417 L -101.70203 -58.749524 L -107.282611 -57.155719 L -101.70295 -55.561683 Z M -103.295331 -57.158417 " transform="matrix(-1, -0.370995, 0.370995, -1, 0, 0)"/>
<path fill="none" stroke-width="0.850394" stroke-linecap="butt" stroke-linejoin="miter" stroke="rgb(0%, 0%, 0%)" stroke-opacity="1" stroke-miterlimit="4" d="M 22.933594 70.015625 L 85.535156 69.9375 "/>
<path fill-rule="evenodd" fill="rgb(0%, 0%, 0%)" fill-opacity="1" stroke-width="0.453543" stroke-linecap="butt" stroke-linejoin="miter" stroke="rgb(0%, 0%, 0%)" stroke-opacity="1" stroke-miterlimit="4" d="M -82.045848 -70.043273 L -80.348424 -71.74429 L -86.299753 -70.044648 L -80.344831 -68.345848 Z M -82.045848 -70.043273 " transform="matrix(-1, 0.00124158, -0.00124158, -1, 0, 0)"/>
<path fill="none" stroke-width="0.850394" stroke-linecap="butt" stroke-linejoin="miter" stroke="rgb(0%, 0%, 0%)" stroke-opacity="1" stroke-miterlimit="4" d="M 172.039062 66.488281 L 109.296875 42.574219 "/>
<path fill-rule="evenodd" fill="rgb(0%, 0%, 0%)" fill-opacity="1" stroke-width="0.423803" stroke-linecap="butt" stroke-linejoin="miter" stroke="rgb(0%, 0%, 0%)" stroke-opacity="1" stroke-miterlimit="4" d="M -169.16323 -0.797211 L -167.573986 -2.387323 L -173.136371 -0.798481 L -167.576529 0.793334 Z M -169.16323 -0.797211 " transform="matrix(-1, -0.381148, 0.381148, -1, 0, 0)"/>
<path fill="none" stroke-width="0.850394" stroke-linecap="butt" stroke-linejoin="miter" stroke="rgb(0%, 0%, 0%)" stroke-opacity="1" stroke-miterlimit="4" d="M 171.957031 74.117188 L 109.027344 98.078125 "/>
<path fill-rule="evenodd" fill="rgb(0%, 0%, 0%)" fill-opacity="1" stroke-width="0.423859" stroke-linecap="butt" stroke-linejoin="miter" stroke="rgb(0%, 0%, 0%)" stroke-opacity="1" stroke-miterlimit="4" d="M -122.358581 -121.912738 L -120.768807 -123.502738 L -126.330943 -121.913512 L -120.768581 -120.322964 Z M -122.358581 -121.912738 " transform="matrix(-1, 0.380754, -0.380754, -1, 0, 0)"/>
<path fill="none" stroke-width="0.850394" stroke-linecap="butt" stroke-linejoin="miter" stroke="rgb(0%, 0%, 0%)" stroke-opacity="1" stroke-miterlimit="4" d="M 171.523438 70.355469 L 109.109375 70.277344 "/>
<path fill-rule="evenodd" fill="rgb(0%, 0%, 0%)" fill-opacity="1" stroke-width="0.453543" stroke-linecap="butt" stroke-linejoin="miter" stroke="rgb(0%, 0%, 0%)" stroke-opacity="1" stroke-miterlimit="4" d="M -168.208979 -70.140798 L -166.507986 -71.842148 L -172.458983 -70.143286 L -166.507629 -68.439805 Z M -168.208979 -70.140798 " transform="matrix(-1, -0.00125299, 0.00125299, -1, 0, 0)"/>
<path fill-rule="nonzero" fill="rgb(0%, 0%, 0%)" fill-opacity="0.457286" d="M 138.894531 43.351562 C 138.902344 43.324219 138.96875 43.230469 138.96875 43.230469 C 138.976562 43.21875 139.007812 43.128906 138.890625 43.085938 C 138.804688 43.054688 138.777344 43.078125 138.675781 43.222656 L 137.34375 45.175781 C 135.84375 44.691406 134.015625 45.417969 133.546875 46.691406 C 133.21875 47.582031 133.609375 48.558594 134.726562 49.050781 C 134.550781 49.300781 134.363281 49.582031 134.183594 49.847656 C 133.90625 50.242188 133.6875 50.5625 133.675781 50.59375 C 133.644531 50.679688 133.710938 50.722656 133.757812 50.738281 C 133.800781 50.753906 133.820312 50.746094 133.859375 50.726562 C 133.878906 50.714844 134.019531 50.519531 134.097656 50.398438 L 134.960938 49.136719 C 136.488281 49.632812 138.3125 48.871094 138.769531 47.628906 C 139.042969 46.878906 138.855469 45.847656 137.59375 45.269531 Z M 134.84375 48.859375 C 134.296875 48.628906 133.75 48.042969 134.085938 47.121094 C 134.5 45.992188 135.785156 44.988281 137.222656 45.367188 Z M 137.457031 45.453125 C 138.160156 45.757812 138.53125 46.375 138.230469 47.195312 C 137.820312 48.308594 136.527344 49.347656 135.09375 48.953125 Z M 137.457031 45.453125 "/>
<path fill-rule="nonzero" fill="rgb(0%, 0%, 0%)" fill-opacity="0.457286" d="M 141.269531 48.191406 C 141.332031 48.015625 141.332031 48.015625 141.144531 47.945312 C 140.566406 48.199219 139.984375 47.984375 139.71875 47.886719 L 139.632812 48.121094 C 139.78125 48.175781 140.21875 48.335938 140.632812 48.289062 L 139.414062 51.613281 C 139.332031 51.832031 139.300781 51.917969 138.65625 51.683594 L 138.410156 51.59375 L 138.324219 51.824219 C 138.441406 51.867188 139.253906 52.136719 139.488281 52.222656 C 139.695312 52.296875 140.503906 52.625 140.648438 52.679688 L 140.734375 52.445312 L 140.488281 52.355469 C 139.828125 52.113281 139.859375 52.023438 139.941406 51.804688 Z M 141.269531 48.191406 "/>
<path fill-rule="nonzero" fill="rgb(0%, 0%, 0%)" fill-opacity="0.457286" d="M 137.507812 59.515625 C 137.507812 59.484375 137.539062 59.378906 137.539062 59.378906 C 137.539062 59.363281 137.539062 59.269531 137.414062 59.269531 C 137.320312 59.269531 137.304688 59.300781 137.257812 59.46875 L 136.679688 61.761719 C 135.105469 61.824219 133.640625 63.136719 133.640625 64.492188 C 133.640625 65.445312 134.339844 66.222656 135.558594 66.300781 C 135.480469 66.597656 135.402344 66.925781 135.324219 67.238281 C 135.199219 67.703125 135.105469 68.078125 135.105469 68.109375 C 135.105469 68.203125 135.183594 68.21875 135.230469 68.21875 C 135.277344 68.21875 135.292969 68.203125 135.324219 68.171875 C 135.339844 68.15625 135.402344 67.921875 135.433594 67.78125 L 135.808594 66.300781 C 137.414062 66.238281 138.863281 64.898438 138.863281 63.570312 C 138.863281 62.777344 138.332031 61.871094 136.945312 61.761719 Z M 135.605469 66.082031 C 135.011719 66.050781 134.292969 65.691406 134.292969 64.710938 C 134.292969 63.507812 135.152344 62.121094 136.632812 61.980469 Z M 136.882812 61.980469 C 137.648438 62.027344 138.207031 62.480469 138.207031 63.355469 C 138.207031 64.539062 137.351562 65.957031 135.871094 66.082031 Z M 136.882812 61.980469 "/>
<path fill-rule="nonzero" fill="rgb(0%, 0%, 0%)" fill-opacity="0.457286" d="M 142.589844 66.40625 L 142.355469 66.40625 C 142.339844 66.558594 142.261719 66.964844 142.167969 67.027344 C 142.121094 67.074219 141.589844 67.074219 141.480469 67.074219 L 140.203125 67.074219 C 140.9375 66.433594 141.1875 66.234375 141.589844 65.90625 C 142.105469 65.5 142.589844 65.0625 142.589844 64.40625 C 142.589844 63.566406 141.855469 63.050781 140.96875 63.050781 C 140.109375 63.050781 139.515625 63.660156 139.515625 64.300781 C 139.515625 64.640625 139.8125 64.6875 139.890625 64.6875 C 140.046875 64.6875 140.25 64.5625 140.25 64.316406 C 140.25 64.191406 140.203125 63.941406 139.84375 63.941406 C 140.0625 63.457031 140.53125 63.300781 140.859375 63.300781 C 141.558594 63.300781 141.917969 63.847656 141.917969 64.40625 C 141.917969 65.015625 141.480469 65.484375 141.265625 65.734375 L 139.59375 67.402344 C 139.515625 67.464844 139.515625 67.480469 139.515625 67.667969 L 142.386719 67.667969 Z M 142.589844 66.40625 "/>
<path fill-rule="nonzero" fill="rgb(0%, 0%, 0%)" fill-opacity="0.457286" d="M 135.265625 76.675781 C 135.253906 76.648438 135.242188 76.535156 135.242188 76.535156 C 135.238281 76.519531 135.207031 76.433594 135.089844 76.476562 C 135 76.507812 134.996094 76.542969 135.015625 76.71875 L 135.277344 79.070312 C 133.824219 79.679688 132.914062 81.421875 133.390625 82.691406 C 133.722656 83.582031 134.652344 84.066406 135.820312 83.714844 C 135.851562 84.019531 135.894531 84.351562 135.929688 84.671875 C 135.976562 85.152344 136.019531 85.535156 136.03125 85.566406 C 136.066406 85.652344 136.144531 85.640625 136.1875 85.625 C 136.230469 85.609375 136.238281 85.585938 136.257812 85.546875 C 136.265625 85.527344 136.242188 85.285156 136.222656 85.144531 L 136.054688 83.625 C 137.535156 83.003906 138.421875 81.238281 137.957031 79.996094 C 137.679688 79.253906 136.863281 78.589844 135.527344 78.976562 Z M 135.789062 83.492188 C 135.222656 83.671875 134.425781 83.585938 134.078125 82.667969 C 133.65625 81.542969 133.972656 79.941406 135.3125 79.289062 Z M 135.542969 79.203125 C 136.277344 78.976562 136.960938 79.203125 137.269531 80.023438 C 137.683594 81.132812 137.378906 82.761719 136.035156 83.398438 Z M 135.542969 79.203125 "/>
<path fill-rule="nonzero" fill="rgb(0%, 0%, 0%)" fill-opacity="0.457286" d="M 140.5625 80.910156 C 141.074219 80.71875 141.570312 80.933594 141.835938 81.636719 C 142.136719 82.4375 141.746094 82.867188 141.382812 83.003906 C 141.121094 83.101562 140.507812 83.25 140.097656 82.953125 C 140.402344 82.835938 140.394531 82.589844 140.339844 82.445312 C 140.261719 82.242188 140.046875 82.15625 139.84375 82.230469 C 139.667969 82.296875 139.523438 82.484375 139.621094 82.75 C 139.851562 83.363281 140.671875 83.503906 141.457031 83.207031 C 142.363281 82.867188 142.761719 82.019531 142.519531 81.378906 C 142.328125 80.867188 141.730469 80.507812 140.957031 80.628906 C 141.539062 80.128906 141.605469 79.554688 141.453125 79.148438 C 141.261719 78.636719 140.535156 78.476562 139.804688 78.75 C 139.085938 79.015625 138.664062 79.574219 138.863281 80.101562 C 138.945312 80.320312 139.132812 80.382812 139.324219 80.3125 C 139.527344 80.234375 139.605469 80.039062 139.539062 79.863281 C 139.46875 79.675781 139.28125 79.578125 139.070312 79.640625 C 139.199219 79.273438 139.613281 79.039062 139.859375 78.945312 C 140.152344 78.835938 140.617188 78.828125 140.824219 79.382812 C 140.925781 79.660156 140.953125 80 140.851562 80.253906 C 140.738281 80.578125 140.554688 80.664062 140.246094 80.816406 C 140.089844 80.890625 140.074219 80.894531 140.046875 80.90625 C 140.03125 80.910156 139.976562 80.949219 140.007812 81.019531 C 140.039062 81.109375 140.097656 81.085938 140.214844 81.042969 Z M 140.5625 80.910156 "/>
<path fill="none" stroke-width="0.850394" stroke-linecap="butt" stroke-linejoin="miter" stroke="rgb(81.959534%, 51.371765%, 38.430786%)" stroke-opacity="1" stroke-miterlimit="4" d="M 173.582031 63.640625 L 108.691406 17.15625 "/>
<path fill-rule="evenodd" fill="rgb(81.959534%, 51.371765%, 38.430786%)" fill-opacity="1" stroke-width="0.3687" stroke-linecap="butt" stroke-linejoin="miter" stroke="rgb(81.959534%, 51.371765%, 38.430786%)" stroke-opacity="1" stroke-miterlimit="4" d="M -142.076787 40.118681 L -140.692172 38.736167 L -145.53385 40.118638 L -140.691691 41.501447 Z M -142.076787 40.118681 " transform="matrix(-1, -0.716365, 0.716365, -1, 0, 0)"/>
<path fill-rule="nonzero" fill="rgb(0%, 0%, 0%)" fill-opacity="0.457286" d="M 55.152344 47.421875 C 54.921875 46.808594 54.273438 45.570312 53.324219 45.925781 C 52.023438 46.414062 51.578125 49.578125 52.378906 51.710938 C 52.707031 52.585938 53.359375 53.523438 54.207031 53.207031 C 55.519531 52.714844 55.933594 49.511719 55.152344 47.421875 Z M 52.765625 49.765625 C 52.707031 49.121094 52.617188 48.304688 52.746094 47.492188 C 52.824219 46.945312 52.960938 46.292969 53.386719 46.136719 C 53.839844 45.964844 54.121094 46.542969 54.320312 47.066406 C 54.496094 47.535156 54.597656 48.03125 54.722656 49.03125 Z M 54.75 49.371094 C 54.804688 49.832031 54.910156 50.691406 54.796875 51.5 C 54.71875 52.265625 54.539062 52.847656 54.128906 53 C 53.820312 53.117188 53.527344 52.910156 53.207031 52.050781 C 53.058594 51.65625 52.914062 51.09375 52.808594 50.097656 Z M 54.75 49.371094 "/>
<path fill-rule="nonzero" fill="rgb(0%, 0%, 0%)" fill-opacity="0.457286" d="M 58.179688 48.460938 C 58.113281 48.289062 58.113281 48.289062 57.921875 48.359375 C 57.652344 48.925781 57.070312 49.144531 56.804688 49.242188 L 56.894531 49.476562 C 57.039062 49.421875 57.476562 49.257812 57.761719 48.953125 L 59.003906 52.265625 C 59.085938 52.484375 59.121094 52.574219 58.476562 52.8125 L 58.230469 52.90625 L 58.316406 53.140625 C 58.433594 53.097656 59.226562 52.765625 59.460938 52.679688 C 59.664062 52.601562 60.492188 52.324219 60.636719 52.269531 L 60.550781 52.035156 L 60.304688 52.128906 C 59.644531 52.375 59.613281 52.289062 59.53125 52.070312 Z M 58.179688 48.460938 "/>
<path fill-rule="nonzero" fill="rgb(0%, 0%, 0%)" fill-opacity="0.457286" d="M 61.890625 47.070312 C 61.824219 46.894531 61.824219 46.894531 61.632812 46.964844 C 61.363281 47.535156 60.78125 47.753906 60.515625 47.851562 L 60.605469 48.085938 C 60.75 48.03125 61.1875 47.867188 61.472656 47.558594 L 62.714844 50.875 C 62.796875 51.09375 62.832031 51.179688 62.1875 51.421875 L 61.941406 51.515625 L 62.027344 51.75 C 62.144531 51.707031 62.9375 51.375 63.171875 51.289062 C 63.375 51.210938 64.203125 50.933594 64.351562 50.878906 L 64.261719 50.644531 L 64.015625 50.738281 C 63.355469 50.984375 63.324219 50.898438 63.242188 50.675781 Z M 61.890625 47.070312 "/>
<path fill-rule="nonzero" fill="rgb(81.959534%, 51.371765%, 38.430786%)" fill-opacity="1" stroke-width="0.850394" stroke-linecap="butt" stroke-linejoin="miter" stroke="rgb(81.959534%, 51.371765%, 38.430786%)" stroke-opacity="1" stroke-miterlimit="4" d="M 22.328125 42.175781 L 85.046875 42.125 "/>
<path fill-rule="evenodd" fill="rgb(81.959534%, 51.371765%, 38.430786%)" fill-opacity="1" stroke-width="0.453543" stroke-linecap="butt" stroke-linejoin="miter" stroke="rgb(81.959534%, 51.371765%, 38.430786%)" stroke-opacity="1" stroke-miterlimit="4" d="M -81.609566 -42.196529 L -79.908941 -43.894339 L -85.863473 -42.196148 L -79.907851 -40.495901 Z M -81.609566 -42.196529 " transform="matrix(-1, 0.000828617, -0.000828617, -1, 0, 0)"/>
<path fill-rule="nonzero" fill="rgb(81.959534%, 51.371765%, 38.430786%)" fill-opacity="1" stroke-width="0.850394" stroke-linecap="butt" stroke-linejoin="miter" stroke="rgb(81.959534%, 51.371765%, 38.430786%)" stroke-opacity="1" stroke-miterlimit="4" d="M 21.164062 47.953125 L 86.828125 93.539062 "/>
<path fill-rule="evenodd" fill="rgb(81.959534%, 51.371765%, 38.430786%)" fill-opacity="1" stroke-width="0.372563" stroke-linecap="butt" stroke-linejoin="miter" stroke="rgb(81.959534%, 51.371765%, 38.430786%)" stroke-opacity="1" stroke-miterlimit="4" d="M -99.612189 -22.443289 L -98.216147 -23.842159 L -103.105022 -22.444219 L -98.215955 -21.045417 Z M -99.612189 -22.443289 " transform="matrix(-1, -0.694236, 0.694236, -1, 0, 0)"/>
<path fill-rule="nonzero" fill="rgb(81.959534%, 51.371765%, 38.430786%)" fill-opacity="1" stroke-width="0.850394" stroke-linecap="butt" stroke-linejoin="miter" stroke="rgb(81.959534%, 51.371765%, 38.430786%)" stroke-opacity="1" stroke-miterlimit="4" d="M 22.363281 45.117188 L 85.839844 66.988281 "/>
<path fill-rule="evenodd" fill="rgb(81.959534%, 51.371765%, 38.430786%)" fill-opacity="1" stroke-width="0.428804" stroke-linecap="butt" stroke-linejoin="miter" stroke="rgb(81.959534%, 51.371765%, 38.430786%)" stroke-opacity="1" stroke-miterlimit="4" d="M -94.143457 -33.441872 L -92.537359 -35.049939 L -98.163541 -33.443475 L -92.538882 -31.834571 Z M -94.143457 -33.441872 " transform="matrix(-1, -0.344549, 0.344549, -1, 0, 0)"/>
<path fill="none" stroke-width="0.850394" stroke-linecap="butt" stroke-linejoin="miter" stroke="rgb(81.959534%, 51.371765%, 38.430786%)" stroke-opacity="1" stroke-miterlimit="4" d="M 109.148438 14.128906 C 109.148438 20.265625 104.175781 25.238281 98.039062 25.238281 C 91.90625 25.238281 86.933594 20.265625 86.933594 14.128906 C 86.933594 7.996094 91.90625 3.023438 98.039062 3.023438 C 104.175781 3.023438 109.148438 7.996094 109.148438 14.128906 Z M 109.148438 14.128906 "/>
<path fill="none" stroke-width="0.850394" stroke-linecap="butt" stroke-linejoin="miter" stroke="rgb(0%, 0%, 0%)" stroke-opacity="1" stroke-miterlimit="4" d="M 195.742188 70.511719 C 195.742188 76.644531 190.765625 81.617188 184.632812 81.617188 C 178.5 81.617188 173.523438 76.644531 173.523438 70.511719 C 173.523438 64.378906 178.5 59.402344 184.632812 59.402344 C 190.765625 59.402344 195.742188 64.378906 195.742188 70.511719 Z M 195.742188 70.511719 "/>
<path fill="none" stroke-width="0.850394" stroke-linecap="butt" stroke-linejoin="miter" stroke="rgb(81.959534%, 51.371765%, 38.430786%)" stroke-opacity="1" stroke-miterlimit="4" d="M 22.554688 42.128906 C 22.554688 48.265625 17.582031 53.238281 11.445312 53.238281 C 5.3125 53.238281 0.339844 48.265625 0.339844 42.128906 C 0.339844 35.996094 5.3125 31.023438 11.445312 31.023438 C 17.582031 31.023438 22.554688 35.996094 22.554688 42.128906 Z M 22.554688 42.128906 "/>
<path fill-rule="nonzero" fill="rgb(81.959534%, 51.371765%, 38.430786%)" fill-opacity="1" d="M 139.539062 25.679688 C 139.554688 25.652344 139.636719 25.570312 139.636719 25.570312 C 139.644531 25.558594 139.691406 25.476562 139.582031 25.414062 C 139.503906 25.367188 139.472656 25.386719 139.347656 25.511719 L 137.699219 27.210938 C 136.304688 26.476562 134.382812 26.878906 133.703125 28.050781 C 133.226562 28.875 133.445312 29.902344 134.460938 30.578125 C 134.242188 30.796875 134.011719 31.039062 133.789062 31.269531 C 133.445312 31.613281 133.179688 31.890625 133.164062 31.917969 C 133.117188 32 133.175781 32.050781 133.21875 32.074219 C 133.257812 32.097656 133.277344 32.09375 133.320312 32.082031 C 133.34375 32.074219 133.511719 31.90625 133.609375 31.796875 L 134.675781 30.703125 C 136.097656 31.453125 138.023438 31.015625 138.6875 29.867188 C 139.085938 29.179688 139.078125 28.128906 137.929688 27.34375 Z M 134.609375 30.414062 C 134.113281 30.089844 133.667969 29.417969 134.160156 28.570312 C 134.761719 27.527344 136.199219 26.753906 137.550781 27.375 Z M 137.765625 27.5 C 138.40625 27.921875 138.664062 28.59375 138.230469 29.351562 C 137.636719 30.378906 136.183594 31.175781 134.839844 30.542969 Z M 137.765625 27.5 "/>
<path fill-rule="nonzero" fill="rgb(81.959534%, 51.371765%, 38.430786%)" fill-opacity="1" d="M 141.039062 33.398438 C 141.421875 32.738281 141.621094 32.203125 141.59375 31.628906 C 141.5625 31.25 141.324219 30.789062 140.851562 30.515625 C 139.445312 29.703125 138.496094 31.351562 138.246094 31.785156 C 137.996094 32.214844 137.066406 33.824219 138.472656 34.632812 C 139.863281 35.4375 140.792969 33.832031 141.039062 33.398438 Z M 138.574219 34.460938 C 138.289062 34.296875 138.019531 33.921875 138.179688 33.367188 C 138.300781 32.96875 138.589844 32.46875 138.847656 32.023438 C 139.101562 31.578125 139.367188 31.117188 139.636719 30.839844 C 140.042969 30.445312 140.5 30.53125 140.757812 30.675781 C 141.082031 30.863281 141.273438 31.246094 141.179688 31.660156 C 141.085938 32.039062 140.851562 32.480469 140.546875 33.003906 C 140.289062 33.453125 140.03125 33.898438 139.734375 34.226562 C 139.292969 34.710938 138.816406 34.597656 138.574219 34.460938 Z M 138.574219 34.460938 "/>
<path fill="none" stroke-width="0.850394" stroke-linecap="butt" stroke-linejoin="miter" stroke="rgb(0%, 0%, 0%)" stroke-opacity="1" stroke-miterlimit="4" d="M 237.296875 70.511719 C 237.296875 76.644531 232.324219 81.617188 226.1875 81.617188 C 220.054688 81.617188 215.082031 76.644531 215.082031 70.511719 C 215.082031 64.378906 220.054688 59.402344 226.1875 59.402344 C 232.324219 59.402344 237.296875 64.378906 237.296875 70.511719 Z M 237.296875 70.511719 "/>
<path fill="none" stroke-width="0.850394" stroke-linecap="butt" stroke-linejoin="miter" stroke="rgb(0%, 0%, 0%)" stroke-opacity="1" stroke-miterlimit="4" d="M 323.890625 42.402344 C 323.890625 48.539062 318.917969 53.511719 312.78125 53.511719 C 306.648438 53.511719 301.675781 48.539062 301.675781 42.402344 C 301.675781 36.269531 306.648438 31.296875 312.78125 31.296875 C 318.917969 31.296875 323.890625 36.269531 323.890625 42.402344 Z M 323.890625 42.402344 "/>
<path fill="none" stroke-width="0.850394" stroke-linecap="butt" stroke-linejoin="miter" stroke="rgb(0%, 0%, 0%)" stroke-opacity="1" stroke-miterlimit="4" d="M 323.890625 70.511719 C 323.890625 76.644531 318.917969 81.617188 312.78125 81.617188 C 306.648438 81.617188 301.675781 76.644531 301.675781 70.511719 C 301.675781 64.378906 306.648438 59.402344 312.78125 59.402344 C 318.917969 59.402344 323.890625 64.378906 323.890625 70.511719 Z M 323.890625 70.511719 "/>
<path fill="none" stroke-width="0.850394" stroke-linecap="butt" stroke-linejoin="miter" stroke="rgb(0%, 0%, 0%)" stroke-opacity="1" stroke-miterlimit="4" d="M 237.070312 67.960938 L 300.503906 43.667969 "/>
<path fill-rule="evenodd" fill="rgb(0%, 0%, 0%)" fill-opacity="1" stroke-width="0.423546" stroke-linecap="butt" stroke-linejoin="miter" stroke="rgb(0%, 0%, 0%)" stroke-opacity="1" stroke-miterlimit="4" d="M -244.307219 -138.448077 L -242.718959 -140.03514 L -248.277151 -138.444989 L -242.716749 -136.858513 Z M -244.307219 -138.448077 " transform="matrix(-1, 0.382966, -0.382966, -1, 0, 0)"/>
<path fill="none" stroke-width="0.850394" stroke-linecap="butt" stroke-linejoin="miter" stroke="rgb(0%, 0%, 0%)" stroke-opacity="1" stroke-miterlimit="4" d="M 237.113281 72.460938 L 300.78125 96.757812 "/>
<path fill-rule="evenodd" fill="rgb(0%, 0%, 0%)" fill-opacity="1" stroke-width="0.423736" stroke-linecap="butt" stroke-linejoin="miter" stroke="rgb(0%, 0%, 0%)" stroke-opacity="1" stroke-miterlimit="4" d="M -291.596153 15.736538 L -290.007818 14.14602 L -295.568667 15.736912 L -290.009044 17.326175 Z M -291.596153 15.736538 " transform="matrix(-1, -0.381622, 0.381622, -1, 0, 0)"/>
<path fill="none" stroke-width="0.850394" stroke-linecap="butt" stroke-linejoin="miter" stroke="rgb(0%, 0%, 0%)" stroke-opacity="1" stroke-miterlimit="4" d="M 237.675781 70.015625 L 300.277344 69.9375 "/>
<path fill-rule="evenodd" fill="rgb(0%, 0%, 0%)" fill-opacity="1" stroke-width="0.453543" stroke-linecap="butt" stroke-linejoin="miter" stroke="rgb(0%, 0%, 0%)" stroke-opacity="1" stroke-miterlimit="4" d="M -296.791611 -70.309897 L -295.09028 -72.010909 L -301.041609 -70.311267 L -295.090593 -68.612472 Z M -296.791611 -70.309897 " transform="matrix(-1, 0.00124158, -0.00124158, -1, 0, 0)"/>
<path fill="none" stroke-width="0.850394" stroke-linecap="butt" stroke-linejoin="miter" stroke="rgb(0%, 0%, 0%)" stroke-opacity="1" stroke-miterlimit="4" d="M 386.894531 66.585938 L 324.039062 42.574219 "/>
<path fill-rule="evenodd" fill="rgb(0%, 0%, 0%)" fill-opacity="1" stroke-width="0.423676" stroke-linecap="butt" stroke-linejoin="miter" stroke="rgb(0%, 0%, 0%)" stroke-opacity="1" stroke-miterlimit="4" d="M -356.634867 70.8809 L -355.04735 69.290016 L -360.608117 70.879345 L -355.047391 72.469719 Z M -356.634867 70.8809 " transform="matrix(-1, -0.382049, 0.382049, -1, 0, 0)"/>
<path fill="none" stroke-width="0.850394" stroke-linecap="butt" stroke-linejoin="miter" stroke="rgb(0%, 0%, 0%)" stroke-opacity="1" stroke-miterlimit="4" d="M 386.621094 74.128906 L 323.769531 98.078125 "/>
<path fill-rule="evenodd" fill="rgb(0%, 0%, 0%)" fill-opacity="1" stroke-width="0.423826" stroke-linecap="butt" stroke-linejoin="miter" stroke="rgb(0%, 0%, 0%)" stroke-opacity="1" stroke-miterlimit="4" d="M -309.778113 -193.360349 L -308.188142 -194.949907 L -313.750171 -193.36192 L -308.188555 -191.770377 Z M -309.778113 -193.360349 " transform="matrix(-1, 0.380984, -0.380984, -1, 0, 0)"/>
<path fill="none" stroke-width="0.850394" stroke-linecap="butt" stroke-linejoin="miter" stroke="rgb(0%, 0%, 0%)" stroke-opacity="1" stroke-miterlimit="4" d="M 386.316406 70.421875 L 323.851562 70.277344 "/>
<path fill-rule="evenodd" fill="rgb(0%, 0%, 0%)" fill-opacity="1" stroke-width="0.453542" stroke-linecap="butt" stroke-linejoin="miter" stroke="rgb(0%, 0%, 0%)" stroke-opacity="1" stroke-miterlimit="4" d="M -383.075625 -69.523856 L -381.376458 -71.227023 L -387.329535 -69.525689 L -381.376364 -67.82468 Z M -383.075625 -69.523856 " transform="matrix(-1, -0.00232384, 0.00232384, -1, 0, 0)"/>
<path fill-rule="nonzero" fill="rgb(0%, 0%, 0%)" fill-opacity="1" d="M 226.820312 69.523438 C 226.894531 69.238281 227.160156 68.1875 227.945312 68.1875 C 227.996094 68.1875 228.28125 68.1875 228.515625 68.328125 C 228.191406 68.402344 227.980469 68.667969 227.980469 68.953125 C 227.980469 69.132812 228.105469 69.34375 228.40625 69.34375 C 228.65625 69.34375 229.011719 69.148438 229.011719 68.683594 C 229.011719 68.097656 228.355469 67.9375 227.960938 67.9375 C 227.300781 67.9375 226.910156 68.542969 226.769531 68.792969 C 226.484375 68.042969 225.878906 67.9375 225.539062 67.9375 C 224.363281 67.9375 223.703125 69.398438 223.703125 69.683594 C 223.703125 69.808594 223.828125 69.808594 223.847656 69.808594 C 223.933594 69.808594 223.972656 69.773438 223.988281 69.683594 C 224.382812 68.472656 225.128906 68.1875 225.519531 68.1875 C 225.734375 68.1875 226.125 68.292969 226.125 68.953125 C 226.125 69.308594 225.929688 70.058594 225.519531 71.660156 C 225.34375 72.355469 224.933594 72.835938 224.433594 72.835938 C 224.363281 72.835938 224.113281 72.835938 223.863281 72.695312 C 224.148438 72.621094 224.398438 72.390625 224.398438 72.070312 C 224.398438 71.765625 224.148438 71.679688 223.988281 71.679688 C 223.632812 71.679688 223.367188 71.964844 223.367188 72.335938 C 223.367188 72.855469 223.917969 73.085938 224.417969 73.085938 C 225.183594 73.085938 225.59375 72.285156 225.609375 72.230469 C 225.753906 72.640625 226.164062 73.085938 226.839844 73.085938 C 228.015625 73.085938 228.65625 71.625 228.65625 71.339844 C 228.65625 71.214844 228.566406 71.214844 228.53125 71.214844 C 228.425781 71.214844 228.40625 71.269531 228.371094 71.339844 C 227.996094 72.570312 227.230469 72.835938 226.875 72.835938 C 226.429688 72.835938 226.25 72.480469 226.25 72.089844 C 226.25 71.839844 226.304688 71.589844 226.429688 71.089844 Z M 226.820312 69.523438 "/>
<path fill-rule="nonzero" fill="rgb(0%, 0%, 0%)" fill-opacity="1" d="M 401.941406 67.527344 C 401.996094 67.367188 401.996094 67.347656 401.996094 67.261719 C 401.996094 67.0625 401.832031 66.957031 401.65625 66.957031 C 401.550781 66.957031 401.371094 67.027344 401.265625 67.1875 C 401.246094 67.261719 401.140625 67.597656 401.101562 67.8125 C 401.015625 68.097656 400.941406 68.417969 400.871094 68.722656 L 400.355469 70.769531 C 400.320312 70.929688 399.820312 71.730469 399.074219 71.730469 C 398.503906 71.730469 398.378906 71.234375 398.378906 70.804688 C 398.378906 70.289062 398.574219 69.578125 398.949219 68.578125 C 399.125 68.117188 399.179688 67.992188 399.179688 67.757812 C 399.179688 67.261719 398.824219 66.832031 398.253906 66.832031 C 397.167969 66.832031 396.757812 68.488281 396.757812 68.578125 C 396.757812 68.703125 396.863281 68.703125 396.882812 68.703125 C 397.007812 68.703125 397.007812 68.667969 397.058594 68.488281 C 397.378906 67.421875 397.824219 67.082031 398.21875 67.082031 C 398.304688 67.082031 398.503906 67.082031 398.503906 67.4375 C 398.503906 67.722656 398.378906 68.027344 398.304688 68.238281 C 397.84375 69.453125 397.648438 70.09375 397.648438 70.628906 C 397.648438 71.644531 398.359375 71.980469 399.035156 71.980469 C 399.480469 71.980469 399.855469 71.785156 400.175781 71.464844 C 400.035156 72.050781 399.890625 72.621094 399.445312 73.226562 C 399.144531 73.601562 398.714844 73.941406 398.199219 73.941406 C 398.039062 73.941406 397.523438 73.90625 397.328125 73.460938 C 397.503906 73.460938 397.664062 73.460938 397.808594 73.316406 C 397.933594 73.226562 398.039062 73.066406 398.039062 72.855469 C 398.039062 72.496094 397.738281 72.460938 397.628906 72.460938 C 397.363281 72.460938 396.988281 72.640625 396.988281 73.191406 C 396.988281 73.761719 397.488281 74.191406 398.199219 74.191406 C 399.359375 74.191406 400.535156 73.15625 400.855469 71.875 Z M 401.941406 67.527344 "/>
<g clip-path="url(#clip-1)">
<path fill="none" stroke-width="0.850394" stroke-linecap="butt" stroke-linejoin="miter" stroke="rgb(0%, 0%, 0%)" stroke-opacity="1" stroke-miterlimit="4" d="M 410.484375 70.511719 C 410.484375 76.644531 405.511719 81.617188 399.375 81.617188 C 393.242188 81.617188 388.269531 76.644531 388.269531 70.511719 C 388.269531 64.378906 393.242188 59.402344 399.375 59.402344 C 405.511719 59.402344 410.484375 64.378906 410.484375 70.511719 Z M 410.484375 70.511719 "/>
</g>
<g clip-path="url(#clip-2)">
<path fill="none" stroke-width="0.850394" stroke-linecap="butt" stroke-linejoin="miter" stroke="rgb(0%, 0%, 0%)" stroke-opacity="1" stroke-miterlimit="4" d="M 323.890625 98.621094 C 323.890625 104.753906 318.917969 109.726562 312.78125 109.726562 C 306.648438 109.726562 301.675781 104.753906 301.675781 98.621094 C 301.675781 92.484375 306.648438 87.511719 312.78125 87.511719 C 318.917969 87.511719 323.890625 92.484375 323.890625 98.621094 Z M 323.890625 98.621094 "/>
</g>
<path fill="none" stroke-width="0.850394" stroke-linecap="butt" stroke-linejoin="miter" stroke="rgb(0%, 0%, 0%)" stroke-opacity="1" stroke-miterlimit="4" d="M 323.890625 70.511719 C 323.890625 76.644531 318.917969 81.617188 312.78125 81.617188 C 306.648438 81.617188 301.675781 76.644531 301.675781 70.511719 C 301.675781 64.378906 306.648438 59.402344 312.78125 59.402344 C 318.917969 59.402344 323.890625 64.378906 323.890625 70.511719 Z M 323.890625 70.511719 "/>
<path fill-rule="nonzero" fill="rgb(0%, 0%, 0%)" fill-opacity="1" d="M 95.835938 37.730469 C 95.835938 37.730469 95.835938 37.605469 95.695312 37.605469 C 95.425781 37.605469 94.605469 37.695312 94.304688 37.730469 C 94.214844 37.730469 94.089844 37.746094 94.089844 37.945312 C 94.089844 38.085938 94.199219 38.085938 94.359375 38.085938 C 94.910156 38.085938 94.925781 38.15625 94.925781 38.28125 L 94.890625 38.515625 L 93.253906 45.050781 C 93.199219 45.210938 93.199219 45.230469 93.199219 45.300781 C 93.199219 45.566406 93.429688 45.621094 93.539062 45.621094 C 93.714844 45.621094 93.894531 45.480469 93.949219 45.320312 L 94.160156 44.464844 L 94.410156 43.449219 C 94.480469 43.179688 94.554688 42.933594 94.605469 42.683594 C 94.625 42.609375 94.730469 42.238281 94.730469 42.164062 C 94.765625 42.058594 95.125 41.433594 95.515625 41.113281 C 95.765625 40.9375 96.101562 40.722656 96.601562 40.722656 C 97.082031 40.722656 97.207031 41.113281 97.207031 41.523438 C 97.207031 42.128906 96.78125 43.378906 96.511719 44.070312 C 96.425781 44.320312 96.351562 44.464844 96.351562 44.695312 C 96.351562 45.230469 96.761719 45.621094 97.296875 45.621094 C 98.367188 45.621094 98.777344 43.964844 98.777344 43.875 C 98.777344 43.75 98.6875 43.75 98.652344 43.75 C 98.527344 43.75 98.527344 43.785156 98.472656 43.964844 C 98.3125 44.570312 97.9375 45.371094 97.316406 45.371094 C 97.117188 45.371094 97.046875 45.265625 97.046875 45 C 97.046875 44.714844 97.136719 44.445312 97.242188 44.195312 C 97.421875 43.699219 97.9375 42.34375 97.9375 41.683594 C 97.9375 40.953125 97.492188 40.472656 96.636719 40.472656 C 95.925781 40.472656 95.375 40.828125 94.945312 41.347656 Z M 95.835938 37.730469 "/>
<path fill-rule="nonzero" fill="rgb(0%, 0%, 0%)" fill-opacity="1" d="M 101.773438 42.140625 C 101.773438 41.925781 101.773438 41.925781 101.542969 41.925781 C 101.027344 42.425781 100.3125 42.425781 99.992188 42.425781 L 99.992188 42.710938 C 100.171875 42.710938 100.707031 42.710938 101.132812 42.496094 L 101.132812 46.542969 C 101.132812 46.808594 101.132812 46.914062 100.351562 46.914062 L 100.046875 46.914062 L 100.046875 47.199219 C 100.1875 47.199219 101.167969 47.164062 101.453125 47.164062 C 101.703125 47.164062 102.703125 47.199219 102.878906 47.199219 L 102.878906 46.914062 L 102.578125 46.914062 C 101.773438 46.914062 101.773438 46.808594 101.773438 46.542969 Z M 101.773438 42.140625 "/>
<path fill="none" stroke-width="0.850394" stroke-linecap="butt" stroke-linejoin="miter" stroke="rgb(0%, 0%, 0%)" stroke-opacity="1" stroke-miterlimit="4" d="M 109.148438 42.402344 C 109.148438 48.539062 104.175781 53.511719 98.039062 53.511719 C 91.90625 53.511719 86.933594 48.539062 86.933594 42.402344 C 86.933594 36.269531 91.90625 31.296875 98.039062 31.296875 C 104.175781 31.296875 109.148438 36.269531 109.148438 42.402344 Z M 109.148438 42.402344 "/>
<path fill-rule="nonzero" fill="rgb(0%, 0%, 0%)" fill-opacity="1" d="M 95.710938 65.839844 C 95.710938 65.839844 95.710938 65.714844 95.570312 65.714844 C 95.300781 65.714844 94.480469 65.804688 94.179688 65.839844 C 94.089844 65.839844 93.964844 65.855469 93.964844 66.050781 C 93.964844 66.195312 94.074219 66.195312 94.234375 66.195312 C 94.785156 66.195312 94.804688 66.265625 94.804688 66.390625 L 94.765625 66.621094 L 93.128906 73.160156 C 93.074219 73.320312 93.074219 73.339844 93.074219 73.410156 C 93.074219 73.675781 93.304688 73.730469 93.414062 73.730469 C 93.589844 73.730469 93.769531 73.589844 93.824219 73.425781 L 94.035156 72.574219 L 94.285156 71.558594 C 94.359375 71.289062 94.429688 71.039062 94.480469 70.792969 C 94.5 70.71875 94.605469 70.347656 94.605469 70.273438 C 94.644531 70.167969 95 69.542969 95.390625 69.222656 C 95.640625 69.046875 95.980469 68.832031 96.476562 68.832031 C 96.957031 68.832031 97.082031 69.222656 97.082031 69.632812 C 97.082031 70.238281 96.65625 71.484375 96.386719 72.179688 C 96.300781 72.429688 96.226562 72.574219 96.226562 72.804688 C 96.226562 73.339844 96.636719 73.730469 97.171875 73.730469 C 98.242188 73.730469 98.652344 72.074219 98.652344 71.984375 C 98.652344 71.859375 98.5625 71.859375 98.527344 71.859375 C 98.402344 71.859375 98.402344 71.894531 98.347656 72.074219 C 98.1875 72.679688 97.8125 73.480469 97.191406 73.480469 C 96.996094 73.480469 96.921875 73.375 96.921875 73.105469 C 96.921875 72.820312 97.011719 72.554688 97.117188 72.304688 C 97.296875 71.804688 97.8125 70.453125 97.8125 69.792969 C 97.8125 69.0625 97.367188 68.582031 96.511719 68.582031 C 95.800781 68.582031 95.25 68.9375 94.820312 69.453125 Z M 95.710938 65.839844 "/>
<path fill-rule="nonzero" fill="rgb(0%, 0%, 0%)" fill-opacity="1" d="M 103.003906 73.867188 L 102.738281 73.867188 C 102.71875 74.042969 102.628906 74.507812 102.523438 74.578125 C 102.46875 74.632812 101.863281 74.632812 101.738281 74.632812 L 100.277344 74.632812 C 101.117188 73.902344 101.402344 73.671875 101.863281 73.296875 C 102.453125 72.832031 103.003906 72.335938 103.003906 71.585938 C 103.003906 70.625 102.167969 70.035156 101.152344 70.035156 C 100.171875 70.035156 99.496094 70.730469 99.496094 71.460938 C 99.496094 71.851562 99.832031 71.90625 99.921875 71.90625 C 100.101562 71.90625 100.332031 71.765625 100.332031 71.480469 C 100.332031 71.335938 100.277344 71.050781 99.867188 71.050781 C 100.117188 70.5 100.652344 70.320312 101.027344 70.320312 C 101.828125 70.320312 102.238281 70.945312 102.238281 71.585938 C 102.238281 72.28125 101.738281 72.816406 101.488281 73.101562 L 99.582031 75.007812 C 99.496094 75.078125 99.496094 75.09375 99.496094 75.308594 L 102.773438 75.308594 Z M 103.003906 73.867188 "/>
<path fill="none" stroke-width="0.850394" stroke-linecap="butt" stroke-linejoin="miter" stroke="rgb(0%, 0%, 0%)" stroke-opacity="1" stroke-miterlimit="4" d="M 109.148438 70.511719 C 109.148438 76.644531 104.175781 81.617188 98.039062 81.617188 C 91.90625 81.617188 86.933594 76.644531 86.933594 70.511719 C 86.933594 64.378906 91.90625 59.402344 98.039062 59.402344 C 104.175781 59.402344 109.148438 64.378906 109.148438 70.511719 Z M 109.148438 70.511719 "/>
<path fill-rule="nonzero" fill="rgb(0%, 0%, 0%)" fill-opacity="1" d="M 95.675781 93.867188 C 95.675781 93.867188 95.675781 93.742188 95.535156 93.742188 C 95.265625 93.742188 94.445312 93.832031 94.144531 93.867188 C 94.054688 93.867188 93.929688 93.886719 93.929688 94.082031 C 93.929688 94.222656 94.035156 94.222656 94.199219 94.222656 C 94.75 94.222656 94.765625 94.292969 94.765625 94.417969 L 94.730469 94.652344 L 93.09375 101.1875 C 93.039062 101.347656 93.039062 101.367188 93.039062 101.4375 C 93.039062 101.707031 93.269531 101.757812 93.378906 101.757812 C 93.554688 101.757812 93.734375 101.617188 93.789062 101.457031 L 94 100.601562 L 94.25 99.585938 C 94.320312 99.320312 94.394531 99.070312 94.445312 98.820312 C 94.464844 98.75 94.570312 98.375 94.570312 98.304688 C 94.605469 98.195312 94.964844 97.574219 95.355469 97.253906 C 95.605469 97.074219 95.941406 96.859375 96.441406 96.859375 C 96.921875 96.859375 97.046875 97.253906 97.046875 97.660156 C 97.046875 98.265625 96.621094 99.515625 96.351562 100.210938 C 96.265625 100.457031 96.191406 100.601562 96.191406 100.832031 C 96.191406 101.367188 96.601562 101.757812 97.136719 101.757812 C 98.207031 101.757812 98.617188 100.101562 98.617188 100.011719 C 98.617188 99.886719 98.527344 99.886719 98.492188 99.886719 C 98.367188 99.886719 98.367188 99.925781 98.3125 100.101562 C 98.152344 100.707031 97.777344 101.507812 97.15625 101.507812 C 96.957031 101.507812 96.886719 101.402344 96.886719 101.136719 C 96.886719 100.851562 96.976562 100.582031 97.082031 100.335938 C 97.261719 99.835938 97.777344 98.480469 97.777344 97.820312 C 97.777344 97.089844 97.332031 96.609375 96.476562 96.609375 C 95.765625 96.609375 95.210938 96.96875 94.785156 97.484375 Z M 95.675781 93.867188 "/>
<path fill-rule="nonzero" fill="rgb(0%, 0%, 0%)" fill-opacity="1" d="M 101.132812 100.683594 C 101.757812 100.683594 102.203125 101.109375 102.203125 101.964844 C 102.203125 102.945312 101.613281 103.25 101.167969 103.25 C 100.847656 103.25 100.136719 103.160156 99.816406 102.679688 C 100.1875 102.679688 100.277344 102.410156 100.277344 102.234375 C 100.277344 101.984375 100.082031 101.804688 99.832031 101.804688 C 99.621094 101.804688 99.386719 101.949219 99.386719 102.269531 C 99.386719 103.015625 100.207031 103.5 101.167969 103.5 C 102.273438 103.5 103.039062 102.75 103.039062 101.964844 C 103.039062 101.34375 102.539062 100.71875 101.667969 100.539062 C 102.488281 100.238281 102.789062 99.648438 102.789062 99.152344 C 102.789062 98.527344 102.078125 98.066406 101.1875 98.066406 C 100.3125 98.066406 99.636719 98.492188 99.636719 99.132812 C 99.636719 99.402344 99.816406 99.542969 100.046875 99.542969 C 100.296875 99.542969 100.457031 99.363281 100.457031 99.152344 C 100.457031 98.917969 100.296875 98.742188 100.046875 98.722656 C 100.332031 98.386719 100.867188 98.296875 101.167969 98.296875 C 101.527344 98.296875 102.023438 98.472656 102.023438 99.152344 C 102.023438 99.488281 101.917969 99.863281 101.703125 100.09375 C 101.453125 100.398438 101.222656 100.417969 100.832031 100.453125 C 100.636719 100.46875 100.617188 100.46875 100.582031 100.46875 C 100.5625 100.46875 100.492188 100.488281 100.492188 100.578125 C 100.492188 100.683594 100.5625 100.683594 100.707031 100.683594 Z M 101.132812 100.683594 "/>
<g clip-path="url(#clip-3)">
<path fill="none" stroke-width="0.850394" stroke-linecap="butt" stroke-linejoin="miter" stroke="rgb(0%, 0%, 0%)" stroke-opacity="1" stroke-miterlimit="4" d="M 109.148438 98.621094 C 109.148438 104.753906 104.175781 109.726562 98.039062 109.726562 C 91.90625 109.726562 86.933594 104.753906 86.933594 98.621094 C 86.933594 92.484375 91.90625 87.511719 98.039062 87.511719 C 104.175781 87.511719 109.148438 92.484375 109.148438 98.621094 Z M 109.148438 98.621094 "/>
</g>
<path fill-rule="nonzero" fill="rgb(81.959534%, 51.371765%, 38.430786%)" fill-opacity="1" d="M 72.460938 31.859375 C 72.460938 31.203125 72.292969 29.816406 71.277344 29.816406 C 69.890625 29.816406 68.359375 32.621094 68.359375 34.898438 C 68.359375 35.835938 68.640625 36.941406 69.546875 36.941406 C 70.949219 36.941406 72.460938 34.089844 72.460938 31.859375 Z M 69.40625 33.214844 C 69.578125 32.589844 69.78125 31.796875 70.1875 31.078125 C 70.449219 30.59375 70.808594 30.035156 71.261719 30.035156 C 71.746094 30.035156 71.808594 30.671875 71.808594 31.234375 C 71.808594 31.734375 71.730469 32.230469 71.496094 33.214844 Z M 71.402344 33.542969 C 71.292969 33.996094 71.089844 34.835938 70.699219 35.554688 C 70.359375 36.242188 69.984375 36.722656 69.546875 36.722656 C 69.21875 36.722656 69.015625 36.425781 69.015625 35.507812 C 69.015625 35.085938 69.078125 34.507812 69.328125 33.542969 Z M 71.402344 33.542969 "/>
<path fill-rule="nonzero" fill="rgb(81.959534%, 51.371765%, 38.430786%)" fill-opacity="1" d="M 74.933594 33.894531 C 74.933594 33.707031 74.933594 33.707031 74.730469 33.707031 C 74.277344 34.144531 73.652344 34.144531 73.371094 34.144531 L 73.371094 34.394531 C 73.527344 34.394531 73.996094 34.394531 74.371094 34.207031 L 74.371094 37.746094 C 74.371094 37.980469 74.371094 38.074219 73.683594 38.074219 L 73.417969 38.074219 L 73.417969 38.324219 C 73.542969 38.324219 74.402344 38.292969 74.652344 38.292969 C 74.871094 38.292969 75.742188 38.324219 75.898438 38.324219 L 75.898438 38.074219 L 75.632812 38.074219 C 74.933594 38.074219 74.933594 37.980469 74.933594 37.746094 Z M 74.933594 33.894531 "/>
<path fill-rule="nonzero" fill="rgb(81.959534%, 51.371765%, 38.430786%)" fill-opacity="1" d="M 80.160156 36.109375 C 80.160156 35.34375 80.066406 34.785156 79.753906 34.300781 C 79.535156 33.988281 79.097656 33.707031 78.554688 33.707031 C 76.929688 33.707031 76.929688 35.609375 76.929688 36.109375 C 76.929688 36.609375 76.929688 38.464844 78.554688 38.464844 C 80.160156 38.464844 80.160156 36.609375 80.160156 36.109375 Z M 78.554688 38.261719 C 78.226562 38.261719 77.804688 38.074219 77.664062 37.511719 C 77.570312 37.109375 77.570312 36.53125 77.570312 36.015625 C 77.570312 35.5 77.570312 34.972656 77.664062 34.597656 C 77.820312 34.050781 78.257812 33.894531 78.554688 33.894531 C 78.925781 33.894531 79.285156 34.128906 79.410156 34.535156 C 79.519531 34.910156 79.535156 35.40625 79.535156 36.015625 C 79.535156 36.53125 79.535156 37.046875 79.441406 37.480469 C 79.300781 38.121094 78.832031 38.261719 78.554688 38.261719 Z M 78.554688 38.261719 "/>
<path fill-rule="nonzero" fill="rgb(81.959534%, 51.371765%, 38.430786%)" fill-opacity="1" d="M 74.289062 54.773438 C 74.484375 54.148438 74.730469 52.773438 73.761719 52.472656 C 72.433594 52.0625 70.144531 54.296875 69.472656 56.46875 C 69.199219 57.363281 69.140625 58.503906 70.003906 58.773438 C 71.34375 59.1875 73.632812 56.90625 74.289062 54.773438 Z M 70.96875 55.167969 C 71.316406 54.625 71.746094 53.925781 72.34375 53.359375 C 72.742188 52.976562 73.25 52.542969 73.679688 52.675781 C 74.144531 52.820312 74.015625 53.449219 73.847656 53.984375 C 73.699219 54.460938 73.480469 54.917969 72.964844 55.785156 Z M 72.78125 56.070312 C 72.542969 56.472656 72.101562 57.214844 71.515625 57.785156 C 70.984375 58.339844 70.484375 58.691406 70.066406 58.5625 C 69.753906 58.46875 69.648438 58.125 69.921875 57.246094 C 70.042969 56.84375 70.273438 56.308594 70.796875 55.460938 Z M 72.78125 56.070312 "/>
<path fill-rule="nonzero" fill="rgb(81.959534%, 51.371765%, 38.430786%)" fill-opacity="1" d="M 76.246094 60.824219 L 76.023438 60.753906 C 75.960938 60.898438 75.769531 61.265625 75.660156 61.296875 C 75.601562 61.328125 75.09375 61.171875 74.992188 61.136719 L 73.769531 60.761719 C 74.65625 60.367188 74.957031 60.246094 75.441406 60.054688 C 76.050781 59.816406 76.640625 59.542969 76.835938 58.917969 C 77.082031 58.113281 76.535156 57.40625 75.6875 57.140625 C 74.867188 56.890625 74.121094 57.296875 73.933594 57.90625 C 73.832031 58.234375 74.101562 58.367188 74.175781 58.390625 C 74.324219 58.433594 74.554688 58.375 74.628906 58.136719 C 74.664062 58.019531 74.695312 57.765625 74.351562 57.660156 C 74.703125 57.261719 75.195312 57.25 75.507812 57.347656 C 76.179688 57.554688 76.359375 58.183594 76.195312 58.71875 C 76.015625 59.300781 75.460938 59.617188 75.179688 59.792969 L 73.089844 60.894531 C 73 60.929688 72.992188 60.945312 72.9375 61.125 L 75.679688 61.972656 Z M 76.246094 60.824219 "/>
<path fill-rule="nonzero" fill="rgb(81.959534%, 51.371765%, 38.430786%)" fill-opacity="1" d="M 80.390625 61.109375 C 80.613281 60.378906 80.691406 59.8125 80.535156 59.261719 C 80.417969 58.898438 80.085938 58.5 79.5625 58.339844 C 78.011719 57.859375 77.453125 59.679688 77.304688 60.15625 C 77.15625 60.632812 76.609375 62.40625 78.160156 62.882812 C 79.695312 63.359375 80.242188 61.585938 80.390625 61.109375 Z M 78.21875 62.691406 C 77.90625 62.59375 77.558594 62.289062 77.589844 61.714844 C 77.621094 61.296875 77.792969 60.746094 77.941406 60.253906 C 78.09375 59.761719 78.25 59.257812 78.453125 58.925781 C 78.761719 58.449219 79.226562 58.429688 79.507812 58.519531 C 79.867188 58.628906 80.140625 58.957031 80.136719 59.382812 C 80.132812 59.773438 80 60.253906 79.820312 60.835938 C 79.667969 61.328125 79.515625 61.816406 79.296875 62.207031 C 78.976562 62.777344 78.488281 62.773438 78.21875 62.691406 Z M 78.21875 62.691406 "/>
<path fill-rule="nonzero" fill="rgb(81.959534%, 51.371765%, 38.430786%)" fill-opacity="1" d="M 76.753906 77.054688 C 77.113281 76.507812 77.734375 75.253906 76.886719 74.699219 C 75.726562 73.933594 72.90625 75.4375 71.652344 77.335938 C 71.140625 78.117188 70.765625 79.199219 71.519531 79.695312 C 72.691406 80.46875 75.523438 78.917969 76.753906 77.054688 Z M 73.453125 76.507812 C 73.941406 76.078125 74.546875 75.527344 75.28125 75.152344 C 75.765625 74.894531 76.375 74.621094 76.753906 74.871094 C 77.15625 75.136719 76.855469 75.707031 76.546875 76.175781 C 76.273438 76.589844 75.933594 76.964844 75.199219 77.65625 Z M 74.941406 77.878906 C 74.601562 78.195312 73.96875 78.789062 73.246094 79.171875 C 72.582031 79.554688 72.003906 79.753906 71.640625 79.511719 C 71.367188 79.332031 71.359375 78.972656 71.867188 78.207031 C 72.097656 77.855469 72.46875 77.40625 73.207031 76.738281 Z M 74.941406 77.878906 "/>
<path fill-rule="nonzero" fill="rgb(81.959534%, 51.371765%, 38.430786%)" fill-opacity="1" d="M 76.183594 81.640625 C 76.636719 81.941406 76.757812 82.46875 76.347656 83.09375 C 75.875 83.808594 75.296875 83.746094 74.972656 83.535156 C 74.738281 83.378906 74.261719 82.96875 74.257812 82.464844 C 74.53125 82.644531 74.726562 82.492188 74.8125 82.363281 C 74.929688 82.179688 74.875 81.957031 74.691406 81.835938 C 74.535156 81.730469 74.296875 81.726562 74.144531 81.960938 C 73.78125 82.507812 74.148438 83.253906 74.851562 83.714844 C 75.660156 84.246094 76.582031 84.070312 76.957031 83.496094 C 77.257812 83.042969 77.195312 82.34375 76.640625 81.792969 C 77.386719 81.96875 77.890625 81.683594 78.132812 81.320312 C 78.433594 80.863281 78.132812 80.183594 77.484375 79.753906 C 76.84375 79.332031 76.144531 79.320312 75.835938 79.789062 C 75.707031 79.984375 75.769531 80.171875 75.9375 80.285156 C 76.121094 80.40625 76.324219 80.351562 76.425781 80.195312 C 76.539062 80.027344 76.507812 79.820312 76.332031 79.683594 C 76.703125 79.574219 77.136719 79.769531 77.359375 79.914062 C 77.621094 80.085938 77.898438 80.457031 77.570312 80.949219 C 77.410156 81.199219 77.152344 81.417969 76.882812 81.484375 C 76.554688 81.585938 76.375 81.488281 76.074219 81.324219 C 75.921875 81.246094 75.90625 81.234375 75.882812 81.21875 C 75.867188 81.210938 75.808594 81.1875 75.765625 81.253906 C 75.714844 81.332031 75.765625 81.367188 75.871094 81.433594 Z M 76.183594 81.640625 "/>
<path fill-rule="nonzero" fill="rgb(81.959534%, 51.371765%, 38.430786%)" fill-opacity="1" d="M 80.839844 84.839844 C 81.257812 84.203125 81.488281 83.683594 81.496094 83.105469 C 81.484375 82.726562 81.273438 82.25 80.820312 81.953125 C 79.464844 81.058594 78.417969 82.648438 78.144531 83.0625 C 77.867188 83.480469 76.847656 85.03125 78.203125 85.921875 C 79.542969 86.808594 80.5625 85.257812 80.839844 84.839844 Z M 78.3125 85.753906 C 78.039062 85.574219 77.792969 85.183594 77.984375 84.640625 C 78.128906 84.25 78.445312 83.765625 78.730469 83.335938 C 79.011719 82.90625 79.304688 82.464844 79.585938 82.203125 C 80.019531 81.835938 80.46875 81.945312 80.714844 82.109375 C 81.027344 82.3125 81.199219 82.707031 81.082031 83.113281 C 80.964844 83.484375 80.703125 83.910156 80.371094 84.417969 C 80.085938 84.847656 79.804688 85.277344 79.484375 85.589844 C 79.015625 86.046875 78.546875 85.90625 78.3125 85.753906 Z M 78.3125 85.753906 "/>
<path fill-rule="nonzero" fill="rgb(0%, 0%, 0%)" fill-opacity="0.457286" d="M 56.703125 61.910156 C 56.703125 61.257812 56.53125 59.867188 55.519531 59.867188 C 54.132812 59.867188 52.601562 62.675781 52.601562 64.953125 C 52.601562 65.886719 52.882812 66.996094 53.789062 66.996094 C 55.191406 66.996094 56.703125 64.140625 56.703125 61.910156 Z M 53.648438 63.269531 C 53.820312 62.644531 54.023438 61.847656 54.425781 61.132812 C 54.691406 60.648438 55.050781 60.085938 55.503906 60.085938 C 55.988281 60.085938 56.050781 60.726562 56.050781 61.285156 C 56.050781 61.785156 55.972656 62.285156 55.738281 63.269531 Z M 55.644531 63.59375 C 55.535156 64.046875 55.332031 64.890625 54.941406 65.605469 C 54.597656 66.292969 54.222656 66.777344 53.789062 66.777344 C 53.460938 66.777344 53.257812 66.480469 53.257812 65.558594 C 53.257812 65.140625 53.320312 64.5625 53.570312 63.59375 Z M 55.644531 63.59375 "/>
<path fill-rule="nonzero" fill="rgb(0%, 0%, 0%)" fill-opacity="0.457286" d="M 60.359375 67.113281 L 60.125 67.113281 C 60.109375 67.269531 60.03125 67.675781 59.9375 67.738281 C 59.890625 67.785156 59.359375 67.785156 59.25 67.785156 L 57.972656 67.785156 C 58.707031 67.144531 58.953125 66.941406 59.359375 66.613281 C 59.875 66.210938 60.359375 65.773438 60.359375 65.117188 C 60.359375 64.273438 59.625 63.761719 58.738281 63.761719 C 57.878906 63.761719 57.285156 64.367188 57.285156 65.007812 C 57.285156 65.351562 57.582031 65.398438 57.660156 65.398438 C 57.816406 65.398438 58.019531 65.273438 58.019531 65.023438 C 58.019531 64.898438 57.972656 64.648438 57.613281 64.648438 C 57.832031 64.167969 58.300781 64.011719 58.628906 64.011719 C 59.328125 64.011719 59.6875 64.554688 59.6875 65.117188 C 59.6875 65.726562 59.25 66.195312 59.03125 66.441406 L 57.363281 68.113281 C 57.285156 68.175781 57.285156 68.191406 57.285156 68.375 L 60.15625 68.375 Z M 60.359375 67.113281 "/>
<path fill-rule="nonzero" fill="rgb(0%, 0%, 0%)" fill-opacity="0.457286" d="M 63.136719 63.949219 C 63.136719 63.761719 63.136719 63.761719 62.933594 63.761719 C 62.480469 64.199219 61.859375 64.199219 61.578125 64.199219 L 61.578125 64.445312 C 61.734375 64.445312 62.203125 64.445312 62.574219 64.257812 L 62.574219 67.800781 C 62.574219 68.035156 62.574219 68.128906 61.890625 68.128906 L 61.625 68.128906 L 61.625 68.375 C 61.75 68.375 62.605469 68.34375 62.855469 68.34375 C 63.074219 68.34375 63.949219 68.375 64.105469 68.375 L 64.105469 68.128906 L 63.839844 68.128906 C 63.136719 68.128906 63.136719 68.035156 63.136719 67.800781 Z M 63.136719 63.949219 "/>
<path fill-rule="nonzero" fill="rgb(0%, 0%, 0%)" fill-opacity="0.457286" d="M 57.492188 77.570312 C 57.71875 76.953125 58.035156 75.589844 57.085938 75.242188 C 55.78125 74.765625 53.378906 76.871094 52.59375 79.011719 C 52.273438 79.886719 52.152344 81.023438 53.003906 81.335938 C 54.320312 81.820312 56.722656 79.664062 57.492188 77.570312 Z M 54.15625 77.789062 C 54.53125 77.261719 54.996094 76.585938 55.625 76.050781 C 56.039062 75.691406 56.570312 75.285156 56.996094 75.441406 C 57.449219 75.609375 57.285156 76.230469 57.09375 76.757812 C 56.921875 77.226562 56.675781 77.667969 56.117188 78.507812 Z M 55.917969 78.785156 C 55.660156 79.171875 55.179688 79.890625 54.566406 80.429688 C 54.007812 80.957031 53.488281 81.28125 53.078125 81.132812 C 52.769531 81.019531 52.683594 80.671875 53 79.804688 C 53.144531 79.410156 53.402344 78.890625 53.96875 78.070312 Z M 55.917969 78.785156 "/>
<path fill-rule="nonzero" fill="rgb(0%, 0%, 0%)" fill-opacity="0.457286" d="M 57.988281 82.164062 C 58.5 82.351562 58.738281 82.835938 58.480469 83.539062 C 58.183594 84.34375 57.609375 84.417969 57.242188 84.28125 C 56.980469 84.183594 56.421875 83.898438 56.300781 83.40625 C 56.609375 83.519531 56.765625 83.324219 56.816406 83.179688 C 56.894531 82.972656 56.785156 82.769531 56.582031 82.691406 C 56.40625 82.628906 56.171875 82.675781 56.074219 82.9375 C 55.847656 83.554688 56.378906 84.195312 57.167969 84.488281 C 58.074219 84.820312 58.929688 84.4375 59.167969 83.792969 C 59.355469 83.28125 59.132812 82.617188 58.46875 82.207031 C 59.234375 82.207031 59.660156 81.8125 59.8125 81.402344 C 60 80.890625 59.554688 80.296875 58.820312 80.027344 C 58.105469 79.765625 57.417969 79.910156 57.226562 80.4375 C 57.144531 80.65625 57.25 80.828125 57.4375 80.898438 C 57.644531 80.972656 57.828125 80.875 57.894531 80.699219 C 57.964844 80.507812 57.886719 80.316406 57.6875 80.226562 C 58.023438 80.03125 58.488281 80.121094 58.738281 80.210938 C 59.03125 80.320312 59.386719 80.617188 59.183594 81.171875 C 59.078125 81.449219 58.878906 81.726562 58.632812 81.851562 C 58.335938 82.027344 58.140625 81.96875 57.808594 81.882812 C 57.640625 81.835938 57.628906 81.832031 57.597656 81.820312 C 57.582031 81.816406 57.519531 81.808594 57.492188 81.882812 C 57.460938 81.96875 57.519531 81.992188 57.636719 82.035156 Z M 57.988281 82.164062 "/>
<path fill-rule="nonzero" fill="rgb(0%, 0%, 0%)" fill-opacity="0.457286" d="M 62.828125 81.699219 C 62.894531 81.523438 62.894531 81.523438 62.703125 81.453125 C 62.128906 81.707031 61.542969 81.492188 61.28125 81.394531 L 61.195312 81.628906 C 61.339844 81.683594 61.78125 81.84375 62.195312 81.796875 L 60.976562 85.121094 C 60.894531 85.339844 60.863281 85.429688 60.21875 85.191406 L 59.96875 85.101562 L 59.882812 85.335938 C 60 85.378906 60.816406 85.644531 61.050781 85.730469 C 61.253906 85.804688 62.066406 86.136719 62.210938 86.1875 L 62.296875 85.953125 L 62.046875 85.863281 C 61.390625 85.621094 61.421875 85.535156 61.503906 85.3125 Z M 62.828125 81.699219 "/>
<path fill-rule="nonzero" fill="rgb(0%, 0%, 0%)" fill-opacity="1" d="M 5.15625 6.144531 C 5.15625 4.859375 4.226562 3.96875 3.058594 3.96875 C 2.246094 3.96875 1.671875 4.167969 1.078125 4.503906 L 1.15625 5.335938 C 1.808594 4.878906 2.445312 4.722656 3.058594 4.722656 C 3.652344 4.722656 4.164062 5.214844 4.164062 6.144531 L 4.164062 6.699219 C 2.265625 6.71875 0.664062 7.253906 0.664062 8.363281 C 0.664062 8.898438 1 9.925781 2.105469 9.925781 C 2.285156 9.925781 3.472656 9.90625 4.207031 9.332031 L 4.207031 9.789062 L 5.15625 9.789062 Z M 4.164062 8.125 C 4.164062 8.363281 4.164062 8.679688 3.730469 8.917969 C 3.375 9.136719 2.878906 9.15625 2.742188 9.15625 C 2.148438 9.15625 1.574219 8.859375 1.574219 8.34375 C 1.574219 7.453125 3.613281 7.375 4.164062 7.332031 Z M 4.164062 8.125 "/>
<path fill-rule="nonzero" fill="rgb(0%, 0%, 0%)" fill-opacity="1" d="M 7.65625 12.953125 C 8.054688 12.558594 8.90625 11.785156 9.480469 10.242188 C 9.992188 8.898438 10.074219 7.550781 10.074219 6.621094 C 10.074219 2.542969 8.25 0.882812 7.65625 0.308594 L 6.886719 0.308594 C 7.480469 0.921875 9.082031 2.542969 9.082031 6.621094 C 9.082031 7.332031 9.042969 8.816406 8.527344 10.300781 C 8.015625 11.765625 7.300781 12.519531 6.886719 12.953125 Z M 7.65625 12.953125 "/>
<path fill-rule="nonzero" fill="rgb(0%, 0%, 0%)" fill-opacity="1" d="M 215.921875 1.019531 L 214.972656 1.019531 L 214.972656 9.789062 L 215.964844 9.789062 L 215.964844 9.214844 C 216.261719 9.492188 216.8125 9.925781 217.664062 9.925781 C 218.914062 9.925781 220 8.660156 220 6.976562 C 220 5.414062 219.148438 4.046875 217.960938 4.046875 C 217.46875 4.046875 216.675781 4.167969 215.921875 4.78125 Z M 215.964844 5.550781 C 216.160156 5.253906 216.617188 4.820312 217.308594 4.820312 C 218.0625 4.820312 219.011719 5.355469 219.011719 6.976562 C 219.011719 8.621094 217.960938 9.15625 217.191406 9.15625 C 216.695312 9.15625 216.28125 8.9375 215.964844 8.34375 Z M 215.964844 5.550781 "/>
<path fill-rule="nonzero" fill="rgb(0%, 0%, 0%)" fill-opacity="1" d="M 221.949219 12.953125 C 222.347656 12.558594 223.195312 11.785156 223.769531 10.242188 C 224.285156 8.898438 224.363281 7.550781 224.363281 6.621094 C 224.363281 2.542969 222.542969 0.882812 221.949219 0.308594 L 221.179688 0.308594 C 221.773438 0.921875 223.375 2.542969 223.375 6.621094 C 223.375 7.332031 223.335938 8.816406 222.820312 10.300781 C 222.304688 11.765625 221.59375 12.519531 221.179688 12.953125 Z M 221.949219 12.953125 "/>
</svg>
