<?xml version="1.0" encoding="UTF-8"?>
<svg xmlns="http://www.w3.org/2000/svg" xmlns:xlink="http://www.w3.org/1999/xlink" width="408.622559pt" height="130.296371pt" viewBox="0 0 408.622559 130.296371">
<defs>
<clipPath id="clip-0">
<path clip-rule="nonzero" d="M 281 36 L 408.621094 36 L 408.621094 121 L 281 121 Z M 281 36 "/>
</clipPath>
<clipPath id="clip-1">
<path clip-rule="nonzero" d="M 76 122 L 82 122 L 82 130.296875 L 76 130.296875 Z M 76 122 "/>
</clipPath>
<clipPath id="clip-2">
<path clip-rule="nonzero" d="M 205 122 L 211 122 L 211 130.296875 L 205 130.296875 Z M 205 122 "/>
</clipPath>
<clipPath id="clip-3">
<path clip-rule="nonzero" d="M 335 122 L 341 122 L 341 130.296875 L 335 130.296875 Z M 335 122 "/>
</clipPath>
</defs>
<path fill="none" stroke-width="0.850394" stroke-linecap="butt" stroke-linejoin="miter" stroke="rgb(77.645874%, 80.39093%, 81.175232%)" stroke-opacity="1" stroke-dasharray="3.401575 3.401575" stroke-miterlimit="4" d="M 155.957031 62.023438 L 273.800781 62.023438 "/>
<path fill="none" stroke-width="0.850394" stroke-linecap="butt" stroke-linejoin="miter" stroke="rgb(77.645874%, 80.39093%, 81.175232%)" stroke-opacity="1" stroke-dasharray="3.401575 3.401575" stroke-miterlimit="4" d="M 25.078125 62.023438 L 142.921875 62.023438 "/>
<path fill="none" stroke-width="0.850394" stroke-linecap="butt" stroke-linejoin="miter" stroke="rgb(77.645874%, 80.39093%, 81.175232%)" stroke-opacity="1" stroke-dasharray="2.551181 2.551181" stroke-miterlimit="4" d="M 285.699219 62.023438 L 403.539062 62.023438 "/>
<path fill="none" stroke-width="1.984252" stroke-linecap="butt" stroke-linejoin="miter" stroke="rgb(81.959534%, 51.371765%, 38.430786%)" stroke-opacity="1" stroke-miterlimit="4" d="M 25.316406 71.4375 L 143.085938 36.957031 "/>
<g clip-path="url(#clip-0)">
<path fill="none" stroke-width="1.984252" stroke-linecap="butt" stroke-linejoin="miter" stroke="rgb(25.881958%, 29.411316%, 30.979919%)" stroke-opacity="1" stroke-miterlimit="4" d="M 292.929688 109.367188 L 403.617188 47.695312 "/>
</g>
<path fill="none" stroke-width="1.975462" stroke-linecap="butt" stroke-linejoin="miter" stroke="rgb(62.744141%, 85.096741%, 82.743835%)" stroke-opacity="1" stroke-miterlimit="4" d="M 273.863281 23.589844 L 156.21875 104.492188 "/>
<path fill="none" stroke-width="0.850394" stroke-linecap="butt" stroke-linejoin="miter" stroke="rgb(50.195312%, 50.195312%, 50.195312%)" stroke-opacity="1" stroke-miterlimit="4" d="M 285.476562 14.230469 L 283.59375 14.230469 "/>
<path fill="none" stroke-width="0.850394" stroke-linecap="butt" stroke-linejoin="miter" stroke="rgb(50.195312%, 50.195312%, 50.195312%)" stroke-opacity="1" stroke-miterlimit="4" d="M 285.476562 62.023438 L 283.59375 62.023438 "/>
<path fill="none" stroke-width="0.850394" stroke-linecap="butt" stroke-linejoin="miter" stroke="rgb(50.195312%, 50.195312%, 50.195312%)" stroke-opacity="1" stroke-miterlimit="4" d="M 285.386719 109.816406 L 283.503906 109.816406 "/>
<path fill="none" stroke-width="0.850394" stroke-linecap="butt" stroke-linejoin="miter" stroke="rgb(50.195312%, 50.195312%, 50.195312%)" stroke-opacity="1" stroke-miterlimit="4" d="M 285.457031 23.832031 L 284.171875 23.832031 "/>
<path fill="none" stroke-width="0.850394" stroke-linecap="butt" stroke-linejoin="miter" stroke="rgb(50.195312%, 50.195312%, 50.195312%)" stroke-opacity="1" stroke-miterlimit="4" d="M 285.476562 33.378906 L 284.191406 33.378906 "/>
<path fill="none" stroke-width="0.850394" stroke-linecap="butt" stroke-linejoin="miter" stroke="rgb(50.195312%, 50.195312%, 50.195312%)" stroke-opacity="1" stroke-miterlimit="4" d="M 285.476562 42.925781 L 284.191406 42.925781 "/>
<path fill="none" stroke-width="0.850394" stroke-linecap="butt" stroke-linejoin="miter" stroke="rgb(50.195312%, 50.195312%, 50.195312%)" stroke-opacity="1" stroke-miterlimit="4" d="M 285.476562 52.472656 L 284.191406 52.472656 "/>
<path fill="none" stroke-width="0.850394" stroke-linecap="butt" stroke-linejoin="miter" stroke="rgb(50.195312%, 50.195312%, 50.195312%)" stroke-opacity="1" stroke-miterlimit="4" d="M 285.476562 81.117188 L 284.191406 81.117188 "/>
<path fill="none" stroke-width="0.850394" stroke-linecap="butt" stroke-linejoin="miter" stroke="rgb(50.195312%, 50.195312%, 50.195312%)" stroke-opacity="1" stroke-miterlimit="4" d="M 285.476562 90.664062 L 284.191406 90.664062 "/>
<path fill="none" stroke-width="0.850394" stroke-linecap="butt" stroke-linejoin="miter" stroke="rgb(50.195312%, 50.195312%, 50.195312%)" stroke-opacity="1" stroke-miterlimit="4" d="M 285.476562 100.210938 L 284.191406 100.210938 "/>
<path fill="none" stroke-width="0.850394" stroke-linecap="butt" stroke-linejoin="miter" stroke="rgb(50.195312%, 50.195312%, 50.195312%)" stroke-opacity="1" stroke-miterlimit="4" d="M 285.476562 71.570312 L 284.191406 71.570312 "/>
<path fill="none" stroke-width="0.850394" stroke-linecap="butt" stroke-linejoin="miter" stroke="rgb(50.195312%, 50.195312%, 50.195312%)" stroke-opacity="1" stroke-miterlimit="4" d="M 25.097656 110.199219 L 25.097656 112.082031 "/>
<path fill="none" stroke-width="0.850394" stroke-linecap="butt" stroke-linejoin="miter" stroke="rgb(50.195312%, 50.195312%, 50.195312%)" stroke-opacity="1" stroke-miterlimit="4" d="M 84.214844 110.199219 L 84.214844 112.082031 "/>
<path fill="none" stroke-width="0.850394" stroke-linecap="butt" stroke-linejoin="miter" stroke="rgb(50.195312%, 50.195312%, 50.195312%)" stroke-opacity="1" stroke-miterlimit="4" d="M 143.332031 110.199219 L 143.332031 112.082031 "/>
<path fill="none" stroke-width="0.850394" stroke-linecap="butt" stroke-linejoin="miter" stroke="rgb(50.195312%, 50.195312%, 50.195312%)" stroke-opacity="1" stroke-miterlimit="4" d="M 36.921875 111.484375 L 36.921875 110.199219 "/>
<path fill="none" stroke-width="0.850394" stroke-linecap="butt" stroke-linejoin="miter" stroke="rgb(50.195312%, 50.195312%, 50.195312%)" stroke-opacity="1" stroke-miterlimit="4" d="M 48.746094 111.484375 L 48.746094 110.199219 "/>
<path fill="none" stroke-width="0.850394" stroke-linecap="butt" stroke-linejoin="miter" stroke="rgb(50.195312%, 50.195312%, 50.195312%)" stroke-opacity="1" stroke-miterlimit="4" d="M 60.570312 111.484375 L 60.570312 110.199219 "/>
<path fill="none" stroke-width="0.850394" stroke-linecap="butt" stroke-linejoin="miter" stroke="rgb(50.195312%, 50.195312%, 50.195312%)" stroke-opacity="1" stroke-miterlimit="4" d="M 72.390625 111.484375 L 72.390625 110.199219 "/>
<path fill="none" stroke-width="0.850394" stroke-linecap="butt" stroke-linejoin="miter" stroke="rgb(50.195312%, 50.195312%, 50.195312%)" stroke-opacity="1" stroke-miterlimit="4" d="M 96.039062 111.484375 L 96.039062 110.199219 "/>
<path fill="none" stroke-width="0.850394" stroke-linecap="butt" stroke-linejoin="miter" stroke="rgb(50.195312%, 50.195312%, 50.195312%)" stroke-opacity="1" stroke-miterlimit="4" d="M 107.859375 111.484375 L 107.859375 110.199219 "/>
<path fill="none" stroke-width="0.850394" stroke-linecap="butt" stroke-linejoin="miter" stroke="rgb(50.195312%, 50.195312%, 50.195312%)" stroke-opacity="1" stroke-miterlimit="4" d="M 119.683594 111.484375 L 119.683594 110.199219 "/>
<path fill="none" stroke-width="0.850394" stroke-linecap="butt" stroke-linejoin="miter" stroke="rgb(50.195312%, 50.195312%, 50.195312%)" stroke-opacity="1" stroke-miterlimit="4" d="M 131.507812 111.484375 L 131.507812 110.199219 "/>
<path fill="none" stroke-width="0.850394" stroke-linecap="butt" stroke-linejoin="miter" stroke="rgb(50.195312%, 50.195312%, 50.195312%)" stroke-opacity="1" stroke-miterlimit="4" d="M 24.894531 14.230469 L 23.011719 14.230469 "/>
<path fill="none" stroke-width="0.850394" stroke-linecap="butt" stroke-linejoin="miter" stroke="rgb(50.195312%, 50.195312%, 50.195312%)" stroke-opacity="1" stroke-miterlimit="4" d="M 24.894531 61.980469 L 23.011719 61.980469 "/>
<path fill="none" stroke-width="0.850394" stroke-linecap="butt" stroke-linejoin="miter" stroke="rgb(50.195312%, 50.195312%, 50.195312%)" stroke-opacity="1" stroke-miterlimit="4" d="M 24.804688 109.816406 L 22.921875 109.816406 "/>
<path fill="none" stroke-width="0.850394" stroke-linecap="butt" stroke-linejoin="miter" stroke="rgb(50.195312%, 50.195312%, 50.195312%)" stroke-opacity="1" stroke-miterlimit="4" d="M 24.894531 23.757812 L 23.609375 23.757812 "/>
<path fill="none" stroke-width="0.850394" stroke-linecap="butt" stroke-linejoin="miter" stroke="rgb(50.195312%, 50.195312%, 50.195312%)" stroke-opacity="1" stroke-miterlimit="4" d="M 24.894531 33.3125 L 23.609375 33.3125 "/>
<path fill="none" stroke-width="0.850394" stroke-linecap="butt" stroke-linejoin="miter" stroke="rgb(50.195312%, 50.195312%, 50.195312%)" stroke-opacity="1" stroke-miterlimit="4" d="M 24.894531 42.871094 L 23.609375 42.871094 "/>
<path fill="none" stroke-width="0.850394" stroke-linecap="butt" stroke-linejoin="miter" stroke="rgb(50.195312%, 50.195312%, 50.195312%)" stroke-opacity="1" stroke-miterlimit="4" d="M 24.894531 52.425781 L 23.609375 52.425781 "/>
<path fill="none" stroke-width="0.850394" stroke-linecap="butt" stroke-linejoin="miter" stroke="rgb(50.195312%, 50.195312%, 50.195312%)" stroke-opacity="1" stroke-miterlimit="4" d="M 24.894531 71.535156 L 23.609375 71.535156 "/>
<path fill="none" stroke-width="0.850394" stroke-linecap="butt" stroke-linejoin="miter" stroke="rgb(50.195312%, 50.195312%, 50.195312%)" stroke-opacity="1" stroke-miterlimit="4" d="M 24.894531 81.089844 L 23.609375 81.089844 "/>
<path fill="none" stroke-width="0.850394" stroke-linecap="butt" stroke-linejoin="miter" stroke="rgb(50.195312%, 50.195312%, 50.195312%)" stroke-opacity="1" stroke-miterlimit="4" d="M 24.894531 90.648438 L 23.609375 90.648438 "/>
<path fill="none" stroke-width="0.850394" stroke-linecap="butt" stroke-linejoin="miter" stroke="rgb(50.195312%, 50.195312%, 50.195312%)" stroke-opacity="1" stroke-miterlimit="4" d="M 24.894531 100.203125 L 23.609375 100.203125 "/>
<path fill="none" stroke-width="0.850394" stroke-linecap="butt" stroke-linejoin="miter" stroke="rgb(1.176453%, 0%, 0%)" stroke-opacity="1" stroke-miterlimit="4" d="M 25.054688 14.230469 L 143.3125 14.230469 L 143.3125 109.816406 L 25.054688 109.816406 Z M 25.054688 14.230469 "/>
<path fill-rule="nonzero" fill="rgb(0%, 0%, 0%)" fill-opacity="1" d="M 68.605469 119.886719 L 69.445312 119.886719 L 69.445312 127.601562 L 68.605469 127.601562 Z M 68.605469 119.886719 "/>
<path fill-rule="nonzero" fill="rgb(0%, 0%, 0%)" fill-opacity="1" d="M 75.320312 127.601562 L 75.320312 124.558594 C 75.320312 123.371094 74.8125 122.441406 73.519531 122.441406 C 72.871094 122.441406 72.207031 122.6875 71.804688 123.246094 L 71.804688 122.566406 L 70.980469 122.566406 L 70.980469 127.601562 L 71.804688 127.601562 L 71.804688 124.75 C 71.839844 123.789062 72.433594 123.175781 73.328125 123.175781 C 74.199219 123.175781 74.515625 123.703125 74.515625 124.59375 L 74.515625 127.601562 Z M 75.320312 127.601562 "/>
<g clip-path="url(#clip-1)">
<path fill-rule="nonzero" fill="rgb(0%, 0%, 0%)" fill-opacity="1" d="M 81.410156 125.082031 C 81.410156 123.613281 80.433594 122.566406 78.945312 122.566406 L 76.792969 122.566406 L 76.792969 130.296875 L 77.632812 130.296875 L 77.632812 127.601562 L 78.875 127.601562 C 80.5 127.601562 81.410156 126.585938 81.410156 125.082031 Z M 80.605469 125.082031 C 80.605469 126.082031 79.976562 126.867188 78.875 126.867188 L 77.632812 126.867188 L 77.632812 123.300781 L 78.875 123.300781 C 79.960938 123.300781 80.605469 124.015625 80.605469 125.082031 Z M 80.605469 125.082031 "/>
</g>
<path fill-rule="nonzero" fill="rgb(0%, 0%, 0%)" fill-opacity="1" d="M 86.996094 127.601562 L 86.996094 122.566406 L 86.140625 122.566406 L 86.140625 125.414062 C 86.140625 126.359375 85.667969 127.007812 84.652344 127.007812 C 83.761719 127.007812 83.445312 126.449219 83.445312 125.589844 L 83.445312 122.566406 L 82.640625 122.566406 L 82.640625 125.609375 C 82.640625 126.796875 83.199219 127.742188 84.460938 127.742188 C 85.109375 127.742188 85.773438 127.375 86.140625 126.9375 L 86.140625 127.601562 Z M 86.996094 127.601562 "/>
<path fill-rule="nonzero" fill="rgb(0%, 0%, 0%)" fill-opacity="1" d="M 91.355469 127.601562 L 91.355469 126.886719 L 90.480469 126.886719 C 89.691406 126.886719 89.550781 126.691406 89.550781 125.957031 L 89.550781 123.230469 L 91.039062 123.230469 L 91.039062 122.566406 L 89.550781 122.566406 L 89.550781 121.128906 L 89.203125 121.128906 L 88.730469 122.566406 L 88.136719 122.566406 L 88.136719 123.230469 L 88.730469 123.230469 L 88.730469 125.957031 C 88.730469 127.21875 89.238281 127.601562 90.480469 127.601562 Z M 91.355469 127.601562 "/>
<path fill-rule="nonzero" fill="rgb(0%, 0%, 0%)" fill-opacity="1" d="M 93.46875 126.464844 L 92.457031 126.464844 L 92.457031 127.234375 C 92.527344 127.375 92.542969 127.515625 92.542969 127.65625 C 92.542969 128.058594 92.332031 128.476562 92.035156 128.667969 C 92.613281 128.652344 93.453125 127.792969 93.46875 127.253906 Z M 93.46875 126.464844 "/>
<path fill-rule="nonzero" fill="rgb(0%, 0%, 0%)" fill-opacity="1" d="M 101.175781 124.226562 C 101.246094 123.945312 101.507812 122.914062 102.277344 122.914062 C 102.332031 122.914062 102.609375 122.914062 102.835938 123.054688 C 102.523438 123.125 102.3125 123.386719 102.3125 123.667969 C 102.3125 123.839844 102.433594 124.050781 102.734375 124.050781 C 102.976562 124.050781 103.328125 123.859375 103.328125 123.402344 C 103.328125 122.828125 102.679688 122.667969 102.296875 122.667969 C 101.648438 122.667969 101.261719 123.265625 101.125 123.507812 C 100.84375 122.773438 100.25 122.667969 99.917969 122.667969 C 98.761719 122.667969 98.113281 124.105469 98.113281 124.382812 C 98.113281 124.507812 98.238281 124.507812 98.253906 124.507812 C 98.34375 124.507812 98.378906 124.472656 98.394531 124.382812 C 98.78125 123.195312 99.515625 122.914062 99.898438 122.914062 C 100.109375 122.914062 100.492188 123.019531 100.492188 123.667969 C 100.492188 124.015625 100.300781 124.75 99.898438 126.324219 C 99.722656 127.007812 99.320312 127.480469 98.832031 127.480469 C 98.761719 127.480469 98.515625 127.480469 98.273438 127.339844 C 98.550781 127.269531 98.796875 127.042969 98.796875 126.726562 C 98.796875 126.429688 98.550781 126.34375 98.394531 126.34375 C 98.042969 126.34375 97.78125 126.621094 97.78125 126.988281 C 97.78125 127.496094 98.324219 127.726562 98.816406 127.726562 C 99.566406 127.726562 99.96875 126.9375 99.988281 126.886719 C 100.125 127.289062 100.527344 127.726562 101.195312 127.726562 C 102.347656 127.726562 102.976562 126.289062 102.976562 126.011719 C 102.976562 125.886719 102.890625 125.886719 102.855469 125.886719 C 102.75 125.886719 102.734375 125.941406 102.699219 126.011719 C 102.332031 127.21875 101.578125 127.480469 101.226562 127.480469 C 100.792969 127.480469 100.617188 127.128906 100.617188 126.746094 C 100.617188 126.5 100.667969 126.253906 100.792969 125.765625 Z M 101.175781 124.226562 "/>
<path fill="none" stroke-width="0.850394" stroke-linecap="butt" stroke-linejoin="miter" stroke="rgb(50.195312%, 50.195312%, 50.195312%)" stroke-opacity="1" stroke-miterlimit="4" d="M 155.953125 110.199219 L 155.953125 112.082031 "/>
<path fill="none" stroke-width="0.850394" stroke-linecap="butt" stroke-linejoin="miter" stroke="rgb(50.195312%, 50.195312%, 50.195312%)" stroke-opacity="1" stroke-miterlimit="4" d="M 215.066406 110.199219 L 215.066406 112.082031 "/>
<path fill="none" stroke-width="0.850394" stroke-linecap="butt" stroke-linejoin="miter" stroke="rgb(50.195312%, 50.195312%, 50.195312%)" stroke-opacity="1" stroke-miterlimit="4" d="M 274.183594 110.199219 L 274.183594 112.082031 "/>
<path fill="none" stroke-width="0.850394" stroke-linecap="butt" stroke-linejoin="miter" stroke="rgb(50.195312%, 50.195312%, 50.195312%)" stroke-opacity="1" stroke-miterlimit="4" d="M 167.773438 111.484375 L 167.773438 110.199219 "/>
<path fill="none" stroke-width="0.850394" stroke-linecap="butt" stroke-linejoin="miter" stroke="rgb(50.195312%, 50.195312%, 50.195312%)" stroke-opacity="1" stroke-miterlimit="4" d="M 179.597656 111.484375 L 179.597656 110.199219 "/>
<path fill="none" stroke-width="0.850394" stroke-linecap="butt" stroke-linejoin="miter" stroke="rgb(50.195312%, 50.195312%, 50.195312%)" stroke-opacity="1" stroke-miterlimit="4" d="M 191.421875 111.484375 L 191.421875 110.199219 "/>
<path fill="none" stroke-width="0.850394" stroke-linecap="butt" stroke-linejoin="miter" stroke="rgb(50.195312%, 50.195312%, 50.195312%)" stroke-opacity="1" stroke-miterlimit="4" d="M 203.242188 111.484375 L 203.242188 110.199219 "/>
<path fill="none" stroke-width="0.850394" stroke-linecap="butt" stroke-linejoin="miter" stroke="rgb(50.195312%, 50.195312%, 50.195312%)" stroke-opacity="1" stroke-miterlimit="4" d="M 226.890625 111.484375 L 226.890625 110.199219 "/>
<path fill="none" stroke-width="0.850394" stroke-linecap="butt" stroke-linejoin="miter" stroke="rgb(50.195312%, 50.195312%, 50.195312%)" stroke-opacity="1" stroke-miterlimit="4" d="M 238.714844 111.484375 L 238.714844 110.199219 "/>
<path fill="none" stroke-width="0.850394" stroke-linecap="butt" stroke-linejoin="miter" stroke="rgb(50.195312%, 50.195312%, 50.195312%)" stroke-opacity="1" stroke-miterlimit="4" d="M 250.535156 111.484375 L 250.535156 110.199219 "/>
<path fill="none" stroke-width="0.850394" stroke-linecap="butt" stroke-linejoin="miter" stroke="rgb(50.195312%, 50.195312%, 50.195312%)" stroke-opacity="1" stroke-miterlimit="4" d="M 262.359375 111.484375 L 262.359375 110.199219 "/>
<path fill="none" stroke-width="0.850394" stroke-linecap="butt" stroke-linejoin="miter" stroke="rgb(50.195312%, 50.195312%, 50.195312%)" stroke-opacity="1" stroke-miterlimit="4" d="M 155.730469 14.230469 L 153.847656 14.230469 "/>
<path fill="none" stroke-width="0.850394" stroke-linecap="butt" stroke-linejoin="miter" stroke="rgb(50.195312%, 50.195312%, 50.195312%)" stroke-opacity="1" stroke-miterlimit="4" d="M 155.746094 61.988281 L 153.863281 61.988281 "/>
<path fill="none" stroke-width="0.850394" stroke-linecap="butt" stroke-linejoin="miter" stroke="rgb(50.195312%, 50.195312%, 50.195312%)" stroke-opacity="1" stroke-miterlimit="4" d="M 155.660156 109.816406 L 153.777344 109.816406 "/>
<path fill="none" stroke-width="0.850394" stroke-linecap="butt" stroke-linejoin="miter" stroke="rgb(50.195312%, 50.195312%, 50.195312%)" stroke-opacity="1" stroke-miterlimit="4" d="M 155.730469 23.773438 L 154.445312 23.773438 "/>
<path fill="none" stroke-width="0.850394" stroke-linecap="butt" stroke-linejoin="miter" stroke="rgb(50.195312%, 50.195312%, 50.195312%)" stroke-opacity="1" stroke-miterlimit="4" d="M 155.746094 33.328125 L 154.460938 33.328125 "/>
<path fill="none" stroke-width="0.850394" stroke-linecap="butt" stroke-linejoin="miter" stroke="rgb(50.195312%, 50.195312%, 50.195312%)" stroke-opacity="1" stroke-miterlimit="4" d="M 155.746094 42.882812 L 154.460938 42.882812 "/>
<path fill="none" stroke-width="0.850394" stroke-linecap="butt" stroke-linejoin="miter" stroke="rgb(50.195312%, 50.195312%, 50.195312%)" stroke-opacity="1" stroke-miterlimit="4" d="M 155.746094 71.542969 L 154.460938 71.542969 "/>
<path fill="none" stroke-width="0.850394" stroke-linecap="butt" stroke-linejoin="miter" stroke="rgb(50.195312%, 50.195312%, 50.195312%)" stroke-opacity="1" stroke-miterlimit="4" d="M 155.746094 81.097656 L 154.460938 81.097656 "/>
<path fill="none" stroke-width="0.850394" stroke-linecap="butt" stroke-linejoin="miter" stroke="rgb(50.195312%, 50.195312%, 50.195312%)" stroke-opacity="1" stroke-miterlimit="4" d="M 155.746094 90.648438 L 154.460938 90.648438 "/>
<path fill="none" stroke-width="0.850394" stroke-linecap="butt" stroke-linejoin="miter" stroke="rgb(50.195312%, 50.195312%, 50.195312%)" stroke-opacity="1" stroke-miterlimit="4" d="M 155.746094 100.203125 L 154.460938 100.203125 "/>
<path fill="none" stroke-width="0.850394" stroke-linecap="butt" stroke-linejoin="miter" stroke="rgb(1.176453%, 0%, 0%)" stroke-opacity="1" stroke-miterlimit="4" d="M 155.9375 14.230469 L 274.195312 14.230469 L 274.195312 109.816406 L 155.9375 109.816406 Z M 155.9375 14.230469 "/>
<path fill="none" stroke-width="0.850394" stroke-linecap="butt" stroke-linejoin="miter" stroke="rgb(50.195312%, 50.195312%, 50.195312%)" stroke-opacity="1" stroke-miterlimit="4" d="M 285.679688 110.199219 L 285.679688 112.082031 "/>
<path fill="none" stroke-width="0.850394" stroke-linecap="butt" stroke-linejoin="miter" stroke="rgb(50.195312%, 50.195312%, 50.195312%)" stroke-opacity="1" stroke-miterlimit="4" d="M 344.796875 110.199219 L 344.796875 112.082031 "/>
<path fill="none" stroke-width="0.850394" stroke-linecap="butt" stroke-linejoin="miter" stroke="rgb(50.195312%, 50.195312%, 50.195312%)" stroke-opacity="1" stroke-miterlimit="4" d="M 403.910156 110.199219 L 403.910156 112.082031 "/>
<path fill="none" stroke-width="0.850394" stroke-linecap="butt" stroke-linejoin="miter" stroke="rgb(50.195312%, 50.195312%, 50.195312%)" stroke-opacity="1" stroke-miterlimit="4" d="M 297.503906 111.484375 L 297.503906 110.199219 "/>
<path fill="none" stroke-width="0.850394" stroke-linecap="butt" stroke-linejoin="miter" stroke="rgb(50.195312%, 50.195312%, 50.195312%)" stroke-opacity="1" stroke-miterlimit="4" d="M 309.328125 111.484375 L 309.328125 110.199219 "/>
<path fill="none" stroke-width="0.850394" stroke-linecap="butt" stroke-linejoin="miter" stroke="rgb(50.195312%, 50.195312%, 50.195312%)" stroke-opacity="1" stroke-miterlimit="4" d="M 321.148438 111.484375 L 321.148438 110.199219 "/>
<path fill="none" stroke-width="0.850394" stroke-linecap="butt" stroke-linejoin="miter" stroke="rgb(50.195312%, 50.195312%, 50.195312%)" stroke-opacity="1" stroke-miterlimit="4" d="M 332.972656 111.484375 L 332.972656 110.199219 "/>
<path fill="none" stroke-width="0.850394" stroke-linecap="butt" stroke-linejoin="miter" stroke="rgb(50.195312%, 50.195312%, 50.195312%)" stroke-opacity="1" stroke-miterlimit="4" d="M 356.617188 111.484375 L 356.617188 110.199219 "/>
<path fill="none" stroke-width="0.850394" stroke-linecap="butt" stroke-linejoin="miter" stroke="rgb(50.195312%, 50.195312%, 50.195312%)" stroke-opacity="1" stroke-miterlimit="4" d="M 368.441406 111.484375 L 368.441406 110.199219 "/>
<path fill="none" stroke-width="0.850394" stroke-linecap="butt" stroke-linejoin="miter" stroke="rgb(50.195312%, 50.195312%, 50.195312%)" stroke-opacity="1" stroke-miterlimit="4" d="M 380.265625 111.484375 L 380.265625 110.199219 "/>
<path fill="none" stroke-width="0.850394" stroke-linecap="butt" stroke-linejoin="miter" stroke="rgb(50.195312%, 50.195312%, 50.195312%)" stroke-opacity="1" stroke-miterlimit="4" d="M 392.089844 111.484375 L 392.089844 110.199219 "/>
<path fill="none" stroke-width="0.850394" stroke-linecap="butt" stroke-linejoin="miter" stroke="rgb(1.176453%, 0%, 0%)" stroke-opacity="1" stroke-miterlimit="4" d="M 285.695312 14.230469 L 403.953125 14.230469 L 403.953125 109.816406 L 285.695312 109.816406 Z M 285.695312 14.230469 "/>
<path fill-rule="nonzero" fill="rgb(0%, 0%, 0%)" fill-opacity="1" d="M 197.707031 119.886719 L 198.546875 119.886719 L 198.546875 127.601562 L 197.707031 127.601562 Z M 197.707031 119.886719 "/>
<path fill-rule="nonzero" fill="rgb(0%, 0%, 0%)" fill-opacity="1" d="M 204.421875 127.601562 L 204.421875 124.558594 C 204.421875 123.371094 203.914062 122.441406 202.617188 122.441406 C 201.972656 122.441406 201.308594 122.6875 200.90625 123.246094 L 200.90625 122.566406 L 200.082031 122.566406 L 200.082031 127.601562 L 200.90625 127.601562 L 200.90625 124.75 C 200.941406 123.789062 201.535156 123.175781 202.425781 123.175781 C 203.300781 123.175781 203.617188 123.703125 203.617188 124.59375 L 203.617188 127.601562 Z M 204.421875 127.601562 "/>
<g clip-path="url(#clip-2)">
<path fill-rule="nonzero" fill="rgb(0%, 0%, 0%)" fill-opacity="1" d="M 210.511719 125.082031 C 210.511719 123.613281 209.53125 122.566406 208.046875 122.566406 L 205.894531 122.566406 L 205.894531 130.296875 L 206.734375 130.296875 L 206.734375 127.601562 L 207.976562 127.601562 C 209.601562 127.601562 210.511719 126.585938 210.511719 125.082031 Z M 209.707031 125.082031 C 209.707031 126.082031 209.078125 126.867188 207.976562 126.867188 L 206.734375 126.867188 L 206.734375 123.300781 L 207.976562 123.300781 C 209.058594 123.300781 209.707031 124.015625 209.707031 125.082031 Z M 209.707031 125.082031 "/>
</g>
<path fill-rule="nonzero" fill="rgb(0%, 0%, 0%)" fill-opacity="1" d="M 216.097656 127.601562 L 216.097656 122.566406 L 215.238281 122.566406 L 215.238281 125.414062 C 215.238281 126.359375 214.765625 127.007812 213.753906 127.007812 C 212.859375 127.007812 212.546875 126.449219 212.546875 125.589844 L 212.546875 122.566406 L 211.742188 122.566406 L 211.742188 125.609375 C 211.742188 126.796875 212.300781 127.742188 213.558594 127.742188 C 214.207031 127.742188 214.871094 127.375 215.238281 126.9375 L 215.238281 127.601562 Z M 216.097656 127.601562 "/>
<path fill-rule="nonzero" fill="rgb(0%, 0%, 0%)" fill-opacity="1" d="M 220.453125 127.601562 L 220.453125 126.886719 L 219.578125 126.886719 C 218.792969 126.886719 218.652344 126.691406 218.652344 125.957031 L 218.652344 123.230469 L 220.140625 123.230469 L 220.140625 122.566406 L 218.652344 122.566406 L 218.652344 121.128906 L 218.304688 121.128906 L 217.832031 122.566406 L 217.234375 122.566406 L 217.234375 123.230469 L 217.832031 123.230469 L 217.832031 125.957031 C 217.832031 127.21875 218.335938 127.601562 219.578125 127.601562 Z M 220.453125 127.601562 "/>
<path fill-rule="nonzero" fill="rgb(0%, 0%, 0%)" fill-opacity="1" d="M 222.570312 126.464844 L 221.554688 126.464844 L 221.554688 127.234375 C 221.625 127.375 221.644531 127.515625 221.644531 127.65625 C 221.644531 128.058594 221.433594 128.476562 221.136719 128.667969 C 221.714844 128.652344 222.554688 127.792969 222.570312 127.253906 Z M 222.570312 126.464844 "/>
<path fill-rule="nonzero" fill="rgb(0%, 0%, 0%)" fill-opacity="1" d="M 230.277344 124.226562 C 230.347656 123.945312 230.609375 122.914062 231.378906 122.914062 C 231.429688 122.914062 231.710938 122.914062 231.9375 123.054688 C 231.621094 123.125 231.414062 123.386719 231.414062 123.667969 C 231.414062 123.839844 231.535156 124.050781 231.832031 124.050781 C 232.078125 124.050781 232.425781 123.859375 232.425781 123.402344 C 232.425781 122.828125 231.78125 122.667969 231.394531 122.667969 C 230.75 122.667969 230.363281 123.265625 230.222656 123.507812 C 229.945312 122.773438 229.347656 122.667969 229.015625 122.667969 C 227.863281 122.667969 227.214844 124.105469 227.214844 124.382812 C 227.214844 124.507812 227.335938 124.507812 227.355469 124.507812 C 227.441406 124.507812 227.476562 124.472656 227.496094 124.382812 C 227.878906 123.195312 228.613281 122.914062 229 122.914062 C 229.210938 122.914062 229.59375 123.019531 229.59375 123.667969 C 229.59375 124.015625 229.402344 124.75 229 126.324219 C 228.824219 127.007812 228.421875 127.480469 227.933594 127.480469 C 227.863281 127.480469 227.617188 127.480469 227.371094 127.339844 C 227.652344 127.269531 227.898438 127.042969 227.898438 126.726562 C 227.898438 126.429688 227.652344 126.34375 227.496094 126.34375 C 227.144531 126.34375 226.882812 126.621094 226.882812 126.988281 C 226.882812 127.496094 227.425781 127.726562 227.914062 127.726562 C 228.667969 127.726562 229.070312 126.9375 229.085938 126.886719 C 229.226562 127.289062 229.628906 127.726562 230.292969 127.726562 C 231.449219 127.726562 232.078125 126.289062 232.078125 126.011719 C 232.078125 125.886719 231.992188 125.886719 231.957031 125.886719 C 231.851562 125.886719 231.832031 125.941406 231.796875 126.011719 C 231.429688 127.21875 230.679688 127.480469 230.328125 127.480469 C 229.890625 127.480469 229.714844 127.128906 229.714844 126.746094 C 229.714844 126.5 229.769531 126.253906 229.890625 125.765625 Z M 230.277344 124.226562 "/>
<path fill-rule="nonzero" fill="rgb(0%, 0%, 0%)" fill-opacity="1" d="M 327.433594 119.886719 L 328.273438 119.886719 L 328.273438 127.601562 L 327.433594 127.601562 Z M 327.433594 119.886719 "/>
<path fill-rule="nonzero" fill="rgb(0%, 0%, 0%)" fill-opacity="1" d="M 334.148438 127.601562 L 334.148438 124.558594 C 334.148438 123.371094 333.640625 122.441406 332.347656 122.441406 C 331.699219 122.441406 331.035156 122.6875 330.632812 123.246094 L 330.632812 122.566406 L 329.8125 122.566406 L 329.8125 127.601562 L 330.632812 127.601562 L 330.632812 124.75 C 330.667969 123.789062 331.261719 123.175781 332.15625 123.175781 C 333.03125 123.175781 333.34375 123.703125 333.34375 124.59375 L 333.34375 127.601562 Z M 334.148438 127.601562 "/>
<g clip-path="url(#clip-3)">
<path fill-rule="nonzero" fill="rgb(0%, 0%, 0%)" fill-opacity="1" d="M 340.238281 125.082031 C 340.238281 123.613281 339.261719 122.566406 337.773438 122.566406 L 335.621094 122.566406 L 335.621094 130.296875 L 336.460938 130.296875 L 336.460938 127.601562 L 337.703125 127.601562 C 339.332031 127.601562 340.238281 126.585938 340.238281 125.082031 Z M 339.433594 125.082031 C 339.433594 126.082031 338.804688 126.867188 337.703125 126.867188 L 336.460938 126.867188 L 336.460938 123.300781 L 337.703125 123.300781 C 338.789062 123.300781 339.433594 124.015625 339.433594 125.082031 Z M 339.433594 125.082031 "/>
</g>
<path fill-rule="nonzero" fill="rgb(0%, 0%, 0%)" fill-opacity="1" d="M 345.824219 127.601562 L 345.824219 122.566406 L 344.96875 122.566406 L 344.96875 125.414062 C 344.96875 126.359375 344.496094 127.007812 343.480469 127.007812 C 342.589844 127.007812 342.273438 126.449219 342.273438 125.589844 L 342.273438 122.566406 L 341.46875 122.566406 L 341.46875 125.609375 C 341.46875 126.796875 342.027344 127.742188 343.289062 127.742188 C 343.9375 127.742188 344.601562 127.375 344.96875 126.9375 L 344.96875 127.601562 Z M 345.824219 127.601562 "/>
<path fill-rule="nonzero" fill="rgb(0%, 0%, 0%)" fill-opacity="1" d="M 350.183594 127.601562 L 350.183594 126.886719 L 349.308594 126.886719 C 348.519531 126.886719 348.382812 126.691406 348.382812 125.957031 L 348.382812 123.230469 L 349.867188 123.230469 L 349.867188 122.566406 L 348.382812 122.566406 L 348.382812 121.128906 L 348.03125 121.128906 L 347.558594 122.566406 L 346.964844 122.566406 L 346.964844 123.230469 L 347.558594 123.230469 L 347.558594 125.957031 C 347.558594 127.21875 348.066406 127.601562 349.308594 127.601562 Z M 350.183594 127.601562 "/>
<path fill-rule="nonzero" fill="rgb(0%, 0%, 0%)" fill-opacity="1" d="M 352.300781 126.464844 L 351.285156 126.464844 L 351.285156 127.234375 C 351.355469 127.375 351.371094 127.515625 351.371094 127.65625 C 351.371094 128.058594 351.160156 128.476562 350.863281 128.667969 C 351.441406 128.652344 352.28125 127.792969 352.300781 127.253906 Z M 352.300781 126.464844 "/>
<path fill-rule="nonzero" fill="rgb(0%, 0%, 0%)" fill-opacity="1" d="M 360.003906 124.226562 C 360.074219 123.945312 360.335938 122.914062 361.105469 122.914062 C 361.160156 122.914062 361.4375 122.914062 361.667969 123.054688 C 361.351562 123.125 361.140625 123.386719 361.140625 123.667969 C 361.140625 123.839844 361.265625 124.050781 361.5625 124.050781 C 361.804688 124.050781 362.15625 123.859375 362.15625 123.402344 C 362.15625 122.828125 361.507812 122.667969 361.125 122.667969 C 360.476562 122.667969 360.09375 123.265625 359.953125 123.507812 C 359.671875 122.773438 359.078125 122.667969 358.746094 122.667969 C 357.589844 122.667969 356.941406 124.105469 356.941406 124.382812 C 356.941406 124.507812 357.066406 124.507812 357.082031 124.507812 C 357.171875 124.507812 357.207031 124.472656 357.222656 124.382812 C 357.609375 123.195312 358.34375 122.914062 358.726562 122.914062 C 358.9375 122.914062 359.320312 123.019531 359.320312 123.667969 C 359.320312 124.015625 359.128906 124.75 358.726562 126.324219 C 358.550781 127.007812 358.148438 127.480469 357.660156 127.480469 C 357.589844 127.480469 357.34375 127.480469 357.101562 127.339844 C 357.378906 127.269531 357.625 127.042969 357.625 126.726562 C 357.625 126.429688 357.378906 126.34375 357.222656 126.34375 C 356.875 126.34375 356.609375 126.621094 356.609375 126.988281 C 356.609375 127.496094 357.152344 127.726562 357.644531 127.726562 C 358.394531 127.726562 358.796875 126.9375 358.816406 126.886719 C 358.953125 127.289062 359.355469 127.726562 360.023438 127.726562 C 361.175781 127.726562 361.804688 126.289062 361.804688 126.011719 C 361.804688 125.886719 361.71875 125.886719 361.683594 125.886719 C 361.578125 125.886719 361.5625 125.941406 361.527344 126.011719 C 361.160156 127.21875 360.40625 127.480469 360.058594 127.480469 C 359.621094 127.480469 359.445312 127.128906 359.445312 126.746094 C 359.445312 126.5 359.496094 126.253906 359.621094 125.765625 Z M 360.003906 124.226562 "/>
<path fill="none" stroke-width="0.850394" stroke-linecap="butt" stroke-linejoin="miter" stroke="rgb(50.195312%, 50.195312%, 50.195312%)" stroke-opacity="1" stroke-miterlimit="4" d="M 155.746094 52.433594 L 154.460938 52.433594 "/>
<path fill-rule="nonzero" fill="rgb(0%, 0%, 0%)" fill-opacity="1" d="M 4.023438 71.507812 C 1.90625 71.507812 0 72.488281 0 74.796875 C 0 77.050781 1.960938 78.050781 4.023438 78.050781 C 6.085938 78.050781 8.011719 77.035156 8.011719 74.796875 C 8.011719 72.503906 6.140625 71.507812 4.023438 71.507812 Z M 4.023438 72.328125 C 5.582031 72.328125 7.257812 73.011719 7.257812 74.796875 C 7.257812 76.546875 5.5625 77.226562 4.023438 77.226562 C 2.429688 77.226562 0.753906 76.582031 0.753906 74.796875 C 0.753906 72.976562 2.414062 72.328125 4.023438 72.328125 Z M 4.023438 72.328125 "/>
<path fill-rule="nonzero" fill="rgb(0%, 0%, 0%)" fill-opacity="1" d="M 7.855469 65.949219 L 2.816406 65.949219 L 2.816406 66.804688 L 5.667969 66.804688 C 6.613281 66.804688 7.257812 67.277344 7.257812 68.292969 C 7.257812 69.183594 6.699219 69.5 5.84375 69.5 L 2.816406 69.5 L 2.816406 70.304688 L 5.859375 70.304688 C 7.050781 70.304688 7.996094 69.742188 7.996094 68.484375 C 7.996094 67.835938 7.625 67.171875 7.191406 66.804688 L 7.855469 66.804688 Z M 7.855469 65.949219 "/>
<path fill-rule="nonzero" fill="rgb(0%, 0%, 0%)" fill-opacity="1" d="M 7.855469 61.589844 L 7.136719 61.589844 L 7.136719 62.464844 C 7.136719 63.25 6.945312 63.390625 6.210938 63.390625 L 3.480469 63.390625 L 3.480469 61.90625 L 2.816406 61.90625 L 2.816406 63.390625 L 1.382812 63.390625 L 1.382812 63.742188 L 2.816406 64.214844 L 2.816406 64.808594 L 3.480469 64.808594 L 3.480469 64.214844 L 6.210938 64.214844 C 7.46875 64.214844 7.855469 63.707031 7.855469 62.464844 Z M 7.855469 61.589844 "/>
<path fill-rule="nonzero" fill="rgb(0%, 0%, 0%)" fill-opacity="1" d="M 5.335938 55.941406 C 3.867188 55.941406 2.816406 56.917969 2.816406 58.40625 L 2.816406 60.558594 L 10.546875 60.558594 L 10.546875 59.71875 L 7.855469 59.71875 L 7.855469 58.476562 C 7.855469 56.851562 6.839844 55.941406 5.335938 55.941406 Z M 5.335938 56.746094 C 6.332031 56.746094 7.121094 57.375 7.121094 58.476562 L 7.121094 59.71875 L 3.550781 59.71875 L 3.550781 58.476562 C 3.550781 57.390625 4.269531 56.746094 5.335938 56.746094 Z M 5.335938 56.746094 "/>
<path fill-rule="nonzero" fill="rgb(0%, 0%, 0%)" fill-opacity="1" d="M 7.855469 50.355469 L 2.816406 50.355469 L 2.816406 51.210938 L 5.667969 51.210938 C 6.613281 51.210938 7.257812 51.683594 7.257812 52.699219 C 7.257812 53.589844 6.699219 53.90625 5.84375 53.90625 L 2.816406 53.90625 L 2.816406 54.710938 L 5.859375 54.710938 C 7.050781 54.710938 7.996094 54.152344 7.996094 52.890625 C 7.996094 52.242188 7.625 51.578125 7.191406 51.210938 L 7.855469 51.210938 Z M 7.855469 50.355469 "/>
<path fill-rule="nonzero" fill="rgb(0%, 0%, 0%)" fill-opacity="1" d="M 7.855469 45.996094 L 7.136719 45.996094 L 7.136719 46.871094 C 7.136719 47.660156 6.945312 47.796875 6.210938 47.796875 L 3.480469 47.796875 L 3.480469 46.3125 L 2.816406 46.3125 L 2.816406 47.796875 L 1.382812 47.796875 L 1.382812 48.148438 L 2.816406 48.621094 L 2.816406 49.214844 L 3.480469 49.214844 L 3.480469 48.621094 L 6.210938 48.621094 C 7.46875 48.621094 7.855469 48.113281 7.855469 46.871094 Z M 7.855469 45.996094 "/>
<path fill-rule="nonzero" fill="rgb(46.665955%, 23.529053%, 13.725281%)" fill-opacity="1" d="M 64.5 99.75 C 64.5 99.011719 64.308594 97.445312 63.164062 97.445312 C 61.597656 97.445312 59.875 100.609375 59.875 103.179688 C 59.875 104.234375 60.191406 105.484375 61.210938 105.484375 C 62.796875 105.484375 64.5 102.265625 64.5 99.75 Z M 61.054688 101.28125 C 61.246094 100.574219 61.476562 99.679688 61.933594 98.871094 C 62.234375 98.324219 62.636719 97.691406 63.148438 97.691406 C 63.691406 97.691406 63.761719 98.414062 63.761719 99.046875 C 63.761719 99.609375 63.675781 100.171875 63.410156 101.28125 Z M 63.304688 101.648438 C 63.183594 102.160156 62.953125 103.109375 62.515625 103.917969 C 62.128906 104.691406 61.707031 105.238281 61.210938 105.238281 C 60.84375 105.238281 60.613281 104.902344 60.613281 103.867188 C 60.613281 103.390625 60.683594 102.738281 60.964844 101.648438 Z M 63.304688 101.648438 "/>
<path fill-rule="nonzero" fill="rgb(46.665955%, 23.529053%, 13.725281%)" fill-opacity="1" d="M 67.285156 102.046875 C 67.285156 101.835938 67.285156 101.835938 67.058594 101.835938 C 66.546875 102.328125 65.84375 102.328125 65.527344 102.328125 L 65.527344 102.609375 C 65.703125 102.609375 66.230469 102.609375 66.652344 102.398438 L 66.652344 106.390625 C 66.652344 106.65625 66.652344 106.761719 65.878906 106.761719 L 65.582031 106.761719 L 65.582031 107.042969 C 65.722656 107.042969 66.6875 107.007812 66.96875 107.007812 C 67.214844 107.007812 68.203125 107.042969 68.378906 107.042969 L 68.378906 106.761719 L 68.078125 106.761719 C 67.285156 106.761719 67.285156 106.65625 67.285156 106.390625 Z M 67.285156 102.046875 "/>
<path fill-rule="nonzero" fill="rgb(46.665955%, 23.529053%, 13.725281%)" fill-opacity="1" d="M 73.183594 104.542969 C 73.183594 103.683594 73.078125 103.050781 72.726562 102.503906 C 72.480469 102.152344 71.988281 101.835938 71.371094 101.835938 C 69.542969 101.835938 69.542969 103.980469 69.542969 104.542969 C 69.542969 105.109375 69.542969 107.199219 71.371094 107.199219 C 73.183594 107.199219 73.183594 105.109375 73.183594 104.542969 Z M 71.371094 106.972656 C 71 106.972656 70.527344 106.761719 70.367188 106.128906 C 70.261719 105.671875 70.261719 105.019531 70.261719 104.4375 C 70.261719 103.859375 70.261719 103.261719 70.367188 102.839844 C 70.542969 102.222656 71.035156 102.046875 71.371094 102.046875 C 71.792969 102.046875 72.199219 102.3125 72.339844 102.769531 C 72.460938 103.191406 72.480469 103.753906 72.480469 104.4375 C 72.480469 105.019531 72.480469 105.601562 72.375 106.09375 C 72.214844 106.8125 71.6875 106.972656 71.371094 106.972656 Z M 71.371094 106.972656 "/>
<path fill-rule="nonzero" fill="rgb(46.665955%, 23.529053%, 13.725281%)" fill-opacity="1" d="M 81.25 102.773438 L 84.382812 102.773438 C 84.542969 102.773438 84.753906 102.773438 84.753906 102.546875 C 84.753906 102.335938 84.542969 102.335938 84.382812 102.335938 L 81.25 102.335938 L 81.25 99.1875 C 81.25 99.027344 81.25 98.816406 81.023438 98.816406 C 80.792969 98.816406 80.792969 99.027344 80.792969 99.1875 L 80.792969 102.335938 L 77.664062 102.335938 C 77.503906 102.335938 77.292969 102.335938 77.292969 102.546875 C 77.292969 102.773438 77.503906 102.773438 77.664062 102.773438 L 80.792969 102.773438 L 80.792969 105.921875 C 80.792969 106.082031 80.792969 106.292969 81.023438 106.292969 C 81.25 106.292969 81.25 106.082031 81.25 105.921875 Z M 81.25 102.773438 "/>
<path fill-rule="nonzero" fill="rgb(46.665955%, 23.529053%, 13.725281%)" fill-opacity="1" d="M 92.976562 99.75 C 92.976562 99.011719 92.785156 97.445312 91.640625 97.445312 C 90.074219 97.445312 88.351562 100.609375 88.351562 103.179688 C 88.351562 104.234375 88.667969 105.484375 89.6875 105.484375 C 91.269531 105.484375 92.976562 102.265625 92.976562 99.75 Z M 89.527344 101.28125 C 89.722656 100.574219 89.953125 99.679688 90.410156 98.871094 C 90.707031 98.324219 91.113281 97.691406 91.621094 97.691406 C 92.167969 97.691406 92.238281 98.414062 92.238281 99.046875 C 92.238281 99.609375 92.148438 100.171875 91.886719 101.28125 Z M 91.78125 101.648438 C 91.65625 102.160156 91.429688 103.109375 90.988281 103.917969 C 90.601562 104.691406 90.179688 105.238281 89.6875 105.238281 C 89.316406 105.238281 89.089844 104.902344 89.089844 103.867188 C 89.089844 103.390625 89.160156 102.738281 89.441406 101.648438 Z M 91.78125 101.648438 "/>
<path fill-rule="nonzero" fill="rgb(46.665955%, 23.529053%, 13.725281%)" fill-opacity="1" d="M 95.761719 102.046875 C 95.761719 101.835938 95.761719 101.835938 95.53125 101.835938 C 95.023438 102.328125 94.320312 102.328125 94.003906 102.328125 L 94.003906 102.609375 C 94.179688 102.609375 94.707031 102.609375 95.128906 102.398438 L 95.128906 106.390625 C 95.128906 106.65625 95.128906 106.761719 94.355469 106.761719 L 94.054688 106.761719 L 94.054688 107.042969 C 94.195312 107.042969 95.164062 107.007812 95.445312 107.007812 C 95.691406 107.007812 96.675781 107.042969 96.851562 107.042969 L 96.851562 106.761719 L 96.554688 106.761719 C 95.761719 106.761719 95.761719 106.65625 95.761719 106.390625 Z M 95.761719 102.046875 "/>
<path fill-rule="nonzero" fill="rgb(46.665955%, 23.529053%, 13.725281%)" fill-opacity="1" d="M 100.234375 102.046875 C 100.234375 101.835938 100.234375 101.835938 100.003906 101.835938 C 99.492188 102.328125 98.789062 102.328125 98.472656 102.328125 L 98.472656 102.609375 C 98.648438 102.609375 99.175781 102.609375 99.597656 102.398438 L 99.597656 106.390625 C 99.597656 106.65625 99.597656 106.761719 98.824219 106.761719 L 98.527344 106.761719 L 98.527344 107.042969 C 98.667969 107.042969 99.632812 107.007812 99.917969 107.007812 C 100.164062 107.007812 101.148438 107.042969 101.324219 107.042969 L 101.324219 106.761719 L 101.023438 106.761719 C 100.234375 106.761719 100.234375 106.65625 100.234375 106.390625 Z M 100.234375 102.046875 "/>
<path fill-rule="nonzero" fill="rgb(46.665955%, 23.529053%, 13.725281%)" fill-opacity="1" d="M 106.390625 101.964844 C 106.460938 101.683594 106.722656 100.644531 107.5 100.644531 C 107.550781 100.644531 107.832031 100.644531 108.0625 100.785156 C 107.746094 100.859375 107.535156 101.121094 107.535156 101.402344 C 107.535156 101.578125 107.65625 101.789062 107.957031 101.789062 C 108.203125 101.789062 108.554688 101.597656 108.554688 101.140625 C 108.554688 100.558594 107.902344 100.398438 107.515625 100.398438 C 106.863281 100.398438 106.476562 101 106.335938 101.246094 C 106.054688 100.503906 105.457031 100.398438 105.125 100.398438 C 103.960938 100.398438 103.3125 101.84375 103.3125 102.125 C 103.3125 102.246094 103.433594 102.246094 103.453125 102.246094 C 103.539062 102.246094 103.574219 102.210938 103.59375 102.125 C 103.980469 100.929688 104.71875 100.644531 105.105469 100.644531 C 105.316406 100.644531 105.703125 100.75 105.703125 101.402344 C 105.703125 101.753906 105.511719 102.492188 105.105469 104.078125 C 104.929688 104.761719 104.527344 105.238281 104.03125 105.238281 C 103.960938 105.238281 103.714844 105.238281 103.46875 105.097656 C 103.75 105.027344 103.996094 104.796875 103.996094 104.480469 C 103.996094 104.183594 103.75 104.09375 103.59375 104.09375 C 103.242188 104.09375 102.976562 104.375 102.976562 104.746094 C 102.976562 105.253906 103.523438 105.484375 104.015625 105.484375 C 104.773438 105.484375 105.175781 104.691406 105.195312 104.640625 C 105.335938 105.042969 105.738281 105.484375 106.40625 105.484375 C 107.570312 105.484375 108.203125 104.042969 108.203125 103.761719 C 108.203125 103.636719 108.113281 103.636719 108.078125 103.636719 C 107.972656 103.636719 107.957031 103.6875 107.921875 103.761719 C 107.550781 104.972656 106.792969 105.238281 106.441406 105.238281 C 106.003906 105.238281 105.828125 104.886719 105.828125 104.5 C 105.828125 104.253906 105.878906 104.007812 106.003906 103.511719 Z M 106.390625 101.964844 "/>
<path fill-rule="nonzero" fill="rgb(38.430786%, 61.959839%, 61.175537%)" fill-opacity="1" d="M 195.355469 99.75 C 195.355469 99.011719 195.160156 97.445312 194.015625 97.445312 C 192.453125 97.445312 190.726562 100.609375 190.726562 103.179688 C 190.726562 104.234375 191.042969 105.484375 192.066406 105.484375 C 193.648438 105.484375 195.355469 102.265625 195.355469 99.75 Z M 191.90625 101.28125 C 192.101562 100.574219 192.328125 99.679688 192.785156 98.871094 C 193.085938 98.324219 193.488281 97.691406 194 97.691406 C 194.546875 97.691406 194.617188 98.414062 194.617188 99.046875 C 194.617188 99.609375 194.527344 100.171875 194.265625 101.28125 Z M 194.160156 101.648438 C 194.035156 102.160156 193.804688 103.109375 193.367188 103.917969 C 192.980469 104.691406 192.558594 105.238281 192.066406 105.238281 C 191.695312 105.238281 191.46875 104.902344 191.46875 103.867188 C 191.46875 103.390625 191.539062 102.738281 191.820312 101.648438 Z M 194.160156 101.648438 "/>
<path fill-rule="nonzero" fill="rgb(38.430786%, 61.959839%, 61.175537%)" fill-opacity="1" d="M 199.476562 105.617188 L 199.210938 105.617188 C 199.195312 105.792969 199.105469 106.25 199 106.320312 C 198.949219 106.375 198.351562 106.375 198.226562 106.375 L 196.785156 106.375 C 197.613281 105.652344 197.894531 105.425781 198.351562 105.054688 C 198.929688 104.597656 199.476562 104.105469 199.476562 103.367188 C 199.476562 102.417969 198.648438 101.835938 197.648438 101.835938 C 196.679688 101.835938 196.011719 102.523438 196.011719 103.242188 C 196.011719 103.628906 196.34375 103.683594 196.433594 103.683594 C 196.609375 103.683594 196.835938 103.542969 196.835938 103.261719 C 196.835938 103.121094 196.785156 102.839844 196.378906 102.839844 C 196.625 102.292969 197.15625 102.117188 197.523438 102.117188 C 198.316406 102.117188 198.71875 102.734375 198.71875 103.367188 C 198.71875 104.050781 198.226562 104.578125 197.980469 104.859375 L 196.097656 106.742188 C 196.011719 106.8125 196.011719 106.832031 196.011719 107.042969 L 199.246094 107.042969 Z M 199.476562 105.617188 "/>
<path fill-rule="nonzero" fill="rgb(38.430786%, 61.959839%, 61.175537%)" fill-opacity="1" d="M 204.035156 104.542969 C 204.035156 103.683594 203.929688 103.050781 203.578125 102.503906 C 203.332031 102.152344 202.839844 101.835938 202.222656 101.835938 C 200.394531 101.835938 200.394531 103.980469 200.394531 104.542969 C 200.394531 105.109375 200.394531 107.199219 202.222656 107.199219 C 204.035156 107.199219 204.035156 105.109375 204.035156 104.542969 Z M 202.222656 106.972656 C 201.855469 106.972656 201.378906 106.761719 201.222656 106.128906 C 201.117188 105.671875 201.117188 105.019531 201.117188 104.4375 C 201.117188 103.859375 201.117188 103.261719 201.222656 102.839844 C 201.398438 102.222656 201.890625 102.046875 202.222656 102.046875 C 202.644531 102.046875 203.050781 102.3125 203.191406 102.769531 C 203.3125 103.191406 203.332031 103.753906 203.332031 104.4375 C 203.332031 105.019531 203.332031 105.601562 203.226562 106.09375 C 203.066406 106.8125 202.539062 106.972656 202.222656 106.972656 Z M 202.222656 106.972656 "/>
<path fill-rule="nonzero" fill="rgb(38.430786%, 61.959839%, 61.175537%)" fill-opacity="1" d="M 212.105469 102.773438 L 215.234375 102.773438 C 215.394531 102.773438 215.605469 102.773438 215.605469 102.546875 C 215.605469 102.335938 215.394531 102.335938 215.234375 102.335938 L 212.105469 102.335938 L 212.105469 99.1875 C 212.105469 99.027344 212.105469 98.816406 211.875 98.816406 C 211.648438 98.816406 211.648438 99.027344 211.648438 99.1875 L 211.648438 102.335938 L 208.515625 102.335938 C 208.359375 102.335938 208.148438 102.335938 208.148438 102.546875 C 208.148438 102.773438 208.359375 102.773438 208.515625 102.773438 L 211.648438 102.773438 L 211.648438 105.921875 C 211.648438 106.082031 211.648438 106.292969 211.875 106.292969 C 212.105469 106.292969 212.105469 106.082031 212.105469 105.921875 Z M 212.105469 102.773438 "/>
<path fill-rule="nonzero" fill="rgb(38.430786%, 61.959839%, 61.175537%)" fill-opacity="1" d="M 223.828125 99.75 C 223.828125 99.011719 223.636719 97.445312 222.492188 97.445312 C 220.925781 97.445312 219.203125 100.609375 219.203125 103.179688 C 219.203125 104.234375 219.519531 105.484375 220.539062 105.484375 C 222.121094 105.484375 223.828125 102.265625 223.828125 99.75 Z M 220.382812 101.28125 C 220.574219 100.574219 220.804688 99.679688 221.261719 98.871094 C 221.558594 98.324219 221.964844 97.691406 222.476562 97.691406 C 223.019531 97.691406 223.089844 98.414062 223.089844 99.046875 C 223.089844 99.609375 223.003906 100.171875 222.738281 101.28125 Z M 222.632812 101.648438 C 222.511719 102.160156 222.28125 103.109375 221.839844 103.917969 C 221.453125 104.691406 221.03125 105.238281 220.539062 105.238281 C 220.171875 105.238281 219.941406 104.902344 219.941406 103.867188 C 219.941406 103.390625 220.011719 102.738281 220.292969 101.648438 Z M 222.632812 101.648438 "/>
<path fill-rule="nonzero" fill="rgb(38.430786%, 61.959839%, 61.175537%)" fill-opacity="1" d="M 227.949219 105.617188 L 227.6875 105.617188 C 227.667969 105.792969 227.582031 106.25 227.476562 106.320312 C 227.421875 106.375 226.824219 106.375 226.703125 106.375 L 225.261719 106.375 C 226.085938 105.652344 226.367188 105.425781 226.824219 105.054688 C 227.40625 104.597656 227.949219 104.105469 227.949219 103.367188 C 227.949219 102.417969 227.125 101.835938 226.121094 101.835938 C 225.152344 101.835938 224.484375 102.523438 224.484375 103.242188 C 224.484375 103.628906 224.820312 103.683594 224.90625 103.683594 C 225.082031 103.683594 225.3125 103.542969 225.3125 103.261719 C 225.3125 103.121094 225.261719 102.839844 224.855469 102.839844 C 225.101562 102.292969 225.628906 102.117188 226 102.117188 C 226.789062 102.117188 227.195312 102.734375 227.195312 103.367188 C 227.195312 104.050781 226.703125 104.578125 226.457031 104.859375 L 224.574219 106.742188 C 224.484375 106.8125 224.484375 106.832031 224.484375 107.042969 L 227.722656 107.042969 Z M 227.949219 105.617188 "/>
<path fill-rule="nonzero" fill="rgb(38.430786%, 61.959839%, 61.175537%)" fill-opacity="1" d="M 231.085938 102.046875 C 231.085938 101.835938 231.085938 101.835938 230.855469 101.835938 C 230.347656 102.328125 229.644531 102.328125 229.328125 102.328125 L 229.328125 102.609375 C 229.503906 102.609375 230.03125 102.609375 230.453125 102.398438 L 230.453125 106.390625 C 230.453125 106.65625 230.453125 106.761719 229.679688 106.761719 L 229.378906 106.761719 L 229.378906 107.042969 C 229.519531 107.042969 230.488281 107.007812 230.769531 107.007812 C 231.015625 107.007812 232 107.042969 232.175781 107.042969 L 232.175781 106.761719 L 231.875 106.761719 C 231.085938 106.761719 231.085938 106.65625 231.085938 106.390625 Z M 231.085938 102.046875 "/>
<path fill-rule="nonzero" fill="rgb(38.430786%, 61.959839%, 61.175537%)" fill-opacity="1" d="M 237.242188 101.964844 C 237.3125 101.683594 237.578125 100.644531 238.351562 100.644531 C 238.402344 100.644531 238.683594 100.644531 238.914062 100.785156 C 238.597656 100.859375 238.386719 101.121094 238.386719 101.402344 C 238.386719 101.578125 238.507812 101.789062 238.808594 101.789062 C 239.054688 101.789062 239.40625 101.597656 239.40625 101.140625 C 239.40625 100.558594 238.753906 100.398438 238.367188 100.398438 C 237.71875 100.398438 237.332031 101 237.191406 101.246094 C 236.910156 100.503906 236.308594 100.398438 235.976562 100.398438 C 234.816406 100.398438 234.164062 101.84375 234.164062 102.125 C 234.164062 102.246094 234.289062 102.246094 234.304688 102.246094 C 234.394531 102.246094 234.429688 102.210938 234.445312 102.125 C 234.832031 100.929688 235.570312 100.644531 235.957031 100.644531 C 236.167969 100.644531 236.554688 100.75 236.554688 101.402344 C 236.554688 101.753906 236.363281 102.492188 235.957031 104.078125 C 235.78125 104.761719 235.378906 105.238281 234.886719 105.238281 C 234.816406 105.238281 234.570312 105.238281 234.324219 105.097656 C 234.605469 105.027344 234.851562 104.796875 234.851562 104.480469 C 234.851562 104.183594 234.605469 104.09375 234.445312 104.09375 C 234.09375 104.09375 233.828125 104.375 233.828125 104.746094 C 233.828125 105.253906 234.375 105.484375 234.867188 105.484375 C 235.625 105.484375 236.027344 104.691406 236.046875 104.640625 C 236.1875 105.042969 236.589844 105.484375 237.261719 105.484375 C 238.421875 105.484375 239.054688 104.042969 239.054688 103.761719 C 239.054688 103.636719 238.964844 103.636719 238.929688 103.636719 C 238.824219 103.636719 238.808594 103.6875 238.773438 103.761719 C 238.402344 104.972656 237.648438 105.238281 237.296875 105.238281 C 236.855469 105.238281 236.679688 104.886719 236.679688 104.5 C 236.679688 104.253906 236.730469 104.007812 236.855469 103.511719 Z M 237.242188 101.964844 "/>
<path fill-rule="nonzero" fill="rgb(25.881958%, 29.411316%, 30.979919%)" fill-opacity="1" d="M 325.082031 99.75 C 325.082031 99.011719 324.890625 97.445312 323.746094 97.445312 C 322.179688 97.445312 320.457031 100.609375 320.457031 103.179688 C 320.457031 104.234375 320.773438 105.484375 321.792969 105.484375 C 323.375 105.484375 325.082031 102.265625 325.082031 99.75 Z M 321.636719 101.28125 C 321.828125 100.574219 322.058594 99.679688 322.515625 98.871094 C 322.8125 98.324219 323.21875 97.691406 323.726562 97.691406 C 324.273438 97.691406 324.34375 98.414062 324.34375 99.046875 C 324.34375 99.609375 324.257812 100.171875 323.992188 101.28125 Z M 323.886719 101.648438 C 323.761719 102.160156 323.535156 103.109375 323.09375 103.917969 C 322.707031 104.691406 322.285156 105.238281 321.792969 105.238281 C 321.425781 105.238281 321.195312 104.902344 321.195312 103.867188 C 321.195312 103.390625 321.265625 102.738281 321.546875 101.648438 Z M 323.886719 101.648438 "/>
<path fill-rule="nonzero" fill="rgb(25.881958%, 29.411316%, 30.979919%)" fill-opacity="1" d="M 327.394531 104.421875 C 328.007812 104.421875 328.449219 104.84375 328.449219 105.6875 C 328.449219 106.65625 327.867188 106.953125 327.429688 106.953125 C 327.113281 106.953125 326.40625 106.867188 326.089844 106.390625 C 326.460938 106.390625 326.546875 106.128906 326.546875 105.953125 C 326.546875 105.707031 326.355469 105.53125 326.109375 105.53125 C 325.898438 105.53125 325.667969 105.671875 325.667969 105.988281 C 325.667969 106.726562 326.476562 107.199219 327.429688 107.199219 C 328.519531 107.199219 329.273438 106.460938 329.273438 105.6875 C 329.273438 105.074219 328.78125 104.457031 327.921875 104.28125 C 328.730469 103.980469 329.027344 103.402344 329.027344 102.910156 C 329.027344 102.292969 328.324219 101.835938 327.445312 101.835938 C 326.582031 101.835938 325.914062 102.257812 325.914062 102.890625 C 325.914062 103.15625 326.089844 103.296875 326.320312 103.296875 C 326.566406 103.296875 326.722656 103.121094 326.722656 102.910156 C 326.722656 102.679688 326.566406 102.503906 326.320312 102.488281 C 326.601562 102.152344 327.128906 102.0625 327.429688 102.0625 C 327.78125 102.0625 328.273438 102.242188 328.273438 102.910156 C 328.273438 103.242188 328.167969 103.613281 327.957031 103.839844 C 327.710938 104.140625 327.480469 104.15625 327.09375 104.191406 C 326.898438 104.210938 326.882812 104.210938 326.847656 104.210938 C 326.828125 104.210938 326.757812 104.226562 326.757812 104.316406 C 326.757812 104.421875 326.828125 104.421875 326.96875 104.421875 Z M 327.394531 104.421875 "/>
<path fill-rule="nonzero" fill="rgb(25.881958%, 29.411316%, 30.979919%)" fill-opacity="1" d="M 333.761719 104.542969 C 333.761719 103.683594 333.65625 103.050781 333.304688 102.503906 C 333.058594 102.152344 332.566406 101.835938 331.953125 101.835938 C 330.121094 101.835938 330.121094 103.980469 330.121094 104.542969 C 330.121094 105.109375 330.121094 107.199219 331.953125 107.199219 C 333.761719 107.199219 333.761719 105.109375 333.761719 104.542969 Z M 331.953125 106.972656 C 331.582031 106.972656 331.109375 106.761719 330.949219 106.128906 C 330.84375 105.671875 330.84375 105.019531 330.84375 104.4375 C 330.84375 103.859375 330.84375 103.261719 330.949219 102.839844 C 331.125 102.222656 331.617188 102.046875 331.953125 102.046875 C 332.375 102.046875 332.777344 102.3125 332.917969 102.769531 C 333.042969 103.191406 333.058594 103.753906 333.058594 104.4375 C 333.058594 105.019531 333.058594 105.601562 332.953125 106.09375 C 332.796875 106.8125 332.269531 106.972656 331.953125 106.972656 Z M 331.953125 106.972656 "/>
<path fill-rule="nonzero" fill="rgb(25.881958%, 29.411316%, 30.979919%)" fill-opacity="1" d="M 341.832031 102.773438 L 344.964844 102.773438 C 345.121094 102.773438 345.332031 102.773438 345.332031 102.546875 C 345.332031 102.335938 345.121094 102.335938 344.964844 102.335938 L 341.832031 102.335938 L 341.832031 99.1875 C 341.832031 99.027344 341.832031 98.816406 341.605469 98.816406 C 341.375 98.816406 341.375 99.027344 341.375 99.1875 L 341.375 102.335938 L 338.246094 102.335938 C 338.085938 102.335938 337.875 102.335938 337.875 102.546875 C 337.875 102.773438 338.085938 102.773438 338.246094 102.773438 L 341.375 102.773438 L 341.375 105.921875 C 341.375 106.082031 341.375 106.292969 341.605469 106.292969 C 341.832031 106.292969 341.832031 106.082031 341.832031 105.921875 Z M 341.832031 102.773438 "/>
<path fill-rule="nonzero" fill="rgb(25.881958%, 29.411316%, 30.979919%)" fill-opacity="1" d="M 353.558594 99.75 C 353.558594 99.011719 353.363281 97.445312 352.222656 97.445312 C 350.65625 97.445312 348.929688 100.609375 348.929688 103.179688 C 348.929688 104.234375 349.25 105.484375 350.269531 105.484375 C 351.851562 105.484375 353.558594 102.265625 353.558594 99.75 Z M 350.109375 101.28125 C 350.304688 100.574219 350.53125 99.679688 350.988281 98.871094 C 351.289062 98.324219 351.691406 97.691406 352.203125 97.691406 C 352.75 97.691406 352.820312 98.414062 352.820312 99.046875 C 352.820312 99.609375 352.730469 100.171875 352.46875 101.28125 Z M 352.363281 101.648438 C 352.238281 102.160156 352.007812 103.109375 351.570312 103.917969 C 351.183594 104.691406 350.761719 105.238281 350.269531 105.238281 C 349.898438 105.238281 349.671875 104.902344 349.671875 103.867188 C 349.671875 103.390625 349.742188 102.738281 350.023438 101.648438 Z M 352.363281 101.648438 "/>
<path fill-rule="nonzero" fill="rgb(25.881958%, 29.411316%, 30.979919%)" fill-opacity="1" d="M 355.867188 104.421875 C 356.484375 104.421875 356.921875 104.84375 356.921875 105.6875 C 356.921875 106.65625 356.34375 106.953125 355.902344 106.953125 C 355.585938 106.953125 354.882812 106.867188 354.566406 106.390625 C 354.933594 106.390625 355.023438 106.128906 355.023438 105.953125 C 355.023438 105.707031 354.828125 105.53125 354.582031 105.53125 C 354.371094 105.53125 354.144531 105.671875 354.144531 105.988281 C 354.144531 106.726562 354.953125 107.199219 355.902344 107.199219 C 356.992188 107.199219 357.75 106.460938 357.75 105.6875 C 357.75 105.074219 357.257812 104.457031 356.394531 104.28125 C 357.203125 103.980469 357.503906 103.402344 357.503906 102.910156 C 357.503906 102.292969 356.800781 101.835938 355.921875 101.835938 C 355.058594 101.835938 354.390625 102.257812 354.390625 102.890625 C 354.390625 103.15625 354.566406 103.296875 354.792969 103.296875 C 355.039062 103.296875 355.199219 103.121094 355.199219 102.910156 C 355.199219 102.679688 355.039062 102.503906 354.792969 102.488281 C 355.074219 102.152344 355.605469 102.0625 355.902344 102.0625 C 356.253906 102.0625 356.746094 102.242188 356.746094 102.910156 C 356.746094 103.242188 356.640625 103.613281 356.429688 103.839844 C 356.183594 104.140625 355.957031 104.15625 355.570312 104.191406 C 355.375 104.210938 355.359375 104.210938 355.324219 104.210938 C 355.304688 104.210938 355.234375 104.226562 355.234375 104.316406 C 355.234375 104.421875 355.304688 104.421875 355.445312 104.421875 Z M 355.867188 104.421875 "/>
<path fill-rule="nonzero" fill="rgb(25.881958%, 29.411316%, 30.979919%)" fill-opacity="1" d="M 360.8125 102.046875 C 360.8125 101.835938 360.8125 101.835938 360.585938 101.835938 C 360.074219 102.328125 359.371094 102.328125 359.054688 102.328125 L 359.054688 102.609375 C 359.230469 102.609375 359.757812 102.609375 360.179688 102.398438 L 360.179688 106.390625 C 360.179688 106.65625 360.179688 106.761719 359.40625 106.761719 L 359.109375 106.761719 L 359.109375 107.042969 C 359.25 107.042969 360.214844 107.007812 360.496094 107.007812 C 360.742188 107.007812 361.726562 107.042969 361.902344 107.042969 L 361.902344 106.761719 L 361.605469 106.761719 C 360.8125 106.761719 360.8125 106.65625 360.8125 106.390625 Z M 360.8125 102.046875 "/>
<path fill-rule="nonzero" fill="rgb(25.881958%, 29.411316%, 30.979919%)" fill-opacity="1" d="M 366.972656 101.964844 C 367.042969 101.683594 367.304688 100.644531 368.078125 100.644531 C 368.132812 100.644531 368.414062 100.644531 368.640625 100.785156 C 368.324219 100.859375 368.113281 101.121094 368.113281 101.402344 C 368.113281 101.578125 368.238281 101.789062 368.535156 101.789062 C 368.78125 101.789062 369.132812 101.597656 369.132812 101.140625 C 369.132812 100.558594 368.484375 100.398438 368.097656 100.398438 C 367.445312 100.398438 367.058594 101 366.917969 101.246094 C 366.636719 100.503906 366.039062 100.398438 365.703125 100.398438 C 364.542969 100.398438 363.894531 101.84375 363.894531 102.125 C 363.894531 102.246094 364.015625 102.246094 364.035156 102.246094 C 364.121094 102.246094 364.15625 102.210938 364.175781 102.125 C 364.5625 100.929688 365.300781 100.644531 365.6875 100.644531 C 365.898438 100.644531 366.285156 100.75 366.285156 101.402344 C 366.285156 101.753906 366.089844 102.492188 365.6875 104.078125 C 365.511719 104.761719 365.105469 105.238281 364.613281 105.238281 C 364.542969 105.238281 364.296875 105.238281 364.050781 105.097656 C 364.332031 105.027344 364.578125 104.796875 364.578125 104.480469 C 364.578125 104.183594 364.332031 104.09375 364.175781 104.09375 C 363.824219 104.09375 363.558594 104.375 363.558594 104.746094 C 363.558594 105.253906 364.105469 105.484375 364.597656 105.484375 C 365.351562 105.484375 365.757812 104.691406 365.773438 104.640625 C 365.914062 105.042969 366.320312 105.484375 366.988281 105.484375 C 368.148438 105.484375 368.78125 104.042969 368.78125 103.761719 C 368.78125 103.636719 368.695312 103.636719 368.660156 103.636719 C 368.554688 103.636719 368.535156 103.6875 368.5 103.761719 C 368.132812 104.972656 367.375 105.238281 367.023438 105.238281 C 366.582031 105.238281 366.40625 104.886719 366.40625 104.5 C 366.40625 104.253906 366.460938 104.007812 366.582031 103.511719 Z M 366.972656 101.964844 "/>
<path fill-rule="nonzero" fill="rgb(50.195312%, 50.195312%, 50.195312%)" fill-opacity="1" d="M 25.066406 115.191406 C 25.066406 114.570312 25.03125 113.828125 24.695312 113.195312 C 24.375 112.601562 23.828125 112.402344 23.433594 112.402344 C 22.960938 112.402344 22.40625 112.628906 22.082031 113.320312 C 21.824219 113.902344 21.785156 114.558594 21.785156 115.191406 C 21.785156 115.808594 21.808594 116.394531 22.046875 116.976562 C 22.367188 117.730469 22.960938 117.941406 23.421875 117.941406 C 23.992188 117.941406 24.5 117.617188 24.746094 117.074219 C 24.980469 116.554688 25.066406 116.035156 25.066406 115.191406 Z M 23.433594 117.457031 C 23.011719 117.457031 22.691406 117.160156 22.527344 116.589844 C 22.40625 116.144531 22.40625 115.710938 22.40625 115.09375 C 22.40625 114.597656 22.40625 114.125 22.527344 113.691406 C 22.578125 113.542969 22.777344 112.886719 23.421875 112.886719 C 24.039062 112.886719 24.238281 113.496094 24.300781 113.628906 C 24.449219 114.078125 24.449219 114.609375 24.449219 115.09375 C 24.449219 115.613281 24.449219 116.121094 24.300781 116.617188 C 24.101562 117.332031 23.679688 117.457031 23.433594 117.457031 Z M 23.433594 117.457031 "/>
<path fill-rule="nonzero" fill="rgb(50.195312%, 50.195312%, 50.195312%)" fill-opacity="1" d="M 26.167969 117.109375 L 26.824219 117.109375 L 26.824219 117.765625 L 26.167969 117.765625 Z M 26.167969 117.109375 "/>
<path fill-rule="nonzero" fill="rgb(50.195312%, 50.195312%, 50.195312%)" fill-opacity="1" d="M 31.210938 115.191406 C 31.210938 114.570312 31.171875 113.828125 30.839844 113.195312 C 30.515625 112.601562 29.972656 112.402344 29.574219 112.402344 C 29.105469 112.402344 28.546875 112.628906 28.226562 113.320312 C 27.964844 113.902344 27.929688 114.558594 27.929688 115.191406 C 27.929688 115.808594 27.953125 116.394531 28.1875 116.976562 C 28.511719 117.730469 29.105469 117.941406 29.5625 117.941406 C 30.132812 117.941406 30.640625 117.617188 30.890625 117.074219 C 31.125 116.554688 31.210938 116.035156 31.210938 115.191406 Z M 29.574219 117.457031 C 29.15625 117.457031 28.832031 117.160156 28.671875 116.589844 C 28.546875 116.144531 28.546875 115.710938 28.546875 115.09375 C 28.546875 114.597656 28.546875 114.125 28.671875 113.691406 C 28.722656 113.542969 28.917969 112.886719 29.5625 112.886719 C 30.183594 112.886719 30.382812 113.496094 30.441406 113.628906 C 30.589844 114.078125 30.589844 114.609375 30.589844 115.09375 C 30.589844 115.613281 30.589844 116.121094 30.441406 116.617188 C 30.246094 117.332031 29.824219 117.457031 29.574219 117.457031 Z M 29.574219 117.457031 "/>
<path fill-rule="nonzero" fill="rgb(50.195312%, 50.195312%, 50.195312%)" fill-opacity="1" d="M 15.847656 61.390625 C 15.847656 60.773438 15.808594 60.03125 15.472656 59.398438 C 15.152344 58.804688 14.609375 58.605469 14.210938 58.605469 C 13.742188 58.605469 13.183594 58.828125 12.859375 59.523438 C 12.601562 60.105469 12.5625 60.761719 12.5625 61.390625 C 12.5625 62.011719 12.589844 62.59375 12.824219 63.175781 C 13.144531 63.929688 13.742188 64.140625 14.199219 64.140625 C 14.769531 64.140625 15.277344 63.820312 15.523438 63.273438 C 15.757812 62.753906 15.847656 62.234375 15.847656 61.390625 Z M 14.210938 63.660156 C 13.789062 63.660156 13.46875 63.363281 13.308594 62.792969 C 13.183594 62.347656 13.183594 61.914062 13.183594 61.292969 C 13.183594 60.796875 13.183594 60.328125 13.308594 59.894531 C 13.355469 59.746094 13.554688 59.089844 14.199219 59.089844 C 14.816406 59.089844 15.015625 59.695312 15.078125 59.832031 C 15.226562 60.277344 15.226562 60.808594 15.226562 61.292969 C 15.226562 61.8125 15.226562 62.320312 15.078125 62.816406 C 14.878906 63.535156 14.457031 63.660156 14.210938 63.660156 Z M 14.210938 63.660156 "/>
<path fill-rule="nonzero" fill="rgb(50.195312%, 50.195312%, 50.195312%)" fill-opacity="1" d="M 16.945312 63.3125 L 17.601562 63.3125 L 17.601562 63.96875 L 16.945312 63.96875 Z M 16.945312 63.3125 "/>
<path fill-rule="nonzero" fill="rgb(50.195312%, 50.195312%, 50.195312%)" fill-opacity="1" d="M 21.988281 61.390625 C 21.988281 60.773438 21.953125 60.03125 21.617188 59.398438 C 21.296875 58.804688 20.75 58.605469 20.355469 58.605469 C 19.882812 58.605469 19.324219 58.828125 19.003906 59.523438 C 18.742188 60.105469 18.707031 60.761719 18.707031 61.390625 C 18.707031 62.011719 18.730469 62.59375 18.964844 63.175781 C 19.289062 63.929688 19.882812 64.140625 20.339844 64.140625 C 20.910156 64.140625 21.417969 63.820312 21.667969 63.273438 C 21.902344 62.753906 21.988281 62.234375 21.988281 61.390625 Z M 20.355469 63.660156 C 19.933594 63.660156 19.609375 63.363281 19.449219 62.792969 C 19.324219 62.347656 19.324219 61.914062 19.324219 61.292969 C 19.324219 60.796875 19.324219 60.328125 19.449219 59.894531 C 19.5 59.746094 19.699219 59.089844 20.339844 59.089844 C 20.960938 59.089844 21.160156 59.695312 21.222656 59.832031 C 21.371094 60.277344 21.371094 60.808594 21.371094 61.292969 C 21.371094 61.8125 21.371094 62.320312 21.222656 62.816406 C 21.023438 63.535156 20.601562 63.660156 20.355469 63.660156 Z M 20.355469 63.660156 "/>
<path fill-rule="nonzero" fill="rgb(50.195312%, 50.195312%, 50.195312%)" fill-opacity="1" d="M 15.519531 16.570312 L 15.519531 11.105469 L 14.863281 11.105469 L 14.082031 11.738281 L 14.082031 12.359375 L 14.902344 11.6875 L 14.902344 16.570312 Z M 15.519531 16.570312 "/>
<path fill-rule="nonzero" fill="rgb(50.195312%, 50.195312%, 50.195312%)" fill-opacity="1" d="M 16.707031 15.765625 L 17.460938 15.765625 L 17.460938 16.570312 L 16.707031 16.570312 Z M 16.707031 15.765625 "/>
<path fill-rule="nonzero" fill="rgb(50.195312%, 50.195312%, 50.195312%)" fill-opacity="1" d="M 21.941406 13.855469 C 21.929688 12.691406 21.667969 11.007812 20.195312 11.007812 C 18.722656 11.007812 18.472656 12.714844 18.472656 13.855469 C 18.472656 15.007812 18.734375 16.679688 20.195312 16.679688 C 21.65625 16.679688 21.941406 15.007812 21.941406 13.855469 Z M 21.371094 13.855469 C 21.371094 14.613281 21.308594 16.160156 20.195312 16.160156 C 19.078125 16.160156 19.042969 14.585938 19.042969 13.855469 C 19.042969 13.113281 19.066406 11.515625 20.195312 11.515625 C 21.308594 11.515625 21.371094 13.125 21.371094 13.855469 Z M 21.371094 13.855469 "/>
<path fill-rule="nonzero" fill="rgb(50.195312%, 50.195312%, 50.195312%)" fill-opacity="1" d="M 83.191406 117.898438 L 83.191406 112.433594 L 82.535156 112.433594 L 81.753906 113.066406 L 81.753906 113.6875 L 82.574219 113.015625 L 82.574219 117.898438 Z M 83.191406 117.898438 "/>
<path fill-rule="nonzero" fill="rgb(50.195312%, 50.195312%, 50.195312%)" fill-opacity="1" d="M 84.378906 117.09375 L 85.132812 117.09375 L 85.132812 117.898438 L 84.378906 117.898438 Z M 84.378906 117.09375 "/>
<path fill-rule="nonzero" fill="rgb(50.195312%, 50.195312%, 50.195312%)" fill-opacity="1" d="M 89.613281 115.183594 C 89.601562 114.019531 89.339844 112.335938 87.867188 112.335938 C 86.394531 112.335938 86.144531 114.046875 86.144531 115.183594 C 86.144531 116.335938 86.40625 118.007812 87.867188 118.007812 C 89.328125 118.007812 89.613281 116.335938 89.613281 115.183594 Z M 89.042969 115.183594 C 89.042969 115.941406 88.980469 117.488281 87.867188 117.488281 C 86.75 117.488281 86.714844 115.914062 86.714844 115.183594 C 86.714844 114.441406 86.738281 112.84375 87.867188 112.84375 C 88.980469 112.84375 89.042969 114.453125 89.042969 115.183594 Z M 89.042969 115.183594 "/>
<path fill-rule="nonzero" fill="rgb(50.195312%, 50.195312%, 50.195312%)" fill-opacity="1" d="M 10.703125 110.105469 L 12.5 110.105469 L 12.5 110.625 L 10.703125 110.625 Z M 10.703125 110.105469 "/>
<path fill-rule="nonzero" fill="rgb(50.195312%, 50.195312%, 50.195312%)" fill-opacity="1" d="M 14.722656 112.148438 L 14.722656 106.6875 L 14.066406 106.6875 L 13.285156 107.316406 L 13.285156 107.9375 L 14.101562 107.269531 L 14.101562 112.148438 Z M 14.722656 112.148438 "/>
<path fill-rule="nonzero" fill="rgb(50.195312%, 50.195312%, 50.195312%)" fill-opacity="1" d="M 15.910156 111.34375 L 16.664062 111.34375 L 16.664062 112.148438 L 15.910156 112.148438 Z M 15.910156 111.34375 "/>
<path fill-rule="nonzero" fill="rgb(50.195312%, 50.195312%, 50.195312%)" fill-opacity="1" d="M 21.144531 109.4375 C 21.128906 108.273438 20.871094 106.585938 19.398438 106.585938 C 17.921875 106.585938 17.675781 108.296875 17.675781 109.4375 C 17.675781 110.585938 17.933594 112.261719 19.398438 112.261719 C 20.859375 112.261719 21.144531 110.585938 21.144531 109.4375 Z M 20.574219 109.4375 C 20.574219 110.191406 20.511719 111.738281 19.398438 111.738281 C 18.28125 111.738281 18.246094 110.167969 18.246094 109.4375 C 18.246094 108.691406 18.269531 107.09375 19.398438 107.09375 C 20.511719 107.09375 20.574219 108.707031 20.574219 109.4375 Z M 20.574219 109.4375 "/>
<path fill-rule="nonzero" fill="rgb(50.195312%, 50.195312%, 50.195312%)" fill-opacity="1" d="M 142.066406 118.0625 L 142.066406 117.492188 L 139.617188 117.492188 L 141.484375 115.386719 C 141.796875 114.953125 142.03125 114.617188 142.03125 114.046875 C 142.03125 113.03125 141.289062 112.5 140.347656 112.5 C 139.8125 112.5 139.367188 112.660156 138.921875 112.847656 L 138.921875 113.554688 C 139.367188 113.269531 139.8125 113.058594 140.359375 113.058594 C 140.976562 113.058594 141.460938 113.441406 141.460938 114.085938 C 141.460938 114.519531 141.113281 115.050781 140.828125 115.347656 C 140.742188 115.472656 139.019531 117.355469 138.882812 117.492188 L 138.882812 118.0625 Z M 142.066406 118.0625 "/>
<path fill-rule="nonzero" fill="rgb(50.195312%, 50.195312%, 50.195312%)" fill-opacity="1" d="M 142.976562 117.257812 L 143.734375 117.257812 L 143.734375 118.0625 L 142.976562 118.0625 Z M 142.976562 117.257812 "/>
<path fill-rule="nonzero" fill="rgb(50.195312%, 50.195312%, 50.195312%)" fill-opacity="1" d="M 148.210938 115.347656 C 148.199219 114.183594 147.941406 112.5 146.464844 112.5 C 144.992188 112.5 144.742188 114.210938 144.742188 115.347656 C 144.742188 116.5 145.003906 118.171875 146.464844 118.171875 C 147.925781 118.171875 148.210938 116.5 148.210938 115.347656 Z M 147.640625 115.347656 C 147.640625 116.105469 147.582031 117.652344 146.464844 117.652344 C 145.351562 117.652344 145.3125 116.078125 145.3125 115.347656 C 145.3125 114.605469 145.339844 113.007812 146.464844 113.007812 C 147.582031 113.007812 147.640625 114.617188 147.640625 115.347656 Z M 147.640625 115.347656 "/>
<path fill-rule="nonzero" fill="rgb(50.195312%, 50.195312%, 50.195312%)" fill-opacity="1" d="M 154.625 115.191406 C 154.625 114.570312 154.585938 113.828125 154.253906 113.195312 C 153.929688 112.601562 153.386719 112.402344 152.988281 112.402344 C 152.519531 112.402344 151.960938 112.628906 151.640625 113.320312 C 151.378906 113.902344 151.34375 114.558594 151.34375 115.191406 C 151.34375 115.808594 151.367188 116.394531 151.601562 116.976562 C 151.925781 117.730469 152.519531 117.941406 152.976562 117.941406 C 153.546875 117.941406 154.054688 117.617188 154.300781 117.074219 C 154.539062 116.554688 154.625 116.035156 154.625 115.191406 Z M 152.988281 117.457031 C 152.570312 117.457031 152.246094 117.160156 152.085938 116.589844 C 151.960938 116.144531 151.960938 115.710938 151.960938 115.09375 C 151.960938 114.597656 151.960938 114.125 152.085938 113.691406 C 152.136719 113.542969 152.332031 112.886719 152.976562 112.886719 C 153.597656 112.886719 153.792969 113.496094 153.855469 113.628906 C 154.003906 114.078125 154.003906 114.609375 154.003906 115.09375 C 154.003906 115.613281 154.003906 116.121094 153.855469 116.617188 C 153.660156 117.332031 153.238281 117.457031 152.988281 117.457031 Z M 152.988281 117.457031 "/>
<path fill-rule="nonzero" fill="rgb(50.195312%, 50.195312%, 50.195312%)" fill-opacity="1" d="M 155.722656 117.109375 L 156.378906 117.109375 L 156.378906 117.765625 L 155.722656 117.765625 Z M 155.722656 117.109375 "/>
<path fill-rule="nonzero" fill="rgb(50.195312%, 50.195312%, 50.195312%)" fill-opacity="1" d="M 160.765625 115.191406 C 160.765625 114.570312 160.730469 113.828125 160.394531 113.195312 C 160.074219 112.601562 159.527344 112.402344 159.132812 112.402344 C 158.660156 112.402344 158.105469 112.628906 157.78125 113.320312 C 157.523438 113.902344 157.484375 114.558594 157.484375 115.191406 C 157.484375 115.808594 157.511719 116.394531 157.746094 116.976562 C 158.066406 117.730469 158.660156 117.941406 159.121094 117.941406 C 159.691406 117.941406 160.199219 117.617188 160.445312 117.074219 C 160.679688 116.554688 160.765625 116.035156 160.765625 115.191406 Z M 159.132812 117.457031 C 158.710938 117.457031 158.390625 117.160156 158.226562 116.589844 C 158.105469 116.144531 158.105469 115.710938 158.105469 115.09375 C 158.105469 114.597656 158.105469 114.125 158.226562 113.691406 C 158.277344 113.542969 158.476562 112.886719 159.121094 112.886719 C 159.738281 112.886719 159.9375 113.496094 160 113.628906 C 160.148438 114.078125 160.148438 114.609375 160.148438 115.09375 C 160.148438 115.613281 160.148438 116.121094 160 116.617188 C 159.800781 117.332031 159.378906 117.457031 159.132812 117.457031 Z M 159.132812 117.457031 "/>
<path fill-rule="nonzero" fill="rgb(50.195312%, 50.195312%, 50.195312%)" fill-opacity="1" d="M 212.75 117.898438 L 212.75 112.433594 L 212.09375 112.433594 L 211.3125 113.066406 L 211.3125 113.6875 L 212.128906 113.015625 L 212.128906 117.898438 Z M 212.75 117.898438 "/>
<path fill-rule="nonzero" fill="rgb(50.195312%, 50.195312%, 50.195312%)" fill-opacity="1" d="M 213.9375 117.09375 L 214.691406 117.09375 L 214.691406 117.898438 L 213.9375 117.898438 Z M 213.9375 117.09375 "/>
<path fill-rule="nonzero" fill="rgb(50.195312%, 50.195312%, 50.195312%)" fill-opacity="1" d="M 219.167969 115.183594 C 219.15625 114.019531 218.898438 112.335938 217.421875 112.335938 C 215.949219 112.335938 215.703125 114.046875 215.703125 115.183594 C 215.703125 116.335938 215.960938 118.007812 217.421875 118.007812 C 218.882812 118.007812 219.167969 116.335938 219.167969 115.183594 Z M 218.601562 115.183594 C 218.601562 115.941406 218.539062 117.488281 217.421875 117.488281 C 216.308594 117.488281 216.269531 115.914062 216.269531 115.183594 C 216.269531 114.441406 216.296875 112.84375 217.421875 112.84375 C 218.539062 112.84375 218.601562 114.453125 218.601562 115.183594 Z M 218.601562 115.183594 "/>
<path fill-rule="nonzero" fill="rgb(50.195312%, 50.195312%, 50.195312%)" fill-opacity="1" d="M 271.625 118.0625 L 271.625 117.492188 L 269.171875 117.492188 L 271.042969 115.386719 C 271.351562 114.953125 271.585938 114.617188 271.585938 114.046875 C 271.585938 113.03125 270.84375 112.5 269.902344 112.5 C 269.371094 112.5 268.925781 112.660156 268.476562 112.847656 L 268.476562 113.554688 C 268.925781 113.269531 269.371094 113.058594 269.914062 113.058594 C 270.535156 113.058594 271.015625 113.441406 271.015625 114.085938 C 271.015625 114.519531 270.671875 115.050781 270.386719 115.347656 C 270.300781 115.472656 268.578125 117.355469 268.441406 117.492188 L 268.441406 118.0625 Z M 271.625 118.0625 "/>
<path fill-rule="nonzero" fill="rgb(50.195312%, 50.195312%, 50.195312%)" fill-opacity="1" d="M 272.535156 117.257812 L 273.289062 117.257812 L 273.289062 118.0625 L 272.535156 118.0625 Z M 272.535156 117.257812 "/>
<path fill-rule="nonzero" fill="rgb(50.195312%, 50.195312%, 50.195312%)" fill-opacity="1" d="M 277.769531 115.347656 C 277.757812 114.183594 277.496094 112.5 276.023438 112.5 C 274.546875 112.5 274.300781 114.210938 274.300781 115.347656 C 274.300781 116.5 274.5625 118.171875 276.023438 118.171875 C 277.484375 118.171875 277.769531 116.5 277.769531 115.347656 Z M 277.199219 115.347656 C 277.199219 116.105469 277.136719 117.652344 276.023438 117.652344 C 274.90625 117.652344 274.871094 116.078125 274.871094 115.347656 C 274.871094 114.605469 274.894531 113.007812 276.023438 113.007812 C 277.136719 113.007812 277.199219 114.617188 277.199219 115.347656 Z M 277.199219 115.347656 "/>
<path fill-rule="nonzero" fill="rgb(50.195312%, 50.195312%, 50.195312%)" fill-opacity="1" d="M 284.570312 115.191406 C 284.570312 114.570312 284.53125 113.828125 284.199219 113.195312 C 283.875 112.601562 283.332031 112.402344 282.933594 112.402344 C 282.464844 112.402344 281.90625 112.628906 281.585938 113.320312 C 281.324219 113.902344 281.289062 114.558594 281.289062 115.191406 C 281.289062 115.808594 281.3125 116.394531 281.546875 116.976562 C 281.871094 117.730469 282.464844 117.941406 282.921875 117.941406 C 283.492188 117.941406 284 117.617188 284.246094 117.074219 C 284.484375 116.554688 284.570312 116.035156 284.570312 115.191406 Z M 282.933594 117.457031 C 282.511719 117.457031 282.191406 117.160156 282.03125 116.589844 C 281.90625 116.144531 281.90625 115.710938 281.90625 115.09375 C 281.90625 114.597656 281.90625 114.125 282.03125 113.691406 C 282.082031 113.542969 282.277344 112.886719 282.921875 112.886719 C 283.542969 112.886719 283.738281 113.496094 283.800781 113.628906 C 283.949219 114.078125 283.949219 114.609375 283.949219 115.09375 C 283.949219 115.613281 283.949219 116.121094 283.800781 116.617188 C 283.605469 117.332031 283.183594 117.457031 282.933594 117.457031 Z M 282.933594 117.457031 "/>
<path fill-rule="nonzero" fill="rgb(50.195312%, 50.195312%, 50.195312%)" fill-opacity="1" d="M 285.667969 117.109375 L 286.324219 117.109375 L 286.324219 117.765625 L 285.667969 117.765625 Z M 285.667969 117.109375 "/>
<path fill-rule="nonzero" fill="rgb(50.195312%, 50.195312%, 50.195312%)" fill-opacity="1" d="M 290.710938 115.191406 C 290.710938 114.570312 290.675781 113.828125 290.339844 113.195312 C 290.019531 112.601562 289.472656 112.402344 289.078125 112.402344 C 288.605469 112.402344 288.050781 112.628906 287.726562 113.320312 C 287.46875 113.902344 287.429688 114.558594 287.429688 115.191406 C 287.429688 115.808594 287.453125 116.394531 287.691406 116.976562 C 288.011719 117.730469 288.605469 117.941406 289.066406 117.941406 C 289.636719 117.941406 290.144531 117.617188 290.390625 117.074219 C 290.625 116.554688 290.710938 116.035156 290.710938 115.191406 Z M 289.078125 117.457031 C 288.65625 117.457031 288.335938 117.160156 288.171875 116.589844 C 288.050781 116.144531 288.050781 115.710938 288.050781 115.09375 C 288.050781 114.597656 288.050781 114.125 288.171875 113.691406 C 288.222656 113.542969 288.421875 112.886719 289.066406 112.886719 C 289.683594 112.886719 289.882812 113.496094 289.945312 113.628906 C 290.09375 114.078125 290.09375 114.609375 290.09375 115.09375 C 290.09375 115.613281 290.09375 116.121094 289.945312 116.617188 C 289.746094 117.332031 289.324219 117.457031 289.078125 117.457031 Z M 289.078125 117.457031 "/>
<path fill-rule="nonzero" fill="rgb(50.195312%, 50.195312%, 50.195312%)" fill-opacity="1" d="M 342.695312 117.898438 L 342.695312 112.433594 L 342.039062 112.433594 L 341.257812 113.066406 L 341.257812 113.6875 L 342.074219 113.015625 L 342.074219 117.898438 Z M 342.695312 117.898438 "/>
<path fill-rule="nonzero" fill="rgb(50.195312%, 50.195312%, 50.195312%)" fill-opacity="1" d="M 343.878906 117.09375 L 344.636719 117.09375 L 344.636719 117.898438 L 343.878906 117.898438 Z M 343.878906 117.09375 "/>
<path fill-rule="nonzero" fill="rgb(50.195312%, 50.195312%, 50.195312%)" fill-opacity="1" d="M 349.113281 115.183594 C 349.101562 114.019531 348.84375 112.335938 347.367188 112.335938 C 345.894531 112.335938 345.648438 114.046875 345.648438 115.183594 C 345.648438 116.335938 345.90625 118.007812 347.367188 118.007812 C 348.828125 118.007812 349.113281 116.335938 349.113281 115.183594 Z M 348.546875 115.183594 C 348.546875 115.941406 348.484375 117.488281 347.367188 117.488281 C 346.253906 117.488281 346.214844 115.914062 346.214844 115.183594 C 346.214844 114.441406 346.242188 112.84375 347.367188 112.84375 C 348.484375 112.84375 348.546875 114.453125 348.546875 115.183594 Z M 348.546875 115.183594 "/>
<path fill-rule="nonzero" fill="rgb(50.195312%, 50.195312%, 50.195312%)" fill-opacity="1" d="M 401.570312 118.0625 L 401.570312 117.492188 L 399.117188 117.492188 L 400.988281 115.386719 C 401.296875 114.953125 401.53125 114.617188 401.53125 114.046875 C 401.53125 113.03125 400.789062 112.5 399.847656 112.5 C 399.316406 112.5 398.871094 112.660156 398.421875 112.847656 L 398.421875 113.554688 C 398.871094 113.269531 399.316406 113.058594 399.859375 113.058594 C 400.480469 113.058594 400.960938 113.441406 400.960938 114.085938 C 400.960938 114.519531 400.617188 115.050781 400.332031 115.347656 C 400.242188 115.472656 398.523438 117.355469 398.386719 117.492188 L 398.386719 118.0625 Z M 401.570312 118.0625 "/>
<path fill-rule="nonzero" fill="rgb(50.195312%, 50.195312%, 50.195312%)" fill-opacity="1" d="M 402.480469 117.257812 L 403.234375 117.257812 L 403.234375 118.0625 L 402.480469 118.0625 Z M 402.480469 117.257812 "/>
<path fill-rule="nonzero" fill="rgb(50.195312%, 50.195312%, 50.195312%)" fill-opacity="1" d="M 407.714844 115.347656 C 407.703125 114.183594 407.441406 112.5 405.96875 112.5 C 404.492188 112.5 404.246094 114.210938 404.246094 115.347656 C 404.246094 116.5 404.503906 118.171875 405.96875 118.171875 C 407.429688 118.171875 407.714844 116.5 407.714844 115.347656 Z M 407.144531 115.347656 C 407.144531 116.105469 407.082031 117.652344 405.96875 117.652344 C 404.851562 117.652344 404.816406 116.078125 404.816406 115.347656 C 404.816406 114.605469 404.839844 113.007812 405.96875 113.007812 C 407.082031 113.007812 407.144531 114.617188 407.144531 115.347656 Z M 407.144531 115.347656 "/>
<path fill-rule="nonzero" fill="rgb(0%, 0%, 0%)" fill-opacity="1" d="M 7.382812 5.839844 C 7.382812 4.550781 6.453125 3.660156 5.285156 3.660156 C 4.472656 3.660156 3.898438 3.859375 3.304688 4.195312 L 3.382812 5.027344 C 4.035156 4.570312 4.671875 4.414062 5.285156 4.414062 C 5.878906 4.414062 6.390625 4.910156 6.390625 5.839844 L 6.390625 6.394531 C 4.492188 6.414062 2.890625 6.945312 2.890625 8.054688 C 2.890625 8.589844 3.226562 9.621094 4.332031 9.621094 C 4.511719 9.621094 5.699219 9.597656 6.429688 9.027344 L 6.429688 9.480469 L 7.382812 9.480469 Z M 6.390625 7.816406 C 6.390625 8.054688 6.390625 8.371094 5.957031 8.609375 C 5.601562 8.828125 5.105469 8.847656 4.96875 8.847656 C 4.375 8.847656 3.800781 8.550781 3.800781 8.035156 C 3.800781 7.144531 5.835938 7.066406 6.390625 7.027344 Z M 6.390625 7.816406 "/>
<path fill-rule="nonzero" fill="rgb(0%, 0%, 0%)" fill-opacity="1" d="M 9.882812 12.648438 C 10.28125 12.25 11.132812 11.480469 11.703125 9.9375 C 12.21875 8.589844 12.296875 7.242188 12.296875 6.3125 C 12.296875 2.238281 10.476562 0.574219 9.882812 0 L 9.113281 0 C 9.707031 0.613281 11.308594 2.238281 11.308594 6.3125 C 11.308594 7.027344 11.269531 8.511719 10.753906 9.996094 C 10.242188 11.460938 9.527344 12.210938 9.113281 12.648438 Z M 9.882812 12.648438 "/>
<path fill-rule="nonzero" fill="rgb(0%, 0%, 0%)" fill-opacity="1" d="M 145.796875 0.710938 L 144.847656 0.710938 L 144.847656 9.480469 L 145.835938 9.480469 L 145.835938 8.90625 C 146.132812 9.183594 146.6875 9.621094 147.539062 9.621094 C 148.785156 9.621094 149.875 8.351562 149.875 6.671875 C 149.875 5.105469 149.023438 3.742188 147.835938 3.742188 C 147.34375 3.742188 146.550781 3.859375 145.796875 4.472656 Z M 145.835938 5.246094 C 146.035156 4.949219 146.492188 4.511719 147.183594 4.511719 C 147.9375 4.511719 148.886719 5.046875 148.886719 6.671875 C 148.886719 8.3125 147.835938 8.847656 147.066406 8.847656 C 146.570312 8.847656 146.152344 8.628906 145.835938 8.035156 Z M 145.835938 5.246094 "/>
<path fill-rule="nonzero" fill="rgb(0%, 0%, 0%)" fill-opacity="1" d="M 151.824219 12.648438 C 152.21875 12.25 153.070312 11.480469 153.644531 9.9375 C 154.160156 8.589844 154.238281 7.242188 154.238281 6.3125 C 154.238281 2.238281 152.417969 0.574219 151.824219 0 L 151.050781 0 C 151.644531 0.613281 153.25 2.238281 153.25 6.3125 C 153.25 7.027344 153.210938 8.511719 152.695312 9.996094 C 152.179688 11.460938 151.46875 12.210938 151.050781 12.648438 Z M 151.824219 12.648438 "/>
<path fill-rule="nonzero" fill="rgb(0%, 0%, 0%)" fill-opacity="1" d="M 280.296875 4.195312 C 279.542969 3.78125 279.109375 3.660156 278.335938 3.660156 C 276.59375 3.660156 275.566406 5.1875 275.566406 6.671875 C 275.566406 8.234375 276.714844 9.621094 278.296875 9.621094 C 278.96875 9.621094 279.664062 9.441406 280.355469 8.964844 L 280.277344 8.132812 C 279.621094 8.628906 278.949219 8.808594 278.296875 8.808594 C 277.246094 8.808594 276.554688 7.898438 276.554688 6.671875 C 276.554688 5.679688 277.011719 4.472656 278.355469 4.472656 C 279.007812 4.472656 279.445312 4.570312 280.136719 5.027344 Z M 280.296875 4.195312 "/>
<path fill-rule="nonzero" fill="rgb(0%, 0%, 0%)" fill-opacity="1" d="M 282.203125 12.648438 C 282.597656 12.25 283.449219 11.480469 284.023438 9.9375 C 284.539062 8.589844 284.617188 7.242188 284.617188 6.3125 C 284.617188 2.238281 282.796875 0.574219 282.203125 0 L 281.429688 0 C 282.023438 0.613281 283.628906 2.238281 283.628906 6.3125 C 283.628906 7.027344 283.585938 8.511719 283.074219 9.996094 C 282.558594 11.460938 281.847656 12.210938 281.429688 12.648438 Z M 282.203125 12.648438 "/>
</svg>
