<?xml version="1.0" encoding="UTF-8"?>
<svg xmlns="http://www.w3.org/2000/svg" xmlns:xlink="http://www.w3.org/1999/xlink" width="409.08963pt" height="130.296387pt" viewBox="0 0 409.08963 130.296387">
<defs>
<clipPath id="clip-0">
<path clip-rule="nonzero" d="M 274 7 L 409.089844 7 L 409.089844 114 L 274 114 Z M 274 7 "/>
</clipPath>
<clipPath id="clip-1">
<path clip-rule="nonzero" d="M 76 122 L 82 122 L 82 130.296875 L 76 130.296875 Z M 76 122 "/>
</clipPath>
<clipPath id="clip-2">
<path clip-rule="nonzero" d="M 205 122 L 211 122 L 211 130.296875 L 205 130.296875 Z M 205 122 "/>
</clipPath>
<clipPath id="clip-3">
<path clip-rule="nonzero" d="M 335 122 L 341 122 L 341 130.296875 L 335 130.296875 Z M 335 122 "/>
</clipPath>
<clipPath id="clip-4">
<path clip-rule="nonzero" d="M 405 112 L 409.089844 112 L 409.089844 119 L 405 119 Z M 405 112 "/>
</clipPath>
</defs>
<path fill="none" stroke-width="0.850394" stroke-linecap="butt" stroke-linejoin="miter" stroke="rgb(50.195312%, 50.195312%, 50.195312%)" stroke-opacity="1" stroke-miterlimit="4" d="M 285.390625 14.371094 L 283.507812 14.371094 "/>
<path fill="none" stroke-width="0.850394" stroke-linecap="butt" stroke-linejoin="miter" stroke="rgb(50.195312%, 50.195312%, 50.195312%)" stroke-opacity="1" stroke-miterlimit="4" d="M 285.390625 14.230469 L 283.507812 14.230469 "/>
<path fill="none" stroke-width="0.850394" stroke-linecap="butt" stroke-linejoin="miter" stroke="rgb(50.195312%, 50.195312%, 50.195312%)" stroke-opacity="1" stroke-miterlimit="4" d="M 285.390625 52.425781 L 283.507812 52.425781 "/>
<path fill="none" stroke-width="0.850394" stroke-linecap="butt" stroke-linejoin="miter" stroke="rgb(50.195312%, 50.195312%, 50.195312%)" stroke-opacity="1" stroke-miterlimit="4" d="M 285.390625 23.757812 L 284.105469 23.757812 "/>
<path fill="none" stroke-width="0.850394" stroke-linecap="butt" stroke-linejoin="miter" stroke="rgb(50.195312%, 50.195312%, 50.195312%)" stroke-opacity="1" stroke-miterlimit="4" d="M 285.390625 33.3125 L 284.105469 33.3125 "/>
<path fill="none" stroke-width="0.850394" stroke-linecap="butt" stroke-linejoin="miter" stroke="rgb(50.195312%, 50.195312%, 50.195312%)" stroke-opacity="1" stroke-miterlimit="4" d="M 285.390625 42.871094 L 284.105469 42.871094 "/>
<path fill="none" stroke-width="0.850394" stroke-linecap="butt" stroke-linejoin="miter" stroke="rgb(50.195312%, 50.195312%, 50.195312%)" stroke-opacity="1" stroke-miterlimit="4" d="M 285.390625 61.980469 L 284.105469 61.980469 "/>
<path fill="none" stroke-width="0.850394" stroke-linecap="butt" stroke-linejoin="miter" stroke="rgb(50.195312%, 50.195312%, 50.195312%)" stroke-opacity="1" stroke-miterlimit="4" d="M 285.390625 71.535156 L 284.105469 71.535156 "/>
<path fill="none" stroke-width="0.850394" stroke-linecap="butt" stroke-linejoin="miter" stroke="rgb(50.195312%, 50.195312%, 50.195312%)" stroke-opacity="1" stroke-miterlimit="4" d="M 285.390625 81.089844 L 284.105469 81.089844 "/>
<path fill="none" stroke-width="0.850394" stroke-linecap="butt" stroke-linejoin="miter" stroke="rgb(50.195312%, 50.195312%, 50.195312%)" stroke-opacity="1" stroke-miterlimit="4" d="M 285.390625 90.648438 L 284.105469 90.648438 "/>
<path fill="none" stroke-width="0.850394" stroke-linecap="butt" stroke-linejoin="miter" stroke="rgb(50.195312%, 50.195312%, 50.195312%)" stroke-opacity="1" stroke-miterlimit="4" d="M 285.390625 100.203125 L 284.105469 100.203125 "/>
<path fill="none" stroke-width="1.984252" stroke-linecap="butt" stroke-linejoin="miter" stroke="rgb(77.645874%, 80.39093%, 81.175232%)" stroke-opacity="1" stroke-miterlimit="4" d="M 25.089844 34.738281 L 49.410156 47.503906 L 72.558594 97.78125 L 95.960938 73.050781 L 120.308594 27.484375 L 143.367188 25.097656 "/>
<path fill="none" stroke-width="0.850394" stroke-linecap="butt" stroke-linejoin="miter" stroke="rgb(0%, 0%, 0%)" stroke-opacity="1" stroke-dasharray="2.551181 0.850394" stroke-miterlimit="4" d="M 25.847656 34.359375 C 45.140625 10.335938 47.757812 54.964844 59.246094 66.320312 C 70.730469 77.675781 67.824219 102.957031 79.402344 101.558594 C 92.28125 100.007812 86.917969 78.410156 100.730469 68.875 C 114.253906 59.542969 114.394531 24.765625 127.496094 19.476562 C 136.304688 17.714844 141.742188 22.855469 142.847656 25.152344 "/>
<path fill="none" stroke-width="1.984252" stroke-linecap="butt" stroke-linejoin="miter" stroke="rgb(81.959534%, 51.371765%, 38.430786%)" stroke-opacity="1" stroke-miterlimit="4" d="M 156.457031 34.460938 L 168.390625 27.28125 L 180.375 47.304688 L 191.828125 69.09375 L 203.3125 98.390625 L 215.433594 98.605469 L 226.699219 71.824219 L 239.136719 57.652344 L 250.640625 25.59375 L 262.351562 18.3125 L 274.109375 26.894531 "/>
<g clip-path="url(#clip-0)">
<path fill="none" stroke-width="1.984252" stroke-linecap="butt" stroke-linejoin="miter" stroke="rgb(62.744141%, 85.096741%, 82.743835%)" stroke-opacity="1" stroke-miterlimit="4" d="M 285.515625 34.835938 L 291.976562 28.382812 L 297.503906 27.523438 L 303.546875 33.222656 L 309.539062 47.933594 L 315.15625 61.058594 L 321.046875 68.703125 L 327.378906 82.382812 L 332.582031 98.257812 L 338.464844 101.9375 L 344.753906 99.207031 L 350.320312 86.257812 L 356.066406 72.894531 L 362.253906 67.683594 L 368.5625 58.457031 L 373.695312 43.570312 L 380.117188 26.5625 L 385.761719 19.96875 L 391.878906 19.097656 L 397.042969 20.570312 L 403.835938 27.125 "/>
</g>
<path fill="none" stroke-width="0.850394" stroke-linecap="butt" stroke-linejoin="miter" stroke="rgb(50.195312%, 50.195312%, 50.195312%)" stroke-opacity="1" stroke-miterlimit="4" d="M 25.097656 110.199219 L 25.097656 112.082031 "/>
<path fill="none" stroke-width="0.850394" stroke-linecap="butt" stroke-linejoin="miter" stroke="rgb(50.195312%, 50.195312%, 50.195312%)" stroke-opacity="1" stroke-miterlimit="4" d="M 84.214844 110.199219 L 84.214844 112.082031 "/>
<path fill="none" stroke-width="0.850394" stroke-linecap="butt" stroke-linejoin="miter" stroke="rgb(50.195312%, 50.195312%, 50.195312%)" stroke-opacity="1" stroke-miterlimit="4" d="M 143.332031 110.199219 L 143.332031 112.082031 "/>
<path fill="none" stroke-width="0.850394" stroke-linecap="butt" stroke-linejoin="miter" stroke="rgb(50.195312%, 50.195312%, 50.195312%)" stroke-opacity="1" stroke-miterlimit="4" d="M 36.921875 111.484375 L 36.921875 110.199219 "/>
<path fill="none" stroke-width="0.850394" stroke-linecap="butt" stroke-linejoin="miter" stroke="rgb(50.195312%, 50.195312%, 50.195312%)" stroke-opacity="1" stroke-miterlimit="4" d="M 48.746094 111.484375 L 48.746094 110.199219 "/>
<path fill="none" stroke-width="0.850394" stroke-linecap="butt" stroke-linejoin="miter" stroke="rgb(50.195312%, 50.195312%, 50.195312%)" stroke-opacity="1" stroke-miterlimit="4" d="M 60.570312 111.484375 L 60.570312 110.199219 "/>
<path fill="none" stroke-width="0.850394" stroke-linecap="butt" stroke-linejoin="miter" stroke="rgb(50.195312%, 50.195312%, 50.195312%)" stroke-opacity="1" stroke-miterlimit="4" d="M 72.390625 111.484375 L 72.390625 110.199219 "/>
<path fill="none" stroke-width="0.850394" stroke-linecap="butt" stroke-linejoin="miter" stroke="rgb(50.195312%, 50.195312%, 50.195312%)" stroke-opacity="1" stroke-miterlimit="4" d="M 96.039062 111.484375 L 96.039062 110.199219 "/>
<path fill="none" stroke-width="0.850394" stroke-linecap="butt" stroke-linejoin="miter" stroke="rgb(50.195312%, 50.195312%, 50.195312%)" stroke-opacity="1" stroke-miterlimit="4" d="M 107.859375 111.484375 L 107.859375 110.199219 "/>
<path fill="none" stroke-width="0.850394" stroke-linecap="butt" stroke-linejoin="miter" stroke="rgb(50.195312%, 50.195312%, 50.195312%)" stroke-opacity="1" stroke-miterlimit="4" d="M 119.683594 111.484375 L 119.683594 110.199219 "/>
<path fill="none" stroke-width="0.850394" stroke-linecap="butt" stroke-linejoin="miter" stroke="rgb(50.195312%, 50.195312%, 50.195312%)" stroke-opacity="1" stroke-miterlimit="4" d="M 131.507812 111.484375 L 131.507812 110.199219 "/>
<path fill="none" stroke-width="0.850394" stroke-linecap="butt" stroke-linejoin="miter" stroke="rgb(50.195312%, 50.195312%, 50.195312%)" stroke-opacity="1" stroke-miterlimit="4" d="M 24.621094 14.230469 L 22.738281 14.230469 "/>
<path fill="none" stroke-width="0.850394" stroke-linecap="butt" stroke-linejoin="miter" stroke="rgb(50.195312%, 50.195312%, 50.195312%)" stroke-opacity="1" stroke-miterlimit="4" d="M 24.621094 52.425781 L 22.738281 52.425781 "/>
<path fill="none" stroke-width="0.850394" stroke-linecap="butt" stroke-linejoin="miter" stroke="rgb(50.195312%, 50.195312%, 50.195312%)" stroke-opacity="1" stroke-miterlimit="4" d="M 24.53125 109.757812 L 22.648438 109.757812 "/>
<path fill="none" stroke-width="0.850394" stroke-linecap="butt" stroke-linejoin="miter" stroke="rgb(50.195312%, 50.195312%, 50.195312%)" stroke-opacity="1" stroke-miterlimit="4" d="M 24.621094 23.757812 L 23.335938 23.757812 "/>
<path fill="none" stroke-width="0.850394" stroke-linecap="butt" stroke-linejoin="miter" stroke="rgb(50.195312%, 50.195312%, 50.195312%)" stroke-opacity="1" stroke-miterlimit="4" d="M 24.621094 33.3125 L 23.335938 33.3125 "/>
<path fill="none" stroke-width="0.850394" stroke-linecap="butt" stroke-linejoin="miter" stroke="rgb(50.195312%, 50.195312%, 50.195312%)" stroke-opacity="1" stroke-miterlimit="4" d="M 24.621094 42.871094 L 23.335938 42.871094 "/>
<path fill="none" stroke-width="0.850394" stroke-linecap="butt" stroke-linejoin="miter" stroke="rgb(50.195312%, 50.195312%, 50.195312%)" stroke-opacity="1" stroke-miterlimit="4" d="M 24.621094 61.980469 L 23.335938 61.980469 "/>
<path fill="none" stroke-width="0.850394" stroke-linecap="butt" stroke-linejoin="miter" stroke="rgb(50.195312%, 50.195312%, 50.195312%)" stroke-opacity="1" stroke-miterlimit="4" d="M 24.621094 71.535156 L 23.335938 71.535156 "/>
<path fill="none" stroke-width="0.850394" stroke-linecap="butt" stroke-linejoin="miter" stroke="rgb(50.195312%, 50.195312%, 50.195312%)" stroke-opacity="1" stroke-miterlimit="4" d="M 24.621094 81.089844 L 23.335938 81.089844 "/>
<path fill="none" stroke-width="0.850394" stroke-linecap="butt" stroke-linejoin="miter" stroke="rgb(50.195312%, 50.195312%, 50.195312%)" stroke-opacity="1" stroke-miterlimit="4" d="M 24.621094 90.648438 L 23.335938 90.648438 "/>
<path fill="none" stroke-width="0.850394" stroke-linecap="butt" stroke-linejoin="miter" stroke="rgb(50.195312%, 50.195312%, 50.195312%)" stroke-opacity="1" stroke-miterlimit="4" d="M 24.621094 100.203125 L 23.335938 100.203125 "/>
<path fill="none" stroke-width="0.850394" stroke-linecap="butt" stroke-linejoin="round" stroke="rgb(1.176453%, 0%, 0%)" stroke-opacity="1" stroke-miterlimit="4" d="M 25.054688 14.230469 L 143.3125 14.230469 L 143.3125 109.816406 L 25.054688 109.816406 Z M 25.054688 14.230469 "/>
<path fill-rule="nonzero" fill="rgb(0%, 0%, 0%)" fill-opacity="1" d="M 68.605469 119.886719 L 69.445312 119.886719 L 69.445312 127.601562 L 68.605469 127.601562 Z M 68.605469 119.886719 "/>
<path fill-rule="nonzero" fill="rgb(0%, 0%, 0%)" fill-opacity="1" d="M 75.320312 127.601562 L 75.320312 124.558594 C 75.320312 123.371094 74.8125 122.441406 73.519531 122.441406 C 72.871094 122.441406 72.207031 122.6875 71.804688 123.246094 L 71.804688 122.566406 L 70.980469 122.566406 L 70.980469 127.601562 L 71.804688 127.601562 L 71.804688 124.75 C 71.839844 123.789062 72.433594 123.175781 73.328125 123.175781 C 74.199219 123.175781 74.515625 123.703125 74.515625 124.59375 L 74.515625 127.601562 Z M 75.320312 127.601562 "/>
<g clip-path="url(#clip-1)">
<path fill-rule="nonzero" fill="rgb(0%, 0%, 0%)" fill-opacity="1" d="M 81.410156 125.082031 C 81.410156 123.613281 80.433594 122.566406 78.945312 122.566406 L 76.792969 122.566406 L 76.792969 130.296875 L 77.632812 130.296875 L 77.632812 127.601562 L 78.875 127.601562 C 80.5 127.601562 81.410156 126.585938 81.410156 125.082031 Z M 80.605469 125.082031 C 80.605469 126.082031 79.976562 126.867188 78.875 126.867188 L 77.632812 126.867188 L 77.632812 123.300781 L 78.875 123.300781 C 79.960938 123.300781 80.605469 124.015625 80.605469 125.082031 Z M 80.605469 125.082031 "/>
</g>
<path fill-rule="nonzero" fill="rgb(0%, 0%, 0%)" fill-opacity="1" d="M 86.996094 127.601562 L 86.996094 122.566406 L 86.140625 122.566406 L 86.140625 125.414062 C 86.140625 126.359375 85.667969 127.007812 84.652344 127.007812 C 83.761719 127.007812 83.445312 126.449219 83.445312 125.589844 L 83.445312 122.566406 L 82.640625 122.566406 L 82.640625 125.609375 C 82.640625 126.796875 83.199219 127.742188 84.460938 127.742188 C 85.109375 127.742188 85.773438 127.375 86.140625 126.9375 L 86.140625 127.601562 Z M 86.996094 127.601562 "/>
<path fill-rule="nonzero" fill="rgb(0%, 0%, 0%)" fill-opacity="1" d="M 91.355469 127.601562 L 91.355469 126.886719 L 90.480469 126.886719 C 89.691406 126.886719 89.550781 126.691406 89.550781 125.957031 L 89.550781 123.230469 L 91.039062 123.230469 L 91.039062 122.566406 L 89.550781 122.566406 L 89.550781 121.128906 L 89.203125 121.128906 L 88.730469 122.566406 L 88.136719 122.566406 L 88.136719 123.230469 L 88.730469 123.230469 L 88.730469 125.957031 C 88.730469 127.21875 89.238281 127.601562 90.480469 127.601562 Z M 91.355469 127.601562 "/>
<path fill-rule="nonzero" fill="rgb(0%, 0%, 0%)" fill-opacity="1" d="M 93.46875 126.464844 L 92.457031 126.464844 L 92.457031 127.234375 C 92.527344 127.375 92.542969 127.515625 92.542969 127.65625 C 92.542969 128.058594 92.332031 128.476562 92.035156 128.667969 C 92.613281 128.652344 93.453125 127.792969 93.46875 127.253906 Z M 93.46875 126.464844 "/>
<path fill-rule="nonzero" fill="rgb(0%, 0%, 0%)" fill-opacity="1" d="M 101.175781 124.226562 C 101.246094 123.945312 101.507812 122.914062 102.277344 122.914062 C 102.332031 122.914062 102.609375 122.914062 102.835938 123.054688 C 102.523438 123.125 102.3125 123.386719 102.3125 123.667969 C 102.3125 123.839844 102.433594 124.050781 102.734375 124.050781 C 102.976562 124.050781 103.328125 123.859375 103.328125 123.402344 C 103.328125 122.828125 102.679688 122.667969 102.296875 122.667969 C 101.648438 122.667969 101.261719 123.265625 101.125 123.507812 C 100.84375 122.773438 100.25 122.667969 99.917969 122.667969 C 98.761719 122.667969 98.113281 124.105469 98.113281 124.382812 C 98.113281 124.507812 98.238281 124.507812 98.253906 124.507812 C 98.34375 124.507812 98.378906 124.472656 98.394531 124.382812 C 98.78125 123.195312 99.515625 122.914062 99.898438 122.914062 C 100.109375 122.914062 100.492188 123.019531 100.492188 123.667969 C 100.492188 124.015625 100.300781 124.75 99.898438 126.324219 C 99.722656 127.007812 99.320312 127.480469 98.832031 127.480469 C 98.761719 127.480469 98.515625 127.480469 98.273438 127.339844 C 98.550781 127.269531 98.796875 127.042969 98.796875 126.726562 C 98.796875 126.429688 98.550781 126.34375 98.394531 126.34375 C 98.042969 126.34375 97.78125 126.621094 97.78125 126.988281 C 97.78125 127.496094 98.324219 127.726562 98.8125 127.726562 C 99.566406 127.726562 99.96875 126.9375 99.988281 126.886719 C 100.125 127.289062 100.527344 127.726562 101.195312 127.726562 C 102.347656 127.726562 102.976562 126.289062 102.976562 126.011719 C 102.976562 125.886719 102.890625 125.886719 102.855469 125.886719 C 102.75 125.886719 102.734375 125.941406 102.699219 126.011719 C 102.332031 127.21875 101.578125 127.480469 101.226562 127.480469 C 100.792969 127.480469 100.617188 127.128906 100.617188 126.746094 C 100.617188 126.5 100.667969 126.253906 100.792969 125.765625 Z M 101.175781 124.226562 "/>
<path fill-rule="nonzero" fill="rgb(0%, 0%, 0%)" fill-opacity="1" d="M 4.023438 77.292969 C 1.90625 77.292969 0 78.273438 0 80.582031 C 0 82.839844 1.960938 83.835938 4.023438 83.835938 C 6.085938 83.835938 8.011719 82.820312 8.011719 80.582031 C 8.011719 78.289062 6.140625 77.292969 4.023438 77.292969 Z M 4.023438 78.113281 C 5.582031 78.113281 7.257812 78.796875 7.257812 80.582031 C 7.257812 82.332031 5.5625 83.011719 4.023438 83.011719 C 2.429688 83.011719 0.753906 82.367188 0.753906 80.582031 C 0.753906 78.761719 2.414062 78.113281 4.023438 78.113281 Z M 4.023438 78.113281 "/>
<path fill-rule="nonzero" fill="rgb(0%, 0%, 0%)" fill-opacity="1" d="M 7.855469 71.734375 L 2.816406 71.734375 L 2.816406 72.589844 L 5.667969 72.589844 C 6.613281 72.589844 7.257812 73.0625 7.257812 74.078125 C 7.257812 74.96875 6.699219 75.285156 5.84375 75.285156 L 2.816406 75.285156 L 2.816406 76.089844 L 5.859375 76.089844 C 7.050781 76.089844 7.996094 75.527344 7.996094 74.269531 C 7.996094 73.621094 7.625 72.957031 7.191406 72.589844 L 7.855469 72.589844 Z M 7.855469 71.734375 "/>
<path fill-rule="nonzero" fill="rgb(0%, 0%, 0%)" fill-opacity="1" d="M 7.855469 67.375 L 7.136719 67.375 L 7.136719 68.25 C 7.136719 69.035156 6.945312 69.175781 6.210938 69.175781 L 3.480469 69.175781 L 3.480469 67.691406 L 2.816406 67.691406 L 2.816406 69.175781 L 1.382812 69.175781 L 1.382812 69.527344 L 2.816406 70 L 2.816406 70.59375 L 3.480469 70.59375 L 3.480469 70 L 6.210938 70 C 7.46875 70 7.855469 69.492188 7.855469 68.25 Z M 7.855469 67.375 "/>
<path fill-rule="nonzero" fill="rgb(0%, 0%, 0%)" fill-opacity="1" d="M 5.335938 61.726562 C 3.867188 61.726562 2.816406 62.707031 2.816406 64.191406 L 2.816406 66.34375 L 10.546875 66.34375 L 10.546875 65.503906 L 7.855469 65.503906 L 7.855469 64.261719 C 7.855469 62.636719 6.839844 61.726562 5.335938 61.726562 Z M 5.335938 62.53125 C 6.332031 62.53125 7.121094 63.160156 7.121094 64.261719 L 7.121094 65.503906 L 3.550781 65.503906 L 3.550781 64.261719 C 3.550781 63.175781 4.269531 62.53125 5.335938 62.53125 Z M 5.335938 62.53125 "/>
<path fill-rule="nonzero" fill="rgb(0%, 0%, 0%)" fill-opacity="1" d="M 7.855469 56.140625 L 2.816406 56.140625 L 2.816406 56.996094 L 5.667969 56.996094 C 6.613281 56.996094 7.257812 57.46875 7.257812 58.484375 C 7.257812 59.375 6.699219 59.691406 5.84375 59.691406 L 2.816406 59.691406 L 2.816406 60.496094 L 5.859375 60.496094 C 7.050781 60.496094 7.996094 59.9375 7.996094 58.675781 C 7.996094 58.03125 7.625 57.363281 7.191406 56.996094 L 7.855469 56.996094 Z M 7.855469 56.140625 "/>
<path fill-rule="nonzero" fill="rgb(0%, 0%, 0%)" fill-opacity="1" d="M 7.855469 51.78125 L 7.136719 51.78125 L 7.136719 52.65625 C 7.136719 53.445312 6.945312 53.585938 6.210938 53.585938 L 3.480469 53.585938 L 3.480469 52.097656 L 2.816406 52.097656 L 2.816406 53.585938 L 1.382812 53.585938 L 1.382812 53.933594 L 2.816406 54.40625 L 2.816406 55 L 3.480469 55 L 3.480469 54.40625 L 6.210938 54.40625 C 7.46875 54.40625 7.855469 53.898438 7.855469 52.65625 Z M 7.855469 51.78125 "/>
<path fill-rule="nonzero" fill="rgb(0%, 0%, 0%)" fill-opacity="1" d="M 6.71875 49.667969 L 6.71875 50.679688 L 7.488281 50.679688 C 7.625 50.609375 7.765625 50.59375 7.90625 50.59375 C 8.308594 50.59375 8.730469 50.804688 8.921875 51.101562 C 8.902344 50.523438 8.046875 49.683594 7.503906 49.667969 Z M 6.71875 49.667969 "/>
<path fill-rule="nonzero" fill="rgb(0%, 0%, 0%)" fill-opacity="1" d="M 3.605469 40.265625 C 3.445312 40.210938 3.429688 40.210938 3.339844 40.210938 C 3.148438 40.210938 3.042969 40.367188 3.042969 40.542969 C 3.042969 40.648438 3.113281 40.824219 3.269531 40.929688 C 3.339844 40.945312 3.671875 41.050781 3.882812 41.085938 C 4.164062 41.171875 4.476562 41.242188 4.777344 41.3125 L 6.789062 41.820312 C 6.945312 41.855469 7.730469 42.34375 7.730469 43.082031 C 7.730469 43.640625 7.242188 43.761719 6.820312 43.761719 C 6.316406 43.761719 5.613281 43.570312 4.636719 43.203125 C 4.179688 43.027344 4.058594 42.976562 3.832031 42.976562 C 3.339844 42.976562 2.921875 43.324219 2.921875 43.886719 C 2.921875 44.953125 4.546875 45.355469 4.636719 45.355469 C 4.757812 45.355469 4.757812 45.25 4.757812 45.230469 C 4.757812 45.109375 4.722656 45.109375 4.546875 45.058594 C 3.5 44.742188 3.167969 44.304688 3.167969 43.921875 C 3.167969 43.832031 3.167969 43.640625 3.515625 43.640625 C 3.796875 43.640625 4.09375 43.761719 4.304688 43.832031 C 5.492188 44.289062 6.121094 44.480469 6.648438 44.480469 C 7.644531 44.480469 7.976562 43.78125 7.976562 43.117188 C 7.976562 42.679688 7.785156 42.3125 7.46875 41.996094 C 8.046875 42.136719 8.605469 42.277344 9.203125 42.714844 C 9.570312 43.011719 9.902344 43.429688 9.902344 43.9375 C 9.902344 44.09375 9.867188 44.601562 9.429688 44.792969 C 9.429688 44.621094 9.429688 44.460938 9.289062 44.324219 C 9.203125 44.199219 9.042969 44.09375 8.832031 44.09375 C 8.484375 44.09375 8.449219 44.390625 8.449219 44.496094 C 8.449219 44.757812 8.625 45.128906 9.167969 45.128906 C 9.726562 45.128906 10.144531 44.636719 10.144531 43.9375 C 10.144531 42.800781 9.132812 41.644531 7.871094 41.332031 Z M 3.605469 40.265625 "/>
<path fill="none" stroke-width="0.850394" stroke-linecap="butt" stroke-linejoin="miter" stroke="rgb(50.195312%, 50.195312%, 50.195312%)" stroke-opacity="1" stroke-miterlimit="4" d="M 155.953125 110.199219 L 155.953125 112.082031 "/>
<path fill="none" stroke-width="0.850394" stroke-linecap="butt" stroke-linejoin="miter" stroke="rgb(50.195312%, 50.195312%, 50.195312%)" stroke-opacity="1" stroke-miterlimit="4" d="M 215.066406 110.199219 L 215.066406 112.082031 "/>
<path fill="none" stroke-width="0.850394" stroke-linecap="butt" stroke-linejoin="miter" stroke="rgb(50.195312%, 50.195312%, 50.195312%)" stroke-opacity="1" stroke-miterlimit="4" d="M 274.183594 110.199219 L 274.183594 112.082031 "/>
<path fill="none" stroke-width="0.850394" stroke-linecap="butt" stroke-linejoin="miter" stroke="rgb(50.195312%, 50.195312%, 50.195312%)" stroke-opacity="1" stroke-miterlimit="4" d="M 167.773438 111.484375 L 167.773438 110.199219 "/>
<path fill="none" stroke-width="0.850394" stroke-linecap="butt" stroke-linejoin="miter" stroke="rgb(50.195312%, 50.195312%, 50.195312%)" stroke-opacity="1" stroke-miterlimit="4" d="M 179.597656 111.484375 L 179.597656 110.199219 "/>
<path fill="none" stroke-width="0.850394" stroke-linecap="butt" stroke-linejoin="miter" stroke="rgb(50.195312%, 50.195312%, 50.195312%)" stroke-opacity="1" stroke-miterlimit="4" d="M 191.421875 111.484375 L 191.421875 110.199219 "/>
<path fill="none" stroke-width="0.850394" stroke-linecap="butt" stroke-linejoin="miter" stroke="rgb(50.195312%, 50.195312%, 50.195312%)" stroke-opacity="1" stroke-miterlimit="4" d="M 203.242188 111.484375 L 203.242188 110.199219 "/>
<path fill="none" stroke-width="0.850394" stroke-linecap="butt" stroke-linejoin="miter" stroke="rgb(50.195312%, 50.195312%, 50.195312%)" stroke-opacity="1" stroke-miterlimit="4" d="M 226.890625 111.484375 L 226.890625 110.199219 "/>
<path fill="none" stroke-width="0.850394" stroke-linecap="butt" stroke-linejoin="miter" stroke="rgb(50.195312%, 50.195312%, 50.195312%)" stroke-opacity="1" stroke-miterlimit="4" d="M 238.714844 111.484375 L 238.714844 110.199219 "/>
<path fill="none" stroke-width="0.850394" stroke-linecap="butt" stroke-linejoin="miter" stroke="rgb(50.195312%, 50.195312%, 50.195312%)" stroke-opacity="1" stroke-miterlimit="4" d="M 250.535156 111.484375 L 250.535156 110.199219 "/>
<path fill="none" stroke-width="0.850394" stroke-linecap="butt" stroke-linejoin="miter" stroke="rgb(50.195312%, 50.195312%, 50.195312%)" stroke-opacity="1" stroke-miterlimit="4" d="M 262.359375 111.484375 L 262.359375 110.199219 "/>
<path fill="none" stroke-width="0.850394" stroke-linecap="butt" stroke-linejoin="miter" stroke="rgb(50.195312%, 50.195312%, 50.195312%)" stroke-opacity="1" stroke-miterlimit="4" d="M 155.5625 14.230469 L 153.679688 14.230469 "/>
<path fill="none" stroke-width="0.850394" stroke-linecap="butt" stroke-linejoin="miter" stroke="rgb(50.195312%, 50.195312%, 50.195312%)" stroke-opacity="1" stroke-miterlimit="4" d="M 155.761719 109.757812 L 153.878906 109.757812 "/>
<path fill="none" stroke-width="0.850394" stroke-linecap="butt" stroke-linejoin="miter" stroke="rgb(50.195312%, 50.195312%, 50.195312%)" stroke-opacity="1" stroke-miterlimit="4" d="M 285.679688 110.199219 L 285.679688 112.082031 "/>
<path fill="none" stroke-width="0.850394" stroke-linecap="butt" stroke-linejoin="miter" stroke="rgb(50.195312%, 50.195312%, 50.195312%)" stroke-opacity="1" stroke-miterlimit="4" d="M 344.796875 110.199219 L 344.796875 112.082031 "/>
<path fill="none" stroke-width="0.850394" stroke-linecap="butt" stroke-linejoin="miter" stroke="rgb(50.195312%, 50.195312%, 50.195312%)" stroke-opacity="1" stroke-miterlimit="4" d="M 403.910156 110.199219 L 403.910156 112.082031 "/>
<path fill="none" stroke-width="0.850394" stroke-linecap="butt" stroke-linejoin="miter" stroke="rgb(50.195312%, 50.195312%, 50.195312%)" stroke-opacity="1" stroke-miterlimit="4" d="M 297.503906 111.484375 L 297.503906 110.199219 "/>
<path fill="none" stroke-width="0.850394" stroke-linecap="butt" stroke-linejoin="miter" stroke="rgb(50.195312%, 50.195312%, 50.195312%)" stroke-opacity="1" stroke-miterlimit="4" d="M 309.328125 111.484375 L 309.328125 110.199219 "/>
<path fill="none" stroke-width="0.850394" stroke-linecap="butt" stroke-linejoin="miter" stroke="rgb(50.195312%, 50.195312%, 50.195312%)" stroke-opacity="1" stroke-miterlimit="4" d="M 321.148438 111.484375 L 321.148438 110.199219 "/>
<path fill="none" stroke-width="0.850394" stroke-linecap="butt" stroke-linejoin="miter" stroke="rgb(50.195312%, 50.195312%, 50.195312%)" stroke-opacity="1" stroke-miterlimit="4" d="M 332.972656 111.484375 L 332.972656 110.199219 "/>
<path fill="none" stroke-width="0.850394" stroke-linecap="butt" stroke-linejoin="miter" stroke="rgb(50.195312%, 50.195312%, 50.195312%)" stroke-opacity="1" stroke-miterlimit="4" d="M 356.617188 111.484375 L 356.617188 110.199219 "/>
<path fill="none" stroke-width="0.850394" stroke-linecap="butt" stroke-linejoin="miter" stroke="rgb(50.195312%, 50.195312%, 50.195312%)" stroke-opacity="1" stroke-miterlimit="4" d="M 368.441406 111.484375 L 368.441406 110.199219 "/>
<path fill="none" stroke-width="0.850394" stroke-linecap="butt" stroke-linejoin="miter" stroke="rgb(50.195312%, 50.195312%, 50.195312%)" stroke-opacity="1" stroke-miterlimit="4" d="M 380.265625 111.484375 L 380.265625 110.199219 "/>
<path fill="none" stroke-width="0.850394" stroke-linecap="butt" stroke-linejoin="miter" stroke="rgb(50.195312%, 50.195312%, 50.195312%)" stroke-opacity="1" stroke-miterlimit="4" d="M 392.089844 111.484375 L 392.089844 110.199219 "/>
<path fill="none" stroke-width="0.850394" stroke-linecap="butt" stroke-linejoin="miter" stroke="rgb(50.195312%, 50.195312%, 50.195312%)" stroke-opacity="1" stroke-miterlimit="4" d="M 285.300781 109.757812 L 283.417969 109.757812 "/>
<path fill="none" stroke-width="0.850394" stroke-linecap="butt" stroke-linejoin="round" stroke="rgb(1.176453%, 0%, 0%)" stroke-opacity="1" stroke-miterlimit="4" d="M 285.695312 14.230469 L 403.953125 14.230469 L 403.953125 109.816406 L 285.695312 109.816406 Z M 285.695312 14.230469 "/>
<path fill-rule="nonzero" fill="rgb(0%, 0%, 0%)" fill-opacity="1" d="M 197.707031 119.886719 L 198.546875 119.886719 L 198.546875 127.601562 L 197.707031 127.601562 Z M 197.707031 119.886719 "/>
<path fill-rule="nonzero" fill="rgb(0%, 0%, 0%)" fill-opacity="1" d="M 204.421875 127.601562 L 204.421875 124.558594 C 204.421875 123.371094 203.914062 122.441406 202.617188 122.441406 C 201.972656 122.441406 201.308594 122.6875 200.90625 123.246094 L 200.90625 122.566406 L 200.082031 122.566406 L 200.082031 127.601562 L 200.90625 127.601562 L 200.90625 124.75 C 200.941406 123.789062 201.535156 123.175781 202.425781 123.175781 C 203.300781 123.175781 203.617188 123.703125 203.617188 124.59375 L 203.617188 127.601562 Z M 204.421875 127.601562 "/>
<g clip-path="url(#clip-2)">
<path fill-rule="nonzero" fill="rgb(0%, 0%, 0%)" fill-opacity="1" d="M 210.511719 125.082031 C 210.511719 123.613281 209.53125 122.566406 208.046875 122.566406 L 205.894531 122.566406 L 205.894531 130.296875 L 206.734375 130.296875 L 206.734375 127.601562 L 207.976562 127.601562 C 209.601562 127.601562 210.511719 126.585938 210.511719 125.082031 Z M 209.707031 125.082031 C 209.707031 126.082031 209.078125 126.867188 207.976562 126.867188 L 206.734375 126.867188 L 206.734375 123.300781 L 207.976562 123.300781 C 209.058594 123.300781 209.707031 124.015625 209.707031 125.082031 Z M 209.707031 125.082031 "/>
</g>
<path fill-rule="nonzero" fill="rgb(0%, 0%, 0%)" fill-opacity="1" d="M 216.097656 127.601562 L 216.097656 122.566406 L 215.238281 122.566406 L 215.238281 125.414062 C 215.238281 126.359375 214.765625 127.007812 213.753906 127.007812 C 212.859375 127.007812 212.546875 126.449219 212.546875 125.589844 L 212.546875 122.566406 L 211.742188 122.566406 L 211.742188 125.609375 C 211.742188 126.796875 212.300781 127.742188 213.558594 127.742188 C 214.207031 127.742188 214.871094 127.375 215.238281 126.9375 L 215.238281 127.601562 Z M 216.097656 127.601562 "/>
<path fill-rule="nonzero" fill="rgb(0%, 0%, 0%)" fill-opacity="1" d="M 220.453125 127.601562 L 220.453125 126.886719 L 219.578125 126.886719 C 218.792969 126.886719 218.652344 126.691406 218.652344 125.957031 L 218.652344 123.230469 L 220.140625 123.230469 L 220.140625 122.566406 L 218.652344 122.566406 L 218.652344 121.128906 L 218.304688 121.128906 L 217.832031 122.566406 L 217.234375 122.566406 L 217.234375 123.230469 L 217.832031 123.230469 L 217.832031 125.957031 C 217.832031 127.21875 218.335938 127.601562 219.578125 127.601562 Z M 220.453125 127.601562 "/>
<path fill-rule="nonzero" fill="rgb(0%, 0%, 0%)" fill-opacity="1" d="M 222.570312 126.464844 L 221.554688 126.464844 L 221.554688 127.234375 C 221.625 127.375 221.644531 127.515625 221.644531 127.65625 C 221.644531 128.058594 221.433594 128.476562 221.136719 128.667969 C 221.714844 128.652344 222.554688 127.792969 222.570312 127.253906 Z M 222.570312 126.464844 "/>
<path fill-rule="nonzero" fill="rgb(0%, 0%, 0%)" fill-opacity="1" d="M 230.277344 124.226562 C 230.347656 123.945312 230.609375 122.914062 231.378906 122.914062 C 231.429688 122.914062 231.710938 122.914062 231.9375 123.054688 C 231.621094 123.125 231.414062 123.386719 231.414062 123.667969 C 231.414062 123.839844 231.535156 124.050781 231.832031 124.050781 C 232.078125 124.050781 232.425781 123.859375 232.425781 123.402344 C 232.425781 122.828125 231.78125 122.667969 231.394531 122.667969 C 230.75 122.667969 230.363281 123.265625 230.222656 123.507812 C 229.945312 122.773438 229.347656 122.667969 229.015625 122.667969 C 227.863281 122.667969 227.214844 124.105469 227.214844 124.382812 C 227.214844 124.507812 227.335938 124.507812 227.355469 124.507812 C 227.441406 124.507812 227.476562 124.472656 227.496094 124.382812 C 227.878906 123.195312 228.613281 122.914062 229 122.914062 C 229.207031 122.914062 229.59375 123.019531 229.59375 123.667969 C 229.59375 124.015625 229.402344 124.75 229 126.324219 C 228.824219 127.007812 228.421875 127.480469 227.933594 127.480469 C 227.863281 127.480469 227.617188 127.480469 227.371094 127.339844 C 227.652344 127.269531 227.898438 127.042969 227.898438 126.726562 C 227.898438 126.429688 227.652344 126.34375 227.496094 126.34375 C 227.144531 126.34375 226.882812 126.621094 226.882812 126.988281 C 226.882812 127.496094 227.425781 127.726562 227.914062 127.726562 C 228.667969 127.726562 229.070312 126.9375 229.085938 126.886719 C 229.226562 127.289062 229.628906 127.726562 230.292969 127.726562 C 231.449219 127.726562 232.078125 126.289062 232.078125 126.011719 C 232.078125 125.886719 231.992188 125.886719 231.957031 125.886719 C 231.851562 125.886719 231.832031 125.941406 231.796875 126.011719 C 231.429688 127.21875 230.679688 127.480469 230.328125 127.480469 C 229.890625 127.480469 229.714844 127.128906 229.714844 126.746094 C 229.714844 126.5 229.769531 126.253906 229.890625 125.765625 Z M 230.277344 124.226562 "/>
<path fill-rule="nonzero" fill="rgb(0%, 0%, 0%)" fill-opacity="1" d="M 327.433594 119.886719 L 328.273438 119.886719 L 328.273438 127.601562 L 327.433594 127.601562 Z M 327.433594 119.886719 "/>
<path fill-rule="nonzero" fill="rgb(0%, 0%, 0%)" fill-opacity="1" d="M 334.148438 127.601562 L 334.148438 124.558594 C 334.148438 123.371094 333.640625 122.441406 332.347656 122.441406 C 331.699219 122.441406 331.035156 122.6875 330.632812 123.246094 L 330.632812 122.566406 L 329.8125 122.566406 L 329.8125 127.601562 L 330.632812 127.601562 L 330.632812 124.75 C 330.667969 123.789062 331.261719 123.175781 332.15625 123.175781 C 333.03125 123.175781 333.34375 123.703125 333.34375 124.59375 L 333.34375 127.601562 Z M 334.148438 127.601562 "/>
<g clip-path="url(#clip-3)">
<path fill-rule="nonzero" fill="rgb(0%, 0%, 0%)" fill-opacity="1" d="M 340.238281 125.082031 C 340.238281 123.613281 339.261719 122.566406 337.773438 122.566406 L 335.621094 122.566406 L 335.621094 130.296875 L 336.460938 130.296875 L 336.460938 127.601562 L 337.703125 127.601562 C 339.332031 127.601562 340.238281 126.585938 340.238281 125.082031 Z M 339.433594 125.082031 C 339.433594 126.082031 338.804688 126.867188 337.703125 126.867188 L 336.460938 126.867188 L 336.460938 123.300781 L 337.703125 123.300781 C 338.789062 123.300781 339.433594 124.015625 339.433594 125.082031 Z M 339.433594 125.082031 "/>
</g>
<path fill-rule="nonzero" fill="rgb(0%, 0%, 0%)" fill-opacity="1" d="M 345.824219 127.601562 L 345.824219 122.566406 L 344.96875 122.566406 L 344.96875 125.414062 C 344.96875 126.359375 344.496094 127.007812 343.480469 127.007812 C 342.589844 127.007812 342.273438 126.449219 342.273438 125.589844 L 342.273438 122.566406 L 341.46875 122.566406 L 341.46875 125.609375 C 341.46875 126.796875 342.027344 127.742188 343.289062 127.742188 C 343.9375 127.742188 344.601562 127.375 344.96875 126.9375 L 344.96875 127.601562 Z M 345.824219 127.601562 "/>
<path fill-rule="nonzero" fill="rgb(0%, 0%, 0%)" fill-opacity="1" d="M 350.183594 127.601562 L 350.183594 126.886719 L 349.308594 126.886719 C 348.519531 126.886719 348.382812 126.691406 348.382812 125.957031 L 348.382812 123.230469 L 349.867188 123.230469 L 349.867188 122.566406 L 348.382812 122.566406 L 348.382812 121.128906 L 348.03125 121.128906 L 347.558594 122.566406 L 346.964844 122.566406 L 346.964844 123.230469 L 347.558594 123.230469 L 347.558594 125.957031 C 347.558594 127.21875 348.066406 127.601562 349.308594 127.601562 Z M 350.183594 127.601562 "/>
<path fill-rule="nonzero" fill="rgb(0%, 0%, 0%)" fill-opacity="1" d="M 352.300781 126.464844 L 351.285156 126.464844 L 351.285156 127.234375 C 351.355469 127.375 351.371094 127.515625 351.371094 127.65625 C 351.371094 128.058594 351.160156 128.476562 350.863281 128.667969 C 351.441406 128.652344 352.28125 127.792969 352.300781 127.253906 Z M 352.300781 126.464844 "/>
<path fill-rule="nonzero" fill="rgb(0%, 0%, 0%)" fill-opacity="1" d="M 360.003906 124.226562 C 360.074219 123.945312 360.335938 122.914062 361.105469 122.914062 C 361.160156 122.914062 361.4375 122.914062 361.667969 123.054688 C 361.351562 123.125 361.140625 123.386719 361.140625 123.667969 C 361.140625 123.839844 361.265625 124.050781 361.5625 124.050781 C 361.804688 124.050781 362.15625 123.859375 362.15625 123.402344 C 362.15625 122.828125 361.507812 122.667969 361.125 122.667969 C 360.476562 122.667969 360.09375 123.265625 359.953125 123.507812 C 359.671875 122.773438 359.078125 122.667969 358.746094 122.667969 C 357.589844 122.667969 356.941406 124.105469 356.941406 124.382812 C 356.941406 124.507812 357.066406 124.507812 357.082031 124.507812 C 357.171875 124.507812 357.207031 124.472656 357.222656 124.382812 C 357.609375 123.195312 358.34375 122.914062 358.726562 122.914062 C 358.9375 122.914062 359.320312 123.019531 359.320312 123.667969 C 359.320312 124.015625 359.128906 124.75 358.726562 126.324219 C 358.550781 127.007812 358.148438 127.480469 357.660156 127.480469 C 357.589844 127.480469 357.34375 127.480469 357.101562 127.339844 C 357.378906 127.269531 357.625 127.042969 357.625 126.726562 C 357.625 126.429688 357.378906 126.34375 357.222656 126.34375 C 356.875 126.34375 356.609375 126.621094 356.609375 126.988281 C 356.609375 127.496094 357.152344 127.726562 357.644531 127.726562 C 358.394531 127.726562 358.796875 126.9375 358.816406 126.886719 C 358.953125 127.289062 359.355469 127.726562 360.023438 127.726562 C 361.175781 127.726562 361.804688 126.289062 361.804688 126.011719 C 361.804688 125.886719 361.71875 125.886719 361.683594 125.886719 C 361.578125 125.886719 361.5625 125.941406 361.527344 126.011719 C 361.160156 127.21875 360.40625 127.480469 360.058594 127.480469 C 359.621094 127.480469 359.445312 127.128906 359.445312 126.746094 C 359.445312 126.5 359.496094 126.253906 359.621094 125.765625 Z M 360.003906 124.226562 "/>
<path fill="none" stroke-width="0.751181" stroke-linecap="butt" stroke-linejoin="miter" stroke="rgb(77.645874%, 80.39093%, 81.175232%)" stroke-opacity="1" stroke-dasharray="0.751181 0.751181" stroke-miterlimit="4" d="M 155.957031 62.023438 L 273.800781 62.023438 "/>
<path fill="none" stroke-width="0.751181" stroke-linecap="butt" stroke-linejoin="miter" stroke="rgb(77.645874%, 80.39093%, 81.175232%)" stroke-opacity="1" stroke-dasharray="0.751181 0.751181" stroke-miterlimit="4" d="M 285.699219 62.023438 L 403.539062 62.023438 "/>
<path fill="none" stroke-width="0.751181" stroke-linecap="butt" stroke-linejoin="miter" stroke="rgb(77.645874%, 80.39093%, 81.175232%)" stroke-opacity="1" stroke-dasharray="0.751181 0.751181" stroke-miterlimit="4" d="M 25.078125 62.023438 L 142.921875 62.023438 "/>
<path fill="none" stroke-width="0.850394" stroke-linecap="butt" stroke-linejoin="miter" stroke="rgb(0%, 0%, 0%)" stroke-opacity="1" stroke-dasharray="2.551181 0.850394" stroke-miterlimit="4" d="M 156.15625 34.359375 C 175.453125 10.335938 178.066406 54.964844 189.554688 66.320312 C 201.039062 77.675781 198.132812 102.957031 209.710938 101.558594 C 222.59375 100.007812 217.226562 78.410156 231.042969 68.875 C 244.5625 59.542969 244.703125 24.765625 257.808594 19.476562 C 266.613281 17.714844 273.1875 24.941406 274.292969 27.238281 "/>
<path fill="none" stroke-width="0.850394" stroke-linecap="butt" stroke-linejoin="miter" stroke="rgb(0%, 0%, 0%)" stroke-opacity="1" stroke-dasharray="2.551181 0.850394" stroke-miterlimit="4" d="M 285.519531 34.359375 C 304.8125 10.335938 307.429688 54.964844 318.917969 66.320312 C 330.402344 77.675781 327.496094 102.957031 339.074219 101.558594 C 351.957031 100.007812 346.589844 78.410156 360.402344 68.875 C 373.925781 59.542969 374.066406 24.765625 387.171875 19.476562 C 395.976562 17.714844 402.929688 25.367188 404.035156 27.664062 "/>
<path fill="none" stroke-width="0.850394" stroke-linecap="butt" stroke-linejoin="miter" stroke="rgb(50.195312%, 50.195312%, 50.195312%)" stroke-opacity="1" stroke-miterlimit="4" d="M 155.5625 52.425781 L 153.679688 52.425781 "/>
<path fill="none" stroke-width="0.850394" stroke-linecap="butt" stroke-linejoin="miter" stroke="rgb(50.195312%, 50.195312%, 50.195312%)" stroke-opacity="1" stroke-miterlimit="4" d="M 155.5625 23.757812 L 154.28125 23.757812 "/>
<path fill="none" stroke-width="0.850394" stroke-linecap="butt" stroke-linejoin="miter" stroke="rgb(50.195312%, 50.195312%, 50.195312%)" stroke-opacity="1" stroke-miterlimit="4" d="M 155.5625 33.3125 L 154.28125 33.3125 "/>
<path fill="none" stroke-width="0.850394" stroke-linecap="butt" stroke-linejoin="miter" stroke="rgb(50.195312%, 50.195312%, 50.195312%)" stroke-opacity="1" stroke-miterlimit="4" d="M 155.5625 42.871094 L 154.28125 42.871094 "/>
<path fill="none" stroke-width="0.850394" stroke-linecap="butt" stroke-linejoin="miter" stroke="rgb(50.195312%, 50.195312%, 50.195312%)" stroke-opacity="1" stroke-miterlimit="4" d="M 155.5625 61.980469 L 154.28125 61.980469 "/>
<path fill="none" stroke-width="0.850394" stroke-linecap="butt" stroke-linejoin="miter" stroke="rgb(50.195312%, 50.195312%, 50.195312%)" stroke-opacity="1" stroke-miterlimit="4" d="M 155.5625 71.535156 L 154.28125 71.535156 "/>
<path fill="none" stroke-width="0.850394" stroke-linecap="butt" stroke-linejoin="miter" stroke="rgb(50.195312%, 50.195312%, 50.195312%)" stroke-opacity="1" stroke-miterlimit="4" d="M 155.5625 81.089844 L 154.28125 81.089844 "/>
<path fill="none" stroke-width="0.850394" stroke-linecap="butt" stroke-linejoin="miter" stroke="rgb(50.195312%, 50.195312%, 50.195312%)" stroke-opacity="1" stroke-miterlimit="4" d="M 155.5625 90.648438 L 154.28125 90.648438 "/>
<path fill="none" stroke-width="0.850394" stroke-linecap="butt" stroke-linejoin="miter" stroke="rgb(50.195312%, 50.195312%, 50.195312%)" stroke-opacity="1" stroke-miterlimit="4" d="M 155.5625 100.203125 L 154.28125 100.203125 "/>
<path fill="none" stroke-width="0.850394" stroke-linecap="butt" stroke-linejoin="round" stroke="rgb(1.176453%, 0%, 0%)" stroke-opacity="1" stroke-miterlimit="4" d="M 155.9375 14.230469 L 274.195312 14.230469 L 274.195312 109.816406 L 155.9375 109.816406 Z M 155.9375 14.230469 "/>
<path fill-rule="nonzero" fill="rgb(25.881958%, 29.411316%, 30.979919%)" fill-opacity="1" d="M 31.960938 21.007812 C 31.945312 19.578125 31.054688 18.636719 29.625 18.636719 C 29.433594 18.652344 29.003906 18.699219 28.75 18.796875 L 29.003906 16.953125 L 31.484375 16.953125 L 31.484375 16.21875 L 28.496094 16.21875 L 28.066406 19.6875 C 28.621094 19.417969 28.75 19.351562 29.464844 19.351562 C 30.5 19.355469 31.230469 19.925781 31.230469 21.007812 C 31.230469 22.121094 30.511719 22.664062 29.464844 22.660156 C 28.761719 22.660156 28.300781 22.519531 27.792969 22.199219 L 27.792969 23.074219 C 28.253906 23.25 28.9375 23.378906 29.480469 23.378906 C 30.988281 23.378906 31.960938 22.550781 31.960938 21.007812 Z M 31.960938 21.007812 "/>
<path fill-rule="nonzero" fill="rgb(25.881958%, 29.411316%, 30.979919%)" fill-opacity="1" d="M 36.792969 16.222656 L 36.042969 16.222656 L 36.042969 23.238281 L 36.789062 23.238281 Z M 36.792969 16.222656 "/>
<path fill-rule="nonzero" fill="rgb(25.881958%, 29.411316%, 30.979919%)" fill-opacity="1" d="M 38.945312 23.238281 L 38.945312 18.65625 L 38.183594 18.65625 L 38.183594 23.238281 Z M 38.566406 16.222656 C 38.328125 16.222656 38.121094 16.445312 38.121094 16.683594 C 38.121094 16.9375 38.328125 17.160156 38.566406 17.160156 C 38.820312 17.160156 39.011719 16.9375 39.011719 16.683594 C 39.011719 16.445312 38.820312 16.222656 38.566406 16.222656 Z M 38.566406 16.222656 "/>
<path fill-rule="nonzero" fill="rgb(25.881958%, 29.411316%, 30.979919%)" fill-opacity="1" d="M 44.289062 23.238281 L 44.289062 20.472656 C 44.289062 19.390625 43.828125 18.546875 42.652344 18.546875 C 42.0625 18.546875 41.457031 18.769531 41.089844 19.277344 L 41.089844 18.65625 L 40.34375 18.65625 L 40.34375 23.238281 L 41.089844 23.238281 L 41.089844 20.644531 C 41.121094 19.769531 41.664062 19.214844 42.476562 19.214844 C 43.269531 19.214844 43.558594 19.691406 43.554688 20.503906 L 43.554688 23.238281 Z M 44.289062 23.238281 "/>
<path fill-rule="nonzero" fill="rgb(25.881958%, 29.411316%, 30.979919%)" fill-opacity="1" d="M 49.554688 20.949219 L 49.554688 20.871094 C 49.554688 19.550781 49.015625 18.582031 47.503906 18.546875 C 46.152344 18.546875 45.390625 19.722656 45.386719 20.996094 C 45.386719 22.378906 46.230469 23.367188 47.628906 23.367188 C 48.265625 23.367188 48.839844 23.226562 49.394531 23.019531 L 49.398438 22.253906 C 48.664062 22.605469 48.554688 22.683594 47.695312 22.683594 C 46.738281 22.683594 46.167969 22.109375 46.167969 21.027344 L 46.167969 20.949219 Z M 48.808594 20.328125 L 46.199219 20.328125 C 46.296875 19.722656 46.742188 19.199219 47.503906 19.199219 C 48.300781 19.199219 48.808594 19.695312 48.808594 20.328125 Z M 48.808594 20.328125 "/>
<path fill-rule="nonzero" fill="rgb(25.881958%, 29.411316%, 30.979919%)" fill-opacity="1" d="M 54.171875 23.242188 L 54.171875 20.632812 C 54.171875 19.3125 53.617188 18.550781 52.25 18.550781 C 51.757812 18.550781 51.152344 18.707031 50.707031 18.867188 L 50.707031 19.613281 C 51.167969 19.359375 51.550781 19.203125 52.183594 19.203125 C 52.917969 19.21875 53.472656 19.582031 53.472656 20.347656 L 52.421875 20.347656 C 51.34375 20.347656 50.386719 20.710938 50.386719 21.90625 C 50.417969 22.828125 50.960938 23.367188 51.882812 23.367188 C 52.535156 23.371094 53.121094 23.097656 53.472656 22.636719 L 53.472656 23.242188 Z M 53.472656 21.109375 C 53.472656 22 53.058594 22.71875 52.105469 22.71875 C 51.546875 22.714844 51.085938 22.460938 51.085938 21.859375 C 51.085938 20.96875 51.929688 20.96875 52.726562 20.96875 L 53.472656 20.96875 Z M 53.472656 21.109375 "/>
<path fill-rule="nonzero" fill="rgb(25.881958%, 29.411316%, 30.979919%)" fill-opacity="1" d="M 58.0625 19.585938 L 58.300781 18.855469 C 58.1875 18.726562 57.695312 18.597656 57.363281 18.597656 C 56.882812 18.613281 56.488281 18.851562 56.28125 19.28125 L 56.28125 18.660156 L 55.515625 18.660156 L 55.515625 23.242188 L 56.277344 23.242188 L 56.277344 20.824219 C 56.277344 20.808594 56.28125 20.792969 56.28125 20.792969 C 56.28125 20.125 56.628906 19.25 57.34375 19.25 L 57.394531 19.25 C 57.632812 19.25 57.824219 19.394531 58.0625 19.585938 Z M 58.0625 19.585938 "/>
<path fill-rule="nonzero" fill="rgb(25.881958%, 29.411316%, 30.979919%)" fill-opacity="1" d="M 64.855469 19.585938 L 65.09375 18.855469 C 64.984375 18.726562 64.492188 18.601562 64.15625 18.601562 C 63.679688 18.617188 63.28125 18.855469 63.074219 19.285156 L 63.074219 18.664062 L 62.3125 18.664062 L 62.308594 23.246094 L 63.074219 23.246094 L 63.074219 20.828125 C 63.074219 20.8125 63.074219 20.796875 63.074219 20.796875 C 63.074219 20.128906 63.425781 19.253906 64.140625 19.253906 L 64.1875 19.253906 C 64.425781 19.253906 64.617188 19.394531 64.855469 19.585938 Z M 64.855469 19.585938 "/>
<path fill-rule="nonzero" fill="rgb(25.881958%, 29.411316%, 30.979919%)" fill-opacity="1" d="M 69.546875 20.957031 L 69.546875 20.878906 C 69.546875 19.558594 69.007812 18.585938 67.496094 18.554688 C 66.144531 18.554688 65.378906 19.730469 65.378906 21.003906 C 65.378906 22.386719 66.222656 23.375 67.621094 23.375 C 68.257812 23.375 68.828125 23.230469 69.386719 23.023438 L 69.386719 22.261719 C 68.65625 22.609375 68.542969 22.691406 67.683594 22.691406 C 66.730469 22.691406 66.15625 22.117188 66.15625 21.035156 L 66.15625 20.957031 Z M 68.796875 20.335938 L 66.191406 20.335938 C 66.285156 19.730469 66.730469 19.207031 67.496094 19.207031 C 68.289062 19.207031 68.800781 19.699219 68.796875 20.335938 Z M 68.796875 20.335938 "/>
<path fill-rule="nonzero" fill="rgb(25.881958%, 29.411316%, 30.979919%)" fill-opacity="1" d="M 72.03125 23.136719 C 72.890625 23.136719 73.476562 23.550781 73.476562 24.109375 C 73.476562 24.664062 72.890625 25.0625 72.03125 25.0625 C 71.171875 25.0625 70.695312 24.664062 70.695312 24.105469 C 70.695312 23.550781 71.171875 23.136719 72.03125 23.136719 Z M 72.03125 22.484375 C 71.953125 22.484375 71.871094 22.484375 71.777344 22.5 C 71.300781 22.5 70.886719 22.214844 70.886719 22.023438 C 70.886719 21.800781 71.140625 21.722656 71.332031 21.722656 L 71.394531 21.722656 C 71.554688 21.863281 72.03125 21.910156 72.175781 21.914062 C 73.050781 21.914062 73.75 21.164062 73.75 20.242188 C 73.75 19.875 73.621094 19.527344 73.414062 19.257812 L 74.164062 19.257812 L 74.164062 18.683594 L 72.875 18.683594 C 72.667969 18.621094 72.382812 18.585938 72.222656 18.585938 C 71.347656 18.585938 70.617188 19.335938 70.585938 20.242188 C 70.585938 20.6875 70.742188 21.085938 71.03125 21.371094 C 70.695312 21.433594 70.328125 21.65625 70.328125 22.085938 C 70.328125 22.355469 70.503906 22.613281 70.871094 22.769531 C 70.28125 23.074219 69.929688 23.566406 69.929688 24.089844 C 69.929688 24.917969 70.773438 25.679688 72.03125 25.683594 C 73.300781 25.683594 74.335938 24.917969 74.335938 24.109375 C 74.335938 23.042969 73.097656 22.484375 72.03125 22.484375 Z M 72.175781 19.222656 C 72.714844 19.222656 73.160156 19.667969 73.160156 20.226562 C 73.160156 20.765625 72.714844 21.210938 72.175781 21.210938 C 71.617188 21.210938 71.1875 20.765625 71.1875 20.226562 C 71.1875 19.667969 71.617188 19.222656 72.175781 19.222656 Z M 72.175781 19.222656 "/>
<path fill-rule="nonzero" fill="rgb(25.881958%, 29.411316%, 30.979919%)" fill-opacity="1" d="M 76.117188 23.25 L 76.117188 18.667969 L 75.355469 18.667969 L 75.351562 23.25 Z M 75.738281 16.234375 C 75.5 16.234375 75.292969 16.457031 75.292969 16.695312 C 75.292969 16.949219 75.496094 17.171875 75.738281 17.171875 C 75.992188 17.171875 76.183594 16.949219 76.183594 16.695312 C 76.183594 16.457031 75.992188 16.234375 75.738281 16.234375 Z M 75.738281 16.234375 "/>
<path fill-rule="nonzero" fill="rgb(25.881958%, 29.411316%, 30.979919%)" fill-opacity="1" d="M 81.585938 20.960938 C 81.585938 19.800781 80.964844 18.558594 79.4375 18.558594 C 78.054688 18.558594 77.277344 19.625 77.273438 20.960938 C 77.273438 22.214844 78.085938 23.34375 79.4375 23.378906 C 80.804688 23.347656 81.585938 22.25 81.585938 20.960938 Z M 80.839844 20.960938 C 80.839844 21.867188 80.28125 22.679688 79.4375 22.679688 C 78.292969 22.660156 78.039062 21.644531 78.039062 20.945312 C 78.039062 20.019531 78.484375 19.257812 79.4375 19.242188 C 80.328125 19.257812 80.839844 20.085938 80.839844 20.960938 Z M 80.839844 20.960938 "/>
<path fill-rule="nonzero" fill="rgb(25.881958%, 29.411316%, 30.979919%)" fill-opacity="1" d="M 86.722656 23.253906 L 86.722656 20.484375 C 86.722656 19.402344 86.261719 18.558594 85.085938 18.558594 C 84.496094 18.558594 83.890625 18.78125 83.527344 19.292969 L 83.527344 18.671875 L 82.777344 18.671875 L 82.777344 23.25 L 83.523438 23.25 L 83.523438 20.660156 C 83.558594 19.785156 84.097656 19.226562 84.910156 19.226562 C 85.703125 19.226562 85.992188 19.707031 85.992188 20.515625 L 85.988281 23.253906 Z M 86.722656 23.253906 "/>
<path fill-rule="nonzero" fill="rgb(25.881958%, 29.411316%, 30.979919%)" fill-opacity="1" d="M 91.417969 21.980469 C 91.417969 21.074219 90.796875 20.789062 89.96875 20.628906 L 89.652344 20.566406 C 89.207031 20.46875 88.554688 20.375 88.554688 19.882812 C 88.585938 19.308594 89.253906 19.199219 89.765625 19.199219 C 90.574219 19.230469 90.511719 19.277344 91.195312 19.5625 L 91.195312 18.816406 C 90.765625 18.640625 90.226562 18.5625 89.667969 18.5625 C 88.761719 18.5625 87.871094 18.894531 87.871094 19.914062 C 87.886719 20.738281 88.445312 21.058594 89.207031 21.203125 L 89.492188 21.265625 C 90.050781 21.394531 90.6875 21.457031 90.6875 22.046875 C 90.652344 22.617188 90 22.730469 89.492188 22.730469 C 88.648438 22.710938 88.523438 22.617188 87.789062 22.265625 L 87.789062 23.09375 C 88.21875 23.207031 88.96875 23.382812 89.476562 23.382812 C 90.367188 23.382812 91.417969 23.046875 91.417969 21.980469 Z M 91.417969 21.980469 "/>
<path fill-rule="nonzero" fill="rgb(81.959534%, 51.371765%, 38.430786%)" fill-opacity="1" d="M 161.753906 22.761719 L 161.753906 15.746094 L 160.914062 15.746094 L 159.910156 16.558594 L 159.910156 17.351562 L 160.960938 16.492188 L 160.957031 22.761719 Z M 161.753906 22.761719 "/>
<path fill-rule="nonzero" fill="rgb(81.959534%, 51.371765%, 38.430786%)" fill-opacity="1" d="M 167.636719 19.28125 C 167.621094 17.785156 167.289062 15.621094 165.394531 15.621094 C 163.503906 15.621094 163.183594 17.816406 163.183594 19.277344 C 163.183594 20.757812 163.515625 22.90625 165.394531 22.90625 C 167.269531 22.90625 167.636719 20.757812 167.636719 19.28125 Z M 166.90625 19.277344 C 166.90625 20.25 166.824219 22.238281 165.394531 22.238281 C 163.960938 22.238281 163.914062 20.214844 163.914062 19.277344 C 163.914062 18.324219 163.949219 16.273438 165.394531 16.273438 C 166.828125 16.273438 166.90625 18.339844 166.90625 19.277344 Z M 166.90625 19.277344 "/>
<path fill-rule="nonzero" fill="rgb(81.959534%, 51.371765%, 38.430786%)" fill-opacity="1" d="M 172.617188 15.75 L 171.871094 15.75 L 171.867188 22.765625 L 172.617188 22.765625 Z M 172.617188 15.75 "/>
<path fill-rule="nonzero" fill="rgb(81.959534%, 51.371765%, 38.430786%)" fill-opacity="1" d="M 174.769531 22.765625 L 174.773438 18.183594 L 174.007812 18.183594 L 174.007812 22.765625 Z M 174.390625 15.75 C 174.152344 15.75 173.945312 15.972656 173.945312 16.210938 C 173.945312 16.464844 174.152344 16.6875 174.390625 16.6875 C 174.644531 16.6875 174.835938 16.464844 174.835938 16.210938 C 174.835938 15.972656 174.644531 15.75 174.390625 15.75 Z M 174.390625 15.75 "/>
<path fill-rule="nonzero" fill="rgb(81.959534%, 51.371765%, 38.430786%)" fill-opacity="1" d="M 180.113281 22.765625 L 180.113281 20 C 180.113281 18.917969 179.652344 18.074219 178.476562 18.074219 C 177.886719 18.074219 177.28125 18.296875 176.917969 18.804688 L 176.917969 18.183594 L 176.167969 18.183594 L 176.167969 22.765625 L 176.914062 22.765625 L 176.917969 20.171875 C 176.949219 19.296875 177.488281 18.742188 178.300781 18.742188 C 179.097656 18.742188 179.382812 19.21875 179.382812 20.03125 L 179.382812 22.765625 Z M 180.113281 22.765625 "/>
<path fill-rule="nonzero" fill="rgb(81.959534%, 51.371765%, 38.430786%)" fill-opacity="1" d="M 185.382812 20.476562 L 185.382812 20.398438 C 185.382812 19.078125 184.84375 18.109375 183.332031 18.074219 C 181.980469 18.074219 181.214844 19.253906 181.214844 20.523438 C 181.214844 21.910156 182.054688 22.894531 183.457031 22.894531 C 184.09375 22.894531 184.664062 22.753906 185.222656 22.546875 L 185.222656 21.78125 C 184.492188 22.132812 184.378906 22.210938 183.519531 22.210938 C 182.566406 22.210938 181.992188 21.636719 181.992188 20.554688 L 181.992188 20.476562 Z M 184.632812 19.859375 L 182.027344 19.855469 C 182.121094 19.253906 182.566406 18.726562 183.332031 18.726562 C 184.125 18.726562 184.632812 19.222656 184.632812 19.859375 Z M 184.632812 19.859375 "/>
<path fill-rule="nonzero" fill="rgb(81.959534%, 51.371765%, 38.430786%)" fill-opacity="1" d="M 189.996094 22.769531 L 190 20.160156 C 190 18.839844 189.441406 18.078125 188.074219 18.078125 C 187.582031 18.078125 186.976562 18.234375 186.53125 18.394531 L 186.53125 19.140625 C 186.992188 18.886719 187.375 18.730469 188.011719 18.730469 C 188.742188 18.746094 189.300781 19.113281 189.300781 19.875 L 188.25 19.875 C 187.167969 19.875 186.214844 20.238281 186.210938 21.433594 C 186.246094 22.355469 186.785156 22.894531 187.707031 22.898438 C 188.359375 22.898438 188.949219 22.625 189.296875 22.164062 L 189.296875 22.769531 Z M 189.300781 20.636719 C 189.296875 21.527344 188.882812 22.246094 187.929688 22.246094 C 187.375 22.246094 186.914062 21.988281 186.914062 21.386719 C 186.914062 20.496094 187.757812 20.496094 188.550781 20.496094 L 189.300781 20.496094 Z M 189.300781 20.636719 "/>
<path fill-rule="nonzero" fill="rgb(81.959534%, 51.371765%, 38.430786%)" fill-opacity="1" d="M 193.886719 19.113281 L 194.125 18.382812 C 194.015625 18.253906 193.519531 18.125 193.1875 18.125 C 192.710938 18.140625 192.3125 18.378906 192.105469 18.808594 L 192.105469 18.191406 L 191.34375 18.191406 L 191.339844 22.769531 L 192.105469 22.769531 L 192.105469 20.351562 C 192.105469 20.335938 192.105469 20.320312 192.105469 20.320312 C 192.105469 19.652344 192.457031 18.777344 193.171875 18.777344 L 193.21875 18.777344 C 193.457031 18.777344 193.648438 18.921875 193.886719 19.113281 Z M 193.886719 19.113281 "/>
<path fill-rule="nonzero" fill="rgb(81.959534%, 51.371765%, 38.430786%)" fill-opacity="1" d="M 200.683594 19.113281 L 200.921875 18.382812 C 200.808594 18.257812 200.316406 18.128906 199.984375 18.128906 C 199.503906 18.144531 199.109375 18.382812 198.902344 18.8125 L 198.902344 18.191406 L 198.136719 18.191406 L 198.136719 22.773438 L 198.898438 22.773438 L 198.898438 20.355469 C 198.898438 20.339844 198.898438 20.324219 198.898438 20.324219 C 198.902344 19.65625 199.25 18.78125 199.964844 18.78125 L 200.015625 18.78125 C 200.253906 18.78125 200.445312 18.925781 200.683594 19.113281 Z M 200.683594 19.113281 "/>
<path fill-rule="nonzero" fill="rgb(81.959534%, 51.371765%, 38.430786%)" fill-opacity="1" d="M 205.371094 20.484375 L 205.371094 20.40625 C 205.371094 19.085938 204.832031 18.113281 203.320312 18.082031 C 201.96875 18.082031 201.203125 19.257812 201.203125 20.53125 C 201.203125 21.914062 202.046875 22.902344 203.445312 22.902344 C 204.082031 22.902344 204.65625 22.757812 205.210938 22.550781 L 205.210938 21.789062 C 204.480469 22.136719 204.371094 22.21875 203.511719 22.21875 C 202.554688 22.21875 201.984375 21.644531 201.984375 20.5625 L 201.984375 20.484375 Z M 204.625 19.863281 L 202.015625 19.863281 C 202.113281 19.257812 202.558594 18.734375 203.320312 18.734375 C 204.117188 18.734375 204.625 19.226562 204.625 19.863281 Z M 204.625 19.863281 "/>
<path fill-rule="nonzero" fill="rgb(81.959534%, 51.371765%, 38.430786%)" fill-opacity="1" d="M 207.855469 22.664062 C 208.714844 22.664062 209.304688 23.078125 209.304688 23.636719 C 209.304688 24.191406 208.714844 24.589844 207.855469 24.589844 C 206.996094 24.589844 206.519531 24.191406 206.519531 23.632812 C 206.519531 23.078125 206.996094 22.664062 207.855469 22.664062 Z M 207.855469 22.011719 C 207.777344 22.011719 207.699219 22.011719 207.601562 22.027344 C 207.125 22.027344 206.710938 21.742188 206.710938 21.550781 C 206.710938 21.328125 206.964844 21.25 207.15625 21.25 L 207.222656 21.25 C 207.378906 21.390625 207.855469 21.441406 208 21.441406 C 208.875 21.441406 209.574219 20.691406 209.574219 19.769531 C 209.574219 19.40625 209.449219 19.054688 209.242188 18.785156 L 209.988281 18.785156 L 209.988281 18.210938 L 208.699219 18.210938 C 208.496094 18.148438 208.207031 18.117188 208.050781 18.117188 C 207.175781 18.113281 206.441406 18.863281 206.410156 19.769531 C 206.410156 20.214844 206.570312 20.613281 206.855469 20.898438 C 206.519531 20.960938 206.15625 21.183594 206.15625 21.613281 C 206.15625 21.882812 206.328125 22.140625 206.695312 22.296875 C 206.105469 22.601562 205.757812 23.09375 205.757812 23.617188 C 205.757812 24.445312 206.597656 25.210938 207.855469 25.210938 C 209.128906 25.210938 210.164062 24.445312 210.164062 23.636719 C 210.164062 22.570312 208.921875 22.011719 207.855469 22.011719 Z M 208 18.75 C 208.542969 18.75 208.988281 19.199219 208.988281 19.753906 C 208.988281 20.292969 208.542969 20.738281 208 20.738281 C 207.445312 20.738281 207.015625 20.292969 207.015625 19.753906 C 207.015625 19.195312 207.445312 18.75 208 18.75 Z M 208 18.75 "/>
<path fill-rule="nonzero" fill="rgb(81.959534%, 51.371765%, 38.430786%)" fill-opacity="1" d="M 211.941406 22.777344 L 211.945312 18.195312 L 211.179688 18.195312 L 211.179688 22.777344 Z M 211.5625 15.761719 C 211.324219 15.761719 211.117188 15.984375 211.117188 16.222656 C 211.117188 16.476562 211.324219 16.699219 211.5625 16.699219 C 211.816406 16.699219 212.007812 16.476562 212.007812 16.222656 C 212.007812 15.984375 211.816406 15.761719 211.5625 15.761719 Z M 211.5625 15.761719 "/>
<path fill-rule="nonzero" fill="rgb(81.959534%, 51.371765%, 38.430786%)" fill-opacity="1" d="M 217.410156 20.488281 C 217.414062 19.328125 216.792969 18.085938 215.265625 18.085938 C 213.882812 18.085938 213.101562 19.152344 213.101562 20.488281 C 213.101562 21.742188 213.910156 22.875 215.261719 22.90625 C 216.632812 22.875 217.410156 21.777344 217.410156 20.488281 Z M 216.664062 20.488281 C 216.664062 21.394531 216.105469 22.207031 215.265625 22.207031 C 214.117188 22.1875 213.863281 21.171875 213.863281 20.472656 C 213.863281 19.550781 214.308594 18.785156 215.265625 18.769531 C 216.15625 18.785156 216.664062 19.613281 216.664062 20.488281 Z M 216.664062 20.488281 "/>
<path fill-rule="nonzero" fill="rgb(81.959534%, 51.371765%, 38.430786%)" fill-opacity="1" d="M 222.546875 22.78125 L 222.546875 20.011719 C 222.546875 18.929688 222.085938 18.089844 220.910156 18.085938 C 220.320312 18.085938 219.71875 18.308594 219.351562 18.820312 L 219.351562 18.199219 L 218.605469 18.199219 L 218.601562 22.78125 L 219.351562 22.78125 L 219.351562 20.1875 C 219.382812 19.3125 219.925781 18.753906 220.734375 18.753906 C 221.53125 18.757812 221.816406 19.234375 221.816406 20.042969 L 221.816406 22.78125 Z M 222.546875 22.78125 "/>
<path fill-rule="nonzero" fill="rgb(81.959534%, 51.371765%, 38.430786%)" fill-opacity="1" d="M 227.242188 21.507812 C 227.242188 20.601562 226.625 20.316406 225.796875 20.15625 L 225.476562 20.09375 C 225.03125 19.996094 224.378906 19.902344 224.382812 19.410156 C 224.414062 18.835938 225.082031 18.726562 225.589844 18.726562 C 226.402344 18.757812 226.335938 18.804688 227.023438 19.09375 L 227.023438 18.34375 C 226.59375 18.167969 226.050781 18.089844 225.496094 18.089844 C 224.589844 18.089844 223.695312 18.421875 223.695312 19.441406 C 223.710938 20.269531 224.269531 20.585938 225.03125 20.730469 L 225.320312 20.792969 C 225.875 20.921875 226.511719 20.984375 226.511719 21.574219 C 226.480469 22.144531 225.828125 22.257812 225.320312 22.257812 C 224.476562 22.242188 224.347656 22.144531 223.617188 21.792969 L 223.617188 22.621094 C 224.046875 22.734375 224.792969 22.910156 225.300781 22.910156 C 226.191406 22.910156 227.242188 22.574219 227.242188 21.507812 Z M 227.242188 21.507812 "/>
<path fill-rule="nonzero" fill="rgb(23.136902%, 58.430481%, 54.901123%)" fill-opacity="0.968627" d="M 292.476562 23.296875 L 292.476562 22.566406 L 289.328125 22.566406 L 291.730469 19.863281 C 292.128906 19.304688 292.429688 18.875 292.429688 18.144531 C 292.429688 16.839844 291.476562 16.15625 290.269531 16.15625 C 289.585938 16.15625 289.011719 16.363281 288.4375 16.601562 L 288.4375 17.507812 C 289.011719 17.140625 289.582031 16.871094 290.285156 16.871094 C 291.078125 16.871094 291.699219 17.363281 291.699219 18.191406 C 291.699219 18.75 291.253906 19.433594 290.886719 19.8125 C 290.777344 19.972656 288.5625 22.390625 288.390625 22.566406 L 288.390625 23.296875 Z M 292.476562 23.296875 "/>
<path fill-rule="nonzero" fill="rgb(23.136902%, 58.430481%, 54.901123%)" fill-opacity="0.968627" d="M 298.003906 19.816406 C 297.992188 18.320312 297.65625 16.15625 295.765625 16.15625 C 293.871094 16.15625 293.550781 18.351562 293.550781 19.816406 C 293.550781 21.292969 293.882812 23.441406 295.761719 23.441406 C 297.640625 23.441406 298.003906 21.296875 298.003906 19.816406 Z M 297.273438 19.816406 C 297.273438 20.785156 297.195312 22.773438 295.761719 22.773438 C 294.332031 22.773438 294.285156 20.753906 294.285156 19.816406 C 294.285156 18.859375 294.316406 16.808594 295.765625 16.808594 C 297.195312 16.808594 297.273438 18.878906 297.273438 19.816406 Z M 297.273438 19.816406 "/>
<path fill-rule="nonzero" fill="rgb(23.136902%, 58.430481%, 54.901123%)" fill-opacity="0.968627" d="M 302.988281 16.285156 L 302.238281 16.285156 L 302.238281 23.300781 L 302.984375 23.300781 Z M 302.988281 16.285156 "/>
<path fill-rule="nonzero" fill="rgb(23.136902%, 58.430481%, 54.901123%)" fill-opacity="0.968627" d="M 305.140625 23.300781 L 305.140625 18.722656 L 304.378906 18.71875 L 304.375 23.300781 Z M 304.761719 16.285156 C 304.523438 16.285156 304.316406 16.507812 304.316406 16.75 C 304.316406 17.003906 304.523438 17.226562 304.761719 17.226562 C 305.015625 17.226562 305.207031 17.003906 305.207031 16.75 C 305.207031 16.511719 305.015625 16.285156 304.761719 16.285156 Z M 304.761719 16.285156 "/>
<path fill-rule="nonzero" fill="rgb(23.136902%, 58.430481%, 54.901123%)" fill-opacity="0.968627" d="M 310.480469 23.304688 L 310.484375 20.535156 C 310.484375 19.453125 310.023438 18.609375 308.84375 18.609375 C 308.257812 18.609375 307.652344 18.832031 307.285156 19.34375 L 307.285156 18.722656 L 306.539062 18.722656 L 306.535156 23.300781 L 307.285156 23.300781 L 307.285156 20.710938 C 307.316406 19.835938 307.859375 19.277344 308.667969 19.277344 C 309.464844 19.277344 309.75 19.757812 309.75 20.566406 L 309.75 23.304688 Z M 310.480469 23.304688 "/>
<path fill-rule="nonzero" fill="rgb(23.136902%, 58.430481%, 54.901123%)" fill-opacity="0.968627" d="M 315.75 21.015625 L 315.75 20.933594 C 315.75 19.613281 315.210938 18.644531 313.699219 18.613281 C 312.347656 18.613281 311.582031 19.789062 311.582031 21.0625 C 311.582031 22.445312 312.425781 23.429688 313.824219 23.433594 C 314.460938 23.433594 315.035156 23.289062 315.589844 23.082031 L 315.589844 22.320312 C 314.859375 22.667969 314.746094 22.75 313.890625 22.746094 C 312.933594 22.746094 312.363281 22.175781 312.363281 21.09375 L 312.363281 21.011719 Z M 315.003906 20.394531 L 312.394531 20.394531 C 312.488281 19.789062 312.9375 19.265625 313.699219 19.265625 C 314.496094 19.265625 315.003906 19.757812 315.003906 20.394531 Z M 315.003906 20.394531 "/>
<path fill-rule="nonzero" fill="rgb(23.136902%, 58.430481%, 54.901123%)" fill-opacity="0.968627" d="M 320.367188 23.308594 L 320.367188 20.699219 C 320.367188 19.378906 319.8125 18.613281 318.445312 18.613281 C 317.949219 18.613281 317.347656 18.773438 316.902344 18.929688 L 316.898438 19.679688 C 317.363281 19.425781 317.742188 19.265625 318.378906 19.265625 C 319.109375 19.28125 319.667969 19.648438 319.667969 20.410156 L 318.617188 20.410156 C 317.535156 20.410156 316.582031 20.777344 316.582031 21.96875 C 316.613281 22.890625 317.152344 23.433594 318.074219 23.433594 C 318.726562 23.433594 319.316406 23.164062 319.667969 22.703125 L 319.667969 23.304688 Z M 319.667969 21.175781 C 319.667969 22.066406 319.253906 22.78125 318.300781 22.78125 C 317.742188 22.78125 317.28125 22.527344 317.28125 21.921875 C 317.28125 21.03125 318.125 21.03125 318.917969 21.03125 L 319.667969 21.03125 Z M 319.667969 21.175781 "/>
<path fill-rule="nonzero" fill="rgb(23.136902%, 58.430481%, 54.901123%)" fill-opacity="0.968627" d="M 324.253906 19.648438 L 324.496094 18.917969 C 324.382812 18.789062 323.890625 18.664062 323.554688 18.664062 C 323.078125 18.679688 322.679688 18.917969 322.472656 19.347656 L 322.472656 18.726562 L 321.710938 18.726562 L 321.710938 23.308594 L 322.472656 23.308594 L 322.472656 20.890625 C 322.472656 20.875 322.472656 20.859375 322.472656 20.859375 C 322.472656 20.191406 322.824219 19.316406 323.539062 19.316406 L 323.585938 19.316406 C 323.828125 19.316406 324.015625 19.457031 324.253906 19.648438 Z M 324.253906 19.648438 "/>
<path fill-rule="nonzero" fill="rgb(23.136902%, 58.430481%, 54.901123%)" fill-opacity="0.968627" d="M 331.050781 19.652344 L 331.289062 18.921875 C 331.179688 18.792969 330.683594 18.664062 330.351562 18.664062 C 329.875 18.679688 329.476562 18.917969 329.269531 19.347656 L 329.269531 18.730469 L 328.507812 18.726562 L 328.503906 23.308594 L 329.269531 23.308594 L 329.269531 20.890625 C 329.269531 20.875 329.269531 20.859375 329.269531 20.859375 C 329.269531 20.191406 329.621094 19.316406 330.335938 19.316406 L 330.382812 19.316406 C 330.621094 19.316406 330.8125 19.460938 331.050781 19.652344 Z M 331.050781 19.652344 "/>
<path fill-rule="nonzero" fill="rgb(23.136902%, 58.430481%, 54.901123%)" fill-opacity="0.968627" d="M 335.742188 21.019531 L 335.742188 20.941406 C 335.742188 19.621094 335.199219 18.652344 333.6875 18.617188 C 332.335938 18.617188 331.574219 19.796875 331.574219 21.066406 C 331.574219 22.453125 332.414062 23.4375 333.816406 23.4375 C 334.453125 23.4375 335.023438 23.296875 335.582031 23.089844 L 335.582031 22.324219 C 334.847656 22.675781 334.738281 22.753906 333.878906 22.753906 C 332.925781 22.753906 332.351562 22.179688 332.351562 21.101562 L 332.351562 21.019531 Z M 334.992188 20.402344 L 332.382812 20.398438 C 332.480469 19.796875 332.925781 19.269531 333.6875 19.269531 C 334.484375 19.269531 334.992188 19.765625 334.992188 20.402344 Z M 334.992188 20.402344 "/>
<path fill-rule="nonzero" fill="rgb(23.136902%, 58.430481%, 54.901123%)" fill-opacity="0.968627" d="M 338.226562 23.203125 C 339.085938 23.203125 339.671875 23.617188 339.671875 24.171875 C 339.671875 24.730469 339.082031 25.125 338.226562 25.125 C 337.367188 25.125 336.886719 24.726562 336.890625 24.171875 C 336.890625 23.613281 337.367188 23.199219 338.226562 23.203125 Z M 338.226562 22.550781 C 338.144531 22.550781 338.066406 22.550781 337.972656 22.566406 C 337.492188 22.566406 337.082031 22.277344 337.082031 22.085938 C 337.082031 21.863281 337.335938 21.785156 337.527344 21.785156 L 337.589844 21.785156 C 337.75 21.929688 338.226562 21.976562 338.367188 21.976562 C 339.242188 21.976562 339.945312 21.230469 339.945312 20.308594 C 339.945312 19.941406 339.816406 19.589844 339.609375 19.320312 L 340.359375 19.320312 L 340.359375 18.75 L 339.070312 18.746094 C 338.863281 18.683594 338.578125 18.652344 338.417969 18.652344 C 337.542969 18.652344 336.8125 19.398438 336.777344 20.304688 C 336.777344 20.75 336.9375 21.148438 337.222656 21.433594 C 336.890625 21.5 336.523438 21.722656 336.523438 22.152344 C 336.523438 22.421875 336.699219 22.675781 337.0625 22.835938 C 336.476562 23.136719 336.125 23.628906 336.125 24.15625 C 336.125 24.980469 336.96875 25.746094 338.222656 25.746094 C 339.496094 25.746094 340.53125 24.984375 340.53125 24.171875 C 340.53125 23.105469 339.292969 22.550781 338.226562 22.550781 Z M 338.371094 19.289062 C 338.910156 19.289062 339.355469 19.734375 339.355469 20.289062 C 339.355469 20.832031 338.910156 21.277344 338.367188 21.277344 C 337.8125 21.277344 337.382812 20.832031 337.382812 20.289062 C 337.382812 19.734375 337.8125 19.289062 338.371094 19.289062 Z M 338.371094 19.289062 "/>
<path fill-rule="nonzero" fill="rgb(23.136902%, 58.430481%, 54.901123%)" fill-opacity="0.968627" d="M 342.3125 23.3125 L 342.3125 18.734375 L 341.546875 18.734375 L 341.546875 23.3125 Z M 341.929688 16.300781 C 341.691406 16.300781 341.484375 16.523438 341.484375 16.761719 C 341.484375 17.015625 341.691406 17.238281 341.929688 17.238281 C 342.183594 17.238281 342.375 17.015625 342.375 16.761719 C 342.375 16.523438 342.1875 16.300781 341.929688 16.300781 Z M 341.929688 16.300781 "/>
<path fill-rule="nonzero" fill="rgb(23.136902%, 58.430481%, 54.901123%)" fill-opacity="0.968627" d="M 347.78125 21.023438 C 347.78125 19.863281 347.160156 18.621094 345.632812 18.621094 C 344.25 18.621094 343.46875 19.6875 343.46875 21.023438 C 343.46875 22.28125 344.28125 23.410156 345.632812 23.441406 C 347 23.410156 347.78125 22.3125 347.78125 21.023438 Z M 347.03125 21.023438 C 347.03125 21.929688 346.476562 22.742188 345.632812 22.742188 C 344.488281 22.726562 344.234375 21.707031 344.234375 21.007812 C 344.234375 20.085938 344.679688 19.320312 345.632812 19.304688 C 346.523438 19.324219 347.03125 20.148438 347.03125 21.023438 Z M 347.03125 21.023438 "/>
<path fill-rule="nonzero" fill="rgb(23.136902%, 58.430481%, 54.901123%)" fill-opacity="0.968627" d="M 352.917969 23.316406 L 352.917969 20.550781 C 352.917969 19.46875 352.457031 18.625 351.277344 18.625 C 350.691406 18.625 350.085938 18.847656 349.71875 19.355469 L 349.71875 18.734375 L 348.972656 18.734375 L 348.972656 23.316406 L 349.71875 23.316406 L 349.71875 20.722656 C 349.75 19.847656 350.292969 19.292969 351.105469 19.292969 C 351.898438 19.292969 352.183594 19.769531 352.183594 20.582031 L 352.183594 23.316406 Z M 352.917969 23.316406 "/>
<path fill-rule="nonzero" fill="rgb(23.136902%, 58.430481%, 54.901123%)" fill-opacity="0.968627" d="M 357.613281 22.046875 C 357.613281 21.140625 356.992188 20.851562 356.164062 20.695312 L 355.847656 20.628906 C 355.402344 20.535156 354.75 20.4375 354.75 19.945312 C 354.78125 19.375 355.449219 19.261719 355.957031 19.261719 C 356.769531 19.292969 356.707031 19.34375 357.390625 19.628906 L 357.390625 18.878906 C 356.960938 18.707031 356.421875 18.625 355.863281 18.625 C 354.957031 18.625 354.066406 18.960938 354.066406 19.976562 C 354.082031 20.804688 354.636719 21.121094 355.402344 21.265625 L 355.6875 21.328125 C 356.246094 21.457031 356.878906 21.519531 356.878906 22.109375 C 356.847656 22.683594 356.195312 22.792969 355.6875 22.792969 C 354.84375 22.777344 354.71875 22.679688 353.984375 22.332031 L 353.984375 23.160156 C 354.414062 23.269531 355.160156 23.445312 355.671875 23.445312 C 356.5625 23.445312 357.613281 23.113281 357.613281 22.046875 Z M 357.613281 22.046875 "/>
<path fill-rule="nonzero" fill="rgb(50.195312%, 50.195312%, 50.195312%)" fill-opacity="1" d="M 24.613281 115.414062 C 24.613281 114.792969 24.578125 114.050781 24.242188 113.417969 C 23.917969 112.824219 23.375 112.628906 22.980469 112.628906 C 22.507812 112.628906 21.949219 112.851562 21.628906 113.542969 C 21.367188 114.125 21.332031 114.78125 21.332031 115.414062 C 21.332031 116.035156 21.355469 116.617188 21.589844 117.199219 C 21.914062 117.953125 22.507812 118.164062 22.964844 118.164062 C 23.535156 118.164062 24.042969 117.839844 24.292969 117.296875 C 24.527344 116.777344 24.613281 116.257812 24.613281 115.414062 Z M 22.980469 117.679688 C 22.558594 117.679688 22.234375 117.382812 22.074219 116.8125 C 21.949219 116.367188 21.949219 115.933594 21.949219 115.316406 C 21.949219 114.820312 21.949219 114.347656 22.074219 113.914062 C 22.125 113.765625 22.320312 113.109375 22.964844 113.109375 C 23.585938 113.109375 23.785156 113.71875 23.84375 113.851562 C 23.996094 114.300781 23.996094 114.832031 23.996094 115.316406 C 23.996094 115.835938 23.996094 116.34375 23.84375 116.839844 C 23.648438 117.558594 23.226562 117.679688 22.980469 117.679688 Z M 22.980469 117.679688 "/>
<path fill-rule="nonzero" fill="rgb(50.195312%, 50.195312%, 50.195312%)" fill-opacity="1" d="M 25.714844 117.332031 L 26.371094 117.332031 L 26.371094 117.992188 L 25.714844 117.992188 Z M 25.714844 117.332031 "/>
<path fill-rule="nonzero" fill="rgb(50.195312%, 50.195312%, 50.195312%)" fill-opacity="1" d="M 30.757812 115.414062 C 30.757812 114.792969 30.71875 114.050781 30.382812 113.417969 C 30.0625 112.824219 29.519531 112.628906 29.121094 112.628906 C 28.652344 112.628906 28.09375 112.851562 27.769531 113.542969 C 27.511719 114.125 27.472656 114.78125 27.472656 115.414062 C 27.472656 116.035156 27.5 116.617188 27.734375 117.199219 C 28.054688 117.953125 28.652344 118.164062 29.109375 118.164062 C 29.679688 118.164062 30.1875 117.839844 30.433594 117.296875 C 30.667969 116.777344 30.757812 116.257812 30.757812 115.414062 Z M 29.121094 117.679688 C 28.699219 117.679688 28.378906 117.382812 28.21875 116.8125 C 28.09375 116.367188 28.09375 115.933594 28.09375 115.316406 C 28.09375 114.820312 28.09375 114.347656 28.21875 113.914062 C 28.265625 113.765625 28.464844 113.109375 29.109375 113.109375 C 29.726562 113.109375 29.925781 113.71875 29.988281 113.851562 C 30.136719 114.300781 30.136719 114.832031 30.136719 115.316406 C 30.136719 115.835938 30.136719 116.34375 29.988281 116.839844 C 29.789062 117.558594 29.367188 117.679688 29.121094 117.679688 Z M 29.121094 117.679688 "/>
<path fill-rule="nonzero" fill="rgb(50.195312%, 50.195312%, 50.195312%)" fill-opacity="1" d="M 15.582031 61.894531 C 15.582031 61.273438 15.542969 60.53125 15.210938 59.898438 C 14.886719 59.304688 14.34375 59.105469 13.945312 59.105469 C 13.476562 59.105469 12.917969 59.328125 12.597656 60.023438 C 12.335938 60.605469 12.296875 61.261719 12.296875 61.894531 C 12.296875 62.511719 12.324219 63.09375 12.558594 63.675781 C 12.878906 64.433594 13.476562 64.644531 13.933594 64.644531 C 14.503906 64.644531 15.011719 64.320312 15.257812 63.777344 C 15.496094 63.253906 15.582031 62.734375 15.582031 61.894531 Z M 13.945312 64.160156 C 13.523438 64.160156 13.203125 63.863281 13.042969 63.292969 C 12.917969 62.847656 12.917969 62.414062 12.917969 61.792969 C 12.917969 61.296875 12.917969 60.828125 13.042969 60.394531 C 13.089844 60.246094 13.289062 59.589844 13.933594 59.589844 C 14.554688 59.589844 14.75 60.195312 14.8125 60.332031 C 14.960938 60.777344 14.960938 61.3125 14.960938 61.792969 C 14.960938 62.3125 14.960938 62.820312 14.8125 63.316406 C 14.613281 64.035156 14.195312 64.160156 13.945312 64.160156 Z M 13.945312 64.160156 "/>
<path fill-rule="nonzero" fill="rgb(50.195312%, 50.195312%, 50.195312%)" fill-opacity="1" d="M 16.679688 63.8125 L 17.335938 63.8125 L 17.335938 64.46875 L 16.679688 64.46875 Z M 16.679688 63.8125 "/>
<path fill-rule="nonzero" fill="rgb(50.195312%, 50.195312%, 50.195312%)" fill-opacity="1" d="M 21.722656 61.894531 C 21.722656 61.273438 21.6875 60.53125 21.351562 59.898438 C 21.03125 59.304688 20.484375 59.105469 20.089844 59.105469 C 19.617188 59.105469 19.0625 59.328125 18.738281 60.023438 C 18.480469 60.605469 18.441406 61.261719 18.441406 61.894531 C 18.441406 62.511719 18.464844 63.09375 18.703125 63.675781 C 19.023438 64.433594 19.617188 64.644531 20.078125 64.644531 C 20.644531 64.644531 21.152344 64.320312 21.402344 63.777344 C 21.636719 63.253906 21.722656 62.734375 21.722656 61.894531 Z M 20.089844 64.160156 C 19.667969 64.160156 19.34375 63.863281 19.183594 63.292969 C 19.0625 62.847656 19.0625 62.414062 19.0625 61.792969 C 19.0625 61.296875 19.0625 60.828125 19.183594 60.394531 C 19.234375 60.246094 19.433594 59.589844 20.078125 59.589844 C 20.695312 59.589844 20.894531 60.195312 20.957031 60.332031 C 21.105469 60.777344 21.105469 61.3125 21.105469 61.792969 C 21.105469 62.3125 21.105469 62.820312 20.957031 63.316406 C 20.757812 64.035156 20.335938 64.160156 20.089844 64.160156 Z M 20.089844 64.160156 "/>
<path fill-rule="nonzero" fill="rgb(50.195312%, 50.195312%, 50.195312%)" fill-opacity="1" d="M 155.109375 115.414062 C 155.109375 114.792969 155.074219 114.050781 154.738281 113.417969 C 154.417969 112.824219 153.871094 112.628906 153.476562 112.628906 C 153.003906 112.628906 152.449219 112.851562 152.125 113.542969 C 151.867188 114.125 151.828125 114.78125 151.828125 115.414062 C 151.828125 116.035156 151.855469 116.617188 152.089844 117.199219 C 152.410156 117.953125 153.003906 118.164062 153.464844 118.164062 C 154.035156 118.164062 154.542969 117.839844 154.789062 117.296875 C 155.023438 116.777344 155.109375 116.257812 155.109375 115.414062 Z M 153.476562 117.679688 C 153.054688 117.679688 152.734375 117.382812 152.570312 116.8125 C 152.449219 116.367188 152.449219 115.933594 152.449219 115.316406 C 152.449219 114.820312 152.449219 114.347656 152.570312 113.914062 C 152.621094 113.765625 152.820312 113.109375 153.464844 113.109375 C 154.082031 113.109375 154.28125 113.71875 154.34375 113.851562 C 154.492188 114.300781 154.492188 114.832031 154.492188 115.316406 C 154.492188 115.835938 154.492188 116.34375 154.34375 116.839844 C 154.144531 117.558594 153.722656 117.679688 153.476562 117.679688 Z M 153.476562 117.679688 "/>
<path fill-rule="nonzero" fill="rgb(50.195312%, 50.195312%, 50.195312%)" fill-opacity="1" d="M 156.210938 117.332031 L 156.867188 117.332031 L 156.867188 117.992188 L 156.210938 117.992188 Z M 156.210938 117.332031 "/>
<path fill-rule="nonzero" fill="rgb(50.195312%, 50.195312%, 50.195312%)" fill-opacity="1" d="M 161.253906 115.414062 C 161.253906 114.792969 161.214844 114.050781 160.882812 113.417969 C 160.558594 112.824219 160.015625 112.628906 159.617188 112.628906 C 159.148438 112.628906 158.589844 112.851562 158.269531 113.542969 C 158.007812 114.125 157.972656 114.78125 157.972656 115.414062 C 157.972656 116.035156 157.996094 116.617188 158.230469 117.199219 C 158.554688 117.953125 159.148438 118.164062 159.605469 118.164062 C 160.175781 118.164062 160.683594 117.839844 160.933594 117.296875 C 161.167969 116.777344 161.253906 116.257812 161.253906 115.414062 Z M 159.617188 117.679688 C 159.199219 117.679688 158.875 117.382812 158.714844 116.8125 C 158.589844 116.367188 158.589844 115.933594 158.589844 115.316406 C 158.589844 114.820312 158.589844 114.347656 158.714844 113.914062 C 158.765625 113.765625 158.960938 113.109375 159.605469 113.109375 C 160.226562 113.109375 160.425781 113.71875 160.484375 113.851562 C 160.632812 114.300781 160.632812 114.832031 160.632812 115.316406 C 160.632812 115.835938 160.632812 116.34375 160.484375 116.839844 C 160.289062 117.558594 159.867188 117.679688 159.617188 117.679688 Z M 159.617188 117.679688 "/>
<path fill-rule="nonzero" fill="rgb(50.195312%, 50.195312%, 50.195312%)" fill-opacity="1" d="M 285.640625 115.414062 C 285.640625 114.792969 285.601562 114.050781 285.269531 113.417969 C 284.945312 112.824219 284.402344 112.628906 284.003906 112.628906 C 283.535156 112.628906 282.976562 112.851562 282.65625 113.542969 C 282.394531 114.125 282.355469 114.78125 282.355469 115.414062 C 282.355469 116.035156 282.382812 116.617188 282.617188 117.199219 C 282.9375 117.953125 283.535156 118.164062 283.992188 118.164062 C 284.5625 118.164062 285.070312 117.839844 285.316406 117.296875 C 285.554688 116.777344 285.640625 116.257812 285.640625 115.414062 Z M 284.003906 117.679688 C 283.582031 117.679688 283.261719 117.382812 283.101562 116.8125 C 282.976562 116.367188 282.976562 115.933594 282.976562 115.316406 C 282.976562 114.820312 282.976562 114.347656 283.101562 113.914062 C 283.148438 113.765625 283.347656 113.109375 283.992188 113.109375 C 284.613281 113.109375 284.808594 113.71875 284.871094 113.851562 C 285.019531 114.300781 285.019531 114.832031 285.019531 115.316406 C 285.019531 115.835938 285.019531 116.34375 284.871094 116.839844 C 284.671875 117.558594 284.253906 117.679688 284.003906 117.679688 Z M 284.003906 117.679688 "/>
<path fill-rule="nonzero" fill="rgb(50.195312%, 50.195312%, 50.195312%)" fill-opacity="1" d="M 286.738281 117.332031 L 287.394531 117.332031 L 287.394531 117.992188 L 286.738281 117.992188 Z M 286.738281 117.332031 "/>
<path fill-rule="nonzero" fill="rgb(50.195312%, 50.195312%, 50.195312%)" fill-opacity="1" d="M 291.78125 115.414062 C 291.78125 114.792969 291.746094 114.050781 291.410156 113.417969 C 291.089844 112.824219 290.542969 112.628906 290.148438 112.628906 C 289.675781 112.628906 289.121094 112.851562 288.796875 113.542969 C 288.535156 114.125 288.5 114.78125 288.5 115.414062 C 288.5 116.035156 288.523438 116.617188 288.761719 117.199219 C 289.082031 117.953125 289.675781 118.164062 290.136719 118.164062 C 290.703125 118.164062 291.210938 117.839844 291.460938 117.296875 C 291.695312 116.777344 291.78125 116.257812 291.78125 115.414062 Z M 290.148438 117.679688 C 289.726562 117.679688 289.402344 117.382812 289.242188 116.8125 C 289.121094 116.367188 289.121094 115.933594 289.121094 115.316406 C 289.121094 114.820312 289.121094 114.347656 289.242188 113.914062 C 289.292969 113.765625 289.492188 113.109375 290.136719 113.109375 C 290.753906 113.109375 290.953125 113.71875 291.015625 113.851562 C 291.164062 114.300781 291.164062 114.832031 291.164062 115.316406 C 291.164062 115.835938 291.164062 116.34375 291.015625 116.839844 C 290.816406 117.558594 290.394531 117.679688 290.148438 117.679688 Z M 290.148438 117.679688 "/>
<path fill-rule="nonzero" fill="rgb(50.195312%, 50.195312%, 50.195312%)" fill-opacity="1" d="M 15.066406 17.070312 L 15.066406 11.605469 L 14.410156 11.605469 L 13.628906 12.238281 L 13.628906 12.859375 L 14.445312 12.1875 L 14.445312 17.070312 Z M 15.066406 17.070312 "/>
<path fill-rule="nonzero" fill="rgb(50.195312%, 50.195312%, 50.195312%)" fill-opacity="1" d="M 16.253906 16.265625 L 17.007812 16.265625 L 17.007812 17.070312 L 16.253906 17.070312 Z M 16.253906 16.265625 "/>
<path fill-rule="nonzero" fill="rgb(50.195312%, 50.195312%, 50.195312%)" fill-opacity="1" d="M 21.488281 14.355469 C 21.472656 13.191406 21.214844 11.507812 19.738281 11.507812 C 18.265625 11.507812 18.019531 13.21875 18.019531 14.355469 C 18.019531 15.507812 18.277344 17.179688 19.738281 17.179688 C 21.203125 17.179688 21.488281 15.507812 21.488281 14.355469 Z M 20.917969 14.355469 C 20.917969 15.113281 20.855469 16.660156 19.738281 16.660156 C 18.625 16.660156 18.589844 15.085938 18.589844 14.355469 C 18.589844 13.613281 18.613281 12.015625 19.738281 12.015625 C 20.855469 12.015625 20.917969 13.625 20.917969 14.355469 Z M 20.917969 14.355469 "/>
<path fill-rule="nonzero" fill="rgb(50.195312%, 50.195312%, 50.195312%)" fill-opacity="1" d="M 82.738281 118.121094 L 82.738281 112.65625 L 82.082031 112.65625 L 81.300781 113.289062 L 81.300781 113.910156 L 82.117188 113.238281 L 82.117188 118.121094 Z M 82.738281 118.121094 "/>
<path fill-rule="nonzero" fill="rgb(50.195312%, 50.195312%, 50.195312%)" fill-opacity="1" d="M 83.925781 117.316406 L 84.679688 117.316406 L 84.679688 118.121094 L 83.925781 118.121094 Z M 83.925781 117.316406 "/>
<path fill-rule="nonzero" fill="rgb(50.195312%, 50.195312%, 50.195312%)" fill-opacity="1" d="M 89.160156 115.40625 C 89.144531 114.242188 88.886719 112.558594 87.410156 112.558594 C 85.9375 112.558594 85.691406 114.269531 85.691406 115.40625 C 85.691406 116.558594 85.949219 118.230469 87.410156 118.230469 C 88.875 118.230469 89.160156 116.558594 89.160156 115.40625 Z M 88.589844 115.40625 C 88.589844 116.164062 88.527344 117.710938 87.410156 117.710938 C 86.296875 117.710938 86.261719 116.136719 86.261719 115.40625 C 86.261719 114.664062 86.285156 113.066406 87.410156 113.066406 C 88.527344 113.066406 88.589844 114.675781 88.589844 115.40625 Z M 88.589844 115.40625 "/>
<path fill-rule="nonzero" fill="rgb(50.195312%, 50.195312%, 50.195312%)" fill-opacity="1" d="M 213.882812 118.121094 L 213.882812 112.65625 L 213.226562 112.65625 L 212.445312 113.289062 L 212.445312 113.910156 L 213.261719 113.238281 L 213.261719 118.121094 Z M 213.882812 118.121094 "/>
<path fill-rule="nonzero" fill="rgb(50.195312%, 50.195312%, 50.195312%)" fill-opacity="1" d="M 215.066406 117.316406 L 215.824219 117.316406 L 215.824219 118.121094 L 215.066406 118.121094 Z M 215.066406 117.316406 "/>
<path fill-rule="nonzero" fill="rgb(50.195312%, 50.195312%, 50.195312%)" fill-opacity="1" d="M 220.300781 115.40625 C 220.289062 114.242188 220.03125 112.558594 218.554688 112.558594 C 217.082031 112.558594 216.832031 114.269531 216.832031 115.40625 C 216.832031 116.558594 217.09375 118.230469 218.554688 118.230469 C 220.015625 118.230469 220.300781 116.558594 220.300781 115.40625 Z M 219.730469 115.40625 C 219.730469 116.164062 219.671875 117.710938 218.554688 117.710938 C 217.441406 117.710938 217.402344 116.136719 217.402344 115.40625 C 217.402344 114.664062 217.429688 113.066406 218.554688 113.066406 C 219.671875 113.066406 219.730469 114.675781 219.730469 115.40625 Z M 219.730469 115.40625 "/>
<path fill-rule="nonzero" fill="rgb(50.195312%, 50.195312%, 50.195312%)" fill-opacity="1" d="M 343.5 118.121094 L 343.5 112.65625 L 342.84375 112.65625 L 342.0625 113.289062 L 342.0625 113.910156 L 342.882812 113.238281 L 342.882812 118.121094 Z M 343.5 118.121094 "/>
<path fill-rule="nonzero" fill="rgb(50.195312%, 50.195312%, 50.195312%)" fill-opacity="1" d="M 344.6875 117.316406 L 345.441406 117.316406 L 345.441406 118.121094 L 344.6875 118.121094 Z M 344.6875 117.316406 "/>
<path fill-rule="nonzero" fill="rgb(50.195312%, 50.195312%, 50.195312%)" fill-opacity="1" d="M 349.921875 115.40625 C 349.910156 114.242188 349.648438 112.558594 348.175781 112.558594 C 346.699219 112.558594 346.453125 114.269531 346.453125 115.40625 C 346.453125 116.558594 346.714844 118.230469 348.175781 118.230469 C 349.636719 118.230469 349.921875 116.558594 349.921875 115.40625 Z M 349.351562 115.40625 C 349.351562 116.164062 349.289062 117.710938 348.175781 117.710938 C 347.058594 117.710938 347.023438 116.136719 347.023438 115.40625 C 347.023438 114.664062 347.046875 113.066406 348.175781 113.066406 C 349.289062 113.066406 349.351562 114.675781 349.351562 115.40625 Z M 349.351562 115.40625 "/>
<path fill-rule="nonzero" fill="rgb(50.195312%, 50.195312%, 50.195312%)" fill-opacity="1" d="M 10.628906 110.226562 L 12.425781 110.226562 L 12.425781 110.746094 L 10.628906 110.746094 Z M 10.628906 110.226562 "/>
<path fill-rule="nonzero" fill="rgb(50.195312%, 50.195312%, 50.195312%)" fill-opacity="1" d="M 14.644531 112.269531 L 14.644531 106.808594 L 13.988281 106.808594 L 13.210938 107.441406 L 13.210938 108.058594 L 14.027344 107.390625 L 14.027344 112.269531 Z M 14.644531 112.269531 "/>
<path fill-rule="nonzero" fill="rgb(50.195312%, 50.195312%, 50.195312%)" fill-opacity="1" d="M 15.832031 111.464844 L 16.589844 111.464844 L 16.589844 112.269531 L 15.832031 112.269531 Z M 15.832031 111.464844 "/>
<path fill-rule="nonzero" fill="rgb(50.195312%, 50.195312%, 50.195312%)" fill-opacity="1" d="M 21.066406 109.558594 C 21.054688 108.394531 20.792969 106.707031 19.320312 106.707031 C 17.847656 106.707031 17.597656 108.417969 17.597656 109.558594 C 17.597656 110.710938 17.859375 112.382812 19.320312 112.382812 C 20.78125 112.382812 21.066406 110.710938 21.066406 109.558594 Z M 20.496094 109.558594 C 20.496094 110.3125 20.433594 111.863281 19.320312 111.863281 C 18.207031 111.863281 18.167969 110.289062 18.167969 109.558594 C 18.167969 108.816406 18.195312 107.21875 19.320312 107.21875 C 20.433594 107.21875 20.496094 108.828125 20.496094 109.558594 Z M 20.496094 109.558594 "/>
<path fill-rule="nonzero" fill="rgb(50.195312%, 50.195312%, 50.195312%)" fill-opacity="1" d="M 141.613281 118.285156 L 141.613281 117.714844 L 139.160156 117.714844 L 141.03125 115.609375 C 141.339844 115.175781 141.574219 114.839844 141.574219 114.273438 C 141.574219 113.253906 140.832031 112.722656 139.890625 112.722656 C 139.359375 112.722656 138.914062 112.882812 138.46875 113.070312 L 138.46875 113.777344 C 138.914062 113.492188 139.359375 113.28125 139.902344 113.28125 C 140.523438 113.28125 141.007812 113.664062 141.007812 114.308594 C 141.007812 114.742188 140.660156 115.273438 140.375 115.570312 C 140.289062 115.695312 138.566406 117.578125 138.429688 117.714844 L 138.429688 118.285156 Z M 141.613281 118.285156 "/>
<path fill-rule="nonzero" fill="rgb(50.195312%, 50.195312%, 50.195312%)" fill-opacity="1" d="M 142.523438 117.480469 L 143.277344 117.480469 L 143.277344 118.285156 L 142.523438 118.285156 Z M 142.523438 117.480469 "/>
<path fill-rule="nonzero" fill="rgb(50.195312%, 50.195312%, 50.195312%)" fill-opacity="1" d="M 147.757812 115.570312 C 147.746094 114.40625 147.484375 112.722656 146.011719 112.722656 C 144.539062 112.722656 144.289062 114.433594 144.289062 115.570312 C 144.289062 116.722656 144.550781 118.394531 146.011719 118.394531 C 147.472656 118.394531 147.757812 116.722656 147.757812 115.570312 Z M 147.1875 115.570312 C 147.1875 116.328125 147.125 117.875 146.011719 117.875 C 144.894531 117.875 144.859375 116.304688 144.859375 115.570312 C 144.859375 114.828125 144.882812 113.230469 146.011719 113.230469 C 147.125 113.230469 147.1875 114.839844 147.1875 115.570312 Z M 147.1875 115.570312 "/>
<path fill-rule="nonzero" fill="rgb(50.195312%, 50.195312%, 50.195312%)" fill-opacity="1" d="M 272.964844 118.121094 L 272.964844 117.550781 L 270.515625 117.550781 L 272.382812 115.445312 C 272.695312 115.011719 272.929688 114.675781 272.929688 114.105469 C 272.929688 113.089844 272.1875 112.558594 271.246094 112.558594 C 270.710938 112.558594 270.265625 112.71875 269.820312 112.90625 L 269.820312 113.613281 C 270.265625 113.328125 270.710938 113.117188 271.257812 113.117188 C 271.875 113.117188 272.359375 113.5 272.359375 114.144531 C 272.359375 114.578125 272.011719 115.109375 271.726562 115.40625 C 271.640625 115.53125 269.917969 117.414062 269.785156 117.550781 L 269.785156 118.121094 Z M 272.964844 118.121094 "/>
<path fill-rule="nonzero" fill="rgb(50.195312%, 50.195312%, 50.195312%)" fill-opacity="1" d="M 273.878906 117.316406 L 274.632812 117.316406 L 274.632812 118.121094 L 273.878906 118.121094 Z M 273.878906 117.316406 "/>
<path fill-rule="nonzero" fill="rgb(50.195312%, 50.195312%, 50.195312%)" fill-opacity="1" d="M 279.109375 115.40625 C 279.097656 114.242188 278.839844 112.558594 277.363281 112.558594 C 275.890625 112.558594 275.644531 114.269531 275.644531 115.40625 C 275.644531 116.558594 275.902344 118.230469 277.363281 118.230469 C 278.828125 118.230469 279.109375 116.558594 279.109375 115.40625 Z M 278.542969 115.40625 C 278.542969 116.164062 278.480469 117.710938 277.363281 117.710938 C 276.25 117.710938 276.210938 116.136719 276.210938 115.40625 C 276.210938 114.664062 276.238281 113.066406 277.363281 113.066406 C 278.480469 113.066406 278.542969 114.675781 278.542969 115.40625 Z M 278.542969 115.40625 "/>
<path fill-rule="nonzero" fill="rgb(50.195312%, 50.195312%, 50.195312%)" fill-opacity="1" d="M 402.945312 118.121094 L 402.945312 117.550781 L 400.492188 117.550781 L 402.363281 115.445312 C 402.671875 115.011719 402.90625 114.675781 402.90625 114.105469 C 402.90625 113.089844 402.164062 112.558594 401.222656 112.558594 C 400.691406 112.558594 400.246094 112.71875 399.800781 112.90625 L 399.800781 113.613281 C 400.246094 113.328125 400.691406 113.117188 401.234375 113.117188 C 401.855469 113.117188 402.339844 113.5 402.339844 114.144531 C 402.339844 114.578125 401.992188 115.109375 401.707031 115.40625 C 401.621094 115.53125 399.898438 117.414062 399.761719 117.550781 L 399.761719 118.121094 Z M 402.945312 118.121094 "/>
<path fill-rule="nonzero" fill="rgb(50.195312%, 50.195312%, 50.195312%)" fill-opacity="1" d="M 403.855469 117.316406 L 404.609375 117.316406 L 404.609375 118.121094 L 403.855469 118.121094 Z M 403.855469 117.316406 "/>
<g clip-path="url(#clip-4)">
<path fill-rule="nonzero" fill="rgb(50.195312%, 50.195312%, 50.195312%)" fill-opacity="1" d="M 409.089844 115.40625 C 409.078125 114.242188 408.816406 112.558594 407.34375 112.558594 C 405.871094 112.558594 405.621094 114.269531 405.621094 115.40625 C 405.621094 116.558594 405.882812 118.230469 407.34375 118.230469 C 408.804688 118.230469 409.089844 116.558594 409.089844 115.40625 Z M 408.519531 115.40625 C 408.519531 116.164062 408.457031 117.710938 407.34375 117.710938 C 406.226562 117.710938 406.191406 116.136719 406.191406 115.40625 C 406.191406 114.664062 406.214844 113.066406 407.34375 113.066406 C 408.457031 113.066406 408.519531 114.675781 408.519531 115.40625 Z M 408.519531 115.40625 "/>
</g>
<path fill-rule="nonzero" fill="rgb(0%, 0%, 0%)" fill-opacity="1" d="M 7.382812 5.839844 C 7.382812 4.550781 6.453125 3.660156 5.285156 3.660156 C 4.472656 3.660156 3.898438 3.859375 3.304688 4.195312 L 3.382812 5.027344 C 4.035156 4.570312 4.671875 4.414062 5.285156 4.414062 C 5.878906 4.414062 6.390625 4.910156 6.390625 5.839844 L 6.390625 6.394531 C 4.492188 6.414062 2.890625 6.945312 2.890625 8.054688 C 2.890625 8.589844 3.226562 9.621094 4.332031 9.621094 C 4.511719 9.621094 5.699219 9.597656 6.429688 9.027344 L 6.429688 9.480469 L 7.382812 9.480469 Z M 6.390625 7.816406 C 6.390625 8.054688 6.390625 8.371094 5.957031 8.609375 C 5.601562 8.828125 5.105469 8.847656 4.96875 8.847656 C 4.375 8.847656 3.800781 8.550781 3.800781 8.035156 C 3.800781 7.144531 5.835938 7.066406 6.390625 7.027344 Z M 6.390625 7.816406 "/>
<path fill-rule="nonzero" fill="rgb(0%, 0%, 0%)" fill-opacity="1" d="M 9.882812 12.648438 C 10.28125 12.25 11.132812 11.480469 11.703125 9.9375 C 12.21875 8.589844 12.296875 7.242188 12.296875 6.3125 C 12.296875 2.238281 10.476562 0.574219 9.882812 0 L 9.113281 0 C 9.707031 0.613281 11.308594 2.238281 11.308594 6.3125 C 11.308594 7.027344 11.269531 8.511719 10.753906 9.996094 C 10.242188 11.460938 9.527344 12.210938 9.113281 12.648438 Z M 9.882812 12.648438 "/>
<path fill-rule="nonzero" fill="rgb(0%, 0%, 0%)" fill-opacity="1" d="M 145.796875 0.710938 L 144.847656 0.710938 L 144.847656 9.480469 L 145.835938 9.480469 L 145.835938 8.90625 C 146.132812 9.183594 146.6875 9.621094 147.539062 9.621094 C 148.785156 9.621094 149.875 8.351562 149.875 6.671875 C 149.875 5.105469 149.023438 3.742188 147.835938 3.742188 C 147.34375 3.742188 146.550781 3.859375 145.796875 4.472656 Z M 145.835938 5.246094 C 146.035156 4.949219 146.492188 4.511719 147.183594 4.511719 C 147.9375 4.511719 148.886719 5.046875 148.886719 6.671875 C 148.886719 8.3125 147.835938 8.847656 147.066406 8.847656 C 146.570312 8.847656 146.152344 8.628906 145.835938 8.035156 Z M 145.835938 5.246094 "/>
<path fill-rule="nonzero" fill="rgb(0%, 0%, 0%)" fill-opacity="1" d="M 151.824219 12.648438 C 152.21875 12.25 153.070312 11.480469 153.644531 9.9375 C 154.160156 8.589844 154.238281 7.242188 154.238281 6.3125 C 154.238281 2.238281 152.417969 0.574219 151.824219 0 L 151.050781 0 C 151.644531 0.613281 153.25 2.238281 153.25 6.3125 C 153.25 7.027344 153.210938 8.511719 152.695312 9.996094 C 152.179688 11.460938 151.46875 12.210938 151.050781 12.648438 Z M 151.824219 12.648438 "/>
<path fill-rule="nonzero" fill="rgb(0%, 0%, 0%)" fill-opacity="1" d="M 280.296875 4.195312 C 279.542969 3.78125 279.109375 3.660156 278.335938 3.660156 C 276.59375 3.660156 275.566406 5.1875 275.566406 6.671875 C 275.566406 8.234375 276.714844 9.621094 278.296875 9.621094 C 278.96875 9.621094 279.664062 9.441406 280.355469 8.964844 L 280.277344 8.132812 C 279.621094 8.628906 278.949219 8.808594 278.296875 8.808594 C 277.246094 8.808594 276.554688 7.898438 276.554688 6.671875 C 276.554688 5.679688 277.011719 4.472656 278.355469 4.472656 C 279.007812 4.472656 279.445312 4.570312 280.136719 5.027344 Z M 280.296875 4.195312 "/>
<path fill-rule="nonzero" fill="rgb(0%, 0%, 0%)" fill-opacity="1" d="M 282.203125 12.648438 C 282.597656 12.25 283.449219 11.480469 284.023438 9.9375 C 284.539062 8.589844 284.617188 7.242188 284.617188 6.3125 C 284.617188 2.238281 282.796875 0.574219 282.203125 0 L 281.429688 0 C 282.023438 0.613281 283.628906 2.238281 283.628906 6.3125 C 283.628906 7.027344 283.585938 8.511719 283.074219 9.996094 C 282.558594 11.460938 281.847656 12.210938 281.429688 12.648438 Z M 282.203125 12.648438 "/>
</svg>
