<?xml version="1.0" encoding="UTF-8"?>
<svg xmlns="http://www.w3.org/2000/svg" xmlns:xlink="http://www.w3.org/1999/xlink" width="189.430878pt" height="153.897247pt" viewBox="0 0 189.430878 153.897247">
<defs>
<clipPath id="clip-0">
<path clip-rule="nonzero" d="M 23 24 L 183.578125 24 L 183.578125 130 L 23 130 Z M 23 24 "/>
</clipPath>
<clipPath id="clip-1">
<path clip-rule="nonzero" d="M 24 53 L 183.578125 53 L 183.578125 132.605469 L 24 132.605469 Z M 24 53 "/>
</clipPath>
<clipPath id="clip-2">
<path clip-rule="nonzero" d="M 24 22 L 183.578125 22 L 183.578125 123 L 24 123 Z M 24 22 "/>
</clipPath>
</defs>
<path fill-rule="nonzero" fill="rgb(0%, 0%, 0%)" fill-opacity="1" d="M 76.183594 146.988281 L 76.183594 139.273438 L 75.34375 139.273438 L 72.964844 143.839844 L 70.550781 139.273438 L 69.710938 139.273438 L 69.710938 146.988281 L 70.550781 146.988281 L 70.550781 140.816406 L 72.964844 145.484375 L 75.34375 140.816406 L 75.34375 146.988281 Z M 76.183594 146.988281 "/>
<path fill-rule="nonzero" fill="rgb(0%, 0%, 0%)" fill-opacity="1" d="M 82.195312 144.46875 C 82.195312 143.195312 81.515625 141.828125 79.835938 141.828125 C 78.3125 141.828125 77.457031 143 77.457031 144.46875 C 77.457031 145.851562 78.347656 147.09375 79.835938 147.128906 C 81.339844 147.09375 82.195312 145.886719 82.195312 144.46875 Z M 81.375 144.46875 C 81.375 145.46875 80.761719 146.359375 79.835938 146.359375 C 78.574219 146.34375 78.296875 145.222656 78.296875 144.453125 C 78.296875 143.4375 78.785156 142.597656 79.835938 142.582031 C 80.816406 142.597656 81.375 143.507812 81.375 144.46875 Z M 81.375 144.46875 "/>
<path fill-rule="nonzero" fill="rgb(0%, 0%, 0%)" fill-opacity="1" d="M 83.226562 144.46875 C 83.226562 145.957031 84.207031 146.988281 85.710938 146.988281 L 87.847656 146.988281 L 87.847656 139.273438 L 87.007812 139.273438 L 87.007812 141.953125 L 85.78125 141.953125 C 84.136719 141.953125 83.226562 142.964844 83.226562 144.46875 Z M 84.03125 144.46875 C 84.03125 143.492188 84.660156 142.6875 85.78125 142.6875 L 87.007812 142.6875 L 87.007812 146.253906 L 85.78125 146.253906 C 84.679688 146.253906 84.03125 145.554688 84.03125 144.46875 Z M 84.03125 144.46875 "/>
<path fill-rule="nonzero" fill="rgb(0%, 0%, 0%)" fill-opacity="1" d="M 93.707031 144.46875 L 93.707031 144.382812 C 93.707031 142.929688 93.113281 141.863281 91.449219 141.828125 C 89.960938 141.828125 89.125 143.125 89.125 144.523438 C 89.125 146.042969 90.050781 147.128906 91.589844 147.128906 C 92.289062 147.128906 92.917969 146.972656 93.53125 146.746094 L 93.53125 145.90625 C 92.726562 146.289062 92.605469 146.378906 91.660156 146.378906 C 90.609375 146.378906 89.980469 145.746094 89.980469 144.558594 L 89.980469 144.46875 Z M 92.882812 143.789062 L 90.015625 143.789062 C 90.121094 143.125 90.609375 142.546875 91.449219 142.546875 C 92.324219 142.546875 92.882812 143.089844 92.882812 143.789062 Z M 92.882812 143.789062 "/>
<path fill-rule="nonzero" fill="rgb(0%, 0%, 0%)" fill-opacity="1" d="M 94.796875 139.273438 L 95.617188 139.273438 L 95.617188 146.988281 L 94.796875 146.988281 Z M 94.796875 139.273438 "/>
<path fill-rule="nonzero" fill="rgb(0%, 0%, 0%)" fill-opacity="1" d="M 104.359375 146.816406 L 104.359375 145.992188 C 103.816406 146.273438 103.589844 146.414062 102.890625 146.414062 C 101.667969 146.394531 101.070312 145.675781 101.070312 144.46875 C 101.070312 143.296875 101.683594 142.546875 102.890625 142.546875 C 103.554688 142.582031 103.800781 142.6875 104.359375 142.964844 L 104.359375 142.125 C 103.90625 141.988281 103.414062 141.828125 102.839844 141.828125 C 101.195312 141.828125 100.230469 142.878906 100.230469 144.46875 C 100.265625 146.042969 101.160156 147.128906 102.785156 147.128906 C 103.347656 147.128906 103.941406 146.972656 104.359375 146.816406 Z M 104.359375 146.816406 "/>
<path fill-rule="nonzero" fill="rgb(0%, 0%, 0%)" fill-opacity="1" d="M 109.402344 146.988281 L 109.402344 144.121094 C 109.402344 142.667969 108.789062 141.828125 107.285156 141.828125 C 106.742188 141.828125 106.078125 142.003906 105.589844 142.179688 L 105.589844 143 C 106.09375 142.722656 106.515625 142.546875 107.214844 142.546875 C 108.019531 142.5625 108.632812 142.964844 108.632812 143.804688 L 107.476562 143.804688 C 106.289062 143.804688 105.238281 144.207031 105.238281 145.519531 C 105.273438 146.535156 105.867188 147.128906 106.882812 147.128906 C 107.601562 147.128906 108.246094 146.832031 108.632812 146.324219 L 108.632812 146.988281 Z M 108.632812 144.644531 C 108.632812 145.625 108.175781 146.414062 107.128906 146.414062 C 106.515625 146.414062 106.007812 146.132812 106.007812 145.46875 C 106.007812 144.488281 106.933594 144.488281 107.808594 144.488281 L 108.632812 144.488281 Z M 108.632812 144.644531 "/>
<path fill-rule="nonzero" fill="rgb(0%, 0%, 0%)" fill-opacity="1" d="M 115.496094 144.46875 C 115.496094 143 114.515625 141.953125 113.03125 141.953125 L 110.878906 141.953125 L 110.878906 149.683594 L 111.71875 149.683594 L 111.71875 146.988281 L 112.960938 146.988281 C 114.585938 146.988281 115.496094 145.976562 115.496094 144.46875 Z M 114.691406 144.46875 C 114.691406 145.46875 114.0625 146.253906 112.960938 146.253906 L 111.71875 146.253906 L 111.71875 142.6875 L 112.960938 142.6875 C 114.042969 142.6875 114.691406 143.402344 114.691406 144.46875 Z M 114.691406 144.46875 "/>
<path fill-rule="nonzero" fill="rgb(0%, 0%, 0%)" fill-opacity="1" d="M 120.644531 146.988281 L 120.644531 144.121094 C 120.644531 142.667969 120.03125 141.828125 118.527344 141.828125 C 117.984375 141.828125 117.320312 142.003906 116.832031 142.179688 L 116.832031 143 C 117.339844 142.722656 117.757812 142.546875 118.457031 142.546875 C 119.261719 142.5625 119.875 142.964844 119.875 143.804688 L 118.71875 143.804688 C 117.53125 143.804688 116.480469 144.207031 116.480469 145.519531 C 116.515625 146.535156 117.109375 147.128906 118.125 147.128906 C 118.84375 147.128906 119.488281 146.832031 119.875 146.324219 L 119.875 146.988281 Z M 119.875 144.644531 C 119.875 145.625 119.421875 146.414062 118.371094 146.414062 C 117.757812 146.414062 117.25 146.132812 117.25 145.46875 C 117.25 144.488281 118.179688 144.488281 119.054688 144.488281 L 119.875 144.488281 Z M 119.875 144.644531 "/>
<path fill-rule="nonzero" fill="rgb(0%, 0%, 0%)" fill-opacity="1" d="M 125.988281 146.816406 L 125.988281 145.992188 C 125.445312 146.273438 125.21875 146.414062 124.519531 146.414062 C 123.292969 146.394531 122.699219 145.675781 122.699219 144.46875 C 122.699219 143.296875 123.3125 142.546875 124.519531 142.546875 C 125.183594 142.582031 125.425781 142.6875 125.988281 142.964844 L 125.988281 142.125 C 125.53125 141.988281 125.042969 141.828125 124.464844 141.828125 C 122.820312 141.828125 121.859375 142.878906 121.859375 144.46875 C 121.894531 146.042969 122.785156 147.128906 124.414062 147.128906 C 124.972656 147.128906 125.566406 146.972656 125.988281 146.816406 Z M 125.988281 146.816406 "/>
<path fill-rule="nonzero" fill="rgb(0%, 0%, 0%)" fill-opacity="1" d="M 128.003906 146.988281 L 128.003906 141.953125 L 127.164062 141.953125 L 127.164062 146.988281 Z M 127.582031 139.273438 C 127.320312 139.273438 127.09375 139.519531 127.09375 139.78125 C 127.09375 140.0625 127.320312 140.308594 127.582031 140.308594 C 127.863281 140.308594 128.074219 140.0625 128.074219 139.78125 C 128.074219 139.519531 127.863281 139.273438 127.582031 139.273438 Z M 127.582031 139.273438 "/>
<path fill-rule="nonzero" fill="rgb(0%, 0%, 0%)" fill-opacity="1" d="M 132.355469 146.988281 L 132.355469 146.273438 L 131.480469 146.273438 C 130.691406 146.273438 130.554688 146.078125 130.554688 145.34375 L 130.554688 142.617188 L 132.039062 142.617188 L 132.039062 141.953125 L 130.554688 141.953125 L 130.554688 140.515625 L 130.203125 140.515625 L 129.730469 141.953125 L 129.136719 141.953125 L 129.136719 142.617188 L 129.730469 142.617188 L 129.730469 145.34375 C 129.730469 146.605469 130.238281 146.988281 131.480469 146.988281 Z M 132.355469 146.988281 "/>
<path fill-rule="nonzero" fill="rgb(0%, 0%, 0%)" fill-opacity="1" d="M 137.722656 141.953125 L 136.953125 141.953125 L 135.398438 145.640625 L 133.578125 141.953125 L 132.792969 141.953125 L 134.976562 146.464844 L 134.121094 148.492188 C 133.980469 148.84375 133.507812 149.105469 133.28125 149.105469 L 133.5625 149.683594 C 133.980469 149.648438 134.417969 149.351562 134.699219 148.914062 Z M 137.722656 141.953125 "/>
<path fill="none" stroke-width="0.850394" stroke-linecap="butt" stroke-linejoin="miter" stroke="rgb(50.195312%, 50.195312%, 50.195312%)" stroke-opacity="1" stroke-miterlimit="4" d="M 24.648438 132.941406 L 24.648438 135.46875 "/>
<path fill="none" stroke-width="0.850394" stroke-linecap="butt" stroke-linejoin="miter" stroke="rgb(50.195312%, 50.195312%, 50.195312%)" stroke-opacity="1" stroke-miterlimit="4" d="M 82.253906 132.941406 L 82.253906 135.46875 "/>
<path fill="none" stroke-width="0.850394" stroke-linecap="butt" stroke-linejoin="miter" stroke="rgb(50.195312%, 50.195312%, 50.195312%)" stroke-opacity="1" stroke-miterlimit="4" d="M 183.359375 132.941406 L 183.359375 135.46875 "/>
<path fill="none" stroke-width="0.850394" stroke-linecap="butt" stroke-linejoin="miter" stroke="rgb(50.195312%, 50.195312%, 50.195312%)" stroke-opacity="1" stroke-miterlimit="4" d="M 38.921875 134.664062 L 38.921875 132.941406 "/>
<path fill="none" stroke-width="0.850394" stroke-linecap="butt" stroke-linejoin="miter" stroke="rgb(50.195312%, 50.195312%, 50.195312%)" stroke-opacity="1" stroke-miterlimit="4" d="M 53.363281 134.664062 L 53.363281 132.941406 "/>
<path fill="none" stroke-width="0.850394" stroke-linecap="butt" stroke-linejoin="miter" stroke="rgb(50.195312%, 50.195312%, 50.195312%)" stroke-opacity="1" stroke-miterlimit="4" d="M 67.808594 134.664062 L 67.808594 132.941406 "/>
<path fill="none" stroke-width="0.850394" stroke-linecap="butt" stroke-linejoin="miter" stroke="rgb(50.195312%, 50.195312%, 50.195312%)" stroke-opacity="1" stroke-miterlimit="4" d="M 96.695312 134.664062 L 96.695312 132.941406 "/>
<path fill="none" stroke-width="0.850394" stroke-linecap="butt" stroke-linejoin="miter" stroke="rgb(50.195312%, 50.195312%, 50.195312%)" stroke-opacity="1" stroke-miterlimit="4" d="M 111.140625 134.664062 L 111.140625 132.941406 "/>
<path fill="none" stroke-width="0.850394" stroke-linecap="butt" stroke-linejoin="miter" stroke="rgb(50.195312%, 50.195312%, 50.195312%)" stroke-opacity="1" stroke-miterlimit="4" d="M 125.582031 134.664062 L 125.582031 132.941406 "/>
<path fill="none" stroke-width="0.850394" stroke-linecap="butt" stroke-linejoin="miter" stroke="rgb(50.195312%, 50.195312%, 50.195312%)" stroke-opacity="1" stroke-miterlimit="4" d="M 140.027344 134.664062 L 140.027344 132.941406 "/>
<path fill="none" stroke-width="0.850394" stroke-linecap="butt" stroke-linejoin="miter" stroke="rgb(50.195312%, 50.195312%, 50.195312%)" stroke-opacity="1" stroke-miterlimit="4" d="M 168.914062 134.664062 L 168.914062 132.941406 "/>
<path fill="none" stroke-width="0.850394" stroke-linecap="butt" stroke-linejoin="miter" stroke="rgb(50.195312%, 50.195312%, 50.195312%)" stroke-opacity="1" stroke-miterlimit="4" d="M 25.203125 4.964844 L 22.675781 4.964844 "/>
<path fill="none" stroke-width="0.850394" stroke-linecap="butt" stroke-linejoin="miter" stroke="rgb(50.195312%, 50.195312%, 50.195312%)" stroke-opacity="1" stroke-miterlimit="4" d="M 25.203125 133.140625 L 22.675781 133.140625 "/>
<path fill="none" stroke-width="0.850394" stroke-linecap="butt" stroke-linejoin="miter" stroke="rgb(50.195312%, 50.195312%, 50.195312%)" stroke-opacity="1" stroke-miterlimit="4" d="M 24.800781 30.601562 L 23.078125 30.601562 "/>
<path fill="none" stroke-width="0.850394" stroke-linecap="butt" stroke-linejoin="miter" stroke="rgb(50.195312%, 50.195312%, 50.195312%)" stroke-opacity="1" stroke-miterlimit="4" d="M 24.800781 56.234375 L 23.078125 56.234375 "/>
<path fill="none" stroke-width="0.850394" stroke-linecap="butt" stroke-linejoin="miter" stroke="rgb(50.195312%, 50.195312%, 50.195312%)" stroke-opacity="1" stroke-miterlimit="4" d="M 24.800781 81.871094 L 23.078125 81.871094 "/>
<path fill="none" stroke-width="0.850394" stroke-linecap="butt" stroke-linejoin="miter" stroke="rgb(50.195312%, 50.195312%, 50.195312%)" stroke-opacity="1" stroke-miterlimit="4" d="M 24.800781 107.507812 L 23.078125 107.507812 "/>
<g clip-path="url(#clip-0)">
<path fill="none" stroke-width="1.42297" stroke-linecap="square" stroke-linejoin="round" stroke="rgb(62.744141%, 85.096741%, 82.743835%)" stroke-opacity="1" stroke-miterlimit="4" d="M 25.018509 128.535156 L 39.567359 126.503906 L 54.112271 125.675781 L 68.661121 124.191406 L 83.209971 121.949219 L 97.75882 120.140625 L 112.303733 118 L 126.852582 114.414062 L 141.401432 110.128906 L 155.950282 104.308594 L 170.499132 91.1875 L 185.044044 25.382812 " transform="matrix(0.992078, 0, 0, 1, 0, 0)"/>
</g>
<g clip-path="url(#clip-1)">
<path fill="none" stroke-width="1.424738" stroke-linecap="square" stroke-linejoin="round" stroke="rgb(81.959534%, 51.371765%, 38.430786%)" stroke-opacity="1" stroke-miterlimit="4" d="M 25.479371 54.101562 L 40.028861 54.09375 L 54.574404 117.339844 L 69.123894 131.402344 L 83.669437 129.871094 L 98.218928 131.230469 L 112.764471 132.019531 L 127.313961 132.269531 L 141.863451 132.386719 L 156.408994 132.457031 L 170.958485 132.4375 L 185.504028 132.5 " transform="matrix(0.989618, 0, 0, 1, 0, 0)"/>
</g>
<g clip-path="url(#clip-2)">
<path fill="none" stroke-width="1.424859" stroke-linecap="square" stroke-linejoin="round" stroke="rgb(25.881958%, 29.411316%, 30.979919%)" stroke-opacity="1" stroke-dasharray="2.849718 2.849718" stroke-miterlimit="4" d="M 25.511332 48.105469 L 40.059345 46.066406 L 54.607358 108.484375 L 69.15537 121.0625 L 83.703383 117.292969 L 98.251396 116.839844 L 112.799409 115.488281 L 127.347422 112.152344 L 141.891486 107.984375 L 156.439499 102.238281 L 170.987512 89.09375 L 185.535525 23.351562 " transform="matrix(0.98945, 0, 0, 1, 0, 0)"/>
</g>
<path fill="none" stroke-width="0.850394" stroke-linecap="butt" stroke-linejoin="miter" stroke="rgb(50.195312%, 50.195312%, 50.195312%)" stroke-opacity="1" stroke-miterlimit="4" d="M 154.472656 132.941406 L 154.472656 135.46875 "/>
<path fill="none" stroke-width="0.850394" stroke-linecap="butt" stroke-linejoin="round" stroke="rgb(1.176453%, 0%, 0%)" stroke-opacity="1" stroke-miterlimit="4" d="M 24.664062 4.976562 L 183.324219 4.976562 L 183.324219 133.222656 L 24.664062 133.222656 Z M 24.664062 4.976562 "/>
<path fill-rule="nonzero" fill="rgb(46.665955%, 23.529053%, 13.725281%)" fill-opacity="1" d="M 34.292969 112.105469 C 34.292969 110.59375 33.378906 109.574219 31.742188 109.574219 L 30.492188 109.574219 L 30.492188 106.882812 L 29.648438 106.882812 L 29.648438 114.640625 L 31.8125 114.640625 C 33.308594 114.640625 34.292969 113.601562 34.292969 112.105469 Z M 33.484375 112.105469 C 33.484375 113.195312 32.832031 113.898438 31.742188 113.898438 L 30.492188 113.898438 L 30.492188 110.3125 L 31.742188 110.3125 C 32.851562 110.3125 33.484375 111.121094 33.484375 112.105469 Z M 33.484375 112.105469 "/>
<path fill-rule="nonzero" fill="rgb(46.665955%, 23.529053%, 13.725281%)" fill-opacity="1" d="M 36.425781 114.640625 L 36.425781 109.574219 L 35.582031 109.574219 L 35.582031 114.640625 Z M 36.003906 106.882812 C 35.742188 106.882812 35.511719 107.128906 35.511719 107.390625 C 35.511719 107.671875 35.742188 107.917969 36.003906 107.917969 C 36.285156 107.917969 36.496094 107.671875 36.496094 107.390625 C 36.496094 107.128906 36.285156 106.882812 36.003906 106.882812 Z M 36.003906 106.882812 "/>
<path fill-rule="nonzero" fill="rgb(46.665955%, 23.529053%, 13.725281%)" fill-opacity="1" d="M 41.859375 114.640625 L 41.859375 111.753906 C 41.859375 110.292969 41.242188 109.449219 39.730469 109.449219 C 39.183594 109.449219 38.515625 109.625 38.023438 109.800781 L 38.023438 110.628906 C 38.535156 110.347656 38.957031 110.171875 39.660156 110.171875 C 40.46875 110.1875 41.085938 110.59375 41.085938 111.4375 L 39.925781 111.4375 C 38.726562 111.4375 37.671875 111.84375 37.671875 113.160156 C 37.707031 114.179688 38.304688 114.78125 39.324219 114.78125 C 40.046875 114.78125 40.699219 114.480469 41.085938 113.96875 L 41.085938 114.640625 Z M 41.085938 112.28125 C 41.085938 113.265625 40.628906 114.058594 39.574219 114.058594 C 38.957031 114.058594 38.445312 113.777344 38.445312 113.109375 C 38.445312 112.125 39.378906 112.125 40.257812 112.125 L 41.085938 112.125 Z M 41.085938 112.28125 "/>
<path fill-rule="nonzero" fill="rgb(46.665955%, 23.529053%, 13.725281%)" fill-opacity="1" d="M 47.054688 113.230469 C 47.054688 112.230469 46.371094 111.914062 45.453125 111.738281 L 45.101562 111.667969 C 44.609375 111.5625 43.890625 111.457031 43.890625 110.910156 C 43.925781 110.277344 44.664062 110.152344 45.226562 110.152344 C 46.125 110.1875 46.050781 110.242188 46.808594 110.558594 L 46.808594 109.730469 C 46.335938 109.539062 45.734375 109.449219 45.121094 109.449219 C 44.117188 109.449219 43.132812 109.820312 43.132812 110.945312 C 43.148438 111.859375 43.765625 112.210938 44.609375 112.371094 L 44.925781 112.441406 C 45.542969 112.582031 46.246094 112.652344 46.246094 113.300781 C 46.210938 113.933594 45.488281 114.058594 44.925781 114.058594 C 43.996094 114.039062 43.855469 113.933594 43.042969 113.546875 L 43.042969 114.464844 C 43.519531 114.585938 44.347656 114.78125 44.910156 114.78125 C 45.894531 114.78125 47.054688 114.410156 47.054688 113.230469 Z M 47.054688 113.230469 "/>
<path fill-rule="nonzero" fill="rgb(20.391846%, 51.371765%, 47.842407%)" fill-opacity="1" d="M 131.742188 118.175781 L 130.96875 118.175781 L 129.277344 121.730469 L 127.570312 118.175781 L 126.796875 118.175781 L 129.277344 123.402344 Z M 131.742188 118.175781 "/>
<path fill-rule="nonzero" fill="rgb(20.391846%, 51.371765%, 47.842407%)" fill-opacity="1" d="M 136.402344 123.242188 L 136.402344 120.359375 C 136.402344 118.898438 135.785156 118.054688 134.273438 118.054688 C 133.726562 118.054688 133.058594 118.230469 132.566406 118.40625 L 132.566406 119.234375 C 133.078125 118.953125 133.5 118.777344 134.203125 118.777344 C 135.011719 118.792969 135.628906 119.199219 135.628906 120.042969 L 134.464844 120.042969 C 133.269531 120.042969 132.214844 120.445312 132.214844 121.765625 C 132.25 122.785156 132.847656 123.382812 133.867188 123.382812 C 134.589844 123.382812 135.242188 123.085938 135.628906 122.574219 L 135.628906 123.242188 Z M 135.628906 120.886719 C 135.628906 121.871094 135.171875 122.664062 134.113281 122.664062 C 133.5 122.664062 132.988281 122.382812 132.988281 121.714844 C 132.988281 120.726562 133.921875 120.726562 134.800781 120.726562 L 135.628906 120.726562 Z M 135.628906 120.886719 "/>
<path fill-rule="nonzero" fill="rgb(20.391846%, 51.371765%, 47.842407%)" fill-opacity="1" d="M 140.699219 119.199219 L 140.964844 118.386719 C 140.839844 118.246094 140.296875 118.105469 139.925781 118.105469 C 139.398438 118.125 138.960938 118.386719 138.730469 118.863281 L 138.730469 118.175781 L 137.886719 118.175781 L 137.886719 123.242188 L 138.730469 123.242188 L 138.730469 120.570312 C 138.730469 120.550781 138.730469 120.535156 138.730469 120.535156 C 138.730469 119.796875 139.117188 118.828125 139.910156 118.828125 L 139.960938 118.828125 C 140.226562 118.828125 140.4375 118.988281 140.699219 119.199219 Z M 140.699219 119.199219 "/>
<path fill-rule="nonzero" fill="rgb(20.391846%, 51.371765%, 47.842407%)" fill-opacity="1" d="M 142.65625 123.242188 L 142.65625 118.175781 L 141.8125 118.175781 L 141.8125 123.242188 Z M 142.234375 115.484375 C 141.96875 115.484375 141.742188 115.734375 141.742188 115.996094 C 141.742188 116.277344 141.96875 116.523438 142.234375 116.523438 C 142.515625 116.523438 142.726562 116.277344 142.726562 115.996094 C 142.726562 115.734375 142.515625 115.484375 142.234375 115.484375 Z M 142.234375 115.484375 "/>
<path fill-rule="nonzero" fill="rgb(20.391846%, 51.371765%, 47.842407%)" fill-opacity="1" d="M 148.085938 123.242188 L 148.085938 120.359375 C 148.085938 118.898438 147.472656 118.054688 145.960938 118.054688 C 145.414062 118.054688 144.746094 118.230469 144.253906 118.40625 L 144.253906 119.234375 C 144.761719 118.953125 145.183594 118.777344 145.890625 118.777344 C 146.699219 118.792969 147.3125 119.199219 147.3125 120.042969 L 146.152344 120.042969 C 144.957031 120.042969 143.902344 120.445312 143.902344 121.765625 C 143.9375 122.785156 144.535156 123.382812 145.554688 123.382812 C 146.277344 123.382812 146.925781 123.085938 147.3125 122.574219 L 147.3125 123.242188 Z M 147.3125 120.886719 C 147.3125 121.871094 146.855469 122.664062 145.800781 122.664062 C 145.183594 122.664062 144.675781 122.382812 144.675781 121.714844 C 144.675781 120.726562 145.609375 120.726562 146.488281 120.726562 L 147.3125 120.726562 Z M 147.3125 120.886719 "/>
<path fill-rule="nonzero" fill="rgb(20.391846%, 51.371765%, 47.842407%)" fill-opacity="1" d="M 153.933594 123.242188 L 153.933594 120.183594 C 153.933594 118.988281 153.425781 118.054688 152.125 118.054688 C 151.472656 118.054688 150.804688 118.300781 150.398438 118.863281 L 150.398438 118.175781 L 149.574219 118.175781 L 149.574219 123.242188 L 150.398438 123.242188 L 150.398438 120.375 C 150.433594 119.410156 151.03125 118.792969 151.929688 118.792969 C 152.808594 118.792969 153.125 119.320312 153.125 120.21875 L 153.125 123.242188 Z M 153.933594 123.242188 "/>
<path fill-rule="nonzero" fill="rgb(20.391846%, 51.371765%, 47.842407%)" fill-opacity="1" d="M 159.304688 123.066406 L 159.304688 122.242188 C 158.757812 122.523438 158.527344 122.664062 157.824219 122.664062 C 156.59375 122.644531 155.996094 121.925781 155.996094 120.710938 C 155.996094 119.53125 156.613281 118.777344 157.824219 118.777344 C 158.492188 118.8125 158.742188 118.917969 159.304688 119.199219 L 159.304688 118.351562 C 158.847656 118.210938 158.351562 118.054688 157.773438 118.054688 C 156.121094 118.054688 155.152344 119.109375 155.152344 120.710938 C 155.1875 122.292969 156.085938 123.382812 157.71875 123.382812 C 158.28125 123.382812 158.882812 123.226562 159.304688 123.066406 Z M 159.304688 123.066406 "/>
<path fill-rule="nonzero" fill="rgb(20.391846%, 51.371765%, 47.842407%)" fill-opacity="1" d="M 164.828125 120.710938 L 164.828125 120.621094 C 164.828125 119.164062 164.230469 118.089844 162.5625 118.054688 C 161.066406 118.054688 160.222656 119.355469 160.222656 120.761719 C 160.222656 122.292969 161.152344 123.382812 162.703125 123.382812 C 163.40625 123.382812 164.039062 123.226562 164.652344 122.996094 L 164.652344 122.152344 C 163.84375 122.539062 163.722656 122.628906 162.773438 122.628906 C 161.714844 122.628906 161.082031 121.996094 161.082031 120.796875 L 161.082031 120.710938 Z M 164.003906 120.023438 L 161.117188 120.023438 C 161.222656 119.355469 161.714844 118.777344 162.5625 118.777344 C 163.441406 118.777344 164.003906 119.320312 164.003906 120.023438 Z M 164.003906 120.023438 "/>
<path fill-rule="nonzero" fill="rgb(25.881958%, 29.411316%, 30.979919%)" fill-opacity="1" d="M 87.203125 101.0625 C 87.203125 99.550781 86.289062 98.527344 84.652344 98.527344 L 83.402344 98.527344 L 83.402344 95.835938 L 82.558594 95.835938 L 82.558594 103.597656 L 84.722656 103.597656 C 86.21875 103.597656 87.203125 102.558594 87.203125 101.0625 Z M 86.394531 101.0625 C 86.394531 102.152344 85.742188 102.855469 84.652344 102.855469 L 83.402344 102.855469 L 83.402344 99.265625 L 84.652344 99.265625 C 85.757812 99.265625 86.394531 100.078125 86.394531 101.0625 Z M 86.394531 101.0625 "/>
<path fill-rule="nonzero" fill="rgb(25.881958%, 29.411316%, 30.979919%)" fill-opacity="1" d="M 89.335938 103.597656 L 89.335938 98.527344 L 88.492188 98.527344 L 88.492188 103.597656 Z M 88.914062 95.835938 C 88.648438 95.835938 88.421875 96.082031 88.421875 96.347656 C 88.421875 96.628906 88.648438 96.875 88.914062 96.875 C 89.195312 96.875 89.40625 96.628906 89.40625 96.347656 C 89.40625 96.082031 89.195312 95.835938 88.914062 95.835938 Z M 88.914062 95.835938 "/>
<path fill-rule="nonzero" fill="rgb(25.881958%, 29.411316%, 30.979919%)" fill-opacity="1" d="M 94.769531 103.597656 L 94.769531 100.710938 C 94.769531 99.25 94.15625 98.40625 92.640625 98.40625 C 92.097656 98.40625 91.425781 98.582031 90.933594 98.757812 L 90.933594 99.585938 C 91.445312 99.300781 91.867188 99.125 92.570312 99.125 C 93.378906 99.144531 93.996094 99.550781 93.996094 100.394531 L 92.835938 100.394531 C 91.636719 100.394531 90.582031 100.796875 90.582031 102.117188 C 90.617188 103.136719 91.214844 103.738281 92.238281 103.738281 C 92.957031 103.738281 93.609375 103.4375 93.996094 102.925781 L 93.996094 103.597656 Z M 93.996094 101.238281 C 93.996094 102.222656 93.539062 103.015625 92.484375 103.015625 C 91.867188 103.015625 91.355469 102.734375 91.355469 102.066406 C 91.355469 101.078125 92.289062 101.078125 93.167969 101.078125 L 93.996094 101.078125 Z M 93.996094 101.238281 "/>
<path fill-rule="nonzero" fill="rgb(25.881958%, 29.411316%, 30.979919%)" fill-opacity="1" d="M 99.96875 102.1875 C 99.96875 101.183594 99.28125 100.867188 98.367188 100.691406 L 98.015625 100.621094 C 97.523438 100.515625 96.800781 100.410156 96.800781 99.867188 C 96.835938 99.230469 97.574219 99.109375 98.136719 99.109375 C 99.035156 99.144531 98.964844 99.195312 99.722656 99.515625 L 99.722656 98.6875 C 99.246094 98.492188 98.648438 98.40625 98.03125 98.40625 C 97.03125 98.40625 96.042969 98.773438 96.042969 99.902344 C 96.0625 100.816406 96.679688 101.167969 97.523438 101.324219 L 97.839844 101.398438 C 98.457031 101.539062 99.160156 101.609375 99.160156 102.257812 C 99.125 102.890625 98.402344 103.015625 97.839844 103.015625 C 96.90625 102.996094 96.765625 102.890625 95.957031 102.503906 L 95.957031 103.421875 C 96.433594 103.542969 97.257812 103.738281 97.820312 103.738281 C 98.808594 103.738281 99.96875 103.367188 99.96875 102.1875 Z M 99.96875 102.1875 "/>
<path fill-rule="nonzero" fill="rgb(25.881958%, 29.411316%, 30.979919%)" fill-opacity="1" d="M 106.375 101.042969 L 106.375 100.339844 L 103.789062 100.339844 L 103.789062 97.789062 L 103.140625 97.789062 L 103.140625 100.339844 L 100.550781 100.339844 L 100.550781 101.042969 L 103.140625 101.042969 L 103.140625 103.597656 L 103.789062 103.597656 L 103.789062 101.042969 Z M 106.375 101.042969 "/>
<path fill-rule="nonzero" fill="rgb(25.881958%, 29.411316%, 30.979919%)" fill-opacity="1" d="M 111.671875 98.527344 L 110.898438 98.527344 L 109.207031 102.082031 L 107.503906 98.527344 L 106.726562 98.527344 L 109.207031 103.753906 Z M 111.671875 98.527344 "/>
<path fill-rule="nonzero" fill="rgb(25.881958%, 29.411316%, 30.979919%)" fill-opacity="1" d="M 116.335938 103.597656 L 116.335938 100.710938 C 116.335938 99.25 115.71875 98.40625 114.203125 98.40625 C 113.660156 98.40625 112.992188 98.582031 112.5 98.757812 L 112.5 99.585938 C 113.007812 99.300781 113.429688 99.125 114.132812 99.125 C 114.945312 99.144531 115.558594 99.550781 115.558594 100.394531 L 114.398438 100.394531 C 113.203125 100.394531 112.144531 100.796875 112.144531 102.117188 C 112.179688 103.136719 112.78125 103.738281 113.800781 103.738281 C 114.523438 103.738281 115.171875 103.4375 115.558594 102.925781 L 115.558594 103.597656 Z M 115.558594 101.238281 C 115.558594 102.222656 115.101562 103.015625 114.046875 103.015625 C 113.429688 103.015625 112.921875 102.734375 112.921875 102.066406 C 112.921875 101.078125 113.851562 101.078125 114.734375 101.078125 L 115.558594 101.078125 Z M 115.558594 101.238281 "/>
<path fill-rule="nonzero" fill="rgb(25.881958%, 29.411316%, 30.979919%)" fill-opacity="1" d="M 120.636719 99.550781 L 120.898438 98.738281 C 120.777344 98.597656 120.230469 98.457031 119.859375 98.457031 C 119.332031 98.476562 118.894531 98.738281 118.664062 99.214844 L 118.664062 98.527344 L 117.820312 98.527344 L 117.820312 103.597656 L 118.664062 103.597656 L 118.664062 100.921875 C 118.664062 100.902344 118.664062 100.886719 118.664062 100.886719 C 118.664062 100.148438 119.050781 99.179688 119.84375 99.179688 L 119.894531 99.179688 C 120.160156 99.179688 120.371094 99.335938 120.636719 99.550781 Z M 120.636719 99.550781 "/>
<path fill-rule="nonzero" fill="rgb(25.881958%, 29.411316%, 30.979919%)" fill-opacity="1" d="M 122.589844 103.597656 L 122.589844 98.527344 L 121.746094 98.527344 L 121.746094 103.597656 Z M 122.167969 95.835938 C 121.90625 95.835938 121.675781 96.082031 121.675781 96.347656 C 121.675781 96.628906 121.90625 96.875 122.167969 96.875 C 122.449219 96.875 122.660156 96.628906 122.660156 96.347656 C 122.660156 96.082031 122.449219 95.835938 122.167969 95.835938 Z M 122.167969 95.835938 "/>
<path fill-rule="nonzero" fill="rgb(25.881958%, 29.411316%, 30.979919%)" fill-opacity="1" d="M 128.023438 103.597656 L 128.023438 100.710938 C 128.023438 99.25 127.410156 98.40625 125.894531 98.40625 C 125.351562 98.40625 124.679688 98.582031 124.1875 98.757812 L 124.1875 99.585938 C 124.699219 99.300781 125.121094 99.125 125.824219 99.125 C 126.632812 99.144531 127.25 99.550781 127.25 100.394531 L 126.089844 100.394531 C 124.894531 100.394531 123.835938 100.796875 123.835938 102.117188 C 123.871094 103.136719 124.46875 103.738281 125.492188 103.738281 C 126.210938 103.738281 126.863281 103.4375 127.25 102.925781 L 127.25 103.597656 Z M 127.25 101.238281 C 127.25 102.222656 126.792969 103.015625 125.738281 103.015625 C 125.121094 103.015625 124.609375 102.734375 124.609375 102.066406 C 124.609375 101.078125 125.542969 101.078125 126.421875 101.078125 L 127.25 101.078125 Z M 127.25 101.238281 "/>
<path fill-rule="nonzero" fill="rgb(25.881958%, 29.411316%, 30.979919%)" fill-opacity="1" d="M 133.875 103.597656 L 133.875 100.535156 C 133.875 99.335938 133.363281 98.40625 132.0625 98.40625 C 131.410156 98.40625 130.742188 98.652344 130.335938 99.214844 L 130.335938 98.527344 L 129.511719 98.527344 L 129.511719 103.597656 L 130.335938 103.597656 L 130.335938 100.726562 C 130.371094 99.761719 130.96875 99.144531 131.867188 99.144531 C 132.746094 99.144531 133.066406 99.671875 133.066406 100.570312 L 133.066406 103.597656 Z M 133.875 103.597656 "/>
<path fill-rule="nonzero" fill="rgb(25.881958%, 29.411316%, 30.979919%)" fill-opacity="1" d="M 139.242188 103.421875 L 139.242188 102.59375 C 138.699219 102.875 138.46875 103.015625 137.765625 103.015625 C 136.535156 102.996094 135.9375 102.277344 135.9375 101.0625 C 135.9375 99.882812 136.550781 99.125 137.765625 99.125 C 138.433594 99.160156 138.679688 99.265625 139.242188 99.550781 L 139.242188 98.703125 C 138.785156 98.5625 138.292969 98.40625 137.714844 98.40625 C 136.058594 98.40625 135.089844 99.460938 135.089844 101.0625 C 135.125 102.644531 136.023438 103.738281 137.660156 103.738281 C 138.222656 103.738281 138.820312 103.578125 139.242188 103.421875 Z M 139.242188 103.421875 "/>
<path fill-rule="nonzero" fill="rgb(25.881958%, 29.411316%, 30.979919%)" fill-opacity="1" d="M 144.773438 101.0625 L 144.773438 100.972656 C 144.773438 99.515625 144.175781 98.441406 142.503906 98.40625 C 141.007812 98.40625 140.164062 99.707031 140.164062 101.113281 C 140.164062 102.644531 141.09375 103.738281 142.644531 103.738281 C 143.347656 103.738281 143.980469 103.578125 144.597656 103.351562 L 144.597656 102.503906 C 143.789062 102.890625 143.664062 102.980469 142.714844 102.980469 C 141.660156 102.980469 141.023438 102.347656 141.023438 101.148438 L 141.023438 101.0625 Z M 143.945312 100.375 L 141.058594 100.375 C 141.164062 99.707031 141.660156 99.125 142.503906 99.125 C 143.382812 99.125 143.945312 99.671875 143.945312 100.375 Z M 143.945312 100.375 "/>
<path fill-rule="nonzero" fill="rgb(50.195312%, 50.195312%, 50.195312%)" fill-opacity="1" d="M 14.726562 132.898438 C 14.714844 131.734375 14.453125 130.050781 12.980469 130.050781 C 11.507812 130.050781 11.257812 131.757812 11.257812 132.898438 C 11.257812 134.050781 11.519531 135.722656 12.980469 135.722656 C 14.441406 135.722656 14.726562 134.050781 14.726562 132.898438 Z M 14.15625 132.898438 C 14.15625 133.65625 14.09375 135.203125 12.980469 135.203125 C 11.867188 135.203125 11.828125 133.628906 11.828125 132.898438 C 11.828125 132.15625 11.851562 130.558594 12.980469 130.558594 C 14.09375 130.558594 14.15625 132.167969 14.15625 132.898438 Z M 14.15625 132.898438 "/>
<path fill-rule="nonzero" fill="rgb(50.195312%, 50.195312%, 50.195312%)" fill-opacity="1" d="M 15.738281 134.804688 L 16.496094 134.804688 L 16.496094 135.613281 L 15.738281 135.613281 Z M 15.738281 134.804688 "/>
<path fill-rule="nonzero" fill="rgb(50.195312%, 50.195312%, 50.195312%)" fill-opacity="1" d="M 20.972656 132.898438 C 20.960938 131.734375 20.703125 130.050781 19.226562 130.050781 C 17.753906 130.050781 17.503906 131.757812 17.503906 132.898438 C 17.503906 134.050781 17.765625 135.722656 19.226562 135.722656 C 20.6875 135.722656 20.972656 134.050781 20.972656 132.898438 Z M 20.402344 132.898438 C 20.402344 133.65625 20.34375 135.203125 19.226562 135.203125 C 18.113281 135.203125 18.074219 133.628906 18.074219 132.898438 C 18.074219 132.15625 18.101562 130.558594 19.226562 130.558594 C 20.34375 130.558594 20.402344 132.167969 20.402344 132.898438 Z M 20.402344 132.898438 "/>
<path fill-rule="nonzero" fill="rgb(50.195312%, 50.195312%, 50.195312%)" fill-opacity="1" d="M 15.0625 5.074219 C 15.050781 3.910156 14.792969 2.226562 13.316406 2.226562 C 11.84375 2.226562 11.59375 3.933594 11.59375 5.074219 C 11.59375 6.226562 11.855469 7.898438 13.316406 7.898438 C 14.777344 7.898438 15.0625 6.226562 15.0625 5.074219 Z M 14.492188 5.074219 C 14.492188 5.828125 14.433594 7.378906 13.316406 7.378906 C 12.203125 7.378906 12.164062 5.804688 12.164062 5.074219 C 12.164062 4.332031 12.191406 2.734375 13.316406 2.734375 C 14.433594 2.734375 14.492188 4.34375 14.492188 5.074219 Z M 14.492188 5.074219 "/>
<path fill-rule="nonzero" fill="rgb(50.195312%, 50.195312%, 50.195312%)" fill-opacity="1" d="M 16.078125 6.980469 L 16.832031 6.980469 L 16.832031 7.785156 L 16.078125 7.785156 Z M 16.078125 6.980469 "/>
<path fill-rule="nonzero" fill="rgb(50.195312%, 50.195312%, 50.195312%)" fill-opacity="1" d="M 20.914062 6.050781 C 20.902344 4.9375 20.207031 4.207031 19.09375 4.207031 C 18.945312 4.21875 18.609375 4.257812 18.414062 4.332031 L 18.609375 2.894531 L 20.542969 2.894531 L 20.542969 2.324219 L 18.214844 2.324219 L 17.878906 5.023438 C 18.3125 4.8125 18.414062 4.765625 18.96875 4.765625 C 19.773438 4.765625 20.34375 5.210938 20.34375 6.050781 C 20.34375 6.917969 19.785156 7.339844 18.96875 7.339844 C 18.425781 7.339844 18.066406 7.230469 17.667969 6.980469 L 17.667969 7.664062 C 18.027344 7.796875 18.5625 7.898438 18.980469 7.898438 C 20.160156 7.898438 20.914062 7.253906 20.914062 6.050781 Z M 20.914062 6.050781 "/>
<path fill-rule="nonzero" fill="rgb(50.195312%, 50.195312%, 50.195312%)" fill-opacity="1" d="M 24.9375 142.308594 L 24.9375 136.84375 L 24.28125 136.84375 L 23.5 137.476562 L 23.5 138.097656 L 24.316406 137.425781 L 24.316406 142.308594 Z M 24.9375 142.308594 "/>
<path fill-rule="nonzero" fill="rgb(50.195312%, 50.195312%, 50.195312%)" fill-opacity="1" d="M 181.707031 142.320312 L 181.707031 136.859375 L 181.050781 136.859375 L 180.269531 137.492188 L 180.269531 138.109375 L 181.089844 137.441406 L 181.089844 142.320312 Z M 181.707031 142.320312 "/>
<path fill-rule="nonzero" fill="rgb(50.195312%, 50.195312%, 50.195312%)" fill-opacity="1" d="M 185.828125 142.320312 L 185.828125 141.753906 L 183.378906 141.753906 L 185.246094 139.644531 C 185.558594 139.210938 185.792969 138.878906 185.792969 138.308594 C 185.792969 137.292969 185.050781 136.761719 184.109375 136.761719 C 183.574219 136.761719 183.128906 136.921875 182.683594 137.105469 L 182.683594 137.8125 C 183.128906 137.527344 183.574219 137.316406 184.121094 137.316406 C 184.738281 137.316406 185.222656 137.703125 185.222656 138.347656 C 185.222656 138.777344 184.875 139.3125 184.589844 139.609375 C 184.503906 139.734375 182.78125 141.617188 182.648438 141.753906 L 182.648438 142.320312 Z M 185.828125 142.320312 "/>
<path fill-rule="nonzero" fill="rgb(0%, 0%, 0%)" fill-opacity="1" d="M 15.734375 107.8125 L 8.019531 107.8125 L 8.019531 108.652344 L 12.585938 111.03125 L 8.019531 113.445312 L 8.019531 114.285156 L 15.734375 114.285156 L 15.734375 113.445312 L 9.558594 113.445312 L 14.230469 111.03125 L 9.558594 108.652344 L 15.734375 108.652344 Z M 15.734375 107.8125 "/>
<path fill-rule="nonzero" fill="rgb(0%, 0%, 0%)" fill-opacity="1" d="M 13.214844 101.957031 L 13.128906 101.957031 C 11.675781 101.957031 10.609375 102.550781 10.574219 104.214844 C 10.574219 105.699219 11.867188 106.539062 13.265625 106.539062 C 14.789062 106.539062 15.875 105.613281 15.875 104.074219 C 15.875 103.375 15.714844 102.742188 15.488281 102.132812 L 14.648438 102.132812 C 15.035156 102.9375 15.121094 103.058594 15.121094 104.003906 C 15.121094 105.054688 14.492188 105.683594 13.300781 105.683594 L 13.214844 105.683594 Z M 12.53125 102.777344 L 12.53125 105.648438 C 11.867188 105.542969 11.289062 105.054688 11.289062 104.214844 C 11.289062 103.339844 11.832031 102.777344 12.53125 102.777344 Z M 12.53125 102.777344 "/>
<path fill-rule="nonzero" fill="rgb(0%, 0%, 0%)" fill-opacity="1" d="M 15.734375 96.878906 L 12.863281 96.878906 C 11.414062 96.878906 10.574219 97.492188 10.574219 98.996094 C 10.574219 99.539062 10.75 100.203125 10.921875 100.691406 L 11.746094 100.691406 C 11.464844 100.183594 11.289062 99.765625 11.289062 99.066406 C 11.308594 98.261719 11.710938 97.648438 12.550781 97.648438 L 12.550781 98.804688 C 12.550781 99.992188 12.953125 101.042969 14.265625 101.042969 C 15.277344 101.007812 15.875 100.414062 15.875 99.398438 C 15.875 98.679688 15.578125 98.035156 15.070312 97.648438 L 15.734375 97.648438 Z M 13.390625 97.648438 C 14.371094 97.648438 15.15625 98.105469 15.15625 99.152344 C 15.15625 99.765625 14.875 100.273438 14.210938 100.273438 C 13.230469 100.273438 13.230469 99.34375 13.230469 98.472656 L 13.230469 97.648438 Z M 13.390625 97.648438 "/>
<path fill-rule="nonzero" fill="rgb(0%, 0%, 0%)" fill-opacity="1" d="M 15.734375 91.0625 L 12.691406 91.0625 C 11.5 91.0625 10.574219 91.570312 10.574219 92.867188 C 10.574219 93.511719 10.820312 94.179688 11.378906 94.582031 L 10.695312 94.582031 L 10.695312 95.402344 L 15.734375 95.402344 L 15.734375 94.582031 L 12.882812 94.582031 C 11.921875 94.546875 11.308594 93.949219 11.308594 93.058594 C 11.308594 92.183594 11.832031 91.867188 12.726562 91.867188 L 15.734375 91.867188 Z M 15.734375 91.0625 "/>
<path fill-rule="nonzero" fill="rgb(0%, 0%, 0%)" fill-opacity="1" d="M 14.335938 82.554688 C 13.335938 82.554688 13.023438 83.238281 12.847656 84.144531 L 12.777344 84.496094 C 12.671875 84.984375 12.566406 85.703125 12.027344 85.703125 C 11.394531 85.667969 11.273438 84.933594 11.273438 84.375 C 11.308594 83.480469 11.359375 83.550781 11.675781 82.800781 L 10.851562 82.800781 C 10.660156 83.273438 10.574219 83.867188 10.574219 84.480469 C 10.574219 85.476562 10.941406 86.457031 12.058594 86.457031 C 12.96875 86.4375 13.320312 85.824219 13.476562 84.984375 L 13.546875 84.671875 C 13.6875 84.058594 13.757812 83.359375 14.40625 83.359375 C 15.035156 83.394531 15.15625 84.109375 15.15625 84.671875 C 15.140625 85.597656 15.035156 85.738281 14.648438 86.542969 L 15.558594 86.542969 C 15.679688 86.070312 15.875 85.25 15.875 84.6875 C 15.875 83.707031 15.507812 82.554688 14.335938 82.554688 Z M 14.335938 82.554688 "/>
<path fill-rule="nonzero" fill="rgb(0%, 0%, 0%)" fill-opacity="1" d="M 13.214844 81.589844 C 14.71875 81.589844 15.734375 80.679688 15.734375 79.050781 L 15.734375 77.8125 L 18.429688 77.8125 L 18.429688 76.972656 L 10.695312 76.972656 L 10.695312 79.121094 C 10.695312 80.609375 11.746094 81.589844 13.214844 81.589844 Z M 13.214844 80.785156 C 12.148438 80.785156 11.429688 80.136719 11.429688 79.050781 L 11.429688 77.8125 L 15 77.8125 L 15 79.050781 C 15 80.171875 14.210938 80.785156 13.214844 80.785156 Z M 13.214844 80.785156 "/>
<path fill-rule="nonzero" fill="rgb(0%, 0%, 0%)" fill-opacity="1" d="M 15.734375 71.132812 L 10.695312 71.132812 L 10.695312 71.992188 L 13.546875 71.992188 C 14.492188 71.992188 15.140625 72.464844 15.140625 73.476562 C 15.140625 74.371094 14.578125 74.683594 13.722656 74.683594 L 10.695312 74.683594 L 10.695312 75.488281 L 13.738281 75.488281 C 14.929688 75.488281 15.875 74.929688 15.875 73.671875 C 15.875 73.023438 15.507812 72.359375 15.070312 71.992188 L 15.734375 71.992188 Z M 15.734375 71.132812 "/>
<path fill-rule="nonzero" fill="rgb(0%, 0%, 0%)" fill-opacity="1" d="M 15.734375 65.726562 L 12.863281 65.726562 C 11.414062 65.726562 10.574219 66.339844 10.574219 67.84375 C 10.574219 68.386719 10.75 69.050781 10.921875 69.539062 L 11.746094 69.539062 C 11.464844 69.035156 11.289062 68.613281 11.289062 67.914062 C 11.308594 67.109375 11.710938 66.496094 12.550781 66.496094 L 12.550781 67.652344 C 12.550781 68.839844 12.953125 69.890625 14.265625 69.890625 C 15.277344 69.855469 15.875 69.261719 15.875 68.246094 C 15.875 67.527344 15.578125 66.882812 15.070312 66.496094 L 15.734375 66.496094 Z M 13.390625 66.496094 C 14.371094 66.496094 15.15625 66.953125 15.15625 68 C 15.15625 68.613281 14.875 69.121094 14.210938 69.121094 C 13.230469 69.121094 13.230469 68.195312 13.230469 67.320312 L 13.230469 66.496094 Z M 13.390625 66.496094 "/>
<path fill-rule="nonzero" fill="rgb(0%, 0%, 0%)" fill-opacity="1" d="M 11.710938 61.453125 L 10.90625 61.1875 C 10.765625 61.3125 10.625 61.855469 10.625 62.222656 C 10.644531 62.746094 10.90625 63.183594 11.378906 63.410156 L 10.695312 63.410156 L 10.695312 64.25 L 15.734375 64.25 L 15.734375 63.410156 L 13.074219 63.410156 C 13.058594 63.410156 13.039062 63.410156 13.039062 63.410156 C 12.304688 63.410156 11.34375 63.027344 11.34375 62.238281 L 11.34375 62.1875 C 11.34375 61.925781 11.5 61.714844 11.710938 61.453125 Z M 11.710938 61.453125 "/>
<path fill-rule="nonzero" fill="rgb(0%, 0%, 0%)" fill-opacity="1" d="M 13.214844 56.292969 L 13.128906 56.292969 C 11.675781 56.292969 10.609375 56.886719 10.574219 58.550781 C 10.574219 60.039062 11.867188 60.875 13.265625 60.875 C 14.789062 60.875 15.875 59.949219 15.875 58.410156 C 15.875 57.710938 15.714844 57.082031 15.488281 56.46875 L 14.648438 56.46875 C 15.035156 57.273438 15.121094 57.394531 15.121094 58.339844 C 15.121094 59.390625 14.492188 60.019531 13.300781 60.019531 L 13.214844 60.019531 Z M 12.53125 57.117188 L 12.53125 59.984375 C 11.867188 59.878906 11.289062 59.390625 11.289062 58.550781 C 11.289062 57.675781 11.832031 57.117188 12.53125 57.117188 Z M 12.53125 57.117188 "/>
<path fill-rule="nonzero" fill="rgb(0%, 0%, 0%)" fill-opacity="1" d="M 13.214844 55.363281 C 14.703125 55.363281 15.734375 54.382812 15.734375 52.878906 L 15.734375 50.742188 L 8.019531 50.742188 L 8.019531 51.582031 L 10.695312 51.582031 L 10.695312 52.808594 C 10.695312 54.453125 11.710938 55.363281 13.214844 55.363281 Z M 13.214844 54.558594 C 12.234375 54.558594 11.429688 53.929688 11.429688 52.808594 L 11.429688 51.582031 L 15 51.582031 L 15 52.808594 C 15 53.910156 14.300781 54.558594 13.214844 54.558594 Z M 13.214844 54.558594 "/>
<path fill-rule="nonzero" fill="rgb(0%, 0%, 0%)" fill-opacity="1" d="M 13.214844 41.539062 L 13.128906 41.539062 C 11.675781 41.539062 10.609375 42.132812 10.574219 43.792969 C 10.574219 45.28125 11.867188 46.121094 13.265625 46.121094 C 14.789062 46.121094 15.875 45.195312 15.875 43.652344 C 15.875 42.953125 15.714844 42.324219 15.488281 41.710938 L 14.648438 41.710938 C 15.035156 42.515625 15.121094 42.640625 15.121094 43.585938 C 15.121094 44.632812 14.492188 45.261719 13.300781 45.261719 L 13.214844 45.261719 Z M 12.53125 42.359375 L 12.53125 45.230469 C 11.867188 45.125 11.289062 44.632812 11.289062 43.792969 C 11.289062 42.917969 11.832031 42.359375 12.53125 42.359375 Z M 12.53125 42.359375 "/>
<path fill-rule="nonzero" fill="rgb(0%, 0%, 0%)" fill-opacity="1" d="M 11.710938 37.527344 L 10.90625 37.265625 C 10.765625 37.386719 10.625 37.929688 10.625 38.296875 C 10.644531 38.820312 10.90625 39.257812 11.378906 39.488281 L 10.695312 39.488281 L 10.695312 40.324219 L 15.734375 40.324219 L 15.734375 39.488281 L 13.074219 39.488281 C 13.058594 39.488281 13.039062 39.488281 13.039062 39.488281 C 12.304688 39.488281 11.34375 39.101562 11.34375 38.3125 L 11.34375 38.261719 C 11.34375 38 11.5 37.789062 11.710938 37.527344 Z M 11.710938 37.527344 "/>
<path fill-rule="nonzero" fill="rgb(0%, 0%, 0%)" fill-opacity="1" d="M 11.710938 33.625 L 10.90625 33.359375 C 10.765625 33.484375 10.625 34.027344 10.625 34.394531 C 10.644531 34.917969 10.90625 35.355469 11.378906 35.582031 L 10.695312 35.582031 L 10.695312 36.421875 L 15.734375 36.421875 L 15.734375 35.582031 L 13.074219 35.582031 C 13.058594 35.582031 13.039062 35.582031 13.039062 35.582031 C 12.304688 35.582031 11.34375 35.199219 11.34375 34.410156 L 11.34375 34.359375 C 11.34375 34.097656 11.5 33.886719 11.710938 33.625 Z M 11.710938 33.625 "/>
<path fill-rule="nonzero" fill="rgb(0%, 0%, 0%)" fill-opacity="1" d="M 13.214844 28.285156 C 11.9375 28.285156 10.574219 28.96875 10.574219 30.648438 C 10.574219 32.167969 11.746094 33.027344 13.214844 33.027344 C 14.597656 33.027344 15.839844 32.132812 15.875 30.648438 C 15.839844 29.144531 14.632812 28.285156 13.214844 28.285156 Z M 13.214844 29.109375 C 14.210938 29.109375 15.105469 29.71875 15.105469 30.648438 C 15.085938 31.90625 13.96875 32.1875 13.199219 32.1875 C 12.183594 32.1875 11.34375 31.695312 11.324219 30.648438 C 11.34375 29.667969 12.253906 29.109375 13.214844 29.109375 Z M 13.214844 29.109375 "/>
<path fill-rule="nonzero" fill="rgb(0%, 0%, 0%)" fill-opacity="1" d="M 11.710938 24.175781 L 10.90625 23.914062 C 10.765625 24.035156 10.625 24.578125 10.625 24.945312 C 10.644531 25.472656 10.90625 25.90625 11.378906 26.136719 L 10.695312 26.136719 L 10.695312 26.976562 L 15.734375 26.976562 L 15.734375 26.136719 L 13.074219 26.136719 C 13.058594 26.136719 13.039062 26.136719 13.039062 26.136719 C 12.304688 26.136719 11.34375 25.75 11.34375 24.964844 L 11.34375 24.910156 C 11.34375 24.648438 11.5 24.4375 11.710938 24.175781 Z M 11.710938 24.175781 "/>
</svg>
