<?xml version="1.0" encoding="UTF-8"?>
<svg xmlns="http://www.w3.org/2000/svg" xmlns:xlink="http://www.w3.org/1999/xlink" width="188.344772pt" height="138.043488pt" viewBox="0 0 188.344772 138.043488">
<defs>
<clipPath id="clip-0">
<path clip-rule="nonzero" d="M 95 130 L 101 130 L 101 138.042969 L 95 138.042969 Z M 95 130 "/>
</clipPath>
<clipPath id="clip-1">
<path clip-rule="nonzero" d="M 25.773438 8 L 184.621094 8 L 184.621094 114 L 25.773438 114 Z M 25.773438 8 "/>
</clipPath>
<clipPath id="clip-2">
<path clip-rule="nonzero" d="M 25.773438 7 L 184.621094 7 L 184.621094 114 L 25.773438 114 Z M 25.773438 7 "/>
</clipPath>
<clipPath id="clip-3">
<path clip-rule="nonzero" d="M 25.773438 24 L 184.621094 24 L 184.621094 98 L 25.773438 98 Z M 25.773438 24 "/>
</clipPath>
<clipPath id="clip-4">
<path clip-rule="nonzero" d="M 184 120 L 188.34375 120 L 188.34375 127 L 184 127 Z M 184 120 "/>
</clipPath>
</defs>
<path fill="none" stroke-width="0.850394" stroke-linecap="butt" stroke-linejoin="miter" stroke="rgb(50.195312%, 50.195312%, 50.195312%)" stroke-opacity="1" stroke-miterlimit="4" d="M 25.707031 118.105469 L 25.707031 120.636719 "/>
<path fill="none" stroke-width="0.850394" stroke-linecap="butt" stroke-linejoin="miter" stroke="rgb(50.195312%, 50.195312%, 50.195312%)" stroke-opacity="1" stroke-miterlimit="4" d="M 104.976562 118.105469 L 104.976562 120.636719 "/>
<path fill="none" stroke-width="0.850394" stroke-linecap="butt" stroke-linejoin="miter" stroke="rgb(50.195312%, 50.195312%, 50.195312%)" stroke-opacity="1" stroke-miterlimit="4" d="M 184.414062 118.105469 L 184.414062 120.636719 "/>
<path fill="none" stroke-width="0.850394" stroke-linecap="butt" stroke-linejoin="miter" stroke="rgb(50.195312%, 50.195312%, 50.195312%)" stroke-opacity="1" stroke-miterlimit="4" d="M 41.421875 119.832031 L 41.421875 118.105469 "/>
<path fill="none" stroke-width="0.850394" stroke-linecap="butt" stroke-linejoin="miter" stroke="rgb(50.195312%, 50.195312%, 50.195312%)" stroke-opacity="1" stroke-miterlimit="4" d="M 57.3125 119.832031 L 57.3125 118.105469 "/>
<path fill="none" stroke-width="0.850394" stroke-linecap="butt" stroke-linejoin="miter" stroke="rgb(50.195312%, 50.195312%, 50.195312%)" stroke-opacity="1" stroke-miterlimit="4" d="M 73.199219 119.832031 L 73.199219 118.105469 "/>
<path fill="none" stroke-width="0.850394" stroke-linecap="butt" stroke-linejoin="miter" stroke="rgb(50.195312%, 50.195312%, 50.195312%)" stroke-opacity="1" stroke-miterlimit="4" d="M 89.085938 119.832031 L 89.085938 118.105469 "/>
<path fill="none" stroke-width="0.850394" stroke-linecap="butt" stroke-linejoin="miter" stroke="rgb(50.195312%, 50.195312%, 50.195312%)" stroke-opacity="1" stroke-miterlimit="4" d="M 120.863281 119.832031 L 120.863281 118.105469 "/>
<path fill="none" stroke-width="0.850394" stroke-linecap="butt" stroke-linejoin="miter" stroke="rgb(50.195312%, 50.195312%, 50.195312%)" stroke-opacity="1" stroke-miterlimit="4" d="M 136.75 119.832031 L 136.75 118.105469 "/>
<path fill="none" stroke-width="0.850394" stroke-linecap="butt" stroke-linejoin="miter" stroke="rgb(50.195312%, 50.195312%, 50.195312%)" stroke-opacity="1" stroke-miterlimit="4" d="M 152.640625 119.832031 L 152.640625 118.105469 "/>
<path fill="none" stroke-width="0.850394" stroke-linecap="butt" stroke-linejoin="miter" stroke="rgb(50.195312%, 50.195312%, 50.195312%)" stroke-opacity="1" stroke-miterlimit="4" d="M 168.527344 119.832031 L 168.527344 118.105469 "/>
<path fill-rule="nonzero" fill="rgb(0%, 0%, 0%)" fill-opacity="1" d="M 87.511719 127.574219 L 88.355469 127.574219 L 88.355469 135.332031 L 87.511719 135.332031 Z M 87.511719 127.574219 "/>
<path fill-rule="nonzero" fill="rgb(0%, 0%, 0%)" fill-opacity="1" d="M 94.265625 135.332031 L 94.265625 132.273438 C 94.265625 131.074219 93.753906 130.144531 92.453125 130.144531 C 91.800781 130.144531 91.132812 130.390625 90.730469 130.953125 L 90.730469 130.265625 L 89.902344 130.265625 L 89.902344 135.332031 L 90.730469 135.332031 L 90.730469 132.464844 C 90.765625 131.496094 91.363281 130.882812 92.261719 130.882812 C 93.140625 130.882812 93.457031 131.410156 93.457031 132.308594 L 93.457031 135.332031 Z M 94.265625 135.332031 "/>
<g clip-path="url(#clip-0)">
<path fill-rule="nonzero" fill="rgb(0%, 0%, 0%)" fill-opacity="1" d="M 100.394531 132.800781 C 100.394531 131.320312 99.40625 130.265625 97.910156 130.265625 L 95.746094 130.265625 L 95.746094 138.042969 L 96.59375 138.042969 L 96.59375 135.332031 L 97.839844 135.332031 C 99.476562 135.332031 100.394531 134.3125 100.394531 132.800781 Z M 99.582031 132.800781 C 99.582031 133.804688 98.949219 134.59375 97.839844 134.59375 L 96.59375 134.59375 L 96.59375 131.003906 L 97.839844 131.003906 C 98.933594 131.003906 99.582031 131.726562 99.582031 132.800781 Z M 99.582031 132.800781 "/>
</g>
<path fill-rule="nonzero" fill="rgb(0%, 0%, 0%)" fill-opacity="1" d="M 106.011719 135.332031 L 106.011719 130.265625 L 105.148438 130.265625 L 105.148438 133.132812 C 105.148438 134.085938 104.671875 134.734375 103.652344 134.734375 C 102.753906 134.734375 102.4375 134.171875 102.4375 133.308594 L 102.4375 130.265625 L 101.628906 130.265625 L 101.628906 133.328125 C 101.628906 134.523438 102.191406 135.472656 103.460938 135.472656 C 104.109375 135.472656 104.78125 135.105469 105.148438 134.664062 L 105.148438 135.332031 Z M 106.011719 135.332031 "/>
<path fill-rule="nonzero" fill="rgb(0%, 0%, 0%)" fill-opacity="1" d="M 110.394531 135.332031 L 110.394531 134.613281 L 109.515625 134.613281 C 108.722656 134.613281 108.582031 134.417969 108.582031 133.679688 L 108.582031 130.933594 L 110.078125 130.933594 L 110.078125 130.265625 L 108.582031 130.265625 L 108.582031 128.824219 L 108.230469 128.824219 L 107.753906 130.265625 L 107.15625 130.265625 L 107.15625 130.933594 L 107.753906 130.933594 L 107.753906 133.679688 C 107.753906 134.945312 108.265625 135.332031 109.515625 135.332031 Z M 110.394531 135.332031 "/>
<path fill-rule="nonzero" fill="rgb(0%, 0%, 0%)" fill-opacity="1" d="M 112.523438 134.191406 L 111.503906 134.191406 L 111.503906 134.964844 C 111.574219 135.105469 111.589844 135.246094 111.589844 135.386719 C 111.589844 135.792969 111.378906 136.214844 111.082031 136.40625 C 111.660156 136.390625 112.503906 135.527344 112.523438 134.980469 Z M 112.523438 134.191406 "/>
<path fill-rule="nonzero" fill="rgb(0%, 0%, 0%)" fill-opacity="1" d="M 120.273438 131.9375 C 120.34375 131.65625 120.609375 130.617188 121.382812 130.617188 C 121.433594 130.617188 121.714844 130.617188 121.945312 130.757812 C 121.628906 130.828125 121.417969 131.09375 121.417969 131.375 C 121.417969 131.550781 121.539062 131.761719 121.839844 131.761719 C 122.085938 131.761719 122.4375 131.566406 122.4375 131.109375 C 122.4375 130.53125 121.789062 130.371094 121.398438 130.371094 C 120.75 130.371094 120.363281 130.96875 120.222656 131.214844 C 119.941406 130.476562 119.339844 130.371094 119.007812 130.371094 C 117.84375 130.371094 117.195312 131.816406 117.195312 132.097656 C 117.195312 132.21875 117.316406 132.21875 117.335938 132.21875 C 117.421875 132.21875 117.457031 132.183594 117.476562 132.097656 C 117.863281 130.898438 118.601562 130.617188 118.988281 130.617188 C 119.199219 130.617188 119.585938 130.722656 119.585938 131.375 C 119.585938 131.726562 119.394531 132.464844 118.988281 134.050781 C 118.8125 134.734375 118.410156 135.210938 117.917969 135.210938 C 117.84375 135.210938 117.597656 135.210938 117.351562 135.070312 C 117.632812 135 117.878906 134.769531 117.878906 134.453125 C 117.878906 134.15625 117.632812 134.066406 117.476562 134.066406 C 117.125 134.066406 116.859375 134.347656 116.859375 134.71875 C 116.859375 135.226562 117.40625 135.457031 117.898438 135.457031 C 118.65625 135.457031 119.058594 134.664062 119.078125 134.613281 C 119.21875 135.015625 119.621094 135.457031 120.292969 135.457031 C 121.453125 135.457031 122.085938 134.015625 122.085938 133.734375 C 122.085938 133.609375 122 133.609375 121.964844 133.609375 C 121.859375 133.609375 121.839844 133.660156 121.804688 133.734375 C 121.433594 134.945312 120.679688 135.210938 120.328125 135.210938 C 119.886719 135.210938 119.710938 134.859375 119.710938 134.472656 C 119.710938 134.226562 119.761719 133.980469 119.886719 133.484375 Z M 120.273438 131.9375 "/>
<path fill-rule="nonzero" fill="rgb(0%, 0%, 0%)" fill-opacity="1" d="M 4.046875 69.398438 C 1.917969 69.398438 0 70.382812 0 72.707031 C 0 74.976562 1.972656 75.980469 4.046875 75.980469 C 6.125 75.980469 8.058594 74.957031 8.058594 72.707031 C 8.058594 70.402344 6.175781 69.398438 4.046875 69.398438 Z M 4.046875 70.226562 C 5.613281 70.226562 7.300781 70.910156 7.300781 72.707031 C 7.300781 74.464844 5.59375 75.152344 4.046875 75.152344 C 2.445312 75.152344 0.757812 74.5 0.757812 72.707031 C 0.757812 70.875 2.429688 70.226562 4.046875 70.226562 Z M 4.046875 70.226562 "/>
<path fill-rule="nonzero" fill="rgb(0%, 0%, 0%)" fill-opacity="1" d="M 7.902344 63.804688 L 2.832031 63.804688 L 2.832031 64.667969 L 5.699219 64.667969 C 6.652344 64.667969 7.300781 65.144531 7.300781 66.164062 C 7.300781 67.0625 6.738281 67.378906 5.878906 67.378906 L 2.832031 67.378906 L 2.832031 68.1875 L 5.894531 68.1875 C 7.089844 68.1875 8.042969 67.625 8.042969 66.355469 C 8.042969 65.707031 7.671875 65.039062 7.230469 64.667969 L 7.902344 64.667969 Z M 7.902344 63.804688 "/>
<path fill-rule="nonzero" fill="rgb(0%, 0%, 0%)" fill-opacity="1" d="M 7.902344 59.421875 L 7.179688 59.421875 L 7.179688 60.300781 C 7.179688 61.09375 6.984375 61.234375 6.246094 61.234375 L 3.5 61.234375 L 3.5 59.738281 L 2.832031 59.738281 L 2.832031 61.234375 L 1.390625 61.234375 L 1.390625 61.585938 L 2.832031 62.0625 L 2.832031 62.660156 L 3.5 62.660156 L 3.5 62.0625 L 6.246094 62.0625 C 7.511719 62.0625 7.902344 61.550781 7.902344 60.300781 Z M 7.902344 59.421875 "/>
<path fill-rule="nonzero" fill="rgb(0%, 0%, 0%)" fill-opacity="1" d="M 5.367188 53.738281 C 3.890625 53.738281 2.832031 54.726562 2.832031 56.21875 L 2.832031 58.386719 L 10.609375 58.386719 L 10.609375 57.539062 L 7.902344 57.539062 L 7.902344 56.289062 C 7.902344 54.65625 6.878906 53.738281 5.367188 53.738281 Z M 5.367188 54.550781 C 6.371094 54.550781 7.160156 55.183594 7.160156 56.289062 L 7.160156 57.539062 L 3.570312 57.539062 L 3.570312 56.289062 C 3.570312 55.199219 4.292969 54.550781 5.367188 54.550781 Z M 5.367188 54.550781 "/>
<path fill-rule="nonzero" fill="rgb(0%, 0%, 0%)" fill-opacity="1" d="M 7.902344 48.121094 L 2.832031 48.121094 L 2.832031 48.984375 L 5.699219 48.984375 C 6.652344 48.984375 7.300781 49.457031 7.300781 50.480469 C 7.300781 51.375 6.738281 51.691406 5.878906 51.691406 L 2.832031 51.691406 L 2.832031 52.503906 L 5.894531 52.503906 C 7.089844 52.503906 8.042969 51.941406 8.042969 50.671875 C 8.042969 50.023438 7.671875 49.351562 7.230469 48.984375 L 7.902344 48.984375 Z M 7.902344 48.121094 "/>
<path fill-rule="nonzero" fill="rgb(0%, 0%, 0%)" fill-opacity="1" d="M 7.902344 43.738281 L 7.179688 43.738281 L 7.179688 44.617188 C 7.179688 45.410156 6.984375 45.550781 6.246094 45.550781 L 3.5 45.550781 L 3.5 44.054688 L 2.832031 44.054688 L 2.832031 45.550781 L 1.390625 45.550781 L 1.390625 45.902344 L 2.832031 46.378906 L 2.832031 46.976562 L 3.5 46.976562 L 3.5 46.378906 L 6.246094 46.378906 C 7.511719 46.378906 7.902344 45.867188 7.902344 44.617188 Z M 7.902344 43.738281 "/>
<path fill-rule="nonzero" fill="rgb(0%, 0%, 0%)" fill-opacity="1" d="M 6.757812 41.609375 L 6.757812 42.628906 L 7.53125 42.628906 C 7.671875 42.558594 7.8125 42.542969 7.953125 42.542969 C 8.359375 42.542969 8.78125 42.753906 8.972656 43.050781 C 8.957031 42.472656 8.09375 41.625 7.546875 41.609375 Z M 6.757812 41.609375 "/>
<path fill-rule="nonzero" fill="rgb(0%, 0%, 0%)" fill-opacity="1" d="M 3.625 32.152344 C 3.464844 32.097656 3.449219 32.097656 3.359375 32.097656 C 3.167969 32.097656 3.0625 32.257812 3.0625 32.433594 C 3.0625 32.539062 3.132812 32.714844 3.289062 32.820312 C 3.359375 32.835938 3.695312 32.941406 3.90625 32.976562 C 4.1875 33.066406 4.503906 33.136719 4.804688 33.207031 L 6.828125 33.71875 C 6.984375 33.753906 7.777344 34.246094 7.777344 34.984375 C 7.777344 35.546875 7.285156 35.671875 6.863281 35.671875 C 6.351562 35.671875 5.648438 35.476562 4.664062 35.109375 C 4.207031 34.929688 4.082031 34.878906 3.855469 34.878906 C 3.359375 34.878906 2.9375 35.230469 2.9375 35.792969 C 2.9375 36.867188 4.574219 37.273438 4.664062 37.273438 C 4.785156 37.273438 4.785156 37.167969 4.785156 37.148438 C 4.785156 37.027344 4.75 37.027344 4.574219 36.972656 C 3.519531 36.65625 3.183594 36.214844 3.183594 35.828125 C 3.183594 35.742188 3.183594 35.546875 3.535156 35.546875 C 3.816406 35.546875 4.117188 35.671875 4.328125 35.742188 C 5.523438 36.199219 6.160156 36.390625 6.6875 36.390625 C 7.691406 36.390625 8.023438 35.6875 8.023438 35.019531 C 8.023438 34.578125 7.832031 34.210938 7.511719 33.894531 C 8.09375 34.035156 8.65625 34.175781 9.253906 34.613281 C 9.625 34.914062 9.960938 35.335938 9.960938 35.847656 C 9.960938 36.003906 9.925781 36.515625 9.484375 36.707031 C 9.484375 36.53125 9.484375 36.375 9.34375 36.234375 C 9.253906 36.109375 9.097656 36.003906 8.886719 36.003906 C 8.535156 36.003906 8.5 36.304688 8.5 36.410156 C 8.5 36.671875 8.675781 37.042969 9.21875 37.042969 C 9.785156 37.042969 10.207031 36.550781 10.207031 35.847656 C 10.207031 34.703125 9.183594 33.542969 7.917969 33.226562 Z M 3.625 32.152344 "/>
<path fill="none" stroke-width="0.850394" stroke-linecap="butt" stroke-linejoin="miter" stroke="rgb(50.195312%, 50.195312%, 50.195312%)" stroke-opacity="1" stroke-miterlimit="4" d="M 25.699219 2.835938 L 23.171875 2.835938 "/>
<path fill="none" stroke-width="0.850394" stroke-linecap="butt" stroke-linejoin="miter" stroke="rgb(50.195312%, 50.195312%, 50.195312%)" stroke-opacity="1" stroke-miterlimit="4" d="M 26.085938 60.457031 L 23.558594 60.457031 "/>
<path fill="none" stroke-width="0.850394" stroke-linecap="butt" stroke-linejoin="miter" stroke="rgb(50.195312%, 50.195312%, 50.195312%)" stroke-opacity="1" stroke-miterlimit="4" d="M 25.96875 118.082031 L 23.441406 118.082031 "/>
<path fill="none" stroke-width="0.850394" stroke-linecap="butt" stroke-linejoin="miter" stroke="rgb(50.195312%, 50.195312%, 50.195312%)" stroke-opacity="1" stroke-miterlimit="4" d="M 26.0625 14.359375 L 24.339844 14.359375 "/>
<path fill="none" stroke-width="0.850394" stroke-linecap="butt" stroke-linejoin="miter" stroke="rgb(50.195312%, 50.195312%, 50.195312%)" stroke-opacity="1" stroke-miterlimit="4" d="M 26.085938 25.886719 L 24.363281 25.886719 "/>
<path fill="none" stroke-width="0.850394" stroke-linecap="butt" stroke-linejoin="miter" stroke="rgb(50.195312%, 50.195312%, 50.195312%)" stroke-opacity="1" stroke-miterlimit="4" d="M 26.085938 37.410156 L 24.363281 37.410156 "/>
<path fill="none" stroke-width="0.850394" stroke-linecap="butt" stroke-linejoin="miter" stroke="rgb(50.195312%, 50.195312%, 50.195312%)" stroke-opacity="1" stroke-miterlimit="4" d="M 26.085938 71.984375 L 24.363281 71.984375 "/>
<path fill="none" stroke-width="0.850394" stroke-linecap="butt" stroke-linejoin="miter" stroke="rgb(50.195312%, 50.195312%, 50.195312%)" stroke-opacity="1" stroke-miterlimit="4" d="M 26.085938 83.507812 L 24.363281 83.507812 "/>
<path fill="none" stroke-width="0.850394" stroke-linecap="butt" stroke-linejoin="miter" stroke="rgb(50.195312%, 50.195312%, 50.195312%)" stroke-opacity="1" stroke-miterlimit="4" d="M 26.085938 95.03125 L 24.363281 95.03125 "/>
<path fill="none" stroke-width="0.850394" stroke-linecap="butt" stroke-linejoin="miter" stroke="rgb(50.195312%, 50.195312%, 50.195312%)" stroke-opacity="1" stroke-miterlimit="4" d="M 26.085938 106.558594 L 24.363281 106.558594 "/>
<path fill="none" stroke-width="0.850394" stroke-linecap="butt" stroke-linejoin="miter" stroke="rgb(50.195312%, 50.195312%, 50.195312%)" stroke-opacity="1" stroke-miterlimit="4" d="M 26.085938 48.933594 L 24.363281 48.933594 "/>
<g clip-path="url(#clip-1)">
<path fill-rule="nonzero" fill="rgb(82.743835%, 82.743835%, 82.743835%)" fill-opacity="1" d="M 25.773438 59.214844 L 25.773438 94.8125 L 27.378906 92.871094 L 28.984375 90.808594 L 30.585938 88.632812 L 32.191406 86.34375 L 33.796875 83.949219 L 35.402344 81.460938 L 37.003906 78.886719 L 38.609375 76.238281 L 40.214844 73.542969 L 41.820312 70.808594 L 43.421875 68.0625 L 45.027344 65.332031 L 46.632812 62.640625 L 48.238281 60.015625 L 49.839844 57.492188 L 51.445312 55.09375 L 53.050781 52.855469 L 54.65625 50.808594 L 56.261719 48.980469 L 57.863281 47.398438 L 59.46875 46.082031 L 61.074219 45.058594 L 62.679688 44.335938 L 64.28125 43.929688 L 65.886719 43.847656 L 67.492188 44.089844 L 69.097656 44.652344 L 70.699219 45.527344 L 72.304688 46.699219 L 73.910156 48.148438 L 75.515625 49.859375 L 77.117188 51.796875 L 78.722656 53.941406 L 80.328125 56.261719 L 81.933594 58.726562 L 83.535156 61.304688 L 85.140625 63.964844 L 86.746094 66.683594 L 88.351562 69.421875 L 89.953125 72.164062 L 91.558594 74.882812 L 93.164062 77.558594 L 94.769531 80.171875 L 96.375 82.703125 L 97.976562 85.148438 L 99.582031 87.492188 L 101.1875 89.722656 L 102.792969 91.84375 L 104.394531 93.847656 L 106 95.730469 L 107.605469 97.492188 L 109.210938 99.140625 L 110.8125 100.671875 L 112.417969 102.089844 L 114.023438 103.398438 L 115.628906 104.605469 L 117.230469 105.710938 L 118.835938 106.722656 L 120.441406 107.644531 L 122.046875 108.484375 L 123.648438 109.242188 L 125.253906 109.925781 L 126.859375 110.539062 L 128.464844 111.085938 L 130.070312 111.570312 L 131.671875 111.996094 L 133.277344 112.363281 L 134.882812 112.679688 L 136.488281 112.945312 L 138.089844 113.160156 L 139.695312 113.328125 L 141.300781 113.449219 L 142.90625 113.527344 L 144.507812 113.5625 L 146.113281 113.550781 L 147.71875 113.496094 L 149.324219 113.398438 L 150.925781 113.253906 L 152.53125 113.0625 L 154.136719 112.824219 L 155.742188 112.535156 L 157.34375 112.191406 L 158.949219 111.796875 L 160.554688 111.34375 L 162.160156 110.828125 L 163.761719 110.25 L 165.367188 109.605469 L 166.972656 108.882812 L 168.578125 108.085938 L 170.183594 107.207031 L 171.785156 106.242188 L 173.390625 105.183594 L 174.996094 104.03125 L 176.601562 102.773438 L 178.203125 101.414062 L 179.808594 99.941406 L 181.414062 98.355469 L 183.019531 96.652344 L 184.621094 94.828125 L 184.621094 59.230469 L 183.019531 61.054688 L 181.414062 62.757812 L 179.808594 64.34375 L 178.203125 65.816406 L 176.601562 67.175781 L 174.996094 68.433594 L 173.390625 69.585938 L 171.785156 70.644531 L 170.183594 71.609375 L 168.578125 72.488281 L 166.972656 73.285156 L 165.367188 74.007812 L 163.761719 74.652344 L 162.160156 75.230469 L 160.554688 75.746094 L 158.949219 76.199219 L 157.34375 76.59375 L 155.742188 76.9375 L 154.136719 77.226562 L 152.53125 77.464844 L 150.925781 77.65625 L 149.324219 77.800781 L 147.71875 77.898438 L 146.113281 77.953125 L 144.507812 77.964844 L 142.90625 77.929688 L 141.300781 77.851562 L 139.695312 77.730469 L 138.089844 77.5625 L 136.488281 77.347656 L 134.882812 77.082031 L 133.277344 76.765625 L 131.671875 76.398438 L 130.070312 75.972656 L 128.464844 75.488281 L 126.859375 74.941406 L 125.253906 74.328125 L 123.648438 73.644531 L 122.046875 72.886719 L 120.441406 72.046875 L 118.835938 71.125 L 117.230469 70.113281 L 115.628906 69.007812 L 114.023438 67.800781 L 112.417969 66.492188 L 110.8125 65.074219 L 109.210938 63.542969 L 107.605469 61.894531 L 106 60.132812 L 104.394531 58.25 L 102.792969 56.246094 L 101.1875 54.125 L 99.582031 51.894531 L 97.976562 49.550781 L 96.375 47.105469 L 94.769531 44.574219 L 93.164062 41.960938 L 91.558594 39.285156 L 89.953125 36.566406 L 88.351562 33.824219 L 86.746094 31.085938 L 85.140625 28.367188 L 83.535156 25.707031 L 81.933594 23.128906 L 80.328125 20.664062 L 78.722656 18.34375 L 77.117188 16.199219 L 75.515625 14.261719 L 73.910156 12.550781 L 72.304688 11.101562 L 70.699219 9.929688 L 69.097656 9.054688 L 67.492188 8.492188 L 65.886719 8.25 L 64.28125 8.332031 L 62.679688 8.738281 L 61.074219 9.460938 L 59.46875 10.484375 L 57.863281 11.800781 L 56.261719 13.382812 L 54.65625 15.210938 L 53.050781 17.257812 L 51.445312 19.496094 L 49.839844 21.894531 L 48.238281 24.417969 L 46.632812 27.042969 L 45.027344 29.734375 L 43.421875 32.464844 L 41.820312 35.210938 L 40.214844 37.945312 L 38.609375 40.640625 L 37.003906 43.289062 L 35.402344 45.863281 L 33.796875 48.351562 L 32.191406 50.746094 L 30.585938 53.035156 L 28.984375 55.210938 L 27.378906 57.273438 Z M 25.773438 59.214844 "/>
</g>
<g clip-path="url(#clip-2)">
<path fill="none" stroke-width="0.60665" stroke-linecap="butt" stroke-linejoin="round" stroke="rgb(82.743835%, 82.743835%, 82.743835%)" stroke-opacity="1" stroke-miterlimit="4" d="M 25.773438 67.803049 L 25.773438 108.5636 L 27.378906 106.340622 L 28.984375 103.978988 L 30.585938 101.487643 L 32.191406 98.866587 L 33.796875 96.124766 L 35.402344 93.275598 L 37.003906 90.328028 L 38.609375 87.295475 L 40.214844 84.209249 L 41.820312 81.078295 L 43.421875 77.933922 L 45.027344 74.807441 L 46.632812 71.725687 L 48.238281 68.719971 L 49.839844 65.830548 L 51.445312 63.084254 L 53.050781 60.521344 L 54.65625 58.177601 L 56.261719 56.084335 L 57.863281 54.272854 L 59.46875 52.765524 L 61.074219 51.593652 L 62.679688 50.766186 L 64.28125 50.301015 L 65.886719 50.207087 L 67.492188 50.4844 L 69.097656 51.128482 L 70.699219 52.130387 L 72.304688 53.472225 L 73.910156 55.13163 L 75.515625 57.090713 L 77.117188 59.309218 L 78.722656 61.76478 L 80.328125 64.421619 L 81.933594 67.24395 L 83.535156 70.195993 L 85.140625 73.241964 L 86.746094 76.355027 L 88.351562 79.490454 L 89.953125 82.630354 L 91.558594 85.743417 L 93.164062 88.807279 L 94.769531 91.799577 L 96.375 94.697946 L 97.976562 97.497913 L 99.582031 100.181588 L 101.1875 102.735552 L 102.792969 105.164278 L 104.394531 107.45882 L 106 109.614706 L 107.605469 111.631935 L 109.210938 113.519453 L 110.8125 115.272787 L 112.417969 116.896411 L 114.023438 118.394796 L 115.628906 119.776889 L 117.230469 121.042689 L 118.835938 122.201142 L 120.441406 123.25672 L 122.046875 124.218371 L 123.648438 125.086092 L 125.253906 125.868831 L 126.859375 126.571059 L 128.464844 127.19725 L 130.070312 127.751876 L 131.671875 128.23941 L 133.277344 128.659853 L 134.882812 129.022149 L 136.488281 129.326299 L 138.089844 129.572302 L 139.695312 129.764632 L 141.300781 129.903289 L 142.90625 129.992745 L 144.507812 130.033 L 146.113281 130.019582 L 147.71875 129.956962 L 149.324219 129.845143 L 150.925781 129.679649 L 152.53125 129.460483 L 154.136719 129.187642 L 155.742188 128.856656 L 157.34375 128.46305 L 158.949219 128.011298 L 160.554688 127.492454 L 162.160156 126.902046 L 163.761719 126.240073 L 165.367188 125.502062 L 166.972656 124.674595 L 168.578125 123.762146 L 170.183594 122.755768 L 171.785156 121.650988 L 173.390625 120.438862 L 174.996094 119.119388 L 176.601562 117.679149 L 178.203125 116.122618 L 179.808594 114.436375 L 181.414062 112.620422 L 183.019531 110.670285 L 184.621094 108.581491 L 184.621094 67.82094 L 183.019531 69.909734 L 181.414062 71.859871 L 179.808594 73.675825 L 178.203125 75.362067 L 176.601562 76.918599 L 174.996094 78.358838 L 173.390625 79.678311 L 171.785156 80.890438 L 170.183594 81.995217 L 168.578125 83.001595 L 166.972656 83.914045 L 165.367188 84.741511 L 163.761719 85.479522 L 162.160156 86.141495 L 160.554688 86.731904 L 158.949219 87.250747 L 157.34375 87.702499 L 155.742188 88.096105 L 154.136719 88.427092 L 152.53125 88.699932 L 150.925781 88.919099 L 149.324219 89.084592 L 147.71875 89.196412 L 146.113281 89.259031 L 144.507812 89.272449 L 142.90625 89.232194 L 141.300781 89.142738 L 139.695312 89.004082 L 138.089844 88.811752 L 136.488281 88.565748 L 134.882812 88.261598 L 133.277344 87.899302 L 131.671875 87.47886 L 130.070312 86.991326 L 128.464844 86.436699 L 126.859375 85.810508 L 125.253906 85.10828 L 123.648438 84.325542 L 122.046875 83.45782 L 120.441406 82.49617 L 118.835938 81.440591 L 117.230469 80.282138 L 115.628906 79.016338 L 114.023438 77.634245 L 112.417969 76.13586 L 110.8125 74.512237 L 109.210938 72.758902 L 107.605469 70.871384 L 106 68.854155 L 104.394531 66.69827 L 102.792969 64.403727 L 101.1875 61.975002 L 99.582031 59.421038 L 97.976562 56.737363 L 96.375 53.937395 L 94.769531 51.039026 L 93.164062 48.046728 L 91.558594 44.982866 L 89.953125 41.869803 L 88.351562 38.729903 L 86.746094 35.594476 L 85.140625 32.481413 L 83.535156 29.435442 L 81.933594 26.4834 L 80.328125 23.661068 L 78.722656 21.00423 L 77.117188 18.548667 L 75.515625 16.330162 L 73.910156 14.37108 L 72.304688 12.711674 L 70.699219 11.369836 L 69.097656 10.367931 L 67.492188 9.723849 L 65.886719 9.446536 L 64.28125 9.540465 L 62.679688 10.005635 L 61.074219 10.833101 L 59.46875 12.004973 L 57.863281 13.512304 L 56.261719 15.323784 L 54.65625 17.417051 L 53.050781 19.760794 L 51.445312 22.323703 L 49.839844 25.069997 L 48.238281 27.959421 L 46.632812 30.965137 L 45.027344 34.04689 L 43.421875 37.173372 L 41.820312 40.317744 L 40.214844 43.448698 L 38.609375 46.534925 L 37.003906 49.567477 L 35.402344 52.515047 L 33.796875 55.364215 L 32.191406 58.106037 L 30.585938 60.727093 L 28.984375 63.218438 L 27.378906 65.580072 Z M 25.773438 67.803049 " transform="matrix(1, 0, 0, 0.873336, 0, 0)"/>
</g>
<g clip-path="url(#clip-3)">
<path fill="none" stroke-width="2.123275" stroke-linecap="square" stroke-linejoin="round" stroke="rgb(1.176453%, 0%, 0%)" stroke-opacity="1" stroke-miterlimit="4" d="M 25.773438 88.181088 L 27.378906 85.958111 L 28.984375 83.600949 L 30.585938 81.105132 L 32.191406 78.484076 L 33.796875 75.746727 L 35.402344 72.893086 L 37.003906 69.945516 L 38.609375 66.917436 L 40.214844 63.826737 L 41.820312 60.695783 L 43.421875 57.555883 L 45.027344 54.424929 L 46.632812 51.343176 L 48.238281 48.341933 L 49.839844 45.448036 L 51.445312 42.706215 L 53.050781 40.143305 L 54.65625 37.799563 L 56.261719 35.706296 L 57.863281 33.890343 L 59.46875 32.387485 L 61.074219 31.21114 L 62.679688 30.383674 L 64.28125 29.922976 L 65.886719 29.829048 L 67.492188 30.106361 L 69.097656 30.750443 L 70.699219 31.752348 L 72.304688 33.094186 L 73.910156 34.753591 L 75.515625 36.708201 L 77.117188 38.931179 L 78.722656 41.386741 L 80.328125 44.04358 L 81.933594 46.865911 L 83.535156 49.817954 L 85.140625 52.863925 L 86.746094 55.972515 L 88.351562 59.112415 L 89.953125 62.252315 L 91.558594 65.365378 L 93.164062 68.424767 L 94.769531 71.417065 L 96.375 74.319907 L 97.976562 77.115401 L 99.582031 79.799076 L 101.1875 82.357513 L 102.792969 84.786239 L 104.394531 87.076309 L 106 89.232194 L 107.605469 91.253896 L 109.210938 93.136941 L 110.8125 94.890276 L 112.417969 96.513899 L 114.023438 98.012284 L 115.628906 99.394377 L 117.230469 100.660177 L 118.835938 101.823103 L 120.441406 102.878682 L 122.046875 103.840332 L 123.648438 104.708053 L 125.253906 105.490792 L 126.859375 106.19302 L 128.464844 106.819211 L 130.070312 107.373837 L 131.671875 107.861372 L 133.277344 108.281814 L 134.882812 108.64411 L 136.488281 108.943787 L 138.089844 109.194263 L 139.695312 109.386593 L 141.300781 109.52525 L 142.90625 109.614706 L 144.507812 109.650488 L 146.113281 109.641543 L 147.71875 109.578924 L 149.324219 109.462631 L 150.925781 109.297138 L 152.53125 109.077971 L 154.136719 108.805131 L 155.742188 108.474144 L 157.34375 108.085011 L 158.949219 107.633259 L 160.554688 107.114415 L 162.160156 106.524007 L 163.761719 105.862034 L 165.367188 105.11955 L 166.972656 104.296557 L 168.578125 103.384107 L 170.183594 102.377729 L 171.785156 101.272949 L 173.390625 100.060823 L 174.996094 98.736876 L 176.601562 97.30111 L 178.203125 95.740106 L 179.808594 94.053864 L 181.414062 92.23791 L 183.019531 90.287773 L 184.621094 88.203452 " transform="matrix(1, 0, 0, 0.873336, 0, 0)"/>
</g>
<path fill="none" stroke-width="0.896602" stroke-linecap="butt" stroke-linejoin="round" stroke="rgb(1.176453%, 0%, 0%)" stroke-opacity="1" stroke-miterlimit="4" d="M 25.730469 3.13514 L 184.371094 3.13514 L 184.371094 131.367583 L 25.730469 131.367583 Z M 25.730469 3.13514 " transform="matrix(1, 0, 0, 0.899581, 0, 0)"/>
<path fill-rule="nonzero" fill="rgb(0%, 51.371765%, 38.430786%)" fill-opacity="1" stroke-width="0.60665" stroke-linecap="butt" stroke-linejoin="round" stroke="rgb(81.959534%, 51.371765%, 38.430786%)" stroke-opacity="1" stroke-miterlimit="4" d="M 32.398438 61.581396 C 32.722656 61.581396 33.03125 61.451685 33.261719 61.223573 C 33.488281 60.99546 33.617188 60.682365 33.617188 60.360324 C 33.617188 60.038283 33.488281 59.725187 33.261719 59.497075 C 33.03125 59.268963 32.722656 59.139252 32.398438 59.139252 C 32.074219 59.139252 31.765625 59.268963 31.535156 59.497075 C 31.304688 59.725187 31.179688 60.038283 31.179688 60.360324 C 31.179688 60.682365 31.304688 60.99546 31.535156 61.223573 C 31.765625 61.451685 32.074219 61.581396 32.398438 61.581396 Z M 32.398438 61.581396 " transform="matrix(1, 0, 0, 0.873336, 0, 0)"/>
<path fill-rule="nonzero" fill="rgb(0%, 51.371765%, 38.430786%)" fill-opacity="1" stroke-width="0.303325" stroke-linecap="butt" stroke-linejoin="round" stroke="rgb(81.959534%, 51.371765%, 38.430786%)" stroke-opacity="1" stroke-miterlimit="4" d="M 53.101562 49.044161 C 53.425781 49.044161 53.734375 48.91445 53.964844 48.686338 C 54.191406 48.458225 54.320312 48.14513 54.320312 47.823089 C 54.320312 47.501048 54.191406 47.187952 53.964844 46.95984 C 53.734375 46.731728 53.425781 46.602017 53.101562 46.602017 C 52.777344 46.602017 52.46875 46.731728 52.238281 46.95984 C 52.007812 47.187952 51.878906 47.501048 51.878906 47.823089 C 51.878906 48.14513 52.007812 48.458225 52.238281 48.686338 C 52.46875 48.91445 52.777344 49.044161 53.101562 49.044161 Z M 53.101562 49.044161 " transform="matrix(1, 0, 0, 0.873336, 0, 0)"/>
<path fill-rule="nonzero" fill="rgb(0%, 51.371765%, 38.430786%)" fill-opacity="1" stroke-width="0.303325" stroke-linecap="butt" stroke-linejoin="round" stroke="rgb(81.959534%, 51.371765%, 38.430786%)" stroke-opacity="1" stroke-miterlimit="4" d="M 57.546875 32.199627 C 57.867188 32.199627 58.179688 32.069916 58.40625 31.841804 C 58.636719 31.613692 58.765625 31.300596 58.765625 30.978555 C 58.765625 30.652041 58.636719 30.343419 58.40625 30.115306 C 58.179688 29.887194 57.867188 29.757483 57.546875 29.757483 C 57.222656 29.757483 56.910156 29.887194 56.683594 30.115306 C 56.453125 30.343419 56.324219 30.652041 56.324219 30.978555 C 56.324219 31.300596 56.453125 31.613692 56.683594 31.841804 C 56.910156 32.069916 57.222656 32.199627 57.546875 32.199627 Z M 57.546875 32.199627 " transform="matrix(1, 0, 0, 0.873336, 0, 0)"/>
<path fill-rule="nonzero" fill="rgb(0%, 51.371765%, 38.430786%)" fill-opacity="1" stroke-width="0.303325" stroke-linecap="butt" stroke-linejoin="round" stroke="rgb(81.959534%, 51.371765%, 38.430786%)" stroke-opacity="1" stroke-miterlimit="4" d="M 78.230469 44.370094 C 78.554688 44.370094 78.863281 44.244855 79.09375 44.01227 C 79.324219 43.784158 79.449219 43.475535 79.449219 43.149021 C 79.449219 42.82698 79.324219 42.518358 79.09375 42.290245 C 78.863281 42.05766 78.554688 41.932422 78.230469 41.932422 C 77.90625 41.932422 77.597656 42.05766 77.367188 42.290245 C 77.140625 42.518358 77.011719 42.82698 77.011719 43.149021 C 77.011719 43.475535 77.140625 43.784158 77.367188 44.01227 C 77.597656 44.244855 77.90625 44.370094 78.230469 44.370094 Z M 78.230469 44.370094 " transform="matrix(1, 0, 0, 0.873336, 0, 0)"/>
<path fill-rule="nonzero" fill="rgb(0%, 51.371765%, 38.430786%)" fill-opacity="1" stroke-width="0.303325" stroke-linecap="butt" stroke-linejoin="round" stroke="rgb(81.959534%, 51.371765%, 38.430786%)" stroke-opacity="1" stroke-miterlimit="4" d="M 91.644531 51.848601 C 91.96875 51.848601 92.277344 51.71889 92.507812 51.490778 C 92.734375 51.262666 92.863281 50.954043 92.863281 50.627529 C 92.863281 50.305488 92.734375 49.992393 92.507812 49.76428 C 92.277344 49.536168 91.96875 49.406457 91.644531 49.406457 C 91.320312 49.406457 91.011719 49.536168 90.78125 49.76428 C 90.554688 49.992393 90.425781 50.305488 90.425781 50.627529 C 90.425781 50.954043 90.554688 51.262666 90.78125 51.490778 C 91.011719 51.71889 91.320312 51.848601 91.644531 51.848601 Z M 91.644531 51.848601 " transform="matrix(1, 0, 0, 0.873336, 0, 0)"/>
<path fill-rule="nonzero" fill="rgb(0%, 51.371765%, 38.430786%)" fill-opacity="1" stroke-width="0.303325" stroke-linecap="butt" stroke-linejoin="round" stroke="rgb(81.959534%, 51.371765%, 38.430786%)" stroke-opacity="1" stroke-miterlimit="4" d="M 106.664062 112.298381 C 106.988281 112.298381 107.296875 112.173143 107.527344 111.940558 C 107.757812 111.712445 107.886719 111.403823 107.886719 111.081782 C 107.886719 110.755268 107.757812 110.446645 107.527344 110.218533 C 107.296875 109.985948 106.988281 109.860709 106.664062 109.860709 C 106.339844 109.860709 106.03125 109.985948 105.800781 110.218533 C 105.574219 110.446645 105.445312 110.755268 105.445312 111.081782 C 105.445312 111.403823 105.574219 111.712445 105.800781 111.940558 C 106.03125 112.173143 106.339844 112.298381 106.664062 112.298381 Z M 106.664062 112.298381 " transform="matrix(1, 0, 0, 0.873336, 0, 0)"/>
<path fill-rule="nonzero" fill="rgb(0%, 51.371765%, 38.430786%)" fill-opacity="1" stroke-width="0.303325" stroke-linecap="butt" stroke-linejoin="round" stroke="rgb(81.959534%, 51.371765%, 38.430786%)" stroke-opacity="1" stroke-miterlimit="4" d="M 124.042969 109.41343 C 124.367188 109.41343 124.675781 109.283719 124.90625 109.055607 C 125.132812 108.827495 125.261719 108.514399 125.261719 108.192358 C 125.261719 107.865844 125.132812 107.557222 124.90625 107.329109 C 124.675781 107.100997 124.367188 106.971286 124.042969 106.971286 C 123.71875 106.971286 123.40625 107.100997 123.179688 107.329109 C 122.949219 107.557222 122.820312 107.865844 122.820312 108.192358 C 122.820312 108.514399 122.949219 108.827495 123.179688 109.055607 C 123.40625 109.283719 123.71875 109.41343 124.042969 109.41343 Z M 124.042969 109.41343 " transform="matrix(1, 0, 0, 0.873336, 0, 0)"/>
<path fill-rule="nonzero" fill="rgb(0%, 51.371765%, 38.430786%)" fill-opacity="1" stroke-width="0.303325" stroke-linecap="butt" stroke-linejoin="round" stroke="rgb(81.959534%, 51.371765%, 38.430786%)" stroke-opacity="1" stroke-miterlimit="4" d="M 142.457031 114.727107 C 142.78125 114.727107 143.089844 114.597396 143.320312 114.369283 C 143.546875 114.141171 143.675781 113.832548 143.675781 113.506035 C 143.675781 113.183994 143.546875 112.875371 143.320312 112.647259 C 143.089844 112.414673 142.78125 112.289435 142.457031 112.289435 C 142.132812 112.289435 141.824219 112.414673 141.59375 112.647259 C 141.367188 112.875371 141.238281 113.183994 141.238281 113.506035 C 141.238281 113.832548 141.367188 114.141171 141.59375 114.369283 C 141.824219 114.597396 142.132812 114.727107 142.457031 114.727107 Z M 142.457031 114.727107 " transform="matrix(1, 0, 0, 0.873336, 0, 0)"/>
<path fill-rule="nonzero" fill="rgb(0%, 51.371765%, 38.430786%)" fill-opacity="1" stroke-width="0.303325" stroke-linecap="butt" stroke-linejoin="round" stroke="rgb(81.959534%, 51.371765%, 38.430786%)" stroke-opacity="1" stroke-miterlimit="4" d="M 159.15625 97.234018 C 159.480469 97.234018 159.789062 97.10878 160.019531 96.876195 C 160.246094 96.648083 160.375 96.33946 160.375 96.017419 C 160.375 95.690905 160.246094 95.382283 160.019531 95.15417 C 159.789062 94.926058 159.480469 94.796347 159.15625 94.796347 C 158.832031 94.796347 158.523438 94.926058 158.292969 95.15417 C 158.0625 95.382283 157.933594 95.690905 157.933594 96.017419 C 157.933594 96.33946 158.0625 96.648083 158.292969 96.876195 C 158.523438 97.10878 158.832031 97.234018 159.15625 97.234018 Z M 159.15625 97.234018 " transform="matrix(1, 0, 0, 0.873336, 0, 0)"/>
<path fill-rule="nonzero" fill="rgb(0%, 51.371765%, 38.430786%)" fill-opacity="1" stroke-width="0.303325" stroke-linecap="butt" stroke-linejoin="round" stroke="rgb(81.959534%, 51.371765%, 38.430786%)" stroke-opacity="1" stroke-miterlimit="4" d="M 177.296875 109.064552 C 177.621094 109.064552 177.929688 108.939314 178.160156 108.706729 C 178.386719 108.478617 178.515625 108.169994 178.515625 107.847953 C 178.515625 107.521439 178.386719 107.212817 178.160156 106.984704 C 177.929688 106.756592 177.621094 106.626881 177.296875 106.626881 C 176.972656 106.626881 176.664062 106.756592 176.433594 106.984704 C 176.207031 107.212817 176.078125 107.521439 176.078125 107.847953 C 176.078125 108.169994 176.207031 108.478617 176.433594 108.706729 C 176.664062 108.939314 176.972656 109.064552 177.296875 109.064552 Z M 177.296875 109.064552 " transform="matrix(1, 0, 0, 0.873336, 0, 0)"/>
<path fill-rule="nonzero" fill="rgb(81.959534%, 51.371765%, 38.430786%)" fill-opacity="1" stroke-width="2.876923" stroke-linecap="butt" stroke-linejoin="round" stroke="rgb(81.959534%, 51.371765%, 38.430786%)" stroke-opacity="1" stroke-miterlimit="4" d="M 32.398438 55.51818 C 32.722656 55.51818 33.03125 55.389424 33.261719 55.160076 C 33.488281 54.934753 33.617188 54.620909 33.617188 54.299018 C 33.617188 53.977126 33.488281 53.663283 33.261719 53.437959 C 33.03125 53.208611 32.722656 53.079855 32.398438 53.079855 C 32.074219 53.079855 31.765625 53.208611 31.535156 53.437959 C 31.304688 53.663283 31.179688 53.977126 31.179688 54.299018 C 31.179688 54.620909 31.304688 54.934753 31.535156 55.160076 C 31.765625 55.389424 32.074219 55.51818 32.398438 55.51818 Z M 32.398438 55.51818 " transform="matrix(1, 0, 0, 0.970825, 0, 0)"/>
<path fill-rule="nonzero" fill="rgb(81.959534%, 51.371765%, 38.430786%)" fill-opacity="1" stroke-width="2.876923" stroke-linecap="butt" stroke-linejoin="round" stroke="rgb(81.959534%, 51.371765%, 38.430786%)" stroke-opacity="1" stroke-miterlimit="4" d="M 53.101562 44.239918 C 53.425781 44.239918 53.734375 44.111162 53.964844 43.881814 C 54.191406 43.656491 54.320312 43.342647 54.320312 43.020756 C 54.320312 42.698864 54.191406 42.38502 53.964844 42.159697 C 53.734375 41.930349 53.425781 41.801593 53.101562 41.801593 C 52.777344 41.801593 52.46875 41.930349 52.238281 42.159697 C 52.007812 42.38502 51.878906 42.698864 51.878906 43.020756 C 51.878906 43.342647 52.007812 43.656491 52.238281 43.881814 C 52.46875 44.111162 52.777344 44.239918 53.101562 44.239918 Z M 53.101562 44.239918 " transform="matrix(1, 0, 0, 0.970825, 0, 0)"/>
<path fill-rule="nonzero" fill="rgb(81.959534%, 51.371765%, 38.430786%)" fill-opacity="1" stroke-width="2.876923" stroke-linecap="butt" stroke-linejoin="round" stroke="rgb(81.959534%, 51.371765%, 38.430786%)" stroke-opacity="1" stroke-miterlimit="4" d="M 57.546875 29.086891 C 57.867188 29.086891 58.179688 28.958135 58.40625 28.728787 C 58.636719 28.49944 58.765625 28.18962 58.765625 27.867728 C 58.765625 27.541814 58.636719 27.231993 58.40625 27.002646 C 58.179688 26.777322 57.867188 26.648566 57.546875 26.648566 C 57.222656 26.648566 56.910156 26.777322 56.683594 27.002646 C 56.453125 27.231993 56.324219 27.541814 56.324219 27.867728 C 56.324219 28.18962 56.453125 28.49944 56.683594 28.728787 C 56.910156 28.958135 57.222656 29.086891 57.546875 29.086891 Z M 57.546875 29.086891 " transform="matrix(1, 0, 0, 0.970825, 0, 0)"/>
<path fill-rule="nonzero" fill="rgb(81.959534%, 51.371765%, 38.430786%)" fill-opacity="1" stroke-width="2.876923" stroke-linecap="butt" stroke-linejoin="round" stroke="rgb(81.959534%, 51.371765%, 38.430786%)" stroke-opacity="1" stroke-miterlimit="4" d="M 78.230469 40.039239 C 78.554688 40.039239 78.863281 39.910482 79.09375 39.681135 C 79.324219 39.451787 79.449219 39.141967 79.449219 38.816052 C 79.449219 38.494161 79.324219 38.184341 79.09375 37.954993 C 78.863281 37.725646 78.554688 37.596889 78.230469 37.596889 C 77.90625 37.596889 77.597656 37.725646 77.367188 37.954993 C 77.140625 38.184341 77.011719 38.494161 77.011719 38.816052 C 77.011719 39.141967 77.140625 39.451787 77.367188 39.681135 C 77.597656 39.910482 77.90625 40.039239 78.230469 40.039239 Z M 78.230469 40.039239 " transform="matrix(1, 0, 0, 0.970825, 0, 0)"/>
<path fill-rule="nonzero" fill="rgb(81.959534%, 51.371765%, 38.430786%)" fill-opacity="1" stroke-width="2.876923" stroke-linecap="butt" stroke-linejoin="round" stroke="rgb(81.959534%, 51.371765%, 38.430786%)" stroke-opacity="1" stroke-miterlimit="4" d="M 91.644531 46.76274 C 91.96875 46.76274 92.277344 46.638008 92.507812 46.40866 C 92.734375 46.179313 92.863281 45.869492 92.863281 45.543578 C 92.863281 45.221686 92.734375 44.911866 92.507812 44.682519 C 92.277344 44.453171 91.96875 44.324415 91.644531 44.324415 C 91.320312 44.324415 91.011719 44.453171 90.78125 44.682519 C 90.554688 44.911866 90.425781 45.221686 90.425781 45.543578 C 90.425781 45.869492 90.554688 46.179313 90.78125 46.40866 C 91.011719 46.638008 91.320312 46.76274 91.644531 46.76274 Z M 91.644531 46.76274 " transform="matrix(1, 0, 0, 0.970825, 0, 0)"/>
<path fill-rule="nonzero" fill="rgb(81.959534%, 51.371765%, 38.430786%)" fill-opacity="1" stroke-width="2.876923" stroke-linecap="butt" stroke-linejoin="round" stroke="rgb(81.959534%, 51.371765%, 38.430786%)" stroke-opacity="1" stroke-miterlimit="4" d="M 106.664062 101.146254 C 106.988281 101.146254 107.300781 101.017498 107.527344 100.788151 C 107.757812 100.558803 107.886719 100.248983 107.886719 99.927092 C 107.886719 99.601177 107.757812 99.291357 107.527344 99.062009 C 107.300781 98.832662 106.988281 98.703905 106.664062 98.703905 C 106.339844 98.703905 106.03125 98.832662 105.800781 99.062009 C 105.574219 99.291357 105.445312 99.601177 105.445312 99.927092 C 105.445312 100.248983 105.574219 100.558803 105.800781 100.788151 C 106.03125 101.017498 106.339844 101.146254 106.664062 101.146254 Z M 106.664062 101.146254 " transform="matrix(1, 0, 0, 0.970825, 0, 0)"/>
<path fill-rule="nonzero" fill="rgb(81.959534%, 51.371765%, 38.430786%)" fill-opacity="1" stroke-width="2.876923" stroke-linecap="butt" stroke-linejoin="round" stroke="rgb(81.959534%, 51.371765%, 38.430786%)" stroke-opacity="1" stroke-miterlimit="4" d="M 124.042969 98.546983 C 124.367188 98.546983 124.675781 98.418227 124.90625 98.188879 C 125.132812 97.959532 125.261719 97.649712 125.261719 97.32782 C 125.261719 97.001906 125.132812 96.692085 124.90625 96.462738 C 124.675781 96.237414 124.367188 96.108658 124.042969 96.108658 C 123.71875 96.108658 123.40625 96.237414 123.179688 96.462738 C 122.949219 96.692085 122.820312 97.001906 122.820312 97.32782 C 122.820312 97.649712 122.949219 97.959532 123.179688 98.188879 C 123.40625 98.418227 123.71875 98.546983 124.042969 98.546983 Z M 124.042969 98.546983 " transform="matrix(1, 0, 0, 0.970825, 0, 0)"/>
<path fill-rule="nonzero" fill="rgb(81.959534%, 51.371765%, 38.430786%)" fill-opacity="1" stroke-width="2.876923" stroke-linecap="butt" stroke-linejoin="round" stroke="rgb(81.959534%, 51.371765%, 38.430786%)" stroke-opacity="1" stroke-miterlimit="4" d="M 142.457031 103.331091 C 142.78125 103.331091 143.089844 103.202334 143.320312 102.972987 C 143.546875 102.743639 143.675781 102.433819 143.675781 102.107904 C 143.675781 101.786013 143.546875 101.476193 143.320312 101.246845 C 143.089844 101.017498 142.78125 100.888742 142.457031 100.888742 C 142.132812 100.888742 141.824219 101.017498 141.59375 101.246845 C 141.367188 101.476193 141.238281 101.786013 141.238281 102.107904 C 141.238281 102.433819 141.367188 102.743639 141.59375 102.972987 C 141.824219 103.202334 142.132812 103.331091 142.457031 103.331091 Z M 142.457031 103.331091 " transform="matrix(1, 0, 0, 0.970825, 0, 0)"/>
<path fill-rule="nonzero" fill="rgb(81.959534%, 51.371765%, 38.430786%)" fill-opacity="1" stroke-width="2.876923" stroke-linecap="butt" stroke-linejoin="round" stroke="rgb(81.959534%, 51.371765%, 38.430786%)" stroke-opacity="1" stroke-miterlimit="4" d="M 159.15625 87.594636 C 159.480469 87.594636 159.789062 87.46588 160.019531 87.236532 C 160.246094 87.007185 160.375 86.697364 160.375 86.375473 C 160.375 86.049558 160.246094 85.739738 160.019531 85.510391 C 159.789062 85.281043 159.480469 85.152287 159.15625 85.152287 C 158.832031 85.152287 158.519531 85.281043 158.292969 85.510391 C 158.0625 85.739738 157.933594 86.049558 157.933594 86.375473 C 157.933594 86.697364 158.0625 87.007185 158.292969 87.236532 C 158.519531 87.46588 158.832031 87.594636 159.15625 87.594636 Z M 159.15625 87.594636 " transform="matrix(1, 0, 0, 0.970825, 0, 0)"/>
<path fill-rule="nonzero" fill="rgb(81.959534%, 51.371765%, 38.430786%)" fill-opacity="1" stroke-width="2.876923" stroke-linecap="butt" stroke-linejoin="round" stroke="rgb(81.959534%, 51.371765%, 38.430786%)" stroke-opacity="1" stroke-miterlimit="4" d="M 177.296875 98.237163 C 177.621094 98.237163 177.929688 98.108407 178.160156 97.879059 C 178.386719 97.649712 178.515625 97.339891 178.515625 97.018 C 178.515625 96.692085 178.386719 96.382265 178.160156 96.152918 C 177.929688 95.92357 177.621094 95.794814 177.296875 95.794814 C 176.972656 95.794814 176.664062 95.92357 176.433594 96.152918 C 176.207031 96.382265 176.078125 96.692085 176.078125 97.018 C 176.078125 97.339891 176.207031 97.649712 176.433594 97.879059 C 176.664062 98.108407 176.972656 98.237163 177.296875 98.237163 Z M 177.296875 98.237163 " transform="matrix(1, 0, 0, 0.970825, 0, 0)"/>
<path fill-rule="nonzero" fill="rgb(50.195312%, 50.195312%, 50.195312%)" fill-opacity="1" d="M 103.785156 123.566406 C 103.773438 122.402344 103.511719 120.71875 102.039062 120.71875 C 100.5625 120.71875 100.316406 122.429688 100.316406 123.566406 C 100.316406 124.71875 100.574219 126.390625 102.039062 126.390625 C 103.5 126.390625 103.785156 124.71875 103.785156 123.566406 Z M 103.214844 123.566406 C 103.214844 124.324219 103.152344 125.871094 102.039062 125.871094 C 100.921875 125.871094 100.886719 124.296875 100.886719 123.566406 C 100.886719 122.824219 100.910156 121.226562 102.039062 121.226562 C 103.152344 121.226562 103.214844 122.835938 103.214844 123.566406 Z M 103.214844 123.566406 "/>
<path fill-rule="nonzero" fill="rgb(50.195312%, 50.195312%, 50.195312%)" fill-opacity="1" d="M 104.796875 125.476562 L 105.550781 125.476562 L 105.550781 126.28125 L 104.796875 126.28125 Z M 104.796875 125.476562 "/>
<path fill-rule="nonzero" fill="rgb(50.195312%, 50.195312%, 50.195312%)" fill-opacity="1" d="M 109.632812 124.546875 C 109.621094 123.429688 108.929688 122.699219 107.8125 122.699219 C 107.664062 122.714844 107.332031 122.75 107.132812 122.824219 L 107.332031 121.386719 L 109.261719 121.386719 L 109.261719 120.816406 L 106.933594 120.816406 L 106.601562 123.519531 C 107.035156 123.308594 107.132812 123.257812 107.691406 123.257812 C 108.496094 123.257812 109.066406 123.703125 109.066406 124.546875 C 109.066406 125.414062 108.507812 125.835938 107.691406 125.835938 C 107.144531 125.835938 106.785156 125.722656 106.390625 125.476562 L 106.390625 126.15625 C 106.75 126.292969 107.28125 126.390625 107.703125 126.390625 C 108.878906 126.390625 109.632812 125.746094 109.632812 124.546875 Z M 109.632812 124.546875 "/>
<path fill-rule="nonzero" fill="rgb(50.195312%, 50.195312%, 50.195312%)" fill-opacity="1" d="M 24.507812 123.566406 C 24.496094 122.402344 24.238281 120.71875 22.761719 120.71875 C 21.289062 120.71875 21.042969 122.429688 21.042969 123.566406 C 21.042969 124.71875 21.300781 126.390625 22.761719 126.390625 C 24.226562 126.390625 24.507812 124.71875 24.507812 123.566406 Z M 23.941406 123.566406 C 23.941406 124.324219 23.878906 125.871094 22.761719 125.871094 C 21.648438 125.871094 21.609375 124.296875 21.609375 123.566406 C 21.609375 122.824219 21.636719 121.226562 22.761719 121.226562 C 23.878906 121.226562 23.941406 122.835938 23.941406 123.566406 Z M 23.941406 123.566406 "/>
<path fill-rule="nonzero" fill="rgb(50.195312%, 50.195312%, 50.195312%)" fill-opacity="1" d="M 25.523438 125.476562 L 26.277344 125.476562 L 26.277344 126.28125 L 25.523438 126.28125 Z M 25.523438 125.476562 "/>
<path fill-rule="nonzero" fill="rgb(50.195312%, 50.195312%, 50.195312%)" fill-opacity="1" d="M 30.757812 123.566406 C 30.746094 122.402344 30.484375 120.71875 29.011719 120.71875 C 27.535156 120.71875 27.289062 122.429688 27.289062 123.566406 C 27.289062 124.71875 27.546875 126.390625 29.011719 126.390625 C 30.472656 126.390625 30.757812 124.71875 30.757812 123.566406 Z M 30.1875 123.566406 C 30.1875 124.324219 30.125 125.871094 29.011719 125.871094 C 27.894531 125.871094 27.859375 124.296875 27.859375 123.566406 C 27.859375 122.824219 27.882812 121.226562 29.011719 121.226562 C 30.125 121.226562 30.1875 122.835938 30.1875 123.566406 Z M 30.1875 123.566406 "/>
<path fill-rule="nonzero" fill="rgb(50.195312%, 50.195312%, 50.195312%)" fill-opacity="1" d="M 181.925781 126.28125 L 181.925781 120.816406 L 181.265625 120.816406 L 180.488281 121.449219 L 180.488281 122.070312 L 181.304688 121.398438 L 181.304688 126.28125 Z M 181.925781 126.28125 "/>
<path fill-rule="nonzero" fill="rgb(50.195312%, 50.195312%, 50.195312%)" fill-opacity="1" d="M 183.109375 125.476562 L 183.867188 125.476562 L 183.867188 126.28125 L 183.109375 126.28125 Z M 183.109375 125.476562 "/>
<g clip-path="url(#clip-4)">
<path fill-rule="nonzero" fill="rgb(50.195312%, 50.195312%, 50.195312%)" fill-opacity="1" d="M 188.34375 123.566406 C 188.332031 122.402344 188.070312 120.71875 186.597656 120.71875 C 185.125 120.71875 184.875 122.429688 184.875 123.566406 C 184.875 124.71875 185.136719 126.390625 186.597656 126.390625 C 188.058594 126.390625 188.34375 124.71875 188.34375 123.566406 Z M 187.773438 123.566406 C 187.773438 124.324219 187.714844 125.871094 186.597656 125.871094 C 185.484375 125.871094 185.445312 124.296875 185.445312 123.566406 C 185.445312 122.824219 185.472656 121.226562 186.597656 121.226562 C 187.714844 121.226562 187.773438 122.835938 187.773438 123.566406 Z M 187.773438 123.566406 "/>
</g>
<path fill-rule="nonzero" fill="rgb(50.195312%, 50.195312%, 50.195312%)" fill-opacity="1" d="M 15.210938 60.472656 C 15.199219 59.308594 14.9375 57.621094 13.464844 57.621094 C 11.992188 57.621094 11.742188 59.332031 11.742188 60.472656 C 11.742188 61.625 12.003906 63.296875 13.464844 63.296875 C 14.925781 63.296875 15.210938 61.625 15.210938 60.472656 Z M 14.640625 60.472656 C 14.640625 61.226562 14.578125 62.773438 13.464844 62.773438 C 12.351562 62.773438 12.3125 61.203125 12.3125 60.472656 C 12.3125 59.726562 12.339844 58.128906 13.464844 58.128906 C 14.578125 58.128906 14.640625 59.742188 14.640625 60.472656 Z M 14.640625 60.472656 "/>
<path fill-rule="nonzero" fill="rgb(50.195312%, 50.195312%, 50.195312%)" fill-opacity="1" d="M 16.226562 62.378906 L 16.980469 62.378906 L 16.980469 63.183594 L 16.226562 63.183594 Z M 16.226562 62.378906 "/>
<path fill-rule="nonzero" fill="rgb(50.195312%, 50.195312%, 50.195312%)" fill-opacity="1" d="M 21.457031 60.472656 C 21.445312 59.308594 21.1875 57.621094 19.710938 57.621094 C 18.238281 57.621094 17.992188 59.332031 17.992188 60.472656 C 17.992188 61.625 18.25 63.296875 19.710938 63.296875 C 21.171875 63.296875 21.457031 61.625 21.457031 60.472656 Z M 20.890625 60.472656 C 20.890625 61.226562 20.828125 62.773438 19.710938 62.773438 C 18.597656 62.773438 18.558594 61.203125 18.558594 60.472656 C 18.558594 59.726562 18.585938 58.128906 19.710938 58.128906 C 20.828125 58.128906 20.890625 59.742188 20.890625 60.472656 Z M 20.890625 60.472656 "/>
<path fill-rule="nonzero" fill="rgb(50.195312%, 50.195312%, 50.195312%)" fill-opacity="1" d="M 14.84375 5.5625 L 14.84375 0.0976562 L 14.1875 0.0976562 L 13.410156 0.730469 L 13.410156 1.351562 L 14.226562 0.679688 L 14.226562 5.5625 Z M 14.84375 5.5625 "/>
<path fill-rule="nonzero" fill="rgb(50.195312%, 50.195312%, 50.195312%)" fill-opacity="1" d="M 16.03125 4.757812 L 16.789062 4.757812 L 16.789062 5.5625 L 16.03125 5.5625 Z M 16.03125 4.757812 "/>
<path fill-rule="nonzero" fill="rgb(50.195312%, 50.195312%, 50.195312%)" fill-opacity="1" d="M 21.265625 2.847656 C 21.253906 1.683594 20.992188 0 19.519531 0 C 18.046875 0 17.796875 1.710938 17.796875 2.847656 C 17.796875 4 18.058594 5.671875 19.519531 5.671875 C 20.980469 5.671875 21.265625 4 21.265625 2.847656 Z M 20.695312 2.847656 C 20.695312 3.605469 20.632812 5.152344 19.519531 5.152344 C 18.40625 5.152344 18.367188 3.578125 18.367188 2.847656 C 18.367188 2.105469 18.390625 0.507812 19.519531 0.507812 C 20.632812 0.507812 20.695312 2.117188 20.695312 2.847656 Z M 20.695312 2.847656 "/>
<path fill-rule="nonzero" fill="rgb(50.195312%, 50.195312%, 50.195312%)" fill-opacity="1" d="M 11.382812 118.429688 L 13.179688 118.429688 L 13.179688 118.949219 L 11.382812 118.949219 Z M 11.382812 118.429688 "/>
<path fill-rule="nonzero" fill="rgb(50.195312%, 50.195312%, 50.195312%)" fill-opacity="1" d="M 15.398438 120.472656 L 15.398438 115.011719 L 14.742188 115.011719 L 13.960938 115.640625 L 13.960938 116.261719 L 14.78125 115.59375 L 14.78125 120.472656 Z M 15.398438 120.472656 "/>
<path fill-rule="nonzero" fill="rgb(50.195312%, 50.195312%, 50.195312%)" fill-opacity="1" d="M 16.585938 119.667969 L 17.34375 119.667969 L 17.34375 120.472656 L 16.585938 120.472656 Z M 16.585938 119.667969 "/>
<path fill-rule="nonzero" fill="rgb(50.195312%, 50.195312%, 50.195312%)" fill-opacity="1" d="M 21.820312 117.757812 C 21.808594 116.59375 21.546875 114.910156 20.074219 114.910156 C 18.601562 114.910156 18.351562 116.621094 18.351562 117.757812 C 18.351562 118.910156 18.613281 120.582031 20.074219 120.582031 C 21.535156 120.582031 21.820312 118.910156 21.820312 117.757812 Z M 21.25 117.757812 C 21.25 118.515625 21.1875 120.0625 20.074219 120.0625 C 18.960938 120.0625 18.921875 118.492188 18.921875 117.757812 C 18.921875 117.015625 18.945312 115.417969 20.074219 115.417969 C 21.1875 115.417969 21.25 117.027344 21.25 117.757812 Z M 21.25 117.757812 "/>
</svg>
