<?xml version="1.0" encoding="UTF-8"?>
<svg xmlns="http://www.w3.org/2000/svg" xmlns:xlink="http://www.w3.org/1999/xlink" width="408.323547pt" height="119.739052pt" viewBox="0 0 408.323547 119.739052">
<defs>
<clipPath id="clip-0">
<path clip-rule="nonzero" d="M 114 111 L 120 111 L 120 119.738281 L 114 119.738281 Z M 114 111 "/>
</clipPath>
<clipPath id="clip-1">
<path clip-rule="nonzero" d="M 138 111 L 143 111 L 143 119.738281 L 138 119.738281 Z M 138 111 "/>
</clipPath>
<clipPath id="clip-2">
<path clip-rule="nonzero" d="M 319 111 L 325 111 L 325 119.738281 L 319 119.738281 Z M 319 111 "/>
</clipPath>
<clipPath id="clip-3">
<path clip-rule="nonzero" d="M 343 111 L 348 111 L 348 119.738281 L 343 119.738281 Z M 343 111 "/>
</clipPath>
<clipPath id="clip-4">
<path clip-rule="nonzero" d="M 31 17 L 196 17 L 196 104.851562 L 31 104.851562 Z M 31 17 "/>
</clipPath>
<clipPath id="clip-5">
<path clip-rule="nonzero" d="M 404 108 L 408.324219 108 L 408.324219 115 L 404 115 Z M 404 108 "/>
</clipPath>
</defs>
<path fill-rule="nonzero" fill="rgb(0%, 0%, 0%)" fill-opacity="1" d="M 90.25 109.425781 L 90.25 108.617188 L 84.199219 108.617188 L 84.199219 109.425781 L 86.800781 109.425781 L 86.800781 116.375 L 87.648438 116.375 L 87.648438 109.425781 Z M 90.25 109.425781 "/>
<path fill-rule="nonzero" fill="rgb(0%, 0%, 0%)" fill-opacity="1" d="M 92.652344 112.328125 L 92.914062 111.519531 C 92.792969 111.378906 92.246094 111.238281 91.878906 111.238281 C 91.351562 111.253906 90.910156 111.519531 90.679688 111.996094 L 90.679688 111.308594 L 89.835938 111.308594 L 89.835938 116.375 L 90.679688 116.375 L 90.679688 113.703125 C 90.679688 113.683594 90.679688 113.664062 90.679688 113.664062 C 90.679688 112.925781 91.070312 111.960938 91.859375 111.960938 L 91.914062 111.960938 C 92.175781 111.960938 92.386719 112.117188 92.652344 112.328125 Z M 92.652344 112.328125 "/>
<path fill-rule="nonzero" fill="rgb(0%, 0%, 0%)" fill-opacity="1" d="M 97.585938 116.375 L 97.585938 113.488281 C 97.585938 112.03125 96.96875 111.183594 95.457031 111.183594 C 94.910156 111.183594 94.242188 111.359375 93.75 111.535156 L 93.75 112.363281 C 94.257812 112.082031 94.679688 111.90625 95.386719 111.90625 C 96.195312 111.925781 96.8125 112.328125 96.8125 113.171875 L 95.648438 113.171875 C 94.453125 113.171875 93.398438 113.578125 93.398438 114.898438 C 93.433594 115.917969 94.03125 116.515625 95.050781 116.515625 C 95.773438 116.515625 96.421875 116.21875 96.8125 115.707031 L 96.8125 116.375 Z M 96.8125 114.019531 C 96.8125 115.003906 96.351562 115.796875 95.296875 115.796875 C 94.679688 115.796875 94.171875 115.511719 94.171875 114.84375 C 94.171875 113.859375 95.105469 113.859375 95.984375 113.859375 L 96.8125 113.859375 Z M 96.8125 114.019531 "/>
<path fill-rule="nonzero" fill="rgb(0%, 0%, 0%)" fill-opacity="1" d="M 99.914062 116.375 L 99.914062 111.308594 L 99.070312 111.308594 L 99.070312 116.375 Z M 99.492188 108.617188 C 99.230469 108.617188 99 108.863281 99 109.125 C 99 109.40625 99.230469 109.652344 99.492188 109.652344 C 99.773438 109.652344 99.984375 109.40625 99.984375 109.125 C 99.984375 108.863281 99.773438 108.617188 99.492188 108.617188 Z M 99.492188 108.617188 "/>
<path fill-rule="nonzero" fill="rgb(0%, 0%, 0%)" fill-opacity="1" d="M 105.824219 116.375 L 105.824219 113.3125 C 105.824219 112.117188 105.3125 111.183594 104.011719 111.183594 C 103.359375 111.183594 102.691406 111.429688 102.285156 111.996094 L 102.285156 111.308594 L 101.460938 111.308594 L 101.460938 116.375 L 102.285156 116.375 L 102.285156 113.507812 C 102.320312 112.539062 102.921875 111.925781 103.816406 111.925781 C 104.699219 111.925781 105.015625 112.453125 105.015625 113.347656 L 105.015625 116.375 Z M 105.824219 116.375 "/>
<path fill-rule="nonzero" fill="rgb(0%, 0%, 0%)" fill-opacity="1" d="M 108.148438 116.375 L 108.148438 111.308594 L 107.304688 111.308594 L 107.304688 116.375 Z M 107.726562 108.617188 C 107.464844 108.617188 107.234375 108.863281 107.234375 109.125 C 107.234375 109.40625 107.464844 109.652344 107.726562 109.652344 C 108.007812 109.652344 108.21875 109.40625 108.21875 109.125 C 108.21875 108.863281 108.007812 108.617188 107.726562 108.617188 Z M 107.726562 108.617188 "/>
<path fill-rule="nonzero" fill="rgb(0%, 0%, 0%)" fill-opacity="1" d="M 114.058594 116.375 L 114.058594 113.3125 C 114.058594 112.117188 113.546875 111.183594 112.246094 111.183594 C 111.59375 111.183594 110.925781 111.429688 110.523438 111.996094 L 110.523438 111.308594 L 109.695312 111.308594 L 109.695312 116.375 L 110.523438 116.375 L 110.523438 113.507812 C 110.558594 112.539062 111.15625 111.925781 112.054688 111.925781 C 112.933594 111.925781 113.25 112.453125 113.25 113.347656 L 113.25 116.375 Z M 114.058594 116.375 "/>
<g clip-path="url(#clip-0)">
<path fill-rule="nonzero" fill="rgb(0%, 0%, 0%)" fill-opacity="1" d="M 117.070312 116.253906 C 118.019531 116.253906 118.671875 116.710938 118.671875 117.324219 C 118.671875 117.941406 118.019531 118.382812 117.070312 118.382812 C 116.121094 118.382812 115.59375 117.941406 115.59375 117.324219 C 115.59375 116.710938 116.121094 116.253906 117.070312 116.253906 Z M 117.070312 115.53125 C 116.984375 115.53125 116.894531 115.53125 116.789062 115.546875 C 116.261719 115.546875 115.804688 115.230469 115.804688 115.019531 C 115.804688 114.773438 116.085938 114.6875 116.296875 114.6875 L 116.367188 114.6875 C 116.542969 114.84375 117.070312 114.898438 117.230469 114.898438 C 118.199219 114.898438 118.972656 114.070312 118.972656 113.050781 C 118.972656 112.644531 118.832031 112.257812 118.601562 111.960938 L 119.429688 111.960938 L 119.429688 111.324219 L 118.003906 111.324219 C 117.773438 111.253906 117.457031 111.21875 117.28125 111.21875 C 116.316406 111.21875 115.503906 112.046875 115.46875 113.050781 C 115.46875 113.542969 115.644531 113.984375 115.960938 114.300781 C 115.59375 114.371094 115.1875 114.617188 115.1875 115.089844 C 115.1875 115.390625 115.382812 115.671875 115.785156 115.847656 C 115.136719 116.183594 114.75 116.726562 114.75 117.308594 C 114.75 118.222656 115.679688 119.066406 117.070312 119.066406 C 118.480469 119.066406 119.621094 118.222656 119.621094 117.324219 C 119.621094 116.148438 118.25 115.53125 117.070312 115.53125 Z M 117.230469 111.925781 C 117.828125 111.925781 118.320312 112.417969 118.320312 113.03125 C 118.320312 113.628906 117.828125 114.125 117.230469 114.125 C 116.613281 114.125 116.136719 113.628906 116.136719 113.03125 C 116.136719 112.417969 116.613281 111.925781 117.230469 111.925781 Z M 117.230469 111.925781 "/>
</g>
<path fill-rule="nonzero" fill="rgb(0%, 0%, 0%)" fill-opacity="1" d="M 127.824219 114.96875 C 127.824219 113.964844 127.136719 113.648438 126.222656 113.472656 L 125.871094 113.402344 C 125.378906 113.296875 124.65625 113.191406 124.65625 112.644531 C 124.691406 112.011719 125.429688 111.890625 125.996094 111.890625 C 126.890625 111.925781 126.820312 111.976562 127.578125 112.292969 L 127.578125 111.464844 C 127.101562 111.273438 126.503906 111.183594 125.890625 111.183594 C 124.886719 111.183594 123.902344 111.554688 123.902344 112.679688 C 123.917969 113.59375 124.535156 113.949219 125.378906 114.105469 L 125.695312 114.175781 C 126.3125 114.316406 127.015625 114.386719 127.015625 115.039062 C 126.980469 115.671875 126.257812 115.796875 125.695312 115.796875 C 124.761719 115.777344 124.621094 115.671875 123.8125 115.285156 L 123.8125 116.199219 C 124.289062 116.324219 125.113281 116.515625 125.679688 116.515625 C 126.664062 116.515625 127.824219 116.148438 127.824219 114.96875 Z M 127.824219 114.96875 "/>
<path fill-rule="nonzero" fill="rgb(0%, 0%, 0%)" fill-opacity="1" d="M 131.894531 116.375 L 131.894531 115.65625 L 131.011719 115.65625 C 130.222656 115.65625 130.082031 115.460938 130.082031 114.722656 L 130.082031 111.976562 L 131.574219 111.976562 L 131.574219 111.308594 L 130.082031 111.308594 L 130.082031 109.867188 L 129.726562 109.867188 L 129.253906 111.308594 L 128.65625 111.308594 L 128.65625 111.976562 L 129.253906 111.976562 L 129.253906 114.722656 C 129.253906 115.988281 129.761719 116.375 131.011719 116.375 Z M 131.894531 116.375 "/>
<path fill-rule="nonzero" fill="rgb(0%, 0%, 0%)" fill-opacity="1" d="M 136.941406 113.84375 L 136.941406 113.753906 C 136.941406 112.292969 136.339844 111.21875 134.671875 111.183594 C 133.175781 111.183594 132.328125 112.488281 132.328125 113.894531 C 132.328125 115.425781 133.261719 116.515625 134.8125 116.515625 C 135.515625 116.515625 136.148438 116.359375 136.765625 116.128906 L 136.765625 115.285156 C 135.953125 115.671875 135.832031 115.761719 134.882812 115.761719 C 133.824219 115.761719 133.191406 115.125 133.191406 113.929688 L 133.191406 113.84375 Z M 136.113281 113.15625 L 133.226562 113.15625 C 133.332031 112.488281 133.824219 111.90625 134.671875 111.90625 C 135.550781 111.90625 136.113281 112.453125 136.113281 113.15625 Z M 136.113281 113.15625 "/>
<g clip-path="url(#clip-1)">
<path fill-rule="nonzero" fill="rgb(0%, 0%, 0%)" fill-opacity="1" d="M 142.804688 113.84375 C 142.804688 112.363281 141.820312 111.308594 140.324219 111.308594 L 138.160156 111.308594 L 138.160156 119.085938 L 139.003906 119.085938 L 139.003906 116.375 L 140.253906 116.375 C 141.890625 116.375 142.804688 115.355469 142.804688 113.84375 Z M 141.996094 113.84375 C 141.996094 114.84375 141.359375 115.636719 140.253906 115.636719 L 139.003906 115.636719 L 139.003906 112.046875 L 140.253906 112.046875 C 141.34375 112.046875 141.996094 112.769531 141.996094 113.84375 Z M 141.996094 113.84375 "/>
</g>
<path fill="none" stroke-width="0.850394" stroke-linecap="butt" stroke-linejoin="miter" stroke="rgb(50.195312%, 50.195312%, 50.195312%)" stroke-opacity="1" stroke-miterlimit="4" d="M 31.8125 104.925781 L 31.8125 106.8125 "/>
<path fill="none" stroke-width="0.850394" stroke-linecap="butt" stroke-linejoin="miter" stroke="rgb(50.195312%, 50.195312%, 50.195312%)" stroke-opacity="1" stroke-miterlimit="4" d="M 195.179688 104.925781 L 195.179688 106.8125 "/>
<path fill="none" stroke-width="0.850394" stroke-linecap="butt" stroke-linejoin="miter" stroke="rgb(50.195312%, 50.195312%, 50.195312%)" stroke-opacity="1" stroke-miterlimit="4" d="M 59.03125 106.210938 L 59.03125 104.925781 "/>
<path fill="none" stroke-width="0.850394" stroke-linecap="butt" stroke-linejoin="miter" stroke="rgb(50.195312%, 50.195312%, 50.195312%)" stroke-opacity="1" stroke-miterlimit="4" d="M 86.246094 106.210938 L 86.246094 104.925781 "/>
<path fill="none" stroke-width="0.850394" stroke-linecap="butt" stroke-linejoin="miter" stroke="rgb(50.195312%, 50.195312%, 50.195312%)" stroke-opacity="1" stroke-miterlimit="4" d="M 113.460938 106.210938 L 113.460938 104.925781 "/>
<path fill="none" stroke-width="0.850394" stroke-linecap="butt" stroke-linejoin="miter" stroke="rgb(50.195312%, 50.195312%, 50.195312%)" stroke-opacity="1" stroke-miterlimit="4" d="M 31.636719 8.957031 L 29.753906 8.957031 "/>
<path fill="none" stroke-width="0.850394" stroke-linecap="butt" stroke-linejoin="miter" stroke="rgb(50.195312%, 50.195312%, 50.195312%)" stroke-opacity="1" stroke-miterlimit="4" d="M 31.636719 56.707031 L 29.753906 56.707031 "/>
<path fill="none" stroke-width="0.850394" stroke-linecap="butt" stroke-linejoin="miter" stroke="rgb(50.195312%, 50.195312%, 50.195312%)" stroke-opacity="1" stroke-miterlimit="4" d="M 31.546875 104.484375 L 29.664062 104.484375 "/>
<path fill="none" stroke-width="0.850394" stroke-linecap="butt" stroke-linejoin="miter" stroke="rgb(50.195312%, 50.195312%, 50.195312%)" stroke-opacity="1" stroke-miterlimit="4" d="M 31.636719 18.484375 L 30.351562 18.484375 "/>
<path fill="none" stroke-width="0.850394" stroke-linecap="butt" stroke-linejoin="miter" stroke="rgb(50.195312%, 50.195312%, 50.195312%)" stroke-opacity="1" stroke-miterlimit="4" d="M 31.636719 28.042969 L 30.351562 28.042969 "/>
<path fill="none" stroke-width="0.850394" stroke-linecap="butt" stroke-linejoin="miter" stroke="rgb(50.195312%, 50.195312%, 50.195312%)" stroke-opacity="1" stroke-miterlimit="4" d="M 31.636719 37.597656 L 30.351562 37.597656 "/>
<path fill="none" stroke-width="0.850394" stroke-linecap="butt" stroke-linejoin="miter" stroke="rgb(50.195312%, 50.195312%, 50.195312%)" stroke-opacity="1" stroke-miterlimit="4" d="M 31.636719 47.152344 L 30.351562 47.152344 "/>
<path fill="none" stroke-width="0.850394" stroke-linecap="butt" stroke-linejoin="miter" stroke="rgb(50.195312%, 50.195312%, 50.195312%)" stroke-opacity="1" stroke-miterlimit="4" d="M 31.636719 66.261719 L 30.351562 66.261719 "/>
<path fill="none" stroke-width="0.850394" stroke-linecap="butt" stroke-linejoin="miter" stroke="rgb(50.195312%, 50.195312%, 50.195312%)" stroke-opacity="1" stroke-miterlimit="4" d="M 31.636719 75.820312 L 30.351562 75.820312 "/>
<path fill="none" stroke-width="0.850394" stroke-linecap="butt" stroke-linejoin="miter" stroke="rgb(50.195312%, 50.195312%, 50.195312%)" stroke-opacity="1" stroke-miterlimit="4" d="M 31.636719 85.375 L 30.351562 85.375 "/>
<path fill="none" stroke-width="0.850394" stroke-linecap="butt" stroke-linejoin="miter" stroke="rgb(50.195312%, 50.195312%, 50.195312%)" stroke-opacity="1" stroke-miterlimit="4" d="M 31.636719 94.929688 L 30.351562 94.929688 "/>
<path fill-rule="nonzero" fill="rgb(81.959534%, 51.371765%, 38.430786%)" fill-opacity="1" d="M 176.449219 93.726562 L 176.449219 92.917969 L 170.398438 92.917969 L 170.398438 93.726562 L 173 93.726562 L 173 100.671875 L 173.84375 100.671875 L 173.84375 93.726562 Z M 176.449219 93.726562 "/>
<path fill-rule="nonzero" fill="rgb(81.959534%, 51.371765%, 38.430786%)" fill-opacity="1" d="M 178.847656 96.628906 L 179.113281 95.820312 C 178.988281 95.679688 178.445312 95.539062 178.074219 95.539062 C 177.546875 95.554688 177.105469 95.820312 176.878906 96.292969 L 176.878906 95.609375 L 176.035156 95.609375 L 176.035156 100.671875 L 176.878906 100.671875 L 176.878906 98 C 176.878906 97.980469 176.878906 97.964844 176.878906 97.964844 C 176.878906 97.226562 177.265625 96.257812 178.058594 96.257812 L 178.109375 96.257812 C 178.375 96.257812 178.585938 96.417969 178.847656 96.628906 Z M 178.847656 96.628906 "/>
<path fill-rule="nonzero" fill="rgb(81.959534%, 51.371765%, 38.430786%)" fill-opacity="1" d="M 183.78125 100.671875 L 183.78125 97.789062 C 183.78125 96.328125 183.164062 95.484375 181.652344 95.484375 C 181.105469 95.484375 180.4375 95.660156 179.945312 95.835938 L 179.945312 96.664062 C 180.457031 96.382812 180.878906 96.207031 181.582031 96.207031 C 182.390625 96.222656 183.007812 96.628906 183.007812 97.472656 L 181.84375 97.472656 C 180.648438 97.472656 179.59375 97.875 179.59375 99.195312 C 179.628906 100.214844 180.226562 100.8125 181.246094 100.8125 C 181.96875 100.8125 182.617188 100.515625 183.007812 100.003906 L 183.007812 100.671875 Z M 183.007812 98.316406 C 183.007812 99.300781 182.546875 100.09375 181.492188 100.09375 C 180.878906 100.09375 180.367188 99.8125 180.367188 99.144531 C 180.367188 98.15625 181.300781 98.15625 182.179688 98.15625 L 183.007812 98.15625 Z M 183.007812 98.316406 "/>
<path fill-rule="nonzero" fill="rgb(81.959534%, 51.371765%, 38.430786%)" fill-opacity="1" d="M 186.109375 100.671875 L 186.109375 95.609375 L 185.265625 95.609375 L 185.265625 100.671875 Z M 185.6875 92.917969 C 185.421875 92.917969 185.195312 93.164062 185.195312 93.425781 C 185.195312 93.707031 185.421875 93.953125 185.6875 93.953125 C 185.96875 93.953125 186.179688 93.707031 186.179688 93.425781 C 186.179688 93.164062 185.96875 92.917969 185.6875 92.917969 Z M 185.6875 92.917969 "/>
<path fill-rule="nonzero" fill="rgb(81.959534%, 51.371765%, 38.430786%)" fill-opacity="1" d="M 192.015625 100.671875 L 192.015625 97.613281 C 192.015625 96.417969 191.503906 95.484375 190.203125 95.484375 C 189.554688 95.484375 188.886719 95.730469 188.480469 96.292969 L 188.480469 95.609375 L 187.652344 95.609375 L 187.652344 100.671875 L 188.480469 100.671875 L 188.480469 97.804688 C 188.515625 96.839844 189.113281 96.222656 190.011719 96.222656 C 190.890625 96.222656 191.207031 96.75 191.207031 97.648438 L 191.207031 100.671875 Z M 192.015625 100.671875 "/>
<path fill="none" stroke-width="0.850394" stroke-linecap="butt" stroke-linejoin="miter" stroke="rgb(50.195312%, 50.195312%, 50.195312%)" stroke-opacity="1" stroke-miterlimit="4" d="M 236.691406 104.925781 L 236.691406 106.8125 "/>
<path fill="none" stroke-width="0.850394" stroke-linecap="butt" stroke-linejoin="miter" stroke="rgb(50.195312%, 50.195312%, 50.195312%)" stroke-opacity="1" stroke-miterlimit="4" d="M 400.050781 104.925781 L 400.050781 106.8125 "/>
<path fill="none" stroke-width="0.850394" stroke-linecap="butt" stroke-linejoin="miter" stroke="rgb(50.195312%, 50.195312%, 50.195312%)" stroke-opacity="1" stroke-miterlimit="4" d="M 263.71875 106.210938 L 263.71875 104.925781 "/>
<path fill="none" stroke-width="0.850394" stroke-linecap="butt" stroke-linejoin="miter" stroke="rgb(50.195312%, 50.195312%, 50.195312%)" stroke-opacity="1" stroke-miterlimit="4" d="M 345.433594 106.210938 L 345.433594 104.925781 "/>
<path fill="none" stroke-width="0.850394" stroke-linecap="butt" stroke-linejoin="miter" stroke="rgb(50.195312%, 50.195312%, 50.195312%)" stroke-opacity="1" stroke-miterlimit="4" d="M 372.671875 106.210938 L 372.671875 104.925781 "/>
<path fill="none" stroke-width="0.850394" stroke-linecap="butt" stroke-linejoin="miter" stroke="rgb(50.195312%, 50.195312%, 50.195312%)" stroke-opacity="1" stroke-miterlimit="4" d="M 236.433594 8.957031 L 234.550781 8.957031 "/>
<path fill="none" stroke-width="0.850394" stroke-linecap="butt" stroke-linejoin="miter" stroke="rgb(50.195312%, 50.195312%, 50.195312%)" stroke-opacity="1" stroke-miterlimit="4" d="M 236.347656 104.484375 L 234.464844 104.484375 "/>
<path fill="none" stroke-width="0.850394" stroke-linecap="butt" stroke-linejoin="miter" stroke="rgb(50.195312%, 50.195312%, 50.195312%)" stroke-opacity="1" stroke-miterlimit="4" d="M 236.433594 24.855469 L 235.148438 24.855469 "/>
<path fill="none" stroke-width="0.850394" stroke-linecap="butt" stroke-linejoin="miter" stroke="rgb(50.195312%, 50.195312%, 50.195312%)" stroke-opacity="1" stroke-miterlimit="4" d="M 236.433594 88.558594 L 235.148438 88.558594 "/>
<path fill-rule="nonzero" fill="rgb(81.959534%, 51.371765%, 38.430786%)" fill-opacity="1" d="M 380.296875 93.710938 L 380.296875 92.902344 L 374.242188 92.902344 L 374.242188 93.710938 L 376.847656 93.710938 L 376.847656 100.660156 L 377.691406 100.660156 L 377.691406 93.710938 Z M 380.296875 93.710938 "/>
<path fill-rule="nonzero" fill="rgb(81.959534%, 51.371765%, 38.430786%)" fill-opacity="1" d="M 382.695312 96.613281 L 382.960938 95.804688 C 382.835938 95.664062 382.289062 95.523438 381.921875 95.523438 C 381.394531 95.542969 380.953125 95.804688 380.726562 96.28125 L 380.726562 95.59375 L 379.882812 95.59375 L 379.882812 100.660156 L 380.726562 100.660156 L 380.726562 97.984375 C 380.726562 97.96875 380.726562 97.949219 380.726562 97.949219 C 380.726562 97.210938 381.113281 96.246094 381.902344 96.246094 L 381.957031 96.246094 C 382.21875 96.246094 382.429688 96.402344 382.695312 96.613281 Z M 382.695312 96.613281 "/>
<path fill-rule="nonzero" fill="rgb(81.959534%, 51.371765%, 38.430786%)" fill-opacity="1" d="M 387.625 100.660156 L 387.625 97.773438 C 387.625 96.316406 387.011719 95.472656 385.5 95.472656 C 384.953125 95.472656 384.285156 95.648438 383.792969 95.824219 L 383.792969 96.648438 C 384.300781 96.367188 384.722656 96.191406 385.425781 96.191406 C 386.238281 96.210938 386.851562 96.613281 386.851562 97.457031 L 385.691406 97.457031 C 384.496094 97.457031 383.441406 97.863281 383.441406 99.183594 C 383.476562 100.203125 384.074219 100.800781 385.09375 100.800781 C 385.816406 100.800781 386.464844 100.5 386.851562 99.992188 L 386.851562 100.660156 Z M 386.851562 98.304688 C 386.851562 99.289062 386.394531 100.078125 385.339844 100.078125 C 384.722656 100.078125 384.214844 99.796875 384.214844 99.128906 C 384.214844 98.144531 385.144531 98.144531 386.027344 98.144531 L 386.851562 98.144531 Z M 386.851562 98.304688 "/>
<path fill-rule="nonzero" fill="rgb(81.959534%, 51.371765%, 38.430786%)" fill-opacity="1" d="M 389.957031 100.660156 L 389.957031 95.59375 L 389.109375 95.59375 L 389.109375 100.660156 Z M 389.535156 92.902344 C 389.269531 92.902344 389.039062 93.148438 389.039062 93.414062 C 389.039062 93.695312 389.269531 93.941406 389.535156 93.941406 C 389.816406 93.941406 390.027344 93.695312 390.027344 93.414062 C 390.027344 93.148438 389.816406 92.902344 389.535156 92.902344 Z M 389.535156 92.902344 "/>
<path fill-rule="nonzero" fill="rgb(81.959534%, 51.371765%, 38.430786%)" fill-opacity="1" d="M 395.863281 100.660156 L 395.863281 97.597656 C 395.863281 96.402344 395.351562 95.472656 394.050781 95.472656 C 393.398438 95.472656 392.730469 95.71875 392.328125 96.28125 L 392.328125 95.59375 L 391.5 95.59375 L 391.5 100.660156 L 392.328125 100.660156 L 392.328125 97.792969 C 392.363281 96.824219 392.960938 96.210938 393.855469 96.210938 C 394.738281 96.210938 395.054688 96.738281 395.054688 97.632812 L 395.054688 100.660156 Z M 395.863281 100.660156 "/>
<path fill-rule="nonzero" fill="rgb(20.391846%, 51.371765%, 47.842407%)" fill-opacity="1" d="M 382.957031 25.363281 L 382.957031 24.554688 L 376.90625 24.554688 L 376.90625 25.363281 L 379.511719 25.363281 L 379.511719 32.308594 L 380.355469 32.308594 L 380.355469 25.363281 Z M 382.957031 25.363281 "/>
<path fill-rule="nonzero" fill="rgb(20.391846%, 51.371765%, 47.842407%)" fill-opacity="1" d="M 386.867188 29.777344 L 386.867188 29.6875 C 386.867188 28.230469 386.269531 27.15625 384.597656 27.121094 C 383.101562 27.121094 382.257812 28.421875 382.257812 29.828125 C 382.257812 31.359375 383.191406 32.449219 384.738281 32.449219 C 385.441406 32.449219 386.074219 32.292969 386.691406 32.0625 L 386.691406 31.21875 C 385.882812 31.605469 385.757812 31.695312 384.808594 31.695312 C 383.753906 31.695312 383.121094 31.0625 383.121094 29.867188 L 383.121094 29.777344 Z M 386.039062 29.089844 L 383.15625 29.089844 C 383.261719 28.421875 383.753906 27.84375 384.597656 27.84375 C 385.476562 27.84375 386.039062 28.386719 386.039062 29.089844 Z M 386.039062 29.089844 "/>
<path fill-rule="nonzero" fill="rgb(20.391846%, 51.371765%, 47.842407%)" fill-opacity="1" d="M 391.796875 30.902344 C 391.796875 29.902344 391.109375 29.582031 390.195312 29.40625 L 389.84375 29.335938 C 389.351562 29.230469 388.628906 29.125 388.628906 28.582031 C 388.664062 27.949219 389.402344 27.824219 389.964844 27.824219 C 390.863281 27.859375 390.792969 27.914062 391.550781 28.230469 L 391.550781 27.402344 C 391.074219 27.210938 390.476562 27.121094 389.859375 27.121094 C 388.859375 27.121094 387.875 27.492188 387.875 28.617188 C 387.890625 29.53125 388.507812 29.882812 389.351562 30.042969 L 389.667969 30.113281 C 390.285156 30.253906 390.988281 30.324219 390.988281 30.972656 C 390.953125 31.605469 390.230469 31.730469 389.667969 31.730469 C 388.734375 31.710938 388.59375 31.605469 387.785156 31.21875 L 387.785156 32.132812 C 388.261719 32.257812 389.085938 32.449219 389.648438 32.449219 C 390.636719 32.449219 391.796875 32.082031 391.796875 30.902344 Z M 391.796875 30.902344 "/>
<path fill-rule="nonzero" fill="rgb(20.391846%, 51.371765%, 47.842407%)" fill-opacity="1" d="M 395.863281 32.308594 L 395.863281 31.589844 L 394.984375 31.589844 C 394.191406 31.589844 394.050781 31.394531 394.050781 30.65625 L 394.050781 27.914062 L 395.546875 27.914062 L 395.546875 27.246094 L 394.050781 27.246094 L 394.050781 25.800781 L 393.699219 25.800781 L 393.222656 27.246094 L 392.625 27.246094 L 392.625 27.914062 L 393.222656 27.914062 L 393.222656 30.65625 C 393.222656 31.921875 393.734375 32.308594 394.984375 32.308594 Z M 395.863281 32.308594 "/>
<path fill="none" stroke-width="0.850394" stroke-linecap="butt" stroke-linejoin="miter" stroke="rgb(50.195312%, 50.195312%, 50.195312%)" stroke-opacity="1" stroke-miterlimit="4" d="M 318.195312 106.210938 L 318.195312 104.925781 "/>
<path fill="none" stroke-width="0.850394" stroke-linecap="butt" stroke-linejoin="miter" stroke="rgb(50.195312%, 50.195312%, 50.195312%)" stroke-opacity="1" stroke-miterlimit="4" d="M 236.433594 56.707031 L 235.148438 56.707031 "/>
<path fill="none" stroke-width="0.850394" stroke-linecap="butt" stroke-linejoin="miter" stroke="rgb(50.195312%, 50.195312%, 50.195312%)" stroke-opacity="1" stroke-miterlimit="4" d="M 167.894531 106.210938 L 167.894531 104.925781 "/>
<path fill="none" stroke-width="0.850394" stroke-linecap="butt" stroke-linejoin="miter" stroke="rgb(50.195312%, 50.195312%, 50.195312%)" stroke-opacity="1" stroke-miterlimit="4" d="M 140.679688 106.210938 L 140.679688 104.925781 "/>
<path fill="none" stroke-width="0.850394" stroke-linecap="butt" stroke-linejoin="miter" stroke="rgb(50.195312%, 50.195312%, 50.195312%)" stroke-opacity="1" stroke-miterlimit="4" d="M 290.957031 106.210938 L 290.957031 104.925781 "/>
<path fill="none" stroke-width="0.850394" stroke-linecap="butt" stroke-linejoin="miter" stroke="rgb(50.195312%, 50.195312%, 50.195312%)" stroke-opacity="1" stroke-miterlimit="4" d="M 236.433594 40.78125 L 234.550781 40.78125 "/>
<path fill="none" stroke-width="0.850394" stroke-linecap="butt" stroke-linejoin="miter" stroke="rgb(50.195312%, 50.195312%, 50.195312%)" stroke-opacity="1" stroke-miterlimit="4" d="M 236.433594 72.632812 L 234.550781 72.632812 "/>
<path fill-rule="nonzero" fill="rgb(0%, 0%, 0%)" fill-opacity="1" d="M 295.121094 109.425781 L 295.121094 108.617188 L 289.070312 108.617188 L 289.070312 109.425781 L 291.671875 109.425781 L 291.671875 116.375 L 292.515625 116.375 L 292.515625 109.425781 Z M 295.121094 109.425781 "/>
<path fill-rule="nonzero" fill="rgb(0%, 0%, 0%)" fill-opacity="1" d="M 297.523438 112.328125 L 297.785156 111.519531 C 297.664062 111.378906 297.117188 111.238281 296.75 111.238281 C 296.21875 111.253906 295.78125 111.519531 295.550781 111.996094 L 295.550781 111.308594 L 294.707031 111.308594 L 294.707031 116.375 L 295.550781 116.375 L 295.550781 113.703125 C 295.550781 113.683594 295.550781 113.664062 295.550781 113.664062 C 295.550781 112.925781 295.9375 111.960938 296.730469 111.960938 L 296.785156 111.960938 C 297.046875 111.960938 297.257812 112.117188 297.523438 112.328125 Z M 297.523438 112.328125 "/>
<path fill-rule="nonzero" fill="rgb(0%, 0%, 0%)" fill-opacity="1" d="M 302.457031 116.375 L 302.457031 113.488281 C 302.457031 112.03125 301.839844 111.183594 300.328125 111.183594 C 299.78125 111.183594 299.113281 111.359375 298.621094 111.535156 L 298.621094 112.363281 C 299.128906 112.082031 299.550781 111.90625 300.257812 111.90625 C 301.066406 111.925781 301.679688 112.328125 301.679688 113.171875 L 300.519531 113.171875 C 299.324219 113.171875 298.269531 113.578125 298.269531 114.898438 C 298.304688 115.917969 298.902344 116.515625 299.921875 116.515625 C 300.644531 116.515625 301.292969 116.21875 301.679688 115.707031 L 301.679688 116.375 Z M 301.679688 114.019531 C 301.679688 115.003906 301.222656 115.796875 300.167969 115.796875 C 299.550781 115.796875 299.042969 115.511719 299.042969 114.84375 C 299.042969 113.859375 299.972656 113.859375 300.855469 113.859375 L 301.679688 113.859375 Z M 301.679688 114.019531 "/>
<path fill-rule="nonzero" fill="rgb(0%, 0%, 0%)" fill-opacity="1" d="M 304.785156 116.375 L 304.785156 111.308594 L 303.941406 111.308594 L 303.941406 116.375 Z M 304.363281 108.617188 C 304.097656 108.617188 303.871094 108.863281 303.871094 109.125 C 303.871094 109.40625 304.097656 109.652344 304.363281 109.652344 C 304.644531 109.652344 304.855469 109.40625 304.855469 109.125 C 304.855469 108.863281 304.644531 108.617188 304.363281 108.617188 Z M 304.363281 108.617188 "/>
<path fill-rule="nonzero" fill="rgb(0%, 0%, 0%)" fill-opacity="1" d="M 310.695312 116.375 L 310.695312 113.3125 C 310.695312 112.117188 310.183594 111.183594 308.882812 111.183594 C 308.230469 111.183594 307.5625 111.429688 307.15625 111.996094 L 307.15625 111.308594 L 306.332031 111.308594 L 306.332031 116.375 L 307.15625 116.375 L 307.15625 113.507812 C 307.191406 112.539062 307.792969 111.925781 308.6875 111.925781 C 309.566406 111.925781 309.886719 112.453125 309.886719 113.347656 L 309.886719 116.375 Z M 310.695312 116.375 "/>
<path fill-rule="nonzero" fill="rgb(0%, 0%, 0%)" fill-opacity="1" d="M 313.019531 116.375 L 313.019531 111.308594 L 312.175781 111.308594 L 312.175781 116.375 Z M 312.597656 108.617188 C 312.335938 108.617188 312.105469 108.863281 312.105469 109.125 C 312.105469 109.40625 312.335938 109.652344 312.597656 109.652344 C 312.878906 109.652344 313.089844 109.40625 313.089844 109.125 C 313.089844 108.863281 312.878906 108.617188 312.597656 108.617188 Z M 312.597656 108.617188 "/>
<path fill-rule="nonzero" fill="rgb(0%, 0%, 0%)" fill-opacity="1" d="M 318.929688 116.375 L 318.929688 113.3125 C 318.929688 112.117188 318.417969 111.183594 317.117188 111.183594 C 316.464844 111.183594 315.796875 111.429688 315.394531 111.996094 L 315.394531 111.308594 L 314.566406 111.308594 L 314.566406 116.375 L 315.394531 116.375 L 315.394531 113.507812 C 315.429688 112.539062 316.027344 111.925781 316.921875 111.925781 C 317.804688 111.925781 318.121094 112.453125 318.121094 113.347656 L 318.121094 116.375 Z M 318.929688 116.375 "/>
<g clip-path="url(#clip-2)">
<path fill-rule="nonzero" fill="rgb(0%, 0%, 0%)" fill-opacity="1" d="M 321.941406 116.253906 C 322.890625 116.253906 323.542969 116.710938 323.542969 117.324219 C 323.542969 117.941406 322.890625 118.382812 321.941406 118.382812 C 320.992188 118.382812 320.464844 117.941406 320.464844 117.324219 C 320.464844 116.710938 320.992188 116.253906 321.941406 116.253906 Z M 321.941406 115.53125 C 321.855469 115.53125 321.765625 115.53125 321.660156 115.546875 C 321.132812 115.546875 320.675781 115.230469 320.675781 115.019531 C 320.675781 114.773438 320.957031 114.6875 321.167969 114.6875 L 321.238281 114.6875 C 321.414062 114.84375 321.941406 114.898438 322.101562 114.898438 C 323.066406 114.898438 323.84375 114.070312 323.84375 113.050781 C 323.84375 112.644531 323.703125 112.257812 323.472656 111.960938 L 324.300781 111.960938 L 324.300781 111.324219 L 322.875 111.324219 C 322.644531 111.253906 322.328125 111.21875 322.152344 111.21875 C 321.183594 111.21875 320.375 112.046875 320.339844 113.050781 C 320.339844 113.542969 320.515625 113.984375 320.832031 114.300781 C 320.464844 114.371094 320.058594 114.617188 320.058594 115.089844 C 320.058594 115.390625 320.253906 115.671875 320.65625 115.847656 C 320.007812 116.183594 319.617188 116.726562 319.617188 117.308594 C 319.617188 118.222656 320.550781 119.066406 321.941406 119.066406 C 323.347656 119.066406 324.492188 118.222656 324.492188 117.324219 C 324.492188 116.148438 323.121094 115.53125 321.941406 115.53125 Z M 322.101562 111.925781 C 322.699219 111.925781 323.191406 112.417969 323.191406 113.03125 C 323.191406 113.628906 322.699219 114.125 322.101562 114.125 C 321.484375 114.125 321.007812 113.628906 321.007812 113.03125 C 321.007812 112.417969 321.484375 111.925781 322.101562 111.925781 Z M 322.101562 111.925781 "/>
</g>
<path fill-rule="nonzero" fill="rgb(0%, 0%, 0%)" fill-opacity="1" d="M 332.695312 114.96875 C 332.695312 113.964844 332.007812 113.648438 331.09375 113.472656 L 330.742188 113.402344 C 330.25 113.296875 329.527344 113.191406 329.527344 112.644531 C 329.5625 112.011719 330.300781 111.890625 330.867188 111.890625 C 331.761719 111.925781 331.691406 111.976562 332.449219 112.292969 L 332.449219 111.464844 C 331.972656 111.273438 331.375 111.183594 330.757812 111.183594 C 329.757812 111.183594 328.769531 111.554688 328.769531 112.679688 C 328.789062 113.59375 329.40625 113.949219 330.25 114.105469 L 330.566406 114.175781 C 331.183594 114.316406 331.886719 114.386719 331.886719 115.039062 C 331.851562 115.671875 331.128906 115.796875 330.566406 115.796875 C 329.632812 115.777344 329.492188 115.671875 328.683594 115.285156 L 328.683594 116.199219 C 329.160156 116.324219 329.984375 116.515625 330.546875 116.515625 C 331.535156 116.515625 332.695312 116.148438 332.695312 114.96875 Z M 332.695312 114.96875 "/>
<path fill-rule="nonzero" fill="rgb(0%, 0%, 0%)" fill-opacity="1" d="M 336.761719 116.375 L 336.761719 115.65625 L 335.882812 115.65625 C 335.089844 115.65625 334.949219 115.460938 334.949219 114.722656 L 334.949219 111.976562 L 336.445312 111.976562 L 336.445312 111.308594 L 334.949219 111.308594 L 334.949219 109.867188 L 334.597656 109.867188 L 334.125 111.308594 L 333.527344 111.308594 L 333.527344 111.976562 L 334.125 111.976562 L 334.125 114.722656 C 334.125 115.988281 334.632812 116.375 335.882812 116.375 Z M 336.761719 116.375 "/>
<path fill-rule="nonzero" fill="rgb(0%, 0%, 0%)" fill-opacity="1" d="M 341.8125 113.84375 L 341.8125 113.753906 C 341.8125 112.292969 341.210938 111.21875 339.539062 111.183594 C 338.046875 111.183594 337.199219 112.488281 337.199219 113.894531 C 337.199219 115.425781 338.132812 116.515625 339.679688 116.515625 C 340.386719 116.515625 341.019531 116.359375 341.632812 116.128906 L 341.632812 115.285156 C 340.824219 115.671875 340.703125 115.761719 339.75 115.761719 C 338.695312 115.761719 338.0625 115.125 338.0625 113.929688 L 338.0625 113.84375 Z M 340.984375 113.15625 L 338.097656 113.15625 C 338.203125 112.488281 338.695312 111.90625 339.539062 111.90625 C 340.421875 111.90625 340.984375 112.453125 340.984375 113.15625 Z M 340.984375 113.15625 "/>
<g clip-path="url(#clip-3)">
<path fill-rule="nonzero" fill="rgb(0%, 0%, 0%)" fill-opacity="1" d="M 347.675781 113.84375 C 347.675781 112.363281 346.6875 111.308594 345.195312 111.308594 L 343.027344 111.308594 L 343.027344 119.085938 L 343.875 119.085938 L 343.875 116.375 L 345.125 116.375 C 346.757812 116.375 347.675781 115.355469 347.675781 113.84375 Z M 346.863281 113.84375 C 346.863281 114.84375 346.230469 115.636719 345.125 115.636719 L 343.875 115.636719 L 343.875 112.046875 L 345.125 112.046875 C 346.214844 112.046875 346.863281 112.769531 346.863281 113.84375 Z M 346.863281 113.84375 "/>
</g>
<path fill-rule="nonzero" fill="rgb(0%, 0%, 0%)" fill-opacity="1" d="M 21.953125 65.953125 C 20.988281 65.953125 19.878906 66.429688 19.878906 67.535156 C 19.894531 68.628906 20.933594 69.136719 21.953125 69.136719 C 22.976562 69.136719 24.046875 68.664062 24.046875 67.535156 C 24.046875 66.410156 22.941406 65.953125 21.953125 65.953125 Z M 15.988281 67.484375 L 15.988281 68.117188 L 24.046875 72.640625 L 24.046875 72.007812 Z M 18.082031 71.003906 C 17.082031 71.003906 15.988281 71.476562 15.988281 72.585938 C 15.988281 73.695312 17.082031 74.152344 18.082031 74.152344 C 19.140625 74.136719 20.160156 73.75 20.160156 72.585938 C 20.160156 71.441406 19.121094 71.003906 18.082031 71.003906 Z M 21.953125 66.535156 C 22.675781 66.550781 23.46875 66.796875 23.46875 67.535156 C 23.46875 68.328125 22.640625 68.558594 21.953125 68.558594 C 21.214844 68.539062 20.421875 68.363281 20.421875 67.535156 C 20.421875 66.78125 21.269531 66.535156 21.953125 66.535156 Z M 18.082031 71.566406 C 18.820312 71.566406 19.632812 71.796875 19.632812 72.585938 C 19.597656 73.34375 18.785156 73.589844 18.082031 73.589844 C 17.363281 73.589844 16.550781 73.308594 16.550781 72.585938 C 16.550781 71.796875 17.308594 71.566406 18.082031 71.566406 Z M 18.082031 71.566406 "/>
<path fill-rule="nonzero" fill="rgb(0%, 0%, 0%)" fill-opacity="1" d="M 23.890625 56.90625 L 23.082031 56.90625 L 23.082031 60.65625 L 20.160156 60.65625 L 20.160156 57.171875 L 19.351562 57.171875 L 19.351562 60.65625 L 16.9375 60.65625 L 16.9375 56.996094 L 16.128906 56.996094 L 16.128906 61.5 L 23.890625 61.5 Z M 23.890625 56.90625 "/>
<path fill-rule="nonzero" fill="rgb(0%, 0%, 0%)" fill-opacity="1" d="M 19.84375 53.042969 L 19.035156 52.777344 C 18.894531 52.902344 18.75 53.445312 18.75 53.816406 C 18.769531 54.34375 19.035156 54.785156 19.507812 55.011719 L 18.820312 55.011719 L 18.820312 55.855469 L 23.890625 55.855469 L 23.890625 55.011719 L 21.214844 55.011719 C 21.199219 55.011719 21.179688 55.011719 21.179688 55.011719 C 20.441406 55.011719 19.472656 54.625 19.472656 53.832031 L 19.472656 53.78125 C 19.472656 53.515625 19.632812 53.304688 19.84375 53.042969 Z M 19.84375 53.042969 "/>
<path fill-rule="nonzero" fill="rgb(0%, 0%, 0%)" fill-opacity="1" d="M 19.84375 49.113281 L 19.035156 48.851562 C 18.894531 48.972656 18.75 49.519531 18.75 49.890625 C 18.769531 50.417969 19.035156 50.855469 19.507812 51.085938 L 18.820312 51.085938 L 18.820312 51.929688 L 23.890625 51.929688 L 23.890625 51.085938 L 21.214844 51.085938 C 21.199219 51.085938 21.179688 51.085938 21.179688 51.085938 C 20.441406 51.085938 19.472656 50.699219 19.472656 49.90625 L 19.472656 49.855469 C 19.472656 49.589844 19.632812 49.378906 19.84375 49.113281 Z M 19.84375 49.113281 "/>
<path fill-rule="nonzero" fill="rgb(0%, 0%, 0%)" fill-opacity="1" d="M 21.355469 43.746094 C 20.070312 43.746094 18.699219 44.429688 18.699219 46.121094 C 18.699219 47.652344 19.878906 48.515625 21.355469 48.515625 C 22.746094 48.515625 23.996094 47.617188 24.03125 46.121094 C 23.996094 44.609375 22.78125 43.746094 21.355469 43.746094 Z M 21.355469 44.574219 C 22.359375 44.574219 23.257812 45.1875 23.257812 46.121094 C 23.238281 47.386719 22.113281 47.667969 21.339844 47.667969 C 20.316406 47.667969 19.472656 47.175781 19.457031 46.121094 C 19.472656 45.136719 20.386719 44.574219 21.355469 44.574219 Z M 21.355469 44.574219 "/>
<path fill-rule="nonzero" fill="rgb(0%, 0%, 0%)" fill-opacity="1" d="M 19.84375 39.613281 L 19.035156 39.347656 C 18.894531 39.472656 18.75 40.015625 18.75 40.386719 C 18.769531 40.914062 19.035156 41.355469 19.507812 41.582031 L 18.820312 41.582031 L 18.820312 42.425781 L 23.890625 42.425781 L 23.890625 41.582031 L 21.214844 41.582031 C 21.199219 41.582031 21.179688 41.582031 21.179688 41.582031 C 20.441406 41.582031 19.472656 41.195312 19.472656 40.402344 L 19.472656 40.351562 C 19.472656 40.085938 19.632812 39.875 19.84375 39.613281 Z M 19.84375 39.613281 "/>
<path fill-rule="nonzero" fill="rgb(0%, 0%, 0%)" fill-opacity="1" d="M 229.808594 62.109375 L 229 62.109375 L 229 65.699219 L 222.050781 65.699219 L 222.050781 66.5625 L 229.808594 66.5625 Z M 229.808594 62.109375 "/>
<path fill-rule="nonzero" fill="rgb(0%, 0%, 0%)" fill-opacity="1" d="M 227.277344 56.785156 C 225.992188 56.785156 224.621094 57.46875 224.621094 59.160156 C 224.621094 60.691406 225.796875 61.550781 227.277344 61.550781 C 228.667969 61.550781 229.917969 60.65625 229.953125 59.160156 C 229.917969 57.644531 228.703125 56.785156 227.277344 56.785156 Z M 227.277344 57.609375 C 228.28125 57.609375 229.175781 58.226562 229.175781 59.160156 C 229.160156 60.425781 228.035156 60.707031 227.257812 60.707031 C 226.238281 60.707031 225.394531 60.214844 225.375 59.160156 C 225.394531 58.171875 226.308594 57.609375 227.277344 57.609375 Z M 227.277344 57.609375 "/>
<path fill-rule="nonzero" fill="rgb(0%, 0%, 0%)" fill-opacity="1" d="M 228.402344 51.753906 C 227.398438 51.753906 227.082031 52.4375 226.90625 53.355469 L 226.835938 53.707031 C 226.730469 54.199219 226.625 54.917969 226.082031 54.917969 C 225.445312 54.882812 225.324219 54.144531 225.324219 53.582031 C 225.359375 52.683594 225.410156 52.753906 225.726562 52 L 224.902344 52 C 224.707031 52.472656 224.621094 53.074219 224.621094 53.6875 C 224.621094 54.691406 224.988281 55.675781 226.117188 55.675781 C 227.03125 55.660156 227.382812 55.042969 227.539062 54.199219 L 227.609375 53.882812 C 227.75 53.265625 227.820312 52.5625 228.472656 52.5625 C 229.105469 52.597656 229.230469 53.320312 229.230469 53.882812 C 229.210938 54.8125 229.105469 54.957031 228.71875 55.765625 L 229.632812 55.765625 C 229.757812 55.289062 229.953125 54.460938 229.953125 53.898438 C 229.953125 52.914062 229.582031 51.753906 228.402344 51.753906 Z M 228.402344 51.753906 "/>
<path fill-rule="nonzero" fill="rgb(0%, 0%, 0%)" fill-opacity="1" d="M 228.402344 46.941406 C 227.398438 46.941406 227.082031 47.625 226.90625 48.539062 L 226.835938 48.894531 C 226.730469 49.386719 226.625 50.105469 226.082031 50.105469 C 225.445312 50.070312 225.324219 49.332031 225.324219 48.769531 C 225.359375 47.871094 225.410156 47.941406 225.726562 47.1875 L 224.902344 47.1875 C 224.707031 47.660156 224.621094 48.257812 224.621094 48.875 C 224.621094 49.878906 224.988281 50.863281 226.117188 50.863281 C 227.03125 50.847656 227.382812 50.230469 227.539062 49.386719 L 227.609375 49.070312 C 227.75 48.453125 227.820312 47.75 228.472656 47.75 C 229.105469 47.785156 229.230469 48.503906 229.230469 49.070312 C 229.210938 50 229.105469 50.140625 228.71875 50.953125 L 229.632812 50.953125 C 229.757812 50.476562 229.953125 49.648438 229.953125 49.085938 C 229.953125 48.101562 229.582031 46.941406 228.402344 46.941406 Z M 228.402344 46.941406 "/>
<path fill-rule="nonzero" fill="rgb(100%, 100%, 100%)" fill-opacity="1" stroke-width="1.496579" stroke-linecap="square" stroke-linejoin="round" stroke="rgb(62.744141%, 85.096741%, 82.743835%)" stroke-opacity="1" stroke-miterlimit="4" d="M 32.230469 -19.564176 L 32.90625 -30.086672 L 33.582031 -30.722551 L 34.257812 -34.12407 L 34.933594 -35.400184 L 35.609375 -38.479407 L 36.285156 -38.479407 L 36.960938 -40.500284 L 37.636719 -41.985454 L 38.3125 -40.182344 L 38.988281 -42.943628 L 39.664062 -43.901803 L 40.335938 -44.537682 L 41.011719 -44.751094 L 41.6875 -45.495856 L 43.039062 -51.340719 L 43.714844 -53.252712 L 44.390625 -55.800585 L 45.066406 -56.972171 L 45.742188 -57.076699 L 46.417969 -58.034873 L 47.09375 -57.92599 L 47.769531 -60.264806 L 48.445312 -60.264806 L 49.121094 -59.842338 L 49.796875 -62.072271 L 50.46875 -62.817034 L 51.144531 -62.072271 L 51.820312 -62.921562 L 52.496094 -61.754331 L 53.171875 -64.093148 L 53.847656 -65.47379 L 54.523438 -66.005141 L 55.199219 -66.32308 L 55.875 -66.005141 L 56.550781 -66.749904 L 57.226562 -65.47379 L 57.902344 -66.536492 L 58.578125 -67.281255 L 59.253906 -68.979836 L 59.929688 -66.854432 L 60.601562 -65.260378 L 61.277344 -67.599194 L 61.953125 -68.766425 L 62.628906 -67.917134 L 63.304688 -70.25595 L 63.980469 -69.511188 L 64.65625 -69.511188 L 65.332031 -70.469362 L 66.007812 -71.636592 L 66.683594 -71.318653 L 67.359375 -70.57389 L 68.035156 -70.25595 L 68.710938 -70.25595 L 69.386719 -71.532064 L 70.0625 -72.594767 L 70.734375 -72.381355 L 71.410156 -73.017234 L 72.085938 -71.209769 L 72.761719 -73.230646 L 73.4375 -72.272472 L 74.113281 -72.912706 L 74.789062 -73.126118 L 76.140625 -73.335174 L 76.816406 -72.594767 L 77.492188 -73.444057 L 78.167969 -73.335174 L 78.84375 -72.803823 L 79.519531 -73.126118 L 80.191406 -73.335174 L 80.867188 -73.444057 L 81.542969 -72.167943 L 82.21875 -72.803823 L 82.894531 -73.230646 L 83.570312 -72.803823 L 84.246094 -75.251522 L 84.921875 -74.824699 L 85.597656 -73.866525 L 86.273438 -74.720171 L 86.949219 -73.657469 L 87.625 -74.397876 L 88.300781 -74.079937 L 88.976562 -75.038111 L 89.652344 -71.000713 L 90.324219 -73.126118 L 91 -74.720171 L 91.675781 -74.611288 L 92.351562 -73.126118 L 93.027344 -75.142639 L 93.703125 -73.335174 L 95.054688 -74.824699 L 95.730469 -73.017234 L 96.40625 -75.460579 L 97.082031 -73.444057 L 97.757812 -73.548585 L 98.433594 -75.460579 L 99.109375 -75.569462 L 99.785156 -75.569462 L 100.457031 -73.975409 L 101.132812 -75.460579 L 101.808594 -73.444057 L 102.484375 -75.67399 L 103.160156 -73.657469 L 103.835938 -73.548585 L 104.511719 -73.230646 L 105.1875 -73.866525 L 105.863281 -75.569462 L 106.539062 -74.611288 L 107.214844 -75.887402 L 107.890625 -74.50676 L 108.566406 -74.611288 L 109.242188 -73.548585 L 109.917969 -75.142639 L 110.589844 -76.205341 L 111.265625 -73.761997 L 111.941406 -73.866525 L 112.617188 -71.423181 L 113.292969 -74.824699 L 113.96875 -73.335174 L 114.644531 -75.038111 L 115.320312 -74.720171 L 115.996094 -73.548585 L 116.671875 -76.632164 L 117.347656 -74.18882 L 118.023438 -73.335174 L 118.699219 -74.50676 L 119.375 -75.038111 L 120.050781 -74.929228 L 120.722656 -72.485883 L 121.398438 -74.824699 L 122.074219 -76.632164 L 122.75 -71.850004 L 123.425781 -75.569462 L 124.101562 -76.736693 L 124.777344 -74.50676 L 125.453125 -74.397876 L 126.128906 -73.866525 L 126.804688 -73.761997 L 127.480469 -75.142639 L 128.15625 -74.824699 L 128.832031 -75.67399 L 129.507812 -73.761997 L 130.183594 -74.611288 L 130.855469 -73.126118 L 131.53125 -75.569462 L 132.207031 -77.268044 L 132.882812 -74.611288 L 133.558594 -74.720171 L 134.234375 -75.887402 L 134.910156 -74.079937 L 136.261719 -75.67399 L 136.9375 -73.126118 L 137.613281 -76.632164 L 138.289062 -76.205341 L 138.964844 -74.611288 L 139.640625 -74.929228 L 140.316406 -75.782874 L 140.988281 -75.038111 L 141.664062 -75.038111 L 142.339844 -75.460579 L 143.015625 -75.251522 L 143.691406 -74.611288 L 144.367188 -74.929228 L 145.042969 -74.611288 L 145.71875 -74.397876 L 146.394531 -75.782874 L 147.070312 -75.569462 L 147.746094 -74.50676 L 148.421875 -75.99193 L 149.097656 -75.460579 L 149.773438 -74.611288 L 150.445312 -75.782874 L 151.121094 -76.314225 L 151.796875 -74.50676 L 152.472656 -76.100813 L 153.148438 -75.782874 L 153.824219 -76.632164 L 154.5 -75.356051 L 155.175781 -75.356051 L 155.851562 -75.251522 L 156.527344 -75.038111 L 157.203125 -75.99193 L 157.878906 -76.632164 L 158.554688 -75.569462 L 159.230469 -75.356051 L 159.90625 -76.100813 L 161.253906 -75.460579 L 161.929688 -75.887402 L 162.605469 -76.100813 L 163.28125 -76.100813 L 163.957031 -75.99193 L 164.632812 -75.67399 L 165.308594 -76.736693 L 165.984375 -75.887402 L 166.660156 -76.314225 L 167.335938 -75.782874 L 168.011719 -76.523281 L 168.6875 -76.100813 L 169.363281 -76.205341 L 170.039062 -75.782874 L 170.710938 -75.460579 L 171.386719 -75.887402 L 172.0625 -75.887402 L 172.738281 -76.950104 L 173.414062 -76.205341 L 174.089844 -75.038111 L 174.765625 -76.418753 L 175.441406 -75.99193 L 176.117188 -76.314225 L 176.792969 -75.460579 L 177.46875 -76.314225 L 178.144531 -76.523281 L 178.820312 -76.205341 L 179.496094 -76.314225 L 180.171875 -76.523281 L 180.84375 -76.632164 L 181.519531 -75.569462 L 182.195312 -76.632164 L 182.871094 -76.950104 L 183.546875 -76.418753 L 184.222656 -75.67399 L 184.898438 -76.314225 L 185.574219 -76.314225 L 186.925781 -76.523281 L 187.601562 -75.99193 L 188.277344 -76.100813 L 188.953125 -76.632164 L 189.628906 -76.205341 L 190.304688 -76.632164 L 190.976562 -76.736693 L 191.652344 -76.205341 L 192.328125 -76.205341 L 193.003906 -75.67399 L 193.679688 -76.418753 L 194.355469 -76.950104 " transform="matrix(1, 0, 0, -0.896888, 0, 0)"/>
<g clip-path="url(#clip-4)">
<path fill="none" stroke-width="1.496609" stroke-linecap="square" stroke-linejoin="round" stroke="rgb(81.959534%, 51.371765%, 38.430786%)" stroke-opacity="1" stroke-miterlimit="4" d="M 32.230469 -20.823184 L 32.90625 -32.433422 L 33.582031 -31.239151 L 34.257812 -34.266387 L 34.933594 -38.199169 L 36.28125 -44.44175 L 36.957031 -44.043659 L 37.632812 -46.007863 L 38.308594 -46.090981 L 38.984375 -46.699053 L 39.660156 -49.065721 L 40.335938 -50.102506 L 41.011719 -50.872439 L 41.6875 -52.86289 L 42.363281 -52.438552 L 43.039062 -56.795672 L 43.714844 -59.424818 L 44.390625 -61.100297 L 45.066406 -63.147619 L 45.742188 -63.173866 L 46.417969 -63.493213 L 47.089844 -64.315642 L 47.765625 -66.441706 L 48.441406 -66.572945 L 49.117188 -66.069864 L 49.792969 -69.228338 L 50.46875 -69.657051 L 51.144531 -68.672762 L 51.820312 -69.228338 L 52.496094 -69.573933 L 53.171875 -72.259949 L 53.847656 -71.835611 L 54.523438 -72.789278 L 55.199219 -71.940602 L 55.875 -75.182194 L 56.550781 -73.642328 L 57.226562 -75.820888 L 57.898438 -74.757856 L 58.574219 -76.669564 L 59.25 -76.910168 L 59.925781 -77.627606 L 60.601562 -74.700986 L 61.277344 -78.156935 L 61.953125 -78.288173 L 62.628906 -79.59181 L 63.304688 -80.576099 L 63.980469 -78.660016 L 64.65625 -80.549851 L 65.332031 -80.733585 L 66.007812 -81.026684 L 66.683594 -82.780907 L 67.359375 -82.990888 L 68.03125 -82.85965 L 68.707031 -84.320772 L 69.382812 -84.823853 L 70.734375 -85.676904 L 71.410156 -85.357557 L 72.085938 -86.284976 L 72.761719 -86.179985 L 73.4375 -85.860638 L 74.113281 -87.059283 L 74.789062 -87.483621 L 75.464844 -87.243017 L 76.140625 -88.039198 L 76.816406 -87.483621 L 77.492188 -88.117941 L 78.167969 -87.960455 L 78.839844 -88.065446 L 79.515625 -88.437288 L 80.191406 -88.625397 L 80.867188 -90.112767 L 81.542969 -87.509869 L 82.21875 -89.662181 L 82.894531 -90.48461 L 83.570312 -90.327123 L 84.246094 -89.635934 L 84.921875 -91.731376 L 85.597656 -91.840741 L 86.273438 -90.830205 L 86.949219 -90.987691 L 87.625 -92.422566 L 88.300781 -93.328112 L 88.972656 -93.008765 L 89.648438 -90.751461 L 90.324219 -92.794408 L 91 -92.636922 L 91.675781 -94.946721 L 92.351562 -94.789234 L 93.027344 -94.522383 L 93.703125 -95.742901 L 94.378906 -94.789234 L 95.054688 -94.229283 L 95.730469 -94.999216 L 96.40625 -96.088496 L 97.082031 -95.23982 L 97.757812 -96.648447 L 98.433594 -94.54863 L 99.109375 -96.648447 L 99.78125 -97.072785 L 100.457031 -96.862804 L 101.132812 -98.695769 L 101.808594 -98.722016 L 102.484375 -98.853255 L 103.160156 -98.214561 L 104.511719 -98.612651 L 105.1875 -99.491949 L 105.863281 -99.010741 L 106.539062 -100.445616 L 107.214844 -99.465702 L 107.890625 -101.351162 L 108.566406 -100.047526 L 109.242188 -101.644262 L 109.917969 -100.235634 L 110.589844 -99.916287 L 111.265625 -102.624176 L 111.941406 -101.670509 L 112.617188 -99.439454 L 113.292969 -101.827996 L 113.96875 -103.660961 L 114.644531 -102.624176 L 115.320312 -103.687208 L 115.996094 -103.687208 L 116.671875 -102.519185 L 117.347656 -101.618014 L 118.023438 -103.131632 L 118.699219 -99.146354 L 119.375 -104.457141 L 120.050781 -105.839521 L 120.722656 -103.770326 L 121.398438 -102.838532 L 122.074219 -106.530711 L 122.75 -99.701931 L 123.425781 -105.095836 L 124.101562 -105.655787 L 124.777344 -106.373224 L 125.453125 -105.388935 L 126.128906 -103.927812 L 126.804688 -101.351162 L 127.480469 -107.274396 L 128.15625 -108.499289 L 128.832031 -107.593743 L 129.507812 -105.839521 L 130.183594 -106.928801 L 130.859375 -107.436257 L 131.53125 -107.038166 L 132.207031 -108.096824 L 132.882812 -109.719807 L 133.558594 -108.656775 L 134.234375 -108.923627 L 134.910156 -109.934164 L 135.585938 -110.677849 L 136.261719 -109.242974 L 136.9375 -106.504463 L 137.613281 -110.249136 L 138.289062 -110.78284 L 138.964844 -109.719807 L 139.640625 -110.09165 L 140.316406 -110.914078 L 140.992188 -111.447782 L 141.667969 -110.568483 L 142.339844 -110.940326 L 143.015625 -111.474029 L 144.367188 -110.144145 L 145.71875 -112.348953 L 146.394531 -111.684011 L 147.746094 -113.306995 L 148.421875 -112.720796 L 149.097656 -112.401449 L 149.773438 -111.684011 L 150.449219 -113.75758 L 151.125 -113.945689 L 151.800781 -113.438233 L 152.472656 -114.317532 L 153.148438 -113.145134 L 153.824219 -114.291284 L 154.5 -114.501265 L 155.175781 -114.475018 L 155.851562 -114.689374 L 156.527344 -114.663126 L 157.203125 -113.998184 L 157.878906 -114.501265 L 158.554688 -114.873108 L 159.230469 -115.034969 L 159.90625 -114.84686 L 160.582031 -115.297446 L 161.257812 -115.271198 L 163.28125 -115.590546 L 163.957031 -115.564298 L 164.632812 -115.726159 L 165.308594 -115.752406 L 165.984375 -115.113712 L 167.335938 -115.804902 L 168.011719 -115.034969 L 168.6875 -115.93614 L 170.039062 -115.909893 L 170.714844 -115.909893 L 171.390625 -116.150497 L 172.066406 -115.669289 L 172.742188 -116.22924 L 173.417969 -116.176744 L 174.089844 -115.83115 L 174.765625 -116.150497 L 175.441406 -115.93614 L 176.117188 -116.255488 L 176.792969 -115.83115 L 178.144531 -116.281735 L 183.550781 -116.334231 L 184.222656 -116.067379 L 184.898438 -116.307983 L 186.925781 -116.334231 L 188.953125 -116.334231 L 191.65625 -116.360478 L 194.359375 -116.360478 " transform="matrix(1, 0, 0, -0.892935, 0, 0)"/>
</g>
<path fill="none" stroke-width="1.480801" stroke-linecap="square" stroke-linejoin="round" stroke="rgb(62.744141%, 85.096741%, 82.743835%)" stroke-opacity="1" stroke-miterlimit="4" d="M 237.179688 14.076792 L 237.855469 17.01341 L 238.527344 23.50119 L 239.203125 31.185064 L 239.878906 35.107429 L 240.554688 37.276896 L 241.230469 38.637969 L 244.601562 42.271621 L 245.277344 43.108887 L 245.953125 44.197745 L 246.628906 45.443333 L 247.300781 46.268226 L 247.976562 48.03762 L 250 51.625903 L 250.675781 52.61165 L 251.351562 53.312808 L 252.027344 54.430538 L 252.699219 54.917224 L 253.375 55.630756 L 254.726562 56.616503 L 256.074219 57.127936 L 256.75 57.816722 L 257.425781 57.989949 L 258.097656 59.045812 L 258.773438 59.363395 L 259.449219 59.821211 L 260.125 59.532498 L 260.796875 60.765713 L 261.472656 60.254279 L 262.148438 61.149288 L 262.824219 60.930691 L 263.496094 61.025554 L 264.171875 62.460867 L 264.847656 62.031923 L 265.523438 61.215279 L 266.195312 62.601099 L 266.871094 62.852691 L 267.546875 63.685833 L 268.222656 63.871433 L 268.898438 63.343502 L 269.570312 64.444734 L 270.246094 64.415863 L 270.921875 65.005661 L 271.597656 65.917167 L 272.269531 66.016154 L 272.945312 64.721073 L 273.621094 66.820424 L 274.296875 66.684317 L 276.320312 67.006025 L 276.996094 67.521583 L 277.667969 67.080266 L 278.34375 67.142133 L 279.019531 67.344231 L 279.695312 67.410223 L 280.367188 67.616446 L 281.042969 67.736055 L 281.71875 67.538081 L 283.066406 67.839167 L 283.742188 66.997776 L 284.417969 67.133884 L 285.09375 67.785549 L 285.765625 67.645317 L 286.441406 66.098643 L 287.117188 66.989527 L 287.792969 68.020643 L 288.464844 67.282364 L 289.140625 67.451467 L 289.816406 68.631064 L 290.492188 68.037141 L 291.164062 67.072017 L 291.839844 67.31536 L 292.515625 67.950527 L 293.191406 68.152626 L 293.863281 68.090759 L 294.539062 65.793433 L 295.214844 66.255373 L 295.890625 66.614201 L 296.566406 67.377227 L 297.238281 65.937789 L 297.914062 67.637068 L 298.589844 67.245244 L 299.265625 67.253493 L 299.9375 66.684317 L 300.613281 66.350236 L 301.289062 67.179253 L 301.964844 66.230626 L 302.636719 65.979034 L 303.3125 64.333373 L 303.988281 66.210004 L 304.664062 66.251249 L 305.335938 65.677948 L 306.011719 66.667819 L 306.6875 66.201755 L 307.363281 65.962536 L 308.035156 64.255008 L 308.710938 65.995532 L 309.386719 64.457107 L 310.0625 64.968541 L 310.734375 64.617961 L 311.410156 65.071652 L 312.085938 65.686197 L 313.433594 64.556094 L 314.109375 64.58909 L 314.785156 64.292129 L 315.460938 63.722953 L 316.132812 64.061159 L 316.808594 63.854936 L 317.484375 59.67273 L 318.160156 64.160146 L 318.832031 63.413618 L 319.507812 63.417743 L 320.183594 63.582721 L 320.859375 62.687713 L 321.535156 63.471361 L 322.207031 61.454498 L 322.882812 61.32664 L 323.558594 57.882713 L 324.234375 62.720708 L 324.90625 62.865064 L 325.582031 61.017305 L 326.257812 61.582356 L 326.933594 62.910434 L 327.605469 57.210426 L 328.28125 61.495743 L 328.957031 61.561734 L 330.304688 61.000807 L 330.980469 59.660357 L 331.65625 56.319542 L 332.332031 60.13467 L 333.003906 60.592485 L 333.679688 60.20891 L 334.355469 58.060065 L 335.03125 56.756735 L 335.703125 57.87034 L 336.378906 59.256159 L 337.054688 59.528374 L 337.730469 59.231413 L 338.402344 57.866215 L 339.078125 57.363031 L 339.753906 57.185679 L 340.429688 58.142554 L 341.101562 57.160932 L 341.777344 53.943851 L 342.453125 57.919833 L 343.128906 56.880469 L 343.800781 54.735748 L 344.476562 56.476271 L 345.152344 55.399787 L 345.828125 55.75449 L 346.5 54.71925 L 347.175781 56.146314 L 347.851562 54.657383 L 348.527344 54.009842 L 349.203125 53.824242 L 349.875 54.37692 L 350.550781 53.844864 L 351.226562 53.667512 L 351.902344 52.892113 L 352.574219 53.708757 L 353.25 53.618019 L 353.925781 52.463169 L 354.601562 52.735383 L 355.273438 52.599276 L 355.949219 53.321057 L 356.625 52.157959 L 357.300781 53.304559 L 357.972656 52.137336 L 358.648438 52.533285 L 359.324219 50.904122 L 360 51.671272 L 360.671875 50.998985 L 361.347656 51.312444 L 362.023438 49.369822 L 362.699219 50.805135 L 363.371094 50.244208 L 364.722656 48.165478 L 365.398438 49.056362 L 366.746094 49.151225 L 369.445312 46.676547 L 370.121094 46.899268 L 370.796875 45.996011 L 371.46875 46.325968 L 372.144531 44.915402 L 372.820312 45.84753 L 373.496094 45.496951 L 374.167969 45.34847 L 374.84375 43.282114 L 375.519531 45.245359 L 376.195312 44.989642 L 376.871094 43.071767 L 377.542969 44.255488 L 378.21875 42.910913 L 378.894531 42.543835 L 379.570312 43.434719 L 380.242188 42.296368 L 380.917969 42.234501 L 381.59375 40.910548 L 382.269531 41.970535 L 382.941406 41.562213 L 383.617188 40.889926 L 384.292969 41.182763 L 384.96875 41.186887 L 385.640625 40.650707 L 386.316406 40.366119 L 386.992188 39.817565 L 387.667969 39.908304 L 388.339844 39.421617 L 389.015625 38.621471 L 389.691406 38.423497 L 390.367188 37.837823 L 391.039062 38.5926 L 391.714844 38.2049 L 392.390625 38.246145 L 393.066406 37.116042 L 393.738281 37.837823 L 394.414062 37.619227 L 395.089844 36.621107 L 395.765625 37.231527 L 396.4375 36.377763 L 397.113281 36.303523 L 397.789062 36.361265 L 398.464844 36.501497 L 399.136719 35.284781 " transform="matrix(1, 0, 0, 0.947093, 0, 0)"/>
<path fill="none" stroke-width="1.480801" stroke-linecap="square" stroke-linejoin="round" stroke="rgb(81.959534%, 51.371765%, 38.430786%)" stroke-opacity="1" stroke-miterlimit="4" d="M 237.179688 13.515865 L 237.855469 17.310371 L 238.527344 25.3407 L 239.203125 31.267554 L 239.878906 39.446364 L 240.554688 37.97393 L 241.230469 38.62972 L 241.902344 43.055269 L 242.578125 39.924801 L 243.253906 47.847895 L 243.929688 43.550204 L 244.601562 40.729072 L 245.277344 45.831032 L 245.953125 44.750423 L 246.628906 43.257368 L 247.300781 45.410337 L 247.976562 51.089723 L 249.328125 50.895873 L 250 52.302315 L 250.675781 61.442125 L 251.351562 53.22207 L 252.027344 53.964473 L 252.699219 57.853842 L 253.375 59.008692 L 254.050781 55.498774 L 254.726562 60.258404 L 255.398438 58.010572 L 256.074219 62.209275 L 256.75 63.920927 L 257.425781 64.939669 L 258.097656 64.62621 L 258.773438 58.699357 L 259.449219 62.015425 L 260.125 63.108408 L 260.796875 63.949798 L 261.472656 73.122604 L 262.148438 66.395605 L 262.824219 68.136128 L 263.496094 64.506601 L 264.171875 69.802411 L 264.847656 69.794162 L 265.523438 68.746549 L 266.195312 64.304502 L 266.871094 65.261377 L 268.222656 70.817029 L 268.898438 67.368978 L 269.570312 68.210368 L 270.246094 74.714647 L 270.921875 72.734904 L 271.597656 67.727806 L 272.269531 72.772025 L 272.945312 73.551548 L 274.296875 79.317547 L 274.96875 76.87999 L 275.644531 80.526015 L 276.320312 77.102711 L 276.996094 75.807629 L 277.667969 80.257925 L 278.34375 75.580784 L 279.019531 79.379414 L 279.695312 69.20024 L 280.367188 74.595037 L 281.042969 74.586788 L 281.71875 77.329556 L 282.394531 78.777243 L 283.066406 79.577388 L 283.742188 77.556402 L 284.417969 78.624637 L 285.09375 79.123697 L 285.765625 75.832376 L 286.441406 77.824492 L 287.117188 77.931728 L 287.792969 83.644109 L 289.140625 80.41053 L 289.816406 81.124062 L 290.492188 87.187023 L 291.164062 81.198302 L 291.839844 77.783247 L 292.515625 82.856336 L 293.191406 82.67486 L 293.863281 79.853727 L 294.539062 75.960234 L 295.214844 82.311907 L 295.890625 77.700758 L 296.566406 84.749465 L 297.238281 89.480224 L 297.914062 87.582971 L 298.589844 81.190053 L 299.265625 81.915959 L 299.9375 84.534993 L 300.613281 84.786585 L 301.289062 91.950777 L 301.964844 84.600984 L 302.636719 88.713074 L 303.3125 86.70446 L 303.988281 86.052795 L 304.664062 87.182898 L 305.335938 85.858945 L 306.011719 90.239125 L 306.6875 86.758078 L 307.363281 93.744919 L 308.035156 88.572842 L 308.710938 88.20164 L 309.386719 80.567259 L 310.0625 93.955266 L 310.734375 91.418722 L 311.410156 89.426606 L 312.085938 93.551069 L 312.761719 91.332108 L 313.433594 95.027627 L 314.109375 89.727692 L 314.785156 92.598318 L 315.460938 87.85931 L 316.132812 89.987533 L 316.808594 90.845421 L 317.484375 87.624216 L 318.160156 92.012644 L 318.832031 95.361708 L 319.507812 90.527838 L 320.183594 96.937253 L 320.859375 90.181383 L 321.535156 95.73291 L 322.207031 95.064747 L 322.882812 98.009613 L 323.558594 93.897524 L 324.234375 93.249983 L 324.90625 99.015982 L 325.582031 95.266845 L 326.257812 94.215107 L 326.933594 95.192605 L 327.605469 90.197881 L 328.28125 94.912142 L 328.957031 100.740008 L 329.632812 93.435584 L 330.304688 97.80339 L 330.980469 99.886244 L 331.65625 93.711923 L 332.332031 101.226694 L 333.003906 97.403317 L 333.679688 97.642536 L 334.355469 100.282192 L 335.03125 94.524442 L 335.703125 98.335446 L 336.378906 100.488416 L 337.054688 100.752381 L 337.730469 98.166343 L 338.402344 102.715626 L 339.753906 98.772639 L 340.429688 98.277703 L 341.101562 101.168952 L 341.777344 100.785377 L 342.453125 101.300935 L 343.128906 101.614394 L 343.800781 99.011858 L 344.476562 99.556287 L 345.152344 101.342179 L 345.828125 101.061716 L 346.5 97.923 L 347.175781 100.080094 L 347.851562 98.723145 L 348.527344 100.459544 L 349.203125 99.350064 L 349.875 101.152454 L 350.550781 103.808608 L 351.226562 102.476407 L 351.902344 103.090952 L 352.574219 103.359042 L 353.25 103.453904 L 353.925781 102.315553 L 354.601562 103.672501 L 355.273438 102.765119 L 355.949219 105.668741 L 356.625 104.353037 L 357.300781 106.67511 L 357.972656 102.75687 L 358.648438 103.627132 L 359.324219 102.505278 L 360 105.71411 L 360.671875 106.435891 L 361.347656 106.382273 L 362.023438 106.440016 L 362.699219 105.396527 L 363.371094 106.044067 L 364.046875 107.532998 L 364.722656 108.395011 L 365.398438 106.914329 L 366.070312 106.753475 L 366.746094 107.198917 L 367.421875 105.726484 L 368.097656 106.002823 L 368.769531 106.708106 L 369.445312 105.305788 L 370.121094 108.118672 L 370.796875 106.114183 L 371.46875 107.236037 L 372.144531 107.425762 L 372.820312 106.435891 L 373.496094 107.005067 L 374.167969 106.724604 L 375.519531 108.003187 L 376.195312 108.09805 L 376.871094 107.685603 L 377.542969 107.796964 L 378.21875 108.085676 L 378.894531 107.772217 L 379.570312 108.217659 L 380.242188 108.353766 L 380.917969 108.395011 L 381.59375 106.889582 L 382.269531 109.166286 L 382.941406 109.302393 L 383.617188 108.168166 L 384.96875 108.168166 L 385.640625 108.869324 L 386.316406 109.042552 L 386.992188 108.481625 L 388.339844 108.947689 L 389.015625 107.945445 L 389.691406 108.539367 L 390.367188 108.704346 L 391.039062 109.549861 L 391.714844 109.248775 L 392.390625 108.300148 L 393.066406 109.294144 L 393.738281 109.875693 L 394.414062 109.541612 L 395.765625 109.215779 L 396.4375 109.603479 L 397.113281 109.834449 L 397.789062 109.050801 L 398.464844 108.630105 L 399.136719 109.331264 " transform="matrix(1, 0, 0, 0.947093, 0, 0)"/>
<path fill="none" stroke-width="0.850394" stroke-linecap="butt" stroke-linejoin="round" stroke="rgb(1.176453%, 0%, 0%)" stroke-opacity="1" stroke-miterlimit="4" d="M 31.820312 8.957031 L 195.179688 8.957031 L 195.179688 104.542969 L 31.820312 104.542969 Z M 31.820312 8.957031 "/>
<path fill="none" stroke-width="0.850394" stroke-linecap="butt" stroke-linejoin="round" stroke="rgb(1.176453%, 0%, 0%)" stroke-opacity="1" stroke-miterlimit="4" d="M 236.691406 8.957031 L 400.050781 8.957031 L 400.050781 104.542969 L 236.691406 104.542969 Z M 236.691406 8.957031 "/>
<path fill-rule="nonzero" fill="rgb(20.391846%, 51.371765%, 47.842407%)" fill-opacity="1" d="M 179.113281 57.839844 L 179.113281 57.027344 L 173.0625 57.027344 L 173.0625 57.839844 L 175.664062 57.839844 L 175.664062 64.785156 L 176.507812 64.785156 L 176.507812 57.839844 Z M 179.113281 57.839844 "/>
<path fill-rule="nonzero" fill="rgb(20.391846%, 51.371765%, 47.842407%)" fill-opacity="1" d="M 183.019531 62.253906 L 183.019531 62.164062 C 183.019531 60.707031 182.421875 59.632812 180.75 59.597656 C 179.253906 59.597656 178.410156 60.898438 178.410156 62.304688 C 178.410156 63.835938 179.34375 64.925781 180.890625 64.925781 C 181.59375 64.925781 182.226562 64.769531 182.84375 64.539062 L 182.84375 63.695312 C 182.035156 64.082031 181.910156 64.171875 180.960938 64.171875 C 179.90625 64.171875 179.273438 63.539062 179.273438 62.339844 L 179.273438 62.253906 Z M 182.191406 61.566406 L 179.308594 61.566406 C 179.414062 60.898438 179.90625 60.320312 180.75 60.320312 C 181.628906 60.320312 182.191406 60.863281 182.191406 61.566406 Z M 182.191406 61.566406 "/>
<path fill-rule="nonzero" fill="rgb(20.391846%, 51.371765%, 47.842407%)" fill-opacity="1" d="M 187.949219 63.378906 C 187.949219 62.375 187.261719 62.058594 186.347656 61.882812 L 185.996094 61.8125 C 185.503906 61.707031 184.785156 61.601562 184.785156 61.058594 C 184.820312 60.425781 185.558594 60.300781 186.121094 60.300781 C 187.015625 60.335938 186.945312 60.390625 187.703125 60.707031 L 187.703125 59.878906 C 187.226562 59.683594 186.628906 59.597656 186.015625 59.597656 C 185.011719 59.597656 184.027344 59.964844 184.027344 61.09375 C 184.042969 62.007812 184.660156 62.359375 185.503906 62.515625 L 185.820312 62.585938 C 186.4375 62.726562 187.140625 62.796875 187.140625 63.449219 C 187.105469 64.082031 186.382812 64.207031 185.820312 64.207031 C 184.890625 64.1875 184.75 64.082031 183.9375 63.695312 L 183.9375 64.609375 C 184.414062 64.734375 185.242188 64.925781 185.804688 64.925781 C 186.789062 64.925781 187.949219 64.558594 187.949219 63.378906 Z M 187.949219 63.378906 "/>
<path fill-rule="nonzero" fill="rgb(20.391846%, 51.371765%, 47.842407%)" fill-opacity="1" d="M 192.015625 64.785156 L 192.015625 64.066406 L 191.136719 64.066406 C 190.34375 64.066406 190.203125 63.871094 190.203125 63.132812 L 190.203125 60.390625 L 191.699219 60.390625 L 191.699219 59.71875 L 190.203125 59.71875 L 190.203125 58.277344 L 189.851562 58.277344 L 189.378906 59.71875 L 188.78125 59.71875 L 188.78125 60.390625 L 189.378906 60.390625 L 189.378906 63.132812 C 189.378906 64.398438 189.886719 64.785156 191.136719 64.785156 Z M 192.015625 64.785156 "/>
<path fill-rule="nonzero" fill="rgb(50.195312%, 50.195312%, 50.195312%)" fill-opacity="1" d="M 19.121094 11.589844 L 19.121094 6.128906 L 18.464844 6.128906 L 17.683594 6.761719 L 17.683594 7.378906 L 18.503906 6.710938 L 18.503906 11.589844 Z M 19.121094 11.589844 "/>
<path fill-rule="nonzero" fill="rgb(50.195312%, 50.195312%, 50.195312%)" fill-opacity="1" d="M 23.703125 8.878906 C 23.691406 7.714844 23.429688 6.03125 21.957031 6.03125 C 20.480469 6.03125 20.234375 7.738281 20.234375 8.878906 C 20.234375 10.03125 20.496094 11.703125 21.957031 11.703125 C 23.417969 11.703125 23.703125 10.03125 23.703125 8.878906 Z M 23.132812 8.878906 C 23.132812 9.632812 23.070312 11.183594 21.957031 11.183594 C 20.839844 11.183594 20.804688 9.609375 20.804688 8.878906 C 20.804688 8.136719 20.828125 6.539062 21.957031 6.539062 C 23.070312 6.539062 23.132812 8.148438 23.132812 8.878906 Z M 23.132812 8.878906 "/>
<path fill-rule="nonzero" fill="rgb(50.195312%, 50.195312%, 50.195312%)" fill-opacity="1" d="M 28.109375 8.878906 C 28.097656 7.714844 27.835938 6.03125 26.363281 6.03125 C 24.890625 6.03125 24.640625 7.738281 24.640625 8.878906 C 24.640625 10.03125 24.902344 11.703125 26.363281 11.703125 C 27.824219 11.703125 28.109375 10.03125 28.109375 8.878906 Z M 27.539062 8.878906 C 27.539062 9.632812 27.476562 11.183594 26.363281 11.183594 C 25.25 11.183594 25.210938 9.609375 25.210938 8.878906 C 25.210938 8.136719 25.234375 6.539062 26.363281 6.539062 C 27.476562 6.539062 27.539062 8.148438 27.539062 8.878906 Z M 27.539062 8.878906 "/>
<path fill-rule="nonzero" fill="rgb(50.195312%, 50.195312%, 50.195312%)" fill-opacity="1" d="M 28.109375 103.746094 C 28.097656 102.582031 27.835938 100.898438 26.363281 100.898438 C 24.890625 100.898438 24.640625 102.609375 24.640625 103.746094 C 24.640625 104.898438 24.902344 106.570312 26.363281 106.570312 C 27.824219 106.570312 28.109375 104.898438 28.109375 103.746094 Z M 27.539062 103.746094 C 27.539062 104.503906 27.476562 106.050781 26.363281 106.050781 C 25.25 106.050781 25.210938 104.480469 25.210938 103.746094 C 25.210938 103.003906 25.234375 101.40625 26.363281 101.40625 C 27.476562 101.40625 27.539062 103.015625 27.539062 103.746094 Z M 27.539062 103.746094 "/>
<path fill-rule="nonzero" fill="rgb(50.195312%, 50.195312%, 50.195312%)" fill-opacity="1" d="M 186.519531 111.472656 L 186.519531 111.558594 C 186.519531 113.179688 186.964844 114.023438 188.328125 114.023438 C 189.253906 114.011719 189.988281 113.316406 189.988281 112.277344 C 189.988281 111.234375 189.453125 110.429688 188.363281 110.429688 C 187.855469 110.457031 187.496094 110.542969 187.125 110.976562 C 187.136719 109.441406 188.214844 108.859375 189.292969 108.859375 L 189.328125 108.859375 L 189.34375 108.351562 C 188.003906 108.363281 186.519531 109.070312 186.519531 111.472656 Z M 187.136719 112.277344 C 187.164062 111.519531 187.558594 110.953125 188.328125 110.953125 C 189.070312 110.953125 189.417969 111.546875 189.417969 112.277344 C 189.417969 113.007812 189.070312 113.503906 188.328125 113.503906 C 187.582031 113.503906 187.136719 113.03125 187.136719 112.277344 Z M 187.136719 112.277344 "/>
<path fill-rule="nonzero" fill="rgb(50.195312%, 50.195312%, 50.195312%)" fill-opacity="1" d="M 194.257812 111.199219 C 194.246094 110.035156 193.984375 108.351562 192.511719 108.351562 C 191.035156 108.351562 190.789062 110.058594 190.789062 111.199219 C 190.789062 112.351562 191.046875 114.023438 192.511719 114.023438 C 193.972656 114.023438 194.257812 112.351562 194.257812 111.199219 Z M 193.6875 111.199219 C 193.6875 111.953125 193.625 113.503906 192.511719 113.503906 C 191.394531 113.503906 191.359375 111.929688 191.359375 111.199219 C 191.359375 110.457031 191.382812 108.859375 192.511719 108.859375 C 193.625 108.859375 193.6875 110.46875 193.6875 111.199219 Z M 193.6875 111.199219 "/>
<path fill-rule="nonzero" fill="rgb(50.195312%, 50.195312%, 50.195312%)" fill-opacity="1" d="M 198.664062 111.199219 C 198.652344 110.035156 198.390625 108.351562 196.917969 108.351562 C 195.441406 108.351562 195.195312 110.058594 195.195312 111.199219 C 195.195312 112.351562 195.457031 114.023438 196.917969 114.023438 C 198.378906 114.023438 198.664062 112.351562 198.664062 111.199219 Z M 198.09375 111.199219 C 198.09375 111.953125 198.03125 113.503906 196.917969 113.503906 C 195.800781 113.503906 195.765625 111.929688 195.765625 111.199219 C 195.765625 110.457031 195.789062 108.859375 196.917969 108.859375 C 198.03125 108.859375 198.09375 110.46875 198.09375 111.199219 Z M 198.09375 111.199219 "/>
<path fill-rule="nonzero" fill="rgb(50.195312%, 50.195312%, 50.195312%)" fill-opacity="1" d="M 203.070312 111.199219 C 203.058594 110.035156 202.796875 108.351562 201.324219 108.351562 C 199.851562 108.351562 199.601562 110.058594 199.601562 111.199219 C 199.601562 112.351562 199.863281 114.023438 201.324219 114.023438 C 202.785156 114.023438 203.070312 112.351562 203.070312 111.199219 Z M 202.5 111.199219 C 202.5 111.953125 202.4375 113.503906 201.324219 113.503906 C 200.210938 113.503906 200.171875 111.929688 200.171875 111.199219 C 200.171875 110.457031 200.195312 108.859375 201.324219 108.859375 C 202.4375 108.859375 202.5 110.46875 202.5 111.199219 Z M 202.5 111.199219 "/>
<path fill-rule="nonzero" fill="rgb(50.195312%, 50.195312%, 50.195312%)" fill-opacity="1" d="M 226.140625 103.753906 C 226.128906 102.585938 225.867188 100.902344 224.394531 100.902344 C 222.917969 100.902344 222.671875 102.613281 222.671875 103.753906 C 222.671875 104.902344 222.933594 106.574219 224.394531 106.574219 C 225.855469 106.574219 226.140625 104.902344 226.140625 103.753906 Z M 225.570312 103.753906 C 225.570312 104.507812 225.507812 106.054688 224.394531 106.054688 C 223.277344 106.054688 223.242188 104.484375 223.242188 103.753906 C 223.242188 103.007812 223.265625 101.410156 224.394531 101.410156 C 225.507812 101.410156 225.570312 103.019531 225.570312 103.753906 Z M 225.570312 103.753906 "/>
<path fill-rule="nonzero" fill="rgb(50.195312%, 50.195312%, 50.195312%)" fill-opacity="1" d="M 227.152344 105.660156 L 227.910156 105.660156 L 227.910156 106.464844 L 227.152344 106.464844 Z M 227.152344 105.660156 "/>
<path fill-rule="nonzero" fill="rgb(50.195312%, 50.195312%, 50.195312%)" fill-opacity="1" d="M 232.386719 103.753906 C 232.375 102.585938 232.113281 100.902344 230.640625 100.902344 C 229.167969 100.902344 228.917969 102.613281 228.917969 103.753906 C 228.917969 104.902344 229.179688 106.574219 230.640625 106.574219 C 232.101562 106.574219 232.386719 104.902344 232.386719 103.753906 Z M 231.816406 103.753906 C 231.816406 104.507812 231.753906 106.054688 230.640625 106.054688 C 229.527344 106.054688 229.488281 104.484375 229.488281 103.753906 C 229.488281 103.007812 229.511719 101.410156 230.640625 101.410156 C 231.753906 101.410156 231.816406 103.019531 231.816406 103.753906 Z M 231.816406 103.753906 "/>
<path fill-rule="nonzero" fill="rgb(50.195312%, 50.195312%, 50.195312%)" fill-opacity="1" d="M 226.179688 10.003906 C 226.179688 9.398438 225.804688 8.839844 225.113281 8.644531 C 225.707031 8.421875 226.054688 7.988281 226.054688 7.417969 C 226.054688 6.464844 225.261719 6.03125 224.394531 6.03125 C 223.960938 6.03125 223.429688 6.128906 223.042969 6.253906 L 223.042969 6.859375 C 223.464844 6.710938 223.824219 6.585938 224.332031 6.585938 C 224.976562 6.585938 225.496094 6.824219 225.496094 7.515625 C 225.484375 8.148438 224.976562 8.40625 224.355469 8.40625 L 223.773438 8.40625 L 223.773438 8.941406 L 224.332031 8.941406 C 225.050781 8.941406 225.621094 9.25 225.621094 10.003906 C 225.621094 10.898438 225 11.144531 224.195312 11.144531 C 223.625 11.144531 223.28125 11.046875 222.882812 10.773438 L 222.882812 11.441406 C 223.28125 11.578125 223.738281 11.703125 224.207031 11.703125 C 225.3125 11.703125 226.179688 11.207031 226.179688 10.003906 Z M 226.179688 10.003906 "/>
<path fill-rule="nonzero" fill="rgb(50.195312%, 50.195312%, 50.195312%)" fill-opacity="1" d="M 227.152344 10.785156 L 227.910156 10.785156 L 227.910156 11.589844 L 227.152344 11.589844 Z M 227.152344 10.785156 "/>
<path fill-rule="nonzero" fill="rgb(50.195312%, 50.195312%, 50.195312%)" fill-opacity="1" d="M 232.386719 8.878906 C 232.375 7.714844 232.113281 6.03125 230.640625 6.03125 C 229.167969 6.03125 228.917969 7.738281 228.917969 8.878906 C 228.917969 10.03125 229.179688 11.703125 230.640625 11.703125 C 232.101562 11.703125 232.386719 10.03125 232.386719 8.878906 Z M 231.816406 8.878906 C 231.816406 9.632812 231.753906 11.183594 230.640625 11.183594 C 229.527344 11.183594 229.488281 9.609375 229.488281 8.878906 C 229.488281 8.136719 229.511719 6.539062 230.640625 6.539062 C 231.753906 6.539062 231.816406 8.148438 231.816406 8.878906 Z M 231.816406 8.878906 "/>
<path fill-rule="nonzero" fill="rgb(50.195312%, 50.195312%, 50.195312%)" fill-opacity="1" d="M 33.871094 111.195312 C 33.859375 110.03125 33.597656 108.347656 32.125 108.347656 C 30.648438 108.347656 30.402344 110.054688 30.402344 111.195312 C 30.402344 112.347656 30.664062 114.019531 32.125 114.019531 C 33.585938 114.019531 33.871094 112.347656 33.871094 111.195312 Z M 33.300781 111.195312 C 33.300781 111.949219 33.238281 113.5 32.125 113.5 C 31.007812 113.5 30.972656 111.925781 30.972656 111.195312 C 30.972656 110.453125 30.996094 108.855469 32.125 108.855469 C 33.238281 108.855469 33.300781 110.464844 33.300781 111.195312 Z M 33.300781 111.195312 "/>
<path fill-rule="nonzero" fill="rgb(50.195312%, 50.195312%, 50.195312%)" fill-opacity="1" d="M 238.535156 111.195312 C 238.523438 110.03125 238.261719 108.347656 236.789062 108.347656 C 235.3125 108.347656 235.066406 110.054688 235.066406 111.195312 C 235.066406 112.347656 235.328125 114.019531 236.789062 114.019531 C 238.25 114.019531 238.535156 112.347656 238.535156 111.195312 Z M 237.964844 111.195312 C 237.964844 111.949219 237.902344 113.5 236.789062 113.5 C 235.671875 113.5 235.636719 111.925781 235.636719 111.195312 C 235.636719 110.453125 235.660156 108.855469 236.789062 108.855469 C 237.902344 108.855469 237.964844 110.464844 237.964844 111.195312 Z M 237.964844 111.195312 "/>
<path fill-rule="nonzero" fill="rgb(50.195312%, 50.195312%, 50.195312%)" fill-opacity="1" d="M 391.679688 111.472656 L 391.679688 111.558594 C 391.679688 113.179688 392.128906 114.023438 393.488281 114.023438 C 394.417969 114.011719 395.148438 113.316406 395.148438 112.277344 C 395.148438 111.234375 394.617188 110.429688 393.527344 110.429688 C 393.019531 110.457031 392.660156 110.542969 392.289062 110.976562 C 392.300781 109.441406 393.378906 108.859375 394.457031 108.859375 L 394.492188 108.859375 L 394.503906 108.351562 C 393.167969 108.363281 391.679688 109.070312 391.679688 111.472656 Z M 392.300781 112.277344 C 392.324219 111.519531 392.722656 110.953125 393.488281 110.953125 C 394.234375 110.953125 394.578125 111.546875 394.578125 112.277344 C 394.578125 113.007812 394.234375 113.503906 393.488281 113.503906 C 392.746094 113.503906 392.300781 113.03125 392.300781 112.277344 Z M 392.300781 112.277344 "/>
<path fill-rule="nonzero" fill="rgb(50.195312%, 50.195312%, 50.195312%)" fill-opacity="1" d="M 399.421875 111.199219 C 399.40625 110.035156 399.148438 108.351562 397.671875 108.351562 C 396.199219 108.351562 395.953125 110.058594 395.953125 111.199219 C 395.953125 112.351562 396.210938 114.023438 397.671875 114.023438 C 399.136719 114.023438 399.421875 112.351562 399.421875 111.199219 Z M 398.851562 111.199219 C 398.851562 111.953125 398.789062 113.503906 397.671875 113.503906 C 396.558594 113.503906 396.523438 111.929688 396.523438 111.199219 C 396.523438 110.457031 396.546875 108.859375 397.671875 108.859375 C 398.789062 108.859375 398.851562 110.46875 398.851562 111.199219 Z M 398.851562 111.199219 "/>
<path fill-rule="nonzero" fill="rgb(50.195312%, 50.195312%, 50.195312%)" fill-opacity="1" d="M 403.828125 111.199219 C 403.8125 110.035156 403.554688 108.351562 402.082031 108.351562 C 400.605469 108.351562 400.359375 110.058594 400.359375 111.199219 C 400.359375 112.351562 400.617188 114.023438 402.082031 114.023438 C 403.542969 114.023438 403.828125 112.351562 403.828125 111.199219 Z M 403.257812 111.199219 C 403.257812 111.953125 403.195312 113.503906 402.082031 113.503906 C 400.964844 113.503906 400.929688 111.929688 400.929688 111.199219 C 400.929688 110.457031 400.953125 108.859375 402.082031 108.859375 C 403.195312 108.859375 403.257812 110.46875 403.257812 111.199219 Z M 403.257812 111.199219 "/>
<g clip-path="url(#clip-5)">
<path fill-rule="nonzero" fill="rgb(50.195312%, 50.195312%, 50.195312%)" fill-opacity="1" d="M 408.234375 111.199219 C 408.222656 110.035156 407.960938 108.351562 406.488281 108.351562 C 405.011719 108.351562 404.765625 110.058594 404.765625 111.199219 C 404.765625 112.351562 405.027344 114.023438 406.488281 114.023438 C 407.949219 114.023438 408.234375 112.351562 408.234375 111.199219 Z M 407.664062 111.199219 C 407.664062 111.953125 407.601562 113.503906 406.488281 113.503906 C 405.371094 113.503906 405.335938 111.929688 405.335938 111.199219 C 405.335938 110.457031 405.359375 108.859375 406.488281 108.859375 C 407.601562 108.859375 407.664062 110.46875 407.664062 111.199219 Z M 407.664062 111.199219 "/>
</g>
<path fill-rule="nonzero" fill="rgb(0%, 0%, 0%)" fill-opacity="1" d="M 4.492188 5.839844 C 4.492188 4.550781 3.5625 3.660156 2.394531 3.660156 C 1.582031 3.660156 1.007812 3.859375 0.414062 4.195312 L 0.496094 5.027344 C 1.148438 4.570312 1.78125 4.414062 2.394531 4.414062 C 2.988281 4.414062 3.503906 4.910156 3.503906 5.839844 L 3.503906 6.394531 C 1.601562 6.414062 0 6.945312 0 8.054688 C 0 8.589844 0.335938 9.621094 1.445312 9.621094 C 1.621094 9.621094 2.808594 9.597656 3.542969 9.027344 L 3.542969 9.480469 L 4.492188 9.480469 Z M 3.503906 7.816406 C 3.503906 8.054688 3.503906 8.371094 3.066406 8.609375 C 2.710938 8.828125 2.214844 8.847656 2.078125 8.847656 C 1.484375 8.847656 0.910156 8.550781 0.910156 8.035156 C 0.910156 7.144531 2.949219 7.066406 3.503906 7.027344 Z M 3.503906 7.816406 "/>
<path fill-rule="nonzero" fill="rgb(0%, 0%, 0%)" fill-opacity="1" d="M 6.996094 12.648438 C 7.390625 12.25 8.242188 11.480469 8.816406 9.9375 C 9.332031 8.589844 9.410156 7.242188 9.410156 6.3125 C 9.410156 2.238281 7.589844 0.574219 6.996094 0 L 6.222656 0 C 6.816406 0.613281 8.421875 2.238281 8.421875 6.3125 C 8.421875 7.027344 8.378906 8.511719 7.867188 9.996094 C 7.351562 11.460938 6.640625 12.210938 6.222656 12.648438 Z M 6.996094 12.648438 "/>
<path fill-rule="nonzero" fill="rgb(0%, 0%, 0%)" fill-opacity="1" d="M 209.625 0.710938 L 208.675781 0.710938 L 208.675781 9.480469 L 209.664062 9.480469 L 209.664062 8.90625 C 209.960938 9.183594 210.515625 9.621094 211.367188 9.621094 C 212.613281 9.621094 213.703125 8.351562 213.703125 6.671875 C 213.703125 5.105469 212.851562 3.742188 211.664062 3.742188 C 211.167969 3.742188 210.378906 3.859375 209.625 4.472656 Z M 209.664062 5.246094 C 209.863281 4.949219 210.316406 4.511719 211.011719 4.511719 C 211.761719 4.511719 212.714844 5.046875 212.714844 6.671875 C 212.714844 8.3125 211.664062 8.847656 210.890625 8.847656 C 210.398438 8.847656 209.980469 8.628906 209.664062 8.035156 Z M 209.664062 5.246094 "/>
<path fill-rule="nonzero" fill="rgb(0%, 0%, 0%)" fill-opacity="1" d="M 215.652344 12.648438 C 216.046875 12.25 216.898438 11.480469 217.472656 9.9375 C 217.988281 8.589844 218.066406 7.242188 218.066406 6.3125 C 218.066406 2.238281 216.246094 0.574219 215.652344 0 L 214.878906 0 C 215.472656 0.613281 217.078125 2.238281 217.078125 6.3125 C 217.078125 7.027344 217.039062 8.511719 216.523438 9.996094 C 216.007812 11.460938 215.296875 12.210938 214.878906 12.648438 Z M 215.652344 12.648438 "/>
</svg>
