<?xml version="1.0" encoding="UTF-8"?>
<svg xmlns="http://www.w3.org/2000/svg" xmlns:xlink="http://www.w3.org/1999/xlink" width="387.99231pt" height="83.149033pt" viewBox="0 0 387.99231 83.149033">
<defs>
<clipPath id="clip-0">
<path clip-rule="nonzero" d="M 222 54 L 253 54 L 253 83.148438 L 222 83.148438 Z M 222 54 "/>
</clipPath>
<clipPath id="clip-1">
<path clip-rule="nonzero" d="M 135 54 L 166 54 L 166 83.148438 L 135 83.148438 Z M 135 54 "/>
</clipPath>
</defs>
<path fill="none" stroke-width="1.984252" stroke-linecap="butt" stroke-linejoin="miter" stroke="rgb(60.783386%, 84.312439%, 81.959534%)" stroke-opacity="1" stroke-miterlimit="4" d="M 244.609375 61.792969 L 237.378906 70.035156 L 226.207031 70.042969 "/>
<path fill="none" stroke-width="1.984252" stroke-linecap="butt" stroke-linejoin="miter" stroke="rgb(60.783386%, 84.312439%, 81.959534%)" stroke-opacity="1" stroke-miterlimit="4" d="M 158.425781 61.792969 L 151.195312 70.035156 L 140.023438 70.042969 "/>
<path fill="none" stroke-width="1.984252" stroke-linecap="butt" stroke-linejoin="miter" stroke="rgb(60.783386%, 84.312439%, 81.959534%)" stroke-opacity="1" stroke-miterlimit="4" d="M 244.609375 33.695312 L 237.378906 41.9375 L 226.207031 41.945312 "/>
<path fill="none" stroke-width="1.984252" stroke-linecap="butt" stroke-linejoin="miter" stroke="rgb(60.783386%, 84.312439%, 81.959534%)" stroke-opacity="1" stroke-miterlimit="4" d="M 158.425781 33.695312 L 151.195312 41.9375 L 140.023438 41.945312 "/>
<path fill="none" stroke-width="1.984252" stroke-linecap="butt" stroke-linejoin="miter" stroke="rgb(60.783386%, 84.312439%, 81.959534%)" stroke-opacity="1" stroke-miterlimit="4" d="M 244.609375 5.59375 L 237.378906 13.839844 L 226.207031 13.847656 "/>
<path fill="none" stroke-width="1.984252" stroke-linecap="butt" stroke-linejoin="miter" stroke="rgb(60.783386%, 84.312439%, 81.959534%)" stroke-opacity="1" stroke-miterlimit="4" d="M 158.425781 5.59375 L 151.195312 13.839844 L 140.023438 13.847656 "/>
<path fill="none" stroke-width="0.677695" stroke-linecap="butt" stroke-linejoin="miter" stroke="rgb(0%, 0%, 0%)" stroke-opacity="1" stroke-miterlimit="4" d="M 248.230469 13.464844 C 248.230469 19.601562 243.253906 24.574219 237.121094 24.574219 C 230.988281 24.574219 226.015625 19.601562 226.015625 13.464844 C 226.015625 7.332031 230.988281 2.359375 237.121094 2.359375 C 243.253906 2.359375 248.230469 7.332031 248.230469 13.464844 Z M 248.230469 13.464844 "/>
<path fill="none" stroke-width="0.677695" stroke-linecap="butt" stroke-linejoin="miter" stroke="rgb(0%, 0%, 0%)" stroke-opacity="1" stroke-miterlimit="4" d="M 248.230469 41.574219 C 248.230469 47.710938 243.253906 52.683594 237.121094 52.683594 C 230.988281 52.683594 226.015625 47.710938 226.015625 41.574219 C 226.015625 35.441406 230.988281 30.46875 237.121094 30.46875 C 243.253906 30.46875 248.230469 35.441406 248.230469 41.574219 Z M 248.230469 41.574219 "/>
<path fill="none" stroke-width="0.677695" stroke-linecap="butt" stroke-linejoin="miter" stroke="rgb(0%, 0%, 0%)" stroke-opacity="1" stroke-miterlimit="4" d="M 161.410156 38.121094 L 224.65625 15.871094 "/>
<path fill-rule="evenodd" fill="rgb(0%, 0%, 0%)" fill-opacity="1" stroke-width="0.340955" stroke-linecap="butt" stroke-linejoin="miter" stroke="rgb(0%, 0%, 0%)" stroke-opacity="1" stroke-miterlimit="4" d="M -192.392585 -84.451126 L -191.115163 -85.728306 L -195.588187 -84.450304 L -191.11193 -83.172481 Z M -192.392585 -84.451126 " transform="matrix(-1, 0.351789, -0.351789, -1, 0, 0)"/>
<path fill="none" stroke-width="0.67377" stroke-linecap="butt" stroke-linejoin="miter" stroke="rgb(0%, 0%, 0%)" stroke-opacity="1" stroke-miterlimit="4" d="M 161.484375 45.429688 L 224.75 66.914062 "/>
<path fill-rule="evenodd" fill="rgb(0%, 0%, 0%)" fill-opacity="1" stroke-width="0.340259" stroke-linecap="butt" stroke-linejoin="miter" stroke="rgb(0%, 0%, 0%)" stroke-opacity="1" stroke-miterlimit="4" d="M -219.334087 8.437007 L -218.060463 7.160746 L -222.526152 8.435066 L -218.057826 9.710631 Z M -219.334087 8.437007 " transform="matrix(-1, -0.339591, 0.339591, -1, 0, 0)"/>
<path fill="none" stroke-width="0.677695" stroke-linecap="butt" stroke-linejoin="miter" stroke="rgb(0%, 0%, 0%)" stroke-opacity="1" stroke-miterlimit="4" d="M 162.015625 41.644531 L 224.417969 41.570312 "/>
<path fill-rule="evenodd" fill="rgb(0%, 0%, 0%)" fill-opacity="1" stroke-width="0.361437" stroke-linecap="butt" stroke-linejoin="miter" stroke="rgb(0%, 0%, 0%)" stroke-opacity="1" stroke-miterlimit="4" d="M -221.654908 -41.846401 L -220.297748 -43.204086 L -225.041627 -41.846714 L -220.297219 -40.493148 Z M -221.654908 -41.846401 " transform="matrix(-1, 0.00124558, -0.00124558, -1, 0, 0)"/>
<path fill="none" stroke-width="0.677695" stroke-linecap="butt" stroke-linejoin="miter" stroke="rgb(0%, 0%, 0%)" stroke-opacity="1" stroke-miterlimit="4" d="M 311.769531 37.851562 L 248.378906 13.636719 "/>
<path fill-rule="evenodd" fill="rgb(0%, 0%, 0%)" fill-opacity="1" stroke-width="0.337642" stroke-linecap="butt" stroke-linejoin="miter" stroke="rgb(0%, 0%, 0%)" stroke-opacity="1" stroke-miterlimit="4" d="M -282.155974 70.897948 L -280.889241 69.632819 L -285.3195 70.899352 L -280.887436 72.163379 Z M -282.155974 70.897948 " transform="matrix(-1, -0.38199, 0.38199, -1, 0, 0)"/>
<path fill="none" stroke-width="0.677695" stroke-linecap="butt" stroke-linejoin="miter" stroke="rgb(0%, 0%, 0%)" stroke-opacity="1" stroke-miterlimit="4" d="M 311.5625 44.722656 L 248.109375 69.140625 "/>
<path fill-rule="evenodd" fill="rgb(0%, 0%, 0%)" fill-opacity="1" stroke-width="0.337331" stroke-linecap="butt" stroke-linejoin="miter" stroke="rgb(0%, 0%, 0%)" stroke-opacity="1" stroke-miterlimit="4" d="M -253.870761 -143.376502 L -252.603755 -144.639019 L -257.03188 -143.373999 L -252.604841 -142.108187 Z M -253.870761 -143.376502 " transform="matrix(-1, 0.384752, -0.384752, -1, 0, 0)"/>
<path fill="none" stroke-width="0.681299" stroke-linecap="butt" stroke-linejoin="miter" stroke="rgb(0%, 0%, 0%)" stroke-opacity="1" stroke-miterlimit="4" d="M 311.125 41.417969 L 248.1875 41.339844 "/>
<path fill-rule="evenodd" fill="rgb(0%, 0%, 0%)" fill-opacity="1" stroke-width="0.363359" stroke-linecap="butt" stroke-linejoin="miter" stroke="rgb(0%, 0%, 0%)" stroke-opacity="1" stroke-miterlimit="4" d="M -308.44943 -41.034668 L -307.08784 -42.395735 L -311.85568 -41.034341 L -307.088358 -39.669172 Z M -308.44943 -41.034668 " transform="matrix(-1, -0.00124267, 0.00124267, -1, 0, 0)"/>
<path fill="none" stroke-width="0.677695" stroke-linecap="butt" stroke-linejoin="miter" stroke="rgb(0%, 0%, 0%)" stroke-opacity="1" stroke-miterlimit="4" d="M 334.820312 41.574219 C 334.820312 47.710938 329.847656 52.683594 323.714844 52.683594 C 317.578125 52.683594 312.605469 47.710938 312.605469 41.574219 C 312.605469 35.441406 317.578125 30.46875 323.714844 30.46875 C 329.847656 30.46875 334.820312 35.441406 334.820312 41.574219 Z M 334.820312 41.574219 "/>
<g clip-path="url(#clip-0)">
<path fill="none" stroke-width="0.677695" stroke-linecap="butt" stroke-linejoin="miter" stroke="rgb(0%, 0%, 0%)" stroke-opacity="1" stroke-miterlimit="4" d="M 248.230469 69.683594 C 248.230469 75.816406 243.253906 80.789062 237.121094 80.789062 C 230.988281 80.789062 226.015625 75.816406 226.015625 69.683594 C 226.015625 63.546875 230.988281 58.574219 237.121094 58.574219 C 243.253906 58.574219 248.230469 63.546875 248.230469 69.683594 Z M 248.230469 69.683594 "/>
</g>
<path fill-rule="nonzero" fill="rgb(0%, 0%, 0%)" fill-opacity="1" d="M 148.507812 64.929688 C 148.507812 64.929688 148.507812 64.804688 148.363281 64.804688 C 148.097656 64.804688 147.277344 64.894531 146.976562 64.929688 C 146.886719 64.929688 146.761719 64.949219 146.761719 65.144531 C 146.761719 65.285156 146.867188 65.285156 147.027344 65.285156 C 147.582031 65.285156 147.597656 65.359375 147.597656 65.484375 L 147.5625 65.714844 L 145.925781 72.253906 C 145.871094 72.414062 145.871094 72.429688 145.871094 72.5 C 145.871094 72.769531 146.101562 72.820312 146.210938 72.820312 C 146.386719 72.820312 146.566406 72.679688 146.621094 72.519531 L 146.832031 71.664062 L 147.082031 70.648438 C 147.152344 70.382812 147.226562 70.132812 147.277344 69.882812 C 147.296875 69.8125 147.402344 69.4375 147.402344 69.367188 C 147.4375 69.257812 147.796875 68.636719 148.1875 68.316406 C 148.4375 68.136719 148.773438 67.921875 149.273438 67.921875 C 149.753906 67.921875 149.878906 68.316406 149.878906 68.726562 C 149.878906 69.332031 149.453125 70.578125 149.183594 71.273438 C 149.09375 71.523438 149.023438 71.664062 149.023438 71.894531 C 149.023438 72.429688 149.433594 72.820312 149.96875 72.820312 C 151.039062 72.820312 151.445312 71.164062 151.445312 71.078125 C 151.445312 70.953125 151.359375 70.953125 151.320312 70.953125 C 151.199219 70.953125 151.199219 70.988281 151.144531 71.164062 C 150.984375 71.769531 150.609375 72.574219 149.984375 72.574219 C 149.789062 72.574219 149.71875 72.464844 149.71875 72.199219 C 149.71875 71.914062 149.808594 71.644531 149.914062 71.398438 C 150.09375 70.898438 150.609375 69.542969 150.609375 68.886719 C 150.609375 68.15625 150.164062 67.671875 149.308594 67.671875 C 148.597656 67.671875 148.042969 68.03125 147.617188 68.546875 Z M 148.507812 64.929688 "/>
<path fill-rule="nonzero" fill="rgb(0%, 0%, 0%)" fill-opacity="1" d="M 153.964844 71.746094 C 154.589844 71.746094 155.035156 72.175781 155.035156 73.027344 C 155.035156 74.007812 154.445312 74.3125 154 74.3125 C 153.679688 74.3125 152.96875 74.222656 152.648438 73.742188 C 153.019531 73.742188 153.109375 73.472656 153.109375 73.296875 C 153.109375 73.046875 152.914062 72.867188 152.664062 72.867188 C 152.449219 72.867188 152.21875 73.011719 152.21875 73.332031 C 152.21875 74.082031 153.039062 74.5625 154 74.5625 C 155.105469 74.5625 155.871094 73.8125 155.871094 73.027344 C 155.871094 72.40625 155.371094 71.78125 154.5 71.605469 C 155.320312 71.300781 155.621094 70.714844 155.621094 70.214844 C 155.621094 69.589844 154.910156 69.128906 154.019531 69.128906 C 153.144531 69.128906 152.46875 69.554688 152.46875 70.195312 C 152.46875 70.464844 152.648438 70.605469 152.878906 70.605469 C 153.128906 70.605469 153.289062 70.429688 153.289062 70.214844 C 153.289062 69.984375 153.128906 69.804688 152.878906 69.785156 C 153.164062 69.449219 153.699219 69.359375 154 69.359375 C 154.355469 69.359375 154.855469 69.539062 154.855469 70.214844 C 154.855469 70.554688 154.75 70.925781 154.535156 71.160156 C 154.285156 71.460938 154.054688 71.480469 153.664062 71.515625 C 153.464844 71.53125 153.449219 71.53125 153.414062 71.53125 C 153.394531 71.53125 153.324219 71.550781 153.324219 71.640625 C 153.324219 71.746094 153.394531 71.746094 153.539062 71.746094 Z M 153.964844 71.746094 "/>
<path fill-rule="nonzero" fill="rgb(0%, 0%, 0%)" fill-opacity="1" d="M 148.667969 8.792969 C 148.667969 8.792969 148.667969 8.667969 148.523438 8.667969 C 148.257812 8.667969 147.4375 8.757812 147.136719 8.792969 C 147.046875 8.792969 146.921875 8.8125 146.921875 9.007812 C 146.921875 9.148438 147.027344 9.148438 147.1875 9.148438 C 147.742188 9.148438 147.757812 9.21875 147.757812 9.34375 L 147.722656 9.578125 L 146.085938 16.113281 C 146.03125 16.273438 146.03125 16.292969 146.03125 16.363281 C 146.03125 16.632812 146.261719 16.683594 146.371094 16.683594 C 146.546875 16.683594 146.726562 16.542969 146.78125 16.382812 L 146.992188 15.527344 L 147.242188 14.511719 C 147.3125 14.242188 147.386719 13.996094 147.4375 13.746094 C 147.457031 13.675781 147.5625 13.300781 147.5625 13.230469 C 147.597656 13.121094 147.957031 12.5 148.347656 12.175781 C 148.597656 12 148.933594 11.785156 149.433594 11.785156 C 149.914062 11.785156 150.039062 12.175781 150.039062 12.585938 C 150.039062 13.191406 149.613281 14.441406 149.34375 15.136719 C 149.253906 15.382812 149.183594 15.527344 149.183594 15.757812 C 149.183594 16.292969 149.59375 16.683594 150.128906 16.683594 C 151.199219 16.683594 151.605469 15.027344 151.605469 14.9375 C 151.605469 14.8125 151.519531 14.8125 151.484375 14.8125 C 151.359375 14.8125 151.359375 14.851562 151.304688 15.027344 C 151.144531 15.632812 150.769531 16.433594 150.144531 16.433594 C 149.949219 16.433594 149.878906 16.328125 149.878906 16.0625 C 149.878906 15.777344 149.96875 15.507812 150.074219 15.257812 C 150.253906 14.761719 150.769531 13.40625 150.769531 12.746094 C 150.769531 12.015625 150.324219 11.535156 149.46875 11.535156 C 148.757812 11.535156 148.203125 11.890625 147.777344 12.410156 Z M 148.667969 8.792969 "/>
<path fill-rule="nonzero" fill="rgb(0%, 0%, 0%)" fill-opacity="1" d="M 154.605469 13.203125 C 154.605469 12.988281 154.605469 12.988281 154.375 12.988281 C 153.859375 13.488281 153.144531 13.488281 152.824219 13.488281 L 152.824219 13.773438 C 153.003906 13.773438 153.539062 13.773438 153.964844 13.558594 L 153.964844 17.605469 C 153.964844 17.871094 153.964844 17.976562 153.179688 17.976562 L 152.878906 17.976562 L 152.878906 18.261719 C 153.019531 18.261719 154 18.226562 154.285156 18.226562 C 154.535156 18.226562 155.53125 18.261719 155.710938 18.261719 L 155.710938 17.976562 L 155.40625 17.976562 C 154.605469 17.976562 154.605469 17.871094 154.605469 17.605469 Z M 154.605469 13.203125 "/>
<path fill-rule="nonzero" fill="rgb(0%, 0%, 0%)" fill-opacity="1" d="M 148.542969 36.902344 C 148.542969 36.902344 148.542969 36.777344 148.402344 36.777344 C 148.132812 36.777344 147.3125 36.867188 147.011719 36.902344 C 146.921875 36.902344 146.796875 36.917969 146.796875 37.117188 C 146.796875 37.257812 146.902344 37.257812 147.066406 37.257812 C 147.617188 37.257812 147.632812 37.328125 147.632812 37.453125 L 147.597656 37.683594 L 145.960938 44.222656 C 145.90625 44.382812 145.90625 44.402344 145.90625 44.472656 C 145.90625 44.738281 146.136719 44.792969 146.246094 44.792969 C 146.421875 44.792969 146.601562 44.652344 146.65625 44.492188 L 146.867188 43.636719 L 147.117188 42.621094 C 147.1875 42.351562 147.261719 42.101562 147.3125 41.855469 C 147.332031 41.78125 147.4375 41.410156 147.4375 41.335938 C 147.472656 41.230469 147.832031 40.605469 148.222656 40.285156 C 148.472656 40.109375 148.808594 39.894531 149.308594 39.894531 C 149.789062 39.894531 149.914062 40.285156 149.914062 40.695312 C 149.914062 41.300781 149.488281 42.550781 149.21875 43.242188 C 149.132812 43.492188 149.058594 43.636719 149.058594 43.867188 C 149.058594 44.402344 149.46875 44.792969 150.003906 44.792969 C 151.074219 44.792969 151.484375 43.136719 151.484375 43.046875 C 151.484375 42.921875 151.394531 42.921875 151.359375 42.921875 C 151.234375 42.921875 151.234375 42.957031 151.179688 43.136719 C 151.019531 43.742188 150.644531 44.542969 150.023438 44.542969 C 149.824219 44.542969 149.753906 44.4375 149.753906 44.171875 C 149.753906 43.886719 149.84375 43.617188 149.949219 43.367188 C 150.128906 42.871094 150.644531 41.515625 150.644531 40.855469 C 150.644531 40.125 150.199219 39.644531 149.34375 39.644531 C 148.632812 39.644531 148.078125 40 147.652344 40.519531 Z M 148.542969 36.902344 "/>
<path fill-rule="nonzero" fill="rgb(0%, 0%, 0%)" fill-opacity="1" d="M 155.835938 44.929688 L 155.570312 44.929688 C 155.550781 45.105469 155.460938 45.570312 155.355469 45.640625 C 155.300781 45.695312 154.695312 45.695312 154.570312 45.695312 L 153.109375 45.695312 C 153.949219 44.964844 154.230469 44.734375 154.695312 44.359375 C 155.285156 43.894531 155.835938 43.398438 155.835938 42.648438 C 155.835938 41.6875 155 41.097656 153.984375 41.097656 C 153.003906 41.097656 152.328125 41.792969 152.328125 42.523438 C 152.328125 42.917969 152.664062 42.96875 152.753906 42.96875 C 152.933594 42.96875 153.164062 42.828125 153.164062 42.542969 C 153.164062 42.398438 153.109375 42.113281 152.699219 42.113281 C 152.949219 41.5625 153.484375 41.382812 153.859375 41.382812 C 154.660156 41.382812 155.070312 42.007812 155.070312 42.648438 C 155.070312 43.34375 154.570312 43.878906 154.320312 44.164062 L 152.414062 46.070312 C 152.328125 46.140625 152.328125 46.160156 152.328125 46.371094 L 155.605469 46.371094 Z M 155.835938 44.929688 "/>
<path fill="none" stroke-width="0.677695" stroke-linecap="butt" stroke-linejoin="miter" stroke="rgb(0%, 0%, 0%)" stroke-opacity="1" stroke-miterlimit="4" d="M 75.386719 41.574219 C 75.386719 47.710938 70.414062 52.683594 64.277344 52.683594 C 58.144531 52.683594 53.171875 47.710938 53.171875 41.574219 C 53.171875 35.441406 58.144531 30.46875 64.277344 30.46875 C 70.414062 30.46875 75.386719 35.441406 75.386719 41.574219 Z M 75.386719 41.574219 "/>
<path fill="none" stroke-width="0.677695" stroke-linecap="butt" stroke-linejoin="miter" stroke="rgb(0%, 0%, 0%)" stroke-opacity="1" stroke-miterlimit="4" d="M 161.980469 13.464844 C 161.980469 19.601562 157.003906 24.574219 150.871094 24.574219 C 144.738281 24.574219 139.761719 19.601562 139.761719 13.464844 C 139.761719 7.332031 144.738281 2.359375 150.871094 2.359375 C 157.003906 2.359375 161.980469 7.332031 161.980469 13.464844 Z M 161.980469 13.464844 "/>
<path fill="none" stroke-width="0.677695" stroke-linecap="butt" stroke-linejoin="miter" stroke="rgb(0%, 0%, 0%)" stroke-opacity="1" stroke-miterlimit="4" d="M 161.980469 41.574219 C 161.980469 47.710938 157.003906 52.683594 150.871094 52.683594 C 144.738281 52.683594 139.761719 47.710938 139.761719 41.574219 C 139.761719 35.441406 144.738281 30.46875 150.871094 30.46875 C 157.003906 30.46875 161.980469 35.441406 161.980469 41.574219 Z M 161.980469 41.574219 "/>
<path fill="none" stroke-width="0.677695" stroke-linecap="butt" stroke-linejoin="miter" stroke="rgb(0%, 0%, 0%)" stroke-opacity="1" stroke-miterlimit="4" d="M 75.160156 39.023438 L 138.59375 14.730469 "/>
<path fill-rule="evenodd" fill="rgb(0%, 0%, 0%)" fill-opacity="1" stroke-width="0.337532" stroke-linecap="butt" stroke-linejoin="miter" stroke="rgb(0%, 0%, 0%)" stroke-opacity="1" stroke-miterlimit="4" d="M -113.412861 -59.132489 L -112.149168 -60.402443 L -116.580066 -59.134483 L -112.146313 -57.8701 Z M -113.412861 -59.132489 " transform="matrix(-1, 0.382966, -0.382966, -1, 0, 0)"/>
<path fill="none" stroke-width="0.67377" stroke-linecap="butt" stroke-linejoin="miter" stroke="rgb(0%, 0%, 0%)" stroke-opacity="1" stroke-miterlimit="4" d="M 75.203125 43.523438 L 138.871094 67.820312 "/>
<path fill-rule="evenodd" fill="rgb(0%, 0%, 0%)" fill-opacity="1" stroke-width="0.335728" stroke-linecap="butt" stroke-linejoin="miter" stroke="rgb(0%, 0%, 0%)" stroke-opacity="1" stroke-miterlimit="4" d="M -141.289784 -12.940085 L -140.031417 -14.197649 L -144.437457 -12.938083 L -140.030918 -11.678308 Z M -141.289784 -12.940085 " transform="matrix(-1, -0.381622, 0.381622, -1, 0, 0)"/>
<path fill="none" stroke-width="0.677695" stroke-linecap="butt" stroke-linejoin="miter" stroke="rgb(0%, 0%, 0%)" stroke-opacity="1" stroke-miterlimit="4" d="M 75.765625 41.078125 L 138.367188 41 "/>
<path fill-rule="evenodd" fill="rgb(0%, 0%, 0%)" fill-opacity="1" stroke-width="0.361437" stroke-linecap="butt" stroke-linejoin="miter" stroke="rgb(0%, 0%, 0%)" stroke-opacity="1" stroke-miterlimit="4" d="M -135.605131 -41.172271 L -134.251883 -42.529966 L -138.995756 -41.172574 L -134.251343 -39.819028 Z M -135.605131 -41.172271 " transform="matrix(-1, 0.00124158, -0.00124158, -1, 0, 0)"/>
<path fill="none" stroke-width="0.677695" stroke-linecap="butt" stroke-linejoin="miter" stroke="rgb(0%, 0%, 0%)" stroke-opacity="1" stroke-miterlimit="4" d="M 224.847656 38.519531 L 161.761719 16.347656 "/>
<path fill-rule="evenodd" fill="rgb(0%, 0%, 0%)" fill-opacity="1" stroke-width="0.340992" stroke-linecap="butt" stroke-linejoin="miter" stroke="rgb(0%, 0%, 0%)" stroke-opacity="1" stroke-miterlimit="4" d="M -209.623867 36.049118 L -208.342674 34.770731 L -212.818595 36.05078 L -208.342003 37.329088 Z M -209.623867 36.049118 " transform="matrix(-1, -0.35144, 0.35144, -1, 0, 0)"/>
<path fill="none" stroke-width="0.677695" stroke-linecap="butt" stroke-linejoin="miter" stroke="rgb(0%, 0%, 0%)" stroke-opacity="1" stroke-miterlimit="4" d="M 224.679688 44.1875 L 161.65625 66.160156 "/>
<path fill-rule="evenodd" fill="rgb(0%, 0%, 0%)" fill-opacity="1" stroke-width="0.341292" stroke-linecap="butt" stroke-linejoin="miter" stroke="rgb(0%, 0%, 0%)" stroke-opacity="1" stroke-miterlimit="4" d="M -184.033029 -109.24073 L -182.754469 -110.521553 L -187.232825 -109.239074 L -182.75342 -107.958687 Z M -184.033029 -109.24073 " transform="matrix(-1, 0.348626, -0.348626, -1, 0, 0)"/>
<path fill="none" stroke-width="0.681299" stroke-linecap="butt" stroke-linejoin="miter" stroke="rgb(0%, 0%, 0%)" stroke-opacity="1" stroke-miterlimit="4" d="M 224.40625 69.6875 L 161.9375 69.609375 "/>
<path fill-rule="evenodd" fill="rgb(0%, 0%, 0%)" fill-opacity="1" stroke-width="0.363359" stroke-linecap="butt" stroke-linejoin="miter" stroke="rgb(0%, 0%, 0%)" stroke-opacity="1" stroke-miterlimit="4" d="M -221.766588 -69.40985 L -220.405011 -70.77093 L -225.172837 -69.409492 L -220.405503 -68.044367 Z M -221.766588 -69.40985 " transform="matrix(-1, -0.00125199, 0.00125199, -1, 0, 0)"/>
<path fill-rule="nonzero" fill="rgb(0%, 0%, 0%)" fill-opacity="1" d="M 64.910156 40.585938 C 64.980469 40.300781 65.25 39.25 66.03125 39.25 C 66.085938 39.25 66.371094 39.25 66.601562 39.390625 C 66.28125 39.464844 66.066406 39.730469 66.066406 40.015625 C 66.066406 40.195312 66.191406 40.40625 66.496094 40.40625 C 66.746094 40.40625 67.101562 40.210938 67.101562 39.75 C 67.101562 39.160156 66.441406 39 66.050781 39 C 65.390625 39 65 39.605469 64.855469 39.855469 C 64.570312 39.105469 63.964844 39 63.628906 39 C 62.453125 39 61.792969 40.460938 61.792969 40.746094 C 61.792969 40.871094 61.917969 40.871094 61.933594 40.871094 C 62.023438 40.871094 62.058594 40.835938 62.078125 40.746094 C 62.46875 39.535156 63.21875 39.25 63.609375 39.25 C 63.824219 39.25 64.214844 39.355469 64.214844 40.015625 C 64.214844 40.371094 64.019531 41.121094 63.609375 42.722656 C 63.433594 43.417969 63.023438 43.898438 62.523438 43.898438 C 62.453125 43.898438 62.203125 43.898438 61.953125 43.757812 C 62.238281 43.683594 62.488281 43.453125 62.488281 43.132812 C 62.488281 42.832031 62.238281 42.742188 62.078125 42.742188 C 61.722656 42.742188 61.453125 43.027344 61.453125 43.402344 C 61.453125 43.917969 62.007812 44.148438 62.503906 44.148438 C 63.269531 44.148438 63.679688 43.347656 63.699219 43.292969 C 63.839844 43.703125 64.25 44.148438 64.929688 44.148438 C 66.105469 44.148438 66.746094 42.6875 66.746094 42.402344 C 66.746094 42.277344 66.65625 42.277344 66.621094 42.277344 C 66.511719 42.277344 66.496094 42.332031 66.460938 42.402344 C 66.085938 43.632812 65.320312 43.898438 64.964844 43.898438 C 64.519531 43.898438 64.339844 43.542969 64.339844 43.152344 C 64.339844 42.902344 64.394531 42.652344 64.519531 42.152344 Z M 64.910156 40.585938 "/>
<g clip-path="url(#clip-1)">
<path fill="none" stroke-width="0.677695" stroke-linecap="butt" stroke-linejoin="miter" stroke="rgb(0%, 0%, 0%)" stroke-opacity="1" stroke-miterlimit="4" d="M 161.980469 69.683594 C 161.980469 75.816406 157.003906 80.789062 150.871094 80.789062 C 144.738281 80.789062 139.761719 75.816406 139.761719 69.683594 C 139.761719 63.546875 144.738281 58.574219 150.871094 58.574219 C 157.003906 58.574219 161.980469 63.546875 161.980469 69.683594 Z M 161.980469 69.683594 "/>
</g>
<path fill-rule="nonzero" fill="rgb(0%, 0%, 0%)" fill-opacity="1" d="M 234.917969 8.570312 C 234.917969 8.570312 234.917969 8.445312 234.773438 8.445312 C 234.507812 8.445312 233.6875 8.53125 233.386719 8.570312 C 233.296875 8.570312 233.171875 8.585938 233.171875 8.78125 C 233.171875 8.925781 233.277344 8.925781 233.4375 8.925781 C 233.992188 8.925781 234.007812 8.996094 234.007812 9.121094 L 233.972656 9.351562 L 232.335938 15.890625 C 232.28125 16.050781 232.28125 16.070312 232.28125 16.140625 C 232.28125 16.40625 232.511719 16.460938 232.621094 16.460938 C 232.796875 16.460938 232.976562 16.316406 233.03125 16.15625 L 233.242188 15.300781 L 233.492188 14.285156 C 233.5625 14.019531 233.636719 13.769531 233.6875 13.519531 C 233.707031 13.449219 233.8125 13.074219 233.8125 13.003906 C 233.847656 12.898438 234.207031 12.273438 234.597656 11.953125 C 234.847656 11.773438 235.183594 11.5625 235.683594 11.5625 C 236.164062 11.5625 236.289062 11.953125 236.289062 12.363281 C 236.289062 12.96875 235.863281 14.214844 235.59375 14.910156 C 235.503906 15.160156 235.433594 15.300781 235.433594 15.535156 C 235.433594 16.070312 235.84375 16.460938 236.378906 16.460938 C 237.449219 16.460938 237.855469 14.804688 237.855469 14.714844 C 237.855469 14.589844 237.769531 14.589844 237.734375 14.589844 C 237.609375 14.589844 237.609375 14.625 237.554688 14.804688 C 237.394531 15.410156 237.019531 16.210938 236.394531 16.210938 C 236.199219 16.210938 236.128906 16.105469 236.128906 15.835938 C 236.128906 15.550781 236.21875 15.285156 236.324219 15.035156 C 236.503906 14.535156 237.019531 13.183594 237.019531 12.523438 C 237.019531 11.792969 236.574219 11.3125 235.71875 11.3125 C 235.007812 11.3125 234.453125 11.667969 234.027344 12.183594 Z M 234.917969 8.570312 "/>
<path fill-rule="nonzero" fill="rgb(0%, 0%, 0%)" fill-opacity="1" d="M 240.5 8.453125 C 240.570312 8.328125 240.570312 8.257812 240.570312 8.203125 C 240.570312 7.957031 240.359375 7.777344 240.109375 7.777344 C 239.804688 7.777344 239.714844 8.027344 239.679688 8.152344 L 238.628906 11.589844 C 238.613281 11.605469 238.578125 11.695312 238.578125 11.714844 C 238.578125 11.804688 238.824219 11.890625 238.898438 11.890625 C 238.949219 11.890625 238.949219 11.875 239.003906 11.75 Z M 240.5 8.453125 "/>
<path fill-rule="nonzero" fill="rgb(0%, 0%, 0%)" fill-opacity="1" d="M 240.855469 14.09375 C 240.855469 13.882812 240.855469 13.882812 240.625 13.882812 C 240.109375 14.378906 239.394531 14.378906 239.074219 14.378906 L 239.074219 14.664062 C 239.253906 14.664062 239.789062 14.664062 240.214844 14.449219 L 240.214844 18.496094 C 240.214844 18.761719 240.214844 18.871094 239.429688 18.871094 L 239.128906 18.871094 L 239.128906 19.152344 C 239.269531 19.152344 240.25 19.117188 240.535156 19.117188 C 240.785156 19.117188 241.78125 19.152344 241.960938 19.152344 L 241.960938 18.871094 L 241.65625 18.871094 C 240.855469 18.871094 240.855469 18.761719 240.855469 18.496094 Z M 240.855469 14.09375 "/>
<path fill-rule="nonzero" fill="rgb(0%, 0%, 0%)" fill-opacity="1" d="M 234.792969 36.675781 C 234.792969 36.675781 234.792969 36.554688 234.652344 36.554688 C 234.382812 36.554688 233.5625 36.640625 233.261719 36.675781 C 233.171875 36.675781 233.046875 36.695312 233.046875 36.890625 C 233.046875 37.035156 233.152344 37.035156 233.316406 37.035156 C 233.867188 37.035156 233.882812 37.105469 233.882812 37.230469 L 233.847656 37.460938 L 232.210938 44 C 232.15625 44.160156 232.15625 44.175781 232.15625 44.25 C 232.15625 44.515625 232.386719 44.570312 232.496094 44.570312 C 232.671875 44.570312 232.851562 44.425781 232.90625 44.265625 L 233.117188 43.410156 L 233.367188 42.394531 C 233.4375 42.128906 233.511719 41.878906 233.5625 41.628906 C 233.582031 41.558594 233.6875 41.183594 233.6875 41.113281 C 233.722656 41.007812 234.082031 40.382812 234.472656 40.0625 C 234.722656 39.882812 235.058594 39.671875 235.558594 39.671875 C 236.039062 39.671875 236.164062 40.0625 236.164062 40.472656 C 236.164062 41.078125 235.738281 42.324219 235.46875 43.019531 C 235.382812 43.269531 235.308594 43.410156 235.308594 43.644531 C 235.308594 44.175781 235.71875 44.570312 236.253906 44.570312 C 237.324219 44.570312 237.734375 42.914062 237.734375 42.824219 C 237.734375 42.699219 237.644531 42.699219 237.609375 42.699219 C 237.484375 42.699219 237.484375 42.734375 237.429688 42.914062 C 237.269531 43.519531 236.894531 44.320312 236.273438 44.320312 C 236.074219 44.320312 236.003906 44.214844 236.003906 43.945312 C 236.003906 43.660156 236.09375 43.394531 236.199219 43.144531 C 236.378906 42.644531 236.894531 41.292969 236.894531 40.632812 C 236.894531 39.902344 236.449219 39.421875 235.59375 39.421875 C 234.882812 39.421875 234.328125 39.777344 233.902344 40.292969 Z M 234.792969 36.675781 "/>
<path fill-rule="nonzero" fill="rgb(0%, 0%, 0%)" fill-opacity="1" d="M 240.375 36.5625 C 240.445312 36.4375 240.445312 36.367188 240.445312 36.3125 C 240.445312 36.0625 240.234375 35.886719 239.984375 35.886719 C 239.679688 35.886719 239.589844 36.136719 239.554688 36.261719 L 238.503906 39.699219 C 238.488281 39.714844 238.453125 39.804688 238.453125 39.824219 C 238.453125 39.914062 238.699219 40 238.773438 40 C 238.824219 40 238.824219 39.984375 238.878906 39.859375 Z M 240.375 36.5625 "/>
<path fill-rule="nonzero" fill="rgb(0%, 0%, 0%)" fill-opacity="1" d="M 242.085938 45.820312 L 241.820312 45.820312 C 241.800781 46 241.710938 46.460938 241.605469 46.53125 C 241.550781 46.585938 240.945312 46.585938 240.820312 46.585938 L 239.359375 46.585938 C 240.199219 45.855469 240.480469 45.625 240.945312 45.25 C 241.535156 44.785156 242.085938 44.289062 242.085938 43.539062 C 242.085938 42.578125 241.25 41.988281 240.234375 41.988281 C 239.253906 41.988281 238.578125 42.683594 238.578125 43.414062 C 238.578125 43.808594 238.914062 43.859375 239.003906 43.859375 C 239.183594 43.859375 239.414062 43.71875 239.414062 43.433594 C 239.414062 43.289062 239.359375 43.003906 238.949219 43.003906 C 239.199219 42.453125 239.734375 42.273438 240.109375 42.273438 C 240.910156 42.273438 241.320312 42.898438 241.320312 43.539062 C 241.320312 44.234375 240.820312 44.769531 240.570312 45.054688 L 238.664062 46.960938 C 238.578125 47.03125 238.578125 47.050781 238.578125 47.261719 L 241.855469 47.261719 Z M 242.085938 45.820312 "/>
<path fill-rule="nonzero" fill="rgb(0%, 0%, 0%)" fill-opacity="1" d="M 234.757812 64.707031 C 234.757812 64.707031 234.757812 64.582031 234.613281 64.582031 C 234.347656 64.582031 233.527344 64.671875 233.226562 64.707031 C 233.136719 64.707031 233.011719 64.722656 233.011719 64.917969 C 233.011719 65.0625 233.117188 65.0625 233.277344 65.0625 C 233.832031 65.0625 233.847656 65.132812 233.847656 65.257812 L 233.8125 65.488281 L 232.175781 72.027344 C 232.121094 72.1875 232.121094 72.207031 232.121094 72.277344 C 232.121094 72.542969 232.351562 72.597656 232.460938 72.597656 C 232.636719 72.597656 232.816406 72.457031 232.871094 72.296875 L 233.082031 71.441406 L 233.332031 70.425781 C 233.402344 70.15625 233.476562 69.90625 233.527344 69.660156 C 233.546875 69.585938 233.652344 69.214844 233.652344 69.140625 C 233.6875 69.035156 234.042969 68.410156 234.4375 68.089844 C 234.6875 67.914062 235.023438 67.699219 235.523438 67.699219 C 236.003906 67.699219 236.128906 68.089844 236.128906 68.5 C 236.128906 69.105469 235.703125 70.351562 235.433594 71.046875 C 235.34375 71.296875 235.273438 71.441406 235.273438 71.671875 C 235.273438 72.207031 235.683594 72.597656 236.21875 72.597656 C 237.289062 72.597656 237.695312 70.941406 237.695312 70.851562 C 237.695312 70.726562 237.609375 70.726562 237.570312 70.726562 C 237.449219 70.726562 237.449219 70.761719 237.394531 70.941406 C 237.234375 71.546875 236.859375 72.347656 236.234375 72.347656 C 236.039062 72.347656 235.96875 72.242188 235.96875 71.972656 C 235.96875 71.6875 236.058594 71.421875 236.164062 71.171875 C 236.34375 70.675781 236.859375 69.320312 236.859375 68.660156 C 236.859375 67.929688 236.414062 67.449219 235.558594 67.449219 C 234.847656 67.449219 234.292969 67.804688 233.867188 68.324219 Z M 234.757812 64.707031 "/>
<path fill-rule="nonzero" fill="rgb(0%, 0%, 0%)" fill-opacity="1" d="M 240.339844 64.589844 C 240.410156 64.46875 240.410156 64.394531 240.410156 64.34375 C 240.410156 64.09375 240.199219 63.914062 239.949219 63.914062 C 239.644531 63.914062 239.554688 64.164062 239.519531 64.289062 L 238.46875 67.726562 C 238.453125 67.746094 238.414062 67.832031 238.414062 67.851562 C 238.414062 67.941406 238.664062 68.03125 238.738281 68.03125 C 238.789062 68.03125 238.789062 68.011719 238.84375 67.886719 Z M 240.339844 64.589844 "/>
<path fill-rule="nonzero" fill="rgb(0%, 0%, 0%)" fill-opacity="1" d="M 240.214844 72.636719 C 240.839844 72.636719 241.285156 73.066406 241.285156 73.917969 C 241.285156 74.898438 240.695312 75.203125 240.25 75.203125 C 239.929688 75.203125 239.21875 75.113281 238.898438 74.632812 C 239.269531 74.632812 239.359375 74.367188 239.359375 74.1875 C 239.359375 73.9375 239.164062 73.757812 238.914062 73.757812 C 238.699219 73.757812 238.46875 73.902344 238.46875 74.222656 C 238.46875 74.972656 239.289062 75.453125 240.25 75.453125 C 241.355469 75.453125 242.121094 74.703125 242.121094 73.917969 C 242.121094 73.296875 241.621094 72.671875 240.75 72.496094 C 241.570312 72.191406 241.871094 71.605469 241.871094 71.105469 C 241.871094 70.480469 241.160156 70.019531 240.269531 70.019531 C 239.394531 70.019531 238.71875 70.445312 238.71875 71.085938 C 238.71875 71.355469 238.898438 71.496094 239.128906 71.496094 C 239.378906 71.496094 239.539062 71.320312 239.539062 71.105469 C 239.539062 70.875 239.378906 70.695312 239.128906 70.675781 C 239.414062 70.339844 239.949219 70.25 240.25 70.25 C 240.605469 70.25 241.105469 70.429688 241.105469 71.105469 C 241.105469 71.445312 241 71.816406 240.785156 72.050781 C 240.535156 72.351562 240.304688 72.371094 239.914062 72.40625 C 239.714844 72.421875 239.699219 72.421875 239.664062 72.421875 C 239.644531 72.421875 239.574219 72.441406 239.574219 72.53125 C 239.574219 72.636719 239.644531 72.636719 239.789062 72.636719 Z M 240.214844 72.636719 "/>
<path fill="none" stroke-width="0.681299" stroke-linecap="butt" stroke-linejoin="miter" stroke="rgb(0%, 0%, 0%)" stroke-opacity="1" stroke-miterlimit="4" d="M 224.355469 13.472656 L 161.9375 13.394531 "/>
<path fill-rule="evenodd" fill="rgb(0%, 0%, 0%)" fill-opacity="1" stroke-width="0.363359" stroke-linecap="butt" stroke-linejoin="miter" stroke="rgb(0%, 0%, 0%)" stroke-opacity="1" stroke-miterlimit="4" d="M -221.645435 -13.191028 L -220.283859 -14.552109 L -225.051684 -13.190666 L -220.284354 -11.829452 Z M -221.645435 -13.191028 " transform="matrix(-1, -0.001253, 0.001253, -1, 0, 0)"/>
<path fill="none" stroke-width="0.677695" stroke-linecap="butt" stroke-linejoin="miter" stroke="rgb(0%, 0%, 0%)" stroke-opacity="1" stroke-miterlimit="4" d="M 225.652344 64.265625 L 160.589844 19.195312 "/>
<path fill-rule="evenodd" fill="rgb(0%, 0%, 0%)" fill-opacity="1" stroke-width="0.297108" stroke-linecap="butt" stroke-linejoin="miter" stroke="rgb(0%, 0%, 0%)" stroke-opacity="1" stroke-miterlimit="4" d="M -180.332586 62.204907 L -179.218618 61.089442 L -183.117853 62.204746 L -179.217121 63.318874 Z M -180.332586 62.204907 " transform="matrix(-1, -0.692762, 0.692762, -1, 0, 0)"/>
<path fill="none" stroke-width="0.677695" stroke-linecap="butt" stroke-linejoin="miter" stroke="rgb(0%, 0%, 0%)" stroke-opacity="1" stroke-miterlimit="4" d="M 225.652344 18.773438 L 159.988281 63.511719 "/>
<path fill-rule="evenodd" fill="rgb(0%, 0%, 0%)" fill-opacity="1" stroke-width="0.298701" stroke-linecap="butt" stroke-linejoin="miter" stroke="rgb(0%, 0%, 0%)" stroke-opacity="1" stroke-miterlimit="4" d="M -143.140556 -117.823158 L -142.019008 -118.941854 L -145.940436 -117.82448 L -142.020042 -116.704277 Z M -143.140556 -117.823158 " transform="matrix(-1, 0.681305, -0.681305, -1, 0, 0)"/>
<path fill-rule="nonzero" fill="rgb(0%, 0%, 0%)" fill-opacity="1" d="M 324.894531 40.359375 C 324.949219 40.199219 324.949219 40.179688 324.949219 40.089844 C 324.949219 39.894531 324.789062 39.789062 324.609375 39.789062 C 324.503906 39.789062 324.324219 39.859375 324.21875 40.019531 C 324.199219 40.089844 324.09375 40.429688 324.058594 40.644531 C 323.96875 40.929688 323.898438 41.25 323.824219 41.550781 L 323.308594 43.601562 C 323.273438 43.761719 322.773438 44.5625 322.027344 44.5625 C 321.457031 44.5625 321.332031 44.0625 321.332031 43.636719 C 321.332031 43.121094 321.527344 42.40625 321.902344 41.410156 C 322.078125 40.945312 322.132812 40.820312 322.132812 40.589844 C 322.132812 40.089844 321.777344 39.664062 321.207031 39.664062 C 320.121094 39.664062 319.710938 41.320312 319.710938 41.410156 C 319.710938 41.535156 319.816406 41.535156 319.835938 41.535156 C 319.960938 41.535156 319.960938 41.5 320.011719 41.320312 C 320.335938 40.25 320.78125 39.914062 321.171875 39.914062 C 321.261719 39.914062 321.457031 39.914062 321.457031 40.269531 C 321.457031 40.554688 321.332031 40.855469 321.261719 41.070312 C 320.796875 42.28125 320.601562 42.921875 320.601562 43.457031 C 320.601562 44.472656 321.3125 44.8125 321.992188 44.8125 C 322.4375 44.8125 322.808594 44.617188 323.132812 44.296875 C 322.988281 44.882812 322.847656 45.453125 322.402344 46.058594 C 322.097656 46.433594 321.671875 46.769531 321.152344 46.769531 C 320.992188 46.769531 320.476562 46.734375 320.28125 46.289062 C 320.457031 46.289062 320.621094 46.289062 320.761719 46.148438 C 320.886719 46.058594 320.992188 45.898438 320.992188 45.683594 C 320.992188 45.328125 320.691406 45.292969 320.582031 45.292969 C 320.316406 45.292969 319.941406 45.472656 319.941406 46.023438 C 319.941406 46.59375 320.441406 47.019531 321.152344 47.019531 C 322.3125 47.019531 323.488281 45.988281 323.808594 44.703125 Z M 324.894531 40.359375 "/>
<path fill-rule="nonzero" fill="rgb(0%, 0%, 0%)" fill-opacity="1" d="M 327.648438 36.804688 C 327.71875 36.679688 327.71875 36.609375 327.71875 36.554688 C 327.71875 36.304688 327.503906 36.128906 327.253906 36.128906 C 326.953125 36.128906 326.863281 36.378906 326.828125 36.503906 L 325.777344 39.941406 C 325.757812 39.957031 325.722656 40.046875 325.722656 40.066406 C 325.722656 40.15625 325.972656 40.242188 326.042969 40.242188 C 326.097656 40.242188 326.097656 40.226562 326.148438 40.101562 Z M 327.648438 36.804688 "/>
</svg>
