<?xml version="1.0" encoding="UTF-8"?>
<svg xmlns="http://www.w3.org/2000/svg" xmlns:xlink="http://www.w3.org/1999/xlink" width="214.047394pt" height="187.945847pt" viewBox="0 0 214.047394 187.945847">
<defs>
<clipPath id="clip-0">
<path clip-rule="nonzero" d="M 47.917969 5.242188 L 209 5.242188 L 209 166.402344 L 47.917969 166.402344 Z M 47.917969 5.242188 "/>
</clipPath>
</defs>
<path fill="none" stroke-width="1.133856" stroke-linecap="butt" stroke-linejoin="miter" stroke="rgb(62.744141%, 85.096741%, 82.743835%)" stroke-opacity="1" stroke-miterlimit="4" d="M 48.101562 93.503906 L 61.097656 93.503906 "/>
<path fill-rule="evenodd" fill="rgb(0%, 0%, 0%)" fill-opacity="1" d="M 60.332031 91.976562 L 64.527344 93.503906 L 60.332031 95.027344 C 61.097656 94.140625 61.097656 92.871094 60.332031 91.976562 Z M 60.332031 91.976562 "/>
<path fill-rule="nonzero" fill="rgb(77.253723%, 79.998779%, 80.39093%)" fill-opacity="1" stroke-width="0.566929" stroke-linecap="round" stroke-linejoin="round" stroke="rgb(77.645874%, 80.39093%, 81.175232%)" stroke-opacity="1" stroke-miterlimit="3" d="M 59.0625 93.953125 C 59.070312 93.75 59.996094 91.027344 60.691406 89.175781 C 66.332031 74.148438 74.796875 62.210938 87.042969 52.015625 C 107.492188 34.992188 139.542969 21.882812 188.105469 10.683594 C 189.679688 10.320312 190.980469 10.035156 191 10.054688 C 191.023438 10.078125 146.382812 38.484375 70.175781 86.945312 C 64.0625 90.832031 59.058594 93.984375 59.0625 93.953125 Z M 59.0625 93.953125 "/>
<path fill="none" stroke-width="1.134" stroke-linecap="butt" stroke-linejoin="miter" stroke="rgb(46.665955%, 23.529053%, 13.725281%)" stroke-opacity="1" stroke-miterlimit="4" d="M 99.183594 165.660156 L 99.183594 150.855469 "/>
<path fill-rule="evenodd" fill="rgb(46.665955%, 23.529053%, 13.725281%)" fill-opacity="1" stroke-width="0.212625" stroke-linecap="butt" stroke-linejoin="round" stroke="rgb(46.665955%, 23.529053%, 13.725281%)" stroke-opacity="1" stroke-miterlimit="4" d="M 153.039062 -97.808594 L 149.324219 -99.175781 L 153.039062 -100.542969 C 152.445312 -99.738281 152.449219 -98.632812 153.039062 -97.808594 Z M 153.039062 -97.808594 " transform="matrix(0, 1, -1, 0, 0, 0)"/>
<path fill="none" stroke-width="1.134" stroke-linecap="butt" stroke-linejoin="miter" stroke="rgb(46.665955%, 23.529053%, 13.725281%)" stroke-opacity="1" stroke-miterlimit="4" d="M 83.902344 165.660156 L 83.902344 150.855469 "/>
<path fill-rule="evenodd" fill="rgb(46.665955%, 23.529053%, 13.725281%)" fill-opacity="1" stroke-width="0.212625" stroke-linecap="butt" stroke-linejoin="round" stroke="rgb(46.665955%, 23.529053%, 13.725281%)" stroke-opacity="1" stroke-miterlimit="4" d="M 153.039062 -82.53125 L 149.324219 -83.898438 L 153.039062 -85.265625 C 152.445312 -84.457031 152.449219 -83.355469 153.039062 -82.53125 Z M 153.039062 -82.53125 " transform="matrix(0, 1, -1, 0, 0, 0)"/>
<path fill="none" stroke-width="1.134" stroke-linecap="butt" stroke-linejoin="miter" stroke="rgb(46.665955%, 23.529053%, 13.725281%)" stroke-opacity="1" stroke-miterlimit="4" d="M 131.714844 165.660156 L 131.714844 150.855469 "/>
<path fill-rule="evenodd" fill="rgb(46.665955%, 23.529053%, 13.725281%)" fill-opacity="1" stroke-width="0.212625" stroke-linecap="butt" stroke-linejoin="round" stroke="rgb(46.665955%, 23.529053%, 13.725281%)" stroke-opacity="1" stroke-miterlimit="4" d="M 153.039062 -130.34375 L 149.324219 -131.710938 L 153.039062 -133.078125 C 152.445312 -132.269531 152.449219 -131.167969 153.039062 -130.34375 Z M 153.039062 -130.34375 " transform="matrix(0, 1, -1, 0, 0, 0)"/>
<path fill="none" stroke-width="1.134" stroke-linecap="butt" stroke-linejoin="miter" stroke="rgb(46.665955%, 23.529053%, 13.725281%)" stroke-opacity="1" stroke-miterlimit="4" d="M 192.804688 165.660156 L 192.804688 150.855469 "/>
<path fill-rule="evenodd" fill="rgb(46.665955%, 23.529053%, 13.725281%)" fill-opacity="1" stroke-width="0.212625" stroke-linecap="butt" stroke-linejoin="round" stroke="rgb(46.665955%, 23.529053%, 13.725281%)" stroke-opacity="1" stroke-miterlimit="4" d="M 153.039062 -191.433594 L 149.324219 -192.800781 L 153.039062 -194.167969 C 152.445312 -193.359375 152.449219 -192.253906 153.039062 -191.433594 Z M 153.039062 -191.433594 " transform="matrix(0, 1, -1, 0, 0, 0)"/>
<path fill="none" stroke-width="1.134" stroke-linecap="butt" stroke-linejoin="miter" stroke="rgb(46.665955%, 23.529053%, 13.725281%)" stroke-opacity="1" stroke-miterlimit="4" d="M 151.214844 165.660156 L 151.214844 150.855469 "/>
<path fill-rule="evenodd" fill="rgb(46.665955%, 23.529053%, 13.725281%)" fill-opacity="1" stroke-width="0.212625" stroke-linecap="butt" stroke-linejoin="round" stroke="rgb(46.665955%, 23.529053%, 13.725281%)" stroke-opacity="1" stroke-miterlimit="4" d="M 153.039062 -149.84375 L 149.324219 -151.210938 L 153.039062 -152.578125 C 152.445312 -151.769531 152.449219 -150.667969 153.039062 -149.84375 Z M 153.039062 -149.84375 " transform="matrix(0, 1, -1, 0, 0, 0)"/>
<path fill="none" stroke-width="1.134" stroke-linecap="butt" stroke-linejoin="miter" stroke="rgb(46.665955%, 23.529053%, 13.725281%)" stroke-opacity="1" stroke-miterlimit="4" d="M 58.066406 165.660156 L 58.066406 150.855469 "/>
<path fill-rule="evenodd" fill="rgb(46.665955%, 23.529053%, 13.725281%)" fill-opacity="1" stroke-width="0.212625" stroke-linecap="butt" stroke-linejoin="round" stroke="rgb(46.665955%, 23.529053%, 13.725281%)" stroke-opacity="1" stroke-miterlimit="4" d="M 153.039062 -56.695312 L 149.324219 -58.058594 L 153.039062 -59.425781 C 152.445312 -58.621094 152.449219 -57.515625 153.039062 -56.695312 Z M 153.039062 -56.695312 " transform="matrix(0, 1, -1, 0, 0, 0)"/>
<path fill-rule="nonzero" fill="rgb(50.195312%, 50.195312%, 50.195312%)" fill-opacity="1" d="M 206.890625 173.941406 L 206.890625 168.476562 L 206.234375 168.476562 L 205.453125 169.109375 L 205.453125 169.730469 L 206.273438 169.058594 L 206.273438 173.941406 Z M 206.890625 173.941406 "/>
<path fill-rule="nonzero" fill="rgb(50.195312%, 50.195312%, 50.195312%)" fill-opacity="1" d="M 208.078125 173.136719 L 208.835938 173.136719 L 208.835938 173.941406 L 208.078125 173.941406 Z M 208.078125 173.136719 "/>
<path fill-rule="nonzero" fill="rgb(50.195312%, 50.195312%, 50.195312%)" fill-opacity="1" d="M 213.3125 171.226562 C 213.300781 170.0625 213.039062 168.378906 211.566406 168.378906 C 210.09375 168.378906 209.84375 170.085938 209.84375 171.226562 C 209.84375 172.378906 210.105469 174.050781 211.566406 174.050781 C 213.027344 174.050781 213.3125 172.378906 213.3125 171.226562 Z M 212.742188 171.226562 C 212.742188 171.984375 212.679688 173.53125 211.566406 173.53125 C 210.453125 173.53125 210.414062 171.957031 210.414062 171.226562 C 210.414062 170.484375 210.4375 168.886719 211.566406 168.886719 C 212.679688 168.886719 212.742188 170.496094 212.742188 171.226562 Z M 212.742188 171.226562 "/>
<path fill-rule="nonzero" fill="rgb(50.195312%, 50.195312%, 50.195312%)" fill-opacity="1" d="M 38.292969 4.382812 C 38.292969 3.765625 38.253906 3.019531 37.921875 2.390625 C 37.597656 1.792969 37.054688 1.597656 36.65625 1.597656 C 36.1875 1.597656 35.628906 1.820312 35.308594 2.511719 C 35.046875 3.09375 35.007812 3.75 35.007812 4.382812 C 35.007812 5.003906 35.035156 5.585938 35.269531 6.167969 C 35.589844 6.921875 36.1875 7.132812 36.644531 7.132812 C 37.214844 7.132812 37.722656 6.8125 37.96875 6.265625 C 38.203125 5.746094 38.292969 5.226562 38.292969 4.382812 Z M 36.65625 6.648438 C 36.234375 6.648438 35.914062 6.351562 35.753906 5.78125 C 35.628906 5.335938 35.628906 4.902344 35.628906 4.285156 C 35.628906 3.789062 35.628906 3.316406 35.753906 2.882812 C 35.800781 2.734375 36 2.078125 36.644531 2.078125 C 37.265625 2.078125 37.460938 2.6875 37.523438 2.824219 C 37.671875 3.269531 37.671875 3.800781 37.671875 4.285156 C 37.671875 4.804688 37.671875 5.3125 37.523438 5.808594 C 37.324219 6.527344 36.90625 6.648438 36.65625 6.648438 Z M 36.65625 6.648438 "/>
<path fill-rule="nonzero" fill="rgb(50.195312%, 50.195312%, 50.195312%)" fill-opacity="1" d="M 39.390625 6.304688 L 40.046875 6.304688 L 40.046875 6.960938 L 39.390625 6.960938 Z M 39.390625 6.304688 "/>
<path fill-rule="nonzero" fill="rgb(50.195312%, 50.195312%, 50.195312%)" fill-opacity="1" d="M 44.433594 4.382812 C 44.433594 3.765625 44.398438 3.019531 44.0625 2.390625 C 43.742188 1.792969 43.195312 1.597656 42.800781 1.597656 C 42.328125 1.597656 41.773438 1.820312 41.449219 2.511719 C 41.1875 3.09375 41.152344 3.75 41.152344 4.382812 C 41.152344 5.003906 41.175781 5.585938 41.414062 6.167969 C 41.734375 6.921875 42.328125 7.132812 42.789062 7.132812 C 43.355469 7.132812 43.863281 6.8125 44.113281 6.265625 C 44.347656 5.746094 44.433594 5.226562 44.433594 4.382812 Z M 42.800781 6.648438 C 42.378906 6.648438 42.054688 6.351562 41.894531 5.78125 C 41.773438 5.335938 41.773438 4.902344 41.773438 4.285156 C 41.773438 3.789062 41.773438 3.316406 41.894531 2.882812 C 41.945312 2.734375 42.144531 2.078125 42.789062 2.078125 C 43.40625 2.078125 43.605469 2.6875 43.667969 2.824219 C 43.816406 3.269531 43.816406 3.800781 43.816406 4.285156 C 43.816406 4.804688 43.816406 5.3125 43.667969 5.808594 C 43.46875 6.527344 43.046875 6.648438 42.800781 6.648438 Z M 42.800781 6.648438 "/>
<path fill-rule="nonzero" fill="rgb(50.195312%, 50.195312%, 50.195312%)" fill-opacity="1" d="M 46.640625 171.234375 C 46.640625 170.613281 46.601562 169.871094 46.269531 169.238281 C 45.945312 168.644531 45.402344 168.445312 45.003906 168.445312 C 44.535156 168.445312 43.976562 168.667969 43.65625 169.363281 C 43.394531 169.945312 43.355469 170.601562 43.355469 171.234375 C 43.355469 171.851562 43.382812 172.433594 43.617188 173.015625 C 43.941406 173.773438 44.535156 173.984375 44.992188 173.984375 C 45.5625 173.984375 46.070312 173.660156 46.316406 173.117188 C 46.554688 172.597656 46.640625 172.074219 46.640625 171.234375 Z M 45.003906 173.5 C 44.582031 173.5 44.261719 173.203125 44.101562 172.632812 C 43.976562 172.1875 43.976562 171.753906 43.976562 171.132812 C 43.976562 170.640625 43.976562 170.167969 44.101562 169.734375 C 44.148438 169.585938 44.347656 168.929688 44.992188 168.929688 C 45.613281 168.929688 45.808594 169.535156 45.871094 169.671875 C 46.019531 170.117188 46.019531 170.652344 46.019531 171.132812 C 46.019531 171.65625 46.019531 172.164062 45.871094 172.65625 C 45.671875 173.375 45.253906 173.5 45.003906 173.5 Z M 45.003906 173.5 "/>
<path fill-rule="nonzero" fill="rgb(50.195312%, 50.195312%, 50.195312%)" fill-opacity="1" d="M 47.738281 173.152344 L 48.394531 173.152344 L 48.394531 173.808594 L 47.738281 173.808594 Z M 47.738281 173.152344 "/>
<path fill-rule="nonzero" fill="rgb(50.195312%, 50.195312%, 50.195312%)" fill-opacity="1" d="M 52.78125 171.234375 C 52.78125 170.613281 52.746094 169.871094 52.410156 169.238281 C 52.089844 168.644531 51.542969 168.445312 51.148438 168.445312 C 50.675781 168.445312 50.121094 168.667969 49.796875 169.363281 C 49.539062 169.945312 49.5 170.601562 49.5 171.234375 C 49.5 171.851562 49.523438 172.433594 49.761719 173.015625 C 50.082031 173.773438 50.675781 173.984375 51.136719 173.984375 C 51.703125 173.984375 52.210938 173.660156 52.460938 173.117188 C 52.695312 172.597656 52.78125 172.074219 52.78125 171.234375 Z M 51.148438 173.5 C 50.726562 173.5 50.40625 173.203125 50.242188 172.632812 C 50.121094 172.1875 50.121094 171.753906 50.121094 171.132812 C 50.121094 170.640625 50.121094 170.167969 50.242188 169.734375 C 50.292969 169.585938 50.492188 168.929688 51.136719 168.929688 C 51.753906 168.929688 51.953125 169.535156 52.015625 169.671875 C 52.164062 170.117188 52.164062 170.652344 52.164062 171.132812 C 52.164062 171.65625 52.164062 172.164062 52.015625 172.65625 C 51.816406 173.375 51.394531 173.5 51.148438 173.5 Z M 51.148438 173.5 "/>
<path fill="none" stroke-width="0.850392" stroke-linecap="butt" stroke-linejoin="miter" stroke="rgb(50.195312%, 50.195312%, 50.195312%)" stroke-opacity="1" stroke-miterlimit="4" d="M 47.667969 4.804688 L 45.785156 4.804688 "/>
<path fill="none" stroke-width="0.850392" stroke-linecap="butt" stroke-linejoin="miter" stroke="rgb(50.195312%, 50.195312%, 50.195312%)" stroke-opacity="1" stroke-miterlimit="4" d="M 47.40625 37.027344 L 45.523438 37.027344 "/>
<path fill="none" stroke-width="0.850392" stroke-linecap="butt" stroke-linejoin="miter" stroke="rgb(50.195312%, 50.195312%, 50.195312%)" stroke-opacity="1" stroke-miterlimit="4" d="M 47.515625 101.476562 L 45.632812 101.476562 "/>
<path fill="none" stroke-width="0.850392" stroke-linecap="butt" stroke-linejoin="miter" stroke="rgb(50.195312%, 50.195312%, 50.195312%)" stroke-opacity="1" stroke-miterlimit="4" d="M 47.40625 20.914062 L 46.121094 20.914062 "/>
<path fill="none" stroke-width="0.850392" stroke-linecap="butt" stroke-linejoin="miter" stroke="rgb(50.195312%, 50.195312%, 50.195312%)" stroke-opacity="1" stroke-miterlimit="4" d="M 47.40625 53.140625 L 46.121094 53.140625 "/>
<path fill="none" stroke-width="0.850392" stroke-linecap="butt" stroke-linejoin="miter" stroke="rgb(50.195312%, 50.195312%, 50.195312%)" stroke-opacity="1" stroke-miterlimit="4" d="M 47.40625 85.363281 L 46.121094 85.363281 "/>
<path fill="none" stroke-width="0.850392" stroke-linecap="butt" stroke-linejoin="miter" stroke="rgb(50.195312%, 50.195312%, 50.195312%)" stroke-opacity="1" stroke-miterlimit="4" d="M 47.40625 69.253906 L 45.523438 69.253906 "/>
<g clip-path="url(#clip-0)">
<path fill="none" stroke-width="1.639971" stroke-linecap="square" stroke-linejoin="round" stroke="rgb(25.881958%, 29.411316%, 30.979919%)" stroke-opacity="1" stroke-miterlimit="4" d="M 58.319452 165.460938 L 59.444752 146.644531 L 61.139705 131.332031 L 63.068122 118.265625 L 65.001209 108.992188 L 66.929626 101.800781 L 68.858044 95.921875 L 70.79113 90.953125 L 72.719548 86.648438 L 74.647965 82.851562 L 76.581052 79.457031 L 78.509469 76.386719 L 80.437887 73.582031 L 82.370974 71 L 84.299391 68.613281 L 86.227809 66.386719 L 88.160895 64.308594 L 90.089313 62.355469 L 92.01773 60.511719 L 93.950817 58.769531 L 95.879234 57.117188 L 97.807652 55.542969 L 99.740739 54.042969 L 101.669156 52.609375 L 103.597573 51.238281 L 105.53066 49.921875 L 107.459078 48.660156 L 109.387495 47.441406 L 111.320582 46.269531 L 113.248999 45.140625 L 115.177417 44.046875 L 117.110503 42.988281 L 119.038921 41.96875 L 120.967338 40.976562 L 122.900425 40.011719 L 124.828842 39.078125 L 126.75726 38.171875 L 128.690347 37.289062 L 130.618764 36.429688 L 132.547182 35.589844 L 134.480268 34.773438 L 136.408686 33.980469 L 138.341772 33.203125 L 140.27019 32.445312 L 142.198607 31.703125 L 144.131694 30.976562 L 146.060111 30.269531 L 147.988529 29.578125 L 149.921616 28.898438 L 151.850033 28.234375 L 153.778451 27.582031 L 155.711537 26.945312 L 157.639955 26.316406 L 159.568372 25.703125 L 161.501459 25.101562 L 163.429876 24.511719 L 165.358294 23.929688 L 167.291381 23.359375 L 169.219798 22.796875 L 171.148215 22.246094 L 173.081302 21.707031 L 175.00972 21.171875 L 176.938137 20.648438 L 178.871224 20.132812 L 180.799641 19.625 L 182.728059 19.125 L 184.661145 18.632812 L 186.589563 18.148438 L 188.51798 17.671875 L 190.451067 17.199219 L 192.379484 16.738281 L 194.307902 16.28125 L 196.240989 15.828125 L 198.169406 15.382812 L 200.097824 14.945312 L 202.03091 14.511719 L 203.959328 14.085938 L 205.887745 13.664062 L 207.820832 13.25 L 209.749249 12.839844 L 211.677667 12.433594 L 213.610754 12.03125 L 215.539171 11.636719 L 217.467588 11.246094 L 219.400675 10.859375 L 223.25751 10.101562 L 225.190597 9.730469 L 227.119014 9.359375 L 229.047432 8.996094 L 230.980518 8.636719 L 232.908936 8.28125 L 234.842023 7.929688 L 236.77044 7.578125 L 238.698857 7.234375 L 240.631944 6.894531 L 242.560362 6.554688 L 244.488779 6.222656 L 246.421866 5.890625 L 248.350283 5.566406 " transform="matrix(0.836583, 0, 0, 1, 0, 0)"/>
</g>
<path fill="none" stroke-width="0.850392" stroke-linecap="butt" stroke-linejoin="miter" stroke="rgb(50.195312%, 50.195312%, 50.195312%)" stroke-opacity="1" stroke-miterlimit="4" d="M 47.949219 166.257812 L 47.949219 168.140625 "/>
<path fill="none" stroke-width="0.850392" stroke-linecap="butt" stroke-linejoin="miter" stroke="rgb(50.195312%, 50.195312%, 50.195312%)" stroke-opacity="1" stroke-miterlimit="4" d="M 128.441406 166.257812 L 128.441406 168.140625 "/>
<path fill="none" stroke-width="0.850392" stroke-linecap="butt" stroke-linejoin="miter" stroke="rgb(50.195312%, 50.195312%, 50.195312%)" stroke-opacity="1" stroke-miterlimit="4" d="M 208.9375 166.257812 L 208.9375 168.140625 "/>
<path fill="none" stroke-width="0.850392" stroke-linecap="butt" stroke-linejoin="miter" stroke="rgb(50.195312%, 50.195312%, 50.195312%)" stroke-opacity="1" stroke-miterlimit="4" d="M 64.046875 167.542969 L 64.046875 166.257812 "/>
<path fill="none" stroke-width="0.850392" stroke-linecap="butt" stroke-linejoin="miter" stroke="rgb(50.195312%, 50.195312%, 50.195312%)" stroke-opacity="1" stroke-miterlimit="4" d="M 80.148438 167.542969 L 80.148438 166.257812 "/>
<path fill="none" stroke-width="0.850392" stroke-linecap="butt" stroke-linejoin="miter" stroke="rgb(50.195312%, 50.195312%, 50.195312%)" stroke-opacity="1" stroke-miterlimit="4" d="M 96.246094 167.542969 L 96.246094 166.257812 "/>
<path fill="none" stroke-width="0.850392" stroke-linecap="butt" stroke-linejoin="miter" stroke="rgb(50.195312%, 50.195312%, 50.195312%)" stroke-opacity="1" stroke-miterlimit="4" d="M 112.34375 167.542969 L 112.34375 166.257812 "/>
<path fill="none" stroke-width="0.850392" stroke-linecap="butt" stroke-linejoin="miter" stroke="rgb(50.195312%, 50.195312%, 50.195312%)" stroke-opacity="1" stroke-miterlimit="4" d="M 144.542969 167.542969 L 144.542969 166.257812 "/>
<path fill="none" stroke-width="0.850392" stroke-linecap="butt" stroke-linejoin="miter" stroke="rgb(50.195312%, 50.195312%, 50.195312%)" stroke-opacity="1" stroke-miterlimit="4" d="M 160.640625 167.542969 L 160.640625 166.257812 "/>
<path fill="none" stroke-width="0.850392" stroke-linecap="butt" stroke-linejoin="miter" stroke="rgb(50.195312%, 50.195312%, 50.195312%)" stroke-opacity="1" stroke-miterlimit="4" d="M 176.738281 167.542969 L 176.738281 166.257812 "/>
<path fill="none" stroke-width="0.850392" stroke-linecap="butt" stroke-linejoin="miter" stroke="rgb(50.195312%, 50.195312%, 50.195312%)" stroke-opacity="1" stroke-miterlimit="4" d="M 192.835938 167.542969 L 192.835938 166.257812 "/>
<path fill-rule="nonzero" fill="rgb(0%, 0%, 0%)" fill-opacity="1" d="M 130.003906 171.191406 C 130.058594 171.035156 130.058594 171.019531 130.058594 170.929688 C 130.058594 170.738281 129.902344 170.632812 129.726562 170.632812 C 129.621094 170.632812 129.445312 170.703125 129.339844 170.859375 C 129.324219 170.929688 129.21875 171.261719 129.183594 171.472656 C 129.097656 171.753906 129.027344 172.066406 128.957031 172.363281 L 128.449219 174.375 C 128.414062 174.535156 127.925781 175.320312 127.1875 175.320312 C 126.628906 175.320312 126.507812 174.832031 126.507812 174.410156 C 126.507812 173.90625 126.699219 173.203125 127.066406 172.226562 C 127.242188 171.769531 127.292969 171.648438 127.292969 171.421875 C 127.292969 170.929688 126.945312 170.511719 126.382812 170.511719 C 125.316406 170.511719 124.914062 172.136719 124.914062 172.226562 C 124.914062 172.347656 125.019531 172.347656 125.039062 172.347656 C 125.160156 172.347656 125.160156 172.3125 125.210938 172.136719 C 125.527344 171.089844 125.964844 170.753906 126.347656 170.753906 C 126.4375 170.753906 126.628906 170.753906 126.628906 171.105469 C 126.628906 171.386719 126.507812 171.683594 126.4375 171.894531 C 125.980469 173.082031 125.789062 173.710938 125.789062 174.238281 C 125.789062 175.234375 126.488281 175.566406 127.152344 175.566406 C 127.589844 175.566406 127.957031 175.375 128.273438 175.058594 C 128.132812 175.636719 127.992188 176.195312 127.554688 176.789062 C 127.257812 177.15625 126.839844 177.492188 126.332031 177.492188 C 126.175781 177.492188 125.667969 177.457031 125.476562 177.019531 C 125.648438 177.019531 125.808594 177.019531 125.949219 176.878906 C 126.070312 176.789062 126.175781 176.632812 126.175781 176.421875 C 126.175781 176.074219 125.878906 176.039062 125.773438 176.039062 C 125.511719 176.039062 125.144531 176.214844 125.144531 176.753906 C 125.144531 177.316406 125.632812 177.734375 126.332031 177.734375 C 127.46875 177.734375 128.625 176.71875 128.9375 175.460938 Z M 130.003906 171.191406 "/>
<path fill-rule="nonzero" fill="rgb(0%, 0%, 0%)" fill-opacity="1" d="M 30.132812 96.140625 L 30.257812 97.75 L 30.605469 97.75 C 30.605469 96.964844 30.675781 96.878906 31.238281 96.878906 L 37.042969 96.878906 C 37.535156 96.878906 37.535156 97 37.535156 97.75 L 37.882812 97.75 C 37.867188 97.382812 37.847656 96.789062 37.847656 96.511719 C 37.847656 96.230469 37.867188 95.6875 37.882812 95.269531 L 37.535156 95.269531 C 37.535156 96.019531 37.535156 96.140625 37.042969 96.140625 Z M 30.132812 96.140625 "/>
<path fill-rule="nonzero" fill="rgb(0%, 0%, 0%)" fill-opacity="1" d="M 35.488281 89.773438 C 34.070312 89.773438 32.882812 90.875 32.882812 92.222656 C 32.882812 93.621094 34.105469 94.707031 35.488281 94.707031 C 36.9375 94.707031 38.007812 93.550781 38.007812 92.238281 C 38.007812 90.890625 36.90625 89.773438 35.488281 89.773438 Z M 37.726562 92.222656 C 37.726562 92.710938 37.5 93.203125 36.972656 93.5 C 36.484375 93.777344 35.800781 93.777344 35.398438 93.777344 C 34.960938 93.777344 34.367188 93.777344 33.878906 93.515625 C 33.371094 93.21875 33.125 92.695312 33.125 92.238281 C 33.125 91.75 33.371094 91.277344 33.859375 90.980469 C 34.332031 90.683594 34.980469 90.683594 35.398438 90.683594 C 35.800781 90.683594 36.414062 90.683594 36.90625 90.925781 C 37.410156 91.191406 37.726562 91.679688 37.726562 92.222656 Z M 37.726562 92.222656 "/>
<path fill-rule="nonzero" fill="rgb(0%, 0%, 0%)" fill-opacity="1" d="M 35.960938 86.960938 C 35.960938 87.941406 34.839844 87.941406 34.59375 87.941406 C 34.296875 87.941406 33.929688 87.921875 33.652344 87.765625 C 33.527344 87.675781 33.214844 87.414062 33.214844 86.960938 C 33.214844 85.996094 34.316406 85.996094 34.578125 85.996094 C 34.875 85.996094 35.242188 85.996094 35.523438 86.171875 C 35.644531 86.261719 35.960938 86.523438 35.960938 86.960938 Z M 36.398438 88.253906 C 36.363281 88.253906 36.101562 88.253906 35.871094 88.078125 C 36.1875 87.640625 36.222656 87.167969 36.222656 86.960938 C 36.222656 85.929688 35.453125 85.15625 34.59375 85.15625 C 34.175781 85.15625 33.773438 85.332031 33.511719 85.613281 C 33.125 85.210938 33.074219 84.808594 33.074219 84.617188 C 33.074219 84.582031 33.074219 84.527344 33.089844 84.492188 C 33.125 84.617188 33.25 84.6875 33.386719 84.6875 C 33.582031 84.6875 33.703125 84.527344 33.703125 84.355469 C 33.703125 84.25 33.632812 84.039062 33.371094 84.039062 C 33.179688 84.039062 32.828125 84.160156 32.828125 84.597656 C 32.828125 84.824219 32.898438 85.316406 33.351562 85.789062 C 32.984375 86.261719 32.949219 86.714844 32.949219 86.960938 C 32.949219 88.007812 33.71875 88.777344 34.578125 88.777344 C 35.066406 88.777344 35.488281 88.535156 35.730469 88.253906 C 35.890625 88.394531 36.257812 88.605469 36.660156 88.605469 C 37.007812 88.605469 37.429688 88.445312 37.65625 88.097656 C 37.832031 88.777344 38.320312 89.128906 38.757812 89.128906 C 39.5625 89.128906 40.175781 88.027344 40.175781 86.664062 C 40.175781 85.351562 39.617188 84.195312 38.742188 84.195312 C 38.355469 84.195312 37.777344 84.335938 37.464844 84.914062 C 37.167969 85.507812 37.167969 86.15625 37.167969 86.835938 C 37.167969 87.117188 37.167969 87.589844 37.148438 87.675781 C 37.097656 88.027344 36.765625 88.253906 36.398438 88.253906 Z M 39.929688 86.644531 C 39.929688 87.78125 39.351562 88.550781 38.757812 88.550781 C 38.25 88.550781 37.832031 88.132812 37.8125 87.640625 L 37.8125 86.976562 C 37.8125 86.015625 37.8125 84.773438 38.757812 84.773438 C 39.371094 84.773438 39.929688 85.558594 39.929688 86.644531 Z M 39.929688 86.644531 "/>
<path fill-rule="nonzero" fill="rgb(0%, 0%, 0%)" fill-opacity="1" d="M 40.683594 80.859375 L 40.226562 80.859375 L 40.226562 81.945312 L 29.960938 81.945312 L 29.960938 80.859375 L 29.503906 80.859375 L 29.503906 82.398438 L 40.683594 82.398438 Z M 40.683594 80.859375 "/>
<path fill-rule="nonzero" fill="rgb(0%, 0%, 0%)" fill-opacity="1" d="M 33.632812 75.191406 C 33.476562 75.140625 33.457031 75.140625 33.371094 75.140625 C 33.179688 75.140625 33.074219 75.296875 33.074219 75.472656 C 33.074219 75.574219 33.144531 75.75 33.300781 75.855469 C 33.371094 75.875 33.703125 75.976562 33.914062 76.011719 C 34.191406 76.101562 34.507812 76.171875 34.804688 76.242188 L 36.816406 76.75 C 36.972656 76.78125 37.761719 77.273438 37.761719 78.007812 C 37.761719 78.566406 37.273438 78.691406 36.851562 78.691406 C 36.34375 78.691406 35.644531 78.496094 34.664062 78.128906 C 34.210938 77.953125 34.089844 77.902344 33.859375 77.902344 C 33.371094 77.902344 32.949219 78.253906 32.949219 78.8125 C 32.949219 79.878906 34.578125 80.28125 34.664062 80.28125 C 34.789062 80.28125 34.789062 80.175781 34.789062 80.160156 C 34.789062 80.035156 34.753906 80.035156 34.578125 79.984375 C 33.527344 79.667969 33.195312 79.230469 33.195312 78.847656 C 33.195312 78.757812 33.195312 78.566406 33.546875 78.566406 C 33.824219 78.566406 34.121094 78.691406 34.332031 78.757812 C 35.523438 79.214844 36.152344 79.40625 36.675781 79.40625 C 37.675781 79.40625 38.007812 78.707031 38.007812 78.042969 C 38.007812 77.605469 37.8125 77.238281 37.5 76.921875 C 38.078125 77.0625 38.636719 77.203125 39.230469 77.640625 C 39.597656 77.9375 39.929688 78.355469 39.929688 78.863281 C 39.929688 79.023438 39.894531 79.53125 39.457031 79.722656 C 39.457031 79.546875 39.457031 79.390625 39.320312 79.25 C 39.230469 79.128906 39.074219 79.023438 38.863281 79.023438 C 38.515625 79.023438 38.480469 79.320312 38.480469 79.425781 C 38.480469 79.6875 38.652344 80.054688 39.195312 80.054688 C 39.753906 80.054688 40.175781 79.5625 40.175781 78.863281 C 40.175781 77.726562 39.160156 76.574219 37.902344 76.257812 Z M 33.632812 75.191406 "/>
<path fill-rule="nonzero" fill="rgb(0%, 0%, 0%)" fill-opacity="1" d="M 29.503906 72.980469 L 29.503906 74.5 L 29.960938 74.5 L 29.960938 73.414062 L 40.226562 73.414062 L 40.226562 74.5 L 40.683594 74.5 L 40.683594 72.980469 Z M 29.503906 72.980469 "/>
<path fill="none" stroke-width="0.8" stroke-linecap="butt" stroke-linejoin="miter" stroke="rgb(0%, 0%, 0%)" stroke-opacity="1" stroke-dasharray="0.8 0.8" stroke-miterlimit="4" d="M 121.222656 185.589844 L 121.222656 31.898438 "/>
<path fill="none" stroke-width="0.8" stroke-linecap="butt" stroke-linejoin="miter" stroke="rgb(0%, 0%, 0%)" stroke-opacity="1" stroke-dasharray="0.8 0.8" stroke-miterlimit="4" d="M 1.824219 40.457031 L 119.664062 40.457031 "/>
<path fill-rule="nonzero" fill="rgb(0%, 0%, 0%)" fill-opacity="1" d="M 103.425781 179.945312 C 103.707031 179.945312 104.246094 179.945312 104.632812 180.171875 C 105.175781 180.523438 105.210938 181.117188 105.210938 181.1875 C 105.226562 181.34375 105.226562 181.484375 105.417969 181.484375 C 105.613281 181.484375 105.613281 181.328125 105.613281 181.132812 L 105.613281 178.109375 C 105.613281 177.933594 105.613281 177.757812 105.417969 177.757812 C 105.226562 177.757812 105.210938 177.914062 105.210938 178.003906 C 105.140625 179.453125 104.003906 179.523438 103.425781 179.542969 L 103.425781 177.179688 C 103.425781 176.429688 103.636719 176.429688 103.914062 176.429688 L 104.441406 176.429688 C 105.945312 176.429688 106.695312 177.199219 106.765625 177.96875 C 106.785156 178.054688 106.785156 178.230469 106.960938 178.230469 C 107.152344 178.230469 107.152344 178.054688 107.152344 177.863281 L 107.152344 176.410156 C 107.152344 176.0625 107.132812 176.042969 106.785156 176.042969 L 101.082031 176.042969 C 100.871094 176.042969 100.695312 176.042969 100.695312 176.238281 C 100.695312 176.429688 100.90625 176.429688 100.992188 176.429688 C 101.640625 176.429688 101.675781 176.515625 101.675781 177.074219 L 101.675781 182.65625 C 101.675781 183.179688 101.640625 183.304688 101.046875 183.304688 C 100.890625 183.304688 100.695312 183.304688 100.695312 183.496094 C 100.695312 183.6875 100.871094 183.6875 101.082031 183.6875 L 106.992188 183.6875 C 107.203125 183.6875 107.308594 183.6875 107.34375 183.53125 C 107.363281 183.511719 107.675781 181.660156 107.675781 181.605469 C 107.675781 181.484375 107.570312 181.398438 107.484375 181.398438 C 107.328125 181.398438 107.273438 181.554688 107.273438 181.554688 C 107.222656 181.851562 107.097656 182.324219 106.292969 182.796875 C 105.699219 183.144531 105.140625 183.304688 104.527344 183.304688 L 103.914062 183.304688 C 103.636719 183.304688 103.425781 183.304688 103.425781 182.550781 Z M 106.765625 176.429688 L 106.765625 176.972656 C 106.574219 176.761719 106.363281 176.585938 106.136719 176.429688 Z M 104.597656 179.699219 C 104.773438 179.628906 105.015625 179.453125 105.210938 179.226562 L 105.210938 180.15625 C 104.949219 179.855469 104.597656 179.71875 104.597656 179.71875 Z M 102.0625 177.042969 C 102.0625 176.917969 102.0625 176.640625 101.972656 176.429688 L 103.164062 176.429688 C 103.039062 176.691406 103.039062 177.058594 103.039062 177.164062 L 103.039062 182.570312 C 103.039062 182.972656 103.109375 183.199219 103.164062 183.304688 L 101.972656 183.304688 C 102.0625 183.09375 102.0625 182.8125 102.0625 182.691406 Z M 106.222656 183.304688 L 106.222656 183.285156 C 106.574219 183.109375 106.871094 182.867188 107.097656 182.671875 C 107.097656 182.707031 107.011719 183.214844 106.992188 183.304688 Z M 106.222656 183.304688 "/>
<path fill-rule="nonzero" fill="rgb(0%, 0%, 0%)" fill-opacity="1" d="M 110.828125 186.488281 L 110.828125 186.03125 L 109.742188 186.03125 L 109.742188 175.765625 L 110.828125 175.765625 L 110.828125 175.308594 L 109.289062 175.308594 L 109.289062 186.488281 Z M 110.828125 186.488281 "/>
<path fill-rule="nonzero" fill="rgb(0%, 0%, 0%)" fill-opacity="1" d="M 116.496094 179.4375 C 116.546875 179.28125 116.546875 179.261719 116.546875 179.175781 C 116.546875 178.984375 116.390625 178.878906 116.214844 178.878906 C 116.109375 178.878906 115.9375 178.949219 115.832031 179.105469 C 115.8125 179.175781 115.707031 179.507812 115.671875 179.71875 C 115.585938 179.996094 115.515625 180.3125 115.445312 180.609375 L 114.9375 182.621094 C 114.902344 182.777344 114.414062 183.566406 113.679688 183.566406 C 113.121094 183.566406 112.996094 183.074219 112.996094 182.65625 C 112.996094 182.148438 113.191406 181.449219 113.558594 180.46875 C 113.730469 180.015625 113.785156 179.890625 113.785156 179.664062 C 113.785156 179.175781 113.433594 178.753906 112.875 178.753906 C 111.808594 178.753906 111.40625 180.382812 111.40625 180.46875 C 111.40625 180.59375 111.511719 180.59375 111.527344 180.59375 C 111.648438 180.59375 111.648438 180.558594 111.703125 180.382812 C 112.019531 179.332031 112.453125 179 112.839844 179 C 112.925781 179 113.121094 179 113.121094 179.351562 C 113.121094 179.628906 112.996094 179.925781 112.925781 180.136719 C 112.472656 181.328125 112.28125 181.957031 112.28125 182.480469 C 112.28125 183.476562 112.980469 183.8125 113.644531 183.8125 C 114.082031 183.8125 114.449219 183.617188 114.765625 183.304688 C 114.625 183.878906 114.484375 184.441406 114.046875 185.035156 C 113.75 185.402344 113.328125 185.734375 112.820312 185.734375 C 112.664062 185.734375 112.15625 185.699219 111.964844 185.261719 C 112.140625 185.261719 112.296875 185.261719 112.4375 185.121094 C 112.558594 185.035156 112.664062 184.878906 112.664062 184.667969 C 112.664062 184.316406 112.367188 184.28125 112.261719 184.28125 C 112 184.28125 111.632812 184.457031 111.632812 185 C 111.632812 185.558594 112.121094 185.980469 112.820312 185.980469 C 113.960938 185.980469 115.113281 184.964844 115.429688 183.707031 Z M 116.496094 179.4375 "/>
<path fill-rule="nonzero" fill="rgb(0%, 0%, 0%)" fill-opacity="1" d="M 118.707031 175.308594 L 117.1875 175.308594 L 117.1875 175.765625 L 118.269531 175.765625 L 118.269531 186.03125 L 117.1875 186.03125 L 117.1875 186.488281 L 118.707031 186.488281 Z M 118.707031 175.308594 "/>
<path fill-rule="nonzero" fill="rgb(81.959534%, 51.371765%, 38.430786%)" fill-opacity="1" stroke-width="1.300888" stroke-linecap="butt" stroke-linejoin="round" stroke="rgb(46.665955%, 23.529053%, 13.725281%)" stroke-opacity="1" stroke-miterlimit="4" d="M 86.820312 52.828125 C 86.820312 54.4375 85.515625 55.746094 83.902344 55.746094 C 82.292969 55.746094 80.988281 54.4375 80.988281 52.828125 C 80.988281 51.21875 82.292969 49.910156 83.902344 49.910156 C 85.515625 49.910156 86.820312 51.21875 86.820312 52.828125 Z M 86.820312 52.828125 "/>
<path fill-rule="nonzero" fill="rgb(81.959534%, 51.371765%, 38.430786%)" fill-opacity="1" stroke-width="1.300888" stroke-linecap="butt" stroke-linejoin="round" stroke="rgb(46.665955%, 23.529053%, 13.725281%)" stroke-opacity="1" stroke-miterlimit="4" d="M 102.097656 42.191406 C 102.097656 43.804688 100.792969 45.109375 99.183594 45.109375 C 97.570312 45.109375 96.265625 43.804688 96.265625 42.191406 C 96.265625 40.582031 97.570312 39.273438 99.183594 39.273438 C 100.792969 39.273438 102.097656 40.582031 102.097656 42.191406 Z M 102.097656 42.191406 "/>
<path fill-rule="nonzero" fill="rgb(81.959534%, 51.371765%, 38.430786%)" fill-opacity="1" stroke-width="1.300888" stroke-linecap="butt" stroke-linejoin="round" stroke="rgb(46.665955%, 23.529053%, 13.725281%)" stroke-opacity="1" stroke-miterlimit="4" d="M 134.632812 26.328125 C 134.632812 27.941406 133.328125 29.246094 131.714844 29.246094 C 130.105469 29.246094 128.800781 27.941406 128.800781 26.328125 C 128.800781 24.71875 130.105469 23.414062 131.714844 23.414062 C 133.328125 23.414062 134.632812 24.71875 134.632812 26.328125 Z M 134.632812 26.328125 "/>
<path fill-rule="nonzero" fill="rgb(81.959534%, 51.371765%, 38.430786%)" fill-opacity="1" stroke-width="1.300888" stroke-linecap="butt" stroke-linejoin="round" stroke="rgb(46.665955%, 23.529053%, 13.725281%)" stroke-opacity="1" stroke-miterlimit="4" d="M 154.132812 19.757812 C 154.132812 21.371094 152.828125 22.675781 151.214844 22.675781 C 149.605469 22.675781 148.300781 21.371094 148.300781 19.757812 C 148.300781 18.148438 149.605469 16.84375 151.214844 16.84375 C 152.828125 16.84375 154.132812 18.148438 154.132812 19.757812 Z M 154.132812 19.757812 "/>
<path fill-rule="nonzero" fill="rgb(81.959534%, 51.371765%, 38.430786%)" fill-opacity="1" stroke-width="1.300888" stroke-linecap="butt" stroke-linejoin="round" stroke="rgb(46.665955%, 23.529053%, 13.725281%)" stroke-opacity="1" stroke-miterlimit="4" d="M 195.722656 9.335938 C 195.722656 10.945312 194.417969 12.25 192.804688 12.25 C 191.195312 12.25 189.890625 10.945312 189.890625 9.335938 C 189.890625 7.722656 191.195312 6.417969 192.804688 6.417969 C 194.417969 6.417969 195.722656 7.722656 195.722656 9.335938 Z M 195.722656 9.335938 "/>
<path fill-rule="nonzero" fill="rgb(81.959534%, 51.371765%, 38.430786%)" fill-opacity="1" stroke-width="1.300888" stroke-linecap="butt" stroke-linejoin="round" stroke="rgb(46.665955%, 23.529053%, 13.725281%)" stroke-opacity="1" stroke-miterlimit="4" d="M 60.980469 94.015625 C 60.980469 95.625 59.675781 96.933594 58.066406 96.933594 C 56.453125 96.933594 55.148438 95.625 55.148438 94.015625 C 55.148438 92.40625 56.453125 91.097656 58.066406 91.097656 C 59.675781 91.097656 60.980469 92.40625 60.980469 94.015625 Z M 60.980469 94.015625 "/>
<path fill="none" stroke-width="0.850392" stroke-linecap="butt" stroke-linejoin="miter" stroke="rgb(50.195312%, 50.195312%, 50.195312%)" stroke-opacity="1" stroke-miterlimit="4" d="M 47.515625 133.703125 L 45.632812 133.703125 "/>
<path fill="none" stroke-width="0.850392" stroke-linecap="butt" stroke-linejoin="miter" stroke="rgb(50.195312%, 50.195312%, 50.195312%)" stroke-opacity="1" stroke-miterlimit="4" d="M 47.40625 117.589844 L 46.121094 117.589844 "/>
<path fill="none" stroke-width="0.850392" stroke-linecap="butt" stroke-linejoin="miter" stroke="rgb(50.195312%, 50.195312%, 50.195312%)" stroke-opacity="1" stroke-miterlimit="4" d="M 47.515625 165.925781 L 45.632812 165.925781 "/>
<path fill="none" stroke-width="0.850392" stroke-linecap="butt" stroke-linejoin="miter" stroke="rgb(50.195312%, 50.195312%, 50.195312%)" stroke-opacity="1" stroke-miterlimit="4" d="M 47.40625 149.816406 L 46.121094 149.816406 "/>
<path fill-rule="nonzero" fill="rgb(50.195312%, 50.195312%, 50.195312%)" fill-opacity="1" d="M 32.269531 165.738281 L 34.359375 165.738281 L 34.359375 166.199219 L 32.269531 166.199219 Z M 32.269531 165.738281 "/>
<path fill-rule="nonzero" fill="rgb(50.195312%, 50.195312%, 50.195312%)" fill-opacity="1" d="M 36.027344 163.039062 L 38.097656 163.039062 L 38.097656 162.53125 L 35.457031 162.53125 L 35.457031 165.453125 L 35.976562 165.453125 C 36.113281 165.132812 36.398438 164.824219 36.859375 164.824219 C 37.230469 164.824219 37.664062 165.15625 37.664062 166.097656 C 37.664062 167.410156 36.695312 167.410156 36.621094 167.410156 C 36.089844 167.410156 35.605469 167.101562 35.382812 166.679688 L 35.125 167.128906 C 35.445312 167.574219 35.992188 167.894531 36.632812 167.894531 C 37.574219 167.894531 38.355469 167.113281 38.355469 166.113281 C 38.355469 165.132812 37.6875 164.351562 36.871094 164.351562 C 36.546875 164.351562 36.25 164.464844 36.027344 164.675781 Z M 36.027344 163.039062 "/>
<path fill-rule="nonzero" fill="rgb(50.195312%, 50.195312%, 50.195312%)" fill-opacity="1" d="M 39.53125 167.066406 L 40.1875 167.066406 L 40.1875 167.722656 L 39.53125 167.722656 Z M 39.53125 167.066406 "/>
<path fill-rule="nonzero" fill="rgb(50.195312%, 50.195312%, 50.195312%)" fill-opacity="1" d="M 44.574219 165.144531 C 44.574219 164.527344 44.535156 163.78125 44.199219 163.152344 C 43.878906 162.554688 43.332031 162.359375 42.9375 162.359375 C 42.46875 162.359375 41.910156 162.582031 41.585938 163.273438 C 41.328125 163.855469 41.289062 164.511719 41.289062 165.144531 C 41.289062 165.765625 41.316406 166.347656 41.550781 166.929688 C 41.871094 167.683594 42.46875 167.894531 42.925781 167.894531 C 43.496094 167.894531 44.003906 167.574219 44.25 167.027344 C 44.484375 166.507812 44.574219 165.988281 44.574219 165.144531 Z M 42.9375 167.410156 C 42.515625 167.410156 42.195312 167.113281 42.035156 166.542969 C 41.910156 166.097656 41.910156 165.664062 41.910156 165.046875 C 41.910156 164.550781 41.910156 164.078125 42.035156 163.648438 C 42.082031 163.496094 42.28125 162.839844 42.925781 162.839844 C 43.542969 162.839844 43.742188 163.449219 43.804688 163.585938 C 43.953125 164.03125 43.953125 164.5625 43.953125 165.046875 C 43.953125 165.566406 43.953125 166.074219 43.804688 166.570312 C 43.605469 167.289062 43.183594 167.410156 42.9375 167.410156 Z M 42.9375 167.410156 "/>
<path fill-rule="nonzero" fill="rgb(62.744141%, 85.096741%, 82.743835%)" fill-opacity="1" stroke-width="1.300888" stroke-linecap="butt" stroke-linejoin="round" stroke="rgb(20.391846%, 51.371765%, 47.842407%)" stroke-opacity="1" stroke-miterlimit="4" d="M 124.425781 40.25 C 124.425781 41.863281 123.117188 43.167969 121.507812 43.167969 C 119.894531 43.167969 118.589844 41.863281 118.589844 40.25 C 118.589844 38.640625 119.894531 37.335938 121.507812 37.335938 C 123.117188 37.335938 124.425781 38.640625 124.425781 40.25 Z M 124.425781 40.25 "/>
<path fill="none" stroke-width="0.8" stroke-linecap="butt" stroke-linejoin="miter" stroke="rgb(0%, 0%, 0%)" stroke-opacity="1" stroke-dasharray="0.8 0.8" stroke-miterlimit="4" d="M 2.089844 31.265625 L 121.5 31.265625 "/>
<path fill-rule="nonzero" fill="rgb(0%, 0%, 0%)" fill-opacity="1" d="M 3.703125 48.96875 C 3.984375 48.96875 4.527344 48.96875 4.910156 49.199219 C 5.453125 49.546875 5.488281 50.140625 5.488281 50.210938 C 5.503906 50.371094 5.503906 50.507812 5.699219 50.507812 C 5.890625 50.507812 5.890625 50.351562 5.890625 50.160156 L 5.890625 47.132812 C 5.890625 46.957031 5.890625 46.785156 5.699219 46.785156 C 5.503906 46.785156 5.488281 46.941406 5.488281 47.027344 C 5.417969 48.480469 4.28125 48.550781 3.703125 48.566406 L 3.703125 46.207031 C 3.703125 45.453125 3.914062 45.453125 4.195312 45.453125 L 4.71875 45.453125 C 6.222656 45.453125 6.976562 46.222656 7.046875 46.992188 C 7.0625 47.082031 7.0625 47.253906 7.238281 47.253906 C 7.429688 47.253906 7.429688 47.082031 7.429688 46.886719 L 7.429688 45.4375 C 7.429688 45.085938 7.414062 45.070312 7.0625 45.070312 L 1.359375 45.070312 C 1.148438 45.070312 0.976562 45.070312 0.976562 45.261719 C 0.976562 45.453125 1.183594 45.453125 1.273438 45.453125 C 1.917969 45.453125 1.953125 45.542969 1.953125 46.101562 L 1.953125 51.679688 C 1.953125 52.207031 1.917969 52.328125 1.324219 52.328125 C 1.167969 52.328125 0.976562 52.328125 0.976562 52.519531 C 0.976562 52.714844 1.148438 52.714844 1.359375 52.714844 L 7.273438 52.714844 C 7.484375 52.714844 7.585938 52.714844 7.621094 52.554688 C 7.640625 52.539062 7.953125 50.683594 7.953125 50.632812 C 7.953125 50.507812 7.851562 50.421875 7.761719 50.421875 C 7.605469 50.421875 7.550781 50.578125 7.550781 50.578125 C 7.5 50.875 7.378906 51.347656 6.574219 51.820312 C 5.976562 52.171875 5.417969 52.328125 4.804688 52.328125 L 4.195312 52.328125 C 3.914062 52.328125 3.703125 52.328125 3.703125 51.578125 Z M 7.046875 45.453125 L 7.046875 45.996094 C 6.851562 45.785156 6.644531 45.613281 6.414062 45.453125 Z M 4.875 48.726562 C 5.050781 48.65625 5.296875 48.480469 5.488281 48.253906 L 5.488281 49.179688 C 5.226562 48.882812 4.875 48.742188 4.875 48.742188 Z M 2.339844 46.066406 C 2.339844 45.945312 2.339844 45.664062 2.253906 45.453125 L 3.441406 45.453125 C 3.320312 45.714844 3.320312 46.082031 3.320312 46.1875 L 3.320312 51.59375 C 3.320312 51.996094 3.390625 52.222656 3.441406 52.328125 L 2.253906 52.328125 C 2.339844 52.117188 2.339844 51.839844 2.339844 51.714844 Z M 6.503906 52.328125 L 6.503906 52.3125 C 6.851562 52.136719 7.148438 51.890625 7.378906 51.699219 C 7.378906 51.734375 7.289062 52.242188 7.273438 52.328125 Z M 6.503906 52.328125 "/>
<path fill-rule="nonzero" fill="rgb(0%, 0%, 0%)" fill-opacity="1" d="M 11.105469 55.511719 L 11.105469 55.058594 L 10.019531 55.058594 L 10.019531 44.789062 L 11.105469 44.789062 L 11.105469 44.335938 L 9.566406 44.335938 L 9.566406 55.511719 Z M 11.105469 55.511719 "/>
<path fill-rule="nonzero" fill="rgb(0%, 0%, 0%)" fill-opacity="1" d="M 13.328125 44.964844 L 11.71875 45.085938 L 11.71875 45.4375 C 12.507812 45.4375 12.59375 45.507812 12.59375 46.066406 L 12.59375 51.875 C 12.59375 52.363281 12.472656 52.363281 11.71875 52.363281 L 11.71875 52.714844 C 12.085938 52.695312 12.683594 52.679688 12.960938 52.679688 C 13.242188 52.679688 13.785156 52.695312 14.203125 52.714844 L 14.203125 52.363281 C 13.453125 52.363281 13.328125 52.363281 13.328125 51.875 Z M 13.328125 44.964844 "/>
<path fill-rule="nonzero" fill="rgb(0%, 0%, 0%)" fill-opacity="1" d="M 19.699219 50.316406 C 19.699219 48.898438 18.597656 47.710938 17.25 47.710938 C 15.851562 47.710938 14.765625 48.933594 14.765625 50.316406 C 14.765625 51.769531 15.917969 52.835938 17.230469 52.835938 C 18.578125 52.835938 19.699219 51.734375 19.699219 50.316406 Z M 17.25 52.554688 C 16.757812 52.554688 16.269531 52.328125 15.972656 51.804688 C 15.691406 51.3125 15.691406 50.632812 15.691406 50.230469 C 15.691406 49.792969 15.691406 49.199219 15.953125 48.707031 C 16.253906 48.199219 16.777344 47.957031 17.230469 47.957031 C 17.722656 47.957031 18.195312 48.199219 18.492188 48.691406 C 18.789062 49.164062 18.789062 49.808594 18.789062 50.230469 C 18.789062 50.632812 18.789062 51.246094 18.542969 51.734375 C 18.28125 52.242188 17.792969 52.554688 17.25 52.554688 Z M 17.25 52.554688 "/>
<path fill-rule="nonzero" fill="rgb(0%, 0%, 0%)" fill-opacity="1" d="M 22.511719 50.789062 C 21.53125 50.789062 21.53125 49.667969 21.53125 49.425781 C 21.53125 49.128906 21.550781 48.761719 21.707031 48.480469 C 21.792969 48.359375 22.058594 48.042969 22.511719 48.042969 C 23.472656 48.042969 23.472656 49.144531 23.472656 49.40625 C 23.472656 49.703125 23.472656 50.070312 23.300781 50.351562 C 23.210938 50.472656 22.949219 50.789062 22.511719 50.789062 Z M 21.21875 51.226562 C 21.21875 51.191406 21.21875 50.929688 21.390625 50.703125 C 21.828125 51.015625 22.300781 51.050781 22.511719 51.050781 C 23.542969 51.050781 24.3125 50.28125 24.3125 49.425781 C 24.3125 49.003906 24.140625 48.601562 23.859375 48.339844 C 24.261719 47.957031 24.664062 47.902344 24.855469 47.902344 C 24.890625 47.902344 24.945312 47.902344 24.976562 47.921875 C 24.855469 47.957031 24.785156 48.078125 24.785156 48.21875 C 24.785156 48.410156 24.945312 48.53125 25.117188 48.53125 C 25.222656 48.53125 25.433594 48.460938 25.433594 48.199219 C 25.433594 48.007812 25.3125 47.65625 24.875 47.65625 C 24.644531 47.65625 24.15625 47.726562 23.683594 48.183594 C 23.210938 47.816406 22.757812 47.78125 22.511719 47.78125 C 21.460938 47.78125 20.691406 48.550781 20.691406 49.40625 C 20.691406 49.898438 20.9375 50.316406 21.21875 50.5625 C 21.078125 50.71875 20.867188 51.085938 20.867188 51.488281 C 20.867188 51.839844 21.023438 52.257812 21.375 52.484375 C 20.691406 52.660156 20.34375 53.152344 20.34375 53.589844 C 20.34375 54.394531 21.445312 55.003906 22.808594 55.003906 C 24.121094 55.003906 25.277344 54.445312 25.277344 53.570312 C 25.277344 53.1875 25.136719 52.609375 24.558594 52.292969 C 23.964844 51.996094 23.316406 51.996094 22.632812 51.996094 C 22.355469 51.996094 21.882812 51.996094 21.792969 51.980469 C 21.445312 51.925781 21.21875 51.59375 21.21875 51.226562 Z M 22.828125 54.761719 C 21.691406 54.761719 20.921875 54.183594 20.921875 53.589844 C 20.921875 53.082031 21.339844 52.660156 21.828125 52.644531 L 22.496094 52.644531 C 23.457031 52.644531 24.699219 52.644531 24.699219 53.589844 C 24.699219 54.199219 23.910156 54.761719 22.828125 54.761719 Z M 22.828125 54.761719 "/>
<path fill-rule="nonzero" fill="rgb(0%, 0%, 0%)" fill-opacity="1" d="M 28.613281 55.511719 L 28.613281 55.058594 L 27.527344 55.058594 L 27.527344 44.789062 L 28.613281 44.789062 L 28.613281 44.335938 L 27.070312 44.335938 L 27.070312 55.511719 Z M 28.613281 55.511719 "/>
<path fill-rule="nonzero" fill="rgb(0%, 0%, 0%)" fill-opacity="1" d="M 34.28125 48.460938 C 34.332031 48.304688 34.332031 48.289062 34.332031 48.199219 C 34.332031 48.007812 34.175781 47.902344 34 47.902344 C 33.894531 47.902344 33.71875 47.972656 33.613281 48.128906 C 33.597656 48.199219 33.492188 48.53125 33.457031 48.742188 C 33.371094 49.023438 33.300781 49.335938 33.230469 49.636719 L 32.722656 51.648438 C 32.6875 51.804688 32.199219 52.589844 31.464844 52.589844 C 30.902344 52.589844 30.78125 52.101562 30.78125 51.679688 C 30.78125 51.175781 30.972656 50.472656 31.339844 49.496094 C 31.515625 49.039062 31.566406 48.917969 31.566406 48.691406 C 31.566406 48.199219 31.21875 47.78125 30.660156 47.78125 C 29.589844 47.78125 29.1875 49.40625 29.1875 49.496094 C 29.1875 49.617188 29.292969 49.617188 29.3125 49.617188 C 29.433594 49.617188 29.433594 49.582031 29.488281 49.40625 C 29.800781 48.359375 30.238281 48.027344 30.625 48.027344 C 30.710938 48.027344 30.902344 48.027344 30.902344 48.375 C 30.902344 48.65625 30.78125 48.953125 30.710938 49.164062 C 30.257812 50.351562 30.0625 50.980469 30.0625 51.507812 C 30.0625 52.503906 30.761719 52.835938 31.429688 52.835938 C 31.867188 52.835938 32.234375 52.644531 32.546875 52.328125 C 32.40625 52.90625 32.269531 53.464844 31.832031 54.0625 C 31.53125 54.429688 31.113281 54.761719 30.605469 54.761719 C 30.449219 54.761719 29.941406 54.726562 29.75 54.289062 C 29.921875 54.289062 30.082031 54.289062 30.222656 54.148438 C 30.34375 54.0625 30.449219 53.902344 30.449219 53.691406 C 30.449219 53.34375 30.152344 53.308594 30.046875 53.308594 C 29.785156 53.308594 29.417969 53.484375 29.417969 54.027344 C 29.417969 54.585938 29.90625 55.003906 30.605469 55.003906 C 31.742188 55.003906 32.898438 53.992188 33.210938 52.730469 Z M 34.28125 48.460938 "/>
<path fill-rule="nonzero" fill="rgb(0%, 0%, 0%)" fill-opacity="1" d="M 36.492188 44.335938 L 34.96875 44.335938 L 34.96875 44.789062 L 36.054688 44.789062 L 36.054688 55.058594 L 34.96875 55.058594 L 34.96875 55.511719 L 36.492188 55.511719 Z M 36.492188 44.335938 "/>
<path fill-rule="nonzero" fill="rgb(0%, 0%, 0%)" fill-opacity="1" d="M 39.589844 44.335938 L 38.070312 44.335938 L 38.070312 44.789062 L 39.152344 44.789062 L 39.152344 55.058594 L 38.070312 55.058594 L 38.070312 55.511719 L 39.589844 55.511719 Z M 39.589844 44.335938 "/>
<path fill-rule="nonzero" fill="rgb(0%, 0%, 0%)" fill-opacity="1" d="M 4.042969 17.628906 L 2.433594 17.75 L 2.433594 18.101562 C 3.21875 18.101562 3.304688 18.171875 3.304688 18.730469 L 3.304688 24.539062 C 3.304688 25.027344 3.183594 25.027344 2.433594 25.027344 L 2.433594 25.378906 C 2.800781 25.359375 3.394531 25.34375 3.671875 25.34375 C 3.953125 25.34375 4.496094 25.359375 4.914062 25.378906 L 4.914062 25.027344 C 4.164062 25.027344 4.042969 25.027344 4.042969 24.539062 Z M 4.042969 17.628906 "/>
<path fill-rule="nonzero" fill="rgb(0%, 0%, 0%)" fill-opacity="1" d="M 10.410156 22.980469 C 10.410156 21.566406 9.308594 20.375 7.960938 20.375 C 6.5625 20.375 5.476562 21.597656 5.476562 22.980469 C 5.476562 24.433594 6.632812 25.5 7.945312 25.5 C 9.292969 25.5 10.410156 24.398438 10.410156 22.980469 Z M 7.960938 25.21875 C 7.472656 25.21875 6.984375 24.992188 6.683594 24.46875 C 6.40625 23.976562 6.40625 23.296875 6.40625 22.894531 C 6.40625 22.457031 6.40625 21.863281 6.667969 21.371094 C 6.964844 20.863281 7.488281 20.621094 7.945312 20.621094 C 8.433594 20.621094 8.90625 20.863281 9.203125 21.355469 C 9.5 21.828125 9.5 22.472656 9.5 22.894531 C 9.5 23.296875 9.5 23.910156 9.257812 24.398438 C 8.996094 24.90625 8.503906 25.21875 7.960938 25.21875 Z M 7.960938 25.21875 "/>
<path fill-rule="nonzero" fill="rgb(0%, 0%, 0%)" fill-opacity="1" d="M 13.222656 23.453125 C 12.242188 23.453125 12.242188 22.335938 12.242188 22.089844 C 12.242188 21.792969 12.261719 21.425781 12.417969 21.144531 C 12.507812 21.023438 12.769531 20.707031 13.222656 20.707031 C 14.1875 20.707031 14.1875 21.808594 14.1875 22.070312 C 14.1875 22.367188 14.1875 22.738281 14.011719 23.015625 C 13.921875 23.140625 13.660156 23.453125 13.222656 23.453125 Z M 11.929688 23.890625 C 11.929688 23.855469 11.929688 23.59375 12.105469 23.367188 C 12.542969 23.679688 13.015625 23.714844 13.222656 23.714844 C 14.253906 23.714844 15.027344 22.945312 15.027344 22.089844 C 15.027344 21.667969 14.851562 21.265625 14.570312 21.003906 C 14.972656 20.621094 15.375 20.566406 15.566406 20.566406 C 15.601562 20.566406 15.65625 20.566406 15.691406 20.585938 C 15.566406 20.621094 15.496094 20.742188 15.496094 20.882812 C 15.496094 21.074219 15.65625 21.195312 15.832031 21.195312 C 15.933594 21.195312 16.144531 21.128906 16.144531 20.863281 C 16.144531 20.671875 16.023438 20.324219 15.585938 20.324219 C 15.359375 20.324219 14.867188 20.390625 14.394531 20.847656 C 13.921875 20.480469 13.46875 20.445312 13.222656 20.445312 C 12.175781 20.445312 11.40625 21.214844 11.40625 22.070312 C 11.40625 22.5625 11.648438 22.980469 11.929688 23.226562 C 11.789062 23.382812 11.578125 23.75 11.578125 24.152344 C 11.578125 24.503906 11.738281 24.921875 12.085938 25.152344 C 11.40625 25.324219 11.054688 25.816406 11.054688 26.253906 C 11.054688 27.058594 12.15625 27.667969 13.519531 27.667969 C 14.832031 27.667969 15.988281 27.109375 15.988281 26.234375 C 15.988281 25.851562 15.847656 25.273438 15.269531 24.957031 C 14.675781 24.660156 14.027344 24.660156 13.347656 24.660156 C 13.066406 24.660156 12.59375 24.660156 12.507812 24.644531 C 12.15625 24.589844 11.929688 24.257812 11.929688 23.890625 Z M 13.539062 27.425781 C 12.402344 27.425781 11.632812 26.847656 11.632812 26.253906 C 11.632812 25.746094 12.050781 25.324219 12.542969 25.308594 L 13.207031 25.308594 C 14.167969 25.308594 15.410156 25.308594 15.410156 26.253906 C 15.410156 26.863281 14.625 27.425781 13.539062 27.425781 Z M 13.539062 27.425781 "/>
<path fill-rule="nonzero" fill="rgb(0%, 0%, 0%)" fill-opacity="1" d="M 19.324219 28.175781 L 19.324219 27.722656 L 18.238281 27.722656 L 18.238281 17.453125 L 19.324219 17.453125 L 19.324219 17 L 17.785156 17 L 17.785156 28.175781 Z M 19.324219 28.175781 "/>
<path fill-rule="nonzero" fill="rgb(0%, 0%, 0%)" fill-opacity="1" d="M 22.457031 21.632812 C 22.734375 21.632812 23.277344 21.632812 23.664062 21.863281 C 24.207031 22.210938 24.238281 22.804688 24.238281 22.875 C 24.257812 23.035156 24.257812 23.171875 24.449219 23.171875 C 24.640625 23.171875 24.640625 23.015625 24.640625 22.824219 L 24.640625 19.796875 C 24.640625 19.621094 24.640625 19.449219 24.449219 19.449219 C 24.257812 19.449219 24.238281 19.605469 24.238281 19.691406 C 24.171875 21.144531 23.03125 21.214844 22.457031 21.230469 L 22.457031 18.871094 C 22.457031 18.117188 22.664062 18.117188 22.945312 18.117188 L 23.46875 18.117188 C 24.976562 18.117188 25.726562 18.886719 25.796875 19.65625 C 25.816406 19.746094 25.816406 19.921875 25.988281 19.921875 C 26.183594 19.921875 26.183594 19.746094 26.183594 19.554688 L 26.183594 18.101562 C 26.183594 17.75 26.164062 17.734375 25.816406 17.734375 L 20.113281 17.734375 C 19.902344 17.734375 19.726562 17.734375 19.726562 17.925781 C 19.726562 18.117188 19.9375 18.117188 20.023438 18.117188 C 20.671875 18.117188 20.707031 18.207031 20.707031 18.765625 L 20.707031 24.347656 C 20.707031 24.871094 20.671875 24.992188 20.078125 24.992188 C 19.917969 24.992188 19.726562 24.992188 19.726562 25.183594 C 19.726562 25.378906 19.902344 25.378906 20.113281 25.378906 L 26.023438 25.378906 C 26.234375 25.378906 26.339844 25.378906 26.375 25.21875 C 26.390625 25.203125 26.707031 23.347656 26.707031 23.296875 C 26.707031 23.171875 26.601562 23.085938 26.515625 23.085938 C 26.355469 23.085938 26.304688 23.242188 26.304688 23.242188 C 26.25 23.542969 26.128906 24.011719 25.324219 24.484375 C 24.730469 24.835938 24.171875 24.992188 23.558594 24.992188 L 22.945312 24.992188 C 22.664062 24.992188 22.457031 24.992188 22.457031 24.242188 Z M 25.796875 18.117188 L 25.796875 18.660156 C 25.605469 18.449219 25.394531 18.277344 25.167969 18.117188 Z M 23.628906 21.390625 C 23.804688 21.320312 24.046875 21.144531 24.238281 20.917969 L 24.238281 21.84375 C 23.976562 21.546875 23.628906 21.40625 23.628906 21.40625 Z M 21.089844 18.730469 C 21.089844 18.609375 21.089844 18.328125 21.003906 18.117188 L 22.195312 18.117188 C 22.070312 18.378906 22.070312 18.75 22.070312 18.851562 L 22.070312 24.257812 C 22.070312 24.660156 22.140625 24.886719 22.195312 24.992188 L 21.003906 24.992188 C 21.089844 24.78125 21.089844 24.503906 21.089844 24.378906 Z M 25.253906 24.992188 L 25.253906 24.976562 C 25.605469 24.800781 25.902344 24.554688 26.128906 24.363281 C 26.128906 24.398438 26.042969 24.90625 26.023438 24.992188 Z M 25.253906 24.992188 "/>
<path fill-rule="nonzero" fill="rgb(0%, 0%, 0%)" fill-opacity="1" d="M 29.855469 28.175781 L 29.855469 27.722656 L 28.773438 27.722656 L 28.773438 17.453125 L 29.855469 17.453125 L 29.855469 17 L 28.316406 17 L 28.316406 28.175781 Z M 29.855469 28.175781 "/>
<path fill-rule="nonzero" fill="rgb(0%, 0%, 0%)" fill-opacity="1" d="M 35.527344 21.128906 C 35.578125 20.96875 35.578125 20.953125 35.578125 20.863281 C 35.578125 20.671875 35.421875 20.566406 35.246094 20.566406 C 35.140625 20.566406 34.964844 20.636719 34.863281 20.792969 C 34.84375 20.863281 34.738281 21.195312 34.703125 21.40625 C 34.617188 21.6875 34.546875 22 34.476562 22.300781 L 33.96875 24.3125 C 33.933594 24.46875 33.445312 25.253906 32.710938 25.253906 C 32.148438 25.253906 32.027344 24.765625 32.027344 24.347656 C 32.027344 23.839844 32.21875 23.140625 32.585938 22.160156 C 32.761719 21.703125 32.816406 21.582031 32.816406 21.355469 C 32.816406 20.863281 32.464844 20.445312 31.90625 20.445312 C 30.839844 20.445312 30.4375 22.070312 30.4375 22.160156 C 30.4375 22.28125 30.539062 22.28125 30.558594 22.28125 C 30.679688 22.28125 30.679688 22.246094 30.734375 22.070312 C 31.046875 21.023438 31.484375 20.691406 31.871094 20.691406 C 31.957031 20.691406 32.148438 20.691406 32.148438 21.039062 C 32.148438 21.320312 32.027344 21.617188 31.957031 21.828125 C 31.503906 23.015625 31.308594 23.644531 31.308594 24.171875 C 31.308594 25.167969 32.011719 25.5 32.675781 25.5 C 33.113281 25.5 33.480469 25.308594 33.792969 24.992188 C 33.65625 25.570312 33.515625 26.128906 33.078125 26.726562 C 32.78125 27.09375 32.359375 27.425781 31.851562 27.425781 C 31.695312 27.425781 31.1875 27.390625 30.996094 26.953125 C 31.171875 26.953125 31.328125 26.953125 31.46875 26.8125 C 31.589844 26.726562 31.695312 26.566406 31.695312 26.359375 C 31.695312 26.007812 31.398438 25.972656 31.292969 25.972656 C 31.03125 25.972656 30.664062 26.148438 30.664062 26.691406 C 30.664062 27.25 31.152344 27.667969 31.851562 27.667969 C 32.988281 27.667969 34.144531 26.65625 34.460938 25.394531 Z M 35.527344 21.128906 "/>
<path fill-rule="nonzero" fill="rgb(0%, 0%, 0%)" fill-opacity="1" d="M 37.738281 17 L 36.21875 17 L 36.21875 17.453125 L 37.300781 17.453125 L 37.300781 27.722656 L 36.21875 27.722656 L 36.21875 28.175781 L 37.738281 28.175781 Z M 37.738281 17 "/>
<path fill-rule="nonzero" fill="rgb(0%, 0%, 0%)" fill-opacity="1" d="M 40.835938 17 L 39.316406 17 L 39.316406 17.453125 L 40.398438 17.453125 L 40.398438 27.722656 L 39.316406 27.722656 L 39.316406 28.175781 L 40.835938 28.175781 Z M 40.835938 17 "/>
<path fill-rule="nonzero" fill="rgb(0%, 0%, 0%)" fill-opacity="1" d="M 24.835938 35.835938 C 24.957031 35.765625 25.046875 35.714844 25.046875 35.574219 C 25.046875 35.449219 24.957031 35.398438 24.835938 35.328125 L 18.644531 32.425781 C 18.503906 32.335938 18.484375 32.335938 18.449219 32.335938 C 18.328125 32.335938 18.222656 32.441406 18.222656 32.566406 C 18.222656 32.667969 18.277344 32.738281 18.433594 32.808594 L 24.292969 35.574219 L 18.433594 38.355469 C 18.277344 38.425781 18.222656 38.496094 18.222656 38.601562 C 18.222656 38.722656 18.328125 38.828125 18.449219 38.828125 C 18.484375 38.828125 18.503906 38.828125 18.644531 38.738281 Z M 24.835938 35.835938 "/>
<path fill="none" stroke-width="1.134" stroke-linecap="butt" stroke-linejoin="miter" stroke="rgb(62.744141%, 85.096741%, 82.743835%)" stroke-opacity="1" stroke-miterlimit="4" d="M 48.101562 52.828125 L 61.097656 52.828125 "/>
<path fill-rule="evenodd" fill="rgb(62.744141%, 85.096741%, 82.743835%)" fill-opacity="1" stroke-width="0.212625" stroke-linecap="butt" stroke-linejoin="round" stroke="rgb(62.744141%, 85.096741%, 82.743835%)" stroke-opacity="1" stroke-miterlimit="4" d="M -58.914062 -51.457031 L -62.628906 -52.824219 L -58.914062 -54.191406 C -59.507812 -53.382812 -59.503906 -52.277344 -58.914062 -51.457031 Z M -58.914062 -51.457031 " transform="matrix(-1, 0, 0, -1, 0, 0)"/>
<path fill="none" stroke-width="1.134" stroke-linecap="butt" stroke-linejoin="miter" stroke="rgb(62.744141%, 85.096741%, 82.743835%)" stroke-opacity="1" stroke-miterlimit="4" d="M 48.101562 42.191406 L 61.097656 42.191406 "/>
<path fill-rule="evenodd" fill="rgb(62.744141%, 85.096741%, 82.743835%)" fill-opacity="1" stroke-width="0.212625" stroke-linecap="butt" stroke-linejoin="round" stroke="rgb(62.744141%, 85.096741%, 82.743835%)" stroke-opacity="1" stroke-miterlimit="4" d="M -58.914062 -40.820312 L -62.628906 -42.1875 L -58.914062 -43.554688 C -59.507812 -42.746094 -59.503906 -41.640625 -58.914062 -40.820312 Z M -58.914062 -40.820312 " transform="matrix(-1, 0, 0, -1, 0, 0)"/>
<path fill="none" stroke-width="1.134" stroke-linecap="butt" stroke-linejoin="miter" stroke="rgb(62.744141%, 85.096741%, 82.743835%)" stroke-opacity="1" stroke-miterlimit="4" d="M 48.101562 26.328125 L 61.097656 26.328125 "/>
<path fill-rule="evenodd" fill="rgb(62.744141%, 85.096741%, 82.743835%)" fill-opacity="1" stroke-width="0.212625" stroke-linecap="butt" stroke-linejoin="round" stroke="rgb(62.744141%, 85.096741%, 82.743835%)" stroke-opacity="1" stroke-miterlimit="4" d="M -58.914062 -24.957031 L -62.628906 -26.324219 L -58.914062 -27.691406 C -59.507812 -26.882812 -59.503906 -25.78125 -58.914062 -24.957031 Z M -58.914062 -24.957031 " transform="matrix(-1, 0, 0, -1, 0, 0)"/>
<path fill="none" stroke-width="1.134" stroke-linecap="butt" stroke-linejoin="miter" stroke="rgb(62.744141%, 85.096741%, 82.743835%)" stroke-opacity="1" stroke-miterlimit="4" d="M 48.101562 19.757812 L 61.097656 19.757812 "/>
<path fill-rule="evenodd" fill="rgb(62.744141%, 85.096741%, 82.743835%)" fill-opacity="1" stroke-width="0.212625" stroke-linecap="butt" stroke-linejoin="round" stroke="rgb(62.744141%, 85.096741%, 82.743835%)" stroke-opacity="1" stroke-miterlimit="4" d="M -58.914062 -18.386719 L -62.628906 -19.753906 L -58.914062 -21.121094 C -59.507812 -20.3125 -59.503906 -19.210938 -58.914062 -18.386719 Z M -58.914062 -18.386719 " transform="matrix(-1, 0, 0, -1, 0, 0)"/>
<path fill="none" stroke-width="1.134" stroke-linecap="butt" stroke-linejoin="miter" stroke="rgb(62.744141%, 85.096741%, 82.743835%)" stroke-opacity="1" stroke-miterlimit="4" d="M 48.101562 9.335938 L 61.097656 9.335938 "/>
<path fill-rule="evenodd" fill="rgb(62.744141%, 85.096741%, 82.743835%)" fill-opacity="1" stroke-width="0.212625" stroke-linecap="butt" stroke-linejoin="round" stroke="rgb(62.744141%, 85.096741%, 82.743835%)" stroke-opacity="1" stroke-miterlimit="4" d="M -58.914062 -7.960938 L -62.628906 -9.328125 L -58.914062 -10.695312 C -59.507812 -9.890625 -59.503906 -8.785156 -58.914062 -7.960938 Z M -58.914062 -7.960938 " transform="matrix(-1, 0, 0, -1, 0, 0)"/>
<path fill="none" stroke-width="0.850392" stroke-linecap="butt" stroke-linejoin="round" stroke="rgb(0%, 0%, 0%)" stroke-opacity="1" stroke-miterlimit="4" d="M 47.8125 4.804688 L 208.9375 4.804688 L 208.9375 165.925781 L 47.8125 165.925781 Z M 47.8125 4.804688 "/>
</svg>
