<?xml version="1.0" encoding="UTF-8"?>
<svg xmlns="http://www.w3.org/2000/svg" xmlns:xlink="http://www.w3.org/1999/xlink" width="406.928528pt" height="155.081528pt" viewBox="0 0 406.928528 155.081528">
<defs>
<clipPath id="clip-0">
<path clip-rule="nonzero" d="M 18.796875 7.238281 L 187.917969 7.238281 L 187.917969 145.429688 L 18.796875 145.429688 Z M 18.796875 7.238281 "/>
</clipPath>
<clipPath id="clip-1">
<path clip-rule="nonzero" d="M 0.796875 24 L 169.917969 24 L 169.917969 138.429688 L 0.796875 138.429688 Z M 0.796875 24 "/>
</clipPath>
<clipPath id="clip-2">
<rect x="0" y="0" width="170" height="139"/>
</clipPath>
<g id="source-5" clip-path="url(#clip-2)">
<g clip-path="url(#clip-1)">
<path fill="none" stroke-width="3.438627" stroke-linecap="square" stroke-linejoin="round" stroke="rgb(62.744141%, 85.096741%, 82.743835%)" stroke-opacity="0.991903" stroke-miterlimit="4" d="M 18.796875 148.615256 L 52.367188 148.571346 L 53.886719 148.475542 L 54.820312 148.327845 L 55.496094 148.132246 L 56.085938 147.864794 L 56.59375 147.537466 L 57.101562 147.082399 L 57.523438 146.575438 L 57.945312 145.928764 L 58.371094 145.110442 L 58.792969 144.084546 L 59.214844 142.815149 L 59.636719 141.258341 L 60.0625 139.374205 L 60.570312 136.623845 L 61.074219 133.27072 L 61.582031 129.262939 L 62.175781 123.694357 L 62.765625 117.139798 L 63.445312 108.485544 L 64.203125 97.452168 L 65.386719 78.598828 L 66.65625 58.743543 L 67.332031 49.63023 L 67.839844 43.95387 L 68.261719 40.157654 L 68.601562 37.814459 L 68.941406 36.129913 L 69.195312 35.315583 L 69.363281 34.992246 L 69.53125 34.848541 L 69.699219 34.880475 L 69.871094 35.092042 L 70.039062 35.475256 L 70.292969 36.377406 L 70.546875 37.658778 L 70.886719 39.922137 L 71.308594 43.594607 L 71.816406 49.067384 L 72.40625 56.635865 L 73.253906 68.854809 L 75.027344 94.937325 L 75.789062 104.501713 L 76.382812 110.824747 L 76.886719 115.375416 L 77.394531 119.107762 L 77.820312 121.590671 L 78.242188 123.534685 L 78.578125 124.71227 L 78.917969 125.578494 L 79.257812 126.149323 L 79.511719 126.396816 L 79.765625 126.500603 L 80.015625 126.468668 L 80.269531 126.308996 L 80.523438 126.029569 L 80.863281 125.486682 L 81.203125 124.768155 L 81.625 123.642464 L 82.132812 122.009812 L 82.722656 119.774395 L 83.484375 116.473165 L 84.414062 111.946447 L 85.597656 105.679298 L 89.488281 84.682354 L 90.417969 80.359219 L 91.179688 77.225644 L 91.855469 74.802613 L 92.449219 72.994321 L 93.039062 71.49739 L 93.546875 70.483469 L 93.96875 69.832804 L 94.394531 69.36177 L 94.730469 69.114277 L 95.070312 68.986539 L 95.40625 68.974564 L 95.746094 69.082343 L 96.082031 69.301892 L 96.421875 69.637205 L 96.84375 70.216018 L 97.269531 70.962487 L 97.773438 72.06822 L 98.367188 73.640995 L 98.957031 75.481221 L 99.636719 77.888285 L 100.480469 81.269352 L 101.496094 85.748168 L 103.019531 92.961377 L 105.386719 104.162409 L 106.570312 109.283907 L 107.585938 113.259754 L 108.515625 116.509091 L 109.359375 119.115746 L 110.121094 121.171531 L 110.882812 122.955872 L 111.558594 124.321072 L 112.234375 125.486682 L 112.910156 126.464677 L 113.589844 127.267031 L 114.265625 127.909713 L 114.941406 128.40869 L 115.617188 128.779929 L 116.292969 129.035405 L 116.96875 129.191086 L 117.730469 129.262939 L 118.578125 129.24298 L 119.507812 129.119233 L 120.605469 128.875733 L 122.128906 128.428649 L 127.285156 126.827932 L 128.894531 126.468668 L 130.414062 126.22916 L 131.851562 126.105413 L 133.289062 126.081462 L 134.644531 126.149323 L 136.082031 126.324963 L 137.519531 126.600398 L 138.957031 126.971637 L 140.476562 127.46263 L 142.085938 128.089345 L 143.777344 128.84779 L 145.636719 129.79385 L 147.75 130.975427 L 150.289062 132.516267 L 154.175781 135.003168 L 159.082031 138.116783 L 161.871094 139.777378 L 164.324219 141.12262 L 166.605469 142.26827 L 168.804688 143.266224 L 171.003906 144.156399 L 173.117188 144.910852 L 175.316406 145.58946 L 177.601562 146.192224 L 179.96875 146.715152 L 182.421875 147.158243 L 185.042969 147.533474 L 187.832031 147.840843 " transform="matrix(1, 0, 0, 0.978565, -18, -7)"/>
</g>
</g>
<clipPath id="clip-3">
<path clip-rule="nonzero" d="M 100 150 L 106 150 L 106 155.082031 L 100 155.082031 Z M 100 150 "/>
</clipPath>
<clipPath id="clip-4">
<path clip-rule="nonzero" d="M 19.140625 70 L 187.917969 70 L 187.917969 145.429688 L 19.140625 145.429688 Z M 19.140625 70 "/>
</clipPath>
<clipPath id="clip-5">
<path clip-rule="nonzero" d="M 19.140625 7.238281 L 187.917969 7.238281 L 187.917969 145.429688 L 19.140625 145.429688 Z M 19.140625 7.238281 "/>
</clipPath>
<clipPath id="clip-6">
<path clip-rule="nonzero" d="M 0.140625 115 L 168.917969 115 L 168.917969 138.429688 L 0.140625 138.429688 Z M 0.140625 115 "/>
</clipPath>
<clipPath id="clip-7">
<rect x="0" y="0" width="169" height="139"/>
</clipPath>
<g id="source-8" clip-path="url(#clip-7)">
<g clip-path="url(#clip-6)">
<path fill="none" stroke-width="1.574432" stroke-linecap="square" stroke-linejoin="round" stroke="rgb(81.959534%, 51.371765%, 38.430786%)" stroke-opacity="0.65587" stroke-dasharray="3.148864 3.148864" stroke-miterlimit="4" d="M 19.140625 148.312588 L 59.058594 148.264783 L 66.484375 148.157224 L 71.546875 147.993893 L 75.511719 147.766823 L 78.804688 147.487965 L 81.757812 147.145368 L 84.375 146.746999 L 86.820312 146.276925 L 89.183594 145.727176 L 91.378906 145.121656 L 93.570312 144.41256 L 95.679688 143.635742 L 97.792969 142.755347 L 99.984375 141.735524 L 102.265625 140.568304 L 104.710938 139.197917 L 107.410156 137.576557 L 111.039062 135.270003 L 116.945312 131.517372 L 119.394531 130.083246 L 121.417969 128.999683 L 123.277344 128.119289 L 124.964844 127.422144 L 126.566406 126.864428 L 128.085938 126.442158 L 129.519531 126.139398 L 130.957031 125.93623 L 132.304688 125.836638 L 133.65625 125.832654 L 135.007812 125.916311 L 136.441406 126.107528 L 137.875 126.398337 L 139.308594 126.788738 L 140.828125 127.294666 L 142.433594 127.932056 L 144.121094 128.708874 L 145.976562 129.664959 L 148.085938 130.860064 L 150.703125 132.457522 L 155.003906 135.218215 L 159.308594 137.939072 L 162.09375 139.588318 L 164.542969 140.922852 L 166.820312 142.058202 L 169.015625 143.046156 L 171.207031 143.926551 L 173.402344 144.699385 L 175.597656 145.364661 L 177.875 145.954246 L 180.238281 146.468141 L 182.683594 146.898379 L 185.386719 147.272846 L 187.832031 147.539753 " transform="matrix(1, 0, 0, 0.980562, -19, -7)"/>
</g>
</g>
<clipPath id="clip-8">
<path clip-rule="nonzero" d="M 0.140625 27 L 168.917969 27 L 168.917969 138.429688 L 0.140625 138.429688 Z M 0.140625 27 "/>
</clipPath>
<clipPath id="clip-9">
<rect x="0" y="0" width="169" height="139"/>
</clipPath>
<g id="source-11" clip-path="url(#clip-9)">
<g clip-path="url(#clip-8)">
<path fill="none" stroke-width="1.574432" stroke-linecap="square" stroke-linejoin="round" stroke="rgb(46.665955%, 23.529053%, 13.725281%)" stroke-opacity="0.672065" stroke-dasharray="3.148864 3.148864" stroke-miterlimit="4" d="M 19.140625 148.312588 L 53.152344 148.264783 L 54.417969 148.165191 L 55.261719 148.009828 L 55.933594 147.794709 L 56.527344 147.499916 L 57.03125 147.137401 L 57.453125 146.731065 L 57.875 146.205218 L 58.296875 145.531976 L 58.71875 144.679467 L 59.140625 143.615823 L 59.5625 142.297223 L 59.984375 140.687815 L 60.40625 138.74776 L 60.914062 135.91536 L 61.421875 132.47744 L 61.925781 128.374245 L 62.515625 122.69351 L 63.109375 116.036773 L 63.785156 107.280633 L 64.628906 94.88739 L 66.316406 67.969631 L 67.160156 55.5246 L 67.75 48.099011 L 68.253906 42.916237 L 68.675781 39.597828 L 69.015625 37.669724 L 69.269531 36.669819 L 69.523438 36.064299 L 69.691406 35.885033 L 69.859375 35.885033 L 70.027344 36.064299 L 70.195312 36.422831 L 70.449219 37.291274 L 70.703125 38.550118 L 71.039062 40.808868 L 71.460938 44.505727 L 71.882812 49.075014 L 72.476562 56.687836 L 73.234375 67.969631 L 75.933594 109.57922 L 76.609375 118.036583 L 77.199219 124.418446 L 77.792969 129.816339 L 78.382812 134.274082 L 78.886719 137.401275 L 79.394531 139.954817 L 79.902344 142.002431 L 80.40625 143.615823 L 80.914062 144.8667 L 81.335938 145.679372 L 81.757812 146.320745 L 82.265625 146.906347 L 82.769531 147.332601 L 83.277344 147.639345 L 83.867188 147.886333 L 84.542969 148.065599 L 85.472656 148.201044 L 86.738281 148.276734 L 89.183594 148.308604 L 106.230469 148.312588 L 187.832031 148.312588 " transform="matrix(1, 0, 0, 0.980562, -19, -7)"/>
</g>
</g>
<clipPath id="clip-10">
<path clip-rule="nonzero" d="M 338 56 L 406.929688 56 L 406.929688 145 L 338 145 Z M 338 56 "/>
</clipPath>
<clipPath id="clip-11">
<path clip-rule="nonzero" d="M 338.269531 46.691406 L 406.429688 20.78125 L 406.429688 118.3125 L 338.269531 144.222656 Z M 338.269531 46.691406 "/>
</clipPath>
<clipPath id="clip-12">
<path clip-rule="nonzero" d="M 258 72 L 327 72 L 327 107 L 258 107 Z M 258 72 "/>
</clipPath>
<clipPath id="clip-13">
<path clip-rule="nonzero" d="M 258.695312 6.128906 L 326.671875 -18.867188 L 326.671875 81.941406 L 258.695312 106.9375 Z M 258.695312 6.128906 "/>
</clipPath>
<clipPath id="clip-14">
<path clip-rule="nonzero" d="M 337 21 L 406.929688 21 L 406.929688 145 L 337 145 Z M 337 21 "/>
</clipPath>
<clipPath id="clip-15">
<path clip-rule="nonzero" d="M 244 38 L 313 38 L 313 103 L 244 103 Z M 244 38 "/>
</clipPath>
<clipPath id="clip-16">
<path clip-rule="nonzero" d="M 244.277344 7.03125 L 312.308594 -18.839844 L 312.308594 76.886719 L 244.277344 102.757812 Z M 244.277344 7.03125 "/>
</clipPath>
<clipPath id="clip-17">
<path clip-rule="nonzero" d="M 233 12 L 302 12 L 302 99 L 233 99 Z M 233 12 "/>
</clipPath>
<clipPath id="clip-18">
<path clip-rule="nonzero" d="M 233.585938 2.167969 L 301.933594 -24.070312 L 301.933594 72.609375 L 233.585938 98.847656 Z M 233.585938 2.167969 "/>
</clipPath>
<clipPath id="clip-19">
<path clip-rule="nonzero" d="M 19.140625 7.238281 L 187.917969 7.238281 L 187.917969 145.429688 L 19.140625 145.429688 Z M 19.140625 7.238281 "/>
</clipPath>
<clipPath id="clip-20">
<path clip-rule="nonzero" d="M 0.140625 63 L 168.917969 63 L 168.917969 138.429688 L 0.140625 138.429688 Z M 0.140625 63 "/>
</clipPath>
<clipPath id="clip-21">
<rect x="0" y="0" width="169" height="139"/>
</clipPath>
<g id="source-14" clip-path="url(#clip-21)">
<g clip-path="url(#clip-20)">
<path fill="none" stroke-width="1.574432" stroke-linecap="square" stroke-linejoin="round" stroke="rgb(27.842712%, 40.391541%, 47.450256%)" stroke-opacity="0.688259" stroke-dasharray="3.148864 3.148864" stroke-miterlimit="4" d="M 19.140625 148.312588 L 62.6875 148.264783 L 65.386719 148.161208 L 67.160156 148.00186 L 68.507812 147.786741 L 69.691406 147.5039 L 70.703125 147.161303 L 71.632812 146.739032 L 72.476562 146.245055 L 73.234375 145.695307 L 73.992188 145.01808 L 74.753906 144.205408 L 75.429688 143.348916 L 76.105469 142.349011 L 76.863281 141.038379 L 77.621094 139.512628 L 78.382812 137.755823 L 79.140625 135.748046 L 79.902344 133.477345 L 80.746094 130.640962 L 81.589844 127.469948 L 82.515625 123.609758 L 83.53125 118.9847 L 84.710938 113.128683 L 86.398438 104.205229 L 88.761719 91.724344 L 89.859375 86.453929 L 90.703125 82.824792 L 91.460938 79.964506 L 92.136719 77.801365 L 92.726562 76.22781 L 93.234375 75.13628 L 93.65625 74.419217 L 94.078125 73.885403 L 94.414062 73.586627 L 94.753906 73.407361 L 95.089844 73.347606 L 95.429688 73.407361 L 95.765625 73.586627 L 96.101562 73.885403 L 96.441406 74.299706 L 96.863281 74.980917 L 97.285156 75.837409 L 97.792969 77.088286 L 98.382812 78.837124 L 99.058594 81.183514 L 99.816406 84.227049 L 100.660156 88.019517 L 101.757812 93.441312 L 103.359375 101.934528 L 105.722656 114.419397 L 106.988281 120.570206 L 108.085938 125.410383 L 109.015625 129.095292 L 109.941406 132.381832 L 110.785156 135.019031 L 111.628906 137.329568 L 112.390625 139.146129 L 113.148438 140.719684 L 113.910156 142.074137 L 114.667969 143.229406 L 115.429688 144.205408 L 116.1875 145.01808 L 116.945312 145.695307 L 117.707031 146.245055 L 118.550781 146.739032 L 119.480469 147.161303 L 120.492188 147.5039 L 121.589844 147.770806 L 122.855469 147.977958 L 124.457031 148.137305 L 126.566406 148.240881 L 129.859375 148.296653 L 138.382812 148.312588 L 187.832031 148.312588 " transform="matrix(1, 0, 0, 0.980562, -19, -7)"/>
</g>
</g>
</defs>
<path fill="none" stroke-width="0.850394" stroke-linecap="butt" stroke-linejoin="round" stroke="rgb(0%, 0%, 0%)" stroke-opacity="1" stroke-miterlimit="10" d="M 233.023438 99.011719 L 259.6875 107.4375 "/>
<path fill="none" stroke-width="0.850394" stroke-linecap="butt" stroke-linejoin="round" stroke="rgb(0%, 0%, 0%)" stroke-opacity="1" stroke-miterlimit="10" d="M 233.023438 99.011719 L 233.023438 1.984375 "/>
<g clip-path="url(#clip-0)">
<use xlink:href="#source-5" transform="matrix(1, 0, 0, 1, 18, 7)"/>
</g>
<path fill="none" stroke-width="0.850394" stroke-linecap="butt" stroke-linejoin="miter" stroke="rgb(50.195312%, 50.195312%, 50.195312%)" stroke-opacity="1" stroke-miterlimit="4" d="M 18.640625 145.210938 L 18.640625 147.09375 "/>
<path fill="none" stroke-width="0.850394" stroke-linecap="butt" stroke-linejoin="miter" stroke="rgb(50.195312%, 50.195312%, 50.195312%)" stroke-opacity="1" stroke-miterlimit="4" d="M 103.183594 145.210938 L 103.183594 147.09375 "/>
<path fill="none" stroke-width="0.850394" stroke-linecap="butt" stroke-linejoin="miter" stroke="rgb(50.195312%, 50.195312%, 50.195312%)" stroke-opacity="1" stroke-miterlimit="4" d="M 187.722656 145.210938 L 187.722656 147.09375 "/>
<path fill="none" stroke-width="0.850394" stroke-linecap="butt" stroke-linejoin="miter" stroke="rgb(50.195312%, 50.195312%, 50.195312%)" stroke-opacity="1" stroke-miterlimit="4" d="M 35.550781 146.496094 L 35.550781 145.210938 "/>
<path fill="none" stroke-width="0.850394" stroke-linecap="butt" stroke-linejoin="miter" stroke="rgb(50.195312%, 50.195312%, 50.195312%)" stroke-opacity="1" stroke-miterlimit="4" d="M 52.457031 146.496094 L 52.457031 145.210938 "/>
<path fill="none" stroke-width="0.850394" stroke-linecap="butt" stroke-linejoin="miter" stroke="rgb(50.195312%, 50.195312%, 50.195312%)" stroke-opacity="1" stroke-miterlimit="4" d="M 69.367188 146.496094 L 69.367188 145.210938 "/>
<path fill="none" stroke-width="0.850394" stroke-linecap="butt" stroke-linejoin="miter" stroke="rgb(50.195312%, 50.195312%, 50.195312%)" stroke-opacity="1" stroke-miterlimit="4" d="M 86.273438 146.496094 L 86.273438 145.210938 "/>
<path fill="none" stroke-width="0.850394" stroke-linecap="butt" stroke-linejoin="miter" stroke="rgb(50.195312%, 50.195312%, 50.195312%)" stroke-opacity="1" stroke-miterlimit="4" d="M 120.089844 146.496094 L 120.089844 145.210938 "/>
<path fill="none" stroke-width="0.850394" stroke-linecap="butt" stroke-linejoin="miter" stroke="rgb(50.195312%, 50.195312%, 50.195312%)" stroke-opacity="1" stroke-miterlimit="4" d="M 137 146.496094 L 137 145.210938 "/>
<path fill="none" stroke-width="0.850394" stroke-linecap="butt" stroke-linejoin="miter" stroke="rgb(50.195312%, 50.195312%, 50.195312%)" stroke-opacity="1" stroke-miterlimit="4" d="M 153.90625 146.496094 L 153.90625 145.210938 "/>
<path fill="none" stroke-width="0.850394" stroke-linecap="butt" stroke-linejoin="miter" stroke="rgb(50.195312%, 50.195312%, 50.195312%)" stroke-opacity="1" stroke-miterlimit="4" d="M 170.816406 146.496094 L 170.816406 145.210938 "/>
<path fill="none" stroke-width="0.850394" stroke-linecap="butt" stroke-linejoin="miter" stroke="rgb(50.195312%, 50.195312%, 50.195312%)" stroke-opacity="1" stroke-miterlimit="4" d="M 18.523438 0.617188 L 16.640625 0.617188 "/>
<path fill="none" stroke-width="0.850394" stroke-linecap="butt" stroke-linejoin="miter" stroke="rgb(50.195312%, 50.195312%, 50.195312%)" stroke-opacity="1" stroke-miterlimit="4" d="M 18.433594 145.046875 L 16.550781 145.046875 "/>
<path fill="none" stroke-width="0.850394" stroke-linecap="butt" stroke-linejoin="miter" stroke="rgb(50.195312%, 50.195312%, 50.195312%)" stroke-opacity="1" stroke-miterlimit="4" d="M 18.523438 24.6875 L 17.238281 24.6875 "/>
<path fill="none" stroke-width="0.850394" stroke-linecap="butt" stroke-linejoin="miter" stroke="rgb(50.195312%, 50.195312%, 50.195312%)" stroke-opacity="1" stroke-miterlimit="4" d="M 18.523438 72.832031 L 17.238281 72.832031 "/>
<path fill="none" stroke-width="0.850394" stroke-linecap="butt" stroke-linejoin="miter" stroke="rgb(50.195312%, 50.195312%, 50.195312%)" stroke-opacity="1" stroke-miterlimit="4" d="M 18.523438 120.972656 L 17.238281 120.972656 "/>
<path fill-rule="nonzero" fill="rgb(0%, 0%, 0%)" fill-opacity="1" d="M 8.644531 83.703125 L 8.644531 81.796875 C 8.644531 80.222656 7.488281 78.664062 6.246094 78.664062 C 5.371094 78.664062 4.550781 79.398438 4.550781 80.871094 L 4.550781 84.472656 C 4.550781 84.683594 4.550781 84.804688 4.761719 84.804688 C 4.902344 84.804688 4.902344 84.71875 4.902344 84.492188 C 4.902344 84.351562 4.917969 84.140625 4.917969 84.019531 C 4.953125 83.824219 4.96875 83.773438 5.109375 83.773438 C 5.144531 83.773438 5.179688 83.773438 5.320312 83.808594 L 11.304688 85.3125 C 11.738281 85.417969 11.828125 85.433594 11.828125 86.328125 C 11.828125 86.503906 11.828125 86.625 12.039062 86.625 C 12.175781 86.625 12.175781 86.503906 12.175781 86.46875 C 12.175781 86.152344 12.140625 85.363281 12.140625 85.050781 C 12.140625 84.804688 12.160156 84.558594 12.160156 84.332031 C 12.160156 84.089844 12.175781 83.84375 12.175781 83.617188 C 12.175781 83.527344 12.175781 83.386719 11.949219 83.386719 C 11.828125 83.386719 11.828125 83.492188 11.828125 83.703125 C 11.828125 84.105469 11.828125 84.421875 11.636719 84.421875 C 11.566406 84.421875 11.511719 84.402344 11.441406 84.386719 Z M 5.320312 82.898438 C 4.933594 82.792969 4.902344 82.777344 4.902344 82.285156 L 4.902344 81.21875 C 4.902344 80.292969 5.199219 79.699219 5.96875 79.699219 C 6.40625 79.699219 7.367188 79.925781 7.769531 80.363281 C 8.277344 80.921875 8.363281 81.585938 8.363281 82.078125 L 8.363281 83.652344 Z M 5.320312 82.898438 "/>
<path fill-rule="nonzero" fill="rgb(0%, 0%, 0%)" fill-opacity="1" d="M 11.511719 77.390625 C 11.6875 77.425781 11.949219 77.492188 12.003906 77.492188 C 12.195312 77.492188 12.300781 77.335938 12.300781 77.160156 C 12.300781 77.023438 12.210938 76.828125 11.984375 76.742188 C 11.949219 76.722656 10.429688 76.355469 10.21875 76.304688 C 9.851562 76.21875 9.082031 76.007812 8.765625 75.953125 C 8.625 75.902344 8.101562 75.585938 7.855469 75.324219 C 7.785156 75.238281 7.488281 74.90625 7.488281 74.433594 C 7.488281 74.136719 7.628906 73.976562 7.628906 73.960938 C 7.683594 74.292969 7.945312 74.539062 8.242188 74.539062 C 8.417969 74.539062 8.625 74.414062 8.625 74.117188 C 8.625 73.820312 8.363281 73.503906 7.960938 73.503906 C 7.578125 73.503906 7.246094 73.855469 7.246094 74.433594 C 7.246094 75.148438 7.785156 75.640625 8.101562 75.847656 C 7.59375 75.953125 7.246094 76.355469 7.246094 76.882812 C 7.246094 77.390625 7.683594 77.597656 7.875 77.703125 C 8.257812 77.894531 8.921875 78.035156 8.957031 78.035156 C 9.082031 78.035156 9.082031 77.929688 9.082031 77.914062 C 9.082031 77.792969 9.0625 77.792969 8.820312 77.722656 C 8.03125 77.527344 7.488281 77.300781 7.488281 76.898438 C 7.488281 76.722656 7.578125 76.566406 7.996094 76.566406 C 8.242188 76.566406 8.363281 76.601562 8.941406 76.742188 Z M 11.511719 77.390625 "/>
<path fill-rule="nonzero" fill="rgb(0%, 0%, 0%)" fill-opacity="1" d="M 14.855469 69.335938 C 14.820312 69.335938 14.800781 69.335938 14.609375 69.527344 C 13.210938 70.910156 11.09375 71.277344 9.378906 71.277344 C 7.4375 71.277344 5.496094 70.859375 4.113281 69.476562 C 3.972656 69.335938 3.957031 69.335938 3.921875 69.335938 C 3.832031 69.335938 3.796875 69.371094 3.796875 69.441406 C 3.796875 69.5625 4.566406 70.558594 5.984375 71.226562 C 7.210938 71.785156 8.453125 71.925781 9.378906 71.925781 C 10.253906 71.925781 11.601562 71.800781 12.878906 71.191406 C 14.242188 70.507812 14.976562 69.5625 14.976562 69.441406 C 14.976562 69.371094 14.941406 69.335938 14.855469 69.335938 Z M 14.855469 69.335938 "/>
<path fill-rule="nonzero" fill="rgb(0%, 0%, 0%)" fill-opacity="1" d="M 8.800781 64.964844 C 8.519531 64.894531 7.488281 64.632812 7.488281 63.863281 C 7.488281 63.808594 7.488281 63.53125 7.628906 63.300781 C 7.699219 63.617188 7.960938 63.828125 8.242188 63.828125 C 8.417969 63.828125 8.625 63.703125 8.625 63.40625 C 8.625 63.160156 8.433594 62.8125 7.980469 62.8125 C 7.402344 62.8125 7.246094 63.460938 7.246094 63.84375 C 7.246094 64.492188 7.839844 64.875 8.085938 65.015625 C 7.347656 65.296875 7.246094 65.890625 7.246094 66.222656 C 7.246094 67.378906 8.679688 68.023438 8.957031 68.023438 C 9.082031 68.023438 9.082031 67.902344 9.082031 67.886719 C 9.082031 67.796875 9.046875 67.761719 8.957031 67.746094 C 7.769531 67.359375 7.488281 66.625 7.488281 66.242188 C 7.488281 66.03125 7.59375 65.644531 8.242188 65.644531 C 8.589844 65.644531 9.324219 65.839844 10.902344 66.242188 C 11.582031 66.414062 12.054688 66.816406 12.054688 67.308594 C 12.054688 67.378906 12.054688 67.621094 11.914062 67.867188 C 11.84375 67.585938 11.617188 67.34375 11.304688 67.34375 C 11.003906 67.34375 10.917969 67.585938 10.917969 67.746094 C 10.917969 68.09375 11.199219 68.359375 11.566406 68.359375 C 12.074219 68.359375 12.300781 67.816406 12.300781 67.324219 C 12.300781 66.574219 11.511719 66.171875 11.460938 66.152344 C 11.863281 66.011719 12.300781 65.609375 12.300781 64.945312 C 12.300781 63.792969 10.867188 63.160156 10.585938 63.160156 C 10.464844 63.160156 10.464844 63.25 10.464844 63.285156 C 10.464844 63.390625 10.515625 63.40625 10.585938 63.441406 C 11.792969 63.808594 12.054688 64.5625 12.054688 64.910156 C 12.054688 65.347656 11.707031 65.523438 11.320312 65.523438 C 11.074219 65.523438 10.832031 65.472656 10.339844 65.347656 Z M 8.800781 64.964844 "/>
<path fill-rule="nonzero" fill="rgb(0%, 0%, 0%)" fill-opacity="1" d="M 9.378906 59.097656 C 8.519531 59.097656 7.175781 59.21875 5.898438 59.832031 C 4.53125 60.496094 3.796875 61.457031 3.796875 61.5625 C 3.796875 61.632812 3.851562 61.683594 3.921875 61.683594 C 3.957031 61.683594 3.972656 61.683594 4.183594 61.476562 C 5.285156 60.375 7.050781 59.742188 9.378906 59.742188 C 11.304688 59.742188 13.261719 60.144531 14.660156 61.527344 C 14.800781 61.683594 14.820312 61.683594 14.855469 61.683594 C 14.925781 61.683594 14.976562 61.632812 14.976562 61.5625 C 14.976562 61.457031 14.207031 60.445312 12.789062 59.796875 C 11.566406 59.21875 10.324219 59.097656 9.378906 59.097656 Z M 9.378906 59.097656 "/>
<g clip-path="url(#clip-3)">
<path fill-rule="nonzero" fill="rgb(0%, 0%, 0%)" fill-opacity="1" d="M 103.78125 151.582031 C 103.851562 151.304688 104.113281 150.269531 104.882812 150.269531 C 104.9375 150.269531 105.21875 150.269531 105.445312 150.410156 C 105.128906 150.480469 104.917969 150.742188 104.917969 151.023438 C 104.917969 151.199219 105.042969 151.40625 105.339844 151.40625 C 105.585938 151.40625 105.933594 151.214844 105.933594 150.761719 C 105.933594 150.183594 105.285156 150.027344 104.902344 150.027344 C 104.253906 150.027344 103.871094 150.621094 103.730469 150.867188 C 103.449219 150.132812 102.855469 150.027344 102.523438 150.027344 C 101.367188 150.027344 100.722656 151.460938 100.722656 151.742188 C 100.722656 151.863281 100.84375 151.863281 100.859375 151.863281 C 100.949219 151.863281 100.984375 151.828125 101 151.742188 C 101.386719 150.550781 102.121094 150.269531 102.503906 150.269531 C 102.714844 150.269531 103.101562 150.375 103.101562 151.023438 C 103.101562 151.371094 102.90625 152.109375 102.503906 153.683594 C 102.332031 154.363281 101.929688 154.835938 101.4375 154.835938 C 101.367188 154.835938 101.125 154.835938 100.878906 154.695312 C 101.160156 154.625 101.402344 154.398438 101.402344 154.085938 C 101.402344 153.785156 101.160156 153.699219 101 153.699219 C 100.652344 153.699219 100.390625 153.980469 100.390625 154.347656 C 100.390625 154.855469 100.929688 155.082031 101.421875 155.082031 C 102.171875 155.082031 102.574219 154.292969 102.59375 154.242188 C 102.734375 154.644531 103.136719 155.082031 103.800781 155.082031 C 104.953125 155.082031 105.585938 153.648438 105.585938 153.367188 C 105.585938 153.246094 105.496094 153.246094 105.460938 153.246094 C 105.355469 153.246094 105.339844 153.296875 105.304688 153.367188 C 104.9375 154.574219 104.183594 154.835938 103.835938 154.835938 C 103.398438 154.835938 103.222656 154.488281 103.222656 154.101562 C 103.222656 153.855469 103.273438 153.613281 103.398438 153.121094 Z M 103.78125 151.582031 "/>
</g>
<path fill="none" stroke-width="0.850394" stroke-linecap="butt" stroke-linejoin="miter" stroke="rgb(50.195312%, 50.195312%, 50.195312%)" stroke-opacity="1" stroke-miterlimit="4" d="M 18.523438 96.902344 L 16.640625 96.902344 "/>
<path fill="none" stroke-width="0.850394" stroke-linecap="butt" stroke-linejoin="miter" stroke="rgb(50.195312%, 50.195312%, 50.195312%)" stroke-opacity="1" stroke-miterlimit="4" d="M 18.523438 48.757812 L 16.640625 48.757812 "/>
<g clip-path="url(#clip-4)">
<path fill="none" stroke-width="1.574432" stroke-linecap="square" stroke-linejoin="round" stroke="rgb(27.842712%, 40.391541%, 47.450256%)" stroke-opacity="1" stroke-dasharray="3.148864 3.148864" stroke-miterlimit="4" d="M 19.140625 148.312588 L 62.6875 148.264783 L 65.386719 148.161208 L 67.160156 148.00186 L 68.507812 147.786741 L 69.691406 147.5039 L 70.703125 147.161303 L 71.632812 146.739032 L 72.476562 146.245055 L 73.234375 145.695307 L 73.992188 145.01808 L 74.753906 144.205408 L 75.429688 143.348916 L 76.105469 142.349011 L 76.863281 141.038379 L 77.621094 139.512628 L 78.382812 137.755823 L 79.140625 135.748046 L 79.902344 133.477345 L 80.746094 130.640962 L 81.589844 127.469948 L 82.515625 123.609758 L 83.53125 118.9847 L 84.710938 113.128683 L 86.398438 104.205229 L 88.761719 91.724344 L 89.859375 86.453929 L 90.703125 82.824792 L 91.460938 79.964506 L 92.136719 77.801365 L 92.726562 76.22781 L 93.234375 75.13628 L 93.65625 74.419217 L 94.078125 73.885403 L 94.414062 73.586627 L 94.753906 73.407361 L 95.089844 73.347606 L 95.429688 73.407361 L 95.765625 73.586627 L 96.101562 73.885403 L 96.441406 74.299706 L 96.863281 74.980917 L 97.285156 75.837409 L 97.792969 77.088286 L 98.382812 78.837124 L 99.058594 81.183514 L 99.816406 84.227049 L 100.660156 88.019517 L 101.757812 93.441312 L 103.359375 101.934528 L 105.722656 114.419397 L 106.988281 120.570206 L 108.085938 125.410383 L 109.015625 129.095292 L 109.941406 132.381832 L 110.785156 135.019031 L 111.628906 137.329568 L 112.390625 139.146129 L 113.148438 140.719684 L 113.910156 142.074137 L 114.667969 143.229406 L 115.429688 144.205408 L 116.1875 145.01808 L 116.945312 145.695307 L 117.707031 146.245055 L 118.550781 146.739032 L 119.480469 147.161303 L 120.492188 147.5039 L 121.589844 147.770806 L 122.855469 147.977958 L 124.457031 148.137305 L 126.566406 148.240881 L 129.859375 148.296653 L 138.382812 148.312588 L 187.832031 148.312588 " transform="matrix(1, 0, 0, 0.980562, 0, 0)"/>
</g>
<g clip-path="url(#clip-5)">
<use xlink:href="#source-8" transform="matrix(1, 0, 0, 1, 19, 7)"/>
<use xlink:href="#source-11" transform="matrix(1, 0, 0, 1, 19, 7)"/>
</g>
<g clip-path="url(#clip-10)">
<g clip-path="url(#clip-11)">
<path fill="none" stroke-width="1.855383" stroke-linecap="square" stroke-linejoin="round" stroke="rgb(62.744141%, 85.096741%, 82.743835%)" stroke-opacity="1" stroke-miterlimit="4" d="M 579.685251 272.828728 L 602.873464 272.797367 L 603.924431 272.733655 L 604.567061 272.630131 L 605.035645 272.495808 L 605.443982 272.312962 L 605.792073 272.0855 L 606.140164 271.768195 L 606.434702 271.419477 L 606.729241 270.977009 L 607.017085 270.408057 L 607.311624 269.699964 L 607.599468 268.822418 L 607.894007 267.747137 L 608.188545 266.445295 L 608.536636 264.545958 L 608.884727 262.232559 L 609.239512 259.463613 L 609.64785 255.616705 L 610.056187 251.090109 L 610.524771 245.115942 L 611.046908 237.493499 L 611.863583 224.471558 L 612.740504 210.759857 L 613.209088 204.469283 L 613.557179 200.546509 L 613.851718 197.924354 L 614.08601 196.304458 L 614.320302 195.141593 L 614.494347 194.58255 L 614.608146 194.357796 L 614.728639 194.259528 L 614.842438 194.280869 L 614.962931 194.424789 L 615.07673 194.692223 L 615.250775 195.312867 L 615.424821 196.19523 L 615.659113 197.762834 L 615.953651 200.296929 L 616.301742 204.077279 L 616.71008 209.30459 L 617.299157 217.743873 L 618.524169 235.757836 L 619.046306 242.361956 L 619.454643 246.729891 L 619.809428 249.875008 L 620.157519 252.448328 L 620.452058 254.166016 L 620.739902 255.50722 L 620.974194 256.320917 L 621.208486 256.919771 L 621.442778 257.3155 L 621.616824 257.486925 L 621.790869 257.556788 L 621.971609 257.534386 L 622.145654 257.424562 L 622.3197 257.232706 L 622.553992 256.854997 L 622.788284 256.360101 L 623.076128 255.584117 L 623.430913 254.455796 L 623.839251 252.909669 L 624.361387 250.627071 L 625.004016 247.504016 L 625.820691 243.173481 L 628.511702 228.676745 L 629.154332 225.690409 L 629.676468 223.524998 L 630.145052 221.851612 L 630.55339 220.60236 L 630.961727 219.571858 L 631.309818 218.867833 L 631.604357 218.417553 L 631.898895 218.092273 L 632.133187 217.921596 L 632.360785 217.835371 L 632.595077 217.82485 L 632.829369 217.900266 L 633.063661 218.053807 L 633.297953 218.285474 L 633.592492 218.68285 L 633.880336 219.199834 L 634.235121 219.966045 L 634.643458 221.048824 L 635.051796 222.32301 L 635.52038 223.981655 L 636.102763 226.317891 L 636.798945 229.409842 L 637.856606 234.39449 L 639.489956 242.12795 L 640.306631 245.664603 L 641.009507 248.410383 L 641.652136 250.654516 L 642.234519 252.455595 L 642.756655 253.876122 L 643.285486 255.106726 L 643.75407 256.050528 L 644.21596 256.856126 L 644.684544 257.530396 L 645.153128 258.087478 L 645.621712 258.53128 L 646.090296 258.873519 L 646.552186 259.128335 L 647.02077 259.306512 L 647.489354 259.414376 L 648.018184 259.465293 L 648.600567 259.449966 L 649.243197 259.362068 L 649.999625 259.193948 L 651.050592 258.888048 L 654.61183 257.779689 L 655.723044 257.53403 L 656.774011 257.368754 L 657.764731 257.283863 L 658.762146 257.266863 L 659.69262 257.313137 L 660.690034 257.436763 L 661.680755 257.625309 L 662.671475 257.880261 L 663.722442 258.218892 L 664.833655 258.652921 L 666.005115 259.17844 L 667.290374 259.830768 L 668.749679 260.64671 L 670.496828 261.710105 L 673.187838 263.428213 L 676.575031 265.578116 L 678.50292 266.724578 L 680.196516 267.654998 L 681.769619 268.445405 L 683.28917 269.134088 L 684.808721 269.748551 L 686.268026 270.271524 L 687.787577 270.741457 L 689.36068 271.156864 L 691.000724 271.516809 L 692.69432 271.82223 L 694.501716 272.082584 L 696.429604 272.295452 " transform="matrix(0.58354, -0.221855, 0, 1, 0, 0)"/>
</g>
</g>
<path fill-rule="nonzero" fill="rgb(0%, 0%, 0%)" fill-opacity="1" d="M 267.53125 125.820312 L 269.863281 120.734375 L 269.308594 120.480469 L 266.359375 122.773438 L 266.148438 119.03125 L 265.59375 118.777344 L 263.265625 123.867188 L 263.816406 124.121094 L 265.683594 120.046875 L 265.863281 123.855469 L 268.84375 121.496094 L 266.976562 125.566406 Z M 267.53125 125.820312 "/>
<path fill-rule="nonzero" fill="rgb(0%, 0%, 0%)" fill-opacity="1" d="M 271.09375 127.453125 L 271.960938 125.5625 C 272.398438 124.605469 272.25 123.867188 271.257812 123.410156 C 270.898438 123.246094 270.410156 123.160156 270.03125 123.128906 L 269.785156 123.671875 C 270.203125 123.640625 270.535156 123.652344 270.996094 123.863281 C 271.519531 124.117188 271.800781 124.566406 271.546875 125.121094 L 270.789062 124.773438 C 270.003906 124.414062 269.1875 124.363281 268.792969 125.226562 C 268.507812 125.90625 268.722656 126.480469 269.390625 126.785156 C 269.863281 127 270.378906 127 270.789062 126.78125 L 270.585938 127.222656 Z M 271.296875 125.675781 C 271 126.320312 270.460938 126.703125 269.769531 126.386719 C 269.367188 126.199219 269.117188 125.863281 269.316406 125.425781 C 269.613281 124.777344 270.222656 125.058594 270.800781 125.324219 L 271.34375 125.570312 Z M 271.296875 125.675781 "/>
<path fill-rule="nonzero" fill="rgb(0%, 0%, 0%)" fill-opacity="1" d="M 275.128906 126.09375 L 275.546875 125.640625 C 275.507812 125.511719 275.191406 125.253906 274.949219 125.144531 C 274.597656 124.996094 274.230469 125.039062 273.9375 125.28125 L 274.144531 124.832031 L 273.589844 124.578125 L 272.066406 127.898438 L 272.621094 128.152344 L 273.425781 126.398438 C 273.429688 126.386719 273.4375 126.378906 273.4375 126.378906 C 273.65625 125.890625 274.203125 125.375 274.722656 125.613281 L 274.757812 125.628906 C 274.929688 125.707031 275.019531 125.875 275.128906 126.09375 Z M 275.128906 126.09375 "/>
<path fill-rule="nonzero" fill="rgb(0%, 0%, 0%)" fill-opacity="1" d="M 275.535156 129.390625 C 276.160156 129.675781 276.449219 130.171875 276.261719 130.574219 C 276.078125 130.980469 275.519531 131.070312 274.898438 130.785156 C 274.273438 130.5 274.058594 130.054688 274.246094 129.652344 C 274.429688 129.246094 274.914062 129.105469 275.535156 129.390625 Z M 275.753906 128.917969 C 275.695312 128.890625 275.636719 128.863281 275.5625 128.84375 C 275.21875 128.6875 275.011719 128.339844 275.074219 128.203125 C 275.148438 128.042969 275.359375 128.066406 275.5 128.132812 L 275.546875 128.152344 C 275.613281 128.308594 275.941406 128.503906 276.046875 128.550781 C 276.679688 128.839844 277.4375 128.53125 277.742188 127.863281 C 277.867188 127.597656 277.890625 127.300781 277.828125 127.035156 L 278.371094 127.285156 L 278.5625 126.867188 L 277.628906 126.441406 C 277.5 126.324219 277.300781 126.207031 277.1875 126.15625 C 276.550781 125.863281 275.773438 126.164062 275.449219 126.808594 C 275.300781 127.132812 275.285156 127.476562 275.394531 127.777344 C 275.132812 127.710938 274.792969 127.753906 274.652344 128.0625 C 274.5625 128.261719 274.601562 128.503906 274.816406 128.738281 C 274.289062 128.761719 273.871094 129.003906 273.695312 129.386719 C 273.421875 129.984375 273.78125 130.820312 274.691406 131.238281 C 275.613281 131.660156 276.617188 131.449219 276.886719 130.859375 C 277.242188 130.089844 276.527344 129.273438 275.753906 128.917969 Z M 276.941406 126.601562 C 277.332031 126.78125 277.507812 127.25 277.324219 127.65625 C 277.144531 128.046875 276.671875 128.222656 276.28125 128.042969 C 275.875 127.859375 275.710938 127.390625 275.890625 127 C 276.078125 126.597656 276.535156 126.414062 276.941406 126.601562 Z M 276.941406 126.601562 "/>
<path fill-rule="nonzero" fill="rgb(0%, 0%, 0%)" fill-opacity="1" d="M 278.460938 130.828125 L 279.984375 127.507812 L 279.429688 127.253906 L 277.910156 130.574219 Z M 280.515625 125.613281 C 280.34375 125.535156 280.117188 125.628906 280.039062 125.800781 C 279.957031 125.984375 280.03125 126.214844 280.203125 126.296875 C 280.390625 126.378906 280.601562 126.28125 280.6875 126.097656 C 280.765625 125.925781 280.699219 125.699219 280.515625 125.613281 Z M 280.515625 125.613281 "/>
<path fill-rule="nonzero" fill="rgb(0%, 0%, 0%)" fill-opacity="1" d="M 282.335938 132.605469 L 283.253906 130.597656 C 283.613281 129.8125 283.5625 129.046875 282.707031 128.65625 C 282.28125 128.460938 281.769531 128.421875 281.332031 128.667969 L 281.539062 128.21875 L 280.996094 127.972656 L 279.476562 131.292969 L 280.015625 131.542969 L 280.878906 129.660156 C 281.191406 129.039062 281.769531 128.8125 282.359375 129.082031 C 282.933594 129.347656 282.984375 129.789062 282.714844 130.375 L 281.804688 132.359375 Z M 282.335938 132.605469 "/>
<path fill-rule="nonzero" fill="rgb(0%, 0%, 0%)" fill-opacity="1" d="M 285.855469 134.214844 L 286.722656 132.324219 C 287.164062 131.367188 287.011719 130.628906 286.019531 130.175781 C 285.664062 130.011719 285.171875 129.925781 284.796875 129.890625 L 284.546875 130.433594 C 284.964844 130.402344 285.296875 130.414062 285.757812 130.625 C 286.28125 130.878906 286.566406 131.332031 286.3125 131.882812 L 285.550781 131.535156 C 284.765625 131.175781 283.953125 131.125 283.554688 131.988281 C 283.273438 132.667969 283.484375 133.242188 284.152344 133.546875 C 284.625 133.765625 285.144531 133.765625 285.550781 133.546875 L 285.347656 133.984375 Z M 286.058594 132.4375 C 285.761719 133.085938 285.222656 133.464844 284.53125 133.148438 C 284.128906 132.964844 283.878906 132.625 284.078125 132.1875 C 284.375 131.542969 284.984375 131.820312 285.5625 132.085938 L 286.105469 132.335938 Z M 286.058594 132.4375 "/>
<path fill-rule="nonzero" fill="rgb(0%, 0%, 0%)" fill-opacity="1" d="M 289.621094 129.785156 L 289.082031 129.539062 L 286.75 134.625 L 287.292969 134.875 Z M 289.621094 129.785156 "/>
<path fill-rule="nonzero" fill="rgb(0%, 0%, 0%)" fill-opacity="1" d="M 288.855469 135.589844 L 290.378906 132.269531 L 289.824219 132.015625 L 288.300781 135.335938 Z M 290.910156 130.375 C 290.734375 130.296875 290.511719 130.390625 290.433594 130.5625 C 290.347656 130.746094 290.425781 130.976562 290.597656 131.058594 C 290.78125 131.140625 290.996094 131.042969 291.078125 130.859375 C 291.160156 130.6875 291.09375 130.460938 290.910156 130.375 Z M 290.910156 130.375 "/>
<path fill-rule="nonzero" fill="rgb(0%, 0%, 0%)" fill-opacity="1" d="M 292.382812 137.207031 L 292.605469 136.722656 L 290.496094 135.753906 L 293.652344 134.4375 L 293.90625 133.882812 L 291.21875 132.652344 L 290.996094 133.136719 L 293.039062 134.074219 L 289.878906 135.390625 L 289.625 135.945312 Z M 292.382812 137.207031 "/>
<path fill-rule="nonzero" fill="rgb(0%, 0%, 0%)" fill-opacity="1" d="M 296.640625 137.148438 L 296.667969 137.089844 C 297.105469 136.132812 297.035156 135.25 295.953125 134.722656 C 294.972656 134.273438 294.027344 134.875 293.605469 135.796875 C 293.144531 136.800781 293.425781 137.796875 294.441406 138.261719 C 294.902344 138.472656 295.367188 138.558594 295.839844 138.59375 L 296.09375 138.039062 C 295.445312 138.050781 295.339844 138.070312 294.714844 137.785156 C 294.023438 137.46875 293.800781 136.863281 294.160156 136.078125 L 294.183594 136.023438 Z M 296.304688 136.449219 L 294.414062 135.582031 C 294.683594 135.175781 295.179688 134.941406 295.734375 135.195312 C 296.3125 135.460938 296.515625 135.988281 296.304688 136.449219 Z M 296.304688 136.449219 "/>
<path fill-rule="nonzero" fill="rgb(0%, 0%, 0%)" fill-opacity="1" d="M 302.601562 139.878906 C 302.988281 139.035156 302.949219 137.929688 301.839844 137.421875 C 300.835938 136.960938 299.917969 137.476562 299.472656 138.445312 C 299.058594 139.355469 299.269531 140.445312 300.238281 140.917969 C 301.242188 141.347656 302.171875 140.8125 302.601562 139.878906 Z M 302.058594 139.628906 C 301.757812 140.285156 301.082031 140.691406 300.472656 140.410156 C 299.648438 140.019531 299.800781 139.195312 300.035156 138.6875 C 300.339844 138.019531 300.917969 137.613281 301.613281 137.917969 C 302.253906 138.226562 302.347656 138.996094 302.058594 139.628906 Z M 302.058594 139.628906 "/>
<path fill-rule="nonzero" fill="rgb(0%, 0%, 0%)" fill-opacity="1" d="M 306.941406 139.855469 L 306.433594 139.625 L 304.257812 141.445312 L 304.207031 138.601562 L 303.699219 138.371094 L 303.757812 142.542969 Z M 306.941406 139.855469 "/>
<path fill-rule="nonzero" fill="rgb(0%, 0%, 0%)" fill-opacity="1" d="M 309.515625 143.042969 L 309.539062 142.988281 C 309.980469 142.027344 309.910156 141.144531 308.824219 140.621094 C 307.84375 140.171875 306.898438 140.773438 306.476562 141.695312 C 306.015625 142.699219 306.300781 143.695312 307.316406 144.160156 C 307.777344 144.371094 308.238281 144.457031 308.710938 144.492188 L 308.964844 143.9375 C 308.316406 143.949219 308.210938 143.96875 307.589844 143.683594 C 306.894531 143.367188 306.671875 142.761719 307.03125 141.976562 L 307.058594 141.917969 Z M 309.179688 142.347656 L 307.285156 141.480469 C 307.554688 141.074219 308.054688 140.839844 308.605469 141.09375 C 309.183594 141.359375 309.390625 141.882812 309.179688 142.347656 Z M 309.179688 142.347656 "/>
<path fill-rule="nonzero" fill="rgb(0%, 0%, 0%)" fill-opacity="1" d="M 312.613281 143.265625 L 313.03125 142.8125 C 312.992188 142.683594 312.675781 142.425781 312.433594 142.316406 C 312.082031 142.167969 311.714844 142.210938 311.421875 142.453125 L 311.628906 142.003906 L 311.074219 141.75 L 309.550781 145.070312 L 310.105469 145.324219 L 310.910156 143.570312 C 310.914062 143.558594 310.917969 143.546875 310.917969 143.546875 C 311.140625 143.0625 311.6875 142.546875 312.203125 142.785156 L 312.238281 142.800781 C 312.414062 142.878906 312.503906 143.046875 312.613281 143.265625 Z M 312.613281 143.265625 "/>
<path fill-rule="nonzero" fill="rgb(0%, 0%, 0%)" fill-opacity="1" d="M 261.195312 127.441406 L 260.652344 127.195312 L 258.324219 132.28125 L 258.863281 132.53125 Z M 261.195312 127.441406 "/>
<path fill-rule="nonzero" fill="rgb(0%, 0%, 0%)" fill-opacity="1" d="M 262.425781 134.160156 L 263.289062 132.269531 C 263.730469 131.3125 263.578125 130.574219 262.585938 130.117188 C 262.230469 129.953125 261.738281 129.867188 261.363281 129.835938 L 261.113281 130.378906 C 261.535156 130.347656 261.863281 130.359375 262.324219 130.570312 C 262.851562 130.824219 263.132812 131.273438 262.878906 131.828125 L 262.117188 131.480469 C 261.332031 131.121094 260.519531 131.070312 260.121094 131.933594 C 259.839844 132.613281 260.050781 133.183594 260.722656 133.492188 C 261.195312 133.707031 261.710938 133.707031 262.117188 133.488281 L 261.917969 133.929688 Z M 262.625 132.382812 C 262.328125 133.027344 261.792969 133.410156 261.097656 133.09375 C 260.695312 132.90625 260.445312 132.570312 260.644531 132.132812 C 260.941406 131.484375 261.554688 131.765625 262.128906 132.03125 L 262.671875 132.277344 Z M 262.625 132.382812 "/>
<path fill-rule="nonzero" fill="rgb(0%, 0%, 0%)" fill-opacity="1" d="M 265.183594 135.425781 L 265.398438 134.949219 L 264.820312 134.6875 C 264.300781 134.449219 264.269531 134.28125 264.492188 133.796875 L 265.316406 131.996094 L 266.296875 132.445312 L 266.496094 132.007812 L 265.515625 131.558594 L 265.949219 130.613281 L 265.71875 130.503906 L 264.972656 131.308594 L 264.582031 131.128906 L 264.378906 131.566406 L 264.773438 131.746094 L 263.949219 133.546875 C 263.566406 134.378906 263.785156 134.785156 264.605469 135.160156 Z M 265.183594 135.425781 "/>
<path fill-rule="nonzero" fill="rgb(0%, 0%, 0%)" fill-opacity="1" d="M 269.25 135.277344 L 269.277344 135.222656 C 269.71875 134.261719 269.648438 133.378906 268.5625 132.855469 C 267.582031 132.40625 266.636719 133.007812 266.214844 133.929688 C 265.753906 134.933594 266.039062 135.929688 267.054688 136.394531 C 267.515625 136.605469 267.976562 136.691406 268.449219 136.726562 L 268.703125 136.171875 C 268.054688 136.183594 267.949219 136.203125 267.324219 135.917969 C 266.632812 135.601562 266.410156 134.996094 266.769531 134.210938 L 266.792969 134.152344 Z M 268.914062 134.582031 L 267.023438 133.714844 C 267.292969 133.308594 267.792969 133.074219 268.34375 133.328125 C 268.921875 133.59375 269.128906 134.117188 268.914062 134.582031 Z M 268.914062 134.582031 "/>
<path fill-rule="nonzero" fill="rgb(0%, 0%, 0%)" fill-opacity="1" d="M 272.152344 138.617188 L 273.070312 136.609375 C 273.429688 135.824219 273.375 135.058594 272.523438 134.667969 C 272.09375 134.472656 271.582031 134.433594 271.148438 134.683594 L 271.355469 134.230469 L 270.8125 133.984375 L 269.289062 137.304688 L 269.832031 137.554688 L 270.695312 135.675781 C 271.007812 135.050781 271.585938 134.824219 272.171875 135.09375 C 272.75 135.359375 272.796875 135.800781 272.527344 136.390625 L 271.621094 138.375 Z M 272.152344 138.617188 "/>
<path fill-rule="nonzero" fill="rgb(0%, 0%, 0%)" fill-opacity="1" d="M 274.980469 139.914062 L 275.195312 139.4375 L 274.621094 139.175781 C 274.101562 138.9375 274.066406 138.769531 274.289062 138.285156 L 275.113281 136.484375 L 276.09375 136.933594 L 276.292969 136.496094 L 275.3125 136.046875 L 275.746094 135.101562 L 275.515625 134.992188 L 274.769531 135.796875 L 274.378906 135.617188 L 274.179688 136.054688 L 274.570312 136.234375 L 273.746094 138.035156 C 273.363281 138.867188 273.582031 139.273438 274.402344 139.648438 Z M 274.980469 139.914062 "/>
<path fill-rule="nonzero" fill="rgb(0%, 0%, 0%)" fill-opacity="1" d="M 282.273438 139.234375 L 281.765625 139 L 279.589844 140.824219 L 279.539062 137.980469 L 279.03125 137.75 L 279.085938 141.921875 Z M 282.273438 139.234375 "/>
<path fill-rule="nonzero" fill="rgb(0%, 0%, 0%)" fill-opacity="1" d="M 283.808594 143.957031 L 284.671875 142.0625 C 285.113281 141.105469 284.960938 140.367188 283.96875 139.914062 C 283.613281 139.75 283.121094 139.664062 282.746094 139.632812 L 282.496094 140.175781 C 282.914062 140.144531 283.246094 140.152344 283.707031 140.367188 C 284.230469 140.621094 284.515625 141.070312 284.261719 141.625 L 283.5 141.277344 C 282.714844 140.917969 281.902344 140.863281 281.503906 141.730469 C 281.222656 142.410156 281.433594 142.980469 282.101562 143.289062 C 282.574219 143.503906 283.09375 143.503906 283.5 143.285156 L 283.300781 143.722656 Z M 284.007812 142.179688 C 283.710938 142.824219 283.171875 143.207031 282.480469 142.886719 C 282.078125 142.703125 281.828125 142.367188 282.027344 141.925781 C 282.324219 141.28125 282.9375 141.5625 283.511719 141.824219 L 284.054688 142.074219 Z M 284.007812 142.179688 "/>
<path fill-rule="nonzero" fill="rgb(0%, 0%, 0%)" fill-opacity="1" d="M 287.839844 142.59375 L 288.257812 142.144531 C 288.21875 142.015625 287.902344 141.757812 287.660156 141.648438 C 287.308594 141.5 286.941406 141.539062 286.648438 141.785156 L 286.855469 141.332031 L 286.300781 141.078125 L 284.78125 144.402344 L 285.335938 144.65625 L 286.136719 142.902344 C 286.144531 142.890625 286.148438 142.878906 286.148438 142.878906 C 286.371094 142.394531 286.914062 141.875 287.433594 142.113281 L 287.46875 142.128906 C 287.640625 142.210938 287.730469 142.378906 287.839844 142.59375 Z M 287.839844 142.59375 "/>
<path fill-rule="nonzero" fill="rgb(0%, 0%, 0%)" fill-opacity="1" d="M 287.910156 145.835938 L 289.429688 142.511719 L 288.875 142.257812 L 287.355469 145.582031 Z M 289.960938 140.621094 C 289.789062 140.542969 289.566406 140.632812 289.484375 140.808594 C 289.402344 140.992188 289.476562 141.222656 289.652344 141.300781 C 289.835938 141.386719 290.046875 141.289062 290.132812 141.105469 C 290.210938 140.929688 290.148438 140.707031 289.960938 140.621094 Z M 289.960938 140.621094 "/>
<path fill-rule="nonzero" fill="rgb(0%, 0%, 0%)" fill-opacity="1" d="M 291.472656 147.46875 L 292.335938 145.574219 C 292.777344 144.617188 292.625 143.878906 291.632812 143.425781 C 291.277344 143.261719 290.785156 143.175781 290.410156 143.144531 L 290.160156 143.683594 C 290.582031 143.652344 290.910156 143.664062 291.371094 143.875 C 291.898438 144.132812 292.179688 144.582031 291.925781 145.136719 L 291.164062 144.785156 C 290.378906 144.425781 289.566406 144.375 289.167969 145.242188 C 288.886719 145.921875 289.097656 146.492188 289.769531 146.796875 C 290.242188 147.015625 290.757812 147.015625 291.164062 146.796875 L 290.964844 147.234375 Z M 291.671875 145.6875 C 291.375 146.335938 290.839844 146.71875 290.144531 146.398438 C 289.742188 146.214844 289.492188 145.878906 289.691406 145.4375 C 289.988281 144.792969 290.601562 145.074219 291.175781 145.335938 L 291.71875 145.585938 Z M 291.671875 145.6875 "/>
<path fill-rule="nonzero" fill="rgb(0%, 0%, 0%)" fill-opacity="1" d="M 296.25 147.648438 C 296.707031 146.65625 296.414062 145.710938 295.339844 145.21875 L 294.519531 144.84375 L 295.328125 143.078125 L 294.777344 142.828125 L 292.445312 147.914062 L 293.863281 148.5625 C 294.84375 149.011719 295.800781 148.628906 296.25 147.648438 Z M 295.722656 147.40625 C 295.394531 148.121094 294.753906 148.386719 294.039062 148.058594 L 293.21875 147.683594 L 294.296875 145.328125 L 295.117188 145.703125 C 295.84375 146.039062 296.015625 146.757812 295.722656 147.40625 Z M 295.722656 147.40625 "/>
<path fill-rule="nonzero" fill="rgb(0%, 0%, 0%)" fill-opacity="1" d="M 299.128906 144.820312 L 298.585938 144.570312 L 296.253906 149.660156 L 296.796875 149.90625 Z M 299.128906 144.820312 "/>
<path fill-rule="nonzero" fill="rgb(0%, 0%, 0%)" fill-opacity="1" d="M 301.417969 150.015625 L 301.445312 149.957031 C 301.882812 149 301.8125 148.117188 300.726562 147.589844 C 299.746094 147.140625 298.800781 147.742188 298.378906 148.664062 C 297.917969 149.667969 298.203125 150.664062 299.21875 151.128906 C 299.679688 151.339844 300.144531 151.425781 300.613281 151.460938 L 300.867188 150.90625 C 300.222656 150.917969 300.113281 150.9375 299.492188 150.652344 C 298.800781 150.335938 298.574219 149.730469 298.933594 148.945312 L 298.960938 148.886719 Z M 301.082031 149.316406 L 299.191406 148.449219 C 299.460938 148.042969 299.957031 147.808594 300.511719 148.0625 C 301.085938 148.328125 301.292969 148.855469 301.082031 149.316406 Z M 301.082031 149.316406 "/>
<path fill-rule="nonzero" fill="rgb(0%, 0%, 0%)" fill-opacity="1" d="M 302.515625 151.621094 L 301.84375 151.3125 L 301.613281 151.820312 C 301.617188 151.933594 301.585938 152.03125 301.542969 152.125 C 301.421875 152.390625 301.15625 152.601562 300.902344 152.640625 C 301.289062 152.800781 302.101562 152.492188 302.277344 152.136719 Z M 302.515625 151.621094 "/>
<path fill-rule="nonzero" fill="rgb(0%, 0%, 0%)" fill-opacity="1" d="M 306.054688 153.410156 C 306.644531 153.160156 306.945312 153.078125 307.316406 152.96875 C 307.316406 152.96875 307.949219 152.78125 308.335938 152.640625 C 309.351562 152.28125 309.675781 151.996094 309.691406 151.960938 C 309.722656 151.894531 309.652344 151.863281 309.640625 151.855469 C 309.585938 151.828125 309.566406 151.835938 309.488281 151.882812 C 309.105469 152.140625 308.902344 152.1875 308.730469 152.109375 C 308.546875 152.023438 308.519531 151.871094 308.460938 151.691406 C 308.398438 151.46875 308.339844 151.257812 308.097656 151.148438 C 307.542969 150.894531 306.894531 151.421875 306.824219 151.582031 C 306.804688 151.617188 306.808594 151.675781 306.867188 151.699219 C 306.933594 151.734375 306.960938 151.703125 307.007812 151.667969 C 307.304688 151.386719 307.730469 151.582031 307.789062 151.605469 C 307.9375 151.675781 308.054688 151.785156 308.203125 151.921875 C 308.449219 152.175781 308.53125 152.210938 308.714844 152.296875 C 308.308594 152.488281 307.453125 152.738281 307.261719 152.789062 L 306.304688 153.105469 C 305.582031 153.375 305.128906 153.667969 305.101562 153.726562 C 305.070312 153.792969 305.148438 153.832031 305.160156 153.835938 C 305.21875 153.863281 305.234375 153.855469 305.320312 153.796875 C 305.613281 153.613281 305.921875 153.515625 306.164062 153.625 C 306.328125 153.699219 306.375 153.808594 306.464844 154.097656 C 306.507812 154.3125 306.59375 154.492188 306.800781 154.585938 C 307.539062 154.925781 308.394531 154.1875 308.484375 153.992188 C 308.5 153.957031 308.484375 153.894531 308.425781 153.867188 C 308.359375 153.835938 308.324219 153.875 308.277344 153.925781 C 307.886719 154.316406 307.351562 154.238281 307.109375 154.128906 C 306.96875 154.066406 306.851562 153.957031 306.722656 153.839844 C 306.511719 153.632812 306.414062 153.542969 306.261719 153.476562 C 306.25 153.46875 306.136719 153.417969 306.054688 153.410156 Z M 306.054688 153.410156 "/>
<path fill-rule="nonzero" fill="rgb(0%, 0%, 0%)" fill-opacity="1" d="M 297.496094 96.355469 C 297.445312 96.070312 297.277344 95.019531 297.984375 94.710938 C 298.03125 94.691406 298.289062 94.578125 298.550781 94.617188 C 298.289062 94.808594 298.203125 95.132812 298.3125 95.386719 C 298.382812 95.546875 298.578125 95.691406 298.851562 95.574219 C 299.078125 95.476562 299.320312 95.160156 299.140625 94.742188 C 298.910156 94.214844 298.253906 94.328125 297.902344 94.480469 C 297.308594 94.738281 297.191406 95.4375 297.160156 95.71875 C 296.609375 95.15625 296.023438 95.296875 295.71875 95.429688 C 294.660156 95.886719 294.636719 97.460938 294.75 97.71875 C 294.796875 97.832031 294.910156 97.78125 294.925781 97.773438 C 295.007812 97.738281 295.023438 97.695312 295.007812 97.605469 C 294.886719 96.363281 295.449219 95.8125 295.800781 95.660156 C 295.992188 95.578125 296.386719 95.519531 296.644531 96.113281 C 296.785156 96.433594 296.902344 97.183594 297.160156 98.789062 C 297.269531 99.484375 297.089844 100.078125 296.640625 100.273438 C 296.578125 100.300781 296.351562 100.398438 296.070312 100.367188 C 296.300781 100.191406 296.433594 99.886719 296.308594 99.597656 C 296.191406 99.324219 295.929688 99.339844 295.785156 99.402344 C 295.464844 99.542969 295.335938 99.90625 295.484375 100.242188 C 295.683594 100.707031 296.273438 100.699219 296.722656 100.503906 C 297.410156 100.203125 297.46875 99.324219 297.460938 99.265625 C 297.75 99.582031 298.292969 99.820312 298.902344 99.554688 C 299.964844 99.097656 299.96875 97.53125 299.859375 97.273438 C 299.808594 97.160156 299.730469 97.195312 299.695312 97.210938 C 299.601562 97.25 299.605469 97.308594 299.601562 97.386719 C 299.746094 98.636719 299.160156 99.179688 298.839844 99.316406 C 298.4375 99.492188 298.136719 99.242188 297.984375 98.886719 C 297.886719 98.664062 297.835938 98.417969 297.753906 97.917969 Z M 297.496094 96.355469 "/>
<path fill-rule="nonzero" fill="rgb(0%, 0%, 0%)" fill-opacity="1" d="M 372.574219 134.835938 C 372.527344 134.550781 372.355469 133.5 373.0625 133.195312 C 373.113281 133.171875 373.367188 133.0625 373.632812 133.097656 C 373.371094 133.289062 373.285156 133.613281 373.394531 133.871094 C 373.464844 134.03125 373.660156 134.175781 373.933594 134.054688 C 374.15625 133.957031 374.402344 133.640625 374.222656 133.226562 C 373.992188 132.695312 373.335938 132.808594 372.980469 132.960938 C 372.386719 133.21875 372.273438 133.917969 372.242188 134.199219 C 371.691406 133.636719 371.105469 133.777344 370.800781 133.910156 C 369.742188 134.371094 369.71875 135.945312 369.828125 136.199219 C 369.878906 136.3125 369.992188 136.265625 370.007812 136.257812 C 370.085938 136.222656 370.105469 136.175781 370.085938 136.089844 C 369.964844 134.84375 370.527344 134.296875 370.882812 134.140625 C 371.074219 134.058594 371.46875 134 371.726562 134.59375 C 371.867188 134.914062 371.980469 135.667969 372.238281 137.269531 C 372.351562 137.964844 372.171875 138.558594 371.722656 138.753906 C 371.65625 138.78125 371.433594 138.878906 371.152344 138.847656 C 371.378906 138.671875 371.515625 138.367188 371.390625 138.078125 C 371.269531 137.804688 371.011719 137.824219 370.867188 137.886719 C 370.546875 138.023438 370.417969 138.386719 370.5625 138.722656 C 370.765625 139.1875 371.351562 139.179688 371.800781 138.984375 C 372.492188 138.6875 372.546875 137.804688 372.542969 137.75 C 372.832031 138.0625 373.375 138.304688 373.984375 138.039062 C 375.042969 137.578125 375.050781 136.011719 374.9375 135.753906 C 374.890625 135.644531 374.808594 135.679688 374.777344 135.691406 C 374.679688 135.734375 374.6875 135.789062 374.683594 135.867188 C 374.824219 137.121094 374.242188 137.660156 373.917969 137.800781 C 373.519531 137.972656 373.21875 137.722656 373.066406 137.371094 C 372.96875 137.144531 372.917969 136.898438 372.835938 136.402344 Z M 372.574219 134.835938 "/>
<path fill-rule="nonzero" fill="rgb(0%, 0%, 0%)" fill-opacity="1" d="M 330.003906 113.25 L 330.003906 111.34375 C 330.003906 109.769531 328.847656 108.210938 327.605469 108.210938 C 326.730469 108.210938 325.910156 108.945312 325.910156 110.414062 L 325.910156 114.019531 C 325.910156 114.230469 325.910156 114.351562 326.121094 114.351562 C 326.261719 114.351562 326.261719 114.265625 326.261719 114.035156 C 326.261719 113.898438 326.277344 113.6875 326.277344 113.566406 C 326.3125 113.371094 326.328125 113.320312 326.46875 113.320312 C 326.503906 113.320312 326.539062 113.320312 326.679688 113.355469 L 332.664062 114.859375 C 333.097656 114.964844 333.1875 114.980469 333.1875 115.875 C 333.1875 116.046875 333.1875 116.171875 333.398438 116.171875 C 333.535156 116.171875 333.535156 116.046875 333.535156 116.015625 C 333.535156 115.699219 333.5 114.910156 333.5 114.597656 C 333.5 114.351562 333.519531 114.105469 333.519531 113.878906 C 333.519531 113.632812 333.535156 113.390625 333.535156 113.164062 C 333.535156 113.074219 333.535156 112.933594 333.308594 112.933594 C 333.1875 112.933594 333.1875 113.039062 333.1875 113.25 C 333.1875 113.652344 333.1875 113.96875 332.996094 113.96875 C 332.925781 113.96875 332.871094 113.949219 332.800781 113.933594 Z M 326.679688 112.445312 C 326.292969 112.339844 326.261719 112.324219 326.261719 111.832031 L 326.261719 110.765625 C 326.261719 109.839844 326.558594 109.242188 327.328125 109.242188 C 327.765625 109.242188 328.726562 109.472656 329.128906 109.910156 C 329.636719 110.46875 329.722656 111.132812 329.722656 111.621094 L 329.722656 113.199219 Z M 326.679688 112.445312 "/>
<path fill-rule="nonzero" fill="rgb(0%, 0%, 0%)" fill-opacity="1" d="M 332.871094 106.933594 C 333.046875 106.96875 333.308594 107.039062 333.363281 107.039062 C 333.554688 107.039062 333.660156 106.882812 333.660156 106.707031 C 333.660156 106.566406 333.570312 106.375 333.34375 106.289062 C 333.308594 106.269531 331.789062 105.902344 331.578125 105.851562 C 331.210938 105.761719 330.441406 105.554688 330.125 105.5 C 329.984375 105.449219 329.460938 105.132812 329.214844 104.871094 C 329.144531 104.785156 328.847656 104.453125 328.847656 103.980469 C 328.847656 103.683594 328.988281 103.523438 328.988281 103.507812 C 329.042969 103.839844 329.304688 104.085938 329.601562 104.085938 C 329.777344 104.085938 329.984375 103.960938 329.984375 103.664062 C 329.984375 103.367188 329.722656 103.050781 329.320312 103.050781 C 328.9375 103.050781 328.605469 103.402344 328.605469 103.980469 C 328.605469 104.695312 329.144531 105.1875 329.460938 105.394531 C 328.953125 105.5 328.605469 105.902344 328.605469 106.429688 C 328.605469 106.933594 329.042969 107.144531 329.234375 107.25 C 329.617188 107.441406 330.285156 107.582031 330.316406 107.582031 C 330.441406 107.582031 330.441406 107.476562 330.441406 107.460938 C 330.441406 107.335938 330.421875 107.335938 330.179688 107.269531 C 329.390625 107.074219 328.847656 106.847656 328.847656 106.445312 C 328.847656 106.269531 328.9375 106.113281 329.355469 106.113281 C 329.601562 106.113281 329.722656 106.148438 330.300781 106.289062 Z M 332.871094 106.933594 "/>
<path fill-rule="nonzero" fill="rgb(0%, 0%, 0%)" fill-opacity="1" d="M 336.214844 98.882812 C 336.179688 98.882812 336.160156 98.882812 335.96875 99.074219 C 334.570312 100.457031 332.453125 100.824219 330.738281 100.824219 C 328.796875 100.824219 326.855469 100.402344 325.472656 99.023438 C 325.332031 98.882812 325.316406 98.882812 325.28125 98.882812 C 325.191406 98.882812 325.15625 98.917969 325.15625 98.988281 C 325.15625 99.109375 325.925781 100.105469 327.34375 100.773438 C 328.570312 101.332031 329.8125 101.472656 330.738281 101.472656 C 331.613281 101.472656 332.960938 101.347656 334.238281 100.738281 C 335.601562 100.054688 336.335938 99.109375 336.335938 98.988281 C 336.335938 98.917969 336.300781 98.882812 336.214844 98.882812 Z M 336.214844 98.882812 "/>
<path fill-rule="nonzero" fill="rgb(0%, 0%, 0%)" fill-opacity="1" d="M 330.160156 94.511719 C 329.882812 94.441406 328.847656 94.179688 328.847656 93.40625 C 328.847656 93.355469 328.847656 93.074219 328.988281 92.847656 C 329.058594 93.164062 329.320312 93.375 329.601562 93.375 C 329.777344 93.375 329.984375 93.25 329.984375 92.953125 C 329.984375 92.707031 329.792969 92.359375 329.339844 92.359375 C 328.761719 92.359375 328.605469 93.007812 328.605469 93.390625 C 328.605469 94.039062 329.199219 94.421875 329.445312 94.5625 C 328.707031 94.84375 328.605469 95.4375 328.605469 95.769531 C 328.605469 96.925781 330.039062 97.570312 330.316406 97.570312 C 330.441406 97.570312 330.441406 97.449219 330.441406 97.429688 C 330.441406 97.34375 330.40625 97.308594 330.316406 97.292969 C 329.128906 96.90625 328.847656 96.171875 328.847656 95.789062 C 328.847656 95.578125 328.953125 95.191406 329.601562 95.191406 C 329.949219 95.191406 330.683594 95.386719 332.261719 95.789062 C 332.941406 95.960938 333.414062 96.363281 333.414062 96.855469 C 333.414062 96.925781 333.414062 97.167969 333.273438 97.414062 C 333.203125 97.132812 332.976562 96.890625 332.664062 96.890625 C 332.363281 96.890625 332.277344 97.132812 332.277344 97.292969 C 332.277344 97.640625 332.558594 97.902344 332.925781 97.902344 C 333.433594 97.902344 333.660156 97.363281 333.660156 96.871094 C 333.660156 96.121094 332.871094 95.71875 332.820312 95.699219 C 333.222656 95.558594 333.660156 95.15625 333.660156 94.492188 C 333.660156 93.339844 332.226562 92.707031 331.945312 92.707031 C 331.824219 92.707031 331.824219 92.796875 331.824219 92.832031 C 331.824219 92.9375 331.875 92.953125 331.945312 92.988281 C 333.152344 93.355469 333.414062 94.109375 333.414062 94.457031 C 333.414062 94.894531 333.066406 95.070312 332.679688 95.070312 C 332.433594 95.070312 332.191406 95.015625 331.699219 94.894531 Z M 330.160156 94.511719 "/>
<path fill-rule="nonzero" fill="rgb(0%, 0%, 0%)" fill-opacity="1" d="M 330.738281 88.644531 C 329.882812 88.644531 328.535156 88.765625 327.257812 89.378906 C 325.890625 90.042969 325.15625 91.003906 325.15625 91.109375 C 325.15625 91.179688 325.210938 91.230469 325.28125 91.230469 C 325.316406 91.230469 325.332031 91.230469 325.542969 91.023438 C 326.644531 89.917969 328.410156 89.289062 330.738281 89.289062 C 332.664062 89.289062 334.621094 89.691406 336.019531 91.074219 C 336.160156 91.230469 336.179688 91.230469 336.214844 91.230469 C 336.285156 91.230469 336.335938 91.179688 336.335938 91.109375 C 336.335938 91.003906 335.566406 89.988281 334.148438 89.34375 C 332.925781 88.765625 331.683594 88.644531 330.738281 88.644531 Z M 330.738281 88.644531 "/>
<g clip-path="url(#clip-12)">
<g clip-path="url(#clip-13)">
<path fill="none" stroke-width="2.077629" stroke-linecap="square" stroke-linejoin="round" stroke="rgb(81.959534%, 51.371765%, 38.430786%)" stroke-opacity="1" stroke-dasharray="4.155257 4.155257" stroke-miterlimit="4" d="M 459.411106 202.061785 L 487.956944 202.023182 L 493.270702 201.947652 L 496.891826 201.830243 L 499.729068 201.67162 L 502.080718 201.471046 L 504.196509 201.225542 L 506.069504 200.937577 L 507.817633 200.604227 L 509.510266 200.212511 L 511.078033 199.775409 L 512.6458 199.271901 L 514.15807 198.713934 L 515.663403 198.084217 L 517.23117 197.354147 L 518.86137 196.519816 L 520.616436 195.539465 L 522.544927 194.380179 L 525.139373 192.729877 L 529.364018 190.042119 L 531.119085 189.018799 L 532.568922 188.244779 L 533.893893 187.612874 L 535.100934 187.116707 L 536.245543 186.716987 L 537.334655 186.415152 L 538.361334 186.198045 L 539.388013 186.051251 L 540.352259 185.981374 L 541.316504 185.977903 L 542.28075 186.040838 L 543.307429 186.175294 L 544.334108 186.383969 L 545.360787 186.662956 L 546.449899 187.025183 L 547.594508 187.480932 L 548.801549 188.035546 L 550.133457 188.721483 L 551.638791 189.572236 L 553.511786 190.717865 L 556.591823 192.691546 L 559.664923 194.640352 L 561.662785 195.819649 L 563.410914 196.775361 L 565.041114 197.585562 L 566.60888 198.292991 L 568.176647 198.922296 L 569.751351 199.474912 L 571.319117 199.951872 L 572.949317 200.375354 L 574.635013 200.740014 L 576.390079 201.048726 L 578.318571 201.315221 L 580.073637 201.506745 " transform="matrix(0.563102, -0.207057, 0, 1, 0, 0)"/>
</g>
</g>
<g clip-path="url(#clip-14)">
<path fill="none" stroke-width="0.862167" stroke-linecap="butt" stroke-linejoin="round" stroke="rgb(1.176453%, 0%, 0%)" stroke-opacity="1" stroke-miterlimit="4" d="M 361.8178 176.486412 L 434.857436 176.484664 L 434.857436 272.957321 L 361.8178 272.959068 Z M 361.8178 176.486412 " transform="matrix(0.934852, -0.355038, 0, 1, 0, 0)"/>
</g>
<g clip-path="url(#clip-15)">
<g clip-path="url(#clip-16)">
<path fill="none" stroke-width="2.023804" stroke-linecap="square" stroke-linejoin="round" stroke="rgb(27.842712%, 40.391541%, 47.450256%)" stroke-opacity="1" stroke-dasharray="4.047608 4.047608" stroke-miterlimit="4" d="M 411.620371 195.651886 L 441.194374 195.619086 L 443.030819 195.545252 L 444.235369 195.438188 L 445.1503 195.293106 L 445.953334 195.10324 L 446.644469 194.86859 L 447.276364 194.585414 L 447.849019 194.249806 L 448.362434 193.873486 L 448.875848 193.415134 L 449.395845 192.860611 L 449.85002 192.279515 L 450.310777 191.598342 L 450.824191 190.710303 L 451.344188 189.675311 L 451.857603 188.478678 L 452.3776 187.115562 L 452.891015 185.575179 L 453.463669 183.645821 L 454.036324 181.493807 L 454.668219 178.870788 L 455.352772 175.728402 L 456.155806 171.75338 L 457.301115 165.69154 L 458.907182 157.214151 L 459.650975 153.63201 L 460.230212 151.168982 L 460.743627 149.226255 L 461.204383 147.756019 L 461.6059 146.690383 L 461.948177 145.947315 L 462.231213 145.460409 L 462.520831 145.096082 L 462.75121 144.894168 L 462.981588 144.770378 L 463.205384 144.73104 L 463.435763 144.771313 L 463.666141 144.893617 L 463.89652 145.094046 L 464.126898 145.380413 L 464.409934 145.83882 L 464.699553 146.423712 L 465.041829 147.270488 L 465.443346 148.458758 L 465.904103 150.054928 L 466.417517 152.120014 L 466.990172 154.694563 L 467.733965 158.378046 L 468.826617 164.148072 L 470.432684 172.627715 L 471.288375 176.805202 L 472.032168 180.094154 L 472.664063 182.596134 L 473.295958 184.828584 L 473.868613 186.621882 L 474.441268 188.192525 L 474.961265 189.423158 L 475.47468 190.49215 L 475.988094 191.412705 L 476.508091 192.198026 L 477.021506 192.860768 L 477.534921 193.414135 L 478.054918 193.871331 L 478.568332 194.248916 L 479.140987 194.581278 L 479.772882 194.868414 L 480.464017 195.102514 L 481.20781 195.282091 L 482.063502 195.424421 L 483.156153 195.530385 L 484.5845 195.602733 L 486.822461 195.639044 L 492.614832 195.653291 L 526.204002 195.651631 " transform="matrix(0.593453, -0.225679, 0, 1, 0, 0)"/>
</g>
</g>
<g clip-path="url(#clip-17)">
<g clip-path="url(#clip-18)">
<path fill="none" stroke-width="2.029134" stroke-linecap="square" stroke-linejoin="round" stroke="rgb(46.665955%, 23.529053%, 13.725281%)" stroke-opacity="1" stroke-dasharray="4.058268 4.058268" stroke-miterlimit="4" d="M 395.68102 188.50858 L 419.012423 188.47514 L 419.879245 188.405936 L 420.454921 188.298102 L 420.918108 188.15306 L 421.32836 187.949147 L 421.672442 187.698991 L 421.963588 187.421215 L 422.254734 187.061407 L 422.539263 186.598537 L 422.83041 186.016073 L 423.121556 185.285171 L 423.412702 184.382395 L 423.697232 183.2789 L 423.988378 181.946436 L 424.339077 180.002467 L 424.683159 177.642935 L 425.027241 174.826373 L 425.437492 170.93496 L 425.841127 166.366267 L 426.304314 160.36185 L 426.87999 151.855579 L 428.037958 133.391411 L 428.62025 124.855389 L 429.023885 119.759352 L 429.374584 116.206008 L 429.659113 113.926732 L 429.890707 112.604211 L 430.069365 111.918132 L 430.241406 111.503991 L 430.353894 111.381043 L 430.472999 111.380689 L 430.585488 111.503835 L 430.704593 111.749574 L 430.876634 112.347152 L 431.048675 113.210355 L 431.280269 114.758928 L 431.571415 117.297557 L 431.862561 120.429937 L 432.266196 125.650306 L 432.788936 133.389853 L 434.641685 161.934684 L 435.104872 167.73886 L 435.508507 172.11548 L 435.912141 175.820224 L 436.322393 178.87803 L 436.666475 181.022405 L 437.010557 182.772249 L 437.361256 184.175936 L 437.705338 185.285154 L 438.056036 186.141966 L 438.347183 186.700127 L 438.631712 187.139601 L 438.982411 187.543288 L 439.326493 187.8361 L 439.677192 188.048381 L 440.080826 188.214063 L 440.544014 188.338552 L 441.179242 188.431713 L 442.052681 188.485102 L 443.726772 188.505074 L 455.425558 188.50757 L 511.405047 188.508872 " transform="matrix(0.590339, -0.226599, 0, 1, 0, 0)"/>
</g>
</g>
<path fill-rule="nonzero" fill="rgb(0%, 0%, 0%)" fill-opacity="1" d="M 224.308594 64.335938 L 224.308594 62.429688 C 224.308594 60.855469 223.152344 59.296875 221.914062 59.296875 C 221.039062 59.296875 220.214844 60.03125 220.214844 61.503906 L 220.214844 65.105469 C 220.214844 65.316406 220.214844 65.4375 220.425781 65.4375 C 220.566406 65.4375 220.566406 65.351562 220.566406 65.125 C 220.566406 64.984375 220.582031 64.773438 220.582031 64.652344 C 220.617188 64.457031 220.636719 64.40625 220.773438 64.40625 C 220.808594 64.40625 220.84375 64.40625 220.984375 64.441406 L 226.96875 65.945312 C 227.40625 66.050781 227.492188 66.066406 227.492188 66.960938 C 227.492188 67.136719 227.492188 67.257812 227.703125 67.257812 C 227.84375 67.257812 227.84375 67.136719 227.84375 67.101562 C 227.84375 66.785156 227.808594 66 227.808594 65.683594 C 227.808594 65.4375 227.824219 65.195312 227.824219 64.964844 C 227.824219 64.722656 227.84375 64.476562 227.84375 64.25 C 227.84375 64.160156 227.84375 64.019531 227.613281 64.019531 C 227.492188 64.019531 227.492188 64.125 227.492188 64.335938 C 227.492188 64.738281 227.492188 65.054688 227.300781 65.054688 C 227.230469 65.054688 227.175781 65.035156 227.109375 65.019531 Z M 220.984375 63.53125 C 220.601562 63.425781 220.566406 63.410156 220.566406 62.917969 L 220.566406 61.851562 C 220.566406 60.925781 220.863281 60.332031 221.632812 60.332031 C 222.070312 60.332031 223.03125 60.558594 223.433594 60.996094 C 223.941406 61.554688 224.027344 62.21875 224.027344 62.710938 L 224.027344 64.285156 Z M 220.984375 63.53125 "/>
<path fill-rule="nonzero" fill="rgb(0%, 0%, 0%)" fill-opacity="1" d="M 227.175781 58.023438 C 227.351562 58.058594 227.613281 58.125 227.667969 58.125 C 227.859375 58.125 227.964844 57.96875 227.964844 57.792969 C 227.964844 57.65625 227.878906 57.460938 227.648438 57.375 C 227.613281 57.355469 226.09375 56.988281 225.882812 56.9375 C 225.515625 56.851562 224.746094 56.640625 224.429688 56.585938 C 224.292969 56.535156 223.765625 56.21875 223.523438 55.957031 C 223.453125 55.871094 223.152344 55.539062 223.152344 55.066406 C 223.152344 54.769531 223.292969 54.609375 223.292969 54.59375 C 223.347656 54.925781 223.609375 55.171875 223.90625 55.171875 C 224.082031 55.171875 224.292969 55.046875 224.292969 54.75 C 224.292969 54.453125 224.027344 54.136719 223.625 54.136719 C 223.242188 54.136719 222.910156 54.488281 222.910156 55.066406 C 222.910156 55.78125 223.453125 56.273438 223.765625 56.484375 C 223.257812 56.585938 222.910156 56.988281 222.910156 57.515625 C 222.910156 58.023438 223.347656 58.230469 223.539062 58.335938 C 223.925781 58.527344 224.589844 58.667969 224.625 58.667969 C 224.746094 58.667969 224.746094 58.5625 224.746094 58.546875 C 224.746094 58.425781 224.730469 58.425781 224.484375 58.355469 C 223.695312 58.160156 223.152344 57.933594 223.152344 57.53125 C 223.152344 57.355469 223.242188 57.199219 223.660156 57.199219 C 223.90625 57.199219 224.027344 57.234375 224.605469 57.375 Z M 227.175781 58.023438 "/>
<path fill-rule="nonzero" fill="rgb(0%, 0%, 0%)" fill-opacity="1" d="M 230.519531 49.96875 C 230.484375 49.96875 230.464844 49.96875 230.273438 50.160156 C 228.875 51.542969 226.757812 51.910156 225.042969 51.910156 C 223.101562 51.910156 221.160156 51.492188 219.777344 50.109375 C 219.636719 49.96875 219.621094 49.96875 219.585938 49.96875 C 219.5 49.96875 219.464844 50.003906 219.464844 50.074219 C 219.464844 50.195312 220.234375 51.195312 221.648438 51.859375 C 222.875 52.417969 224.117188 52.558594 225.042969 52.558594 C 225.917969 52.558594 227.265625 52.433594 228.542969 51.824219 C 229.90625 51.140625 230.640625 50.195312 230.640625 50.074219 C 230.640625 50.003906 230.605469 49.96875 230.519531 49.96875 Z M 230.519531 49.96875 "/>
<path fill-rule="nonzero" fill="rgb(0%, 0%, 0%)" fill-opacity="1" d="M 224.464844 45.597656 C 224.1875 45.527344 223.152344 45.265625 223.152344 44.496094 C 223.152344 44.441406 223.152344 44.164062 223.292969 43.933594 C 223.363281 44.25 223.625 44.460938 223.90625 44.460938 C 224.082031 44.460938 224.292969 44.335938 224.292969 44.039062 C 224.292969 43.796875 224.097656 43.445312 223.644531 43.445312 C 223.066406 43.445312 222.910156 44.09375 222.910156 44.476562 C 222.910156 45.125 223.503906 45.507812 223.75 45.648438 C 223.015625 45.929688 222.910156 46.523438 222.910156 46.855469 C 222.910156 48.011719 224.34375 48.65625 224.625 48.65625 C 224.746094 48.65625 224.746094 48.535156 224.746094 48.519531 C 224.746094 48.429688 224.710938 48.394531 224.625 48.378906 C 223.433594 47.992188 223.152344 47.257812 223.152344 46.875 C 223.152344 46.664062 223.257812 46.277344 223.90625 46.277344 C 224.257812 46.277344 224.992188 46.472656 226.566406 46.875 C 227.246094 47.046875 227.71875 47.449219 227.71875 47.941406 C 227.71875 48.011719 227.71875 48.253906 227.578125 48.5 C 227.511719 48.222656 227.28125 47.976562 226.96875 47.976562 C 226.671875 47.976562 226.582031 48.222656 226.582031 48.378906 C 226.582031 48.726562 226.863281 48.992188 227.230469 48.992188 C 227.738281 48.992188 227.964844 48.449219 227.964844 47.957031 C 227.964844 47.207031 227.175781 46.804688 227.125 46.785156 C 227.527344 46.644531 227.964844 46.242188 227.964844 45.578125 C 227.964844 44.425781 226.53125 43.796875 226.25 43.796875 C 226.128906 43.796875 226.128906 43.882812 226.128906 43.917969 C 226.128906 44.023438 226.179688 44.039062 226.25 44.074219 C 227.457031 44.441406 227.71875 45.195312 227.71875 45.542969 C 227.71875 45.980469 227.371094 46.15625 226.984375 46.15625 C 226.742188 46.15625 226.496094 46.105469 226.003906 45.980469 Z M 224.464844 45.597656 "/>
<path fill-rule="nonzero" fill="rgb(0%, 0%, 0%)" fill-opacity="1" d="M 227.824219 40.675781 C 227.089844 40.675781 226.652344 40.953125 226.652344 41.390625 C 226.652344 41.757812 226.933594 41.988281 227.246094 41.988281 C 227.542969 41.988281 227.84375 41.757812 227.84375 41.390625 C 227.84375 41.269531 227.789062 41.113281 227.703125 41.007812 C 227.667969 40.972656 227.667969 40.953125 227.667969 40.953125 C 227.667969 40.9375 227.667969 40.9375 227.824219 40.9375 C 228.664062 40.9375 229.328125 41.320312 229.695312 41.6875 C 229.820312 41.8125 229.835938 41.8125 229.871094 41.8125 C 229.957031 41.8125 229.992188 41.757812 229.992188 41.707031 C 229.992188 41.585938 229.136719 40.675781 227.824219 40.675781 Z M 227.824219 40.675781 "/>
<path fill-rule="nonzero" fill="rgb(0%, 0%, 0%)" fill-opacity="1" d="M 226.914062 36.5 C 226.269531 35.90625 225.988281 35.574219 225.636719 35.171875 C 225.636719 35.171875 225.042969 34.488281 224.640625 34.085938 C 223.609375 33.019531 223.066406 32.773438 223.015625 32.773438 C 222.910156 32.773438 222.910156 32.878906 222.910156 32.898438 C 222.910156 32.984375 222.925781 33 223.03125 33.070312 C 223.574219 33.402344 223.75 33.632812 223.75 33.894531 C 223.75 34.175781 223.574219 34.296875 223.382812 34.472656 C 223.136719 34.679688 222.910156 34.875 222.910156 35.242188 C 222.910156 36.082031 223.941406 36.589844 224.1875 36.589844 C 224.238281 36.589844 224.308594 36.554688 224.308594 36.464844 C 224.308594 36.359375 224.257812 36.34375 224.1875 36.308594 C 223.660156 36.097656 223.660156 35.449219 223.660156 35.363281 C 223.660156 35.136719 223.730469 34.925781 223.820312 34.664062 C 223.992188 34.207031 223.992188 34.085938 223.992188 33.804688 C 224.464844 34.207031 225.269531 35.136719 225.445312 35.347656 L 226.390625 36.359375 C 227.144531 37.113281 227.773438 37.515625 227.859375 37.515625 C 227.964844 37.515625 227.964844 37.394531 227.964844 37.375 C 227.964844 37.289062 227.945312 37.269531 227.824219 37.199219 C 227.421875 36.9375 227.125 36.605469 227.125 36.238281 C 227.125 35.992188 227.230469 35.871094 227.542969 35.589844 C 227.789062 35.414062 227.964844 35.207031 227.964844 34.890625 C 227.964844 33.773438 226.546875 33.125 226.25 33.125 C 226.199219 33.125 226.128906 33.175781 226.128906 33.265625 C 226.128906 33.371094 226.199219 33.386719 226.285156 33.421875 C 227.003906 33.683594 227.210938 34.402344 227.210938 34.769531 C 227.210938 34.980469 227.144531 35.1875 227.074219 35.414062 C 226.933594 35.800781 226.878906 35.976562 226.878906 36.203125 C 226.878906 36.21875 226.878906 36.394531 226.914062 36.5 Z M 226.914062 36.5 "/>
<path fill-rule="nonzero" fill="rgb(0%, 0%, 0%)" fill-opacity="1" d="M 225.042969 29.09375 C 224.1875 29.09375 222.839844 29.21875 221.5625 29.828125 C 220.199219 30.496094 219.464844 31.457031 219.464844 31.5625 C 219.464844 31.632812 219.515625 31.683594 219.585938 31.683594 C 219.621094 31.683594 219.636719 31.683594 219.847656 31.472656 C 220.949219 30.371094 222.71875 29.742188 225.042969 29.742188 C 226.96875 29.742188 228.925781 30.144531 230.328125 31.527344 C 230.464844 31.683594 230.484375 31.683594 230.519531 31.683594 C 230.589844 31.683594 230.640625 31.632812 230.640625 31.5625 C 230.640625 31.457031 229.871094 30.441406 228.453125 29.792969 C 227.230469 29.21875 225.988281 29.09375 225.042969 29.09375 Z M 225.042969 29.09375 "/>
<g clip-path="url(#clip-19)">
<use xlink:href="#source-14" transform="matrix(1, 0, 0, 1, 19, 7)"/>
</g>
<path fill-rule="nonzero" fill="rgb(77.645874%, 80.39093%, 81.175232%)" fill-opacity="1" stroke-width="2.721264" stroke-linecap="butt" stroke-linejoin="round" stroke="rgb(77.645874%, 80.39093%, 81.175232%)" stroke-opacity="1" stroke-miterlimit="4" d="M 270.25 112.636719 L 320.777344 135.496094 "/>
<path fill-rule="evenodd" fill="rgb(77.645874%, 80.39093%, 81.175232%)" fill-opacity="1" stroke-width="0.531273" stroke-linecap="butt" stroke-linejoin="round" stroke="rgb(77.645874%, 80.39093%, 81.175232%)" stroke-opacity="1" stroke-miterlimit="4" d="M -317.153121 8.009668 L -314.496865 5.350731 L -323.794894 8.007131 L -314.495652 10.662682 Z M -317.153121 8.009668 " transform="matrix(-1, -0.452481, 0.452481, -1, 0, 0)"/>
<path fill-rule="nonzero" fill="rgb(0%, 0%, 0%)" fill-opacity="1" d="M 214.019531 113.964844 C 214.171875 113.28125 214.289062 112.957031 214.425781 112.554688 C 214.425781 112.554688 214.660156 111.875 214.777344 111.4375 C 215.101562 110.304688 215.054688 109.832031 215.035156 109.796875 C 214.992188 109.726562 214.917969 109.765625 214.90625 109.773438 C 214.847656 109.808594 214.84375 109.828125 214.835938 109.925781 C 214.824219 110.433594 214.734375 110.644531 214.554688 110.746094 C 214.363281 110.859375 214.207031 110.789062 214.011719 110.722656 C 213.769531 110.640625 213.546875 110.558594 213.292969 110.707031 C 212.714844 111.039062 212.777344 111.953125 212.875 112.121094 C 212.894531 112.15625 212.945312 112.191406 213.007812 112.15625 C 213.078125 112.113281 213.070312 112.070312 213.066406 112.007812 C 213.003906 111.5625 213.449219 111.304688 213.507812 111.273438 C 213.664062 111.179688 213.835938 111.144531 214.050781 111.101562 C 214.433594 111.042969 214.519531 110.992188 214.710938 110.882812 C 214.621094 111.367188 214.304688 112.289062 214.230469 112.492188 L 213.90625 113.546875 C 213.6875 114.363281 213.660156 114.957031 213.695312 115.019531 C 213.738281 115.089844 213.820312 115.042969 213.832031 115.035156 C 213.894531 115 213.898438 114.980469 213.898438 114.867188 C 213.917969 114.488281 214.03125 114.148438 214.28125 114.003906 C 214.453125 113.90625 214.578125 113.929688 214.894531 114.035156 C 215.113281 114.136719 215.328125 114.171875 215.542969 114.046875 C 216.316406 113.601562 216.195312 112.367188 216.078125 112.164062 C 216.058594 112.128906 215.992188 112.101562 215.933594 112.136719 C 215.863281 112.175781 215.878906 112.230469 215.886719 112.304688 C 215.992188 112.90625 215.582031 113.335938 215.328125 113.480469 C 215.183594 113.5625 215.011719 113.597656 214.828125 113.640625 C 214.507812 113.699219 214.367188 113.730469 214.210938 113.820312 C 214.199219 113.828125 214.078125 113.898438 214.019531 113.964844 Z M 214.019531 113.964844 "/>
<path fill-rule="nonzero" fill="rgb(0%, 0%, 0%)" fill-opacity="1" d="M 223.226562 106.140625 C 223.347656 106.070312 223.492188 105.988281 223.410156 105.84375 C 223.320312 105.6875 223.175781 105.769531 223.066406 105.832031 L 218.464844 108.488281 C 218.355469 108.550781 218.210938 108.636719 218.304688 108.792969 C 218.386719 108.9375 218.53125 108.855469 218.640625 108.792969 Z M 224.101562 107.628906 C 224.210938 107.566406 224.355469 107.480469 224.265625 107.324219 C 224.179688 107.179688 224.035156 107.265625 223.917969 107.335938 L 219.328125 109.984375 C 219.21875 110.046875 219.074219 110.128906 219.15625 110.273438 C 219.25 110.429688 219.394531 110.347656 219.5 110.285156 Z M 224.101562 107.628906 "/>
<path fill-rule="nonzero" fill="rgb(0%, 0%, 0%)" fill-opacity="1" d="M 226.941406 100.800781 C 226.832031 100.609375 226.824219 100.597656 226.644531 100.703125 C 226.445312 101.472656 225.773438 101.863281 225.53125 102.003906 L 225.667969 102.242188 C 225.828125 102.152344 226.273438 101.894531 226.550781 101.460938 L 228.851562 105.449219 C 229.011719 105.726562 229.039062 105.824219 228.351562 106.21875 L 228.109375 106.359375 L 228.25 106.597656 C 228.5 106.421875 229.164062 106.039062 229.476562 105.859375 C 229.777344 105.683594 230.453125 105.296875 230.730469 105.167969 L 230.589844 104.925781 L 230.351562 105.066406 C 229.652344 105.46875 229.589844 105.390625 229.429688 105.113281 Z M 226.941406 100.800781 "/>
<path fill-rule="nonzero" fill="rgb(0%, 0%, 0%)" fill-opacity="1" d="M 225.648438 118.027344 C 225.800781 117.34375 225.917969 117.019531 226.058594 116.621094 C 226.058594 116.621094 226.289062 115.9375 226.40625 115.5 C 226.730469 114.367188 226.683594 113.894531 226.664062 113.859375 C 226.621094 113.789062 226.550781 113.828125 226.539062 113.835938 C 226.476562 113.871094 226.472656 113.890625 226.464844 113.992188 C 226.453125 114.496094 226.367188 114.707031 226.1875 114.8125 C 225.992188 114.921875 225.839844 114.851562 225.640625 114.789062 C 225.402344 114.703125 225.175781 114.621094 224.925781 114.769531 C 224.347656 115.101562 224.40625 116.015625 224.503906 116.183594 C 224.527344 116.21875 224.578125 116.253906 224.636719 116.21875 C 224.710938 116.175781 224.703125 116.132812 224.699219 116.070312 C 224.632812 115.628906 225.078125 115.371094 225.140625 115.335938 C 225.296875 115.246094 225.46875 115.210938 225.683594 115.164062 C 226.066406 115.105469 226.152344 115.054688 226.34375 114.945312 C 226.253906 115.429688 225.9375 116.351562 225.859375 116.554688 L 225.539062 117.609375 C 225.320312 118.425781 225.292969 119.019531 225.328125 119.082031 C 225.367188 119.152344 225.453125 119.105469 225.464844 119.097656 C 225.523438 119.0625 225.53125 119.042969 225.53125 118.933594 C 225.550781 118.550781 225.660156 118.214844 225.914062 118.066406 C 226.082031 117.96875 226.207031 117.992188 226.527344 118.097656 C 226.746094 118.199219 226.957031 118.234375 227.175781 118.109375 C 227.945312 117.664062 227.828125 116.433594 227.710938 116.226562 C 227.6875 116.191406 227.625 116.164062 227.566406 116.199219 C 227.492188 116.242188 227.507812 116.296875 227.519531 116.371094 C 227.625 116.96875 227.214844 117.398438 226.960938 117.542969 C 226.816406 117.628906 226.644531 117.664062 226.460938 117.703125 C 226.136719 117.761719 225.996094 117.792969 225.839844 117.886719 C 225.828125 117.890625 225.707031 117.960938 225.648438 118.027344 Z M 225.648438 118.027344 "/>
<path fill-rule="nonzero" fill="rgb(0%, 0%, 0%)" fill-opacity="1" d="M 234.859375 110.203125 C 234.980469 110.136719 235.125 110.050781 235.039062 109.90625 C 234.949219 109.75 234.804688 109.835938 234.699219 109.898438 L 230.097656 112.554688 C 229.988281 112.617188 229.84375 112.699219 229.933594 112.855469 C 230.015625 113 230.160156 112.917969 230.269531 112.855469 Z M 235.734375 111.691406 C 235.84375 111.628906 235.988281 111.546875 235.894531 111.390625 C 235.8125 111.246094 235.667969 111.328125 235.546875 111.398438 L 230.957031 114.046875 C 230.851562 114.109375 230.707031 114.191406 230.789062 114.335938 C 230.878906 114.492188 231.023438 114.410156 231.132812 114.347656 Z M 235.734375 111.691406 "/>
<path fill-rule="nonzero" fill="rgb(0%, 0%, 0%)" fill-opacity="1" d="M 239.78125 109.933594 L 240.140625 108.664062 C 240.722656 106.917969 240.941406 106.242188 240.496094 105.472656 C 239.988281 104.59375 238.949219 104.375 238.007812 104.917969 C 237.140625 105.417969 236.984375 106.457031 237.382812 107.140625 C 237.625 107.5625 238.011719 107.339844 238.035156 107.328125 C 238.167969 107.25 238.382812 107.015625 238.195312 106.6875 C 238.085938 106.496094 237.820312 106.375 237.558594 106.527344 C 237.496094 106.5625 237.484375 106.570312 237.46875 106.59375 C 237.34375 105.992188 237.605469 105.472656 238.050781 105.214844 C 238.75 104.8125 239.4375 105.25 239.796875 105.875 C 240.152344 106.488281 240.128906 107.308594 239.972656 108.039062 L 239.449219 110.527344 C 239.414062 110.660156 239.425781 110.683594 239.53125 110.863281 L 242.386719 109.214844 L 241.816406 107.761719 L 241.636719 107.863281 C 241.722656 108.121094 241.867188 108.488281 241.851562 108.65625 C 241.839844 108.742188 241.335938 109.035156 241.164062 109.132812 Z M 239.78125 109.933594 "/>
<path fill-rule="nonzero" fill="rgb(0%, 0%, 0%)" fill-opacity="1" d="M 237.570312 122.410156 C 237.722656 121.730469 237.839844 121.40625 237.976562 121.003906 C 237.976562 121.003906 238.210938 120.324219 238.328125 119.886719 C 238.652344 118.75 238.605469 118.28125 238.585938 118.246094 C 238.542969 118.171875 238.46875 118.214844 238.457031 118.21875 C 238.398438 118.253906 238.394531 118.273438 238.386719 118.375 C 238.375 118.878906 238.285156 119.089844 238.105469 119.195312 C 237.914062 119.304688 237.757812 119.234375 237.5625 119.171875 C 237.320312 119.085938 237.097656 119.007812 236.84375 119.152344 C 236.265625 119.484375 236.328125 120.398438 236.425781 120.566406 C 236.445312 120.601562 236.496094 120.636719 236.558594 120.601562 C 236.628906 120.5625 236.621094 120.519531 236.617188 120.457031 C 236.554688 120.011719 237 119.753906 237.058594 119.71875 C 237.214844 119.628906 237.386719 119.59375 237.605469 119.550781 C 237.984375 119.488281 238.070312 119.441406 238.261719 119.328125 C 238.175781 119.8125 237.855469 120.738281 237.78125 120.941406 L 237.457031 121.996094 C 237.238281 122.8125 237.210938 123.40625 237.246094 123.464844 C 237.289062 123.539062 237.371094 123.488281 237.386719 123.480469 C 237.445312 123.445312 237.449219 123.429688 237.449219 123.316406 C 237.46875 122.933594 237.582031 122.597656 237.832031 122.453125 C 238.003906 122.355469 238.128906 122.378906 238.445312 122.484375 C 238.664062 122.582031 238.878906 122.621094 239.09375 122.492188 C 239.867188 122.050781 239.75 120.816406 239.628906 120.613281 C 239.609375 120.574219 239.546875 120.546875 239.484375 120.582031 C 239.414062 120.625 239.429688 120.679688 239.4375 120.753906 C 239.542969 121.351562 239.132812 121.78125 238.878906 121.925781 C 238.734375 122.011719 238.5625 122.046875 238.378906 122.089844 C 238.058594 122.144531 237.917969 122.179688 237.761719 122.269531 C 237.75 122.277344 237.628906 122.34375 237.570312 122.410156 Z M 237.570312 122.410156 "/>
<path fill-rule="nonzero" fill="rgb(0%, 0%, 0%)" fill-opacity="1" d="M 246.777344 114.589844 C 246.898438 114.519531 247.042969 114.4375 246.960938 114.292969 C 246.871094 114.136719 246.726562 114.21875 246.617188 114.28125 L 242.015625 116.9375 C 241.90625 117 241.761719 117.082031 241.855469 117.238281 C 241.9375 117.382812 242.082031 117.300781 242.191406 117.238281 Z M 247.652344 116.074219 C 247.761719 116.011719 247.90625 115.929688 247.816406 115.773438 C 247.734375 115.628906 247.589844 115.710938 247.46875 115.78125 L 242.878906 118.429688 C 242.769531 118.492188 242.625 118.578125 242.710938 118.722656 C 242.800781 118.878906 242.945312 118.792969 243.050781 118.730469 Z M 247.652344 116.074219 "/>
<path fill-rule="nonzero" fill="rgb(0%, 0%, 0%)" fill-opacity="1" d="M 251.730469 111.472656 C 252.238281 110.90625 252.375 110.121094 252.023438 109.507812 C 251.660156 108.878906 250.734375 108.835938 250 109.261719 C 249.230469 109.703125 248.90625 110.503906 249.246094 111.09375 C 249.390625 111.347656 249.644531 111.394531 249.871094 111.261719 C 250.101562 111.128906 250.160156 110.871094 250.027344 110.640625 C 249.8125 110.269531 249.449219 110.476562 249.34375 110.539062 C 249.347656 110.023438 249.800781 109.632812 250.078125 109.472656 C 250.402344 109.285156 250.921875 109.210938 251.316406 109.898438 C 251.371094 109.992188 251.605469 110.453125 251.609375 110.902344 C 251.59375 111.40625 251.34375 111.585938 251.152344 111.695312 C 251.097656 111.742188 250.921875 111.859375 250.863281 111.894531 C 250.808594 111.941406 250.769531 111.980469 250.8125 112.050781 C 250.859375 112.136719 250.90625 112.109375 251.039062 112.03125 L 251.378906 111.839844 C 252.003906 111.476562 252.589844 111.828125 253.03125 112.585938 C 253.632812 113.632812 253.230469 114.15625 252.890625 114.351562 C 252.554688 114.546875 251.902344 114.746094 251.378906 114.453125 C 251.664062 114.339844 251.808594 114.03125 251.640625 113.742188 C 251.480469 113.464844 251.1875 113.425781 250.96875 113.550781 C 250.777344 113.664062 250.597656 113.910156 250.792969 114.246094 C 251.195312 114.945312 252.199219 115.042969 253.042969 114.554688 C 253.980469 114.011719 254.277344 112.910156 253.824219 112.128906 C 253.464844 111.5 252.621094 111.183594 251.730469 111.472656 Z M 251.730469 111.472656 "/>
<path fill-rule="nonzero" fill="rgb(0%, 0%, 0%)" fill-opacity="1" d="M 4.492188 5.839844 C 4.492188 4.550781 3.5625 3.660156 2.394531 3.660156 C 1.582031 3.660156 1.007812 3.859375 0.414062 4.195312 L 0.496094 5.027344 C 1.148438 4.570312 1.78125 4.414062 2.394531 4.414062 C 2.988281 4.414062 3.503906 4.910156 3.503906 5.839844 L 3.503906 6.394531 C 1.601562 6.414062 0 6.945312 0 8.054688 C 0 8.589844 0.335938 9.621094 1.445312 9.621094 C 1.621094 9.621094 2.808594 9.597656 3.542969 9.027344 L 3.542969 9.480469 L 4.492188 9.480469 Z M 3.503906 7.816406 C 3.503906 8.054688 3.503906 8.371094 3.066406 8.609375 C 2.710938 8.828125 2.214844 8.847656 2.078125 8.847656 C 1.484375 8.847656 0.910156 8.550781 0.910156 8.035156 C 0.910156 7.144531 2.949219 7.066406 3.503906 7.027344 Z M 3.503906 7.816406 "/>
<path fill-rule="nonzero" fill="rgb(0%, 0%, 0%)" fill-opacity="1" d="M 6.996094 12.648438 C 7.390625 12.25 8.242188 11.480469 8.816406 9.9375 C 9.332031 8.589844 9.410156 7.242188 9.410156 6.3125 C 9.410156 2.238281 7.589844 0.574219 6.996094 0 L 6.222656 0 C 6.816406 0.613281 8.421875 2.238281 8.421875 6.3125 C 8.421875 7.027344 8.378906 8.511719 7.867188 9.996094 C 7.351562 11.460938 6.640625 12.210938 6.222656 12.648438 Z M 6.996094 12.648438 "/>
<path fill-rule="nonzero" fill="rgb(0%, 0%, 0%)" fill-opacity="1" d="M 210.160156 0.988281 L 209.210938 0.988281 L 209.210938 9.757812 L 210.203125 9.757812 L 210.203125 9.183594 C 210.5 9.460938 211.050781 9.894531 211.902344 9.894531 C 213.152344 9.894531 214.238281 8.628906 214.238281 6.945312 C 214.238281 5.382812 213.386719 4.015625 212.199219 4.015625 C 211.707031 4.015625 210.914062 4.136719 210.160156 4.75 Z M 210.203125 5.523438 C 210.398438 5.226562 210.855469 4.789062 211.546875 4.789062 C 212.300781 4.789062 213.25 5.324219 213.25 6.945312 C 213.25 8.589844 212.199219 9.125 211.429688 9.125 C 210.933594 9.125 210.519531 8.90625 210.203125 8.3125 Z M 210.203125 5.523438 "/>
<path fill-rule="nonzero" fill="rgb(0%, 0%, 0%)" fill-opacity="1" d="M 216.1875 12.925781 C 216.582031 12.527344 217.433594 11.757812 218.007812 10.210938 C 218.523438 8.867188 218.601562 7.519531 218.601562 6.589844 C 218.601562 2.511719 216.78125 0.851562 216.1875 0.277344 L 215.417969 0.277344 C 216.011719 0.890625 217.613281 2.511719 217.613281 6.589844 C 217.613281 7.304688 217.574219 8.789062 217.058594 10.273438 C 216.542969 11.738281 215.832031 12.488281 215.417969 12.925781 Z M 216.1875 12.925781 "/>
<path fill="none" stroke-width="0.850394" stroke-linecap="butt" stroke-linejoin="round" stroke="rgb(1.176453%, 0%, 0%)" stroke-opacity="1" stroke-miterlimit="4" d="M 18.597656 0.617188 L 187.722656 0.617188 L 187.722656 145.105469 L 18.597656 145.105469 Z M 18.597656 0.617188 "/>
<path fill="none" stroke-width="0.850394" stroke-linecap="butt" stroke-linejoin="round" stroke="rgb(0%, 0%, 0%)" stroke-opacity="1" stroke-miterlimit="10" d="M 327.621094 81.542969 L 259.359375 107.300781 "/>
</svg>
