<?xml version="1.0" encoding="UTF-8"?>
<svg xmlns="http://www.w3.org/2000/svg" xmlns:xlink="http://www.w3.org/1999/xlink" width="190.129425pt" height="144.574539pt" viewBox="0 0 190.129425 144.574539">
<defs>
<clipPath id="clip-0">
<path clip-rule="nonzero" d="M 141 32 L 183 32 L 183 120 L 141 120 Z M 141 32 "/>
</clipPath>
<clipPath id="clip-1">
<path clip-rule="nonzero" d="M 21.480469 25.0625 L 21.480469 145.421875 L 182.148438 142.175781 L 182.148438 21.816406 Z M 21.480469 25.0625 "/>
</clipPath>
<clipPath id="clip-2">
<path clip-rule="nonzero" d="M 101 29 L 144 29 L 144 41 L 101 41 Z M 101 29 "/>
</clipPath>
<clipPath id="clip-3">
<path clip-rule="nonzero" d="M 21.480469 25.0625 L 21.480469 145.421875 L 182.148438 142.175781 L 182.148438 21.816406 Z M 21.480469 25.0625 "/>
</clipPath>
<clipPath id="clip-4">
<path clip-rule="nonzero" d="M 61 38 L 104 38 L 104 78 L 61 78 Z M 61 38 "/>
</clipPath>
<clipPath id="clip-5">
<path clip-rule="nonzero" d="M 21.480469 25.0625 L 21.480469 145.421875 L 182.148438 142.175781 L 182.148438 21.816406 Z M 21.480469 25.0625 "/>
</clipPath>
<clipPath id="clip-6">
<path clip-rule="nonzero" d="M 21 75 L 64 75 L 64 132 L 21 132 Z M 21 75 "/>
</clipPath>
<clipPath id="clip-7">
<path clip-rule="nonzero" d="M 21.480469 25.0625 L 21.480469 145.421875 L 182.148438 142.175781 L 182.148438 21.816406 Z M 21.480469 25.0625 "/>
</clipPath>
</defs>
<path fill="none" stroke-width="0.854192" stroke-linecap="butt" stroke-linejoin="miter" stroke="rgb(25.881958%, 29.411316%, 31.37207%)" stroke-opacity="0.427451" stroke-dasharray="1.708383 1.708383" stroke-miterlimit="4" d="M 122.679688 131.215052 L 122.679688 44.79197 " transform="matrix(1, 0, 0, 0.991127, 0, 0)"/>
<path fill="none" stroke-width="0.854298" stroke-linecap="butt" stroke-linejoin="miter" stroke="rgb(25.881958%, 29.411316%, 31.37207%)" stroke-opacity="1" stroke-dasharray="2.562895 0.854298" stroke-miterlimit="4" d="M 74.914062 81.957679 L 61.414062 111.47742 " transform="matrix(1, 0, 0, 0.991127, 0, 0)"/>
<path fill-rule="evenodd" fill="rgb(0%, 0%, 0%)" fill-opacity="1" d="M 71.171875 84.40625 L 75.375 80.207031 L 74.917969 86.101562 C 74.183594 84.792969 72.671875 84.113281 71.171875 84.40625 Z M 71.171875 84.40625 "/>
<path fill="none" stroke-width="0.854298" stroke-linecap="butt" stroke-linejoin="miter" stroke="rgb(25.881958%, 29.411316%, 31.37207%)" stroke-opacity="1" stroke-dasharray="2.562895 0.854298" stroke-miterlimit="4" d="M 106.261719 60.29279 L 77.765625 77.79575 " transform="matrix(1, 0, 0, 0.991127, 0, 0)"/>
<path fill-rule="evenodd" fill="rgb(0%, 0%, 0%)" fill-opacity="1" d="M 101.371094 60.328125 L 107.222656 59.164062 L 103.527344 63.808594 C 103.652344 62.316406 102.777344 60.914062 101.371094 60.328125 Z M 101.371094 60.328125 "/>
<path fill="none" stroke-width="0.854298" stroke-linecap="butt" stroke-linejoin="miter" stroke="rgb(25.881958%, 29.411316%, 31.37207%)" stroke-opacity="1" stroke-dasharray="2.562895 0.854298" stroke-miterlimit="4" d="M 120.726562 45.934924 L 110.664062 57.167403 " transform="matrix(1, 0, 0, 0.991127, 0, 0)"/>
<path fill-rule="evenodd" fill="rgb(0%, 0%, 0%)" fill-opacity="1" d="M 116.207031 47.460938 L 121.476562 44.6875 L 119.273438 50.183594 C 118.964844 48.71875 117.722656 47.621094 116.207031 47.460938 Z M 116.207031 47.460938 "/>
<path fill="none" stroke-width="1.417323" stroke-linecap="butt" stroke-linejoin="miter" stroke="rgb(81.959534%, 51.371765%, 38.430786%)" stroke-opacity="1" stroke-miterlimit="4" d="M 40.503906 125.003906 C 40.503906 125.003906 42.703125 121.523438 44.070312 119.996094 C 45.285156 118.636719 46.644531 117.382812 48.144531 116.347656 C 49.402344 115.472656 50.808594 114.820312 52.21875 114.222656 C 54.140625 113.414062 56.117188 112.6875 58.160156 112.269531 C 59.132812 112.074219 60.136719 112.003906 61.132812 112.015625 C 63.152344 112.042969 65.226562 112.097656 67.160156 112.695312 C 69.238281 113.339844 71.425781 114.445312 73.320312 115.511719 C 75.390625 116.675781 77.136719 117.988281 79.042969 119.402344 C 80.675781 120.613281 82.039062 121.65625 83.457031 122.882812 C 84.578125 123.851562 86.683594 125.9375 86.683594 125.9375 "/>
<path fill="none" stroke-width="1.423831" stroke-linecap="butt" stroke-linejoin="miter" stroke="rgb(62.744141%, 85.096741%, 82.743835%)" stroke-opacity="1" stroke-miterlimit="4" d="M 49.925781 106.874075 C 50.191406 106.357775 52.507812 101.904196 53.574219 99.838996 C 64.351562 78.899292 84.5625 71.812978 104.113281 79.951598 C 108.71875 81.870972 114.136719 87.171914 117.550781 90.959427 " transform="matrix(1, 0, 0, 0.991127, 0, 0)"/>
<path fill-rule="evenodd" fill="rgb(100%, 100%, 100%)" fill-opacity="1" d="M 91.480469 79.316406 L 121.53125 79.316406 L 121.53125 107.585938 L 91.480469 107.585938 Z M 91.480469 79.316406 "/>
<path fill="none" stroke-width="0.854192" stroke-linecap="butt" stroke-linejoin="miter" stroke="rgb(25.881958%, 29.411316%, 31.37207%)" stroke-opacity="0.427451" stroke-dasharray="1.708383 1.708383" stroke-miterlimit="4" d="M 60.71875 131.215052 L 60.71875 113.428325 " transform="matrix(1, 0, 0, 0.991127, 0, 0)"/>
<g clip-path="url(#clip-0)">
<g clip-path="url(#clip-1)">
<path fill="none" stroke-width="1.991512" stroke-linecap="butt" stroke-linejoin="round" stroke="rgb(25.881958%, 29.411316%, 31.37207%)" stroke-opacity="1" stroke-miterlimit="4" d="M 142.335938 -38.487883 L 142.753906 -38.726985 L 143.144531 -38.965504 L 143.5625 -39.237493 L 143.953125 -39.50479 L 144.34375 -39.776197 L 144.761719 -40.044075 L 145.152344 -40.344258 L 145.570312 -40.645024 L 145.960938 -40.973984 L 146.347656 -41.274085 L 146.769531 -41.60371 L 147.160156 -41.961447 L 147.578125 -42.290989 L 147.96875 -42.652837 L 148.355469 -43.010491 L 148.777344 -43.40178 L 149.164062 -43.788211 L 149.585938 -44.1795 L 149.972656 -44.598818 L 150.394531 -45.018884 L 150.78125 -45.438202 L 151.171875 -45.857603 L 151.59375 -46.306445 L 151.980469 -46.783317 L 152.402344 -47.23627 L 152.789062 -47.713141 L 153.179688 -48.222983 L 153.597656 -48.733407 L 153.988281 -49.243249 L 154.410156 -49.782532 L 154.796875 -50.321067 L 155.1875 -50.859686 L 155.605469 -51.427662 L 155.996094 -51.999168 L 156.414062 -52.595921 L 157.195312 -53.796487 L 157.613281 -54.426127 L 158.003906 -55.083963 L 158.421875 -55.713604 L 158.8125 -56.400216 L 159.203125 -57.062163 L 159.621094 -57.778134 L 160.011719 -58.468857 L 160.429688 -59.217715 L 160.820312 -59.937215 L 161.207031 -60.685408 L 161.628906 -61.463126 L 162.019531 -62.24429 L 162.4375 -63.054812 L 162.828125 -63.860642 L 163.214844 -64.699276 L 163.636719 -65.538658 L 164.023438 -66.41018 L 164.445312 -67.307115 L 164.835938 -68.207496 L 165.222656 -69.103684 L 165.644531 -70.062283 L 166.03125 -70.991358 L 166.453125 -71.978733 L 166.839844 -72.969472 L 167.261719 -73.989736 L 167.648438 -75.00514 L 168.039062 -76.053516 L 168.460938 -77.102556 L 168.847656 -78.212512 L 169.269531 -79.319105 L 169.65625 -80.429061 L 170.046875 -81.596654 L 170.464844 -82.764828 L 170.855469 -83.965308 L 171.273438 -85.162259 L 171.664062 -86.391516 L 172.054688 -87.649549 L 172.472656 -88.936941 L 172.863281 -90.256638 L 173.28125 -91.605694 L 173.671875 -92.950057 L 174.0625 -94.331418 L 174.480469 -95.738027 L 174.871094 -97.176942 L 175.289062 -98.645215 L 175.679688 -100.112906 L 176.070312 -101.638151 L 176.488281 -103.196864 L 176.878906 -104.754997 L 177.296875 -106.375374 L 177.6875 -107.99106 L 178.074219 -109.668326 L 178.496094 -111.34634 L 178.886719 -113.085354 L 179.304688 -114.853725 L 179.695312 -116.621515 L 180.082031 -118.446776 L 180.503906 -120.334448 L 180.890625 -122.221372 L 181.3125 -124.137821 L 181.699219 -126.115186 L 182.121094 -128.122075 " transform="matrix(1, -0.020207, 0, -0.950208, 0, 0)"/>
</g>
</g>
<g clip-path="url(#clip-2)">
<g clip-path="url(#clip-3)">
<path fill="none" stroke-width="1.991512" stroke-linecap="butt" stroke-linejoin="round" stroke="rgb(25.881958%, 29.411316%, 31.37207%)" stroke-opacity="1" stroke-miterlimit="4" d="M 102.578125 -43.788257 L 103 -43.517685 L 103.386719 -43.279252 L 103.808594 -43.00868 L 104.195312 -42.770247 L 104.585938 -42.49901 L 105.007812 -42.261325 L 105.394531 -42.022892 L 105.816406 -41.781096 L 106.203125 -41.542664 L 106.59375 -41.304314 L 107.011719 -41.091212 L 107.402344 -40.852862 L 107.820312 -40.643871 L 108.210938 -40.405521 L 108.601562 -40.195948 L 109.019531 -39.982846 L 109.410156 -39.773273 L 109.828125 -39.564282 L 110.21875 -39.354709 L 110.609375 -39.173912 L 111.027344 -38.964921 L 111.417969 -38.788235 L 111.835938 -38.608021 L 112.226562 -38.398448 L 112.617188 -38.217651 L 113.035156 -38.037436 L 113.425781 -37.889528 L 113.84375 -37.709313 L 114.234375 -37.557293 L 114.621094 -37.376414 L 115.042969 -37.229169 L 115.433594 -37.07715 L 115.851562 -36.929822 L 116.242188 -36.777802 L 116.628906 -36.629811 L 117.050781 -36.507232 L 117.4375 -36.35924 L 117.859375 -36.240772 L 118.246094 -36.121557 L 118.667969 -35.998979 L 119.054688 -35.879763 L 119.445312 -35.789408 L 119.867188 -35.67094 L 120.253906 -35.580501 L 120.675781 -35.462034 L 121.0625 -35.371595 L 121.453125 -35.281239 L 121.871094 -35.220242 L 122.261719 -35.129886 L 122.683594 -35.073083 L 123.070312 -34.982644 L 123.460938 -34.921065 L 123.878906 -34.860067 L 124.269531 -34.802599 L 124.6875 -34.770378 L 125.078125 -34.71291 L 125.46875 -34.680108 L 125.886719 -34.651998 L 126.277344 -34.623306 L 126.695312 -34.591085 L 127.085938 -34.59117 L 127.476562 -34.562479 L 128.703125 -34.563897 L 129.09375 -34.592759 L 129.480469 -34.592761 L 129.902344 -34.622287 L 130.292969 -34.651149 L 130.710938 -34.680592 L 131.101562 -34.713565 L 131.488281 -34.77112 L 131.910156 -34.800646 L 132.296875 -34.862312 L 132.71875 -34.920615 L 133.109375 -35.011141 L 133.496094 -35.072807 L 133.917969 -35.159886 L 134.304688 -35.250329 L 134.726562 -35.34152 L 135.113281 -35.431962 L 135.535156 -35.551929 L 135.921875 -35.671149 L 136.3125 -35.790451 L 136.734375 -35.910418 L 137.121094 -36.058414 L 137.542969 -36.178381 L 137.929688 -36.330488 L 138.320312 -36.507343 L 138.738281 -36.660115 L 139.128906 -36.83697 L 139.546875 -37.018519 L 139.9375 -37.199485 L 140.328125 -37.409228 L 140.746094 -37.586665 L 141.136719 -37.796408 L 141.554688 -38.03551 L 141.945312 -38.245253 L 142.335938 -38.487883 " transform="matrix(1, -0.020207, 0, -0.950208, 0, 0)"/>
</g>
</g>
<g clip-path="url(#clip-4)">
<g clip-path="url(#clip-5)">
<path fill="none" stroke-width="1.991512" stroke-linecap="butt" stroke-linejoin="round" stroke="rgb(25.881958%, 29.411316%, 31.37207%)" stroke-opacity="1" stroke-miterlimit="4" d="M 62.824219 -81.655597 L 63.242188 -81.179394 L 63.632812 -80.727276 L 64.023438 -80.250492 L 64.441406 -79.770178 L 64.832031 -79.32217 L 65.25 -78.841857 L 65.640625 -78.360962 L 66.027344 -77.912871 L 66.449219 -77.461417 L 66.839844 -76.984633 L 67.257812 -76.533096 L 67.648438 -76.085088 L 68.035156 -75.60411 L 68.457031 -75.156767 L 68.84375 -74.708676 L 69.265625 -74.257222 L 69.65625 -73.809215 L 70.074219 -73.357678 L 70.464844 -72.90967 L 70.851562 -72.461579 L 71.273438 -72.038902 L 71.660156 -71.590811 L 72.082031 -71.143468 L 72.46875 -70.724154 L 72.859375 -70.272036 L 73.28125 -69.824693 L 73.667969 -69.405379 L 74.089844 -68.986812 L 74.476562 -68.534611 L 74.867188 -68.11538 L 75.285156 -67.69673 L 75.675781 -67.277499 L 76.09375 -66.85885 L 76.875 -66.020388 L 77.292969 -65.597627 L 77.683594 -65.178396 L 78.101562 -64.759747 L 78.492188 -64.340516 L 78.882812 -63.950061 L 79.300781 -63.531412 L 79.691406 -63.140958 L 80.109375 -62.722308 L 80.5 -62.335965 L 80.890625 -61.912623 L 81.308594 -61.526861 L 81.699219 -61.136406 L 82.117188 -60.746533 L 82.507812 -60.356079 L 82.894531 -59.965542 L 83.316406 -59.575752 L 83.707031 -59.189408 L 84.125 -58.799535 L 84.515625 -58.437858 L 84.902344 -58.051431 L 85.324219 -57.661641 L 85.710938 -57.29988 L 86.132812 -56.942978 L 86.519531 -56.552441 L 86.941406 -56.191427 L 87.328125 -55.833777 L 87.71875 -55.4721 L 88.140625 -55.115197 L 88.527344 -54.753436 L 88.949219 -54.396534 L 89.335938 -54.034773 L 89.726562 -53.677206 L 90.144531 -53.344887 L 90.535156 -52.98732 L 90.957031 -52.626307 L 91.34375 -52.297433 L 91.734375 -51.968643 L 92.152344 -51.607547 L 92.542969 -51.278756 L 92.960938 -50.950548 L 93.351562 -50.621757 L 93.742188 -50.288856 L 94.160156 -49.989424 L 94.550781 -49.660634 L 94.96875 -49.332425 L 95.359375 -49.032411 L 95.75 -48.703621 L 96.167969 -48.404189 L 96.558594 -48.075398 L 96.976562 -47.775966 L 97.367188 -47.475953 L 97.753906 -47.175856 L 98.175781 -46.876507 L 98.566406 -46.576493 L 98.984375 -46.305838 L 99.375 -46.005824 L 99.761719 -45.705727 L 100.183594 -45.435155 L 100.570312 -45.139169 L 100.992188 -44.868596 L 101.382812 -44.597359 L 101.800781 -44.326704 L 102.191406 -44.059577 L 102.578125 -43.788257 " transform="matrix(1, -0.020207, 0, -0.950208, 0, 0)"/>
</g>
</g>
<g clip-path="url(#clip-6)">
<g clip-path="url(#clip-7)">
<path fill="none" stroke-width="1.991512" stroke-linecap="butt" stroke-linejoin="round" stroke="rgb(25.881958%, 29.411316%, 31.37207%)" stroke-opacity="1" stroke-miterlimit="4" d="M 21.371094 -137.357066 L 23.488281 -133.874902 L 23.878906 -133.307677 L 24.265625 -132.707481 L 24.6875 -132.13681 L 25.074219 -131.569502 L 25.496094 -130.998831 L 25.882812 -130.402746 L 26.273438 -129.83141 L 26.691406 -129.260656 L 27.082031 -128.693431 L 27.503906 -128.12276 L 27.890625 -127.555452 L 28.28125 -126.984116 L 28.699219 -126.417473 L 29.089844 -125.846137 L 29.507812 -125.279493 L 29.898438 -124.708158 L 30.289062 -124.140933 L 30.707031 -123.570178 L 31.097656 -123.002953 L 31.515625 -122.432199 L 31.90625 -121.893751 L 32.296875 -121.322415 L 32.714844 -120.755771 L 33.105469 -120.184436 L 33.523438 -119.646569 L 33.914062 -119.075233 L 34.300781 -118.536702 L 34.722656 -117.96603 L 35.113281 -117.398805 L 35.53125 -116.860939 L 35.921875 -116.289603 L 36.308594 -115.751071 L 36.730469 -115.213288 L 37.117188 -114.641869 L 37.539062 -114.104085 L 37.929688 -113.532749 L 38.347656 -112.994882 L 38.738281 -112.456434 L 39.125 -111.917903 L 39.546875 -111.347231 L 39.933594 -110.8087 L 40.355469 -110.266805 L 40.742188 -109.728274 L 41.132812 -109.189826 L 41.554688 -108.652042 L 41.941406 -108.109399 L 42.363281 -107.571616 L 42.75 -107.033084 L 43.140625 -106.494636 L 43.558594 -105.952658 L 43.949219 -105.442987 L 44.367188 -104.90512 L 45.148438 -103.828223 L 45.566406 -103.319133 L 45.957031 -102.780685 L 46.375 -102.238707 L 46.765625 -101.729035 L 47.15625 -101.190587 L 47.574219 -100.681497 L 47.964844 -100.143048 L 48.382812 -99.633958 L 48.773438 -99.124286 L 49.164062 -98.585838 L 49.582031 -98.076748 L 49.972656 -97.567076 L 50.390625 -97.025098 L 50.78125 -96.515427 L 51.167969 -96.005672 L 51.589844 -95.496665 L 51.980469 -94.991104 L 52.398438 -94.477903 L 52.789062 -93.972342 L 53.175781 -93.462587 L 53.597656 -92.95358 L 53.984375 -92.443825 L 54.40625 -91.934818 L 54.792969 -91.45384 L 55.214844 -90.944833 L 55.605469 -90.435161 L 55.992188 -89.925406 L 56.414062 -89.445176 L 56.800781 -88.939532 L 57.222656 -88.459301 L 57.609375 -87.949546 L 58 -87.468651 L 58.417969 -86.959561 L 58.808594 -86.482777 L 59.230469 -86.002546 L 59.617188 -85.521568 L 60.007812 -85.011896 L 60.425781 -84.531583 L 60.816406 -84.054799 L 61.234375 -83.574485 L 61.625 -83.09359 L 62.015625 -82.616806 L 62.433594 -82.136492 L 62.824219 -81.655597 " transform="matrix(1, -0.020207, 0, -0.950208, 0, 0)"/>
</g>
</g>
<path fill-rule="nonzero" fill="rgb(25.881958%, 29.411316%, 30.979919%)" fill-opacity="1" d="M 52.21875 72.808594 L 51.417969 73.792969 L 51.617188 73.984375 C 52.046875 73.53125 52.132812 73.519531 52.457031 73.820312 L 55.8125 76.941406 C 56.09375 77.207031 56.027344 77.277344 55.621094 77.707031 L 55.824219 77.894531 C 56.011719 77.675781 56.324219 77.324219 56.476562 77.164062 C 56.628906 77.003906 56.933594 76.703125 57.171875 76.472656 L 56.96875 76.285156 C 56.558594 76.714844 56.492188 76.785156 56.210938 76.523438 Z M 52.21875 72.808594 "/>
<path fill-rule="nonzero" fill="rgb(25.881958%, 29.411316%, 30.979919%)" fill-opacity="1" d="M 58.765625 72.039062 C 57.949219 71.277344 56.664062 71.269531 55.933594 72.039062 C 55.171875 72.839844 55.292969 74.121094 56.089844 74.863281 C 56.929688 75.644531 58.171875 75.554688 58.882812 74.804688 C 59.613281 74.035156 59.585938 72.800781 58.765625 72.039062 Z M 58.730469 74.644531 C 58.464844 74.925781 58.070312 75.082031 57.605469 74.972656 C 57.167969 74.867188 56.773438 74.5 56.542969 74.285156 C 56.289062 74.050781 55.945312 73.730469 55.804688 73.316406 C 55.675781 72.875 55.816406 72.441406 56.0625 72.179688 C 56.328125 71.902344 56.726562 71.761719 57.171875 71.855469 C 57.605469 71.9375 57.980469 72.285156 58.222656 72.511719 C 58.453125 72.726562 58.808594 73.058594 58.957031 73.460938 C 59.109375 73.882812 59.027344 74.335938 58.730469 74.644531 Z M 58.730469 74.644531 "/>
<path fill-rule="nonzero" fill="rgb(25.881958%, 29.411316%, 30.979919%)" fill-opacity="1" d="M 60.566406 70.679688 C 60.035156 71.242188 59.386719 70.640625 59.246094 70.507812 C 59.074219 70.347656 58.871094 70.140625 58.792969 69.902344 C 58.769531 69.785156 58.730469 69.464844 58.980469 69.203125 C 59.5 68.652344 60.136719 69.246094 60.289062 69.386719 C 60.460938 69.546875 60.671875 69.746094 60.738281 69.996094 C 60.761719 70.113281 60.800781 70.429688 60.566406 70.679688 Z M 60.117188 71.65625 C 60.09375 71.640625 59.945312 71.5 59.90625 71.277344 C 60.328125 71.195312 60.601562 70.941406 60.714844 70.824219 C 61.277344 70.230469 61.25 69.378906 60.753906 68.917969 C 60.511719 68.691406 60.183594 68.574219 59.882812 68.59375 C 59.878906 68.15625 60.066406 67.898438 60.167969 67.789062 C 60.1875 67.765625 60.214844 67.738281 60.246094 67.726562 C 60.199219 67.816406 60.234375 67.921875 60.3125 67.996094 C 60.425781 68.101562 60.582031 68.074219 60.675781 67.976562 C 60.734375 67.914062 60.804688 67.757812 60.652344 67.617188 C 60.542969 67.511719 60.273438 67.394531 60.039062 67.644531 C 59.914062 67.777344 59.6875 68.09375 59.695312 68.609375 C 59.226562 68.683594 58.960938 68.921875 58.828125 69.0625 C 58.257812 69.664062 58.285156 70.519531 58.78125 70.980469 C 59.0625 71.242188 59.4375 71.328125 59.730469 71.300781 C 59.746094 71.464844 59.84375 71.78125 60.078125 72 C 60.28125 72.1875 60.609375 72.324219 60.929688 72.246094 C 60.660156 72.730469 60.753906 73.195312 61.003906 73.429688 C 61.46875 73.859375 62.421875 73.558594 63.160156 72.777344 C 63.875 72.027344 64.175781 71.066406 63.671875 70.59375 C 63.449219 70.386719 63.039062 70.15625 62.542969 70.320312 C 62.050781 70.5 61.699219 70.871094 61.328125 71.261719 C 61.175781 71.421875 60.921875 71.691406 60.863281 71.730469 C 60.644531 71.902344 60.328125 71.855469 60.117188 71.65625 Z M 63.03125 72.636719 C 62.414062 73.289062 61.664062 73.417969 61.320312 73.097656 C 61.027344 72.824219 61.011719 72.359375 61.265625 72.070312 L 61.625 71.6875 C 62.148438 71.136719 62.824219 70.425781 63.367188 70.933594 C 63.722656 71.261719 63.617188 72.015625 63.03125 72.636719 Z M 63.03125 72.636719 "/>
<path fill-rule="nonzero" fill="rgb(25.881958%, 29.411316%, 30.979919%)" fill-opacity="1" d="M 66.601562 69.726562 L 66.339844 69.484375 L 65.753906 70.105469 L 59.820312 64.582031 L 60.40625 63.960938 L 60.144531 63.71875 L 59.308594 64.597656 L 65.769531 70.609375 Z M 66.601562 69.726562 "/>
<path fill-rule="nonzero" fill="rgb(25.881958%, 29.411316%, 30.979919%)" fill-opacity="1" d="M 64.910156 64.25 L 65.945312 63.15625 C 66.796875 62.257812 66.976562 60.746094 66.257812 60.078125 C 65.753906 59.605469 64.878906 59.585938 64.082031 60.425781 L 62.128906 62.488281 C 62.011719 62.609375 61.945312 62.679688 62.066406 62.792969 C 62.148438 62.867188 62.195312 62.816406 62.320312 62.6875 C 62.394531 62.609375 62.519531 62.496094 62.585938 62.425781 C 62.710938 62.335938 62.75 62.316406 62.832031 62.390625 C 62.851562 62.410156 62.871094 62.425781 62.933594 62.523438 L 65.574219 66.601562 C 65.769531 66.894531 65.808594 66.953125 65.324219 67.464844 C 65.230469 67.5625 65.164062 67.632812 65.285156 67.746094 C 65.367188 67.820312 65.433594 67.753906 65.453125 67.730469 C 65.621094 67.550781 66.027344 67.082031 66.199219 66.902344 C 66.332031 66.761719 66.476562 66.632812 66.597656 66.5 C 66.730469 66.359375 66.875 66.230469 67 66.097656 C 67.046875 66.050781 67.121094 65.96875 66.992188 65.847656 C 66.917969 65.78125 66.863281 65.839844 66.75 65.960938 C 66.53125 66.191406 66.359375 66.371094 66.25 66.269531 C 66.207031 66.230469 66.1875 66.191406 66.15625 66.144531 Z M 63.425781 62 C 63.261719 61.734375 63.25 61.707031 63.515625 61.425781 L 64.09375 60.816406 C 64.597656 60.285156 65.09375 60.101562 65.535156 60.515625 C 65.789062 60.753906 66.222656 61.398438 66.214844 61.867188 C 66.207031 62.460938 65.894531 62.886719 65.628906 63.167969 L 64.777344 64.070312 Z M 63.425781 62 "/>
<path fill-rule="nonzero" fill="rgb(25.881958%, 29.411316%, 30.979919%)" fill-opacity="1" d="M 69.992188 62.175781 C 70.074219 62.289062 70.1875 62.472656 70.21875 62.5 C 70.328125 62.601562 70.476562 62.570312 70.570312 62.46875 C 70.644531 62.390625 70.699219 62.230469 70.617188 62.058594 C 70.605469 62.03125 69.925781 61.003906 69.832031 60.859375 C 69.667969 60.613281 69.335938 60.078125 69.183594 59.878906 C 69.132812 59.773438 69 59.3125 69 59.027344 C 69.007812 58.941406 69.015625 58.589844 69.273438 58.320312 C 69.433594 58.148438 69.597656 58.136719 69.609375 58.125 C 69.457031 58.34375 69.476562 58.625 69.648438 58.785156 C 69.75 58.878906 69.9375 58.921875 70.097656 58.75 C 70.261719 58.582031 70.28125 58.261719 70.046875 58.042969 C 69.824219 57.835938 69.445312 57.859375 69.128906 58.1875 C 68.742188 58.597656 68.789062 59.171875 68.855469 59.460938 C 68.507812 59.25 68.085938 59.289062 67.800781 59.589844 C 67.527344 59.882812 67.664062 60.238281 67.71875 60.402344 C 67.835938 60.71875 68.144531 61.15625 68.164062 61.175781 C 68.238281 61.238281 68.292969 61.179688 68.304688 61.167969 C 68.371094 61.097656 68.359375 61.089844 68.253906 60.917969 C 67.90625 60.386719 67.714844 59.964844 67.933594 59.734375 C 68.027344 59.632812 68.164062 59.589844 68.40625 59.816406 C 68.546875 59.945312 68.601562 60.03125 68.859375 60.421875 Z M 69.992188 62.175781 "/>
<path fill-rule="nonzero" fill="rgb(25.881958%, 29.411316%, 30.979919%)" fill-opacity="1" d="M 76.289062 59.363281 C 76.269531 59.34375 76.261719 59.335938 76.042969 59.339844 C 74.488281 59.378906 73.066406 58.453125 72.074219 57.53125 C 70.953125 56.488281 70.058594 55.203125 70.007812 53.667969 C 70.003906 53.511719 69.996094 53.503906 69.972656 53.484375 C 69.925781 53.4375 69.882812 53.4375 69.847656 53.476562 C 69.78125 53.546875 69.683594 54.535156 70.140625 55.675781 C 70.546875 56.65625 71.1875 57.402344 71.722656 57.902344 C 72.226562 58.371094 73.074219 59.027344 74.144531 59.363281 C 75.300781 59.703125 76.238281 59.558594 76.304688 59.488281 C 76.34375 59.449219 76.339844 59.410156 76.289062 59.363281 Z M 76.289062 59.363281 "/>
<path fill-rule="nonzero" fill="rgb(25.881958%, 29.411316%, 30.979919%)" fill-opacity="1" d="M 75.605469 53.863281 L 75.46875 52.339844 C 75.464844 52.167969 75.460938 52.089844 75.953125 51.566406 L 75.652344 51.285156 C 75.453125 51.515625 75.148438 51.855469 75.121094 51.886719 C 74.96875 52.046875 74.644531 52.347656 74.476562 52.527344 L 74.777344 52.808594 C 74.863281 52.71875 74.949219 52.648438 75.054688 52.617188 C 75.078125 52.675781 75.097656 52.691406 75.089844 52.742188 L 75.191406 53.835938 L 73.859375 53.78125 L 74.105469 53.519531 L 73.800781 53.238281 C 73.640625 53.410156 73.28125 53.828125 73.082031 54.039062 C 72.890625 54.238281 72.597656 54.511719 72.398438 54.722656 L 72.699219 55.003906 L 73.136719 54.542969 L 75.257812 54.652344 L 75.410156 56.375 C 75.4375 56.589844 75.21875 56.820312 74.925781 57.128906 L 75.226562 57.414062 C 75.425781 57.183594 75.738281 56.832031 75.769531 56.804688 C 75.917969 56.644531 76.28125 56.28125 76.40625 56.171875 L 76.101562 55.886719 C 75.996094 56 75.851562 56.089844 75.8125 56.054688 C 75.804688 56.042969 75.804688 56.042969 75.789062 55.957031 L 75.671875 54.675781 L 77.175781 54.757812 L 76.9375 55.007812 L 77.238281 55.289062 C 77.390625 55.109375 77.75 54.710938 77.949219 54.5 C 78.140625 54.300781 78.425781 54.019531 78.636719 53.816406 L 78.332031 53.535156 L 77.90625 53.984375 Z M 75.605469 53.863281 "/>
<path fill-rule="nonzero" fill="rgb(25.881958%, 29.411316%, 30.979919%)" fill-opacity="1" d="M 75.117188 48.375 C 75.007812 48.273438 74.886719 48.160156 74.773438 48.28125 C 74.648438 48.410156 74.769531 48.523438 74.882812 48.625 L 80.875 54.203125 C 80.984375 54.308594 81.105469 54.421875 81.230469 54.289062 C 81.34375 54.167969 81.222656 54.058594 81.109375 53.953125 Z M 75.117188 48.375 "/>
<path fill-rule="nonzero" fill="rgb(25.881958%, 29.411316%, 30.979919%)" fill-opacity="1" d="M 79.230469 44.679688 C 79.167969 44.585938 79.15625 44.574219 79.148438 44.566406 C 79.054688 44.480469 78.96875 44.570312 78.914062 44.632812 C 78.789062 44.761719 78.808594 44.78125 78.902344 44.941406 L 79.882812 46.4375 C 79.945312 46.554688 79.945312 46.554688 79.945312 46.574219 C 79.9375 46.582031 79.9375 46.601562 79.851562 46.710938 C 78.671875 48.097656 78.851562 49.738281 79.667969 50.5 C 80.355469 51.136719 81.351562 51.027344 82.265625 50.125 L 83.152344 51.457031 C 83.242188 51.542969 83.328125 51.453125 83.382812 51.394531 C 83.480469 51.292969 83.496094 51.253906 83.414062 51.121094 L 82.722656 50.0625 C 82.582031 49.851562 82.578125 49.835938 82.578125 49.816406 C 82.589844 49.804688 82.597656 49.792969 82.683594 49.683594 C 83.835938 48.308594 83.695312 46.667969 82.867188 45.898438 C 82.167969 45.25 81.183594 45.367188 80.269531 46.269531 Z M 82.089844 49.847656 C 81.539062 50.371094 80.972656 50.488281 80.457031 50.007812 C 80.273438 49.835938 79.746094 49.210938 79.644531 48.476562 C 79.570312 47.992188 79.699219 47.414062 80.152344 46.859375 Z M 80.445312 46.546875 C 80.996094 46.023438 81.550781 45.898438 82.078125 46.390625 C 82.261719 46.558594 82.789062 47.183594 82.890625 47.917969 C 82.964844 48.402344 82.835938 48.980469 82.382812 49.539062 Z M 80.445312 46.546875 "/>
<path fill-rule="nonzero" fill="rgb(25.881958%, 29.411316%, 30.979919%)" fill-opacity="1" d="M 84.886719 44.003906 C 84.394531 43.542969 83.546875 42.890625 82.480469 42.554688 C 81.332031 42.199219 80.382812 42.355469 80.328125 42.417969 C 80.289062 42.457031 80.289062 42.515625 80.332031 42.554688 C 80.351562 42.570312 80.363281 42.582031 80.597656 42.574219 C 81.832031 42.535156 83.195312 43.125 84.539062 44.375 C 85.648438 45.410156 86.5625 46.695312 86.621094 48.238281 C 86.617188 48.402344 86.628906 48.414062 86.648438 48.429688 C 86.6875 48.46875 86.746094 48.46875 86.785156 48.425781 C 86.839844 48.367188 86.945312 47.371094 86.480469 46.238281 C 86.085938 45.25 85.433594 44.511719 84.886719 44.003906 Z M 84.886719 44.003906 "/>
<path fill-rule="nonzero" fill="rgb(25.881958%, 29.411316%, 30.979919%)" fill-opacity="1" d="M 83.230469 39.351562 L 82.40625 40.222656 L 82.667969 40.46875 L 83.253906 39.847656 L 89.1875 45.367188 L 88.597656 45.988281 L 88.863281 46.234375 L 89.6875 45.363281 Z M 83.230469 39.351562 "/>
<path fill="none" stroke-width="0.850394" stroke-linecap="butt" stroke-linejoin="miter" stroke="rgb(50.195312%, 50.195312%, 50.195312%)" stroke-opacity="1" stroke-miterlimit="4" d="M 21.078125 1.234375 L 19.195312 1.234375 "/>
<path fill="none" stroke-width="0.850394" stroke-linecap="butt" stroke-linejoin="miter" stroke="rgb(50.195312%, 50.195312%, 50.195312%)" stroke-opacity="1" stroke-miterlimit="4" d="M 20.925781 130.535156 L 19.042969 130.535156 "/>
<path fill="none" stroke-width="0.850394" stroke-linecap="butt" stroke-linejoin="miter" stroke="rgb(50.195312%, 50.195312%, 50.195312%)" stroke-opacity="1" stroke-miterlimit="4" d="M 21.359375 130.769531 L 21.359375 132.652344 "/>
<path fill="none" stroke-width="0.850394" stroke-linecap="butt" stroke-linejoin="miter" stroke="rgb(50.195312%, 50.195312%, 50.195312%)" stroke-opacity="1" stroke-miterlimit="4" d="M 182.347656 130.769531 L 182.347656 132.652344 "/>
<path fill="none" stroke-width="0.850394" stroke-linecap="butt" stroke-linejoin="round" stroke="rgb(0%, 0%, 0%)" stroke-opacity="1" stroke-miterlimit="4" d="M 21.222656 1.234375 L 182.347656 1.234375 L 182.347656 130.4375 L 21.222656 130.4375 Z M 21.222656 1.234375 "/>
<path fill-rule="nonzero" fill="rgb(0%, 0%, 0%)" fill-opacity="1" d="M 102.402344 133.964844 C 102.4375 133.824219 102.4375 133.804688 102.4375 133.789062 C 102.4375 133.632812 102.277344 133.632812 102.171875 133.632812 C 101.945312 133.632812 101.945312 133.667969 101.875 133.894531 L 101.332031 136.097656 C 101.28125 136.253906 101.28125 136.253906 101.261719 136.273438 C 101.246094 136.273438 101.230469 136.289062 101.054688 136.308594 C 98.746094 136.429688 97.378906 138.023438 97.378906 139.4375 C 97.378906 140.628906 98.34375 141.449219 99.96875 141.503906 L 99.496094 143.480469 C 99.496094 143.636719 99.652344 143.636719 99.757812 143.636719 C 99.933594 143.636719 99.988281 143.621094 100.039062 143.425781 L 100.425781 141.871094 C 100.492188 141.554688 100.511719 141.539062 100.527344 141.519531 C 100.546875 141.519531 100.5625 141.519531 100.738281 141.503906 C 103.011719 141.363281 104.414062 139.804688 104.414062 138.371094 C 104.414062 137.164062 103.449219 136.359375 101.824219 136.308594 Z M 100.074219 141.101562 C 99.113281 141.046875 98.515625 140.628906 98.515625 139.734375 C 98.515625 139.421875 98.640625 138.390625 99.234375 137.65625 C 99.621094 137.164062 100.265625 136.78125 101.175781 136.710938 Z M 101.71875 136.710938 C 102.679688 136.761719 103.273438 137.164062 103.273438 138.074219 C 103.273438 138.390625 103.152344 139.421875 102.558594 140.15625 C 102.171875 140.644531 101.527344 141.03125 100.617188 141.101562 Z M 101.71875 136.710938 "/>
<path fill-rule="nonzero" fill="rgb(0%, 0%, 0%)" fill-opacity="1" d="M 5.742188 94.878906 L 5.863281 96.488281 L 6.214844 96.488281 C 6.214844 95.699219 6.285156 95.613281 6.84375 95.613281 L 12.652344 95.613281 C 13.140625 95.613281 13.140625 95.734375 13.140625 96.488281 L 13.492188 96.488281 C 13.472656 96.121094 13.457031 95.527344 13.457031 95.246094 C 13.457031 94.964844 13.472656 94.425781 13.492188 94.003906 L 13.140625 94.003906 C 13.140625 94.757812 13.140625 94.878906 12.652344 94.878906 Z M 5.742188 94.878906 "/>
<path fill-rule="nonzero" fill="rgb(0%, 0%, 0%)" fill-opacity="1" d="M 11.09375 88.507812 C 9.679688 88.507812 8.488281 89.613281 8.488281 90.957031 C 8.488281 92.359375 9.714844 93.441406 11.09375 93.441406 C 12.546875 93.441406 13.613281 92.289062 13.613281 90.976562 C 13.613281 89.628906 12.511719 88.507812 11.09375 88.507812 Z M 13.335938 90.957031 C 13.335938 91.449219 13.105469 91.9375 12.582031 92.234375 C 12.09375 92.515625 11.410156 92.515625 11.007812 92.515625 C 10.570312 92.515625 9.976562 92.515625 9.484375 92.253906 C 8.980469 91.957031 8.734375 91.429688 8.734375 90.976562 C 8.734375 90.484375 8.980469 90.011719 9.46875 89.714844 C 9.941406 89.417969 10.589844 89.417969 11.007812 89.417969 C 11.410156 89.417969 12.023438 89.417969 12.511719 89.664062 C 13.019531 89.925781 13.335938 90.414062 13.335938 90.957031 Z M 13.335938 90.957031 "/>
<path fill-rule="nonzero" fill="rgb(0%, 0%, 0%)" fill-opacity="1" d="M 11.566406 85.695312 C 11.566406 86.675781 10.449219 86.675781 10.203125 86.675781 C 9.90625 86.675781 9.539062 86.660156 9.257812 86.5 C 9.136719 86.414062 8.820312 86.152344 8.820312 85.695312 C 8.820312 84.734375 9.921875 84.734375 10.1875 84.734375 C 10.484375 84.734375 10.851562 84.734375 11.128906 84.910156 C 11.253906 84.996094 11.566406 85.257812 11.566406 85.695312 Z M 12.003906 86.992188 C 11.96875 86.992188 11.707031 86.992188 11.480469 86.816406 C 11.796875 86.378906 11.832031 85.90625 11.832031 85.695312 C 11.832031 84.664062 11.058594 83.894531 10.203125 83.894531 C 9.785156 83.894531 9.382812 84.070312 9.117188 84.347656 C 8.734375 83.945312 8.679688 83.542969 8.679688 83.351562 C 8.679688 83.316406 8.679688 83.265625 8.699219 83.230469 C 8.734375 83.351562 8.855469 83.421875 8.996094 83.421875 C 9.1875 83.421875 9.3125 83.265625 9.3125 83.089844 C 9.3125 82.984375 9.242188 82.773438 8.980469 82.773438 C 8.785156 82.773438 8.4375 82.898438 8.4375 83.335938 C 8.4375 83.5625 8.507812 84.050781 8.960938 84.523438 C 8.59375 84.996094 8.558594 85.453125 8.558594 85.695312 C 8.558594 86.746094 9.328125 87.515625 10.1875 87.515625 C 10.675781 87.515625 11.09375 87.269531 11.339844 86.992188 C 11.496094 87.128906 11.863281 87.339844 12.265625 87.339844 C 12.617188 87.339844 13.035156 87.183594 13.265625 86.832031 C 13.4375 87.515625 13.929688 87.867188 14.367188 87.867188 C 15.171875 87.867188 15.785156 86.761719 15.785156 85.398438 C 15.785156 84.085938 15.222656 82.933594 14.347656 82.933594 C 13.964844 82.933594 13.386719 83.074219 13.070312 83.648438 C 12.773438 84.246094 12.773438 84.890625 12.773438 85.574219 C 12.773438 85.855469 12.773438 86.324219 12.757812 86.414062 C 12.703125 86.761719 12.371094 86.992188 12.003906 86.992188 Z M 15.539062 85.382812 C 15.539062 86.519531 14.960938 87.289062 14.367188 87.289062 C 13.859375 87.289062 13.4375 86.867188 13.421875 86.378906 L 13.421875 85.714844 C 13.421875 84.75 13.421875 83.507812 14.367188 83.507812 C 14.980469 83.507812 15.539062 84.296875 15.539062 85.382812 Z M 15.539062 85.382812 "/>
<path fill-rule="nonzero" fill="rgb(0%, 0%, 0%)" fill-opacity="1" d="M 16.289062 77.734375 L 15.835938 77.734375 L 15.835938 78.816406 L 5.566406 78.816406 L 5.566406 77.734375 L 5.113281 77.734375 L 5.113281 79.273438 L 16.289062 79.273438 Z M 16.289062 77.734375 "/>
<path fill-rule="nonzero" fill="rgb(0%, 0%, 0%)" fill-opacity="1" d="M 9.957031 74.113281 L 9.957031 72.207031 C 9.957031 70.632812 8.804688 69.078125 7.5625 69.078125 C 6.6875 69.078125 5.863281 69.8125 5.863281 71.28125 L 5.863281 74.882812 C 5.863281 75.09375 5.863281 75.214844 6.074219 75.214844 C 6.214844 75.214844 6.214844 75.128906 6.214844 74.902344 C 6.214844 74.761719 6.230469 74.550781 6.230469 74.429688 C 6.265625 74.238281 6.285156 74.183594 6.425781 74.183594 C 6.460938 74.183594 6.496094 74.183594 6.632812 74.21875 L 12.617188 75.722656 C 13.054688 75.828125 13.140625 75.847656 13.140625 76.738281 C 13.140625 76.914062 13.140625 77.035156 13.351562 77.035156 C 13.492188 77.035156 13.492188 76.914062 13.492188 76.878906 C 13.492188 76.5625 13.457031 75.777344 13.457031 75.460938 C 13.457031 75.214844 13.472656 74.972656 13.472656 74.746094 C 13.472656 74.5 13.492188 74.253906 13.492188 74.027344 C 13.492188 73.941406 13.492188 73.800781 13.265625 73.800781 C 13.140625 73.800781 13.140625 73.90625 13.140625 74.113281 C 13.140625 74.515625 13.140625 74.832031 12.949219 74.832031 C 12.878906 74.832031 12.828125 74.8125 12.757812 74.796875 Z M 6.632812 73.308594 C 6.25 73.203125 6.214844 73.1875 6.214844 72.699219 L 6.214844 71.628906 C 6.214844 70.703125 6.511719 70.109375 7.28125 70.109375 C 7.71875 70.109375 8.679688 70.335938 9.082031 70.773438 C 9.589844 71.332031 9.679688 71.996094 9.679688 72.488281 L 9.679688 74.0625 Z M 6.632812 73.308594 "/>
<path fill-rule="nonzero" fill="rgb(0%, 0%, 0%)" fill-opacity="1" d="M 12.828125 67.800781 C 13.003906 67.835938 13.265625 67.90625 13.316406 67.90625 C 13.507812 67.90625 13.613281 67.746094 13.613281 67.574219 C 13.613281 67.433594 13.527344 67.242188 13.300781 67.152344 C 13.265625 67.136719 11.742188 66.769531 11.53125 66.714844 C 11.164062 66.628906 10.394531 66.417969 10.082031 66.367188 C 9.941406 66.3125 9.417969 66 9.171875 65.734375 C 9.101562 65.648438 8.804688 65.316406 8.804688 64.84375 C 8.804688 64.546875 8.945312 64.390625 8.945312 64.371094 C 8.996094 64.703125 9.257812 64.949219 9.554688 64.949219 C 9.730469 64.949219 9.941406 64.828125 9.941406 64.527344 C 9.941406 64.230469 9.679688 63.917969 9.277344 63.917969 C 8.890625 63.917969 8.558594 64.265625 8.558594 64.84375 C 8.558594 65.5625 9.101562 66.050781 9.417969 66.261719 C 8.910156 66.367188 8.558594 66.769531 8.558594 67.292969 C 8.558594 67.800781 8.996094 68.011719 9.1875 68.113281 C 9.574219 68.308594 10.238281 68.449219 10.273438 68.449219 C 10.394531 68.449219 10.394531 68.34375 10.394531 68.324219 C 10.394531 68.203125 10.378906 68.203125 10.132812 68.132812 C 9.347656 67.941406 8.804688 67.710938 8.804688 67.308594 C 8.804688 67.136719 8.890625 66.976562 9.3125 66.976562 C 9.554688 66.976562 9.679688 67.011719 10.253906 67.152344 Z M 12.828125 67.800781 "/>
<path fill-rule="nonzero" fill="rgb(0%, 0%, 0%)" fill-opacity="1" d="M 16.167969 59.75 C 16.132812 59.75 16.117188 59.75 15.921875 59.941406 C 14.523438 61.324219 12.40625 61.691406 10.691406 61.691406 C 8.75 61.691406 6.808594 61.269531 5.425781 59.886719 C 5.289062 59.75 5.269531 59.75 5.234375 59.75 C 5.148438 59.75 5.113281 59.785156 5.113281 59.851562 C 5.113281 59.976562 5.882812 60.972656 7.300781 61.636719 C 8.523438 62.199219 9.765625 62.335938 10.691406 62.335938 C 11.566406 62.335938 12.914062 62.214844 14.191406 61.601562 C 15.554688 60.921875 16.289062 59.976562 16.289062 59.851562 C 16.289062 59.785156 16.253906 59.75 16.167969 59.75 Z M 16.167969 59.75 "/>
<path fill-rule="nonzero" fill="rgb(0%, 0%, 0%)" fill-opacity="1" d="M 10.746094 55.234375 L 9.292969 53.941406 C 9.136719 53.785156 9.066406 53.714844 9.066406 52.804688 L 8.542969 52.804688 C 8.558594 53.191406 8.578125 53.765625 8.578125 53.820312 C 8.578125 54.097656 8.542969 54.660156 8.542969 54.972656 L 9.066406 54.972656 C 9.066406 54.816406 9.082031 54.675781 9.152344 54.554688 C 9.222656 54.589844 9.257812 54.589844 9.292969 54.640625 L 10.34375 55.570312 L 9.066406 56.671875 L 9.066406 56.214844 L 8.542969 56.214844 C 8.542969 56.511719 8.578125 57.214844 8.578125 57.582031 C 8.578125 57.929688 8.542969 58.4375 8.542969 58.804688 L 9.066406 58.804688 L 9.066406 58 L 11.113281 56.269531 L 12.757812 57.738281 C 12.96875 57.914062 12.96875 58.316406 12.96875 58.855469 L 13.492188 58.855469 C 13.472656 58.472656 13.457031 57.878906 13.457031 57.824219 C 13.457031 57.546875 13.472656 56.898438 13.492188 56.6875 L 12.96875 56.6875 C 12.96875 56.878906 12.914062 57.089844 12.84375 57.089844 C 12.828125 57.089844 12.828125 57.089844 12.738281 57.019531 L 11.515625 55.9375 L 12.96875 54.710938 L 12.96875 55.148438 L 13.492188 55.148438 C 13.472656 54.851562 13.457031 54.167969 13.457031 53.800781 C 13.457031 53.453125 13.472656 52.945312 13.492188 52.578125 L 12.96875 52.578125 L 12.96875 53.363281 Z M 10.746094 55.234375 "/>
<path fill-rule="nonzero" fill="rgb(0%, 0%, 0%)" fill-opacity="1" d="M 5.515625 50.566406 C 5.324219 50.566406 5.113281 50.566406 5.113281 50.777344 C 5.113281 51.003906 5.324219 51.003906 5.515625 51.003906 L 15.886719 51.003906 C 16.082031 51.003906 16.289062 51.003906 16.289062 50.777344 C 16.289062 50.566406 16.082031 50.566406 15.886719 50.566406 Z M 5.515625 50.566406 "/>
<path fill-rule="nonzero" fill="rgb(0%, 0%, 0%)" fill-opacity="1" d="M 6.074219 43.585938 C 5.933594 43.550781 5.917969 43.550781 5.898438 43.550781 C 5.742188 43.550781 5.742188 43.707031 5.742188 43.8125 C 5.742188 44.039062 5.777344 44.039062 6.003906 44.109375 L 8.210938 44.652344 C 8.367188 44.703125 8.367188 44.703125 8.382812 44.722656 C 8.382812 44.738281 8.402344 44.757812 8.417969 44.929688 C 8.542969 47.242188 10.132812 48.605469 11.550781 48.605469 C 12.738281 48.605469 13.5625 47.644531 13.613281 46.015625 L 15.589844 46.488281 C 15.75 46.488281 15.75 46.332031 15.75 46.226562 C 15.75 46.050781 15.730469 46 15.539062 45.945312 L 13.980469 45.5625 C 13.667969 45.492188 13.648438 45.472656 13.632812 45.457031 C 13.632812 45.4375 13.632812 45.421875 13.613281 45.246094 C 13.472656 42.972656 11.917969 41.574219 10.484375 41.574219 C 9.277344 41.574219 8.472656 42.535156 8.417969 44.160156 Z M 13.210938 45.910156 C 13.160156 46.871094 12.738281 47.46875 11.847656 47.46875 C 11.53125 47.46875 10.5 47.34375 9.765625 46.75 C 9.277344 46.367188 8.890625 45.71875 8.820312 44.808594 Z M 8.820312 44.265625 C 8.875 43.304688 9.277344 42.710938 10.1875 42.710938 C 10.5 42.710938 11.53125 42.832031 12.265625 43.425781 C 12.757812 43.8125 13.140625 44.460938 13.210938 45.367188 Z M 8.820312 44.265625 "/>
<path fill-rule="nonzero" fill="rgb(0%, 0%, 0%)" fill-opacity="1" d="M 10.691406 38.066406 C 9.835938 38.066406 8.488281 38.191406 7.210938 38.804688 C 5.847656 39.46875 5.113281 40.429688 5.113281 40.535156 C 5.113281 40.605469 5.164062 40.65625 5.234375 40.65625 C 5.269531 40.65625 5.289062 40.65625 5.496094 40.445312 C 6.601562 39.34375 8.367188 38.714844 10.691406 38.714844 C 12.617188 38.714844 14.578125 39.117188 15.976562 40.5 C 16.117188 40.65625 16.132812 40.65625 16.167969 40.65625 C 16.238281 40.65625 16.289062 40.605469 16.289062 40.535156 C 16.289062 40.429688 15.519531 39.414062 14.105469 38.769531 C 12.878906 38.191406 11.636719 38.066406 10.691406 38.066406 Z M 10.691406 38.066406 "/>
<path fill-rule="nonzero" fill="rgb(0%, 0%, 0%)" fill-opacity="1" d="M 5.113281 35.183594 L 5.113281 36.703125 L 5.566406 36.703125 L 5.566406 35.621094 L 15.835938 35.621094 L 15.835938 36.703125 L 16.289062 36.703125 L 16.289062 35.183594 Z M 5.113281 35.183594 "/>
<path fill-rule="nonzero" fill="rgb(81.959534%, 51.371765%, 38.430786%)" fill-opacity="1" stroke-width="0.850394" stroke-linecap="butt" stroke-linejoin="round" stroke="rgb(46.665955%, 23.529053%, 13.725281%)" stroke-opacity="1" stroke-miterlimit="4" d="M 62.476562 112.105469 C 62.476562 113.082031 61.6875 113.875 60.707031 113.875 C 59.730469 113.875 58.9375 113.082031 58.9375 112.105469 C 58.9375 111.128906 59.730469 110.335938 60.707031 110.335938 C 61.6875 110.335938 62.476562 111.128906 62.476562 112.105469 Z M 62.476562 112.105469 "/>
<path fill-rule="nonzero" fill="rgb(62.744141%, 85.096741%, 82.743835%)" fill-opacity="1" stroke-width="0.850394" stroke-linecap="butt" stroke-linejoin="round" stroke="rgb(20.391846%, 51.371765%, 47.842407%)" stroke-opacity="1" stroke-miterlimit="4" d="M 77.910156 78.441406 C 77.910156 79.417969 77.117188 80.210938 76.140625 80.210938 C 75.164062 80.210938 74.371094 79.417969 74.371094 78.441406 C 74.371094 77.464844 75.164062 76.671875 76.140625 76.671875 C 77.117188 76.671875 77.910156 77.464844 77.910156 78.441406 Z M 77.910156 78.441406 "/>
<path fill-rule="nonzero" fill="rgb(25.881958%, 29.411316%, 31.37207%)" fill-opacity="1" d="M 60.414062 134.621094 C 60.441406 134.515625 60.441406 134.503906 60.441406 134.492188 C 60.441406 134.375 60.324219 134.375 60.246094 134.375 C 60.078125 134.375 60.078125 134.398438 60.027344 134.570312 L 59.625 136.203125 C 59.585938 136.320312 59.585938 136.320312 59.570312 136.332031 C 59.558594 136.332031 59.546875 136.34375 59.417969 136.359375 C 57.703125 136.449219 56.695312 137.628906 56.695312 138.679688 C 56.695312 139.558594 57.40625 140.167969 58.613281 140.207031 L 58.261719 141.671875 C 58.261719 141.789062 58.378906 141.789062 58.457031 141.789062 C 58.585938 141.789062 58.625 141.777344 58.664062 141.632812 L 58.949219 140.480469 C 59 140.246094 59.015625 140.234375 59.027344 140.222656 C 59.039062 140.222656 59.054688 140.222656 59.183594 140.207031 C 60.867188 140.105469 61.90625 138.949219 61.90625 137.886719 C 61.90625 136.992188 61.191406 136.398438 59.988281 136.359375 Z M 58.691406 139.910156 C 57.976562 139.871094 57.535156 139.558594 57.535156 138.898438 C 57.535156 138.664062 57.628906 137.902344 58.066406 137.355469 C 58.351562 136.992188 58.832031 136.707031 59.507812 136.65625 Z M 59.910156 136.65625 C 60.621094 136.695312 61.0625 136.992188 61.0625 137.667969 C 61.0625 137.902344 60.972656 138.664062 60.53125 139.210938 C 60.246094 139.574219 59.765625 139.859375 59.09375 139.910156 Z M 59.910156 136.65625 "/>
<path fill-rule="nonzero" fill="rgb(25.881958%, 29.411316%, 31.37207%)" fill-opacity="1" d="M 63.789062 137.859375 L 63.789062 137.585938 L 63.191406 137.585938 L 63.191406 132.363281 L 63.789062 132.363281 L 63.789062 132.089844 L 62.90625 132.089844 L 62.90625 137.859375 Z M 63.789062 137.859375 "/>
<path fill-rule="nonzero" fill="rgb(25.881958%, 29.411316%, 31.37207%)" fill-opacity="1" d="M 66.96875 134.578125 C 66.96875 133.945312 66.894531 133.476562 66.632812 133.074219 C 66.453125 132.816406 66.089844 132.582031 65.636719 132.582031 C 64.285156 132.582031 64.285156 134.164062 64.285156 134.578125 C 64.285156 134.996094 64.285156 136.539062 65.636719 136.539062 C 66.96875 136.539062 66.96875 134.996094 66.96875 134.578125 Z M 65.636719 136.367188 C 65.363281 136.367188 65.011719 136.214844 64.894531 135.746094 C 64.820312 135.410156 64.820312 134.929688 64.820312 134.5 C 64.820312 134.074219 64.820312 133.632812 64.894531 133.320312 C 65.027344 132.867188 65.390625 132.738281 65.636719 132.738281 C 65.945312 132.738281 66.246094 132.933594 66.347656 133.269531 C 66.4375 133.582031 66.453125 133.996094 66.453125 134.5 C 66.453125 134.929688 66.453125 135.355469 66.375 135.71875 C 66.257812 136.25 65.867188 136.367188 65.636719 136.367188 Z M 65.636719 136.367188 "/>
<path fill-rule="nonzero" fill="rgb(25.881958%, 29.411316%, 31.37207%)" fill-opacity="1" d="M 68.359375 132.089844 L 67.464844 132.089844 L 67.464844 132.363281 L 68.074219 132.363281 L 68.074219 137.585938 L 67.464844 137.585938 L 67.464844 137.859375 L 68.359375 137.859375 Z M 68.359375 132.089844 "/>
<path fill="none" stroke-width="1.424866" stroke-linecap="butt" stroke-linejoin="miter" stroke="rgb(27.842712%, 40.391541%, 47.450256%)" stroke-opacity="1" stroke-miterlimit="4" d="M 81.871094 70.450994 C 82.621094 69.4798 82.585938 69.542967 82.945312 69.092902 C 91.3125 58.524266 101.402344 55.7765 111.296875 58.737455 C 117.667969 60.64431 122.558594 69.179757 127.136719 76.218934 " transform="matrix(1, 0, 0, 0.98944, 0, 0)"/>
<path fill="none" stroke-width="1.424866" stroke-linecap="butt" stroke-linejoin="miter" stroke="rgb(77.645874%, 80.39093%, 81.175232%)" stroke-opacity="1" stroke-miterlimit="4" d="M 159.929688 71.426135 C 160.03125 71.319541 157.496094 66.747826 156.492188 64.801491 C 146.34375 45.085478 127.3125 38.413459 108.902344 46.076411 C 104.566406 47.880619 99.464844 52.874764 96.25 56.443702 " transform="matrix(1, 0, 0, 0.98944, 0, 0)"/>
<path fill-rule="nonzero" fill="rgb(27.842712%, 40.391541%, 47.450256%)" fill-opacity="1" stroke-width="0.850394" stroke-linecap="butt" stroke-linejoin="round" stroke="rgb(62.744141%, 85.096741%, 82.743835%)" stroke-opacity="1" stroke-miterlimit="4" d="M 110.792969 57.976562 C 110.792969 58.953125 110 59.746094 109.019531 59.746094 C 108.042969 59.746094 107.25 58.953125 107.25 57.976562 C 107.25 56.996094 108.042969 56.203125 109.019531 56.203125 C 110 56.203125 110.792969 56.996094 110.792969 57.976562 Z M 110.792969 57.976562 "/>
<path fill-rule="nonzero" fill="rgb(77.645874%, 80.39093%, 81.175232%)" fill-opacity="1" stroke-width="0.850394" stroke-linecap="butt" stroke-linejoin="round" stroke="rgb(25.881958%, 29.411316%, 30.979919%)" stroke-opacity="1" stroke-miterlimit="4" d="M 124.546875 42.878906 C 124.546875 43.855469 123.753906 44.648438 122.777344 44.648438 C 121.796875 44.648438 121.007812 43.855469 121.007812 42.878906 C 121.007812 41.898438 121.796875 41.105469 122.777344 41.105469 C 123.753906 41.105469 124.546875 41.898438 124.546875 42.878906 Z M 124.546875 42.878906 "/>
<path fill-rule="nonzero" fill="rgb(25.881958%, 29.411316%, 31.37207%)" fill-opacity="1" d="M 121.621094 134.621094 C 121.648438 134.515625 121.648438 134.503906 121.648438 134.492188 C 121.648438 134.375 121.53125 134.375 121.453125 134.375 C 121.285156 134.375 121.285156 134.398438 121.234375 134.570312 L 120.832031 136.203125 C 120.792969 136.320312 120.792969 136.320312 120.78125 136.332031 C 120.765625 136.332031 120.753906 136.34375 120.625 136.359375 C 118.914062 136.449219 117.902344 137.628906 117.902344 138.679688 C 117.902344 139.558594 118.613281 140.167969 119.820312 140.207031 L 119.46875 141.671875 C 119.46875 141.789062 119.585938 141.789062 119.664062 141.789062 C 119.792969 141.789062 119.832031 141.777344 119.871094 141.632812 L 120.15625 140.480469 C 120.210938 140.246094 120.222656 140.234375 120.234375 140.222656 C 120.25 140.222656 120.261719 140.222656 120.390625 140.207031 C 122.078125 140.105469 123.113281 138.949219 123.113281 137.886719 C 123.113281 136.992188 122.402344 136.398438 121.195312 136.359375 Z M 119.898438 139.910156 C 119.183594 139.871094 118.746094 139.558594 118.746094 138.898438 C 118.746094 138.664062 118.835938 137.902344 119.277344 137.355469 C 119.5625 136.992188 120.039062 136.707031 120.714844 136.65625 Z M 121.117188 136.65625 C 121.828125 136.695312 122.269531 136.992188 122.269531 137.667969 C 122.269531 137.902344 122.179688 138.664062 121.738281 139.210938 C 121.453125 139.574219 120.972656 139.859375 120.300781 139.910156 Z M 121.117188 136.65625 "/>
<path fill-rule="nonzero" fill="rgb(25.881958%, 29.411316%, 31.37207%)" fill-opacity="1" d="M 124.996094 137.859375 L 124.996094 137.585938 L 124.402344 137.585938 L 124.402344 132.363281 L 124.996094 132.363281 L 124.996094 132.089844 L 124.117188 132.089844 L 124.117188 137.859375 Z M 124.996094 137.859375 "/>
<path fill-rule="nonzero" fill="rgb(25.881958%, 29.411316%, 31.37207%)" fill-opacity="1" d="M 126.777344 134.488281 C 127.230469 134.488281 127.554688 134.800781 127.554688 135.421875 C 127.554688 136.136719 127.128906 136.355469 126.804688 136.355469 C 126.570312 136.355469 126.050781 136.289062 125.820312 135.941406 C 126.089844 135.941406 126.15625 135.746094 126.15625 135.617188 C 126.15625 135.433594 126.011719 135.304688 125.832031 135.304688 C 125.675781 135.304688 125.507812 135.410156 125.507812 135.644531 C 125.507812 136.1875 126.105469 136.539062 126.804688 136.539062 C 127.609375 136.539062 128.164062 135.992188 128.164062 135.421875 C 128.164062 134.96875 127.800781 134.515625 127.167969 134.386719 C 127.765625 134.164062 127.984375 133.738281 127.984375 133.375 C 127.984375 132.921875 127.464844 132.582031 126.816406 132.582031 C 126.183594 132.582031 125.6875 132.894531 125.6875 133.359375 C 125.6875 133.554688 125.820312 133.660156 125.988281 133.660156 C 126.167969 133.660156 126.285156 133.53125 126.285156 133.375 C 126.285156 133.207031 126.167969 133.074219 125.988281 133.0625 C 126.195312 132.816406 126.582031 132.75 126.804688 132.75 C 127.0625 132.75 127.425781 132.882812 127.425781 133.375 C 127.425781 133.621094 127.347656 133.890625 127.191406 134.0625 C 127.011719 134.28125 126.84375 134.292969 126.558594 134.320312 C 126.414062 134.332031 126.402344 134.332031 126.375 134.332031 C 126.363281 134.332031 126.3125 134.347656 126.3125 134.410156 C 126.3125 134.488281 126.363281 134.488281 126.46875 134.488281 Z M 126.777344 134.488281 "/>
<path fill-rule="nonzero" fill="rgb(25.881958%, 29.411316%, 31.37207%)" fill-opacity="1" d="M 129.566406 132.089844 L 128.671875 132.089844 L 128.671875 132.363281 L 129.28125 132.363281 L 129.28125 137.585938 L 128.671875 137.585938 L 128.671875 137.859375 L 129.566406 137.859375 Z M 129.566406 132.089844 "/>
</svg>
