<?xml version="1.0" encoding="UTF-8"?>
<svg xmlns="http://www.w3.org/2000/svg" xmlns:xlink="http://www.w3.org/1999/xlink" width="190.129416pt" height="140.247507pt" viewBox="0 0 190.129416 140.247507">
<defs>
<clipPath id="clip-0">
<path clip-rule="nonzero" d="M 32 0 L 158 0 L 158 140.246094 L 32 140.246094 Z M 32 0 "/>
</clipPath>
<clipPath id="clip-1">
<path clip-rule="nonzero" d="M 8 0 L 182 0 L 182 140.246094 L 8 140.246094 Z M 8 0 "/>
</clipPath>
<clipPath id="clip-2">
<path clip-rule="nonzero" d="M 11 36 L 178 36 L 178 140.246094 L 11 140.246094 Z M 11 36 "/>
</clipPath>
</defs>
<path fill-rule="nonzero" fill="rgb(62.744141%, 85.096741%, 82.743835%)" fill-opacity="1" d="M 59.5 0.726562 L 130.628906 0.726562 C 143.351562 0.726562 153.59375 10.96875 153.59375 23.691406 L 153.59375 115.015625 C 153.59375 127.738281 143.351562 137.980469 130.628906 137.980469 L 59.5 137.980469 C 46.777344 137.980469 36.535156 127.738281 36.535156 115.015625 L 36.535156 23.691406 C 36.535156 10.96875 46.777344 0.726562 59.5 0.726562 Z M 59.5 0.726562 "/>
<g clip-path="url(#clip-0)">
<path fill="none" stroke-width="0.751178" stroke-linecap="butt" stroke-linejoin="miter" stroke="rgb(0%, 0%, 0%)" stroke-opacity="1" stroke-miterlimit="4" d="M 59.5 0.726562 L 130.628906 0.726562 C 143.351562 0.726562 153.59375 10.96875 153.59375 23.691406 L 153.59375 115.015625 C 153.59375 127.738281 143.351562 137.980469 130.628906 137.980469 L 59.5 137.980469 C 46.777344 137.980469 36.535156 127.738281 36.535156 115.015625 L 36.535156 23.691406 C 36.535156 10.96875 46.777344 0.726562 59.5 0.726562 Z M 59.5 0.726562 "/>
</g>
<path fill-rule="nonzero" fill="rgb(62.744141%, 85.096741%, 82.743835%)" fill-opacity="1" d="M 24.871094 0.726562 L 165.257812 0.726562 C 172.023438 0.726562 177.46875 6.171875 177.46875 12.9375 L 177.46875 127.660156 C 177.46875 134.425781 172.023438 139.871094 165.257812 139.871094 L 24.871094 139.871094 C 18.105469 139.871094 12.660156 134.425781 12.660156 127.660156 L 12.660156 12.9375 C 12.660156 6.171875 18.105469 0.726562 24.871094 0.726562 Z M 24.871094 0.726562 "/>
<g clip-path="url(#clip-1)">
<path fill="none" stroke-width="0.751178" stroke-linecap="butt" stroke-linejoin="miter" stroke="rgb(0%, 0%, 0%)" stroke-opacity="1" stroke-miterlimit="4" d="M 24.871094 0.726562 L 165.257812 0.726562 C 172.023438 0.726562 177.46875 6.171875 177.46875 12.9375 L 177.46875 127.660156 C 177.46875 134.425781 172.023438 139.871094 165.257812 139.871094 L 24.871094 139.871094 C 18.105469 139.871094 12.660156 134.425781 12.660156 127.660156 L 12.660156 12.9375 C 12.660156 6.171875 18.105469 0.726562 24.871094 0.726562 Z M 24.871094 0.726562 "/>
</g>
<path fill-rule="nonzero" fill="rgb(68.234253%, 76.469421%, 81.175232%)" fill-opacity="0.510121" d="M 25.984375 40.898438 L 163.148438 40.898438 C 168.925781 40.898438 173.582031 46.445312 173.582031 53.332031 L 173.582031 124.507812 C 173.582031 131.398438 168.925781 136.941406 163.148438 136.941406 L 25.984375 136.941406 C 20.203125 136.941406 15.550781 131.398438 15.550781 124.507812 L 15.550781 53.332031 C 15.550781 46.445312 20.203125 40.898438 25.984375 40.898438 Z M 25.984375 40.898438 "/>
<g clip-path="url(#clip-2)">
<path fill="none" stroke-width="0.751178" stroke-linecap="butt" stroke-linejoin="miter" stroke="rgb(0%, 0%, 0%)" stroke-opacity="1" stroke-miterlimit="4" d="M 25.984375 40.898438 L 163.148438 40.898438 C 168.925781 40.898438 173.582031 46.445312 173.582031 53.332031 L 173.582031 124.507812 C 173.582031 131.398438 168.925781 136.941406 163.148438 136.941406 L 25.984375 136.941406 C 20.203125 136.941406 15.550781 131.398438 15.550781 124.507812 L 15.550781 53.332031 C 15.550781 46.445312 20.203125 40.898438 25.984375 40.898438 Z M 25.984375 40.898438 "/>
</g>
<path fill-rule="nonzero" fill="rgb(81.959534%, 51.371765%, 38.430786%)" fill-opacity="1" stroke-width="0.751178" stroke-linecap="butt" stroke-linejoin="miter" stroke="rgb(0%, 0%, 0%)" stroke-opacity="1" stroke-miterlimit="4" d="M 29.429688 69.644531 L 159.007812 69.644531 C 164.796875 69.644531 169.457031 74.304688 169.457031 80.09375 L 169.457031 123.375 C 169.457031 129.164062 164.796875 133.824219 159.007812 133.824219 L 29.429688 133.824219 C 23.640625 133.824219 18.980469 129.164062 18.980469 123.375 L 18.980469 80.09375 C 18.980469 74.304688 23.640625 69.644531 29.429688 69.644531 Z M 29.429688 69.644531 "/>
<path fill-rule="nonzero" fill="rgb(0%, 0%, 0%)" fill-opacity="1" d="M 66.351562 3.972656 L 65.796875 3.972656 L 65.796875 7.3125 C 65.796875 8.261719 65.183594 8.738281 64.574219 8.738281 C 63.984375 8.738281 63.394531 8.285156 63.394531 7.3125 L 63.394531 3.972656 L 62.75 3.972656 L 62.75 7.300781 C 62.75 8.351562 63.601562 9.144531 64.574219 9.144531 C 65.535156 9.144531 66.351562 8.351562 66.351562 7.300781 Z M 66.351562 3.972656 "/>
<path fill-rule="nonzero" fill="rgb(0%, 0%, 0%)" fill-opacity="1" d="M 70.179688 6.835938 C 70.179688 6.359375 70.066406 5.703125 69.183594 5.703125 C 68.539062 5.703125 68.175781 6.191406 68.144531 6.246094 L 68.144531 5.738281 L 67.621094 5.738281 L 67.621094 8.988281 L 68.175781 8.988281 L 68.175781 7.222656 C 68.175781 6.746094 68.359375 6.144531 68.914062 6.144531 C 69.605469 6.144531 69.617188 6.65625 69.617188 6.882812 L 69.617188 8.988281 L 70.179688 8.988281 Z M 70.179688 6.835938 "/>
<path fill-rule="nonzero" fill="rgb(0%, 0%, 0%)" fill-opacity="1" d="M 73.242188 5.882812 C 72.871094 5.714844 72.574219 5.660156 72.203125 5.660156 C 72.019531 5.660156 71 5.660156 71 6.597656 C 71 6.960938 71.21875 7.1875 71.398438 7.324219 C 71.613281 7.480469 71.773438 7.515625 72.167969 7.59375 C 72.429688 7.640625 72.847656 7.730469 72.847656 8.113281 C 72.847656 8.613281 72.28125 8.613281 72.167969 8.613281 C 71.589844 8.613281 71.183594 8.339844 71.058594 8.261719 L 70.96875 8.75 C 71.195312 8.863281 71.589844 9.066406 72.179688 9.066406 C 72.316406 9.066406 72.710938 9.066406 73.015625 8.839844 C 73.242188 8.660156 73.367188 8.375 73.367188 8.058594 C 73.367188 7.664062 73.097656 7.425781 73.085938 7.402344 C 72.800781 7.140625 72.609375 7.097656 72.246094 7.039062 C 71.851562 6.960938 71.511719 6.882812 71.511719 6.53125 C 71.511719 6.089844 72.03125 6.089844 72.132812 6.089844 C 72.359375 6.089844 72.746094 6.109375 73.152344 6.359375 Z M 73.242188 5.882812 "/>
<path fill-rule="nonzero" fill="rgb(0%, 0%, 0%)" fill-opacity="1" d="M 76.679688 5.78125 L 76.113281 5.78125 L 76.113281 7.878906 C 76.113281 8.421875 75.707031 8.671875 75.242188 8.671875 C 74.730469 8.671875 74.675781 8.476562 74.675781 8.171875 L 74.675781 5.78125 L 74.121094 5.78125 L 74.121094 8.195312 C 74.121094 8.714844 74.277344 9.066406 74.878906 9.066406 C 75.261719 9.066406 75.773438 8.953125 76.136719 8.636719 L 76.136719 8.988281 L 76.679688 8.988281 Z M 76.679688 5.78125 "/>
<path fill-rule="nonzero" fill="rgb(0%, 0%, 0%)" fill-opacity="1" d="M 78.414062 8.660156 C 78.640625 8.863281 78.960938 9.066406 79.390625 9.066406 C 80.089844 9.066406 80.726562 8.351562 80.726562 7.378906 C 80.726562 6.507812 80.273438 5.703125 79.582031 5.703125 C 79.152344 5.703125 78.734375 5.851562 78.394531 6.132812 L 78.394531 5.78125 L 77.847656 5.78125 L 77.847656 10.390625 L 78.414062 10.390625 Z M 78.414062 6.585938 C 78.585938 6.328125 78.867188 6.167969 79.183594 6.167969 C 79.730469 6.167969 80.160156 6.710938 80.160156 7.378906 C 80.160156 8.113281 79.648438 8.625 79.105469 8.625 C 78.824219 8.625 78.628906 8.476562 78.484375 8.285156 C 78.414062 8.183594 78.414062 8.160156 78.414062 8.035156 Z M 78.414062 6.585938 "/>
<path fill-rule="nonzero" fill="rgb(0%, 0%, 0%)" fill-opacity="1" d="M 84.183594 7.402344 C 84.183594 7.164062 84.171875 6.621094 83.898438 6.179688 C 83.59375 5.738281 83.164062 5.660156 82.902344 5.660156 C 82.097656 5.660156 81.441406 6.429688 81.441406 7.355469 C 81.441406 8.308594 82.144531 9.066406 83.003906 9.066406 C 83.457031 9.066406 83.875 8.894531 84.160156 8.691406 L 84.113281 8.21875 C 83.660156 8.601562 83.175781 8.625 83.015625 8.625 C 82.4375 8.625 81.972656 8.113281 81.953125 7.402344 Z M 81.984375 7.003906 C 82.097656 6.460938 82.484375 6.101562 82.902344 6.101562 C 83.277344 6.101562 83.671875 6.335938 83.773438 7.003906 Z M 81.984375 7.003906 "/>
<path fill-rule="nonzero" fill="rgb(0%, 0%, 0%)" fill-opacity="1" d="M 85.53125 7.4375 C 85.53125 6.722656 86.054688 6.203125 86.765625 6.179688 L 86.765625 5.703125 C 86.121094 5.703125 85.726562 6.066406 85.5 6.394531 L 85.5 5.738281 L 84.988281 5.738281 L 84.988281 8.988281 L 85.53125 8.988281 Z M 85.53125 7.4375 "/>
<path fill-rule="nonzero" fill="rgb(0%, 0%, 0%)" fill-opacity="1" d="M 90.09375 5.78125 L 89.550781 5.78125 L 88.972656 7.277344 C 88.828125 7.683594 88.601562 8.261719 88.542969 8.601562 L 88.53125 8.601562 C 88.5 8.339844 88.304688 7.84375 88.238281 7.652344 L 87.535156 5.78125 L 86.96875 5.78125 L 88.214844 8.988281 L 88.847656 8.988281 Z M 90.09375 5.78125 "/>
<path fill-rule="nonzero" fill="rgb(0%, 0%, 0%)" fill-opacity="1" d="M 91.375 4.074219 L 90.726562 4.074219 L 90.726562 4.71875 L 91.375 4.71875 Z M 91.328125 5.78125 L 90.785156 5.78125 L 90.785156 8.988281 L 91.328125 8.988281 Z M 91.328125 5.78125 "/>
<path fill-rule="nonzero" fill="rgb(0%, 0%, 0%)" fill-opacity="1" d="M 94.398438 5.882812 C 94.027344 5.714844 93.730469 5.660156 93.359375 5.660156 C 93.175781 5.660156 92.160156 5.660156 92.160156 6.597656 C 92.160156 6.960938 92.375 7.1875 92.554688 7.324219 C 92.769531 7.480469 92.929688 7.515625 93.324219 7.59375 C 93.585938 7.640625 94.003906 7.730469 94.003906 8.113281 C 94.003906 8.613281 93.4375 8.613281 93.324219 8.613281 C 92.746094 8.613281 92.339844 8.339844 92.214844 8.261719 L 92.125 8.75 C 92.351562 8.863281 92.746094 9.066406 93.335938 9.066406 C 93.472656 9.066406 93.867188 9.066406 94.171875 8.839844 C 94.398438 8.660156 94.523438 8.375 94.523438 8.058594 C 94.523438 7.664062 94.253906 7.425781 94.242188 7.402344 C 93.957031 7.140625 93.765625 7.097656 93.402344 7.039062 C 93.007812 6.960938 92.667969 6.882812 92.667969 6.53125 C 92.667969 6.089844 93.1875 6.089844 93.289062 6.089844 C 93.515625 6.089844 93.902344 6.109375 94.308594 6.359375 Z M 94.398438 5.882812 "/>
<path fill-rule="nonzero" fill="rgb(0%, 0%, 0%)" fill-opacity="1" d="M 97.675781 7.402344 C 97.675781 7.164062 97.664062 6.621094 97.394531 6.179688 C 97.089844 5.738281 96.65625 5.660156 96.398438 5.660156 C 95.59375 5.660156 94.9375 6.429688 94.9375 7.355469 C 94.9375 8.308594 95.640625 9.066406 96.5 9.066406 C 96.953125 9.066406 97.371094 8.894531 97.652344 8.691406 L 97.609375 8.21875 C 97.15625 8.601562 96.667969 8.625 96.511719 8.625 C 95.933594 8.625 95.46875 8.113281 95.445312 7.402344 Z M 95.480469 7.003906 C 95.59375 6.460938 95.976562 6.101562 96.398438 6.101562 C 96.769531 6.101562 97.167969 6.335938 97.269531 7.003906 Z M 95.480469 7.003906 "/>
<path fill-rule="nonzero" fill="rgb(0%, 0%, 0%)" fill-opacity="1" d="M 101.03125 3.972656 L 100.488281 3.972656 L 100.488281 6.101562 C 100.101562 5.78125 99.707031 5.703125 99.433594 5.703125 C 98.722656 5.703125 98.15625 6.449219 98.15625 7.378906 C 98.15625 8.332031 98.710938 9.066406 99.402344 9.066406 C 99.640625 9.066406 100.058594 9 100.464844 8.613281 L 100.464844 8.988281 L 101.03125 8.988281 Z M 100.464844 7.980469 C 100.464844 8.082031 100.453125 8.21875 100.226562 8.421875 C 100.058594 8.566406 99.875 8.625 99.695312 8.625 C 99.242188 8.625 98.722656 8.285156 98.722656 7.390625 C 98.722656 6.441406 99.34375 6.144531 99.761719 6.144531 C 100.09375 6.144531 100.308594 6.304688 100.464844 6.542969 Z M 100.464844 7.980469 "/>
<path fill-rule="nonzero" fill="rgb(0%, 0%, 0%)" fill-opacity="1" d="M 104.617188 3.972656 L 105.160156 3.972656 L 105.160156 8.988281 L 104.617188 8.988281 Z M 104.617188 3.972656 "/>
<path fill-rule="nonzero" fill="rgb(0%, 0%, 0%)" fill-opacity="1" d="M 108.742188 7.402344 C 108.742188 7.164062 108.730469 6.621094 108.460938 6.179688 C 108.15625 5.738281 107.722656 5.660156 107.464844 5.660156 C 106.660156 5.660156 106.003906 6.429688 106.003906 7.355469 C 106.003906 8.308594 106.707031 9.066406 107.566406 9.066406 C 108.019531 9.066406 108.4375 8.894531 108.71875 8.691406 L 108.675781 8.21875 C 108.222656 8.601562 107.734375 8.625 107.578125 8.625 C 107 8.625 106.535156 8.113281 106.511719 7.402344 Z M 106.546875 7.003906 C 106.660156 6.460938 107.046875 6.101562 107.464844 6.101562 C 107.835938 6.101562 108.234375 6.335938 108.335938 7.003906 Z M 106.546875 7.003906 "/>
<path fill-rule="nonzero" fill="rgb(0%, 0%, 0%)" fill-opacity="1" d="M 111.847656 6.902344 C 111.847656 6.167969 111.316406 5.660156 110.648438 5.660156 C 110.183594 5.660156 109.855469 5.773438 109.515625 5.964844 L 109.5625 6.441406 C 109.9375 6.179688 110.296875 6.089844 110.648438 6.089844 C 110.988281 6.089844 111.28125 6.371094 111.28125 6.902344 L 111.28125 7.222656 C 110.195312 7.230469 109.277344 7.539062 109.277344 8.171875 C 109.277344 8.476562 109.472656 9.066406 110.105469 9.066406 C 110.207031 9.066406 110.886719 9.054688 111.304688 8.726562 L 111.304688 8.988281 L 111.847656 8.988281 Z M 111.28125 8.035156 C 111.28125 8.171875 111.28125 8.351562 111.035156 8.488281 C 110.828125 8.613281 110.546875 8.625 110.46875 8.625 C 110.128906 8.625 109.800781 8.453125 109.800781 8.160156 C 109.800781 7.652344 110.964844 7.605469 111.28125 7.582031 Z M 111.28125 8.035156 "/>
<path fill-rule="nonzero" fill="rgb(0%, 0%, 0%)" fill-opacity="1" d="M 113.359375 7.4375 C 113.359375 6.722656 113.882812 6.203125 114.59375 6.179688 L 114.59375 5.703125 C 113.949219 5.703125 113.554688 6.066406 113.328125 6.394531 L 113.328125 5.738281 L 112.816406 5.738281 L 112.816406 8.988281 L 113.359375 8.988281 Z M 113.359375 7.4375 "/>
<path fill-rule="nonzero" fill="rgb(0%, 0%, 0%)" fill-opacity="1" d="M 117.84375 6.835938 C 117.84375 6.359375 117.730469 5.703125 116.847656 5.703125 C 116.203125 5.703125 115.839844 6.191406 115.804688 6.246094 L 115.804688 5.738281 L 115.285156 5.738281 L 115.285156 8.988281 L 115.839844 8.988281 L 115.839844 7.222656 C 115.839844 6.746094 116.019531 6.144531 116.574219 6.144531 C 117.265625 6.144531 117.277344 6.65625 117.277344 6.882812 L 117.277344 8.988281 L 117.84375 8.988281 Z M 117.84375 6.835938 "/>
<path fill-rule="nonzero" fill="rgb(0%, 0%, 0%)" fill-opacity="1" d="M 119.601562 4.074219 L 118.957031 4.074219 L 118.957031 4.71875 L 119.601562 4.71875 Z M 119.558594 5.78125 L 119.015625 5.78125 L 119.015625 8.988281 L 119.558594 8.988281 Z M 119.558594 5.78125 "/>
<path fill-rule="nonzero" fill="rgb(0%, 0%, 0%)" fill-opacity="1" d="M 123.296875 6.835938 C 123.296875 6.359375 123.183594 5.703125 122.300781 5.703125 C 121.65625 5.703125 121.292969 6.191406 121.261719 6.246094 L 121.261719 5.738281 L 120.738281 5.738281 L 120.738281 8.988281 L 121.292969 8.988281 L 121.292969 7.222656 C 121.292969 6.746094 121.476562 6.144531 122.03125 6.144531 C 122.71875 6.144531 122.730469 6.65625 122.730469 6.882812 L 122.730469 8.988281 L 123.296875 8.988281 Z M 123.296875 6.835938 "/>
<path fill-rule="nonzero" fill="rgb(0%, 0%, 0%)" fill-opacity="1" d="M 126.429688 6.167969 C 126.585938 6.167969 126.777344 6.132812 126.960938 6.132812 C 127.085938 6.132812 127.367188 6.15625 127.378906 6.15625 L 127.300781 5.703125 C 126.800781 5.703125 126.382812 5.839844 126.167969 5.929688 C 126.007812 5.804688 125.769531 5.703125 125.476562 5.703125 C 124.855469 5.703125 124.332031 6.222656 124.332031 6.882812 C 124.332031 7.140625 124.425781 7.402344 124.570312 7.59375 C 124.355469 7.890625 124.355469 8.171875 124.355469 8.207031 C 124.355469 8.398438 124.425781 8.601562 124.546875 8.761719 C 124.175781 8.976562 124.085938 9.316406 124.085938 9.496094 C 124.085938 10.039062 124.796875 10.46875 125.679688 10.46875 C 126.5625 10.46875 127.277344 10.050781 127.277344 9.496094 C 127.277344 8.488281 126.078125 8.488281 125.792969 8.488281 L 125.160156 8.488281 C 125.070312 8.488281 124.742188 8.488281 124.742188 8.105469 C 124.742188 8.023438 124.761719 7.910156 124.820312 7.84375 C 124.96875 7.957031 125.203125 8.058594 125.476562 8.058594 C 126.121094 8.058594 126.632812 7.515625 126.632812 6.882812 C 126.632812 6.53125 126.472656 6.257812 126.394531 6.15625 Z M 125.476562 7.640625 C 125.203125 7.640625 124.832031 7.480469 124.832031 6.882812 C 124.832031 6.28125 125.203125 6.109375 125.476562 6.109375 C 125.78125 6.109375 126.121094 6.316406 126.121094 6.882812 C 126.121094 7.4375 125.78125 7.640625 125.476562 7.640625 Z M 125.804688 9.007812 C 125.964844 9.007812 126.777344 9.007812 126.777344 9.507812 C 126.777344 9.824219 126.28125 10.0625 125.691406 10.0625 C 125.101562 10.0625 124.59375 9.835938 124.59375 9.496094 C 124.59375 9.472656 124.59375 9.007812 125.148438 9.007812 Z M 125.804688 9.007812 "/>
<path fill-rule="nonzero" fill="rgb(77.645874%, 80.39093%, 81.175232%)" fill-opacity="0.552743" stroke-width="0.751175" stroke-linecap="butt" stroke-linejoin="miter" stroke="rgb(0%, 0%, 0%)" stroke-opacity="1" stroke-miterlimit="4" d="M 101.695312 15.839844 L 155.679688 15.839844 C 161.480469 15.839844 166.148438 20.511719 166.148438 26.3125 L 166.148438 120.722656 C 166.148438 126.523438 161.480469 131.191406 155.679688 131.191406 L 101.695312 131.191406 C 95.894531 131.191406 91.222656 126.523438 91.222656 120.722656 L 91.222656 26.3125 C 91.222656 20.511719 95.894531 15.839844 101.695312 15.839844 Z M 101.695312 15.839844 "/>
<path fill-rule="nonzero" fill="rgb(0%, 0%, 0%)" fill-opacity="1" d="M 27.117188 46.90625 L 25.585938 46.90625 L 25.585938 47.359375 L 26.539062 47.359375 L 26.539062 48.535156 C 26.253906 48.636719 25.902344 48.683594 25.597656 48.683594 C 24.648438 48.683594 23.910156 47.722656 23.910156 46.554688 C 23.910156 45.421875 24.625 44.4375 25.585938 44.4375 C 26.164062 44.4375 26.582031 44.609375 26.945312 44.914062 L 27.046875 44.324219 C 26.640625 44.074219 26.085938 43.972656 25.597656 43.972656 C 24.207031 43.972656 23.253906 45.230469 23.253906 46.554688 C 23.253906 47.867188 24.21875 49.148438 25.597656 49.148438 C 26.140625 49.148438 26.628906 49 27.117188 48.796875 Z M 27.117188 46.90625 "/>
<path fill-rule="nonzero" fill="rgb(0%, 0%, 0%)" fill-opacity="1" d="M 30.582031 47.484375 C 30.582031 47.246094 30.570312 46.703125 30.296875 46.261719 C 29.992188 45.820312 29.5625 45.738281 29.300781 45.738281 C 28.496094 45.738281 27.839844 46.511719 27.839844 47.4375 C 27.839844 48.390625 28.542969 49.148438 29.402344 49.148438 C 29.855469 49.148438 30.273438 48.976562 30.558594 48.773438 L 30.511719 48.300781 C 30.058594 48.683594 29.574219 48.707031 29.414062 48.707031 C 28.835938 48.707031 28.375 48.195312 28.351562 47.484375 Z M 28.382812 47.085938 C 28.496094 46.542969 28.882812 46.179688 29.300781 46.179688 C 29.675781 46.179688 30.070312 46.417969 30.171875 47.085938 Z M 28.382812 47.085938 "/>
<path fill-rule="nonzero" fill="rgb(0%, 0%, 0%)" fill-opacity="1" d="M 33.949219 46.917969 C 33.949219 46.441406 33.835938 45.785156 32.949219 45.785156 C 32.304688 45.785156 31.941406 46.273438 31.910156 46.328125 L 31.910156 45.820312 L 31.386719 45.820312 L 31.386719 49.070312 L 31.941406 49.070312 L 31.941406 47.300781 C 31.941406 46.828125 32.125 46.226562 32.679688 46.226562 C 33.371094 46.226562 33.382812 46.738281 33.382812 46.960938 L 33.382812 49.070312 L 33.949219 49.070312 Z M 33.949219 46.917969 "/>
<path fill-rule="nonzero" fill="rgb(0%, 0%, 0%)" fill-opacity="1" d="M 37.519531 47.484375 C 37.519531 47.246094 37.507812 46.703125 37.234375 46.261719 C 36.929688 45.820312 36.5 45.738281 36.238281 45.738281 C 35.4375 45.738281 34.777344 46.511719 34.777344 47.4375 C 34.777344 48.390625 35.480469 49.148438 36.339844 49.148438 C 36.792969 49.148438 37.214844 48.976562 37.496094 48.773438 L 37.449219 48.300781 C 37 48.683594 36.511719 48.707031 36.351562 48.707031 C 35.777344 48.707031 35.3125 48.195312 35.289062 47.484375 Z M 35.324219 47.085938 C 35.4375 46.542969 35.820312 46.179688 36.238281 46.179688 C 36.613281 46.179688 37.007812 46.417969 37.113281 47.085938 Z M 35.324219 47.085938 "/>
<path fill-rule="nonzero" fill="rgb(0%, 0%, 0%)" fill-opacity="1" d="M 38.871094 47.519531 C 38.871094 46.804688 39.390625 46.285156 40.105469 46.261719 L 40.105469 45.785156 C 39.457031 45.785156 39.0625 46.148438 38.835938 46.476562 L 38.835938 45.820312 L 38.328125 45.820312 L 38.328125 49.070312 L 38.871094 49.070312 Z M 38.871094 47.519531 "/>
<path fill-rule="nonzero" fill="rgb(0%, 0%, 0%)" fill-opacity="1" d="M 43.09375 46.984375 C 43.09375 46.25 42.558594 45.738281 41.890625 45.738281 C 41.425781 45.738281 41.097656 45.851562 40.757812 46.046875 L 40.804688 46.519531 C 41.179688 46.261719 41.539062 46.171875 41.890625 46.171875 C 42.230469 46.171875 42.527344 46.453125 42.527344 46.984375 L 42.527344 47.300781 C 41.4375 47.3125 40.523438 47.621094 40.523438 48.253906 C 40.523438 48.558594 40.714844 49.148438 41.347656 49.148438 C 41.449219 49.148438 42.128906 49.136719 42.546875 48.808594 L 42.546875 49.070312 L 43.09375 49.070312 Z M 42.527344 48.117188 C 42.527344 48.253906 42.527344 48.433594 42.277344 48.570312 C 42.074219 48.695312 41.789062 48.707031 41.710938 48.707031 C 41.371094 48.707031 41.042969 48.535156 41.042969 48.242188 C 41.042969 47.734375 42.207031 47.6875 42.527344 47.664062 Z M 42.527344 48.117188 "/>
<path fill-rule="nonzero" fill="rgb(0%, 0%, 0%)" fill-opacity="1" d="M 44.941406 46.285156 L 45.960938 46.285156 L 45.960938 45.863281 L 44.941406 45.863281 L 44.941406 44.949219 L 44.445312 44.949219 L 44.445312 45.863281 L 43.808594 45.863281 L 43.808594 46.285156 L 44.421875 46.285156 L 44.421875 48.207031 C 44.421875 48.636719 44.523438 49.148438 45.023438 49.148438 C 45.519531 49.148438 45.894531 48.96875 46.074219 48.875 L 45.960938 48.445312 C 45.769531 48.605469 45.542969 48.683594 45.304688 48.683594 C 45.042969 48.683594 44.941406 48.46875 44.941406 48.082031 Z M 44.941406 46.285156 "/>
<path fill-rule="nonzero" fill="rgb(0%, 0%, 0%)" fill-opacity="1" d="M 47.457031 44.15625 L 46.8125 44.15625 L 46.8125 44.800781 L 47.457031 44.800781 Z M 47.414062 45.863281 L 46.871094 45.863281 L 46.871094 49.070312 L 47.414062 49.070312 Z M 47.414062 45.863281 "/>
<path fill-rule="nonzero" fill="rgb(0%, 0%, 0%)" fill-opacity="1" d="M 51.230469 45.863281 L 50.6875 45.863281 L 50.109375 47.359375 C 49.964844 47.765625 49.738281 48.34375 49.679688 48.683594 L 49.667969 48.683594 C 49.636719 48.421875 49.441406 47.925781 49.375 47.734375 L 48.671875 45.863281 L 48.105469 45.863281 L 49.351562 49.070312 L 49.988281 49.070312 Z M 51.230469 45.863281 "/>
<path fill-rule="nonzero" fill="rgb(0%, 0%, 0%)" fill-opacity="1" d="M 54.324219 47.484375 C 54.324219 47.246094 54.3125 46.703125 54.039062 46.261719 C 53.734375 45.820312 53.304688 45.738281 53.042969 45.738281 C 52.238281 45.738281 51.582031 46.511719 51.582031 47.4375 C 51.582031 48.390625 52.285156 49.148438 53.144531 49.148438 C 53.597656 49.148438 54.015625 48.976562 54.300781 48.773438 L 54.253906 48.300781 C 53.800781 48.683594 53.316406 48.707031 53.15625 48.707031 C 52.578125 48.707031 52.113281 48.195312 52.09375 47.484375 Z M 52.125 47.085938 C 52.238281 46.542969 52.625 46.179688 53.042969 46.179688 C 53.417969 46.179688 53.8125 46.417969 53.914062 47.085938 Z M 52.125 47.085938 "/>
<path fill-rule="nonzero" fill="rgb(0%, 0%, 0%)" fill-opacity="1" d="M 62.097656 46.917969 C 62.097656 46.429688 61.984375 45.785156 61.101562 45.785156 C 60.671875 45.785156 60.296875 45.988281 60.023438 46.375 C 59.84375 45.832031 59.335938 45.785156 59.109375 45.785156 C 58.585938 45.785156 58.246094 46.078125 58.054688 46.339844 L 58.054688 45.820312 L 57.535156 45.820312 L 57.535156 49.070312 L 58.089844 49.070312 L 58.089844 47.300781 C 58.089844 46.804688 58.292969 46.226562 58.824219 46.226562 C 59.492188 46.226562 59.527344 46.691406 59.527344 46.960938 L 59.527344 49.070312 L 60.09375 49.070312 L 60.09375 47.300781 C 60.09375 46.804688 60.285156 46.226562 60.828125 46.226562 C 61.496094 46.226562 61.53125 46.691406 61.53125 46.960938 L 61.53125 49.070312 L 62.097656 49.070312 Z M 62.097656 46.917969 "/>
<path fill-rule="nonzero" fill="rgb(0%, 0%, 0%)" fill-opacity="1" d="M 66.066406 47.484375 C 66.066406 46.511719 65.339844 45.738281 64.492188 45.738281 C 63.597656 45.738281 62.894531 46.53125 62.894531 47.484375 C 62.894531 48.433594 63.632812 49.148438 64.480469 49.148438 C 65.339844 49.148438 66.066406 48.421875 66.066406 47.484375 Z M 64.480469 48.683594 C 63.980469 48.683594 63.460938 48.277344 63.460938 47.40625 C 63.460938 46.53125 64.003906 46.179688 64.480469 46.179688 C 64.988281 46.179688 65.5 46.554688 65.5 47.40625 C 65.5 48.265625 65.011719 48.683594 64.480469 48.683594 Z M 64.480469 48.683594 "/>
<path fill-rule="nonzero" fill="rgb(0%, 0%, 0%)" fill-opacity="1" d="M 69.628906 44.054688 L 69.085938 44.054688 L 69.085938 46.179688 C 68.699219 45.863281 68.304688 45.785156 68.03125 45.785156 C 67.320312 45.785156 66.753906 46.53125 66.753906 47.460938 C 66.753906 48.414062 67.308594 49.148438 67.996094 49.148438 C 68.234375 49.148438 68.65625 49.082031 69.0625 48.695312 L 69.0625 49.070312 L 69.628906 49.070312 Z M 69.0625 48.0625 C 69.0625 48.164062 69.050781 48.300781 68.824219 48.503906 C 68.65625 48.648438 68.472656 48.707031 68.292969 48.707031 C 67.839844 48.707031 67.320312 48.367188 67.320312 47.472656 C 67.320312 46.519531 67.941406 46.226562 68.359375 46.226562 C 68.6875 46.226562 68.902344 46.386719 69.0625 46.625 Z M 69.0625 48.0625 "/>
<path fill-rule="nonzero" fill="rgb(0%, 0%, 0%)" fill-opacity="1" d="M 73.210938 47.484375 C 73.210938 47.246094 73.199219 46.703125 72.925781 46.261719 C 72.621094 45.820312 72.191406 45.738281 71.929688 45.738281 C 71.128906 45.738281 70.46875 46.511719 70.46875 47.4375 C 70.46875 48.390625 71.171875 49.148438 72.03125 49.148438 C 72.484375 49.148438 72.90625 48.976562 73.1875 48.773438 L 73.140625 48.300781 C 72.691406 48.683594 72.203125 48.707031 72.042969 48.707031 C 71.46875 48.707031 71.003906 48.195312 70.980469 47.484375 Z M 71.015625 47.085938 C 71.128906 46.542969 71.511719 46.179688 71.929688 46.179688 C 72.304688 46.179688 72.699219 46.417969 72.804688 47.085938 Z M 71.015625 47.085938 "/>
<path fill-rule="nonzero" fill="rgb(0%, 0%, 0%)" fill-opacity="1" d="M 74.019531 44.054688 L 74.5625 44.054688 L 74.5625 49.070312 L 74.019531 49.070312 Z M 74.019531 44.054688 "/>
<path fill-rule="nonzero" fill="rgb(0%, 0%, 0%)" fill-opacity="1" d="M 77.632812 45.964844 C 77.261719 45.796875 76.964844 45.738281 76.59375 45.738281 C 76.410156 45.738281 75.390625 45.738281 75.390625 46.679688 C 75.390625 47.042969 75.605469 47.269531 75.789062 47.40625 C 76.003906 47.5625 76.164062 47.597656 76.558594 47.675781 C 76.820312 47.722656 77.238281 47.8125 77.238281 48.195312 C 77.238281 48.695312 76.671875 48.695312 76.558594 48.695312 C 75.980469 48.695312 75.574219 48.421875 75.449219 48.34375 L 75.359375 48.832031 C 75.585938 48.945312 75.980469 49.148438 76.570312 49.148438 C 76.707031 49.148438 77.101562 49.148438 77.40625 48.921875 C 77.632812 48.742188 77.757812 48.457031 77.757812 48.140625 C 77.757812 47.742188 77.488281 47.507812 77.476562 47.484375 C 77.191406 47.222656 77 47.179688 76.636719 47.121094 C 76.242188 47.042969 75.902344 46.960938 75.902344 46.613281 C 75.902344 46.171875 76.421875 46.171875 76.523438 46.171875 C 76.75 46.171875 77.136719 46.191406 77.542969 46.441406 Z M 77.632812 45.964844 "/>
<path fill-rule="nonzero" fill="rgb(0%, 0%, 0%)" fill-opacity="1" d="M 34.484375 75.136719 C 35.378906 75.136719 36.140625 74.480469 36.140625 73.667969 C 36.140625 72.898438 35.425781 72.207031 34.429688 72.207031 L 32.628906 72.207031 L 32.628906 77.222656 L 33.273438 77.222656 L 33.273438 75.136719 Z M 34.269531 72.613281 C 35.0625 72.613281 35.5625 73.054688 35.5625 73.667969 C 35.5625 74.242188 35.097656 74.71875 34.269531 74.71875 L 33.253906 74.71875 L 33.253906 72.613281 Z M 34.269531 72.613281 "/>
<path fill-rule="nonzero" fill="rgb(0%, 0%, 0%)" fill-opacity="1" d="M 37.683594 75.671875 C 37.683594 74.957031 38.203125 74.4375 38.917969 74.414062 L 38.917969 73.9375 C 38.273438 73.9375 37.875 74.300781 37.648438 74.628906 L 37.648438 73.972656 L 37.140625 73.972656 L 37.140625 77.222656 L 37.683594 77.222656 Z M 37.683594 75.671875 "/>
<path fill-rule="nonzero" fill="rgb(0%, 0%, 0%)" fill-opacity="1" d="M 42.402344 75.636719 C 42.402344 74.664062 41.679688 73.894531 40.828125 73.894531 C 39.933594 73.894531 39.234375 74.6875 39.234375 75.636719 C 39.234375 76.585938 39.96875 77.300781 40.816406 77.300781 C 41.679688 77.300781 42.402344 76.578125 42.402344 75.636719 Z M 40.816406 76.835938 C 40.320312 76.835938 39.796875 76.429688 39.796875 75.558594 C 39.796875 74.6875 40.34375 74.335938 40.816406 74.335938 C 41.328125 74.335938 41.835938 74.707031 41.835938 75.558594 C 41.835938 76.417969 41.347656 76.835938 40.816406 76.835938 Z M 40.816406 76.835938 "/>
<path fill-rule="nonzero" fill="rgb(0%, 0%, 0%)" fill-opacity="1" d="M 43.757812 72.207031 L 43.214844 72.207031 L 43.214844 77.222656 L 43.78125 77.222656 L 43.78125 76.894531 C 43.953125 77.050781 44.269531 77.300781 44.753906 77.300781 C 45.46875 77.300781 46.089844 76.578125 46.089844 75.613281 C 46.089844 74.71875 45.605469 73.9375 44.925781 73.9375 C 44.640625 73.9375 44.191406 74.007812 43.757812 74.355469 Z M 43.78125 74.800781 C 43.894531 74.628906 44.15625 74.378906 44.550781 74.378906 C 44.980469 74.378906 45.527344 74.6875 45.527344 75.613281 C 45.527344 76.554688 44.925781 76.859375 44.484375 76.859375 C 44.199219 76.859375 43.964844 76.734375 43.78125 76.394531 Z M 43.78125 74.800781 "/>
<path fill-rule="nonzero" fill="rgb(0%, 0%, 0%)" fill-opacity="1" d="M 49.242188 75.136719 C 49.242188 74.402344 48.710938 73.894531 48.042969 73.894531 C 47.578125 73.894531 47.25 74.007812 46.910156 74.199219 L 46.957031 74.675781 C 47.332031 74.414062 47.691406 74.324219 48.042969 74.324219 C 48.382812 74.324219 48.675781 74.605469 48.675781 75.136719 L 48.675781 75.457031 C 47.589844 75.46875 46.671875 75.773438 46.671875 76.40625 C 46.671875 76.710938 46.867188 77.300781 47.5 77.300781 C 47.601562 77.300781 48.28125 77.289062 48.699219 76.960938 L 48.699219 77.222656 L 49.242188 77.222656 Z M 48.675781 76.269531 C 48.675781 76.40625 48.675781 76.585938 48.429688 76.722656 C 48.226562 76.847656 47.941406 76.859375 47.863281 76.859375 C 47.523438 76.859375 47.195312 76.691406 47.195312 76.394531 C 47.195312 75.886719 48.359375 75.839844 48.675781 75.816406 Z M 48.675781 76.269531 "/>
<path fill-rule="nonzero" fill="rgb(0%, 0%, 0%)" fill-opacity="1" d="M 50.957031 72.207031 L 50.414062 72.207031 L 50.414062 77.222656 L 50.980469 77.222656 L 50.980469 76.894531 C 51.152344 77.050781 51.46875 77.300781 51.953125 77.300781 C 52.667969 77.300781 53.289062 76.578125 53.289062 75.613281 C 53.289062 74.71875 52.804688 73.9375 52.125 73.9375 C 51.839844 73.9375 51.386719 74.007812 50.957031 74.355469 Z M 50.980469 74.800781 C 51.09375 74.628906 51.355469 74.378906 51.75 74.378906 C 52.179688 74.378906 52.722656 74.6875 52.722656 75.613281 C 52.722656 76.554688 52.125 76.859375 51.683594 76.859375 C 51.398438 76.859375 51.160156 76.734375 50.980469 76.394531 Z M 50.980469 74.800781 "/>
<path fill-rule="nonzero" fill="rgb(0%, 0%, 0%)" fill-opacity="1" d="M 54.734375 72.308594 L 54.089844 72.308594 L 54.089844 72.953125 L 54.734375 72.953125 Z M 54.6875 74.019531 L 54.144531 74.019531 L 54.144531 77.222656 L 54.6875 77.222656 Z M 54.6875 74.019531 "/>
<path fill-rule="nonzero" fill="rgb(0%, 0%, 0%)" fill-opacity="1" d="M 55.871094 72.207031 L 56.414062 72.207031 L 56.414062 77.222656 L 55.871094 77.222656 Z M 55.871094 72.207031 "/>
<path fill-rule="nonzero" fill="rgb(0%, 0%, 0%)" fill-opacity="1" d="M 58.183594 72.308594 L 57.539062 72.308594 L 57.539062 72.953125 L 58.183594 72.953125 Z M 58.136719 74.019531 L 57.59375 74.019531 L 57.59375 77.222656 L 58.136719 77.222656 Z M 58.136719 74.019531 "/>
<path fill-rule="nonzero" fill="rgb(0%, 0%, 0%)" fill-opacity="1" d="M 61.210938 74.121094 C 60.835938 73.949219 60.542969 73.894531 60.167969 73.894531 C 59.988281 73.894531 58.96875 73.894531 58.96875 74.832031 C 58.96875 75.195312 59.183594 75.421875 59.363281 75.558594 C 59.578125 75.714844 59.738281 75.75 60.132812 75.828125 C 60.394531 75.875 60.8125 75.964844 60.8125 76.351562 C 60.8125 76.847656 60.246094 76.847656 60.132812 76.847656 C 59.554688 76.847656 59.148438 76.578125 59.023438 76.496094 L 58.933594 76.984375 C 59.160156 77.097656 59.554688 77.300781 60.144531 77.300781 C 60.28125 77.300781 60.675781 77.300781 60.984375 77.074219 C 61.210938 76.894531 61.332031 76.609375 61.332031 76.292969 C 61.332031 75.898438 61.0625 75.660156 61.050781 75.636719 C 60.765625 75.375 60.574219 75.332031 60.210938 75.273438 C 59.816406 75.195312 59.476562 75.117188 59.476562 74.765625 C 59.476562 74.324219 59.996094 74.324219 60.097656 74.324219 C 60.324219 74.324219 60.710938 74.347656 61.117188 74.59375 Z M 61.210938 74.121094 "/>
<path fill-rule="nonzero" fill="rgb(0%, 0%, 0%)" fill-opacity="1" d="M 62.765625 74.4375 L 63.785156 74.4375 L 63.785156 74.019531 L 62.765625 74.019531 L 62.765625 73.101562 L 62.265625 73.101562 L 62.265625 74.019531 L 61.632812 74.019531 L 61.632812 74.4375 L 62.242188 74.4375 L 62.242188 76.363281 C 62.242188 76.792969 62.347656 77.300781 62.84375 77.300781 C 63.34375 77.300781 63.714844 77.121094 63.898438 77.03125 L 63.785156 76.597656 C 63.589844 76.757812 63.363281 76.835938 63.128906 76.835938 C 62.867188 76.835938 62.765625 76.621094 62.765625 76.238281 Z M 62.765625 74.4375 "/>
<path fill-rule="nonzero" fill="rgb(0%, 0%, 0%)" fill-opacity="1" d="M 65.28125 72.308594 L 64.636719 72.308594 L 64.636719 72.953125 L 65.28125 72.953125 Z M 65.234375 74.019531 L 64.691406 74.019531 L 64.691406 77.222656 L 65.234375 77.222656 Z M 65.234375 74.019531 "/>
<path fill-rule="nonzero" fill="rgb(0%, 0%, 0%)" fill-opacity="1" d="M 68.792969 74.199219 C 68.363281 73.960938 68.113281 73.894531 67.671875 73.894531 C 66.675781 73.894531 66.089844 74.765625 66.089844 75.613281 C 66.089844 76.507812 66.746094 77.300781 67.652344 77.300781 C 68.035156 77.300781 68.429688 77.199219 68.828125 76.925781 L 68.78125 76.453125 C 68.410156 76.734375 68.023438 76.835938 67.652344 76.835938 C 67.050781 76.835938 66.652344 76.316406 66.652344 75.613281 C 66.652344 75.046875 66.914062 74.355469 67.683594 74.355469 C 68.058594 74.355469 68.308594 74.414062 68.703125 74.675781 Z M 68.792969 74.199219 "/>
<path fill-rule="nonzero" fill="rgb(0%, 0%, 0%)" fill-opacity="1" d="M 26.0625 83.066406 C 26.222656 83.066406 26.414062 83.03125 26.597656 83.03125 C 26.722656 83.03125 27.003906 83.054688 27.015625 83.054688 L 26.9375 82.601562 C 26.4375 82.601562 26.019531 82.738281 25.804688 82.828125 C 25.644531 82.703125 25.40625 82.601562 25.113281 82.601562 C 24.492188 82.601562 23.96875 83.121094 23.96875 83.777344 C 23.96875 84.039062 24.058594 84.300781 24.207031 84.492188 C 23.992188 84.785156 23.992188 85.070312 23.992188 85.105469 C 23.992188 85.296875 24.058594 85.5 24.183594 85.660156 C 23.8125 85.875 23.722656 86.214844 23.722656 86.394531 C 23.722656 86.9375 24.433594 87.367188 25.316406 87.367188 C 26.199219 87.367188 26.914062 86.949219 26.914062 86.394531 C 26.914062 85.386719 25.714844 85.386719 25.429688 85.386719 L 24.796875 85.386719 C 24.707031 85.386719 24.378906 85.386719 24.378906 85 C 24.378906 84.921875 24.398438 84.808594 24.457031 84.742188 C 24.605469 84.855469 24.839844 84.957031 25.113281 84.957031 C 25.757812 84.957031 26.269531 84.414062 26.269531 83.777344 C 26.269531 83.429688 26.109375 83.15625 26.03125 83.054688 Z M 25.113281 84.539062 C 24.839844 84.539062 24.46875 84.378906 24.46875 83.777344 C 24.46875 83.179688 24.839844 83.007812 25.113281 83.007812 C 25.417969 83.007812 25.757812 83.210938 25.757812 83.777344 C 25.757812 84.332031 25.417969 84.539062 25.113281 84.539062 Z M 25.441406 85.90625 C 25.601562 85.90625 26.414062 85.90625 26.414062 86.40625 C 26.414062 86.722656 25.917969 86.960938 25.328125 86.960938 C 24.738281 86.960938 24.230469 86.734375 24.230469 86.394531 C 24.230469 86.371094 24.230469 85.90625 24.785156 85.90625 Z M 25.441406 85.90625 "/>
<path fill-rule="nonzero" fill="rgb(0%, 0%, 0%)" fill-opacity="1" d="M 30.113281 84.300781 C 30.113281 84.0625 30.105469 83.519531 29.832031 83.078125 C 29.527344 82.636719 29.097656 82.554688 28.835938 82.554688 C 28.03125 82.554688 27.375 83.324219 27.375 84.253906 C 27.375 85.207031 28.078125 85.964844 28.9375 85.964844 C 29.390625 85.964844 29.808594 85.792969 30.09375 85.589844 L 30.046875 85.113281 C 29.59375 85.5 29.109375 85.523438 28.949219 85.523438 C 28.371094 85.523438 27.90625 85.011719 27.886719 84.300781 Z M 27.917969 83.902344 C 28.03125 83.359375 28.417969 82.996094 28.835938 82.996094 C 29.210938 82.996094 29.605469 83.234375 29.707031 83.902344 Z M 27.917969 83.902344 "/>
<path fill-rule="nonzero" fill="rgb(0%, 0%, 0%)" fill-opacity="1" d="M 33.480469 83.734375 C 33.480469 83.257812 33.367188 82.601562 32.484375 82.601562 C 31.839844 82.601562 31.476562 83.089844 31.445312 83.144531 L 31.445312 82.636719 L 30.921875 82.636719 L 30.921875 85.886719 L 31.476562 85.886719 L 31.476562 84.117188 C 31.476562 83.644531 31.660156 83.042969 32.214844 83.042969 C 32.90625 83.042969 32.914062 83.550781 32.914062 83.777344 L 32.914062 85.886719 L 33.480469 85.886719 Z M 33.480469 83.734375 "/>
<path fill-rule="nonzero" fill="rgb(0%, 0%, 0%)" fill-opacity="1" d="M 37.054688 84.300781 C 37.054688 84.0625 37.042969 83.519531 36.769531 83.078125 C 36.464844 82.636719 36.035156 82.554688 35.773438 82.554688 C 34.96875 82.554688 34.3125 83.324219 34.3125 84.253906 C 34.3125 85.207031 35.015625 85.964844 35.875 85.964844 C 36.328125 85.964844 36.746094 85.792969 37.03125 85.589844 L 36.984375 85.113281 C 36.53125 85.5 36.046875 85.523438 35.886719 85.523438 C 35.308594 85.523438 34.84375 85.011719 34.824219 84.300781 Z M 34.855469 83.902344 C 34.96875 83.359375 35.355469 82.996094 35.773438 82.996094 C 36.148438 82.996094 36.542969 83.234375 36.644531 83.902344 Z M 34.855469 83.902344 "/>
<path fill-rule="nonzero" fill="rgb(0%, 0%, 0%)" fill-opacity="1" d="M 38.40625 84.332031 C 38.40625 83.621094 38.925781 83.097656 39.640625 83.078125 L 39.640625 82.601562 C 38.992188 82.601562 38.597656 82.964844 38.371094 83.292969 L 38.371094 82.636719 L 37.859375 82.636719 L 37.859375 85.886719 L 38.40625 85.886719 Z M 38.40625 84.332031 "/>
<path fill-rule="nonzero" fill="rgb(0%, 0%, 0%)" fill-opacity="1" d="M 42.625 83.800781 C 42.625 83.066406 42.09375 82.554688 41.425781 82.554688 C 40.960938 82.554688 40.632812 82.667969 40.292969 82.863281 L 40.339844 83.335938 C 40.710938 83.078125 41.074219 82.984375 41.425781 82.984375 C 41.765625 82.984375 42.058594 83.269531 42.058594 83.800781 L 42.058594 84.117188 C 40.972656 84.128906 40.054688 84.4375 40.054688 85.070312 C 40.054688 85.375 40.25 85.964844 40.882812 85.964844 C 40.984375 85.964844 41.664062 85.953125 42.082031 85.625 L 42.082031 85.886719 L 42.625 85.886719 Z M 42.058594 84.933594 C 42.058594 85.070312 42.058594 85.25 41.8125 85.386719 C 41.605469 85.511719 41.324219 85.523438 41.246094 85.523438 C 40.90625 85.523438 40.578125 85.351562 40.578125 85.058594 C 40.578125 84.546875 41.742188 84.503906 42.058594 84.480469 Z M 42.058594 84.933594 "/>
<path fill-rule="nonzero" fill="rgb(0%, 0%, 0%)" fill-opacity="1" d="M 44.476562 83.097656 L 45.496094 83.097656 L 45.496094 82.679688 L 44.476562 82.679688 L 44.476562 81.761719 L 43.976562 81.761719 L 43.976562 82.679688 L 43.34375 82.679688 L 43.34375 83.097656 L 43.957031 83.097656 L 43.957031 85.023438 C 43.957031 85.453125 44.058594 85.964844 44.554688 85.964844 C 45.054688 85.964844 45.425781 85.78125 45.609375 85.691406 L 45.496094 85.261719 C 45.304688 85.421875 45.078125 85.5 44.839844 85.5 C 44.578125 85.5 44.476562 85.285156 44.476562 84.898438 Z M 44.476562 83.097656 "/>
<path fill-rule="nonzero" fill="rgb(0%, 0%, 0%)" fill-opacity="1" d="M 46.992188 80.972656 L 46.347656 80.972656 L 46.347656 81.617188 L 46.992188 81.617188 Z M 46.945312 82.679688 L 46.402344 82.679688 L 46.402344 85.886719 L 46.945312 85.886719 Z M 46.945312 82.679688 "/>
<path fill-rule="nonzero" fill="rgb(0%, 0%, 0%)" fill-opacity="1" d="M 50.765625 82.679688 L 50.222656 82.679688 L 49.644531 84.175781 C 49.5 84.582031 49.273438 85.160156 49.214844 85.5 L 49.203125 85.5 C 49.171875 85.238281 48.976562 84.742188 48.910156 84.546875 L 48.207031 82.679688 L 47.640625 82.679688 L 48.886719 85.886719 L 49.519531 85.886719 Z M 50.765625 82.679688 "/>
<path fill-rule="nonzero" fill="rgb(0%, 0%, 0%)" fill-opacity="1" d="M 53.855469 84.300781 C 53.855469 84.0625 53.84375 83.519531 53.574219 83.078125 C 53.269531 82.636719 52.835938 82.554688 52.578125 82.554688 C 51.773438 82.554688 51.117188 83.324219 51.117188 84.253906 C 51.117188 85.207031 51.820312 85.964844 52.679688 85.964844 C 53.132812 85.964844 53.550781 85.792969 53.835938 85.589844 L 53.789062 85.113281 C 53.335938 85.5 52.847656 85.523438 52.691406 85.523438 C 52.113281 85.523438 51.648438 85.011719 51.625 84.300781 Z M 51.660156 83.902344 C 51.773438 83.359375 52.160156 82.996094 52.578125 82.996094 C 52.949219 82.996094 53.347656 83.234375 53.449219 83.902344 Z M 51.660156 83.902344 "/>
<path fill-rule="nonzero" fill="rgb(0%, 0%, 0%)" fill-opacity="1" d="M 61.632812 83.734375 C 61.632812 83.246094 61.519531 82.601562 60.636719 82.601562 C 60.203125 82.601562 59.832031 82.804688 59.558594 83.191406 C 59.378906 82.648438 58.867188 82.601562 58.640625 82.601562 C 58.121094 82.601562 57.78125 82.894531 57.589844 83.15625 L 57.589844 82.636719 L 57.070312 82.636719 L 57.070312 85.886719 L 57.625 85.886719 L 57.625 84.117188 C 57.625 83.621094 57.828125 83.042969 58.359375 83.042969 C 59.027344 83.042969 59.0625 83.507812 59.0625 83.777344 L 59.0625 85.886719 L 59.628906 85.886719 L 59.628906 84.117188 C 59.628906 83.621094 59.820312 83.042969 60.363281 83.042969 C 61.03125 83.042969 61.066406 83.507812 61.066406 83.777344 L 61.066406 85.886719 L 61.632812 85.886719 Z M 61.632812 83.734375 "/>
<path fill-rule="nonzero" fill="rgb(0%, 0%, 0%)" fill-opacity="1" d="M 65.597656 84.300781 C 65.597656 83.324219 64.875 82.554688 64.027344 82.554688 C 63.132812 82.554688 62.429688 83.347656 62.429688 84.300781 C 62.429688 85.25 63.164062 85.964844 64.015625 85.964844 C 64.875 85.964844 65.597656 85.238281 65.597656 84.300781 Z M 64.015625 85.5 C 63.515625 85.5 62.996094 85.09375 62.996094 84.21875 C 62.996094 83.347656 63.539062 82.996094 64.015625 82.996094 C 64.523438 82.996094 65.035156 83.371094 65.035156 84.21875 C 65.035156 85.082031 64.546875 85.5 64.015625 85.5 Z M 64.015625 85.5 "/>
<path fill-rule="nonzero" fill="rgb(0%, 0%, 0%)" fill-opacity="1" d="M 69.164062 80.867188 L 68.617188 80.867188 L 68.617188 82.996094 C 68.234375 82.679688 67.835938 82.601562 67.566406 82.601562 C 66.851562 82.601562 66.285156 83.347656 66.285156 84.277344 C 66.285156 85.226562 66.839844 85.964844 67.53125 85.964844 C 67.769531 85.964844 68.1875 85.894531 68.597656 85.511719 L 68.597656 85.886719 L 69.164062 85.886719 Z M 68.597656 84.878906 C 68.597656 84.980469 68.585938 85.113281 68.359375 85.320312 C 68.1875 85.464844 68.007812 85.523438 67.828125 85.523438 C 67.375 85.523438 66.851562 85.183594 66.851562 84.289062 C 66.851562 83.335938 67.476562 83.042969 67.894531 83.042969 C 68.222656 83.042969 68.4375 83.203125 68.597656 83.4375 Z M 68.597656 84.878906 "/>
<path fill-rule="nonzero" fill="rgb(0%, 0%, 0%)" fill-opacity="1" d="M 72.746094 84.300781 C 72.746094 84.0625 72.734375 83.519531 72.460938 83.078125 C 72.15625 82.636719 71.726562 82.554688 71.464844 82.554688 C 70.660156 82.554688 70.003906 83.324219 70.003906 84.253906 C 70.003906 85.207031 70.707031 85.964844 71.566406 85.964844 C 72.019531 85.964844 72.4375 85.792969 72.722656 85.589844 L 72.675781 85.113281 C 72.222656 85.5 71.738281 85.523438 71.578125 85.523438 C 71 85.523438 70.535156 85.011719 70.515625 84.300781 Z M 70.546875 83.902344 C 70.660156 83.359375 71.046875 82.996094 71.464844 82.996094 C 71.839844 82.996094 72.234375 83.234375 72.335938 83.902344 Z M 70.546875 83.902344 "/>
<path fill-rule="nonzero" fill="rgb(0%, 0%, 0%)" fill-opacity="1" d="M 73.554688 80.867188 L 74.097656 80.867188 L 74.097656 85.886719 L 73.554688 85.886719 Z M 73.554688 80.867188 "/>
<path fill-rule="nonzero" fill="rgb(0%, 0%, 0%)" fill-opacity="1" d="M 77.167969 82.78125 C 76.792969 82.613281 76.5 82.554688 76.125 82.554688 C 75.945312 82.554688 74.925781 82.554688 74.925781 83.496094 C 74.925781 83.859375 75.140625 84.085938 75.324219 84.21875 C 75.539062 84.378906 75.695312 84.414062 76.09375 84.492188 C 76.351562 84.539062 76.773438 84.628906 76.773438 85.011719 C 76.773438 85.511719 76.207031 85.511719 76.09375 85.511719 C 75.515625 85.511719 75.109375 85.238281 74.984375 85.160156 L 74.890625 85.648438 C 75.117188 85.761719 75.515625 85.964844 76.105469 85.964844 C 76.238281 85.964844 76.636719 85.964844 76.941406 85.738281 C 77.167969 85.554688 77.292969 85.273438 77.292969 84.957031 C 77.292969 84.558594 77.019531 84.324219 77.007812 84.300781 C 76.726562 84.039062 76.535156 83.992188 76.171875 83.9375 C 75.777344 83.859375 75.4375 83.777344 75.4375 83.429688 C 75.4375 82.984375 75.957031 82.984375 76.058594 82.984375 C 76.285156 82.984375 76.667969 83.007812 77.078125 83.257812 Z M 77.167969 82.78125 "/>
<path fill-rule="nonzero" fill="rgb(0%, 0%, 0%)" fill-opacity="1" d="M 107.355469 18.90625 L 106.707031 18.90625 L 106.707031 23.921875 L 109.628906 23.921875 L 109.628906 23.445312 C 108.996094 23.457031 108.351562 23.457031 107.703125 23.457031 L 107.355469 23.457031 Z M 107.355469 18.90625 "/>
<path fill-rule="nonzero" fill="rgb(0%, 0%, 0%)" fill-opacity="1" d="M 112.828125 21.839844 C 112.828125 21.101562 112.292969 20.59375 111.625 20.59375 C 111.164062 20.59375 110.835938 20.707031 110.496094 20.898438 L 110.539062 21.375 C 110.914062 21.113281 111.277344 21.023438 111.625 21.023438 C 111.964844 21.023438 112.261719 21.308594 112.261719 21.839844 L 112.261719 22.15625 C 111.175781 22.167969 110.257812 22.472656 110.257812 23.105469 C 110.257812 23.414062 110.449219 24 111.082031 24 C 111.183594 24 111.863281 23.992188 112.285156 23.660156 L 112.285156 23.921875 L 112.828125 23.921875 Z M 112.261719 22.972656 C 112.261719 23.105469 112.261719 23.289062 112.011719 23.425781 C 111.808594 23.546875 111.523438 23.558594 111.445312 23.558594 C 111.105469 23.558594 110.777344 23.390625 110.777344 23.097656 C 110.777344 22.585938 111.945312 22.542969 112.261719 22.519531 Z M 112.261719 22.972656 "/>
<path fill-rule="nonzero" fill="rgb(0%, 0%, 0%)" fill-opacity="1" d="M 114.675781 21.136719 L 115.695312 21.136719 L 115.695312 20.71875 L 114.675781 20.71875 L 114.675781 19.800781 L 114.179688 19.800781 L 114.179688 20.71875 L 113.546875 20.71875 L 113.546875 21.136719 L 114.15625 21.136719 L 114.15625 23.0625 C 114.15625 23.492188 114.257812 24 114.757812 24 C 115.253906 24 115.628906 23.820312 115.808594 23.730469 L 115.695312 23.300781 C 115.503906 23.457031 115.277344 23.539062 115.039062 23.539062 C 114.777344 23.539062 114.675781 23.324219 114.675781 22.9375 Z M 114.675781 21.136719 "/>
<path fill-rule="nonzero" fill="rgb(0%, 0%, 0%)" fill-opacity="1" d="M 119.003906 22.335938 C 119.003906 22.097656 118.992188 21.554688 118.722656 21.113281 C 118.414062 20.671875 117.984375 20.59375 117.726562 20.59375 C 116.921875 20.59375 116.265625 21.363281 116.265625 22.292969 C 116.265625 23.242188 116.964844 24 117.828125 24 C 118.28125 24 118.699219 23.832031 118.980469 23.628906 L 118.9375 23.152344 C 118.484375 23.539062 117.996094 23.558594 117.839844 23.558594 C 117.261719 23.558594 116.796875 23.050781 116.773438 22.335938 Z M 116.808594 21.941406 C 116.921875 21.398438 117.304688 21.035156 117.726562 21.035156 C 118.097656 21.035156 118.496094 21.273438 118.597656 21.941406 Z M 116.808594 21.941406 "/>
<path fill-rule="nonzero" fill="rgb(0%, 0%, 0%)" fill-opacity="1" d="M 122.371094 21.769531 C 122.371094 21.296875 122.257812 20.640625 121.375 20.640625 C 120.730469 20.640625 120.367188 21.125 120.332031 21.183594 L 120.332031 20.671875 L 119.8125 20.671875 L 119.8125 23.921875 L 120.367188 23.921875 L 120.367188 22.15625 C 120.367188 21.679688 120.546875 21.082031 121.101562 21.082031 C 121.792969 21.082031 121.804688 21.589844 121.804688 21.816406 L 121.804688 23.921875 L 122.371094 23.921875 Z M 122.371094 21.769531 "/>
<path fill-rule="nonzero" fill="rgb(0%, 0%, 0%)" fill-opacity="1" d="M 124.222656 21.136719 L 125.242188 21.136719 L 125.242188 20.71875 L 124.222656 20.71875 L 124.222656 19.800781 L 123.722656 19.800781 L 123.722656 20.71875 L 123.089844 20.71875 L 123.089844 21.136719 L 123.699219 21.136719 L 123.699219 23.0625 C 123.699219 23.492188 123.800781 24 124.300781 24 C 124.800781 24 125.171875 23.820312 125.355469 23.730469 L 125.242188 23.300781 C 125.046875 23.457031 124.820312 23.539062 124.582031 23.539062 C 124.324219 23.539062 124.222656 23.324219 124.222656 22.9375 Z M 124.222656 21.136719 "/>
<path fill-rule="nonzero" fill="rgb(0%, 0%, 0%)" fill-opacity="1" d="M 131.191406 20.71875 L 130.648438 20.71875 L 130.070312 22.210938 C 129.921875 22.621094 129.695312 23.199219 129.640625 23.539062 L 129.628906 23.539062 C 129.59375 23.277344 129.402344 22.777344 129.332031 22.585938 L 128.632812 20.71875 L 128.066406 20.71875 L 129.3125 23.921875 L 129.945312 23.921875 Z M 131.191406 20.71875 "/>
<path fill-rule="nonzero" fill="rgb(0%, 0%, 0%)" fill-opacity="1" d="M 134.179688 21.839844 C 134.179688 21.101562 133.648438 20.59375 132.980469 20.59375 C 132.515625 20.59375 132.1875 20.707031 131.847656 20.898438 L 131.894531 21.375 C 132.265625 21.113281 132.628906 21.023438 132.980469 21.023438 C 133.320312 21.023438 133.613281 21.308594 133.613281 21.839844 L 133.613281 22.15625 C 132.527344 22.167969 131.609375 22.472656 131.609375 23.105469 C 131.609375 23.414062 131.800781 24 132.4375 24 C 132.539062 24 133.21875 23.992188 133.636719 23.660156 L 133.636719 23.921875 L 134.179688 23.921875 Z M 133.613281 22.972656 C 133.613281 23.105469 133.613281 23.289062 133.363281 23.425781 C 133.160156 23.546875 132.878906 23.558594 132.796875 23.558594 C 132.457031 23.558594 132.128906 23.390625 132.128906 23.097656 C 132.128906 22.585938 133.296875 22.542969 133.613281 22.519531 Z M 133.613281 22.972656 "/>
<path fill-rule="nonzero" fill="rgb(0%, 0%, 0%)" fill-opacity="1" d="M 135.699219 22.371094 C 135.699219 21.65625 136.21875 21.136719 136.933594 21.113281 L 136.933594 20.640625 C 136.289062 20.640625 135.890625 21 135.664062 21.328125 L 135.664062 20.671875 L 135.15625 20.671875 L 135.15625 23.921875 L 135.699219 23.921875 Z M 135.699219 22.371094 "/>
<path fill-rule="nonzero" fill="rgb(0%, 0%, 0%)" fill-opacity="1" d="M 138.210938 19.007812 L 137.566406 19.007812 L 137.566406 19.652344 L 138.210938 19.652344 Z M 138.164062 20.71875 L 137.621094 20.71875 L 137.621094 23.921875 L 138.164062 23.921875 Z M 138.164062 20.71875 "/>
<path fill-rule="nonzero" fill="rgb(0%, 0%, 0%)" fill-opacity="1" d="M 141.644531 21.839844 C 141.644531 21.101562 141.113281 20.59375 140.445312 20.59375 C 139.980469 20.59375 139.652344 20.707031 139.3125 20.898438 L 139.359375 21.375 C 139.730469 21.113281 140.09375 21.023438 140.445312 21.023438 C 140.785156 21.023438 141.078125 21.308594 141.078125 21.839844 L 141.078125 22.15625 C 139.992188 22.167969 139.074219 22.472656 139.074219 23.105469 C 139.074219 23.414062 139.269531 24 139.902344 24 C 140.003906 24 140.683594 23.992188 141.101562 23.660156 L 141.101562 23.921875 L 141.644531 23.921875 Z M 141.078125 22.972656 C 141.078125 23.105469 141.078125 23.289062 140.828125 23.425781 C 140.625 23.546875 140.34375 23.558594 140.265625 23.558594 C 139.925781 23.558594 139.597656 23.390625 139.597656 23.097656 C 139.597656 22.585938 140.761719 22.542969 141.078125 22.519531 Z M 141.078125 22.972656 "/>
<path fill-rule="nonzero" fill="rgb(0%, 0%, 0%)" fill-opacity="1" d="M 143.351562 18.90625 L 142.808594 18.90625 L 142.808594 23.921875 L 143.375 23.921875 L 143.375 23.59375 C 143.542969 23.753906 143.863281 24 144.347656 24 C 145.0625 24 145.683594 23.277344 145.683594 22.316406 C 145.683594 21.421875 145.199219 20.640625 144.519531 20.640625 C 144.234375 20.640625 143.78125 20.707031 143.351562 21.058594 Z M 143.375 21.5 C 143.488281 21.328125 143.75 21.082031 144.144531 21.082031 C 144.574219 21.082031 145.117188 21.386719 145.117188 22.316406 C 145.117188 23.253906 144.519531 23.558594 144.078125 23.558594 C 143.792969 23.558594 143.554688 23.4375 143.375 23.097656 Z M 143.375 21.5 "/>
<path fill-rule="nonzero" fill="rgb(0%, 0%, 0%)" fill-opacity="1" d="M 146.539062 18.90625 L 147.082031 18.90625 L 147.082031 23.921875 L 146.539062 23.921875 Z M 146.539062 18.90625 "/>
<path fill-rule="nonzero" fill="rgb(0%, 0%, 0%)" fill-opacity="1" d="M 150.664062 22.335938 C 150.664062 22.097656 150.652344 21.554688 150.378906 21.113281 C 150.074219 20.671875 149.644531 20.59375 149.382812 20.59375 C 148.582031 20.59375 147.925781 21.363281 147.925781 22.292969 C 147.925781 23.242188 148.625 24 149.488281 24 C 149.9375 24 150.359375 23.832031 150.640625 23.628906 L 150.597656 23.152344 C 150.144531 23.539062 149.65625 23.558594 149.496094 23.558594 C 148.921875 23.558594 148.457031 23.050781 148.433594 22.335938 Z M 148.46875 21.941406 C 148.582031 21.398438 148.964844 21.035156 149.382812 21.035156 C 149.757812 21.035156 150.15625 21.273438 150.257812 21.941406 Z M 148.46875 21.941406 "/>
<path fill-rule="nonzero" fill="rgb(0%, 0%, 0%)" fill-opacity="1" d="M 123.121094 30.433594 C 123.121094 29.945312 123.007812 29.300781 122.125 29.300781 C 121.695312 29.300781 121.320312 29.503906 121.050781 29.890625 C 120.867188 29.347656 120.359375 29.300781 120.132812 29.300781 C 119.613281 29.300781 119.273438 29.597656 119.082031 29.855469 L 119.082031 29.335938 L 118.558594 29.335938 L 118.558594 32.585938 L 119.113281 32.585938 L 119.113281 30.820312 C 119.113281 30.320312 119.316406 29.742188 119.851562 29.742188 C 120.519531 29.742188 120.550781 30.207031 120.550781 30.480469 L 120.550781 32.585938 L 121.117188 32.585938 L 121.117188 30.820312 C 121.117188 30.320312 121.308594 29.742188 121.855469 29.742188 C 122.523438 29.742188 122.554688 30.207031 122.554688 30.480469 L 122.554688 32.585938 L 123.121094 32.585938 Z M 123.121094 30.433594 "/>
<path fill-rule="nonzero" fill="rgb(0%, 0%, 0%)" fill-opacity="1" d="M 127.089844 31 C 127.089844 30.027344 126.367188 29.257812 125.515625 29.257812 C 124.621094 29.257812 123.921875 30.050781 123.921875 31 C 123.921875 31.953125 124.65625 32.664062 125.503906 32.664062 C 126.367188 32.664062 127.089844 31.941406 127.089844 31 Z M 125.503906 32.199219 C 125.007812 32.199219 124.484375 31.792969 124.484375 30.921875 C 124.484375 30.050781 125.03125 29.699219 125.503906 29.699219 C 126.015625 29.699219 126.523438 30.070312 126.523438 30.921875 C 126.523438 31.78125 126.039062 32.199219 125.503906 32.199219 Z M 125.503906 32.199219 "/>
<path fill-rule="nonzero" fill="rgb(0%, 0%, 0%)" fill-opacity="1" d="M 130.652344 27.570312 L 130.109375 27.570312 L 130.109375 29.699219 C 129.726562 29.382812 129.328125 29.300781 129.058594 29.300781 C 128.34375 29.300781 127.777344 30.050781 127.777344 30.976562 C 127.777344 31.929688 128.332031 32.664062 129.023438 32.664062 C 129.261719 32.664062 129.679688 32.597656 130.085938 32.210938 L 130.085938 32.585938 L 130.652344 32.585938 Z M 130.085938 31.578125 C 130.085938 31.679688 130.074219 31.816406 129.847656 32.019531 C 129.679688 32.167969 129.5 32.222656 129.316406 32.222656 C 128.863281 32.222656 128.34375 31.882812 128.34375 30.988281 C 128.34375 30.039062 128.964844 29.742188 129.386719 29.742188 C 129.714844 29.742188 129.929688 29.902344 130.085938 30.140625 Z M 130.085938 31.578125 "/>
<path fill-rule="nonzero" fill="rgb(0%, 0%, 0%)" fill-opacity="1" d="M 134.234375 31 C 134.234375 30.761719 134.222656 30.21875 133.953125 29.777344 C 133.648438 29.335938 133.214844 29.257812 132.957031 29.257812 C 132.152344 29.257812 131.496094 30.027344 131.496094 30.953125 C 131.496094 31.90625 132.199219 32.664062 133.058594 32.664062 C 133.511719 32.664062 133.929688 32.496094 134.210938 32.289062 L 134.167969 31.816406 C 133.714844 32.199219 133.226562 32.222656 133.070312 32.222656 C 132.492188 32.222656 132.027344 31.714844 132.003906 31 Z M 132.039062 30.605469 C 132.152344 30.058594 132.535156 29.699219 132.957031 29.699219 C 133.328125 29.699219 133.726562 29.9375 133.828125 30.605469 Z M 132.039062 30.605469 "/>
<path fill-rule="nonzero" fill="rgb(0%, 0%, 0%)" fill-opacity="1" d="M 135.042969 27.570312 L 135.585938 27.570312 L 135.585938 32.585938 L 135.042969 32.585938 Z M 135.042969 27.570312 "/>
<path fill-rule="nonzero" fill="rgb(0%, 0%, 0%)" fill-opacity="1" d="M 138.660156 29.484375 C 138.285156 29.3125 137.992188 29.257812 137.617188 29.257812 C 137.4375 29.257812 136.417969 29.257812 136.417969 30.195312 C 136.417969 30.558594 136.632812 30.785156 136.8125 30.921875 C 137.027344 31.078125 137.1875 31.113281 137.582031 31.191406 C 137.84375 31.238281 138.261719 31.328125 138.261719 31.714844 C 138.261719 32.210938 137.695312 32.210938 137.582031 32.210938 C 137.003906 32.210938 136.597656 31.941406 136.472656 31.859375 L 136.382812 32.347656 C 136.609375 32.460938 137.003906 32.664062 137.59375 32.664062 C 137.730469 32.664062 138.125 32.664062 138.433594 32.4375 C 138.660156 32.257812 138.785156 31.972656 138.785156 31.65625 C 138.785156 31.261719 138.511719 31.023438 138.5 31 C 138.21875 30.738281 138.023438 30.695312 137.664062 30.636719 C 137.265625 30.558594 136.925781 30.480469 136.925781 30.128906 C 136.925781 29.6875 137.449219 29.6875 137.550781 29.6875 C 137.777344 29.6875 138.160156 29.710938 138.566406 29.957031 Z M 138.660156 29.484375 "/>
</svg>
