<?xml version="1.0" encoding="UTF-8"?>
<svg xmlns="http://www.w3.org/2000/svg" xmlns:xlink="http://www.w3.org/1999/xlink" width="201.075531pt" height="109.755661pt" viewBox="0 0 201.075531 109.755661">
<defs>
<clipPath id="clip-0">
<path clip-rule="nonzero" d="M 134 100 L 142 100 L 142 109.753906 L 134 109.753906 Z M 134 100 "/>
</clipPath>
</defs>
<path fill="none" stroke-width="0.283465" stroke-linecap="butt" stroke-linejoin="miter" stroke="rgb(0%, 0%, 0%)" stroke-opacity="1" stroke-dasharray="0.283465 0.283465" stroke-miterlimit="4" d="M 79.027344 86.738281 L 79.027344 82.8125 "/>
<path fill="none" stroke-width="0.283465" stroke-linecap="butt" stroke-linejoin="miter" stroke="rgb(0%, 0%, 0%)" stroke-opacity="1" stroke-dasharray="0.283465 0.283465" stroke-miterlimit="4" d="M 164.527344 86.738281 L 164.527344 25.953125 "/>
<path fill="none" stroke-width="0.73858" stroke-linecap="butt" stroke-linejoin="round" stroke="rgb(0%, 0%, 0%)" stroke-opacity="1" stroke-miterlimit="10" d="M 181.34375 -149.819018 L 181.34375 -154.951939 " transform="matrix(1, 0, 0, -0.640017, 0, 0)"/>
<path fill="none" stroke-width="0.850394" stroke-linecap="butt" stroke-linejoin="miter" stroke="rgb(50.195312%, 50.195312%, 50.195312%)" stroke-opacity="1" stroke-miterlimit="4" d="M 28.179688 97.605469 L 28.179688 99.488281 "/>
<path fill="none" stroke-width="0.850394" stroke-linecap="butt" stroke-linejoin="miter" stroke="rgb(50.195312%, 50.195312%, 50.195312%)" stroke-opacity="1" stroke-miterlimit="4" d="M 181.320312 97.605469 L 181.320312 99.488281 "/>
<path fill="none" stroke-width="0.850394" stroke-linecap="butt" stroke-linejoin="miter" stroke="rgb(50.195312%, 50.195312%, 50.195312%)" stroke-opacity="1" stroke-miterlimit="4" d="M 28.003906 1.605469 L 26.121094 1.605469 "/>
<path fill="none" stroke-width="0.850394" stroke-linecap="butt" stroke-linejoin="miter" stroke="rgb(50.195312%, 50.195312%, 50.195312%)" stroke-opacity="1" stroke-miterlimit="4" d="M 28.003906 49.382812 L 26.121094 49.382812 "/>
<path fill="none" stroke-width="0.850394" stroke-linecap="butt" stroke-linejoin="miter" stroke="rgb(50.195312%, 50.195312%, 50.195312%)" stroke-opacity="1" stroke-miterlimit="4" d="M 27.914062 97.160156 L 26.03125 97.160156 "/>
<path fill="none" stroke-width="0.850394" stroke-linecap="butt" stroke-linejoin="miter" stroke="rgb(50.195312%, 50.195312%, 50.195312%)" stroke-opacity="1" stroke-miterlimit="4" d="M 28.003906 11.164062 L 26.71875 11.164062 "/>
<path fill="none" stroke-width="0.850394" stroke-linecap="butt" stroke-linejoin="miter" stroke="rgb(50.195312%, 50.195312%, 50.195312%)" stroke-opacity="1" stroke-miterlimit="4" d="M 28.003906 20.71875 L 26.71875 20.71875 "/>
<path fill="none" stroke-width="0.850394" stroke-linecap="butt" stroke-linejoin="miter" stroke="rgb(50.195312%, 50.195312%, 50.195312%)" stroke-opacity="1" stroke-miterlimit="4" d="M 28.003906 30.273438 L 26.71875 30.273438 "/>
<path fill="none" stroke-width="0.850394" stroke-linecap="butt" stroke-linejoin="miter" stroke="rgb(50.195312%, 50.195312%, 50.195312%)" stroke-opacity="1" stroke-miterlimit="4" d="M 28.003906 39.828125 L 26.71875 39.828125 "/>
<path fill="none" stroke-width="0.850394" stroke-linecap="butt" stroke-linejoin="miter" stroke="rgb(50.195312%, 50.195312%, 50.195312%)" stroke-opacity="1" stroke-miterlimit="4" d="M 28.003906 58.941406 L 26.71875 58.941406 "/>
<path fill="none" stroke-width="0.850394" stroke-linecap="butt" stroke-linejoin="miter" stroke="rgb(50.195312%, 50.195312%, 50.195312%)" stroke-opacity="1" stroke-miterlimit="4" d="M 28.003906 68.496094 L 26.71875 68.496094 "/>
<path fill="none" stroke-width="0.850394" stroke-linecap="butt" stroke-linejoin="miter" stroke="rgb(50.195312%, 50.195312%, 50.195312%)" stroke-opacity="1" stroke-miterlimit="4" d="M 28.003906 78.050781 L 26.71875 78.050781 "/>
<path fill="none" stroke-width="0.850394" stroke-linecap="butt" stroke-linejoin="miter" stroke="rgb(50.195312%, 50.195312%, 50.195312%)" stroke-opacity="1" stroke-miterlimit="4" d="M 104.75 97.605469 L 104.75 99.488281 "/>
<path fill="none" stroke-width="0.850394" stroke-linecap="butt" stroke-linejoin="miter" stroke="rgb(50.195312%, 50.195312%, 50.195312%)" stroke-opacity="1" stroke-miterlimit="4" d="M 28.003906 87.605469 L 26.71875 87.605469 "/>
<path fill="none" stroke-width="1.418572" stroke-linecap="butt" stroke-linejoin="miter" stroke="rgb(62.35199%, 85.096741%, 82.351685%)" stroke-opacity="1" stroke-miterlimit="4" d="M 172.820312 -85.408131 C 177.066406 -85.408131 179.988281 -32.733392 180.945312 -17.440852 M 172.820312 -85.408131 C 168.570312 -85.408131 165.277344 -32.733392 163.910156 -17.55042 C 154.894531 -32.960354 126.089844 -85.408131 87.855469 -85.408131 M 87.855469 -85.408131 C 62.367188 -85.408131 34.128906 -19.980478 28.394531 -4.687938 " transform="matrix(1, 0, 0, -0.99824, 0, 0)"/>
<path fill-rule="nonzero" fill="rgb(0%, 0%, 0%)" fill-opacity="1" d="M 83.136719 102.808594 C 83.136719 101.242188 82.257812 100.503906 80.726562 100.503906 L 78.542969 100.503906 L 78.542969 108.261719 L 79.386719 108.261719 L 79.386719 105.113281 L 80.726562 105.113281 C 82.257812 105.113281 83.136719 104.390625 83.136719 102.808594 Z M 82.292969 102.808594 C 82.273438 103.777344 81.726562 104.320312 80.726562 104.320312 L 79.386719 104.320312 L 79.386719 101.277344 L 80.726562 101.277344 C 81.691406 101.296875 82.292969 101.769531 82.292969 102.808594 Z M 82.292969 102.808594 "/>
<path fill-rule="nonzero" fill="rgb(0%, 0%, 0%)" fill-opacity="1" d="M 87.785156 108.261719 L 87.785156 105.378906 C 87.785156 103.917969 87.167969 103.074219 85.65625 103.074219 C 85.109375 103.074219 84.441406 103.25 83.949219 103.425781 L 83.949219 104.25 C 84.457031 103.96875 84.878906 103.792969 85.585938 103.792969 C 86.394531 103.8125 87.007812 104.214844 87.007812 105.0625 L 85.847656 105.0625 C 84.652344 105.0625 83.597656 105.464844 83.597656 106.785156 C 83.632812 107.804688 84.230469 108.40625 85.25 108.40625 C 85.972656 108.40625 86.621094 108.105469 87.007812 107.59375 L 87.007812 108.261719 Z M 87.007812 105.90625 C 87.007812 106.890625 86.550781 107.683594 85.496094 107.683594 C 84.878906 107.683594 84.371094 107.402344 84.371094 106.734375 C 84.371094 105.746094 85.300781 105.746094 86.183594 105.746094 L 87.007812 105.746094 Z M 87.007812 105.90625 "/>
<path fill-rule="nonzero" fill="rgb(0%, 0%, 0%)" fill-opacity="1" d="M 92.085938 104.214844 L 92.347656 103.40625 C 92.226562 103.265625 91.679688 103.125 91.308594 103.125 C 90.78125 103.144531 90.34375 103.40625 90.113281 103.882812 L 90.113281 103.195312 L 89.269531 103.195312 L 89.269531 108.261719 L 90.113281 108.261719 L 90.113281 105.589844 C 90.113281 105.570312 90.113281 105.554688 90.113281 105.554688 C 90.113281 104.816406 90.5 103.847656 91.292969 103.847656 L 91.34375 103.847656 C 91.609375 103.847656 91.820312 104.003906 92.085938 104.214844 Z M 92.085938 104.214844 "/>
<path fill-rule="nonzero" fill="rgb(0%, 0%, 0%)" fill-opacity="1" d="M 97.015625 108.261719 L 97.015625 105.378906 C 97.015625 103.917969 96.402344 103.074219 94.886719 103.074219 C 94.34375 103.074219 93.675781 103.25 93.179688 103.425781 L 93.179688 104.25 C 93.691406 103.96875 94.113281 103.792969 94.816406 103.792969 C 95.628906 103.8125 96.242188 104.214844 96.242188 105.0625 L 95.082031 105.0625 C 93.886719 105.0625 92.828125 105.464844 92.828125 106.785156 C 92.863281 107.804688 93.460938 108.40625 94.484375 108.40625 C 95.203125 108.40625 95.855469 108.105469 96.242188 107.59375 L 96.242188 108.261719 Z M 96.242188 105.90625 C 96.242188 106.890625 95.785156 107.683594 94.730469 107.683594 C 94.113281 107.683594 93.605469 107.402344 93.605469 106.734375 C 93.605469 105.746094 94.535156 105.746094 95.414062 105.746094 L 96.242188 105.746094 Z M 96.242188 105.90625 "/>
<path fill-rule="nonzero" fill="rgb(0%, 0%, 0%)" fill-opacity="1" d="M 106.035156 108.261719 L 106.035156 105.203125 C 106.035156 104.109375 105.628906 103.074219 104.378906 103.074219 C 103.605469 103.074219 102.972656 103.476562 102.566406 104.09375 C 102.304688 103.496094 101.738281 103.074219 101.019531 103.074219 C 100.351562 103.074219 99.699219 103.425781 99.328125 103.882812 L 99.328125 103.195312 L 98.503906 103.195312 L 98.503906 108.261719 L 99.328125 108.261719 L 99.328125 105.394531 C 99.363281 104.5 99.910156 103.8125 100.71875 103.8125 L 100.773438 103.8125 C 101.617188 103.8125 101.863281 104.339844 101.863281 105.238281 L 101.863281 108.261719 L 102.671875 108.261719 L 102.671875 105.394531 C 102.691406 104.445312 103.164062 103.8125 104.152344 103.8125 C 104.996094 103.8125 105.242188 104.390625 105.242188 105.238281 L 105.242188 108.261719 Z M 106.035156 108.261719 "/>
<path fill-rule="nonzero" fill="rgb(0%, 0%, 0%)" fill-opacity="1" d="M 111.871094 105.730469 L 111.871094 105.640625 C 111.871094 104.179688 111.269531 103.109375 109.597656 103.074219 C 108.105469 103.074219 107.257812 104.375 107.257812 105.78125 C 107.257812 107.3125 108.191406 108.40625 109.738281 108.40625 C 110.445312 108.40625 111.078125 108.246094 111.691406 108.015625 L 111.691406 107.171875 C 110.882812 107.558594 110.761719 107.648438 109.808594 107.648438 C 108.753906 107.648438 108.121094 107.015625 108.121094 105.816406 L 108.121094 105.730469 Z M 111.042969 105.042969 L 108.15625 105.042969 C 108.261719 104.375 108.753906 103.792969 109.597656 103.792969 C 110.480469 103.792969 111.042969 104.339844 111.042969 105.042969 Z M 111.042969 105.042969 "/>
<path fill-rule="nonzero" fill="rgb(0%, 0%, 0%)" fill-opacity="1" d="M 115.785156 108.261719 L 115.785156 107.542969 L 114.90625 107.542969 C 114.113281 107.542969 113.972656 107.347656 113.972656 106.609375 L 113.972656 103.863281 L 115.46875 103.863281 L 115.46875 103.195312 L 113.972656 103.195312 L 113.972656 101.753906 L 113.621094 101.753906 L 113.148438 103.195312 L 112.546875 103.195312 L 112.546875 103.863281 L 113.148438 103.863281 L 113.148438 106.609375 C 113.148438 107.875 113.65625 108.261719 114.90625 108.261719 Z M 115.785156 108.261719 "/>
<path fill-rule="nonzero" fill="rgb(0%, 0%, 0%)" fill-opacity="1" d="M 120.832031 105.730469 L 120.832031 105.640625 C 120.832031 104.179688 120.234375 103.109375 118.5625 103.074219 C 117.066406 103.074219 116.222656 104.375 116.222656 105.78125 C 116.222656 107.3125 117.15625 108.40625 118.703125 108.40625 C 119.40625 108.40625 120.042969 108.246094 120.65625 108.015625 L 120.65625 107.171875 C 119.847656 107.558594 119.726562 107.648438 118.773438 107.648438 C 117.71875 107.648438 117.085938 107.015625 117.085938 105.816406 L 117.085938 105.730469 Z M 120.007812 105.042969 L 117.121094 105.042969 C 117.226562 104.375 117.71875 103.792969 118.5625 103.792969 C 119.441406 103.792969 120.007812 104.339844 120.007812 105.042969 Z M 120.007812 105.042969 "/>
<path fill-rule="nonzero" fill="rgb(0%, 0%, 0%)" fill-opacity="1" d="M 124.867188 104.214844 L 125.132812 103.40625 C 125.007812 103.265625 124.460938 103.125 124.09375 103.125 C 123.566406 103.144531 123.125 103.40625 122.898438 103.882812 L 122.898438 103.195312 L 122.050781 103.195312 L 122.050781 108.261719 L 122.898438 108.261719 L 122.898438 105.589844 C 122.898438 105.570312 122.898438 105.554688 122.898438 105.554688 C 122.898438 104.816406 123.285156 103.847656 124.074219 103.847656 L 124.128906 103.847656 C 124.390625 103.847656 124.601562 104.003906 124.867188 104.214844 Z M 124.867188 104.214844 "/>
<path fill-rule="nonzero" fill="rgb(0%, 0%, 0%)" fill-opacity="1" d="M 129.65625 106.855469 C 129.65625 105.851562 128.972656 105.535156 128.058594 105.359375 L 127.703125 105.289062 C 127.210938 105.183594 126.492188 105.078125 126.492188 104.535156 C 126.527344 103.898438 127.265625 103.777344 127.828125 103.777344 C 128.726562 103.8125 128.65625 103.863281 129.410156 104.179688 L 129.410156 103.355469 C 128.9375 103.160156 128.339844 103.074219 127.722656 103.074219 C 126.71875 103.074219 125.734375 103.441406 125.734375 104.570312 C 125.75 105.484375 126.367188 105.835938 127.210938 105.992188 L 127.527344 106.0625 C 128.144531 106.203125 128.847656 106.273438 128.847656 106.925781 C 128.8125 107.558594 128.09375 107.683594 127.527344 107.683594 C 126.597656 107.664062 126.457031 107.558594 125.644531 107.171875 L 125.644531 108.085938 C 126.121094 108.210938 126.949219 108.40625 127.511719 108.40625 C 128.496094 108.40625 129.65625 108.035156 129.65625 106.855469 Z M 129.65625 106.855469 "/>
<g clip-path="url(#clip-0)">
<path fill-rule="nonzero" fill="rgb(0%, 0%, 0%)" fill-opacity="1" d="M 139.167969 100.804688 C 139.203125 100.664062 139.203125 100.644531 139.203125 100.625 C 139.203125 100.46875 139.046875 100.46875 138.941406 100.46875 C 138.710938 100.46875 138.710938 100.503906 138.640625 100.734375 L 138.09375 102.949219 C 138.042969 103.109375 138.042969 103.109375 138.023438 103.125 C 138.007812 103.125 137.988281 103.144531 137.8125 103.160156 C 135.492188 103.285156 134.117188 104.886719 134.117188 106.308594 C 134.117188 107.507812 135.085938 108.335938 136.722656 108.386719 L 136.246094 110.375 C 136.246094 110.535156 136.40625 110.535156 136.511719 110.535156 C 136.6875 110.535156 136.742188 110.515625 136.792969 110.324219 L 137.179688 108.757812 C 137.25 108.441406 137.269531 108.421875 137.285156 108.40625 C 137.304688 108.40625 137.320312 108.40625 137.496094 108.386719 C 139.785156 108.246094 141.191406 106.679688 141.191406 105.238281 C 141.191406 104.023438 140.226562 103.214844 138.589844 103.160156 Z M 136.828125 107.980469 C 135.859375 107.929688 135.261719 107.507812 135.261719 106.609375 C 135.261719 106.292969 135.386719 105.253906 135.984375 104.515625 C 136.371094 104.023438 137.023438 103.636719 137.9375 103.566406 Z M 138.484375 103.566406 C 139.449219 103.617188 140.046875 104.023438 140.046875 104.9375 C 140.046875 105.253906 139.925781 106.292969 139.328125 107.03125 C 138.941406 107.523438 138.289062 107.910156 137.375 107.980469 Z M 138.484375 103.566406 "/>
</g>
<path fill-rule="nonzero" fill="rgb(0%, 0%, 0%)" fill-opacity="1" d="M 20.542969 68.210938 L 19.734375 68.210938 L 19.734375 71.800781 L 12.78125 71.800781 L 12.78125 72.664062 L 20.542969 72.664062 Z M 20.542969 68.210938 "/>
<path fill-rule="nonzero" fill="rgb(0%, 0%, 0%)" fill-opacity="1" d="M 18.007812 62.886719 C 16.722656 62.886719 15.351562 63.570312 15.351562 65.261719 C 15.351562 66.792969 16.53125 67.65625 18.007812 67.65625 C 19.398438 67.65625 20.648438 66.757812 20.683594 65.261719 C 20.648438 63.75 19.433594 62.886719 18.007812 62.886719 Z M 18.007812 63.714844 C 19.011719 63.714844 19.910156 64.328125 19.910156 65.261719 C 19.890625 66.527344 18.765625 66.808594 17.992188 66.808594 C 16.96875 66.808594 16.125 66.316406 16.109375 65.261719 C 16.125 64.277344 17.039062 63.714844 18.007812 63.714844 Z M 18.007812 63.714844 "/>
<path fill-rule="nonzero" fill="rgb(0%, 0%, 0%)" fill-opacity="1" d="M 19.132812 57.855469 C 18.132812 57.855469 17.816406 58.542969 17.640625 59.457031 L 17.570312 59.808594 C 17.464844 60.300781 17.359375 61.023438 16.8125 61.023438 C 16.179688 60.988281 16.054688 60.246094 16.054688 59.683594 C 16.089844 58.789062 16.144531 58.859375 16.460938 58.101562 L 15.632812 58.101562 C 15.441406 58.578125 15.351562 59.175781 15.351562 59.789062 C 15.351562 60.792969 15.722656 61.777344 16.847656 61.777344 C 17.761719 61.761719 18.113281 61.144531 18.273438 60.300781 L 18.34375 59.984375 C 18.484375 59.367188 18.554688 58.664062 19.207031 58.664062 C 19.839844 58.699219 19.960938 59.421875 19.960938 59.984375 C 19.945312 60.917969 19.839844 61.058594 19.453125 61.867188 L 20.367188 61.867188 C 20.488281 61.390625 20.683594 60.566406 20.683594 60 C 20.683594 59.015625 20.3125 57.855469 19.132812 57.855469 Z M 19.132812 57.855469 "/>
<path fill-rule="nonzero" fill="rgb(0%, 0%, 0%)" fill-opacity="1" d="M 19.132812 53.042969 C 18.132812 53.042969 17.816406 53.726562 17.640625 54.644531 L 17.570312 54.996094 C 17.464844 55.488281 17.359375 56.210938 16.8125 56.210938 C 16.179688 56.175781 16.054688 55.433594 16.054688 54.871094 C 16.089844 53.972656 16.144531 54.042969 16.460938 53.289062 L 15.632812 53.289062 C 15.441406 53.761719 15.351562 54.363281 15.351562 54.976562 C 15.351562 55.980469 15.722656 56.964844 16.847656 56.964844 C 17.761719 56.949219 18.113281 56.332031 18.273438 55.488281 L 18.34375 55.171875 C 18.484375 54.554688 18.554688 53.851562 19.207031 53.851562 C 19.839844 53.886719 19.960938 54.609375 19.960938 55.171875 C 19.945312 56.105469 19.839844 56.246094 19.453125 57.054688 L 20.367188 57.054688 C 20.488281 56.578125 20.683594 55.75 20.683594 55.1875 C 20.683594 54.203125 20.3125 53.042969 19.132812 53.042969 Z M 19.132812 53.042969 "/>
<path fill-rule="nonzero" fill="rgb(0%, 0%, 0%)" fill-opacity="1" d="M 19.398438 50.714844 L 19.398438 51.738281 L 20.171875 51.738281 C 20.3125 51.667969 20.453125 51.648438 20.59375 51.648438 C 21 51.648438 21.421875 51.859375 21.617188 52.160156 C 21.597656 51.578125 20.734375 50.734375 20.191406 50.714844 Z M 19.398438 50.714844 "/>
<path fill-rule="nonzero" fill="rgb(0%, 0%, 0%)" fill-opacity="1" d="M 13.75 42.507812 C 13.34375 42.417969 13.222656 42.382812 13.222656 41.328125 C 13.222656 40.996094 13.222656 40.90625 13.011719 40.90625 C 12.871094 40.90625 12.871094 41.03125 12.871094 41.082031 C 12.871094 41.453125 12.90625 42.367188 12.90625 42.738281 C 12.90625 43.070312 12.871094 43.898438 12.871094 44.230469 C 12.871094 44.300781 12.871094 44.445312 13.097656 44.445312 C 13.222656 44.445312 13.222656 44.335938 13.222656 44.125 C 13.222656 44.109375 13.222656 43.898438 13.238281 43.703125 C 13.273438 43.511719 13.273438 43.40625 13.433594 43.40625 C 13.46875 43.40625 13.503906 43.40625 13.644531 43.441406 L 19.664062 44.953125 C 20.101562 45.058594 20.191406 45.078125 20.191406 45.972656 C 20.191406 46.167969 20.191406 46.273438 20.417969 46.273438 C 20.542969 46.273438 20.542969 46.167969 20.542969 45.972656 L 20.542969 40.765625 C 20.542969 40.5 20.542969 40.5 20.347656 40.429688 L 17.921875 39.535156 C 17.796875 39.5 17.78125 39.5 17.761719 39.5 C 17.726562 39.5 17.640625 39.535156 17.640625 39.621094 C 17.640625 39.726562 17.710938 39.746094 17.886719 39.816406 C 18.90625 40.203125 20.191406 40.695312 20.191406 42.632812 L 20.191406 43.6875 C 20.191406 43.84375 20.191406 43.878906 20.191406 43.933594 C 20.171875 44.054688 20.15625 44.089844 20.066406 44.089844 C 20.03125 44.089844 20.015625 44.089844 19.820312 44.039062 Z M 13.75 42.507812 "/>
<path fill-rule="nonzero" fill="rgb(0%, 0%, 0%)" fill-opacity="1" d="M 23.359375 36.210938 L 22.898438 36.210938 L 22.898438 37.300781 L 12.570312 37.300781 L 12.570312 36.210938 L 12.113281 36.210938 L 12.113281 37.757812 L 23.359375 37.757812 Z M 23.359375 36.210938 "/>
<path fill-rule="nonzero" fill="rgb(0%, 0%, 0%)" fill-opacity="1" d="M 13.082031 30.277344 C 12.941406 30.242188 12.921875 30.242188 12.90625 30.242188 C 12.746094 30.242188 12.746094 30.402344 12.746094 30.507812 C 12.746094 30.734375 12.78125 30.734375 13.011719 30.804688 L 15.226562 31.351562 C 15.386719 31.402344 15.386719 31.402344 15.40625 31.421875 C 15.40625 31.4375 15.421875 31.457031 15.441406 31.632812 C 15.5625 33.953125 17.164062 35.328125 18.589844 35.328125 C 19.785156 35.328125 20.613281 34.359375 20.664062 32.722656 L 22.652344 33.199219 C 22.8125 33.199219 22.8125 33.039062 22.8125 32.933594 C 22.8125 32.757812 22.792969 32.707031 22.601562 32.652344 L 21.035156 32.265625 C 20.71875 32.195312 20.699219 32.175781 20.683594 32.160156 C 20.683594 32.140625 20.683594 32.125 20.664062 31.949219 C 20.523438 29.660156 18.957031 28.253906 17.515625 28.253906 C 16.300781 28.253906 15.492188 29.222656 15.441406 30.859375 Z M 20.261719 32.617188 C 20.207031 33.585938 19.785156 34.183594 18.886719 34.183594 C 18.570312 34.183594 17.535156 34.058594 16.792969 33.460938 C 16.300781 33.074219 15.914062 32.425781 15.84375 31.507812 Z M 15.84375 30.964844 C 15.898438 29.996094 16.300781 29.398438 17.214844 29.398438 C 17.535156 29.398438 18.570312 29.519531 19.3125 30.117188 C 19.804688 30.507812 20.191406 31.15625 20.261719 32.070312 Z M 15.84375 30.964844 "/>
<path fill-rule="nonzero" fill="rgb(0%, 0%, 0%)" fill-opacity="1" d="M 12.113281 26.191406 L 12.113281 27.722656 L 12.570312 27.722656 L 12.570312 26.628906 L 22.898438 26.628906 L 22.898438 27.722656 L 23.359375 27.722656 L 23.359375 26.191406 Z M 12.113281 26.191406 "/>
<path fill="none" stroke-width="1.418572" stroke-linecap="butt" stroke-linejoin="miter" stroke="rgb(81.959534%, 51.371765%, 38.430786%)" stroke-opacity="1" stroke-miterlimit="10" d="M 176.789062 -1.350032 C 175.832031 -16.642572 168.570312 -86.910775 164.324219 -86.910775 C 160.074219 -86.910775 156.78125 -34.236037 155.714844 -18.978715 C 147 -34.310386 117.332031 -87.063388 79.230469 -86.989038 C 53.871094 -86.910775 34.117188 -34.236037 28.382812 -18.943497 " transform="matrix(1, 0, 0, -0.99824, 0, 0)"/>
<path fill-rule="nonzero" fill="rgb(0%, 0%, 0%)" fill-opacity="1" d="M 58.917969 89.4375 L 58.917969 88.902344 L 56.203125 88.902344 L 56.203125 94.042969 L 56.773438 94.042969 L 56.773438 91.558594 L 58.710938 91.558594 L 58.710938 91.023438 L 56.773438 91.023438 L 56.773438 89.4375 Z M 58.917969 89.4375 "/>
<path fill-rule="nonzero" fill="rgb(0%, 0%, 0%)" fill-opacity="1" d="M 59.464844 88.902344 L 60.015625 88.902344 L 60.015625 94.042969 L 59.464844 94.042969 Z M 59.464844 88.902344 "/>
<path fill-rule="nonzero" fill="rgb(0%, 0%, 0%)" fill-opacity="1" d="M 63.609375 94.042969 L 63.609375 92.128906 C 63.609375 91.164062 63.203125 90.601562 62.199219 90.601562 C 61.839844 90.601562 61.394531 90.71875 61.070312 90.835938 L 61.070312 91.382812 C 61.40625 91.199219 61.6875 91.082031 62.152344 91.082031 C 62.6875 91.09375 63.097656 91.359375 63.097656 91.921875 L 62.328125 91.921875 C 61.535156 91.921875 60.835938 92.1875 60.835938 93.0625 C 60.859375 93.738281 61.253906 94.136719 61.929688 94.136719 C 62.410156 94.136719 62.839844 93.9375 63.097656 93.597656 L 63.097656 94.042969 Z M 63.097656 92.480469 C 63.097656 93.132812 62.792969 93.65625 62.09375 93.65625 C 61.6875 93.65625 61.347656 93.472656 61.347656 93.027344 C 61.347656 92.375 61.964844 92.375 62.550781 92.375 L 63.097656 92.375 Z M 63.097656 92.480469 "/>
<path fill-rule="nonzero" fill="rgb(0%, 0%, 0%)" fill-opacity="1" d="M 66.398438 94.042969 L 66.398438 93.5625 L 65.8125 93.5625 C 65.289062 93.5625 65.195312 93.4375 65.195312 92.945312 L 65.195312 91.128906 L 66.1875 91.128906 L 66.1875 90.683594 L 65.195312 90.683594 L 65.195312 89.730469 L 64.960938 89.730469 L 64.648438 90.683594 L 64.25 90.683594 L 64.25 91.128906 L 64.648438 91.128906 L 64.648438 92.945312 C 64.648438 93.785156 64.984375 94.042969 65.8125 94.042969 Z M 66.398438 94.042969 "/>
<path fill-rule="nonzero" fill="rgb(0%, 0%, 0%)" fill-opacity="1" d="M 74.304688 94.042969 L 74.304688 92.015625 C 74.304688 91.292969 74.035156 90.601562 73.207031 90.601562 C 72.695312 90.601562 72.273438 90.871094 72.007812 91.28125 C 71.832031 90.882812 71.457031 90.601562 70.980469 90.601562 C 70.539062 90.601562 70.105469 90.835938 69.863281 91.140625 L 69.863281 90.683594 L 69.3125 90.683594 L 69.3125 94.042969 L 69.863281 94.042969 L 69.863281 92.140625 C 69.886719 91.546875 70.246094 91.09375 70.78125 91.09375 L 70.816406 91.09375 C 71.378906 91.09375 71.539062 91.441406 71.539062 92.039062 L 71.539062 94.042969 L 72.078125 94.042969 L 72.078125 92.140625 C 72.089844 91.511719 72.402344 91.09375 73.054688 91.09375 C 73.617188 91.09375 73.777344 91.476562 73.777344 92.039062 L 73.777344 94.042969 Z M 74.304688 94.042969 "/>
<path fill-rule="nonzero" fill="rgb(0%, 0%, 0%)" fill-opacity="1" d="M 75.847656 94.042969 L 75.847656 90.683594 L 75.289062 90.683594 L 75.289062 94.042969 Z M 75.570312 88.902344 C 75.394531 88.902344 75.242188 89.066406 75.242188 89.238281 C 75.242188 89.425781 75.394531 89.589844 75.570312 89.589844 C 75.757812 89.589844 75.894531 89.425781 75.894531 89.238281 C 75.894531 89.066406 75.757812 88.902344 75.570312 88.902344 Z M 75.570312 88.902344 "/>
<path fill-rule="nonzero" fill="rgb(0%, 0%, 0%)" fill-opacity="1" d="M 79.761719 94.042969 L 79.761719 92.015625 C 79.761719 91.222656 79.425781 90.601562 78.5625 90.601562 C 78.132812 90.601562 77.6875 90.765625 77.421875 91.140625 L 77.421875 90.683594 L 76.871094 90.683594 L 76.871094 94.042969 L 77.421875 94.042969 L 77.421875 92.140625 C 77.445312 91.5 77.839844 91.09375 78.433594 91.09375 C 79.019531 91.09375 79.226562 91.441406 79.226562 92.039062 L 79.226562 94.042969 Z M 79.761719 94.042969 "/>
<path fill-rule="nonzero" fill="rgb(0%, 0%, 0%)" fill-opacity="1" d="M 81.304688 94.042969 L 81.304688 90.683594 L 80.746094 90.683594 L 80.746094 94.042969 Z M 81.023438 88.902344 C 80.851562 88.902344 80.699219 89.066406 80.699219 89.238281 C 80.699219 89.425781 80.851562 89.589844 81.023438 89.589844 C 81.210938 89.589844 81.351562 89.425781 81.351562 89.238281 C 81.351562 89.066406 81.210938 88.902344 81.023438 88.902344 Z M 81.023438 88.902344 "/>
<path fill-rule="nonzero" fill="rgb(0%, 0%, 0%)" fill-opacity="1" d="M 87.316406 94.042969 L 87.316406 92.015625 C 87.316406 91.292969 87.050781 90.601562 86.222656 90.601562 C 85.707031 90.601562 85.289062 90.871094 85.019531 91.28125 C 84.847656 90.882812 84.472656 90.601562 83.996094 90.601562 C 83.550781 90.601562 83.121094 90.835938 82.875 91.140625 L 82.875 90.683594 L 82.328125 90.683594 L 82.328125 94.042969 L 82.875 94.042969 L 82.875 92.140625 C 82.898438 91.546875 83.261719 91.09375 83.796875 91.09375 L 83.832031 91.09375 C 84.390625 91.09375 84.554688 91.441406 84.554688 92.039062 L 84.554688 94.042969 L 85.089844 94.042969 L 85.089844 92.140625 C 85.101562 91.511719 85.417969 91.09375 86.070312 91.09375 C 86.628906 91.09375 86.792969 91.476562 86.792969 92.039062 L 86.792969 94.042969 Z M 87.316406 94.042969 "/>
<path fill-rule="nonzero" fill="rgb(0%, 0%, 0%)" fill-opacity="1" d="M 91.171875 94.042969 L 91.171875 90.683594 L 90.601562 90.683594 L 90.601562 92.585938 C 90.601562 93.214844 90.285156 93.644531 89.609375 93.644531 C 89.015625 93.644531 88.804688 93.273438 88.804688 92.703125 L 88.804688 90.683594 L 88.269531 90.683594 L 88.269531 92.714844 C 88.269531 93.507812 88.640625 94.136719 89.480469 94.136719 C 89.914062 94.136719 90.355469 93.890625 90.601562 93.597656 L 90.601562 94.042969 Z M 91.171875 94.042969 "/>
<path fill-rule="nonzero" fill="rgb(0%, 0%, 0%)" fill-opacity="1" d="M 97.1875 94.042969 L 97.1875 92.015625 C 97.1875 91.292969 96.917969 90.601562 96.09375 90.601562 C 95.578125 90.601562 95.160156 90.871094 94.890625 91.28125 C 94.714844 90.882812 94.34375 90.601562 93.867188 90.601562 C 93.421875 90.601562 92.992188 90.835938 92.746094 91.140625 L 92.746094 90.683594 L 92.199219 90.683594 L 92.199219 94.042969 L 92.746094 94.042969 L 92.746094 92.140625 C 92.769531 91.546875 93.132812 91.09375 93.667969 91.09375 L 93.703125 91.09375 C 94.261719 91.09375 94.425781 91.441406 94.425781 92.039062 L 94.425781 94.042969 L 94.960938 94.042969 L 94.960938 92.140625 C 94.972656 91.511719 95.289062 91.09375 95.941406 91.09375 C 96.5 91.09375 96.664062 91.476562 96.664062 92.039062 L 96.664062 94.042969 Z M 97.1875 94.042969 "/>
<path fill-rule="nonzero" fill="rgb(0%, 0%, 0%)" fill-opacity="1" d="M 134.402344 91.839844 C 134.402344 90.917969 133.84375 90.511719 133.015625 90.324219 L 132.59375 90.253906 C 132.058594 90.136719 131.617188 89.996094 131.617188 89.402344 C 131.628906 88.726562 132.175781 88.503906 132.804688 88.503906 C 133.375 88.503906 133.644531 88.644531 134.121094 88.878906 L 134.121094 88.273438 C 133.75 88.109375 133.164062 88.003906 132.734375 88.003906 C 131.789062 88.003906 131.089844 88.445312 131.089844 89.460938 C 131.089844 90.359375 131.617188 90.660156 132.453125 90.847656 L 132.839844 90.917969 C 133.421875 91.070312 133.84375 91.246094 133.84375 91.898438 C 133.84375 92.585938 133.199219 92.839844 132.59375 92.839844 C 132.011719 92.839844 131.535156 92.644531 131.078125 92.339844 L 131.078125 93.015625 C 131.558594 93.179688 132.070312 93.34375 132.59375 93.34375 C 133.597656 93.34375 134.402344 92.957031 134.402344 91.839844 Z M 134.402344 91.839844 "/>
<path fill-rule="nonzero" fill="rgb(0%, 0%, 0%)" fill-opacity="1" d="M 138.050781 93.238281 L 138.050781 91.199219 C 138.050781 90.417969 137.703125 89.800781 136.851562 89.800781 C 136.398438 89.800781 135.964844 89.9375 135.710938 90.347656 L 135.710938 88.097656 L 135.160156 88.097656 L 135.160156 93.238281 L 135.710938 93.238281 L 135.710938 91.335938 C 135.734375 90.695312 136.164062 90.289062 136.722656 90.289062 C 137.316406 90.300781 137.515625 90.636719 137.515625 91.234375 L 137.515625 93.238281 Z M 138.050781 93.238281 "/>
<path fill-rule="nonzero" fill="rgb(0%, 0%, 0%)" fill-opacity="1" d="M 141.609375 93.238281 L 141.609375 91.324219 C 141.609375 90.359375 141.203125 89.800781 140.199219 89.800781 C 139.839844 89.800781 139.394531 89.914062 139.070312 90.03125 L 139.070312 90.582031 C 139.40625 90.394531 139.6875 90.277344 140.152344 90.277344 C 140.6875 90.289062 141.097656 90.558594 141.097656 91.117188 L 140.328125 91.117188 C 139.535156 91.117188 138.835938 91.382812 138.835938 92.257812 C 138.859375 92.933594 139.253906 93.332031 139.929688 93.332031 C 140.410156 93.332031 140.839844 93.132812 141.097656 92.792969 L 141.097656 93.238281 Z M 141.097656 91.675781 C 141.097656 92.328125 140.792969 92.851562 140.09375 92.851562 C 139.6875 92.851562 139.347656 92.667969 139.347656 92.222656 C 139.347656 91.570312 139.964844 91.570312 140.550781 91.570312 L 141.097656 91.570312 Z M 141.097656 91.675781 "/>
<path fill-rule="nonzero" fill="rgb(0%, 0%, 0%)" fill-opacity="1" d="M 144.460938 90.558594 L 144.632812 90.019531 C 144.550781 89.925781 144.191406 89.835938 143.945312 89.835938 C 143.597656 89.847656 143.304688 90.019531 143.152344 90.335938 L 143.152344 89.878906 L 142.59375 89.878906 L 142.59375 93.238281 L 143.152344 93.238281 L 143.152344 91.464844 C 143.152344 91.453125 143.152344 91.441406 143.152344 91.441406 C 143.152344 90.953125 143.410156 90.3125 143.933594 90.3125 L 143.96875 90.3125 C 144.144531 90.3125 144.285156 90.417969 144.460938 90.558594 Z M 144.460938 90.558594 "/>
<path fill-rule="nonzero" fill="rgb(0%, 0%, 0%)" fill-opacity="1" d="M 148.273438 91.558594 C 148.273438 90.582031 147.621094 89.878906 146.628906 89.878906 L 145.195312 89.878906 L 145.195312 95.03125 L 145.753906 95.03125 L 145.753906 93.238281 L 146.582031 93.238281 C 147.667969 93.238281 148.273438 92.5625 148.273438 91.558594 Z M 147.738281 91.558594 C 147.738281 92.222656 147.316406 92.75 146.582031 92.75 L 145.753906 92.75 L 145.753906 90.371094 L 146.582031 90.371094 C 147.304688 90.371094 147.738281 90.847656 147.738281 91.558594 Z M 147.738281 91.558594 "/>
<path fill-rule="nonzero" fill="rgb(0%, 0%, 0%)" fill-opacity="1" d="M 156.347656 93.238281 L 156.347656 91.210938 C 156.347656 90.488281 156.078125 89.800781 155.25 89.800781 C 154.738281 89.800781 154.316406 90.066406 154.050781 90.476562 C 153.875 90.078125 153.5 89.800781 153.023438 89.800781 C 152.582031 89.800781 152.148438 90.03125 151.90625 90.335938 L 151.90625 89.878906 L 151.355469 89.878906 L 151.355469 93.238281 L 151.90625 93.238281 L 151.90625 91.335938 C 151.929688 90.742188 152.289062 90.289062 152.824219 90.289062 L 152.859375 90.289062 C 153.421875 90.289062 153.582031 90.636719 153.582031 91.234375 L 153.582031 93.238281 L 154.121094 93.238281 L 154.121094 91.335938 C 154.132812 90.707031 154.445312 90.289062 155.097656 90.289062 C 155.660156 90.289062 155.820312 90.671875 155.820312 91.234375 L 155.820312 93.238281 Z M 156.347656 93.238281 "/>
<path fill-rule="nonzero" fill="rgb(0%, 0%, 0%)" fill-opacity="1" d="M 157.890625 93.238281 L 157.890625 89.878906 L 157.332031 89.878906 L 157.332031 93.238281 Z M 157.613281 88.097656 C 157.4375 88.097656 157.285156 88.261719 157.285156 88.433594 C 157.285156 88.621094 157.4375 88.785156 157.613281 88.785156 C 157.800781 88.785156 157.9375 88.621094 157.9375 88.433594 C 157.9375 88.261719 157.800781 88.097656 157.613281 88.097656 Z M 157.613281 88.097656 "/>
<path fill-rule="nonzero" fill="rgb(0%, 0%, 0%)" fill-opacity="1" d="M 161.808594 93.238281 L 161.808594 91.210938 C 161.808594 90.417969 161.46875 89.800781 160.605469 89.800781 C 160.175781 89.800781 159.730469 89.960938 159.464844 90.335938 L 159.464844 89.878906 L 158.914062 89.878906 L 158.914062 93.238281 L 159.464844 93.238281 L 159.464844 91.335938 C 159.488281 90.695312 159.882812 90.289062 160.476562 90.289062 C 161.0625 90.289062 161.269531 90.636719 161.269531 91.234375 L 161.269531 93.238281 Z M 161.808594 93.238281 "/>
<path fill-rule="nonzero" fill="rgb(0%, 0%, 0%)" fill-opacity="1" d="M 163.347656 93.238281 L 163.347656 89.878906 L 162.789062 89.878906 L 162.789062 93.238281 Z M 163.066406 88.097656 C 162.894531 88.097656 162.742188 88.261719 162.742188 88.433594 C 162.742188 88.621094 162.894531 88.785156 163.066406 88.785156 C 163.253906 88.785156 163.394531 88.621094 163.394531 88.433594 C 163.394531 88.261719 163.253906 88.097656 163.066406 88.097656 Z M 163.066406 88.097656 "/>
<path fill-rule="nonzero" fill="rgb(0%, 0%, 0%)" fill-opacity="1" d="M 169.359375 93.238281 L 169.359375 91.210938 C 169.359375 90.488281 169.09375 89.800781 168.265625 89.800781 C 167.75 89.800781 167.332031 90.066406 167.0625 90.476562 C 166.890625 90.078125 166.515625 89.800781 166.039062 89.800781 C 165.59375 89.800781 165.164062 90.03125 164.917969 90.335938 L 164.917969 89.878906 L 164.371094 89.878906 L 164.371094 93.238281 L 164.917969 93.238281 L 164.917969 91.335938 C 164.941406 90.742188 165.304688 90.289062 165.839844 90.289062 L 165.875 90.289062 C 166.433594 90.289062 166.597656 90.636719 166.597656 91.234375 L 166.597656 93.238281 L 167.132812 93.238281 L 167.132812 91.335938 C 167.144531 90.707031 167.460938 90.289062 168.113281 90.289062 C 168.671875 90.289062 168.835938 90.671875 168.835938 91.234375 L 168.835938 93.238281 Z M 169.359375 93.238281 "/>
<path fill-rule="nonzero" fill="rgb(0%, 0%, 0%)" fill-opacity="1" d="M 173.214844 93.238281 L 173.214844 89.878906 L 172.644531 89.878906 L 172.644531 91.78125 C 172.644531 92.410156 172.328125 92.839844 171.652344 92.839844 C 171.058594 92.839844 170.847656 92.46875 170.847656 91.898438 L 170.847656 89.878906 L 170.3125 89.878906 L 170.3125 91.910156 C 170.3125 92.703125 170.683594 93.332031 171.523438 93.332031 C 171.957031 93.332031 172.398438 93.085938 172.644531 92.792969 L 172.644531 93.238281 Z M 173.214844 93.238281 "/>
<path fill-rule="nonzero" fill="rgb(0%, 0%, 0%)" fill-opacity="1" d="M 179.230469 93.238281 L 179.230469 91.210938 C 179.230469 90.488281 178.960938 89.800781 178.136719 89.800781 C 177.621094 89.800781 177.203125 90.066406 176.933594 90.476562 C 176.757812 90.078125 176.386719 89.800781 175.910156 89.800781 C 175.464844 89.800781 175.035156 90.03125 174.789062 90.335938 L 174.789062 89.878906 L 174.242188 89.878906 L 174.242188 93.238281 L 174.789062 93.238281 L 174.789062 91.335938 C 174.8125 90.742188 175.175781 90.289062 175.710938 90.289062 L 175.746094 90.289062 C 176.304688 90.289062 176.46875 90.636719 176.46875 91.234375 L 176.46875 93.238281 L 177.003906 93.238281 L 177.003906 91.335938 C 177.015625 90.707031 177.332031 90.289062 177.984375 90.289062 C 178.542969 90.289062 178.707031 90.671875 178.707031 91.234375 L 178.707031 93.238281 Z M 179.230469 93.238281 "/>
<path fill-rule="nonzero" fill="rgb(46.665955%, 23.529053%, 13.725281%)" fill-opacity="1" d="M 119.464844 18.371094 L 119.464844 17.832031 L 115.457031 17.832031 L 115.457031 18.371094 L 117.179688 18.371094 L 117.179688 22.972656 L 117.742188 22.972656 L 117.742188 18.371094 Z M 119.464844 18.371094 "/>
<path fill-rule="nonzero" fill="rgb(46.665955%, 23.529053%, 13.725281%)" fill-opacity="1" d="M 121.054688 20.292969 L 121.230469 19.757812 C 121.148438 19.664062 120.789062 19.570312 120.542969 19.570312 C 120.195312 19.582031 119.902344 19.757812 119.75 20.070312 L 119.75 19.617188 L 119.191406 19.617188 L 119.191406 22.972656 L 119.75 22.972656 L 119.75 21.203125 C 119.75 21.191406 119.75 21.179688 119.75 21.179688 C 119.75 20.691406 120.007812 20.046875 120.53125 20.046875 L 120.566406 20.046875 C 120.742188 20.046875 120.882812 20.152344 121.054688 20.292969 Z M 121.054688 20.292969 "/>
<path fill-rule="nonzero" fill="rgb(46.665955%, 23.529053%, 13.725281%)" fill-opacity="1" d="M 124.324219 22.972656 L 124.324219 21.0625 C 124.324219 20.09375 123.917969 19.535156 122.914062 19.535156 C 122.550781 19.535156 122.109375 19.652344 121.785156 19.769531 L 121.785156 20.316406 C 122.121094 20.128906 122.402344 20.011719 122.867188 20.011719 C 123.402344 20.023438 123.8125 20.292969 123.8125 20.851562 L 123.042969 20.851562 C 122.25 20.851562 121.550781 21.121094 121.550781 21.996094 C 121.574219 22.671875 121.96875 23.066406 122.644531 23.066406 C 123.125 23.066406 123.554688 22.871094 123.8125 22.53125 L 123.8125 22.972656 Z M 123.8125 21.414062 C 123.8125 22.066406 123.507812 22.589844 122.808594 22.589844 C 122.402344 22.589844 122.0625 22.402344 122.0625 21.960938 C 122.0625 21.308594 122.679688 21.308594 123.261719 21.308594 L 123.8125 21.308594 Z M 123.8125 21.414062 "/>
<path fill-rule="nonzero" fill="rgb(46.665955%, 23.529053%, 13.725281%)" fill-opacity="1" d="M 125.867188 22.972656 L 125.867188 19.617188 L 125.308594 19.617188 L 125.308594 22.972656 Z M 125.589844 17.832031 C 125.414062 17.832031 125.261719 17.996094 125.261719 18.171875 C 125.261719 18.359375 125.414062 18.523438 125.589844 18.523438 C 125.773438 18.523438 125.914062 18.359375 125.914062 18.171875 C 125.914062 17.996094 125.773438 17.832031 125.589844 17.832031 Z M 125.589844 17.832031 "/>
<path fill-rule="nonzero" fill="rgb(46.665955%, 23.529053%, 13.725281%)" fill-opacity="1" d="M 129.78125 22.972656 L 129.78125 20.945312 C 129.78125 20.152344 129.445312 19.535156 128.582031 19.535156 C 128.152344 19.535156 127.707031 19.699219 127.4375 20.070312 L 127.4375 19.617188 L 126.890625 19.617188 L 126.890625 22.972656 L 127.4375 22.972656 L 127.4375 21.074219 C 127.460938 20.433594 127.859375 20.023438 128.453125 20.023438 C 129.035156 20.023438 129.246094 20.375 129.246094 20.96875 L 129.246094 22.972656 Z M 129.78125 22.972656 "/>
<path fill-rule="nonzero" fill="rgb(46.665955%, 23.529053%, 13.725281%)" fill-opacity="1" d="M 131.324219 22.972656 L 131.324219 19.617188 L 130.765625 19.617188 L 130.765625 22.972656 Z M 131.042969 17.832031 C 130.867188 17.832031 130.71875 17.996094 130.71875 18.171875 C 130.71875 18.359375 130.867188 18.523438 131.042969 18.523438 C 131.230469 18.523438 131.371094 18.359375 131.371094 18.171875 C 131.371094 17.996094 131.230469 17.832031 131.042969 17.832031 Z M 131.042969 17.832031 "/>
<path fill-rule="nonzero" fill="rgb(46.665955%, 23.529053%, 13.725281%)" fill-opacity="1" d="M 135.238281 22.972656 L 135.238281 20.945312 C 135.238281 20.152344 134.898438 19.535156 134.039062 19.535156 C 133.605469 19.535156 133.164062 19.699219 132.894531 20.070312 L 132.894531 19.617188 L 132.347656 19.617188 L 132.347656 22.972656 L 132.894531 22.972656 L 132.894531 21.074219 C 132.917969 20.433594 133.316406 20.023438 133.910156 20.023438 C 134.492188 20.023438 134.703125 20.375 134.703125 20.96875 L 134.703125 22.972656 Z M 135.238281 22.972656 "/>
<path fill-rule="nonzero" fill="rgb(46.665955%, 23.529053%, 13.725281%)" fill-opacity="1" d="M 137.234375 22.894531 C 137.863281 22.894531 138.292969 23.195312 138.292969 23.605469 C 138.292969 24.011719 137.863281 24.304688 137.234375 24.304688 C 136.605469 24.304688 136.253906 24.011719 136.253906 23.605469 C 136.253906 23.195312 136.605469 22.894531 137.234375 22.894531 Z M 137.234375 22.414062 C 137.175781 22.414062 137.117188 22.414062 137.046875 22.425781 C 136.699219 22.425781 136.394531 22.214844 136.394531 22.078125 C 136.394531 21.914062 136.582031 21.855469 136.71875 21.855469 L 136.765625 21.855469 C 136.882812 21.960938 137.234375 21.996094 137.339844 21.996094 C 137.980469 21.996094 138.492188 21.449219 138.492188 20.769531 C 138.492188 20.503906 138.398438 20.246094 138.246094 20.046875 L 138.796875 20.046875 L 138.796875 19.628906 L 137.851562 19.628906 C 137.699219 19.582031 137.488281 19.558594 137.375 19.558594 C 136.730469 19.558594 136.195312 20.105469 136.171875 20.769531 C 136.171875 21.097656 136.289062 21.390625 136.5 21.597656 C 136.253906 21.644531 135.984375 21.808594 135.984375 22.125 C 135.984375 22.320312 136.113281 22.507812 136.382812 22.625 C 135.953125 22.847656 135.695312 23.207031 135.695312 23.59375 C 135.695312 24.199219 136.3125 24.757812 137.234375 24.757812 C 138.167969 24.757812 138.921875 24.199219 138.921875 23.605469 C 138.921875 22.824219 138.015625 22.414062 137.234375 22.414062 Z M 137.339844 20.023438 C 137.734375 20.023438 138.0625 20.351562 138.0625 20.757812 C 138.0625 21.15625 137.734375 21.480469 137.339844 21.480469 C 136.929688 21.480469 136.617188 21.15625 136.617188 20.757812 C 136.617188 20.351562 136.929688 20.023438 137.339844 20.023438 Z M 137.339844 20.023438 "/>
<path fill-rule="nonzero" fill="rgb(46.665955%, 23.529053%, 13.725281%)" fill-opacity="1" d="M 107.988281 26.753906 L 108.535156 26.753906 L 108.535156 31.894531 L 107.988281 31.894531 Z M 107.988281 26.753906 "/>
<path fill-rule="nonzero" fill="rgb(46.665955%, 23.529053%, 13.725281%)" fill-opacity="1" d="M 112.539062 30.214844 C 112.539062 29.363281 112.085938 28.453125 110.964844 28.453125 C 109.953125 28.453125 109.378906 29.234375 109.378906 30.214844 C 109.378906 31.136719 109.972656 31.964844 110.964844 31.988281 C 111.96875 31.964844 112.539062 31.160156 112.539062 30.214844 Z M 111.992188 30.214844 C 111.992188 30.878906 111.582031 31.472656 110.964844 31.472656 C 110.125 31.460938 109.941406 30.714844 109.941406 30.203125 C 109.941406 29.527344 110.265625 28.96875 110.964844 28.957031 C 111.617188 28.96875 111.992188 29.574219 111.992188 30.214844 Z M 111.992188 30.214844 "/>
<path fill-rule="nonzero" fill="rgb(46.665955%, 23.529053%, 13.725281%)" fill-opacity="1" d="M 115.871094 30.960938 C 115.871094 30.296875 115.417969 30.085938 114.8125 29.96875 L 114.578125 29.921875 C 114.25 29.851562 113.773438 29.785156 113.773438 29.421875 C 113.796875 29.003906 114.285156 28.921875 114.660156 28.921875 C 115.253906 28.945312 115.207031 28.980469 115.707031 29.1875 L 115.707031 28.640625 C 115.394531 28.511719 114.996094 28.453125 114.589844 28.453125 C 113.925781 28.453125 113.273438 28.699219 113.273438 29.445312 C 113.285156 30.050781 113.691406 30.285156 114.25 30.390625 L 114.460938 30.4375 C 114.871094 30.53125 115.335938 30.574219 115.335938 31.007812 C 115.3125 31.425781 114.835938 31.507812 114.460938 31.507812 C 113.84375 31.496094 113.75 31.425781 113.214844 31.171875 L 113.214844 31.777344 C 113.527344 31.859375 114.078125 31.988281 114.449219 31.988281 C 115.101562 31.988281 115.871094 31.742188 115.871094 30.960938 Z M 115.871094 30.960938 "/>
<path fill-rule="nonzero" fill="rgb(46.665955%, 23.529053%, 13.725281%)" fill-opacity="1" d="M 119.058594 30.960938 C 119.058594 30.296875 118.605469 30.085938 118 29.96875 L 117.765625 29.921875 C 117.441406 29.851562 116.960938 29.785156 116.960938 29.421875 C 116.984375 29.003906 117.476562 28.921875 117.847656 28.921875 C 118.441406 28.945312 118.394531 28.980469 118.898438 29.1875 L 118.898438 28.640625 C 118.582031 28.511719 118.1875 28.453125 117.777344 28.453125 C 117.113281 28.453125 116.460938 28.699219 116.460938 29.445312 C 116.472656 30.050781 116.878906 30.285156 117.441406 30.390625 L 117.648438 30.4375 C 118.058594 30.53125 118.523438 30.574219 118.523438 31.007812 C 118.5 31.425781 118.023438 31.507812 117.648438 31.507812 C 117.03125 31.496094 116.9375 31.425781 116.402344 31.171875 L 116.402344 31.777344 C 116.71875 31.859375 117.265625 31.988281 117.636719 31.988281 C 118.292969 31.988281 119.058594 31.742188 119.058594 30.960938 Z M 119.058594 30.960938 "/>
<path fill-rule="nonzero" fill="rgb(46.665955%, 23.529053%, 13.725281%)" fill-opacity="1" d="M 123.972656 27.21875 L 123.972656 26.753906 L 123.4375 26.753906 C 122.902344 26.753906 122.363281 27.113281 122.339844 28.09375 L 122.339844 28.535156 L 121.792969 28.535156 L 121.792969 28.992188 L 122.339844 28.992188 L 122.339844 31.894531 L 122.902344 31.894531 L 122.902344 28.992188 L 123.84375 28.992188 L 123.84375 28.535156 L 122.902344 28.535156 L 122.902344 28.023438 C 122.902344 27.371094 123.273438 27.21875 123.425781 27.21875 Z M 123.972656 27.21875 "/>
<path fill-rule="nonzero" fill="rgb(46.665955%, 23.529053%, 13.725281%)" fill-opacity="1" d="M 127.363281 31.894531 L 127.363281 28.535156 L 126.789062 28.535156 L 126.789062 30.4375 C 126.789062 31.066406 126.476562 31.496094 125.800781 31.496094 C 125.207031 31.496094 124.996094 31.125 124.996094 30.554688 L 124.996094 28.535156 L 124.460938 28.535156 L 124.460938 30.566406 C 124.460938 31.355469 124.832031 31.988281 125.671875 31.988281 C 126.101562 31.988281 126.546875 31.742188 126.789062 31.449219 L 126.789062 31.894531 Z M 127.363281 31.894531 "/>
<path fill-rule="nonzero" fill="rgb(46.665955%, 23.529053%, 13.725281%)" fill-opacity="1" d="M 131.28125 31.894531 L 131.28125 29.863281 C 131.28125 29.074219 130.941406 28.453125 130.078125 28.453125 C 129.648438 28.453125 129.203125 28.617188 128.9375 28.992188 L 128.9375 28.535156 L 128.390625 28.535156 L 128.390625 31.894531 L 128.9375 31.894531 L 128.9375 29.992188 C 128.960938 29.351562 129.355469 28.945312 129.949219 28.945312 C 130.535156 28.945312 130.742188 29.292969 130.742188 29.886719 L 130.742188 31.894531 Z M 131.28125 31.894531 "/>
<path fill-rule="nonzero" fill="rgb(46.665955%, 23.529053%, 13.725281%)" fill-opacity="1" d="M 134.835938 31.777344 L 134.835938 31.230469 C 134.476562 31.414062 134.324219 31.507812 133.859375 31.507812 C 133.042969 31.496094 132.644531 31.019531 132.644531 30.214844 C 132.644531 29.433594 133.054688 28.933594 133.859375 28.933594 C 134.300781 28.957031 134.464844 29.027344 134.835938 29.210938 L 134.835938 28.652344 C 134.535156 28.558594 134.207031 28.453125 133.824219 28.453125 C 132.726562 28.453125 132.085938 29.152344 132.085938 30.214844 C 132.109375 31.265625 132.703125 31.988281 133.789062 31.988281 C 134.160156 31.988281 134.558594 31.882812 134.835938 31.777344 Z M 134.835938 31.777344 "/>
<path fill-rule="nonzero" fill="rgb(46.665955%, 23.529053%, 13.725281%)" fill-opacity="1" d="M 137.496094 31.894531 L 137.496094 31.414062 L 136.914062 31.414062 C 136.390625 31.414062 136.296875 31.289062 136.296875 30.796875 L 136.296875 28.980469 L 137.289062 28.980469 L 137.289062 28.535156 L 136.296875 28.535156 L 136.296875 27.582031 L 136.0625 27.582031 L 135.75 28.535156 L 135.351562 28.535156 L 135.351562 28.980469 L 135.75 28.980469 L 135.75 30.796875 C 135.75 31.636719 136.085938 31.894531 136.914062 31.894531 Z M 137.496094 31.894531 "/>
<path fill-rule="nonzero" fill="rgb(46.665955%, 23.529053%, 13.725281%)" fill-opacity="1" d="M 138.746094 31.894531 L 138.746094 28.535156 L 138.183594 28.535156 L 138.183594 31.894531 Z M 138.464844 26.753906 C 138.289062 26.753906 138.136719 26.914062 138.136719 27.089844 C 138.136719 27.277344 138.289062 27.441406 138.464844 27.441406 C 138.652344 27.441406 138.792969 27.277344 138.792969 27.089844 C 138.792969 26.914062 138.652344 26.753906 138.464844 26.753906 Z M 138.464844 26.753906 "/>
<path fill-rule="nonzero" fill="rgb(46.665955%, 23.529053%, 13.725281%)" fill-opacity="1" d="M 142.753906 30.214844 C 142.753906 29.363281 142.296875 28.453125 141.179688 28.453125 C 140.164062 28.453125 139.59375 29.234375 139.59375 30.214844 C 139.59375 31.136719 140.1875 31.964844 141.179688 31.988281 C 142.179688 31.964844 142.753906 31.160156 142.753906 30.214844 Z M 142.203125 30.214844 C 142.203125 30.878906 141.796875 31.472656 141.179688 31.472656 C 140.339844 31.460938 140.152344 30.714844 140.152344 30.203125 C 140.152344 29.527344 140.480469 28.96875 141.179688 28.957031 C 141.832031 28.96875 142.203125 29.574219 142.203125 30.214844 Z M 142.203125 30.214844 "/>
<path fill-rule="nonzero" fill="rgb(46.665955%, 23.529053%, 13.725281%)" fill-opacity="1" d="M 146.515625 31.894531 L 146.515625 29.863281 C 146.515625 29.074219 146.179688 28.453125 145.316406 28.453125 C 144.882812 28.453125 144.441406 28.617188 144.171875 28.992188 L 144.171875 28.535156 L 143.625 28.535156 L 143.625 31.894531 L 144.171875 31.894531 L 144.171875 29.992188 C 144.195312 29.351562 144.59375 28.945312 145.1875 28.945312 C 145.769531 28.945312 145.980469 29.292969 145.980469 29.886719 L 145.980469 31.894531 Z M 146.515625 31.894531 "/>
<path fill-rule="nonzero" fill="rgb(20.391846%, 51.371765%, 47.842407%)" fill-opacity="1" d="M 54.738281 9.667969 L 54.738281 9.132812 L 50.726562 9.132812 L 50.726562 9.667969 L 52.453125 9.667969 L 52.453125 14.273438 L 53.011719 14.273438 L 53.011719 9.667969 Z M 54.738281 9.667969 "/>
<path fill-rule="nonzero" fill="rgb(20.391846%, 51.371765%, 47.842407%)" fill-opacity="1" d="M 57.328125 12.59375 L 57.328125 12.535156 C 57.328125 11.570312 56.933594 10.859375 55.824219 10.835938 C 54.832031 10.835938 54.273438 11.695312 54.273438 12.628906 C 54.273438 13.644531 54.890625 14.367188 55.917969 14.367188 C 56.382812 14.367188 56.804688 14.261719 57.210938 14.109375 L 57.210938 13.550781 C 56.675781 13.808594 56.59375 13.867188 55.964844 13.867188 C 55.265625 13.867188 54.84375 13.445312 54.84375 12.652344 L 54.84375 12.59375 Z M 56.78125 12.140625 L 54.867188 12.140625 C 54.9375 11.695312 55.265625 11.3125 55.824219 11.3125 C 56.40625 11.3125 56.78125 11.675781 56.78125 12.140625 Z M 56.78125 12.140625 "/>
<path fill-rule="nonzero" fill="rgb(20.391846%, 51.371765%, 47.842407%)" fill-opacity="1" d="M 60.59375 13.339844 C 60.59375 12.675781 60.140625 12.464844 59.535156 12.351562 L 59.300781 12.304688 C 58.976562 12.234375 58.496094 12.164062 58.496094 11.800781 C 58.519531 11.382812 59.011719 11.300781 59.382812 11.300781 C 59.976562 11.324219 59.929688 11.359375 60.433594 11.570312 L 60.433594 11.019531 C 60.117188 10.894531 59.722656 10.835938 59.3125 10.835938 C 58.648438 10.835938 57.996094 11.078125 57.996094 11.824219 C 58.007812 12.429688 58.414062 12.664062 58.976562 12.769531 L 59.183594 12.816406 C 59.59375 12.910156 60.058594 12.957031 60.058594 13.386719 C 60.035156 13.808594 59.558594 13.886719 59.183594 13.886719 C 58.566406 13.878906 58.472656 13.808594 57.9375 13.550781 L 57.9375 14.15625 C 58.253906 14.238281 58.800781 14.367188 59.171875 14.367188 C 59.824219 14.367188 60.59375 14.121094 60.59375 13.339844 Z M 60.59375 13.339844 "/>
<path fill-rule="nonzero" fill="rgb(20.391846%, 51.371765%, 47.842407%)" fill-opacity="1" d="M 63.289062 14.273438 L 63.289062 13.796875 L 62.707031 13.796875 C 62.183594 13.796875 62.089844 13.667969 62.089844 13.175781 L 62.089844 11.359375 L 63.082031 11.359375 L 63.082031 10.917969 L 62.089844 10.917969 L 62.089844 9.960938 L 61.855469 9.960938 L 61.542969 10.917969 L 61.144531 10.917969 L 61.144531 11.359375 L 61.542969 11.359375 L 61.542969 13.175781 C 61.542969 14.015625 61.878906 14.273438 62.707031 14.273438 Z M 63.289062 14.273438 "/>
<path fill-rule="nonzero" fill="rgb(20.391846%, 51.371765%, 47.842407%)" fill-opacity="1" d="M 37.777344 18.050781 L 38.324219 18.050781 L 38.324219 23.191406 L 37.777344 23.191406 Z M 37.777344 18.050781 "/>
<path fill-rule="nonzero" fill="rgb(20.391846%, 51.371765%, 47.842407%)" fill-opacity="1" d="M 42.332031 21.515625 C 42.332031 20.664062 41.875 19.753906 40.757812 19.753906 C 39.742188 19.753906 39.171875 20.535156 39.171875 21.515625 C 39.171875 22.433594 39.765625 23.261719 40.757812 23.285156 C 41.757812 23.261719 42.332031 22.457031 42.332031 21.515625 Z M 41.78125 21.515625 C 41.78125 22.179688 41.375 22.773438 40.757812 22.773438 C 39.917969 22.761719 39.730469 22.015625 39.730469 21.503906 C 39.730469 20.824219 40.058594 20.265625 40.757812 20.253906 C 41.410156 20.265625 41.78125 20.871094 41.78125 21.515625 Z M 41.78125 21.515625 "/>
<path fill-rule="nonzero" fill="rgb(20.391846%, 51.371765%, 47.842407%)" fill-opacity="1" d="M 45.664062 22.257812 C 45.664062 21.59375 45.207031 21.386719 44.601562 21.269531 L 44.371094 21.222656 C 44.042969 21.152344 43.566406 21.082031 43.566406 20.722656 C 43.589844 20.300781 44.078125 20.21875 44.449219 20.21875 C 45.046875 20.242188 45 20.277344 45.5 20.488281 L 45.5 19.941406 C 45.183594 19.8125 44.789062 19.753906 44.382812 19.753906 C 43.714844 19.753906 43.0625 20 43.0625 20.746094 C 43.074219 21.351562 43.484375 21.582031 44.042969 21.6875 L 44.253906 21.734375 C 44.660156 21.828125 45.128906 21.875 45.128906 22.304688 C 45.105469 22.726562 44.625 22.808594 44.253906 22.808594 C 43.636719 22.796875 43.542969 22.726562 43.003906 22.46875 L 43.003906 23.074219 C 43.320312 23.15625 43.867188 23.285156 44.242188 23.285156 C 44.894531 23.285156 45.664062 23.039062 45.664062 22.257812 Z M 45.664062 22.257812 "/>
<path fill-rule="nonzero" fill="rgb(20.391846%, 51.371765%, 47.842407%)" fill-opacity="1" d="M 48.851562 22.257812 C 48.851562 21.59375 48.398438 21.386719 47.789062 21.269531 L 47.558594 21.222656 C 47.230469 21.152344 46.753906 21.082031 46.753906 20.722656 C 46.777344 20.300781 47.265625 20.21875 47.640625 20.21875 C 48.234375 20.242188 48.1875 20.277344 48.6875 20.488281 L 48.6875 19.941406 C 48.375 19.8125 47.976562 19.753906 47.570312 19.753906 C 46.90625 19.753906 46.253906 20 46.253906 20.746094 C 46.265625 21.351562 46.671875 21.582031 47.230469 21.6875 L 47.441406 21.734375 C 47.847656 21.828125 48.316406 21.875 48.316406 22.304688 C 48.292969 22.726562 47.8125 22.808594 47.441406 22.808594 C 46.824219 22.796875 46.730469 22.726562 46.195312 22.46875 L 46.195312 23.074219 C 46.507812 23.15625 47.054688 23.285156 47.429688 23.285156 C 48.082031 23.285156 48.851562 23.039062 48.851562 22.257812 Z M 48.851562 22.257812 "/>
<path fill-rule="nonzero" fill="rgb(20.391846%, 51.371765%, 47.842407%)" fill-opacity="1" d="M 53.765625 18.519531 L 53.765625 18.050781 L 53.230469 18.050781 C 52.691406 18.050781 52.15625 18.414062 52.132812 19.390625 L 52.132812 19.835938 L 51.585938 19.835938 L 51.585938 20.289062 L 52.132812 20.289062 L 52.132812 23.191406 L 52.691406 23.191406 L 52.691406 20.289062 L 53.636719 20.289062 L 53.636719 19.835938 L 52.691406 19.835938 L 52.691406 19.320312 C 52.691406 18.667969 53.066406 18.519531 53.21875 18.519531 Z M 53.765625 18.519531 "/>
<path fill-rule="nonzero" fill="rgb(20.391846%, 51.371765%, 47.842407%)" fill-opacity="1" d="M 57.152344 23.191406 L 57.152344 19.835938 L 56.582031 19.835938 L 56.582031 21.734375 C 56.582031 22.363281 56.265625 22.796875 55.589844 22.796875 C 54.996094 22.796875 54.785156 22.421875 54.785156 21.851562 L 54.785156 19.835938 L 54.25 19.835938 L 54.25 21.863281 C 54.25 22.65625 54.625 23.285156 55.460938 23.285156 C 55.894531 23.285156 56.335938 23.039062 56.582031 22.75 L 56.582031 23.191406 Z M 57.152344 23.191406 "/>
<path fill-rule="nonzero" fill="rgb(20.391846%, 51.371765%, 47.842407%)" fill-opacity="1" d="M 61.070312 23.191406 L 61.070312 21.164062 C 61.070312 20.371094 60.734375 19.753906 59.871094 19.753906 C 59.4375 19.753906 58.996094 19.917969 58.726562 20.289062 L 58.726562 19.835938 L 58.179688 19.835938 L 58.179688 23.191406 L 58.726562 23.191406 L 58.726562 21.292969 C 58.75 20.652344 59.148438 20.242188 59.742188 20.242188 C 60.324219 20.242188 60.535156 20.59375 60.535156 21.1875 L 60.535156 23.191406 Z M 61.070312 23.191406 "/>
<path fill-rule="nonzero" fill="rgb(20.391846%, 51.371765%, 47.842407%)" fill-opacity="1" d="M 64.628906 23.074219 L 64.628906 22.527344 C 64.265625 22.714844 64.117188 22.808594 63.648438 22.808594 C 62.832031 22.796875 62.4375 22.316406 62.4375 21.515625 C 62.4375 20.734375 62.84375 20.230469 63.648438 20.230469 C 64.09375 20.253906 64.253906 20.324219 64.628906 20.511719 L 64.628906 19.953125 C 64.324219 19.859375 64 19.753906 63.613281 19.753906 C 62.519531 19.753906 61.878906 20.453125 61.878906 21.515625 C 61.902344 22.5625 62.496094 23.285156 63.578125 23.285156 C 63.953125 23.285156 64.347656 23.179688 64.628906 23.074219 Z M 64.628906 23.074219 "/>
<path fill-rule="nonzero" fill="rgb(20.391846%, 51.371765%, 47.842407%)" fill-opacity="1" d="M 67.289062 23.191406 L 67.289062 22.714844 L 66.707031 22.714844 C 66.179688 22.714844 66.089844 22.585938 66.089844 22.097656 L 66.089844 20.277344 L 67.078125 20.277344 L 67.078125 19.835938 L 66.089844 19.835938 L 66.089844 18.878906 L 65.855469 18.878906 L 65.539062 19.835938 L 65.144531 19.835938 L 65.144531 20.277344 L 65.539062 20.277344 L 65.539062 22.097656 C 65.539062 22.9375 65.878906 23.191406 66.707031 23.191406 Z M 67.289062 23.191406 "/>
<path fill-rule="nonzero" fill="rgb(20.391846%, 51.371765%, 47.842407%)" fill-opacity="1" d="M 68.535156 23.191406 L 68.535156 19.835938 L 67.976562 19.835938 L 67.976562 23.191406 Z M 68.257812 18.050781 C 68.082031 18.050781 67.929688 18.214844 67.929688 18.390625 C 67.929688 18.574219 68.082031 18.738281 68.257812 18.738281 C 68.441406 18.738281 68.582031 18.574219 68.582031 18.390625 C 68.582031 18.214844 68.441406 18.050781 68.257812 18.050781 Z M 68.257812 18.050781 "/>
<path fill-rule="nonzero" fill="rgb(20.391846%, 51.371765%, 47.842407%)" fill-opacity="1" d="M 72.542969 21.515625 C 72.542969 20.664062 72.089844 19.753906 70.96875 19.753906 C 69.957031 19.753906 69.382812 20.535156 69.382812 21.515625 C 69.382812 22.433594 69.980469 23.261719 70.96875 23.285156 C 71.972656 23.261719 72.542969 22.457031 72.542969 21.515625 Z M 71.996094 21.515625 C 71.996094 22.179688 71.585938 22.773438 70.96875 22.773438 C 70.128906 22.761719 69.945312 22.015625 69.945312 21.503906 C 69.945312 20.824219 70.269531 20.265625 70.96875 20.253906 C 71.621094 20.265625 71.996094 20.871094 71.996094 21.515625 Z M 71.996094 21.515625 "/>
<path fill-rule="nonzero" fill="rgb(20.391846%, 51.371765%, 47.842407%)" fill-opacity="1" d="M 76.308594 23.191406 L 76.308594 21.164062 C 76.308594 20.371094 75.96875 19.753906 75.105469 19.753906 C 74.675781 19.753906 74.234375 19.917969 73.964844 20.289062 L 73.964844 19.835938 L 73.417969 19.835938 L 73.417969 23.191406 L 73.964844 23.191406 L 73.964844 21.292969 C 73.988281 20.652344 74.382812 20.242188 74.980469 20.242188 C 75.5625 20.242188 75.773438 20.59375 75.773438 21.1875 L 75.773438 23.191406 Z M 76.308594 23.191406 "/>
<path fill-rule="nonzero" fill="rgb(81.959534%, 51.371765%, 38.430786%)" fill-opacity="1" stroke-width="0.283655" stroke-linecap="butt" stroke-linejoin="round" stroke="rgb(46.665955%, 23.529053%, 13.725281%)" stroke-opacity="1" stroke-miterlimit="4" d="M 80.487081 87.054688 C 80.487081 87.859375 79.833859 88.515625 79.028089 88.515625 C 78.222318 88.515625 77.569097 87.859375 77.569097 87.054688 C 77.569097 86.25 78.222318 85.59375 79.028089 85.59375 C 79.833859 85.59375 80.487081 86.25 80.487081 87.054688 Z M 80.487081 87.054688 " transform="matrix(0.998656, 0, 0, 1, 0, 0)"/>
<path fill-rule="nonzero" fill="rgb(81.959534%, 51.371765%, 38.430786%)" fill-opacity="1" stroke-width="0.283655" stroke-linecap="butt" stroke-linejoin="round" stroke="rgb(46.665955%, 23.529053%, 13.725281%)" stroke-opacity="1" stroke-miterlimit="4" d="M 166.21167 86.207031 C 166.21167 87.011719 165.554537 87.664062 164.748766 87.664062 C 163.942996 87.664062 163.289774 87.011719 163.289774 86.207031 C 163.289774 85.398438 163.942996 84.746094 164.748766 84.746094 C 165.554537 84.746094 166.21167 85.398438 166.21167 86.207031 Z M 166.21167 86.207031 " transform="matrix(0.998656, 0, 0, 1, 0, 0)"/>
<path fill="none" stroke-width="0.850394" stroke-linecap="butt" stroke-linejoin="round" stroke="rgb(1.176453%, 0%, 0%)" stroke-opacity="1" stroke-miterlimit="4" d="M 28.1875 1.632812 L 181.320312 1.632812 L 181.320312 97.222656 L 28.1875 97.222656 Z M 28.1875 1.632812 "/>
</svg>
