<?xml version="1.0" encoding="UTF-8"?>
<svg xmlns="http://www.w3.org/2000/svg" xmlns:xlink="http://www.w3.org/1999/xlink" width="199.930099pt" height="115.704094pt" viewBox="0 0 199.930099 115.704094">
<defs>
<clipPath id="clip-0">
<path clip-rule="nonzero" d="M 27.859375 13 L 182 13 L 182 99.859375 L 27.859375 99.859375 Z M 27.859375 13 "/>
</clipPath>
</defs>
<path fill="none" stroke-width="1.878696" stroke-linecap="square" stroke-linejoin="round" stroke="rgb(62.35199%, 85.096741%, 82.351685%)" stroke-opacity="1" stroke-miterlimit="4" d="M 43.787795 15.042969 L 44.271875 17.40625 L 45.233907 20.027344 L 46.189812 22.34375 L 46.673892 23.5625 L 47.151845 24.359375 L 47.635925 25.363281 L 48.113877 25.878906 L 49.553862 28.265625 L 50.037942 28.6875 L 50.515894 29.53125 L 51.955879 31.707031 L 52.439959 32.128906 L 53.879944 33.910156 L 54.357897 34.46875 L 54.841977 35.148438 L 55.319929 36.0625 L 55.804009 36.53125 L 56.281962 37.160156 L 57.243994 38.917969 L 57.721946 39.574219 L 58.206026 40.320312 L 58.683979 41.257812 L 59.168059 42.335938 L 59.646011 42.941406 L 60.130091 43.644531 L 60.608044 44.699219 L 61.085996 45.613281 L 61.570076 46.195312 L 62.048029 46.945312 L 63.010061 49.027344 L 63.488013 50.035156 L 64.450046 52.234375 L 64.934126 53.03125 L 65.412078 53.992188 L 65.896158 55.277344 L 66.374111 56.308594 L 66.852063 56.988281 L 67.814096 58.601562 L 68.776128 60.007812 L 69.25408 61.035156 L 69.738161 61.738281 L 70.216113 62.699219 L 70.700193 64.125 L 71.662225 65.671875 L 72.61813 67.824219 L 73.580163 69.695312 L 74.064243 70.46875 L 77.428292 77.421875 L 77.906245 78.402344 L 78.868277 79.902344 L 79.34623 80.488281 L 80.308262 81.9375 L 80.792342 82.945312 L 82.710279 86.339844 L 83.672312 87.835938 L 84.634344 89.519531 L 85.596377 90.621094 L 86.074329 90.996094 L 86.558409 91.675781 L 87.514314 92.820312 L 87.998394 93.523438 L 89.438379 95.234375 L 90.400411 95.886719 L 90.878364 96.402344 L 91.840396 96.941406 L 92.802429 97.339844 L 93.280381 97.808594 L 93.764461 98.183594 L 94.726494 98.554688 L 95.204446 98.625 L 96.166478 98.929688 L 96.644431 98.976562 L 97.128511 99.09375 L 100.008481 99.351562 L 101.932545 99.445312 L 104.334563 99.515625 L 106.258628 99.5625 L 107.698613 99.585938 L 188.429679 99.609375 L 282.733368 99.609375 " transform="matrix(0.637485, 0, 0, 1, 0, 0)"/>
<path fill="none" stroke-width="0.850394" stroke-linecap="butt" stroke-linejoin="miter" stroke="rgb(50.195312%, 50.195312%, 50.195312%)" stroke-opacity="1" stroke-miterlimit="4" d="M 27.402344 100.492188 L 27.402344 102.375 "/>
<path fill="none" stroke-width="0.850394" stroke-linecap="butt" stroke-linejoin="miter" stroke="rgb(50.195312%, 50.195312%, 50.195312%)" stroke-opacity="1" stroke-miterlimit="4" d="M 180.539062 100.492188 L 180.539062 102.375 "/>
<path fill="none" stroke-width="0.850394" stroke-linecap="butt" stroke-linejoin="miter" stroke="rgb(50.195312%, 50.195312%, 50.195312%)" stroke-opacity="1" stroke-miterlimit="4" d="M 58.03125 101.777344 L 58.03125 100.492188 "/>
<path fill="none" stroke-width="0.850394" stroke-linecap="butt" stroke-linejoin="miter" stroke="rgb(50.195312%, 50.195312%, 50.195312%)" stroke-opacity="1" stroke-miterlimit="4" d="M 88.65625 101.777344 L 88.65625 100.492188 "/>
<path fill="none" stroke-width="0.850394" stroke-linecap="butt" stroke-linejoin="miter" stroke="rgb(50.195312%, 50.195312%, 50.195312%)" stroke-opacity="1" stroke-miterlimit="4" d="M 119.285156 101.777344 L 119.285156 100.492188 "/>
<path fill="none" stroke-width="0.850394" stroke-linecap="butt" stroke-linejoin="miter" stroke="rgb(50.195312%, 50.195312%, 50.195312%)" stroke-opacity="1" stroke-miterlimit="4" d="M 27.222656 4.496094 L 25.339844 4.496094 "/>
<path fill="none" stroke-width="0.850394" stroke-linecap="butt" stroke-linejoin="miter" stroke="rgb(50.195312%, 50.195312%, 50.195312%)" stroke-opacity="1" stroke-miterlimit="4" d="M 27.222656 52.273438 L 25.339844 52.273438 "/>
<path fill="none" stroke-width="0.850394" stroke-linecap="butt" stroke-linejoin="miter" stroke="rgb(50.195312%, 50.195312%, 50.195312%)" stroke-opacity="1" stroke-miterlimit="4" d="M 27.136719 100.050781 L 25.253906 100.050781 "/>
<path fill="none" stroke-width="0.850394" stroke-linecap="butt" stroke-linejoin="miter" stroke="rgb(50.195312%, 50.195312%, 50.195312%)" stroke-opacity="1" stroke-miterlimit="4" d="M 27.222656 14.050781 L 25.941406 14.050781 "/>
<path fill="none" stroke-width="0.850394" stroke-linecap="butt" stroke-linejoin="miter" stroke="rgb(50.195312%, 50.195312%, 50.195312%)" stroke-opacity="1" stroke-miterlimit="4" d="M 27.222656 23.609375 L 25.941406 23.609375 "/>
<path fill="none" stroke-width="0.850394" stroke-linecap="butt" stroke-linejoin="miter" stroke="rgb(50.195312%, 50.195312%, 50.195312%)" stroke-opacity="1" stroke-miterlimit="4" d="M 27.222656 33.164062 L 25.941406 33.164062 "/>
<path fill="none" stroke-width="0.850394" stroke-linecap="butt" stroke-linejoin="miter" stroke="rgb(50.195312%, 50.195312%, 50.195312%)" stroke-opacity="1" stroke-miterlimit="4" d="M 27.222656 42.71875 L 25.941406 42.71875 "/>
<path fill="none" stroke-width="0.850394" stroke-linecap="butt" stroke-linejoin="miter" stroke="rgb(50.195312%, 50.195312%, 50.195312%)" stroke-opacity="1" stroke-miterlimit="4" d="M 27.222656 61.828125 L 25.941406 61.828125 "/>
<path fill="none" stroke-width="0.850394" stroke-linecap="butt" stroke-linejoin="miter" stroke="rgb(50.195312%, 50.195312%, 50.195312%)" stroke-opacity="1" stroke-miterlimit="4" d="M 27.222656 71.386719 L 25.941406 71.386719 "/>
<path fill="none" stroke-width="0.850394" stroke-linecap="butt" stroke-linejoin="miter" stroke="rgb(50.195312%, 50.195312%, 50.195312%)" stroke-opacity="1" stroke-miterlimit="4" d="M 27.222656 80.941406 L 25.941406 80.941406 "/>
<path fill="none" stroke-width="0.850394" stroke-linecap="butt" stroke-linejoin="miter" stroke="rgb(50.195312%, 50.195312%, 50.195312%)" stroke-opacity="1" stroke-miterlimit="4" d="M 27.222656 90.496094 L 25.941406 90.496094 "/>
<path fill="none" stroke-width="0.850394" stroke-linecap="butt" stroke-linejoin="miter" stroke="rgb(50.195312%, 50.195312%, 50.195312%)" stroke-opacity="1" stroke-miterlimit="4" d="M 149.914062 101.777344 L 149.914062 100.492188 "/>
<path fill-rule="nonzero" fill="rgb(50.195312%, 50.195312%, 50.195312%)" fill-opacity="1" d="M 14.386719 7.007812 L 14.386719 1.546875 L 13.730469 1.546875 L 12.953125 2.179688 L 12.953125 2.796875 L 13.769531 2.128906 L 13.769531 7.007812 Z M 14.386719 7.007812 "/>
<path fill-rule="nonzero" fill="rgb(50.195312%, 50.195312%, 50.195312%)" fill-opacity="1" d="M 18.96875 4.296875 C 18.957031 3.132812 18.695312 1.445312 17.222656 1.445312 C 15.75 1.445312 15.5 3.15625 15.5 4.296875 C 15.5 5.449219 15.761719 7.121094 17.222656 7.121094 C 18.683594 7.121094 18.96875 5.449219 18.96875 4.296875 Z M 18.398438 4.296875 C 18.398438 5.050781 18.335938 6.601562 17.222656 6.601562 C 16.109375 6.601562 16.070312 5.027344 16.070312 4.296875 C 16.070312 3.550781 16.09375 1.953125 17.222656 1.953125 C 18.335938 1.953125 18.398438 3.566406 18.398438 4.296875 Z M 18.398438 4.296875 "/>
<path fill-rule="nonzero" fill="rgb(50.195312%, 50.195312%, 50.195312%)" fill-opacity="1" d="M 23.375 4.296875 C 23.363281 3.132812 23.101562 1.445312 21.628906 1.445312 C 20.15625 1.445312 19.90625 3.15625 19.90625 4.296875 C 19.90625 5.449219 20.167969 7.121094 21.628906 7.121094 C 23.089844 7.121094 23.375 5.449219 23.375 4.296875 Z M 22.804688 4.296875 C 22.804688 5.050781 22.742188 6.601562 21.628906 6.601562 C 20.515625 6.601562 20.476562 5.027344 20.476562 4.296875 C 20.476562 3.550781 20.503906 1.953125 21.628906 1.953125 C 22.742188 1.953125 22.804688 3.566406 22.804688 4.296875 Z M 22.804688 4.296875 "/>
<path fill-rule="nonzero" fill="rgb(50.195312%, 50.195312%, 50.195312%)" fill-opacity="1" d="M 23.375 99.164062 C 23.363281 98 23.101562 96.316406 21.628906 96.316406 C 20.15625 96.316406 19.90625 98.027344 19.90625 99.164062 C 19.90625 100.316406 20.167969 101.988281 21.628906 101.988281 C 23.089844 101.988281 23.375 100.316406 23.375 99.164062 Z M 22.804688 99.164062 C 22.804688 99.921875 22.742188 101.46875 21.628906 101.46875 C 20.515625 101.46875 20.476562 99.894531 20.476562 99.164062 C 20.476562 98.421875 20.503906 96.824219 21.628906 96.824219 C 22.742188 96.824219 22.804688 98.433594 22.804688 99.164062 Z M 22.804688 99.164062 "/>
<path fill-rule="nonzero" fill="rgb(50.195312%, 50.195312%, 50.195312%)" fill-opacity="1" d="M 29.136719 106.613281 C 29.125 105.449219 28.863281 103.761719 27.390625 103.761719 C 25.917969 103.761719 25.667969 105.472656 25.667969 106.613281 C 25.667969 107.765625 25.929688 109.4375 27.390625 109.4375 C 28.851562 109.4375 29.136719 107.765625 29.136719 106.613281 Z M 28.566406 106.613281 C 28.566406 107.367188 28.503906 108.917969 27.390625 108.917969 C 26.273438 108.917969 26.238281 107.34375 26.238281 106.613281 C 26.238281 105.867188 26.261719 104.269531 27.390625 104.269531 C 28.503906 104.269531 28.566406 105.882812 28.566406 106.613281 Z M 28.566406 106.613281 "/>
<path fill="none" stroke-width="1.417323" stroke-linecap="butt" stroke-linejoin="miter" stroke="rgb(68.234253%, 76.469421%, 81.175232%)" stroke-opacity="1" stroke-miterlimit="4" d="M 114.558594 10.855469 C 122.597656 10.855469 122.597656 10.855469 122.597656 10.855469 "/>
<path fill="none" stroke-width="1.417323" stroke-linecap="butt" stroke-linejoin="miter" stroke="rgb(77.645874%, 80.39093%, 81.175232%)" stroke-opacity="1" stroke-miterlimit="4" d="M 114.558594 19.183594 C 122.597656 19.183594 122.597656 19.183594 122.597656 19.183594 "/>
<path fill="none" stroke-width="1.417323" stroke-linecap="butt" stroke-linejoin="miter" stroke="rgb(81.959534%, 51.371765%, 38.430786%)" stroke-opacity="1" stroke-miterlimit="4" d="M 114.558594 27.511719 C 122.597656 27.511719 122.597656 27.511719 122.597656 27.511719 "/>
<path fill="none" stroke-width="1.417323" stroke-linecap="butt" stroke-linejoin="miter" stroke="rgb(62.35199%, 85.096741%, 82.351685%)" stroke-opacity="1" stroke-miterlimit="4" d="M 114.558594 35.835938 C 122.597656 35.835938 122.597656 35.835938 122.597656 35.835938 "/>
<path fill-rule="nonzero" fill="rgb(0%, 0%, 0%)" fill-opacity="1" d="M 129.613281 12.53125 L 129.613281 7.390625 L 128.996094 7.390625 L 128.261719 7.984375 L 128.261719 8.566406 L 129.03125 7.9375 L 129.03125 12.53125 Z M 129.613281 12.53125 "/>
<path fill-rule="nonzero" fill="rgb(0%, 0%, 0%)" fill-opacity="1" d="M 135.851562 12.53125 L 135.851562 10.488281 C 135.851562 9.710938 135.5 9.089844 134.648438 9.089844 C 134.195312 9.089844 133.765625 9.230469 133.507812 9.640625 L 133.507812 7.390625 L 132.960938 7.390625 L 132.960938 12.53125 L 133.507812 12.53125 L 133.507812 10.628906 C 133.53125 9.988281 133.960938 9.582031 134.519531 9.582031 C 135.117188 9.59375 135.3125 9.929688 135.3125 10.523438 L 135.3125 12.53125 Z M 135.851562 12.53125 "/>
<path fill-rule="nonzero" fill="rgb(0%, 0%, 0%)" fill-opacity="1" d="M 137.390625 12.53125 L 137.390625 9.171875 L 136.832031 9.171875 L 136.832031 12.53125 Z M 137.113281 7.390625 C 136.9375 7.390625 136.785156 7.550781 136.785156 7.726562 C 136.785156 7.914062 136.9375 8.078125 137.113281 8.078125 C 137.296875 8.078125 137.4375 7.914062 137.4375 7.726562 C 137.4375 7.550781 137.296875 7.390625 137.113281 7.390625 Z M 137.113281 7.390625 "/>
<path fill-rule="nonzero" fill="rgb(0%, 0%, 0%)" fill-opacity="1" d="M 138.226562 10.851562 C 138.226562 11.84375 138.882812 12.53125 139.882812 12.53125 L 141.304688 12.53125 L 141.304688 7.390625 L 140.746094 7.390625 L 140.746094 9.171875 L 139.929688 9.171875 C 138.835938 9.171875 138.226562 9.847656 138.226562 10.851562 Z M 138.765625 10.851562 C 138.765625 10.199219 139.183594 9.664062 139.929688 9.664062 L 140.746094 9.664062 L 140.746094 12.039062 L 139.929688 12.039062 C 139.195312 12.039062 138.765625 11.574219 138.765625 10.851562 Z M 138.765625 10.851562 "/>
<path fill-rule="nonzero" fill="rgb(0%, 0%, 0%)" fill-opacity="1" d="M 142.144531 10.851562 C 142.144531 11.84375 142.796875 12.53125 143.800781 12.53125 L 145.222656 12.53125 L 145.222656 7.390625 L 144.664062 7.390625 L 144.664062 9.171875 L 143.847656 9.171875 C 142.75 9.171875 142.144531 9.847656 142.144531 10.851562 Z M 142.679688 10.851562 C 142.679688 10.199219 143.101562 9.664062 143.847656 9.664062 L 144.664062 9.664062 L 144.664062 12.039062 L 143.847656 12.039062 C 143.113281 12.039062 142.679688 11.574219 142.679688 10.851562 Z M 142.679688 10.851562 "/>
<path fill-rule="nonzero" fill="rgb(0%, 0%, 0%)" fill-opacity="1" d="M 149.128906 10.851562 L 149.128906 10.792969 C 149.128906 9.824219 148.730469 9.113281 147.625 9.089844 C 146.632812 9.089844 146.074219 9.953125 146.074219 10.886719 C 146.074219 11.902344 146.691406 12.625 147.71875 12.625 C 148.183594 12.625 148.601562 12.519531 149.011719 12.367188 L 149.011719 11.808594 C 148.476562 12.0625 148.394531 12.121094 147.765625 12.121094 C 147.066406 12.121094 146.644531 11.703125 146.644531 10.910156 L 146.644531 10.851562 Z M 148.582031 10.398438 L 146.667969 10.398438 C 146.738281 9.953125 147.066406 9.570312 147.625 9.570312 C 148.207031 9.570312 148.582031 9.929688 148.582031 10.398438 Z M 148.582031 10.398438 "/>
<path fill-rule="nonzero" fill="rgb(0%, 0%, 0%)" fill-opacity="1" d="M 152.828125 12.53125 L 152.828125 10.5 C 152.828125 9.710938 152.488281 9.089844 151.625 9.089844 C 151.195312 9.089844 150.75 9.253906 150.484375 9.628906 L 150.484375 9.171875 L 149.933594 9.171875 L 149.933594 12.53125 L 150.484375 12.53125 L 150.484375 10.628906 C 150.507812 9.988281 150.902344 9.582031 151.496094 9.582031 C 152.082031 9.582031 152.289062 9.929688 152.289062 10.523438 L 152.289062 12.53125 Z M 152.828125 12.53125 "/>
<path fill-rule="nonzero" fill="rgb(0%, 0%, 0%)" fill-opacity="1" d="M 155.957031 7.390625 L 156.503906 7.390625 L 156.503906 12.53125 L 155.957031 12.53125 Z M 155.957031 7.390625 "/>
<path fill-rule="nonzero" fill="rgb(0%, 0%, 0%)" fill-opacity="1" d="M 160.101562 12.53125 L 160.101562 10.617188 C 160.101562 9.652344 159.691406 9.089844 158.691406 9.089844 C 158.328125 9.089844 157.886719 9.207031 157.558594 9.324219 L 157.558594 9.871094 C 157.898438 9.6875 158.175781 9.570312 158.644531 9.570312 C 159.179688 9.582031 159.585938 9.847656 159.585938 10.410156 L 158.816406 10.410156 C 158.023438 10.410156 157.324219 10.675781 157.324219 11.550781 C 157.347656 12.226562 157.746094 12.625 158.421875 12.625 C 158.898438 12.625 159.332031 12.425781 159.585938 12.085938 L 159.585938 12.53125 Z M 159.585938 10.96875 C 159.585938 11.621094 159.285156 12.144531 158.585938 12.144531 C 158.175781 12.144531 157.839844 11.957031 157.839844 11.515625 C 157.839844 10.863281 158.457031 10.863281 159.039062 10.863281 L 159.585938 10.863281 Z M 159.585938 10.96875 "/>
<path fill-rule="nonzero" fill="rgb(0%, 0%, 0%)" fill-opacity="1" d="M 163.820312 9.171875 L 163.304688 9.171875 L 162.269531 11.632812 L 161.054688 9.171875 L 160.53125 9.171875 L 161.988281 12.179688 L 161.417969 13.53125 C 161.324219 13.765625 161.007812 13.941406 160.859375 13.941406 L 161.042969 14.324219 C 161.324219 14.300781 161.617188 14.105469 161.800781 13.8125 Z M 163.820312 9.171875 "/>
<path fill-rule="nonzero" fill="rgb(0%, 0%, 0%)" fill-opacity="1" d="M 167.195312 10.851562 L 167.195312 10.792969 C 167.195312 9.824219 166.800781 9.113281 165.691406 9.089844 C 164.703125 9.089844 164.140625 9.953125 164.140625 10.886719 C 164.140625 11.902344 164.761719 12.625 165.785156 12.625 C 166.253906 12.625 166.671875 12.519531 167.078125 12.367188 L 167.078125 11.808594 C 166.542969 12.0625 166.460938 12.121094 165.832031 12.121094 C 165.132812 12.121094 164.714844 11.703125 164.714844 10.910156 L 164.714844 10.851562 Z M 166.648438 10.398438 L 164.738281 10.398438 C 164.808594 9.953125 165.132812 9.570312 165.691406 9.570312 C 166.277344 9.570312 166.648438 9.929688 166.648438 10.398438 Z M 166.648438 10.398438 "/>
<path fill-rule="nonzero" fill="rgb(0%, 0%, 0%)" fill-opacity="1" d="M 169.867188 9.847656 L 170.042969 9.3125 C 169.960938 9.21875 169.601562 9.125 169.355469 9.125 C 169.007812 9.136719 168.714844 9.3125 168.5625 9.628906 L 168.5625 9.171875 L 168.003906 9.171875 L 168.003906 12.53125 L 168.5625 12.53125 L 168.5625 10.757812 C 168.5625 10.746094 168.5625 10.734375 168.5625 10.734375 C 168.5625 10.246094 168.820312 9.605469 169.34375 9.605469 L 169.378906 9.605469 C 169.554688 9.605469 169.695312 9.710938 169.867188 9.847656 Z M 169.867188 9.847656 "/>
<path fill-rule="nonzero" fill="rgb(0%, 0%, 0%)" fill-opacity="1" d="M 129.945312 20.902344 L 129.945312 20.367188 L 127.636719 20.367188 L 129.398438 18.386719 C 129.6875 17.976562 129.910156 17.664062 129.910156 17.125 C 129.910156 16.171875 129.210938 15.667969 128.324219 15.667969 C 127.824219 15.667969 127.40625 15.820312 126.984375 15.996094 L 126.984375 16.660156 C 127.40625 16.390625 127.824219 16.195312 128.335938 16.195312 C 128.917969 16.195312 129.375 16.554688 129.375 17.160156 C 129.375 17.570312 129.046875 18.070312 128.78125 18.351562 C 128.699219 18.464844 127.078125 20.238281 126.949219 20.367188 L 126.949219 20.902344 Z M 129.945312 20.902344 "/>
<path fill-rule="nonzero" fill="rgb(0%, 0%, 0%)" fill-opacity="1" d="M 135.921875 20.902344 L 135.921875 18.863281 C 135.921875 18.082031 135.574219 17.464844 134.722656 17.464844 C 134.269531 17.464844 133.835938 17.605469 133.582031 18.011719 L 133.582031 15.761719 L 133.03125 15.761719 L 133.03125 20.902344 L 133.582031 20.902344 L 133.582031 19.003906 C 133.605469 18.363281 134.035156 17.953125 134.59375 17.953125 C 135.1875 17.964844 135.386719 18.304688 135.386719 18.898438 L 135.386719 20.902344 Z M 135.921875 20.902344 "/>
<path fill-rule="nonzero" fill="rgb(0%, 0%, 0%)" fill-opacity="1" d="M 137.464844 20.902344 L 137.464844 17.546875 L 136.90625 17.546875 L 136.90625 20.902344 Z M 137.183594 15.761719 C 137.007812 15.761719 136.859375 15.925781 136.859375 16.101562 C 136.859375 16.285156 137.007812 16.449219 137.183594 16.449219 C 137.371094 16.449219 137.511719 16.285156 137.511719 16.101562 C 137.511719 15.925781 137.371094 15.761719 137.183594 15.761719 Z M 137.183594 15.761719 "/>
<path fill-rule="nonzero" fill="rgb(0%, 0%, 0%)" fill-opacity="1" d="M 138.300781 19.222656 C 138.300781 20.214844 138.953125 20.902344 139.957031 20.902344 L 141.378906 20.902344 L 141.378906 15.761719 L 140.820312 15.761719 L 140.820312 17.546875 L 140.003906 17.546875 C 138.90625 17.546875 138.300781 18.222656 138.300781 19.222656 Z M 138.835938 19.222656 C 138.835938 18.570312 139.257812 18.035156 140.003906 18.035156 L 140.820312 18.035156 L 140.820312 20.414062 L 140.003906 20.414062 C 139.269531 20.414062 138.835938 19.945312 138.835938 19.222656 Z M 138.835938 19.222656 "/>
<path fill-rule="nonzero" fill="rgb(0%, 0%, 0%)" fill-opacity="1" d="M 142.21875 19.222656 C 142.21875 20.214844 142.871094 20.902344 143.875 20.902344 L 145.296875 20.902344 L 145.296875 15.761719 L 144.734375 15.761719 L 144.734375 17.546875 L 143.921875 17.546875 C 142.824219 17.546875 142.21875 18.222656 142.21875 19.222656 Z M 142.753906 19.222656 C 142.753906 18.570312 143.175781 18.035156 143.921875 18.035156 L 144.734375 18.035156 L 144.734375 20.414062 L 143.921875 20.414062 C 143.1875 20.414062 142.753906 19.945312 142.753906 19.222656 Z M 142.753906 19.222656 "/>
<path fill-rule="nonzero" fill="rgb(0%, 0%, 0%)" fill-opacity="1" d="M 149.199219 19.222656 L 149.199219 19.167969 C 149.199219 18.199219 148.804688 17.488281 147.695312 17.464844 C 146.707031 17.464844 146.148438 18.328125 146.148438 19.257812 C 146.148438 20.273438 146.765625 20.996094 147.789062 20.996094 C 148.257812 20.996094 148.675781 20.890625 149.085938 20.738281 L 149.085938 20.179688 C 148.546875 20.4375 148.464844 20.496094 147.835938 20.496094 C 147.136719 20.496094 146.71875 20.074219 146.71875 19.28125 L 146.71875 19.222656 Z M 148.652344 18.769531 L 146.742188 18.769531 C 146.8125 18.328125 147.136719 17.941406 147.695312 17.941406 C 148.28125 17.941406 148.652344 18.304688 148.652344 18.769531 Z M 148.652344 18.769531 "/>
<path fill-rule="nonzero" fill="rgb(0%, 0%, 0%)" fill-opacity="1" d="M 152.898438 20.902344 L 152.898438 18.875 C 152.898438 18.082031 152.5625 17.464844 151.699219 17.464844 C 151.265625 17.464844 150.824219 17.628906 150.554688 18 L 150.554688 17.546875 L 150.007812 17.546875 L 150.007812 20.902344 L 150.554688 20.902344 L 150.554688 19.003906 C 150.578125 18.363281 150.976562 17.953125 151.570312 17.953125 C 152.152344 17.953125 152.363281 18.304688 152.363281 18.898438 L 152.363281 20.902344 Z M 152.898438 20.902344 "/>
<path fill-rule="nonzero" fill="rgb(0%, 0%, 0%)" fill-opacity="1" d="M 156.027344 15.761719 L 156.578125 15.761719 L 156.578125 20.902344 L 156.027344 20.902344 Z M 156.027344 15.761719 "/>
<path fill-rule="nonzero" fill="rgb(0%, 0%, 0%)" fill-opacity="1" d="M 160.171875 20.902344 L 160.171875 18.992188 C 160.171875 18.023438 159.765625 17.464844 158.761719 17.464844 C 158.402344 17.464844 157.957031 17.582031 157.632812 17.699219 L 157.632812 18.246094 C 157.96875 18.058594 158.25 17.941406 158.714844 17.941406 C 159.253906 17.953125 159.660156 18.222656 159.660156 18.78125 L 158.890625 18.78125 C 158.097656 18.78125 157.398438 19.050781 157.398438 19.925781 C 157.421875 20.601562 157.816406 20.996094 158.496094 20.996094 C 158.972656 20.996094 159.402344 20.796875 159.660156 20.460938 L 159.660156 20.902344 Z M 159.660156 19.339844 C 159.660156 19.992188 159.355469 20.519531 158.65625 20.519531 C 158.25 20.519531 157.910156 20.332031 157.910156 19.890625 C 157.910156 19.234375 158.53125 19.234375 159.113281 19.234375 L 159.660156 19.234375 Z M 159.660156 19.339844 "/>
<path fill-rule="nonzero" fill="rgb(0%, 0%, 0%)" fill-opacity="1" d="M 163.890625 17.546875 L 163.378906 17.546875 L 162.339844 20.003906 L 161.128906 17.546875 L 160.605469 17.546875 L 162.0625 20.554688 L 161.492188 21.90625 C 161.398438 22.140625 161.082031 22.3125 160.929688 22.3125 L 161.117188 22.699219 C 161.398438 22.675781 161.6875 22.476562 161.875 22.183594 Z M 163.890625 17.546875 "/>
<path fill-rule="nonzero" fill="rgb(0%, 0%, 0%)" fill-opacity="1" d="M 167.269531 19.222656 L 167.269531 19.167969 C 167.269531 18.199219 166.875 17.488281 165.765625 17.464844 C 164.773438 17.464844 164.214844 18.328125 164.214844 19.257812 C 164.214844 20.273438 164.832031 20.996094 165.859375 20.996094 C 166.324219 20.996094 166.746094 20.890625 167.152344 20.738281 L 167.152344 20.179688 C 166.617188 20.4375 166.535156 20.496094 165.90625 20.496094 C 165.207031 20.496094 164.785156 20.074219 164.785156 19.28125 L 164.785156 19.222656 Z M 166.722656 18.769531 L 164.808594 18.769531 C 164.878906 18.328125 165.207031 17.941406 165.765625 17.941406 C 166.347656 17.941406 166.722656 18.304688 166.722656 18.769531 Z M 166.722656 18.769531 "/>
<path fill-rule="nonzero" fill="rgb(0%, 0%, 0%)" fill-opacity="1" d="M 169.941406 18.222656 L 170.117188 17.6875 C 170.035156 17.59375 169.671875 17.5 169.429688 17.5 C 169.078125 17.511719 168.789062 17.6875 168.636719 18 L 168.636719 17.546875 L 168.078125 17.546875 L 168.078125 20.902344 L 168.636719 20.902344 L 168.636719 19.132812 C 168.636719 19.121094 168.636719 19.109375 168.636719 19.109375 C 168.636719 18.617188 168.894531 17.976562 169.417969 17.976562 L 169.453125 17.976562 C 169.628906 17.976562 169.765625 18.082031 169.941406 18.222656 Z M 169.941406 18.222656 "/>
<path fill-rule="nonzero" fill="rgb(0%, 0%, 0%)" fill-opacity="1" d="M 173.117188 19.96875 C 173.117188 19.304688 172.660156 19.097656 172.054688 18.980469 L 171.820312 18.933594 C 171.496094 18.863281 171.015625 18.792969 171.015625 18.433594 C 171.039062 18.011719 171.53125 17.929688 171.902344 17.929688 C 172.496094 17.953125 172.449219 17.988281 172.953125 18.199219 L 172.953125 17.652344 C 172.636719 17.523438 172.242188 17.464844 171.832031 17.464844 C 171.167969 17.464844 170.515625 17.710938 170.515625 18.457031 C 170.527344 19.0625 170.933594 19.292969 171.496094 19.398438 L 171.703125 19.445312 C 172.113281 19.539062 172.578125 19.585938 172.578125 20.015625 C 172.554688 20.4375 172.078125 20.519531 171.703125 20.519531 C 171.085938 20.507812 170.992188 20.4375 170.457031 20.179688 L 170.457031 20.785156 C 170.773438 20.867188 171.320312 20.996094 171.691406 20.996094 C 172.347656 20.996094 173.117188 20.75 173.117188 19.96875 Z M 173.117188 19.96875 "/>
<path fill-rule="nonzero" fill="rgb(0%, 0%, 0%)" fill-opacity="1" d="M 129.96875 27.738281 C 129.96875 27.167969 129.617188 26.640625 128.964844 26.453125 C 129.523438 26.246094 129.851562 25.835938 129.851562 25.300781 C 129.851562 24.402344 129.105469 23.996094 128.289062 23.996094 C 127.882812 23.996094 127.378906 24.089844 127.019531 24.207031 L 127.019531 24.777344 C 127.414062 24.636719 127.753906 24.519531 128.230469 24.519531 C 128.835938 24.519531 129.328125 24.742188 129.328125 25.394531 C 129.316406 25.988281 128.835938 26.234375 128.253906 26.234375 L 127.707031 26.234375 L 127.707031 26.734375 L 128.230469 26.734375 C 128.90625 26.734375 129.441406 27.027344 129.441406 27.738281 C 129.441406 28.578125 128.859375 28.808594 128.101562 28.808594 C 127.566406 28.808594 127.238281 28.714844 126.867188 28.460938 L 126.867188 29.089844 C 127.238281 29.21875 127.671875 29.335938 128.113281 29.335938 C 129.152344 29.335938 129.96875 28.867188 129.96875 27.738281 Z M 129.96875 27.738281 "/>
<path fill-rule="nonzero" fill="rgb(0%, 0%, 0%)" fill-opacity="1" d="M 136.007812 29.230469 L 136.007812 27.1875 C 136.007812 26.410156 135.65625 25.789062 134.804688 25.789062 C 134.351562 25.789062 133.917969 25.929688 133.664062 26.339844 L 133.664062 24.089844 L 133.113281 24.089844 L 133.113281 29.230469 L 133.664062 29.230469 L 133.664062 27.328125 C 133.6875 26.6875 134.117188 26.28125 134.675781 26.28125 C 135.273438 26.292969 135.46875 26.628906 135.46875 27.222656 L 135.46875 29.230469 Z M 136.007812 29.230469 "/>
<path fill-rule="nonzero" fill="rgb(0%, 0%, 0%)" fill-opacity="1" d="M 137.546875 29.230469 L 137.546875 25.871094 L 136.988281 25.871094 L 136.988281 29.230469 Z M 137.265625 24.089844 C 137.09375 24.089844 136.941406 24.25 136.941406 24.425781 C 136.941406 24.613281 137.09375 24.777344 137.265625 24.777344 C 137.453125 24.777344 137.59375 24.613281 137.59375 24.425781 C 137.59375 24.25 137.453125 24.089844 137.265625 24.089844 Z M 137.265625 24.089844 "/>
<path fill-rule="nonzero" fill="rgb(0%, 0%, 0%)" fill-opacity="1" d="M 138.382812 27.550781 C 138.382812 28.542969 139.035156 29.230469 140.039062 29.230469 L 141.460938 29.230469 L 141.460938 24.089844 L 140.902344 24.089844 L 140.902344 25.871094 L 140.085938 25.871094 C 138.992188 25.871094 138.382812 26.546875 138.382812 27.550781 Z M 138.921875 27.550781 C 138.921875 26.898438 139.339844 26.363281 140.085938 26.363281 L 140.902344 26.363281 L 140.902344 28.738281 L 140.085938 28.738281 C 139.351562 28.738281 138.921875 28.273438 138.921875 27.550781 Z M 138.921875 27.550781 "/>
<path fill-rule="nonzero" fill="rgb(0%, 0%, 0%)" fill-opacity="1" d="M 142.300781 27.550781 C 142.300781 28.542969 142.953125 29.230469 143.957031 29.230469 L 145.378906 29.230469 L 145.378906 24.089844 L 144.820312 24.089844 L 144.820312 25.871094 L 144.003906 25.871094 C 142.90625 25.871094 142.300781 26.546875 142.300781 27.550781 Z M 142.835938 27.550781 C 142.835938 26.898438 143.257812 26.363281 144.003906 26.363281 L 144.820312 26.363281 L 144.820312 28.738281 L 144.003906 28.738281 C 143.269531 28.738281 142.835938 28.273438 142.835938 27.550781 Z M 142.835938 27.550781 "/>
<path fill-rule="nonzero" fill="rgb(0%, 0%, 0%)" fill-opacity="1" d="M 149.285156 27.550781 L 149.285156 27.492188 C 149.285156 26.523438 148.886719 25.8125 147.78125 25.789062 C 146.789062 25.789062 146.230469 26.652344 146.230469 27.585938 C 146.230469 28.601562 146.847656 29.324219 147.875 29.324219 C 148.339844 29.324219 148.757812 29.21875 149.167969 29.066406 L 149.167969 28.507812 C 148.632812 28.761719 148.550781 28.820312 147.917969 28.820312 C 147.21875 28.820312 146.800781 28.402344 146.800781 27.609375 L 146.800781 27.550781 Z M 148.734375 27.097656 L 146.824219 27.097656 C 146.894531 26.652344 147.21875 26.269531 147.78125 26.269531 C 148.363281 26.269531 148.734375 26.628906 148.734375 27.097656 Z M 148.734375 27.097656 "/>
<path fill-rule="nonzero" fill="rgb(0%, 0%, 0%)" fill-opacity="1" d="M 152.980469 29.230469 L 152.980469 27.199219 C 152.980469 26.410156 152.644531 25.789062 151.78125 25.789062 C 151.351562 25.789062 150.90625 25.953125 150.640625 26.328125 L 150.640625 25.871094 L 150.089844 25.871094 L 150.089844 29.230469 L 150.640625 29.230469 L 150.640625 27.328125 C 150.664062 26.6875 151.058594 26.28125 151.652344 26.28125 C 152.234375 26.28125 152.445312 26.628906 152.445312 27.222656 L 152.445312 29.230469 Z M 152.980469 29.230469 "/>
<path fill-rule="nonzero" fill="rgb(0%, 0%, 0%)" fill-opacity="1" d="M 156.113281 24.089844 L 156.660156 24.089844 L 156.660156 29.230469 L 156.113281 29.230469 Z M 156.113281 24.089844 "/>
<path fill-rule="nonzero" fill="rgb(0%, 0%, 0%)" fill-opacity="1" d="M 160.253906 29.230469 L 160.253906 27.316406 C 160.253906 26.351562 159.847656 25.789062 158.84375 25.789062 C 158.484375 25.789062 158.039062 25.90625 157.714844 26.023438 L 157.714844 26.570312 C 158.050781 26.386719 158.332031 26.269531 158.796875 26.269531 C 159.335938 26.28125 159.742188 26.546875 159.742188 27.109375 L 158.972656 27.109375 C 158.179688 27.109375 157.480469 27.375 157.480469 28.25 C 157.503906 28.925781 157.902344 29.324219 158.578125 29.324219 C 159.054688 29.324219 159.488281 29.125 159.742188 28.785156 L 159.742188 29.230469 Z M 159.742188 27.667969 C 159.742188 28.320312 159.441406 28.84375 158.742188 28.84375 C 158.332031 28.84375 157.996094 28.65625 157.996094 28.214844 C 157.996094 27.5625 158.613281 27.5625 159.195312 27.5625 L 159.742188 27.5625 Z M 159.742188 27.667969 "/>
<path fill-rule="nonzero" fill="rgb(0%, 0%, 0%)" fill-opacity="1" d="M 163.976562 25.871094 L 163.460938 25.871094 L 162.425781 28.332031 L 161.210938 25.871094 L 160.6875 25.871094 L 162.144531 28.878906 L 161.574219 30.230469 C 161.480469 30.464844 161.164062 30.640625 161.015625 30.640625 L 161.199219 31.023438 C 161.480469 31 161.769531 30.804688 161.957031 30.511719 Z M 163.976562 25.871094 "/>
<path fill-rule="nonzero" fill="rgb(0%, 0%, 0%)" fill-opacity="1" d="M 167.351562 27.550781 L 167.351562 27.492188 C 167.351562 26.523438 166.957031 25.8125 165.847656 25.789062 C 164.859375 25.789062 164.296875 26.652344 164.296875 27.585938 C 164.296875 28.601562 164.914062 29.324219 165.941406 29.324219 C 166.40625 29.324219 166.828125 29.21875 167.234375 29.066406 L 167.234375 28.507812 C 166.699219 28.761719 166.617188 28.820312 165.988281 28.820312 C 165.289062 28.820312 164.871094 28.402344 164.871094 27.609375 L 164.871094 27.550781 Z M 166.804688 27.097656 L 164.894531 27.097656 C 164.960938 26.652344 165.289062 26.269531 165.847656 26.269531 C 166.429688 26.269531 166.804688 26.628906 166.804688 27.097656 Z M 166.804688 27.097656 "/>
<path fill-rule="nonzero" fill="rgb(0%, 0%, 0%)" fill-opacity="1" d="M 170.023438 26.546875 L 170.199219 26.011719 C 170.117188 25.917969 169.757812 25.824219 169.511719 25.824219 C 169.160156 25.835938 168.871094 26.011719 168.71875 26.328125 L 168.71875 25.871094 L 168.160156 25.871094 L 168.160156 29.230469 L 168.71875 29.230469 L 168.71875 27.457031 C 168.71875 27.445312 168.71875 27.433594 168.71875 27.433594 C 168.71875 26.945312 168.976562 26.304688 169.5 26.304688 L 169.535156 26.304688 C 169.710938 26.304688 169.851562 26.410156 170.023438 26.546875 Z M 170.023438 26.546875 "/>
<path fill-rule="nonzero" fill="rgb(0%, 0%, 0%)" fill-opacity="1" d="M 173.199219 28.296875 C 173.199219 27.632812 172.742188 27.421875 172.136719 27.304688 L 171.902344 27.257812 C 171.578125 27.1875 171.101562 27.121094 171.101562 26.757812 C 171.125 26.339844 171.613281 26.257812 171.984375 26.257812 C 172.582031 26.28125 172.535156 26.316406 173.035156 26.523438 L 173.035156 25.976562 C 172.71875 25.847656 172.324219 25.789062 171.914062 25.789062 C 171.25 25.789062 170.597656 26.035156 170.597656 26.78125 C 170.609375 27.386719 171.019531 27.621094 171.578125 27.726562 L 171.789062 27.773438 C 172.195312 27.867188 172.660156 27.914062 172.660156 28.34375 C 172.636719 28.761719 172.160156 28.84375 171.789062 28.84375 C 171.167969 28.832031 171.078125 28.761719 170.539062 28.507812 L 170.539062 29.113281 C 170.855469 29.195312 171.402344 29.324219 171.777344 29.324219 C 172.429688 29.324219 173.199219 29.078125 173.199219 28.296875 Z M 173.199219 28.296875 "/>
<path fill-rule="nonzero" fill="rgb(0%, 0%, 0%)" fill-opacity="1" d="M 130.25 36.285156 L 130.25 35.75 L 129.550781 35.75 L 129.550781 32.367188 L 128.804688 32.367188 L 126.8125 35.632812 L 126.8125 36.285156 L 128.992188 36.285156 L 128.992188 37.507812 L 129.550781 37.507812 L 129.550781 36.285156 Z M 128.992188 35.75 L 127.230469 35.75 L 128.992188 32.917969 Z M 128.992188 35.75 "/>
<path fill-rule="nonzero" fill="rgb(0%, 0%, 0%)" fill-opacity="1" d="M 136.0625 37.507812 L 136.0625 35.46875 C 136.0625 34.6875 135.710938 34.070312 134.859375 34.070312 C 134.40625 34.070312 133.972656 34.210938 133.71875 34.617188 L 133.71875 32.367188 L 133.167969 32.367188 L 133.167969 37.507812 L 133.71875 37.507812 L 133.71875 35.609375 C 133.742188 34.96875 134.171875 34.558594 134.730469 34.558594 C 135.328125 34.570312 135.523438 34.910156 135.523438 35.503906 L 135.523438 37.507812 Z M 136.0625 37.507812 "/>
<path fill-rule="nonzero" fill="rgb(0%, 0%, 0%)" fill-opacity="1" d="M 137.601562 37.507812 L 137.601562 34.152344 L 137.042969 34.152344 L 137.042969 37.507812 Z M 137.320312 32.367188 C 137.148438 32.367188 136.996094 32.53125 136.996094 32.707031 C 136.996094 32.894531 137.148438 33.054688 137.320312 33.054688 C 137.507812 33.054688 137.648438 32.894531 137.648438 32.707031 C 137.648438 32.53125 137.507812 32.367188 137.320312 32.367188 Z M 137.320312 32.367188 "/>
<path fill-rule="nonzero" fill="rgb(0%, 0%, 0%)" fill-opacity="1" d="M 138.4375 35.832031 C 138.4375 36.820312 139.089844 37.507812 140.09375 37.507812 L 141.515625 37.507812 L 141.515625 32.367188 L 140.957031 32.367188 L 140.957031 34.152344 L 140.140625 34.152344 C 139.042969 34.152344 138.4375 34.828125 138.4375 35.832031 Z M 138.976562 35.832031 C 138.976562 35.175781 139.394531 34.640625 140.140625 34.640625 L 140.957031 34.640625 L 140.957031 37.019531 L 140.140625 37.019531 C 139.40625 37.019531 138.976562 36.554688 138.976562 35.832031 Z M 138.976562 35.832031 "/>
<path fill-rule="nonzero" fill="rgb(0%, 0%, 0%)" fill-opacity="1" d="M 142.355469 35.832031 C 142.355469 36.820312 143.007812 37.507812 144.011719 37.507812 L 145.433594 37.507812 L 145.433594 32.367188 L 144.875 32.367188 L 144.875 34.152344 L 144.058594 34.152344 C 142.960938 34.152344 142.355469 34.828125 142.355469 35.832031 Z M 142.890625 35.832031 C 142.890625 35.175781 143.3125 34.640625 144.058594 34.640625 L 144.875 34.640625 L 144.875 37.019531 L 144.058594 37.019531 C 143.324219 37.019531 142.890625 36.554688 142.890625 35.832031 Z M 142.890625 35.832031 "/>
<path fill-rule="nonzero" fill="rgb(0%, 0%, 0%)" fill-opacity="1" d="M 149.339844 35.832031 L 149.339844 35.773438 C 149.339844 34.804688 148.941406 34.09375 147.835938 34.070312 C 146.84375 34.070312 146.285156 34.933594 146.285156 35.867188 C 146.285156 36.878906 146.902344 37.601562 147.929688 37.601562 C 148.394531 37.601562 148.8125 37.496094 149.222656 37.347656 L 149.222656 36.785156 C 148.6875 37.042969 148.605469 37.101562 147.972656 37.101562 C 147.273438 37.101562 146.855469 36.679688 146.855469 35.890625 L 146.855469 35.832031 Z M 148.789062 35.375 L 146.878906 35.375 C 146.949219 34.933594 147.273438 34.546875 147.835938 34.546875 C 148.417969 34.546875 148.789062 34.910156 148.789062 35.375 Z M 148.789062 35.375 "/>
<path fill-rule="nonzero" fill="rgb(0%, 0%, 0%)" fill-opacity="1" d="M 153.035156 37.507812 L 153.035156 35.480469 C 153.035156 34.6875 152.699219 34.070312 151.835938 34.070312 C 151.40625 34.070312 150.960938 34.234375 150.695312 34.605469 L 150.695312 34.152344 L 150.144531 34.152344 L 150.144531 37.507812 L 150.695312 37.507812 L 150.695312 35.609375 C 150.71875 34.96875 151.113281 34.558594 151.707031 34.558594 C 152.289062 34.558594 152.5 34.910156 152.5 35.503906 L 152.5 37.507812 Z M 153.035156 37.507812 "/>
<path fill-rule="nonzero" fill="rgb(0%, 0%, 0%)" fill-opacity="1" d="M 156.167969 32.367188 L 156.714844 32.367188 L 156.714844 37.507812 L 156.167969 37.507812 Z M 156.167969 32.367188 "/>
<path fill-rule="nonzero" fill="rgb(0%, 0%, 0%)" fill-opacity="1" d="M 160.308594 37.507812 L 160.308594 35.597656 C 160.308594 34.628906 159.902344 34.070312 158.898438 34.070312 C 158.539062 34.070312 158.09375 34.1875 157.769531 34.304688 L 157.769531 34.851562 C 158.105469 34.664062 158.386719 34.546875 158.851562 34.546875 C 159.390625 34.558594 159.796875 34.828125 159.796875 35.386719 L 159.027344 35.386719 C 158.234375 35.386719 157.535156 35.65625 157.535156 36.53125 C 157.558594 37.207031 157.957031 37.601562 158.632812 37.601562 C 159.109375 37.601562 159.542969 37.402344 159.796875 37.066406 L 159.796875 37.507812 Z M 159.796875 35.945312 C 159.796875 36.601562 159.496094 37.125 158.796875 37.125 C 158.386719 37.125 158.050781 36.9375 158.050781 36.496094 C 158.050781 35.84375 158.667969 35.84375 159.25 35.84375 L 159.796875 35.84375 Z M 159.796875 35.945312 "/>
<path fill-rule="nonzero" fill="rgb(0%, 0%, 0%)" fill-opacity="1" d="M 164.027344 34.152344 L 163.515625 34.152344 L 162.480469 36.613281 L 161.265625 34.152344 L 160.742188 34.152344 L 162.199219 37.160156 L 161.628906 38.511719 C 161.535156 38.746094 161.21875 38.917969 161.070312 38.917969 L 161.253906 39.304688 C 161.535156 39.28125 161.824219 39.082031 162.011719 38.792969 Z M 164.027344 34.152344 "/>
<path fill-rule="nonzero" fill="rgb(0%, 0%, 0%)" fill-opacity="1" d="M 167.40625 35.832031 L 167.40625 35.773438 C 167.40625 34.804688 167.011719 34.09375 165.902344 34.070312 C 164.914062 34.070312 164.351562 34.933594 164.351562 35.867188 C 164.351562 36.878906 164.96875 37.601562 165.996094 37.601562 C 166.460938 37.601562 166.882812 37.496094 167.289062 37.347656 L 167.289062 36.785156 C 166.753906 37.042969 166.671875 37.101562 166.042969 37.101562 C 165.34375 37.101562 164.925781 36.679688 164.925781 35.890625 L 164.925781 35.832031 Z M 166.859375 35.375 L 164.945312 35.375 C 165.015625 34.933594 165.34375 34.546875 165.902344 34.546875 C 166.484375 34.546875 166.859375 34.910156 166.859375 35.375 Z M 166.859375 35.375 "/>
<path fill-rule="nonzero" fill="rgb(0%, 0%, 0%)" fill-opacity="1" d="M 170.078125 34.828125 L 170.253906 34.292969 C 170.171875 34.199219 169.8125 34.105469 169.566406 34.105469 C 169.214844 34.117188 168.925781 34.292969 168.773438 34.605469 L 168.773438 34.152344 L 168.214844 34.152344 L 168.214844 37.507812 L 168.773438 37.507812 L 168.773438 35.738281 C 168.773438 35.726562 168.773438 35.714844 168.773438 35.714844 C 168.773438 35.222656 169.03125 34.582031 169.554688 34.582031 L 169.589844 34.582031 C 169.765625 34.582031 169.90625 34.6875 170.078125 34.828125 Z M 170.078125 34.828125 "/>
<path fill-rule="nonzero" fill="rgb(0%, 0%, 0%)" fill-opacity="1" d="M 173.253906 36.578125 C 173.253906 35.910156 172.796875 35.703125 172.191406 35.585938 L 171.957031 35.539062 C 171.632812 35.46875 171.15625 35.398438 171.15625 35.039062 C 171.179688 34.617188 171.667969 34.535156 172.039062 34.535156 C 172.636719 34.558594 172.589844 34.59375 173.089844 34.804688 L 173.089844 34.257812 C 172.773438 34.128906 172.378906 34.070312 171.96875 34.070312 C 171.304688 34.070312 170.652344 34.316406 170.652344 35.0625 C 170.664062 35.667969 171.074219 35.898438 171.632812 36.003906 L 171.84375 36.050781 C 172.25 36.144531 172.714844 36.191406 172.714844 36.625 C 172.691406 37.042969 172.214844 37.125 171.84375 37.125 C 171.222656 37.113281 171.132812 37.042969 170.59375 36.785156 L 170.59375 37.390625 C 170.910156 37.472656 171.457031 37.601562 171.832031 37.601562 C 172.484375 37.601562 173.253906 37.359375 173.253906 36.578125 Z M 173.253906 36.578125 "/>
<path fill-rule="nonzero" fill="rgb(50.195312%, 50.195312%, 50.195312%)" fill-opacity="1" d="M 172.53125 107.59375 C 172.519531 106.480469 171.824219 105.75 170.710938 105.75 C 170.5625 105.761719 170.226562 105.800781 170.03125 105.875 L 170.226562 104.4375 L 172.160156 104.4375 L 172.160156 103.867188 L 169.832031 103.867188 L 169.496094 106.566406 C 169.929688 106.355469 170.03125 106.308594 170.585938 106.308594 C 171.394531 106.308594 171.960938 106.753906 171.960938 107.59375 C 171.960938 108.460938 171.40625 108.882812 170.585938 108.882812 C 170.042969 108.882812 169.683594 108.773438 169.285156 108.523438 L 169.285156 109.207031 C 169.644531 109.339844 170.179688 109.441406 170.601562 109.441406 C 171.777344 109.441406 172.53125 108.796875 172.53125 107.59375 Z M 172.53125 107.59375 "/>
<path fill-rule="nonzero" fill="rgb(50.195312%, 50.195312%, 50.195312%)" fill-opacity="1" d="M 176.820312 106.617188 C 176.808594 105.453125 176.550781 103.769531 175.074219 103.769531 C 173.601562 103.769531 173.355469 105.476562 173.355469 106.617188 C 173.355469 107.769531 173.613281 109.441406 175.074219 109.441406 C 176.539062 109.441406 176.820312 107.769531 176.820312 106.617188 Z M 176.253906 106.617188 C 176.253906 107.371094 176.191406 108.921875 175.074219 108.921875 C 173.960938 108.921875 173.921875 107.347656 173.921875 106.617188 C 173.921875 105.875 173.949219 104.277344 175.074219 104.277344 C 176.191406 104.277344 176.253906 105.886719 176.253906 106.617188 Z M 176.253906 106.617188 "/>
<path fill-rule="nonzero" fill="rgb(50.195312%, 50.195312%, 50.195312%)" fill-opacity="1" d="M 181.230469 106.617188 C 181.214844 105.453125 180.957031 103.769531 179.480469 103.769531 C 178.007812 103.769531 177.761719 105.476562 177.761719 106.617188 C 177.761719 107.769531 178.019531 109.441406 179.480469 109.441406 C 180.945312 109.441406 181.230469 107.769531 181.230469 106.617188 Z M 180.660156 106.617188 C 180.660156 107.371094 180.597656 108.921875 179.480469 108.921875 C 178.367188 108.921875 178.332031 107.347656 178.332031 106.617188 C 178.332031 105.875 178.355469 104.277344 179.480469 104.277344 C 180.597656 104.277344 180.660156 105.886719 180.660156 106.617188 Z M 180.660156 106.617188 "/>
<path fill-rule="nonzero" fill="rgb(50.195312%, 50.195312%, 50.195312%)" fill-opacity="1" d="M 186.230469 109.328125 L 183.480469 106.394531 L 186.058594 103.867188 L 185.226562 103.867188 L 182.847656 106.207031 L 182.847656 103.867188 L 182.242188 103.867188 L 182.242188 109.328125 L 182.847656 109.328125 L 182.847656 106.652344 L 185.398438 109.328125 Z M 186.230469 109.328125 "/>
<path fill="none" stroke-width="1.638948" stroke-linecap="square" stroke-linejoin="round" stroke="rgb(81.959534%, 51.371765%, 38.430786%)" stroke-opacity="1" stroke-miterlimit="4" d="M 33.548857 14.667969 L 34.276355 18.992188 L 34.640104 19.988281 L 35.367602 22.632812 L 35.731351 23.792969 L 36.0951 24.453125 L 36.458849 25.257812 L 37.186348 27.242188 L 38.277595 29.558594 L 38.641344 30.03125 L 39.005093 30.738281 L 39.368842 31.710938 L 40.460089 33.695312 L 40.823838 34.027344 L 41.192251 34.664062 L 41.556 35.515625 L 41.919749 36.222656 L 42.283498 36.765625 L 42.647247 37.191406 L 43.374745 38.304688 L 43.738494 39.226562 L 44.102243 39.699219 L 46.284738 44.140625 L 46.648487 44.660156 L 47.012236 45.628906 L 47.375985 46.054688 L 48.103483 47.875 L 48.467232 48.796875 L 49.55848 50.6875 L 49.922229 51.46875 L 50.285978 52.554688 L 51.745637 56.195312 L 52.109386 56.808594 L 52.473136 57.636719 L 52.836885 58.296875 L 54.291881 61.511719 L 55.019379 63.285156 L 56.474375 66.476562 L 56.838124 67.089844 L 57.201873 68.011719 L 57.565623 68.792969 L 57.929372 69.714844 L 60.111866 74.109375 L 60.475615 74.652344 L 62.299024 77.914062 L 62.662773 78.433594 L 63.026522 79.167969 L 63.390271 80.277344 L 64.117769 81.53125 L 64.481518 82.359375 L 64.845267 82.996094 L 65.209017 83.46875 L 65.572766 84.367188 L 65.936515 84.886719 L 66.300264 85.761719 L 66.664013 86.070312 L 67.391511 87.179688 L 68.846507 89.378906 L 69.574005 90.324219 L 69.937755 90.914062 L 70.301504 91.269531 L 71.392751 92.875 L 72.120249 93.632812 L 72.852411 94.4375 L 73.579909 94.933594 L 75.034905 96.398438 L 75.762403 97.058594 L 76.126152 97.175781 L 76.489901 97.414062 L 77.217399 97.578125 L 78.672396 98.3125 L 79.399894 98.5 L 79.763643 98.667969 L 80.491141 98.761719 L 82.678299 99.066406 L 83.405797 99.234375 L 84.497044 99.28125 L 85.224542 99.351562 L 179.477524 99.398438 L 215.101615 99.398438 " transform="matrix(0.837631, 0, 0, 1, 0, 0)"/>
<path fill="none" stroke-width="1.536468" stroke-linecap="square" stroke-linejoin="round" stroke="rgb(77.645874%, 80.39093%, 81.175232%)" stroke-opacity="1" stroke-miterlimit="4" d="M 28.214844 15.168542 L 28.519531 17.35714 L 29.425781 22.000739 L 29.730469 23.398327 L 30.03125 24.013101 L 30.636719 25.857426 L 30.941406 26.300063 L 31.242188 27.431249 L 31.542969 28.337017 L 32.453125 29.984613 L 32.753906 30.328887 L 33.058594 30.845298 L 33.664062 32.492894 L 34.269531 33.374071 L 34.570312 34.210165 L 35.175781 35.120032 L 35.480469 35.710215 L 35.78125 36.005307 L 36.386719 37.456176 L 36.691406 37.993079 L 36.992188 38.730809 L 37.902344 40.452178 L 38.203125 41.140726 L 38.503906 41.681727 L 38.808594 42.390767 L 39.109375 42.808814 L 39.414062 43.325225 L 40.019531 44.825275 L 40.320312 45.218731 L 40.625 45.882688 L 40.925781 46.202371 L 41.230469 46.91551 L 41.53125 47.37864 L 42.441406 49.1246 L 42.742188 49.518056 L 43.046875 50.083649 L 43.652344 51.485335 L 44.257812 52.661604 L 44.558594 53.399334 L 45.464844 54.850202 L 45.769531 55.612523 L 46.375 56.620753 L 46.980469 58.067523 L 47.28125 58.559343 L 47.585938 59.2233 L 47.886719 59.370846 L 48.191406 59.936439 L 48.796875 60.846305 L 49.097656 61.362716 L 49.402344 61.997983 L 49.703125 62.342257 L 50.007812 62.932441 L 50.308594 63.325897 L 51.21875 65.366949 L 51.519531 65.981723 L 51.824219 66.469445 L 52.730469 68.436724 L 55.453125 73.744279 L 55.757812 74.137735 L 56.058594 74.900056 L 56.664062 76.002552 L 56.96875 76.494371 L 57.574219 77.797694 L 57.875 78.387878 L 58.179688 78.68297 L 58.480469 79.125607 L 58.78125 79.740382 L 59.085938 80.232202 L 59.386719 80.547786 L 59.691406 81.187152 L 59.992188 81.678972 L 60.597656 82.834748 L 61.203125 83.695433 L 61.507812 84.433163 L 61.808594 84.654482 L 63.324219 86.519298 L 64.230469 87.970167 L 64.535156 88.437395 L 65.140625 89.125943 L 66.046875 90.400576 L 66.347656 90.74485 L 67.257812 92.097354 L 67.558594 92.392446 L 68.46875 93.548223 L 68.769531 93.990861 L 69.074219 94.310543 L 69.375 94.896629 L 69.679688 95.339266 L 70.285156 96.027814 L 71.191406 96.740953 L 71.496094 96.937681 L 71.796875 97.257364 L 72.402344 98.019684 L 72.703125 98.339367 L 73.007812 98.511504 L 73.914062 99.273825 L 74.824219 100.179593 L 75.125 100.302548 L 75.730469 100.818959 L 76.640625 101.384551 L 79.0625 102.614101 L 79.363281 102.83542 L 80.269531 103.130512 L 81.179688 103.253467 L 82.085938 103.523967 L 82.390625 103.548558 L 82.691406 103.696104 L 85.113281 103.917423 L 85.71875 104.040378 L 87.835938 104.08956 L 88.746094 104.114151 L 179.84375 104.163333 " transform="matrix(1, 0, 0, 0.953093, 0, 0)"/>
<g clip-path="url(#clip-0)">
<path fill="none" stroke-width="1.679228" stroke-linecap="square" stroke-linejoin="round" stroke="rgb(68.234253%, 76.469421%, 81.175232%)" stroke-opacity="1" stroke-miterlimit="4" d="M 27.859375 18.025223 L 28.777344 23.449435 L 29.082031 24.492176 L 29.695312 27.385416 L 30 28.070785 L 30.304688 29.049885 L 30.613281 29.676509 L 30.917969 30.449997 L 31.222656 31.55638 L 32.753906 35.130093 L 33.976562 37.367336 L 34.28125 37.661066 L 34.894531 38.615688 L 35.199219 39.57031 L 35.507812 40.108815 L 35.8125 40.436813 L 36.421875 40.941049 L 36.730469 41.567673 L 37.339844 42.311789 L 37.648438 42.522295 L 39.175781 44.456017 L 39.484375 44.725269 L 39.789062 45.200133 L 40.09375 45.528131 L 40.707031 46.600245 L 41.011719 46.840124 L 42.234375 48.450743 L 42.542969 48.656354 L 42.847656 48.778742 L 43.152344 49.375992 L 43.457031 49.762737 L 44.070312 50.266973 L 46.210938 52.949706 L 46.824219 53.365823 L 47.433594 54.291072 L 47.742188 54.437937 L 48.351562 55.30444 L 48.660156 55.539424 L 48.964844 55.931064 L 49.269531 55.960437 L 49.882812 56.822045 L 51.410156 57.952905 L 51.71875 58.49141 L 52.023438 58.731289 L 52.328125 59.235525 L 52.632812 59.592897 L 52.941406 59.803403 L 53.550781 60.875517 L 54.164062 61.472768 L 55.695312 62.990372 L 56 63.528877 L 56.609375 64.121232 L 56.917969 64.512872 L 57.527344 65.462599 L 58.445312 66.417221 L 58.753906 66.862711 L 59.976562 68.115959 L 60.28125 68.654463 L 60.585938 68.948193 L 60.894531 69.339833 L 61.199219 69.60419 L 61.503906 69.961561 L 62.117188 70.44132 L 63.339844 71.900179 L 63.644531 72.198804 L 64.257812 72.913547 L 64.871094 73.329664 L 66.703125 74.700403 L 67.011719 74.822791 L 67.621094 75.508161 L 68.847656 76.550902 L 69.152344 77.113884 L 69.457031 77.32439 L 70.070312 78.068506 L 70.375 78.279012 L 70.988281 78.935009 L 71.292969 79.380499 L 71.597656 79.58611 L 71.90625 79.97775 L 72.210938 80.242107 L 72.515625 80.66312 L 73.128906 81.255475 L 73.433594 81.676488 L 73.738281 81.79398 L 74.046875 82.151351 L 74.351562 82.391231 L 75.269531 82.748602 L 75.574219 83.012959 L 76.492188 84.119341 L 76.796875 84.564832 L 77.105469 84.652951 L 77.714844 85.33832 L 78.023438 85.397066 L 78.632812 86.053063 L 80.46875 87.54619 L 81.082031 88.109172 L 81.386719 88.52529 L 81.691406 88.67705 L 82 89.063794 L 82.609375 89.509285 L 82.914062 89.661045 L 83.222656 89.719791 L 83.527344 89.896029 L 83.832031 90.346415 L 84.75 91.119904 L 85.363281 91.834646 L 85.667969 91.986407 L 86.28125 92.520016 L 86.890625 93.058521 L 87.199219 93.205386 L 87.808594 93.714517 L 89.03125 95.232122 L 89.339844 95.378987 L 90.257812 96.216117 L 90.5625 96.24549 L 91.175781 96.69098 L 92.089844 97.52811 L 92.398438 97.856109 L 92.703125 98.091093 L 93.621094 98.50721 L 93.925781 98.89885 L 94.539062 99.461832 L 94.84375 99.78983 L 95.148438 100.02971 L 95.761719 100.656334 L 96.375 101.043078 L 96.679688 101.429822 L 96.984375 101.576687 L 97.902344 102.232684 L 98.820312 102.741816 L 99.433594 102.947427 L 99.738281 103.12856 L 100.351562 103.603423 L 100.65625 103.662169 L 100.960938 103.843303 L 101.269531 104.230047 L 102.183594 104.827298 L 102.492188 104.974163 L 102.796875 105.032909 L 104.019531 105.958158 L 104.9375 106.344902 L 106.160156 107.328897 L 106.46875 107.387643 L 107.386719 108.131759 L 108.914062 108.939516 L 109.527344 109.414379 L 109.832031 109.414379 L 110.445312 109.683632 L 110.75 109.982257 L 112.585938 110.873238 L 113.503906 111.592876 L 114.421875 111.886606 L 115.03125 112.038366 L 115.335938 112.155858 L 115.644531 112.425111 L 116.253906 112.601349 L 117.171875 113.379733 L 117.480469 113.409106 L 117.785156 113.585344 L 119.3125 114.006356 L 119.925781 114.48122 L 120.230469 114.691726 L 120.539062 114.691726 L 121.761719 115.107844 L 122.371094 115.406469 L 123.902344 115.881332 L 124.207031 116.062466 L 125.125 116.29745 L 125.429688 116.326823 L 126.042969 116.654821 L 126.347656 116.747835 L 126.65625 116.982819 L 127.265625 117.163953 L 128.488281 117.521324 L 128.796875 117.697562 L 129.40625 117.819949 L 130.019531 117.996187 L 130.9375 118.652184 L 131.546875 118.833317 L 132.464844 119.127047 L 132.773438 119.127047 L 133.078125 119.308181 L 134.300781 119.724298 L 135.21875 120.111042 L 136.75 120.590801 L 137.054688 120.737666 L 138.890625 121.065665 L 139.5 121.124411 L 140.113281 121.183156 L 141.03125 121.276171 L 141.335938 121.452409 L 142.253906 121.604169 L 142.558594 121.721661 L 143.476562 121.868526 L 143.785156 122.020287 L 145.617188 122.348285 L 146.230469 122.377658 L 147.453125 122.553896 L 148.066406 122.617537 L 149.289062 122.823148 L 150.511719 122.881894 L 151.429688 123.033655 L 152.652344 123.209893 L 160.605469 123.924635 L 161.21875 123.988277 L 161.828125 124.076396 L 162.746094 124.105769 L 163.96875 124.282007 L 166.417969 124.345648 L 167.03125 124.433767 L 168.558594 124.492513 L 170.699219 124.644274 L 171.3125 124.644274 L 171.617188 124.732392 L 173.757812 124.791138 L 174.675781 124.820511 L 179.835938 124.879257 " transform="matrix(1, 0, 0, 0.797927, 0, 0)"/>
</g>
<path fill="none" stroke-width="0.850394" stroke-linecap="butt" stroke-linejoin="round" stroke="rgb(1.176453%, 0%, 0%)" stroke-opacity="1" stroke-miterlimit="4" d="M 27.410156 4.523438 L 180.539062 4.523438 L 180.539062 100.109375 L 27.410156 100.109375 Z M 27.410156 4.523438 "/>
<path fill-rule="nonzero" fill="rgb(0%, 0%, 0%)" fill-opacity="1" d="M 101.191406 111.941406 L 101.191406 111.132812 L 97.441406 111.132812 L 97.441406 108.210938 L 100.925781 108.210938 L 100.925781 107.402344 L 97.441406 107.402344 L 97.441406 104.992188 L 101.101562 104.992188 L 101.101562 104.183594 L 96.597656 104.183594 L 96.597656 111.941406 Z M 101.191406 111.941406 "/>
<path fill-rule="nonzero" fill="rgb(0%, 0%, 0%)" fill-opacity="1" d="M 106.886719 109.410156 C 106.886719 107.929688 105.902344 106.875 104.40625 106.875 L 102.242188 106.875 L 102.242188 114.652344 L 103.085938 114.652344 L 103.085938 111.941406 L 104.335938 111.941406 C 105.972656 111.941406 106.886719 110.921875 106.886719 109.410156 Z M 106.078125 109.410156 C 106.078125 110.410156 105.441406 111.203125 104.335938 111.203125 L 103.085938 111.203125 L 103.085938 107.613281 L 104.335938 107.613281 C 105.425781 107.613281 106.078125 108.335938 106.078125 109.410156 Z M 106.078125 109.410156 "/>
<path fill-rule="nonzero" fill="rgb(0%, 0%, 0%)" fill-opacity="1" d="M 112.679688 109.410156 C 112.679688 108.125 111.992188 106.75 110.304688 106.75 C 108.773438 106.75 107.910156 107.929688 107.910156 109.410156 C 107.910156 110.796875 108.808594 112.046875 110.304688 112.082031 C 111.816406 112.046875 112.679688 110.832031 112.679688 109.410156 Z M 111.851562 109.410156 C 111.851562 110.410156 111.238281 111.308594 110.304688 111.308594 C 109.039062 111.292969 108.757812 110.164062 108.757812 109.390625 C 108.757812 108.371094 109.25 107.527344 110.304688 107.507812 C 111.289062 107.527344 111.851562 108.441406 111.851562 109.410156 Z M 111.851562 109.410156 "/>
<path fill-rule="nonzero" fill="rgb(0%, 0%, 0%)" fill-opacity="1" d="M 117.886719 111.765625 L 117.886719 110.9375 C 117.339844 111.21875 117.113281 111.363281 116.410156 111.363281 C 115.175781 111.34375 114.578125 110.621094 114.578125 109.410156 C 114.578125 108.230469 115.195312 107.472656 116.410156 107.472656 C 117.078125 107.507812 117.324219 107.613281 117.886719 107.894531 L 117.886719 107.050781 C 117.429688 106.910156 116.9375 106.75 116.355469 106.75 C 114.703125 106.75 113.734375 107.808594 113.734375 109.410156 C 113.769531 110.992188 114.667969 112.082031 116.304688 112.082031 C 116.867188 112.082031 117.464844 111.925781 117.886719 111.765625 Z M 117.886719 111.765625 "/>
<path fill-rule="nonzero" fill="rgb(0%, 0%, 0%)" fill-opacity="1" d="M 123.433594 111.941406 L 123.433594 108.863281 C 123.433594 107.683594 122.90625 106.75 121.621094 106.75 C 120.933594 106.75 120.285156 106.960938 119.898438 107.578125 L 119.898438 104.183594 L 119.070312 104.183594 L 119.070312 111.941406 L 119.898438 111.941406 L 119.898438 109.074219 C 119.933594 108.105469 120.582031 107.492188 121.425781 107.492188 C 122.324219 107.507812 122.625 108.019531 122.625 108.914062 L 122.625 111.941406 Z M 123.433594 111.941406 "/>
<path fill-rule="nonzero" fill="rgb(0%, 0%, 0%)" fill-opacity="1" d="M 18.238281 74.382812 C 17.269531 74.382812 16.160156 74.859375 16.160156 75.964844 C 16.179688 77.058594 17.214844 77.566406 18.238281 77.566406 C 19.257812 77.566406 20.332031 77.09375 20.332031 75.964844 C 20.332031 74.839844 19.222656 74.382812 18.238281 74.382812 Z M 12.273438 75.914062 L 12.273438 76.546875 L 20.332031 81.070312 L 20.332031 80.4375 Z M 14.367188 79.433594 C 13.363281 79.433594 12.273438 79.90625 12.273438 81.015625 C 12.273438 82.125 13.363281 82.582031 14.367188 82.582031 C 15.421875 82.566406 16.441406 82.175781 16.441406 81.015625 C 16.441406 79.871094 15.402344 79.433594 14.367188 79.433594 Z M 18.238281 74.964844 C 18.957031 74.980469 19.75 75.226562 19.75 75.964844 C 19.75 76.757812 18.921875 76.988281 18.238281 76.988281 C 17.5 76.96875 16.707031 76.792969 16.707031 75.964844 C 16.707031 75.210938 17.550781 74.964844 18.238281 74.964844 Z M 14.367188 79.996094 C 15.105469 79.996094 15.914062 80.222656 15.914062 81.015625 C 15.878906 81.773438 15.070312 82.019531 14.367188 82.019531 C 13.644531 82.019531 12.835938 81.738281 12.835938 81.015625 C 12.835938 80.222656 13.59375 79.996094 14.367188 79.996094 Z M 14.367188 79.996094 "/>
<path fill-rule="nonzero" fill="rgb(0%, 0%, 0%)" fill-opacity="1" d="M 13.222656 64.546875 L 12.414062 64.546875 L 12.414062 70.597656 L 13.222656 70.597656 L 13.222656 67.992188 L 20.171875 67.992188 L 20.171875 67.148438 L 13.222656 67.148438 Z M 13.222656 64.546875 "/>
<path fill-rule="nonzero" fill="rgb(0%, 0%, 0%)" fill-opacity="1" d="M 16.125 62.144531 L 15.316406 61.878906 C 15.175781 62.003906 15.035156 62.546875 15.035156 62.917969 C 15.050781 63.445312 15.316406 63.886719 15.792969 64.113281 L 15.105469 64.113281 L 15.105469 64.960938 L 20.171875 64.960938 L 20.171875 64.113281 L 17.5 64.113281 C 17.480469 64.113281 17.464844 64.113281 17.464844 64.113281 C 16.722656 64.113281 15.757812 63.726562 15.757812 62.9375 L 15.757812 62.882812 C 15.757812 62.617188 15.914062 62.40625 16.125 62.144531 Z M 16.125 62.144531 "/>
<path fill-rule="nonzero" fill="rgb(0%, 0%, 0%)" fill-opacity="1" d="M 20.171875 57.210938 L 17.285156 57.210938 C 15.828125 57.210938 14.980469 57.828125 14.980469 59.339844 C 14.980469 59.886719 15.15625 60.554688 15.332031 61.046875 L 16.160156 61.046875 C 15.878906 60.535156 15.703125 60.113281 15.703125 59.410156 C 15.722656 58.601562 16.125 57.984375 16.96875 57.984375 L 16.96875 59.148438 C 16.96875 60.34375 17.375 61.398438 18.695312 61.398438 C 19.714844 61.363281 20.3125 60.765625 20.3125 59.746094 C 20.3125 59.023438 20.015625 58.371094 19.503906 57.984375 L 20.171875 57.984375 Z M 17.816406 57.984375 C 18.800781 57.984375 19.59375 58.441406 19.59375 59.5 C 19.59375 60.113281 19.3125 60.625 18.640625 60.625 C 17.65625 60.625 17.65625 59.691406 17.65625 58.8125 L 17.65625 57.984375 Z M 17.816406 57.984375 "/>
<path fill-rule="nonzero" fill="rgb(0%, 0%, 0%)" fill-opacity="1" d="M 20.171875 54.882812 L 15.105469 54.882812 L 15.105469 55.726562 L 20.171875 55.726562 Z M 12.414062 55.304688 C 12.414062 55.566406 12.660156 55.796875 12.921875 55.796875 C 13.203125 55.796875 13.449219 55.566406 13.449219 55.304688 C 13.449219 55.023438 13.203125 54.8125 12.921875 54.8125 C 12.660156 54.8125 12.414062 55.023438 12.414062 55.304688 Z M 12.414062 55.304688 "/>
<path fill-rule="nonzero" fill="rgb(0%, 0%, 0%)" fill-opacity="1" d="M 20.171875 48.972656 L 17.109375 48.972656 C 15.914062 48.972656 14.980469 49.480469 14.980469 50.785156 C 14.980469 51.433594 15.226562 52.105469 15.792969 52.507812 L 15.105469 52.507812 L 15.105469 53.335938 L 20.171875 53.335938 L 20.171875 52.507812 L 17.304688 52.507812 C 16.335938 52.472656 15.722656 51.875 15.722656 50.976562 C 15.722656 50.097656 16.25 49.78125 17.144531 49.78125 L 20.171875 49.78125 Z M 20.171875 48.972656 "/>
<path fill-rule="nonzero" fill="rgb(0%, 0%, 0%)" fill-opacity="1" d="M 17.640625 39.777344 L 17.550781 39.777344 C 16.089844 39.777344 15.015625 40.375 14.980469 42.046875 C 14.980469 43.542969 16.285156 44.390625 17.691406 44.390625 C 19.222656 44.390625 20.3125 43.457031 20.3125 41.90625 C 20.3125 41.203125 20.15625 40.570312 19.925781 39.953125 L 19.082031 39.953125 C 19.46875 40.765625 19.558594 40.886719 19.558594 41.835938 C 19.558594 42.894531 18.921875 43.527344 17.726562 43.527344 L 17.640625 43.527344 Z M 16.953125 40.605469 L 16.953125 43.492188 C 16.285156 43.386719 15.703125 42.894531 15.703125 42.046875 C 15.703125 41.167969 16.25 40.605469 16.953125 40.605469 Z M 16.953125 40.605469 "/>
<path fill-rule="nonzero" fill="rgb(0%, 0%, 0%)" fill-opacity="1" d="M 16.125 35.746094 L 15.316406 35.480469 C 15.175781 35.605469 15.035156 36.148438 15.035156 36.519531 C 15.050781 37.046875 15.316406 37.488281 15.792969 37.714844 L 15.105469 37.714844 L 15.105469 38.558594 L 20.171875 38.558594 L 20.171875 37.714844 L 17.5 37.714844 C 17.480469 37.714844 17.464844 37.714844 17.464844 37.714844 C 16.722656 37.714844 15.757812 37.328125 15.757812 36.535156 L 15.757812 36.484375 C 15.757812 36.21875 15.914062 36.007812 16.125 35.746094 Z M 16.125 35.746094 "/>
<path fill-rule="nonzero" fill="rgb(0%, 0%, 0%)" fill-opacity="1" d="M 16.125 31.816406 L 15.316406 31.554688 C 15.175781 31.675781 15.035156 32.222656 15.035156 32.59375 C 15.050781 33.121094 15.316406 33.558594 15.792969 33.789062 L 15.105469 33.789062 L 15.105469 34.632812 L 20.171875 34.632812 L 20.171875 33.789062 L 17.5 33.789062 C 17.480469 33.789062 17.464844 33.789062 17.464844 33.789062 C 16.722656 33.789062 15.757812 33.402344 15.757812 32.609375 L 15.757812 32.558594 C 15.757812 32.292969 15.914062 32.082031 16.125 31.816406 Z M 16.125 31.816406 "/>
<path fill-rule="nonzero" fill="rgb(0%, 0%, 0%)" fill-opacity="1" d="M 17.640625 26.449219 C 16.355469 26.449219 14.980469 27.136719 14.980469 28.824219 C 14.980469 30.355469 16.160156 31.21875 17.640625 31.21875 C 19.027344 31.21875 20.277344 30.320312 20.3125 28.824219 C 20.277344 27.3125 19.0625 26.449219 17.640625 26.449219 Z M 17.640625 27.277344 C 18.640625 27.277344 19.539062 27.890625 19.539062 28.824219 C 19.523438 30.089844 18.394531 30.371094 17.621094 30.371094 C 16.601562 30.371094 15.757812 29.878906 15.738281 28.824219 C 15.757812 27.839844 16.671875 27.277344 17.640625 27.277344 Z M 17.640625 27.277344 "/>
<path fill-rule="nonzero" fill="rgb(0%, 0%, 0%)" fill-opacity="1" d="M 16.125 22.316406 L 15.316406 22.050781 C 15.175781 22.175781 15.035156 22.71875 15.035156 23.089844 C 15.050781 23.617188 15.316406 24.058594 15.792969 24.285156 L 15.105469 24.285156 L 15.105469 25.128906 L 20.171875 25.128906 L 20.171875 24.285156 L 17.5 24.285156 C 17.480469 24.285156 17.464844 24.285156 17.464844 24.285156 C 16.722656 24.285156 15.757812 23.898438 15.757812 23.105469 L 15.757812 23.054688 C 15.757812 22.789062 15.914062 22.578125 16.125 22.316406 Z M 16.125 22.316406 "/>
</svg>
