<?xml version="1.0" encoding="UTF-8"?>
<svg xmlns="http://www.w3.org/2000/svg" xmlns:xlink="http://www.w3.org/1999/xlink" width="201.075531pt" height="138.354172pt" viewBox="0 0 201.075531 138.354172">
<defs>
<clipPath id="clip-0">
<path clip-rule="nonzero" d="M 79 11.507812 L 143 11.507812 L 143 115 L 79 115 Z M 79 11.507812 "/>
</clipPath>
<clipPath id="clip-1">
<path clip-rule="nonzero" d="M 82 11.507812 L 139 11.507812 L 139 112 L 82 112 Z M 82 11.507812 "/>
</clipPath>
<clipPath id="clip-2">
<path clip-rule="nonzero" d="M 84 11.507812 L 135 11.507812 L 135 109 L 84 109 Z M 84 11.507812 "/>
</clipPath>
<clipPath id="clip-3">
<path clip-rule="nonzero" d="M 87 11.507812 L 130 11.507812 L 130 102 L 87 102 Z M 87 11.507812 "/>
</clipPath>
<clipPath id="clip-4">
<path clip-rule="nonzero" d="M 90 11.507812 L 125 11.507812 L 125 90 L 90 90 Z M 90 11.507812 "/>
</clipPath>
<clipPath id="clip-5">
<path clip-rule="nonzero" d="M 94 11.507812 L 117 11.507812 L 117 73 L 94 73 Z M 94 11.507812 "/>
</clipPath>
<clipPath id="clip-6">
<path clip-rule="nonzero" d="M 94 11.507812 L 117 11.507812 L 117 74 L 94 74 Z M 94 11.507812 "/>
</clipPath>
<clipPath id="clip-7">
<path clip-rule="nonzero" d="M 98 11.507812 L 105 11.507812 L 105 32 L 98 32 Z M 98 11.507812 "/>
</clipPath>
<clipPath id="clip-8">
<path clip-rule="nonzero" d="M 97 11.507812 L 105 11.507812 L 105 33 L 97 33 Z M 97 11.507812 "/>
</clipPath>
<clipPath id="clip-9">
<path clip-rule="nonzero" d="M 98 11.507812 L 100 11.507812 L 100 118.570312 L 98 118.570312 Z M 98 11.507812 "/>
</clipPath>
<clipPath id="clip-10">
<path clip-rule="nonzero" d="M 154 11.507812 L 154.5625 11.507812 L 154.5625 118.570312 L 154 118.570312 Z M 154 11.507812 "/>
</clipPath>
<clipPath id="clip-11">
<path clip-rule="nonzero" d="M 43.933594 11.507812 L 154.5625 11.507812 L 154.5625 12 L 43.933594 12 Z M 43.933594 11.507812 "/>
</clipPath>
<clipPath id="clip-12">
<path clip-rule="nonzero" d="M 161.476562 11.507812 L 166.828125 11.507812 L 166.828125 118.570312 L 161.476562 118.570312 Z M 161.476562 11.507812 "/>
</clipPath>
<clipPath id="clip-13">
<path clip-rule="nonzero" d="M 89 127 L 95 127 L 95 138.355469 L 89 138.355469 Z M 89 127 "/>
</clipPath>
</defs>
<path fill="none" stroke-width="0.850471" stroke-linecap="butt" stroke-linejoin="miter" stroke="rgb(50.195312%, 50.195312%, 50.195312%)" stroke-opacity="1" stroke-miterlimit="4" d="M 43.496094 11.244223 L 41.65625 11.244223 " transform="matrix(1, 0, 0, 0.999819, 0, 0)"/>
<path fill="none" stroke-width="0.850471" stroke-linecap="butt" stroke-linejoin="miter" stroke="rgb(50.195312%, 50.195312%, 50.195312%)" stroke-opacity="1" stroke-miterlimit="4" d="M 43.410156 118.388616 L 41.570312 118.388616 " transform="matrix(1, 0, 0, 0.999819, 0, 0)"/>
<path fill="none" stroke-width="0.850471" stroke-linecap="butt" stroke-linejoin="miter" stroke="rgb(50.195312%, 50.195312%, 50.195312%)" stroke-opacity="1" stroke-miterlimit="4" d="M 43.496094 32.752022 L 42.242188 32.752022 " transform="matrix(1, 0, 0, 0.999819, 0, 0)"/>
<path fill="none" stroke-width="0.850471" stroke-linecap="butt" stroke-linejoin="miter" stroke="rgb(50.195312%, 50.195312%, 50.195312%)" stroke-opacity="1" stroke-miterlimit="4" d="M 43.496094 75.482412 L 42.242188 75.482412 " transform="matrix(1, 0, 0, 0.999819, 0, 0)"/>
<path fill="none" stroke-width="0.850471" stroke-linecap="butt" stroke-linejoin="miter" stroke="rgb(50.195312%, 50.195312%, 50.195312%)" stroke-opacity="1" stroke-miterlimit="4" d="M 43.496094 96.849561 L 42.242188 96.849561 " transform="matrix(1, 0, 0, 0.999819, 0, 0)"/>
<path fill-rule="nonzero" fill="rgb(100%, 91.371155%, 78.822327%)" fill-opacity="1" stroke-width="0.23459" stroke-linecap="butt" stroke-linejoin="round" stroke="rgb(99.606323%, 90.194702%, 78.038025%)" stroke-opacity="1" stroke-miterlimit="4" d="M 43.933594 -11.507812 L 154.5625 -11.507812 L 154.5625 -118.570312 L 43.933594 -118.570312 Z M 43.933594 -11.507812 " transform="matrix(1, 0, 0, -1, 0, 0)"/>
<g clip-path="url(#clip-0)">
<path fill-rule="nonzero" fill="rgb(94.900513%, 74.900818%, 63.136292%)" fill-opacity="1" stroke-width="0.23459" stroke-linecap="butt" stroke-linejoin="round" stroke="rgb(94.900513%, 74.900818%, 63.136292%)" stroke-opacity="1" stroke-miterlimit="4" d="M 88.183594 -109.929688 L 99.246094 -114.578125 L 110.308594 -109.917969 L 120.523438 -107.863281 L 121.375 -107.558594 L 126.671875 -97.15625 L 132.328125 -65.039062 L 132.4375 -64.617188 L 142.253906 -11.507812 L 138.355469 -11.507812 L 132.4375 -43.542969 L 126.851562 -65.039062 L 121.375 -89.371094 L 118.609375 -97.15625 L 110.308594 -103.132812 L 106.269531 -107.863281 L 99.246094 -111.683594 L 92.550781 -107.863281 L 88.84375 -97.15625 L 88.183594 -77.394531 L 87.636719 -65.039062 L 82.203125 -11.507812 L 79.554688 -11.507812 L 82.160156 -65.039062 L 82.585938 -97.15625 L 86.722656 -107.863281 Z M 88.183594 -109.929688 " transform="matrix(1, 0, 0, -1, 0, 0)"/>
</g>
<g clip-path="url(#clip-1)">
<path fill-rule="nonzero" fill="rgb(83.135986%, 56.469727%, 46.665955%)" fill-opacity="1" stroke-width="0.23459" stroke-linecap="butt" stroke-linejoin="round" stroke="rgb(83.135986%, 56.469727%, 46.665955%)" stroke-opacity="1" stroke-miterlimit="4" d="M 99.246094 -111.683594 L 106.269531 -107.863281 L 110.308594 -103.132812 L 118.609375 -97.15625 L 121.375 -89.371094 L 126.851562 -65.039062 L 132.4375 -43.542969 L 138.355469 -11.507812 L 134.460938 -11.507812 L 132.4375 -22.46875 L 121.375 -65.039062 L 110.308594 -96.507812 L 110.027344 -97.15625 L 100.949219 -107.863281 L 99.246094 -108.789062 L 97.625 -107.863281 L 92.972656 -97.15625 L 90.457031 -65.039062 L 88.183594 -42.734375 L 84.851562 -11.507812 L 82.203125 -11.507812 L 87.636719 -65.039062 L 88.183594 -77.394531 L 88.84375 -97.15625 L 92.550781 -107.863281 Z M 99.246094 -111.683594 " transform="matrix(1, 0, 0, -1, 0, 0)"/>
</g>
<g clip-path="url(#clip-2)">
<path fill-rule="nonzero" fill="rgb(70.979309%, 43.136597%, 34.901428%)" fill-opacity="1" stroke-width="0.23459" stroke-linecap="butt" stroke-linejoin="round" stroke="rgb(70.979309%, 43.136597%, 34.901428%)" stroke-opacity="1" stroke-miterlimit="4" d="M 99.246094 -108.789062 L 100.949219 -107.863281 L 110.027344 -97.15625 L 110.308594 -96.507812 L 121.375 -65.039062 L 132.4375 -22.46875 L 134.460938 -11.507812 L 129.859375 -11.507812 L 121.375 -44.292969 L 115.671875 -65.039062 L 110.308594 -80.289062 L 102.933594 -97.15625 L 99.246094 -101.796875 L 97.101562 -97.15625 L 92.984375 -65.039062 L 88.183594 -17.953125 L 87.496094 -11.507812 L 84.851562 -11.507812 L 88.183594 -42.734375 L 90.457031 -65.039062 L 92.972656 -97.15625 L 97.625 -107.863281 Z M 99.246094 -108.789062 " transform="matrix(1, 0, 0, -1, 0, 0)"/>
</g>
<g clip-path="url(#clip-3)">
<path fill-rule="nonzero" fill="rgb(50.195312%, 25.881958%, 20.783997%)" fill-opacity="1" stroke-width="0.23459" stroke-linecap="butt" stroke-linejoin="round" stroke="rgb(50.195312%, 25.881958%, 20.783997%)" stroke-opacity="1" stroke-miterlimit="4" d="M 99.246094 -101.796875 L 102.933594 -97.15625 L 110.308594 -80.289062 L 115.671875 -65.039062 L 121.375 -44.292969 L 129.859375 -11.507812 L 124.488281 -11.507812 L 121.375 -23.542969 L 110.308594 -63.082031 L 109.878906 -65.039062 L 99.246094 -89.292969 L 95.507812 -65.039062 L 90.859375 -11.507812 L 87.496094 -11.507812 L 88.183594 -17.953125 L 92.984375 -65.039062 L 97.101562 -97.15625 Z M 99.246094 -101.796875 " transform="matrix(1, 0, 0, -1, 0, 0)"/>
</g>
<g clip-path="url(#clip-4)">
<path fill-rule="nonzero" fill="rgb(36.862183%, 16.470337%, 13.33313%)" fill-opacity="1" stroke-width="0.23459" stroke-linecap="butt" stroke-linejoin="round" stroke="rgb(36.862183%, 16.470337%, 13.33313%)" stroke-opacity="1" stroke-miterlimit="4" d="M 99.246094 -89.292969 L 109.878906 -65.039062 L 110.308594 -63.082031 L 121.375 -23.542969 L 124.488281 -11.507812 L 116.726562 -11.507812 L 110.308594 -30.441406 L 102.695312 -65.039062 L 99.246094 -72.90625 L 98.035156 -65.039062 L 94.476562 -11.507812 L 90.859375 -11.507812 L 95.507812 -65.039062 Z M 99.246094 -89.292969 " transform="matrix(1, 0, 0, -1, 0, 0)"/>
</g>
<g clip-path="url(#clip-5)">
<path fill-rule="nonzero" fill="rgb(26.66626%, 10.195923%, 8.235168%)" fill-opacity="1" d="M 99.246094 72.90625 L 102.695312 65.039062 L 110.308594 30.441406 L 116.726562 11.507812 L 104.03125 11.507812 L 99.246094 31.902344 L 98.089844 11.507812 L 94.476562 11.507812 L 98.035156 65.039062 Z M 99.246094 72.90625 "/>
</g>
<g clip-path="url(#clip-6)">
<path fill="none" stroke-width="0.23459" stroke-linecap="butt" stroke-linejoin="round" stroke="rgb(26.66626%, 10.195923%, 8.235168%)" stroke-opacity="1" stroke-miterlimit="4" d="M 99.246094 -72.90625 L 102.695312 -65.039062 L 110.308594 -30.441406 L 116.726562 -11.507812 L 104.03125 -11.507812 L 99.246094 -31.902344 L 98.089844 -11.507812 L 94.476562 -11.507812 L 98.035156 -65.039062 Z M 99.246094 -72.90625 " transform="matrix(1, 0, 0, -1, 0, 0)"/>
</g>
<g clip-path="url(#clip-7)">
<path fill-rule="nonzero" fill="rgb(16.470337%, 3.529358%, 0.784302%)" fill-opacity="1" d="M 99.246094 31.902344 L 104.03125 11.507812 L 98.089844 11.507812 Z M 99.246094 31.902344 "/>
</g>
<g clip-path="url(#clip-8)">
<path fill="none" stroke-width="0.23459" stroke-linecap="butt" stroke-linejoin="round" stroke="rgb(16.470337%, 3.529358%, 0.784302%)" stroke-opacity="1" stroke-miterlimit="4" d="M 99.246094 -31.902344 L 104.03125 -11.507812 L 98.089844 -11.507812 Z M 99.246094 -31.902344 " transform="matrix(1, 0, 0, -1, 0, 0)"/>
</g>
<g clip-path="url(#clip-9)">
<path fill="none" stroke-width="0.566929" stroke-linecap="square" stroke-linejoin="round" stroke="rgb(62.35199%, 85.096741%, 82.351685%)" stroke-opacity="1" stroke-dasharray="0.566929 1.700787" stroke-miterlimit="4" d="M 99.246094 -118.570312 L 99.246094 -11.507812 " transform="matrix(1, 0, 0, -1, 0, 0)"/>
</g>
<path fill="none" stroke-width="0.23459" stroke-linecap="square" stroke-linejoin="miter" stroke="rgb(0%, 0%, 0%)" stroke-opacity="1" stroke-miterlimit="10" d="M 43.933594 -11.507812 L 154.5625 -11.507812 " transform="matrix(1, 0, 0, -1, 0, 0)"/>
<path fill="none" stroke-width="0.23459" stroke-linecap="square" stroke-linejoin="miter" stroke="rgb(0%, 0%, 0%)" stroke-opacity="1" stroke-miterlimit="10" d="M 154.5625 -118.570312 L 154.5625 -11.507812 " transform="matrix(1, 0, 0, -1, 0, 0)"/>
<path fill="none" stroke-width="0.23459" stroke-linecap="square" stroke-linejoin="miter" stroke="rgb(0%, 0%, 0%)" stroke-opacity="1" stroke-miterlimit="10" d="M 43.933594 -118.570312 L 43.933594 -11.507812 " transform="matrix(1, 0, 0, -1, 0, 0)"/>
<path fill="none" stroke-width="0.23459" stroke-linecap="square" stroke-linejoin="miter" stroke="rgb(0%, 0%, 0%)" stroke-opacity="1" stroke-miterlimit="10" d="M 43.933594 -118.570312 L 154.5625 -118.570312 " transform="matrix(1, 0, 0, -1, 0, 0)"/>
<g clip-path="url(#clip-10)">
<path fill="none" stroke-width="0.117295" stroke-linecap="butt" stroke-linejoin="round" stroke="rgb(0%, 0%, 0%)" stroke-opacity="1" stroke-dasharray="0.23459 0.70377" stroke-miterlimit="10" d="M 154.5625 -118.570312 L 154.5625 -11.507812 " transform="matrix(1, 0, 0, -1, 0, 0)"/>
</g>
<g clip-path="url(#clip-11)">
<path fill="none" stroke-width="0.117295" stroke-linecap="butt" stroke-linejoin="round" stroke="rgb(0%, 0%, 0%)" stroke-opacity="1" stroke-dasharray="0.23459 0.70377" stroke-miterlimit="10" d="M 43.933594 -11.507812 L 154.5625 -11.507812 " transform="matrix(1, 0, 0, -1, 0, 0)"/>
</g>
<g clip-path="url(#clip-12)">
<path fill-rule="nonzero" fill="rgb(100%, 100%, 100%)" fill-opacity="1" stroke-width="0.0023459" stroke-linecap="butt" stroke-linejoin="miter" stroke="rgb(100%, 100%, 100%)" stroke-opacity="1" stroke-miterlimit="10" d="M 161.476562 11.507812 L 166.828125 11.507812 L 166.828125 118.570312 L 161.476562 118.570312 Z M 161.476562 11.507812 "/>
</g>
<path fill-rule="nonzero" fill="rgb(100%, 91.371155%, 78.822327%)" fill-opacity="1" stroke-width="0.23459" stroke-linecap="butt" stroke-linejoin="round" stroke="rgb(100%, 91.371155%, 78.822327%)" stroke-opacity="1" stroke-miterlimit="4" d="M 161.476562 11.507812 L 166.828125 11.507812 L 166.828125 22.214844 L 161.476562 22.214844 Z M 161.476562 11.507812 "/>
<path fill-rule="nonzero" fill="rgb(100%, 91.371155%, 78.822327%)" fill-opacity="1" stroke-width="0.23459" stroke-linecap="butt" stroke-linejoin="round" stroke="rgb(100%, 91.371155%, 78.822327%)" stroke-opacity="1" stroke-miterlimit="4" d="M 161.476562 22.214844 L 166.828125 22.214844 L 166.828125 32.921875 L 161.476562 32.921875 Z M 161.476562 22.214844 "/>
<path fill-rule="nonzero" fill="rgb(94.900513%, 74.900818%, 63.136292%)" fill-opacity="1" stroke-width="0.23459" stroke-linecap="butt" stroke-linejoin="round" stroke="rgb(94.900513%, 74.900818%, 63.136292%)" stroke-opacity="1" stroke-miterlimit="4" d="M 161.476562 32.921875 L 166.828125 32.921875 L 166.828125 43.628906 L 161.476562 43.628906 Z M 161.476562 32.921875 "/>
<path fill-rule="nonzero" fill="rgb(83.135986%, 56.469727%, 46.665955%)" fill-opacity="1" stroke-width="0.23459" stroke-linecap="butt" stroke-linejoin="round" stroke="rgb(83.135986%, 56.469727%, 46.665955%)" stroke-opacity="1" stroke-miterlimit="4" d="M 161.476562 43.628906 L 166.828125 43.628906 L 166.828125 54.332031 L 161.476562 54.332031 Z M 161.476562 43.628906 "/>
<path fill-rule="nonzero" fill="rgb(70.979309%, 43.136597%, 34.901428%)" fill-opacity="1" stroke-width="0.23459" stroke-linecap="butt" stroke-linejoin="round" stroke="rgb(70.979309%, 43.136597%, 34.901428%)" stroke-opacity="1" stroke-miterlimit="4" d="M 161.476562 54.332031 L 166.828125 54.332031 L 166.828125 65.039062 L 161.476562 65.039062 Z M 161.476562 54.332031 "/>
<path fill-rule="nonzero" fill="rgb(50.195312%, 25.881958%, 20.783997%)" fill-opacity="1" stroke-width="0.23459" stroke-linecap="butt" stroke-linejoin="round" stroke="rgb(50.195312%, 25.881958%, 20.783997%)" stroke-opacity="1" stroke-miterlimit="4" d="M 161.476562 65.039062 L 166.828125 65.039062 L 166.828125 75.746094 L 161.476562 75.746094 Z M 161.476562 65.039062 "/>
<path fill-rule="nonzero" fill="rgb(36.862183%, 16.470337%, 13.33313%)" fill-opacity="1" stroke-width="0.23459" stroke-linecap="butt" stroke-linejoin="round" stroke="rgb(36.862183%, 16.470337%, 13.33313%)" stroke-opacity="1" stroke-miterlimit="4" d="M 161.476562 75.746094 L 166.828125 75.746094 L 166.828125 86.453125 L 161.476562 86.453125 Z M 161.476562 75.746094 "/>
<path fill-rule="nonzero" fill="rgb(26.66626%, 10.195923%, 8.235168%)" fill-opacity="1" stroke-width="0.23459" stroke-linecap="butt" stroke-linejoin="round" stroke="rgb(26.66626%, 10.195923%, 8.235168%)" stroke-opacity="1" stroke-miterlimit="4" d="M 161.476562 86.453125 L 166.828125 86.453125 L 166.828125 97.15625 L 161.476562 97.15625 Z M 161.476562 86.453125 "/>
<path fill-rule="nonzero" fill="rgb(16.470337%, 3.529358%, 0.784302%)" fill-opacity="1" stroke-width="0.23459" stroke-linecap="butt" stroke-linejoin="round" stroke="rgb(16.470337%, 3.529358%, 0.784302%)" stroke-opacity="1" stroke-miterlimit="4" d="M 161.476562 97.15625 L 166.828125 97.15625 L 166.828125 107.863281 L 161.476562 107.863281 Z M 161.476562 97.15625 "/>
<path fill-rule="nonzero" fill="rgb(0%, 0%, 0.784302%)" fill-opacity="1" stroke-width="0.23459" stroke-linecap="butt" stroke-linejoin="round" stroke="rgb(0%, 0%, 0.784302%)" stroke-opacity="1" stroke-miterlimit="4" d="M 161.476562 107.863281 L 166.828125 107.863281 L 166.828125 118.570312 L 161.476562 118.570312 Z M 161.476562 107.863281 "/>
<path fill="none" stroke-width="0.117295" stroke-linecap="butt" stroke-linejoin="round" stroke="rgb(0%, 0%, 0%)" stroke-opacity="1" stroke-miterlimit="10" d="M 166.828125 11.507812 L 165.589844 11.507812 "/>
<path fill="none" stroke-width="0.117295" stroke-linecap="butt" stroke-linejoin="round" stroke="rgb(0%, 0%, 0%)" stroke-opacity="1" stroke-miterlimit="10" d="M 166.828125 32.921875 L 165.589844 32.921875 "/>
<path fill="none" stroke-width="0.117295" stroke-linecap="butt" stroke-linejoin="round" stroke="rgb(0%, 0%, 0%)" stroke-opacity="1" stroke-miterlimit="10" d="M 166.828125 54.332031 L 165.589844 54.332031 "/>
<path fill="none" stroke-width="0.117295" stroke-linecap="butt" stroke-linejoin="round" stroke="rgb(0%, 0%, 0%)" stroke-opacity="1" stroke-miterlimit="10" d="M 166.828125 75.746094 L 165.589844 75.746094 "/>
<path fill="none" stroke-width="0.117295" stroke-linecap="butt" stroke-linejoin="round" stroke="rgb(0%, 0%, 0%)" stroke-opacity="1" stroke-miterlimit="10" d="M 166.828125 97.15625 L 165.589844 97.15625 "/>
<path fill="none" stroke-width="0.117295" stroke-linecap="butt" stroke-linejoin="round" stroke="rgb(0%, 0%, 0%)" stroke-opacity="1" stroke-miterlimit="10" d="M 166.828125 118.570312 L 165.589844 118.570312 "/>
<path fill="none" stroke-width="0.23459" stroke-linecap="butt" stroke-linejoin="miter" stroke="rgb(0%, 0%, 0%)" stroke-opacity="1" stroke-miterlimit="10" d="M 161.476562 11.507812 L 166.828125 11.507812 L 166.828125 118.570312 L 161.476562 118.570312 Z M 161.476562 11.507812 "/>
<path fill="none" stroke-width="0.850394" stroke-linecap="butt" stroke-linejoin="round" stroke="rgb(0%, 0%, 0%)" stroke-opacity="1" stroke-miterlimit="4" d="M 161.511719 11.242188 L 166.945312 11.242188 L 166.945312 118.367188 L 161.511719 118.367188 Z M 161.511719 11.242188 "/>
<path fill-rule="nonzero" fill="rgb(50.195312%, 50.195312%, 50.195312%)" fill-opacity="1" d="M 97.835938 124.085938 C 97.824219 122.921875 97.5625 121.238281 96.089844 121.238281 C 94.617188 121.238281 94.367188 122.949219 94.367188 124.085938 C 94.367188 125.238281 94.628906 126.910156 96.089844 126.910156 C 97.550781 126.910156 97.835938 125.238281 97.835938 124.085938 Z M 97.265625 124.085938 C 97.265625 124.84375 97.203125 126.390625 96.089844 126.390625 C 94.976562 126.390625 94.9375 124.816406 94.9375 124.085938 C 94.9375 123.34375 94.960938 121.746094 96.089844 121.746094 C 97.203125 121.746094 97.265625 123.355469 97.265625 124.085938 Z M 97.265625 124.085938 "/>
<path fill-rule="nonzero" fill="rgb(50.195312%, 50.195312%, 50.195312%)" fill-opacity="1" d="M 98.847656 125.996094 L 99.605469 125.996094 L 99.605469 126.800781 L 98.847656 126.800781 Z M 98.847656 125.996094 "/>
<path fill-rule="nonzero" fill="rgb(50.195312%, 50.195312%, 50.195312%)" fill-opacity="1" d="M 104.082031 124.085938 C 104.070312 122.921875 103.8125 121.238281 102.335938 121.238281 C 100.863281 121.238281 100.613281 122.949219 100.613281 124.085938 C 100.613281 125.238281 100.875 126.910156 102.335938 126.910156 C 103.796875 126.910156 104.082031 125.238281 104.082031 124.085938 Z M 103.511719 124.085938 C 103.511719 124.84375 103.453125 126.390625 102.335938 126.390625 C 101.222656 126.390625 101.183594 124.816406 101.183594 124.085938 C 101.183594 123.34375 101.210938 121.746094 102.335938 121.746094 C 103.453125 121.746094 103.511719 123.355469 103.511719 124.085938 Z M 103.511719 124.085938 "/>
<path fill-rule="nonzero" fill="rgb(50.195312%, 50.195312%, 50.195312%)" fill-opacity="1" d="M 40.105469 117.058594 C 40.09375 115.894531 39.832031 114.210938 38.359375 114.210938 C 36.882812 114.210938 36.636719 115.921875 36.636719 117.058594 C 36.636719 118.210938 36.898438 119.882812 38.359375 119.882812 C 39.820312 119.882812 40.105469 118.210938 40.105469 117.058594 Z M 39.535156 117.058594 C 39.535156 117.816406 39.472656 119.363281 38.359375 119.363281 C 37.242188 119.363281 37.207031 117.792969 37.207031 117.058594 C 37.207031 116.316406 37.230469 114.71875 38.359375 114.71875 C 39.472656 114.71875 39.535156 116.328125 39.535156 117.058594 Z M 39.535156 117.058594 "/>
<path fill-rule="nonzero" fill="rgb(50.195312%, 50.195312%, 50.195312%)" fill-opacity="1" d="M 31.40625 13.039062 C 31.394531 11.921875 30.703125 11.191406 29.585938 11.191406 C 29.4375 11.207031 29.105469 11.242188 28.90625 11.316406 L 29.105469 9.878906 L 31.035156 9.878906 L 31.035156 9.308594 L 28.707031 9.308594 L 28.375 12.011719 C 28.808594 11.800781 28.90625 11.75 29.464844 11.75 C 30.269531 11.75 30.839844 12.195312 30.839844 13.039062 C 30.839844 13.90625 30.28125 14.328125 29.464844 14.328125 C 28.917969 14.328125 28.558594 14.214844 28.164062 13.96875 L 28.164062 14.648438 C 28.523438 14.785156 29.054688 14.882812 29.476562 14.882812 C 30.652344 14.882812 31.40625 14.238281 31.40625 13.039062 Z M 31.40625 13.039062 "/>
<path fill-rule="nonzero" fill="rgb(50.195312%, 50.195312%, 50.195312%)" fill-opacity="1" d="M 35.699219 12.058594 C 35.683594 10.894531 35.425781 9.210938 33.949219 9.210938 C 32.476562 9.210938 32.230469 10.921875 32.230469 12.058594 C 32.230469 13.210938 32.488281 14.882812 33.949219 14.882812 C 35.414062 14.882812 35.699219 13.210938 35.699219 12.058594 Z M 35.128906 12.058594 C 35.128906 12.816406 35.066406 14.363281 33.949219 14.363281 C 32.835938 14.363281 32.800781 12.789062 32.800781 12.058594 C 32.800781 11.316406 32.824219 9.71875 33.949219 9.71875 C 35.066406 9.71875 35.128906 11.328125 35.128906 12.058594 Z M 35.128906 12.058594 "/>
<path fill-rule="nonzero" fill="rgb(50.195312%, 50.195312%, 50.195312%)" fill-opacity="1" d="M 40.105469 12.058594 C 40.09375 10.894531 39.832031 9.210938 38.359375 9.210938 C 36.882812 9.210938 36.636719 10.921875 36.636719 12.058594 C 36.636719 13.210938 36.894531 14.882812 38.359375 14.882812 C 39.820312 14.882812 40.105469 13.210938 40.105469 12.058594 Z M 39.535156 12.058594 C 39.535156 12.816406 39.472656 14.363281 38.359375 14.363281 C 37.242188 14.363281 37.207031 12.789062 37.207031 12.058594 C 37.207031 11.316406 37.230469 9.71875 38.359375 9.71875 C 39.472656 9.71875 39.535156 11.328125 39.535156 12.058594 Z M 39.535156 12.058594 "/>
<path fill="none" stroke-width="0.850394" stroke-linecap="butt" stroke-linejoin="miter" stroke="rgb(50.195312%, 50.195312%, 50.195312%)" stroke-opacity="1" stroke-miterlimit="4" d="M -118.550781 43.710938 L -120.433594 43.710938 " transform="matrix(0, -1, 1, 0, 0, 0)"/>
<path fill="none" stroke-width="0.850394" stroke-linecap="butt" stroke-linejoin="miter" stroke="rgb(50.195312%, 50.195312%, 50.195312%)" stroke-opacity="1" stroke-miterlimit="4" d="M -118.550781 154.945312 L -120.433594 154.945312 " transform="matrix(0, -1, 1, 0, 0, 0)"/>
<path fill="none" stroke-width="0.850471" stroke-linecap="butt" stroke-linejoin="miter" stroke="rgb(50.195312%, 50.195312%, 50.195312%)" stroke-opacity="1" stroke-miterlimit="4" d="M 43.496094 54.115264 L 42.242188 54.115264 " transform="matrix(1, 0, 0, 0.999819, 0, 0)"/>
<path fill="none" stroke-width="0.850394" stroke-linecap="butt" stroke-linejoin="miter" stroke="rgb(50.195312%, 50.195312%, 50.195312%)" stroke-opacity="1" stroke-miterlimit="4" d="M -118.550781 99.3125 L -120.433594 99.3125 " transform="matrix(0, -1, 1, 0, 0, 0)"/>
<path fill="none" stroke-width="0.850394" stroke-linecap="butt" stroke-linejoin="miter" stroke="rgb(50.195312%, 50.195312%, 50.195312%)" stroke-opacity="1" stroke-miterlimit="4" d="M -118.550781 71.570312 L -120.433594 71.570312 " transform="matrix(0, -1, 1, 0, 0, 0)"/>
<path fill="none" stroke-width="0.850394" stroke-linecap="butt" stroke-linejoin="miter" stroke="rgb(50.195312%, 50.195312%, 50.195312%)" stroke-opacity="1" stroke-miterlimit="4" d="M -118.550781 127.058594 L -120.433594 127.058594 " transform="matrix(0, -1, 1, 0, 0, 0)"/>
<path fill-rule="nonzero" fill="rgb(50.195312%, 50.195312%, 50.195312%)" fill-opacity="1" d="M 40.019531 124.085938 C 40.007812 122.921875 39.75 121.238281 38.273438 121.238281 C 36.800781 121.238281 36.554688 122.949219 36.554688 124.085938 C 36.554688 125.238281 36.8125 126.910156 38.273438 126.910156 C 39.734375 126.910156 40.019531 125.238281 40.019531 124.085938 Z M 39.449219 124.085938 C 39.449219 124.84375 39.390625 126.390625 38.273438 126.390625 C 37.160156 126.390625 37.121094 124.816406 37.121094 124.085938 C 37.121094 123.34375 37.148438 121.746094 38.273438 121.746094 C 39.390625 121.746094 39.449219 123.355469 39.449219 124.085938 Z M 39.449219 124.085938 "/>
<path fill-rule="nonzero" fill="rgb(50.195312%, 50.195312%, 50.195312%)" fill-opacity="1" d="M 41.035156 125.996094 L 41.789062 125.996094 L 41.789062 126.800781 L 41.035156 126.800781 Z M 41.035156 125.996094 "/>
<path fill-rule="nonzero" fill="rgb(50.195312%, 50.195312%, 50.195312%)" fill-opacity="1" d="M 46.269531 124.085938 C 46.253906 122.921875 45.996094 121.238281 44.519531 121.238281 C 43.046875 121.238281 42.800781 122.949219 42.800781 124.085938 C 42.800781 125.238281 43.058594 126.910156 44.519531 126.910156 C 45.984375 126.910156 46.269531 125.238281 46.269531 124.085938 Z M 45.699219 124.085938 C 45.699219 124.84375 45.636719 126.390625 44.519531 126.390625 C 43.40625 126.390625 43.371094 124.816406 43.371094 124.085938 C 43.371094 123.34375 43.394531 121.746094 44.519531 121.746094 C 45.636719 121.746094 45.699219 123.355469 45.699219 124.085938 Z M 45.699219 124.085938 "/>
<path fill-rule="nonzero" fill="rgb(50.195312%, 50.195312%, 50.195312%)" fill-opacity="1" d="M 48.40625 126.800781 L 48.40625 121.335938 L 47.75 121.335938 L 46.972656 121.96875 L 46.972656 122.589844 L 47.789062 121.917969 L 47.789062 126.800781 Z M 48.40625 126.800781 "/>
<path fill-rule="nonzero" fill="rgb(50.195312%, 50.195312%, 50.195312%)" fill-opacity="1" d="M 150.621094 126.800781 L 150.621094 121.335938 L 149.964844 121.335938 L 149.183594 121.96875 L 149.183594 122.589844 L 150 121.917969 L 150 126.800781 Z M 150.621094 126.800781 "/>
<path fill-rule="nonzero" fill="rgb(50.195312%, 50.195312%, 50.195312%)" fill-opacity="1" d="M 155.199219 124.085938 C 155.1875 122.921875 154.929688 121.238281 153.453125 121.238281 C 151.980469 121.238281 151.734375 122.949219 151.734375 124.085938 C 151.734375 125.238281 151.992188 126.910156 153.453125 126.910156 C 154.917969 126.910156 155.199219 125.238281 155.199219 124.085938 Z M 154.632812 124.085938 C 154.632812 124.84375 154.570312 126.390625 153.453125 126.390625 C 152.339844 126.390625 152.300781 124.816406 152.300781 124.085938 C 152.300781 123.34375 152.328125 121.746094 153.453125 121.746094 C 154.570312 121.746094 154.632812 123.355469 154.632812 124.085938 Z M 154.632812 124.085938 "/>
<path fill-rule="nonzero" fill="rgb(50.195312%, 50.195312%, 50.195312%)" fill-opacity="1" d="M 159.609375 124.085938 C 159.59375 122.921875 159.335938 121.238281 157.863281 121.238281 C 156.386719 121.238281 156.140625 122.949219 156.140625 124.085938 C 156.140625 125.238281 156.398438 126.910156 157.863281 126.910156 C 159.324219 126.910156 159.609375 125.238281 159.609375 124.085938 Z M 159.039062 124.085938 C 159.039062 124.84375 158.976562 126.390625 157.863281 126.390625 C 156.746094 126.390625 156.710938 124.816406 156.710938 124.085938 C 156.710938 123.34375 156.734375 121.746094 157.863281 121.746094 C 158.976562 121.746094 159.039062 123.355469 159.039062 124.085938 Z M 159.039062 124.085938 "/>
<path fill-rule="nonzero" fill="rgb(50.195312%, 50.195312%, 50.195312%)" fill-opacity="1" d="M 71.523438 124.085938 C 71.511719 122.921875 71.253906 121.238281 69.777344 121.238281 C 68.304688 121.238281 68.058594 122.949219 68.058594 124.085938 C 68.058594 125.238281 68.316406 126.910156 69.777344 126.910156 C 71.242188 126.910156 71.523438 125.238281 71.523438 124.085938 Z M 70.957031 124.085938 C 70.957031 124.84375 70.894531 126.390625 69.777344 126.390625 C 68.664062 126.390625 68.625 124.816406 68.625 124.085938 C 68.625 123.34375 68.652344 121.746094 69.777344 121.746094 C 70.894531 121.746094 70.957031 123.355469 70.957031 124.085938 Z M 70.957031 124.085938 "/>
<path fill-rule="nonzero" fill="rgb(50.195312%, 50.195312%, 50.195312%)" fill-opacity="1" d="M 72.539062 125.996094 L 73.292969 125.996094 L 73.292969 126.800781 L 72.539062 126.800781 Z M 72.539062 125.996094 "/>
<path fill-rule="nonzero" fill="rgb(50.195312%, 50.195312%, 50.195312%)" fill-opacity="1" d="M 75.503906 126.800781 L 75.503906 121.335938 L 74.847656 121.335938 L 74.070312 121.96875 L 74.070312 122.589844 L 74.886719 121.917969 L 74.886719 126.800781 Z M 75.503906 126.800781 "/>
<path fill-rule="nonzero" fill="rgb(50.195312%, 50.195312%, 50.195312%)" fill-opacity="1" d="M 122.769531 126.800781 L 122.769531 121.335938 L 122.113281 121.335938 L 121.332031 121.96875 L 121.332031 122.589844 L 122.152344 121.917969 L 122.152344 126.800781 Z M 122.769531 126.800781 "/>
<path fill-rule="nonzero" fill="rgb(50.195312%, 50.195312%, 50.195312%)" fill-opacity="1" d="M 127.351562 124.085938 C 127.339844 122.921875 127.078125 121.238281 125.605469 121.238281 C 124.132812 121.238281 123.882812 122.949219 123.882812 124.085938 C 123.882812 125.238281 124.144531 126.910156 125.605469 126.910156 C 127.066406 126.910156 127.351562 125.238281 127.351562 124.085938 Z M 126.78125 124.085938 C 126.78125 124.84375 126.71875 126.390625 125.605469 126.390625 C 124.488281 126.390625 124.453125 124.816406 124.453125 124.085938 C 124.453125 123.34375 124.476562 121.746094 125.605469 121.746094 C 126.71875 121.746094 126.78125 123.355469 126.78125 124.085938 Z M 126.78125 124.085938 "/>
<path fill-rule="nonzero" fill="rgb(50.195312%, 50.195312%, 50.195312%)" fill-opacity="1" d="M 128.363281 125.996094 L 129.121094 125.996094 L 129.121094 126.800781 L 128.363281 126.800781 Z M 128.363281 125.996094 "/>
<path fill-rule="nonzero" fill="rgb(50.195312%, 50.195312%, 50.195312%)" fill-opacity="1" d="M 133.597656 124.085938 C 133.585938 122.921875 133.324219 121.238281 131.851562 121.238281 C 130.378906 121.238281 130.128906 122.949219 130.128906 124.085938 C 130.128906 125.238281 130.390625 126.910156 131.851562 126.910156 C 133.3125 126.910156 133.597656 125.238281 133.597656 124.085938 Z M 133.027344 124.085938 C 133.027344 124.84375 132.964844 126.390625 131.851562 126.390625 C 130.738281 126.390625 130.699219 124.816406 130.699219 124.085938 C 130.699219 123.34375 130.726562 121.746094 131.851562 121.746094 C 132.964844 121.746094 133.027344 123.355469 133.027344 124.085938 Z M 133.027344 124.085938 "/>
<path fill="none" stroke-width="0.850394" stroke-linecap="butt" stroke-linejoin="round" stroke="rgb(0%, 0%, 0%)" stroke-opacity="1" stroke-miterlimit="4" d="M 43.710938 11.242188 L 154.945312 11.242188 L 154.945312 118.367188 L 43.710938 118.367188 Z M 43.710938 11.242188 "/>
<path fill-rule="nonzero" fill="rgb(50.195312%, 50.195312%, 50.195312%)" fill-opacity="1" d="M 170.949219 118.449219 C 170.941406 117.710938 170.777344 116.648438 169.847656 116.648438 C 168.914062 116.648438 168.757812 117.726562 168.757812 118.449219 C 168.757812 119.175781 168.921875 120.230469 169.847656 120.230469 C 170.769531 120.230469 170.949219 119.175781 170.949219 118.449219 Z M 170.589844 118.449219 C 170.589844 118.925781 170.550781 119.902344 169.847656 119.902344 C 169.144531 119.902344 169.117188 118.910156 169.117188 118.449219 C 169.117188 117.976562 169.132812 116.96875 169.847656 116.96875 C 170.550781 116.96875 170.589844 117.984375 170.589844 118.449219 Z M 170.589844 118.449219 "/>
<path fill-rule="nonzero" fill="rgb(50.195312%, 50.195312%, 50.195312%)" fill-opacity="1" d="M 171.589844 119.652344 L 172.066406 119.652344 L 172.066406 120.160156 L 171.589844 120.160156 Z M 171.589844 119.652344 "/>
<path fill-rule="nonzero" fill="rgb(50.195312%, 50.195312%, 50.195312%)" fill-opacity="1" d="M 174.894531 118.449219 C 174.886719 117.710938 174.722656 116.648438 173.792969 116.648438 C 172.859375 116.648438 172.703125 117.726562 172.703125 118.449219 C 172.703125 119.175781 172.867188 120.230469 173.792969 120.230469 C 174.714844 120.230469 174.894531 119.175781 174.894531 118.449219 Z M 174.535156 118.449219 C 174.535156 118.925781 174.496094 119.902344 173.792969 119.902344 C 173.085938 119.902344 173.0625 118.910156 173.0625 118.449219 C 173.0625 117.976562 173.078125 116.96875 173.792969 116.96875 C 174.496094 116.96875 174.535156 117.984375 174.535156 118.449219 Z M 174.535156 118.449219 "/>
<path fill-rule="nonzero" fill="rgb(50.195312%, 50.195312%, 50.195312%)" fill-opacity="1" d="M 169.667969 13.515625 L 169.667969 10.0625 L 169.253906 10.0625 L 168.757812 10.464844 L 168.757812 10.855469 L 169.277344 10.433594 L 169.277344 13.515625 Z M 169.667969 13.515625 "/>
<path fill-rule="nonzero" fill="rgb(50.195312%, 50.195312%, 50.195312%)" fill-opacity="1" d="M 170.417969 13.003906 L 170.894531 13.003906 L 170.894531 13.515625 L 170.417969 13.515625 Z M 170.417969 13.003906 "/>
<path fill-rule="nonzero" fill="rgb(50.195312%, 50.195312%, 50.195312%)" fill-opacity="1" d="M 173.722656 11.800781 C 173.714844 11.066406 173.550781 10 172.617188 10 C 171.6875 10 171.53125 11.082031 171.53125 11.800781 C 171.53125 12.527344 171.695312 13.585938 172.617188 13.585938 C 173.542969 13.585938 173.722656 12.527344 173.722656 11.800781 Z M 173.363281 11.800781 C 173.363281 12.277344 173.324219 13.253906 172.617188 13.253906 C 171.914062 13.253906 171.890625 12.261719 171.890625 11.800781 C 171.890625 11.332031 171.90625 10.324219 172.617188 10.324219 C 173.324219 10.324219 173.363281 11.339844 173.363281 11.800781 Z M 173.363281 11.800781 "/>
<path fill-rule="nonzero" fill="rgb(50.195312%, 50.195312%, 50.195312%)" fill-opacity="1" d="M 170.949219 33.128906 C 170.941406 32.394531 170.777344 31.332031 169.847656 31.332031 C 168.914062 31.332031 168.757812 32.410156 168.757812 33.128906 C 168.757812 33.859375 168.921875 34.914062 169.847656 34.914062 C 170.769531 34.914062 170.949219 33.859375 170.949219 33.128906 Z M 170.589844 33.128906 C 170.589844 33.605469 170.550781 34.585938 169.847656 34.585938 C 169.144531 34.585938 169.117188 33.589844 169.117188 33.128906 C 169.117188 32.660156 169.132812 31.652344 169.847656 31.652344 C 170.550781 31.652344 170.589844 32.667969 170.589844 33.128906 Z M 170.589844 33.128906 "/>
<path fill-rule="nonzero" fill="rgb(50.195312%, 50.195312%, 50.195312%)" fill-opacity="1" d="M 171.589844 34.335938 L 172.066406 34.335938 L 172.066406 34.84375 L 171.589844 34.84375 Z M 171.589844 34.335938 "/>
<path fill-rule="nonzero" fill="rgb(50.195312%, 50.195312%, 50.195312%)" fill-opacity="1" d="M 174.839844 33.882812 C 174.832031 33.472656 174.644531 33.152344 174.222656 33.003906 C 174.535156 32.863281 174.777344 32.644531 174.777344 32.261719 C 174.769531 31.660156 174.316406 31.332031 173.769531 31.332031 C 173.210938 31.332031 172.75 31.660156 172.75 32.261719 C 172.75 32.667969 172.960938 32.863281 173.363281 33.003906 C 172.914062 33.144531 172.671875 33.464844 172.671875 33.882812 C 172.671875 34.578125 173.09375 34.914062 173.769531 34.914062 C 174.433594 34.914062 174.839844 34.578125 174.839844 33.882812 Z M 174.417969 32.261719 C 174.417969 32.613281 174.121094 32.847656 173.769531 32.847656 L 173.753906 32.847656 C 173.410156 32.847656 173.109375 32.582031 173.101562 32.261719 C 173.132812 31.808594 173.378906 31.652344 173.769531 31.652344 C 174.105469 31.652344 174.402344 31.800781 174.417969 32.261719 Z M 174.496094 33.882812 C 174.496094 34.34375 174.199219 34.585938 173.769531 34.585938 C 173.316406 34.585938 173.03125 34.351562 173.03125 33.882812 C 173.03125 33.417969 173.324219 33.183594 173.769531 33.183594 C 174.207031 33.183594 174.496094 33.433594 174.496094 33.882812 Z M 174.496094 33.882812 "/>
<path fill-rule="nonzero" fill="rgb(50.195312%, 50.195312%, 50.195312%)" fill-opacity="1" d="M 170.949219 54.460938 C 170.941406 53.722656 170.777344 52.660156 169.847656 52.660156 C 168.914062 52.660156 168.757812 53.738281 168.757812 54.460938 C 168.757812 55.1875 168.921875 56.242188 169.847656 56.242188 C 170.769531 56.242188 170.949219 55.1875 170.949219 54.460938 Z M 170.589844 54.460938 C 170.589844 54.9375 170.550781 55.914062 169.847656 55.914062 C 169.144531 55.914062 169.117188 54.921875 169.117188 54.460938 C 169.117188 53.988281 169.132812 52.980469 169.847656 52.980469 C 170.550781 52.980469 170.589844 53.996094 170.589844 54.460938 Z M 170.589844 54.460938 "/>
<path fill-rule="nonzero" fill="rgb(50.195312%, 50.195312%, 50.195312%)" fill-opacity="1" d="M 171.589844 55.664062 L 172.066406 55.664062 L 172.066406 56.171875 L 171.589844 56.171875 Z M 171.589844 55.664062 "/>
<path fill-rule="nonzero" fill="rgb(50.195312%, 50.195312%, 50.195312%)" fill-opacity="1" d="M 172.679688 54.632812 L 172.679688 54.6875 C 172.679688 55.710938 172.960938 56.242188 173.824219 56.242188 C 174.410156 56.234375 174.871094 55.796875 174.871094 55.140625 C 174.871094 54.484375 174.535156 53.972656 173.847656 53.972656 C 173.527344 53.988281 173.300781 54.046875 173.0625 54.320312 C 173.070312 53.347656 173.753906 52.980469 174.433594 52.980469 L 174.457031 52.980469 L 174.464844 52.660156 C 173.621094 52.667969 172.679688 53.113281 172.679688 54.632812 Z M 173.070312 55.140625 C 173.085938 54.664062 173.339844 54.304688 173.824219 54.304688 C 174.292969 54.304688 174.511719 54.679688 174.511719 55.140625 C 174.511719 55.601562 174.292969 55.914062 173.824219 55.914062 C 173.355469 55.914062 173.070312 55.617188 173.070312 55.140625 Z M 173.070312 55.140625 "/>
<path fill-rule="nonzero" fill="rgb(50.195312%, 50.195312%, 50.195312%)" fill-opacity="1" d="M 170.949219 75.789062 C 170.941406 75.054688 170.777344 73.988281 169.847656 73.988281 C 168.914062 73.988281 168.757812 75.070312 168.757812 75.789062 C 168.757812 76.515625 168.921875 77.574219 169.847656 77.574219 C 170.769531 77.574219 170.949219 76.515625 170.949219 75.789062 Z M 170.589844 75.789062 C 170.589844 76.265625 170.550781 77.242188 169.847656 77.242188 C 169.144531 77.242188 169.117188 76.25 169.117188 75.789062 C 169.117188 75.320312 169.132812 74.308594 169.847656 74.308594 C 170.550781 74.308594 170.589844 75.328125 170.589844 75.789062 Z M 170.589844 75.789062 "/>
<path fill-rule="nonzero" fill="rgb(50.195312%, 50.195312%, 50.195312%)" fill-opacity="1" d="M 171.589844 76.992188 L 172.066406 76.992188 L 172.066406 77.503906 L 171.589844 77.503906 Z M 171.589844 76.992188 "/>
<path fill-rule="nonzero" fill="rgb(50.195312%, 50.195312%, 50.195312%)" fill-opacity="1" d="M 174.847656 76.679688 L 174.847656 76.320312 L 174.378906 76.320312 L 174.378906 74.050781 L 173.878906 74.050781 L 172.539062 76.242188 L 172.539062 76.679688 L 174.003906 76.679688 L 174.003906 77.503906 L 174.378906 77.503906 L 174.378906 76.679688 Z M 174.003906 76.320312 L 172.820312 76.320312 L 174.003906 74.421875 Z M 174.003906 76.320312 "/>
<path fill-rule="nonzero" fill="rgb(50.195312%, 50.195312%, 50.195312%)" fill-opacity="1" d="M 170.949219 97.117188 C 170.941406 96.382812 170.777344 95.320312 169.847656 95.320312 C 168.914062 95.320312 168.757812 96.398438 168.757812 97.117188 C 168.757812 97.847656 168.921875 98.902344 169.847656 98.902344 C 170.769531 98.902344 170.949219 97.847656 170.949219 97.117188 Z M 170.589844 97.117188 C 170.589844 97.59375 170.550781 98.574219 169.847656 98.574219 C 169.144531 98.574219 169.117188 97.578125 169.117188 97.117188 C 169.117188 96.648438 169.132812 95.640625 169.847656 95.640625 C 170.550781 95.640625 170.589844 96.65625 170.589844 97.117188 Z M 170.589844 97.117188 "/>
<path fill-rule="nonzero" fill="rgb(50.195312%, 50.195312%, 50.195312%)" fill-opacity="1" d="M 171.589844 98.324219 L 172.066406 98.324219 L 172.066406 98.832031 L 171.589844 98.832031 Z M 171.589844 98.324219 "/>
<path fill-rule="nonzero" fill="rgb(50.195312%, 50.195312%, 50.195312%)" fill-opacity="1" d="M 174.605469 98.832031 L 174.605469 98.472656 L 173.054688 98.472656 L 174.238281 97.140625 C 174.433594 96.867188 174.582031 96.65625 174.582031 96.296875 C 174.582031 95.65625 174.113281 95.320312 173.519531 95.320312 C 173.179688 95.320312 172.898438 95.421875 172.617188 95.539062 L 172.617188 95.984375 C 172.898438 95.804688 173.179688 95.671875 173.527344 95.671875 C 173.917969 95.671875 174.222656 95.914062 174.222656 96.320312 C 174.222656 96.59375 174.003906 96.929688 173.824219 97.117188 C 173.769531 97.195312 172.679688 98.386719 172.59375 98.472656 L 172.59375 98.832031 Z M 174.605469 98.832031 "/>
<path fill-rule="nonzero" fill="rgb(0%, 0%, 0%)" fill-opacity="1" d="M 34.199219 91.824219 C 32.808594 91.824219 32.195312 92.667969 31.914062 93.917969 L 31.808594 94.550781 C 31.632812 95.359375 31.421875 96.03125 30.523438 96.03125 C 29.503906 96.011719 29.167969 95.183594 29.167969 94.234375 C 29.167969 93.371094 29.378906 92.96875 29.730469 92.246094 L 28.816406 92.246094 C 28.570312 92.808594 28.410156 93.6875 28.410156 94.339844 C 28.410156 95.765625 29.078125 96.820312 30.609375 96.820312 C 31.964844 96.820312 32.421875 96.03125 32.703125 94.761719 L 32.808594 94.183594 C 33.039062 93.300781 33.304688 92.667969 34.289062 92.667969 C 35.328125 92.667969 35.714844 93.636719 35.714844 94.550781 C 35.714844 95.429688 35.414062 96.152344 34.957031 96.839844 L 35.976562 96.839844 C 36.222656 96.117188 36.46875 95.34375 36.46875 94.550781 C 36.46875 93.039062 35.890625 91.824219 34.199219 91.824219 Z M 34.199219 91.824219 "/>
<path fill-rule="nonzero" fill="rgb(0%, 0%, 0%)" fill-opacity="1" d="M 36.3125 86.347656 L 31.246094 86.347656 L 31.246094 87.210938 L 34.113281 87.210938 C 35.0625 87.210938 35.714844 87.683594 35.714844 88.707031 C 35.714844 89.601562 35.152344 89.921875 34.289062 89.921875 L 31.246094 89.921875 L 31.246094 90.730469 L 34.304688 90.730469 C 35.503906 90.730469 36.453125 90.167969 36.453125 88.898438 C 36.453125 88.25 36.082031 87.578125 35.644531 87.210938 L 36.3125 87.210938 Z M 36.3125 86.347656 "/>
<path fill-rule="nonzero" fill="rgb(0%, 0%, 0%)" fill-opacity="1" d="M 33.777344 80.152344 C 32.265625 80.152344 31.246094 81.066406 31.246094 82.703125 L 31.246094 83.953125 L 28.550781 83.953125 L 28.550781 84.796875 L 36.3125 84.796875 L 36.3125 82.632812 C 36.3125 81.136719 35.273438 80.152344 33.777344 80.152344 Z M 33.777344 80.960938 C 34.867188 80.960938 35.574219 81.613281 35.574219 82.703125 L 35.574219 83.953125 L 31.984375 83.953125 L 31.984375 82.703125 C 31.984375 81.59375 32.792969 80.960938 33.777344 80.960938 Z M 33.777344 80.960938 "/>
<path fill-rule="nonzero" fill="rgb(0%, 0%, 0%)" fill-opacity="1" d="M 34.90625 75.148438 C 33.902344 75.148438 33.585938 75.835938 33.410156 76.75 L 33.339844 77.101562 C 33.234375 77.597656 33.128906 78.316406 32.582031 78.316406 C 31.949219 78.28125 31.824219 77.542969 31.824219 76.980469 C 31.859375 76.082031 31.914062 76.152344 32.230469 75.394531 L 31.402344 75.394531 C 31.210938 75.871094 31.121094 76.46875 31.121094 77.085938 C 31.121094 78.089844 31.492188 79.074219 32.617188 79.074219 C 33.53125 79.054688 33.882812 78.441406 34.042969 77.597656 L 34.113281 77.277344 C 34.253906 76.664062 34.324219 75.960938 34.976562 75.960938 C 35.609375 75.996094 35.730469 76.714844 35.730469 77.277344 C 35.714844 78.210938 35.609375 78.351562 35.222656 79.160156 L 36.136719 79.160156 C 36.257812 78.6875 36.453125 77.859375 36.453125 77.296875 C 36.453125 76.3125 36.082031 75.148438 34.90625 75.148438 Z M 34.90625 75.148438 "/>
<path fill-rule="nonzero" fill="rgb(0%, 0%, 0%)" fill-opacity="1" d="M 33.777344 69.269531 C 32.300781 69.269531 31.246094 70.253906 31.246094 71.75 L 31.246094 73.914062 L 39.023438 73.914062 L 39.023438 73.070312 L 36.3125 73.070312 L 36.3125 71.820312 C 36.3125 70.183594 35.292969 69.269531 33.777344 69.269531 Z M 33.777344 70.078125 C 34.78125 70.078125 35.574219 70.710938 35.574219 71.820312 L 35.574219 73.070312 L 31.984375 73.070312 L 31.984375 71.820312 C 31.984375 70.730469 32.703125 70.078125 33.777344 70.078125 Z M 33.777344 70.078125 "/>
<path fill-rule="nonzero" fill="rgb(0%, 0%, 0%)" fill-opacity="1" d="M 36.3125 64.089844 L 33.425781 64.089844 C 31.964844 64.089844 31.121094 64.707031 31.121094 66.21875 C 31.121094 66.765625 31.296875 67.433594 31.472656 67.925781 L 32.300781 67.925781 C 32.019531 67.417969 31.84375 66.996094 31.84375 66.289062 C 31.859375 65.480469 32.265625 64.867188 33.109375 64.867188 L 33.109375 66.027344 C 33.109375 67.222656 33.515625 68.277344 34.832031 68.277344 C 35.855469 68.242188 36.453125 67.644531 36.453125 66.625 C 36.453125 65.902344 36.152344 65.253906 35.644531 64.867188 L 36.3125 64.867188 Z M 33.953125 64.867188 C 34.941406 64.867188 35.730469 65.324219 35.730469 66.378906 C 35.730469 66.996094 35.449219 67.503906 34.78125 67.503906 C 33.796875 67.503906 33.796875 66.574219 33.796875 65.691406 L 33.796875 64.867188 Z M 33.953125 64.867188 "/>
<path fill-rule="nonzero" fill="rgb(0%, 0%, 0%)" fill-opacity="1" d="M 36.136719 58.71875 L 35.308594 58.71875 C 35.589844 59.261719 35.730469 59.492188 35.730469 60.195312 C 35.714844 61.425781 34.992188 62.023438 33.777344 62.023438 C 32.597656 62.023438 31.84375 61.410156 31.84375 60.195312 C 31.878906 59.527344 31.984375 59.28125 32.265625 58.71875 L 31.421875 58.71875 C 31.28125 59.175781 31.121094 59.667969 31.121094 60.246094 C 31.121094 61.902344 32.175781 62.871094 33.777344 62.871094 C 35.363281 62.835938 36.453125 61.9375 36.453125 60.300781 C 36.453125 59.738281 36.292969 59.140625 36.136719 58.71875 Z M 36.136719 58.71875 "/>
<path fill-rule="nonzero" fill="rgb(0%, 0%, 0%)" fill-opacity="1" d="M 33.777344 53.1875 L 33.691406 53.1875 C 32.230469 53.1875 31.15625 53.785156 31.121094 55.457031 C 31.121094 56.953125 32.421875 57.796875 33.832031 57.796875 C 35.363281 57.796875 36.453125 56.867188 36.453125 55.316406 C 36.453125 54.613281 36.292969 53.980469 36.066406 53.363281 L 35.222656 53.363281 C 35.609375 54.175781 35.695312 54.296875 35.695312 55.246094 C 35.695312 56.304688 35.0625 56.9375 33.867188 56.9375 L 33.777344 56.9375 Z M 33.09375 54.015625 L 33.09375 56.902344 C 32.421875 56.796875 31.84375 56.304688 31.84375 55.457031 C 31.84375 54.578125 32.386719 54.015625 33.09375 54.015625 Z M 33.09375 54.015625 "/>
<path fill-rule="nonzero" fill="rgb(0%, 0%, 0%)" fill-opacity="1" d="M 33.777344 48.886719 C 35.273438 48.886719 36.3125 47.898438 36.3125 46.386719 L 36.3125 44.238281 L 28.550781 44.238281 L 28.550781 45.085938 L 31.246094 45.085938 L 31.246094 46.316406 C 31.246094 47.96875 32.265625 48.886719 33.777344 48.886719 Z M 33.777344 48.078125 C 32.792969 48.078125 31.984375 47.441406 31.984375 46.316406 L 31.984375 45.085938 L 35.574219 45.085938 L 35.574219 46.316406 C 35.574219 47.425781 34.867188 48.078125 33.777344 48.078125 Z M 33.777344 48.078125 "/>
<path fill-rule="nonzero" fill="rgb(0%, 0%, 0%)" fill-opacity="1" d="M 36.3125 41.847656 L 31.246094 41.847656 L 31.246094 42.691406 L 36.3125 42.691406 Z M 28.550781 42.269531 C 28.550781 42.53125 28.796875 42.761719 29.0625 42.761719 C 29.34375 42.761719 29.589844 42.53125 29.589844 42.269531 C 29.589844 41.988281 29.34375 41.777344 29.0625 41.777344 C 28.796875 41.777344 28.550781 41.988281 28.550781 42.269531 Z M 28.550781 42.269531 "/>
<path fill-rule="nonzero" fill="rgb(0%, 0%, 0%)" fill-opacity="1" d="M 36.3125 32.769531 L 33.25 32.769531 C 32.160156 32.769531 31.121094 33.175781 31.121094 34.425781 C 31.121094 35.199219 31.527344 35.832031 32.140625 36.238281 C 31.542969 36.5 31.121094 37.0625 31.121094 37.785156 C 31.121094 38.453125 31.472656 39.105469 31.929688 39.476562 L 31.246094 39.476562 L 31.246094 40.300781 L 36.3125 40.300781 L 36.3125 39.476562 L 33.445312 39.476562 C 32.546875 39.441406 31.859375 38.894531 31.859375 38.085938 L 31.859375 38.03125 C 31.859375 37.1875 32.386719 36.941406 33.285156 36.941406 L 36.3125 36.941406 L 36.3125 36.132812 L 33.445312 36.132812 C 32.492188 36.113281 31.859375 35.640625 31.859375 34.652344 C 31.859375 33.808594 32.441406 33.5625 33.285156 33.5625 L 36.3125 33.5625 Z M 36.3125 32.769531 "/>
<path fill-rule="nonzero" fill="rgb(0%, 0%, 0%)" fill-opacity="1" d="M 84.972656 135.050781 C 84.9375 135.226562 84.867188 135.488281 84.867188 135.542969 C 84.867188 135.738281 85.023438 135.84375 85.199219 135.84375 C 85.339844 135.84375 85.535156 135.753906 85.621094 135.523438 C 85.640625 135.488281 86.011719 133.960938 86.0625 133.746094 C 86.152344 133.378906 86.363281 132.605469 86.414062 132.289062 C 86.46875 132.148438 86.785156 131.617188 87.046875 131.371094 C 87.136719 131.300781 87.46875 131.003906 87.945312 131.003906 C 88.246094 131.003906 88.402344 131.144531 88.421875 131.144531 C 88.085938 131.195312 87.839844 131.460938 87.839844 131.757812 C 87.839844 131.9375 87.964844 132.148438 88.261719 132.148438 C 88.5625 132.148438 88.878906 131.882812 88.878906 131.476562 C 88.878906 131.089844 88.527344 130.757812 87.945312 130.757812 C 87.222656 130.757812 86.730469 131.300781 86.519531 131.617188 C 86.414062 131.109375 86.011719 130.757812 85.480469 130.757812 C 84.972656 130.757812 84.761719 131.195312 84.65625 131.390625 C 84.460938 131.777344 84.320312 132.445312 84.320312 132.480469 C 84.320312 132.605469 84.425781 132.605469 84.445312 132.605469 C 84.566406 132.605469 84.566406 132.585938 84.636719 132.339844 C 84.832031 131.546875 85.058594 131.003906 85.464844 131.003906 C 85.640625 131.003906 85.800781 131.089844 85.800781 131.511719 C 85.800781 131.757812 85.761719 131.882812 85.621094 132.464844 Z M 84.972656 135.050781 "/>
<g clip-path="url(#clip-13)">
<path fill-rule="nonzero" fill="rgb(0%, 0%, 0%)" fill-opacity="1" d="M 94.289062 127.730469 C 94.34375 127.570312 94.34375 127.535156 94.34375 127.519531 C 94.34375 127.394531 94.253906 127.289062 94.132812 127.289062 C 94.042969 127.289062 93.972656 127.324219 93.9375 127.394531 L 90.03125 138.09375 C 89.980469 138.253906 89.980469 138.289062 89.980469 138.304688 C 89.980469 138.429688 90.085938 138.535156 90.207031 138.535156 C 90.347656 138.535156 90.382812 138.445312 90.453125 138.253906 Z M 94.289062 127.730469 "/>
</g>
<path fill-rule="nonzero" fill="rgb(0%, 0%, 0%)" fill-opacity="1" d="M 95.957031 135.050781 C 95.921875 135.226562 95.851562 135.488281 95.851562 135.542969 C 95.851562 135.738281 96.011719 135.84375 96.1875 135.84375 C 96.328125 135.84375 96.519531 135.753906 96.609375 135.523438 C 96.625 135.488281 96.996094 133.960938 97.046875 133.746094 C 97.136719 133.378906 97.347656 132.605469 97.402344 132.289062 C 97.453125 132.148438 97.769531 131.617188 98.035156 131.371094 C 98.121094 131.300781 98.457031 131.003906 98.929688 131.003906 C 99.230469 131.003906 99.390625 131.144531 99.40625 131.144531 C 99.074219 131.195312 98.824219 131.460938 98.824219 131.757812 C 98.824219 131.9375 98.949219 132.148438 99.25 132.148438 C 99.546875 132.148438 99.863281 131.882812 99.863281 131.476562 C 99.863281 131.089844 99.511719 130.757812 98.929688 130.757812 C 98.210938 130.757812 97.71875 131.300781 97.507812 131.617188 C 97.402344 131.109375 96.996094 130.757812 96.46875 130.757812 C 95.957031 130.757812 95.746094 131.195312 95.640625 131.390625 C 95.449219 131.777344 95.308594 132.445312 95.308594 132.480469 C 95.308594 132.605469 95.414062 132.605469 95.429688 132.605469 C 95.554688 132.605469 95.554688 132.585938 95.625 132.339844 C 95.816406 131.546875 96.046875 131.003906 96.449219 131.003906 C 96.625 131.003906 96.785156 131.089844 96.785156 131.511719 C 96.785156 131.757812 96.75 131.882812 96.609375 132.464844 Z M 95.957031 135.050781 "/>
<path fill-rule="nonzero" fill="rgb(0%, 0%, 0%)" fill-opacity="1" d="M 101.984375 136.574219 C 101.914062 136.839844 101.652344 137.261719 101.246094 137.261719 C 101.226562 137.261719 100.980469 137.261719 100.824219 137.15625 C 101.140625 137.050781 101.175781 136.769531 101.175781 136.714844 C 101.175781 136.539062 101.035156 136.433594 100.859375 136.433594 C 100.628906 136.433594 100.402344 136.609375 100.402344 136.910156 C 100.402344 137.296875 100.839844 137.472656 101.226562 137.472656 C 101.597656 137.472656 101.914062 137.261719 102.109375 136.925781 C 102.300781 137.332031 102.722656 137.472656 103.039062 137.472656 C 103.957031 137.472656 104.429688 136.503906 104.429688 136.273438 C 104.429688 136.167969 104.324219 136.167969 104.308594 136.167969 C 104.183594 136.167969 104.183594 136.222656 104.148438 136.308594 C 103.992188 136.855469 103.515625 137.261719 103.074219 137.261719 C 102.757812 137.261719 102.601562 137.050781 102.601562 136.75 C 102.601562 136.539062 102.792969 135.835938 103.003906 134.957031 C 103.164062 134.355469 103.515625 134.164062 103.78125 134.164062 C 103.796875 134.164062 104.027344 134.164062 104.203125 134.269531 C 103.957031 134.339844 103.851562 134.566406 103.851562 134.710938 C 103.851562 134.867188 103.992188 134.992188 104.167969 134.992188 C 104.34375 134.992188 104.605469 134.851562 104.605469 134.515625 C 104.605469 134.074219 104.097656 133.933594 103.796875 133.933594 C 103.394531 133.933594 103.074219 134.199219 102.917969 134.496094 C 102.777344 134.179688 102.40625 133.933594 101.96875 133.933594 C 101.085938 133.933594 100.59375 134.902344 100.59375 135.148438 C 100.59375 135.238281 100.699219 135.238281 100.71875 135.238281 C 100.824219 135.238281 100.824219 135.21875 100.875 135.113281 C 101.070312 134.496094 101.5625 134.164062 101.949219 134.164062 C 102.214844 134.164062 102.425781 134.304688 102.425781 134.671875 C 102.425781 134.832031 102.320312 135.21875 102.25 135.5 Z M 101.984375 136.574219 "/>
<path fill-rule="nonzero" fill="rgb(0%, 0%, 0%)" fill-opacity="1" d="M 108.425781 134.410156 C 108.269531 134.144531 108.003906 133.933594 107.617188 133.933594 C 106.613281 133.933594 105.59375 135.042969 105.59375 136.167969 C 105.59375 136.945312 106.105469 137.472656 106.789062 137.472656 C 107.214844 137.472656 107.582031 137.242188 107.898438 136.925781 C 108.039062 137.402344 108.496094 137.472656 108.707031 137.472656 C 108.992188 137.472656 109.183594 137.3125 109.324219 137.066406 C 109.5 136.75 109.605469 136.308594 109.605469 136.273438 C 109.605469 136.167969 109.5 136.167969 109.484375 136.167969 C 109.359375 136.167969 109.359375 136.203125 109.308594 136.414062 C 109.203125 136.804688 109.0625 137.261719 108.726562 137.261719 C 108.53125 137.261719 108.460938 137.085938 108.460938 136.875 C 108.460938 136.75 108.53125 136.449219 108.585938 136.257812 C 108.636719 136.046875 108.726562 135.730469 108.761719 135.554688 L 108.921875 134.957031 C 108.972656 134.746094 109.0625 134.375 109.0625 134.339844 C 109.0625 134.164062 108.921875 134.09375 108.796875 134.09375 C 108.65625 134.09375 108.480469 134.179688 108.425781 134.410156 Z M 107.933594 136.414062 C 107.882812 136.644531 107.707031 136.804688 107.53125 136.945312 C 107.460938 137.015625 107.144531 137.261719 106.808594 137.261719 C 106.507812 137.261719 106.226562 137.050781 106.226562 136.503906 C 106.226562 136.082031 106.457031 135.21875 106.648438 134.902344 C 107.003906 134.269531 107.40625 134.164062 107.617188 134.164062 C 108.164062 134.164062 108.320312 134.761719 108.320312 134.851562 C 108.320312 134.867188 108.304688 134.9375 108.304688 134.957031 Z M 107.933594 136.414062 "/>
<path fill-rule="nonzero" fill="rgb(0%, 0%, 0%)" fill-opacity="1" d="M 114.175781 134.550781 C 114.175781 133.933594 113.804688 133.933594 113.785156 133.933594 C 113.574219 133.933594 113.363281 134.144531 113.363281 134.355469 C 113.363281 134.480469 113.433594 134.550781 113.488281 134.585938 C 113.628906 134.710938 113.785156 134.902344 113.785156 135.21875 C 113.785156 135.570312 113.257812 137.261719 112.328125 137.261719 C 111.691406 137.261719 111.691406 136.699219 111.691406 136.554688 C 111.691406 136.203125 111.832031 135.765625 112.132812 135.027344 C 112.1875 134.867188 112.238281 134.746094 112.238281 134.621094 C 112.238281 134.199219 111.886719 133.933594 111.5 133.933594 C 110.707031 133.933594 110.355469 135.007812 110.355469 135.148438 C 110.355469 135.238281 110.460938 135.238281 110.496094 135.238281 C 110.601562 135.238281 110.601562 135.203125 110.636719 135.113281 C 110.8125 134.480469 111.148438 134.164062 111.464844 134.164062 C 111.605469 134.164062 111.65625 134.25 111.65625 134.425781 C 111.65625 134.621094 111.605469 134.78125 111.515625 134.957031 C 111.183594 135.835938 111.09375 136.167969 111.09375 136.449219 C 111.09375 137.226562 111.710938 137.472656 112.308594 137.472656 C 113.628906 137.472656 114.175781 135.203125 114.175781 134.550781 Z M 114.175781 134.550781 "/>
<path fill-rule="nonzero" fill="rgb(0%, 0%, 0%)" fill-opacity="1" d="M 70.214844 1.410156 L 69.316406 1.410156 L 66.976562 7.144531 L 64.582031 1.410156 L 63.703125 1.410156 L 66.976562 9.328125 Z M 70.214844 1.410156 "/>
<path fill-rule="nonzero" fill="rgb(0%, 0%, 0%)" fill-opacity="1" d="M 74.128906 9.167969 L 74.128906 6.28125 C 74.128906 4.824219 73.511719 3.976562 72 3.976562 C 71.453125 3.976562 70.785156 4.152344 70.292969 4.328125 L 70.292969 5.15625 C 70.804688 4.875 71.226562 4.699219 71.929688 4.699219 C 72.738281 4.714844 73.355469 5.121094 73.355469 5.964844 L 72.195312 5.964844 C 70.996094 5.964844 69.941406 6.371094 69.941406 7.691406 C 69.976562 8.710938 70.574219 9.308594 71.59375 9.308594 C 72.316406 9.308594 72.96875 9.011719 73.355469 8.5 L 73.355469 9.167969 Z M 73.355469 6.8125 C 73.355469 7.796875 72.898438 8.585938 71.839844 8.585938 C 71.226562 8.585938 70.714844 8.304688 70.714844 7.636719 C 70.714844 6.652344 71.648438 6.652344 72.527344 6.652344 L 73.355469 6.652344 Z M 73.355469 6.8125 "/>
<path fill-rule="nonzero" fill="rgb(0%, 0%, 0%)" fill-opacity="1" d="M 75.492188 1.410156 L 76.320312 1.410156 L 76.320312 9.167969 L 75.492188 9.167969 Z M 75.492188 1.410156 "/>
<path fill-rule="nonzero" fill="rgb(0%, 0%, 0%)" fill-opacity="1" d="M 78.703125 9.167969 L 78.703125 4.101562 L 77.859375 4.101562 L 77.859375 9.167969 Z M 78.28125 1.410156 C 78.015625 1.410156 77.789062 1.65625 77.789062 1.917969 C 77.789062 2.199219 78.015625 2.445312 78.28125 2.445312 C 78.5625 2.445312 78.773438 2.199219 78.773438 1.917969 C 78.773438 1.65625 78.5625 1.410156 78.28125 1.410156 Z M 78.28125 1.410156 "/>
<path fill-rule="nonzero" fill="rgb(0%, 0%, 0%)" fill-opacity="1" d="M 79.964844 6.632812 C 79.964844 8.128906 80.953125 9.167969 82.464844 9.167969 L 84.613281 9.167969 L 84.613281 1.410156 L 83.765625 1.410156 L 83.765625 4.101562 L 82.535156 4.101562 C 80.882812 4.101562 79.964844 5.121094 79.964844 6.632812 Z M 80.777344 6.632812 C 80.777344 5.648438 81.410156 4.839844 82.535156 4.839844 L 83.765625 4.839844 L 83.765625 8.429688 L 82.535156 8.429688 C 81.425781 8.429688 80.777344 7.726562 80.777344 6.632812 Z M 80.777344 6.632812 "/>
<path fill-rule="nonzero" fill="rgb(0%, 0%, 0%)" fill-opacity="1" d="M 90.050781 9.167969 L 90.050781 6.28125 C 90.050781 4.824219 89.433594 3.976562 87.921875 3.976562 C 87.375 3.976562 86.707031 4.152344 86.214844 4.328125 L 86.214844 5.15625 C 86.722656 4.875 87.144531 4.699219 87.851562 4.699219 C 88.660156 4.714844 89.273438 5.121094 89.273438 5.964844 L 88.113281 5.964844 C 86.917969 5.964844 85.863281 6.371094 85.863281 7.691406 C 85.898438 8.710938 86.496094 9.308594 87.515625 9.308594 C 88.238281 9.308594 88.886719 9.011719 89.273438 8.5 L 89.273438 9.167969 Z M 89.273438 6.8125 C 89.273438 7.796875 88.816406 8.585938 87.761719 8.585938 C 87.144531 8.585938 86.636719 8.304688 86.636719 7.636719 C 86.636719 6.652344 87.570312 6.652344 88.449219 6.652344 L 89.273438 6.652344 Z M 89.273438 6.8125 "/>
<path fill-rule="nonzero" fill="rgb(0%, 0%, 0%)" fill-opacity="1" d="M 94.253906 9.167969 L 94.253906 8.445312 L 93.375 8.445312 C 92.585938 8.445312 92.441406 8.253906 92.441406 7.515625 L 92.441406 4.769531 L 93.9375 4.769531 L 93.9375 4.101562 L 92.441406 4.101562 L 92.441406 2.65625 L 92.089844 2.65625 L 91.617188 4.101562 L 91.019531 4.101562 L 91.019531 4.769531 L 91.617188 4.769531 L 91.617188 7.515625 C 91.617188 8.78125 92.125 9.167969 93.375 9.167969 Z M 94.253906 9.167969 "/>
<path fill-rule="nonzero" fill="rgb(0%, 0%, 0%)" fill-opacity="1" d="M 96.136719 9.167969 L 96.136719 4.101562 L 95.292969 4.101562 L 95.292969 9.167969 Z M 95.714844 1.410156 C 95.453125 1.410156 95.222656 1.65625 95.222656 1.917969 C 95.222656 2.199219 95.453125 2.445312 95.714844 2.445312 C 95.996094 2.445312 96.207031 2.199219 96.207031 1.917969 C 96.207031 1.65625 95.996094 1.410156 95.714844 1.410156 Z M 95.714844 1.410156 "/>
<path fill-rule="nonzero" fill="rgb(0%, 0%, 0%)" fill-opacity="1" d="M 102.1875 6.632812 C 102.1875 5.351562 101.5 3.976562 99.8125 3.976562 C 98.28125 3.976562 97.417969 5.15625 97.417969 6.632812 C 97.417969 8.023438 98.316406 9.273438 99.8125 9.308594 C 101.324219 9.273438 102.1875 8.058594 102.1875 6.632812 Z M 101.359375 6.632812 C 101.359375 7.636719 100.746094 8.535156 99.8125 8.535156 C 98.546875 8.515625 98.265625 7.390625 98.265625 6.617188 C 98.265625 5.597656 98.757812 4.75 99.8125 4.734375 C 100.796875 4.75 101.359375 5.667969 101.359375 6.632812 Z M 101.359375 6.632812 "/>
<path fill-rule="nonzero" fill="rgb(0%, 0%, 0%)" fill-opacity="1" d="M 107.871094 9.167969 L 107.871094 6.105469 C 107.871094 4.910156 107.359375 3.976562 106.058594 3.976562 C 105.40625 3.976562 104.738281 4.222656 104.332031 4.785156 L 104.332031 4.101562 L 103.507812 4.101562 L 103.507812 9.167969 L 104.332031 9.167969 L 104.332031 6.300781 C 104.367188 5.332031 104.964844 4.714844 105.863281 4.714844 C 106.742188 4.714844 107.058594 5.246094 107.058594 6.140625 L 107.058594 9.167969 Z M 107.871094 9.167969 "/>
<path fill-rule="nonzero" fill="rgb(0%, 0%, 0%)" fill-opacity="1" d="M 117.0625 6.632812 L 117.0625 6.546875 C 117.0625 5.085938 116.464844 4.011719 114.792969 3.976562 C 113.296875 3.976562 112.453125 5.28125 112.453125 6.6875 C 112.453125 8.21875 113.386719 9.308594 114.933594 9.308594 C 115.636719 9.308594 116.273438 9.152344 116.886719 8.921875 L 116.886719 8.078125 C 116.078125 8.464844 115.953125 8.550781 115.003906 8.550781 C 113.949219 8.550781 113.316406 7.917969 113.316406 6.722656 L 113.316406 6.632812 Z M 116.238281 5.949219 L 113.351562 5.949219 C 113.457031 5.28125 113.949219 4.699219 114.792969 4.699219 C 115.671875 4.699219 116.238281 5.246094 116.238281 5.949219 Z M 116.238281 5.949219 "/>
<path fill-rule="nonzero" fill="rgb(0%, 0%, 0%)" fill-opacity="1" d="M 121.097656 5.121094 L 121.359375 4.3125 C 121.238281 4.171875 120.691406 4.03125 120.324219 4.03125 C 119.796875 4.046875 119.355469 4.3125 119.125 4.785156 L 119.125 4.101562 L 118.28125 4.101562 L 118.28125 9.167969 L 119.125 9.167969 L 119.125 6.492188 C 119.125 6.476562 119.125 6.457031 119.125 6.457031 C 119.125 5.71875 119.511719 4.75 120.304688 4.75 L 120.359375 4.75 C 120.621094 4.75 120.832031 4.910156 121.097656 5.121094 Z M 121.097656 5.121094 "/>
<path fill-rule="nonzero" fill="rgb(0%, 0%, 0%)" fill-opacity="1" d="M 125.023438 5.121094 L 125.289062 4.3125 C 125.164062 4.171875 124.621094 4.03125 124.25 4.03125 C 123.722656 4.046875 123.28125 4.3125 123.054688 4.785156 L 123.054688 4.101562 L 122.207031 4.101562 L 122.207031 9.167969 L 123.054688 9.167969 L 123.054688 6.492188 C 123.054688 6.476562 123.054688 6.457031 123.054688 6.457031 C 123.054688 5.71875 123.441406 4.75 124.230469 4.75 L 124.285156 4.75 C 124.550781 4.75 124.761719 4.910156 125.023438 5.121094 Z M 125.023438 5.121094 "/>
<path fill-rule="nonzero" fill="rgb(0%, 0%, 0%)" fill-opacity="1" d="M 130.394531 6.632812 C 130.394531 5.351562 129.707031 3.976562 128.019531 3.976562 C 126.488281 3.976562 125.625 5.15625 125.625 6.632812 C 125.625 8.023438 126.523438 9.273438 128.019531 9.308594 C 129.53125 9.273438 130.394531 8.058594 130.394531 6.632812 Z M 129.566406 6.632812 C 129.566406 7.636719 128.949219 8.535156 128.019531 8.535156 C 126.75 8.515625 126.46875 7.390625 126.46875 6.617188 C 126.46875 5.597656 126.960938 4.75 128.019531 4.734375 C 129.003906 4.75 129.566406 5.667969 129.566406 6.632812 Z M 129.566406 6.632812 "/>
<path fill-rule="nonzero" fill="rgb(0%, 0%, 0%)" fill-opacity="1" d="M 134.527344 5.121094 L 134.789062 4.3125 C 134.667969 4.171875 134.121094 4.03125 133.753906 4.03125 C 133.226562 4.046875 132.785156 4.3125 132.554688 4.785156 L 132.554688 4.101562 L 131.710938 4.101562 L 131.710938 9.167969 L 132.554688 9.167969 L 132.554688 6.492188 C 132.554688 6.476562 132.554688 6.457031 132.554688 6.457031 C 132.554688 5.71875 132.941406 4.75 133.734375 4.75 L 133.789062 4.75 C 134.050781 4.75 134.261719 4.910156 134.527344 5.121094 Z M 134.527344 5.121094 "/>
</svg>
