<?xml version="1.0" encoding="UTF-8"?>
<svg xmlns="http://www.w3.org/2000/svg" xmlns:xlink="http://www.w3.org/1999/xlink" width="410.036926pt" height="130.176361pt" viewBox="0 0 410.036926 130.176361">
<path fill="none" stroke-width="3.018513" stroke-linecap="square" stroke-linejoin="round" stroke="rgb(81.959534%, 51.371765%, 38.430786%)" stroke-opacity="1" stroke-miterlimit="10" d="M 551.166855 -105.699219 L 586.331178 -105.324219 L 621.4955 -102.125 L 656.659823 -89.21875 L 691.824145 -72.414062 L 726.997507 -78.929688 L 762.16183 -96.8125 L 797.326152 -104.261719 L 832.490474 -105.757812 L 867.654797 -105.910156 L 902.819119 -105.628906 " transform="matrix(0.432123, 0, 0, -1, 0, 0)"/>
<path fill="none" stroke-width="3.018513" stroke-linecap="square" stroke-linejoin="round" stroke="rgb(62.35199%, 85.096741%, 82.351685%)" stroke-opacity="1" stroke-miterlimit="10" d="M 551.166855 -102.738281 L 586.331178 -102.9375 L 621.4955 -100.515625 L 656.659823 -89.199219 L 691.824145 -73.308594 L 726.997507 -79.492188 L 762.16183 -95.832031 L 797.326152 -102.214844 L 832.490474 -102.890625 L 867.654797 -101.785156 L 902.819119 -99.808594 " transform="matrix(0.432123, 0, 0, -1, 0, 0)"/>
<path fill="none" stroke-width="0.850394" stroke-linecap="butt" stroke-linejoin="miter" stroke="rgb(50.195312%, 50.195312%, 50.195312%)" stroke-opacity="1" stroke-miterlimit="4" d="M 36.734375 107.222656 L 36.734375 109.105469 "/>
<path fill="none" stroke-width="0.850394" stroke-linecap="butt" stroke-linejoin="miter" stroke="rgb(50.195312%, 50.195312%, 50.195312%)" stroke-opacity="1" stroke-miterlimit="4" d="M 189.875 107.222656 L 189.875 109.105469 "/>
<path fill="none" stroke-width="0.850394" stroke-linecap="butt" stroke-linejoin="miter" stroke="rgb(50.195312%, 50.195312%, 50.195312%)" stroke-opacity="1" stroke-miterlimit="4" d="M 36.558594 11.226562 L 34.675781 11.226562 "/>
<path fill="none" stroke-width="0.850394" stroke-linecap="butt" stroke-linejoin="miter" stroke="rgb(50.195312%, 50.195312%, 50.195312%)" stroke-opacity="1" stroke-miterlimit="4" d="M 36.558594 49.449219 L 34.675781 49.449219 "/>
<path fill="none" stroke-width="0.850394" stroke-linecap="butt" stroke-linejoin="miter" stroke="rgb(50.195312%, 50.195312%, 50.195312%)" stroke-opacity="1" stroke-miterlimit="4" d="M 36.46875 106.78125 L 34.585938 106.78125 "/>
<path fill="none" stroke-width="1.417323" stroke-linecap="butt" stroke-linejoin="miter" stroke="rgb(81.959534%, 51.371765%, 38.430786%)" stroke-opacity="1" stroke-miterlimit="4" d="M 147.890625 19.402344 C 155.933594 19.402344 155.933594 19.402344 155.933594 19.402344 "/>
<path fill="none" stroke-width="1.417323" stroke-linecap="butt" stroke-linejoin="miter" stroke="rgb(62.35199%, 85.096741%, 82.351685%)" stroke-opacity="1" stroke-miterlimit="4" d="M 147.890625 27.726562 C 155.933594 27.726562 155.933594 27.726562 155.933594 27.726562 "/>
<path fill="none" stroke-width="0.850394" stroke-linecap="butt" stroke-linejoin="round" stroke="rgb(1.176453%, 0%, 0%)" stroke-opacity="1" stroke-miterlimit="4" d="M 36.742188 11.25 L 189.875 11.25 L 189.875 106.839844 L 36.742188 106.839844 Z M 36.742188 11.25 "/>
<path fill="none" stroke-width="2.212692" stroke-linecap="square" stroke-linejoin="round" stroke="rgb(81.959534%, 51.763916%, 38.430786%)" stroke-opacity="0.866667" stroke-miterlimit="10" d="M 37.933594 -23.252616 L 39.453125 -24.112384 L 40.96875 -25.108162 L 42.488281 -26.244805 L 44.003906 -27.5126 L 45.523438 -28.901831 L 47.039062 -30.40764 L 48.558594 -32.030029 L 50.074219 -33.754424 L 51.59375 -35.585683 L 53.109375 -37.51409 L 54.628906 -39.539647 L 56.144531 -41.657496 L 58.421875 -44.999422 L 60.699219 -48.521073 L 62.972656 -52.217593 L 65.25 -56.054979 L 67.527344 -60.028374 L 70.5625 -65.473576 L 75.113281 -73.833248 L 79.667969 -82.178348 L 82.703125 -87.589548 L 84.980469 -91.509511 L 87.253906 -95.274035 L 89.53125 -98.853976 L 91.050781 -101.127263 L 92.566406 -103.303401 L 94.085938 -105.382389 L 95.601562 -107.354514 L 97.121094 -109.219775 L 98.636719 -110.98303 L 100.15625 -112.634563 L 101.671875 -114.179232 L 103.191406 -115.626753 L 104.707031 -116.972266 L 106.226562 -118.215774 L 107.742188 -119.371847 L 109.261719 -120.435629 L 110.777344 -121.416834 L 112.296875 -122.315462 L 113.8125 -123.146086 L 115.332031 -123.898991 L 116.847656 -124.588749 L 118.367188 -125.220217 L 119.882812 -125.798254 L 122.160156 -126.560874 L 124.4375 -127.226344 L 126.710938 -127.799524 L 128.988281 -128.299841 L 131.265625 -128.727297 L 134.300781 -129.208184 L 137.335938 -129.606495 L 140.371094 -129.931944 L 144.164062 -130.257394 L 147.957031 -130.514838 L 152.511719 -130.752854 L 157.824219 -130.956866 L 164.652344 -131.136592 L 173 -131.277458 L 183.621094 -131.379465 L 188.933594 -131.408609 " transform="matrix(1, 0, 0, -0.804177, 0, 0)"/>
<path fill="none" stroke-width="2.212321" stroke-linecap="square" stroke-linejoin="round" stroke="rgb(62.35199%, 85.096741%, 82.351685%)" stroke-opacity="1" stroke-miterlimit="10" d="M 37.984375 -23.239956 L 39.503906 -24.104292 L 41.019531 -25.109446 L 42.535156 -26.25542 L 44.054688 -27.532501 L 45.570312 -28.930977 L 47.089844 -30.445993 L 48.605469 -32.077548 L 50.121094 -33.811076 L 51.640625 -35.651432 L 53.15625 -37.588904 L 54.671875 -39.623493 L 56.191406 -41.750342 L 58.464844 -45.100858 L 60.742188 -48.635895 L 63.015625 -52.340886 L 65.292969 -56.191551 L 67.570312 -60.168468 L 70.601562 -65.616698 L 75.914062 -75.372041 L 79.703125 -82.301297 L 82.738281 -87.691257 L 85.015625 -91.585625 L 87.289062 -95.319751 L 89.566406 -98.859644 L 91.082031 -101.103033 L 92.601562 -103.244449 L 94.117188 -105.283894 L 95.632812 -107.211654 L 97.152344 -109.032587 L 98.667969 -110.741836 L 100.183594 -112.344256 L 101.703125 -113.839849 L 103.21875 -115.228614 L 104.738281 -116.51055 L 106.253906 -117.700226 L 107.769531 -118.792786 L 109.289062 -119.79794 L 110.804688 -120.71569 L 112.320312 -121.555747 L 113.839844 -122.318111 L 115.355469 -123.012493 L 116.875 -123.64375 L 118.390625 -124.211881 L 120.664062 -124.964533 L 122.941406 -125.610357 L 125.21875 -126.159065 L 127.492188 -126.625224 L 129.769531 -127.018545 L 132.042969 -127.353597 L 135.078125 -127.712927 L 138.113281 -127.994565 L 141.90625 -128.261635 L 145.699219 -128.455868 L 150.25 -128.606398 L 155.558594 -128.698659 L 161.625 -128.727794 L 168.453125 -128.688947 L 176.796875 -128.55784 L 185.898438 -128.34904 L 188.933594 -128.261635 " transform="matrix(1, 0, 0, -0.804447, 0, 0)"/>
<path fill="none" stroke-width="0.150862" stroke-linecap="butt" stroke-linejoin="round" stroke="rgb(0%, 0%, 0%)" stroke-opacity="1" stroke-miterlimit="10" d="M 67.429688 -133.031913 L 67.429688 -131.683502 " transform="matrix(1, 0, 0, -0.805346, 0, 0)"/>
<path fill-rule="nonzero" fill="rgb(50.195312%, 50.195312%, 50.195312%)" fill-opacity="1" d="M 35.347656 113.339844 C 35.332031 112.175781 35.074219 110.492188 33.597656 110.492188 C 32.125 110.492188 31.878906 112.203125 31.878906 113.339844 C 31.878906 114.492188 32.136719 116.164062 33.597656 116.164062 C 35.0625 116.164062 35.347656 114.492188 35.347656 113.339844 Z M 34.777344 113.339844 C 34.777344 114.097656 34.714844 115.644531 33.597656 115.644531 C 32.484375 115.644531 32.449219 114.070312 32.449219 113.339844 C 32.449219 112.597656 32.472656 111 33.597656 111 C 34.714844 111 34.777344 112.609375 34.777344 113.339844 Z M 34.777344 113.339844 "/>
<path fill-rule="nonzero" fill="rgb(50.195312%, 50.195312%, 50.195312%)" fill-opacity="1" d="M 36.359375 115.25 L 37.113281 115.25 L 37.113281 116.054688 L 36.359375 116.054688 Z M 36.359375 115.25 "/>
<path fill-rule="nonzero" fill="rgb(50.195312%, 50.195312%, 50.195312%)" fill-opacity="1" d="M 41.59375 113.339844 C 41.582031 112.175781 41.320312 110.492188 39.847656 110.492188 C 38.371094 110.492188 38.125 112.203125 38.125 113.339844 C 38.125 114.492188 38.386719 116.164062 39.847656 116.164062 C 41.308594 116.164062 41.59375 114.492188 41.59375 113.339844 Z M 41.023438 113.339844 C 41.023438 114.097656 40.960938 115.644531 39.847656 115.644531 C 38.730469 115.644531 38.695312 114.070312 38.695312 113.339844 C 38.695312 112.597656 38.71875 111 39.847656 111 C 40.960938 111 41.023438 112.609375 41.023438 113.339844 Z M 41.023438 113.339844 "/>
<path fill-rule="nonzero" fill="rgb(50.195312%, 50.195312%, 50.195312%)" fill-opacity="1" d="M 187.089844 116.058594 L 187.089844 110.59375 L 186.433594 110.59375 L 185.652344 111.226562 L 185.652344 111.847656 L 186.46875 111.179688 L 186.46875 116.058594 Z M 187.089844 116.058594 "/>
<path fill-rule="nonzero" fill="rgb(50.195312%, 50.195312%, 50.195312%)" fill-opacity="1" d="M 188.277344 115.253906 L 189.03125 115.253906 L 189.03125 116.058594 L 188.277344 116.058594 Z M 188.277344 115.253906 "/>
<path fill-rule="nonzero" fill="rgb(50.195312%, 50.195312%, 50.195312%)" fill-opacity="1" d="M 193.511719 113.34375 C 193.5 112.179688 193.238281 110.496094 191.765625 110.496094 C 190.289062 110.496094 190.042969 112.207031 190.042969 113.34375 C 190.042969 114.496094 190.300781 116.167969 191.765625 116.167969 C 193.226562 116.167969 193.511719 114.496094 193.511719 113.34375 Z M 192.941406 113.34375 C 192.941406 114.101562 192.878906 115.648438 191.765625 115.648438 C 190.648438 115.648438 190.613281 114.078125 190.613281 113.34375 C 190.613281 112.601562 190.636719 111.003906 191.765625 111.003906 C 192.878906 111.003906 192.941406 112.613281 192.941406 113.34375 Z M 192.941406 113.34375 "/>
<path fill-rule="nonzero" fill="rgb(50.195312%, 50.195312%, 50.195312%)" fill-opacity="1" d="M 27.097656 105.894531 C 27.085938 104.730469 26.828125 103.046875 25.351562 103.046875 C 23.878906 103.046875 23.632812 104.753906 23.632812 105.894531 C 23.632812 107.046875 23.890625 108.71875 25.351562 108.71875 C 26.816406 108.71875 27.097656 107.046875 27.097656 105.894531 Z M 26.53125 105.894531 C 26.53125 106.648438 26.46875 108.199219 25.351562 108.199219 C 24.238281 108.199219 24.199219 106.625 24.199219 105.894531 C 24.199219 105.152344 24.226562 103.554688 25.351562 103.554688 C 26.46875 103.554688 26.53125 105.164062 26.53125 105.894531 Z M 26.53125 105.894531 "/>
<path fill-rule="nonzero" fill="rgb(50.195312%, 50.195312%, 50.195312%)" fill-opacity="1" d="M 28.113281 107.800781 L 28.867188 107.800781 L 28.867188 108.605469 L 28.113281 108.605469 Z M 28.113281 107.800781 "/>
<path fill-rule="nonzero" fill="rgb(50.195312%, 50.195312%, 50.195312%)" fill-opacity="1" d="M 33.347656 105.894531 C 33.335938 104.730469 33.074219 103.046875 31.601562 103.046875 C 30.125 103.046875 29.878906 104.753906 29.878906 105.894531 C 29.878906 107.046875 30.136719 108.71875 31.601562 108.71875 C 33.0625 108.71875 33.347656 107.046875 33.347656 105.894531 Z M 32.777344 105.894531 C 32.777344 106.648438 32.714844 108.199219 31.601562 108.199219 C 30.484375 108.199219 30.449219 106.625 30.449219 105.894531 C 30.449219 105.152344 30.472656 103.554688 31.601562 103.554688 C 32.714844 103.554688 32.777344 105.164062 32.777344 105.894531 Z M 32.777344 105.894531 "/>
<path fill-rule="nonzero" fill="rgb(50.195312%, 50.195312%, 50.195312%)" fill-opacity="1" d="M 27.597656 13.738281 L 27.597656 13.167969 L 25.144531 13.167969 L 27.015625 11.0625 C 27.324219 10.628906 27.5625 10.292969 27.5625 9.722656 C 27.5625 8.707031 26.816406 8.175781 25.875 8.175781 C 25.34375 8.175781 24.898438 8.335938 24.453125 8.523438 L 24.453125 9.230469 C 24.898438 8.945312 25.34375 8.734375 25.890625 8.734375 C 26.507812 8.734375 26.992188 9.117188 26.992188 9.761719 C 26.992188 10.195312 26.644531 10.726562 26.359375 11.023438 C 26.273438 11.148438 24.550781 13.03125 24.414062 13.167969 L 24.414062 13.738281 Z M 27.597656 13.738281 "/>
<path fill-rule="nonzero" fill="rgb(50.195312%, 50.195312%, 50.195312%)" fill-opacity="1" d="M 28.507812 12.933594 L 29.265625 12.933594 L 29.265625 13.738281 L 28.507812 13.738281 Z M 28.507812 12.933594 "/>
<path fill-rule="nonzero" fill="rgb(50.195312%, 50.195312%, 50.195312%)" fill-opacity="1" d="M 33.347656 12.003906 C 33.332031 10.886719 32.640625 10.15625 31.527344 10.15625 C 31.375 10.171875 31.042969 10.207031 30.84375 10.28125 L 31.042969 8.84375 L 32.976562 8.84375 L 32.976562 8.273438 L 30.644531 8.273438 L 30.3125 10.976562 C 30.746094 10.765625 30.84375 10.714844 31.402344 10.714844 C 32.207031 10.714844 32.777344 11.160156 32.777344 12.003906 C 32.777344 12.871094 32.21875 13.292969 31.402344 13.292969 C 30.855469 13.292969 30.496094 13.179688 30.101562 12.933594 L 30.101562 13.613281 C 30.460938 13.75 30.992188 13.847656 31.414062 13.847656 C 32.589844 13.847656 33.347656 13.203125 33.347656 12.003906 Z M 33.347656 12.003906 "/>
<path fill-rule="nonzero" fill="rgb(0%, 0%, 0%)" fill-opacity="1" d="M 26.679688 64.40625 L 25.867188 64.40625 L 25.867188 67.996094 L 18.917969 67.996094 L 18.917969 68.855469 L 26.679688 68.855469 Z M 26.679688 64.40625 "/>
<path fill-rule="nonzero" fill="rgb(0%, 0%, 0%)" fill-opacity="1" d="M 24.144531 59.078125 C 22.859375 59.078125 21.488281 59.765625 21.488281 61.453125 C 21.488281 62.984375 22.667969 63.847656 24.144531 63.847656 C 25.535156 63.847656 26.785156 62.949219 26.820312 61.453125 C 26.785156 59.941406 25.570312 59.078125 24.144531 59.078125 Z M 24.144531 59.90625 C 25.148438 59.90625 26.046875 60.523438 26.046875 61.453125 C 26.027344 62.722656 24.902344 63.003906 24.128906 63.003906 C 23.105469 63.003906 22.261719 62.511719 22.246094 61.453125 C 22.261719 60.46875 23.175781 59.90625 24.144531 59.90625 Z M 24.144531 59.90625 "/>
<path fill-rule="nonzero" fill="rgb(0%, 0%, 0%)" fill-opacity="1" d="M 25.269531 54.046875 C 24.269531 54.046875 23.949219 54.734375 23.773438 55.648438 L 23.703125 56 C 23.597656 56.492188 23.492188 57.214844 22.949219 57.214844 C 22.316406 57.179688 22.191406 56.441406 22.191406 55.878906 C 22.226562 54.980469 22.28125 55.050781 22.597656 54.292969 L 21.769531 54.292969 C 21.574219 54.769531 21.488281 55.367188 21.488281 55.984375 C 21.488281 56.988281 21.855469 57.972656 22.984375 57.972656 C 23.898438 57.953125 24.25 57.339844 24.410156 56.492188 L 24.480469 56.175781 C 24.621094 55.5625 24.691406 54.855469 25.339844 54.855469 C 25.976562 54.890625 26.097656 55.613281 26.097656 56.175781 C 26.082031 57.109375 25.976562 57.25 25.585938 58.058594 L 26.503906 58.058594 C 26.625 57.585938 26.820312 56.757812 26.820312 56.195312 C 26.820312 55.210938 26.449219 54.046875 25.269531 54.046875 Z M 25.269531 54.046875 "/>
<path fill-rule="nonzero" fill="rgb(0%, 0%, 0%)" fill-opacity="1" d="M 25.269531 49.234375 C 24.269531 49.234375 23.949219 49.921875 23.773438 50.835938 L 23.703125 51.1875 C 23.597656 51.679688 23.492188 52.402344 22.949219 52.402344 C 22.316406 52.367188 22.191406 51.628906 22.191406 51.066406 C 22.226562 50.167969 22.28125 50.238281 22.597656 49.480469 L 21.769531 49.480469 C 21.574219 49.957031 21.488281 50.554688 21.488281 51.171875 C 21.488281 52.171875 21.855469 53.160156 22.984375 53.160156 C 23.898438 53.140625 24.25 52.523438 24.410156 51.679688 L 24.480469 51.363281 C 24.621094 50.746094 24.691406 50.042969 25.339844 50.042969 C 25.976562 50.078125 26.097656 50.800781 26.097656 51.363281 C 26.082031 52.296875 25.976562 52.4375 25.585938 53.246094 L 26.503906 53.246094 C 26.625 52.769531 26.820312 51.945312 26.820312 51.382812 C 26.820312 50.394531 26.449219 49.234375 25.269531 49.234375 Z M 25.269531 49.234375 "/>
<path fill="none" stroke-width="0.850394" stroke-linecap="butt" stroke-linejoin="miter" stroke="rgb(50.195312%, 50.195312%, 50.195312%)" stroke-opacity="1" stroke-miterlimit="4" d="M -107.222656 -113.304688 L -109.105469 -113.304688 " transform="matrix(0, -1, -1, 0, 0, 0)"/>
<path fill="none" stroke-width="0.850394" stroke-linecap="butt" stroke-linejoin="miter" stroke="rgb(50.195312%, 50.195312%, 50.195312%)" stroke-opacity="1" stroke-miterlimit="4" d="M -107.222656 -174.558594 L -108.507812 -174.558594 " transform="matrix(0, -1, -1, 0, 0, 0)"/>
<path fill="none" stroke-width="0.850394" stroke-linecap="butt" stroke-linejoin="miter" stroke="rgb(50.195312%, 50.195312%, 50.195312%)" stroke-opacity="1" stroke-miterlimit="4" d="M -107.222656 -159.246094 L -108.507812 -159.246094 " transform="matrix(0, -1, -1, 0, 0, 0)"/>
<path fill="none" stroke-width="0.850394" stroke-linecap="butt" stroke-linejoin="miter" stroke="rgb(50.195312%, 50.195312%, 50.195312%)" stroke-opacity="1" stroke-miterlimit="4" d="M -107.222656 -143.933594 L -108.507812 -143.933594 " transform="matrix(0, -1, -1, 0, 0, 0)"/>
<path fill="none" stroke-width="0.850394" stroke-linecap="butt" stroke-linejoin="miter" stroke="rgb(50.195312%, 50.195312%, 50.195312%)" stroke-opacity="1" stroke-miterlimit="4" d="M -107.222656 -128.617188 L -108.507812 -128.617188 " transform="matrix(0, -1, -1, 0, 0, 0)"/>
<path fill="none" stroke-width="0.850394" stroke-linecap="butt" stroke-linejoin="miter" stroke="rgb(50.195312%, 50.195312%, 50.195312%)" stroke-opacity="1" stroke-miterlimit="4" d="M -107.222656 -97.992188 L -108.507812 -97.992188 " transform="matrix(0, -1, -1, 0, 0, 0)"/>
<path fill="none" stroke-width="0.850394" stroke-linecap="butt" stroke-linejoin="miter" stroke="rgb(50.195312%, 50.195312%, 50.195312%)" stroke-opacity="1" stroke-miterlimit="4" d="M -107.222656 -82.675781 L -108.507812 -82.675781 " transform="matrix(0, -1, -1, 0, 0, 0)"/>
<path fill="none" stroke-width="0.850394" stroke-linecap="butt" stroke-linejoin="miter" stroke="rgb(50.195312%, 50.195312%, 50.195312%)" stroke-opacity="1" stroke-miterlimit="4" d="M -107.222656 -67.363281 L -108.507812 -67.363281 " transform="matrix(0, -1, -1, 0, 0, 0)"/>
<path fill="none" stroke-width="0.850394" stroke-linecap="butt" stroke-linejoin="miter" stroke="rgb(50.195312%, 50.195312%, 50.195312%)" stroke-opacity="1" stroke-miterlimit="4" d="M -107.222656 -52.050781 L -108.507812 -52.050781 " transform="matrix(0, -1, -1, 0, 0, 0)"/>
<path fill-rule="nonzero" fill="rgb(50.195312%, 50.195312%, 50.195312%)" fill-opacity="1" d="M 111.863281 113.339844 C 111.851562 112.175781 111.589844 110.492188 110.117188 110.492188 C 108.640625 110.492188 108.394531 112.203125 108.394531 113.339844 C 108.394531 114.492188 108.65625 116.164062 110.117188 116.164062 C 111.578125 116.164062 111.863281 114.492188 111.863281 113.339844 Z M 111.292969 113.339844 C 111.292969 114.097656 111.230469 115.644531 110.117188 115.644531 C 109 115.644531 108.964844 114.070312 108.964844 113.339844 C 108.964844 112.597656 108.988281 111 110.117188 111 C 111.230469 111 111.292969 112.609375 111.292969 113.339844 Z M 111.292969 113.339844 "/>
<path fill-rule="nonzero" fill="rgb(50.195312%, 50.195312%, 50.195312%)" fill-opacity="1" d="M 112.875 115.25 L 113.632812 115.25 L 113.632812 116.054688 L 112.875 116.054688 Z M 112.875 115.25 "/>
<path fill-rule="nonzero" fill="rgb(50.195312%, 50.195312%, 50.195312%)" fill-opacity="1" d="M 117.714844 114.320312 C 117.699219 113.203125 117.007812 112.472656 115.890625 112.472656 C 115.742188 112.488281 115.410156 112.523438 115.210938 112.597656 L 115.410156 111.160156 L 117.339844 111.160156 L 117.339844 110.589844 L 115.011719 110.589844 L 114.679688 113.292969 C 115.113281 113.082031 115.210938 113.03125 115.769531 113.03125 C 116.574219 113.03125 117.144531 113.476562 117.144531 114.320312 C 117.144531 115.1875 116.585938 115.609375 115.769531 115.609375 C 115.222656 115.609375 114.863281 115.496094 114.46875 115.25 L 114.46875 115.929688 C 114.828125 116.066406 115.359375 116.164062 115.78125 116.164062 C 116.957031 116.164062 117.714844 115.519531 117.714844 114.320312 Z M 117.714844 114.320312 "/>
<path fill-rule="nonzero" fill="rgb(0%, 0%, 0%)" fill-opacity="1" d="M 161.253906 17.320312 L 161.253906 16.785156 L 157.246094 16.785156 L 157.246094 17.320312 L 158.96875 17.320312 L 158.96875 21.925781 L 159.53125 21.925781 L 159.53125 17.320312 Z M 161.253906 17.320312 "/>
<path fill-rule="nonzero" fill="rgb(0%, 0%, 0%)" fill-opacity="1" d="M 162.84375 19.242188 L 163.019531 18.707031 C 162.9375 18.613281 162.578125 18.519531 162.332031 18.519531 C 161.984375 18.53125 161.691406 18.707031 161.539062 19.023438 L 161.539062 18.566406 L 160.980469 18.566406 L 160.980469 21.925781 L 161.539062 21.925781 L 161.539062 20.152344 C 161.539062 20.140625 161.539062 20.128906 161.539062 20.128906 C 161.539062 19.640625 161.796875 19 162.320312 19 L 162.355469 19 C 162.53125 19 162.671875 19.105469 162.84375 19.242188 Z M 162.84375 19.242188 "/>
<path fill-rule="nonzero" fill="rgb(0%, 0%, 0%)" fill-opacity="1" d="M 166.113281 21.925781 L 166.113281 20.011719 C 166.113281 19.046875 165.707031 18.484375 164.703125 18.484375 C 164.339844 18.484375 163.898438 18.601562 163.570312 18.71875 L 163.570312 19.265625 C 163.910156 19.082031 164.191406 18.964844 164.65625 18.964844 C 165.191406 18.976562 165.601562 19.242188 165.601562 19.804688 L 164.832031 19.804688 C 164.039062 19.804688 163.339844 20.070312 163.339844 20.945312 C 163.363281 21.621094 163.757812 22.019531 164.433594 22.019531 C 164.914062 22.019531 165.34375 21.820312 165.601562 21.480469 L 165.601562 21.925781 Z M 165.601562 20.363281 C 165.601562 21.015625 165.296875 21.539062 164.597656 21.539062 C 164.191406 21.539062 163.851562 21.355469 163.851562 20.910156 C 163.851562 20.257812 164.46875 20.257812 165.050781 20.257812 L 165.601562 20.257812 Z M 165.601562 20.363281 "/>
<path fill-rule="nonzero" fill="rgb(0%, 0%, 0%)" fill-opacity="1" d="M 167.65625 21.925781 L 167.65625 18.566406 L 167.097656 18.566406 L 167.097656 21.925781 Z M 167.378906 16.785156 C 167.203125 16.785156 167.050781 16.949219 167.050781 17.121094 C 167.050781 17.308594 167.203125 17.472656 167.378906 17.472656 C 167.5625 17.472656 167.703125 17.308594 167.703125 17.121094 C 167.703125 16.949219 167.5625 16.785156 167.378906 16.785156 Z M 167.378906 16.785156 "/>
<path fill-rule="nonzero" fill="rgb(0%, 0%, 0%)" fill-opacity="1" d="M 171.570312 21.925781 L 171.570312 19.898438 C 171.570312 19.105469 171.234375 18.484375 170.371094 18.484375 C 169.9375 18.484375 169.496094 18.648438 169.226562 19.023438 L 169.226562 18.566406 L 168.679688 18.566406 L 168.679688 21.925781 L 169.226562 21.925781 L 169.226562 20.023438 C 169.25 19.382812 169.648438 18.976562 170.242188 18.976562 C 170.824219 18.976562 171.035156 19.324219 171.035156 19.921875 L 171.035156 21.925781 Z M 171.570312 21.925781 "/>
<path fill-rule="nonzero" fill="rgb(0%, 0%, 0%)" fill-opacity="1" d="M 161.558594 25.105469 L 160.964844 25.105469 L 159.414062 28.90625 L 157.828125 25.105469 L 157.246094 25.105469 L 159.414062 30.351562 Z M 161.558594 25.105469 "/>
<path fill-rule="nonzero" fill="rgb(0%, 0%, 0%)" fill-opacity="1" d="M 164.152344 30.246094 L 164.152344 28.332031 C 164.152344 27.367188 163.742188 26.808594 162.742188 26.808594 C 162.378906 26.808594 161.9375 26.921875 161.609375 27.039062 L 161.609375 27.585938 C 161.949219 27.402344 162.226562 27.285156 162.695312 27.285156 C 163.230469 27.296875 163.636719 27.5625 163.636719 28.125 L 162.867188 28.125 C 162.074219 28.125 161.375 28.390625 161.375 29.265625 C 161.398438 29.941406 161.796875 30.339844 162.472656 30.339844 C 162.949219 30.339844 163.382812 30.140625 163.636719 29.800781 L 163.636719 30.246094 Z M 163.636719 28.683594 C 163.636719 29.335938 163.335938 29.859375 162.636719 29.859375 C 162.226562 29.859375 161.890625 29.675781 161.890625 29.230469 C 161.890625 28.578125 162.507812 28.578125 163.089844 28.578125 L 163.636719 28.578125 Z M 163.636719 28.683594 "/>
<path fill-rule="nonzero" fill="rgb(0%, 0%, 0%)" fill-opacity="1" d="M 165.054688 25.105469 L 165.601562 25.105469 L 165.601562 30.246094 L 165.054688 30.246094 Z M 165.054688 25.105469 "/>
<path fill-rule="nonzero" fill="rgb(0%, 0%, 0%)" fill-opacity="1" d="M 167.179688 30.246094 L 167.179688 26.886719 L 166.621094 26.886719 L 166.621094 30.246094 Z M 166.902344 25.105469 C 166.726562 25.105469 166.574219 25.269531 166.574219 25.441406 C 166.574219 25.628906 166.726562 25.792969 166.902344 25.792969 C 167.085938 25.792969 167.226562 25.628906 167.226562 25.441406 C 167.226562 25.269531 167.085938 25.105469 166.902344 25.105469 Z M 166.902344 25.105469 "/>
<path fill-rule="nonzero" fill="rgb(0%, 0%, 0%)" fill-opacity="1" d="M 168.019531 28.566406 C 168.019531 29.558594 168.671875 30.246094 169.671875 30.246094 L 171.09375 30.246094 L 171.09375 25.105469 L 170.535156 25.105469 L 170.535156 26.886719 L 169.71875 26.886719 C 168.625 26.886719 168.019531 27.5625 168.019531 28.566406 Z M 168.554688 28.566406 C 168.554688 27.914062 168.972656 27.378906 169.71875 27.378906 L 170.535156 27.378906 L 170.535156 29.753906 L 169.71875 29.753906 C 168.984375 29.753906 168.554688 29.289062 168.554688 28.566406 Z M 168.554688 28.566406 "/>
<path fill-rule="nonzero" fill="rgb(0%, 0%, 0%)" fill-opacity="1" d="M 174.699219 30.246094 L 174.699219 28.332031 C 174.699219 27.367188 174.289062 26.808594 173.289062 26.808594 C 172.925781 26.808594 172.484375 26.921875 172.15625 27.039062 L 172.15625 27.585938 C 172.496094 27.402344 172.773438 27.285156 173.242188 27.285156 C 173.777344 27.296875 174.183594 27.5625 174.183594 28.125 L 173.414062 28.125 C 172.621094 28.125 171.921875 28.390625 171.921875 29.265625 C 171.945312 29.941406 172.34375 30.339844 173.019531 30.339844 C 173.496094 30.339844 173.929688 30.140625 174.183594 29.800781 L 174.183594 30.246094 Z M 174.183594 28.683594 C 174.183594 29.335938 173.882812 29.859375 173.183594 29.859375 C 172.773438 29.859375 172.4375 29.675781 172.4375 29.230469 C 172.4375 28.578125 173.054688 28.578125 173.636719 28.578125 L 174.183594 28.578125 Z M 174.183594 28.683594 "/>
<path fill-rule="nonzero" fill="rgb(0%, 0%, 0%)" fill-opacity="1" d="M 177.484375 30.246094 L 177.484375 29.765625 L 176.902344 29.765625 C 176.375 29.765625 176.285156 29.640625 176.285156 29.148438 L 176.285156 27.332031 L 177.273438 27.332031 L 177.273438 26.886719 L 176.285156 26.886719 L 176.285156 25.933594 L 176.050781 25.933594 L 175.734375 26.886719 L 175.339844 26.886719 L 175.339844 27.332031 L 175.734375 27.332031 L 175.734375 29.148438 C 175.734375 29.988281 176.074219 30.246094 176.902344 30.246094 Z M 177.484375 30.246094 "/>
<path fill-rule="nonzero" fill="rgb(0%, 0%, 0%)" fill-opacity="1" d="M 178.730469 30.246094 L 178.730469 26.886719 L 178.171875 26.886719 L 178.171875 30.246094 Z M 178.453125 25.105469 C 178.277344 25.105469 178.125 25.269531 178.125 25.441406 C 178.125 25.628906 178.277344 25.792969 178.453125 25.792969 C 178.636719 25.792969 178.777344 25.628906 178.777344 25.441406 C 178.777344 25.269531 178.636719 25.105469 178.453125 25.105469 Z M 178.453125 25.105469 "/>
<path fill-rule="nonzero" fill="rgb(0%, 0%, 0%)" fill-opacity="1" d="M 182.738281 28.566406 C 182.738281 27.714844 182.285156 26.808594 181.164062 26.808594 C 180.152344 26.808594 179.578125 27.585938 179.578125 28.566406 C 179.578125 29.488281 180.175781 30.316406 181.164062 30.339844 C 182.167969 30.316406 182.738281 29.511719 182.738281 28.566406 Z M 182.191406 28.566406 C 182.191406 29.230469 181.78125 29.824219 181.164062 29.824219 C 180.324219 29.8125 180.140625 29.066406 180.140625 28.554688 C 180.140625 27.878906 180.464844 27.320312 181.164062 27.308594 C 181.816406 27.320312 182.191406 27.925781 182.191406 28.566406 Z M 182.191406 28.566406 "/>
<path fill-rule="nonzero" fill="rgb(0%, 0%, 0%)" fill-opacity="1" d="M 186.503906 30.246094 L 186.503906 28.21875 C 186.503906 27.425781 186.164062 26.808594 185.300781 26.808594 C 184.871094 26.808594 184.429688 26.96875 184.160156 27.34375 L 184.160156 26.886719 L 183.613281 26.886719 L 183.613281 30.246094 L 184.160156 30.246094 L 184.160156 28.34375 C 184.183594 27.703125 184.578125 27.296875 185.175781 27.296875 C 185.757812 27.296875 185.96875 27.644531 185.96875 28.242188 L 185.96875 30.246094 Z M 186.503906 30.246094 "/>
<path fill="none" stroke-width="0.850394" stroke-linecap="butt" stroke-linejoin="miter" stroke="rgb(50.195312%, 50.195312%, 50.195312%)" stroke-opacity="1" stroke-miterlimit="4" d="M 36.558594 68.558594 L 34.675781 68.558594 "/>
<path fill="none" stroke-width="0.850394" stroke-linecap="butt" stroke-linejoin="miter" stroke="rgb(50.195312%, 50.195312%, 50.195312%)" stroke-opacity="1" stroke-miterlimit="4" d="M 36.558594 87.667969 L 34.675781 87.667969 "/>
<path fill="none" stroke-width="0.850394" stroke-linecap="butt" stroke-linejoin="miter" stroke="rgb(50.195312%, 50.195312%, 50.195312%)" stroke-opacity="1" stroke-miterlimit="4" d="M 36.558594 30.335938 L 34.675781 30.335938 "/>
<path fill="none" stroke-width="0.850394" stroke-linecap="butt" stroke-linejoin="round" stroke="rgb(1.176453%, 0%, 0%)" stroke-opacity="1" stroke-miterlimit="4" d="M 36.742188 -11.25 L 189.875 -11.25 L 189.875 -106.839844 L 36.742188 -106.839844 Z M 36.742188 -11.25 " transform="matrix(1, 0, 0, -1, 0, 0)"/>
<path fill="none" stroke-width="0.850394" stroke-linecap="butt" stroke-linejoin="miter" stroke="rgb(50.195312%, 50.195312%, 50.195312%)" stroke-opacity="1" stroke-miterlimit="4" d="M 237.59375 107.222656 L 237.59375 109.105469 "/>
<path fill="none" stroke-width="0.850394" stroke-linecap="butt" stroke-linejoin="miter" stroke="rgb(50.195312%, 50.195312%, 50.195312%)" stroke-opacity="1" stroke-miterlimit="4" d="M 390.734375 107.222656 L 390.734375 109.105469 "/>
<path fill="none" stroke-width="0.850394" stroke-linecap="butt" stroke-linejoin="miter" stroke="rgb(50.195312%, 50.195312%, 50.195312%)" stroke-opacity="1" stroke-miterlimit="4" d="M 237.417969 11.226562 L 235.535156 11.226562 "/>
<path fill="none" stroke-width="0.850394" stroke-linecap="butt" stroke-linejoin="miter" stroke="rgb(50.195312%, 50.195312%, 50.195312%)" stroke-opacity="1" stroke-miterlimit="4" d="M 237.417969 49.449219 L 235.535156 49.449219 "/>
<path fill="none" stroke-width="0.850394" stroke-linecap="butt" stroke-linejoin="miter" stroke="rgb(50.195312%, 50.195312%, 50.195312%)" stroke-opacity="1" stroke-miterlimit="4" d="M 237.328125 106.78125 L 235.445312 106.78125 "/>
<path fill="none" stroke-width="1.417323" stroke-linecap="butt" stroke-linejoin="miter" stroke="rgb(81.959534%, 51.371765%, 38.430786%)" stroke-opacity="1" stroke-miterlimit="4" d="M 348.75 19.402344 C 356.792969 19.402344 356.792969 19.402344 356.792969 19.402344 "/>
<path fill="none" stroke-width="1.417323" stroke-linecap="butt" stroke-linejoin="miter" stroke="rgb(62.35199%, 85.096741%, 82.351685%)" stroke-opacity="1" stroke-miterlimit="4" d="M 348.75 27.726562 C 356.792969 27.726562 356.792969 27.726562 356.792969 27.726562 "/>
<path fill="none" stroke-width="0.850394" stroke-linecap="butt" stroke-linejoin="round" stroke="rgb(1.176453%, 0%, 0%)" stroke-opacity="1" stroke-miterlimit="4" d="M 237.601562 11.25 L 390.734375 11.25 L 390.734375 106.839844 L 237.601562 106.839844 Z M 237.601562 11.25 "/>
<path fill="none" stroke-width="0.150862" stroke-linecap="butt" stroke-linejoin="round" stroke="rgb(0%, 0%, 0%)" stroke-opacity="1" stroke-miterlimit="10" d="M 268.289062 -133.031913 L 268.289062 -131.683502 " transform="matrix(1, 0, 0, -0.805346, 0, 0)"/>
<path fill-rule="nonzero" fill="rgb(50.195312%, 50.195312%, 50.195312%)" fill-opacity="1" d="M 236.207031 113.339844 C 236.195312 112.175781 235.933594 110.492188 234.460938 110.492188 C 232.984375 110.492188 232.738281 112.203125 232.738281 113.339844 C 232.738281 114.492188 232.996094 116.164062 234.460938 116.164062 C 235.921875 116.164062 236.207031 114.492188 236.207031 113.339844 Z M 235.636719 113.339844 C 235.636719 114.097656 235.574219 115.644531 234.460938 115.644531 C 233.34375 115.644531 233.308594 114.070312 233.308594 113.339844 C 233.308594 112.597656 233.332031 111 234.460938 111 C 235.574219 111 235.636719 112.609375 235.636719 113.339844 Z M 235.636719 113.339844 "/>
<path fill-rule="nonzero" fill="rgb(50.195312%, 50.195312%, 50.195312%)" fill-opacity="1" d="M 237.21875 115.25 L 237.972656 115.25 L 237.972656 116.054688 L 237.21875 116.054688 Z M 237.21875 115.25 "/>
<path fill-rule="nonzero" fill="rgb(50.195312%, 50.195312%, 50.195312%)" fill-opacity="1" d="M 242.453125 113.339844 C 242.441406 112.175781 242.179688 110.492188 240.707031 110.492188 C 239.230469 110.492188 238.984375 112.203125 238.984375 113.339844 C 238.984375 114.492188 239.246094 116.164062 240.707031 116.164062 C 242.167969 116.164062 242.453125 114.492188 242.453125 113.339844 Z M 241.882812 113.339844 C 241.882812 114.097656 241.820312 115.644531 240.707031 115.644531 C 239.589844 115.644531 239.554688 114.070312 239.554688 113.339844 C 239.554688 112.597656 239.578125 111 240.707031 111 C 241.820312 111 241.882812 112.609375 241.882812 113.339844 Z M 241.882812 113.339844 "/>
<path fill-rule="nonzero" fill="rgb(50.195312%, 50.195312%, 50.195312%)" fill-opacity="1" d="M 387.949219 116.058594 L 387.949219 110.59375 L 387.292969 110.59375 L 386.511719 111.226562 L 386.511719 111.847656 L 387.332031 111.179688 L 387.332031 116.058594 Z M 387.949219 116.058594 "/>
<path fill-rule="nonzero" fill="rgb(50.195312%, 50.195312%, 50.195312%)" fill-opacity="1" d="M 389.136719 115.253906 L 389.890625 115.253906 L 389.890625 116.058594 L 389.136719 116.058594 Z M 389.136719 115.253906 "/>
<path fill-rule="nonzero" fill="rgb(50.195312%, 50.195312%, 50.195312%)" fill-opacity="1" d="M 394.371094 113.34375 C 394.359375 112.179688 394.097656 110.496094 392.625 110.496094 C 391.148438 110.496094 390.902344 112.207031 390.902344 113.34375 C 390.902344 114.496094 391.164062 116.167969 392.625 116.167969 C 394.085938 116.167969 394.371094 114.496094 394.371094 113.34375 Z M 393.800781 113.34375 C 393.800781 114.101562 393.738281 115.648438 392.625 115.648438 C 391.507812 115.648438 391.472656 114.078125 391.472656 113.34375 C 391.472656 112.601562 391.496094 111.003906 392.625 111.003906 C 393.738281 111.003906 393.800781 112.613281 393.800781 113.34375 Z M 393.800781 113.34375 "/>
<path fill-rule="nonzero" fill="rgb(50.195312%, 50.195312%, 50.195312%)" fill-opacity="1" d="M 227.960938 105.894531 C 227.945312 104.730469 227.6875 103.046875 226.210938 103.046875 C 224.738281 103.046875 224.492188 104.753906 224.492188 105.894531 C 224.492188 107.046875 224.75 108.71875 226.210938 108.71875 C 227.675781 108.71875 227.960938 107.046875 227.960938 105.894531 Z M 227.390625 105.894531 C 227.390625 106.648438 227.328125 108.199219 226.210938 108.199219 C 225.097656 108.199219 225.0625 106.625 225.0625 105.894531 C 225.0625 105.152344 225.085938 103.554688 226.210938 103.554688 C 227.328125 103.554688 227.390625 105.164062 227.390625 105.894531 Z M 227.390625 105.894531 "/>
<path fill-rule="nonzero" fill="rgb(50.195312%, 50.195312%, 50.195312%)" fill-opacity="1" d="M 228.972656 107.800781 L 229.726562 107.800781 L 229.726562 108.605469 L 228.972656 108.605469 Z M 228.972656 107.800781 "/>
<path fill-rule="nonzero" fill="rgb(50.195312%, 50.195312%, 50.195312%)" fill-opacity="1" d="M 234.207031 105.894531 C 234.195312 104.730469 233.933594 103.046875 232.460938 103.046875 C 230.984375 103.046875 230.738281 104.753906 230.738281 105.894531 C 230.738281 107.046875 231 108.71875 232.460938 108.71875 C 233.921875 108.71875 234.207031 107.046875 234.207031 105.894531 Z M 233.636719 105.894531 C 233.636719 106.648438 233.574219 108.199219 232.460938 108.199219 C 231.34375 108.199219 231.308594 106.625 231.308594 105.894531 C 231.308594 105.152344 231.332031 103.554688 232.460938 103.554688 C 233.574219 103.554688 233.636719 105.164062 233.636719 105.894531 Z M 233.636719 105.894531 "/>
<path fill-rule="nonzero" fill="rgb(50.195312%, 50.195312%, 50.195312%)" fill-opacity="1" d="M 228.457031 13.738281 L 228.457031 13.167969 L 226.003906 13.167969 L 227.875 11.0625 C 228.183594 10.628906 228.421875 10.292969 228.421875 9.722656 C 228.421875 8.707031 227.675781 8.175781 226.734375 8.175781 C 226.203125 8.175781 225.757812 8.335938 225.3125 8.523438 L 225.3125 9.230469 C 225.757812 8.945312 226.203125 8.734375 226.75 8.734375 C 227.367188 8.734375 227.851562 9.117188 227.851562 9.761719 C 227.851562 10.195312 227.503906 10.726562 227.21875 11.023438 C 227.132812 11.148438 225.410156 13.03125 225.273438 13.167969 L 225.273438 13.738281 Z M 228.457031 13.738281 "/>
<path fill-rule="nonzero" fill="rgb(50.195312%, 50.195312%, 50.195312%)" fill-opacity="1" d="M 229.367188 12.933594 L 230.125 12.933594 L 230.125 13.738281 L 229.367188 13.738281 Z M 229.367188 12.933594 "/>
<path fill-rule="nonzero" fill="rgb(50.195312%, 50.195312%, 50.195312%)" fill-opacity="1" d="M 234.207031 12.003906 C 234.195312 10.886719 233.5 10.15625 232.386719 10.15625 C 232.238281 10.171875 231.902344 10.207031 231.703125 10.28125 L 231.902344 8.84375 L 233.835938 8.84375 L 233.835938 8.273438 L 231.507812 8.273438 L 231.171875 10.976562 C 231.605469 10.765625 231.703125 10.714844 232.261719 10.714844 C 233.066406 10.714844 233.636719 11.160156 233.636719 12.003906 C 233.636719 12.871094 233.078125 13.292969 232.261719 13.292969 C 231.714844 13.292969 231.355469 13.179688 230.960938 12.933594 L 230.960938 13.613281 C 231.320312 13.75 231.851562 13.847656 232.273438 13.847656 C 233.449219 13.847656 234.207031 13.203125 234.207031 12.003906 Z M 234.207031 12.003906 "/>
<path fill-rule="nonzero" fill="rgb(0%, 0%, 0%)" fill-opacity="1" d="M 227.539062 64.40625 L 226.730469 64.40625 L 226.730469 67.996094 L 219.777344 67.996094 L 219.777344 68.855469 L 227.539062 68.855469 Z M 227.539062 64.40625 "/>
<path fill-rule="nonzero" fill="rgb(0%, 0%, 0%)" fill-opacity="1" d="M 225.003906 59.078125 C 223.71875 59.078125 222.347656 59.765625 222.347656 61.453125 C 222.347656 62.984375 223.527344 63.847656 225.003906 63.847656 C 226.394531 63.847656 227.644531 62.949219 227.679688 61.453125 C 227.644531 59.941406 226.429688 59.078125 225.003906 59.078125 Z M 225.003906 59.90625 C 226.007812 59.90625 226.90625 60.523438 226.90625 61.453125 C 226.886719 62.722656 225.761719 63.003906 224.988281 63.003906 C 223.964844 63.003906 223.121094 62.511719 223.105469 61.453125 C 223.121094 60.46875 224.035156 59.90625 225.003906 59.90625 Z M 225.003906 59.90625 "/>
<path fill-rule="nonzero" fill="rgb(0%, 0%, 0%)" fill-opacity="1" d="M 226.128906 54.046875 C 225.128906 54.046875 224.8125 54.734375 224.636719 55.648438 L 224.566406 56 C 224.460938 56.492188 224.351562 57.214844 223.808594 57.214844 C 223.175781 57.179688 223.050781 56.441406 223.050781 55.878906 C 223.085938 54.980469 223.140625 55.050781 223.457031 54.292969 L 222.628906 54.292969 C 222.433594 54.769531 222.347656 55.367188 222.347656 55.984375 C 222.347656 56.988281 222.71875 57.972656 223.84375 57.972656 C 224.757812 57.953125 225.109375 57.339844 225.269531 56.492188 L 225.339844 56.175781 C 225.480469 55.5625 225.550781 54.855469 226.199219 54.855469 C 226.835938 54.890625 226.957031 55.613281 226.957031 56.175781 C 226.941406 57.109375 226.835938 57.25 226.449219 58.058594 L 227.363281 58.058594 C 227.484375 57.585938 227.679688 56.757812 227.679688 56.195312 C 227.679688 55.210938 227.308594 54.046875 226.128906 54.046875 Z M 226.128906 54.046875 "/>
<path fill-rule="nonzero" fill="rgb(0%, 0%, 0%)" fill-opacity="1" d="M 226.128906 49.234375 C 225.128906 49.234375 224.8125 49.921875 224.636719 50.835938 L 224.566406 51.1875 C 224.460938 51.679688 224.351562 52.402344 223.808594 52.402344 C 223.175781 52.367188 223.050781 51.628906 223.050781 51.066406 C 223.085938 50.167969 223.140625 50.238281 223.457031 49.480469 L 222.628906 49.480469 C 222.433594 49.957031 222.347656 50.554688 222.347656 51.171875 C 222.347656 52.171875 222.71875 53.160156 223.84375 53.160156 C 224.757812 53.140625 225.109375 52.523438 225.269531 51.679688 L 225.339844 51.363281 C 225.480469 50.746094 225.550781 50.042969 226.199219 50.042969 C 226.835938 50.078125 226.957031 50.800781 226.957031 51.363281 C 226.941406 52.296875 226.835938 52.4375 226.449219 53.246094 L 227.363281 53.246094 C 227.484375 52.769531 227.679688 51.945312 227.679688 51.382812 C 227.679688 50.394531 227.308594 49.234375 226.128906 49.234375 Z M 226.128906 49.234375 "/>
<path fill="none" stroke-width="0.850394" stroke-linecap="butt" stroke-linejoin="miter" stroke="rgb(50.195312%, 50.195312%, 50.195312%)" stroke-opacity="1" stroke-miterlimit="4" d="M -107.222656 -314.164062 L -109.105469 -314.164062 " transform="matrix(0, -1, -1, 0, 0, 0)"/>
<path fill="none" stroke-width="0.850394" stroke-linecap="butt" stroke-linejoin="miter" stroke="rgb(50.195312%, 50.195312%, 50.195312%)" stroke-opacity="1" stroke-miterlimit="4" d="M -107.222656 -375.417969 L -108.507812 -375.417969 " transform="matrix(0, -1, -1, 0, 0, 0)"/>
<path fill="none" stroke-width="0.850394" stroke-linecap="butt" stroke-linejoin="miter" stroke="rgb(50.195312%, 50.195312%, 50.195312%)" stroke-opacity="1" stroke-miterlimit="4" d="M -107.222656 -360.105469 L -108.507812 -360.105469 " transform="matrix(0, -1, -1, 0, 0, 0)"/>
<path fill="none" stroke-width="0.850394" stroke-linecap="butt" stroke-linejoin="miter" stroke="rgb(50.195312%, 50.195312%, 50.195312%)" stroke-opacity="1" stroke-miterlimit="4" d="M -107.222656 -344.792969 L -108.507812 -344.792969 " transform="matrix(0, -1, -1, 0, 0, 0)"/>
<path fill="none" stroke-width="0.850394" stroke-linecap="butt" stroke-linejoin="miter" stroke="rgb(50.195312%, 50.195312%, 50.195312%)" stroke-opacity="1" stroke-miterlimit="4" d="M -107.222656 -329.476562 L -108.507812 -329.476562 " transform="matrix(0, -1, -1, 0, 0, 0)"/>
<path fill="none" stroke-width="0.850394" stroke-linecap="butt" stroke-linejoin="miter" stroke="rgb(50.195312%, 50.195312%, 50.195312%)" stroke-opacity="1" stroke-miterlimit="4" d="M -107.222656 -298.851562 L -108.507812 -298.851562 " transform="matrix(0, -1, -1, 0, 0, 0)"/>
<path fill="none" stroke-width="0.850394" stroke-linecap="butt" stroke-linejoin="miter" stroke="rgb(50.195312%, 50.195312%, 50.195312%)" stroke-opacity="1" stroke-miterlimit="4" d="M -107.222656 -283.535156 L -108.507812 -283.535156 " transform="matrix(0, -1, -1, 0, 0, 0)"/>
<path fill="none" stroke-width="0.850394" stroke-linecap="butt" stroke-linejoin="miter" stroke="rgb(50.195312%, 50.195312%, 50.195312%)" stroke-opacity="1" stroke-miterlimit="4" d="M -107.222656 -268.222656 L -108.507812 -268.222656 " transform="matrix(0, -1, -1, 0, 0, 0)"/>
<path fill="none" stroke-width="0.850394" stroke-linecap="butt" stroke-linejoin="miter" stroke="rgb(50.195312%, 50.195312%, 50.195312%)" stroke-opacity="1" stroke-miterlimit="4" d="M -107.222656 -252.910156 L -108.507812 -252.910156 " transform="matrix(0, -1, -1, 0, 0, 0)"/>
<path fill-rule="nonzero" fill="rgb(50.195312%, 50.195312%, 50.195312%)" fill-opacity="1" d="M 312.722656 113.339844 C 312.710938 112.175781 312.449219 110.492188 310.976562 110.492188 C 309.503906 110.492188 309.253906 112.203125 309.253906 113.339844 C 309.253906 114.492188 309.515625 116.164062 310.976562 116.164062 C 312.4375 116.164062 312.722656 114.492188 312.722656 113.339844 Z M 312.152344 113.339844 C 312.152344 114.097656 312.089844 115.644531 310.976562 115.644531 C 309.863281 115.644531 309.824219 114.070312 309.824219 113.339844 C 309.824219 112.597656 309.847656 111 310.976562 111 C 312.089844 111 312.152344 112.609375 312.152344 113.339844 Z M 312.152344 113.339844 "/>
<path fill-rule="nonzero" fill="rgb(50.195312%, 50.195312%, 50.195312%)" fill-opacity="1" d="M 313.734375 115.25 L 314.492188 115.25 L 314.492188 116.054688 L 313.734375 116.054688 Z M 313.734375 115.25 "/>
<path fill-rule="nonzero" fill="rgb(50.195312%, 50.195312%, 50.195312%)" fill-opacity="1" d="M 318.574219 114.320312 C 318.5625 113.203125 317.867188 112.472656 316.753906 112.472656 C 316.605469 112.488281 316.269531 112.523438 316.070312 112.597656 L 316.269531 111.160156 L 318.203125 111.160156 L 318.203125 110.589844 L 315.871094 110.589844 L 315.539062 113.292969 C 315.972656 113.082031 316.070312 113.03125 316.628906 113.03125 C 317.433594 113.03125 318.003906 113.476562 318.003906 114.320312 C 318.003906 115.1875 317.445312 115.609375 316.628906 115.609375 C 316.082031 115.609375 315.722656 115.496094 315.328125 115.25 L 315.328125 115.929688 C 315.6875 116.066406 316.21875 116.164062 316.640625 116.164062 C 317.816406 116.164062 318.574219 115.519531 318.574219 114.320312 Z M 318.574219 114.320312 "/>
<path fill-rule="nonzero" fill="rgb(0%, 0%, 0%)" fill-opacity="1" d="M 362.113281 17.320312 L 362.113281 16.785156 L 358.105469 16.785156 L 358.105469 17.320312 L 359.828125 17.320312 L 359.828125 21.925781 L 360.390625 21.925781 L 360.390625 17.320312 Z M 362.113281 17.320312 "/>
<path fill-rule="nonzero" fill="rgb(0%, 0%, 0%)" fill-opacity="1" d="M 363.707031 19.242188 L 363.878906 18.707031 C 363.796875 18.613281 363.4375 18.519531 363.191406 18.519531 C 362.84375 18.53125 362.550781 18.707031 362.398438 19.023438 L 362.398438 18.566406 L 361.839844 18.566406 L 361.839844 21.925781 L 362.398438 21.925781 L 362.398438 20.152344 C 362.398438 20.140625 362.398438 20.128906 362.398438 20.128906 C 362.398438 19.640625 362.65625 19 363.179688 19 L 363.214844 19 C 363.390625 19 363.53125 19.105469 363.707031 19.242188 Z M 363.707031 19.242188 "/>
<path fill-rule="nonzero" fill="rgb(0%, 0%, 0%)" fill-opacity="1" d="M 366.972656 21.925781 L 366.972656 20.011719 C 366.972656 19.046875 366.566406 18.484375 365.5625 18.484375 C 365.203125 18.484375 364.757812 18.601562 364.433594 18.71875 L 364.433594 19.265625 C 364.769531 19.082031 365.050781 18.964844 365.515625 18.964844 C 366.050781 18.976562 366.460938 19.242188 366.460938 19.804688 L 365.691406 19.804688 C 364.898438 19.804688 364.199219 20.070312 364.199219 20.945312 C 364.222656 21.621094 364.617188 22.019531 365.292969 22.019531 C 365.773438 22.019531 366.203125 21.820312 366.460938 21.480469 L 366.460938 21.925781 Z M 366.460938 20.363281 C 366.460938 21.015625 366.15625 21.539062 365.457031 21.539062 C 365.050781 21.539062 364.710938 21.355469 364.710938 20.910156 C 364.710938 20.257812 365.328125 20.257812 365.914062 20.257812 L 366.460938 20.257812 Z M 366.460938 20.363281 "/>
<path fill-rule="nonzero" fill="rgb(0%, 0%, 0%)" fill-opacity="1" d="M 368.515625 21.925781 L 368.515625 18.566406 L 367.957031 18.566406 L 367.957031 21.925781 Z M 368.238281 16.785156 C 368.0625 16.785156 367.910156 16.949219 367.910156 17.121094 C 367.910156 17.308594 368.0625 17.472656 368.238281 17.472656 C 368.421875 17.472656 368.5625 17.308594 368.5625 17.121094 C 368.5625 16.949219 368.421875 16.785156 368.238281 16.785156 Z M 368.238281 16.785156 "/>
<path fill-rule="nonzero" fill="rgb(0%, 0%, 0%)" fill-opacity="1" d="M 372.429688 21.925781 L 372.429688 19.898438 C 372.429688 19.105469 372.09375 18.484375 371.230469 18.484375 C 370.800781 18.484375 370.355469 18.648438 370.089844 19.023438 L 370.089844 18.566406 L 369.539062 18.566406 L 369.539062 21.925781 L 370.089844 21.925781 L 370.089844 20.023438 C 370.113281 19.382812 370.507812 18.976562 371.101562 18.976562 C 371.683594 18.976562 371.894531 19.324219 371.894531 19.921875 L 371.894531 21.925781 Z M 372.429688 21.925781 "/>
<path fill-rule="nonzero" fill="rgb(0%, 0%, 0%)" fill-opacity="1" d="M 362.417969 25.105469 L 361.824219 25.105469 L 360.273438 28.90625 L 358.6875 25.105469 L 358.105469 25.105469 L 360.273438 30.351562 Z M 362.417969 25.105469 "/>
<path fill-rule="nonzero" fill="rgb(0%, 0%, 0%)" fill-opacity="1" d="M 365.011719 30.246094 L 365.011719 28.332031 C 365.011719 27.367188 364.601562 26.808594 363.601562 26.808594 C 363.238281 26.808594 362.796875 26.921875 362.46875 27.039062 L 362.46875 27.585938 C 362.808594 27.402344 363.085938 27.285156 363.554688 27.285156 C 364.089844 27.296875 364.496094 27.5625 364.496094 28.125 L 363.730469 28.125 C 362.9375 28.125 362.238281 28.390625 362.238281 29.265625 C 362.261719 29.941406 362.65625 30.339844 363.332031 30.339844 C 363.808594 30.339844 364.242188 30.140625 364.496094 29.800781 L 364.496094 30.246094 Z M 364.496094 28.683594 C 364.496094 29.335938 364.195312 29.859375 363.496094 29.859375 C 363.085938 29.859375 362.75 29.675781 362.75 29.230469 C 362.75 28.578125 363.367188 28.578125 363.949219 28.578125 L 364.496094 28.578125 Z M 364.496094 28.683594 "/>
<path fill-rule="nonzero" fill="rgb(0%, 0%, 0%)" fill-opacity="1" d="M 365.914062 25.105469 L 366.460938 25.105469 L 366.460938 30.246094 L 365.914062 30.246094 Z M 365.914062 25.105469 "/>
<path fill-rule="nonzero" fill="rgb(0%, 0%, 0%)" fill-opacity="1" d="M 368.039062 30.246094 L 368.039062 26.886719 L 367.480469 26.886719 L 367.480469 30.246094 Z M 367.761719 25.105469 C 367.585938 25.105469 367.433594 25.269531 367.433594 25.441406 C 367.433594 25.628906 367.585938 25.792969 367.761719 25.792969 C 367.949219 25.792969 368.085938 25.628906 368.085938 25.441406 C 368.085938 25.269531 367.949219 25.105469 367.761719 25.105469 Z M 367.761719 25.105469 "/>
<path fill-rule="nonzero" fill="rgb(0%, 0%, 0%)" fill-opacity="1" d="M 368.878906 28.566406 C 368.878906 29.558594 369.53125 30.246094 370.535156 30.246094 L 371.957031 30.246094 L 371.957031 25.105469 L 371.394531 25.105469 L 371.394531 26.886719 L 370.578125 26.886719 C 369.484375 26.886719 368.878906 27.5625 368.878906 28.566406 Z M 369.414062 28.566406 C 369.414062 27.914062 369.832031 27.378906 370.578125 27.378906 L 371.394531 27.378906 L 371.394531 29.753906 L 370.578125 29.753906 C 369.84375 29.753906 369.414062 29.289062 369.414062 28.566406 Z M 369.414062 28.566406 "/>
<path fill-rule="nonzero" fill="rgb(0%, 0%, 0%)" fill-opacity="1" d="M 375.558594 30.246094 L 375.558594 28.332031 C 375.558594 27.367188 375.148438 26.808594 374.148438 26.808594 C 373.785156 26.808594 373.34375 26.921875 373.015625 27.039062 L 373.015625 27.585938 C 373.355469 27.402344 373.632812 27.285156 374.101562 27.285156 C 374.636719 27.296875 375.042969 27.5625 375.042969 28.125 L 374.277344 28.125 C 373.484375 28.125 372.785156 28.390625 372.785156 29.265625 C 372.804688 29.941406 373.203125 30.339844 373.878906 30.339844 C 374.355469 30.339844 374.789062 30.140625 375.042969 29.800781 L 375.042969 30.246094 Z M 375.042969 28.683594 C 375.042969 29.335938 374.742188 29.859375 374.042969 29.859375 C 373.632812 29.859375 373.296875 29.675781 373.296875 29.230469 C 373.296875 28.578125 373.914062 28.578125 374.496094 28.578125 L 375.042969 28.578125 Z M 375.042969 28.683594 "/>
<path fill-rule="nonzero" fill="rgb(0%, 0%, 0%)" fill-opacity="1" d="M 378.34375 30.246094 L 378.34375 29.765625 L 377.761719 29.765625 C 377.238281 29.765625 377.144531 29.640625 377.144531 29.148438 L 377.144531 27.332031 L 378.132812 27.332031 L 378.132812 26.886719 L 377.144531 26.886719 L 377.144531 25.933594 L 376.910156 25.933594 L 376.59375 26.886719 L 376.199219 26.886719 L 376.199219 27.332031 L 376.59375 27.332031 L 376.59375 29.148438 C 376.59375 29.988281 376.933594 30.246094 377.761719 30.246094 Z M 378.34375 30.246094 "/>
<path fill-rule="nonzero" fill="rgb(0%, 0%, 0%)" fill-opacity="1" d="M 379.589844 30.246094 L 379.589844 26.886719 L 379.03125 26.886719 L 379.03125 30.246094 Z M 379.3125 25.105469 C 379.136719 25.105469 378.984375 25.269531 378.984375 25.441406 C 378.984375 25.628906 379.136719 25.792969 379.3125 25.792969 C 379.496094 25.792969 379.636719 25.628906 379.636719 25.441406 C 379.636719 25.269531 379.496094 25.105469 379.3125 25.105469 Z M 379.3125 25.105469 "/>
<path fill-rule="nonzero" fill="rgb(0%, 0%, 0%)" fill-opacity="1" d="M 383.597656 28.566406 C 383.597656 27.714844 383.144531 26.808594 382.023438 26.808594 C 381.011719 26.808594 380.441406 27.585938 380.441406 28.566406 C 380.441406 29.488281 381.035156 30.316406 382.023438 30.339844 C 383.027344 30.316406 383.597656 29.511719 383.597656 28.566406 Z M 383.050781 28.566406 C 383.050781 29.230469 382.644531 29.824219 382.023438 29.824219 C 381.1875 29.8125 381 29.066406 381 28.554688 C 381 27.878906 381.324219 27.320312 382.023438 27.308594 C 382.679688 27.320312 383.050781 27.925781 383.050781 28.566406 Z M 383.050781 28.566406 "/>
<path fill-rule="nonzero" fill="rgb(0%, 0%, 0%)" fill-opacity="1" d="M 387.363281 30.246094 L 387.363281 28.21875 C 387.363281 27.425781 387.023438 26.808594 386.164062 26.808594 C 385.730469 26.808594 385.289062 26.96875 385.019531 27.34375 L 385.019531 26.886719 L 384.472656 26.886719 L 384.472656 30.246094 L 385.019531 30.246094 L 385.019531 28.34375 C 385.042969 27.703125 385.441406 27.296875 386.035156 27.296875 C 386.617188 27.296875 386.828125 27.644531 386.828125 28.242188 L 386.828125 30.246094 Z M 387.363281 30.246094 "/>
<path fill="none" stroke-width="0.850394" stroke-linecap="butt" stroke-linejoin="miter" stroke="rgb(50.195312%, 50.195312%, 50.195312%)" stroke-opacity="1" stroke-miterlimit="4" d="M 237.417969 68.558594 L 235.535156 68.558594 "/>
<path fill="none" stroke-width="0.850394" stroke-linecap="butt" stroke-linejoin="miter" stroke="rgb(50.195312%, 50.195312%, 50.195312%)" stroke-opacity="1" stroke-miterlimit="4" d="M 237.417969 87.667969 L 235.535156 87.667969 "/>
<path fill="none" stroke-width="0.850394" stroke-linecap="butt" stroke-linejoin="miter" stroke="rgb(50.195312%, 50.195312%, 50.195312%)" stroke-opacity="1" stroke-miterlimit="4" d="M 237.417969 30.335938 L 235.535156 30.335938 "/>
<path fill="none" stroke-width="0.850394" stroke-linecap="butt" stroke-linejoin="round" stroke="rgb(1.176453%, 0%, 0%)" stroke-opacity="1" stroke-miterlimit="4" d="M 237.601562 -11.25 L 390.734375 -11.25 L 390.734375 -106.839844 L 237.601562 -106.839844 Z M 237.601562 -11.25 " transform="matrix(1, 0, 0, -1, 0, 0)"/>
<path fill-rule="nonzero" fill="rgb(0%, 0%, 0%)" fill-opacity="1" d="M 10.101562 11.09375 L 10.101562 7.847656 C 10.101562 6.203125 9.410156 5.253906 7.707031 5.253906 C 7.09375 5.253906 6.339844 5.453125 5.789062 5.648438 L 5.789062 6.578125 C 6.363281 6.261719 6.835938 6.066406 7.628906 6.066406 C 8.539062 6.085938 9.230469 6.539062 9.230469 7.492188 L 7.925781 7.492188 C 6.578125 7.492188 5.390625 7.945312 5.390625 9.429688 C 5.429688 10.578125 6.105469 11.25 7.253906 11.25 C 8.0625 11.25 8.796875 10.914062 9.230469 10.339844 L 9.230469 11.09375 Z M 9.230469 8.441406 C 9.230469 9.546875 8.714844 10.4375 7.527344 10.4375 C 6.835938 10.4375 6.261719 10.121094 6.261719 9.371094 C 6.261719 8.261719 7.3125 8.261719 8.300781 8.261719 L 9.230469 8.261719 Z M 9.230469 8.441406 "/>
<path fill-rule="nonzero" fill="rgb(0%, 0%, 0%)" fill-opacity="1" d="M 13.535156 7.332031 C 13.535156 5.492188 12.761719 3.550781 11.832031 2.007812 L 11.082031 2.007812 C 12.089844 3.769531 12.625 5.292969 12.625 7.332031 C 12.625 9.371094 12.109375 10.875 11.101562 12.675781 L 11.832031 12.675781 C 12.761719 11.171875 13.535156 9.113281 13.535156 7.332031 Z M 13.535156 7.332031 "/>
<path fill-rule="nonzero" fill="rgb(0%, 0%, 0%)" fill-opacity="1" d="M 212.703125 8.242188 C 212.703125 6.539062 211.671875 5.390625 209.832031 5.390625 L 208.425781 5.390625 L 208.425781 2.363281 L 207.476562 2.363281 L 207.476562 11.09375 L 209.910156 11.09375 C 211.59375 11.09375 212.703125 9.925781 212.703125 8.242188 Z M 211.792969 8.242188 C 211.792969 9.46875 211.058594 10.261719 209.832031 10.261719 L 208.425781 10.261719 L 208.425781 6.222656 L 209.832031 6.222656 C 211.078125 6.222656 211.792969 7.132812 211.792969 8.242188 Z M 211.792969 8.242188 "/>
<path fill-rule="nonzero" fill="rgb(0%, 0%, 0%)" fill-opacity="1" d="M 215.914062 7.332031 C 215.914062 5.492188 215.144531 3.550781 214.210938 2.007812 L 213.460938 2.007812 C 214.46875 3.769531 215.003906 5.292969 215.003906 7.332031 C 215.003906 9.371094 214.488281 10.875 213.480469 12.675781 L 214.210938 12.675781 C 215.144531 11.171875 215.914062 9.113281 215.914062 7.332031 Z M 215.914062 7.332031 "/>
<path fill-rule="nonzero" fill="rgb(0%, 0%, 0%)" fill-opacity="1" d="M 99.15625 122.519531 C 99.15625 119.738281 97.855469 118.648438 95.164062 118.648438 L 93.191406 118.648438 L 93.191406 126.40625 L 95.164062 126.40625 C 97.855469 126.40625 99.15625 125.28125 99.15625 122.519531 Z M 98.347656 122.519531 C 98.347656 124.628906 97.398438 125.632812 95.320312 125.632812 L 94.035156 125.632812 L 94.035156 119.421875 L 95.320312 119.421875 C 97.398438 119.4375 98.347656 120.335938 98.347656 122.519531 Z M 98.347656 122.519531 "/>
<path fill-rule="nonzero" fill="rgb(0%, 0%, 0%)" fill-opacity="1" d="M 101.273438 126.40625 L 101.273438 121.339844 L 100.429688 121.339844 L 100.429688 126.40625 Z M 100.851562 118.648438 C 100.585938 118.648438 100.359375 118.894531 100.359375 119.15625 C 100.359375 119.4375 100.585938 119.6875 100.851562 119.6875 C 101.132812 119.6875 101.34375 119.4375 101.34375 119.15625 C 101.34375 118.894531 101.132812 118.648438 100.851562 118.648438 Z M 100.851562 118.648438 "/>
<path fill-rule="nonzero" fill="rgb(0%, 0%, 0%)" fill-opacity="1" d="M 106.53125 125 C 106.53125 123.996094 105.84375 123.679688 104.929688 123.503906 L 104.578125 123.433594 C 104.085938 123.328125 103.363281 123.222656 103.363281 122.675781 C 103.398438 122.042969 104.136719 121.921875 104.699219 121.921875 C 105.597656 121.957031 105.527344 122.007812 106.285156 122.324219 L 106.285156 121.5 C 105.808594 121.304688 105.210938 121.214844 104.59375 121.214844 C 103.59375 121.214844 102.605469 121.585938 102.605469 122.710938 C 102.625 123.628906 103.238281 123.980469 104.085938 124.136719 L 104.402344 124.207031 C 105.015625 124.347656 105.722656 124.417969 105.722656 125.070312 C 105.6875 125.703125 104.964844 125.828125 104.402344 125.828125 C 103.46875 125.808594 103.328125 125.703125 102.519531 125.316406 L 102.519531 126.230469 C 102.992188 126.355469 103.820312 126.546875 104.382812 126.546875 C 105.367188 126.546875 106.53125 126.179688 106.53125 125 Z M 106.53125 125 "/>
<path fill-rule="nonzero" fill="rgb(0%, 0%, 0%)" fill-opacity="1" d="M 110.597656 126.40625 L 110.597656 125.6875 L 109.71875 125.6875 C 108.925781 125.6875 108.785156 125.492188 108.785156 124.753906 L 108.785156 122.007812 L 110.28125 122.007812 L 110.28125 121.339844 L 108.785156 121.339844 L 108.785156 119.898438 L 108.433594 119.898438 L 107.957031 121.339844 L 107.359375 121.339844 L 107.359375 122.007812 L 107.957031 122.007812 L 107.957031 124.753906 C 107.957031 126.019531 108.46875 126.40625 109.71875 126.40625 Z M 110.597656 126.40625 "/>
<path fill-rule="nonzero" fill="rgb(0%, 0%, 0%)" fill-opacity="1" d="M 115.523438 126.40625 L 115.523438 123.523438 C 115.523438 122.0625 114.910156 121.214844 113.394531 121.214844 C 112.851562 121.214844 112.179688 121.390625 111.6875 121.570312 L 111.6875 122.394531 C 112.199219 122.113281 112.621094 121.9375 113.324219 121.9375 C 114.132812 121.957031 114.75 122.359375 114.75 123.203125 L 113.589844 123.203125 C 112.394531 123.203125 111.335938 123.609375 111.335938 124.929688 C 111.371094 125.949219 111.96875 126.546875 112.992188 126.546875 C 113.710938 126.546875 114.363281 126.25 114.75 125.738281 L 114.75 126.40625 Z M 114.75 124.050781 C 114.75 125.035156 114.292969 125.828125 113.238281 125.828125 C 112.621094 125.828125 112.109375 125.546875 112.109375 124.875 C 112.109375 123.890625 113.042969 123.890625 113.921875 123.890625 L 114.75 123.890625 Z M 114.75 124.050781 "/>
<path fill-rule="nonzero" fill="rgb(0%, 0%, 0%)" fill-opacity="1" d="M 121.375 126.40625 L 121.375 123.34375 C 121.375 122.148438 120.863281 121.214844 119.5625 121.214844 C 118.910156 121.214844 118.242188 121.460938 117.835938 122.027344 L 117.835938 121.339844 L 117.011719 121.339844 L 117.011719 126.40625 L 117.835938 126.40625 L 117.835938 123.539062 C 117.871094 122.570312 118.46875 121.957031 119.367188 121.957031 C 120.246094 121.957031 120.566406 122.484375 120.566406 123.378906 L 120.566406 126.40625 Z M 121.375 126.40625 "/>
<path fill-rule="nonzero" fill="rgb(0%, 0%, 0%)" fill-opacity="1" d="M 126.746094 126.230469 L 126.746094 125.40625 C 126.199219 125.6875 125.96875 125.828125 125.265625 125.828125 C 124.035156 125.808594 123.4375 125.085938 123.4375 123.875 C 123.4375 122.695312 124.050781 121.9375 125.265625 121.9375 C 125.933594 121.972656 126.179688 122.078125 126.746094 122.359375 L 126.746094 121.515625 C 126.285156 121.375 125.792969 121.214844 125.214844 121.214844 C 123.558594 121.214844 122.589844 122.273438 122.589844 123.875 C 122.625 125.457031 123.523438 126.546875 125.160156 126.546875 C 125.722656 126.546875 126.320312 126.390625 126.746094 126.230469 Z M 126.746094 126.230469 "/>
<path fill-rule="nonzero" fill="rgb(0%, 0%, 0%)" fill-opacity="1" d="M 132.273438 123.875 L 132.273438 123.785156 C 132.273438 122.324219 131.675781 121.25 130.003906 121.214844 C 128.507812 121.214844 127.664062 122.519531 127.664062 123.925781 C 127.664062 125.457031 128.59375 126.546875 130.144531 126.546875 C 130.847656 126.546875 131.480469 126.390625 132.097656 126.160156 L 132.097656 125.316406 C 131.289062 125.703125 131.164062 125.792969 130.214844 125.792969 C 129.160156 125.792969 128.523438 125.15625 128.523438 123.960938 L 128.523438 123.875 Z M 131.445312 123.1875 L 128.558594 123.1875 C 128.664062 122.519531 129.160156 121.9375 130.003906 121.9375 C 130.882812 121.9375 131.445312 122.484375 131.445312 123.1875 Z M 131.445312 123.1875 "/>
<path fill-rule="nonzero" fill="rgb(0%, 0%, 0%)" fill-opacity="1" d="M 134.582031 125.261719 L 133.5625 125.261719 L 133.5625 126.039062 C 133.632812 126.179688 133.648438 126.320312 133.648438 126.460938 C 133.648438 126.863281 133.4375 127.289062 133.140625 127.480469 C 133.71875 127.464844 134.566406 126.601562 134.582031 126.054688 Z M 134.582031 125.261719 "/>
<path fill-rule="nonzero" fill="rgb(0%, 0%, 0%)" fill-opacity="1" d="M 141.542969 121.5 C 140.152344 121.832031 139.0625 123.292969 139.0625 124.648438 C 139.0625 125.738281 139.78125 126.546875 140.839844 126.546875 C 142.140625 126.546875 143.074219 124.769531 143.074219 123.222656 C 143.074219 122.203125 142.632812 121.640625 142.246094 121.144531 C 141.839844 120.636719 141.171875 119.792969 141.171875 119.296875 C 141.171875 119.050781 141.402344 118.789062 141.789062 118.789062 C 142.140625 118.789062 142.351562 118.929688 142.597656 119.085938 C 142.828125 119.226562 143.039062 119.367188 143.214844 119.367188 C 143.496094 119.367188 143.652344 119.105469 143.652344 118.910156 C 143.652344 118.664062 143.476562 118.648438 143.074219 118.542969 C 142.492188 118.417969 142.332031 118.417969 142.15625 118.417969 C 141.277344 118.417969 140.875 118.910156 140.875 119.582031 C 140.875 120.195312 141.207031 120.8125 141.542969 121.5 Z M 141.683594 121.746094 C 141.964844 122.273438 142.296875 122.871094 142.296875 123.679688 C 142.296875 124.417969 141.875 126.300781 140.839844 126.300781 C 140.222656 126.300781 139.746094 125.828125 139.746094 124.964844 C 139.746094 124.261719 140.167969 122.148438 141.683594 121.746094 Z M 141.683594 121.746094 "/>
<path fill-rule="nonzero" fill="rgb(0%, 0%, 0%)" fill-opacity="1" d="M 294.902344 122.519531 C 294.902344 119.738281 293.601562 118.648438 290.90625 118.648438 L 288.9375 118.648438 L 288.9375 126.40625 L 290.90625 126.40625 C 293.601562 126.40625 294.902344 125.28125 294.902344 122.519531 Z M 294.09375 122.519531 C 294.09375 124.628906 293.140625 125.632812 291.066406 125.632812 L 289.78125 125.632812 L 289.78125 119.421875 L 291.066406 119.421875 C 293.140625 119.4375 294.09375 120.335938 294.09375 122.519531 Z M 294.09375 122.519531 "/>
<path fill-rule="nonzero" fill="rgb(0%, 0%, 0%)" fill-opacity="1" d="M 297.019531 126.40625 L 297.019531 121.339844 L 296.171875 121.339844 L 296.171875 126.40625 Z M 296.597656 118.648438 C 296.332031 118.648438 296.101562 118.894531 296.101562 119.15625 C 296.101562 119.4375 296.332031 119.6875 296.597656 119.6875 C 296.878906 119.6875 297.089844 119.4375 297.089844 119.15625 C 297.089844 118.894531 296.878906 118.648438 296.597656 118.648438 Z M 296.597656 118.648438 "/>
<path fill-rule="nonzero" fill="rgb(0%, 0%, 0%)" fill-opacity="1" d="M 302.277344 125 C 302.277344 123.996094 301.589844 123.679688 300.675781 123.503906 L 300.324219 123.433594 C 299.832031 123.328125 299.109375 123.222656 299.109375 122.675781 C 299.144531 122.042969 299.882812 121.921875 300.445312 121.921875 C 301.34375 121.957031 301.273438 122.007812 302.03125 122.324219 L 302.03125 121.5 C 301.554688 121.304688 300.957031 121.214844 300.339844 121.214844 C 299.335938 121.214844 298.351562 121.585938 298.351562 122.710938 C 298.371094 123.628906 298.984375 123.980469 299.832031 124.136719 L 300.148438 124.207031 C 300.761719 124.347656 301.464844 124.417969 301.464844 125.070312 C 301.429688 125.703125 300.710938 125.828125 300.148438 125.828125 C 299.214844 125.808594 299.074219 125.703125 298.265625 125.316406 L 298.265625 126.230469 C 298.738281 126.355469 299.566406 126.546875 300.128906 126.546875 C 301.113281 126.546875 302.277344 126.179688 302.277344 125 Z M 302.277344 125 "/>
<path fill-rule="nonzero" fill="rgb(0%, 0%, 0%)" fill-opacity="1" d="M 306.34375 126.40625 L 306.34375 125.6875 L 305.464844 125.6875 C 304.671875 125.6875 304.53125 125.492188 304.53125 124.753906 L 304.53125 122.007812 L 306.027344 122.007812 L 306.027344 121.339844 L 304.53125 121.339844 L 304.53125 119.898438 L 304.179688 119.898438 L 303.703125 121.339844 L 303.105469 121.339844 L 303.105469 122.007812 L 303.703125 122.007812 L 303.703125 124.753906 C 303.703125 126.019531 304.214844 126.40625 305.464844 126.40625 Z M 306.34375 126.40625 "/>
<path fill-rule="nonzero" fill="rgb(0%, 0%, 0%)" fill-opacity="1" d="M 311.269531 126.40625 L 311.269531 123.523438 C 311.269531 122.0625 310.65625 121.214844 309.140625 121.214844 C 308.597656 121.214844 307.925781 121.390625 307.433594 121.570312 L 307.433594 122.394531 C 307.945312 122.113281 308.367188 121.9375 309.070312 121.9375 C 309.878906 121.957031 310.496094 122.359375 310.496094 123.203125 L 309.335938 123.203125 C 308.136719 123.203125 307.082031 123.609375 307.082031 124.929688 C 307.117188 125.949219 307.714844 126.546875 308.738281 126.546875 C 309.457031 126.546875 310.109375 126.25 310.496094 125.738281 L 310.496094 126.40625 Z M 310.496094 124.050781 C 310.496094 125.035156 310.039062 125.828125 308.984375 125.828125 C 308.367188 125.828125 307.855469 125.546875 307.855469 124.875 C 307.855469 123.890625 308.789062 123.890625 309.667969 123.890625 L 310.496094 123.890625 Z M 310.496094 124.050781 "/>
<path fill-rule="nonzero" fill="rgb(0%, 0%, 0%)" fill-opacity="1" d="M 317.121094 126.40625 L 317.121094 123.34375 C 317.121094 122.148438 316.609375 121.214844 315.308594 121.214844 C 314.65625 121.214844 313.988281 121.460938 313.582031 122.027344 L 313.582031 121.339844 L 312.753906 121.339844 L 312.753906 126.40625 L 313.582031 126.40625 L 313.582031 123.539062 C 313.617188 122.570312 314.214844 121.957031 315.113281 121.957031 C 315.992188 121.957031 316.308594 122.484375 316.308594 123.378906 L 316.308594 126.40625 Z M 317.121094 126.40625 "/>
<path fill-rule="nonzero" fill="rgb(0%, 0%, 0%)" fill-opacity="1" d="M 322.488281 126.230469 L 322.488281 125.40625 C 321.945312 125.6875 321.714844 125.828125 321.011719 125.828125 C 319.78125 125.808594 319.183594 125.085938 319.183594 123.875 C 319.183594 122.695312 319.796875 121.9375 321.011719 121.9375 C 321.679688 121.972656 321.925781 122.078125 322.488281 122.359375 L 322.488281 121.515625 C 322.03125 121.375 321.539062 121.214844 320.960938 121.214844 C 319.304688 121.214844 318.335938 122.273438 318.335938 123.875 C 318.371094 125.457031 319.269531 126.546875 320.90625 126.546875 C 321.46875 126.546875 322.066406 126.390625 322.488281 126.230469 Z M 322.488281 126.230469 "/>
<path fill-rule="nonzero" fill="rgb(0%, 0%, 0%)" fill-opacity="1" d="M 328.019531 123.875 L 328.019531 123.785156 C 328.019531 122.324219 327.421875 121.25 325.75 121.214844 C 324.253906 121.214844 323.410156 122.519531 323.410156 123.925781 C 323.410156 125.457031 324.339844 126.546875 325.890625 126.546875 C 326.59375 126.546875 327.226562 126.390625 327.84375 126.160156 L 327.84375 125.316406 C 327.03125 125.703125 326.910156 125.792969 325.960938 125.792969 C 324.902344 125.792969 324.269531 125.15625 324.269531 123.960938 L 324.269531 123.875 Z M 327.191406 123.1875 L 324.304688 123.1875 C 324.410156 122.519531 324.902344 121.9375 325.75 121.9375 C 326.628906 121.9375 327.191406 122.484375 327.191406 123.1875 Z M 327.191406 123.1875 "/>
<path fill-rule="nonzero" fill="rgb(0%, 0%, 0%)" fill-opacity="1" d="M 330.328125 125.261719 L 329.308594 125.261719 L 329.308594 126.039062 C 329.378906 126.179688 329.394531 126.320312 329.394531 126.460938 C 329.394531 126.863281 329.183594 127.289062 328.886719 127.480469 C 329.464844 127.464844 330.308594 126.601562 330.328125 126.054688 Z M 330.328125 125.261719 "/>
<path fill-rule="nonzero" fill="rgb(0%, 0%, 0%)" fill-opacity="1" d="M 337.289062 121.5 C 335.898438 121.832031 334.808594 123.292969 334.808594 124.648438 C 334.808594 125.738281 335.527344 126.546875 336.582031 126.546875 C 337.886719 126.546875 338.820312 124.769531 338.820312 123.222656 C 338.820312 122.203125 338.378906 121.640625 337.992188 121.144531 C 337.585938 120.636719 336.917969 119.792969 336.917969 119.296875 C 336.917969 119.050781 337.148438 118.789062 337.535156 118.789062 C 337.886719 118.789062 338.097656 118.929688 338.34375 119.085938 C 338.574219 119.226562 338.785156 119.367188 338.960938 119.367188 C 339.242188 119.367188 339.398438 119.105469 339.398438 118.910156 C 339.398438 118.664062 339.222656 118.648438 338.820312 118.542969 C 338.238281 118.417969 338.078125 118.417969 337.902344 118.417969 C 337.023438 118.417969 336.621094 118.910156 336.621094 119.582031 C 336.621094 120.195312 336.953125 120.8125 337.289062 121.5 Z M 337.429688 121.746094 C 337.710938 122.273438 338.042969 122.871094 338.042969 123.679688 C 338.042969 124.417969 337.621094 126.300781 336.582031 126.300781 C 335.96875 126.300781 335.492188 125.828125 335.492188 124.964844 C 335.492188 124.261719 335.914062 122.148438 337.429688 121.746094 Z M 337.429688 121.746094 "/>
</svg>
