<?xml version="1.0" encoding="UTF-8"?>
<svg xmlns="http://www.w3.org/2000/svg" xmlns:xlink="http://www.w3.org/1999/xlink" width="201.075531pt" height="121.757164pt" viewBox="0 0 201.075531 121.757164">
<defs>
<clipPath id="clip-0">
<path clip-rule="nonzero" d="M 28.300781 4.777344 L 181.429688 4.777344 L 181.429688 100.363281 L 28.300781 100.363281 Z M 28.300781 4.777344 "/>
</clipPath>
<clipPath id="clip-1">
<path clip-rule="nonzero" d="M 0.300781 2.109375 L 153.429688 2.109375 L 153.429688 96.363281 L 0.300781 96.363281 Z M 0.300781 2.109375 "/>
</clipPath>
<clipPath id="clip-2">
<path clip-rule="nonzero" d="M 0.300781 23 L 153.429688 23 L 153.429688 94 L 0.300781 94 Z M 0.300781 23 "/>
</clipPath>
<clipPath id="clip-3">
<path clip-rule="nonzero" d="M 0.300781 22 L 153.429688 22 L 153.429688 94.363281 L 0.300781 94.363281 Z M 0.300781 22 "/>
</clipPath>
<clipPath id="clip-4">
<rect x="0" y="0" width="154" height="95"/>
</clipPath>
<g id="source-6" clip-path="url(#clip-4)">
<g clip-path="url(#clip-2)">
<path fill-rule="nonzero" fill="rgb(98.822021%, 76.861572%, 67.842102%)" fill-opacity="0.5" d="M 1.164062 92.792969 L 24.011719 93.65625 L 152.953125 93.65625 C 237.253906 93.65625 237.253906 93.65625 152.953125 93.65625 L 24.011719 93.65625 L 1.164062 92.792969 C -84265.238281 0.238281 -84265.238281 0.238281 1.164062 92.792969 Z M 1.164062 92.792969 "/>
</g>
<g clip-path="url(#clip-3)">
<path fill="none" stroke-width="1.764539" stroke-linecap="butt" stroke-linejoin="round" stroke="rgb(25.881958%, 29.411316%, 30.979919%)" stroke-opacity="1" stroke-miterlimit="10" d="M 29.164062 153.126797 L 52.011719 154.464863 L 180.953125 154.464863 C 265.253906 154.464863 265.253906 154.464863 180.953125 154.464863 L 52.011719 154.464863 L 29.164062 153.126797 C -84237.238281 9.66919 -84237.238281 9.66919 29.164062 153.126797 Z M 29.164062 153.126797 " transform="matrix(1, 0, 0, 0.645171, -28, -6)"/>
</g>
</g>
<clipPath id="clip-5">
<rect x="0" y="0" width="154" height="97"/>
</clipPath>
<g id="source-8" clip-path="url(#clip-5)">
<g clip-path="url(#clip-1)">
<use xlink:href="#source-6" transform="matrix(1, 0, 0, 1, 0, 2)"/>
</g>
</g>
</defs>
<path fill="none" stroke-width="0.73858" stroke-linecap="butt" stroke-linejoin="round" stroke="rgb(0%, 0%, 0%)" stroke-opacity="1" stroke-miterlimit="10" d="M 181.457031 -154.732218 L 181.457031 -159.865138 " transform="matrix(1, 0, 0, -0.640017, 0, 0)"/>
<g clip-path="url(#clip-0)">
<use xlink:href="#source-8" transform="matrix(1, 0, 0, 1, 28, 4)"/>
</g>
<path fill-rule="nonzero" fill="rgb(0%, 0%, 0%)" fill-opacity="1" d="M 86.730469 111.121094 L 86.730469 110.308594 L 80.675781 110.308594 L 80.675781 111.121094 L 83.28125 111.121094 L 83.28125 118.070312 L 84.125 118.070312 L 84.125 111.121094 Z M 86.730469 111.121094 "/>
<path fill-rule="nonzero" fill="rgb(0%, 0%, 0%)" fill-opacity="1" d="M 89.132812 114.023438 L 89.394531 113.214844 C 89.273438 113.074219 88.726562 112.933594 88.355469 112.933594 C 87.828125 112.949219 87.390625 113.214844 87.160156 113.6875 L 87.160156 113.003906 L 86.316406 113.003906 L 86.316406 118.070312 L 87.160156 118.070312 L 87.160156 115.394531 C 87.160156 115.378906 87.160156 115.359375 87.160156 115.359375 C 87.160156 114.621094 87.546875 113.652344 88.339844 113.652344 L 88.390625 113.652344 C 88.65625 113.652344 88.867188 113.8125 89.132812 114.023438 Z M 89.132812 114.023438 "/>
<path fill-rule="nonzero" fill="rgb(0%, 0%, 0%)" fill-opacity="1" d="M 94.0625 118.070312 L 94.0625 115.183594 C 94.0625 113.722656 93.449219 112.878906 91.933594 112.878906 C 91.390625 112.878906 90.722656 113.054688 90.226562 113.230469 L 90.226562 114.058594 C 90.738281 113.777344 91.160156 113.601562 91.863281 113.601562 C 92.675781 113.617188 93.289062 114.023438 93.289062 114.867188 L 92.128906 114.867188 C 90.933594 114.867188 89.875 115.273438 89.875 116.59375 C 89.910156 117.613281 90.507812 118.210938 91.53125 118.210938 C 92.25 118.210938 92.902344 117.910156 93.289062 117.402344 L 93.289062 118.070312 Z M 93.289062 115.710938 C 93.289062 116.699219 92.832031 117.488281 91.777344 117.488281 C 91.160156 117.488281 90.652344 117.207031 90.652344 116.539062 C 90.652344 115.554688 91.582031 115.554688 92.460938 115.554688 L 93.289062 115.554688 Z M 93.289062 115.710938 "/>
<path fill-rule="nonzero" fill="rgb(0%, 0%, 0%)" fill-opacity="1" d="M 96.394531 118.070312 L 96.394531 113.003906 L 95.550781 113.003906 L 95.550781 118.070312 Z M 95.972656 110.308594 C 95.707031 110.308594 95.480469 110.558594 95.480469 110.820312 C 95.480469 111.101562 95.707031 111.347656 95.972656 111.347656 C 96.253906 111.347656 96.464844 111.101562 96.464844 110.820312 C 96.464844 110.558594 96.253906 110.308594 95.972656 110.308594 Z M 95.972656 110.308594 "/>
<path fill-rule="nonzero" fill="rgb(0%, 0%, 0%)" fill-opacity="1" d="M 102.304688 118.070312 L 102.304688 115.007812 C 102.304688 113.8125 101.792969 112.878906 100.492188 112.878906 C 99.839844 112.878906 99.171875 113.125 98.765625 113.6875 L 98.765625 113.003906 L 97.9375 113.003906 L 97.9375 118.070312 L 98.765625 118.070312 L 98.765625 115.203125 C 98.800781 114.234375 99.398438 113.617188 100.296875 113.617188 C 101.175781 113.617188 101.492188 114.144531 101.492188 115.042969 L 101.492188 118.070312 Z M 102.304688 118.070312 "/>
<path fill-rule="nonzero" fill="rgb(0%, 0%, 0%)" fill-opacity="1" d="M 104.628906 118.070312 L 104.628906 113.003906 L 103.785156 113.003906 L 103.785156 118.070312 Z M 104.207031 110.308594 C 103.941406 110.308594 103.714844 110.558594 103.714844 110.820312 C 103.714844 111.101562 103.941406 111.347656 104.207031 111.347656 C 104.488281 111.347656 104.699219 111.101562 104.699219 110.820312 C 104.699219 110.558594 104.488281 110.308594 104.207031 110.308594 Z M 104.207031 110.308594 "/>
<path fill-rule="nonzero" fill="rgb(0%, 0%, 0%)" fill-opacity="1" d="M 110.539062 118.070312 L 110.539062 115.007812 C 110.539062 113.8125 110.027344 112.878906 108.726562 112.878906 C 108.074219 112.878906 107.40625 113.125 107 113.6875 L 107 113.003906 L 106.175781 113.003906 L 106.175781 118.070312 L 107 118.070312 L 107 115.203125 C 107.035156 114.234375 107.632812 113.617188 108.53125 113.617188 C 109.410156 113.617188 109.730469 114.144531 109.730469 115.042969 L 109.730469 118.070312 Z M 110.539062 118.070312 "/>
<path fill-rule="nonzero" fill="rgb(0%, 0%, 0%)" fill-opacity="1" d="M 113.550781 117.945312 C 114.5 117.945312 115.152344 118.40625 115.152344 119.019531 C 115.152344 119.636719 114.5 120.078125 113.550781 120.078125 C 112.601562 120.078125 112.070312 119.636719 112.070312 119.019531 C 112.070312 118.40625 112.601562 117.945312 113.550781 117.945312 Z M 113.550781 117.226562 C 113.460938 117.226562 113.375 117.226562 113.269531 117.242188 C 112.742188 117.242188 112.285156 116.925781 112.285156 116.714844 C 112.285156 116.46875 112.566406 116.382812 112.777344 116.382812 L 112.847656 116.382812 C 113.023438 116.539062 113.550781 116.59375 113.707031 116.59375 C 114.675781 116.59375 115.449219 115.765625 115.449219 114.746094 C 115.449219 114.339844 115.308594 113.953125 115.082031 113.652344 L 115.90625 113.652344 L 115.90625 113.019531 L 114.484375 113.019531 C 114.253906 112.949219 113.9375 112.914062 113.761719 112.914062 C 112.792969 112.914062 111.984375 113.742188 111.949219 114.746094 C 111.949219 115.238281 112.125 115.675781 112.441406 115.992188 C 112.070312 116.0625 111.667969 116.3125 111.667969 116.785156 C 111.667969 117.085938 111.859375 117.367188 112.265625 117.542969 C 111.613281 117.875 111.226562 118.421875 111.226562 119.003906 C 111.226562 119.917969 112.160156 120.761719 113.550781 120.761719 C 114.957031 120.761719 116.101562 119.917969 116.101562 119.019531 C 116.101562 117.839844 114.730469 117.226562 113.550781 117.226562 Z M 113.707031 113.617188 C 114.308594 113.617188 114.800781 114.109375 114.800781 114.726562 C 114.800781 115.324219 114.308594 115.816406 113.707031 115.816406 C 113.09375 115.816406 112.617188 115.324219 112.617188 114.726562 C 112.617188 114.109375 113.09375 113.617188 113.707031 113.617188 Z M 113.707031 113.617188 "/>
<path fill-rule="nonzero" fill="rgb(0%, 0%, 0%)" fill-opacity="1" d="M 124.304688 116.664062 C 124.304688 115.660156 123.617188 115.34375 122.703125 115.167969 L 122.351562 115.097656 C 121.859375 114.992188 121.136719 114.886719 121.136719 114.339844 C 121.171875 113.707031 121.910156 113.582031 122.472656 113.582031 C 123.371094 113.617188 123.300781 113.671875 124.058594 113.988281 L 124.058594 113.160156 C 123.582031 112.96875 122.984375 112.878906 122.367188 112.878906 C 121.367188 112.878906 120.378906 113.25 120.378906 114.375 C 120.398438 115.289062 121.011719 115.640625 121.859375 115.800781 L 122.175781 115.871094 C 122.789062 116.011719 123.496094 116.082031 123.496094 116.734375 C 123.460938 117.367188 122.738281 117.488281 122.175781 117.488281 C 121.242188 117.472656 121.101562 117.367188 120.292969 116.980469 L 120.292969 117.894531 C 120.765625 118.015625 121.59375 118.210938 122.15625 118.210938 C 123.140625 118.210938 124.304688 117.839844 124.304688 116.664062 Z M 124.304688 116.664062 "/>
<path fill-rule="nonzero" fill="rgb(0%, 0%, 0%)" fill-opacity="1" d="M 128.371094 118.070312 L 128.371094 117.347656 L 127.492188 117.347656 C 126.699219 117.347656 126.558594 117.15625 126.558594 116.417969 L 126.558594 113.671875 L 128.054688 113.671875 L 128.054688 113.003906 L 126.558594 113.003906 L 126.558594 111.558594 L 126.207031 111.558594 L 125.730469 113.003906 L 125.132812 113.003906 L 125.132812 113.671875 L 125.730469 113.671875 L 125.730469 116.417969 C 125.730469 117.683594 126.242188 118.070312 127.492188 118.070312 Z M 128.371094 118.070312 "/>
<path fill-rule="nonzero" fill="rgb(0%, 0%, 0%)" fill-opacity="1" d="M 133.417969 115.535156 L 133.417969 115.449219 C 133.417969 113.988281 132.820312 112.914062 131.148438 112.878906 C 129.652344 112.878906 128.808594 114.179688 128.808594 115.589844 C 128.808594 117.121094 129.742188 118.210938 131.289062 118.210938 C 131.992188 118.210938 132.628906 118.050781 133.242188 117.824219 L 133.242188 116.980469 C 132.433594 117.367188 132.3125 117.453125 131.359375 117.453125 C 130.304688 117.453125 129.671875 116.820312 129.671875 115.625 L 129.671875 115.535156 Z M 132.59375 114.851562 L 129.707031 114.851562 C 129.8125 114.179688 130.304688 113.601562 131.148438 113.601562 C 132.027344 113.601562 132.59375 114.144531 132.59375 114.851562 Z M 132.59375 114.851562 "/>
<path fill-rule="nonzero" fill="rgb(0%, 0%, 0%)" fill-opacity="1" d="M 139.28125 115.535156 C 139.28125 114.058594 138.296875 113.003906 136.800781 113.003906 L 134.636719 113.003906 L 134.636719 120.78125 L 135.480469 120.78125 L 135.480469 118.070312 L 136.730469 118.070312 C 138.367188 118.070312 139.28125 117.050781 139.28125 115.535156 Z M 138.472656 115.535156 C 138.472656 116.539062 137.839844 117.332031 136.730469 117.332031 L 135.480469 117.332031 L 135.480469 113.742188 L 136.730469 113.742188 C 137.824219 113.742188 138.472656 114.464844 138.472656 115.535156 Z M 138.472656 115.535156 "/>
<path fill="none" stroke-width="0.850394" stroke-linecap="butt" stroke-linejoin="miter" stroke="rgb(50.195312%, 50.195312%, 50.195312%)" stroke-opacity="1" stroke-miterlimit="4" d="M 28.292969 100.746094 L 28.292969 102.628906 "/>
<path fill="none" stroke-width="0.850394" stroke-linecap="butt" stroke-linejoin="miter" stroke="rgb(50.195312%, 50.195312%, 50.195312%)" stroke-opacity="1" stroke-miterlimit="4" d="M 181.429688 100.746094 L 181.429688 102.628906 "/>
<path fill="none" stroke-width="0.850394" stroke-linecap="butt" stroke-linejoin="miter" stroke="rgb(50.195312%, 50.195312%, 50.195312%)" stroke-opacity="1" stroke-miterlimit="4" d="M 28.113281 4.75 L 26.230469 4.75 "/>
<path fill="none" stroke-width="0.850394" stroke-linecap="butt" stroke-linejoin="miter" stroke="rgb(50.195312%, 50.195312%, 50.195312%)" stroke-opacity="1" stroke-miterlimit="4" d="M 28.113281 52.527344 L 26.230469 52.527344 "/>
<path fill="none" stroke-width="0.850394" stroke-linecap="butt" stroke-linejoin="miter" stroke="rgb(50.195312%, 50.195312%, 50.195312%)" stroke-opacity="1" stroke-miterlimit="4" d="M 28.027344 100.304688 L 26.144531 100.304688 "/>
<path fill="none" stroke-width="0.850394" stroke-linecap="butt" stroke-linejoin="miter" stroke="rgb(50.195312%, 50.195312%, 50.195312%)" stroke-opacity="1" stroke-miterlimit="4" d="M 28.113281 14.304688 L 26.828125 14.304688 "/>
<path fill="none" stroke-width="0.850394" stroke-linecap="butt" stroke-linejoin="miter" stroke="rgb(50.195312%, 50.195312%, 50.195312%)" stroke-opacity="1" stroke-miterlimit="4" d="M 28.113281 23.863281 L 26.828125 23.863281 "/>
<path fill="none" stroke-width="0.850394" stroke-linecap="butt" stroke-linejoin="miter" stroke="rgb(50.195312%, 50.195312%, 50.195312%)" stroke-opacity="1" stroke-miterlimit="4" d="M 28.113281 33.417969 L 26.828125 33.417969 "/>
<path fill="none" stroke-width="0.850394" stroke-linecap="butt" stroke-linejoin="miter" stroke="rgb(50.195312%, 50.195312%, 50.195312%)" stroke-opacity="1" stroke-miterlimit="4" d="M 28.113281 42.972656 L 26.828125 42.972656 "/>
<path fill="none" stroke-width="0.850394" stroke-linecap="butt" stroke-linejoin="miter" stroke="rgb(50.195312%, 50.195312%, 50.195312%)" stroke-opacity="1" stroke-miterlimit="4" d="M 28.113281 62.082031 L 26.828125 62.082031 "/>
<path fill="none" stroke-width="0.850394" stroke-linecap="butt" stroke-linejoin="miter" stroke="rgb(50.195312%, 50.195312%, 50.195312%)" stroke-opacity="1" stroke-miterlimit="4" d="M 28.113281 71.636719 L 26.828125 71.636719 "/>
<path fill="none" stroke-width="0.850394" stroke-linecap="butt" stroke-linejoin="miter" stroke="rgb(50.195312%, 50.195312%, 50.195312%)" stroke-opacity="1" stroke-miterlimit="4" d="M 28.113281 81.195312 L 26.828125 81.195312 "/>
<path fill-rule="nonzero" fill="rgb(50.195312%, 50.195312%, 50.195312%)" fill-opacity="1" d="M 15.277344 7.261719 L 15.277344 1.800781 L 14.621094 1.800781 L 13.84375 2.429688 L 13.84375 3.050781 L 14.660156 2.382812 L 14.660156 7.261719 Z M 15.277344 7.261719 "/>
<path fill-rule="nonzero" fill="rgb(50.195312%, 50.195312%, 50.195312%)" fill-opacity="1" d="M 19.859375 4.550781 C 19.847656 3.386719 19.585938 1.699219 18.113281 1.699219 C 16.640625 1.699219 16.390625 3.410156 16.390625 4.550781 C 16.390625 5.703125 16.652344 7.375 18.113281 7.375 C 19.574219 7.375 19.859375 5.703125 19.859375 4.550781 Z M 19.289062 4.550781 C 19.289062 5.304688 19.226562 6.851562 18.113281 6.851562 C 17 6.851562 16.960938 5.28125 16.960938 4.550781 C 16.960938 3.804688 16.984375 2.207031 18.113281 2.207031 C 19.226562 2.207031 19.289062 3.820312 19.289062 4.550781 Z M 19.289062 4.550781 "/>
<path fill-rule="nonzero" fill="rgb(50.195312%, 50.195312%, 50.195312%)" fill-opacity="1" d="M 24.265625 4.550781 C 24.253906 3.386719 23.992188 1.699219 22.519531 1.699219 C 21.046875 1.699219 20.796875 3.410156 20.796875 4.550781 C 20.796875 5.703125 21.058594 7.375 22.519531 7.375 C 23.980469 7.375 24.265625 5.703125 24.265625 4.550781 Z M 23.695312 4.550781 C 23.695312 5.304688 23.632812 6.851562 22.519531 6.851562 C 21.40625 6.851562 21.367188 5.28125 21.367188 4.550781 C 21.367188 3.804688 21.390625 2.207031 22.519531 2.207031 C 23.632812 2.207031 23.695312 3.820312 23.695312 4.550781 Z M 23.695312 4.550781 "/>
<path fill-rule="nonzero" fill="rgb(50.195312%, 50.195312%, 50.195312%)" fill-opacity="1" d="M 24.265625 99.417969 C 24.253906 98.253906 23.992188 96.570312 22.519531 96.570312 C 21.046875 96.570312 20.796875 98.28125 20.796875 99.417969 C 20.796875 100.570312 21.058594 102.242188 22.519531 102.242188 C 23.980469 102.242188 24.265625 100.570312 24.265625 99.417969 Z M 23.695312 99.417969 C 23.695312 100.175781 23.632812 101.722656 22.519531 101.722656 C 21.40625 101.722656 21.367188 100.148438 21.367188 99.417969 C 21.367188 98.675781 21.390625 97.078125 22.519531 97.078125 C 23.632812 97.078125 23.695312 98.6875 23.695312 99.417969 Z M 23.695312 99.417969 "/>
<path fill="none" stroke-width="1.417323" stroke-linecap="butt" stroke-linejoin="miter" stroke="rgb(68.234253%, 76.469421%, 81.175232%)" stroke-opacity="1" stroke-miterlimit="4" d="M 140.949219 19.269531 C 148.988281 19.269531 148.988281 19.269531 148.988281 19.269531 "/>
<path fill="none" stroke-width="1.417323" stroke-linecap="butt" stroke-linejoin="miter" stroke="rgb(77.645874%, 80.39093%, 81.175232%)" stroke-opacity="1" stroke-miterlimit="4" d="M 140.949219 27.59375 C 148.988281 27.59375 148.988281 27.59375 148.988281 27.59375 "/>
<path fill="none" stroke-width="1.417323" stroke-linecap="butt" stroke-linejoin="miter" stroke="rgb(81.959534%, 51.371765%, 38.430786%)" stroke-opacity="1" stroke-miterlimit="4" d="M 140.949219 35.921875 C 148.988281 35.921875 148.988281 35.921875 148.988281 35.921875 "/>
<path fill="none" stroke-width="1.417323" stroke-linecap="butt" stroke-linejoin="miter" stroke="rgb(62.35199%, 85.096741%, 82.351685%)" stroke-opacity="1" stroke-miterlimit="4" d="M 140.949219 44.246094 C 148.988281 44.246094 148.988281 44.246094 148.988281 44.246094 "/>
<path fill="none" stroke-width="0.850394" stroke-linecap="butt" stroke-linejoin="round" stroke="rgb(1.176453%, 0%, 0%)" stroke-opacity="1" stroke-miterlimit="4" d="M 28.300781 4.777344 L 181.429688 4.777344 L 181.429688 100.363281 L 28.300781 100.363281 Z M 28.300781 4.777344 "/>
<path fill-rule="nonzero" fill="rgb(50.195312%, 50.195312%, 50.195312%)" fill-opacity="1" d="M 170.46875 109.582031 L 170.46875 104.121094 L 169.808594 104.121094 L 169.03125 104.753906 L 169.03125 105.371094 L 169.847656 104.703125 L 169.847656 109.582031 Z M 170.46875 109.582031 "/>
<path fill-rule="nonzero" fill="rgb(50.195312%, 50.195312%, 50.195312%)" fill-opacity="1" d="M 175.046875 106.871094 C 175.035156 105.707031 174.773438 104.019531 173.300781 104.019531 C 171.828125 104.019531 171.578125 105.730469 171.578125 106.871094 C 171.578125 108.023438 171.839844 109.695312 173.300781 109.695312 C 174.761719 109.695312 175.046875 108.023438 175.046875 106.871094 Z M 174.476562 106.871094 C 174.476562 107.625 174.414062 109.175781 173.300781 109.175781 C 172.1875 109.175781 172.148438 107.601562 172.148438 106.871094 C 172.148438 106.125 172.175781 104.527344 173.300781 104.527344 C 174.414062 104.527344 174.476562 106.140625 174.476562 106.871094 Z M 174.476562 106.871094 "/>
<path fill-rule="nonzero" fill="rgb(50.195312%, 50.195312%, 50.195312%)" fill-opacity="1" d="M 179.453125 106.871094 C 179.441406 105.707031 179.183594 104.019531 177.707031 104.019531 C 176.234375 104.019531 175.984375 105.730469 175.984375 106.871094 C 175.984375 108.023438 176.246094 109.695312 177.707031 109.695312 C 179.167969 109.695312 179.453125 108.023438 179.453125 106.871094 Z M 178.882812 106.871094 C 178.882812 107.625 178.824219 109.175781 177.707031 109.175781 C 176.59375 109.175781 176.554688 107.601562 176.554688 106.871094 C 176.554688 106.125 176.582031 104.527344 177.707031 104.527344 C 178.824219 104.527344 178.882812 106.140625 178.882812 106.871094 Z M 178.882812 106.871094 "/>
<path fill-rule="nonzero" fill="rgb(50.195312%, 50.195312%, 50.195312%)" fill-opacity="1" d="M 183.859375 106.871094 C 183.847656 105.707031 183.589844 104.019531 182.113281 104.019531 C 180.640625 104.019531 180.394531 105.730469 180.394531 106.871094 C 180.394531 108.023438 180.652344 109.695312 182.113281 109.695312 C 183.578125 109.695312 183.859375 108.023438 183.859375 106.871094 Z M 183.292969 106.871094 C 183.292969 107.625 183.230469 109.175781 182.113281 109.175781 C 181 109.175781 180.960938 107.601562 180.960938 106.871094 C 180.960938 106.125 180.988281 104.527344 182.113281 104.527344 C 183.230469 104.527344 183.292969 106.140625 183.292969 106.871094 Z M 183.292969 106.871094 "/>
<path fill-rule="nonzero" fill="rgb(50.195312%, 50.195312%, 50.195312%)" fill-opacity="1" d="M 188.269531 106.871094 C 188.253906 105.707031 187.996094 104.019531 186.523438 104.019531 C 185.046875 104.019531 184.800781 105.730469 184.800781 106.871094 C 184.800781 108.023438 185.058594 109.695312 186.523438 109.695312 C 187.984375 109.695312 188.269531 108.023438 188.269531 106.871094 Z M 187.699219 106.871094 C 187.699219 107.625 187.636719 109.175781 186.523438 109.175781 C 185.40625 109.175781 185.371094 107.601562 185.371094 106.871094 C 185.371094 106.125 185.394531 104.527344 186.523438 104.527344 C 187.636719 104.527344 187.699219 106.140625 187.699219 106.871094 Z M 187.699219 106.871094 "/>
<path fill-rule="nonzero" fill="rgb(50.195312%, 50.195312%, 50.195312%)" fill-opacity="1" d="M 24.515625 109.578125 L 24.515625 104.117188 L 23.859375 104.117188 L 23.082031 104.746094 L 23.082031 105.367188 L 23.898438 104.699219 L 23.898438 109.578125 Z M 24.515625 109.578125 "/>
<path fill-rule="nonzero" fill="rgb(50.195312%, 50.195312%, 50.195312%)" fill-opacity="1" d="M 29.097656 106.867188 C 29.085938 105.703125 28.824219 104.015625 27.351562 104.015625 C 25.878906 104.015625 25.628906 105.726562 25.628906 106.867188 C 25.628906 108.019531 25.890625 109.691406 27.351562 109.691406 C 28.8125 109.691406 29.097656 108.019531 29.097656 106.867188 Z M 28.527344 106.867188 C 28.527344 107.621094 28.464844 109.167969 27.351562 109.167969 C 26.238281 109.167969 26.199219 107.597656 26.199219 106.867188 C 26.199219 106.121094 26.222656 104.523438 27.351562 104.523438 C 28.464844 104.523438 28.527344 106.136719 28.527344 106.867188 Z M 28.527344 106.867188 "/>
<path fill-rule="nonzero" fill="rgb(50.195312%, 50.195312%, 50.195312%)" fill-opacity="1" d="M 33.503906 106.867188 C 33.492188 105.703125 33.234375 104.015625 31.757812 104.015625 C 30.285156 104.015625 30.035156 105.726562 30.035156 106.867188 C 30.035156 108.019531 30.296875 109.691406 31.757812 109.691406 C 33.21875 109.691406 33.503906 108.019531 33.503906 106.867188 Z M 32.933594 106.867188 C 32.933594 107.621094 32.875 109.167969 31.757812 109.167969 C 30.644531 109.167969 30.605469 107.597656 30.605469 106.867188 C 30.605469 106.121094 30.632812 104.523438 31.757812 104.523438 C 32.875 104.523438 32.933594 106.136719 32.933594 106.867188 Z M 32.933594 106.867188 "/>
<path fill-rule="nonzero" fill="rgb(50.195312%, 50.195312%, 50.195312%)" fill-opacity="1" d="M 98.882812 109.582031 L 98.882812 104.121094 L 98.226562 104.121094 L 97.445312 104.753906 L 97.445312 105.371094 L 98.265625 104.703125 L 98.265625 109.582031 Z M 98.882812 109.582031 "/>
<path fill-rule="nonzero" fill="rgb(50.195312%, 50.195312%, 50.195312%)" fill-opacity="1" d="M 103.464844 106.871094 C 103.453125 105.707031 103.191406 104.019531 101.71875 104.019531 C 100.242188 104.019531 99.996094 105.730469 99.996094 106.871094 C 99.996094 108.023438 100.257812 109.695312 101.71875 109.695312 C 103.179688 109.695312 103.464844 108.023438 103.464844 106.871094 Z M 102.894531 106.871094 C 102.894531 107.625 102.832031 109.175781 101.71875 109.175781 C 100.601562 109.175781 100.566406 107.601562 100.566406 106.871094 C 100.566406 106.125 100.589844 104.527344 101.71875 104.527344 C 102.832031 104.527344 102.894531 106.140625 102.894531 106.871094 Z M 102.894531 106.871094 "/>
<path fill-rule="nonzero" fill="rgb(50.195312%, 50.195312%, 50.195312%)" fill-opacity="1" d="M 107.871094 106.871094 C 107.859375 105.707031 107.597656 104.019531 106.125 104.019531 C 104.652344 104.019531 104.402344 105.730469 104.402344 106.871094 C 104.402344 108.023438 104.664062 109.695312 106.125 109.695312 C 107.585938 109.695312 107.871094 108.023438 107.871094 106.871094 Z M 107.300781 106.871094 C 107.300781 107.625 107.238281 109.175781 106.125 109.175781 C 105.007812 109.175781 104.972656 107.601562 104.972656 106.871094 C 104.972656 106.125 104.996094 104.527344 106.125 104.527344 C 107.238281 104.527344 107.300781 106.140625 107.300781 106.871094 Z M 107.300781 106.871094 "/>
<path fill-rule="nonzero" fill="rgb(50.195312%, 50.195312%, 50.195312%)" fill-opacity="1" d="M 112.277344 106.871094 C 112.265625 105.707031 112.003906 104.019531 110.53125 104.019531 C 109.058594 104.019531 108.808594 105.730469 108.808594 106.871094 C 108.808594 108.023438 109.070312 109.695312 110.53125 109.695312 C 111.992188 109.695312 112.277344 108.023438 112.277344 106.871094 Z M 111.707031 106.871094 C 111.707031 107.625 111.644531 109.175781 110.53125 109.175781 C 109.417969 109.175781 109.378906 107.601562 109.378906 106.871094 C 109.378906 106.125 109.402344 104.527344 110.53125 104.527344 C 111.644531 104.527344 111.707031 106.140625 111.707031 106.871094 Z M 111.707031 106.871094 "/>
<path fill="none" stroke-width="0.850394" stroke-linecap="butt" stroke-linejoin="miter" stroke="rgb(50.195312%, 50.195312%, 50.195312%)" stroke-opacity="1" stroke-miterlimit="4" d="M 104.863281 100.746094 L 104.863281 102.628906 "/>
<path fill="none" stroke-width="1.764539" stroke-linecap="square" stroke-linejoin="round" stroke="rgb(68.234253%, 76.469421%, 81.175232%)" stroke-opacity="1" stroke-miterlimit="10" d="M 29.164062 133.310103 L 52.011719 151.243818 L 65.375 154.065259 C 66.363281 153.653547 132.386719 154.464863 181.054688 154.464863 L 180.953125 154.464863 " transform="matrix(1, 0, 0, 0.645171, 0, 0)"/>
<path fill="none" stroke-width="1.764539" stroke-linecap="square" stroke-linejoin="round" stroke="rgb(77.645874%, 80.39093%, 81.175232%)" stroke-opacity="1" stroke-miterlimit="10" d="M 29.164062 49.181486 L 52.011719 78.364641 L 65.375 105.216776 L 74.859375 125.281708 L 82.210938 137.620976 L 88.222656 146.339594 L 93.304688 150.995579 L 97.703125 152.926995 L 101.585938 153.968386 L 108.199219 154.416426 L 118.421875 154.464863 L 181.054688 154.464863 L 180.953125 154.464863 " transform="matrix(1, 0, 0, 0.645171, 0, 0)"/>
<path fill="none" stroke-width="1.764539" stroke-linecap="square" stroke-linejoin="round" stroke="rgb(81.959534%, 51.371765%, 38.430786%)" stroke-opacity="1" stroke-miterlimit="10" d="M 29.164062 27.53025 L 52.011719 35.558645 L 65.375 43.211654 L 74.859375 55.175537 L 82.210938 69.373565 L 88.222656 82.899534 L 101.585938 117.307805 L 105.058594 124.80945 L 108.199219 132.020474 L 111.066406 137.742068 L 113.707031 142.204305 L 116.148438 145.994482 L 118.421875 148.295229 L 122.546875 151.268036 L 124.433594 152.460791 L 126.214844 153.126797 L 131.046875 154.240843 L 150.511719 154.392208 L 180.550781 154.464863 L 180.449219 154.464863 " transform="matrix(1, 0, 0, 0.645171, 0, 0)"/>
<path fill="none" stroke-width="1.764539" stroke-linecap="square" stroke-linejoin="round" stroke="rgb(62.35199%, 85.096741%, 82.351685%)" stroke-opacity="1" stroke-miterlimit="10" d="M 29.164062 23.292032 L 52.011719 25.078138 L 65.375 28.196255 L 74.859375 31.768467 L 82.210938 35.6313 L 88.222656 42.097609 L 93.304688 48.339897 L 97.703125 54.654842 L 101.585938 62.162541 L 108.199219 77.09923 L 113.707031 91.739244 L 120.550781 113.959613 L 124.433594 125.70553 L 126.214844 129.416998 L 129.511719 137.372737 L 131.046875 141.532245 L 133.914062 146.884508 L 136.554688 149.56064 L 140.152344 152.085406 L 142.351562 153.126797 L 145.394531 153.871512 L 147.277344 154.168188 L 152.359375 154.464863 L 166.242188 154.464863 L 166.753906 153.574837 L 167.257812 154.313498 L 168.242188 154.392208 L 168.722656 154.016823 L 169.195312 154.313498 L 170.578125 154.240843 L 171.027344 150.450665 L 171.46875 153.278162 L 171.90625 154.392208 L 172.761719 154.392208 L 173.183594 153.871512 L 173.597656 149.33662 L 174.007812 154.168188 L 175.597656 154.464863 L 175.980469 152.757467 L 176.363281 153.871512 L 176.738281 152.975432 L 177.480469 154.392208 L 177.84375 154.313498 L 178.203125 153.871512 L 178.558594 154.313498 L 178.914062 154.392208 L 179.605469 153.350817 L 179.949219 152.757467 L 180.285156 154.464863 " transform="matrix(1, 0, 0, 0.645171, 0, 0)"/>
<path fill="none" stroke-width="0.850394" stroke-linecap="butt" stroke-linejoin="round" stroke="rgb(1.176453%, 0%, 0%)" stroke-opacity="1" stroke-miterlimit="4" d="M 28.300781 -4.777344 L 181.429688 -4.777344 L 181.429688 -100.363281 L 28.300781 -100.363281 Z M 28.300781 -4.777344 " transform="matrix(1, 0, 0, -1, 0, 0)"/>
<path fill="none" stroke-width="1.417323" stroke-linecap="butt" stroke-linejoin="miter" stroke="rgb(25.881958%, 29.411316%, 30.979919%)" stroke-opacity="1" stroke-miterlimit="4" d="M 140.949219 11.476562 C 148.988281 11.476562 148.988281 11.476562 148.988281 11.476562 "/>
<path fill-rule="nonzero" fill="rgb(0%, 0%, 0%)" fill-opacity="1" d="M 154.695312 12.800781 L 155.488281 12.03125 C 156.640625 11.003906 157.085938 10.609375 157.085938 9.863281 C 157.085938 9.011719 156.421875 8.417969 155.511719 8.417969 C 154.671875 8.417969 154.125 9.105469 154.125 9.769531 C 154.125 10.175781 154.496094 10.175781 154.519531 10.175781 C 154.648438 10.175781 154.90625 10.097656 154.90625 9.78125 C 154.90625 9.59375 154.765625 9.398438 154.507812 9.398438 C 154.449219 9.398438 154.4375 9.398438 154.414062 9.410156 C 154.578125 8.917969 154.988281 8.652344 155.417969 8.652344 C 156.09375 8.652344 156.410156 9.257812 156.410156 9.863281 C 156.410156 10.457031 156.046875 11.039062 155.628906 11.507812 L 154.207031 13.09375 C 154.125 13.171875 154.125 13.195312 154.125 13.371094 L 156.886719 13.371094 L 157.085938 12.078125 L 156.910156 12.078125 C 156.863281 12.300781 156.816406 12.625 156.734375 12.742188 C 156.6875 12.800781 156.199219 12.800781 156.035156 12.800781 Z M 154.695312 12.800781 "/>
<path fill-rule="nonzero" fill="rgb(0%, 0%, 0%)" fill-opacity="1" d="M 162.011719 11.308594 L 160.53125 9.828125 C 160.4375 9.734375 160.425781 9.722656 160.367188 9.722656 C 160.285156 9.722656 160.214844 9.78125 160.214844 9.875 C 160.214844 9.921875 160.226562 9.933594 160.308594 10.015625 L 161.800781 11.507812 L 160.308594 13.011719 C 160.226562 13.09375 160.214844 13.101562 160.214844 13.148438 C 160.214844 13.242188 160.285156 13.300781 160.367188 13.300781 C 160.425781 13.300781 160.4375 13.289062 160.53125 13.195312 L 162.011719 11.714844 L 163.550781 13.253906 C 163.5625 13.265625 163.609375 13.300781 163.65625 13.300781 C 163.746094 13.300781 163.804688 13.242188 163.804688 13.148438 C 163.804688 13.136719 163.804688 13.113281 163.78125 13.070312 C 163.769531 13.058594 162.59375 11.890625 162.21875 11.507812 L 163.585938 10.152344 C 163.621094 10.109375 163.734375 10.015625 163.769531 9.96875 C 163.769531 9.957031 163.804688 9.921875 163.804688 9.875 C 163.804688 9.78125 163.746094 9.722656 163.65625 9.722656 C 163.597656 9.722656 163.574219 9.746094 163.492188 9.828125 Z M 162.011719 11.308594 "/>
<path fill-rule="nonzero" fill="rgb(0%, 0%, 0%)" fill-opacity="1" d="M 167.203125 12.929688 C 167.179688 13.046875 167.132812 13.21875 167.132812 13.253906 C 167.132812 13.382812 167.238281 13.453125 167.355469 13.453125 C 167.449219 13.453125 167.578125 13.394531 167.636719 13.242188 C 167.648438 13.21875 167.890625 12.207031 167.925781 12.066406 C 167.984375 11.820312 168.125 11.308594 168.160156 11.097656 C 168.195312 11.003906 168.40625 10.65625 168.582031 10.492188 C 168.636719 10.445312 168.859375 10.246094 169.175781 10.246094 C 169.371094 10.246094 169.476562 10.339844 169.488281 10.339844 C 169.269531 10.375 169.105469 10.550781 169.105469 10.75 C 169.105469 10.867188 169.1875 11.003906 169.382812 11.003906 C 169.582031 11.003906 169.792969 10.832031 169.792969 10.5625 C 169.792969 10.304688 169.558594 10.085938 169.175781 10.085938 C 168.695312 10.085938 168.371094 10.445312 168.230469 10.65625 C 168.160156 10.316406 167.890625 10.085938 167.542969 10.085938 C 167.203125 10.085938 167.066406 10.375 166.996094 10.503906 C 166.867188 10.761719 166.773438 11.203125 166.773438 11.226562 C 166.773438 11.308594 166.84375 11.308594 166.855469 11.308594 C 166.9375 11.308594 166.9375 11.296875 166.984375 11.132812 C 167.113281 10.609375 167.261719 10.246094 167.53125 10.246094 C 167.648438 10.246094 167.753906 10.304688 167.753906 10.585938 C 167.753906 10.75 167.730469 10.832031 167.636719 11.214844 Z M 167.203125 12.929688 "/>
<path fill-rule="nonzero" fill="rgb(0%, 0%, 0%)" fill-opacity="1" d="M 171.539062 11.035156 C 171.539062 11.023438 171.550781 10.953125 171.550781 10.953125 C 171.550781 10.917969 171.539062 10.871094 171.46875 10.871094 C 171.363281 10.871094 170.929688 10.917969 170.804688 10.929688 C 170.769531 10.929688 170.6875 10.941406 170.6875 11.046875 C 170.6875 11.117188 170.769531 11.117188 170.828125 11.117188 C 171.070312 11.117188 171.070312 11.164062 171.070312 11.199219 C 171.070312 11.234375 171.058594 11.269531 171.058594 11.316406 L 170.324219 14.253906 C 170.289062 14.347656 170.289062 14.359375 170.289062 14.371094 C 170.289062 14.453125 170.359375 14.53125 170.476562 14.53125 C 170.535156 14.53125 170.628906 14.507812 170.6875 14.40625 C 170.699219 14.371094 170.746094 14.183594 170.769531 14.078125 L 170.894531 13.613281 C 170.90625 13.53125 170.964844 13.332031 170.976562 13.261719 C 171.023438 13.0625 171.023438 13.050781 171.128906 12.890625 C 171.304688 12.632812 171.5625 12.339844 171.96875 12.339844 C 172.261719 12.339844 172.273438 12.574219 172.273438 12.703125 C 172.273438 13.015625 172.050781 13.589844 171.96875 13.808594 C 171.910156 13.960938 171.886719 14.007812 171.886719 14.089844 C 171.886719 14.371094 172.121094 14.53125 172.375 14.53125 C 172.902344 14.53125 173.132812 13.820312 173.132812 13.738281 C 173.132812 13.671875 173.0625 13.671875 173.042969 13.671875 C 172.972656 13.671875 172.972656 13.707031 172.949219 13.761719 C 172.832031 14.183594 172.597656 14.394531 172.398438 14.394531 C 172.285156 14.394531 172.261719 14.324219 172.261719 14.207031 C 172.261719 14.089844 172.296875 14.019531 172.386719 13.785156 C 172.445312 13.625 172.65625 13.074219 172.65625 12.785156 C 172.65625 12.703125 172.65625 12.480469 172.46875 12.328125 C 172.375 12.269531 172.226562 12.191406 171.980469 12.191406 C 171.605469 12.191406 171.328125 12.398438 171.140625 12.621094 Z M 171.539062 11.035156 "/>
<path fill-rule="nonzero" fill="rgb(0%, 0%, 0%)" fill-opacity="1" d="M 174.550781 13.296875 C 174.691406 13.296875 175.109375 13.285156 175.390625 13.191406 C 175.773438 13.050781 175.84375 12.808594 175.84375 12.65625 C 175.84375 12.363281 175.554688 12.191406 175.203125 12.191406 C 174.574219 12.191406 173.734375 12.667969 173.734375 13.566406 C 173.734375 14.089844 174.0625 14.53125 174.667969 14.53125 C 175.554688 14.53125 175.960938 14.019531 175.960938 13.949219 C 175.960938 13.914062 175.914062 13.855469 175.867188 13.855469 C 175.84375 13.855469 175.832031 13.867188 175.785156 13.914062 C 175.378906 14.394531 174.773438 14.394531 174.679688 14.394531 C 174.363281 14.394531 174.15625 14.183594 174.15625 13.761719 C 174.15625 13.695312 174.15625 13.589844 174.222656 13.296875 Z M 174.257812 13.15625 C 174.480469 12.398438 175.050781 12.339844 175.203125 12.339844 C 175.425781 12.339844 175.625 12.457031 175.625 12.65625 C 175.625 13.15625 174.738281 13.15625 174.515625 13.15625 Z M 174.257812 13.15625 "/>
<path fill-rule="nonzero" fill="rgb(0%, 0%, 0%)" fill-opacity="1" d="M 156.023438 19.980469 L 156.023438 20.621094 C 156.023438 20.890625 156 20.972656 155.453125 20.972656 L 155.300781 20.972656 L 155.300781 21.207031 C 155.605469 21.183594 155.988281 21.183594 156.304688 21.183594 C 156.617188 21.183594 157.003906 21.183594 157.316406 21.207031 L 157.316406 20.972656 L 157.15625 20.972656 C 156.605469 20.972656 156.59375 20.890625 156.59375 20.621094 L 156.59375 19.980469 L 157.328125 19.980469 L 157.328125 19.75 L 156.59375 19.75 L 156.59375 16.367188 C 156.59375 16.214844 156.59375 16.167969 156.46875 16.167969 C 156.410156 16.167969 156.386719 16.167969 156.328125 16.261719 L 154.042969 19.75 L 154.042969 19.980469 Z M 156.058594 19.75 L 154.253906 19.75 L 156.058594 16.972656 Z M 156.058594 19.75 "/>
<path fill-rule="nonzero" fill="rgb(0%, 0%, 0%)" fill-opacity="1" d="M 162.09375 19.140625 L 160.613281 17.660156 C 160.519531 17.570312 160.507812 17.558594 160.449219 17.558594 C 160.367188 17.558594 160.296875 17.613281 160.296875 17.707031 C 160.296875 17.753906 160.308594 17.765625 160.390625 17.847656 L 161.882812 19.339844 L 160.390625 20.84375 C 160.308594 20.925781 160.296875 20.9375 160.296875 20.984375 C 160.296875 21.078125 160.367188 21.136719 160.449219 21.136719 C 160.507812 21.136719 160.519531 21.125 160.613281 21.03125 L 162.09375 19.550781 L 163.632812 21.089844 C 163.644531 21.101562 163.6875 21.136719 163.734375 21.136719 C 163.828125 21.136719 163.886719 21.078125 163.886719 20.984375 C 163.886719 20.972656 163.886719 20.949219 163.863281 20.902344 C 163.851562 20.890625 162.675781 19.726562 162.300781 19.339844 L 163.667969 17.988281 C 163.699219 17.941406 163.816406 17.847656 163.851562 17.800781 C 163.851562 17.789062 163.886719 17.753906 163.886719 17.707031 C 163.886719 17.613281 163.828125 17.558594 163.734375 17.558594 C 163.675781 17.558594 163.65625 17.582031 163.574219 17.660156 Z M 162.09375 19.140625 "/>
<path fill-rule="nonzero" fill="rgb(0%, 0%, 0%)" fill-opacity="1" d="M 167.285156 20.761719 C 167.261719 20.878906 167.214844 21.054688 167.214844 21.089844 C 167.214844 21.21875 167.320312 21.285156 167.4375 21.285156 C 167.53125 21.285156 167.660156 21.230469 167.71875 21.078125 C 167.730469 21.054688 167.972656 20.039062 168.007812 19.898438 C 168.066406 19.65625 168.207031 19.140625 168.242188 18.933594 C 168.277344 18.839844 168.488281 18.488281 168.660156 18.324219 C 168.71875 18.28125 168.941406 18.082031 169.257812 18.082031 C 169.453125 18.082031 169.558594 18.175781 169.570312 18.175781 C 169.347656 18.210938 169.1875 18.382812 169.1875 18.582031 C 169.1875 18.699219 169.269531 18.839844 169.464844 18.839844 C 169.664062 18.839844 169.875 18.664062 169.875 18.394531 C 169.875 18.140625 169.640625 17.917969 169.257812 17.917969 C 168.777344 17.917969 168.453125 18.28125 168.3125 18.488281 C 168.242188 18.152344 167.972656 17.917969 167.625 17.917969 C 167.285156 17.917969 167.144531 18.210938 167.078125 18.335938 C 166.949219 18.59375 166.855469 19.039062 166.855469 19.058594 C 166.855469 19.140625 166.925781 19.140625 166.9375 19.140625 C 167.019531 19.140625 167.019531 19.128906 167.066406 18.96875 C 167.191406 18.441406 167.34375 18.082031 167.613281 18.082031 C 167.730469 18.082031 167.835938 18.140625 167.835938 18.417969 C 167.835938 18.582031 167.8125 18.664062 167.71875 19.050781 Z M 167.285156 20.761719 "/>
<path fill-rule="nonzero" fill="rgb(0%, 0%, 0%)" fill-opacity="1" d="M 171.617188 18.871094 C 171.617188 18.859375 171.628906 18.789062 171.628906 18.789062 C 171.628906 18.753906 171.617188 18.707031 171.550781 18.707031 C 171.445312 18.707031 171.011719 18.753906 170.882812 18.765625 C 170.847656 18.765625 170.769531 18.777344 170.769531 18.882812 C 170.769531 18.949219 170.847656 18.949219 170.90625 18.949219 C 171.152344 18.949219 171.152344 18.996094 171.152344 19.03125 C 171.152344 19.066406 171.140625 19.101562 171.140625 19.148438 L 170.40625 22.085938 C 170.371094 22.179688 170.371094 22.191406 170.371094 22.203125 C 170.371094 22.285156 170.441406 22.367188 170.558594 22.367188 C 170.617188 22.367188 170.710938 22.34375 170.769531 22.238281 C 170.78125 22.203125 170.828125 22.015625 170.847656 21.910156 L 170.976562 21.445312 C 170.988281 21.363281 171.046875 21.164062 171.058594 21.097656 C 171.105469 20.898438 171.105469 20.886719 171.210938 20.722656 C 171.386719 20.464844 171.640625 20.175781 172.050781 20.175781 C 172.339844 20.175781 172.351562 20.410156 172.351562 20.535156 C 172.351562 20.851562 172.132812 21.421875 172.050781 21.644531 C 171.992188 21.796875 171.96875 21.84375 171.96875 21.921875 C 171.96875 22.203125 172.203125 22.367188 172.457031 22.367188 C 172.984375 22.367188 173.214844 21.65625 173.214844 21.574219 C 173.214844 21.503906 173.144531 21.503906 173.121094 21.503906 C 173.050781 21.503906 173.050781 21.539062 173.03125 21.597656 C 172.914062 22.015625 172.679688 22.226562 172.480469 22.226562 C 172.363281 22.226562 172.339844 22.15625 172.339844 22.039062 C 172.339844 21.921875 172.375 21.855469 172.46875 21.621094 C 172.527344 21.457031 172.738281 20.910156 172.738281 20.617188 C 172.738281 20.535156 172.738281 20.316406 172.550781 20.164062 C 172.457031 20.105469 172.308594 20.023438 172.0625 20.023438 C 171.6875 20.023438 171.410156 20.234375 171.222656 20.453125 Z M 171.617188 18.871094 "/>
<path fill-rule="nonzero" fill="rgb(0%, 0%, 0%)" fill-opacity="1" d="M 174.632812 21.132812 C 174.773438 21.132812 175.191406 21.121094 175.472656 21.027344 C 175.855469 20.886719 175.925781 20.640625 175.925781 20.488281 C 175.925781 20.199219 175.632812 20.023438 175.285156 20.023438 C 174.65625 20.023438 173.816406 20.5 173.816406 21.398438 C 173.816406 21.921875 174.144531 22.367188 174.75 22.367188 C 175.632812 22.367188 176.042969 21.855469 176.042969 21.785156 C 176.042969 21.75 175.996094 21.691406 175.949219 21.691406 C 175.925781 21.691406 175.914062 21.703125 175.867188 21.75 C 175.460938 22.226562 174.855469 22.226562 174.761719 22.226562 C 174.445312 22.226562 174.234375 22.015625 174.234375 21.597656 C 174.234375 21.527344 174.234375 21.421875 174.304688 21.132812 Z M 174.339844 20.992188 C 174.5625 20.234375 175.132812 20.175781 175.285156 20.175781 C 175.507812 20.175781 175.703125 20.292969 175.703125 20.488281 C 175.703125 20.992188 174.820312 20.992188 174.597656 20.992188 Z M 174.339844 20.992188 "/>
<path fill-rule="nonzero" fill="rgb(0%, 0%, 0%)" fill-opacity="1" d="M 154.757812 27.054688 L 154.757812 26.867188 C 154.757812 24.992188 155.679688 24.722656 156.066406 24.722656 C 156.238281 24.722656 156.554688 24.769531 156.71875 25.027344 C 156.601562 25.027344 156.308594 25.027344 156.308594 25.351562 C 156.308594 25.585938 156.484375 25.703125 156.648438 25.703125 C 156.765625 25.703125 156.996094 25.632812 156.996094 25.339844 C 156.996094 24.898438 156.671875 24.535156 156.054688 24.535156 C 155.097656 24.535156 154.09375 25.492188 154.09375 27.136719 C 154.09375 29.128906 154.957031 29.652344 155.644531 29.652344 C 156.472656 29.652344 157.183594 28.953125 157.183594 27.976562 C 157.183594 27.03125 156.519531 26.320312 155.691406 26.320312 C 155.191406 26.320312 154.910156 26.691406 154.757812 27.054688 Z M 155.644531 29.445312 C 155.179688 29.445312 154.957031 29 154.910156 28.882812 C 154.769531 28.535156 154.769531 27.941406 154.769531 27.8125 C 154.769531 27.230469 155.015625 26.484375 155.679688 26.484375 C 155.808594 26.484375 156.148438 26.484375 156.378906 26.949219 C 156.507812 27.21875 156.507812 27.601562 156.507812 27.964844 C 156.507812 28.324219 156.507812 28.699219 156.378906 28.964844 C 156.160156 29.410156 155.820312 29.445312 155.644531 29.445312 Z M 155.644531 29.445312 "/>
<path fill-rule="nonzero" fill="rgb(0%, 0%, 0%)" fill-opacity="1" d="M 162.039062 27.425781 L 160.558594 25.945312 C 160.464844 25.855469 160.453125 25.84375 160.394531 25.84375 C 160.316406 25.84375 160.246094 25.902344 160.246094 25.992188 C 160.246094 26.039062 160.257812 26.050781 160.339844 26.132812 L 161.832031 27.625 L 160.339844 29.128906 C 160.257812 29.210938 160.246094 29.222656 160.246094 29.269531 C 160.246094 29.363281 160.316406 29.421875 160.394531 29.421875 C 160.453125 29.421875 160.464844 29.410156 160.558594 29.316406 L 162.039062 27.835938 L 163.578125 29.375 C 163.589844 29.386719 163.636719 29.421875 163.683594 29.421875 C 163.777344 29.421875 163.835938 29.363281 163.835938 29.269531 C 163.835938 29.257812 163.835938 29.234375 163.8125 29.1875 C 163.800781 29.175781 162.621094 28.011719 162.25 27.625 L 163.613281 26.273438 C 163.648438 26.226562 163.765625 26.132812 163.800781 26.085938 C 163.800781 26.074219 163.835938 26.039062 163.835938 25.992188 C 163.835938 25.902344 163.777344 25.84375 163.683594 25.84375 C 163.625 25.84375 163.601562 25.867188 163.519531 25.945312 Z M 162.039062 27.425781 "/>
<path fill-rule="nonzero" fill="rgb(0%, 0%, 0%)" fill-opacity="1" d="M 167.234375 29.046875 C 167.210938 29.164062 167.164062 29.339844 167.164062 29.375 C 167.164062 29.503906 167.269531 29.574219 167.386719 29.574219 C 167.480469 29.574219 167.605469 29.515625 167.664062 29.363281 C 167.675781 29.339844 167.921875 28.324219 167.957031 28.183594 C 168.015625 27.941406 168.15625 27.425781 168.191406 27.21875 C 168.226562 27.125 168.433594 26.773438 168.609375 26.613281 C 168.667969 26.566406 168.890625 26.367188 169.203125 26.367188 C 169.402344 26.367188 169.507812 26.460938 169.519531 26.460938 C 169.296875 26.496094 169.132812 26.671875 169.132812 26.867188 C 169.132812 26.984375 169.214844 27.125 169.414062 27.125 C 169.613281 27.125 169.820312 26.949219 169.820312 26.679688 C 169.820312 26.425781 169.589844 26.203125 169.203125 26.203125 C 168.726562 26.203125 168.398438 26.566406 168.257812 26.773438 C 168.191406 26.4375 167.921875 26.203125 167.570312 26.203125 C 167.234375 26.203125 167.09375 26.496094 167.023438 26.625 C 166.894531 26.878906 166.800781 27.324219 166.800781 27.347656 C 166.800781 27.425781 166.871094 27.425781 166.882812 27.425781 C 166.964844 27.425781 166.964844 27.414062 167.011719 27.253906 C 167.140625 26.726562 167.292969 26.367188 167.558594 26.367188 C 167.675781 26.367188 167.78125 26.425781 167.78125 26.703125 C 167.78125 26.867188 167.757812 26.949219 167.664062 27.335938 Z M 167.234375 29.046875 "/>
<path fill-rule="nonzero" fill="rgb(0%, 0%, 0%)" fill-opacity="1" d="M 171.566406 27.15625 C 171.566406 27.144531 171.578125 27.074219 171.578125 27.074219 C 171.578125 27.039062 171.566406 26.992188 171.496094 26.992188 C 171.390625 26.992188 170.960938 27.039062 170.832031 27.050781 C 170.796875 27.050781 170.714844 27.0625 170.714844 27.167969 C 170.714844 27.238281 170.796875 27.238281 170.855469 27.238281 C 171.101562 27.238281 171.101562 27.285156 171.101562 27.316406 C 171.101562 27.351562 171.089844 27.386719 171.089844 27.433594 L 170.355469 30.371094 C 170.320312 30.464844 170.320312 30.476562 170.320312 30.488281 C 170.320312 30.570312 170.390625 30.652344 170.503906 30.652344 C 170.5625 30.652344 170.65625 30.628906 170.714844 30.523438 C 170.726562 30.488281 170.773438 30.300781 170.796875 30.199219 L 170.925781 29.730469 C 170.9375 29.648438 170.996094 29.453125 171.007812 29.382812 C 171.054688 29.183594 171.054688 29.171875 171.160156 29.007812 C 171.332031 28.753906 171.589844 28.460938 171.996094 28.460938 C 172.289062 28.460938 172.300781 28.695312 172.300781 28.820312 C 172.300781 29.136719 172.078125 29.707031 171.996094 29.929688 C 171.941406 30.082031 171.917969 30.128906 171.917969 30.210938 C 171.917969 30.488281 172.148438 30.652344 172.40625 30.652344 C 172.929688 30.652344 173.164062 29.941406 173.164062 29.859375 C 173.164062 29.789062 173.09375 29.789062 173.070312 29.789062 C 173 29.789062 173 29.824219 172.976562 29.882812 C 172.859375 30.300781 172.628906 30.511719 172.429688 30.511719 C 172.3125 30.511719 172.289062 30.441406 172.289062 30.324219 C 172.289062 30.210938 172.324219 30.140625 172.417969 29.90625 C 172.476562 29.742188 172.6875 29.195312 172.6875 28.902344 C 172.6875 28.820312 172.6875 28.601562 172.5 28.449219 C 172.40625 28.390625 172.253906 28.308594 172.007812 28.308594 C 171.636719 28.308594 171.355469 28.519531 171.171875 28.742188 Z M 171.566406 27.15625 "/>
<path fill-rule="nonzero" fill="rgb(0%, 0%, 0%)" fill-opacity="1" d="M 174.578125 29.417969 C 174.71875 29.417969 175.140625 29.40625 175.417969 29.3125 C 175.804688 29.171875 175.875 28.925781 175.875 28.773438 C 175.875 28.484375 175.582031 28.308594 175.234375 28.308594 C 174.601562 28.308594 173.765625 28.785156 173.765625 29.683594 C 173.765625 30.210938 174.089844 30.652344 174.695312 30.652344 C 175.582031 30.652344 175.992188 30.140625 175.992188 30.070312 C 175.992188 30.035156 175.945312 29.976562 175.898438 29.976562 C 175.875 29.976562 175.863281 29.988281 175.816406 30.035156 C 175.40625 30.511719 174.800781 30.511719 174.707031 30.511719 C 174.394531 30.511719 174.183594 30.300781 174.183594 29.882812 C 174.183594 29.8125 174.183594 29.707031 174.253906 29.417969 Z M 174.289062 29.277344 C 174.511719 28.519531 175.082031 28.460938 175.234375 28.460938 C 175.453125 28.460938 175.652344 28.578125 175.652344 28.773438 C 175.652344 29.277344 174.765625 29.277344 174.542969 29.277344 Z M 174.289062 29.277344 "/>
<path fill-rule="nonzero" fill="rgb(0%, 0%, 0%)" fill-opacity="1" d="M 154.992188 34.414062 C 154.65625 34.191406 154.621094 33.945312 154.621094 33.820312 C 154.621094 33.363281 155.109375 33.050781 155.632812 33.050781 C 156.171875 33.050781 156.648438 33.433594 156.648438 33.96875 C 156.648438 34.402344 156.355469 34.75 155.914062 35.007812 Z M 156.078125 35.125 C 156.613281 34.84375 156.972656 34.460938 156.972656 33.96875 C 156.972656 33.28125 156.320312 32.863281 155.644531 32.863281 C 154.898438 32.863281 154.292969 33.410156 154.292969 34.109375 C 154.292969 34.238281 154.304688 34.578125 154.621094 34.925781 C 154.703125 35.007812 154.980469 35.195312 155.167969 35.324219 C 154.738281 35.542969 154.09375 35.953125 154.09375 36.699219 C 154.09375 37.480469 154.851562 37.980469 155.632812 37.980469 C 156.472656 37.980469 157.183594 37.363281 157.183594 36.570312 C 157.183594 36.300781 157.101562 35.964844 156.8125 35.648438 C 156.671875 35.496094 156.554688 35.425781 156.078125 35.125 Z M 155.332031 35.4375 L 156.25 36.023438 C 156.460938 36.160156 156.8125 36.382812 156.8125 36.839844 C 156.8125 37.386719 156.25 37.769531 155.644531 37.769531 C 155.003906 37.769531 154.46875 37.316406 154.46875 36.699219 C 154.46875 36.265625 154.703125 35.789062 155.332031 35.4375 Z M 155.332031 35.4375 "/>
<path fill-rule="nonzero" fill="rgb(0%, 0%, 0%)" fill-opacity="1" d="M 162.039062 35.753906 L 160.558594 34.273438 C 160.464844 34.179688 160.453125 34.167969 160.394531 34.167969 C 160.316406 34.167969 160.246094 34.226562 160.246094 34.320312 C 160.246094 34.367188 160.257812 34.378906 160.339844 34.460938 L 161.832031 35.953125 L 160.339844 37.457031 C 160.257812 37.539062 160.246094 37.550781 160.246094 37.597656 C 160.246094 37.6875 160.316406 37.746094 160.394531 37.746094 C 160.453125 37.746094 160.464844 37.734375 160.558594 37.640625 L 162.039062 36.160156 L 163.578125 37.699219 C 163.589844 37.710938 163.636719 37.746094 163.683594 37.746094 C 163.777344 37.746094 163.835938 37.6875 163.835938 37.597656 C 163.835938 37.585938 163.835938 37.5625 163.8125 37.515625 C 163.800781 37.503906 162.621094 36.335938 162.25 35.953125 L 163.613281 34.601562 C 163.648438 34.554688 163.765625 34.460938 163.800781 34.414062 C 163.800781 34.402344 163.835938 34.367188 163.835938 34.320312 C 163.835938 34.226562 163.777344 34.167969 163.683594 34.167969 C 163.625 34.167969 163.601562 34.191406 163.519531 34.273438 Z M 162.039062 35.753906 "/>
<path fill-rule="nonzero" fill="rgb(0%, 0%, 0%)" fill-opacity="1" d="M 167.234375 37.375 C 167.210938 37.492188 167.164062 37.664062 167.164062 37.699219 C 167.164062 37.828125 167.269531 37.898438 167.386719 37.898438 C 167.480469 37.898438 167.605469 37.839844 167.664062 37.6875 C 167.675781 37.664062 167.921875 36.652344 167.957031 36.511719 C 168.015625 36.265625 168.15625 35.753906 168.191406 35.542969 C 168.226562 35.449219 168.433594 35.101562 168.609375 34.9375 C 168.667969 34.890625 168.890625 34.691406 169.203125 34.691406 C 169.402344 34.691406 169.507812 34.785156 169.519531 34.785156 C 169.296875 34.820312 169.132812 34.996094 169.132812 35.195312 C 169.132812 35.3125 169.214844 35.449219 169.414062 35.449219 C 169.613281 35.449219 169.820312 35.277344 169.820312 35.007812 C 169.820312 34.75 169.589844 34.53125 169.203125 34.53125 C 168.726562 34.53125 168.398438 34.890625 168.257812 35.101562 C 168.191406 34.761719 167.921875 34.53125 167.570312 34.53125 C 167.234375 34.53125 167.09375 34.820312 167.023438 34.949219 C 166.894531 35.207031 166.800781 35.648438 166.800781 35.671875 C 166.800781 35.753906 166.871094 35.753906 166.882812 35.753906 C 166.964844 35.753906 166.964844 35.742188 167.011719 35.578125 C 167.140625 35.054688 167.292969 34.691406 167.558594 34.691406 C 167.675781 34.691406 167.78125 34.75 167.78125 35.03125 C 167.78125 35.195312 167.757812 35.277344 167.664062 35.660156 Z M 167.234375 37.375 "/>
<path fill-rule="nonzero" fill="rgb(0%, 0%, 0%)" fill-opacity="1" d="M 171.566406 35.480469 C 171.566406 35.46875 171.578125 35.398438 171.578125 35.398438 C 171.578125 35.363281 171.566406 35.316406 171.496094 35.316406 C 171.390625 35.316406 170.960938 35.363281 170.832031 35.375 C 170.796875 35.375 170.714844 35.386719 170.714844 35.492188 C 170.714844 35.5625 170.796875 35.5625 170.855469 35.5625 C 171.101562 35.5625 171.101562 35.609375 171.101562 35.644531 C 171.101562 35.679688 171.089844 35.714844 171.089844 35.761719 L 170.355469 38.699219 C 170.320312 38.792969 170.320312 38.804688 170.320312 38.816406 C 170.320312 38.898438 170.390625 38.976562 170.503906 38.976562 C 170.5625 38.976562 170.65625 38.957031 170.714844 38.851562 C 170.726562 38.816406 170.773438 38.628906 170.796875 38.523438 L 170.925781 38.058594 C 170.9375 37.976562 170.996094 37.777344 171.007812 37.707031 C 171.054688 37.507812 171.054688 37.496094 171.160156 37.335938 C 171.332031 37.078125 171.589844 36.785156 171.996094 36.785156 C 172.289062 36.785156 172.300781 37.019531 172.300781 37.148438 C 172.300781 37.464844 172.078125 38.035156 171.996094 38.253906 C 171.941406 38.40625 171.917969 38.453125 171.917969 38.535156 C 171.917969 38.816406 172.148438 38.976562 172.40625 38.976562 C 172.929688 38.976562 173.164062 38.265625 173.164062 38.1875 C 173.164062 38.117188 173.09375 38.117188 173.070312 38.117188 C 173 38.117188 173 38.152344 172.976562 38.210938 C 172.859375 38.628906 172.628906 38.839844 172.429688 38.839844 C 172.3125 38.839844 172.289062 38.769531 172.289062 38.652344 C 172.289062 38.535156 172.324219 38.464844 172.417969 38.230469 C 172.476562 38.070312 172.6875 37.519531 172.6875 37.230469 C 172.6875 37.148438 172.6875 36.925781 172.5 36.773438 C 172.40625 36.71875 172.253906 36.636719 172.007812 36.636719 C 171.636719 36.636719 171.355469 36.84375 171.171875 37.066406 Z M 171.566406 35.480469 "/>
<path fill-rule="nonzero" fill="rgb(0%, 0%, 0%)" fill-opacity="1" d="M 174.578125 37.742188 C 174.71875 37.742188 175.140625 37.730469 175.417969 37.636719 C 175.804688 37.496094 175.875 37.253906 175.875 37.101562 C 175.875 36.808594 175.582031 36.636719 175.234375 36.636719 C 174.601562 36.636719 173.765625 37.113281 173.765625 38.011719 C 173.765625 38.535156 174.089844 38.976562 174.695312 38.976562 C 175.582031 38.976562 175.992188 38.464844 175.992188 38.394531 C 175.992188 38.359375 175.945312 38.300781 175.898438 38.300781 C 175.875 38.300781 175.863281 38.3125 175.816406 38.359375 C 175.40625 38.839844 174.800781 38.839844 174.707031 38.839844 C 174.394531 38.839844 174.183594 38.628906 174.183594 38.210938 C 174.183594 38.140625 174.183594 38.035156 174.253906 37.742188 Z M 174.289062 37.601562 C 174.511719 36.84375 175.082031 36.785156 175.234375 36.785156 C 175.453125 36.785156 175.652344 36.902344 175.652344 37.101562 C 175.652344 37.601562 174.765625 37.601562 174.542969 37.601562 Z M 174.289062 37.601562 "/>
<path fill-rule="nonzero" fill="rgb(0%, 0%, 0%)" fill-opacity="1" d="M 152.328125 41.386719 C 152.328125 41.199219 152.328125 41.1875 152.152344 41.1875 C 151.6875 41.667969 151.035156 41.667969 150.800781 41.667969 L 150.800781 41.902344 C 150.953125 41.902344 151.382812 41.902344 151.769531 41.703125 L 151.769531 45.5625 C 151.769531 45.828125 151.746094 45.910156 151.082031 45.910156 L 150.847656 45.910156 L 150.847656 46.144531 C 151.105469 46.121094 151.746094 46.121094 152.046875 46.121094 C 152.339844 46.121094 152.992188 46.121094 153.25 46.144531 L 153.25 45.910156 L 153.015625 45.910156 C 152.339844 45.910156 152.328125 45.828125 152.328125 45.5625 Z M 152.328125 41.386719 "/>
<path fill-rule="nonzero" fill="rgb(0%, 0%, 0%)" fill-opacity="1" d="M 157.269531 43.765625 C 157.269531 43.171875 157.234375 42.578125 156.976562 42.027344 C 156.636719 41.304688 156.019531 41.1875 155.71875 41.1875 C 155.261719 41.1875 154.726562 41.386719 154.410156 42.074219 C 154.179688 42.589844 154.144531 43.171875 154.144531 43.765625 C 154.144531 44.324219 154.167969 44.988281 154.480469 45.5625 C 154.796875 46.15625 155.34375 46.308594 155.707031 46.308594 C 156.101562 46.308594 156.671875 46.15625 157 45.445312 C 157.234375 44.929688 157.269531 44.347656 157.269531 43.765625 Z M 155.707031 46.144531 C 155.414062 46.144531 154.972656 45.957031 154.84375 45.246094 C 154.761719 44.804688 154.761719 44.113281 154.761719 43.671875 C 154.761719 43.195312 154.761719 42.703125 154.820312 42.308594 C 154.960938 41.421875 155.519531 41.351562 155.707031 41.351562 C 155.949219 41.351562 156.441406 41.492188 156.582031 42.226562 C 156.660156 42.644531 156.660156 43.207031 156.660156 43.671875 C 156.660156 44.230469 156.660156 44.734375 156.582031 45.210938 C 156.464844 45.921875 156.042969 46.144531 155.707031 46.144531 Z M 155.707031 46.144531 "/>
<path fill-rule="nonzero" fill="rgb(0%, 0%, 0%)" fill-opacity="1" d="M 162.113281 44.082031 L 160.632812 42.601562 C 160.539062 42.507812 160.527344 42.496094 160.46875 42.496094 C 160.386719 42.496094 160.316406 42.554688 160.316406 42.644531 C 160.316406 42.691406 160.328125 42.703125 160.410156 42.785156 L 161.902344 44.277344 L 160.410156 45.78125 C 160.328125 45.863281 160.316406 45.875 160.316406 45.921875 C 160.316406 46.015625 160.386719 46.074219 160.46875 46.074219 C 160.527344 46.074219 160.539062 46.0625 160.632812 45.96875 L 162.113281 44.488281 L 163.648438 46.027344 C 163.660156 46.039062 163.707031 46.074219 163.753906 46.074219 C 163.847656 46.074219 163.90625 46.015625 163.90625 45.921875 C 163.90625 45.910156 163.90625 45.886719 163.882812 45.839844 C 163.871094 45.828125 162.695312 44.664062 162.320312 44.277344 L 163.683594 42.925781 C 163.71875 42.878906 163.835938 42.785156 163.871094 42.738281 C 163.871094 42.726562 163.90625 42.691406 163.90625 42.644531 C 163.90625 42.554688 163.847656 42.496094 163.753906 42.496094 C 163.695312 42.496094 163.671875 42.519531 163.59375 42.601562 Z M 162.113281 44.082031 "/>
<path fill-rule="nonzero" fill="rgb(0%, 0%, 0%)" fill-opacity="1" d="M 167.304688 45.699219 C 167.28125 45.816406 167.234375 45.992188 167.234375 46.027344 C 167.234375 46.15625 167.339844 46.226562 167.457031 46.226562 C 167.550781 46.226562 167.679688 46.167969 167.738281 46.015625 C 167.75 45.992188 167.992188 44.976562 168.027344 44.839844 C 168.085938 44.59375 168.226562 44.082031 168.261719 43.871094 C 168.296875 43.777344 168.507812 43.425781 168.679688 43.265625 C 168.738281 43.21875 168.960938 43.019531 169.277344 43.019531 C 169.472656 43.019531 169.578125 43.113281 169.589844 43.113281 C 169.367188 43.148438 169.207031 43.324219 169.207031 43.519531 C 169.207031 43.636719 169.289062 43.777344 169.484375 43.777344 C 169.683594 43.777344 169.894531 43.601562 169.894531 43.335938 C 169.894531 43.078125 169.660156 42.855469 169.277344 42.855469 C 168.796875 42.855469 168.472656 43.21875 168.332031 43.425781 C 168.261719 43.089844 167.992188 42.855469 167.644531 42.855469 C 167.304688 42.855469 167.164062 43.148438 167.097656 43.277344 C 166.96875 43.53125 166.875 43.976562 166.875 44 C 166.875 44.082031 166.945312 44.082031 166.957031 44.082031 C 167.039062 44.082031 167.039062 44.070312 167.085938 43.90625 C 167.210938 43.378906 167.363281 43.019531 167.632812 43.019531 C 167.75 43.019531 167.851562 43.078125 167.851562 43.359375 C 167.851562 43.519531 167.832031 43.601562 167.738281 43.988281 Z M 167.304688 45.699219 "/>
<path fill-rule="nonzero" fill="rgb(0%, 0%, 0%)" fill-opacity="1" d="M 171.636719 43.808594 C 171.636719 43.796875 171.648438 43.726562 171.648438 43.726562 C 171.648438 43.691406 171.636719 43.644531 171.566406 43.644531 C 171.464844 43.644531 171.03125 43.691406 170.902344 43.703125 C 170.867188 43.703125 170.789062 43.714844 170.789062 43.820312 C 170.789062 43.890625 170.867188 43.890625 170.925781 43.890625 C 171.171875 43.890625 171.171875 43.9375 171.171875 43.972656 C 171.171875 44.003906 171.160156 44.039062 171.160156 44.085938 L 170.425781 47.023438 C 170.390625 47.117188 170.390625 47.128906 170.390625 47.140625 C 170.390625 47.222656 170.460938 47.304688 170.578125 47.304688 C 170.636719 47.304688 170.730469 47.28125 170.789062 47.175781 C 170.800781 47.140625 170.84375 46.953125 170.867188 46.851562 L 170.996094 46.382812 C 171.007812 46.300781 171.066406 46.105469 171.078125 46.035156 C 171.125 45.835938 171.125 45.824219 171.230469 45.660156 C 171.40625 45.40625 171.660156 45.113281 172.070312 45.113281 C 172.359375 45.113281 172.371094 45.347656 172.371094 45.472656 C 172.371094 45.789062 172.152344 46.359375 172.070312 46.582031 C 172.011719 46.734375 171.988281 46.78125 171.988281 46.863281 C 171.988281 47.140625 172.222656 47.304688 172.476562 47.304688 C 173.003906 47.304688 173.234375 46.59375 173.234375 46.511719 C 173.234375 46.441406 173.164062 46.441406 173.140625 46.441406 C 173.070312 46.441406 173.070312 46.476562 173.046875 46.535156 C 172.933594 46.953125 172.699219 47.164062 172.5 47.164062 C 172.382812 47.164062 172.359375 47.09375 172.359375 46.976562 C 172.359375 46.863281 172.394531 46.792969 172.488281 46.558594 C 172.546875 46.394531 172.757812 45.847656 172.757812 45.554688 C 172.757812 45.472656 172.757812 45.253906 172.570312 45.101562 C 172.476562 45.042969 172.324219 44.960938 172.082031 44.960938 C 171.707031 44.960938 171.429688 45.171875 171.242188 45.394531 Z M 171.636719 43.808594 "/>
<path fill-rule="nonzero" fill="rgb(0%, 0%, 0%)" fill-opacity="1" d="M 174.652344 46.070312 C 174.792969 46.070312 175.210938 46.058594 175.492188 45.964844 C 175.875 45.824219 175.945312 45.578125 175.945312 45.429688 C 175.945312 45.136719 175.652344 44.960938 175.304688 44.960938 C 174.675781 44.960938 173.835938 45.441406 173.835938 46.335938 C 173.835938 46.863281 174.160156 47.304688 174.769531 47.304688 C 175.652344 47.304688 176.0625 46.792969 176.0625 46.722656 C 176.0625 46.6875 176.015625 46.628906 175.96875 46.628906 C 175.945312 46.628906 175.933594 46.640625 175.886719 46.6875 C 175.480469 47.164062 174.871094 47.164062 174.78125 47.164062 C 174.464844 47.164062 174.253906 46.953125 174.253906 46.535156 C 174.253906 46.464844 174.253906 46.359375 174.324219 46.070312 Z M 174.359375 45.929688 C 174.582031 45.171875 175.152344 45.113281 175.304688 45.113281 C 175.527344 45.113281 175.722656 45.230469 175.722656 45.429688 C 175.722656 45.929688 174.839844 45.929688 174.617188 45.929688 Z M 174.359375 45.929688 "/>
<path fill="none" stroke-width="0.850394" stroke-linecap="butt" stroke-linejoin="miter" stroke="rgb(50.195312%, 50.195312%, 50.195312%)" stroke-opacity="1" stroke-miterlimit="4" d="M 28.113281 90.75 L 26.828125 90.75 "/>
<path fill-rule="nonzero" fill="rgb(0%, 0%, 0%)" fill-opacity="1" d="M 18.433594 74.636719 C 17.464844 74.636719 16.355469 75.109375 16.355469 76.21875 C 16.375 77.3125 17.414062 77.820312 18.433594 77.820312 C 19.453125 77.820312 20.527344 77.347656 20.527344 76.21875 C 20.527344 75.09375 19.417969 74.636719 18.433594 74.636719 Z M 12.46875 76.167969 L 12.46875 76.800781 L 20.527344 81.324219 L 20.527344 80.6875 Z M 14.5625 79.6875 C 13.558594 79.6875 12.46875 80.160156 12.46875 81.269531 C 12.46875 82.378906 13.558594 82.835938 14.5625 82.835938 C 15.617188 82.820312 16.636719 82.429688 16.636719 81.269531 C 16.636719 80.125 15.601562 79.6875 14.5625 79.6875 Z M 18.433594 75.21875 C 19.15625 75.234375 19.945312 75.480469 19.945312 76.21875 C 19.945312 77.011719 19.121094 77.242188 18.433594 77.242188 C 17.695312 77.222656 16.902344 77.046875 16.902344 76.21875 C 16.902344 75.464844 17.746094 75.21875 18.433594 75.21875 Z M 14.5625 80.25 C 15.300781 80.25 16.109375 80.476562 16.109375 81.269531 C 16.074219 82.027344 15.265625 82.273438 14.5625 82.273438 C 13.839844 82.273438 13.03125 81.992188 13.03125 81.269531 C 13.03125 80.476562 13.789062 80.25 14.5625 80.25 Z M 14.5625 80.25 "/>
<path fill-rule="nonzero" fill="rgb(0%, 0%, 0%)" fill-opacity="1" d="M 13.417969 64.796875 L 12.609375 64.796875 L 12.609375 70.851562 L 13.417969 70.851562 L 13.417969 68.246094 L 20.367188 68.246094 L 20.367188 67.402344 L 13.417969 67.402344 Z M 13.417969 64.796875 "/>
<path fill-rule="nonzero" fill="rgb(0%, 0%, 0%)" fill-opacity="1" d="M 16.320312 62.398438 L 15.511719 62.132812 C 15.371094 62.257812 15.230469 62.800781 15.230469 63.171875 C 15.25 63.699219 15.511719 64.140625 15.988281 64.367188 L 15.300781 64.367188 L 15.300781 65.210938 L 20.367188 65.210938 L 20.367188 64.367188 L 17.695312 64.367188 C 17.675781 64.367188 17.660156 64.367188 17.660156 64.367188 C 16.921875 64.367188 15.953125 63.980469 15.953125 63.1875 L 15.953125 63.136719 C 15.953125 62.871094 16.109375 62.660156 16.320312 62.398438 Z M 16.320312 62.398438 "/>
<path fill-rule="nonzero" fill="rgb(0%, 0%, 0%)" fill-opacity="1" d="M 20.367188 57.464844 L 17.484375 57.464844 C 16.023438 57.464844 15.179688 58.082031 15.179688 59.59375 C 15.179688 60.140625 15.355469 60.808594 15.53125 61.300781 L 16.355469 61.300781 C 16.074219 60.789062 15.898438 60.367188 15.898438 59.664062 C 15.917969 58.855469 16.320312 58.238281 17.167969 58.238281 L 17.167969 59.398438 C 17.167969 60.597656 17.570312 61.652344 18.890625 61.652344 C 19.910156 61.617188 20.511719 61.019531 20.511719 60 C 20.511719 59.277344 20.210938 58.625 19.699219 58.238281 L 20.367188 58.238281 Z M 18.011719 58.238281 C 18.996094 58.238281 19.789062 58.695312 19.789062 59.753906 C 19.789062 60.367188 19.507812 60.878906 18.839844 60.878906 C 17.851562 60.878906 17.851562 59.945312 17.851562 59.066406 L 17.851562 58.238281 Z M 18.011719 58.238281 "/>
<path fill-rule="nonzero" fill="rgb(0%, 0%, 0%)" fill-opacity="1" d="M 20.367188 55.132812 L 15.300781 55.132812 L 15.300781 55.980469 L 20.367188 55.980469 Z M 12.609375 55.558594 C 12.609375 55.820312 12.855469 56.050781 13.121094 56.050781 C 13.402344 56.050781 13.648438 55.820312 13.648438 55.558594 C 13.648438 55.277344 13.402344 55.0625 13.121094 55.0625 C 12.855469 55.0625 12.609375 55.277344 12.609375 55.558594 Z M 12.609375 55.558594 "/>
<path fill-rule="nonzero" fill="rgb(0%, 0%, 0%)" fill-opacity="1" d="M 20.367188 49.226562 L 17.308594 49.226562 C 16.109375 49.226562 15.179688 49.734375 15.179688 51.039062 C 15.179688 51.6875 15.425781 52.359375 15.988281 52.761719 L 15.300781 52.761719 L 15.300781 53.589844 L 20.367188 53.589844 L 20.367188 52.761719 L 17.5 52.761719 C 16.53125 52.726562 15.917969 52.128906 15.917969 51.230469 C 15.917969 50.351562 16.445312 50.035156 17.34375 50.035156 L 20.367188 50.035156 Z M 20.367188 49.226562 "/>
<path fill-rule="nonzero" fill="rgb(0%, 0%, 0%)" fill-opacity="1" d="M 17.835938 40.03125 L 17.746094 40.03125 C 16.285156 40.03125 15.214844 40.628906 15.179688 42.300781 C 15.179688 43.796875 16.480469 44.640625 17.886719 44.640625 C 19.417969 44.640625 20.511719 43.710938 20.511719 42.160156 C 20.511719 41.457031 20.351562 40.824219 20.121094 40.207031 L 19.277344 40.207031 C 19.664062 41.015625 19.753906 41.140625 19.753906 42.089844 C 19.753906 43.148438 19.121094 43.78125 17.921875 43.78125 L 17.835938 43.78125 Z M 17.148438 40.859375 L 17.148438 43.746094 C 16.480469 43.640625 15.898438 43.148438 15.898438 42.300781 C 15.898438 41.421875 16.445312 40.859375 17.148438 40.859375 Z M 17.148438 40.859375 "/>
<path fill-rule="nonzero" fill="rgb(0%, 0%, 0%)" fill-opacity="1" d="M 16.320312 36 L 15.511719 35.734375 C 15.371094 35.859375 15.230469 36.402344 15.230469 36.773438 C 15.25 37.300781 15.511719 37.738281 15.988281 37.96875 L 15.300781 37.96875 L 15.300781 38.8125 L 20.367188 38.8125 L 20.367188 37.96875 L 17.695312 37.96875 C 17.675781 37.96875 17.660156 37.96875 17.660156 37.96875 C 16.921875 37.96875 15.953125 37.582031 15.953125 36.789062 L 15.953125 36.738281 C 15.953125 36.472656 16.109375 36.261719 16.320312 36 Z M 16.320312 36 "/>
<path fill-rule="nonzero" fill="rgb(0%, 0%, 0%)" fill-opacity="1" d="M 16.320312 32.070312 L 15.511719 31.808594 C 15.371094 31.929688 15.230469 32.476562 15.230469 32.84375 C 15.25 33.375 15.511719 33.8125 15.988281 34.042969 L 15.300781 34.042969 L 15.300781 34.886719 L 20.367188 34.886719 L 20.367188 34.042969 L 17.695312 34.042969 C 17.675781 34.042969 17.660156 34.042969 17.660156 34.042969 C 16.921875 34.042969 15.953125 33.65625 15.953125 32.863281 L 15.953125 32.808594 C 15.953125 32.546875 16.109375 32.335938 16.320312 32.070312 Z M 16.320312 32.070312 "/>
<path fill-rule="nonzero" fill="rgb(0%, 0%, 0%)" fill-opacity="1" d="M 17.835938 26.703125 C 16.550781 26.703125 15.179688 27.386719 15.179688 29.078125 C 15.179688 30.609375 16.355469 31.472656 17.835938 31.472656 C 19.226562 31.472656 20.476562 30.574219 20.511719 29.078125 C 20.476562 27.5625 19.261719 26.703125 17.835938 26.703125 Z M 17.835938 27.527344 C 18.839844 27.527344 19.734375 28.144531 19.734375 29.078125 C 19.71875 30.34375 18.59375 30.625 17.816406 30.625 C 16.796875 30.625 15.953125 30.132812 15.933594 29.078125 C 15.953125 28.09375 16.867188 27.527344 17.835938 27.527344 Z M 17.835938 27.527344 "/>
<path fill-rule="nonzero" fill="rgb(0%, 0%, 0%)" fill-opacity="1" d="M 16.320312 22.570312 L 15.511719 22.304688 C 15.371094 22.429688 15.230469 22.972656 15.230469 23.34375 C 15.25 23.871094 15.511719 24.3125 15.988281 24.539062 L 15.300781 24.539062 L 15.300781 25.382812 L 20.367188 25.382812 L 20.367188 24.539062 L 17.695312 24.539062 C 17.675781 24.539062 17.660156 24.539062 17.660156 24.539062 C 16.921875 24.539062 15.953125 24.152344 15.953125 23.359375 L 15.953125 23.308594 C 15.953125 23.042969 16.109375 22.832031 16.320312 22.570312 Z M 16.320312 22.570312 "/>
</svg>
