<?xml version="1.0" encoding="UTF-8"?>
<svg xmlns="http://www.w3.org/2000/svg" xmlns:xlink="http://www.w3.org/1999/xlink" width="407.074463pt" height="111.815109pt" viewBox="0 0 407.074463 111.815109">
<defs>
<clipPath id="clip-0">
<path clip-rule="nonzero" d="M 45 81 L 87 81 L 87 111.816406 L 45 111.816406 Z M 45 81 "/>
</clipPath>
<clipPath id="clip-1">
<path clip-rule="nonzero" d="M 52 85 L 83 85 L 83 111.816406 L 52 111.816406 Z M 52 85 "/>
</clipPath>
<clipPath id="clip-2">
<path clip-rule="nonzero" d="M 94 81 L 136 81 L 136 111.816406 L 94 111.816406 Z M 94 81 "/>
</clipPath>
<clipPath id="clip-3">
<path clip-rule="nonzero" d="M 101 85 L 132 85 L 132 111.816406 L 101 111.816406 Z M 101 85 "/>
</clipPath>
<clipPath id="clip-4">
<path clip-rule="nonzero" d="M 275 81 L 317 81 L 317 111.816406 L 275 111.816406 Z M 275 81 "/>
</clipPath>
<clipPath id="clip-5">
<path clip-rule="nonzero" d="M 282 85 L 313 85 L 313 111.816406 L 282 111.816406 Z M 282 85 "/>
</clipPath>
<clipPath id="clip-6">
<path clip-rule="nonzero" d="M 324 81 L 366 81 L 366 111.816406 L 324 111.816406 Z M 324 81 "/>
</clipPath>
<clipPath id="clip-7">
<path clip-rule="nonzero" d="M 331 85 L 362 85 L 362 111.816406 L 331 111.816406 Z M 331 85 "/>
</clipPath>
<clipPath id="clip-8">
<path clip-rule="nonzero" d="M 380 42 L 407.074219 42 L 407.074219 73 L 380 73 Z M 380 42 "/>
</clipPath>
</defs>
<path fill="none" stroke-width="0.677695" stroke-linecap="butt" stroke-linejoin="miter" stroke="rgb(46.273804%, 52.940369%, 54.901123%)" stroke-opacity="1" stroke-miterlimit="4" d="M 29.839844 27.457031 L 55.75 19.535156 "/>
<path fill-rule="evenodd" fill="rgb(46.273804%, 52.940369%, 54.901123%)" fill-opacity="1" stroke-width="0.345648" stroke-linecap="butt" stroke-linejoin="miter" stroke="rgb(46.273804%, 52.940369%, 54.901123%)" stroke-opacity="1" stroke-miterlimit="4" d="M -42.933767 -33.452806 L -41.635674 -34.74739 L -46.17268 -33.450741 L -41.63561 -32.153621 Z M -42.933767 -33.452806 " transform="matrix(-1, 0.305696, -0.305696, -1, 0, 0)"/>
<path fill="none" stroke-width="0.67377" stroke-linecap="butt" stroke-linejoin="miter" stroke="rgb(46.273804%, 52.940369%, 54.901123%)" stroke-opacity="1" stroke-miterlimit="4" d="M 28.269531 35.9375 L 58.410156 63.402344 "/>
<path fill-rule="evenodd" fill="rgb(46.273804%, 52.940369%, 54.901123%)" fill-opacity="1" stroke-width="0.26562" stroke-linecap="butt" stroke-linejoin="miter" stroke="rgb(46.273804%, 52.940369%, 54.901123%)" stroke-opacity="1" stroke-miterlimit="4" d="M -61.486144 -5.562345 L -60.491459 -6.558505 L -63.977712 -5.561665 L -60.492119 -4.565715 Z M -61.486144 -5.562345 " transform="matrix(-1, -0.911158, 0.911158, -1, 0, 0)"/>
<path fill="none" stroke-width="0.677695" stroke-linecap="butt" stroke-linejoin="miter" stroke="rgb(46.273804%, 52.940369%, 54.901123%)" stroke-opacity="1" stroke-miterlimit="4" d="M 29.546875 32.503906 L 55.800781 38.957031 "/>
<path fill-rule="evenodd" fill="rgb(46.273804%, 52.940369%, 54.901123%)" fill-opacity="1" stroke-width="0.35098" stroke-linecap="butt" stroke-linejoin="miter" stroke="rgb(46.273804%, 52.940369%, 54.901123%)" stroke-opacity="1" stroke-miterlimit="4" d="M -59.020404 -23.79832 L -57.703421 -25.114378 L -62.30941 -23.798088 L -57.704347 -22.481337 Z M -59.020404 -23.79832 " transform="matrix(-1, -0.245918, 0.245918, -1, 0, 0)"/>
<path fill="none" stroke-width="0.67377" stroke-linecap="butt" stroke-linejoin="miter" stroke="rgb(46.273804%, 52.940369%, 54.901123%)" stroke-opacity="1" stroke-miterlimit="4" d="M 25.664062 38.648438 L 60.3125 89.9375 "/>
<path fill-rule="evenodd" fill="rgb(46.273804%, 52.940369%, 54.901123%)" fill-opacity="1" stroke-width="0.29776" stroke-linecap="butt" stroke-linejoin="miter" stroke="rgb(46.273804%, 52.940369%, 54.901123%)" stroke-opacity="1" stroke-miterlimit="4" d="M -87.495726 -0.306987 L -86.378347 -1.423185 L -90.288603 -0.307123 L -86.379528 0.810392 Z M -87.495726 -0.306987 " transform="matrix(-0.675595, -1, 1, -0.675595, 0, 0)"/>
<path fill="none" stroke-width="0.677695" stroke-linecap="butt" stroke-linejoin="miter" stroke="rgb(46.273804%, 52.940369%, 54.901123%)" stroke-opacity="1" stroke-miterlimit="4" d="M 29.664062 88.195312 L 56.347656 95.550781 "/>
<path fill-rule="evenodd" fill="rgb(46.273804%, 52.940369%, 54.901123%)" fill-opacity="1" stroke-width="0.348448" stroke-linecap="butt" stroke-linejoin="miter" stroke="rgb(46.273804%, 52.940369%, 54.901123%)" stroke-opacity="1" stroke-miterlimit="4" d="M -74.229879 -74.371707 L -72.922767 -75.681142 L -77.496117 -74.373934 L -72.920443 -73.064595 Z M -74.229879 -74.371707 " transform="matrix(-1, -0.275582, 0.275582, -1, 0, 0)"/>
<path fill="none" stroke-width="0.67377" stroke-linecap="butt" stroke-linejoin="miter" stroke="rgb(46.273804%, 52.940369%, 54.901123%)" stroke-opacity="1" stroke-miterlimit="4" d="M 27.890625 80.019531 L 59.351562 53.273438 "/>
<path fill-rule="evenodd" fill="rgb(46.273804%, 52.940369%, 54.901123%)" fill-opacity="1" stroke-width="0.273791" stroke-linecap="butt" stroke-linejoin="miter" stroke="rgb(46.273804%, 52.940369%, 54.901123%)" stroke-opacity="1" stroke-miterlimit="4" d="M -6.115625 -60.214218 L -5.086162 -61.241466 L -8.681099 -60.215315 L -5.08645 -59.187023 Z M -6.115625 -60.214218 " transform="matrix(-1, 0.850051, -0.850051, -1, 0, 0)"/>
<path fill="none" stroke-width="0.677695" stroke-linecap="butt" stroke-linejoin="miter" stroke="rgb(46.273804%, 52.940369%, 54.901123%)" stroke-opacity="1" stroke-miterlimit="4" d="M 29.773438 83.527344 L 55.582031 73.785156 "/>
<path fill-rule="evenodd" fill="rgb(46.273804%, 52.940369%, 54.901123%)" fill-opacity="1" stroke-width="0.338149" stroke-linecap="butt" stroke-linejoin="miter" stroke="rgb(46.273804%, 52.940369%, 54.901123%)" stroke-opacity="1" stroke-miterlimit="4" d="M -21.735273 -82.950573 L -20.467717 -84.218198 L -24.907783 -82.948891 L -20.468939 -81.679597 Z M -21.735273 -82.950573 " transform="matrix(-1, 0.377473, -0.377473, -1, 0, 0)"/>
<path fill="none" stroke-width="0.67377" stroke-linecap="butt" stroke-linejoin="miter" stroke="rgb(46.273804%, 52.940369%, 54.901123%)" stroke-opacity="1" stroke-miterlimit="4" d="M 24.980469 76.925781 L 60.285156 25.769531 "/>
<path fill-rule="evenodd" fill="rgb(46.273804%, 52.940369%, 54.901123%)" fill-opacity="1" stroke-width="0.295745" stroke-linecap="butt" stroke-linejoin="miter" stroke="rgb(46.273804%, 52.940369%, 54.901123%)" stroke-opacity="1" stroke-miterlimit="4" d="M -8.511586 -52.879439 L -7.402252 -53.988822 L -11.282336 -52.881205 L -7.402204 -51.770105 Z M -8.511586 -52.879439 " transform="matrix(-0.690173, 1, -1, -0.690173, 0, 0)"/>
<path fill="none" stroke-width="0.677695" stroke-linecap="butt" stroke-linejoin="miter" stroke="rgb(46.273804%, 52.940369%, 54.901123%)" stroke-opacity="1" stroke-miterlimit="4" d="M 29.773438 60.917969 L 55.933594 67.296875 "/>
<path fill-rule="evenodd" fill="rgb(46.273804%, 52.940369%, 54.901123%)" fill-opacity="1" stroke-width="0.351147" stroke-linecap="butt" stroke-linejoin="miter" stroke="rgb(46.273804%, 52.940369%, 54.901123%)" stroke-opacity="1" stroke-miterlimit="4" d="M -65.650535 -50.642804 L -64.334958 -51.959715 L -68.943887 -50.644375 L -64.333625 -49.327227 Z M -65.650535 -50.642804 " transform="matrix(-1, -0.24386, 0.24386, -1, 0, 0)"/>
<path fill="none" stroke-width="0.677695" stroke-linecap="butt" stroke-linejoin="miter" stroke="rgb(46.273804%, 52.940369%, 54.901123%)" stroke-opacity="1" stroke-miterlimit="4" d="M 29.773438 55.175781 L 55.503906 47.53125 "/>
<path fill-rule="evenodd" fill="rgb(46.273804%, 52.940369%, 54.901123%)" fill-opacity="1" stroke-width="0.346471" stroke-linecap="butt" stroke-linejoin="miter" stroke="rgb(46.273804%, 52.940369%, 54.901123%)" stroke-opacity="1" stroke-miterlimit="4" d="M -35.428411 -58.830114 L -34.128871 -60.127627 L -38.674631 -58.82969 L -34.127309 -57.529507 Z M -35.428411 -58.830114 " transform="matrix(-1, 0.29709, -0.29709, -1, 0, 0)"/>
<path fill="none" stroke-width="0.67377" stroke-linecap="butt" stroke-linejoin="miter" stroke="rgb(46.273804%, 52.940369%, 54.901123%)" stroke-opacity="1" stroke-miterlimit="4" d="M 77.652344 20.328125 L 108.871094 62.210938 "/>
<path fill-rule="evenodd" fill="rgb(46.273804%, 52.940369%, 54.901123%)" fill-opacity="1" stroke-width="0.288112" stroke-linecap="butt" stroke-linejoin="miter" stroke="rgb(46.273804%, 52.940369%, 54.901123%)" stroke-opacity="1" stroke-miterlimit="4" d="M -89.996241 40.179511 L -88.916418 39.09768 L -92.697851 40.177479 L -88.916921 41.257462 Z M -89.996241 40.179511 " transform="matrix(-0.745389, -1, 1, -0.745389, 0, 0)"/>
<path fill="none" stroke-width="0.677695" stroke-linecap="butt" stroke-linejoin="miter" stroke="rgb(46.273804%, 52.940369%, 54.901123%)" stroke-opacity="1" stroke-miterlimit="4" d="M 78.550781 17.347656 L 106.058594 36.554688 "/>
<path fill-rule="evenodd" fill="rgb(46.273804%, 52.940369%, 54.901123%)" fill-opacity="1" stroke-width="0.29636" stroke-linecap="butt" stroke-linejoin="miter" stroke="rgb(46.273804%, 52.940369%, 54.901123%)" stroke-opacity="1" stroke-miterlimit="4" d="M -86.238497 25.206286 L -85.127704 24.094862 L -89.016986 25.204645 L -85.127074 26.317079 Z M -86.238497 25.206286 " transform="matrix(-1, -0.698137, 0.698137, -1, 0, 0)"/>
<path fill="none" stroke-width="0.67377" stroke-linecap="butt" stroke-linejoin="miter" stroke="rgb(46.273804%, 52.940369%, 54.901123%)" stroke-opacity="1" stroke-miterlimit="4" d="M 77.464844 67.007812 L 105.15625 49.070312 "/>
<path fill-rule="evenodd" fill="rgb(46.273804%, 52.940369%, 54.901123%)" fill-opacity="1" stroke-width="0.301587" stroke-linecap="butt" stroke-linejoin="miter" stroke="rgb(46.273804%, 52.940369%, 54.901123%)" stroke-opacity="1" stroke-miterlimit="4" d="M -49.416074 -82.548866 L -48.285167 -83.6795 L -52.241383 -82.547183 L -48.282689 -81.416176 Z M -49.416074 -82.548866 " transform="matrix(-1, 0.64784, -0.64784, -1, 0, 0)"/>
<path fill="none" stroke-width="0.677695" stroke-linecap="butt" stroke-linejoin="miter" stroke="rgb(46.273804%, 52.940369%, 54.901123%)" stroke-opacity="1" stroke-miterlimit="4" d="M 77.789062 47.816406 L 105.890625 65.574219 "/>
<path fill-rule="evenodd" fill="rgb(46.273804%, 52.940369%, 54.901123%)" fill-opacity="1" stroke-width="0.30555" stroke-linecap="butt" stroke-linejoin="miter" stroke="rgb(46.273804%, 52.940369%, 54.901123%)" stroke-opacity="1" stroke-miterlimit="4" d="M -102.994219 0.954987 L -101.850329 -0.189689 L -105.861759 0.954429 L -101.849543 2.098877 Z M -102.994219 0.954987 " transform="matrix(-1, -0.63188, 0.63188, -1, 0, 0)"/>
<path fill="none" stroke-width="0.677695" stroke-linecap="butt" stroke-linejoin="miter" stroke="rgb(46.273804%, 52.940369%, 54.901123%)" stroke-opacity="1" stroke-miterlimit="4" d="M 78.835938 43.605469 L 104.292969 43.597656 "/>
<path fill-rule="evenodd" fill="rgb(46.273804%, 52.940369%, 54.901123%)" fill-opacity="1" stroke-width="0.361437" stroke-linecap="butt" stroke-linejoin="miter" stroke="rgb(46.273804%, 52.940369%, 54.901123%)" stroke-opacity="1" stroke-miterlimit="4" d="M -101.57329 -43.618012 L -100.221456 -44.97321 L -104.963915 -43.618692 L -100.218092 -42.266178 Z M -101.57329 -43.618012 " transform="matrix(-1, 0.000200409, -0.000200409, -1, 0, 0)"/>
<path fill="none" stroke-width="0.677695" stroke-linecap="butt" stroke-linejoin="miter" stroke="rgb(46.273804%, 52.940369%, 54.901123%)" stroke-opacity="1" stroke-miterlimit="4" d="M 78.835938 72.082031 L 104.597656 72.074219 "/>
<path fill-rule="evenodd" fill="rgb(46.273804%, 52.940369%, 54.901123%)" fill-opacity="1" stroke-width="0.361437" stroke-linecap="butt" stroke-linejoin="miter" stroke="rgb(46.273804%, 52.940369%, 54.901123%)" stroke-opacity="1" stroke-miterlimit="4" d="M -101.872441 -72.094394 L -100.516703 -73.4535 L -105.263066 -72.095065 L -100.51724 -70.742563 Z M -101.872441 -72.094394 " transform="matrix(-1, 0.000198041, -0.000198041, -1, 0, 0)"/>
<path fill="none" stroke-width="0.67377" stroke-linecap="butt" stroke-linejoin="miter" stroke="rgb(46.273804%, 52.940369%, 54.901123%)" stroke-opacity="1" stroke-miterlimit="4" d="M 75.21875 91.644531 L 107.730469 52.425781 "/>
<path fill-rule="evenodd" fill="rgb(46.273804%, 52.940369%, 54.901123%)" fill-opacity="1" stroke-width="0.276645" stroke-linecap="butt" stroke-linejoin="miter" stroke="rgb(46.273804%, 52.940369%, 54.901123%)" stroke-opacity="1" stroke-miterlimit="4" d="M -19.785849 -89.609309 L -18.74704 -90.64626 L -22.378727 -89.608258 L -18.746583 -88.57242 Z M -19.785849 -89.609309 " transform="matrix(-0.828997, 1, -1, -0.828997, 0, 0)"/>
<path fill="none" stroke-width="0.677695" stroke-linecap="butt" stroke-linejoin="miter" stroke="rgb(46.273804%, 52.940369%, 54.901123%)" stroke-opacity="1" stroke-miterlimit="4" d="M 78.550781 98.429688 L 105.527344 78.386719 "/>
<path fill-rule="evenodd" fill="rgb(46.273804%, 52.940369%, 54.901123%)" fill-opacity="1" stroke-width="0.290128" stroke-linecap="butt" stroke-linejoin="miter" stroke="rgb(46.273804%, 52.940369%, 54.901123%)" stroke-opacity="1" stroke-miterlimit="4" d="M -28.294308 -101.025304 L -27.20615 -102.111383 L -31.012877 -101.025547 L -27.205712 -99.935276 Z M -28.294308 -101.025304 " transform="matrix(-1, 0.742955, -0.742955, -1, 0, 0)"/>
<path fill="none" stroke-width="0.677695" stroke-linecap="butt" stroke-linejoin="miter" stroke="rgb(46.273804%, 52.940369%, 54.901123%)" stroke-opacity="1" stroke-miterlimit="4" d="M 28.261719 51.742188 L 57.203125 22.820312 "/>
<path fill-rule="evenodd" fill="rgb(46.273804%, 52.940369%, 54.901123%)" fill-opacity="1" stroke-width="0.255677" stroke-linecap="butt" stroke-linejoin="miter" stroke="rgb(46.273804%, 52.940369%, 54.901123%)" stroke-opacity="1" stroke-miterlimit="4" d="M -15.297407 -40.019605 L -14.338423 -40.979353 L -17.694846 -40.020604 L -14.339613 -39.062574 Z M -15.297407 -40.019605 " transform="matrix(-1, 0.999204, -0.999204, -1, 0, 0)"/>
<path fill="none" stroke-width="0.677695" stroke-linecap="butt" stroke-linejoin="miter" stroke="rgb(46.273804%, 52.940369%, 54.901123%)" stroke-opacity="1" stroke-miterlimit="4" d="M 27.804688 64.726562 L 57.945312 92.265625 "/>
<path fill-rule="evenodd" fill="rgb(46.273804%, 52.940369%, 54.901123%)" fill-opacity="1" stroke-width="0.26685" stroke-linecap="butt" stroke-linejoin="miter" stroke="rgb(46.273804%, 52.940369%, 54.901123%)" stroke-opacity="1" stroke-miterlimit="4" d="M -75.52969 -21.437805 L -74.529149 -22.43778 L -78.030336 -21.438511 L -74.529715 -20.437264 Z M -75.52969 -21.437805 " transform="matrix(-1, -0.913544, 0.913544, -1, 0, 0)"/>
<path fill="none" stroke-width="0.677695" stroke-linecap="butt" stroke-linejoin="miter" stroke="rgb(0%, 0%, 0%)" stroke-opacity="1" stroke-miterlimit="4" d="M 29.796875 57.929688 C 29.796875 64.0625 24.824219 69.035156 18.691406 69.035156 C 12.554688 69.035156 7.582031 64.0625 7.582031 57.929688 C 7.582031 51.796875 12.554688 46.820312 18.691406 46.820312 C 24.824219 46.820312 29.796875 51.796875 29.796875 57.929688 Z M 29.796875 57.929688 "/>
<path fill="none" stroke-width="0.677695" stroke-linecap="butt" stroke-linejoin="miter" stroke="rgb(0%, 0%, 0%)" stroke-opacity="1" stroke-miterlimit="4" d="M 29.796875 85.785156 C 29.796875 91.921875 24.824219 96.894531 18.691406 96.894531 C 12.554688 96.894531 7.582031 91.921875 7.582031 85.785156 C 7.582031 79.652344 12.554688 74.679688 18.691406 74.679688 C 24.824219 74.679688 29.796875 79.652344 29.796875 85.785156 Z M 29.796875 85.785156 "/>
<path fill="none" stroke-width="0.677695" stroke-linecap="butt" stroke-linejoin="miter" stroke="rgb(0%, 0%, 0%)" stroke-opacity="1" stroke-miterlimit="4" d="M 29.796875 30.074219 C 29.796875 36.207031 24.824219 41.179688 18.691406 41.179688 C 12.554688 41.179688 7.582031 36.207031 7.582031 30.074219 C 7.582031 23.9375 12.554688 18.964844 18.691406 18.964844 C 24.824219 18.964844 29.796875 23.9375 29.796875 30.074219 Z M 29.796875 30.074219 "/>
<path fill-rule="nonzero" fill="rgb(0%, 0%, 0%)" fill-opacity="1" d="M 17.191406 28.292969 C 17.261719 28.007812 17.527344 26.957031 18.3125 26.957031 C 18.367188 26.957031 18.652344 26.957031 18.882812 27.101562 C 18.5625 27.171875 18.347656 27.4375 18.347656 27.722656 C 18.347656 27.902344 18.472656 28.117188 18.773438 28.117188 C 19.023438 28.117188 19.382812 27.921875 19.382812 27.457031 C 19.382812 26.871094 18.722656 26.707031 18.328125 26.707031 C 17.671875 26.707031 17.277344 27.316406 17.136719 27.5625 C 16.851562 26.816406 16.246094 26.707031 15.90625 26.707031 C 14.730469 26.707031 14.070312 28.167969 14.070312 28.453125 C 14.070312 28.578125 14.195312 28.578125 14.214844 28.578125 C 14.304688 28.578125 14.339844 28.542969 14.355469 28.453125 C 14.75 27.242188 15.496094 26.957031 15.890625 26.957031 C 16.101562 26.957031 16.496094 27.066406 16.496094 27.722656 C 16.496094 28.082031 16.300781 28.828125 15.890625 30.433594 C 15.710938 31.125 15.300781 31.609375 14.800781 31.609375 C 14.730469 31.609375 14.480469 31.609375 14.234375 31.464844 C 14.515625 31.394531 14.765625 31.164062 14.765625 30.84375 C 14.765625 30.539062 14.515625 30.449219 14.355469 30.449219 C 14 30.449219 13.734375 30.734375 13.734375 31.109375 C 13.734375 31.625 14.285156 31.855469 14.785156 31.855469 C 15.550781 31.855469 15.960938 31.054688 15.976562 31.003906 C 16.121094 31.410156 16.53125 31.855469 17.207031 31.855469 C 18.382812 31.855469 19.023438 30.398438 19.023438 30.113281 C 19.023438 29.988281 18.9375 29.988281 18.898438 29.988281 C 18.792969 29.988281 18.773438 30.039062 18.738281 30.113281 C 18.367188 31.339844 17.597656 31.609375 17.242188 31.609375 C 16.796875 31.609375 16.621094 31.25 16.621094 30.859375 C 16.621094 30.609375 16.671875 30.359375 16.796875 29.863281 Z M 17.191406 28.292969 "/>
<path fill-rule="nonzero" fill="rgb(0%, 0%, 0%)" fill-opacity="1" d="M 22.542969 28.375 C 22.542969 28.164062 22.542969 28.164062 22.308594 28.164062 C 21.792969 28.660156 21.082031 28.660156 20.761719 28.660156 L 20.761719 28.945312 C 20.9375 28.945312 21.472656 28.945312 21.898438 28.734375 L 21.898438 32.777344 C 21.898438 33.042969 21.898438 33.152344 21.117188 33.152344 L 20.8125 33.152344 L 20.8125 33.4375 C 20.957031 33.4375 21.9375 33.398438 22.222656 33.398438 C 22.46875 33.398438 23.46875 33.4375 23.644531 33.4375 L 23.644531 33.152344 L 23.34375 33.152344 C 22.542969 33.152344 22.542969 33.042969 22.542969 32.777344 Z M 22.542969 28.375 "/>
<path fill-rule="nonzero" fill="rgb(0%, 0%, 0%)" fill-opacity="1" d="M 17.066406 56.152344 C 17.136719 55.867188 17.402344 54.816406 18.1875 54.816406 C 18.242188 54.816406 18.527344 54.816406 18.757812 54.957031 C 18.4375 55.027344 18.222656 55.296875 18.222656 55.582031 C 18.222656 55.757812 18.347656 55.972656 18.652344 55.972656 C 18.898438 55.972656 19.257812 55.777344 19.257812 55.3125 C 19.257812 54.726562 18.597656 54.566406 18.207031 54.566406 C 17.546875 54.566406 17.152344 55.171875 17.011719 55.421875 C 16.726562 54.671875 16.121094 54.566406 15.78125 54.566406 C 14.605469 54.566406 13.949219 56.027344 13.949219 56.3125 C 13.949219 56.4375 14.070312 56.4375 14.089844 56.4375 C 14.179688 56.4375 14.214844 56.402344 14.234375 56.3125 C 14.625 55.101562 15.371094 54.816406 15.765625 54.816406 C 15.976562 54.816406 16.371094 54.921875 16.371094 55.582031 C 16.371094 55.9375 16.175781 56.6875 15.765625 58.289062 C 15.585938 58.984375 15.175781 59.464844 14.679688 59.464844 C 14.605469 59.464844 14.355469 59.464844 14.109375 59.324219 C 14.394531 59.25 14.640625 59.019531 14.640625 58.699219 C 14.640625 58.394531 14.394531 58.308594 14.234375 58.308594 C 13.875 58.308594 13.609375 58.59375 13.609375 58.964844 C 13.609375 59.484375 14.160156 59.714844 14.660156 59.714844 C 15.425781 59.714844 15.835938 58.914062 15.855469 58.859375 C 15.996094 59.269531 16.40625 59.714844 17.082031 59.714844 C 18.257812 59.714844 18.898438 58.253906 18.898438 57.96875 C 18.898438 57.84375 18.8125 57.84375 18.773438 57.84375 C 18.667969 57.84375 18.652344 57.898438 18.613281 57.96875 C 18.242188 59.199219 17.476562 59.464844 17.117188 59.464844 C 16.671875 59.464844 16.496094 59.109375 16.496094 58.71875 C 16.496094 58.46875 16.546875 58.21875 16.671875 57.71875 Z M 17.066406 56.152344 "/>
<path fill-rule="nonzero" fill="rgb(0%, 0%, 0%)" fill-opacity="1" d="M 23.769531 59.851562 L 23.503906 59.851562 C 23.484375 60.027344 23.398438 60.492188 23.289062 60.5625 C 23.234375 60.617188 22.628906 60.617188 22.507812 60.617188 L 21.046875 60.617188 C 21.882812 59.886719 22.167969 59.652344 22.628906 59.28125 C 23.21875 58.816406 23.769531 58.316406 23.769531 57.570312 C 23.769531 56.609375 22.933594 56.019531 21.917969 56.019531 C 20.9375 56.019531 20.261719 56.714844 20.261719 57.445312 C 20.261719 57.835938 20.601562 57.890625 20.6875 57.890625 C 20.867188 57.890625 21.097656 57.746094 21.097656 57.464844 C 21.097656 57.320312 21.046875 57.035156 20.636719 57.035156 C 20.886719 56.484375 21.417969 56.304688 21.792969 56.304688 C 22.59375 56.304688 23.003906 56.929688 23.003906 57.570312 C 23.003906 58.265625 22.507812 58.800781 22.257812 59.085938 L 20.351562 60.992188 C 20.261719 61.0625 20.261719 61.078125 20.261719 61.292969 L 23.539062 61.292969 Z M 23.769531 59.851562 "/>
<path fill-rule="nonzero" fill="rgb(0%, 0%, 0%)" fill-opacity="1" d="M 17.03125 83.929688 C 17.101562 83.644531 17.367188 82.59375 18.152344 82.59375 C 18.207031 82.59375 18.488281 82.59375 18.722656 82.734375 C 18.402344 82.804688 18.1875 83.074219 18.1875 83.359375 C 18.1875 83.535156 18.3125 83.75 18.613281 83.75 C 18.863281 83.75 19.21875 83.554688 19.21875 83.089844 C 19.21875 82.503906 18.5625 82.34375 18.167969 82.34375 C 17.511719 82.34375 17.117188 82.949219 16.976562 83.199219 C 16.691406 82.449219 16.085938 82.34375 15.746094 82.34375 C 14.570312 82.34375 13.910156 83.804688 13.910156 84.089844 C 13.910156 84.214844 14.035156 84.214844 14.054688 84.214844 C 14.144531 84.214844 14.179688 84.179688 14.195312 84.089844 C 14.589844 82.878906 15.335938 82.59375 15.730469 82.59375 C 15.941406 82.59375 16.335938 82.699219 16.335938 83.359375 C 16.335938 83.714844 16.140625 84.464844 15.730469 86.066406 C 15.550781 86.761719 15.140625 87.242188 14.640625 87.242188 C 14.570312 87.242188 14.320312 87.242188 14.070312 87.097656 C 14.355469 87.027344 14.605469 86.796875 14.605469 86.476562 C 14.605469 86.171875 14.355469 86.085938 14.195312 86.085938 C 13.839844 86.085938 13.574219 86.367188 13.574219 86.742188 C 13.574219 87.261719 14.125 87.492188 14.625 87.492188 C 15.390625 87.492188 15.800781 86.691406 15.816406 86.636719 C 15.960938 87.046875 16.371094 87.492188 17.046875 87.492188 C 18.222656 87.492188 18.863281 86.03125 18.863281 85.746094 C 18.863281 85.621094 18.773438 85.621094 18.738281 85.621094 C 18.632812 85.621094 18.613281 85.675781 18.578125 85.746094 C 18.207031 86.976562 17.4375 87.242188 17.082031 87.242188 C 16.636719 87.242188 16.460938 86.886719 16.460938 86.492188 C 16.460938 86.246094 16.511719 85.996094 16.636719 85.496094 Z M 17.03125 83.929688 "/>
<path fill-rule="nonzero" fill="rgb(0%, 0%, 0%)" fill-opacity="1" d="M 21.898438 86.414062 C 22.523438 86.414062 22.96875 86.84375 22.96875 87.699219 C 22.96875 88.679688 22.382812 88.980469 21.9375 88.980469 C 21.613281 88.980469 20.902344 88.890625 20.582031 88.410156 C 20.957031 88.410156 21.046875 88.144531 21.046875 87.964844 C 21.046875 87.714844 20.847656 87.539062 20.601562 87.539062 C 20.386719 87.539062 20.15625 87.679688 20.15625 88 C 20.15625 88.75 20.972656 89.230469 21.9375 89.230469 C 23.039062 89.230469 23.804688 88.480469 23.804688 87.699219 C 23.804688 87.074219 23.308594 86.453125 22.433594 86.273438 C 23.253906 85.96875 23.558594 85.382812 23.558594 84.882812 C 23.558594 84.261719 22.84375 83.796875 21.953125 83.796875 C 21.082031 83.796875 20.402344 84.222656 20.402344 84.867188 C 20.402344 85.132812 20.582031 85.277344 20.8125 85.277344 C 21.0625 85.277344 21.222656 85.097656 21.222656 84.882812 C 21.222656 84.652344 21.0625 84.472656 20.8125 84.457031 C 21.097656 84.117188 21.632812 84.027344 21.9375 84.027344 C 22.292969 84.027344 22.789062 84.207031 22.789062 84.882812 C 22.789062 85.222656 22.683594 85.597656 22.46875 85.828125 C 22.222656 86.128906 21.988281 86.148438 21.597656 86.183594 C 21.402344 86.203125 21.382812 86.203125 21.347656 86.203125 C 21.332031 86.203125 21.257812 86.21875 21.257812 86.308594 C 21.257812 86.414062 21.332031 86.414062 21.472656 86.414062 Z M 21.898438 86.414062 "/>
<path fill="none" stroke-width="0.677695" stroke-linecap="butt" stroke-linejoin="miter" stroke="rgb(46.273804%, 52.940369%, 54.901123%)" stroke-opacity="1" stroke-miterlimit="4" d="M 77.5625 38.160156 L 104.992188 20.628906 "/>
<path fill-rule="evenodd" fill="rgb(46.273804%, 52.940369%, 54.901123%)" fill-opacity="1" stroke-width="0.304561" stroke-linecap="butt" stroke-linejoin="miter" stroke="rgb(46.273804%, 52.940369%, 54.901123%)" stroke-opacity="1" stroke-miterlimit="4" d="M -62.902642 -62.2874 L -61.762417 -63.429839 L -65.757861 -62.287791 L -61.761975 -61.144401 Z M -62.902642 -62.2874 " transform="matrix(-1, 0.639044, -0.639044, -1, 0, 0)"/>
<path fill="none" stroke-width="0.677695" stroke-linecap="butt" stroke-linejoin="miter" stroke="rgb(46.273804%, 52.940369%, 54.901123%)" stroke-opacity="1" stroke-miterlimit="4" d="M 77.484375 77.160156 L 105.980469 93.855469 "/>
<path fill-rule="evenodd" fill="rgb(46.273804%, 52.940369%, 54.901123%)" fill-opacity="1" stroke-width="0.31187" stroke-linecap="butt" stroke-linejoin="miter" stroke="rgb(46.273804%, 52.940369%, 54.901123%)" stroke-opacity="1" stroke-miterlimit="4" d="M -117.501027 -23.654858 L -116.330831 -24.824709 L -120.422626 -23.654387 L -116.331177 -22.484662 Z M -117.501027 -23.654858 " transform="matrix(-1, -0.585778, 0.585778, -1, 0, 0)"/>
<path fill="none" stroke-width="0.67377" stroke-linecap="butt" stroke-linejoin="miter" stroke="rgb(46.273804%, 52.940369%, 54.901123%)" stroke-opacity="1" stroke-miterlimit="4" d="M 74.988281 63.832031 L 107.273438 24.15625 "/>
<path fill-rule="evenodd" fill="rgb(46.273804%, 52.940369%, 54.901123%)" fill-opacity="1" stroke-width="0.278728" stroke-linecap="butt" stroke-linejoin="miter" stroke="rgb(46.273804%, 52.940369%, 54.901123%)" stroke-opacity="1" stroke-miterlimit="4" d="M -35.894058 -76.367116 L -34.847929 -77.40976 L -38.506637 -76.366253 L -34.847151 -75.32055 Z M -35.894058 -76.367116 " transform="matrix(-0.813703, 1, -1, -0.813703, 0, 0)"/>
<path fill="none" stroke-width="0.677695" stroke-linecap="butt" stroke-linejoin="miter" stroke="rgb(46.273804%, 52.940369%, 54.901123%)" stroke-opacity="1" stroke-miterlimit="4" d="M 78.835938 15.980469 L 104.292969 15.976562 "/>
<path fill-rule="evenodd" fill="rgb(46.273804%, 52.940369%, 54.901123%)" fill-opacity="1" stroke-width="0.361437" stroke-linecap="butt" stroke-linejoin="miter" stroke="rgb(46.273804%, 52.940369%, 54.901123%)" stroke-opacity="1" stroke-miterlimit="4" d="M -101.578825 -15.99692 L -100.226991 -17.352118 L -104.96945 -15.997599 L -100.223628 -14.641179 Z M -101.578825 -15.99692 " transform="matrix(-1, 0.000200409, -0.000200409, -1, 0, 0)"/>
<path fill="none" stroke-width="0.677695" stroke-linecap="butt" stroke-linejoin="miter" stroke="rgb(46.273804%, 52.940369%, 54.901123%)" stroke-opacity="1" stroke-miterlimit="4" d="M 78.835938 100.542969 L 104.597656 100.535156 "/>
<path fill-rule="evenodd" fill="rgb(46.273804%, 52.940369%, 54.901123%)" fill-opacity="1" stroke-width="0.361437" stroke-linecap="butt" stroke-linejoin="miter" stroke="rgb(46.273804%, 52.940369%, 54.901123%)" stroke-opacity="1" stroke-miterlimit="4" d="M -101.866805 -100.55533 L -100.511068 -101.91053 L -105.25743 -100.556002 L -100.511604 -99.199593 Z M -101.866805 -100.55533 " transform="matrix(-1, 0.000198041, -0.000198041, -1, 0, 0)"/>
<path fill="none" stroke-width="0.67377" stroke-linecap="butt" stroke-linejoin="miter" stroke="rgb(46.273804%, 52.940369%, 54.901123%)" stroke-opacity="1" stroke-miterlimit="4" d="M 76.207031 50.765625 L 109.023438 90.367188 "/>
<path fill-rule="evenodd" fill="rgb(46.273804%, 52.940369%, 54.901123%)" fill-opacity="1" stroke-width="0.276683" stroke-linecap="butt" stroke-linejoin="miter" stroke="rgb(46.273804%, 52.940369%, 54.901123%)" stroke-opacity="1" stroke-miterlimit="4" d="M -105.061124 20.238538 L -104.024203 19.199417 L -107.654357 20.237914 L -104.024318 21.27354 Z M -105.061124 20.238538 " transform="matrix(-0.828719, -1, 1, -0.828719, 0, 0)"/>
<path fill="none" stroke-width="0.67377" stroke-linecap="butt" stroke-linejoin="miter" stroke="rgb(46.273804%, 52.940369%, 54.901123%)" stroke-opacity="1" stroke-miterlimit="4" d="M 73.78125 24.203125 L 111.238281 89.113281 "/>
<path fill-rule="evenodd" fill="rgb(46.273804%, 52.940369%, 54.901123%)" fill-opacity="1" stroke-width="0.311236" stroke-linecap="butt" stroke-linejoin="miter" stroke="rgb(46.273804%, 52.940369%, 54.901123%)" stroke-opacity="1" stroke-miterlimit="4" d="M -112.673929 44.86774 L -111.505279 43.702311 L -115.591753 44.867489 L -111.50557 46.038081 Z M -112.673929 44.86774 " transform="matrix(-0.577089, -1, 1, -0.577089, 0, 0)"/>
<path fill="none" stroke-width="0.67377" stroke-linecap="butt" stroke-linejoin="miter" stroke="rgb(46.273804%, 52.940369%, 54.901123%)" stroke-opacity="1" stroke-miterlimit="4" d="M 73.804688 90.550781 L 110.476562 26.707031 "/>
<path fill-rule="evenodd" fill="rgb(46.273804%, 52.940369%, 54.901123%)" fill-opacity="1" stroke-width="0.311591" stroke-linecap="butt" stroke-linejoin="miter" stroke="rgb(46.273804%, 52.940369%, 54.901123%)" stroke-opacity="1" stroke-miterlimit="4" d="M -25.301595 -94.602116 L -24.132525 -95.769787 L -28.222303 -94.600085 L -24.133924 -93.433046 Z M -25.301595 -94.602116 " transform="matrix(-0.574454, 1, -1, -0.574454, 0, 0)"/>
<path fill="none" stroke-width="1.984252" stroke-linecap="butt" stroke-linejoin="miter" stroke="rgb(81.175232%, 92.547607%, 91.371155%)" stroke-opacity="1" stroke-miterlimit="4" d="M 74.960938 7.785156 L 67.730469 16.027344 L 56.558594 16.039062 "/>
<path fill="none" stroke-width="0.677695" stroke-linecap="butt" stroke-linejoin="miter" stroke="rgb(0%, 0%, 0%)" stroke-opacity="1" stroke-miterlimit="4" d="M 78.753906 15.492188 C 78.753906 21.625 73.78125 26.597656 67.648438 26.597656 C 61.511719 26.597656 56.539062 21.625 56.539062 15.492188 C 56.539062 9.355469 61.511719 4.382812 67.648438 4.382812 C 73.78125 4.382812 78.753906 9.355469 78.753906 15.492188 Z M 78.753906 15.492188 "/>
<path fill="none" stroke-width="1.984252" stroke-linecap="butt" stroke-linejoin="miter" stroke="rgb(81.175232%, 92.547607%, 91.371155%)" stroke-opacity="1" stroke-miterlimit="4" d="M 75.054688 35.421875 L 67.824219 43.664062 L 56.652344 43.671875 "/>
<path fill="none" stroke-width="0.677695" stroke-linecap="butt" stroke-linejoin="miter" stroke="rgb(0%, 0%, 0%)" stroke-opacity="1" stroke-miterlimit="4" d="M 78.753906 43.597656 C 78.753906 49.734375 73.78125 54.707031 67.648438 54.707031 C 61.511719 54.707031 56.539062 49.734375 56.539062 43.597656 C 56.539062 37.464844 61.511719 32.492188 67.648438 32.492188 C 73.78125 32.492188 78.753906 37.464844 78.753906 43.597656 Z M 78.753906 43.597656 "/>
<path fill="none" stroke-width="1.984252" stroke-linecap="butt" stroke-linejoin="miter" stroke="rgb(81.175232%, 92.547607%, 91.371155%)" stroke-opacity="1" stroke-miterlimit="4" d="M 74.960938 63.898438 L 67.730469 72.140625 L 56.558594 72.148438 "/>
<path fill="none" stroke-width="0.677695" stroke-linecap="butt" stroke-linejoin="miter" stroke="rgb(0%, 0%, 0%)" stroke-opacity="1" stroke-miterlimit="4" d="M 78.753906 72.074219 C 78.753906 78.210938 73.78125 83.183594 67.648438 83.183594 C 61.511719 83.183594 56.539062 78.210938 56.539062 72.074219 C 56.539062 65.941406 61.511719 60.96875 67.648438 60.96875 C 73.78125 60.96875 78.753906 65.941406 78.753906 72.074219 Z M 78.753906 72.074219 "/>
<g clip-path="url(#clip-0)">
<path fill="none" stroke-width="1.984252" stroke-linecap="butt" stroke-linejoin="miter" stroke="rgb(81.175232%, 92.547607%, 91.371155%)" stroke-opacity="1" stroke-miterlimit="4" d="M 75.054688 92.285156 L 67.824219 100.527344 L 56.652344 100.539062 "/>
</g>
<g clip-path="url(#clip-1)">
<path fill="none" stroke-width="0.677695" stroke-linecap="butt" stroke-linejoin="miter" stroke="rgb(0%, 0%, 0%)" stroke-opacity="1" stroke-miterlimit="4" d="M 78.753906 100.367188 C 78.753906 106.503906 73.78125 111.476562 67.648438 111.476562 C 61.511719 111.476562 56.539062 106.503906 56.539062 100.367188 C 56.539062 94.234375 61.511719 89.261719 67.648438 89.261719 C 73.78125 89.261719 78.753906 94.234375 78.753906 100.367188 Z M 78.753906 100.367188 "/>
</g>
<path fill="none" stroke-width="0.677695" stroke-linecap="butt" stroke-linejoin="miter" stroke="rgb(46.273804%, 52.940369%, 54.901123%)" stroke-opacity="1" stroke-miterlimit="4" d="M 125.863281 21.578125 L 156.273438 49.335938 "/>
<path fill-rule="evenodd" fill="rgb(46.273804%, 52.940369%, 54.901123%)" fill-opacity="1" stroke-width="0.266939" stroke-linecap="butt" stroke-linejoin="miter" stroke="rgb(46.273804%, 52.940369%, 54.901123%)" stroke-opacity="1" stroke-miterlimit="4" d="M -107.804769 50.903927 L -106.80547 49.901853 L -110.306254 50.902301 L -106.802695 51.903227 Z M -107.804769 50.903927 " transform="matrix(-1, -0.91287, 0.91287, -1, 0, 0)"/>
<path fill="none" stroke-width="0.677695" stroke-linecap="butt" stroke-linejoin="miter" stroke="rgb(46.273804%, 52.940369%, 54.901123%)" stroke-opacity="1" stroke-miterlimit="4" d="M 357.625 45.574219 L 383.730469 53.640625 "/>
<path fill-rule="evenodd" fill="rgb(46.273804%, 52.940369%, 54.901123%)" fill-opacity="1" stroke-width="0.345328" stroke-linecap="butt" stroke-linejoin="miter" stroke="rgb(46.273804%, 52.940369%, 54.901123%)" stroke-opacity="1" stroke-miterlimit="4" d="M -362.826786 59.270005 L -361.53264 57.971689 L -366.066001 59.266984 L -361.532036 60.565253 Z M -362.826786 59.270005 " transform="matrix(-1, -0.30899, 0.30899, -1, 0, 0)"/>
<path fill="none" stroke-width="0.677695" stroke-linecap="butt" stroke-linejoin="miter" stroke="rgb(46.273804%, 52.940369%, 54.901123%)" stroke-opacity="1" stroke-miterlimit="4" d="M 127.371094 68.929688 L 153.152344 60.746094 "/>
<path fill-rule="evenodd" fill="rgb(46.273804%, 52.940369%, 54.901123%)" fill-opacity="1" stroke-width="0.344498" stroke-linecap="butt" stroke-linejoin="miter" stroke="rgb(46.273804%, 52.940369%, 54.901123%)" stroke-opacity="1" stroke-miterlimit="4" d="M -119.033405 -99.351061 L -117.741395 -100.640158 L -122.264421 -99.349335 L -117.740758 -98.057925 Z M -119.033405 -99.351061 " transform="matrix(-1, 0.317429, -0.317429, -1, 0, 0)"/>
<path fill="none" stroke-width="0.677695" stroke-linecap="butt" stroke-linejoin="miter" stroke="rgb(46.273804%, 52.940369%, 54.901123%)" stroke-opacity="1" stroke-miterlimit="4" d="M 126.078125 94.328125 L 156.058594 66.234375 "/>
<path fill-rule="evenodd" fill="rgb(46.273804%, 52.940369%, 54.901123%)" fill-opacity="1" stroke-width="0.263736" stroke-linecap="butt" stroke-linejoin="miter" stroke="rgb(46.273804%, 52.940369%, 54.901123%)" stroke-opacity="1" stroke-miterlimit="4" d="M -48.068816 -113.1306 L -47.078575 -114.120627 L -50.541129 -113.130967 L -47.07879 -112.140359 Z M -48.068816 -113.1306 " transform="matrix(-1, 0.937087, -0.937087, -1, 0, 0)"/>
<path fill="none" stroke-width="1.984252" stroke-linecap="butt" stroke-linejoin="miter" stroke="rgb(81.175232%, 92.547607%, 91.371155%)" stroke-opacity="1" stroke-miterlimit="4" d="M 123.917969 7.785156 L 116.6875 16.027344 L 105.515625 16.039062 "/>
<path fill="none" stroke-width="0.677695" stroke-linecap="butt" stroke-linejoin="miter" stroke="rgb(0%, 0%, 0%)" stroke-opacity="1" stroke-miterlimit="4" d="M 127.710938 15.492188 C 127.710938 21.625 122.738281 26.597656 116.601562 26.597656 C 110.46875 26.597656 105.496094 21.625 105.496094 15.492188 C 105.496094 9.355469 110.46875 4.382812 116.601562 4.382812 C 122.738281 4.382812 127.710938 9.355469 127.710938 15.492188 Z M 127.710938 15.492188 "/>
<path fill="none" stroke-width="1.984252" stroke-linecap="butt" stroke-linejoin="miter" stroke="rgb(81.175232%, 92.547607%, 91.371155%)" stroke-opacity="1" stroke-miterlimit="4" d="M 124.011719 35.421875 L 116.78125 43.664062 L 105.609375 43.671875 "/>
<path fill="none" stroke-width="0.677695" stroke-linecap="butt" stroke-linejoin="miter" stroke="rgb(0%, 0%, 0%)" stroke-opacity="1" stroke-miterlimit="4" d="M 127.710938 43.597656 C 127.710938 49.734375 122.738281 54.707031 116.601562 54.707031 C 110.46875 54.707031 105.496094 49.734375 105.496094 43.597656 C 105.496094 37.464844 110.46875 32.492188 116.601562 32.492188 C 122.738281 32.492188 127.710938 37.464844 127.710938 43.597656 Z M 127.710938 43.597656 "/>
<path fill="none" stroke-width="1.984252" stroke-linecap="butt" stroke-linejoin="miter" stroke="rgb(81.175232%, 92.547607%, 91.371155%)" stroke-opacity="1" stroke-miterlimit="4" d="M 123.917969 63.898438 L 116.6875 72.140625 L 105.515625 72.148438 "/>
<path fill="none" stroke-width="0.677695" stroke-linecap="butt" stroke-linejoin="miter" stroke="rgb(0%, 0%, 0%)" stroke-opacity="1" stroke-miterlimit="4" d="M 127.710938 72.074219 C 127.710938 78.210938 122.738281 83.183594 116.601562 83.183594 C 110.46875 83.183594 105.496094 78.210938 105.496094 72.074219 C 105.496094 65.941406 110.46875 60.96875 116.601562 60.96875 C 122.738281 60.96875 127.710938 65.941406 127.710938 72.074219 Z M 127.710938 72.074219 "/>
<g clip-path="url(#clip-2)">
<path fill="none" stroke-width="1.984252" stroke-linecap="butt" stroke-linejoin="miter" stroke="rgb(81.175232%, 92.547607%, 91.371155%)" stroke-opacity="1" stroke-miterlimit="4" d="M 124.011719 92.285156 L 116.78125 100.527344 L 105.609375 100.539062 "/>
</g>
<g clip-path="url(#clip-3)">
<path fill="none" stroke-width="0.677695" stroke-linecap="butt" stroke-linejoin="miter" stroke="rgb(0%, 0%, 0%)" stroke-opacity="1" stroke-miterlimit="4" d="M 127.710938 100.367188 C 127.710938 106.503906 122.738281 111.476562 116.601562 111.476562 C 110.46875 111.476562 105.496094 106.503906 105.496094 100.367188 C 105.496094 94.234375 110.46875 89.261719 116.601562 89.261719 C 122.738281 89.261719 127.710938 94.234375 127.710938 100.367188 Z M 127.710938 100.367188 "/>
</g>
<path fill="none" stroke-width="0.677695" stroke-linecap="butt" stroke-linejoin="miter" stroke="rgb(0%, 0%, 0%)" stroke-opacity="1" stroke-miterlimit="4" d="M 176.667969 57.929688 C 176.667969 64.0625 171.695312 69.035156 165.558594 69.035156 C 159.425781 69.035156 154.453125 64.0625 154.453125 57.929688 C 154.453125 51.796875 159.425781 46.820312 165.558594 46.820312 C 171.695312 46.820312 176.667969 51.796875 176.667969 57.929688 Z M 176.667969 57.929688 "/>
<path fill-rule="nonzero" fill="rgb(0%, 0%, 0%)" fill-opacity="1" d="M 168.125 54.945312 C 168.179688 54.785156 168.179688 54.765625 168.179688 54.679688 C 168.179688 54.484375 168.019531 54.375 167.839844 54.375 C 167.734375 54.375 167.554688 54.445312 167.449219 54.605469 C 167.429688 54.679688 167.324219 55.015625 167.289062 55.230469 C 167.199219 55.515625 167.128906 55.835938 167.054688 56.140625 L 166.539062 58.1875 C 166.503906 58.347656 166.003906 59.148438 165.257812 59.148438 C 164.6875 59.148438 164.5625 58.652344 164.5625 58.222656 C 164.5625 57.707031 164.757812 56.996094 165.132812 55.996094 C 165.3125 55.535156 165.363281 55.410156 165.363281 55.175781 C 165.363281 54.679688 165.007812 54.25 164.4375 54.25 C 163.351562 54.25 162.941406 55.90625 162.941406 55.996094 C 162.941406 56.121094 163.046875 56.121094 163.066406 56.121094 C 163.191406 56.121094 163.191406 56.085938 163.242188 55.90625 C 163.566406 54.839844 164.011719 54.5 164.402344 54.5 C 164.492188 54.5 164.6875 54.5 164.6875 54.855469 C 164.6875 55.140625 164.5625 55.445312 164.492188 55.660156 C 164.027344 56.871094 163.832031 57.511719 163.832031 58.046875 C 163.832031 59.0625 164.542969 59.398438 165.222656 59.398438 C 165.667969 59.398438 166.039062 59.203125 166.363281 58.882812 C 166.21875 59.46875 166.078125 60.039062 165.632812 60.644531 C 165.328125 61.019531 164.902344 61.359375 164.382812 61.359375 C 164.222656 61.359375 163.707031 61.324219 163.511719 60.878906 C 163.691406 60.878906 163.851562 60.878906 163.992188 60.734375 C 164.117188 60.644531 164.222656 60.484375 164.222656 60.273438 C 164.222656 59.914062 163.921875 59.878906 163.8125 59.878906 C 163.546875 59.878906 163.171875 60.058594 163.171875 60.609375 C 163.171875 61.179688 163.671875 61.609375 164.382812 61.609375 C 165.542969 61.609375 166.71875 60.574219 167.039062 59.292969 Z M 168.125 54.945312 "/>
<path fill-rule="nonzero" fill="rgb(0%, 0%, 0%)" fill-opacity="1" d="M 4.710938 9.085938 L 4.710938 5.839844 C 4.710938 4.195312 4.019531 3.246094 2.316406 3.246094 C 1.703125 3.246094 0.949219 3.445312 0.394531 3.640625 L 0.394531 4.570312 C 0.96875 4.253906 1.445312 4.058594 2.238281 4.058594 C 3.148438 4.078125 3.839844 4.53125 3.839844 5.484375 L 2.535156 5.484375 C 1.1875 5.484375 0 5.9375 0 7.421875 C 0.0390625 8.570312 0.710938 9.242188 1.859375 9.242188 C 2.671875 9.242188 3.40625 8.90625 3.839844 8.332031 L 3.839844 9.085938 Z M 3.839844 6.433594 C 3.839844 7.539062 3.324219 8.429688 2.136719 8.429688 C 1.445312 8.429688 0.871094 8.113281 0.871094 7.363281 C 0.871094 6.253906 1.917969 6.253906 2.910156 6.253906 L 3.839844 6.253906 Z M 3.839844 6.433594 "/>
<path fill-rule="nonzero" fill="rgb(0%, 0%, 0%)" fill-opacity="1" d="M 8.144531 5.324219 C 8.144531 3.484375 7.371094 1.542969 6.441406 0 L 5.6875 0 C 6.699219 1.761719 7.234375 3.285156 7.234375 5.324219 C 7.234375 7.363281 6.71875 8.867188 5.707031 10.667969 L 6.441406 10.667969 C 7.371094 9.164062 8.144531 7.105469 8.144531 5.324219 Z M 8.144531 5.324219 "/>
<path fill-rule="nonzero" fill="rgb(0%, 0%, 0%)" fill-opacity="1" d="M 233.28125 6.234375 C 233.28125 4.53125 232.253906 3.382812 230.410156 3.382812 L 229.007812 3.382812 L 229.007812 0.355469 L 228.054688 0.355469 L 228.054688 9.085938 L 230.492188 9.085938 C 232.171875 9.085938 233.28125 7.917969 233.28125 6.234375 Z M 232.371094 6.234375 C 232.371094 7.460938 231.640625 8.253906 230.410156 8.253906 L 229.007812 8.253906 L 229.007812 4.214844 L 230.410156 4.214844 C 231.660156 4.214844 232.371094 5.125 232.371094 6.234375 Z M 232.371094 6.234375 "/>
<path fill-rule="nonzero" fill="rgb(0%, 0%, 0%)" fill-opacity="1" d="M 236.492188 5.324219 C 236.492188 3.484375 235.722656 1.542969 234.792969 0 L 234.039062 0 C 235.050781 1.761719 235.582031 3.285156 235.582031 5.324219 C 235.582031 7.363281 235.070312 8.867188 234.058594 10.667969 L 234.792969 10.667969 C 235.722656 9.164062 236.492188 7.105469 236.492188 5.324219 Z M 236.492188 5.324219 "/>
<path fill="none" stroke-width="0.677695" stroke-linecap="butt" stroke-linejoin="miter" stroke="rgb(46.273804%, 52.940369%, 54.901123%)" stroke-opacity="1" stroke-miterlimit="4" d="M 259.90625 27.457031 L 285.820312 19.535156 "/>
<path fill-rule="evenodd" fill="rgb(46.273804%, 52.940369%, 54.901123%)" fill-opacity="1" stroke-width="0.345648" stroke-linecap="butt" stroke-linejoin="miter" stroke="rgb(46.273804%, 52.940369%, 54.901123%)" stroke-opacity="1" stroke-miterlimit="4" d="M -253.337898 -97.772507 L -252.043378 -99.068184 L -256.580383 -97.771534 L -252.043314 -96.474414 Z M -253.337898 -97.772507 " transform="matrix(-1, 0.305696, -0.305696, -1, 0, 0)"/>
<path fill="none" stroke-width="0.677695" stroke-linecap="butt" stroke-linejoin="miter" stroke="rgb(46.273804%, 52.940369%, 54.901123%)" stroke-opacity="1" stroke-miterlimit="4" d="M 259.730469 88.195312 L 286.414062 95.550781 "/>
<path fill-rule="evenodd" fill="rgb(46.273804%, 52.940369%, 54.901123%)" fill-opacity="1" stroke-width="0.348448" stroke-linecap="butt" stroke-linejoin="miter" stroke="rgb(46.273804%, 52.940369%, 54.901123%)" stroke-opacity="1" stroke-miterlimit="4" d="M -288.057084 -15.444778 L -286.749972 -16.754213 L -291.323323 -15.447005 L -286.751279 -14.136665 Z M -288.057084 -15.444778 " transform="matrix(-1, -0.275582, 0.275582, -1, 0, 0)"/>
<path fill="none" stroke-width="0.677695" stroke-linecap="butt" stroke-linejoin="miter" stroke="rgb(46.273804%, 52.940369%, 54.901123%)" stroke-opacity="1" stroke-miterlimit="4" d="M 259.84375 83.527344 L 285.652344 73.785156 "/>
<path fill-rule="evenodd" fill="rgb(46.273804%, 52.940369%, 54.901123%)" fill-opacity="1" stroke-width="0.338149" stroke-linecap="butt" stroke-linejoin="miter" stroke="rgb(46.273804%, 52.940369%, 54.901123%)" stroke-opacity="1" stroke-miterlimit="4" d="M -223.112218 -158.964932 L -221.844661 -160.232557 L -226.281309 -158.961959 L -221.845883 -157.693956 Z M -223.112218 -158.964932 " transform="matrix(-1, 0.377473, -0.377473, -1, 0, 0)"/>
<path fill="none" stroke-width="0.67377" stroke-linecap="butt" stroke-linejoin="miter" stroke="rgb(46.273804%, 52.940369%, 54.901123%)" stroke-opacity="1" stroke-miterlimit="4" d="M 255.046875 76.925781 L 290.355469 25.769531 "/>
<path fill-rule="evenodd" fill="rgb(46.273804%, 52.940369%, 54.901123%)" fill-opacity="1" stroke-width="0.295745" stroke-linecap="butt" stroke-linejoin="miter" stroke="rgb(46.273804%, 52.940369%, 54.901123%)" stroke-opacity="1" stroke-miterlimit="4" d="M -116.067061 -208.717867 L -114.957727 -209.827249 L -118.837811 -208.719633 L -114.957679 -207.608533 Z M -116.067061 -208.717867 " transform="matrix(-0.690173, 1, -1, -0.690173, 0, 0)"/>
<path fill="none" stroke-width="0.677695" stroke-linecap="butt" stroke-linejoin="miter" stroke="rgb(46.273804%, 52.940369%, 54.901123%)" stroke-opacity="1" stroke-miterlimit="4" d="M 259.84375 60.917969 L 286 67.296875 "/>
<path fill-rule="evenodd" fill="rgb(46.273804%, 52.940369%, 54.901123%)" fill-opacity="1" stroke-width="0.351147" stroke-linecap="butt" stroke-linejoin="miter" stroke="rgb(46.273804%, 52.940369%, 54.901123%)" stroke-opacity="1" stroke-miterlimit="4" d="M -282.803363 2.312084 L -281.487786 0.995174 L -286.096714 2.310514 L -281.486452 3.627661 Z M -282.803363 2.312084 " transform="matrix(-1, -0.24386, 0.24386, -1, 0, 0)"/>
<path fill="none" stroke-width="0.677695" stroke-linecap="butt" stroke-linejoin="miter" stroke="rgb(46.273804%, 52.940369%, 54.901123%)" stroke-opacity="1" stroke-miterlimit="4" d="M 259.84375 55.175781 L 285.570312 47.53125 "/>
<path fill-rule="evenodd" fill="rgb(46.273804%, 52.940369%, 54.901123%)" fill-opacity="1" stroke-width="0.346471" stroke-linecap="butt" stroke-linejoin="miter" stroke="rgb(46.273804%, 52.940369%, 54.901123%)" stroke-opacity="1" stroke-miterlimit="4" d="M -246.835506 -121.637048 L -245.535965 -122.934561 L -250.085315 -121.63769 L -245.537992 -120.337507 Z M -246.835506 -121.637048 " transform="matrix(-1, 0.29709, -0.29709, -1, 0, 0)"/>
<path fill="none" stroke-width="0.67377" stroke-linecap="butt" stroke-linejoin="miter" stroke="rgb(46.273804%, 52.940369%, 54.901123%)" stroke-opacity="1" stroke-miterlimit="4" d="M 307.722656 20.328125 L 338.941406 62.210938 "/>
<path fill-rule="evenodd" fill="rgb(46.273804%, 52.940369%, 54.901123%)" fill-opacity="1" stroke-width="0.288112" stroke-linecap="butt" stroke-linejoin="miter" stroke="rgb(46.273804%, 52.940369%, 54.901123%)" stroke-opacity="1" stroke-miterlimit="4" d="M -200.235662 188.074665 L -199.157711 186.995345 L -202.939144 188.075144 L -199.158214 189.155127 Z M -200.235662 188.074665 " transform="matrix(-0.745389, -1, 1, -0.745389, 0, 0)"/>
<path fill="none" stroke-width="0.677695" stroke-linecap="butt" stroke-linejoin="miter" stroke="rgb(46.273804%, 52.940369%, 54.901123%)" stroke-opacity="1" stroke-miterlimit="4" d="M 307.859375 47.816406 L 335.960938 65.574219 "/>
<path fill-rule="evenodd" fill="rgb(46.273804%, 52.940369%, 54.901123%)" fill-opacity="1" stroke-width="0.30555" stroke-linecap="butt" stroke-linejoin="miter" stroke="rgb(46.273804%, 52.940369%, 54.901123%)" stroke-opacity="1" stroke-miterlimit="4" d="M -267.415616 104.84958 L -266.268935 103.70314 L -270.280365 104.847257 L -266.27094 105.993469 Z M -267.415616 104.84958 " transform="matrix(-1, -0.63188, 0.63188, -1, 0, 0)"/>
<path fill="none" stroke-width="0.677695" stroke-linecap="butt" stroke-linejoin="miter" stroke="rgb(46.273804%, 52.940369%, 54.901123%)" stroke-opacity="1" stroke-miterlimit="4" d="M 308.902344 43.605469 L 334.363281 43.597656 "/>
<path fill-rule="evenodd" fill="rgb(46.273804%, 52.940369%, 54.901123%)" fill-opacity="1" stroke-width="0.361437" stroke-linecap="butt" stroke-linejoin="miter" stroke="rgb(46.273804%, 52.940369%, 54.901123%)" stroke-opacity="1" stroke-miterlimit="4" d="M -331.643593 -43.664121 L -330.287853 -45.019318 L -335.030312 -43.664799 L -330.288395 -42.312287 Z M -331.643593 -43.664121 " transform="matrix(-1, 0.000200409, -0.000200409, -1, 0, 0)"/>
<path fill="none" stroke-width="0.677695" stroke-linecap="butt" stroke-linejoin="miter" stroke="rgb(46.273804%, 52.940369%, 54.901123%)" stroke-opacity="1" stroke-miterlimit="4" d="M 308.617188 98.429688 L 335.59375 78.386719 "/>
<path fill-rule="evenodd" fill="rgb(46.273804%, 52.940369%, 54.901123%)" fill-opacity="1" stroke-width="0.290128" stroke-linecap="butt" stroke-linejoin="miter" stroke="rgb(46.273804%, 52.940369%, 54.901123%)" stroke-opacity="1" stroke-miterlimit="4" d="M -176.534678 -211.161228 L -175.446521 -212.247307 L -179.253248 -211.161472 L -175.448599 -210.07307 Z M -176.534678 -211.161228 " transform="matrix(-1, 0.742955, -0.742955, -1, 0, 0)"/>
<path fill="none" stroke-width="0.677695" stroke-linecap="butt" stroke-linejoin="miter" stroke="rgb(46.273804%, 52.940369%, 54.901123%)" stroke-opacity="1" stroke-miterlimit="4" d="M 258.328125 51.742188 L 287.273438 22.820312 "/>
<path fill-rule="evenodd" fill="rgb(46.273804%, 52.940369%, 54.901123%)" fill-opacity="1" stroke-width="0.255677" stroke-linecap="butt" stroke-linejoin="miter" stroke="rgb(46.273804%, 52.940369%, 54.901123%)" stroke-opacity="1" stroke-miterlimit="4" d="M -130.424167 -155.054725 L -129.465183 -156.014473 L -132.819652 -155.053771 L -129.464419 -154.095741 Z M -130.424167 -155.054725 " transform="matrix(-1, 0.999204, -0.999204, -1, 0, 0)"/>
<path fill="none" stroke-width="0.677695" stroke-linecap="butt" stroke-linejoin="miter" stroke="rgb(0%, 0%, 0%)" stroke-opacity="1" stroke-miterlimit="4" d="M 259.867188 57.929688 C 259.867188 64.0625 254.890625 69.035156 248.757812 69.035156 C 242.625 69.035156 237.648438 64.0625 237.648438 57.929688 C 237.648438 51.796875 242.625 46.820312 248.757812 46.820312 C 254.890625 46.820312 259.867188 51.796875 259.867188 57.929688 Z M 259.867188 57.929688 "/>
<path fill="none" stroke-width="0.677695" stroke-linecap="butt" stroke-linejoin="miter" stroke="rgb(0%, 0%, 0%)" stroke-opacity="1" stroke-miterlimit="4" d="M 259.867188 85.785156 C 259.867188 91.921875 254.890625 96.894531 248.757812 96.894531 C 242.625 96.894531 237.648438 91.921875 237.648438 85.785156 C 237.648438 79.652344 242.625 74.679688 248.757812 74.679688 C 254.890625 74.679688 259.867188 79.652344 259.867188 85.785156 Z M 259.867188 85.785156 "/>
<path fill="none" stroke-width="0.677695" stroke-linecap="butt" stroke-linejoin="miter" stroke="rgb(0%, 0%, 0%)" stroke-opacity="1" stroke-miterlimit="4" d="M 259.867188 30.074219 C 259.867188 36.207031 254.890625 41.179688 248.757812 41.179688 C 242.625 41.179688 237.648438 36.207031 237.648438 30.074219 C 237.648438 23.9375 242.625 18.964844 248.757812 18.964844 C 254.890625 18.964844 259.867188 23.9375 259.867188 30.074219 Z M 259.867188 30.074219 "/>
<path fill-rule="nonzero" fill="rgb(0%, 0%, 0%)" fill-opacity="1" d="M 247.257812 28.292969 C 247.328125 28.007812 247.597656 26.957031 248.378906 26.957031 C 248.433594 26.957031 248.71875 26.957031 248.949219 27.101562 C 248.628906 27.171875 248.414062 27.4375 248.414062 27.722656 C 248.414062 27.902344 248.539062 28.117188 248.84375 28.117188 C 249.09375 28.117188 249.449219 27.921875 249.449219 27.457031 C 249.449219 26.871094 248.789062 26.707031 248.398438 26.707031 C 247.738281 26.707031 247.347656 27.316406 247.203125 27.5625 C 246.917969 26.816406 246.3125 26.707031 245.976562 26.707031 C 244.800781 26.707031 244.140625 28.167969 244.140625 28.453125 C 244.140625 28.578125 244.265625 28.578125 244.28125 28.578125 C 244.371094 28.578125 244.40625 28.542969 244.425781 28.453125 C 244.816406 27.242188 245.566406 26.957031 245.957031 26.957031 C 246.171875 26.957031 246.5625 27.066406 246.5625 27.722656 C 246.5625 28.082031 246.367188 28.828125 245.957031 30.433594 C 245.777344 31.125 245.371094 31.609375 244.871094 31.609375 C 244.800781 31.609375 244.550781 31.609375 244.300781 31.464844 C 244.585938 31.394531 244.835938 31.164062 244.835938 30.84375 C 244.835938 30.539062 244.585938 30.449219 244.425781 30.449219 C 244.070312 30.449219 243.800781 30.734375 243.800781 31.109375 C 243.800781 31.625 244.355469 31.855469 244.851562 31.855469 C 245.617188 31.855469 246.027344 31.054688 246.046875 31.003906 C 246.1875 31.410156 246.597656 31.855469 247.277344 31.855469 C 248.453125 31.855469 249.09375 30.398438 249.09375 30.113281 C 249.09375 29.988281 249.003906 29.988281 248.96875 29.988281 C 248.859375 29.988281 248.84375 30.039062 248.808594 30.113281 C 248.433594 31.339844 247.667969 31.609375 247.3125 31.609375 C 246.867188 31.609375 246.6875 31.25 246.6875 30.859375 C 246.6875 30.609375 246.742188 30.359375 246.867188 29.863281 Z M 247.257812 28.292969 "/>
<path fill-rule="nonzero" fill="rgb(0%, 0%, 0%)" fill-opacity="1" d="M 252.609375 28.375 C 252.609375 28.164062 252.609375 28.164062 252.378906 28.164062 C 251.863281 28.660156 251.148438 28.660156 250.828125 28.660156 L 250.828125 28.945312 C 251.007812 28.945312 251.539062 28.945312 251.96875 28.734375 L 251.96875 32.777344 C 251.96875 33.042969 251.96875 33.152344 251.183594 33.152344 L 250.882812 33.152344 L 250.882812 33.4375 C 251.023438 33.4375 252.003906 33.398438 252.289062 33.398438 C 252.539062 33.398438 253.535156 33.4375 253.714844 33.4375 L 253.714844 33.152344 L 253.410156 33.152344 C 252.609375 33.152344 252.609375 33.042969 252.609375 32.777344 Z M 252.609375 28.375 "/>
<path fill-rule="nonzero" fill="rgb(0%, 0%, 0%)" fill-opacity="1" d="M 247.132812 56.152344 C 247.203125 55.867188 247.472656 54.816406 248.253906 54.816406 C 248.308594 54.816406 248.59375 54.816406 248.824219 54.957031 C 248.503906 55.027344 248.292969 55.296875 248.292969 55.582031 C 248.292969 55.757812 248.414062 55.972656 248.71875 55.972656 C 248.96875 55.972656 249.324219 55.777344 249.324219 55.3125 C 249.324219 54.726562 248.664062 54.566406 248.273438 54.566406 C 247.613281 54.566406 247.222656 55.171875 247.078125 55.421875 C 246.792969 54.671875 246.1875 54.566406 245.851562 54.566406 C 244.675781 54.566406 244.015625 56.027344 244.015625 56.3125 C 244.015625 56.4375 244.140625 56.4375 244.15625 56.4375 C 244.246094 56.4375 244.28125 56.402344 244.300781 56.3125 C 244.691406 55.101562 245.441406 54.816406 245.832031 54.816406 C 246.046875 54.816406 246.4375 54.921875 246.4375 55.582031 C 246.4375 55.9375 246.242188 56.6875 245.832031 58.289062 C 245.65625 58.984375 245.246094 59.464844 244.746094 59.464844 C 244.675781 59.464844 244.425781 59.464844 244.175781 59.324219 C 244.460938 59.25 244.710938 59.019531 244.710938 58.699219 C 244.710938 58.394531 244.460938 58.308594 244.300781 58.308594 C 243.945312 58.308594 243.675781 58.59375 243.675781 58.964844 C 243.675781 59.484375 244.230469 59.714844 244.726562 59.714844 C 245.496094 59.714844 245.902344 58.914062 245.921875 58.859375 C 246.0625 59.269531 246.472656 59.714844 247.152344 59.714844 C 248.328125 59.714844 248.96875 58.253906 248.96875 57.96875 C 248.96875 57.84375 248.878906 57.84375 248.84375 57.84375 C 248.738281 57.84375 248.71875 57.898438 248.683594 57.96875 C 248.308594 59.199219 247.542969 59.464844 247.1875 59.464844 C 246.742188 59.464844 246.5625 59.109375 246.5625 58.71875 C 246.5625 58.46875 246.617188 58.21875 246.742188 57.71875 Z M 247.132812 56.152344 "/>
<path fill-rule="nonzero" fill="rgb(0%, 0%, 0%)" fill-opacity="1" d="M 253.839844 59.851562 L 253.570312 59.851562 C 253.554688 60.027344 253.464844 60.492188 253.359375 60.5625 C 253.304688 60.617188 252.699219 60.617188 252.574219 60.617188 L 251.113281 60.617188 C 251.949219 59.886719 252.234375 59.652344 252.699219 59.28125 C 253.285156 58.816406 253.839844 58.316406 253.839844 57.570312 C 253.839844 56.609375 253 56.019531 251.984375 56.019531 C 251.007812 56.019531 250.328125 56.714844 250.328125 57.445312 C 250.328125 57.835938 250.667969 57.890625 250.757812 57.890625 C 250.933594 57.890625 251.167969 57.746094 251.167969 57.464844 C 251.167969 57.320312 251.113281 57.035156 250.703125 57.035156 C 250.953125 56.484375 251.488281 56.304688 251.863281 56.304688 C 252.664062 56.304688 253.074219 56.929688 253.074219 57.570312 C 253.074219 58.265625 252.574219 58.800781 252.324219 59.085938 L 250.417969 60.992188 C 250.328125 61.0625 250.328125 61.078125 250.328125 61.292969 L 253.605469 61.292969 Z M 253.839844 59.851562 "/>
<path fill-rule="nonzero" fill="rgb(0%, 0%, 0%)" fill-opacity="1" d="M 247.097656 83.929688 C 247.167969 83.644531 247.4375 82.59375 248.21875 82.59375 C 248.273438 82.59375 248.558594 82.59375 248.789062 82.734375 C 248.46875 82.804688 248.253906 83.074219 248.253906 83.359375 C 248.253906 83.535156 248.378906 83.75 248.683594 83.75 C 248.933594 83.75 249.289062 83.554688 249.289062 83.089844 C 249.289062 82.503906 248.628906 82.34375 248.238281 82.34375 C 247.578125 82.34375 247.1875 82.949219 247.042969 83.199219 C 246.757812 82.449219 246.152344 82.34375 245.816406 82.34375 C 244.640625 82.34375 243.980469 83.804688 243.980469 84.089844 C 243.980469 84.214844 244.105469 84.214844 244.121094 84.214844 C 244.210938 84.214844 244.246094 84.179688 244.265625 84.089844 C 244.65625 82.878906 245.40625 82.59375 245.796875 82.59375 C 246.011719 82.59375 246.402344 82.699219 246.402344 83.359375 C 246.402344 83.714844 246.207031 84.464844 245.796875 86.066406 C 245.617188 86.761719 245.210938 87.242188 244.710938 87.242188 C 244.640625 87.242188 244.390625 87.242188 244.140625 87.097656 C 244.425781 87.027344 244.675781 86.796875 244.675781 86.476562 C 244.675781 86.171875 244.425781 86.085938 244.265625 86.085938 C 243.910156 86.085938 243.640625 86.367188 243.640625 86.742188 C 243.640625 87.261719 244.195312 87.492188 244.691406 87.492188 C 245.457031 87.492188 245.867188 86.691406 245.886719 86.636719 C 246.027344 87.046875 246.4375 87.492188 247.117188 87.492188 C 248.292969 87.492188 248.933594 86.03125 248.933594 85.746094 C 248.933594 85.621094 248.84375 85.621094 248.808594 85.621094 C 248.699219 85.621094 248.683594 85.675781 248.648438 85.746094 C 248.273438 86.976562 247.507812 87.242188 247.152344 87.242188 C 246.707031 87.242188 246.527344 86.886719 246.527344 86.492188 C 246.527344 86.246094 246.582031 85.996094 246.707031 85.496094 Z M 247.097656 83.929688 "/>
<path fill-rule="nonzero" fill="rgb(0%, 0%, 0%)" fill-opacity="1" d="M 251.96875 86.414062 C 252.589844 86.414062 253.039062 86.84375 253.039062 87.699219 C 253.039062 88.679688 252.449219 88.980469 252.003906 88.980469 C 251.683594 88.980469 250.96875 88.890625 250.648438 88.410156 C 251.023438 88.410156 251.113281 88.144531 251.113281 87.964844 C 251.113281 87.714844 250.917969 87.539062 250.667969 87.539062 C 250.453125 87.539062 250.222656 87.679688 250.222656 88 C 250.222656 88.75 251.042969 89.230469 252.003906 89.230469 C 253.109375 89.230469 253.875 88.480469 253.875 87.699219 C 253.875 87.074219 253.375 86.453125 252.503906 86.273438 C 253.320312 85.96875 253.625 85.382812 253.625 84.882812 C 253.625 84.261719 252.914062 83.796875 252.023438 83.796875 C 251.148438 83.796875 250.472656 84.222656 250.472656 84.867188 C 250.472656 85.132812 250.648438 85.277344 250.882812 85.277344 C 251.132812 85.277344 251.292969 85.097656 251.292969 84.882812 C 251.292969 84.652344 251.132812 84.472656 250.882812 84.457031 C 251.167969 84.117188 251.699219 84.027344 252.003906 84.027344 C 252.359375 84.027344 252.859375 84.207031 252.859375 84.882812 C 252.859375 85.222656 252.753906 85.597656 252.539062 85.828125 C 252.289062 86.128906 252.058594 86.148438 251.664062 86.183594 C 251.46875 86.203125 251.453125 86.203125 251.414062 86.203125 C 251.398438 86.203125 251.328125 86.21875 251.328125 86.308594 C 251.328125 86.414062 251.398438 86.414062 251.539062 86.414062 Z M 251.96875 86.414062 "/>
<path fill="none" stroke-width="0.677695" stroke-linecap="butt" stroke-linejoin="miter" stroke="rgb(46.273804%, 52.940369%, 54.901123%)" stroke-opacity="1" stroke-miterlimit="4" d="M 307.554688 77.160156 L 336.050781 93.855469 "/>
<path fill-rule="evenodd" fill="rgb(46.273804%, 52.940369%, 54.901123%)" fill-opacity="1" stroke-width="0.31187" stroke-linecap="butt" stroke-linejoin="miter" stroke="rgb(46.273804%, 52.940369%, 54.901123%)" stroke-opacity="1" stroke-miterlimit="4" d="M -288.791521 76.683345 L -287.621325 75.513494 L -291.716029 76.685519 L -287.621671 77.853541 Z M -288.791521 76.683345 " transform="matrix(-1, -0.585778, 0.585778, -1, 0, 0)"/>
<path fill="none" stroke-width="0.67377" stroke-linecap="butt" stroke-linejoin="miter" stroke="rgb(46.273804%, 52.940369%, 54.901123%)" stroke-opacity="1" stroke-miterlimit="4" d="M 305.058594 63.832031 L 337.339844 24.15625 "/>
<path fill-rule="evenodd" fill="rgb(46.273804%, 52.940369%, 54.901123%)" fill-opacity="1" stroke-width="0.278728" stroke-linecap="butt" stroke-linejoin="miter" stroke="rgb(46.273804%, 52.940369%, 54.901123%)" stroke-opacity="1" stroke-miterlimit="4" d="M -148.525253 -214.785181 L -147.481036 -215.830176 L -151.137831 -214.784318 L -147.480258 -213.740965 Z M -148.525253 -214.785181 " transform="matrix(-0.813703, 1, -1, -0.813703, 0, 0)"/>
<path fill="none" stroke-width="0.677695" stroke-linecap="butt" stroke-linejoin="miter" stroke="rgb(46.273804%, 52.940369%, 54.901123%)" stroke-opacity="1" stroke-miterlimit="4" d="M 308.902344 15.980469 L 334.363281 15.976562 "/>
<path fill-rule="evenodd" fill="rgb(46.273804%, 52.940369%, 54.901123%)" fill-opacity="1" stroke-width="0.361437" stroke-linecap="butt" stroke-linejoin="miter" stroke="rgb(46.273804%, 52.940369%, 54.901123%)" stroke-opacity="1" stroke-miterlimit="4" d="M -331.649129 -16.043028 L -330.293388 -17.398225 L -335.035847 -16.043707 L -330.293932 -14.687288 Z M -331.649129 -16.043028 " transform="matrix(-1, 0.000200409, -0.000200409, -1, 0, 0)"/>
<path fill="none" stroke-width="0.677695" stroke-linecap="butt" stroke-linejoin="miter" stroke="rgb(46.273804%, 52.940369%, 54.901123%)" stroke-opacity="1" stroke-miterlimit="4" d="M 308.902344 100.542969 L 334.667969 100.535156 "/>
<path fill-rule="evenodd" fill="rgb(46.273804%, 52.940369%, 54.901123%)" fill-opacity="1" stroke-width="0.361437" stroke-linecap="butt" stroke-linejoin="miter" stroke="rgb(46.273804%, 52.940369%, 54.901123%)" stroke-opacity="1" stroke-miterlimit="4" d="M -331.937108 -100.600893 L -330.581371 -101.956094 L -335.323827 -100.601564 L -330.581908 -99.245156 Z M -331.937108 -100.600893 " transform="matrix(-1, 0.000198041, -0.000198041, -1, 0, 0)"/>
<path fill="none" stroke-width="0.67377" stroke-linecap="butt" stroke-linejoin="miter" stroke="rgb(46.273804%, 52.940369%, 54.901123%)" stroke-opacity="1" stroke-miterlimit="4" d="M 303.871094 90.550781 L 340.546875 26.707031 "/>
<path fill-rule="evenodd" fill="rgb(46.273804%, 52.940369%, 54.901123%)" fill-opacity="1" stroke-width="0.311591" stroke-linecap="butt" stroke-linejoin="miter" stroke="rgb(46.273804%, 52.940369%, 54.901123%)" stroke-opacity="1" stroke-miterlimit="4" d="M -124.672141 -267.584715 L -123.504758 -268.755323 L -127.594536 -267.585621 L -123.50447 -266.415644 Z M -124.672141 -267.584715 " transform="matrix(-0.574454, 1, -1, -0.574454, 0, 0)"/>
<path fill="none" stroke-width="1.984252" stroke-linecap="butt" stroke-linejoin="miter" stroke="rgb(81.175232%, 92.547607%, 91.371155%)" stroke-opacity="1" stroke-miterlimit="4" d="M 305.027344 7.785156 L 297.796875 16.027344 L 286.625 16.039062 "/>
<path fill="none" stroke-width="0.677695" stroke-linecap="butt" stroke-linejoin="miter" stroke="rgb(0%, 0%, 0%)" stroke-opacity="1" stroke-miterlimit="4" d="M 308.820312 15.492188 C 308.820312 21.625 303.847656 26.597656 297.714844 26.597656 C 291.582031 26.597656 286.605469 21.625 286.605469 15.492188 C 286.605469 9.355469 291.582031 4.382812 297.714844 4.382812 C 303.847656 4.382812 308.820312 9.355469 308.820312 15.492188 Z M 308.820312 15.492188 "/>
<path fill="none" stroke-width="1.984252" stroke-linecap="butt" stroke-linejoin="miter" stroke="rgb(81.175232%, 92.547607%, 91.371155%)" stroke-opacity="1" stroke-miterlimit="4" d="M 305.121094 35.421875 L 297.894531 43.664062 L 286.722656 43.671875 "/>
<path fill="none" stroke-width="0.677695" stroke-linecap="butt" stroke-linejoin="miter" stroke="rgb(0%, 0%, 0%)" stroke-opacity="1" stroke-miterlimit="4" d="M 308.820312 43.597656 C 308.820312 49.734375 303.847656 54.707031 297.714844 54.707031 C 291.582031 54.707031 286.605469 49.734375 286.605469 43.597656 C 286.605469 37.464844 291.582031 32.492188 297.714844 32.492188 C 303.847656 32.492188 308.820312 37.464844 308.820312 43.597656 Z M 308.820312 43.597656 "/>
<path fill="none" stroke-width="1.984252" stroke-linecap="butt" stroke-linejoin="miter" stroke="rgb(81.175232%, 92.547607%, 91.371155%)" stroke-opacity="1" stroke-miterlimit="4" d="M 305.027344 63.898438 L 297.796875 72.140625 L 286.625 72.148438 "/>
<path fill="none" stroke-width="0.677695" stroke-linecap="butt" stroke-linejoin="miter" stroke="rgb(0%, 0%, 0%)" stroke-opacity="1" stroke-miterlimit="4" d="M 308.820312 72.074219 C 308.820312 78.210938 303.847656 83.183594 297.714844 83.183594 C 291.582031 83.183594 286.605469 78.210938 286.605469 72.074219 C 286.605469 65.941406 291.582031 60.96875 297.714844 60.96875 C 303.847656 60.96875 308.820312 65.941406 308.820312 72.074219 Z M 308.820312 72.074219 "/>
<g clip-path="url(#clip-4)">
<path fill="none" stroke-width="1.984252" stroke-linecap="butt" stroke-linejoin="miter" stroke="rgb(81.175232%, 92.547607%, 91.371155%)" stroke-opacity="1" stroke-miterlimit="4" d="M 305.121094 92.285156 L 297.894531 100.527344 L 286.722656 100.539062 "/>
</g>
<g clip-path="url(#clip-5)">
<path fill="none" stroke-width="0.677695" stroke-linecap="butt" stroke-linejoin="miter" stroke="rgb(0%, 0%, 0%)" stroke-opacity="1" stroke-miterlimit="4" d="M 308.820312 100.367188 C 308.820312 106.503906 303.847656 111.476562 297.714844 111.476562 C 291.582031 111.476562 286.605469 106.503906 286.605469 100.367188 C 286.605469 94.234375 291.582031 89.261719 297.714844 89.261719 C 303.847656 89.261719 308.820312 94.234375 308.820312 100.367188 Z M 308.820312 100.367188 "/>
</g>
<path fill="none" stroke-width="0.677695" stroke-linecap="butt" stroke-linejoin="miter" stroke="rgb(46.273804%, 52.940369%, 54.901123%)" stroke-opacity="1" stroke-miterlimit="4" d="M 355.933594 21.578125 L 386.34375 49.335938 "/>
<path fill-rule="evenodd" fill="rgb(46.273804%, 52.940369%, 54.901123%)" fill-opacity="1" stroke-width="0.266939" stroke-linecap="butt" stroke-linejoin="miter" stroke="rgb(46.273804%, 52.940369%, 54.901123%)" stroke-opacity="1" stroke-miterlimit="4" d="M -233.295653 165.46079 L -232.296353 164.458716 L -235.799268 165.461109 L -232.295709 166.462034 Z M -233.295653 165.46079 " transform="matrix(-1, -0.91287, 0.91287, -1, 0, 0)"/>
<path fill="none" stroke-width="0.677695" stroke-linecap="butt" stroke-linejoin="miter" stroke="rgb(46.273804%, 52.940369%, 54.901123%)" stroke-opacity="1" stroke-miterlimit="4" d="M 357.4375 68.929688 L 383.222656 60.746094 "/>
<path fill-rule="evenodd" fill="rgb(46.273804%, 52.940369%, 54.901123%)" fill-opacity="1" stroke-width="0.344498" stroke-linecap="butt" stroke-linejoin="miter" stroke="rgb(46.273804%, 52.940369%, 54.901123%)" stroke-opacity="1" stroke-miterlimit="4" d="M -328.040056 -165.695833 L -326.751595 -166.986057 L -331.271073 -165.694108 L -326.750959 -164.403824 Z M -328.040056 -165.695833 " transform="matrix(-1, 0.317429, -0.317429, -1, 0, 0)"/>
<path fill="none" stroke-width="0.677695" stroke-linecap="butt" stroke-linejoin="miter" stroke="rgb(46.273804%, 52.940369%, 54.901123%)" stroke-opacity="1" stroke-miterlimit="4" d="M 356.148438 94.328125 L 386.128906 66.234375 "/>
<path fill-rule="evenodd" fill="rgb(46.273804%, 52.940369%, 54.901123%)" fill-opacity="1" stroke-width="0.263736" stroke-linecap="butt" stroke-linejoin="miter" stroke="rgb(46.273804%, 52.940369%, 54.901123%)" stroke-opacity="1" stroke-miterlimit="4" d="M -170.566277 -227.921378 L -169.576036 -228.911405 L -173.03859 -227.921744 L -169.57833 -226.933086 Z M -170.566277 -227.921378 " transform="matrix(-1, 0.937087, -0.937087, -1, 0, 0)"/>
<path fill="none" stroke-width="1.984252" stroke-linecap="butt" stroke-linejoin="miter" stroke="rgb(81.175232%, 92.547607%, 91.371155%)" stroke-opacity="1" stroke-miterlimit="4" d="M 353.984375 7.785156 L 346.753906 16.027344 L 335.582031 16.039062 "/>
<path fill="none" stroke-width="0.677695" stroke-linecap="butt" stroke-linejoin="miter" stroke="rgb(0%, 0%, 0%)" stroke-opacity="1" stroke-miterlimit="4" d="M 357.777344 15.492188 C 357.777344 21.625 352.804688 26.597656 346.671875 26.597656 C 340.535156 26.597656 335.5625 21.625 335.5625 15.492188 C 335.5625 9.355469 340.535156 4.382812 346.671875 4.382812 C 352.804688 4.382812 357.777344 9.355469 357.777344 15.492188 Z M 357.777344 15.492188 "/>
<path fill="none" stroke-width="1.984252" stroke-linecap="butt" stroke-linejoin="miter" stroke="rgb(81.175232%, 92.547607%, 91.371155%)" stroke-opacity="1" stroke-miterlimit="4" d="M 354.078125 35.421875 L 346.851562 43.664062 L 335.679688 43.671875 "/>
<path fill="none" stroke-width="0.677695" stroke-linecap="butt" stroke-linejoin="miter" stroke="rgb(0%, 0%, 0%)" stroke-opacity="1" stroke-miterlimit="4" d="M 357.777344 43.597656 C 357.777344 49.734375 352.804688 54.707031 346.671875 54.707031 C 340.535156 54.707031 335.5625 49.734375 335.5625 43.597656 C 335.5625 37.464844 340.535156 32.492188 346.671875 32.492188 C 352.804688 32.492188 357.777344 37.464844 357.777344 43.597656 Z M 357.777344 43.597656 "/>
<path fill="none" stroke-width="1.984252" stroke-linecap="butt" stroke-linejoin="miter" stroke="rgb(81.175232%, 92.547607%, 91.371155%)" stroke-opacity="1" stroke-miterlimit="4" d="M 353.984375 63.898438 L 346.753906 72.140625 L 335.582031 72.148438 "/>
<path fill="none" stroke-width="0.677695" stroke-linecap="butt" stroke-linejoin="miter" stroke="rgb(0%, 0%, 0%)" stroke-opacity="1" stroke-miterlimit="4" d="M 357.777344 72.074219 C 357.777344 78.210938 352.804688 83.183594 346.671875 83.183594 C 340.535156 83.183594 335.5625 78.210938 335.5625 72.074219 C 335.5625 65.941406 340.535156 60.96875 346.671875 60.96875 C 352.804688 60.96875 357.777344 65.941406 357.777344 72.074219 Z M 357.777344 72.074219 "/>
<g clip-path="url(#clip-6)">
<path fill="none" stroke-width="1.984252" stroke-linecap="butt" stroke-linejoin="miter" stroke="rgb(81.175232%, 92.547607%, 91.371155%)" stroke-opacity="1" stroke-miterlimit="4" d="M 354.078125 92.285156 L 346.851562 100.527344 L 335.679688 100.539062 "/>
</g>
<g clip-path="url(#clip-7)">
<path fill="none" stroke-width="0.677695" stroke-linecap="butt" stroke-linejoin="miter" stroke="rgb(0%, 0%, 0%)" stroke-opacity="1" stroke-miterlimit="4" d="M 357.777344 100.367188 C 357.777344 106.503906 352.804688 111.476562 346.671875 111.476562 C 340.535156 111.476562 335.5625 106.503906 335.5625 100.367188 C 335.5625 94.234375 340.535156 89.261719 346.671875 89.261719 C 352.804688 89.261719 357.777344 94.234375 357.777344 100.367188 Z M 357.777344 100.367188 "/>
</g>
<g clip-path="url(#clip-8)">
<path fill="none" stroke-width="0.677695" stroke-linecap="butt" stroke-linejoin="miter" stroke="rgb(0%, 0%, 0%)" stroke-opacity="1" stroke-miterlimit="4" d="M 406.734375 57.929688 C 406.734375 64.0625 401.761719 69.035156 395.628906 69.035156 C 389.492188 69.035156 384.519531 64.0625 384.519531 57.929688 C 384.519531 51.796875 389.492188 46.820312 395.628906 46.820312 C 401.761719 46.820312 406.734375 51.796875 406.734375 57.929688 Z M 406.734375 57.929688 "/>
</g>
<path fill-rule="nonzero" fill="rgb(0%, 0%, 0%)" fill-opacity="1" d="M 398.191406 54.945312 C 398.246094 54.785156 398.246094 54.765625 398.246094 54.679688 C 398.246094 54.484375 398.085938 54.375 397.910156 54.375 C 397.800781 54.375 397.625 54.445312 397.515625 54.605469 C 397.5 54.679688 397.390625 55.015625 397.355469 55.230469 C 397.265625 55.515625 397.195312 55.835938 397.125 56.140625 L 396.609375 58.1875 C 396.570312 58.347656 396.074219 59.148438 395.324219 59.148438 C 394.753906 59.148438 394.628906 58.652344 394.628906 58.222656 C 394.628906 57.707031 394.828125 56.996094 395.199219 55.996094 C 395.378906 55.535156 395.433594 55.410156 395.433594 55.175781 C 395.433594 54.679688 395.074219 54.25 394.503906 54.25 C 393.417969 54.25 393.007812 55.90625 393.007812 55.996094 C 393.007812 56.121094 393.117188 56.121094 393.132812 56.121094 C 393.257812 56.121094 393.257812 56.085938 393.3125 55.90625 C 393.632812 54.839844 394.078125 54.5 394.46875 54.5 C 394.558594 54.5 394.753906 54.5 394.753906 54.855469 C 394.753906 55.140625 394.628906 55.445312 394.558594 55.660156 C 394.097656 56.871094 393.898438 57.511719 393.898438 58.046875 C 393.898438 59.0625 394.613281 59.398438 395.289062 59.398438 C 395.734375 59.398438 396.109375 59.203125 396.429688 58.882812 C 396.289062 59.46875 396.144531 60.039062 395.699219 60.644531 C 395.394531 61.019531 394.96875 61.359375 394.453125 61.359375 C 394.292969 61.359375 393.773438 61.324219 393.578125 60.878906 C 393.757812 60.878906 393.917969 60.878906 394.058594 60.734375 C 394.183594 60.644531 394.292969 60.484375 394.292969 60.273438 C 394.292969 59.914062 393.988281 59.878906 393.882812 59.878906 C 393.613281 59.878906 393.242188 60.058594 393.242188 60.609375 C 393.242188 61.179688 393.738281 61.609375 394.453125 61.609375 C 395.609375 61.609375 396.785156 60.574219 397.105469 59.292969 Z M 398.191406 54.945312 "/>
<path fill="none" stroke-width="0.850394" stroke-linecap="butt" stroke-linejoin="miter" stroke="rgb(0%, 0%, 0%)" stroke-opacity="1" stroke-miterlimit="4" d="M 188.25 58.496094 L 223.976562 58.496094 "/>
<path fill-rule="evenodd" fill="rgb(0%, 0%, 0%)" fill-opacity="1" stroke-width="0.453543" stroke-linecap="butt" stroke-linejoin="miter" stroke="rgb(0%, 0%, 0%)" stroke-opacity="1" stroke-miterlimit="4" d="M -220.574219 -58.496094 L -218.875 -60.199219 L -224.828125 -58.496094 L -218.875 -56.796875 Z M -220.574219 -58.496094 " transform="matrix(-1, 0, 0, -1, 0, 0)"/>
<path fill="none" stroke-width="0.677695" stroke-linecap="butt" stroke-linejoin="miter" stroke="rgb(46.273804%, 52.940369%, 54.901123%)" stroke-opacity="1" stroke-miterlimit="4" d="M 357.4375 68.929688 L 383.222656 60.746094 "/>
<path fill-rule="evenodd" fill="rgb(46.273804%, 52.940369%, 54.901123%)" fill-opacity="1" stroke-width="0.344498" stroke-linecap="butt" stroke-linejoin="miter" stroke="rgb(46.273804%, 52.940369%, 54.901123%)" stroke-opacity="1" stroke-miterlimit="4" d="M -328.040056 -165.695833 L -326.751595 -166.986057 L -331.271073 -165.694108 L -326.750959 -164.403824 Z M -328.040056 -165.695833 " transform="matrix(-1, 0.317429, -0.317429, -1, 0, 0)"/>
<path fill="none" stroke-width="0.677696" stroke-linecap="butt" stroke-linejoin="miter" stroke="rgb(46.273804%, 52.940369%, 54.901123%)" stroke-opacity="1" stroke-miterlimit="4" d="M 127.371094 47.171875 L 153.152344 55.355469 "/>
<path fill-rule="evenodd" fill="rgb(46.273804%, 52.940369%, 54.901123%)" fill-opacity="1" stroke-width="0.344498" stroke-linecap="butt" stroke-linejoin="miter" stroke="rgb(46.273804%, 52.940369%, 54.901123%)" stroke-opacity="1" stroke-miterlimit="4" d="M -152.513876 -6.122829 L -151.220103 -7.412416 L -155.743766 -6.121006 L -151.22074 -4.830183 Z M -152.513876 -6.122829 " transform="matrix(-1, -0.317429, 0.317429, -1, 0, 0)"/>
</svg>
