<?xml version="1.0" encoding="UTF-8"?>
<svg xmlns="http://www.w3.org/2000/svg" xmlns:xlink="http://www.w3.org/1999/xlink" width="201.075531pt" height="121.757164pt" viewBox="0 0 201.075531 121.757164">
<defs>
<clipPath id="clip-0">
<path clip-rule="nonzero" d="M 29.890625 16.34375 L 190.925781 16.34375 L 190.925781 103.144531 L 29.890625 103.144531 Z M 29.890625 16.34375 "/>
</clipPath>
<clipPath id="clip-1">
<rect x="0" y="0" width="162" height="88"/>
</clipPath>
<g id="source-5" clip-path="url(#clip-1)">
<path fill="none" stroke-width="1.600059" stroke-linecap="square" stroke-linejoin="round" stroke="rgb(81.959534%, 51.763916%, 38.430786%)" stroke-opacity="0.866667" stroke-miterlimit="4" d="M 42.282017 20.632812 L 47.867843 46.84375 L 54.847637 60.273438 L 68.807224 76.097656 L 82.77179 81.867188 L 89.751584 83.078125 L 93.241481 83.777344 L 96.731378 83.761719 L 100.221274 84.585938 L 103.71615 85.394531 L 107.206047 86.308594 L 110.695943 86.308594 L 114.18584 87.09375 L 117.675737 87.410156 L 121.165634 87.714844 L 124.655531 87.769531 L 128.145428 88.128906 L 131.640303 88.351562 L 135.1302 88.835938 L 138.620097 88.652344 L 142.109993 88.988281 L 145.59989 89.054688 L 149.089787 89.492188 L 152.579684 89.597656 L 159.559478 89.964844 L 166.54425 90.246094 L 180.503837 90.355469 L 215.407784 91.460938 L 236.103221 91.765625 " transform="matrix(0.784631, 0, 0, 1, -29, -16)"/>
</g>
</defs>
<path fill="none" stroke-width="0.850394" stroke-linecap="butt" stroke-linejoin="miter" stroke="rgb(50.195312%, 50.195312%, 50.195312%)" stroke-opacity="1" stroke-miterlimit="4" d="M 32.570312 99.722656 L 32.570312 101.605469 "/>
<path fill="none" stroke-width="0.850394" stroke-linecap="butt" stroke-linejoin="miter" stroke="rgb(50.195312%, 50.195312%, 50.195312%)" stroke-opacity="1" stroke-miterlimit="4" d="M 141.957031 99.722656 L 141.957031 101.605469 "/>
<path fill="none" stroke-width="0.850394" stroke-linecap="butt" stroke-linejoin="miter" stroke="rgb(50.195312%, 50.195312%, 50.195312%)" stroke-opacity="1" stroke-miterlimit="4" d="M 32.390625 3.75 L 30.507812 3.75 "/>
<path fill="none" stroke-width="0.930002" stroke-linecap="butt" stroke-linejoin="miter" stroke="rgb(50.195312%, 50.195312%, 50.195312%)" stroke-opacity="1" stroke-miterlimit="4" d="M 38.738882 41.957031 L 36.860803 41.957031 " transform="matrix(0.836127, 0, 0, 1, 0, 0)"/>
<path fill="none" stroke-width="0.850394" stroke-linecap="butt" stroke-linejoin="miter" stroke="rgb(50.195312%, 50.195312%, 50.195312%)" stroke-opacity="1" stroke-miterlimit="4" d="M 32.304688 99.277344 L 30.421875 99.277344 "/>
<path fill="none" stroke-width="0.850394" stroke-linecap="butt" stroke-linejoin="round" stroke="rgb(1.176453%, 0%, 0%)" stroke-opacity="1" stroke-miterlimit="4" d="M 32.578125 3.75 L 185.710938 3.75 L 185.710938 99.335938 L 32.578125 99.335938 Z M 32.578125 3.75 "/>
<path fill="none" stroke-width="0.850394" stroke-linecap="butt" stroke-linejoin="miter" stroke="rgb(50.195312%, 50.195312%, 50.195312%)" stroke-opacity="1" stroke-miterlimit="4" d="M -99.722656 -87.261719 L -101.605469 -87.261719 " transform="matrix(0, -1, -1, 0, 0, 0)"/>
<path fill="none" stroke-width="0.850394" stroke-linecap="butt" stroke-linejoin="miter" stroke="rgb(50.195312%, 50.195312%, 50.195312%)" stroke-opacity="1" stroke-miterlimit="4" d="M -99.722656 -131.015625 L -101.003906 -131.015625 " transform="matrix(0, -1, -1, 0, 0, 0)"/>
<path fill="none" stroke-width="0.850394" stroke-linecap="butt" stroke-linejoin="miter" stroke="rgb(50.195312%, 50.195312%, 50.195312%)" stroke-opacity="1" stroke-miterlimit="4" d="M -99.722656 -120.078125 L -101.003906 -120.078125 " transform="matrix(0, -1, -1, 0, 0, 0)"/>
<path fill="none" stroke-width="0.850394" stroke-linecap="butt" stroke-linejoin="miter" stroke="rgb(50.195312%, 50.195312%, 50.195312%)" stroke-opacity="1" stroke-miterlimit="4" d="M -99.722656 -109.140625 L -101.003906 -109.140625 " transform="matrix(0, -1, -1, 0, 0, 0)"/>
<path fill="none" stroke-width="0.850394" stroke-linecap="butt" stroke-linejoin="miter" stroke="rgb(50.195312%, 50.195312%, 50.195312%)" stroke-opacity="1" stroke-miterlimit="4" d="M -99.722656 -98.203125 L -101.003906 -98.203125 " transform="matrix(0, -1, -1, 0, 0, 0)"/>
<path fill="none" stroke-width="0.850394" stroke-linecap="butt" stroke-linejoin="miter" stroke="rgb(50.195312%, 50.195312%, 50.195312%)" stroke-opacity="1" stroke-miterlimit="4" d="M -99.722656 -76.324219 L -101.003906 -76.324219 " transform="matrix(0, -1, -1, 0, 0, 0)"/>
<path fill="none" stroke-width="0.850394" stroke-linecap="butt" stroke-linejoin="miter" stroke="rgb(50.195312%, 50.195312%, 50.195312%)" stroke-opacity="1" stroke-miterlimit="4" d="M -99.722656 -65.386719 L -101.003906 -65.386719 " transform="matrix(0, -1, -1, 0, 0, 0)"/>
<path fill="none" stroke-width="0.850394" stroke-linecap="butt" stroke-linejoin="miter" stroke="rgb(50.195312%, 50.195312%, 50.195312%)" stroke-opacity="1" stroke-miterlimit="4" d="M -99.722656 -54.449219 L -101.003906 -54.449219 " transform="matrix(0, -1, -1, 0, 0, 0)"/>
<path fill="none" stroke-width="0.850394" stroke-linecap="butt" stroke-linejoin="miter" stroke="rgb(50.195312%, 50.195312%, 50.195312%)" stroke-opacity="1" stroke-miterlimit="4" d="M -99.722656 -43.507812 L -101.003906 -43.507812 " transform="matrix(0, -1, -1, 0, 0, 0)"/>
<path fill="none" stroke-width="0.930002" stroke-linecap="butt" stroke-linejoin="miter" stroke="rgb(50.195312%, 50.195312%, 50.195312%)" stroke-opacity="1" stroke-miterlimit="4" d="M 38.738882 61.042969 L 36.860803 61.042969 " transform="matrix(0.836127, 0, 0, 1, 0, 0)"/>
<path fill="none" stroke-width="0.930002" stroke-linecap="butt" stroke-linejoin="miter" stroke="rgb(50.195312%, 50.195312%, 50.195312%)" stroke-opacity="1" stroke-miterlimit="4" d="M 38.738882 80.128906 L 36.860803 80.128906 " transform="matrix(0.836127, 0, 0, 1, 0, 0)"/>
<path fill="none" stroke-width="0.930002" stroke-linecap="butt" stroke-linejoin="miter" stroke="rgb(50.195312%, 50.195312%, 50.195312%)" stroke-opacity="1" stroke-miterlimit="4" d="M 38.738882 22.875 L 36.860803 22.875 " transform="matrix(0.836127, 0, 0, 1, 0, 0)"/>
<path fill="none" stroke-width="0.477247" stroke-linecap="butt" stroke-linejoin="round" stroke="rgb(0%, 0%, 0%)" stroke-opacity="1" stroke-dasharray="1.765814 0.763595" stroke-miterlimit="10" d="M 41.639727 89.648438 L 236.228047 89.648438 " transform="matrix(0.787259, 0, 0, 1, 0, 0)"/>
<g clip-path="url(#clip-0)">
<use xlink:href="#source-5" transform="matrix(1, 0, 0, 1, 29, 16)"/>
</g>
<path fill-rule="nonzero" fill="rgb(81.959534%, 51.371765%, 38.430786%)" fill-opacity="1" stroke-width="0.283465" stroke-linecap="butt" stroke-linejoin="round" stroke="rgb(46.665955%, 23.529053%, 13.725281%)" stroke-opacity="1" stroke-miterlimit="4" d="M 96.878906 -87.714844 C 96.878906 -86.832031 96.164062 -86.117188 95.28125 -86.117188 C 94.398438 -86.117188 93.683594 -86.832031 93.683594 -87.714844 C 93.683594 -88.597656 94.398438 -89.3125 95.28125 -89.3125 C 96.164062 -89.3125 96.878906 -88.597656 96.878906 -87.714844 Z M 96.878906 -87.714844 " transform="matrix(1, 0, 0, -1, 0, 0)"/>
<path fill-rule="nonzero" fill="rgb(81.959534%, 51.371765%, 38.430786%)" fill-opacity="1" stroke-width="0.283465" stroke-linecap="butt" stroke-linejoin="round" stroke="rgb(46.665955%, 23.529053%, 13.725281%)" stroke-opacity="1" stroke-miterlimit="4" d="M 94.132812 -87.410156 C 94.132812 -86.527344 93.417969 -85.8125 92.535156 -85.8125 C 91.652344 -85.8125 90.9375 -86.527344 90.9375 -87.410156 C 90.9375 -88.292969 91.652344 -89.007812 92.535156 -89.007812 C 93.417969 -89.007812 94.132812 -88.292969 94.132812 -87.410156 Z M 94.132812 -87.410156 " transform="matrix(1, 0, 0, -1, 0, 0)"/>
<path fill-rule="nonzero" fill="rgb(81.959534%, 51.371765%, 38.430786%)" fill-opacity="1" stroke-width="0.283465" stroke-linecap="butt" stroke-linejoin="round" stroke="rgb(46.665955%, 23.529053%, 13.725281%)" stroke-opacity="1" stroke-miterlimit="4" d="M 91.382812 -87.09375 C 91.382812 -86.210938 90.667969 -85.496094 89.785156 -85.496094 C 88.902344 -85.496094 88.1875 -86.210938 88.1875 -87.09375 C 88.1875 -87.976562 88.902344 -88.691406 89.785156 -88.691406 C 90.667969 -88.691406 91.382812 -87.976562 91.382812 -87.09375 Z M 91.382812 -87.09375 " transform="matrix(1, 0, 0, -1, 0, 0)"/>
<path fill-rule="nonzero" fill="rgb(81.959534%, 51.371765%, 38.430786%)" fill-opacity="1" stroke-width="0.283465" stroke-linecap="butt" stroke-linejoin="round" stroke="rgb(46.665955%, 23.529053%, 13.725281%)" stroke-opacity="1" stroke-miterlimit="4" d="M 88.636719 -86.3125 C 88.636719 -85.429688 87.921875 -84.710938 87.039062 -84.710938 C 86.15625 -84.710938 85.441406 -85.429688 85.441406 -86.3125 C 85.441406 -87.195312 86.15625 -87.910156 87.039062 -87.910156 C 87.921875 -87.910156 88.636719 -87.195312 88.636719 -86.3125 Z M 88.636719 -86.3125 " transform="matrix(1, 0, 0, -1, 0, 0)"/>
<path fill-rule="nonzero" fill="rgb(81.959534%, 51.371765%, 38.430786%)" fill-opacity="1" stroke-width="0.283465" stroke-linecap="butt" stroke-linejoin="round" stroke="rgb(46.665955%, 23.529053%, 13.725281%)" stroke-opacity="1" stroke-miterlimit="4" d="M 85.886719 -86.308594 C 85.886719 -85.425781 85.171875 -84.710938 84.289062 -84.710938 C 83.40625 -84.710938 82.691406 -85.425781 82.691406 -86.308594 C 82.691406 -87.191406 83.40625 -87.90625 84.289062 -87.90625 C 85.171875 -87.90625 85.886719 -87.191406 85.886719 -86.308594 Z M 85.886719 -86.308594 " transform="matrix(1, 0, 0, -1, 0, 0)"/>
<path fill-rule="nonzero" fill="rgb(81.959534%, 51.371765%, 38.430786%)" fill-opacity="1" stroke-width="0.283465" stroke-linecap="butt" stroke-linejoin="round" stroke="rgb(46.665955%, 23.529053%, 13.725281%)" stroke-opacity="1" stroke-miterlimit="4" d="M 83.140625 -85.394531 C 83.140625 -84.511719 82.425781 -83.796875 81.542969 -83.796875 C 80.660156 -83.796875 79.945312 -84.511719 79.945312 -85.394531 C 79.945312 -86.277344 80.660156 -86.992188 81.542969 -86.992188 C 82.425781 -86.992188 83.140625 -86.277344 83.140625 -85.394531 Z M 83.140625 -85.394531 " transform="matrix(1, 0, 0, -1, 0, 0)"/>
<path fill-rule="nonzero" fill="rgb(81.959534%, 51.371765%, 38.430786%)" fill-opacity="1" stroke-width="0.283465" stroke-linecap="butt" stroke-linejoin="round" stroke="rgb(46.665955%, 23.529053%, 13.725281%)" stroke-opacity="1" stroke-miterlimit="4" d="M 80.390625 -84.589844 C 80.390625 -83.707031 79.675781 -82.988281 78.792969 -82.988281 C 77.910156 -82.988281 77.195312 -83.707031 77.195312 -84.589844 C 77.195312 -85.472656 77.910156 -86.1875 78.792969 -86.1875 C 79.675781 -86.1875 80.390625 -85.472656 80.390625 -84.589844 Z M 80.390625 -84.589844 " transform="matrix(1, 0, 0, -1, 0, 0)"/>
<path fill-rule="nonzero" fill="rgb(81.959534%, 51.371765%, 38.430786%)" fill-opacity="1" stroke-width="0.283465" stroke-linecap="butt" stroke-linejoin="round" stroke="rgb(46.665955%, 23.529053%, 13.725281%)" stroke-opacity="1" stroke-miterlimit="4" d="M 77.644531 -83.765625 C 77.644531 -82.882812 76.929688 -82.164062 76.046875 -82.164062 C 75.164062 -82.164062 74.449219 -82.882812 74.449219 -83.765625 C 74.449219 -84.644531 75.164062 -85.363281 76.046875 -85.363281 C 76.929688 -85.363281 77.644531 -84.644531 77.644531 -83.765625 Z M 77.644531 -83.765625 " transform="matrix(1, 0, 0, -1, 0, 0)"/>
<path fill-rule="nonzero" fill="rgb(81.959534%, 51.371765%, 38.430786%)" fill-opacity="1" stroke-width="0.283465" stroke-linecap="butt" stroke-linejoin="round" stroke="rgb(46.665955%, 23.529053%, 13.725281%)" stroke-opacity="1" stroke-miterlimit="4" d="M 74.894531 -83.777344 C 74.894531 -82.894531 74.179688 -82.179688 73.296875 -82.179688 C 72.414062 -82.179688 71.699219 -82.894531 71.699219 -83.777344 C 71.699219 -84.660156 72.414062 -85.375 73.296875 -85.375 C 74.179688 -85.375 74.894531 -84.660156 74.894531 -83.777344 Z M 74.894531 -83.777344 " transform="matrix(1, 0, 0, -1, 0, 0)"/>
<path fill-rule="nonzero" fill="rgb(81.959534%, 51.371765%, 38.430786%)" fill-opacity="1" stroke-width="0.283465" stroke-linecap="butt" stroke-linejoin="round" stroke="rgb(46.665955%, 23.529053%, 13.725281%)" stroke-opacity="1" stroke-miterlimit="4" d="M 72.148438 -83.078125 C 72.148438 -82.195312 71.433594 -81.480469 70.550781 -81.480469 C 69.667969 -81.480469 68.953125 -82.195312 68.953125 -83.078125 C 68.953125 -83.960938 69.667969 -84.679688 70.550781 -84.679688 C 71.433594 -84.679688 72.148438 -83.960938 72.148438 -83.078125 Z M 72.148438 -83.078125 " transform="matrix(1, 0, 0, -1, 0, 0)"/>
<path fill-rule="nonzero" fill="rgb(81.959534%, 51.371765%, 38.430786%)" fill-opacity="1" stroke-width="0.283465" stroke-linecap="butt" stroke-linejoin="round" stroke="rgb(46.665955%, 23.529053%, 13.725281%)" stroke-opacity="1" stroke-miterlimit="4" d="M 66.652344 -81.867188 C 66.652344 -80.984375 65.9375 -80.269531 65.054688 -80.269531 C 64.171875 -80.269531 63.457031 -80.984375 63.457031 -81.867188 C 63.457031 -82.75 64.171875 -83.464844 65.054688 -83.464844 C 65.9375 -83.464844 66.652344 -82.75 66.652344 -81.867188 Z M 66.652344 -81.867188 " transform="matrix(1, 0, 0, -1, 0, 0)"/>
<path fill-rule="nonzero" fill="rgb(81.959534%, 51.371765%, 38.430786%)" fill-opacity="1" stroke-width="0.283465" stroke-linecap="butt" stroke-linejoin="round" stroke="rgb(46.665955%, 23.529053%, 13.725281%)" stroke-opacity="1" stroke-miterlimit="4" d="M 55.660156 -76.097656 C 55.660156 -75.214844 54.945312 -74.5 54.0625 -74.5 C 53.179688 -74.5 52.464844 -75.214844 52.464844 -76.097656 C 52.464844 -76.980469 53.179688 -77.695312 54.0625 -77.695312 C 54.945312 -77.695312 55.660156 -76.980469 55.660156 -76.097656 Z M 55.660156 -76.097656 " transform="matrix(1, 0, 0, -1, 0, 0)"/>
<path fill-rule="nonzero" fill="rgb(81.959534%, 51.371765%, 38.430786%)" fill-opacity="1" stroke-width="0.283465" stroke-linecap="butt" stroke-linejoin="round" stroke="rgb(46.665955%, 23.529053%, 13.725281%)" stroke-opacity="1" stroke-miterlimit="4" d="M 44.667969 -60.273438 C 44.667969 -59.390625 43.953125 -58.675781 43.070312 -58.675781 C 42.1875 -58.675781 41.472656 -59.390625 41.472656 -60.273438 C 41.472656 -61.15625 42.1875 -61.871094 43.070312 -61.871094 C 43.953125 -61.871094 44.667969 -61.15625 44.667969 -60.273438 Z M 44.667969 -60.273438 " transform="matrix(1, 0, 0, -1, 0, 0)"/>
<path fill-rule="nonzero" fill="rgb(81.959534%, 51.371765%, 38.430786%)" fill-opacity="1" stroke-width="0.283465" stroke-linecap="butt" stroke-linejoin="round" stroke="rgb(46.665955%, 23.529053%, 13.725281%)" stroke-opacity="1" stroke-miterlimit="4" d="M 39.171875 -46.84375 C 39.171875 -45.960938 38.457031 -45.246094 37.574219 -45.246094 C 36.691406 -45.246094 35.976562 -45.960938 35.976562 -46.84375 C 35.976562 -47.726562 36.691406 -48.441406 37.574219 -48.441406 C 38.457031 -48.441406 39.171875 -47.726562 39.171875 -46.84375 Z M 39.171875 -46.84375 " transform="matrix(1, 0, 0, -1, 0, 0)"/>
<path fill-rule="nonzero" fill="rgb(81.959534%, 51.371765%, 38.430786%)" fill-opacity="1" stroke-width="0.283465" stroke-linecap="butt" stroke-linejoin="round" stroke="rgb(46.665955%, 23.529053%, 13.725281%)" stroke-opacity="1" stroke-miterlimit="4" d="M 143.597656 -90.355469 C 143.597656 -89.472656 142.882812 -88.757812 142 -88.757812 C 141.117188 -88.757812 140.398438 -89.472656 140.398438 -90.355469 C 140.398438 -91.238281 141.117188 -91.953125 142 -91.953125 C 142.882812 -91.953125 143.597656 -91.238281 143.597656 -90.355469 Z M 143.597656 -90.355469 " transform="matrix(1, 0, 0, -1, 0, 0)"/>
<path fill-rule="nonzero" fill="rgb(81.959534%, 51.371765%, 38.430786%)" fill-opacity="1" stroke-width="0.283465" stroke-linecap="butt" stroke-linejoin="round" stroke="rgb(46.665955%, 23.529053%, 13.725281%)" stroke-opacity="1" stroke-miterlimit="4" d="M 132.605469 -90.246094 C 132.605469 -89.363281 131.890625 -88.648438 131.007812 -88.648438 C 130.125 -88.648438 129.40625 -89.363281 129.40625 -90.246094 C 129.40625 -91.128906 130.125 -91.84375 131.007812 -91.84375 C 131.890625 -91.84375 132.605469 -91.128906 132.605469 -90.246094 Z M 132.605469 -90.246094 " transform="matrix(1, 0, 0, -1, 0, 0)"/>
<path fill-rule="nonzero" fill="rgb(81.959534%, 51.371765%, 38.430786%)" fill-opacity="1" stroke-width="0.283465" stroke-linecap="butt" stroke-linejoin="round" stroke="rgb(46.665955%, 23.529053%, 13.725281%)" stroke-opacity="1" stroke-miterlimit="4" d="M 127.109375 -89.964844 C 127.109375 -89.082031 126.394531 -88.367188 125.511719 -88.367188 C 124.628906 -88.367188 123.910156 -89.082031 123.910156 -89.964844 C 123.910156 -90.847656 124.628906 -91.566406 125.511719 -91.566406 C 126.394531 -91.566406 127.109375 -90.847656 127.109375 -89.964844 Z M 127.109375 -89.964844 " transform="matrix(1, 0, 0, -1, 0, 0)"/>
<path fill-rule="nonzero" fill="rgb(81.959534%, 51.371765%, 38.430786%)" fill-opacity="1" stroke-width="0.283465" stroke-linecap="butt" stroke-linejoin="round" stroke="rgb(46.665955%, 23.529053%, 13.725281%)" stroke-opacity="1" stroke-miterlimit="4" d="M 121.613281 -89.601562 C 121.613281 -88.71875 120.898438 -88.003906 120.015625 -88.003906 C 119.132812 -88.003906 118.417969 -88.71875 118.417969 -89.601562 C 118.417969 -90.484375 119.132812 -91.199219 120.015625 -91.199219 C 120.898438 -91.199219 121.613281 -90.484375 121.613281 -89.601562 Z M 121.613281 -89.601562 " transform="matrix(1, 0, 0, -1, 0, 0)"/>
<path fill-rule="nonzero" fill="rgb(81.959534%, 51.371765%, 38.430786%)" fill-opacity="1" stroke-width="0.283465" stroke-linecap="butt" stroke-linejoin="round" stroke="rgb(46.665955%, 23.529053%, 13.725281%)" stroke-opacity="1" stroke-miterlimit="4" d="M 118.863281 -89.492188 C 118.863281 -88.609375 118.148438 -87.894531 117.265625 -87.894531 C 116.382812 -87.894531 115.667969 -88.609375 115.667969 -89.492188 C 115.667969 -90.375 116.382812 -91.089844 117.265625 -91.089844 C 118.148438 -91.089844 118.863281 -90.375 118.863281 -89.492188 Z M 118.863281 -89.492188 " transform="matrix(1, 0, 0, -1, 0, 0)"/>
<path fill-rule="nonzero" fill="rgb(81.959534%, 51.371765%, 38.430786%)" fill-opacity="1" stroke-width="0.283465" stroke-linecap="butt" stroke-linejoin="round" stroke="rgb(46.665955%, 23.529053%, 13.725281%)" stroke-opacity="1" stroke-miterlimit="4" d="M 116.117188 -89.054688 C 116.117188 -88.171875 115.402344 -87.457031 114.519531 -87.457031 C 113.636719 -87.457031 112.921875 -88.171875 112.921875 -89.054688 C 112.921875 -89.9375 113.636719 -90.652344 114.519531 -90.652344 C 115.402344 -90.652344 116.117188 -89.9375 116.117188 -89.054688 Z M 116.117188 -89.054688 " transform="matrix(1, 0, 0, -1, 0, 0)"/>
<path fill-rule="nonzero" fill="rgb(81.959534%, 51.371765%, 38.430786%)" fill-opacity="1" stroke-width="0.283465" stroke-linecap="butt" stroke-linejoin="round" stroke="rgb(46.665955%, 23.529053%, 13.725281%)" stroke-opacity="1" stroke-miterlimit="4" d="M 113.367188 -88.988281 C 113.367188 -88.105469 112.652344 -87.390625 111.769531 -87.390625 C 110.886719 -87.390625 110.171875 -88.105469 110.171875 -88.988281 C 110.171875 -89.871094 110.886719 -90.585938 111.769531 -90.585938 C 112.652344 -90.585938 113.367188 -89.871094 113.367188 -88.988281 Z M 113.367188 -88.988281 " transform="matrix(1, 0, 0, -1, 0, 0)"/>
<path fill-rule="nonzero" fill="rgb(81.959534%, 51.371765%, 38.430786%)" fill-opacity="1" stroke-width="0.283465" stroke-linecap="butt" stroke-linejoin="round" stroke="rgb(46.665955%, 23.529053%, 13.725281%)" stroke-opacity="1" stroke-miterlimit="4" d="M 110.621094 -88.652344 C 110.621094 -87.769531 109.90625 -87.054688 109.023438 -87.054688 C 108.140625 -87.054688 107.425781 -87.769531 107.425781 -88.652344 C 107.425781 -89.535156 108.140625 -90.253906 109.023438 -90.253906 C 109.90625 -90.253906 110.621094 -89.535156 110.621094 -88.652344 Z M 110.621094 -88.652344 " transform="matrix(1, 0, 0, -1, 0, 0)"/>
<path fill-rule="nonzero" fill="rgb(81.959534%, 51.371765%, 38.430786%)" fill-opacity="1" stroke-width="0.283465" stroke-linecap="butt" stroke-linejoin="round" stroke="rgb(46.665955%, 23.529053%, 13.725281%)" stroke-opacity="1" stroke-miterlimit="4" d="M 107.871094 -88.835938 C 107.871094 -87.953125 107.15625 -87.238281 106.273438 -87.238281 C 105.390625 -87.238281 104.675781 -87.953125 104.675781 -88.835938 C 104.675781 -89.71875 105.390625 -90.433594 106.273438 -90.433594 C 107.15625 -90.433594 107.871094 -89.71875 107.871094 -88.835938 Z M 107.871094 -88.835938 " transform="matrix(1, 0, 0, -1, 0, 0)"/>
<path fill-rule="nonzero" fill="rgb(81.959534%, 51.371765%, 38.430786%)" fill-opacity="1" stroke-width="0.283465" stroke-linecap="butt" stroke-linejoin="round" stroke="rgb(46.665955%, 23.529053%, 13.725281%)" stroke-opacity="1" stroke-miterlimit="4" d="M 105.125 -88.351562 C 105.125 -87.46875 104.410156 -86.753906 103.527344 -86.753906 C 102.644531 -86.753906 101.929688 -87.46875 101.929688 -88.351562 C 101.929688 -89.234375 102.644531 -89.949219 103.527344 -89.949219 C 104.410156 -89.949219 105.125 -89.234375 105.125 -88.351562 Z M 105.125 -88.351562 " transform="matrix(1, 0, 0, -1, 0, 0)"/>
<path fill-rule="nonzero" fill="rgb(81.959534%, 51.371765%, 38.430786%)" fill-opacity="1" stroke-width="0.283465" stroke-linecap="butt" stroke-linejoin="round" stroke="rgb(46.665955%, 23.529053%, 13.725281%)" stroke-opacity="1" stroke-miterlimit="4" d="M 102.375 -88.128906 C 102.375 -87.246094 101.660156 -86.53125 100.777344 -86.53125 C 99.894531 -86.53125 99.179688 -87.246094 99.179688 -88.128906 C 99.179688 -89.011719 99.894531 -89.726562 100.777344 -89.726562 C 101.660156 -89.726562 102.375 -89.011719 102.375 -88.128906 Z M 102.375 -88.128906 " transform="matrix(1, 0, 0, -1, 0, 0)"/>
<path fill-rule="nonzero" fill="rgb(81.959534%, 51.371765%, 38.430786%)" fill-opacity="1" stroke-width="0.283465" stroke-linecap="butt" stroke-linejoin="round" stroke="rgb(46.665955%, 23.529053%, 13.725281%)" stroke-opacity="1" stroke-miterlimit="4" d="M 99.628906 -87.769531 C 99.628906 -86.886719 98.914062 -86.171875 98.03125 -86.171875 C 97.148438 -86.171875 96.433594 -86.886719 96.433594 -87.769531 C 96.433594 -88.652344 97.148438 -89.371094 98.03125 -89.371094 C 98.914062 -89.371094 99.628906 -88.652344 99.628906 -87.769531 Z M 99.628906 -87.769531 " transform="matrix(1, 0, 0, -1, 0, 0)"/>
<path fill="none" stroke-width="1.590824" stroke-linecap="butt" stroke-linejoin="round" stroke="rgb(62.35199%, 85.096741%, 82.351685%)" stroke-opacity="1" stroke-miterlimit="10" d="M 143.287898 83.949219 L 162.232188 83.949219 " transform="matrix(0.787259, 0, 0, 1, 0, 0)"/>
<path fill="none" stroke-width="1.272659" stroke-linecap="butt" stroke-linejoin="round" stroke="rgb(62.35199%, 85.096741%, 82.351685%)" stroke-opacity="1" stroke-miterlimit="10" d="M 143.287898 81.265625 L 143.287898 86.628906 " transform="matrix(0.787259, 0, 0, 1, 0, 0)"/>
<path fill="none" stroke-width="1.272659" stroke-linecap="butt" stroke-linejoin="round" stroke="rgb(62.35199%, 85.096741%, 82.351685%)" stroke-opacity="1" stroke-miterlimit="10" d="M 162.232188 81.265625 L 162.232188 86.628906 " transform="matrix(0.787259, 0, 0, 1, 0, 0)"/>
<path fill-rule="nonzero" fill="rgb(62.35199%, 85.096741%, 82.351685%)" fill-opacity="1" stroke-width="0.283465" stroke-linecap="butt" stroke-linejoin="round" stroke="rgb(20.391846%, 51.371765%, 47.842407%)" stroke-opacity="1" stroke-miterlimit="4" d="M 121.859375 -89.949219 C 121.859375 -89.066406 121.144531 -88.351562 120.261719 -88.351562 C 119.378906 -88.351562 118.664062 -89.066406 118.664062 -89.949219 C 118.664062 -90.832031 119.378906 -91.546875 120.261719 -91.546875 C 121.144531 -91.546875 121.859375 -90.832031 121.859375 -89.949219 Z M 121.859375 -89.949219 " transform="matrix(1, 0, 0, -1, 0, 0)"/>
<path fill-rule="nonzero" fill="rgb(81.959534%, 51.371765%, 38.430786%)" fill-opacity="1" stroke-width="0.283465" stroke-linecap="butt" stroke-linejoin="round" stroke="rgb(46.665955%, 23.529053%, 13.725281%)" stroke-opacity="1" stroke-miterlimit="4" d="M 171.078125 91.386719 C 171.078125 92.269531 170.359375 92.984375 169.480469 92.984375 C 168.597656 92.984375 167.878906 92.269531 167.878906 91.386719 C 167.878906 90.503906 168.597656 89.789062 169.480469 89.789062 C 170.359375 89.789062 171.078125 90.503906 171.078125 91.386719 Z M 171.078125 91.386719 "/>
<path fill="none" stroke-width="0.751181" stroke-linecap="butt" stroke-linejoin="miter" stroke="rgb(0%, 0%, 0%)" stroke-opacity="1" stroke-dasharray="1.502362 1.502362" stroke-miterlimit="4" d="M 135.035156 70.410156 C 133.113281 70.824219 129.109375 72.695312 127.398438 73.734375 C 125.441406 74.925781 123.101562 78.5 122.144531 80.40625 "/>
<path fill-rule="evenodd" fill="rgb(0%, 0%, 0%)" fill-opacity="1" stroke-width="0.125877" stroke-linecap="butt" stroke-linejoin="round" stroke="rgb(0%, 0%, 0%)" stroke-opacity="1" stroke-miterlimit="4" d="M -13.956391 130.615288 L -16.155931 129.805364 L -13.957403 128.994702 C -14.30793 129.471443 -14.306889 130.12717 -13.956391 130.615288 Z M -13.956391 130.615288 " transform="matrix(0.501986, -1, 1, 0.501986, 0, 0)"/>
<path fill-rule="nonzero" fill="rgb(0%, 0%, 0%)" fill-opacity="1" d="M 139.632812 62.144531 L 140.191406 62.144531 L 140.191406 67.285156 L 139.632812 67.285156 Z M 139.632812 62.144531 "/>
<path fill-rule="nonzero" fill="rgb(0%, 0%, 0%)" fill-opacity="1" d="M 144.109375 67.285156 L 144.109375 65.253906 C 144.109375 64.460938 143.769531 63.84375 142.90625 63.84375 C 142.476562 63.84375 142.03125 64.007812 141.765625 64.378906 L 141.765625 63.925781 L 141.214844 63.925781 L 141.214844 67.285156 L 141.765625 67.285156 L 141.765625 65.382812 C 141.789062 64.742188 142.183594 64.335938 142.777344 64.335938 C 143.363281 64.335938 143.570312 64.683594 143.570312 65.277344 L 143.570312 67.285156 Z M 144.109375 67.285156 "/>
<path fill-rule="nonzero" fill="rgb(0%, 0%, 0%)" fill-opacity="1" d="M 146.964844 67.285156 L 146.964844 66.804688 L 146.382812 66.804688 C 145.859375 66.804688 145.765625 66.675781 145.765625 66.1875 L 145.765625 64.367188 L 146.757812 64.367188 L 146.757812 63.925781 L 145.765625 63.925781 L 145.765625 62.96875 L 145.53125 62.96875 L 145.21875 63.925781 L 144.820312 63.925781 L 144.820312 64.367188 L 145.21875 64.367188 L 145.21875 66.1875 C 145.21875 67.027344 145.554688 67.285156 146.382812 67.285156 Z M 146.964844 67.285156 "/>
<path fill-rule="nonzero" fill="rgb(0%, 0%, 0%)" fill-opacity="1" d="M 149.519531 64.601562 L 149.691406 64.066406 C 149.613281 63.972656 149.25 63.878906 149.003906 63.878906 C 148.65625 63.890625 148.363281 64.066406 148.210938 64.378906 L 148.210938 63.925781 L 147.652344 63.925781 L 147.652344 67.285156 L 148.210938 67.285156 L 148.210938 65.511719 C 148.210938 65.5 148.210938 65.488281 148.210938 65.488281 C 148.210938 65 148.46875 64.359375 148.992188 64.359375 L 149.027344 64.359375 C 149.203125 64.359375 149.34375 64.460938 149.519531 64.601562 Z M 149.519531 64.601562 "/>
<path fill-rule="nonzero" fill="rgb(0%, 0%, 0%)" fill-opacity="1" d="M 150.8125 67.285156 L 150.8125 63.925781 L 150.253906 63.925781 L 150.253906 67.285156 Z M 150.535156 62.144531 C 150.359375 62.144531 150.207031 62.304688 150.207031 62.480469 C 150.207031 62.667969 150.359375 62.832031 150.535156 62.832031 C 150.722656 62.832031 150.859375 62.667969 150.859375 62.480469 C 150.859375 62.304688 150.722656 62.144531 150.535156 62.144531 Z M 150.535156 62.144531 "/>
<path fill-rule="nonzero" fill="rgb(0%, 0%, 0%)" fill-opacity="1" d="M 154.730469 67.285156 L 154.730469 65.253906 C 154.730469 64.460938 154.390625 63.84375 153.527344 63.84375 C 153.097656 63.84375 152.652344 64.007812 152.386719 64.378906 L 152.386719 63.925781 L 151.835938 63.925781 L 151.835938 67.285156 L 152.386719 67.285156 L 152.386719 65.382812 C 152.410156 64.742188 152.804688 64.335938 153.398438 64.335938 C 153.984375 64.335938 154.191406 64.683594 154.191406 65.277344 L 154.191406 67.285156 Z M 154.730469 67.285156 "/>
<path fill-rule="nonzero" fill="rgb(0%, 0%, 0%)" fill-opacity="1" d="M 158.167969 66.351562 C 158.167969 65.6875 157.714844 65.476562 157.109375 65.359375 L 156.875 65.3125 C 156.550781 65.242188 156.070312 65.171875 156.070312 64.8125 C 156.09375 64.390625 156.585938 64.3125 156.957031 64.3125 C 157.550781 64.335938 157.503906 64.367188 158.007812 64.578125 L 158.007812 64.03125 C 157.691406 63.902344 157.296875 63.84375 156.886719 63.84375 C 156.222656 63.84375 155.570312 64.089844 155.570312 64.835938 C 155.582031 65.441406 155.988281 65.675781 156.550781 65.78125 L 156.757812 65.828125 C 157.167969 65.917969 157.632812 65.964844 157.632812 66.398438 C 157.609375 66.816406 157.132812 66.898438 156.757812 66.898438 C 156.140625 66.886719 156.046875 66.816406 155.511719 66.5625 L 155.511719 67.167969 C 155.828125 67.25 156.375 67.375 156.746094 67.375 C 157.398438 67.375 158.167969 67.132812 158.167969 66.351562 Z M 158.167969 66.351562 "/>
<path fill-rule="nonzero" fill="rgb(0%, 0%, 0%)" fill-opacity="1" d="M 159.546875 67.285156 L 159.546875 63.925781 L 158.988281 63.925781 L 158.988281 67.285156 Z M 159.269531 62.144531 C 159.09375 62.144531 158.941406 62.304688 158.941406 62.480469 C 158.941406 62.667969 159.09375 62.832031 159.269531 62.832031 C 159.453125 62.832031 159.59375 62.667969 159.59375 62.480469 C 159.59375 62.304688 159.453125 62.144531 159.269531 62.144531 Z M 159.269531 62.144531 "/>
<path fill-rule="nonzero" fill="rgb(0%, 0%, 0%)" fill-opacity="1" d="M 163.148438 67.167969 L 163.148438 66.617188 C 162.785156 66.804688 162.632812 66.898438 162.167969 66.898438 C 161.351562 66.886719 160.957031 66.410156 160.957031 65.605469 C 160.957031 64.824219 161.363281 64.324219 162.167969 64.324219 C 162.609375 64.347656 162.773438 64.414062 163.148438 64.601562 L 163.148438 64.042969 C 162.84375 63.949219 162.519531 63.84375 162.132812 63.84375 C 161.039062 63.84375 160.394531 64.542969 160.394531 65.605469 C 160.417969 66.652344 161.015625 67.375 162.097656 67.375 C 162.472656 67.375 162.867188 67.273438 163.148438 67.167969 Z M 163.148438 67.167969 "/>
<path fill-rule="nonzero" fill="rgb(0%, 0%, 0%)" fill-opacity="1" d="M 135.78125 74.523438 C 135.78125 75.515625 136.433594 76.203125 137.4375 76.203125 L 138.859375 76.203125 L 138.859375 71.0625 L 138.300781 71.0625 L 138.300781 72.84375 L 137.484375 72.84375 C 136.386719 72.84375 135.78125 73.519531 135.78125 74.523438 Z M 136.320312 74.523438 C 136.320312 73.871094 136.738281 73.335938 137.484375 73.335938 L 138.300781 73.335938 L 138.300781 75.710938 L 137.484375 75.710938 C 136.75 75.710938 136.320312 75.246094 136.320312 74.523438 Z M 136.320312 74.523438 "/>
<path fill-rule="nonzero" fill="rgb(0%, 0%, 0%)" fill-opacity="1" d="M 140.445312 76.203125 L 140.445312 72.84375 L 139.886719 72.84375 L 139.886719 76.203125 Z M 140.164062 71.0625 C 139.992188 71.0625 139.839844 71.226562 139.839844 71.398438 C 139.839844 71.585938 139.992188 71.75 140.164062 71.75 C 140.351562 71.75 140.492188 71.585938 140.492188 71.398438 C 140.492188 71.226562 140.351562 71.0625 140.164062 71.0625 Z M 140.164062 71.0625 "/>
<path fill-rule="nonzero" fill="rgb(0%, 0%, 0%)" fill-opacity="1" d="M 146.457031 76.203125 L 146.457031 74.175781 C 146.457031 73.453125 146.191406 72.761719 145.363281 72.761719 C 144.847656 72.761719 144.429688 73.03125 144.160156 73.441406 C 143.988281 73.042969 143.613281 72.761719 143.136719 72.761719 C 142.691406 72.761719 142.261719 72.996094 142.015625 73.300781 L 142.015625 72.84375 L 141.46875 72.84375 L 141.46875 76.203125 L 142.015625 76.203125 L 142.015625 74.300781 C 142.039062 73.707031 142.402344 73.253906 142.9375 73.253906 L 142.972656 73.253906 C 143.53125 73.253906 143.695312 73.601562 143.695312 74.199219 L 143.695312 76.203125 L 144.230469 76.203125 L 144.230469 74.300781 C 144.242188 73.671875 144.558594 73.253906 145.210938 73.253906 C 145.769531 73.253906 145.933594 73.636719 145.933594 74.199219 L 145.933594 76.203125 Z M 146.457031 76.203125 "/>
<path fill-rule="nonzero" fill="rgb(0%, 0%, 0%)" fill-opacity="1" d="M 150.324219 74.523438 L 150.324219 74.464844 C 150.324219 73.496094 149.925781 72.785156 148.820312 72.761719 C 147.828125 72.761719 147.269531 73.625 147.269531 74.558594 C 147.269531 75.574219 147.886719 76.296875 148.914062 76.296875 C 149.378906 76.296875 149.800781 76.191406 150.207031 76.039062 L 150.207031 75.480469 C 149.671875 75.734375 149.589844 75.792969 148.960938 75.792969 C 148.261719 75.792969 147.839844 75.375 147.839844 74.582031 L 147.839844 74.523438 Z M 149.777344 74.070312 L 147.863281 74.070312 C 147.933594 73.625 148.261719 73.242188 148.820312 73.242188 C 149.402344 73.242188 149.777344 73.601562 149.777344 74.070312 Z M 149.777344 74.070312 "/>
<path fill-rule="nonzero" fill="rgb(0%, 0%, 0%)" fill-opacity="1" d="M 154.023438 76.203125 L 154.023438 74.175781 C 154.023438 73.382812 153.683594 72.761719 152.820312 72.761719 C 152.390625 72.761719 151.949219 72.925781 151.679688 73.300781 L 151.679688 72.84375 L 151.132812 72.84375 L 151.132812 76.203125 L 151.679688 76.203125 L 151.679688 74.300781 C 151.703125 73.660156 152.097656 73.253906 152.695312 73.253906 C 153.277344 73.253906 153.484375 73.601562 153.484375 74.199219 L 153.484375 76.203125 Z M 154.023438 76.203125 "/>
<path fill-rule="nonzero" fill="rgb(0%, 0%, 0%)" fill-opacity="1" d="M 157.464844 75.269531 C 157.464844 74.605469 157.007812 74.394531 156.402344 74.277344 L 156.167969 74.230469 C 155.84375 74.164062 155.363281 74.09375 155.363281 73.730469 C 155.386719 73.3125 155.878906 73.230469 156.25 73.230469 C 156.84375 73.253906 156.800781 73.289062 157.300781 73.496094 L 157.300781 72.949219 C 156.984375 72.820312 156.589844 72.761719 156.179688 72.761719 C 155.515625 72.761719 154.863281 73.007812 154.863281 73.753906 C 154.875 74.359375 155.285156 74.59375 155.84375 74.699219 L 156.054688 74.746094 C 156.460938 74.839844 156.925781 74.886719 156.925781 75.316406 C 156.902344 75.734375 156.425781 75.816406 156.054688 75.816406 C 155.433594 75.804688 155.339844 75.734375 154.804688 75.480469 L 154.804688 76.085938 C 155.121094 76.167969 155.667969 76.296875 156.042969 76.296875 C 156.695312 76.296875 157.464844 76.050781 157.464844 75.269531 Z M 157.464844 75.269531 "/>
<path fill-rule="nonzero" fill="rgb(0%, 0%, 0%)" fill-opacity="1" d="M 158.839844 76.203125 L 158.839844 72.84375 L 158.28125 72.84375 L 158.28125 76.203125 Z M 158.5625 71.0625 C 158.386719 71.0625 158.234375 71.226562 158.234375 71.398438 C 158.234375 71.585938 158.386719 71.75 158.5625 71.75 C 158.746094 71.75 158.886719 71.585938 158.886719 71.398438 C 158.886719 71.226562 158.746094 71.0625 158.5625 71.0625 Z M 158.5625 71.0625 "/>
<path fill-rule="nonzero" fill="rgb(0%, 0%, 0%)" fill-opacity="1" d="M 162.847656 74.523438 C 162.847656 73.671875 162.394531 72.761719 161.273438 72.761719 C 160.261719 72.761719 159.691406 73.542969 159.691406 74.523438 C 159.691406 75.445312 160.285156 76.273438 161.273438 76.296875 C 162.277344 76.273438 162.847656 75.46875 162.847656 74.523438 Z M 162.300781 74.523438 C 162.300781 75.1875 161.894531 75.78125 161.273438 75.78125 C 160.4375 75.769531 160.25 75.023438 160.25 74.511719 C 160.25 73.835938 160.574219 73.277344 161.273438 73.265625 C 161.929688 73.277344 162.300781 73.882812 162.300781 74.523438 Z M 162.300781 74.523438 "/>
<path fill-rule="nonzero" fill="rgb(0%, 0%, 0%)" fill-opacity="1" d="M 166.613281 76.203125 L 166.613281 74.175781 C 166.613281 73.382812 166.273438 72.761719 165.414062 72.761719 C 164.980469 72.761719 164.539062 72.925781 164.269531 73.300781 L 164.269531 72.84375 L 163.722656 72.84375 L 163.722656 76.203125 L 164.269531 76.203125 L 164.269531 74.300781 C 164.292969 73.660156 164.691406 73.253906 165.285156 73.253906 C 165.867188 73.253906 166.078125 73.601562 166.078125 74.199219 L 166.078125 76.203125 Z M 166.613281 76.203125 "/>
<path fill="none" stroke-width="0.850394" stroke-linecap="butt" stroke-linejoin="round" stroke="rgb(1.176453%, 0%, 0%)" stroke-opacity="1" stroke-miterlimit="4" d="M 32.578125 3.75 L 185.710938 3.75 L 185.710938 99.335938 L 32.578125 99.335938 Z M 32.578125 3.75 "/>
<path fill-rule="nonzero" fill="rgb(0%, 0%, 0%)" fill-opacity="1" d="M 72.027344 115.929688 C 72.027344 114.542969 71.183594 113.925781 69.933594 113.644531 L 69.300781 113.539062 C 68.488281 113.363281 67.820312 113.152344 67.820312 112.253906 C 67.839844 111.234375 68.664062 110.898438 69.617188 110.898438 C 70.476562 110.898438 70.882812 111.109375 71.605469 111.460938 L 71.605469 110.546875 C 71.042969 110.300781 70.160156 110.140625 69.511719 110.140625 C 68.085938 110.140625 67.03125 110.8125 67.03125 112.34375 C 67.03125 113.695312 67.820312 114.15625 69.089844 114.4375 L 69.667969 114.542969 C 70.546875 114.769531 71.183594 115.035156 71.183594 116.019531 C 71.183594 117.058594 70.214844 117.445312 69.300781 117.445312 C 68.417969 117.445312 67.699219 117.144531 67.011719 116.6875 L 67.011719 117.707031 C 67.734375 117.957031 68.507812 118.203125 69.300781 118.203125 C 70.8125 118.203125 72.027344 117.621094 72.027344 115.929688 Z M 72.027344 115.929688 "/>
<path fill-rule="nonzero" fill="rgb(0%, 0%, 0%)" fill-opacity="1" d="M 77.503906 118.042969 L 77.503906 112.976562 L 76.640625 112.976562 L 76.640625 115.84375 C 76.640625 116.792969 76.164062 117.445312 75.144531 117.445312 C 74.246094 117.445312 73.929688 116.882812 73.929688 116.019531 L 73.929688 112.976562 L 73.121094 112.976562 L 73.121094 116.039062 C 73.121094 117.234375 73.683594 118.183594 74.949219 118.183594 C 75.601562 118.183594 76.269531 117.8125 76.640625 117.375 L 76.640625 118.042969 Z M 77.503906 118.042969 "/>
<path fill-rule="nonzero" fill="rgb(0%, 0%, 0%)" fill-opacity="1" d="M 83.699219 115.507812 C 83.699219 113.996094 82.785156 112.976562 81.148438 112.976562 L 79.898438 112.976562 L 79.898438 110.285156 L 79.054688 110.285156 L 79.054688 118.042969 L 81.21875 118.042969 C 82.710938 118.042969 83.699219 117.003906 83.699219 115.507812 Z M 82.890625 115.507812 C 82.890625 116.601562 82.238281 117.304688 81.148438 117.304688 L 79.898438 117.304688 L 79.898438 113.714844 L 81.148438 113.714844 C 82.253906 113.714844 82.890625 114.523438 82.890625 115.507812 Z M 82.890625 115.507812 "/>
<path fill-rule="nonzero" fill="rgb(0%, 0%, 0%)" fill-opacity="1" d="M 88.699219 116.636719 C 88.699219 115.632812 88.015625 115.316406 87.097656 115.140625 L 86.746094 115.070312 C 86.253906 114.964844 85.535156 114.859375 85.535156 114.3125 C 85.570312 113.679688 86.308594 113.554688 86.871094 113.554688 C 87.769531 113.589844 87.699219 113.644531 88.453125 113.960938 L 88.453125 113.132812 C 87.980469 112.941406 87.382812 112.851562 86.765625 112.851562 C 85.761719 112.851562 84.777344 113.222656 84.777344 114.347656 C 84.792969 115.261719 85.410156 115.613281 86.253906 115.773438 L 86.570312 115.84375 C 87.1875 115.984375 87.890625 116.054688 87.890625 116.707031 C 87.855469 117.339844 87.132812 117.460938 86.570312 117.460938 C 85.640625 117.445312 85.5 117.339844 84.6875 116.953125 L 84.6875 117.867188 C 85.164062 117.992188 85.992188 118.183594 86.554688 118.183594 C 87.539062 118.183594 88.699219 117.8125 88.699219 116.636719 Z M 88.699219 116.636719 "/>
<path fill-rule="nonzero" fill="rgb(0%, 0%, 0%)" fill-opacity="1" d="M 94.582031 115.507812 C 94.582031 114.03125 93.59375 112.976562 92.101562 112.976562 L 89.9375 112.976562 L 89.9375 120.753906 L 90.78125 120.753906 L 90.78125 118.042969 L 92.03125 118.042969 C 93.667969 118.042969 94.582031 117.023438 94.582031 115.507812 Z M 93.773438 115.507812 C 93.773438 116.511719 93.136719 117.304688 92.03125 117.304688 L 90.78125 117.304688 L 90.78125 113.714844 L 92.03125 113.714844 C 93.121094 113.714844 93.773438 114.4375 93.773438 115.507812 Z M 93.773438 115.507812 "/>
<path fill-rule="nonzero" fill="rgb(0%, 0%, 0%)" fill-opacity="1" d="M 99.757812 118.042969 L 99.757812 115.15625 C 99.757812 113.695312 99.144531 112.851562 97.628906 112.851562 C 97.085938 112.851562 96.417969 113.027344 95.921875 113.203125 L 95.921875 114.03125 C 96.433594 113.75 96.855469 113.574219 97.558594 113.574219 C 98.371094 113.589844 98.984375 113.996094 98.984375 114.839844 L 97.824219 114.839844 C 96.628906 114.839844 95.570312 115.246094 95.570312 116.566406 C 95.605469 117.585938 96.203125 118.183594 97.226562 118.183594 C 97.945312 118.183594 98.597656 117.886719 98.984375 117.375 L 98.984375 118.042969 Z M 98.984375 115.683594 C 98.984375 116.671875 98.527344 117.460938 97.472656 117.460938 C 96.855469 117.460938 96.347656 117.179688 96.347656 116.511719 C 96.347656 115.527344 97.277344 115.527344 98.160156 115.527344 L 98.984375 115.527344 Z M 98.984375 115.683594 "/>
<path fill-rule="nonzero" fill="rgb(0%, 0%, 0%)" fill-opacity="1" d="M 105.132812 117.867188 L 105.132812 117.039062 C 104.589844 117.320312 104.359375 117.460938 103.65625 117.460938 C 102.421875 117.445312 101.824219 116.722656 101.824219 115.507812 C 101.824219 114.332031 102.441406 113.574219 103.65625 113.574219 C 104.324219 113.609375 104.570312 113.714844 105.132812 113.996094 L 105.132812 113.152344 C 104.675781 113.011719 104.183594 112.851562 103.601562 112.851562 C 101.949219 112.851562 100.980469 113.90625 100.980469 115.507812 C 101.015625 117.09375 101.914062 118.183594 103.550781 118.183594 C 104.113281 118.183594 104.710938 118.027344 105.132812 117.867188 Z M 105.132812 117.867188 "/>
<path fill-rule="nonzero" fill="rgb(0%, 0%, 0%)" fill-opacity="1" d="M 110.664062 115.507812 L 110.664062 115.421875 C 110.664062 113.960938 110.0625 112.886719 108.390625 112.851562 C 106.898438 112.851562 106.050781 114.15625 106.050781 115.5625 C 106.050781 117.09375 106.984375 118.183594 108.53125 118.183594 C 109.238281 118.183594 109.871094 118.027344 110.484375 117.796875 L 110.484375 116.953125 C 109.675781 117.339844 109.554688 117.425781 108.601562 117.425781 C 107.546875 117.425781 106.914062 116.792969 106.914062 115.597656 L 106.914062 115.507812 Z M 109.835938 114.824219 L 106.949219 114.824219 C 107.054688 114.15625 107.546875 113.574219 108.390625 113.574219 C 109.273438 113.574219 109.835938 114.121094 109.835938 114.824219 Z M 109.835938 114.824219 "/>
<path fill-rule="nonzero" fill="rgb(0%, 0%, 0%)" fill-opacity="1" d="M 114.964844 115.507812 C 114.964844 117.003906 115.949219 118.042969 117.464844 118.042969 L 119.609375 118.042969 L 119.609375 110.285156 L 118.765625 110.285156 L 118.765625 112.976562 L 117.535156 112.976562 C 115.878906 112.976562 114.964844 113.996094 114.964844 115.507812 Z M 115.773438 115.507812 C 115.773438 114.523438 116.40625 113.714844 117.535156 113.714844 L 118.765625 113.714844 L 118.765625 117.304688 L 117.535156 117.304688 C 116.425781 117.304688 115.773438 116.601562 115.773438 115.507812 Z M 115.773438 115.507812 "/>
<path fill-rule="nonzero" fill="rgb(0%, 0%, 0%)" fill-opacity="1" d="M 122.003906 118.042969 L 122.003906 112.976562 L 121.160156 112.976562 L 121.160156 118.042969 Z M 121.582031 110.285156 C 121.316406 110.285156 121.089844 110.53125 121.089844 110.792969 C 121.089844 111.074219 121.316406 111.320312 121.582031 111.320312 C 121.863281 111.320312 122.074219 111.074219 122.074219 110.792969 C 122.074219 110.53125 121.863281 110.285156 121.582031 110.285156 Z M 121.582031 110.285156 "/>
<path fill-rule="nonzero" fill="rgb(0%, 0%, 0%)" fill-opacity="1" d="M 131.082031 118.042969 L 131.082031 114.980469 C 131.082031 113.890625 130.675781 112.851562 129.425781 112.851562 C 128.652344 112.851562 128.019531 113.257812 127.613281 113.871094 C 127.351562 113.273438 126.785156 112.851562 126.066406 112.851562 C 125.398438 112.851562 124.746094 113.203125 124.375 113.660156 L 124.375 112.976562 L 123.550781 112.976562 L 123.550781 118.042969 L 124.375 118.042969 L 124.375 115.175781 C 124.410156 114.277344 124.957031 113.589844 125.765625 113.589844 L 125.820312 113.589844 C 126.664062 113.589844 126.910156 114.121094 126.910156 115.015625 L 126.910156 118.042969 L 127.71875 118.042969 L 127.71875 115.175781 C 127.738281 114.226562 128.210938 113.589844 129.199219 113.589844 C 130.042969 113.589844 130.289062 114.171875 130.289062 115.015625 L 130.289062 118.042969 Z M 131.082031 118.042969 "/>
<path fill-rule="nonzero" fill="rgb(0%, 0%, 0%)" fill-opacity="1" d="M 136.914062 115.507812 L 136.914062 115.421875 C 136.914062 113.960938 136.316406 112.886719 134.644531 112.851562 C 133.148438 112.851562 132.304688 114.15625 132.304688 115.5625 C 132.304688 117.09375 133.238281 118.183594 134.785156 118.183594 C 135.492188 118.183594 136.125 118.027344 136.738281 117.796875 L 136.738281 116.953125 C 135.929688 117.339844 135.808594 117.425781 134.855469 117.425781 C 133.800781 117.425781 133.167969 116.792969 133.167969 115.597656 L 133.167969 115.507812 Z M 136.089844 114.824219 L 133.203125 114.824219 C 133.308594 114.15625 133.800781 113.574219 134.644531 113.574219 C 135.527344 113.574219 136.089844 114.121094 136.089844 114.824219 Z M 136.089844 114.824219 "/>
<path fill-rule="nonzero" fill="rgb(0%, 0%, 0%)" fill-opacity="1" d="M 142.496094 118.042969 L 142.496094 114.980469 C 142.496094 113.785156 141.988281 112.851562 140.6875 112.851562 C 140.035156 112.851562 139.367188 113.097656 138.960938 113.660156 L 138.960938 112.976562 L 138.132812 112.976562 L 138.132812 118.042969 L 138.960938 118.042969 L 138.960938 115.175781 C 138.996094 114.207031 139.59375 113.589844 140.492188 113.589844 C 141.371094 113.589844 141.6875 114.121094 141.6875 115.015625 L 141.6875 118.042969 Z M 142.496094 118.042969 "/>
<path fill-rule="nonzero" fill="rgb(0%, 0%, 0%)" fill-opacity="1" d="M 147.691406 116.636719 C 147.691406 115.632812 147.007812 115.316406 146.089844 115.140625 L 145.738281 115.070312 C 145.246094 114.964844 144.523438 114.859375 144.523438 114.3125 C 144.558594 113.679688 145.300781 113.554688 145.863281 113.554688 C 146.757812 113.589844 146.6875 113.644531 147.445312 113.960938 L 147.445312 113.132812 C 146.972656 112.941406 146.371094 112.851562 145.757812 112.851562 C 144.753906 112.851562 143.769531 113.222656 143.769531 114.347656 C 143.785156 115.261719 144.402344 115.613281 145.246094 115.773438 L 145.5625 115.84375 C 146.179688 115.984375 146.882812 116.054688 146.882812 116.707031 C 146.847656 117.339844 146.125 117.460938 145.5625 117.460938 C 144.628906 117.445312 144.488281 117.339844 143.679688 116.953125 L 143.679688 117.867188 C 144.15625 117.992188 144.984375 118.183594 145.546875 118.183594 C 146.53125 118.183594 147.691406 117.8125 147.691406 116.636719 Z M 147.691406 116.636719 "/>
<path fill-rule="nonzero" fill="rgb(0%, 0%, 0%)" fill-opacity="1" d="M 149.773438 118.042969 L 149.773438 112.976562 L 148.925781 112.976562 L 148.925781 118.042969 Z M 149.347656 110.285156 C 149.085938 110.285156 148.855469 110.53125 148.855469 110.792969 C 148.855469 111.074219 149.085938 111.320312 149.347656 111.320312 C 149.632812 111.320312 149.84375 111.074219 149.84375 110.792969 C 149.84375 110.53125 149.632812 110.285156 149.347656 110.285156 Z M 149.347656 110.285156 "/>
<path fill-rule="nonzero" fill="rgb(0%, 0%, 0%)" fill-opacity="1" d="M 155.820312 115.507812 C 155.820312 114.226562 155.136719 112.851562 153.445312 112.851562 C 151.914062 112.851562 151.054688 114.03125 151.054688 115.507812 C 151.054688 116.898438 151.949219 118.148438 153.445312 118.183594 C 154.960938 118.148438 155.820312 116.933594 155.820312 115.507812 Z M 154.996094 115.507812 C 154.996094 116.511719 154.378906 117.410156 153.445312 117.410156 C 152.179688 117.390625 151.898438 116.265625 151.898438 115.492188 C 151.898438 114.472656 152.390625 113.625 153.445312 113.609375 C 154.429688 113.625 154.996094 114.542969 154.996094 115.507812 Z M 154.996094 115.507812 "/>
<path fill-rule="nonzero" fill="rgb(0%, 0%, 0%)" fill-opacity="1" d="M 161.503906 118.042969 L 161.503906 114.980469 C 161.503906 113.785156 160.992188 112.851562 159.691406 112.851562 C 159.039062 112.851562 158.371094 113.097656 157.96875 113.660156 L 157.96875 112.976562 L 157.140625 112.976562 L 157.140625 118.042969 L 157.96875 118.042969 L 157.96875 115.175781 C 158.003906 114.207031 158.601562 113.589844 159.496094 113.589844 C 160.378906 113.589844 160.695312 114.121094 160.695312 115.015625 L 160.695312 118.042969 Z M 161.503906 118.042969 "/>
<path fill-rule="nonzero" fill="rgb(50.195312%, 50.195312%, 50.195312%)" fill-opacity="1" d="M 34.304688 105.839844 C 34.292969 104.675781 34.03125 102.992188 32.558594 102.992188 C 31.085938 102.992188 30.835938 104.699219 30.835938 105.839844 C 30.835938 106.992188 31.097656 108.664062 32.558594 108.664062 C 34.019531 108.664062 34.304688 106.992188 34.304688 105.839844 Z M 33.734375 105.839844 C 33.734375 106.59375 33.671875 108.144531 32.558594 108.144531 C 31.445312 108.144531 31.40625 106.570312 31.40625 105.839844 C 31.40625 105.097656 31.429688 103.5 32.558594 103.5 C 33.671875 103.5 33.734375 105.109375 33.734375 105.839844 Z M 33.734375 105.839844 "/>
<path fill-rule="nonzero" fill="rgb(50.195312%, 50.195312%, 50.195312%)" fill-opacity="1" d="M 179.617188 108.554688 L 179.617188 103.09375 L 178.960938 103.09375 L 178.179688 103.726562 L 178.179688 104.34375 L 178.996094 103.675781 L 178.996094 108.554688 Z M 179.617188 108.554688 "/>
<path fill-rule="nonzero" fill="rgb(50.195312%, 50.195312%, 50.195312%)" fill-opacity="1" d="M 184.121094 107.253906 L 184.121094 106.6875 L 183.378906 106.6875 L 183.378906 103.09375 L 182.585938 103.09375 L 180.46875 106.5625 L 180.46875 107.253906 L 182.785156 107.253906 L 182.785156 108.554688 L 183.378906 108.554688 L 183.378906 107.253906 Z M 182.785156 106.6875 L 180.914062 106.6875 L 182.785156 103.675781 Z M 182.785156 106.6875 "/>
<path fill-rule="nonzero" fill="rgb(50.195312%, 50.195312%, 50.195312%)" fill-opacity="1" d="M 188.246094 105.84375 C 188.234375 104.679688 187.976562 102.996094 186.5 102.996094 C 185.027344 102.996094 184.78125 104.703125 184.78125 105.84375 C 184.78125 106.996094 185.039062 108.667969 186.5 108.667969 C 187.964844 108.667969 188.246094 106.996094 188.246094 105.84375 Z M 187.679688 105.84375 C 187.679688 106.597656 187.617188 108.148438 186.5 108.148438 C 185.386719 108.148438 185.347656 106.574219 185.347656 105.84375 C 185.347656 105.101562 185.375 103.503906 186.5 103.503906 C 187.617188 103.503906 187.679688 105.113281 187.679688 105.84375 Z M 187.679688 105.84375 "/>
<path fill-rule="nonzero" fill="rgb(50.195312%, 50.195312%, 50.195312%)" fill-opacity="1" d="M 192.65625 105.84375 C 192.640625 104.679688 192.382812 102.996094 190.910156 102.996094 C 189.433594 102.996094 189.1875 104.703125 189.1875 105.84375 C 189.1875 106.996094 189.445312 108.667969 190.910156 108.667969 C 192.371094 108.667969 192.65625 106.996094 192.65625 105.84375 Z M 192.085938 105.84375 C 192.085938 106.597656 192.023438 108.148438 190.910156 108.148438 C 189.792969 108.148438 189.757812 106.574219 189.757812 105.84375 C 189.757812 105.101562 189.78125 103.503906 190.910156 103.503906 C 192.023438 103.503906 192.085938 105.113281 192.085938 105.84375 Z M 192.085938 105.84375 "/>
<path fill="none" stroke-width="0.850394" stroke-linecap="butt" stroke-linejoin="miter" stroke="rgb(50.195312%, 50.195312%, 50.195312%)" stroke-opacity="1" stroke-miterlimit="4" d="M -99.722656 -185.710938 L -101.003906 -185.710938 " transform="matrix(0, -1, -1, 0, 0, 0)"/>
<path fill="none" stroke-width="0.850394" stroke-linecap="butt" stroke-linejoin="miter" stroke="rgb(50.195312%, 50.195312%, 50.195312%)" stroke-opacity="1" stroke-miterlimit="4" d="M -99.722656 -174.769531 L -101.003906 -174.769531 " transform="matrix(0, -1, -1, 0, 0, 0)"/>
<path fill="none" stroke-width="0.850394" stroke-linecap="butt" stroke-linejoin="miter" stroke="rgb(50.195312%, 50.195312%, 50.195312%)" stroke-opacity="1" stroke-miterlimit="4" d="M -99.722656 -163.832031 L -101.003906 -163.832031 " transform="matrix(0, -1, -1, 0, 0, 0)"/>
<path fill="none" stroke-width="0.850394" stroke-linecap="butt" stroke-linejoin="miter" stroke="rgb(50.195312%, 50.195312%, 50.195312%)" stroke-opacity="1" stroke-miterlimit="4" d="M -99.722656 -152.894531 L -101.003906 -152.894531 " transform="matrix(0, -1, -1, 0, 0, 0)"/>
<path fill-rule="nonzero" fill="rgb(0%, 0%, 0%)" fill-opacity="1" d="M 20.640625 84.878906 C 19.671875 84.878906 18.5625 85.355469 18.5625 86.464844 C 18.582031 87.554688 19.617188 88.0625 20.640625 88.0625 C 21.660156 88.0625 22.734375 87.589844 22.734375 86.464844 C 22.734375 85.335938 21.625 84.878906 20.640625 84.878906 Z M 14.675781 86.410156 L 14.675781 87.042969 L 22.734375 91.566406 L 22.734375 90.933594 Z M 16.769531 89.929688 C 15.765625 89.929688 14.675781 90.40625 14.675781 91.511719 C 14.675781 92.621094 15.765625 93.078125 16.769531 93.078125 C 17.824219 93.0625 18.84375 92.675781 18.84375 91.511719 C 18.84375 90.371094 17.804688 89.929688 16.769531 89.929688 Z M 20.640625 85.460938 C 21.359375 85.476562 22.152344 85.722656 22.152344 86.464844 C 22.152344 87.253906 21.324219 87.484375 20.640625 87.484375 C 19.898438 87.464844 19.109375 87.289062 19.109375 86.464844 C 19.109375 85.707031 19.953125 85.460938 20.640625 85.460938 Z M 16.769531 90.492188 C 17.507812 90.492188 18.316406 90.722656 18.316406 91.511719 C 18.28125 92.269531 17.472656 92.515625 16.769531 92.515625 C 16.046875 92.515625 15.238281 92.234375 15.238281 91.511719 C 15.238281 90.722656 15.992188 90.492188 16.769531 90.492188 Z M 16.769531 90.492188 "/>
<path fill-rule="nonzero" fill="rgb(0%, 0%, 0%)" fill-opacity="1" d="M 14.816406 74.585938 L 14.816406 75.480469 L 20.550781 77.820312 L 14.816406 80.214844 L 14.816406 81.09375 L 22.734375 77.820312 Z M 14.816406 74.585938 "/>
<path fill-rule="nonzero" fill="rgb(0%, 0%, 0%)" fill-opacity="1" d="M 22.574219 70.667969 L 19.6875 70.667969 C 18.230469 70.667969 17.382812 71.285156 17.382812 72.796875 C 17.382812 73.34375 17.558594 74.011719 17.734375 74.503906 L 18.5625 74.503906 C 18.28125 73.996094 18.105469 73.574219 18.105469 72.871094 C 18.125 72.058594 18.527344 71.445312 19.371094 71.445312 L 19.371094 72.605469 C 19.371094 73.800781 19.777344 74.859375 21.097656 74.859375 C 22.117188 74.824219 22.714844 74.222656 22.714844 73.203125 C 22.714844 72.480469 22.417969 71.832031 21.90625 71.445312 L 22.574219 71.445312 Z M 20.21875 71.445312 C 21.203125 71.445312 21.996094 71.902344 21.996094 72.957031 C 21.996094 73.574219 21.710938 74.082031 21.042969 74.082031 C 20.058594 74.082031 20.058594 73.152344 20.058594 72.269531 L 20.058594 71.445312 Z M 20.21875 71.445312 "/>
<path fill-rule="nonzero" fill="rgb(0%, 0%, 0%)" fill-opacity="1" d="M 14.816406 68.480469 L 22.574219 68.480469 L 22.574219 69.308594 L 14.816406 69.308594 Z M 14.816406 68.480469 "/>
<path fill-rule="nonzero" fill="rgb(0%, 0%, 0%)" fill-opacity="1" d="M 22.574219 66.097656 L 17.507812 66.097656 L 17.507812 66.941406 L 22.574219 66.941406 Z M 14.816406 66.519531 C 14.816406 66.78125 15.0625 67.011719 15.324219 67.011719 C 15.605469 67.011719 15.851562 66.78125 15.851562 66.519531 C 15.851562 66.238281 15.605469 66.027344 15.324219 66.027344 C 15.0625 66.027344 14.816406 66.238281 14.816406 66.519531 Z M 14.816406 66.519531 "/>
<path fill-rule="nonzero" fill="rgb(0%, 0%, 0%)" fill-opacity="1" d="M 20.042969 64.832031 C 21.535156 64.832031 22.574219 63.847656 22.574219 62.332031 L 22.574219 60.1875 L 14.816406 60.1875 L 14.816406 61.03125 L 17.507812 61.03125 L 17.507812 62.261719 C 17.507812 63.917969 18.527344 64.832031 20.042969 64.832031 Z M 20.042969 64.023438 C 19.054688 64.023438 18.246094 63.390625 18.246094 62.261719 L 18.246094 61.03125 L 21.835938 61.03125 L 21.835938 62.261719 C 21.835938 63.371094 21.132812 64.023438 20.042969 64.023438 Z M 20.042969 64.023438 "/>
<path fill-rule="nonzero" fill="rgb(0%, 0%, 0%)" fill-opacity="1" d="M 22.574219 54.75 L 19.6875 54.75 C 18.230469 54.75 17.382812 55.367188 17.382812 56.878906 C 17.382812 57.425781 17.558594 58.09375 17.734375 58.585938 L 18.5625 58.585938 C 18.28125 58.074219 18.105469 57.652344 18.105469 56.949219 C 18.125 56.140625 18.527344 55.523438 19.371094 55.523438 L 19.371094 56.683594 C 19.371094 57.882812 19.777344 58.9375 21.097656 58.9375 C 22.117188 58.902344 22.714844 58.304688 22.714844 57.285156 C 22.714844 56.5625 22.417969 55.910156 21.90625 55.523438 L 22.574219 55.523438 Z M 20.21875 55.523438 C 21.203125 55.523438 21.996094 55.980469 21.996094 57.035156 C 21.996094 57.652344 21.710938 58.164062 21.042969 58.164062 C 20.058594 58.164062 20.058594 57.230469 20.058594 56.351562 L 20.058594 55.523438 Z M 20.21875 55.523438 "/>
<path fill-rule="nonzero" fill="rgb(0%, 0%, 0%)" fill-opacity="1" d="M 22.574219 50.542969 L 21.851562 50.542969 L 21.851562 51.421875 C 21.851562 52.214844 21.660156 52.355469 20.921875 52.355469 L 18.175781 52.355469 L 18.175781 50.859375 L 17.507812 50.859375 L 17.507812 52.355469 L 16.0625 52.355469 L 16.0625 52.707031 L 17.507812 53.183594 L 17.507812 53.78125 L 18.175781 53.78125 L 18.175781 53.183594 L 20.921875 53.183594 C 22.1875 53.183594 22.574219 52.671875 22.574219 51.421875 Z M 22.574219 50.542969 "/>
<path fill-rule="nonzero" fill="rgb(0%, 0%, 0%)" fill-opacity="1" d="M 22.574219 48.660156 L 17.507812 48.660156 L 17.507812 49.503906 L 22.574219 49.503906 Z M 14.816406 49.082031 C 14.816406 49.347656 15.0625 49.574219 15.324219 49.574219 C 15.605469 49.574219 15.851562 49.347656 15.851562 49.082031 C 15.851562 48.800781 15.605469 48.589844 15.324219 48.589844 C 15.0625 48.589844 14.816406 48.800781 14.816406 49.082031 Z M 14.816406 49.082031 "/>
<path fill-rule="nonzero" fill="rgb(0%, 0%, 0%)" fill-opacity="1" d="M 20.042969 42.609375 C 18.757812 42.609375 17.382812 43.296875 17.382812 44.988281 C 17.382812 46.515625 18.5625 47.378906 20.042969 47.378906 C 21.429688 47.378906 22.679688 46.480469 22.714844 44.988281 C 22.679688 43.472656 21.464844 42.609375 20.042969 42.609375 Z M 20.042969 43.4375 C 21.042969 43.4375 21.941406 44.054688 21.941406 44.988281 C 21.925781 46.253906 20.796875 46.535156 20.023438 46.535156 C 19.003906 46.535156 18.160156 46.042969 18.140625 44.988281 C 18.160156 44 19.074219 43.4375 20.042969 43.4375 Z M 20.042969 43.4375 "/>
<path fill-rule="nonzero" fill="rgb(0%, 0%, 0%)" fill-opacity="1" d="M 22.574219 36.929688 L 19.511719 36.929688 C 18.316406 36.929688 17.382812 37.4375 17.382812 38.742188 C 17.382812 39.390625 17.628906 40.0625 18.195312 40.464844 L 17.507812 40.464844 L 17.507812 41.292969 L 22.574219 41.292969 L 22.574219 40.464844 L 19.707031 40.464844 C 18.738281 40.429688 18.125 39.832031 18.125 38.933594 C 18.125 38.054688 18.652344 37.738281 19.546875 37.738281 L 22.574219 37.738281 Z M 22.574219 36.929688 "/>
<path fill-rule="nonzero" fill="rgb(0%, 0%, 0%)" fill-opacity="1" d="M 20.042969 27.734375 L 19.953125 27.734375 C 18.492188 27.734375 17.417969 28.332031 17.382812 30.003906 C 17.382812 31.5 18.6875 32.347656 20.09375 32.347656 C 21.625 32.347656 22.714844 31.414062 22.714844 29.863281 C 22.714844 29.160156 22.558594 28.527344 22.328125 27.910156 L 21.484375 27.910156 C 21.871094 28.722656 21.960938 28.84375 21.960938 29.792969 C 21.960938 30.851562 21.324219 31.484375 20.128906 31.484375 L 20.042969 31.484375 Z M 19.355469 28.5625 L 19.355469 31.449219 C 18.6875 31.34375 18.105469 30.851562 18.105469 30.003906 C 18.105469 29.125 18.652344 28.5625 19.355469 28.5625 Z M 19.355469 28.5625 "/>
<path fill-rule="nonzero" fill="rgb(0%, 0%, 0%)" fill-opacity="1" d="M 18.527344 23.703125 L 17.71875 23.4375 C 17.578125 23.5625 17.4375 24.105469 17.4375 24.476562 C 17.453125 25.003906 17.71875 25.445312 18.195312 25.671875 L 17.507812 25.671875 L 17.507812 26.515625 L 22.574219 26.515625 L 22.574219 25.671875 L 19.898438 25.671875 C 19.882812 25.671875 19.863281 25.671875 19.863281 25.671875 C 19.125 25.671875 18.160156 25.285156 18.160156 24.492188 L 18.160156 24.441406 C 18.160156 24.175781 18.316406 23.964844 18.527344 23.703125 Z M 18.527344 23.703125 "/>
<path fill-rule="nonzero" fill="rgb(0%, 0%, 0%)" fill-opacity="1" d="M 18.527344 19.773438 L 17.71875 19.511719 C 17.578125 19.632812 17.4375 20.179688 17.4375 20.550781 C 17.453125 21.078125 17.71875 21.515625 18.195312 21.746094 L 17.507812 21.746094 L 17.507812 22.589844 L 22.574219 22.589844 L 22.574219 21.746094 L 19.898438 21.746094 C 19.882812 21.746094 19.863281 21.746094 19.863281 21.746094 C 19.125 21.746094 18.160156 21.359375 18.160156 20.566406 L 18.160156 20.515625 C 18.160156 20.25 18.316406 20.039062 18.527344 19.773438 Z M 18.527344 19.773438 "/>
<path fill-rule="nonzero" fill="rgb(0%, 0%, 0%)" fill-opacity="1" d="M 20.042969 14.40625 C 18.757812 14.40625 17.382812 15.09375 17.382812 16.78125 C 17.382812 18.3125 18.5625 19.175781 20.042969 19.175781 C 21.429688 19.175781 22.679688 18.277344 22.714844 16.78125 C 22.679688 15.269531 21.464844 14.40625 20.042969 14.40625 Z M 20.042969 15.234375 C 21.042969 15.234375 21.941406 15.847656 21.941406 16.78125 C 21.925781 18.046875 20.796875 18.328125 20.023438 18.328125 C 19.003906 18.328125 18.160156 17.835938 18.140625 16.78125 C 18.160156 15.796875 19.074219 15.234375 20.042969 15.234375 Z M 20.042969 15.234375 "/>
<path fill-rule="nonzero" fill="rgb(0%, 0%, 0%)" fill-opacity="1" d="M 18.527344 10.273438 L 17.71875 10.007812 C 17.578125 10.132812 17.4375 10.675781 17.4375 11.046875 C 17.453125 11.574219 17.71875 12.015625 18.195312 12.242188 L 17.507812 12.242188 L 17.507812 13.085938 L 22.574219 13.085938 L 22.574219 12.242188 L 19.898438 12.242188 C 19.882812 12.242188 19.863281 12.242188 19.863281 12.242188 C 19.125 12.242188 18.160156 11.855469 18.160156 11.0625 L 18.160156 11.011719 C 18.160156 10.746094 18.316406 10.535156 18.527344 10.273438 Z M 18.527344 10.273438 "/>
<path fill-rule="nonzero" fill="rgb(50.195312%, 50.195312%, 50.195312%)" fill-opacity="1" d="M 29.574219 98.757812 C 29.5625 97.59375 29.300781 95.910156 27.828125 95.910156 C 26.351562 95.910156 26.105469 97.617188 26.105469 98.757812 C 26.105469 99.910156 26.367188 101.582031 27.828125 101.582031 C 29.289062 101.582031 29.574219 99.910156 29.574219 98.757812 Z M 29.003906 98.757812 C 29.003906 99.515625 28.941406 101.0625 27.828125 101.0625 C 26.710938 101.0625 26.675781 99.488281 26.675781 98.757812 C 26.675781 98.015625 26.699219 96.417969 27.828125 96.417969 C 28.941406 96.417969 29.003906 98.027344 29.003906 98.757812 Z M 29.003906 98.757812 "/>
<path fill-rule="nonzero" fill="rgb(50.195312%, 50.195312%, 50.195312%)" fill-opacity="1" d="M 20.585938 6.234375 L 20.585938 0.773438 L 19.929688 0.773438 L 19.148438 1.40625 L 19.148438 2.023438 L 19.96875 1.355469 L 19.96875 6.234375 Z M 20.585938 6.234375 "/>
<path fill-rule="nonzero" fill="rgb(50.195312%, 50.195312%, 50.195312%)" fill-opacity="1" d="M 25.167969 3.523438 C 25.15625 2.359375 24.894531 0.675781 23.421875 0.675781 C 21.945312 0.675781 21.699219 2.382812 21.699219 3.523438 C 21.699219 4.675781 21.957031 6.347656 23.421875 6.347656 C 24.882812 6.347656 25.167969 4.675781 25.167969 3.523438 Z M 24.597656 3.523438 C 24.597656 4.277344 24.535156 5.828125 23.421875 5.828125 C 22.304688 5.828125 22.269531 4.253906 22.269531 3.523438 C 22.269531 2.78125 22.292969 1.183594 23.421875 1.183594 C 24.535156 1.183594 24.597656 2.792969 24.597656 3.523438 Z M 24.597656 3.523438 "/>
<path fill-rule="nonzero" fill="rgb(50.195312%, 50.195312%, 50.195312%)" fill-opacity="1" d="M 29.574219 3.523438 C 29.5625 2.359375 29.300781 0.675781 27.828125 0.675781 C 26.351562 0.675781 26.105469 2.382812 26.105469 3.523438 C 26.105469 4.675781 26.367188 6.347656 27.828125 6.347656 C 29.289062 6.347656 29.574219 4.675781 29.574219 3.523438 Z M 29.003906 3.523438 C 29.003906 4.277344 28.941406 5.828125 27.828125 5.828125 C 26.710938 5.828125 26.675781 4.253906 26.675781 3.523438 C 26.675781 2.78125 26.699219 1.183594 27.828125 1.183594 C 28.941406 1.183594 29.003906 2.792969 29.003906 3.523438 Z M 29.003906 3.523438 "/>
</svg>
