<?xml version="1.0" encoding="UTF-8"?>
<svg xmlns="http://www.w3.org/2000/svg" xmlns:xlink="http://www.w3.org/1999/xlink" width="199.930099pt" height="115.704094pt" viewBox="0 0 199.930099 115.704094">
<path fill="none" stroke-width="0.850394" stroke-linecap="butt" stroke-linejoin="miter" stroke="rgb(50.195312%, 50.195312%, 50.195312%)" stroke-opacity="1" stroke-miterlimit="4" d="M 27.402344 100.4375 L 27.402344 102.320312 "/>
<path fill="none" stroke-width="0.850394" stroke-linecap="butt" stroke-linejoin="miter" stroke="rgb(50.195312%, 50.195312%, 50.195312%)" stroke-opacity="1" stroke-miterlimit="4" d="M 180.539062 100.4375 L 180.539062 102.320312 "/>
<path fill="none" stroke-width="0.850394" stroke-linecap="butt" stroke-linejoin="miter" stroke="rgb(50.195312%, 50.195312%, 50.195312%)" stroke-opacity="1" stroke-miterlimit="4" d="M 58.03125 101.71875 L 58.03125 100.4375 "/>
<path fill="none" stroke-width="0.850394" stroke-linecap="butt" stroke-linejoin="miter" stroke="rgb(50.195312%, 50.195312%, 50.195312%)" stroke-opacity="1" stroke-miterlimit="4" d="M 88.65625 101.71875 L 88.65625 100.4375 "/>
<path fill="none" stroke-width="0.850394" stroke-linecap="butt" stroke-linejoin="miter" stroke="rgb(50.195312%, 50.195312%, 50.195312%)" stroke-opacity="1" stroke-miterlimit="4" d="M 119.285156 101.71875 L 119.285156 100.4375 "/>
<path fill="none" stroke-width="0.850394" stroke-linecap="butt" stroke-linejoin="miter" stroke="rgb(50.195312%, 50.195312%, 50.195312%)" stroke-opacity="1" stroke-miterlimit="4" d="M 27.222656 4.523438 L 25.339844 4.523438 "/>
<path fill="none" stroke-width="0.850394" stroke-linecap="butt" stroke-linejoin="miter" stroke="rgb(50.195312%, 50.195312%, 50.195312%)" stroke-opacity="1" stroke-miterlimit="4" d="M 27.136719 100.050781 L 25.253906 100.050781 "/>
<path fill="none" stroke-width="0.850394" stroke-linecap="butt" stroke-linejoin="miter" stroke="rgb(50.195312%, 50.195312%, 50.195312%)" stroke-opacity="1" stroke-miterlimit="4" d="M 27.222656 23.609375 L 25.941406 23.609375 "/>
<path fill="none" stroke-width="0.850394" stroke-linecap="butt" stroke-linejoin="miter" stroke="rgb(50.195312%, 50.195312%, 50.195312%)" stroke-opacity="1" stroke-miterlimit="4" d="M 27.222656 42.71875 L 25.941406 42.71875 "/>
<path fill="none" stroke-width="0.850394" stroke-linecap="butt" stroke-linejoin="miter" stroke="rgb(50.195312%, 50.195312%, 50.195312%)" stroke-opacity="1" stroke-miterlimit="4" d="M 27.222656 61.828125 L 25.941406 61.828125 "/>
<path fill="none" stroke-width="0.850394" stroke-linecap="butt" stroke-linejoin="miter" stroke="rgb(50.195312%, 50.195312%, 50.195312%)" stroke-opacity="1" stroke-miterlimit="4" d="M 27.222656 80.941406 L 25.941406 80.941406 "/>
<path fill="none" stroke-width="0.850394" stroke-linecap="butt" stroke-linejoin="miter" stroke="rgb(50.195312%, 50.195312%, 50.195312%)" stroke-opacity="1" stroke-miterlimit="4" d="M 149.914062 101.71875 L 149.914062 100.4375 "/>
<path fill-rule="nonzero" fill="rgb(50.195312%, 50.195312%, 50.195312%)" fill-opacity="1" d="M 29.136719 106.613281 C 29.125 105.449219 28.863281 103.761719 27.390625 103.761719 C 25.917969 103.761719 25.667969 105.472656 25.667969 106.613281 C 25.667969 107.765625 25.929688 109.4375 27.390625 109.4375 C 28.851562 109.4375 29.136719 107.765625 29.136719 106.613281 Z M 28.566406 106.613281 C 28.566406 107.367188 28.503906 108.917969 27.390625 108.917969 C 26.273438 108.917969 26.238281 107.34375 26.238281 106.613281 C 26.238281 105.867188 26.261719 104.269531 27.390625 104.269531 C 28.503906 104.269531 28.566406 105.882812 28.566406 106.613281 Z M 28.566406 106.613281 "/>
<path fill="none" stroke-width="1.417323" stroke-linecap="butt" stroke-linejoin="miter" stroke="rgb(68.234253%, 76.469421%, 81.175232%)" stroke-opacity="1" stroke-miterlimit="4" d="M 114.558594 11.757812 C 122.597656 11.757812 122.597656 11.757812 122.597656 11.757812 "/>
<path fill="none" stroke-width="1.417323" stroke-linecap="butt" stroke-linejoin="miter" stroke="rgb(81.959534%, 51.371765%, 38.430786%)" stroke-opacity="1" stroke-miterlimit="4" d="M 114.558594 20.5 C 122.597656 20.5 122.597656 20.5 122.597656 20.5 "/>
<path fill="none" stroke-width="1.714721" stroke-linecap="square" stroke-linejoin="round" stroke="rgb(68.234253%, 76.469421%, 81.175232%)" stroke-opacity="1" stroke-miterlimit="10" d="M 28.332031 -99.496728 L 30.746094 -115.866061 L 33.160156 -121.686522 L 35.578125 -127.924364 L 37.992188 -132.235394 L 40.40625 -134.836877 L 42.824219 -138.781983 L 45.238281 -140.857453 L 47.652344 -143.087295 L 50.070312 -143.72766 L 52.484375 -144.808277 L 54.898438 -145.820282 L 57.3125 -146.066137 L 59.730469 -146.254816 L 62.144531 -146.283403 L 64.558594 -146.289121 L 66.976562 -146.294838 L 71.804688 -146.306273 L 79.050781 -146.306273 L 81.464844 -146.311991 L 103.203125 -146.311991 L 105.617188 -146.317709 L 179.996094 -146.317709 " transform="matrix(1, 0, 0, -0.683204, 0, 0)"/>
<path fill="none" stroke-width="1.714721" stroke-linecap="square" stroke-linejoin="round" stroke="rgb(62.35199%, 85.096741%, 82.351685%)" stroke-opacity="1" stroke-miterlimit="10" d="M 28.332031 -17.810154 L 30.746094 -17.735826 L 33.160156 -17.775849 L 35.578125 -17.930223 L 37.992188 -17.975963 L 40.40625 -17.975963 L 42.824219 -18.010269 L 45.238281 -18.501977 L 47.652344 -18.719244 L 50.070312 -19.108037 L 52.484375 -19.302434 L 57.3125 -20.697515 L 59.730469 -23.167495 L 62.144531 -24.728385 L 64.558594 -27.735814 L 66.976562 -30.42306 L 69.390625 -34.042266 L 71.804688 -38.033113 L 74.222656 -45.940479 L 76.636719 -52.149733 L 79.050781 -59.977053 L 81.464844 -66.975329 L 83.882812 -75.260052 L 86.296875 -84.585369 L 88.710938 -91.332073 L 91.128906 -99.079347 L 93.542969 -109.18225 L 95.957031 -112.601342 L 98.375 -120.73741 L 100.789062 -124.225112 L 103.203125 -131.45209 L 105.617188 -135.860318 L 108.035156 -139.88547 L 110.449219 -142.715655 L 112.863281 -145.014108 L 115.28125 -145.84887 L 117.695312 -146.117594 L 120.109375 -146.163335 L 122.527344 -146.226228 L 124.941406 -146.22051 L 127.355469 -146.249098 L 129.769531 -146.260533 L 132.1875 -146.260533 L 134.601562 -146.271968 L 137.015625 -146.277686 L 139.433594 -146.277686 L 141.847656 -146.283403 L 149.09375 -146.283403 L 151.507812 -146.289121 L 161.167969 -146.289121 L 163.585938 -146.294838 L 178.074219 -146.294838 " transform="matrix(1, 0, 0, -0.683204, 0, 0)"/>
<path fill="none" stroke-width="1.714721" stroke-linecap="square" stroke-linejoin="round" stroke="rgb(81.959534%, 51.371765%, 38.430786%)" stroke-opacity="1" stroke-miterlimit="10" d="M 28.332031 -17.695804 L 30.746094 -19.022274 L 33.160156 -19.834166 L 35.578125 -22.018268 L 37.992188 -24.865606 L 40.40625 -29.176635 L 42.824219 -37.575709 L 45.238281 -45.317266 L 47.652344 -54.059393 L 50.070312 -66.512208 L 52.484375 -77.15256 L 54.898438 -88.490453 L 57.3125 -101.206274 L 59.730469 -109.353776 L 62.144531 -118.839185 L 64.558594 -125.059874 L 66.976562 -130.508695 L 69.390625 -134.653916 L 71.804688 -139.056426 L 74.222656 -142.42406 L 76.636719 -144.802559 L 79.050781 -145.980373 L 81.464844 -146.24338 L 83.882812 -146.277686 L 86.296875 -146.289121 L 88.710938 -146.294838 L 91.128906 -146.294838 L 93.542969 -146.300556 L 95.957031 -146.300556 L 98.375 -146.306273 L 108.035156 -146.306273 L 110.449219 -146.311991 L 168.414062 -146.311991 L 170.832031 -146.317709 L 178.074219 -146.317709 " transform="matrix(1, 0, 0, -0.683204, 0, 0)"/>
<path fill-rule="nonzero" fill="rgb(50.195312%, 50.195312%, 50.195312%)" fill-opacity="1" d="M 174.953125 109.328125 L 174.953125 108.757812 L 172.5 108.757812 L 174.371094 106.652344 C 174.679688 106.21875 174.917969 105.886719 174.917969 105.316406 C 174.917969 104.300781 174.171875 103.769531 173.230469 103.769531 C 172.699219 103.769531 172.253906 103.929688 171.808594 104.113281 L 171.808594 104.820312 C 172.253906 104.535156 172.699219 104.324219 173.246094 104.324219 C 173.863281 104.324219 174.347656 104.710938 174.347656 105.351562 C 174.347656 105.785156 174 106.320312 173.714844 106.617188 C 173.628906 106.742188 171.90625 108.621094 171.769531 108.757812 L 171.769531 109.328125 Z M 174.953125 109.328125 "/>
<path fill-rule="nonzero" fill="rgb(50.195312%, 50.195312%, 50.195312%)" fill-opacity="1" d="M 178.863281 107.59375 C 178.851562 106.480469 178.15625 105.75 177.042969 105.75 C 176.894531 105.761719 176.558594 105.800781 176.359375 105.875 L 176.558594 104.4375 L 178.492188 104.4375 L 178.492188 103.867188 L 176.160156 103.867188 L 175.828125 106.566406 C 176.261719 106.355469 176.359375 106.308594 176.917969 106.308594 C 177.722656 106.308594 178.292969 106.753906 178.292969 107.59375 C 178.292969 108.460938 177.734375 108.882812 176.917969 108.882812 C 176.371094 108.882812 176.011719 108.773438 175.617188 108.523438 L 175.617188 109.207031 C 175.976562 109.339844 176.507812 109.441406 176.929688 109.441406 C 178.105469 109.441406 178.863281 108.796875 178.863281 107.59375 Z M 178.863281 107.59375 "/>
<path fill-rule="nonzero" fill="rgb(50.195312%, 50.195312%, 50.195312%)" fill-opacity="1" d="M 183.746094 109.328125 L 180.996094 106.394531 L 183.574219 103.867188 L 182.742188 103.867188 L 180.363281 106.207031 L 180.363281 103.867188 L 179.757812 103.867188 L 179.757812 109.328125 L 180.363281 109.328125 L 180.363281 106.652344 L 182.917969 109.328125 Z M 183.746094 109.328125 "/>
<path fill-rule="nonzero" fill="rgb(0%, 0%, 0%)" fill-opacity="1" d="M 84.265625 104.992188 L 84.265625 104.183594 L 78.210938 104.183594 L 78.210938 104.992188 L 80.816406 104.992188 L 80.816406 111.941406 L 81.660156 111.941406 L 81.660156 104.992188 Z M 84.265625 104.992188 "/>
<path fill-rule="nonzero" fill="rgb(0%, 0%, 0%)" fill-opacity="1" d="M 86.664062 107.894531 L 86.929688 107.085938 C 86.804688 106.945312 86.261719 106.804688 85.890625 106.804688 C 85.363281 106.820312 84.921875 107.085938 84.695312 107.5625 L 84.695312 106.875 L 83.851562 106.875 L 83.851562 111.941406 L 84.695312 111.941406 L 84.695312 109.265625 C 84.695312 109.25 84.695312 109.230469 84.695312 109.230469 C 84.695312 108.492188 85.082031 107.527344 85.875 107.527344 L 85.925781 107.527344 C 86.191406 107.527344 86.402344 107.683594 86.664062 107.894531 Z M 86.664062 107.894531 "/>
<path fill-rule="nonzero" fill="rgb(0%, 0%, 0%)" fill-opacity="1" d="M 91.597656 111.941406 L 91.597656 109.054688 C 91.597656 107.597656 90.980469 106.75 89.46875 106.75 C 88.921875 106.75 88.253906 106.925781 87.761719 107.101562 L 87.761719 107.929688 C 88.273438 107.648438 88.695312 107.472656 89.398438 107.472656 C 90.207031 107.492188 90.824219 107.894531 90.824219 108.738281 L 89.664062 108.738281 C 88.464844 108.738281 87.410156 109.144531 87.410156 110.464844 C 87.445312 111.484375 88.042969 112.082031 89.0625 112.082031 C 89.785156 112.082031 90.4375 111.785156 90.824219 111.273438 L 90.824219 111.941406 Z M 90.824219 109.585938 C 90.824219 110.570312 90.367188 111.363281 89.308594 111.363281 C 88.695312 111.363281 88.183594 111.078125 88.183594 110.410156 C 88.183594 109.425781 89.117188 109.425781 89.996094 109.425781 L 90.824219 109.425781 Z M 90.824219 109.585938 "/>
<path fill-rule="nonzero" fill="rgb(0%, 0%, 0%)" fill-opacity="1" d="M 93.929688 111.941406 L 93.929688 106.875 L 93.082031 106.875 L 93.082031 111.941406 Z M 93.503906 104.183594 C 93.242188 104.183594 93.011719 104.429688 93.011719 104.691406 C 93.011719 104.972656 93.242188 105.21875 93.503906 105.21875 C 93.789062 105.21875 94 104.972656 94 104.691406 C 94 104.429688 93.789062 104.183594 93.503906 104.183594 Z M 93.503906 104.183594 "/>
<path fill-rule="nonzero" fill="rgb(0%, 0%, 0%)" fill-opacity="1" d="M 99.835938 111.941406 L 99.835938 108.878906 C 99.835938 107.683594 99.328125 106.75 98.023438 106.75 C 97.375 106.75 96.703125 106.996094 96.300781 107.5625 L 96.300781 106.875 L 95.472656 106.875 L 95.472656 111.941406 L 96.300781 111.941406 L 96.300781 109.074219 C 96.335938 108.105469 96.933594 107.492188 97.832031 107.492188 C 98.710938 107.492188 99.027344 108.019531 99.027344 108.914062 L 99.027344 111.941406 Z M 99.835938 111.941406 "/>
<path fill-rule="nonzero" fill="rgb(0%, 0%, 0%)" fill-opacity="1" d="M 102.164062 111.941406 L 102.164062 106.875 L 101.316406 106.875 L 101.316406 111.941406 Z M 101.742188 104.183594 C 101.476562 104.183594 101.246094 104.429688 101.246094 104.691406 C 101.246094 104.972656 101.476562 105.21875 101.742188 105.21875 C 102.023438 105.21875 102.234375 104.972656 102.234375 104.691406 C 102.234375 104.429688 102.023438 104.183594 101.742188 104.183594 Z M 101.742188 104.183594 "/>
<path fill-rule="nonzero" fill="rgb(0%, 0%, 0%)" fill-opacity="1" d="M 108.070312 111.941406 L 108.070312 108.878906 C 108.070312 107.683594 107.5625 106.75 106.257812 106.75 C 105.609375 106.75 104.941406 106.996094 104.535156 107.5625 L 104.535156 106.875 L 103.707031 106.875 L 103.707031 111.941406 L 104.535156 111.941406 L 104.535156 109.074219 C 104.570312 108.105469 105.167969 107.492188 106.066406 107.492188 C 106.945312 107.492188 107.261719 108.019531 107.261719 108.914062 L 107.261719 111.941406 Z M 108.070312 111.941406 "/>
<path fill-rule="nonzero" fill="rgb(0%, 0%, 0%)" fill-opacity="1" d="M 111.085938 111.820312 C 112.035156 111.820312 112.683594 112.277344 112.683594 112.890625 C 112.683594 113.507812 112.035156 113.949219 111.085938 113.949219 C 110.132812 113.949219 109.605469 113.507812 109.605469 112.890625 C 109.605469 112.277344 110.132812 111.820312 111.085938 111.820312 Z M 111.085938 111.097656 C 110.996094 111.097656 110.910156 111.097656 110.800781 111.113281 C 110.273438 111.113281 109.816406 110.796875 109.816406 110.585938 C 109.816406 110.339844 110.097656 110.253906 110.308594 110.253906 L 110.378906 110.253906 C 110.554688 110.410156 111.085938 110.464844 111.242188 110.464844 C 112.210938 110.464844 112.984375 109.636719 112.984375 108.617188 C 112.984375 108.210938 112.84375 107.824219 112.613281 107.527344 L 113.441406 107.527344 L 113.441406 106.890625 L 112.015625 106.890625 C 111.789062 106.820312 111.472656 106.785156 111.296875 106.785156 C 110.328125 106.785156 109.519531 107.613281 109.484375 108.617188 C 109.484375 109.109375 109.660156 109.550781 109.976562 109.867188 C 109.605469 109.9375 109.203125 110.183594 109.203125 110.65625 C 109.203125 110.957031 109.394531 111.238281 109.800781 111.414062 C 109.148438 111.75 108.761719 112.292969 108.761719 112.875 C 108.761719 113.789062 109.695312 114.632812 111.085938 114.632812 C 112.492188 114.632812 113.636719 113.789062 113.636719 112.890625 C 113.636719 111.714844 112.261719 111.097656 111.085938 111.097656 Z M 111.242188 107.492188 C 111.839844 107.492188 112.332031 107.984375 112.332031 108.597656 C 112.332031 109.195312 111.839844 109.691406 111.242188 109.691406 C 110.625 109.691406 110.152344 109.195312 110.152344 108.597656 C 110.152344 107.984375 110.625 107.492188 111.242188 107.492188 Z M 111.242188 107.492188 "/>
<path fill-rule="nonzero" fill="rgb(0%, 0%, 0%)" fill-opacity="1" d="M 121.835938 110.535156 C 121.835938 109.53125 121.152344 109.214844 120.238281 109.039062 L 119.882812 108.96875 C 119.390625 108.863281 118.671875 108.757812 118.671875 108.210938 C 118.707031 107.578125 119.445312 107.457031 120.007812 107.457031 C 120.90625 107.492188 120.835938 107.542969 121.589844 107.859375 L 121.589844 107.03125 C 121.117188 106.839844 120.519531 106.75 119.902344 106.75 C 118.898438 106.75 117.914062 107.121094 117.914062 108.246094 C 117.929688 109.160156 118.546875 109.515625 119.390625 109.671875 L 119.707031 109.742188 C 120.324219 109.882812 121.027344 109.953125 121.027344 110.605469 C 120.992188 111.238281 120.273438 111.363281 119.707031 111.363281 C 118.777344 111.34375 118.636719 111.238281 117.824219 110.851562 L 117.824219 111.765625 C 118.300781 111.890625 119.128906 112.082031 119.691406 112.082031 C 120.675781 112.082031 121.835938 111.714844 121.835938 110.535156 Z M 121.835938 110.535156 "/>
<path fill-rule="nonzero" fill="rgb(0%, 0%, 0%)" fill-opacity="1" d="M 125.90625 111.941406 L 125.90625 111.21875 L 125.027344 111.21875 C 124.234375 111.21875 124.09375 111.027344 124.09375 110.289062 L 124.09375 107.542969 L 125.589844 107.542969 L 125.589844 106.875 L 124.09375 106.875 L 124.09375 105.429688 L 123.742188 105.429688 L 123.265625 106.875 L 122.667969 106.875 L 122.667969 107.542969 L 123.265625 107.542969 L 123.265625 110.289062 C 123.265625 111.554688 123.777344 111.941406 125.027344 111.941406 Z M 125.90625 111.941406 "/>
<path fill-rule="nonzero" fill="rgb(0%, 0%, 0%)" fill-opacity="1" d="M 130.953125 109.410156 L 130.953125 109.320312 C 130.953125 107.859375 130.355469 106.785156 128.683594 106.75 C 127.1875 106.75 126.34375 108.054688 126.34375 109.460938 C 126.34375 110.992188 127.277344 112.082031 128.824219 112.082031 C 129.527344 112.082031 130.160156 111.925781 130.777344 111.695312 L 130.777344 110.851562 C 129.96875 111.238281 129.84375 111.328125 128.894531 111.328125 C 127.839844 111.328125 127.207031 110.691406 127.207031 109.496094 L 127.207031 109.410156 Z M 130.125 108.722656 L 127.242188 108.722656 C 127.347656 108.054688 127.839844 107.472656 128.683594 107.472656 C 129.5625 107.472656 130.125 108.019531 130.125 108.722656 Z M 130.125 108.722656 "/>
<path fill-rule="nonzero" fill="rgb(0%, 0%, 0%)" fill-opacity="1" d="M 136.816406 109.410156 C 136.816406 107.929688 135.832031 106.875 134.335938 106.875 L 132.171875 106.875 L 132.171875 114.652344 L 133.015625 114.652344 L 133.015625 111.941406 L 134.265625 111.941406 C 135.902344 111.941406 136.816406 110.921875 136.816406 109.410156 Z M 136.007812 109.410156 C 136.007812 110.410156 135.375 111.203125 134.265625 111.203125 L 133.015625 111.203125 L 133.015625 107.613281 L 134.265625 107.613281 C 135.355469 107.613281 136.007812 108.335938 136.007812 109.410156 Z M 136.007812 109.410156 "/>
<path fill-rule="nonzero" fill="rgb(0%, 0%, 0%)" fill-opacity="1" d="M 141.820312 110.535156 C 141.820312 109.53125 141.132812 109.214844 140.21875 109.039062 L 139.867188 108.96875 C 139.375 108.863281 138.652344 108.757812 138.652344 108.210938 C 138.6875 107.578125 139.425781 107.457031 139.988281 107.457031 C 140.886719 107.492188 140.816406 107.542969 141.574219 107.859375 L 141.574219 107.03125 C 141.097656 106.839844 140.5 106.75 139.882812 106.75 C 138.882812 106.75 137.894531 107.121094 137.894531 108.246094 C 137.914062 109.160156 138.527344 109.515625 139.375 109.671875 L 139.691406 109.742188 C 140.304688 109.882812 141.011719 109.953125 141.011719 110.605469 C 140.976562 111.238281 140.253906 111.363281 139.691406 111.363281 C 138.757812 111.34375 138.617188 111.238281 137.808594 110.851562 L 137.808594 111.765625 C 138.28125 111.890625 139.109375 112.082031 139.671875 112.082031 C 140.65625 112.082031 141.820312 111.714844 141.820312 110.535156 Z M 141.820312 110.535156 "/>
<path fill-rule="nonzero" fill="rgb(0%, 0%, 0%)" fill-opacity="1" d="M 18.835938 74.433594 L 11.074219 77.195312 L 11.074219 78.214844 L 18.835938 80.960938 L 18.835938 80.0625 L 16.8125 79.410156 L 16.8125 75.980469 L 18.835938 75.328125 Z M 16.003906 76.261719 L 16.003906 79.128906 L 12.007812 77.6875 Z M 16.003906 76.261719 "/>
<path fill-rule="nonzero" fill="rgb(0%, 0%, 0%)" fill-opacity="1" d="M 13.769531 69.660156 L 13.769531 70.433594 L 17.320312 72.121094 L 13.769531 73.828125 L 13.769531 74.605469 L 18.992188 72.121094 Z M 13.769531 69.660156 "/>
<path fill-rule="nonzero" fill="rgb(0%, 0%, 0%)" fill-opacity="1" d="M 16.300781 64.574219 L 16.214844 64.574219 C 14.753906 64.574219 13.679688 65.171875 13.644531 66.84375 C 13.644531 68.339844 14.945312 69.183594 16.355469 69.183594 C 17.886719 69.183594 18.976562 68.25 18.976562 66.703125 C 18.976562 66 18.816406 65.367188 18.589844 64.75 L 17.746094 64.75 C 18.132812 65.558594 18.21875 65.683594 18.21875 66.632812 C 18.21875 67.6875 17.585938 68.320312 16.390625 68.320312 L 16.300781 68.320312 Z M 15.617188 65.402344 L 15.617188 68.285156 C 14.945312 68.179688 14.367188 67.6875 14.367188 66.84375 C 14.367188 65.964844 14.910156 65.402344 15.617188 65.402344 Z M 15.617188 65.402344 "/>
<path fill-rule="nonzero" fill="rgb(0%, 0%, 0%)" fill-opacity="1" d="M 14.789062 60.539062 L 13.980469 60.277344 C 13.839844 60.398438 13.699219 60.945312 13.699219 61.3125 C 13.714844 61.84375 13.980469 62.28125 14.453125 62.511719 L 13.769531 62.511719 L 13.769531 63.355469 L 18.835938 63.355469 L 18.835938 62.511719 L 16.160156 62.511719 C 16.144531 62.511719 16.125 62.511719 16.125 62.511719 C 15.386719 62.511719 14.417969 62.125 14.417969 61.332031 L 14.417969 61.277344 C 14.417969 61.015625 14.578125 60.804688 14.789062 60.539062 Z M 14.789062 60.539062 "/>
<path fill-rule="nonzero" fill="rgb(0%, 0%, 0%)" fill-opacity="1" d="M 18.835938 55.605469 L 15.949219 55.605469 C 14.488281 55.605469 13.644531 56.222656 13.644531 57.734375 C 13.644531 58.28125 13.820312 58.949219 13.996094 59.441406 L 14.824219 59.441406 C 14.542969 58.933594 14.367188 58.511719 14.367188 57.804688 C 14.382812 56.996094 14.789062 56.382812 15.632812 56.382812 L 15.632812 57.542969 C 15.632812 58.738281 16.039062 59.792969 17.355469 59.792969 C 18.378906 59.757812 18.976562 59.160156 18.976562 58.140625 C 18.976562 57.417969 18.675781 56.769531 18.167969 56.382812 L 18.835938 56.382812 Z M 16.476562 56.382812 C 17.464844 56.382812 18.253906 56.839844 18.253906 57.894531 C 18.253906 58.511719 17.972656 59.019531 17.304688 59.019531 C 16.320312 59.019531 16.320312 58.089844 16.320312 57.207031 L 16.320312 56.382812 Z M 16.476562 56.382812 "/>
<path fill-rule="nonzero" fill="rgb(0%, 0%, 0%)" fill-opacity="1" d="M 18.710938 52.589844 C 18.710938 51.640625 19.167969 50.988281 19.785156 50.988281 C 20.402344 50.988281 20.839844 51.640625 20.839844 52.589844 C 20.839844 53.539062 20.402344 54.070312 19.785156 54.070312 C 19.167969 54.070312 18.710938 53.539062 18.710938 52.589844 Z M 17.992188 52.589844 C 17.992188 52.679688 17.992188 52.765625 18.007812 52.871094 C 18.007812 53.398438 17.691406 53.859375 17.480469 53.859375 C 17.234375 53.859375 17.144531 53.574219 17.144531 53.363281 L 17.144531 53.292969 C 17.304688 53.117188 17.355469 52.589844 17.355469 52.433594 C 17.355469 51.464844 16.53125 50.691406 15.511719 50.691406 C 15.105469 50.691406 14.71875 50.832031 14.417969 51.058594 L 14.417969 50.234375 L 13.785156 50.234375 L 13.785156 51.65625 C 13.714844 51.886719 13.679688 52.203125 13.679688 52.378906 C 13.679688 53.347656 14.507812 54.15625 15.511719 54.191406 C 16.003906 54.191406 16.441406 54.015625 16.757812 53.699219 C 16.828125 54.070312 17.074219 54.472656 17.550781 54.472656 C 17.851562 54.472656 18.132812 54.28125 18.308594 53.875 C 18.640625 54.527344 19.1875 54.914062 19.769531 54.914062 C 20.683594 54.914062 21.527344 53.980469 21.527344 52.589844 C 21.527344 51.183594 20.683594 50.039062 19.785156 50.039062 C 18.605469 50.039062 17.992188 51.410156 17.992188 52.589844 Z M 14.382812 52.433594 C 14.382812 51.835938 14.875 51.339844 15.492188 51.339844 C 16.089844 51.339844 16.582031 51.835938 16.582031 52.433594 C 16.582031 53.046875 16.089844 53.523438 15.492188 53.523438 C 14.875 53.523438 14.382812 53.046875 14.382812 52.433594 Z M 14.382812 52.433594 "/>
<path fill-rule="nonzero" fill="rgb(0%, 0%, 0%)" fill-opacity="1" d="M 16.300781 44.851562 L 16.214844 44.851562 C 14.753906 44.851562 13.679688 45.449219 13.644531 47.121094 C 13.644531 48.617188 14.945312 49.460938 16.355469 49.460938 C 17.886719 49.460938 18.976562 48.527344 18.976562 46.980469 C 18.976562 46.273438 18.816406 45.640625 18.589844 45.027344 L 17.746094 45.027344 C 18.132812 45.835938 18.21875 45.957031 18.21875 46.910156 C 18.21875 47.964844 17.585938 48.597656 16.390625 48.597656 L 16.300781 48.597656 Z M 15.617188 45.675781 L 15.617188 48.5625 C 14.945312 48.457031 14.367188 47.964844 14.367188 47.121094 C 14.367188 46.238281 14.910156 45.675781 15.617188 45.675781 Z M 15.617188 45.675781 "/>
<path fill-rule="nonzero" fill="rgb(0%, 0%, 0%)" fill-opacity="1" d="M 11.074219 39.5625 L 18.835938 39.5625 L 18.835938 40.390625 L 11.074219 40.390625 Z M 11.074219 39.5625 "/>
<path fill-rule="nonzero" fill="rgb(0%, 0%, 0%)" fill-opacity="1" d="M 16.300781 33.515625 C 15.015625 33.515625 13.644531 34.203125 13.644531 35.894531 C 13.644531 37.421875 14.824219 38.285156 16.300781 38.285156 C 17.691406 38.285156 18.941406 37.386719 18.976562 35.894531 C 18.941406 34.378906 17.726562 33.515625 16.300781 33.515625 Z M 16.300781 34.34375 C 17.304688 34.34375 18.203125 34.960938 18.203125 35.894531 C 18.183594 37.160156 17.058594 37.441406 16.285156 37.441406 C 15.261719 37.441406 14.417969 36.949219 14.402344 35.894531 C 14.417969 34.90625 15.332031 34.34375 16.300781 34.34375 Z M 16.300781 34.34375 "/>
<path fill-rule="nonzero" fill="rgb(0%, 0%, 0%)" fill-opacity="1" d="M 17.429688 28.484375 C 16.425781 28.484375 16.109375 29.171875 15.933594 30.085938 L 15.863281 30.4375 C 15.757812 30.933594 15.652344 31.652344 15.105469 31.652344 C 14.472656 31.617188 14.347656 30.878906 14.347656 30.316406 C 14.382812 29.417969 14.4375 29.488281 14.753906 28.734375 L 13.925781 28.734375 C 13.734375 29.207031 13.644531 29.804688 13.644531 30.421875 C 13.644531 31.425781 14.015625 32.410156 15.140625 32.410156 C 16.054688 32.390625 16.40625 31.777344 16.566406 30.933594 L 16.636719 30.617188 C 16.777344 30 16.847656 29.296875 17.5 29.296875 C 18.132812 29.332031 18.253906 30.050781 18.253906 30.617188 C 18.238281 31.546875 18.132812 31.6875 17.746094 32.5 L 18.660156 32.5 C 18.78125 32.023438 18.976562 31.195312 18.976562 30.632812 C 18.976562 29.648438 18.605469 28.484375 17.429688 28.484375 Z M 17.429688 28.484375 "/>
<path fill-rule="nonzero" fill="rgb(0%, 0%, 0%)" fill-opacity="1" d="M 17.429688 23.671875 C 16.425781 23.671875 16.109375 24.359375 15.933594 25.273438 L 15.863281 25.625 C 15.757812 26.117188 15.652344 26.839844 15.105469 26.839844 C 14.472656 26.804688 14.347656 26.066406 14.347656 25.503906 C 14.382812 24.605469 14.4375 24.675781 14.753906 23.917969 L 13.925781 23.917969 C 13.734375 24.394531 13.644531 24.992188 13.644531 25.609375 C 13.644531 26.613281 14.015625 27.597656 15.140625 27.597656 C 16.054688 27.578125 16.40625 26.964844 16.566406 26.117188 L 16.636719 25.800781 C 16.777344 25.1875 16.847656 24.484375 17.5 24.484375 C 18.132812 24.519531 18.253906 25.238281 18.253906 25.800781 C 18.238281 26.734375 18.132812 26.875 17.746094 27.683594 L 18.660156 27.683594 C 18.78125 27.210938 18.976562 26.382812 18.976562 25.820312 C 18.976562 24.835938 18.605469 23.671875 17.429688 23.671875 Z M 17.429688 23.671875 "/>
<path fill-rule="nonzero" fill="rgb(50.195312%, 50.195312%, 50.195312%)" fill-opacity="1" d="M 18.019531 99.164062 C 18.007812 98 17.746094 96.316406 16.273438 96.316406 C 14.796875 96.316406 14.550781 98.027344 14.550781 99.164062 C 14.550781 100.316406 14.808594 101.988281 16.273438 101.988281 C 17.734375 101.988281 18.019531 100.316406 18.019531 99.164062 Z M 17.449219 99.164062 C 17.449219 99.921875 17.386719 101.46875 16.273438 101.46875 C 15.15625 101.46875 15.121094 99.894531 15.121094 99.164062 C 15.121094 98.421875 15.144531 96.824219 16.273438 96.824219 C 17.386719 96.824219 17.449219 98.433594 17.449219 99.164062 Z M 17.449219 99.164062 "/>
<path fill-rule="nonzero" fill="rgb(50.195312%, 50.195312%, 50.195312%)" fill-opacity="1" d="M 19.03125 101.074219 L 19.785156 101.074219 L 19.785156 101.878906 L 19.03125 101.878906 Z M 19.03125 101.074219 "/>
<path fill-rule="nonzero" fill="rgb(50.195312%, 50.195312%, 50.195312%)" fill-opacity="1" d="M 24.265625 99.164062 C 24.253906 98 23.992188 96.316406 22.519531 96.316406 C 21.046875 96.316406 20.796875 98.027344 20.796875 99.164062 C 20.796875 100.316406 21.058594 101.988281 22.519531 101.988281 C 23.980469 101.988281 24.265625 100.316406 24.265625 99.164062 Z M 23.695312 99.164062 C 23.695312 99.921875 23.632812 101.46875 22.519531 101.46875 C 21.402344 101.46875 21.367188 99.894531 21.367188 99.164062 C 21.367188 98.421875 21.390625 96.824219 22.519531 96.824219 C 23.632812 96.824219 23.695312 98.433594 23.695312 99.164062 Z M 23.695312 99.164062 "/>
<path fill-rule="nonzero" fill="rgb(50.195312%, 50.195312%, 50.195312%)" fill-opacity="1" d="M 18.515625 7.007812 L 18.515625 6.4375 L 16.066406 6.4375 L 17.933594 4.332031 C 18.246094 3.898438 18.480469 3.566406 18.480469 2.996094 C 18.480469 1.980469 17.738281 1.445312 16.796875 1.445312 C 16.261719 1.445312 15.816406 1.609375 15.371094 1.792969 L 15.371094 2.5 C 15.816406 2.214844 16.261719 2.003906 16.808594 2.003906 C 17.425781 2.003906 17.910156 2.386719 17.910156 3.03125 C 17.910156 3.464844 17.5625 4 17.277344 4.296875 C 17.191406 4.417969 15.46875 6.300781 15.335938 6.4375 L 15.335938 7.007812 Z M 18.515625 7.007812 "/>
<path fill-rule="nonzero" fill="rgb(50.195312%, 50.195312%, 50.195312%)" fill-opacity="1" d="M 19.429688 6.203125 L 20.183594 6.203125 L 20.183594 7.007812 L 19.429688 7.007812 Z M 19.429688 6.203125 "/>
<path fill-rule="nonzero" fill="rgb(50.195312%, 50.195312%, 50.195312%)" fill-opacity="1" d="M 24.265625 5.273438 C 24.253906 4.160156 23.558594 3.429688 22.445312 3.429688 C 22.296875 3.441406 21.960938 3.476562 21.761719 3.550781 L 21.960938 2.117188 L 23.894531 2.117188 L 23.894531 1.546875 L 21.566406 1.546875 L 21.230469 4.246094 C 21.664062 4.035156 21.761719 3.984375 22.320312 3.984375 C 23.125 3.984375 23.695312 4.433594 23.695312 5.273438 C 23.695312 6.140625 23.136719 6.5625 22.320312 6.5625 C 21.777344 6.5625 21.417969 6.449219 21.019531 6.203125 L 21.019531 6.882812 C 21.378906 7.019531 21.914062 7.121094 22.332031 7.121094 C 23.511719 7.121094 24.265625 6.476562 24.265625 5.273438 Z M 24.265625 5.273438 "/>
<path fill="none" stroke-width="1.417323" stroke-linecap="butt" stroke-linejoin="miter" stroke="rgb(62.35199%, 85.096741%, 82.351685%)" stroke-opacity="1" stroke-miterlimit="4" d="M 114.558594 30.078125 C 122.597656 30.078125 122.597656 30.078125 122.597656 30.078125 "/>
<path fill="none" stroke-width="0.850394" stroke-linecap="butt" stroke-linejoin="round" stroke="rgb(1.176453%, 0%, 0%)" stroke-opacity="1" stroke-miterlimit="4" d="M 27.410156 4.523438 L 180.539062 4.523438 L 180.539062 100.109375 L 27.410156 100.109375 Z M 27.410156 4.523438 "/>
<path fill-rule="nonzero" fill="rgb(0%, 0%, 0%)" fill-opacity="1" d="M 128.269531 13.382812 L 128.269531 12.902344 L 127.6875 12.902344 C 127.160156 12.902344 127.070312 12.773438 127.070312 12.285156 L 127.070312 10.46875 L 128.058594 10.46875 L 128.058594 10.023438 L 127.070312 10.023438 L 127.070312 9.066406 L 126.835938 9.066406 L 126.519531 10.023438 L 126.125 10.023438 L 126.125 10.46875 L 126.519531 10.46875 L 126.519531 12.285156 C 126.519531 13.125 126.859375 13.382812 127.6875 13.382812 Z M 128.269531 13.382812 "/>
<path fill-rule="nonzero" fill="rgb(0%, 0%, 0%)" fill-opacity="1" d="M 130.820312 10.699219 L 130.996094 10.164062 C 130.914062 10.070312 130.554688 9.976562 130.308594 9.976562 C 129.960938 9.988281 129.667969 10.164062 129.515625 10.476562 L 129.515625 10.023438 L 128.957031 10.023438 L 128.957031 13.382812 L 129.515625 13.382812 L 129.515625 11.609375 C 129.515625 11.597656 129.515625 11.585938 129.515625 11.585938 C 129.515625 11.097656 129.773438 10.457031 130.296875 10.457031 L 130.332031 10.457031 C 130.507812 10.457031 130.648438 10.558594 130.820312 10.699219 Z M 130.820312 10.699219 "/>
<path fill-rule="nonzero" fill="rgb(0%, 0%, 0%)" fill-opacity="1" d="M 134.449219 13.382812 L 134.449219 10.023438 L 133.875 10.023438 L 133.875 11.925781 C 133.875 12.554688 133.5625 12.984375 132.886719 12.984375 C 132.292969 12.984375 132.082031 12.613281 132.082031 12.039062 L 132.082031 10.023438 L 131.546875 10.023438 L 131.546875 12.050781 C 131.546875 12.84375 131.917969 13.472656 132.757812 13.472656 C 133.1875 13.472656 133.632812 13.230469 133.875 12.9375 L 133.875 13.382812 Z M 134.449219 13.382812 "/>
<path fill-rule="nonzero" fill="rgb(0%, 0%, 0%)" fill-opacity="1" d="M 138.355469 11.703125 L 138.355469 11.644531 C 138.355469 10.675781 137.957031 9.964844 136.851562 9.941406 C 135.859375 9.941406 135.300781 10.804688 135.300781 11.738281 C 135.300781 12.75 135.917969 13.472656 136.945312 13.472656 C 137.410156 13.472656 137.828125 13.371094 138.238281 13.21875 L 138.238281 12.660156 C 137.703125 12.914062 137.621094 12.972656 136.992188 12.972656 C 136.289062 12.972656 135.871094 12.554688 135.871094 11.761719 L 135.871094 11.703125 Z M 137.804688 11.246094 L 135.894531 11.246094 C 135.964844 10.804688 136.289062 10.421875 136.851562 10.421875 C 137.433594 10.421875 137.804688 10.78125 137.804688 11.246094 Z M 137.804688 11.246094 "/>
<path fill-rule="nonzero" fill="rgb(0%, 0%, 0%)" fill-opacity="1" d="M 141.308594 8.242188 L 141.859375 8.242188 L 141.859375 13.382812 L 141.308594 13.382812 Z M 141.308594 8.242188 "/>
<path fill-rule="nonzero" fill="rgb(0%, 0%, 0%)" fill-opacity="1" d="M 145.453125 13.382812 L 145.453125 11.46875 C 145.453125 10.5 145.046875 9.941406 144.042969 9.941406 C 143.683594 9.941406 143.238281 10.058594 142.914062 10.175781 L 142.914062 10.722656 C 143.25 10.535156 143.53125 10.421875 143.996094 10.421875 C 144.53125 10.433594 144.941406 10.699219 144.941406 11.257812 L 144.171875 11.257812 C 143.378906 11.257812 142.679688 11.527344 142.679688 12.402344 C 142.703125 13.078125 143.097656 13.472656 143.773438 13.472656 C 144.253906 13.472656 144.683594 13.277344 144.941406 12.9375 L 144.941406 13.382812 Z M 144.941406 11.820312 C 144.941406 12.472656 144.636719 12.996094 143.9375 12.996094 C 143.53125 12.996094 143.191406 12.808594 143.191406 12.367188 C 143.191406 11.714844 143.808594 11.714844 144.394531 11.714844 L 144.941406 11.714844 Z M 144.941406 11.820312 "/>
<path fill-rule="nonzero" fill="rgb(0%, 0%, 0%)" fill-opacity="1" d="M 149.515625 11.703125 C 149.515625 10.699219 148.910156 10.023438 147.824219 10.023438 L 146.996094 10.023438 L 146.996094 8.242188 L 146.4375 8.242188 L 146.4375 13.382812 L 147.871094 13.382812 C 148.863281 13.382812 149.515625 12.691406 149.515625 11.703125 Z M 148.980469 11.703125 C 148.980469 12.425781 148.546875 12.890625 147.824219 12.890625 L 146.996094 12.890625 L 146.996094 10.511719 L 147.824219 10.511719 C 148.558594 10.511719 148.980469 11.050781 148.980469 11.703125 Z M 148.980469 11.703125 "/>
<path fill-rule="nonzero" fill="rgb(0%, 0%, 0%)" fill-opacity="1" d="M 153.25 11.703125 L 153.25 11.644531 C 153.25 10.675781 152.851562 9.964844 151.746094 9.941406 C 150.753906 9.941406 150.195312 10.804688 150.195312 11.738281 C 150.195312 12.75 150.8125 13.472656 151.839844 13.472656 C 152.304688 13.472656 152.722656 13.371094 153.132812 13.21875 L 153.132812 12.660156 C 152.597656 12.914062 152.515625 12.972656 151.886719 12.972656 C 151.1875 12.972656 150.765625 12.554688 150.765625 11.761719 L 150.765625 11.703125 Z M 152.699219 11.246094 L 150.789062 11.246094 C 150.859375 10.804688 151.1875 10.421875 151.746094 10.421875 C 152.328125 10.421875 152.699219 10.78125 152.699219 11.246094 Z M 152.699219 11.246094 "/>
<path fill-rule="nonzero" fill="rgb(0%, 0%, 0%)" fill-opacity="1" d="M 153.976562 8.242188 L 154.523438 8.242188 L 154.523438 13.382812 L 153.976562 13.382812 Z M 153.976562 8.242188 "/>
<path fill-rule="nonzero" fill="rgb(0%, 0%, 0%)" fill-opacity="1" d="M 158.003906 12.449219 C 158.003906 11.785156 157.546875 11.574219 156.941406 11.457031 L 156.707031 11.410156 C 156.382812 11.339844 155.902344 11.269531 155.902344 10.910156 C 155.925781 10.488281 156.417969 10.410156 156.789062 10.410156 C 157.382812 10.433594 157.335938 10.46875 157.839844 10.675781 L 157.839844 10.128906 C 157.523438 10 157.128906 9.941406 156.71875 9.941406 C 156.054688 9.941406 155.402344 10.1875 155.402344 10.933594 C 155.414062 11.539062 155.824219 11.773438 156.382812 11.878906 L 156.59375 11.925781 C 157 12.015625 157.464844 12.0625 157.464844 12.496094 C 157.441406 12.914062 156.964844 12.996094 156.59375 12.996094 C 155.972656 12.984375 155.878906 12.914062 155.34375 12.660156 L 155.34375 13.265625 C 155.660156 13.347656 156.207031 13.472656 156.582031 13.472656 C 157.234375 13.472656 158.003906 13.230469 158.003906 12.449219 Z M 158.003906 12.449219 "/>
<path fill-rule="nonzero" fill="rgb(0%, 0%, 0%)" fill-opacity="1" d="M 127.988281 29.105469 L 128.164062 28.566406 C 128.082031 28.476562 127.722656 28.382812 127.476562 28.382812 C 127.125 28.394531 126.835938 28.566406 126.683594 28.882812 L 126.683594 28.429688 L 126.125 28.429688 L 126.125 31.785156 L 126.683594 31.785156 L 126.683594 30.015625 C 126.683594 30.003906 126.683594 29.992188 126.683594 29.992188 C 126.683594 29.5 126.941406 28.859375 127.464844 28.859375 L 127.5 28.859375 C 127.675781 28.859375 127.816406 28.964844 127.988281 29.105469 Z M 127.988281 29.105469 "/>
<path fill-rule="nonzero" fill="rgb(0%, 0%, 0%)" fill-opacity="1" d="M 131.257812 31.785156 L 131.257812 29.875 C 131.257812 28.90625 130.847656 28.347656 129.847656 28.347656 C 129.484375 28.347656 129.042969 28.464844 128.714844 28.578125 L 128.714844 29.128906 C 129.054688 28.941406 129.332031 28.824219 129.800781 28.824219 C 130.335938 28.835938 130.746094 29.105469 130.746094 29.664062 L 129.976562 29.664062 C 129.183594 29.664062 128.484375 29.933594 128.484375 30.804688 C 128.507812 31.484375 128.902344 31.878906 129.578125 31.878906 C 130.054688 31.878906 130.488281 31.679688 130.746094 31.34375 L 130.746094 31.785156 Z M 130.746094 30.222656 C 130.746094 30.875 130.441406 31.402344 129.742188 31.402344 C 129.332031 31.402344 128.996094 31.214844 128.996094 30.773438 C 128.996094 30.117188 129.613281 30.117188 130.195312 30.117188 L 130.746094 30.117188 Z M 130.746094 30.222656 "/>
<path fill-rule="nonzero" fill="rgb(0%, 0%, 0%)" fill-opacity="1" d="M 135.132812 31.785156 L 135.132812 29.757812 C 135.132812 28.964844 134.792969 28.347656 133.929688 28.347656 C 133.5 28.347656 133.058594 28.511719 132.789062 28.882812 L 132.789062 28.429688 L 132.242188 28.429688 L 132.242188 31.785156 L 132.789062 31.785156 L 132.789062 29.886719 C 132.8125 29.246094 133.207031 28.835938 133.804688 28.835938 C 134.386719 28.835938 134.597656 29.1875 134.597656 29.78125 L 134.597656 31.785156 Z M 135.132812 31.785156 "/>
<path fill-rule="nonzero" fill="rgb(0%, 0%, 0%)" fill-opacity="1" d="M 135.925781 30.105469 C 135.925781 31.097656 136.578125 31.785156 137.582031 31.785156 L 139.003906 31.785156 L 139.003906 26.644531 L 138.445312 26.644531 L 138.445312 28.429688 L 137.628906 28.429688 C 136.535156 28.429688 135.925781 29.105469 135.925781 30.105469 Z M 136.464844 30.105469 C 136.464844 29.453125 136.882812 28.917969 137.628906 28.917969 L 138.445312 28.917969 L 138.445312 31.296875 L 137.628906 31.296875 C 136.894531 31.296875 136.464844 30.828125 136.464844 30.105469 Z M 136.464844 30.105469 "/>
<path fill-rule="nonzero" fill="rgb(0%, 0%, 0%)" fill-opacity="1" d="M 143.015625 30.105469 C 143.015625 29.257812 142.558594 28.347656 141.441406 28.347656 C 140.425781 28.347656 139.855469 29.128906 139.855469 30.105469 C 139.855469 31.027344 140.449219 31.855469 141.441406 31.878906 C 142.445312 31.855469 143.015625 31.050781 143.015625 30.105469 Z M 142.46875 30.105469 C 142.46875 30.773438 142.058594 31.367188 141.441406 31.367188 C 140.601562 31.355469 140.414062 30.609375 140.414062 30.09375 C 140.414062 29.417969 140.742188 28.859375 141.441406 28.847656 C 142.09375 28.859375 142.46875 29.464844 142.46875 30.105469 Z M 142.46875 30.105469 "/>
<path fill-rule="nonzero" fill="rgb(0%, 0%, 0%)" fill-opacity="1" d="M 148.878906 31.785156 L 148.878906 29.757812 C 148.878906 29.035156 148.609375 28.347656 147.78125 28.347656 C 147.269531 28.347656 146.847656 28.613281 146.582031 29.023438 C 146.40625 28.625 146.03125 28.347656 145.554688 28.347656 C 145.113281 28.347656 144.679688 28.578125 144.4375 28.882812 L 144.4375 28.429688 L 143.886719 28.429688 L 143.886719 31.785156 L 144.4375 31.785156 L 144.4375 29.886719 C 144.460938 29.292969 144.820312 28.835938 145.355469 28.835938 L 145.390625 28.835938 C 145.953125 28.835938 146.113281 29.1875 146.113281 29.78125 L 146.113281 31.785156 L 146.652344 31.785156 L 146.652344 29.886719 C 146.664062 29.257812 146.976562 28.835938 147.628906 28.835938 C 148.1875 28.835938 148.351562 29.222656 148.351562 29.78125 L 148.351562 31.785156 Z M 148.878906 31.785156 "/>
<path fill-rule="nonzero" fill="rgb(0%, 0%, 0%)" fill-opacity="1" d="M 152.011719 26.644531 L 152.558594 26.644531 L 152.558594 31.785156 L 152.011719 31.785156 Z M 152.011719 26.644531 "/>
<path fill-rule="nonzero" fill="rgb(0%, 0%, 0%)" fill-opacity="1" d="M 156.15625 31.785156 L 156.15625 29.875 C 156.15625 28.90625 155.75 28.347656 154.746094 28.347656 C 154.382812 28.347656 153.941406 28.464844 153.613281 28.578125 L 153.613281 29.128906 C 153.953125 28.941406 154.234375 28.824219 154.699219 28.824219 C 155.234375 28.835938 155.644531 29.105469 155.644531 29.664062 L 154.875 29.664062 C 154.082031 29.664062 153.382812 29.933594 153.382812 30.804688 C 153.40625 31.484375 153.800781 31.878906 154.476562 31.878906 C 154.957031 31.878906 155.386719 31.679688 155.644531 31.34375 L 155.644531 31.785156 Z M 155.644531 30.222656 C 155.644531 30.875 155.339844 31.402344 154.640625 31.402344 C 154.234375 31.402344 153.894531 31.214844 153.894531 30.773438 C 153.894531 30.117188 154.511719 30.117188 155.09375 30.117188 L 155.644531 30.117188 Z M 155.644531 30.222656 "/>
<path fill-rule="nonzero" fill="rgb(0%, 0%, 0%)" fill-opacity="1" d="M 160.21875 30.105469 C 160.21875 29.105469 159.613281 28.429688 158.527344 28.429688 L 157.699219 28.429688 L 157.699219 26.644531 L 157.140625 26.644531 L 157.140625 31.785156 L 158.574219 31.785156 C 159.566406 31.785156 160.21875 31.097656 160.21875 30.105469 Z M 159.679688 30.105469 C 159.679688 30.828125 159.25 31.296875 158.527344 31.296875 L 157.699219 31.296875 L 157.699219 28.917969 L 158.527344 28.917969 C 159.261719 28.917969 159.679688 29.453125 159.679688 30.105469 Z M 159.679688 30.105469 "/>
<path fill-rule="nonzero" fill="rgb(0%, 0%, 0%)" fill-opacity="1" d="M 163.953125 30.105469 L 163.953125 30.046875 C 163.953125 29.082031 163.554688 28.371094 162.449219 28.347656 C 161.457031 28.347656 160.898438 29.210938 160.898438 30.140625 C 160.898438 31.15625 161.515625 31.878906 162.539062 31.878906 C 163.007812 31.878906 163.425781 31.773438 163.835938 31.621094 L 163.835938 31.0625 C 163.296875 31.320312 163.21875 31.378906 162.585938 31.378906 C 161.886719 31.378906 161.46875 30.957031 161.46875 30.164062 L 161.46875 30.105469 Z M 163.402344 29.652344 L 161.492188 29.652344 C 161.5625 29.210938 161.886719 28.824219 162.449219 28.824219 C 163.03125 28.824219 163.402344 29.1875 163.402344 29.652344 Z M 163.402344 29.652344 "/>
<path fill-rule="nonzero" fill="rgb(0%, 0%, 0%)" fill-opacity="1" d="M 164.675781 26.644531 L 165.226562 26.644531 L 165.226562 31.785156 L 164.675781 31.785156 Z M 164.675781 26.644531 "/>
<path fill-rule="nonzero" fill="rgb(0%, 0%, 0%)" fill-opacity="1" d="M 168.703125 30.851562 C 168.703125 30.1875 168.25 29.980469 167.644531 29.863281 L 167.410156 29.816406 C 167.085938 29.746094 166.605469 29.675781 166.605469 29.3125 C 166.628906 28.894531 167.121094 28.8125 167.492188 28.8125 C 168.085938 28.835938 168.039062 28.871094 168.542969 29.082031 L 168.542969 28.535156 C 168.226562 28.40625 167.832031 28.347656 167.421875 28.347656 C 166.757812 28.347656 166.105469 28.589844 166.105469 29.335938 C 166.117188 29.945312 166.523438 30.175781 167.085938 30.28125 L 167.292969 30.328125 C 167.703125 30.421875 168.167969 30.46875 168.167969 30.898438 C 168.144531 31.320312 167.667969 31.402344 167.292969 31.402344 C 166.675781 31.390625 166.582031 31.320312 166.046875 31.0625 L 166.046875 31.667969 C 166.363281 31.75 166.910156 31.878906 167.28125 31.878906 C 167.933594 31.878906 168.703125 31.632812 168.703125 30.851562 Z M 168.703125 30.851562 "/>
<path fill-rule="nonzero" fill="rgb(0%, 0%, 0%)" fill-opacity="1" d="M 127.722656 19.492188 L 127.898438 18.957031 C 127.816406 18.863281 127.457031 18.769531 127.210938 18.769531 C 126.859375 18.78125 126.570312 18.957031 126.417969 19.269531 L 126.417969 18.816406 L 125.859375 18.816406 L 125.859375 22.171875 L 126.417969 22.171875 L 126.417969 20.402344 C 126.417969 20.390625 126.417969 20.378906 126.417969 20.378906 C 126.417969 19.890625 126.675781 19.246094 127.199219 19.246094 L 127.234375 19.246094 C 127.410156 19.246094 127.546875 19.351562 127.722656 19.492188 Z M 127.722656 19.492188 "/>
<path fill-rule="nonzero" fill="rgb(0%, 0%, 0%)" fill-opacity="1" d="M 130.992188 22.171875 L 130.992188 20.261719 C 130.992188 19.292969 130.582031 18.734375 129.582031 18.734375 C 129.21875 18.734375 128.777344 18.851562 128.449219 18.96875 L 128.449219 19.515625 C 128.789062 19.328125 129.066406 19.210938 129.535156 19.210938 C 130.070312 19.222656 130.476562 19.492188 130.476562 20.050781 L 129.707031 20.050781 C 128.917969 20.050781 128.21875 20.320312 128.21875 21.195312 C 128.238281 21.871094 128.636719 22.265625 129.3125 22.265625 C 129.789062 22.265625 130.222656 22.070312 130.476562 21.730469 L 130.476562 22.171875 Z M 130.476562 20.613281 C 130.476562 21.265625 130.175781 21.789062 129.476562 21.789062 C 129.066406 21.789062 128.730469 21.601562 128.730469 21.160156 C 128.730469 20.507812 129.347656 20.507812 129.929688 20.507812 L 130.476562 20.507812 Z M 130.476562 20.613281 "/>
<path fill-rule="nonzero" fill="rgb(0%, 0%, 0%)" fill-opacity="1" d="M 134.867188 22.171875 L 134.867188 20.144531 C 134.867188 19.351562 134.527344 18.734375 133.664062 18.734375 C 133.234375 18.734375 132.792969 18.898438 132.523438 19.269531 L 132.523438 18.816406 L 131.976562 18.816406 L 131.976562 22.171875 L 132.523438 22.171875 L 132.523438 20.273438 C 132.546875 19.632812 132.941406 19.222656 133.539062 19.222656 C 134.121094 19.222656 134.328125 19.574219 134.328125 20.167969 L 134.328125 22.171875 Z M 134.867188 22.171875 "/>
<path fill-rule="nonzero" fill="rgb(0%, 0%, 0%)" fill-opacity="1" d="M 135.660156 20.496094 C 135.660156 21.484375 136.3125 22.171875 137.316406 22.171875 L 138.738281 22.171875 L 138.738281 17.03125 L 138.179688 17.03125 L 138.179688 18.816406 L 137.363281 18.816406 C 136.265625 18.816406 135.660156 19.492188 135.660156 20.496094 Z M 136.195312 20.496094 C 136.195312 19.84375 136.617188 19.304688 137.363281 19.304688 L 138.179688 19.304688 L 138.179688 21.683594 L 137.363281 21.683594 C 136.628906 21.683594 136.195312 21.21875 136.195312 20.496094 Z M 136.195312 20.496094 "/>
<path fill-rule="nonzero" fill="rgb(0%, 0%, 0%)" fill-opacity="1" d="M 142.75 20.496094 C 142.75 19.644531 142.292969 18.734375 141.175781 18.734375 C 140.160156 18.734375 139.589844 19.515625 139.589844 20.496094 C 139.589844 21.414062 140.183594 22.242188 141.175781 22.265625 C 142.175781 22.242188 142.75 21.4375 142.75 20.496094 Z M 142.199219 20.496094 C 142.199219 21.160156 141.792969 21.753906 141.175781 21.753906 C 140.335938 21.742188 140.148438 20.996094 140.148438 20.484375 C 140.148438 19.808594 140.476562 19.246094 141.175781 19.234375 C 141.828125 19.246094 142.199219 19.855469 142.199219 20.496094 Z M 142.199219 20.496094 "/>
<path fill-rule="nonzero" fill="rgb(0%, 0%, 0%)" fill-opacity="1" d="M 148.609375 22.171875 L 148.609375 20.144531 C 148.609375 19.421875 148.34375 18.734375 147.515625 18.734375 C 147.003906 18.734375 146.582031 19.003906 146.316406 19.410156 C 146.140625 19.015625 145.765625 18.734375 145.289062 18.734375 C 144.847656 18.734375 144.414062 18.96875 144.167969 19.269531 L 144.167969 18.816406 L 143.621094 18.816406 L 143.621094 22.171875 L 144.167969 22.171875 L 144.167969 20.273438 C 144.191406 19.679688 144.554688 19.222656 145.089844 19.222656 L 145.125 19.222656 C 145.683594 19.222656 145.847656 19.574219 145.847656 20.167969 L 145.847656 22.171875 L 146.382812 22.171875 L 146.382812 20.273438 C 146.394531 19.644531 146.710938 19.222656 147.363281 19.222656 C 147.921875 19.222656 148.085938 19.609375 148.085938 20.167969 L 148.085938 22.171875 Z M 148.609375 22.171875 "/>
<path fill-rule="nonzero" fill="rgb(0%, 0%, 0%)" fill-opacity="1" d="M 152.386719 22.171875 L 152.386719 18.816406 L 151.828125 18.816406 L 151.828125 22.171875 Z M 152.105469 17.03125 C 151.933594 17.03125 151.78125 17.195312 151.78125 17.371094 C 151.78125 17.558594 151.933594 17.71875 152.105469 17.71875 C 152.292969 17.71875 152.433594 17.558594 152.433594 17.371094 C 152.433594 17.195312 152.292969 17.03125 152.105469 17.03125 Z M 152.105469 17.03125 "/>
<path fill-rule="nonzero" fill="rgb(0%, 0%, 0%)" fill-opacity="1" d="M 156.300781 22.171875 L 156.300781 20.144531 C 156.300781 19.351562 155.964844 18.734375 155.101562 18.734375 C 154.667969 18.734375 154.226562 18.898438 153.957031 19.269531 L 153.957031 18.816406 L 153.410156 18.816406 L 153.410156 22.171875 L 153.957031 22.171875 L 153.957031 20.273438 C 153.980469 19.632812 154.378906 19.222656 154.972656 19.222656 C 155.554688 19.222656 155.765625 19.574219 155.765625 20.167969 L 155.765625 22.171875 Z M 156.300781 22.171875 "/>
<path fill-rule="nonzero" fill="rgb(0%, 0%, 0%)" fill-opacity="1" d="M 160.359375 20.496094 C 160.359375 19.515625 159.707031 18.816406 158.714844 18.816406 L 157.28125 18.816406 L 157.28125 23.96875 L 157.84375 23.96875 L 157.84375 22.171875 L 158.671875 22.171875 C 159.753906 22.171875 160.359375 21.496094 160.359375 20.496094 Z M 159.824219 20.496094 C 159.824219 21.160156 159.40625 21.683594 158.671875 21.683594 L 157.84375 21.683594 L 157.84375 19.304688 L 158.671875 19.304688 C 159.394531 19.304688 159.824219 19.785156 159.824219 20.496094 Z M 159.824219 20.496094 "/>
<path fill-rule="nonzero" fill="rgb(0%, 0%, 0%)" fill-opacity="1" d="M 164.082031 22.171875 L 164.082031 18.816406 L 163.511719 18.816406 L 163.511719 20.714844 C 163.511719 21.347656 163.195312 21.777344 162.519531 21.777344 C 161.925781 21.777344 161.714844 21.402344 161.714844 20.832031 L 161.714844 18.816406 L 161.179688 18.816406 L 161.179688 20.84375 C 161.179688 21.636719 161.554688 22.265625 162.390625 22.265625 C 162.824219 22.265625 163.265625 22.023438 163.511719 21.730469 L 163.511719 22.171875 Z M 164.082031 22.171875 "/>
<path fill-rule="nonzero" fill="rgb(0%, 0%, 0%)" fill-opacity="1" d="M 166.984375 22.171875 L 166.984375 21.695312 L 166.402344 21.695312 C 165.878906 21.695312 165.785156 21.566406 165.785156 21.078125 L 165.785156 19.257812 L 166.777344 19.257812 L 166.777344 18.816406 L 165.785156 18.816406 L 165.785156 17.859375 L 165.550781 17.859375 L 165.238281 18.816406 L 164.839844 18.816406 L 164.839844 19.257812 L 165.238281 19.257812 L 165.238281 21.078125 C 165.238281 21.917969 165.574219 22.171875 166.402344 22.171875 Z M 166.984375 22.171875 "/>
<path fill-rule="nonzero" fill="rgb(0%, 0%, 0%)" fill-opacity="1" d="M 170.132812 21.242188 C 170.132812 20.578125 169.679688 20.367188 169.074219 20.25 L 168.839844 20.203125 C 168.511719 20.132812 168.035156 20.0625 168.035156 19.703125 C 168.058594 19.28125 168.546875 19.199219 168.921875 19.199219 C 169.515625 19.222656 169.46875 19.257812 169.96875 19.46875 L 169.96875 18.921875 C 169.65625 18.792969 169.257812 18.734375 168.851562 18.734375 C 168.1875 18.734375 167.535156 18.980469 167.535156 19.726562 C 167.546875 20.332031 167.953125 20.566406 168.511719 20.667969 L 168.722656 20.714844 C 169.128906 20.808594 169.597656 20.855469 169.597656 21.289062 C 169.574219 21.707031 169.097656 21.789062 168.722656 21.789062 C 168.105469 21.777344 168.011719 21.707031 167.476562 21.449219 L 167.476562 22.058594 C 167.789062 22.136719 168.339844 22.265625 168.710938 22.265625 C 169.363281 22.265625 170.132812 22.023438 170.132812 21.242188 Z M 170.132812 21.242188 "/>
</svg>
