<?xml version="1.0" encoding="UTF-8"?>
<svg xmlns="http://www.w3.org/2000/svg" xmlns:xlink="http://www.w3.org/1999/xlink" width="189.721252pt" height="182.357361pt" viewBox="0 0 189.721252 182.357361">
<defs>
<clipPath id="clip-0">
<path clip-rule="nonzero" d="M 2 0 L 189.722656 0 L 189.722656 181 L 2 181 Z M 2 0 "/>
</clipPath>
<clipPath id="clip-1">
<path clip-rule="nonzero" d="M 14 55 L 189.722656 55 L 189.722656 94 L 14 94 Z M 14 55 "/>
</clipPath>
<clipPath id="clip-2">
<path clip-rule="nonzero" d="M 15 71 L 189.722656 71 L 189.722656 157 L 15 157 Z M 15 71 "/>
</clipPath>
<clipPath id="clip-3">
<path clip-rule="nonzero" d="M 15 0 L 189.722656 0 L 189.722656 173 L 15 173 Z M 15 0 "/>
</clipPath>
<clipPath id="clip-4">
<path clip-rule="nonzero" d="M 96 174 L 101 174 L 101 182.355469 L 96 182.355469 Z M 96 174 "/>
</clipPath>
<clipPath id="clip-5">
<path clip-rule="nonzero" d="M 186 165 L 189.722656 165 L 189.722656 171 L 186 171 Z M 186 165 "/>
</clipPath>
</defs>
<path fill-rule="nonzero" fill="rgb(50.195312%, 50.195312%, 50.195312%)" fill-opacity="1" d="M 16.144531 161.285156 C 16.144531 160.664062 16.105469 159.921875 15.773438 159.289062 C 15.449219 158.695312 14.90625 158.496094 14.507812 158.496094 C 14.039062 158.496094 13.480469 158.71875 13.15625 159.414062 C 12.898438 159.996094 12.859375 160.652344 12.859375 161.285156 C 12.859375 161.902344 12.886719 162.484375 13.121094 163.066406 C 13.441406 163.824219 14.039062 164.03125 14.496094 164.03125 C 15.066406 164.03125 15.574219 163.710938 15.820312 163.167969 C 16.054688 162.644531 16.144531 162.125 16.144531 161.285156 Z M 14.507812 163.550781 C 14.085938 163.550781 13.765625 163.253906 13.605469 162.683594 C 13.480469 162.238281 13.480469 161.804688 13.480469 161.183594 C 13.480469 160.6875 13.480469 160.21875 13.605469 159.785156 C 13.652344 159.636719 13.851562 158.980469 14.496094 158.980469 C 15.113281 158.980469 15.3125 159.585938 15.375 159.722656 C 15.523438 160.167969 15.523438 160.703125 15.523438 161.183594 C 15.523438 161.703125 15.523438 162.210938 15.375 162.707031 C 15.175781 163.425781 14.757812 163.550781 14.507812 163.550781 Z M 14.507812 163.550781 "/>
<path fill-rule="nonzero" fill="rgb(50.195312%, 50.195312%, 50.195312%)" fill-opacity="1" d="M 17.242188 163.203125 L 17.898438 163.203125 L 17.898438 163.859375 L 17.242188 163.859375 Z M 17.242188 163.203125 "/>
<path fill-rule="nonzero" fill="rgb(50.195312%, 50.195312%, 50.195312%)" fill-opacity="1" d="M 22.285156 161.285156 C 22.285156 160.664062 22.25 159.921875 21.914062 159.289062 C 21.59375 158.695312 21.046875 158.496094 20.652344 158.496094 C 20.179688 158.496094 19.621094 158.71875 19.300781 159.414062 C 19.039062 159.996094 19.003906 160.652344 19.003906 161.285156 C 19.003906 161.902344 19.027344 162.484375 19.265625 163.066406 C 19.585938 163.824219 20.179688 164.03125 20.636719 164.03125 C 21.207031 164.03125 21.714844 163.710938 21.964844 163.167969 C 22.199219 162.644531 22.285156 162.125 22.285156 161.285156 Z M 20.652344 163.550781 C 20.230469 163.550781 19.90625 163.253906 19.746094 162.683594 C 19.621094 162.238281 19.621094 161.804688 19.621094 161.183594 C 19.621094 160.6875 19.621094 160.21875 19.746094 159.785156 C 19.796875 159.636719 19.996094 158.980469 20.636719 158.980469 C 21.257812 158.980469 21.457031 159.585938 21.519531 159.722656 C 21.667969 160.167969 21.667969 160.703125 21.667969 161.183594 C 21.667969 161.703125 21.667969 162.210938 21.519531 162.707031 C 21.320312 163.425781 20.898438 163.550781 20.652344 163.550781 Z M 20.652344 163.550781 "/>
<path fill-rule="nonzero" fill="rgb(50.195312%, 50.195312%, 50.195312%)" fill-opacity="1" d="M 13.902344 4.648438 L 12.921875 5.625 L 12.921875 6.132812 L 16.070312 6.132812 L 16.070312 5.578125 L 14.632812 5.578125 C 14.546875 5.578125 14.445312 5.578125 14.347656 5.578125 L 13.492188 5.578125 C 13.742188 5.355469 14.347656 4.773438 14.59375 4.535156 C 14.742188 4.398438 15.140625 4.066406 15.289062 3.917969 C 15.648438 3.570312 16.070312 3.148438 16.070312 2.480469 C 16.070312 1.5625 15.4375 0.769531 14.398438 0.769531 C 13.492188 0.769531 13.046875 1.390625 12.859375 2.070312 C 12.949219 2.207031 12.996094 2.257812 13.007812 2.28125 C 13.023438 2.292969 13.109375 2.394531 13.183594 2.503906 C 13.34375 1.898438 13.566406 1.277344 14.285156 1.277344 C 15.027344 1.277344 15.425781 1.875 15.425781 2.492188 C 15.425781 3.160156 14.980469 3.605469 14.507812 4.089844 Z M 13.902344 4.648438 "/>
<path fill-rule="nonzero" fill="rgb(50.195312%, 50.195312%, 50.195312%)" fill-opacity="1" d="M 17.242188 5.476562 L 17.898438 5.476562 L 17.898438 6.132812 L 17.242188 6.132812 Z M 17.242188 5.476562 "/>
<path fill-rule="nonzero" fill="rgb(50.195312%, 50.195312%, 50.195312%)" fill-opacity="1" d="M 22.285156 3.558594 C 22.285156 2.9375 22.25 2.195312 21.914062 1.5625 C 21.59375 0.96875 21.046875 0.769531 20.652344 0.769531 C 20.179688 0.769531 19.621094 0.992188 19.300781 1.6875 C 19.039062 2.269531 19.003906 2.925781 19.003906 3.558594 C 19.003906 4.175781 19.027344 4.757812 19.265625 5.339844 C 19.585938 6.097656 20.179688 6.308594 20.636719 6.308594 C 21.207031 6.308594 21.714844 5.984375 21.964844 5.441406 C 22.199219 4.921875 22.285156 4.398438 22.285156 3.558594 Z M 20.652344 5.824219 C 20.230469 5.824219 19.90625 5.527344 19.746094 4.957031 C 19.621094 4.511719 19.621094 4.078125 19.621094 3.457031 C 19.621094 2.964844 19.621094 2.492188 19.746094 2.058594 C 19.796875 1.910156 19.996094 1.253906 20.636719 1.253906 C 21.257812 1.253906 21.457031 1.859375 21.519531 1.996094 C 21.667969 2.441406 21.667969 2.976562 21.667969 3.457031 C 21.667969 3.980469 21.667969 4.488281 21.519531 4.980469 C 21.320312 5.699219 20.898438 5.824219 20.652344 5.824219 Z M 20.652344 5.824219 "/>
<path fill="none" stroke-width="0.850394" stroke-linecap="butt" stroke-linejoin="miter" stroke="rgb(50.195312%, 50.195312%, 50.195312%)" stroke-opacity="1" stroke-miterlimit="4" d="M 25.914062 162.027344 L 25.914062 164.554688 "/>
<path fill="none" stroke-width="0.850394" stroke-linecap="butt" stroke-linejoin="miter" stroke="rgb(50.195312%, 50.195312%, 50.195312%)" stroke-opacity="1" stroke-miterlimit="4" d="M 105.355469 162.027344 L 105.355469 164.554688 "/>
<path fill="none" stroke-width="0.850394" stroke-linecap="butt" stroke-linejoin="miter" stroke="rgb(50.195312%, 50.195312%, 50.195312%)" stroke-opacity="1" stroke-miterlimit="4" d="M 184.796875 162.027344 L 184.796875 164.554688 "/>
<path fill="none" stroke-width="0.850394" stroke-linecap="butt" stroke-linejoin="miter" stroke="rgb(50.195312%, 50.195312%, 50.195312%)" stroke-opacity="1" stroke-miterlimit="4" d="M 41.804688 163.75 L 41.804688 162.027344 "/>
<path fill="none" stroke-width="0.850394" stroke-linecap="butt" stroke-linejoin="miter" stroke="rgb(50.195312%, 50.195312%, 50.195312%)" stroke-opacity="1" stroke-miterlimit="4" d="M 57.691406 163.75 L 57.691406 162.027344 "/>
<path fill="none" stroke-width="0.850394" stroke-linecap="butt" stroke-linejoin="miter" stroke="rgb(50.195312%, 50.195312%, 50.195312%)" stroke-opacity="1" stroke-miterlimit="4" d="M 73.578125 163.75 L 73.578125 162.027344 "/>
<path fill="none" stroke-width="0.850394" stroke-linecap="butt" stroke-linejoin="miter" stroke="rgb(50.195312%, 50.195312%, 50.195312%)" stroke-opacity="1" stroke-miterlimit="4" d="M 89.46875 163.75 L 89.46875 162.027344 "/>
<path fill="none" stroke-width="0.850394" stroke-linecap="butt" stroke-linejoin="miter" stroke="rgb(50.195312%, 50.195312%, 50.195312%)" stroke-opacity="1" stroke-miterlimit="4" d="M 121.242188 163.75 L 121.242188 162.027344 "/>
<path fill="none" stroke-width="0.850394" stroke-linecap="butt" stroke-linejoin="miter" stroke="rgb(50.195312%, 50.195312%, 50.195312%)" stroke-opacity="1" stroke-miterlimit="4" d="M 137.132812 163.75 L 137.132812 162.027344 "/>
<path fill="none" stroke-width="0.850394" stroke-linecap="butt" stroke-linejoin="miter" stroke="rgb(50.195312%, 50.195312%, 50.195312%)" stroke-opacity="1" stroke-miterlimit="4" d="M 153.019531 163.75 L 153.019531 162.027344 "/>
<path fill="none" stroke-width="0.850394" stroke-linecap="butt" stroke-linejoin="miter" stroke="rgb(50.195312%, 50.195312%, 50.195312%)" stroke-opacity="1" stroke-miterlimit="4" d="M 168.90625 163.75 L 168.90625 162.027344 "/>
<path fill="none" stroke-width="0.850394" stroke-linecap="butt" stroke-linejoin="miter" stroke="rgb(50.195312%, 50.195312%, 50.195312%)" stroke-opacity="1" stroke-miterlimit="4" d="M 26.035156 3.144531 L 23.503906 3.144531 "/>
<path fill="none" stroke-width="0.850394" stroke-linecap="butt" stroke-linejoin="miter" stroke="rgb(50.195312%, 50.195312%, 50.195312%)" stroke-opacity="1" stroke-miterlimit="4" d="M 26.035156 82.585938 L 23.503906 82.585938 "/>
<path fill="none" stroke-width="0.850394" stroke-linecap="butt" stroke-linejoin="miter" stroke="rgb(50.195312%, 50.195312%, 50.195312%)" stroke-opacity="1" stroke-miterlimit="4" d="M 25.917969 162.027344 L 23.386719 162.027344 "/>
<path fill="none" stroke-width="0.850394" stroke-linecap="butt" stroke-linejoin="miter" stroke="rgb(50.195312%, 50.195312%, 50.195312%)" stroke-opacity="1" stroke-miterlimit="4" d="M 26.035156 19.03125 L 24.308594 19.03125 "/>
<path fill="none" stroke-width="0.850394" stroke-linecap="butt" stroke-linejoin="miter" stroke="rgb(50.195312%, 50.195312%, 50.195312%)" stroke-opacity="1" stroke-miterlimit="4" d="M 26.035156 34.921875 L 24.308594 34.921875 "/>
<path fill="none" stroke-width="0.850394" stroke-linecap="butt" stroke-linejoin="miter" stroke="rgb(50.195312%, 50.195312%, 50.195312%)" stroke-opacity="1" stroke-miterlimit="4" d="M 26.035156 50.808594 L 24.308594 50.808594 "/>
<path fill="none" stroke-width="0.850394" stroke-linecap="butt" stroke-linejoin="miter" stroke="rgb(50.195312%, 50.195312%, 50.195312%)" stroke-opacity="1" stroke-miterlimit="4" d="M 26.035156 66.695312 L 24.308594 66.695312 "/>
<path fill="none" stroke-width="0.850394" stroke-linecap="butt" stroke-linejoin="miter" stroke="rgb(50.195312%, 50.195312%, 50.195312%)" stroke-opacity="1" stroke-miterlimit="4" d="M 26.035156 98.472656 L 24.308594 98.472656 "/>
<path fill="none" stroke-width="0.850394" stroke-linecap="butt" stroke-linejoin="miter" stroke="rgb(50.195312%, 50.195312%, 50.195312%)" stroke-opacity="1" stroke-miterlimit="4" d="M 26.035156 114.359375 L 24.308594 114.359375 "/>
<path fill="none" stroke-width="0.850394" stroke-linecap="butt" stroke-linejoin="miter" stroke="rgb(50.195312%, 50.195312%, 50.195312%)" stroke-opacity="1" stroke-miterlimit="4" d="M 26.035156 130.25 L 24.308594 130.25 "/>
<path fill="none" stroke-width="0.850394" stroke-linecap="butt" stroke-linejoin="miter" stroke="rgb(50.195312%, 50.195312%, 50.195312%)" stroke-opacity="1" stroke-miterlimit="4" d="M 26.035156 146.136719 L 24.308594 146.136719 "/>
<g clip-path="url(#clip-0)">
<path fill="none" stroke-width="0.506769" stroke-linecap="butt" stroke-linejoin="miter" stroke="rgb(100%, 100%, 100%)" stroke-opacity="1" stroke-miterlimit="4" d="M 3.039062 0.253906 L 189.175781 0.253906 L 189.175781 180.515625 L 3.039062 180.515625 Z M 3.039062 0.253906 "/>
</g>
<g clip-path="url(#clip-1)">
<path fill="none" stroke-width="1.984252" stroke-linecap="butt" stroke-linejoin="miter" stroke="rgb(62.744141%, 85.096741%, 82.743835%)" stroke-opacity="1" stroke-miterlimit="4" d="M 184.507812 82.25 L 26.035156 66.695312 "/>
</g>
<g clip-path="url(#clip-2)">
<path fill="none" stroke-width="1.984252" stroke-linecap="butt" stroke-linejoin="miter" stroke="rgb(25.881958%, 29.411316%, 30.979919%)" stroke-opacity="1" stroke-miterlimit="4" d="M 26.324219 82.433594 L 184.796875 145.609375 "/>
</g>
<path fill-rule="nonzero" fill="rgb(81.959534%, 51.371765%, 38.430786%)" fill-opacity="1" d="M 26.324219 161.492188 L 184.796875 3.492188 "/>
<g clip-path="url(#clip-3)">
<path fill="none" stroke-width="1.984252" stroke-linecap="butt" stroke-linejoin="miter" stroke="rgb(81.959534%, 51.371765%, 38.430786%)" stroke-opacity="1" stroke-miterlimit="4" d="M 26.324219 161.492188 L 184.796875 3.492188 "/>
</g>
<path fill-rule="nonzero" fill="rgb(66.273499%, 33.332825%, 19.607544%)" fill-opacity="1" d="M 121.457031 51.886719 C 121.4375 51.863281 121.382812 51.765625 121.382812 51.765625 C 121.371094 51.753906 121.304688 51.6875 121.21875 51.777344 C 121.152344 51.839844 121.164062 51.875 121.25 52.027344 L 122.449219 54.03125 C 121.394531 55.175781 121.285156 57.117188 122.230469 58.066406 C 122.898438 58.730469 123.933594 58.785156 124.835938 57.988281 C 124.988281 58.25 125.164062 58.535156 125.328125 58.804688 C 125.566406 59.21875 125.761719 59.546875 125.785156 59.570312 C 125.851562 59.632812 125.914062 59.589844 125.949219 59.558594 C 125.980469 59.523438 125.980469 59.503906 125.980469 59.460938 C 125.980469 59.4375 125.859375 59.230469 125.785156 59.109375 L 125.011719 57.8125 C 126.089844 56.648438 126.167969 54.695312 125.238281 53.769531 C 124.683594 53.214844 123.679688 52.953125 122.636719 53.847656 Z M 124.714844 57.804688 C 124.28125 58.195312 123.527344 58.445312 122.84375 57.757812 C 122.003906 56.921875 121.632812 55.351562 122.570312 54.21875 Z M 122.746094 54.042969 C 123.3125 53.542969 124.019531 53.464844 124.628906 54.074219 C 125.457031 54.902344 125.851562 56.496094 124.902344 57.617188 Z M 122.746094 54.042969 "/>
<path fill-rule="nonzero" fill="rgb(66.273499%, 33.332825%, 19.607544%)" fill-opacity="1" d="M 129.210938 52.425781 C 128.679688 51.894531 128.222656 51.566406 127.664062 51.445312 C 127.292969 51.378906 126.792969 51.488281 126.410156 51.871094 C 125.277344 53.003906 126.609375 54.335938 126.957031 54.683594 C 127.304688 55.03125 128.601562 56.328125 129.734375 55.195312 C 130.859375 54.074219 129.5625 52.777344 129.210938 52.425781 Z M 129.59375 55.054688 C 129.367188 55.28125 128.941406 55.445312 128.449219 55.152344 C 128.101562 54.933594 127.699219 54.53125 127.339844 54.171875 C 126.976562 53.8125 126.609375 53.441406 126.410156 53.113281 C 126.140625 52.625 126.335938 52.210938 126.542969 52 C 126.804688 51.742188 127.21875 51.652344 127.589844 51.847656 C 127.925781 52.035156 128.285156 52.371094 128.710938 52.796875 C 129.070312 53.15625 129.429688 53.515625 129.671875 53.886719 C 130.019531 54.433594 129.789062 54.855469 129.59375 55.054688 Z M 129.59375 55.054688 "/>
<path fill-rule="nonzero" fill="rgb(66.273499%, 33.332825%, 19.607544%)" fill-opacity="1" d="M 133.597656 44.496094 C 133.707031 44.390625 133.835938 44.257812 133.707031 44.128906 C 133.566406 43.984375 133.433594 44.117188 133.335938 44.214844 L 129.171875 48.378906 C 129.074219 48.476562 128.945312 48.605469 129.085938 48.75 C 129.214844 48.878906 129.347656 48.75 129.445312 48.648438 Z M 134.960938 45.839844 C 135.058594 45.738281 135.1875 45.609375 135.046875 45.46875 C 134.914062 45.335938 134.785156 45.46875 134.675781 45.578125 L 130.523438 49.730469 C 130.425781 49.828125 130.296875 49.957031 130.425781 50.089844 C 130.566406 50.230469 130.699219 50.101562 130.796875 50 Z M 134.960938 45.839844 "/>
<path fill-rule="nonzero" fill="rgb(66.273499%, 33.332825%, 19.607544%)" fill-opacity="1" d="M 138.246094 39.957031 C 137.691406 39.402344 137.101562 38.878906 136.351562 38.605469 C 135.359375 38.246094 134.671875 38.714844 134.390625 38.996094 C 133.964844 39.421875 133.648438 40.109375 133.996094 41.046875 C 134.257812 41.742188 134.769531 42.320312 135.328125 42.878906 C 135.851562 43.398438 136.492188 44 137.320312 44.238281 C 138.171875 44.5 138.824219 44.128906 139.164062 43.792969 C 139.535156 43.421875 139.925781 42.746094 139.566406 41.777344 C 139.304688 41.078125 138.792969 40.5 138.246094 39.957031 Z M 139.011719 43.640625 C 138.738281 43.914062 138.148438 44.152344 137.363281 43.605469 C 136.875 43.269531 136.230469 42.625 135.816406 42.210938 C 135.371094 41.765625 134.914062 41.308594 134.597656 40.882812 C 133.898438 39.921875 134.355469 39.335938 134.53125 39.160156 C 134.761719 38.933594 135.347656 38.605469 136.167969 39.160156 C 136.632812 39.476562 137.15625 40 137.59375 40.4375 C 138.117188 40.957031 138.585938 41.425781 138.957031 41.949219 C 139.511719 42.722656 139.328125 43.324219 139.011719 43.640625 Z M 139.011719 43.640625 "/>
<path fill-rule="nonzero" fill="rgb(66.273499%, 33.332825%, 19.607544%)" fill-opacity="1" d="M 141.710938 40.199219 C 141.515625 40 141.179688 39.992188 140.980469 40.1875 C 140.773438 40.394531 140.785156 40.730469 140.980469 40.929688 C 141.1875 41.136719 141.515625 41.136719 141.722656 40.929688 C 141.917969 40.730469 141.917969 40.40625 141.710938 40.199219 Z M 141.710938 40.199219 "/>
<path fill-rule="nonzero" fill="rgb(66.273499%, 33.332825%, 19.607544%)" fill-opacity="1" d="M 143.652344 34.550781 C 143.097656 33.996094 142.507812 33.472656 141.757812 33.199219 C 140.765625 32.839844 140.078125 33.308594 139.792969 33.59375 C 139.371094 34.015625 139.054688 34.703125 139.402344 35.640625 C 139.664062 36.339844 140.175781 36.917969 140.730469 37.472656 C 141.253906 37.996094 141.898438 38.59375 142.726562 38.835938 C 143.578125 39.097656 144.230469 38.726562 144.570312 38.386719 C 144.9375 38.015625 145.332031 37.339844 144.972656 36.371094 C 144.710938 35.671875 144.199219 35.097656 143.652344 34.550781 Z M 144.414062 38.234375 C 144.144531 38.507812 143.554688 38.746094 142.769531 38.203125 C 142.28125 37.863281 141.636719 37.222656 141.222656 36.808594 C 140.777344 36.359375 140.316406 35.902344 140 35.476562 C 139.304688 34.519531 139.761719 33.929688 139.9375 33.753906 C 140.164062 33.527344 140.753906 33.199219 141.570312 33.753906 C 142.039062 34.070312 142.5625 34.59375 143 35.03125 C 143.523438 35.554688 143.992188 36.023438 144.359375 36.546875 C 144.917969 37.320312 144.730469 37.917969 144.414062 38.234375 Z M 144.414062 38.234375 "/>
<path fill-rule="nonzero" fill="rgb(66.273499%, 33.332825%, 19.607544%)" fill-opacity="1" d="M 147.5625 35.066406 C 147.105469 34.609375 146.660156 34.511719 146.386719 34.78125 C 146.15625 35.011719 146.191406 35.328125 146.386719 35.523438 C 146.570312 35.707031 146.898438 35.753906 147.128906 35.523438 C 147.203125 35.445312 147.269531 35.316406 147.28125 35.195312 C 147.28125 35.152344 147.289062 35.140625 147.289062 35.140625 C 147.300781 35.132812 147.300781 35.132812 147.398438 35.230469 C 147.921875 35.753906 148.097656 36.40625 148.097656 36.863281 C 148.097656 37.015625 148.109375 37.027344 148.128906 37.050781 C 148.183594 37.105469 148.238281 37.09375 148.273438 37.058594 C 148.347656 36.984375 148.378906 35.882812 147.5625 35.066406 Z M 147.5625 35.066406 "/>
<path fill-rule="nonzero" fill="rgb(66.273499%, 33.332825%, 19.607544%)" fill-opacity="1" d="M 147.636719 25.707031 C 147.613281 25.6875 147.558594 25.589844 147.558594 25.589844 C 147.546875 25.578125 147.484375 25.511719 147.394531 25.597656 C 147.328125 25.664062 147.339844 25.695312 147.429688 25.851562 L 148.625 27.855469 C 147.570312 29 147.460938 30.941406 148.410156 31.886719 C 149.074219 32.550781 150.109375 32.605469 151.015625 31.8125 C 151.167969 32.074219 151.339844 32.355469 151.503906 32.628906 C 151.742188 33.042969 151.941406 33.371094 151.960938 33.390625 C 152.027344 33.457031 152.09375 33.414062 152.125 33.378906 C 152.15625 33.347656 152.15625 33.328125 152.15625 33.28125 C 152.15625 33.261719 152.039062 33.054688 151.960938 32.933594 L 151.1875 31.636719 C 152.265625 30.472656 152.34375 28.519531 151.417969 27.59375 C 150.859375 27.039062 149.859375 26.777344 148.8125 27.667969 Z M 150.894531 31.625 C 150.457031 32.019531 149.707031 32.269531 149.019531 31.582031 C 148.179688 30.742188 147.808594 29.175781 148.746094 28.039062 Z M 148.921875 27.867188 C 149.488281 27.363281 150.195312 27.289062 150.804688 27.898438 C 151.636719 28.726562 152.027344 30.316406 151.078125 31.441406 Z M 148.921875 27.867188 "/>
<path fill-rule="nonzero" fill="rgb(66.273499%, 33.332825%, 19.607544%)" fill-opacity="1" d="M 152.957031 25.585938 C 152.828125 25.457031 152.828125 25.457031 152.683594 25.597656 C 152.671875 26.21875 152.238281 26.65625 152.042969 26.851562 L 152.214844 27.027344 C 152.324219 26.917969 152.652344 26.589844 152.78125 26.199219 L 155.257812 28.671875 C 155.421875 28.835938 155.484375 28.902344 155.007812 29.378906 L 154.820312 29.566406 L 154.996094 29.738281 C 155.082031 29.652344 155.660156 29.03125 155.835938 28.855469 C 155.988281 28.703125 156.617188 28.117188 156.726562 28.007812 L 156.554688 27.832031 L 156.367188 28.019531 C 155.878906 28.507812 155.8125 28.441406 155.648438 28.28125 Z M 152.957031 25.585938 "/>
<path fill-rule="nonzero" fill="rgb(66.273499%, 33.332825%, 19.607544%)" fill-opacity="1" d="M 159.773438 18.324219 C 159.882812 18.214844 160.011719 18.082031 159.882812 17.953125 C 159.738281 17.8125 159.609375 17.941406 159.511719 18.039062 L 155.347656 22.203125 C 155.25 22.300781 155.117188 22.433594 155.261719 22.574219 C 155.390625 22.703125 155.523438 22.574219 155.621094 22.476562 Z M 161.132812 19.664062 C 161.230469 19.566406 161.363281 19.433594 161.222656 19.292969 C 161.089844 19.164062 160.960938 19.292969 160.851562 19.402344 L 156.699219 23.554688 C 156.601562 23.652344 156.46875 23.785156 156.601562 23.914062 C 156.742188 24.054688 156.871094 23.925781 156.972656 23.828125 Z M 161.132812 19.664062 "/>
<path fill-rule="nonzero" fill="rgb(66.273499%, 33.332825%, 19.607544%)" fill-opacity="1" d="M 161.054688 12.703125 C 160.878906 12.527344 160.871094 12.515625 160.707031 12.679688 C 160.71875 13.5625 160.105469 14.175781 159.886719 14.390625 L 160.105469 14.609375 C 160.25 14.46875 160.652344 14.066406 160.824219 13.519531 L 164.433594 17.128906 C 164.683594 17.378906 164.738281 17.476562 164.117188 18.097656 L 163.898438 18.316406 L 164.117188 18.535156 C 164.335938 18.273438 164.933594 17.671875 165.21875 17.390625 C 165.492188 17.117188 166.101562 16.507812 166.363281 16.289062 L 166.144531 16.070312 L 165.925781 16.289062 C 165.292969 16.921875 165.207031 16.855469 164.957031 16.605469 Z M 161.054688 12.703125 "/>
<path fill-rule="nonzero" fill="rgb(66.273499%, 33.332825%, 19.607544%)" fill-opacity="1" d="M 167.886719 14.023438 C 167.691406 13.828125 167.351562 13.816406 167.15625 14.011719 C 166.949219 14.21875 166.960938 14.558594 167.15625 14.753906 C 167.363281 14.960938 167.691406 14.960938 167.898438 14.753906 C 168.09375 14.558594 168.09375 14.230469 167.886719 14.023438 Z M 167.886719 14.023438 "/>
<path fill-rule="nonzero" fill="rgb(66.273499%, 33.332825%, 19.607544%)" fill-opacity="1" d="M 169.828125 8.375 C 169.273438 7.820312 168.683594 7.296875 167.929688 7.023438 C 166.941406 6.664062 166.253906 7.132812 165.96875 7.417969 C 165.542969 7.84375 165.226562 8.527344 165.578125 9.464844 C 165.839844 10.164062 166.351562 10.742188 166.90625 11.296875 C 167.429688 11.820312 168.074219 12.417969 168.902344 12.660156 C 169.75 12.921875 170.40625 12.550781 170.742188 12.210938 C 171.113281 11.84375 171.507812 11.167969 171.144531 10.195312 C 170.882812 9.5 170.371094 8.921875 169.828125 8.375 Z M 170.589844 12.058594 C 170.316406 12.332031 169.730469 12.574219 168.945312 12.027344 C 168.453125 11.691406 167.8125 11.046875 167.398438 10.632812 C 166.949219 10.1875 166.492188 9.726562 166.175781 9.304688 C 165.480469 8.34375 165.9375 7.753906 166.109375 7.582031 C 166.339844 7.351562 166.929688 7.023438 167.746094 7.582031 C 168.214844 7.898438 168.738281 8.421875 169.171875 8.855469 C 169.695312 9.378906 170.164062 9.847656 170.535156 10.371094 C 171.09375 11.144531 170.90625 11.742188 170.589844 12.058594 Z M 170.589844 12.058594 "/>
<path fill-rule="nonzero" fill="rgb(25.881958%, 29.411316%, 30.979919%)" fill-opacity="1" d="M 104.71875 102.683594 C 104.730469 102.652344 104.796875 102.5625 104.796875 102.5625 C 104.804688 102.550781 104.835938 102.464844 104.722656 102.417969 C 104.636719 102.386719 104.609375 102.40625 104.507812 102.550781 L 103.148438 104.449219 C 101.675781 103.9375 99.855469 104.617188 99.367188 105.863281 C 99.023438 106.738281 99.386719 107.710938 100.476562 108.222656 C 100.300781 108.464844 100.109375 108.738281 99.925781 108.996094 C 99.640625 109.382812 99.421875 109.695312 99.410156 109.722656 C 99.375 109.808594 99.441406 109.851562 99.484375 109.867188 C 99.527344 109.882812 99.546875 109.875 99.585938 109.859375 C 99.609375 109.847656 99.75 109.65625 99.828125 109.539062 L 100.707031 108.3125 C 102.207031 108.832031 104.027344 108.121094 104.503906 106.902344 C 104.792969 106.171875 104.628906 105.148438 103.390625 104.546875 Z M 100.601562 108.035156 C 100.066406 107.792969 99.535156 107.207031 99.890625 106.300781 C 100.324219 105.195312 101.613281 104.230469 103.027344 104.632812 Z M 103.257812 104.722656 C 103.941406 105.042969 104.296875 105.660156 103.980469 106.464844 C 103.554688 107.554688 102.25 108.550781 100.84375 108.132812 Z M 103.257812 104.722656 "/>
<path fill-rule="nonzero" fill="rgb(25.881958%, 29.411316%, 30.979919%)" fill-opacity="1" d="M 107.324219 110.003906 C 107.601562 109.300781 107.71875 108.753906 107.605469 108.195312 C 107.515625 107.828125 107.214844 107.414062 106.714844 107.214844 C 105.222656 106.632812 104.535156 108.382812 104.355469 108.839844 C 104.175781 109.300781 103.507812 111.007812 105 111.59375 C 106.476562 112.171875 107.144531 110.464844 107.324219 110.003906 Z M 105.070312 111.40625 C 104.769531 111.289062 104.449219 110.964844 104.523438 110.398438 C 104.582031 109.988281 104.792969 109.457031 104.976562 108.984375 C 105.164062 108.511719 105.355469 108.023438 105.574219 107.714844 C 105.917969 107.265625 106.375 107.28125 106.648438 107.386719 C 106.992188 107.523438 107.238281 107.867188 107.207031 108.285156 C 107.171875 108.667969 107.003906 109.132812 106.785156 109.695312 C 106.601562 110.167969 106.414062 110.640625 106.171875 111.007812 C 105.8125 111.546875 105.328125 111.507812 105.070312 111.40625 Z M 105.070312 111.40625 "/>
<path fill-rule="nonzero" fill="rgb(25.881958%, 29.411316%, 30.979919%)" fill-opacity="1" d="M 116.347656 110.851562 C 116.492188 110.90625 116.664062 110.972656 116.730469 110.800781 C 116.804688 110.617188 116.632812 110.546875 116.503906 110.496094 L 111.019531 108.347656 C 110.890625 108.296875 110.71875 108.230469 110.644531 108.417969 C 110.578125 108.589844 110.75 108.65625 110.878906 108.707031 Z M 115.664062 112.636719 C 115.792969 112.6875 115.964844 112.753906 116.039062 112.566406 C 116.105469 112.394531 115.933594 112.328125 115.789062 112.269531 L 110.324219 110.128906 C 110.195312 110.078125 110.023438 110.007812 109.953125 110.179688 C 109.882812 110.367188 110.054688 110.433594 110.183594 110.484375 Z M 115.664062 112.636719 "/>
<path fill-rule="nonzero" fill="rgb(25.881958%, 29.411316%, 30.979919%)" fill-opacity="1" d="M 122.011719 109.777344 C 122.101562 109.546875 122.105469 109.53125 121.890625 109.449219 C 121.085938 109.8125 120.285156 109.496094 119.996094 109.382812 L 119.882812 109.671875 C 120.070312 109.746094 120.601562 109.953125 121.171875 109.894531 L 119.308594 114.644531 C 119.179688 114.972656 119.109375 115.0625 118.292969 114.742188 L 118.003906 114.628906 L 117.894531 114.917969 C 118.21875 115.011719 119.007812 115.320312 119.382812 115.46875 C 119.742188 115.609375 120.542969 115.921875 120.847656 116.074219 L 120.960938 115.789062 L 120.675781 115.675781 C 119.84375 115.351562 119.867188 115.242188 119.996094 114.914062 Z M 122.011719 109.777344 "/>
<path fill-rule="nonzero" fill="rgb(25.881958%, 29.411316%, 30.979919%)" fill-opacity="1" d="M 123.535156 116.566406 C 123.636719 116.308594 123.511719 115.992188 123.253906 115.890625 C 122.980469 115.785156 122.675781 115.929688 122.574219 116.1875 C 122.46875 116.460938 122.597656 116.761719 122.871094 116.867188 C 123.128906 116.96875 123.429688 116.839844 123.535156 116.566406 Z M 123.535156 116.566406 "/>
<path fill-rule="nonzero" fill="rgb(25.881958%, 29.411316%, 30.979919%)" fill-opacity="1" d="M 129.488281 116.085938 C 129.773438 115.351562 130.015625 114.605469 129.964844 113.804688 C 129.898438 112.753906 129.195312 112.3125 128.820312 112.164062 C 128.261719 111.945312 127.507812 111.929688 126.785156 112.625 C 126.253906 113.144531 125.929688 113.84375 125.640625 114.578125 C 125.371094 115.265625 125.078125 116.09375 125.191406 116.949219 C 125.292969 117.835938 125.890625 118.285156 126.335938 118.460938 C 126.824219 118.652344 127.601562 118.738281 128.347656 118.023438 C 128.882812 117.503906 129.207031 116.800781 129.488281 116.085938 Z M 126.417969 118.257812 C 126.058594 118.117188 125.601562 117.675781 125.789062 116.738281 C 125.902344 116.152344 126.234375 115.304688 126.445312 114.761719 C 126.675781 114.171875 126.914062 113.570312 127.175781 113.109375 C 127.777344 112.085938 128.5 112.269531 128.726562 112.359375 C 129.03125 112.480469 129.566406 112.886719 129.382812 113.859375 C 129.28125 114.414062 129.011719 115.105469 128.785156 115.679688 C 128.515625 116.367188 128.273438 116.984375 127.941406 117.53125 C 127.457031 118.351562 126.832031 118.421875 126.417969 118.257812 Z M 126.417969 118.257812 "/>
<path fill-rule="nonzero" fill="rgb(25.881958%, 29.411316%, 30.979919%)" fill-opacity="1" d="M 130.578125 119.875 C 130.816406 119.273438 130.726562 118.824219 130.367188 118.683594 C 130.066406 118.5625 129.789062 118.722656 129.6875 118.980469 C 129.59375 119.222656 129.683594 119.539062 129.984375 119.660156 C 130.085938 119.699219 130.230469 119.707031 130.347656 119.667969 C 130.386719 119.648438 130.402344 119.65625 130.402344 119.65625 C 130.414062 119.660156 130.414062 119.660156 130.363281 119.789062 C 130.09375 120.480469 129.566406 120.902344 129.144531 121.082031 C 129.003906 121.144531 129 121.160156 128.988281 121.1875 C 128.960938 121.257812 128.992188 121.304688 129.035156 121.320312 C 129.136719 121.359375 130.15625 120.949219 130.578125 119.875 Z M 130.578125 119.875 "/>
<path fill-rule="nonzero" fill="rgb(25.881958%, 29.411316%, 30.979919%)" fill-opacity="1" d="M 139.183594 116.195312 C 139.195312 116.167969 139.261719 116.078125 139.261719 116.078125 C 139.269531 116.0625 139.304688 115.976562 139.1875 115.933594 C 139.101562 115.898438 139.078125 115.921875 138.972656 116.0625 L 137.613281 117.964844 C 136.140625 117.453125 134.320312 118.128906 133.832031 119.378906 C 133.488281 120.253906 133.851562 121.222656 134.941406 121.734375 C 134.765625 121.980469 134.574219 122.253906 134.390625 122.511719 C 134.105469 122.894531 133.886719 123.207031 133.875 123.234375 C 133.839844 123.320312 133.90625 123.363281 133.949219 123.382812 C 133.992188 123.398438 134.011719 123.390625 134.054688 123.371094 C 134.074219 123.363281 134.214844 123.171875 134.292969 123.050781 L 135.171875 121.824219 C 136.671875 122.347656 138.492188 121.636719 138.96875 120.414062 C 139.257812 119.683594 139.09375 118.660156 137.859375 118.058594 Z M 135.066406 121.550781 C 134.53125 121.308594 134 120.71875 134.355469 119.816406 C 134.789062 118.710938 136.078125 117.742188 137.492188 118.148438 Z M 137.722656 118.238281 C 138.40625 118.554688 138.761719 119.175781 138.445312 119.980469 C 138.019531 121.070312 136.71875 122.066406 135.308594 121.644531 Z M 137.722656 118.238281 "/>
<path fill-rule="nonzero" fill="rgb(25.881958%, 29.411316%, 30.979919%)" fill-opacity="1" d="M 141.425781 121.023438 C 141.492188 120.851562 141.492188 120.851562 141.304688 120.777344 C 140.730469 121.019531 140.15625 120.792969 139.898438 120.691406 L 139.808594 120.921875 C 139.953125 120.976562 140.382812 121.144531 140.796875 121.109375 L 139.519531 124.367188 C 139.433594 124.582031 139.398438 124.667969 138.769531 124.421875 L 138.523438 124.324219 L 138.433594 124.554688 C 138.550781 124.597656 139.351562 124.878906 139.578125 124.96875 C 139.78125 125.046875 140.574219 125.390625 140.714844 125.449219 L 140.804688 125.21875 L 140.5625 125.125 C 139.917969 124.871094 139.949219 124.785156 140.035156 124.570312 Z M 141.425781 121.023438 "/>
<path fill-rule="nonzero" fill="rgb(25.881958%, 29.411316%, 30.979919%)" fill-opacity="1" d="M 150.808594 124.363281 C 150.953125 124.417969 151.125 124.488281 151.191406 124.3125 C 151.265625 124.128906 151.09375 124.058594 150.964844 124.007812 L 145.484375 121.859375 C 145.355469 121.808594 145.179688 121.742188 145.109375 121.929688 C 145.039062 122.101562 145.214844 122.167969 145.34375 122.21875 Z M 150.125 126.148438 C 150.253906 126.199219 150.425781 126.265625 150.5 126.078125 C 150.566406 125.90625 150.394531 125.839844 150.253906 125.785156 L 144.785156 123.640625 C 144.65625 123.589844 144.484375 123.523438 144.417969 123.695312 C 144.34375 123.878906 144.515625 123.949219 144.644531 124 Z M 150.125 126.148438 "/>
<path fill-rule="nonzero" fill="rgb(25.881958%, 29.411316%, 30.979919%)" fill-opacity="1" d="M 158.335938 128.339844 C 158.492188 128.402344 158.664062 128.46875 158.738281 128.28125 C 158.804688 128.109375 158.632812 128.042969 158.476562 127.980469 L 153.523438 126.039062 C 153.367188 125.976562 153.207031 125.917969 153.140625 126.089844 C 153.066406 126.273438 153.226562 126.335938 153.382812 126.398438 Z M 158.335938 128.339844 "/>
<path fill-rule="nonzero" fill="rgb(25.881958%, 29.411316%, 30.979919%)" fill-opacity="1" d="M 163.949219 129.597656 C 164.234375 128.867188 164.480469 128.117188 164.429688 127.320312 C 164.359375 126.265625 163.65625 125.824219 163.285156 125.679688 C 162.722656 125.457031 161.96875 125.445312 161.25 126.136719 C 160.714844 126.65625 160.390625 127.359375 160.101562 128.089844 C 159.832031 128.777344 159.542969 129.609375 159.652344 130.460938 C 159.753906 131.347656 160.355469 131.796875 160.800781 131.972656 C 161.289062 132.164062 162.0625 132.253906 162.808594 131.535156 C 163.34375 131.015625 163.667969 130.316406 163.949219 129.597656 Z M 160.878906 131.769531 C 160.519531 131.628906 160.0625 131.1875 160.25 130.25 C 160.363281 129.664062 160.695312 128.816406 160.910156 128.273438 C 161.140625 127.683594 161.375 127.082031 161.640625 126.621094 C 162.238281 125.597656 162.960938 125.785156 163.191406 125.875 C 163.492188 125.992188 164.027344 126.398438 163.84375 127.371094 C 163.742188 127.925781 163.472656 128.617188 163.246094 129.191406 C 162.976562 129.878906 162.734375 130.496094 162.40625 131.042969 C 161.917969 131.863281 161.292969 131.933594 160.878906 131.769531 Z M 160.878906 131.769531 "/>
<path fill-rule="nonzero" fill="rgb(25.881958%, 29.411316%, 30.979919%)" fill-opacity="1" d="M 165.113281 132.867188 C 165.214844 132.609375 165.089844 132.296875 164.832031 132.195312 C 164.558594 132.089844 164.253906 132.234375 164.152344 132.492188 C 164.042969 132.765625 164.175781 133.0625 164.449219 133.171875 C 164.707031 133.273438 165.007812 133.140625 165.113281 132.867188 Z M 165.113281 132.867188 "/>
<path fill-rule="nonzero" fill="rgb(25.881958%, 29.411316%, 30.979919%)" fill-opacity="1" d="M 169 133.21875 L 168.691406 134.007812 C 168.5625 134.335938 168.496094 134.425781 167.820312 134.160156 L 167.632812 134.089844 L 167.519531 134.375 C 167.90625 134.492188 168.378906 134.679688 168.765625 134.832031 C 169.152344 134.984375 169.628906 135.167969 170.003906 135.347656 L 170.117188 135.0625 L 169.914062 134.984375 C 169.242188 134.71875 169.265625 134.613281 169.394531 134.28125 L 169.703125 133.492188 L 170.609375 133.847656 L 170.722656 133.5625 L 169.816406 133.207031 L 171.449219 129.046875 C 171.523438 128.859375 171.542969 128.800781 171.386719 128.738281 C 171.316406 128.710938 171.285156 128.699219 171.167969 128.785156 L 166.675781 131.972656 L 166.5625 132.261719 Z M 169.15625 132.949219 L 166.933594 132.074219 L 170.496094 129.53125 Z M 169.15625 132.949219 "/>
<path fill-rule="nonzero" fill="rgb(20.391846%, 51.371765%, 47.842407%)" fill-opacity="1" d="M 36.03125 57.351562 C 36.035156 57.320312 36.074219 57.214844 36.074219 57.214844 C 36.078125 57.203125 36.085938 57.109375 35.964844 57.097656 C 35.871094 57.089844 35.851562 57.117188 35.789062 57.28125 L 35 59.480469 C 33.445312 59.390625 31.875 60.535156 31.746094 61.871094 C 31.652344 62.804688 32.265625 63.640625 33.457031 63.835938 C 33.351562 64.117188 33.242188 64.433594 33.136719 64.730469 C 32.96875 65.179688 32.839844 65.539062 32.835938 65.570312 C 32.828125 65.664062 32.902344 65.683594 32.949219 65.691406 C 32.996094 65.695312 33.011719 65.679688 33.042969 65.652344 C 33.0625 65.640625 33.144531 65.414062 33.191406 65.28125 L 33.703125 63.859375 C 35.289062 63.953125 36.84375 62.773438 36.972656 61.472656 C 37.050781 60.6875 36.617188 59.746094 35.261719 59.507812 Z M 33.523438 63.625 C 32.945312 63.535156 32.273438 63.113281 32.367188 62.148438 C 32.484375 60.964844 33.464844 59.683594 34.933594 59.691406 Z M 35.179688 59.714844 C 35.925781 59.835938 36.433594 60.332031 36.351562 61.191406 C 36.234375 62.359375 35.253906 63.671875 33.785156 63.648438 Z M 35.179688 59.714844 "/>
<path fill-rule="nonzero" fill="rgb(20.391846%, 51.371765%, 47.842407%)" fill-opacity="1" d="M 40.53125 63.691406 C 40.605469 62.9375 40.566406 62.378906 40.308594 61.871094 C 40.125 61.542969 39.722656 61.226562 39.183594 61.171875 C 37.589844 61.015625 37.40625 62.886719 37.355469 63.378906 C 37.308594 63.867188 37.128906 65.691406 38.722656 65.851562 C 40.304688 66.007812 40.484375 64.179688 40.53125 63.691406 Z M 38.742188 65.652344 C 38.421875 65.621094 38.023438 65.394531 37.941406 64.828125 C 37.886719 64.421875 37.945312 63.851562 37.996094 63.347656 C 38.042969 62.839844 38.097656 62.320312 38.222656 61.960938 C 38.429688 61.4375 38.875 61.328125 39.167969 61.355469 C 39.535156 61.394531 39.863281 61.65625 39.949219 62.070312 C 40.019531 62.445312 39.984375 62.9375 39.925781 63.539062 C 39.878906 64.042969 39.828125 64.550781 39.691406 64.96875 C 39.492188 65.585938 39.019531 65.679688 38.742188 65.652344 Z M 38.742188 65.652344 "/>
<path fill-rule="nonzero" fill="rgb(20.391846%, 51.371765%, 47.842407%)" fill-opacity="1" d="M 49.441406 62.050781 C 49.597656 62.066406 49.78125 62.082031 49.796875 61.898438 C 49.816406 61.699219 49.632812 61.683594 49.496094 61.667969 L 43.636719 61.089844 C 43.5 61.078125 43.3125 61.058594 43.292969 61.257812 C 43.277344 61.441406 43.460938 61.460938 43.597656 61.472656 Z M 49.269531 63.953125 C 49.410156 63.96875 49.59375 63.984375 49.613281 63.785156 C 49.628906 63.601562 49.445312 63.585938 49.292969 63.570312 L 43.449219 62.992188 C 43.3125 62.980469 43.125 62.960938 43.109375 63.144531 C 43.089844 63.34375 43.273438 63.363281 43.410156 63.375 Z M 49.269531 63.953125 "/>
<path fill-rule="nonzero" fill="rgb(20.391846%, 51.371765%, 47.842407%)" fill-opacity="1" d="M 54.601562 59.476562 C 54.625 59.230469 54.628906 59.214844 54.398438 59.195312 C 53.722656 59.761719 52.863281 59.675781 52.554688 59.648438 L 52.527344 59.953125 C 52.726562 59.972656 53.292969 60.03125 53.824219 59.820312 L 53.324219 64.894531 C 53.289062 65.25 53.246094 65.351562 52.375 65.265625 L 52.066406 65.238281 L 52.035156 65.542969 C 52.375 65.546875 53.21875 65.628906 53.617188 65.667969 C 54.003906 65.707031 54.863281 65.789062 55.195312 65.855469 L 55.226562 65.546875 L 54.917969 65.519531 C 54.03125 65.429688 54.023438 65.320312 54.058594 64.96875 Z M 54.601562 59.476562 "/>
<path fill-rule="nonzero" fill="rgb(20.391846%, 51.371765%, 47.842407%)" fill-opacity="1" d="M 57.914062 65.597656 C 57.941406 65.320312 57.734375 65.050781 57.460938 65.023438 C 57.167969 64.996094 56.914062 65.21875 56.886719 65.496094 C 56.859375 65.785156 57.066406 66.039062 57.355469 66.066406 C 57.632812 66.09375 57.886719 65.886719 57.914062 65.597656 Z M 57.914062 65.597656 "/>
<path fill-rule="nonzero" fill="rgb(20.391846%, 51.371765%, 47.842407%)" fill-opacity="1" d="M 60.023438 65.570312 L 61.167969 64.664062 C 62.820312 63.460938 63.453125 63 63.550781 62.015625 C 63.660156 60.898438 62.863281 60.027344 61.667969 59.910156 C 60.5625 59.800781 59.753906 60.636719 59.664062 61.511719 C 59.613281 62.046875 60.105469 62.09375 60.132812 62.097656 C 60.304688 62.113281 60.652344 62.039062 60.691406 61.625 C 60.714844 61.382812 60.558594 61.101562 60.21875 61.070312 C 60.144531 61.0625 60.128906 61.058594 60.097656 61.070312 C 60.375 60.449219 60.945312 60.148438 61.515625 60.207031 C 62.402344 60.292969 62.738281 61.132812 62.660156 61.929688 C 62.582031 62.710938 62.03125 63.429688 61.417969 63.992188 L 59.34375 65.890625 C 59.222656 65.988281 59.222656 66.019531 59.199219 66.25 L 62.832031 66.609375 L 63.261719 64.929688 L 63.03125 64.910156 C 62.941406 65.195312 62.839844 65.617188 62.714844 65.761719 C 62.648438 65.832031 62.003906 65.765625 61.789062 65.746094 Z M 60.023438 65.570312 "/>
<path fill-rule="nonzero" fill="rgb(20.391846%, 51.371765%, 47.842407%)" fill-opacity="1" d="M 65.59375 66.863281 C 65.65625 66.21875 65.449219 65.8125 65.066406 65.773438 C 64.742188 65.742188 64.519531 65.96875 64.492188 66.246094 C 64.464844 66.503906 64.640625 66.785156 64.960938 66.816406 C 65.070312 66.828125 65.210938 66.796875 65.3125 66.726562 C 65.347656 66.699219 65.359375 66.703125 65.359375 66.703125 C 65.375 66.703125 65.375 66.703125 65.363281 66.84375 C 65.289062 67.578125 64.894531 68.128906 64.542969 68.417969 C 64.421875 68.515625 64.421875 68.53125 64.417969 68.5625 C 64.410156 68.636719 64.453125 68.671875 64.5 68.675781 C 64.609375 68.6875 65.480469 68.015625 65.59375 66.863281 Z M 65.59375 66.863281 "/>
<path fill-rule="nonzero" fill="rgb(20.391846%, 51.371765%, 47.842407%)" fill-opacity="1" d="M 72.871094 60.984375 C 72.875 60.953125 72.917969 60.851562 72.917969 60.851562 C 72.917969 60.835938 72.925781 60.742188 72.804688 60.730469 C 72.714844 60.722656 72.695312 60.75 72.632812 60.914062 L 71.84375 63.113281 C 70.285156 63.023438 68.71875 64.167969 68.585938 65.503906 C 68.492188 66.4375 69.109375 67.273438 70.296875 67.46875 C 70.191406 67.75 70.082031 68.066406 69.976562 68.367188 C 69.808594 68.8125 69.679688 69.171875 69.675781 69.203125 C 69.667969 69.296875 69.742188 69.316406 69.789062 69.324219 C 69.835938 69.328125 69.851562 69.3125 69.886719 69.285156 C 69.902344 69.273438 69.988281 69.046875 70.03125 68.914062 L 70.542969 67.492188 C 72.128906 67.585938 73.683594 66.40625 73.8125 65.105469 C 73.890625 64.320312 73.457031 63.382812 72.101562 63.140625 Z M 70.363281 67.257812 C 69.785156 67.167969 69.113281 66.746094 69.210938 65.78125 C 69.324219 64.601562 70.304688 63.316406 71.773438 63.324219 Z M 72.019531 63.347656 C 72.765625 63.46875 73.277344 63.96875 73.191406 64.824219 C 73.074219 65.992188 72.09375 67.304688 70.625 67.285156 Z M 72.019531 63.347656 "/>
<path fill-rule="nonzero" fill="rgb(20.391846%, 51.371765%, 47.842407%)" fill-opacity="1" d="M 76.339844 65.023438 C 76.359375 64.839844 76.359375 64.839844 76.160156 64.820312 C 75.671875 65.203125 75.058594 65.144531 74.785156 65.117188 L 74.757812 65.363281 C 74.914062 65.378906 75.371094 65.421875 75.757812 65.273438 L 75.414062 68.757812 C 75.394531 68.988281 75.382812 69.078125 74.710938 69.011719 L 74.449219 68.988281 L 74.425781 69.230469 C 74.546875 69.242188 75.394531 69.296875 75.640625 69.320312 C 75.855469 69.34375 76.710938 69.457031 76.863281 69.472656 L 76.886719 69.226562 L 76.625 69.203125 C 75.9375 69.132812 75.945312 69.042969 75.96875 68.8125 Z M 76.339844 65.023438 "/>
<path fill-rule="nonzero" fill="rgb(20.391846%, 51.371765%, 47.842407%)" fill-opacity="1" d="M 86.28125 65.683594 C 86.433594 65.699219 86.617188 65.714844 86.636719 65.53125 C 86.65625 65.332031 86.472656 65.316406 86.332031 65.300781 L 80.472656 64.722656 C 80.335938 64.710938 80.152344 64.691406 80.132812 64.890625 C 80.113281 65.074219 80.296875 65.09375 80.4375 65.105469 Z M 86.109375 67.585938 C 86.246094 67.601562 86.429688 67.617188 86.449219 67.417969 C 86.46875 67.234375 86.285156 67.21875 86.128906 67.203125 L 80.285156 66.625 C 80.148438 66.613281 79.964844 66.59375 79.945312 66.777344 C 79.925781 66.976562 80.109375 66.996094 80.25 67.007812 Z M 86.109375 67.585938 "/>
<path fill-rule="nonzero" fill="rgb(20.391846%, 51.371765%, 47.842407%)" fill-opacity="1" d="M 94.601562 67.464844 C 94.773438 67.480469 94.957031 67.5 94.976562 67.300781 C 94.992188 67.117188 94.808594 67.097656 94.640625 67.082031 L 89.347656 66.558594 C 89.179688 66.542969 89.011719 66.527344 88.992188 66.710938 C 88.972656 66.910156 89.144531 66.925781 89.3125 66.941406 Z M 94.601562 67.464844 "/>
<path fill-rule="nonzero" fill="rgb(20.391846%, 51.371765%, 47.842407%)" fill-opacity="1" d="M 100.347656 67.148438 C 100.425781 66.367188 100.457031 65.578125 100.191406 64.824219 C 99.839844 63.828125 99.042969 63.597656 98.644531 63.558594 C 98.042969 63.5 97.3125 63.6875 96.808594 64.554688 C 96.4375 65.199219 96.316406 65.960938 96.238281 66.742188 C 96.164062 67.480469 96.109375 68.355469 96.449219 69.148438 C 96.785156 69.972656 97.488281 70.242188 97.964844 70.289062 C 98.484375 70.339844 99.257812 70.214844 99.777344 69.320312 C 100.152344 68.675781 100.273438 67.914062 100.347656 67.148438 Z M 97.984375 70.074219 C 97.601562 70.035156 97.042969 69.734375 96.964844 68.78125 C 96.914062 68.1875 97.003906 67.28125 97.0625 66.699219 C 97.125 66.070312 97.1875 65.425781 97.316406 64.914062 C 97.617188 63.765625 98.359375 63.746094 98.605469 63.769531 C 98.929688 63.800781 99.554688 64.050781 99.644531 65.035156 C 99.695312 65.597656 99.625 66.332031 99.5625 66.945312 C 99.492188 67.683594 99.425781 68.34375 99.253906 68.960938 C 99.011719 69.882812 98.429688 70.117188 97.984375 70.074219 Z M 97.984375 70.074219 "/>
<path fill-rule="nonzero" fill="rgb(20.391846%, 51.371765%, 47.842407%)" fill-opacity="1" d="M 102.359375 69.980469 C 102.386719 69.703125 102.179688 69.433594 101.902344 69.40625 C 101.613281 69.378906 101.359375 69.601562 101.332031 69.878906 C 101.300781 70.167969 101.507812 70.421875 101.800781 70.449219 C 102.078125 70.476562 102.328125 70.269531 102.359375 69.980469 Z M 102.359375 69.980469 "/>
<path fill-rule="nonzero" fill="rgb(20.391846%, 51.371765%, 47.842407%)" fill-opacity="1" d="M 106.652344 64.609375 C 106.675781 64.363281 106.679688 64.347656 106.449219 64.328125 C 105.773438 64.894531 104.914062 64.8125 104.609375 64.78125 L 104.578125 65.085938 C 104.777344 65.105469 105.34375 65.164062 105.875 64.953125 L 105.375 70.027344 C 105.339844 70.382812 105.300781 70.484375 104.425781 70.398438 L 104.117188 70.371094 L 104.089844 70.675781 C 104.429688 70.679688 105.273438 70.761719 105.671875 70.800781 C 106.054688 70.839844 106.914062 70.925781 107.246094 70.988281 L 107.277344 70.679688 L 106.972656 70.652344 C 106.082031 70.5625 106.078125 70.453125 106.113281 70.101562 Z M 106.652344 64.609375 "/>
<path fill-rule="nonzero" fill="rgb(0%, 0%, 0%)" fill-opacity="1" d="M 87.890625 171.886719 L 88.738281 171.886719 L 88.738281 179.648438 L 87.890625 179.648438 Z M 87.890625 171.886719 "/>
<path fill-rule="nonzero" fill="rgb(0%, 0%, 0%)" fill-opacity="1" d="M 94.644531 179.648438 L 94.644531 176.585938 C 94.644531 175.390625 94.136719 174.457031 92.832031 174.457031 C 92.183594 174.457031 91.515625 174.703125 91.109375 175.265625 L 91.109375 174.578125 L 90.28125 174.578125 L 90.28125 179.648438 L 91.109375 179.648438 L 91.109375 176.78125 C 91.144531 175.8125 91.742188 175.195312 92.640625 175.195312 C 93.519531 175.195312 93.835938 175.722656 93.835938 176.621094 L 93.835938 179.648438 Z M 94.644531 179.648438 "/>
<g clip-path="url(#clip-4)">
<path fill-rule="nonzero" fill="rgb(0%, 0%, 0%)" fill-opacity="1" d="M 100.773438 177.113281 C 100.773438 175.636719 99.789062 174.578125 98.292969 174.578125 L 96.128906 174.578125 L 96.128906 182.355469 L 96.972656 182.355469 L 96.972656 179.648438 L 98.222656 179.648438 C 99.859375 179.648438 100.773438 178.628906 100.773438 177.113281 Z M 99.964844 177.113281 C 99.964844 178.117188 99.328125 178.910156 98.222656 178.910156 L 96.972656 178.910156 L 96.972656 175.320312 L 98.222656 175.320312 C 99.3125 175.320312 99.964844 176.039062 99.964844 177.113281 Z M 99.964844 177.113281 "/>
</g>
<path fill-rule="nonzero" fill="rgb(0%, 0%, 0%)" fill-opacity="1" d="M 106.390625 179.648438 L 106.390625 174.578125 L 105.527344 174.578125 L 105.527344 177.449219 C 105.527344 178.398438 105.054688 179.050781 104.035156 179.050781 C 103.136719 179.050781 102.820312 178.484375 102.820312 177.625 L 102.820312 174.578125 L 102.007812 174.578125 L 102.007812 177.640625 C 102.007812 178.839844 102.574219 179.789062 103.839844 179.789062 C 104.492188 179.789062 105.160156 179.417969 105.527344 178.980469 L 105.527344 179.648438 Z M 106.390625 179.648438 "/>
<path fill-rule="nonzero" fill="rgb(0%, 0%, 0%)" fill-opacity="1" d="M 110.773438 179.648438 L 110.773438 178.925781 L 109.894531 178.925781 C 109.101562 178.925781 108.960938 178.734375 108.960938 177.992188 L 108.960938 175.25 L 110.457031 175.25 L 110.457031 174.578125 L 108.960938 174.578125 L 108.960938 173.136719 L 108.609375 173.136719 L 108.136719 174.578125 L 107.535156 174.578125 L 107.535156 175.25 L 108.136719 175.25 L 108.136719 177.992188 C 108.136719 179.261719 108.644531 179.648438 109.894531 179.648438 Z M 110.773438 179.648438 "/>
<path fill-rule="nonzero" fill="rgb(0%, 0%, 0%)" fill-opacity="1" d="M 112.902344 178.503906 L 111.882812 178.503906 L 111.882812 179.277344 C 111.953125 179.417969 111.96875 179.558594 111.96875 179.699219 C 111.96875 180.105469 111.757812 180.527344 111.460938 180.722656 C 112.039062 180.703125 112.886719 179.839844 112.902344 179.296875 Z M 112.902344 178.503906 "/>
<path fill-rule="nonzero" fill="rgb(0%, 0%, 0%)" fill-opacity="1" d="M 120.652344 176.25 C 120.722656 175.96875 120.988281 174.933594 121.761719 174.933594 C 121.816406 174.933594 122.097656 174.933594 122.324219 175.074219 C 122.007812 175.144531 121.796875 175.40625 121.796875 175.6875 C 121.796875 175.863281 121.921875 176.074219 122.21875 176.074219 C 122.464844 176.074219 122.816406 175.882812 122.816406 175.425781 C 122.816406 174.84375 122.167969 174.683594 121.78125 174.683594 C 121.128906 174.683594 120.742188 175.285156 120.601562 175.53125 C 120.320312 174.792969 119.722656 174.683594 119.386719 174.683594 C 118.226562 174.683594 117.574219 176.128906 117.574219 176.410156 C 117.574219 176.53125 117.699219 176.53125 117.714844 176.53125 C 117.804688 176.53125 117.839844 176.496094 117.855469 176.410156 C 118.242188 175.214844 118.980469 174.933594 119.371094 174.933594 C 119.582031 174.933594 119.96875 175.039062 119.96875 175.6875 C 119.96875 176.039062 119.773438 176.78125 119.371094 178.363281 C 119.195312 179.050781 118.789062 179.523438 118.296875 179.523438 C 118.226562 179.523438 117.980469 179.523438 117.734375 179.382812 C 118.015625 179.3125 118.261719 179.085938 118.261719 178.769531 C 118.261719 178.46875 118.015625 178.378906 117.855469 178.378906 C 117.503906 178.378906 117.242188 178.664062 117.242188 179.03125 C 117.242188 179.542969 117.785156 179.769531 118.277344 179.769531 C 119.035156 179.769531 119.441406 178.980469 119.457031 178.925781 C 119.597656 179.332031 120.003906 179.769531 120.671875 179.769531 C 121.832031 179.769531 122.464844 178.328125 122.464844 178.046875 C 122.464844 177.921875 122.378906 177.921875 122.34375 177.921875 C 122.238281 177.921875 122.21875 177.976562 122.183594 178.046875 C 121.816406 179.261719 121.058594 179.523438 120.707031 179.523438 C 120.265625 179.523438 120.089844 179.171875 120.089844 178.785156 C 120.089844 178.539062 120.144531 178.292969 120.265625 177.800781 Z M 120.652344 176.25 "/>
<path fill-rule="nonzero" fill="rgb(0%, 0%, 0%)" fill-opacity="1" d="M 4.046875 97.207031 C 1.917969 97.207031 0 98.191406 0 100.515625 C 0 102.785156 1.972656 103.789062 4.046875 103.789062 C 6.125 103.789062 8.058594 102.765625 8.058594 100.515625 C 8.058594 98.210938 6.175781 97.207031 4.046875 97.207031 Z M 4.046875 98.035156 C 5.613281 98.035156 7.300781 98.71875 7.300781 100.515625 C 7.300781 102.273438 5.59375 102.960938 4.046875 102.960938 C 2.445312 102.960938 0.757812 102.308594 0.757812 100.515625 C 0.757812 98.683594 2.429688 98.035156 4.046875 98.035156 Z M 4.046875 98.035156 "/>
<path fill-rule="nonzero" fill="rgb(0%, 0%, 0%)" fill-opacity="1" d="M 7.902344 91.613281 L 2.832031 91.613281 L 2.832031 92.476562 L 5.699219 92.476562 C 6.652344 92.476562 7.300781 92.953125 7.300781 93.972656 C 7.300781 94.871094 6.738281 95.1875 5.878906 95.1875 L 2.832031 95.1875 L 2.832031 95.996094 L 5.894531 95.996094 C 7.089844 95.996094 8.042969 95.433594 8.042969 94.164062 C 8.042969 93.515625 7.671875 92.847656 7.230469 92.476562 L 7.902344 92.476562 Z M 7.902344 91.613281 "/>
<path fill-rule="nonzero" fill="rgb(0%, 0%, 0%)" fill-opacity="1" d="M 7.902344 87.230469 L 7.179688 87.230469 L 7.179688 88.109375 C 7.179688 88.902344 6.984375 89.042969 6.246094 89.042969 L 3.5 89.042969 L 3.5 87.546875 L 2.832031 87.546875 L 2.832031 89.042969 L 1.390625 89.042969 L 1.390625 89.394531 L 2.832031 89.871094 L 2.832031 90.46875 L 3.5 90.46875 L 3.5 89.871094 L 6.246094 89.871094 C 7.511719 89.871094 7.902344 89.359375 7.902344 88.109375 Z M 7.902344 87.230469 "/>
<path fill-rule="nonzero" fill="rgb(0%, 0%, 0%)" fill-opacity="1" d="M 5.367188 81.546875 C 3.890625 81.546875 2.832031 82.535156 2.832031 84.027344 L 2.832031 86.191406 L 10.609375 86.191406 L 10.609375 85.347656 L 7.902344 85.347656 L 7.902344 84.097656 C 7.902344 82.464844 6.878906 81.546875 5.367188 81.546875 Z M 5.367188 82.355469 C 6.371094 82.355469 7.160156 82.992188 7.160156 84.097656 L 7.160156 85.347656 L 3.570312 85.347656 L 3.570312 84.097656 C 3.570312 83.007812 4.292969 82.355469 5.367188 82.355469 Z M 5.367188 82.355469 "/>
<path fill-rule="nonzero" fill="rgb(0%, 0%, 0%)" fill-opacity="1" d="M 7.902344 75.929688 L 2.832031 75.929688 L 2.832031 76.792969 L 5.699219 76.792969 C 6.652344 76.792969 7.300781 77.265625 7.300781 78.289062 C 7.300781 79.183594 6.738281 79.5 5.878906 79.5 L 2.832031 79.5 L 2.832031 80.3125 L 5.894531 80.3125 C 7.089844 80.3125 8.042969 79.746094 8.042969 78.480469 C 8.042969 77.828125 7.671875 77.160156 7.230469 76.792969 L 7.902344 76.792969 Z M 7.902344 75.929688 "/>
<path fill-rule="nonzero" fill="rgb(0%, 0%, 0%)" fill-opacity="1" d="M 7.902344 71.546875 L 7.179688 71.546875 L 7.179688 72.425781 C 7.179688 73.21875 6.984375 73.359375 6.246094 73.359375 L 3.5 73.359375 L 3.5 71.863281 L 2.832031 71.863281 L 2.832031 73.359375 L 1.390625 73.359375 L 1.390625 73.710938 L 2.832031 74.1875 L 2.832031 74.785156 L 3.5 74.785156 L 3.5 74.1875 L 6.246094 74.1875 C 7.511719 74.1875 7.902344 73.675781 7.902344 72.425781 Z M 7.902344 71.546875 "/>
<path fill-rule="nonzero" fill="rgb(0%, 0%, 0%)" fill-opacity="1" d="M 6.757812 69.417969 L 6.757812 70.4375 L 7.53125 70.4375 C 7.671875 70.367188 7.8125 70.351562 7.953125 70.351562 C 8.359375 70.351562 8.78125 70.5625 8.972656 70.859375 C 8.957031 70.28125 8.09375 69.433594 7.546875 69.417969 Z M 6.757812 69.417969 "/>
<path fill-rule="nonzero" fill="rgb(0%, 0%, 0%)" fill-opacity="1" d="M 3.625 59.960938 C 3.464844 59.90625 3.449219 59.90625 3.359375 59.90625 C 3.167969 59.90625 3.0625 60.066406 3.0625 60.242188 C 3.0625 60.347656 3.132812 60.523438 3.289062 60.628906 C 3.359375 60.644531 3.695312 60.75 3.90625 60.785156 C 4.1875 60.875 4.503906 60.945312 4.804688 61.015625 L 6.828125 61.527344 C 6.984375 61.5625 7.777344 62.054688 7.777344 62.792969 C 7.777344 63.355469 7.285156 63.480469 6.863281 63.480469 C 6.351562 63.480469 5.648438 63.285156 4.664062 62.914062 C 4.207031 62.738281 4.082031 62.6875 3.855469 62.6875 C 3.359375 62.6875 2.9375 63.039062 2.9375 63.601562 C 2.9375 64.675781 4.574219 65.082031 4.664062 65.082031 C 4.785156 65.082031 4.785156 64.976562 4.785156 64.957031 C 4.785156 64.832031 4.75 64.832031 4.574219 64.78125 C 3.519531 64.464844 3.183594 64.023438 3.183594 63.636719 C 3.183594 63.550781 3.183594 63.355469 3.535156 63.355469 C 3.816406 63.355469 4.117188 63.480469 4.328125 63.550781 C 5.523438 64.007812 6.160156 64.199219 6.6875 64.199219 C 7.691406 64.199219 8.023438 63.496094 8.023438 62.828125 C 8.023438 62.386719 7.832031 62.019531 7.511719 61.703125 C 8.09375 61.84375 8.65625 61.984375 9.253906 62.421875 C 9.625 62.722656 9.960938 63.144531 9.960938 63.65625 C 9.960938 63.8125 9.925781 64.324219 9.484375 64.515625 C 9.484375 64.339844 9.484375 64.183594 9.34375 64.042969 C 9.253906 63.917969 9.097656 63.8125 8.886719 63.8125 C 8.535156 63.8125 8.5 64.113281 8.5 64.21875 C 8.5 64.480469 8.675781 64.851562 9.21875 64.851562 C 9.785156 64.851562 10.207031 64.359375 10.207031 63.65625 C 10.207031 62.511719 9.183594 61.351562 7.917969 61.03125 Z M 3.625 59.960938 "/>
<path fill="none" stroke-width="0.850394" stroke-linecap="butt" stroke-linejoin="miter" stroke="rgb(1.176453%, 0%, 0%)" stroke-opacity="1" stroke-miterlimit="4" d="M 25.914062 3.144531 L 184.796875 3.144531 L 184.796875 162.027344 L 25.914062 162.027344 Z M 25.914062 3.144531 "/>
<path fill-rule="nonzero" fill="rgb(50.195312%, 50.195312%, 50.195312%)" fill-opacity="1" d="M 15.863281 85.296875 L 15.863281 79.835938 L 15.207031 79.835938 L 14.429688 80.46875 L 14.429688 81.085938 L 15.246094 80.417969 L 15.246094 85.296875 Z M 15.863281 85.296875 "/>
<path fill-rule="nonzero" fill="rgb(50.195312%, 50.195312%, 50.195312%)" fill-opacity="1" d="M 17.050781 84.492188 L 17.808594 84.492188 L 17.808594 85.296875 L 17.050781 85.296875 Z M 17.050781 84.492188 "/>
<path fill-rule="nonzero" fill="rgb(50.195312%, 50.195312%, 50.195312%)" fill-opacity="1" d="M 22.285156 82.585938 C 22.273438 81.421875 22.011719 79.738281 20.539062 79.738281 C 19.066406 79.738281 18.816406 81.445312 18.816406 82.585938 C 18.816406 83.738281 19.078125 85.410156 20.539062 85.410156 C 22 85.410156 22.285156 83.738281 22.285156 82.585938 Z M 21.714844 82.585938 C 21.714844 83.339844 21.652344 84.890625 20.539062 84.890625 C 19.425781 84.890625 19.386719 83.316406 19.386719 82.585938 C 19.386719 81.84375 19.414062 80.246094 20.539062 80.246094 C 21.652344 80.246094 21.714844 81.855469 21.714844 82.585938 Z M 21.714844 82.585938 "/>
<path fill-rule="nonzero" fill="rgb(50.195312%, 50.195312%, 50.195312%)" fill-opacity="1" d="M 24.804688 168.15625 C 24.804688 167.535156 24.769531 166.792969 24.433594 166.160156 C 24.113281 165.566406 23.566406 165.367188 23.171875 165.367188 C 22.699219 165.367188 22.144531 165.589844 21.820312 166.285156 C 21.5625 166.867188 21.523438 167.523438 21.523438 168.15625 C 21.523438 168.773438 21.546875 169.355469 21.785156 169.9375 C 22.105469 170.695312 22.699219 170.90625 23.160156 170.90625 C 23.726562 170.90625 24.234375 170.582031 24.484375 170.039062 C 24.71875 169.519531 24.804688 168.996094 24.804688 168.15625 Z M 23.171875 170.421875 C 22.75 170.421875 22.429688 170.125 22.265625 169.554688 C 22.144531 169.109375 22.144531 168.675781 22.144531 168.054688 C 22.144531 167.5625 22.144531 167.089844 22.265625 166.65625 C 22.316406 166.507812 22.515625 165.851562 23.160156 165.851562 C 23.777344 165.851562 23.976562 166.457031 24.039062 166.59375 C 24.1875 167.039062 24.1875 167.574219 24.1875 168.054688 C 24.1875 168.578125 24.1875 169.085938 24.039062 169.578125 C 23.839844 170.296875 23.417969 170.421875 23.171875 170.421875 Z M 23.171875 170.421875 "/>
<path fill-rule="nonzero" fill="rgb(50.195312%, 50.195312%, 50.195312%)" fill-opacity="1" d="M 25.90625 170.074219 L 26.5625 170.074219 L 26.5625 170.730469 L 25.90625 170.730469 Z M 25.90625 170.074219 "/>
<path fill-rule="nonzero" fill="rgb(50.195312%, 50.195312%, 50.195312%)" fill-opacity="1" d="M 30.949219 168.15625 C 30.949219 167.535156 30.910156 166.792969 30.578125 166.160156 C 30.253906 165.566406 29.710938 165.367188 29.3125 165.367188 C 28.84375 165.367188 28.285156 165.589844 27.964844 166.285156 C 27.703125 166.867188 27.667969 167.523438 27.667969 168.15625 C 27.667969 168.773438 27.691406 169.355469 27.925781 169.9375 C 28.25 170.695312 28.84375 170.90625 29.300781 170.90625 C 29.871094 170.90625 30.378906 170.582031 30.625 170.039062 C 30.863281 169.519531 30.949219 168.996094 30.949219 168.15625 Z M 29.3125 170.421875 C 28.894531 170.421875 28.570312 170.125 28.410156 169.554688 C 28.285156 169.109375 28.285156 168.675781 28.285156 168.054688 C 28.285156 167.5625 28.285156 167.089844 28.410156 166.65625 C 28.460938 166.507812 28.65625 165.851562 29.300781 165.851562 C 29.921875 165.851562 30.117188 166.457031 30.179688 166.59375 C 30.328125 167.039062 30.328125 167.574219 30.328125 168.054688 C 30.328125 168.578125 30.328125 169.085938 30.179688 169.578125 C 29.984375 170.296875 29.5625 170.421875 29.3125 170.421875 Z M 29.3125 170.421875 "/>
<path fill-rule="nonzero" fill="rgb(50.195312%, 50.195312%, 50.195312%)" fill-opacity="1" d="M 181.335938 169.246094 L 180.359375 170.222656 L 180.359375 170.730469 L 183.503906 170.730469 L 183.503906 170.175781 L 182.066406 170.175781 C 181.980469 170.175781 181.882812 170.175781 181.78125 170.175781 L 180.929688 170.175781 C 181.175781 169.953125 181.78125 169.371094 182.03125 169.132812 C 182.179688 168.996094 182.574219 168.664062 182.722656 168.515625 C 183.082031 168.167969 183.503906 167.746094 183.503906 167.078125 C 183.503906 166.160156 182.871094 165.367188 181.832031 165.367188 C 180.929688 165.367188 180.480469 165.988281 180.296875 166.667969 C 180.382812 166.804688 180.433594 166.855469 180.445312 166.878906 C 180.457031 166.890625 180.542969 166.992188 180.617188 167.101562 C 180.777344 166.496094 181.003906 165.875 181.71875 165.875 C 182.464844 165.875 182.859375 166.472656 182.859375 167.089844 C 182.859375 167.757812 182.414062 168.207031 181.945312 168.6875 Z M 181.335938 169.246094 "/>
<path fill-rule="nonzero" fill="rgb(50.195312%, 50.195312%, 50.195312%)" fill-opacity="1" d="M 184.679688 170.074219 L 185.335938 170.074219 L 185.335938 170.730469 L 184.679688 170.730469 Z M 184.679688 170.074219 "/>
<g clip-path="url(#clip-5)">
<path fill-rule="nonzero" fill="rgb(50.195312%, 50.195312%, 50.195312%)" fill-opacity="1" d="M 189.722656 168.15625 C 189.722656 167.535156 189.683594 166.792969 189.351562 166.160156 C 189.027344 165.566406 188.484375 165.367188 188.085938 165.367188 C 187.617188 165.367188 187.058594 165.589844 186.734375 166.285156 C 186.476562 166.867188 186.4375 167.523438 186.4375 168.15625 C 186.4375 168.773438 186.464844 169.355469 186.699219 169.9375 C 187.019531 170.695312 187.617188 170.90625 188.074219 170.90625 C 188.644531 170.90625 189.152344 170.582031 189.398438 170.039062 C 189.632812 169.519531 189.722656 168.996094 189.722656 168.15625 Z M 188.085938 170.421875 C 187.664062 170.421875 187.34375 170.125 187.183594 169.554688 C 187.058594 169.109375 187.058594 168.675781 187.058594 168.054688 C 187.058594 167.5625 187.058594 167.089844 187.183594 166.65625 C 187.230469 166.507812 187.429688 165.851562 188.074219 165.851562 C 188.691406 165.851562 188.890625 166.457031 188.953125 166.59375 C 189.101562 167.039062 189.101562 167.574219 189.101562 168.054688 C 189.101562 168.578125 189.101562 169.085938 188.953125 169.578125 C 188.753906 170.296875 188.335938 170.421875 188.085938 170.421875 Z M 188.085938 170.421875 "/>
</g>
<path fill-rule="nonzero" fill="rgb(50.195312%, 50.195312%, 50.195312%)" fill-opacity="1" d="M 102.425781 170.792969 L 102.425781 165.332031 L 101.769531 165.332031 L 100.988281 165.964844 L 100.988281 166.582031 L 101.808594 165.914062 L 101.808594 170.792969 Z M 102.425781 170.792969 "/>
<path fill-rule="nonzero" fill="rgb(50.195312%, 50.195312%, 50.195312%)" fill-opacity="1" d="M 103.613281 169.988281 L 104.367188 169.988281 L 104.367188 170.792969 L 103.613281 170.792969 Z M 103.613281 169.988281 "/>
<path fill-rule="nonzero" fill="rgb(50.195312%, 50.195312%, 50.195312%)" fill-opacity="1" d="M 108.847656 168.082031 C 108.835938 166.917969 108.574219 165.234375 107.101562 165.234375 C 105.625 165.234375 105.378906 166.941406 105.378906 168.082031 C 105.378906 169.234375 105.640625 170.90625 107.101562 170.90625 C 108.5625 170.90625 108.847656 169.234375 108.847656 168.082031 Z M 108.277344 168.082031 C 108.277344 168.835938 108.214844 170.386719 107.101562 170.386719 C 105.984375 170.386719 105.949219 168.8125 105.949219 168.082031 C 105.949219 167.339844 105.972656 165.742188 107.101562 165.742188 C 108.214844 165.742188 108.277344 167.351562 108.277344 168.082031 Z M 108.277344 168.082031 "/>
</svg>
