<?xml version="1.0" encoding="UTF-8"?>
<svg xmlns="http://www.w3.org/2000/svg" xmlns:xlink="http://www.w3.org/1999/xlink" width="190.12941pt" height="129.620529pt" viewBox="0 0 190.12941 129.620529">
<defs>
<clipPath id="clip-0">
<path clip-rule="nonzero" d="M 29.34375 4.550781 L 168.128906 4.550781 L 168.128906 116.378906 L 29.34375 116.378906 Z M 29.34375 4.550781 "/>
</clipPath>
</defs>
<g clip-path="url(#clip-0)">
<path fill="none" stroke-width="1.527012" stroke-linecap="square" stroke-linejoin="round" stroke="rgb(77.645874%, 80.39093%, 81.175232%)" stroke-opacity="1" stroke-miterlimit="4" d="M 29.34375 120.608277 L 80.265625 120.567795 L 82.914062 120.482782 L 84.550781 120.357288 L 85.746094 120.187263 L 86.691406 119.976756 L 87.480469 119.721719 L 88.175781 119.414055 L 88.785156 119.061861 L 89.339844 118.648944 L 89.867188 118.155062 L 90.367188 117.580217 L 90.851562 116.896069 L 91.324219 116.086428 L 91.785156 115.143195 L 92.242188 114.013745 L 92.699219 112.66974 L 93.15625 111.074746 L 93.628906 109.131606 L 94.101562 106.844368 L 94.585938 104.083489 L 95.085938 100.780151 L 95.613281 96.748136 L 96.167969 91.882189 L 96.78125 85.809876 L 97.488281 77.940159 L 98.445312 66.309656 L 100.179688 45.14967 L 100.914062 37.223277 L 101.554688 31.175254 L 102.136719 26.382175 L 102.679688 22.556618 L 103.207031 19.378774 L 103.71875 16.763632 L 104.21875 14.626177 L 104.703125 12.8814 L 105.191406 11.424044 L 105.675781 10.21363 L 106.160156 9.213723 L 106.648438 8.387888 L 107.148438 7.691596 L 107.660156 7.112702 L 108.203125 6.622869 L 108.769531 6.209952 L 109.382812 5.869902 L 110.0625 5.578431 L 110.839844 5.331491 L 111.742188 5.133128 L 112.835938 4.979296 L 114.253906 4.85785 L 116.238281 4.776886 L 119.527344 4.732356 L 128.117188 4.716163 L 168.117188 4.716163 " transform="matrix(1, 0, 0, 0.964933, 0, 0)"/>
</g>
<path fill="none" stroke-width="0.85041" stroke-linecap="butt" stroke-linejoin="miter" stroke="rgb(50.195312%, 50.195312%, 50.195312%)" stroke-opacity="1" stroke-miterlimit="4" d="M 29.528377 116.546875 L 29.528377 118.757812 " transform="matrix(0.999965, 0, 0, 1, 0, 0)"/>
<path fill="none" stroke-width="0.85041" stroke-linecap="butt" stroke-linejoin="miter" stroke="rgb(50.195312%, 50.195312%, 50.195312%)" stroke-opacity="1" stroke-miterlimit="4" d="M 98.937057 116.546875 L 98.937057 118.757812 " transform="matrix(0.999965, 0, 0, 1, 0, 0)"/>
<path fill="none" stroke-width="0.85041" stroke-linecap="butt" stroke-linejoin="miter" stroke="rgb(50.195312%, 50.195312%, 50.195312%)" stroke-opacity="1" stroke-miterlimit="4" d="M 168.345736 116.546875 L 168.345736 118.757812 " transform="matrix(0.999965, 0, 0, 1, 0, 0)"/>
<path fill="none" stroke-width="0.85041" stroke-linecap="butt" stroke-linejoin="miter" stroke="rgb(50.195312%, 50.195312%, 50.195312%)" stroke-opacity="1" stroke-miterlimit="4" d="M 43.411676 118.054688 L 43.411676 116.546875 " transform="matrix(0.999965, 0, 0, 1, 0, 0)"/>
<path fill="none" stroke-width="0.85041" stroke-linecap="butt" stroke-linejoin="miter" stroke="rgb(50.195312%, 50.195312%, 50.195312%)" stroke-opacity="1" stroke-miterlimit="4" d="M 57.291068 118.054688 L 57.291068 116.546875 " transform="matrix(0.999965, 0, 0, 1, 0, 0)"/>
<path fill="none" stroke-width="0.85041" stroke-linecap="butt" stroke-linejoin="miter" stroke="rgb(50.195312%, 50.195312%, 50.195312%)" stroke-opacity="1" stroke-miterlimit="4" d="M 71.174366 118.054688 L 71.174366 116.546875 " transform="matrix(0.999965, 0, 0, 1, 0, 0)"/>
<path fill="none" stroke-width="0.85041" stroke-linecap="butt" stroke-linejoin="miter" stroke="rgb(50.195312%, 50.195312%, 50.195312%)" stroke-opacity="1" stroke-miterlimit="4" d="M 85.053758 118.054688 L 85.053758 116.546875 " transform="matrix(0.999965, 0, 0, 1, 0, 0)"/>
<path fill="none" stroke-width="0.85041" stroke-linecap="butt" stroke-linejoin="miter" stroke="rgb(50.195312%, 50.195312%, 50.195312%)" stroke-opacity="1" stroke-miterlimit="4" d="M 112.816449 118.054688 L 112.816449 116.546875 " transform="matrix(0.999965, 0, 0, 1, 0, 0)"/>
<path fill="none" stroke-width="0.85041" stroke-linecap="butt" stroke-linejoin="miter" stroke="rgb(50.195312%, 50.195312%, 50.195312%)" stroke-opacity="1" stroke-miterlimit="4" d="M 126.699747 118.054688 L 126.699747 116.546875 " transform="matrix(0.999965, 0, 0, 1, 0, 0)"/>
<path fill="none" stroke-width="0.85041" stroke-linecap="butt" stroke-linejoin="miter" stroke="rgb(50.195312%, 50.195312%, 50.195312%)" stroke-opacity="1" stroke-miterlimit="4" d="M 140.583045 118.054688 L 140.583045 116.546875 " transform="matrix(0.999965, 0, 0, 1, 0, 0)"/>
<path fill="none" stroke-width="0.85041" stroke-linecap="butt" stroke-linejoin="miter" stroke="rgb(50.195312%, 50.195312%, 50.195312%)" stroke-opacity="1" stroke-miterlimit="4" d="M 154.462437 118.054688 L 154.462437 116.546875 " transform="matrix(0.999965, 0, 0, 1, 0, 0)"/>
<path fill="none" stroke-width="0.85041" stroke-linecap="butt" stroke-linejoin="miter" stroke="rgb(50.195312%, 50.195312%, 50.195312%)" stroke-opacity="1" stroke-miterlimit="4" d="M 29.63385 4.226562 L 27.422835 4.226562 " transform="matrix(0.999965, 0, 0, 1, 0, 0)"/>
<path fill="none" stroke-width="0.85041" stroke-linecap="butt" stroke-linejoin="miter" stroke="rgb(50.195312%, 50.195312%, 50.195312%)" stroke-opacity="1" stroke-miterlimit="4" d="M 29.63385 60.292969 L 27.422835 60.292969 " transform="matrix(0.999965, 0, 0, 1, 0, 0)"/>
<path fill="none" stroke-width="0.85041" stroke-linecap="butt" stroke-linejoin="miter" stroke="rgb(50.195312%, 50.195312%, 50.195312%)" stroke-opacity="1" stroke-miterlimit="4" d="M 29.532284 116.457031 L 27.321269 116.457031 " transform="matrix(0.999965, 0, 0, 1, 0, 0)"/>
<path fill="none" stroke-width="0.85041" stroke-linecap="butt" stroke-linejoin="miter" stroke="rgb(50.195312%, 50.195312%, 50.195312%)" stroke-opacity="1" stroke-miterlimit="4" d="M 29.63385 15.414062 L 28.125984 15.414062 " transform="matrix(0.999965, 0, 0, 1, 0, 0)"/>
<path fill="none" stroke-width="0.85041" stroke-linecap="butt" stroke-linejoin="miter" stroke="rgb(50.195312%, 50.195312%, 50.195312%)" stroke-opacity="1" stroke-miterlimit="4" d="M 29.63385 26.632812 L 28.125984 26.632812 " transform="matrix(0.999965, 0, 0, 1, 0, 0)"/>
<path fill="none" stroke-width="0.85041" stroke-linecap="butt" stroke-linejoin="miter" stroke="rgb(50.195312%, 50.195312%, 50.195312%)" stroke-opacity="1" stroke-miterlimit="4" d="M 29.63385 37.855469 L 28.125984 37.855469 " transform="matrix(0.999965, 0, 0, 1, 0, 0)"/>
<path fill="none" stroke-width="0.85041" stroke-linecap="butt" stroke-linejoin="miter" stroke="rgb(50.195312%, 50.195312%, 50.195312%)" stroke-opacity="1" stroke-miterlimit="4" d="M 29.63385 49.074219 L 28.125984 49.074219 " transform="matrix(0.999965, 0, 0, 1, 0, 0)"/>
<path fill="none" stroke-width="0.85041" stroke-linecap="butt" stroke-linejoin="miter" stroke="rgb(50.195312%, 50.195312%, 50.195312%)" stroke-opacity="1" stroke-miterlimit="4" d="M 29.63385 71.511719 L 28.125984 71.511719 " transform="matrix(0.999965, 0, 0, 1, 0, 0)"/>
<path fill="none" stroke-width="0.85041" stroke-linecap="butt" stroke-linejoin="miter" stroke="rgb(50.195312%, 50.195312%, 50.195312%)" stroke-opacity="1" stroke-miterlimit="4" d="M 29.63385 82.730469 L 28.125984 82.730469 " transform="matrix(0.999965, 0, 0, 1, 0, 0)"/>
<path fill="none" stroke-width="0.85041" stroke-linecap="butt" stroke-linejoin="miter" stroke="rgb(50.195312%, 50.195312%, 50.195312%)" stroke-opacity="1" stroke-miterlimit="4" d="M 29.63385 93.949219 L 28.125984 93.949219 " transform="matrix(0.999965, 0, 0, 1, 0, 0)"/>
<path fill="none" stroke-width="0.85041" stroke-linecap="butt" stroke-linejoin="miter" stroke="rgb(50.195312%, 50.195312%, 50.195312%)" stroke-opacity="1" stroke-miterlimit="4" d="M 29.63385 105.167969 L 28.125984 105.167969 " transform="matrix(0.999965, 0, 0, 1, 0, 0)"/>
<path fill="none" stroke-width="1.13388" stroke-linecap="butt" stroke-linejoin="miter" stroke="rgb(81.959534%, 51.371765%, 38.430786%)" stroke-opacity="1" stroke-miterlimit="4" d="M 57.052778 115.949219 L 57.052778 77.582031 " transform="matrix(0.999965, 0, 0, 1, 0, 0)"/>
<path fill-rule="evenodd" fill="rgb(81.959534%, 51.371765%, 38.430786%)" fill-opacity="1" stroke-width="0.302368" stroke-linecap="butt" stroke-linejoin="round" stroke="rgb(81.959534%, 51.371765%, 38.430786%)" stroke-opacity="1" stroke-miterlimit="4" d="M 78.941406 -57.052778 L 80.074219 -58.189537 L 76.105469 -57.052778 L 80.074219 -55.919926 Z M 78.941406 -57.052778 " transform="matrix(0, 1, -0.999965, 0, 0, 0)"/>
<path fill="none" stroke-width="1.13388" stroke-linecap="butt" stroke-linejoin="miter" stroke="rgb(81.959534%, 51.371765%, 38.430786%)" stroke-opacity="1" stroke-miterlimit="4" d="M 68.643028 115.949219 L 68.643028 77.582031 " transform="matrix(0.999965, 0, 0, 1, 0, 0)"/>
<path fill-rule="evenodd" fill="rgb(81.959534%, 51.371765%, 38.430786%)" fill-opacity="1" stroke-width="0.302368" stroke-linecap="butt" stroke-linejoin="round" stroke="rgb(81.959534%, 51.371765%, 38.430786%)" stroke-opacity="1" stroke-miterlimit="4" d="M 78.941406 -68.643028 L 80.074219 -69.77588 L 76.105469 -68.643028 L 80.074219 -67.510175 Z M 78.941406 -68.643028 " transform="matrix(0, 1, -0.999965, 0, 0, 0)"/>
<path fill="none" stroke-width="1.13388" stroke-linecap="butt" stroke-linejoin="miter" stroke="rgb(81.959534%, 51.371765%, 38.430786%)" stroke-opacity="1" stroke-miterlimit="4" d="M 45.63441 115.949219 L 45.63441 77.582031 " transform="matrix(0.999965, 0, 0, 1, 0, 0)"/>
<path fill-rule="evenodd" fill="rgb(81.959534%, 51.371765%, 38.430786%)" fill-opacity="1" stroke-width="0.302368" stroke-linecap="butt" stroke-linejoin="round" stroke="rgb(81.959534%, 51.371765%, 38.430786%)" stroke-opacity="1" stroke-miterlimit="4" d="M 78.941406 -45.63441 L 80.074219 -46.767262 L 76.105469 -45.63441 L 80.074219 -44.501558 Z M 78.941406 -45.63441 " transform="matrix(0, 1, -0.999965, 0, 0, 0)"/>
<path fill="none" stroke-width="1.13388" stroke-linecap="butt" stroke-linejoin="miter" stroke="rgb(81.959534%, 51.371765%, 38.430786%)" stroke-opacity="1" stroke-miterlimit="4" d="M 46.896173 115.949219 L 46.896173 77.582031 " transform="matrix(0.999965, 0, 0, 1, 0, 0)"/>
<path fill-rule="evenodd" fill="rgb(81.959534%, 51.371765%, 38.430786%)" fill-opacity="1" stroke-width="0.302368" stroke-linecap="butt" stroke-linejoin="round" stroke="rgb(81.959534%, 51.371765%, 38.430786%)" stroke-opacity="1" stroke-miterlimit="4" d="M 78.941406 -46.896173 L 80.074219 -48.029025 L 76.105469 -46.896173 L 80.074219 -45.759414 Z M 78.941406 -46.896173 " transform="matrix(0, 1, -0.999965, 0, 0, 0)"/>
<path fill="none" stroke-width="1.13388" stroke-linecap="butt" stroke-linejoin="miter" stroke="rgb(81.959534%, 51.371765%, 38.430786%)" stroke-opacity="1" stroke-miterlimit="4" d="M 60.076321 115.949219 L 60.076321 77.582031 " transform="matrix(0.999965, 0, 0, 1, 0, 0)"/>
<path fill-rule="evenodd" fill="rgb(81.959534%, 51.371765%, 38.430786%)" fill-opacity="1" stroke-width="0.302368" stroke-linecap="butt" stroke-linejoin="round" stroke="rgb(81.959534%, 51.371765%, 38.430786%)" stroke-opacity="1" stroke-miterlimit="4" d="M 78.941406 -60.076321 L 80.074219 -61.21308 L 76.105469 -60.076321 L 80.074219 -58.943469 Z M 78.941406 -60.076321 " transform="matrix(0, 1, -0.999965, 0, 0, 0)"/>
<path fill="none" stroke-width="1.13388" stroke-linecap="butt" stroke-linejoin="miter" stroke="rgb(81.959534%, 51.371765%, 38.430786%)" stroke-opacity="1" stroke-miterlimit="4" d="M 62.263898 115.949219 L 62.263898 77.582031 " transform="matrix(0.999965, 0, 0, 1, 0, 0)"/>
<path fill-rule="evenodd" fill="rgb(81.959534%, 51.371765%, 38.430786%)" fill-opacity="1" stroke-width="0.302368" stroke-linecap="butt" stroke-linejoin="round" stroke="rgb(81.959534%, 51.371765%, 38.430786%)" stroke-opacity="1" stroke-miterlimit="4" d="M 78.941406 -62.263898 L 80.074219 -63.39675 L 76.105469 -62.263898 L 80.074219 -61.131046 Z M 78.941406 -62.263898 " transform="matrix(0, 1, -0.999965, 0, 0, 0)"/>
<path fill="none" stroke-width="1.13388" stroke-linecap="butt" stroke-linejoin="miter" stroke="rgb(81.959534%, 51.371765%, 38.430786%)" stroke-opacity="1" stroke-miterlimit="4" d="M 78.151173 115.949219 L 78.151173 77.582031 " transform="matrix(0.999965, 0, 0, 1, 0, 0)"/>
<path fill-rule="evenodd" fill="rgb(81.959534%, 51.371765%, 38.430786%)" fill-opacity="1" stroke-width="0.302368" stroke-linecap="butt" stroke-linejoin="round" stroke="rgb(81.959534%, 51.371765%, 38.430786%)" stroke-opacity="1" stroke-miterlimit="4" d="M 78.941406 -78.151173 L 80.074219 -79.287931 L 76.105469 -78.151173 L 80.074219 -77.018321 Z M 78.941406 -78.151173 " transform="matrix(0, 1, -0.999965, 0, 0, 0)"/>
<path fill="none" stroke-width="1.13388" stroke-linecap="butt" stroke-linejoin="miter" stroke="rgb(81.959534%, 51.371765%, 38.430786%)" stroke-opacity="1" stroke-miterlimit="4" d="M 64.260062 115.949219 L 64.260062 77.582031 " transform="matrix(0.999965, 0, 0, 1, 0, 0)"/>
<path fill-rule="evenodd" fill="rgb(81.959534%, 51.371765%, 38.430786%)" fill-opacity="1" stroke-width="0.302368" stroke-linecap="butt" stroke-linejoin="round" stroke="rgb(81.959534%, 51.371765%, 38.430786%)" stroke-opacity="1" stroke-miterlimit="4" d="M 78.941406 -64.260062 L 80.074219 -65.392914 L 76.105469 -64.260062 L 80.074219 -63.123303 Z M 78.941406 -64.260062 " transform="matrix(0, 1, -0.999965, 0, 0, 0)"/>
<path fill="none" stroke-width="1.13388" stroke-linecap="butt" stroke-linejoin="miter" stroke="rgb(81.959534%, 51.371765%, 38.430786%)" stroke-opacity="1" stroke-miterlimit="4" d="M 39.138089 115.949219 L 39.138089 77.582031 " transform="matrix(0.999965, 0, 0, 1, 0, 0)"/>
<path fill-rule="evenodd" fill="rgb(81.959534%, 51.371765%, 38.430786%)" fill-opacity="1" stroke-width="0.302368" stroke-linecap="butt" stroke-linejoin="round" stroke="rgb(81.959534%, 51.371765%, 38.430786%)" stroke-opacity="1" stroke-miterlimit="4" d="M 78.941406 -39.138089 L 80.074219 -40.274847 L 76.105469 -39.138089 L 80.074219 -38.005236 Z M 78.941406 -39.138089 " transform="matrix(0, 1, -0.999965, 0, 0, 0)"/>
<path fill="none" stroke-width="1.13388" stroke-linecap="butt" stroke-linejoin="miter" stroke="rgb(81.959534%, 51.371765%, 38.430786%)" stroke-opacity="1" stroke-miterlimit="4" d="M 73.865867 115.949219 L 73.865867 77.582031 " transform="matrix(0.999965, 0, 0, 1, 0, 0)"/>
<path fill-rule="evenodd" fill="rgb(81.959534%, 51.371765%, 38.430786%)" fill-opacity="1" stroke-width="0.302368" stroke-linecap="butt" stroke-linejoin="round" stroke="rgb(81.959534%, 51.371765%, 38.430786%)" stroke-opacity="1" stroke-miterlimit="4" d="M 78.941406 -73.865867 L 80.074219 -74.998719 L 76.105469 -73.865867 L 80.074219 -72.729108 Z M 78.941406 -73.865867 " transform="matrix(0, 1, -0.999965, 0, 0, 0)"/>
<path fill="none" stroke-width="1.13388" stroke-linecap="butt" stroke-linejoin="miter" stroke="rgb(62.744141%, 85.096741%, 82.743835%)" stroke-opacity="1" stroke-miterlimit="4" d="M 120.398745 115.949219 L 120.398745 77.582031 " transform="matrix(0.999965, 0, 0, 1, 0, 0)"/>
<path fill-rule="evenodd" fill="rgb(62.744141%, 85.096741%, 82.743835%)" fill-opacity="1" stroke-width="0.302368" stroke-linecap="butt" stroke-linejoin="round" stroke="rgb(62.744141%, 85.096741%, 82.743835%)" stroke-opacity="1" stroke-miterlimit="4" d="M 78.941406 -120.398745 L 80.074219 -121.531597 L 76.105469 -120.398745 L 80.074219 -119.261987 Z M 78.941406 -120.398745 " transform="matrix(0, 1, -0.999965, 0, 0, 0)"/>
<path fill="none" stroke-width="1.13388" stroke-linecap="butt" stroke-linejoin="miter" stroke="rgb(62.744141%, 85.096741%, 82.743835%)" stroke-opacity="1" stroke-miterlimit="4" d="M 115.125123 115.949219 L 115.125123 77.582031 " transform="matrix(0.999965, 0, 0, 1, 0, 0)"/>
<path fill-rule="evenodd" fill="rgb(62.744141%, 85.096741%, 82.743835%)" fill-opacity="1" stroke-width="0.302368" stroke-linecap="butt" stroke-linejoin="round" stroke="rgb(62.744141%, 85.096741%, 82.743835%)" stroke-opacity="1" stroke-miterlimit="4" d="M 78.941406 -115.125123 L 80.074219 -116.257975 L 76.105469 -115.125123 L 80.074219 -113.992271 Z M 78.941406 -115.125123 " transform="matrix(0, 1, -0.999965, 0, 0, 0)"/>
<path fill="none" stroke-width="1.13388" stroke-linecap="butt" stroke-linejoin="miter" stroke="rgb(62.744141%, 85.096741%, 82.743835%)" stroke-opacity="1" stroke-miterlimit="4" d="M 117.004095 115.949219 L 117.004095 77.582031 " transform="matrix(0.999965, 0, 0, 1, 0, 0)"/>
<path fill-rule="evenodd" fill="rgb(62.744141%, 85.096741%, 82.743835%)" fill-opacity="1" stroke-width="0.302368" stroke-linecap="butt" stroke-linejoin="round" stroke="rgb(62.744141%, 85.096741%, 82.743835%)" stroke-opacity="1" stroke-miterlimit="4" d="M 78.941406 -117.004095 L 80.074219 -118.136947 L 76.105469 -117.004095 L 80.074219 -115.871243 Z M 78.941406 -117.004095 " transform="matrix(0, 1, -0.999965, 0, 0, 0)"/>
<path fill="none" stroke-width="1.13388" stroke-linecap="butt" stroke-linejoin="miter" stroke="rgb(62.744141%, 85.096741%, 82.743835%)" stroke-opacity="1" stroke-miterlimit="4" d="M 126.563023 115.949219 L 126.563023 77.582031 " transform="matrix(0.999965, 0, 0, 1, 0, 0)"/>
<path fill-rule="evenodd" fill="rgb(62.744141%, 85.096741%, 82.743835%)" fill-opacity="1" stroke-width="0.302368" stroke-linecap="butt" stroke-linejoin="round" stroke="rgb(62.744141%, 85.096741%, 82.743835%)" stroke-opacity="1" stroke-miterlimit="4" d="M 78.941406 -126.563023 L 80.074219 -127.695876 L 76.105469 -126.563023 L 80.074219 -125.426265 Z M 78.941406 -126.563023 " transform="matrix(0, 1, -0.999965, 0, 0, 0)"/>
<path fill="none" stroke-width="1.13388" stroke-linecap="butt" stroke-linejoin="miter" stroke="rgb(62.744141%, 85.096741%, 82.743835%)" stroke-opacity="1" stroke-miterlimit="4" d="M 131.231156 115.949219 L 131.231156 77.582031 " transform="matrix(0.999965, 0, 0, 1, 0, 0)"/>
<path fill-rule="evenodd" fill="rgb(62.744141%, 85.096741%, 82.743835%)" fill-opacity="1" stroke-width="0.302368" stroke-linecap="butt" stroke-linejoin="round" stroke="rgb(62.744141%, 85.096741%, 82.743835%)" stroke-opacity="1" stroke-miterlimit="4" d="M 78.941406 -131.231156 L 80.074219 -132.364008 L 76.105469 -131.231156 L 80.074219 -130.098303 Z M 78.941406 -131.231156 " transform="matrix(0, 1, -0.999965, 0, 0, 0)"/>
<path fill="none" stroke-width="1.13388" stroke-linecap="butt" stroke-linejoin="miter" stroke="rgb(62.744141%, 85.096741%, 82.743835%)" stroke-opacity="1" stroke-miterlimit="4" d="M 146.966081 115.949219 L 146.966081 77.582031 " transform="matrix(0.999965, 0, 0, 1, 0, 0)"/>
<path fill-rule="evenodd" fill="rgb(62.744141%, 85.096741%, 82.743835%)" fill-opacity="1" stroke-width="0.302368" stroke-linecap="butt" stroke-linejoin="round" stroke="rgb(62.744141%, 85.096741%, 82.743835%)" stroke-opacity="1" stroke-miterlimit="4" d="M 78.941406 -146.966081 L 80.074219 -148.098933 L 76.105469 -146.966081 L 80.074219 -145.833229 Z M 78.941406 -146.966081 " transform="matrix(0, 1, -0.999965, 0, 0, 0)"/>
<path fill="none" stroke-width="1.13388" stroke-linecap="butt" stroke-linejoin="miter" stroke="rgb(62.744141%, 85.096741%, 82.743835%)" stroke-opacity="1" stroke-miterlimit="4" d="M 150.411514 115.949219 L 150.411514 77.582031 " transform="matrix(0.999965, 0, 0, 1, 0, 0)"/>
<path fill-rule="evenodd" fill="rgb(62.744141%, 85.096741%, 82.743835%)" fill-opacity="1" stroke-width="0.302368" stroke-linecap="butt" stroke-linejoin="round" stroke="rgb(62.744141%, 85.096741%, 82.743835%)" stroke-opacity="1" stroke-miterlimit="4" d="M 78.941406 -150.411514 L 80.074219 -151.544367 L 76.105469 -150.411514 L 80.074219 -149.278662 Z M 78.941406 -150.411514 " transform="matrix(0, 1, -0.999965, 0, 0, 0)"/>
<path fill="none" stroke-width="1.13388" stroke-linecap="butt" stroke-linejoin="miter" stroke="rgb(62.744141%, 85.096741%, 82.743835%)" stroke-opacity="1" stroke-miterlimit="4" d="M 152.52487 115.949219 L 152.52487 77.582031 " transform="matrix(0.999965, 0, 0, 1, 0, 0)"/>
<path fill-rule="evenodd" fill="rgb(62.744141%, 85.096741%, 82.743835%)" fill-opacity="1" stroke-width="0.302368" stroke-linecap="butt" stroke-linejoin="round" stroke="rgb(62.744141%, 85.096741%, 82.743835%)" stroke-opacity="1" stroke-miterlimit="4" d="M 78.941406 -152.52487 L 80.074219 -153.657722 L 76.105469 -152.52487 L 80.074219 -151.392017 Z M 78.941406 -152.52487 " transform="matrix(0, 1, -0.999965, 0, 0, 0)"/>
<path fill="none" stroke-width="1.13388" stroke-linecap="butt" stroke-linejoin="miter" stroke="rgb(62.744141%, 85.096741%, 82.743835%)" stroke-opacity="1" stroke-miterlimit="4" d="M 132.860119 115.949219 L 132.860119 77.582031 " transform="matrix(0.999965, 0, 0, 1, 0, 0)"/>
<path fill-rule="evenodd" fill="rgb(62.744141%, 85.096741%, 82.743835%)" fill-opacity="1" stroke-width="0.302368" stroke-linecap="butt" stroke-linejoin="round" stroke="rgb(62.744141%, 85.096741%, 82.743835%)" stroke-opacity="1" stroke-miterlimit="4" d="M 78.941406 -132.860119 L 80.074219 -133.992971 L 76.105469 -132.860119 L 80.074219 -131.727267 Z M 78.941406 -132.860119 " transform="matrix(0, 1, -0.999965, 0, 0, 0)"/>
<path fill-rule="nonzero" fill="rgb(50.195312%, 50.195312%, 50.195312%)" fill-opacity="1" d="M 19.929688 116.015625 C 19.917969 114.851562 19.65625 113.167969 18.183594 113.167969 C 16.710938 113.167969 16.460938 114.875 16.460938 116.015625 C 16.460938 117.167969 16.722656 118.839844 18.183594 118.839844 C 19.644531 118.839844 19.929688 117.167969 19.929688 116.015625 Z M 19.359375 116.015625 C 19.359375 116.773438 19.296875 118.320312 18.183594 118.320312 C 17.066406 118.320312 17.03125 116.746094 17.03125 116.015625 C 17.03125 115.273438 17.054688 113.675781 18.183594 113.675781 C 19.296875 113.675781 19.359375 115.285156 19.359375 116.015625 Z M 19.359375 116.015625 "/>
<path fill-rule="nonzero" fill="rgb(50.195312%, 50.195312%, 50.195312%)" fill-opacity="1" d="M 20.941406 117.921875 L 21.699219 117.921875 L 21.699219 118.730469 L 20.941406 118.730469 Z M 20.941406 117.921875 "/>
<path fill-rule="nonzero" fill="rgb(50.195312%, 50.195312%, 50.195312%)" fill-opacity="1" d="M 26.175781 116.015625 C 26.164062 114.851562 25.902344 113.167969 24.429688 113.167969 C 22.957031 113.167969 22.707031 114.875 22.707031 116.015625 C 22.707031 117.167969 22.96875 118.839844 24.429688 118.839844 C 25.890625 118.839844 26.175781 117.167969 26.175781 116.015625 Z M 25.605469 116.015625 C 25.605469 116.773438 25.542969 118.320312 24.429688 118.320312 C 23.316406 118.320312 23.277344 116.746094 23.277344 116.015625 C 23.277344 115.273438 23.304688 113.675781 24.429688 113.675781 C 25.542969 113.675781 25.605469 115.285156 25.605469 116.015625 Z M 25.605469 116.015625 "/>
<path fill-rule="nonzero" fill="rgb(50.195312%, 50.195312%, 50.195312%)" fill-opacity="1" d="M 18.828125 6.628906 L 18.828125 1.167969 L 18.171875 1.167969 L 17.390625 1.800781 L 17.390625 2.417969 L 18.207031 1.75 L 18.207031 6.628906 Z M 18.828125 6.628906 "/>
<path fill-rule="nonzero" fill="rgb(50.195312%, 50.195312%, 50.195312%)" fill-opacity="1" d="M 20.015625 5.824219 L 20.769531 5.824219 L 20.769531 6.628906 L 20.015625 6.628906 Z M 20.015625 5.824219 "/>
<path fill-rule="nonzero" fill="rgb(50.195312%, 50.195312%, 50.195312%)" fill-opacity="1" d="M 25.246094 3.917969 C 25.234375 2.753906 24.976562 1.070312 23.5 1.070312 C 22.027344 1.070312 21.78125 2.777344 21.78125 3.917969 C 21.78125 5.070312 22.039062 6.742188 23.5 6.742188 C 24.960938 6.742188 25.246094 5.070312 25.246094 3.917969 Z M 24.679688 3.917969 C 24.679688 4.671875 24.617188 6.222656 23.5 6.222656 C 22.386719 6.222656 22.347656 4.648438 22.347656 3.917969 C 22.347656 3.175781 22.375 1.578125 23.5 1.578125 C 24.617188 1.578125 24.679688 3.1875 24.679688 3.917969 Z M 24.679688 3.917969 "/>
<path fill-rule="nonzero" fill="rgb(50.195312%, 50.195312%, 50.195312%)" fill-opacity="1" d="M 27.695312 123.023438 C 27.683594 121.859375 27.421875 120.175781 25.949219 120.175781 C 24.472656 120.175781 24.226562 121.882812 24.226562 123.023438 C 24.226562 124.175781 24.488281 125.847656 25.949219 125.847656 C 27.410156 125.847656 27.695312 124.175781 27.695312 123.023438 Z M 27.125 123.023438 C 27.125 123.78125 27.0625 125.328125 25.949219 125.328125 C 24.832031 125.328125 24.796875 123.753906 24.796875 123.023438 C 24.796875 122.28125 24.820312 120.683594 25.949219 120.683594 C 27.0625 120.683594 27.125 122.292969 27.125 123.023438 Z M 27.125 123.023438 "/>
<path fill-rule="nonzero" fill="rgb(50.195312%, 50.195312%, 50.195312%)" fill-opacity="1" d="M 28.707031 124.929688 L 29.464844 124.929688 L 29.464844 125.738281 L 28.707031 125.738281 Z M 28.707031 124.929688 "/>
<path fill-rule="nonzero" fill="rgb(50.195312%, 50.195312%, 50.195312%)" fill-opacity="1" d="M 33.941406 123.023438 C 33.929688 121.859375 33.667969 120.175781 32.195312 120.175781 C 30.722656 120.175781 30.472656 121.882812 30.472656 123.023438 C 30.472656 124.175781 30.734375 125.847656 32.195312 125.847656 C 33.65625 125.847656 33.941406 124.175781 33.941406 123.023438 Z M 33.371094 123.023438 C 33.371094 123.78125 33.308594 125.328125 32.195312 125.328125 C 31.082031 125.328125 31.042969 123.753906 31.042969 123.023438 C 31.042969 122.28125 31.066406 120.683594 32.195312 120.683594 C 33.308594 120.683594 33.371094 122.292969 33.371094 123.023438 Z M 33.371094 123.023438 "/>
<path fill-rule="nonzero" fill="rgb(50.195312%, 50.195312%, 50.195312%)" fill-opacity="1" d="M 166.128906 125.738281 L 166.128906 120.273438 L 165.472656 120.273438 L 164.695312 120.90625 L 164.695312 121.523438 L 165.511719 120.855469 L 165.511719 125.738281 Z M 166.128906 125.738281 "/>
<path fill-rule="nonzero" fill="rgb(50.195312%, 50.195312%, 50.195312%)" fill-opacity="1" d="M 167.316406 124.929688 L 168.074219 124.929688 L 168.074219 125.738281 L 167.316406 125.738281 Z M 167.316406 124.929688 "/>
<path fill-rule="nonzero" fill="rgb(50.195312%, 50.195312%, 50.195312%)" fill-opacity="1" d="M 172.550781 123.023438 C 172.539062 121.859375 172.277344 120.175781 170.804688 120.175781 C 169.332031 120.175781 169.082031 121.882812 169.082031 123.023438 C 169.082031 124.175781 169.34375 125.847656 170.804688 125.847656 C 172.265625 125.847656 172.550781 124.175781 172.550781 123.023438 Z M 171.980469 123.023438 C 171.980469 123.78125 171.917969 125.328125 170.804688 125.328125 C 169.691406 125.328125 169.652344 123.753906 169.652344 123.023438 C 169.652344 122.28125 169.675781 120.683594 170.804688 120.683594 C 171.917969 120.683594 171.980469 122.292969 171.980469 123.023438 Z M 171.980469 123.023438 "/>
<path fill="none" stroke-width="0.85041" stroke-linecap="butt" stroke-linejoin="round" stroke="rgb(1.176453%, 0%, 0%)" stroke-opacity="1" stroke-miterlimit="4" d="M 29.477594 4.226562 L 168.326204 4.226562 L 168.326204 116.457031 L 29.477594 116.457031 Z M 29.477594 4.226562 " transform="matrix(0.999965, 0, 0, 1, 0, 0)"/>
<path fill-rule="nonzero" fill="rgb(0%, 0%, 0%)" fill-opacity="1" d="M 90.210938 124.003906 C 90.210938 121.683594 89.125 120.773438 86.875 120.773438 L 85.230469 120.773438 L 85.230469 127.25 L 86.875 127.25 C 89.125 127.25 90.210938 126.3125 90.210938 124.003906 Z M 89.535156 124.003906 C 89.535156 125.769531 88.742188 126.605469 87.007812 126.605469 L 85.9375 126.605469 L 85.9375 121.421875 L 87.007812 121.421875 C 88.742188 121.433594 89.535156 122.183594 89.535156 124.003906 Z M 89.535156 124.003906 "/>
<path fill-rule="nonzero" fill="rgb(0%, 0%, 0%)" fill-opacity="1" d="M 94.515625 127.25 L 94.515625 124.84375 C 94.515625 123.625 94.003906 122.917969 92.742188 122.917969 C 92.285156 122.917969 91.726562 123.066406 91.316406 123.210938 L 91.316406 123.902344 C 91.742188 123.667969 92.09375 123.519531 92.683594 123.519531 C 93.355469 123.535156 93.871094 123.875 93.871094 124.578125 L 92.902344 124.578125 C 91.902344 124.578125 91.023438 124.917969 91.023438 126.015625 C 91.050781 126.871094 91.550781 127.367188 92.402344 127.367188 C 93.003906 127.367188 93.546875 127.117188 93.871094 126.691406 L 93.871094 127.25 Z M 93.871094 125.28125 C 93.871094 126.105469 93.488281 126.765625 92.609375 126.765625 C 92.09375 126.765625 91.667969 126.53125 91.667969 125.972656 C 91.667969 125.152344 92.445312 125.152344 93.179688 125.152344 L 93.871094 125.152344 Z M 93.871094 125.28125 "/>
<path fill-rule="nonzero" fill="rgb(0%, 0%, 0%)" fill-opacity="1" d="M 98.027344 127.25 L 98.027344 126.648438 L 97.292969 126.648438 C 96.632812 126.648438 96.515625 126.488281 96.515625 125.871094 L 96.515625 123.578125 L 97.765625 123.578125 L 97.765625 123.023438 L 96.515625 123.023438 L 96.515625 121.816406 L 96.222656 121.816406 L 95.824219 123.023438 L 95.324219 123.023438 L 95.324219 123.578125 L 95.824219 123.578125 L 95.824219 125.871094 C 95.824219 126.929688 96.25 127.25 97.292969 127.25 Z M 98.027344 127.25 "/>
<path fill-rule="nonzero" fill="rgb(0%, 0%, 0%)" fill-opacity="1" d="M 102.140625 127.25 L 102.140625 124.84375 C 102.140625 123.625 101.625 122.917969 100.363281 122.917969 C 99.90625 122.917969 99.347656 123.066406 98.9375 123.210938 L 98.9375 123.902344 C 99.363281 123.667969 99.714844 123.519531 100.304688 123.519531 C 100.980469 123.535156 101.492188 123.875 101.492188 124.578125 L 100.523438 124.578125 C 99.527344 124.578125 98.644531 124.917969 98.644531 126.015625 C 98.675781 126.871094 99.171875 127.367188 100.023438 127.367188 C 100.628906 127.367188 101.171875 127.117188 101.492188 126.691406 L 101.492188 127.25 Z M 101.492188 125.28125 C 101.492188 126.105469 101.113281 126.765625 100.230469 126.765625 C 99.714844 126.765625 99.289062 126.53125 99.289062 125.972656 C 99.289062 125.152344 100.070312 125.152344 100.804688 125.152344 L 101.492188 125.152344 Z M 101.492188 125.28125 "/>
<path fill-rule="nonzero" fill="rgb(0%, 0%, 0%)" fill-opacity="1" d="M 104.289062 126.296875 L 103.4375 126.296875 L 103.4375 126.941406 C 103.496094 127.058594 103.511719 127.175781 103.511719 127.296875 C 103.511719 127.632812 103.335938 127.984375 103.085938 128.148438 C 103.570312 128.132812 104.277344 127.414062 104.289062 126.957031 Z M 104.289062 126.296875 "/>
<path fill-rule="nonzero" fill="rgb(0%, 0%, 0%)" fill-opacity="1" d="M 110.757812 124.417969 C 110.816406 124.183594 111.039062 123.316406 111.683594 123.316406 C 111.726562 123.316406 111.964844 123.316406 112.152344 123.433594 C 111.890625 123.492188 111.714844 123.710938 111.714844 123.945312 C 111.714844 124.09375 111.816406 124.269531 112.066406 124.269531 C 112.273438 124.269531 112.566406 124.109375 112.566406 123.726562 C 112.566406 123.242188 112.023438 123.109375 111.699219 123.109375 C 111.15625 123.109375 110.832031 123.609375 110.714844 123.816406 C 110.480469 123.199219 109.980469 123.109375 109.703125 123.109375 C 108.730469 123.109375 108.1875 124.3125 108.1875 124.550781 C 108.1875 124.652344 108.292969 124.652344 108.304688 124.652344 C 108.378906 124.652344 108.410156 124.621094 108.425781 124.550781 C 108.746094 123.550781 109.363281 123.316406 109.6875 123.316406 C 109.863281 123.316406 110.1875 123.402344 110.1875 123.945312 C 110.1875 124.242188 110.023438 124.855469 109.6875 126.179688 C 109.539062 126.75 109.203125 127.148438 108.792969 127.148438 C 108.730469 127.148438 108.527344 127.148438 108.320312 127.03125 C 108.554688 126.972656 108.761719 126.78125 108.761719 126.515625 C 108.761719 126.265625 108.554688 126.195312 108.425781 126.195312 C 108.128906 126.195312 107.910156 126.429688 107.910156 126.738281 C 107.910156 127.164062 108.363281 127.355469 108.777344 127.355469 C 109.40625 127.355469 109.746094 126.691406 109.761719 126.648438 C 109.878906 126.988281 110.214844 127.355469 110.773438 127.355469 C 111.742188 127.355469 112.273438 126.148438 112.273438 125.914062 C 112.273438 125.8125 112.199219 125.8125 112.167969 125.8125 C 112.082031 125.8125 112.066406 125.855469 112.035156 125.914062 C 111.726562 126.929688 111.097656 127.148438 110.804688 127.148438 C 110.4375 127.148438 110.289062 126.855469 110.289062 126.53125 C 110.289062 126.324219 110.332031 126.121094 110.4375 125.710938 Z M 110.757812 124.417969 "/>
<path fill-rule="nonzero" fill="rgb(25.489807%, 64.312744%, 59.999084%)" fill-opacity="1" d="M 132.113281 70.664062 C 131.554688 70.03125 131.441406 68.570312 130.636719 68.074219 C 131.503906 67.839844 131.652344 67.394531 131.652344 66.75 C 131.652344 65.660156 131.023438 65.199219 129.980469 65.199219 L 128.445312 65.199219 L 128.445312 70.664062 L 129.039062 70.664062 L 129.039062 68.320312 L 129.90625 68.320312 C 130.265625 68.320312 130.574219 68.632812 130.871094 69.25 C 131.058594 69.734375 131.109375 70.316406 131.492188 70.664062 Z M 131.070312 66.75 C 131.070312 67.441406 130.648438 67.777344 129.980469 67.777344 L 129.039062 67.777344 L 129.039062 65.746094 L 129.980469 65.746094 C 130.636719 65.757812 131.070312 66.019531 131.070312 66.75 Z M 131.070312 66.75 "/>
<path fill-rule="nonzero" fill="rgb(25.489807%, 64.312744%, 59.999084%)" fill-opacity="1" d="M 135.691406 68.878906 L 135.691406 68.816406 C 135.691406 67.789062 135.269531 67.035156 134.09375 67.007812 C 133.039062 67.007812 132.445312 67.925781 132.445312 68.917969 C 132.445312 69.992188 133.101562 70.761719 134.191406 70.761719 C 134.6875 70.761719 135.132812 70.652344 135.566406 70.488281 L 135.566406 69.894531 C 134.996094 70.167969 134.910156 70.230469 134.242188 70.230469 C 133.496094 70.230469 133.050781 69.785156 133.050781 68.941406 L 133.050781 68.878906 Z M 135.109375 68.394531 L 133.078125 68.394531 C 133.152344 67.925781 133.496094 67.515625 134.09375 67.515625 C 134.710938 67.515625 135.109375 67.902344 135.109375 68.394531 Z M 135.109375 68.394531 "/>
<path fill-rule="nonzero" fill="rgb(25.489807%, 64.312744%, 59.999084%)" fill-opacity="1" d="M 139.285156 70.664062 L 139.285156 68.632812 C 139.285156 67.601562 138.851562 67.007812 137.785156 67.007812 C 137.402344 67.007812 136.933594 67.132812 136.585938 67.257812 L 136.585938 67.839844 C 136.945312 67.640625 137.242188 67.515625 137.738281 67.515625 C 138.308594 67.527344 138.742188 67.8125 138.742188 68.410156 L 137.921875 68.410156 C 137.082031 68.410156 136.335938 68.695312 136.335938 69.621094 C 136.363281 70.339844 136.785156 70.761719 137.5 70.761719 C 138.007812 70.761719 138.46875 70.550781 138.742188 70.191406 L 138.742188 70.664062 Z M 138.742188 69.003906 C 138.742188 69.695312 138.417969 70.253906 137.675781 70.253906 C 137.242188 70.253906 136.882812 70.054688 136.882812 69.585938 C 136.882812 68.890625 137.539062 68.890625 138.160156 68.890625 L 138.742188 68.890625 Z M 138.742188 69.003906 "/>
<path fill-rule="nonzero" fill="rgb(25.489807%, 64.312744%, 59.999084%)" fill-opacity="1" d="M 140.246094 65.199219 L 140.828125 65.199219 L 140.828125 70.664062 L 140.246094 70.664062 Z M 140.246094 65.199219 "/>
<path fill-rule="nonzero" fill="rgb(0%, 0%, 0%)" fill-opacity="1" d="M 18.210938 73.796875 L 18.210938 72.195312 C 18.210938 70.875 17.242188 69.566406 16.199219 69.566406 C 15.464844 69.566406 14.773438 70.183594 14.773438 71.417969 L 14.773438 74.441406 C 14.773438 74.621094 14.773438 74.722656 14.949219 74.722656 C 15.066406 74.722656 15.066406 74.648438 15.066406 74.457031 C 15.066406 74.339844 15.082031 74.164062 15.082031 74.0625 C 15.113281 73.898438 15.125 73.855469 15.242188 73.855469 C 15.273438 73.855469 15.300781 73.855469 15.421875 73.886719 L 20.441406 75.148438 C 20.808594 75.234375 20.882812 75.25 20.882812 76 C 20.882812 76.148438 20.882812 76.25 21.058594 76.25 C 21.175781 76.25 21.175781 76.148438 21.175781 76.117188 C 21.175781 75.851562 21.148438 75.191406 21.148438 74.925781 C 21.148438 74.722656 21.164062 74.515625 21.164062 74.324219 C 21.164062 74.121094 21.175781 73.914062 21.175781 73.722656 C 21.175781 73.648438 21.175781 73.53125 20.984375 73.53125 C 20.882812 73.53125 20.882812 73.621094 20.882812 73.796875 C 20.882812 74.132812 20.882812 74.398438 20.722656 74.398438 C 20.664062 74.398438 20.617188 74.382812 20.558594 74.371094 Z M 15.421875 73.121094 C 15.097656 73.03125 15.066406 73.019531 15.066406 72.605469 L 15.066406 71.710938 C 15.066406 70.933594 15.316406 70.433594 15.964844 70.433594 C 16.332031 70.433594 17.136719 70.625 17.476562 70.992188 C 17.902344 71.460938 17.976562 72.019531 17.976562 72.429688 L 17.976562 73.753906 Z M 15.421875 73.121094 "/>
<path fill-rule="nonzero" fill="rgb(0%, 0%, 0%)" fill-opacity="1" d="M 20.617188 68.496094 C 20.765625 68.523438 20.984375 68.582031 21.03125 68.582031 C 21.191406 68.582031 21.28125 68.453125 21.28125 68.304688 C 21.28125 68.1875 21.207031 68.027344 21.015625 67.953125 C 20.984375 67.9375 19.707031 67.628906 19.53125 67.585938 C 19.222656 67.511719 18.578125 67.335938 18.3125 67.292969 C 18.195312 67.246094 17.753906 66.984375 17.550781 66.761719 C 17.492188 66.6875 17.242188 66.410156 17.242188 66.011719 C 17.242188 65.765625 17.359375 65.632812 17.359375 65.617188 C 17.402344 65.894531 17.625 66.101562 17.871094 66.101562 C 18.019531 66.101562 18.195312 66 18.195312 65.75 C 18.195312 65.5 17.976562 65.234375 17.636719 65.234375 C 17.316406 65.234375 17.035156 65.527344 17.035156 66.011719 C 17.035156 66.617188 17.492188 67.027344 17.753906 67.203125 C 17.328125 67.292969 17.035156 67.628906 17.035156 68.070312 C 17.035156 68.496094 17.402344 68.671875 17.5625 68.761719 C 17.886719 68.921875 18.445312 69.039062 18.476562 69.039062 C 18.578125 69.039062 18.578125 68.949219 18.578125 68.9375 C 18.578125 68.832031 18.5625 68.832031 18.355469 68.773438 C 17.695312 68.613281 17.242188 68.421875 17.242188 68.085938 C 17.242188 67.9375 17.316406 67.804688 17.667969 67.804688 C 17.871094 67.804688 17.976562 67.835938 18.460938 67.953125 Z M 20.617188 68.496094 "/>
<path fill-rule="nonzero" fill="rgb(0%, 0%, 0%)" fill-opacity="1" d="M 23.425781 61.734375 C 23.394531 61.734375 23.378906 61.734375 23.21875 61.894531 C 22.042969 63.054688 20.265625 63.363281 18.828125 63.363281 C 17.195312 63.363281 15.566406 63.011719 14.40625 61.851562 C 14.289062 61.734375 14.273438 61.734375 14.246094 61.734375 C 14.171875 61.734375 14.140625 61.765625 14.140625 61.824219 C 14.140625 61.925781 14.789062 62.761719 15.976562 63.320312 C 17.007812 63.789062 18.050781 63.90625 18.828125 63.90625 C 19.5625 63.90625 20.691406 63.804688 21.765625 63.292969 C 22.910156 62.71875 23.527344 61.925781 23.527344 61.824219 C 23.527344 61.765625 23.496094 61.734375 23.425781 61.734375 Z M 23.425781 61.734375 "/>
<path fill-rule="nonzero" fill="rgb(0%, 0%, 0%)" fill-opacity="1" d="M 17.800781 58.195312 L 17.125 57.976562 C 17.007812 58.078125 16.890625 58.535156 16.890625 58.84375 C 16.902344 59.28125 17.125 59.648438 17.519531 59.839844 L 16.949219 59.839844 L 16.949219 60.546875 L 21.175781 60.546875 L 21.175781 59.839844 L 18.945312 59.839844 C 18.929688 59.839844 18.914062 59.839844 18.914062 59.839844 C 18.296875 59.839844 17.492188 59.519531 17.492188 58.855469 L 17.492188 58.8125 C 17.492188 58.59375 17.625 58.417969 17.800781 58.195312 Z M 17.800781 58.195312 "/>
<path fill-rule="nonzero" fill="rgb(0%, 0%, 0%)" fill-opacity="1" d="M 19.0625 53.867188 L 18.988281 53.867188 C 17.769531 53.867188 16.875 54.363281 16.84375 55.761719 C 16.84375 57.007812 17.929688 57.714844 19.105469 57.714844 C 20.382812 57.714844 21.292969 56.933594 21.292969 55.644531 C 21.292969 55.054688 21.164062 54.527344 20.972656 54.011719 L 20.265625 54.011719 C 20.589844 54.6875 20.664062 54.789062 20.664062 55.582031 C 20.664062 56.464844 20.132812 56.992188 19.136719 56.992188 L 19.0625 56.992188 Z M 18.488281 54.554688 L 18.488281 56.964844 C 17.929688 56.875 17.445312 56.464844 17.445312 55.761719 C 17.445312 55.027344 17.902344 54.554688 18.488281 54.554688 Z M 18.488281 54.554688 "/>
<path fill-rule="nonzero" fill="rgb(0%, 0%, 0%)" fill-opacity="1" d="M 21.175781 49.601562 L 18.769531 49.601562 C 17.550781 49.601562 16.84375 50.117188 16.84375 51.378906 C 16.84375 51.835938 16.992188 52.394531 17.136719 52.804688 L 17.828125 52.804688 C 17.59375 52.378906 17.445312 52.027344 17.445312 51.4375 C 17.460938 50.761719 17.800781 50.25 18.503906 50.25 L 18.503906 51.21875 C 18.503906 52.21875 18.84375 53.097656 19.945312 53.097656 C 20.796875 53.070312 21.292969 52.570312 21.292969 51.71875 C 21.292969 51.117188 21.046875 50.570312 20.617188 50.25 L 21.175781 50.25 Z M 19.210938 50.25 C 20.03125 50.25 20.691406 50.632812 20.691406 51.511719 C 20.691406 52.027344 20.457031 52.453125 19.898438 52.453125 C 19.078125 52.453125 19.078125 51.671875 19.078125 50.9375 L 19.078125 50.25 Z M 19.210938 50.25 "/>
<path fill-rule="nonzero" fill="rgb(0%, 0%, 0%)" fill-opacity="1" d="M 14.699219 47.777344 L 21.175781 47.777344 L 21.175781 48.464844 L 14.699219 48.464844 Z M 14.699219 47.777344 "/>
<path fill-rule="nonzero" fill="rgb(0%, 0%, 0%)" fill-opacity="1" d="M 18.828125 44.433594 C 18.109375 44.433594 16.976562 44.535156 15.90625 45.050781 C 14.757812 45.609375 14.140625 46.417969 14.140625 46.503906 C 14.140625 46.5625 14.1875 46.609375 14.246094 46.609375 C 14.273438 46.609375 14.289062 46.609375 14.464844 46.429688 C 15.390625 45.507812 16.875 44.976562 18.828125 44.976562 C 20.441406 44.976562 22.085938 45.316406 23.261719 46.476562 C 23.378906 46.609375 23.394531 46.609375 23.425781 46.609375 C 23.484375 46.609375 23.527344 46.5625 23.527344 46.503906 C 23.527344 46.417969 22.878906 45.566406 21.691406 45.023438 C 20.664062 44.535156 19.621094 44.433594 18.828125 44.433594 Z M 18.828125 44.433594 "/>
<path fill-rule="nonzero" fill="rgb(81.959534%, 51.371765%, 38.430786%)" fill-opacity="1" d="M 43.023438 69.277344 C 43.023438 68.296875 42.429688 67.863281 41.550781 67.664062 L 41.105469 67.589844 C 40.535156 67.46875 40.066406 67.320312 40.066406 66.6875 C 40.078125 65.96875 40.660156 65.734375 41.328125 65.734375 C 41.933594 65.734375 42.21875 65.882812 42.726562 66.128906 L 42.726562 65.484375 C 42.332031 65.3125 41.710938 65.199219 41.253906 65.199219 C 40.25 65.199219 39.507812 65.671875 39.507812 66.75 C 39.507812 67.703125 40.066406 68.023438 40.957031 68.222656 L 41.363281 68.296875 C 41.984375 68.457031 42.429688 68.644531 42.429688 69.335938 C 42.429688 70.066406 41.75 70.339844 41.105469 70.339844 C 40.484375 70.339844 39.976562 70.128906 39.496094 69.808594 L 39.496094 70.527344 C 40.003906 70.699219 40.546875 70.875 41.105469 70.875 C 42.171875 70.875 43.023438 70.464844 43.023438 69.277344 Z M 43.023438 69.277344 "/>
<path fill-rule="nonzero" fill="rgb(81.959534%, 51.371765%, 38.430786%)" fill-opacity="1" d="M 46.902344 67.195312 L 46.359375 67.195312 L 45.257812 69.808594 L 43.96875 67.195312 L 43.410156 67.195312 L 44.960938 70.390625 L 44.351562 71.828125 C 44.253906 72.074219 43.917969 72.261719 43.757812 72.261719 L 43.957031 72.667969 C 44.253906 72.644531 44.5625 72.433594 44.761719 72.125 Z M 46.902344 67.195312 "/>
<path fill-rule="nonzero" fill="rgb(81.959534%, 51.371765%, 38.430786%)" fill-opacity="1" d="M 50.648438 70.761719 L 50.648438 68.605469 C 50.648438 67.765625 50.289062 67.109375 49.371094 67.109375 C 48.914062 67.109375 48.441406 67.28125 48.15625 67.679688 L 48.15625 67.195312 L 47.574219 67.195312 L 47.574219 70.761719 L 48.15625 70.761719 L 48.15625 68.742188 C 48.183594 68.0625 48.605469 67.628906 49.234375 67.628906 C 49.855469 67.628906 50.078125 68 50.078125 68.632812 L 50.078125 70.761719 Z M 50.648438 70.761719 "/>
<path fill-rule="nonzero" fill="rgb(81.959534%, 51.371765%, 38.430786%)" fill-opacity="1" d="M 53.683594 70.761719 L 53.683594 70.253906 L 53.066406 70.253906 C 52.507812 70.253906 52.410156 70.117188 52.410156 69.597656 L 52.410156 67.664062 L 53.460938 67.664062 L 53.460938 67.195312 L 52.410156 67.195312 L 52.410156 66.179688 L 52.160156 66.179688 L 51.828125 67.195312 L 51.40625 67.195312 L 51.40625 67.664062 L 51.828125 67.664062 L 51.828125 69.597656 C 51.828125 70.488281 52.1875 70.761719 53.066406 70.761719 Z M 53.683594 70.761719 "/>
<path fill-rule="nonzero" fill="rgb(81.959534%, 51.371765%, 38.430786%)" fill-opacity="1" d="M 57.390625 70.761719 L 57.390625 68.59375 C 57.390625 67.765625 57.019531 67.109375 56.117188 67.109375 C 55.632812 67.109375 55.175781 67.257812 54.902344 67.691406 L 54.902344 65.300781 L 54.320312 65.300781 L 54.320312 70.761719 L 54.902344 70.761719 L 54.902344 68.742188 C 54.925781 68.0625 55.386719 67.628906 55.980469 67.628906 C 56.613281 67.640625 56.824219 68 56.824219 68.632812 L 56.824219 70.761719 Z M 57.390625 70.761719 "/>
<path fill-rule="nonzero" fill="rgb(81.959534%, 51.371765%, 38.430786%)" fill-opacity="1" d="M 61.496094 68.976562 L 61.496094 68.917969 C 61.496094 67.886719 61.074219 67.132812 59.898438 67.109375 C 58.84375 67.109375 58.25 68.023438 58.25 69.015625 C 58.25 70.09375 58.90625 70.859375 59.996094 70.859375 C 60.492188 70.859375 60.9375 70.75 61.371094 70.589844 L 61.371094 69.992188 C 60.800781 70.265625 60.714844 70.328125 60.046875 70.328125 C 59.300781 70.328125 58.855469 69.882812 58.855469 69.039062 L 58.855469 68.976562 Z M 60.914062 68.496094 L 58.878906 68.496094 C 58.957031 68.023438 59.300781 67.617188 59.898438 67.617188 C 60.515625 67.617188 60.914062 68 60.914062 68.496094 Z M 60.914062 68.496094 "/>
<path fill-rule="nonzero" fill="rgb(81.959534%, 51.371765%, 38.430786%)" fill-opacity="1" d="M 64.964844 69.769531 C 64.964844 69.066406 64.484375 68.84375 63.839844 68.71875 L 63.589844 68.667969 C 63.242188 68.59375 62.734375 68.519531 62.734375 68.136719 C 62.761719 67.691406 63.28125 67.601562 63.675781 67.601562 C 64.308594 67.628906 64.257812 67.664062 64.792969 67.886719 L 64.792969 67.304688 C 64.457031 67.171875 64.035156 67.109375 63.601562 67.109375 C 62.898438 67.109375 62.203125 67.367188 62.203125 68.160156 C 62.214844 68.804688 62.648438 69.050781 63.242188 69.164062 L 63.46875 69.214844 C 63.898438 69.3125 64.394531 69.363281 64.394531 69.820312 C 64.371094 70.265625 63.863281 70.351562 63.46875 70.351562 C 62.808594 70.339844 62.710938 70.265625 62.140625 69.992188 L 62.140625 70.636719 C 62.476562 70.726562 63.058594 70.859375 63.453125 70.859375 C 64.148438 70.859375 64.964844 70.601562 64.964844 69.769531 Z M 64.964844 69.769531 "/>
<path fill-rule="nonzero" fill="rgb(81.959534%, 51.371765%, 38.430786%)" fill-opacity="1" d="M 66.429688 70.761719 L 66.429688 67.195312 L 65.835938 67.195312 L 65.835938 70.761719 Z M 66.132812 65.300781 C 65.945312 65.300781 65.785156 65.472656 65.785156 65.660156 C 65.785156 65.855469 65.945312 66.03125 66.132812 66.03125 C 66.332031 66.03125 66.480469 65.855469 66.480469 65.660156 C 66.480469 65.472656 66.332031 65.300781 66.132812 65.300781 Z M 66.132812 65.300781 "/>
<path fill-rule="nonzero" fill="rgb(81.959534%, 51.371765%, 38.430786%)" fill-opacity="1" d="M 70.21875 70.761719 L 70.21875 70.242188 L 67.949219 70.242188 L 70.21875 67.789062 L 70.21875 67.195312 L 67.332031 67.195312 L 67.332031 67.714844 L 69.523438 67.714844 L 67.257812 70.167969 L 67.257812 70.761719 Z M 70.21875 70.761719 "/>
<path fill-rule="nonzero" fill="rgb(81.959534%, 51.371765%, 38.430786%)" fill-opacity="1" d="M 73.972656 68.976562 L 73.972656 68.917969 C 73.972656 67.886719 73.550781 67.132812 72.375 67.109375 C 71.320312 67.109375 70.726562 68.023438 70.726562 69.015625 C 70.726562 70.09375 71.382812 70.859375 72.472656 70.859375 C 72.96875 70.859375 73.414062 70.75 73.847656 70.589844 L 73.847656 69.992188 C 73.277344 70.265625 73.191406 70.328125 72.523438 70.328125 C 71.78125 70.328125 71.335938 69.882812 71.335938 69.039062 L 71.335938 68.976562 Z M 73.390625 68.496094 L 71.359375 68.496094 C 71.433594 68.023438 71.78125 67.617188 72.375 67.617188 C 72.992188 67.617188 73.390625 68 73.390625 68.496094 Z M 73.390625 68.496094 "/>
<path fill-rule="nonzero" fill="rgb(81.959534%, 51.371765%, 38.430786%)" fill-opacity="1" d="M 74.632812 68.976562 C 74.632812 70.03125 75.324219 70.761719 76.390625 70.761719 L 77.902344 70.761719 L 77.902344 65.300781 L 77.308594 65.300781 L 77.308594 67.195312 L 76.441406 67.195312 C 75.277344 67.195312 74.632812 67.914062 74.632812 68.976562 Z M 75.203125 68.976562 C 75.203125 68.285156 75.648438 67.714844 76.441406 67.714844 L 77.308594 67.714844 L 77.308594 70.242188 L 76.441406 70.242188 C 75.660156 70.242188 75.203125 69.746094 75.203125 68.976562 Z M 75.203125 68.976562 "/>
</svg>
