<?xml version="1.0" encoding="UTF-8"?>
<svg xmlns="http://www.w3.org/2000/svg" xmlns:xlink="http://www.w3.org/1999/xlink" width="452.820099pt" height="167.463364pt" viewBox="0 0 452.820099 167.463364">
<defs>
<clipPath id="clip-0">
<path clip-rule="nonzero" d="M 79 156 L 88 156 L 88 167.464844 L 79 167.464844 Z M 79 156 "/>
</clipPath>
<clipPath id="clip-1">
<path clip-rule="nonzero" d="M 229 156 L 238 156 L 238 167.464844 L 229 167.464844 Z M 229 156 "/>
</clipPath>
<clipPath id="clip-2">
<path clip-rule="nonzero" d="M 379 156 L 388 156 L 388 167.464844 L 379 167.464844 Z M 379 156 "/>
</clipPath>
<clipPath id="clip-3">
<path clip-rule="nonzero" d="M 303 29 L 452.820312 29 L 452.820312 148 L 303 148 Z M 303 29 "/>
</clipPath>
<clipPath id="clip-4">
<path clip-rule="nonzero" d="M 314 13 L 452.820312 13 L 452.820312 155 L 314 155 Z M 314 13 "/>
</clipPath>
</defs>
<path fill-rule="nonzero" fill="rgb(0%, 0%, 0%)" fill-opacity="1" d="M 9.480469 106.035156 L 8.570312 106.035156 L 8.570312 110.074219 L 0.753906 110.074219 L 0.753906 111.042969 L 9.480469 111.042969 Z M 9.480469 106.035156 "/>
<path fill-rule="nonzero" fill="rgb(0%, 0%, 0%)" fill-opacity="1" d="M 6.628906 100.046875 C 5.1875 100.046875 3.640625 100.816406 3.640625 102.71875 C 3.640625 104.4375 4.96875 105.410156 6.628906 105.410156 C 8.195312 105.410156 9.597656 104.398438 9.640625 102.71875 C 9.597656 101.015625 8.234375 100.046875 6.628906 100.046875 Z M 6.628906 100.976562 C 7.757812 100.976562 8.769531 101.667969 8.769531 102.71875 C 8.75 104.140625 7.480469 104.457031 6.609375 104.457031 C 5.460938 104.457031 4.511719 103.90625 4.492188 102.71875 C 4.511719 101.609375 5.542969 100.976562 6.628906 100.976562 Z M 6.628906 100.976562 "/>
<path fill-rule="nonzero" fill="rgb(0%, 0%, 0%)" fill-opacity="1" d="M 7.898438 94.386719 C 6.769531 94.386719 6.414062 95.15625 6.214844 96.1875 L 6.136719 96.582031 C 6.015625 97.136719 5.898438 97.949219 5.285156 97.949219 C 4.570312 97.910156 4.433594 97.078125 4.433594 96.445312 C 4.472656 95.433594 4.53125 95.515625 4.890625 94.664062 L 3.957031 94.664062 C 3.742188 95.199219 3.640625 95.871094 3.640625 96.5625 C 3.640625 97.691406 4.058594 98.800781 5.324219 98.800781 C 6.351562 98.78125 6.75 98.085938 6.925781 97.136719 L 7.007812 96.78125 C 7.164062 96.089844 7.242188 95.296875 7.976562 95.296875 C 8.6875 95.335938 8.828125 96.148438 8.828125 96.78125 C 8.808594 97.828125 8.6875 97.988281 8.253906 98.898438 L 9.28125 98.898438 C 9.421875 98.363281 9.640625 97.433594 9.640625 96.800781 C 9.640625 95.691406 9.222656 94.386719 7.898438 94.386719 Z M 7.898438 94.386719 "/>
<path fill-rule="nonzero" fill="rgb(0%, 0%, 0%)" fill-opacity="1" d="M 7.898438 88.972656 C 6.769531 88.972656 6.414062 89.742188 6.214844 90.773438 L 6.136719 91.167969 C 6.015625 91.722656 5.898438 92.535156 5.285156 92.535156 C 4.570312 92.496094 4.433594 91.664062 4.433594 91.03125 C 4.472656 90.019531 4.53125 90.101562 4.890625 89.25 L 3.957031 89.25 C 3.742188 89.785156 3.640625 90.457031 3.640625 91.148438 C 3.640625 92.277344 4.058594 93.386719 5.324219 93.386719 C 6.351562 93.367188 6.75 92.671875 6.925781 91.722656 L 7.007812 91.367188 C 7.164062 90.675781 7.242188 89.882812 7.976562 89.882812 C 8.6875 89.921875 8.828125 90.734375 8.828125 91.367188 C 8.808594 92.414062 8.6875 92.574219 8.253906 93.484375 L 9.28125 93.484375 C 9.421875 92.949219 9.640625 92.019531 9.640625 91.386719 C 9.640625 90.277344 9.222656 88.972656 7.898438 88.972656 Z M 7.898438 88.972656 "/>
<path fill-rule="nonzero" fill="rgb(0%, 0%, 0%)" fill-opacity="1" d="M 8.195312 86.355469 L 8.195312 87.503906 L 9.066406 87.503906 C 9.222656 87.425781 9.382812 87.40625 9.539062 87.40625 C 9.996094 87.40625 10.46875 87.640625 10.6875 87.980469 C 10.667969 87.324219 9.699219 86.375 9.085938 86.355469 Z M 8.195312 86.355469 "/>
<path fill-rule="nonzero" fill="rgb(0%, 0%, 0%)" fill-opacity="1" d="M 1.839844 77.125 C 1.386719 77.023438 1.246094 76.984375 1.246094 75.796875 C 1.246094 75.421875 1.246094 75.320312 1.007812 75.320312 C 0.851562 75.320312 0.851562 75.460938 0.851562 75.519531 C 0.851562 75.9375 0.890625 76.964844 0.890625 77.378906 C 0.890625 77.757812 0.851562 78.6875 0.851562 79.0625 C 0.851562 79.140625 0.851562 79.300781 1.109375 79.300781 C 1.246094 79.300781 1.246094 79.179688 1.246094 78.945312 C 1.246094 78.925781 1.246094 78.6875 1.265625 78.46875 C 1.304688 78.25 1.304688 78.132812 1.484375 78.132812 C 1.523438 78.132812 1.5625 78.132812 1.722656 78.171875 L 8.492188 79.875 C 8.984375 79.992188 9.085938 80.011719 9.085938 81.023438 C 9.085938 81.238281 9.085938 81.359375 9.34375 81.359375 C 9.480469 81.359375 9.480469 81.238281 9.480469 81.023438 L 9.480469 75.164062 C 9.480469 74.867188 9.480469 74.867188 9.261719 74.789062 L 6.53125 73.777344 C 6.394531 73.738281 6.375 73.738281 6.351562 73.738281 C 6.3125 73.738281 6.214844 73.777344 6.214844 73.878906 C 6.214844 73.996094 6.292969 74.015625 6.492188 74.09375 C 7.640625 74.53125 9.085938 75.085938 9.085938 77.261719 L 9.085938 78.449219 C 9.085938 78.628906 9.085938 78.667969 9.085938 78.726562 C 9.066406 78.863281 9.046875 78.90625 8.945312 78.90625 C 8.90625 78.90625 8.886719 78.90625 8.667969 78.84375 Z M 1.839844 77.125 "/>
<path fill-rule="nonzero" fill="rgb(0%, 0%, 0%)" fill-opacity="1" d="M 12.648438 70.039062 L 12.132812 70.039062 L 12.132812 71.265625 L 0.515625 71.265625 L 0.515625 70.039062 L 0 70.039062 L 0 71.78125 L 12.648438 71.78125 Z M 12.648438 70.039062 "/>
<path fill-rule="nonzero" fill="rgb(0%, 0%, 0%)" fill-opacity="1" d="M 1.089844 63.367188 C 0.929688 63.328125 0.910156 63.328125 0.890625 63.328125 C 0.710938 63.328125 0.710938 63.503906 0.710938 63.625 C 0.710938 63.878906 0.753906 63.878906 1.007812 63.960938 L 3.503906 64.574219 C 3.679688 64.632812 3.679688 64.632812 3.703125 64.652344 C 3.703125 64.671875 3.722656 64.691406 3.742188 64.890625 C 3.878906 67.503906 5.679688 69.046875 7.285156 69.046875 C 8.628906 69.046875 9.558594 67.957031 9.621094 66.117188 L 11.855469 66.652344 C 12.035156 66.652344 12.035156 66.472656 12.035156 66.355469 C 12.035156 66.15625 12.015625 66.097656 11.796875 66.039062 L 10.035156 65.601562 C 9.679688 65.523438 9.660156 65.503906 9.640625 65.484375 C 9.640625 65.464844 9.640625 65.445312 9.621094 65.246094 C 9.460938 62.671875 7.699219 61.089844 6.078125 61.089844 C 4.710938 61.089844 3.800781 62.179688 3.742188 64.019531 Z M 9.164062 66 C 9.105469 67.085938 8.628906 67.761719 7.621094 67.761719 C 7.265625 67.761719 6.097656 67.621094 5.265625 66.949219 C 4.710938 66.511719 4.273438 65.78125 4.195312 64.75 Z M 4.195312 64.136719 C 4.253906 63.050781 4.710938 62.375 5.738281 62.375 C 6.097656 62.375 7.265625 62.515625 8.09375 63.1875 C 8.648438 63.625 9.085938 64.355469 9.164062 65.382812 Z M 4.195312 64.136719 "/>
<path fill-rule="nonzero" fill="rgb(0%, 0%, 0%)" fill-opacity="1" d="M 0 58.769531 L 0 60.492188 L 0.515625 60.492188 L 0.515625 59.261719 L 12.132812 59.261719 L 12.132812 60.492188 L 12.648438 60.492188 L 12.648438 58.769531 Z M 0 58.769531 "/>
<g clip-path="url(#clip-0)">
<path fill-rule="nonzero" fill="rgb(0%, 0%, 0%)" fill-opacity="1" d="M 85.03125 156.519531 C 85.070312 156.359375 85.070312 156.339844 85.070312 156.320312 C 85.070312 156.140625 84.890625 156.140625 84.773438 156.140625 C 84.515625 156.140625 84.515625 156.179688 84.4375 156.4375 L 83.824219 158.933594 C 83.765625 159.109375 83.765625 159.109375 83.746094 159.128906 C 83.726562 159.128906 83.703125 159.152344 83.507812 159.171875 C 80.894531 159.308594 79.351562 161.109375 79.351562 162.714844 C 79.351562 164.058594 80.4375 164.988281 82.28125 165.046875 L 81.746094 167.285156 C 81.746094 167.464844 81.921875 167.464844 82.042969 167.464844 C 82.242188 167.464844 82.300781 167.445312 82.359375 167.226562 L 82.792969 165.464844 C 82.875 165.109375 82.894531 165.089844 82.914062 165.070312 C 82.933594 165.070312 82.953125 165.070312 83.152344 165.046875 C 85.722656 164.890625 87.308594 163.128906 87.308594 161.503906 C 87.308594 160.140625 86.21875 159.230469 84.378906 159.171875 Z M 82.398438 164.59375 C 81.308594 164.535156 80.636719 164.058594 80.636719 163.050781 C 80.636719 162.691406 80.777344 161.527344 81.449219 160.695312 C 81.882812 160.140625 82.617188 159.703125 83.644531 159.625 Z M 84.257812 159.625 C 85.347656 159.683594 86.019531 160.140625 86.019531 161.167969 C 86.019531 161.527344 85.882812 162.691406 85.210938 163.523438 C 84.773438 164.078125 84.042969 164.515625 83.011719 164.59375 Z M 84.257812 159.625 "/>
</g>
<g clip-path="url(#clip-1)">
<path fill-rule="nonzero" fill="rgb(0%, 0%, 0%)" fill-opacity="1" d="M 235.160156 156.519531 C 235.203125 156.359375 235.203125 156.339844 235.203125 156.320312 C 235.203125 156.140625 235.023438 156.140625 234.90625 156.140625 C 234.648438 156.140625 234.648438 156.179688 234.566406 156.4375 L 233.953125 158.933594 C 233.894531 159.109375 233.894531 159.109375 233.875 159.128906 C 233.855469 159.128906 233.835938 159.152344 233.636719 159.171875 C 231.023438 159.308594 229.480469 161.109375 229.480469 162.714844 C 229.480469 164.058594 230.570312 164.988281 232.410156 165.046875 L 231.875 167.285156 C 231.875 167.464844 232.054688 167.464844 232.171875 167.464844 C 232.371094 167.464844 232.429688 167.445312 232.488281 167.226562 L 232.925781 165.464844 C 233.003906 165.109375 233.023438 165.089844 233.042969 165.070312 C 233.0625 165.070312 233.082031 165.070312 233.28125 165.046875 C 235.855469 164.890625 237.4375 163.128906 237.4375 161.503906 C 237.4375 160.140625 236.347656 159.230469 234.507812 159.171875 Z M 232.53125 164.59375 C 231.441406 164.535156 230.769531 164.058594 230.769531 163.050781 C 230.769531 162.691406 230.90625 161.527344 231.578125 160.695312 C 232.015625 160.140625 232.746094 159.703125 233.777344 159.625 Z M 234.390625 159.625 C 235.476562 159.683594 236.152344 160.140625 236.152344 161.167969 C 236.152344 161.527344 236.011719 162.691406 235.339844 163.523438 C 234.90625 164.078125 234.171875 164.515625 233.144531 164.59375 Z M 234.390625 159.625 "/>
</g>
<g clip-path="url(#clip-2)">
<path fill-rule="nonzero" fill="rgb(0%, 0%, 0%)" fill-opacity="1" d="M 385.214844 156.519531 C 385.253906 156.359375 385.253906 156.339844 385.253906 156.320312 C 385.253906 156.140625 385.074219 156.140625 384.957031 156.140625 C 384.699219 156.140625 384.699219 156.179688 384.621094 156.4375 L 384.007812 158.933594 C 383.949219 159.109375 383.949219 159.109375 383.929688 159.128906 C 383.910156 159.128906 383.886719 159.152344 383.691406 159.171875 C 381.078125 159.308594 379.535156 161.109375 379.535156 162.714844 C 379.535156 164.058594 380.621094 164.988281 382.464844 165.046875 L 381.929688 167.285156 C 381.929688 167.464844 382.105469 167.464844 382.226562 167.464844 C 382.421875 167.464844 382.484375 167.445312 382.542969 167.226562 L 382.976562 165.464844 C 383.058594 165.109375 383.078125 165.089844 383.097656 165.070312 C 383.117188 165.070312 383.136719 165.070312 383.335938 165.046875 C 385.90625 164.890625 387.492188 163.128906 387.492188 161.503906 C 387.492188 160.140625 386.402344 159.230469 384.5625 159.171875 Z M 382.582031 164.59375 C 381.492188 164.535156 380.820312 164.058594 380.820312 163.050781 C 380.820312 162.691406 380.960938 161.527344 381.632812 160.695312 C 382.066406 160.140625 382.800781 159.703125 383.828125 159.625 Z M 384.441406 159.625 C 385.53125 159.683594 386.203125 160.140625 386.203125 161.167969 C 386.203125 161.527344 386.066406 162.691406 385.394531 163.523438 C 384.957031 164.078125 384.226562 164.515625 383.195312 164.59375 Z M 384.441406 159.625 "/>
</g>
<path fill="none" stroke-width="1.98885" stroke-linecap="butt" stroke-linejoin="miter" stroke="rgb(62.744141%, 85.096741%, 82.743835%)" stroke-opacity="1" stroke-miterlimit="4" d="M 165.737868 42.8125 C 165.737868 42.8125 174.881647 75.757812 185.147796 88.886719 C 194.527038 100.882812 207.869892 109.945312 221.726838 116.253906 C 235.422885 122.484375 250.818184 126.371094 265.848516 125.75 C 274.50175 125.390625 284.599151 124.347656 290.705468 118.207031 C 300.626273 108.222656 302.710113 77.71875 302.710113 77.71875 " transform="matrix(0.995383, 0, 0, 1, 0, 0)"/>
<g clip-path="url(#clip-3)">
<path fill="none" stroke-width="1.984248" stroke-linecap="butt" stroke-linejoin="miter" stroke="rgb(62.744141%, 85.096741%, 82.743835%)" stroke-opacity="1" stroke-miterlimit="4" d="M 452.34375 41.132812 C 452.34375 41.132812 444.691406 44.664062 442.148438 47.835938 C 436.730469 54.59375 436.078125 64.0625 432.933594 72.132812 C 429.292969 81.472656 430.375 94.921875 421.761719 100.058594 C 414.125 104.613281 404.960938 102.933594 395.792969 103.410156 C 390.34375 103.691406 384.933594 106.617188 380.992188 110.390625 C 375.214844 115.917969 375.898438 126.421875 369.820312 131.613281 C 366.082031 134.808594 360.769531 136.550781 355.859375 136.363281 C 348.773438 136.089844 340.464844 133.726562 336.308594 127.984375 C 328.894531 117.75 317.898438 85.625 315.203125 74.019531 "/>
</g>
<path fill-rule="nonzero" fill="rgb(81.959534%, 51.371765%, 38.430786%)" fill-opacity="1" stroke-width="0.450709" stroke-linecap="butt" stroke-linejoin="round" stroke="rgb(46.665955%, 23.529053%, 13.725281%)" stroke-opacity="1" stroke-miterlimit="4" d="M -400.898438 103.335938 C -400.898438 104.945312 -402.203125 106.253906 -403.8125 106.253906 C -405.425781 106.253906 -406.730469 104.945312 -406.730469 103.335938 C -406.730469 101.726562 -405.425781 100.417969 -403.8125 100.417969 C -402.203125 100.417969 -400.898438 101.726562 -400.898438 103.335938 Z M -400.898438 103.335938 " transform="matrix(-1, 0, 0, 1, 0, 0)"/>
<path fill-rule="nonzero" fill="rgb(81.959534%, 51.371765%, 38.430786%)" fill-opacity="1" stroke-width="0.450709" stroke-linecap="butt" stroke-linejoin="round" stroke="rgb(46.665955%, 23.529053%, 13.725281%)" stroke-opacity="1" stroke-miterlimit="4" d="M -353.851562 136.3125 C -353.851562 137.925781 -355.15625 139.230469 -356.765625 139.230469 C -358.378906 139.230469 -359.683594 137.925781 -359.683594 136.3125 C -359.683594 134.703125 -358.378906 133.398438 -356.765625 133.398438 C -355.15625 133.398438 -353.851562 134.703125 -353.851562 136.3125 Z M -353.851562 136.3125 " transform="matrix(-1, 0, 0, 1, 0, 0)"/>
<path fill-rule="nonzero" fill="rgb(81.959534%, 51.371765%, 38.430786%)" fill-opacity="1" stroke-width="0.450709" stroke-linecap="butt" stroke-linejoin="round" stroke="rgb(46.665955%, 23.529053%, 13.725281%)" stroke-opacity="1" stroke-miterlimit="4" d="M 267.160156 125.992188 C 267.160156 127.601562 265.855469 128.90625 264.242188 128.90625 C 262.632812 128.90625 261.328125 127.601562 261.328125 125.992188 C 261.328125 124.378906 262.632812 123.074219 264.242188 123.074219 C 265.855469 123.074219 267.160156 124.378906 267.160156 125.992188 Z M 267.160156 125.992188 "/>
<path fill="none" stroke-width="1.984248" stroke-linecap="butt" stroke-linejoin="miter" stroke="rgb(62.744141%, 85.096741%, 82.743835%)" stroke-opacity="1" stroke-miterlimit="4" d="M -151.996094 38.0625 C -151.996094 38.0625 -134.71875 54.242188 -128.261719 64.035156 C -124.039062 70.433594 -125.476562 81.277344 -118.765625 84.976562 C -113.992188 87.609375 -107.597656 80.640625 -102.570312 82.742188 C -96.734375 85.183594 -94.148438 92.335938 -91.21875 97.941406 C -86.816406 106.371094 -84.738281 125.515625 -73.804688 125.75 C -59.347656 126.058594 -59.710938 90.9375 -49.230469 90.003906 C -43.125 89.460938 -43.070312 103.792969 -36.941406 103.6875 C -32.449219 103.609375 -30.34375 97.351562 -28.285156 93.355469 C -20.398438 78.050781 -15.300781 43.367188 -15.300781 43.367188 " transform="matrix(-1, 0, 0, 1, 0, 0)"/>
<path fill-rule="nonzero" fill="rgb(81.959534%, 51.371765%, 38.430786%)" fill-opacity="1" stroke-width="0.450709" stroke-linecap="butt" stroke-linejoin="round" stroke="rgb(46.665955%, 23.529053%, 13.725281%)" stroke-opacity="1" stroke-miterlimit="4" d="M -113.621094 85.707031 C -113.621094 87.320312 -114.929688 88.625 -116.539062 88.625 C -118.148438 88.625 -119.457031 87.320312 -119.457031 85.707031 C -119.457031 84.097656 -118.148438 82.792969 -116.539062 82.792969 C -114.929688 82.792969 -113.621094 84.097656 -113.621094 85.707031 Z M -113.621094 85.707031 " transform="matrix(-1, 0, 0, 1, 0, 0)"/>
<path fill-rule="nonzero" fill="rgb(81.959534%, 51.371765%, 38.430786%)" fill-opacity="1" stroke-width="0.450709" stroke-linecap="butt" stroke-linejoin="round" stroke="rgb(46.665955%, 23.529053%, 13.725281%)" stroke-opacity="1" stroke-miterlimit="4" d="M -71.1875 125.398438 C -71.1875 127.011719 -72.496094 128.316406 -74.105469 128.316406 C -75.714844 128.316406 -77.023438 127.011719 -77.023438 125.398438 C -77.023438 123.789062 -75.714844 122.484375 -74.105469 122.484375 C -72.496094 122.484375 -71.1875 123.789062 -71.1875 125.398438 Z M -71.1875 125.398438 " transform="matrix(-1, 0, 0, 1, 0, 0)"/>
<path fill-rule="nonzero" fill="rgb(81.959534%, 51.371765%, 38.430786%)" fill-opacity="1" stroke-width="0.450709" stroke-linecap="butt" stroke-linejoin="round" stroke="rgb(46.665955%, 23.529053%, 13.725281%)" stroke-opacity="1" stroke-miterlimit="4" d="M -33.84375 103.28125 C -33.84375 104.894531 -35.152344 106.199219 -36.761719 106.199219 C -38.371094 106.199219 -39.679688 104.894531 -39.679688 103.28125 C -39.679688 101.671875 -38.371094 100.367188 -36.761719 100.367188 C -35.152344 100.367188 -33.84375 101.671875 -33.84375 103.28125 Z M -33.84375 103.28125 " transform="matrix(-1, 0, 0, 1, 0, 0)"/>
<path fill-rule="nonzero" fill="rgb(81.959534%, 51.371765%, 38.430786%)" fill-opacity="1" stroke-width="0.450709" stroke-linecap="butt" stroke-linejoin="round" stroke="rgb(46.665955%, 23.529053%, 13.725281%)" stroke-opacity="1" stroke-miterlimit="4" d="M 188.570312 90.644531 C 188.570312 92.253906 187.261719 93.5625 185.652344 93.5625 C 184.042969 93.5625 182.734375 92.253906 182.734375 90.644531 C 182.734375 89.035156 184.042969 87.726562 185.652344 87.726562 C 187.261719 87.726562 188.570312 89.035156 188.570312 90.644531 Z M 188.570312 90.644531 "/>
<path fill="none" stroke-width="0.850392" stroke-linecap="butt" stroke-linejoin="miter" stroke="rgb(0%, 0%, 0%)" stroke-opacity="1" stroke-miterlimit="4" d="M 14.445312 13.730469 L 152.210938 13.730469 L 152.210938 153.847656 L 14.445312 153.847656 Z M 14.445312 13.730469 "/>
<path fill="none" stroke-width="0.850392" stroke-linecap="butt" stroke-linejoin="miter" stroke="rgb(0%, 0%, 0%)" stroke-opacity="1" stroke-miterlimit="4" d="M 164.578125 13.539062 L 302.34375 13.539062 L 302.34375 153.65625 L 164.578125 153.65625 Z M 164.578125 13.539062 "/>
<g clip-path="url(#clip-4)">
<path fill="none" stroke-width="0.850392" stroke-linecap="butt" stroke-linejoin="miter" stroke="rgb(0%, 0%, 0%)" stroke-opacity="1" stroke-miterlimit="4" d="M 314.628906 13.539062 L 452.394531 13.539062 L 452.394531 153.65625 L 314.628906 153.65625 Z M 314.628906 13.539062 "/>
</g>
<path fill-rule="nonzero" fill="rgb(0%, 0%, 0%)" fill-opacity="1" d="M 7.824219 5.839844 C 7.824219 4.550781 6.894531 3.660156 5.726562 3.660156 C 4.914062 3.660156 4.34375 3.859375 3.75 4.195312 L 3.828125 5.027344 C 4.480469 4.570312 5.113281 4.414062 5.726562 4.414062 C 6.320312 4.414062 6.835938 4.910156 6.835938 5.839844 L 6.835938 6.394531 C 4.9375 6.414062 3.332031 6.945312 3.332031 8.054688 C 3.332031 8.589844 3.667969 9.621094 4.777344 9.621094 C 4.957031 9.621094 6.144531 9.597656 6.875 9.027344 L 6.875 9.480469 L 7.824219 9.480469 Z M 6.835938 7.816406 C 6.835938 8.054688 6.835938 8.371094 6.402344 8.609375 C 6.042969 8.828125 5.550781 8.847656 5.410156 8.847656 C 4.816406 8.847656 4.242188 8.550781 4.242188 8.035156 C 4.242188 7.144531 6.28125 7.066406 6.835938 7.027344 Z M 6.835938 7.816406 "/>
<path fill-rule="nonzero" fill="rgb(0%, 0%, 0%)" fill-opacity="1" d="M 10.328125 12.648438 C 10.722656 12.25 11.574219 11.480469 12.148438 9.9375 C 12.664062 8.589844 12.742188 7.242188 12.742188 6.3125 C 12.742188 2.238281 10.921875 0.574219 10.328125 0 L 9.554688 0 C 10.148438 0.613281 11.753906 2.238281 11.753906 6.3125 C 11.753906 7.027344 11.714844 8.511719 11.199219 9.996094 C 10.683594 11.460938 9.972656 12.210938 9.554688 12.648438 Z M 10.328125 12.648438 "/>
<path fill-rule="nonzero" fill="rgb(0%, 0%, 0%)" fill-opacity="1" d="M 155.761719 0.710938 L 154.8125 0.710938 L 154.8125 9.480469 L 155.800781 9.480469 L 155.800781 8.90625 C 156.097656 9.183594 156.652344 9.621094 157.503906 9.621094 C 158.75 9.621094 159.839844 8.351562 159.839844 6.671875 C 159.839844 5.105469 158.988281 3.742188 157.800781 3.742188 C 157.304688 3.742188 156.511719 3.859375 155.761719 4.472656 Z M 155.800781 5.246094 C 156 4.949219 156.453125 4.511719 157.144531 4.511719 C 157.898438 4.511719 158.847656 5.046875 158.847656 6.671875 C 158.847656 8.3125 157.800781 8.847656 157.027344 8.847656 C 156.53125 8.847656 156.117188 8.628906 155.800781 8.035156 Z M 155.800781 5.246094 "/>
<path fill-rule="nonzero" fill="rgb(0%, 0%, 0%)" fill-opacity="1" d="M 161.789062 12.648438 C 162.183594 12.25 163.035156 11.480469 163.609375 9.9375 C 164.121094 8.589844 164.203125 7.242188 164.203125 6.3125 C 164.203125 2.238281 162.382812 0.574219 161.789062 0 L 161.015625 0 C 161.609375 0.613281 163.210938 2.238281 163.210938 6.3125 C 163.210938 7.027344 163.171875 8.511719 162.65625 9.996094 C 162.144531 11.460938 161.429688 12.210938 161.015625 12.648438 Z M 161.789062 12.648438 "/>
<path fill-rule="nonzero" fill="rgb(0%, 0%, 0%)" fill-opacity="1" d="M 309.710938 4.195312 C 308.957031 3.78125 308.523438 3.660156 307.75 3.660156 C 306.011719 3.660156 304.980469 5.1875 304.980469 6.671875 C 304.980469 8.234375 306.128906 9.621094 307.710938 9.621094 C 308.386719 9.621094 309.078125 9.441406 309.769531 8.964844 L 309.691406 8.132812 C 309.039062 8.628906 308.363281 8.808594 307.710938 8.808594 C 306.664062 8.808594 305.96875 7.898438 305.96875 6.671875 C 305.96875 5.679688 306.425781 4.472656 307.769531 4.472656 C 308.425781 4.472656 308.859375 4.570312 309.550781 5.027344 Z M 309.710938 4.195312 "/>
<path fill-rule="nonzero" fill="rgb(0%, 0%, 0%)" fill-opacity="1" d="M 311.617188 12.648438 C 312.011719 12.25 312.863281 11.480469 313.4375 9.9375 C 313.953125 8.589844 314.03125 7.242188 314.03125 6.3125 C 314.03125 2.238281 312.210938 0.574219 311.617188 0 L 310.84375 0 C 311.4375 0.613281 313.042969 2.238281 313.042969 6.3125 C 313.042969 7.027344 313.003906 8.511719 312.488281 9.996094 C 311.972656 11.460938 311.261719 12.210938 310.84375 12.648438 Z M 311.617188 12.648438 "/>
<path fill-rule="nonzero" fill="rgb(0%, 0%, 0%)" fill-opacity="1" d="M 41.257812 107.152344 L 41.058594 107.152344 C 40.472656 107.753906 39.65625 107.785156 39.191406 107.816406 L 39.191406 108.386719 C 39.515625 108.371094 39.980469 108.355469 40.472656 108.140625 L 40.472656 113.261719 L 39.253906 113.261719 L 39.253906 113.835938 L 42.496094 113.835938 L 42.496094 113.261719 L 41.257812 113.261719 Z M 41.257812 107.152344 "/>
<path fill-rule="nonzero" fill="rgb(0%, 0%, 0%)" fill-opacity="1" d="M 78.253906 132.992188 L 77.035156 134.210938 L 77.035156 134.84375 L 80.953125 134.84375 L 80.953125 134.148438 L 79.164062 134.148438 C 79.054688 134.148438 78.933594 134.148438 78.808594 134.148438 L 77.742188 134.148438 C 78.050781 133.871094 78.808594 133.148438 79.117188 132.855469 C 79.300781 132.683594 79.796875 132.265625 79.980469 132.082031 C 80.429688 131.648438 80.953125 131.125 80.953125 130.292969 C 80.953125 129.148438 80.167969 128.160156 78.871094 128.160156 C 77.742188 128.160156 77.1875 128.933594 76.957031 129.78125 C 77.066406 129.953125 77.125 130.015625 77.140625 130.042969 C 77.15625 130.058594 77.265625 130.183594 77.359375 130.324219 C 77.558594 129.566406 77.835938 128.792969 78.730469 128.792969 C 79.65625 128.792969 80.152344 129.535156 80.152344 130.308594 C 80.152344 131.140625 79.597656 131.695312 79.007812 132.296875 Z M 78.253906 132.992188 "/>
<path fill-rule="nonzero" fill="rgb(0%, 0%, 0%)" fill-opacity="1" d="M 118.953125 90.890625 C 119.230469 90.195312 119.878906 89.839844 120.480469 89.839844 C 120.988281 89.839844 121.46875 90.148438 121.46875 90.769531 C 121.46875 91.371094 121.066406 91.957031 120.464844 92.09375 C 120.402344 92.109375 120.386719 92.109375 119.691406 92.15625 L 119.691406 92.757812 L 120.386719 92.757812 C 121.453125 92.757812 121.667969 93.683594 121.667969 94.179688 C 121.667969 94.933594 121.207031 95.566406 120.449219 95.566406 C 119.769531 95.566406 119 95.226562 118.566406 94.550781 L 118.457031 95.152344 C 119.167969 96.078125 120.078125 96.167969 120.480469 96.167969 C 121.667969 96.167969 122.546875 95.210938 122.546875 94.179688 C 122.546875 93.285156 121.855469 92.679688 121.191406 92.464844 C 121.929688 92.0625 122.269531 91.402344 122.269531 90.769531 C 122.269531 89.933594 121.453125 89.269531 120.480469 89.269531 C 119.722656 89.269531 119.015625 89.671875 118.597656 90.367188 Z M 118.953125 90.890625 "/>
<path fill-rule="nonzero" fill="rgb(0%, 0%, 0%)" fill-opacity="1" d="M 187.714844 100.523438 L 188.6875 100.523438 L 188.6875 99.921875 L 187.714844 99.921875 L 187.714844 95.738281 L 186.820312 95.738281 L 184.335938 99.921875 L 184.335938 100.523438 L 186.941406 100.523438 L 186.941406 102.207031 L 187.714844 102.207031 Z M 185.105469 99.921875 C 185.617188 99.074219 187.003906 96.742188 187.003906 96.1875 L 187.003906 99.921875 Z M 185.105469 99.921875 "/>
<path fill-rule="nonzero" fill="rgb(0%, 0%, 0%)" fill-opacity="1" d="M 268.226562 129.503906 L 270.804688 129.503906 L 270.804688 128.871094 L 267.519531 128.871094 L 267.519531 132.515625 L 268.164062 132.515625 C 268.335938 132.113281 268.691406 131.726562 269.261719 131.726562 C 269.726562 131.726562 270.265625 132.144531 270.265625 133.316406 C 270.265625 134.953125 269.0625 134.953125 268.96875 134.953125 C 268.304688 134.953125 267.703125 134.566406 267.425781 134.042969 L 267.101562 134.597656 C 267.503906 135.152344 268.179688 135.554688 268.984375 135.554688 C 270.15625 135.554688 271.128906 134.582031 271.128906 133.332031 C 271.128906 132.113281 270.296875 131.140625 269.277344 131.140625 C 268.875 131.140625 268.503906 131.28125 268.226562 131.542969 Z M 268.226562 129.503906 "/>
<path fill-rule="nonzero" fill="rgb(0%, 0%, 0%)" fill-opacity="1" d="M 363.816406 139.351562 C 363.308594 139.152344 362.90625 139.152344 362.765625 139.152344 C 361.378906 139.152344 360.144531 140.539062 360.144531 142.671875 C 360.144531 145.449219 361.363281 146.050781 362.195312 146.050781 C 362.78125 146.050781 363.214844 145.820312 363.601562 145.386719 C 364.03125 144.878906 364.234375 144.429688 364.234375 143.644531 C 364.234375 142.390625 363.570312 141.28125 362.628906 141.28125 C 362.320312 141.28125 361.5625 141.359375 360.960938 142.097656 C 361.101562 140.507812 361.871094 139.722656 362.78125 139.722656 C 363.152344 139.722656 363.460938 139.800781 363.816406 139.9375 Z M 360.976562 143.671875 C 360.976562 143.535156 360.976562 143.519531 360.992188 143.394531 C 360.992188 142.671875 361.425781 141.882812 362.242188 141.882812 C 362.722656 141.882812 363 142.128906 363.199219 142.5 C 363.398438 142.855469 363.414062 143.210938 363.414062 143.644531 C 363.414062 143.980469 363.414062 144.429688 363.183594 144.847656 C 363.015625 145.109375 362.765625 145.449219 362.195312 145.449219 C 361.164062 145.449219 361.007812 143.996094 360.976562 143.671875 Z M 360.976562 143.671875 "/>
<path fill-rule="nonzero" fill="rgb(0%, 0%, 0%)" fill-opacity="1" d="M 408.710938 108.691406 C 408.832031 108.691406 408.941406 108.675781 409.066406 108.675781 L 410.253906 108.675781 C 408.800781 110.28125 407.921875 112.257812 407.921875 114.558594 L 408.757812 114.558594 C 408.757812 111.609375 410.160156 109.496094 410.933594 108.632812 L 410.933594 107.984375 L 406.84375 107.984375 L 406.84375 108.691406 Z M 408.710938 108.691406 "/>
</svg>
