<?xml version="1.0" encoding="UTF-8"?>
<svg xmlns="http://www.w3.org/2000/svg" xmlns:xlink="http://www.w3.org/1999/xlink" width="413.267761pt" height="144.686066pt" viewBox="0 0 413.267761 144.686066">
<defs>
<clipPath id="clip-0">
<path clip-rule="nonzero" d="M 71 136 L 76 136 L 76 144.6875 L 71 144.6875 Z M 71 136 "/>
</clipPath>
<clipPath id="clip-1">
<path clip-rule="nonzero" d="M 205 136 L 211 136 L 211 144.6875 L 205 144.6875 Z M 205 136 "/>
</clipPath>
<clipPath id="clip-2">
<path clip-rule="nonzero" d="M 337 136 L 342 136 L 342 144.6875 L 337 144.6875 Z M 337 136 "/>
</clipPath>
</defs>
<path fill="none" stroke-width="1.961147" stroke-linecap="square" stroke-linejoin="round" stroke="rgb(62.744141%, 85.096741%, 82.743835%)" stroke-opacity="1" stroke-miterlimit="4" d="M 286.222656 67.921875 L 287.125 67.929688 L 287.945312 68.027344 L 288.726562 68.207031 L 289.464844 68.472656 L 290.203125 68.835938 L 290.941406 69.300781 L 291.71875 69.902344 L 292.542969 70.65625 L 293.445312 71.613281 L 294.550781 72.925781 L 297.464844 76.460938 L 298.203125 77.175781 L 298.820312 77.648438 L 299.351562 77.941406 L 299.804688 78.097656 L 300.214844 78.152344 L 300.625 78.117188 L 301.035156 77.984375 L 301.445312 77.75 L 301.855469 77.410156 L 302.308594 76.902344 L 302.757812 76.253906 L 303.25 75.382812 L 303.785156 74.242188 L 304.359375 72.789062 L 304.976562 70.984375 L 305.671875 68.644531 L 306.453125 65.707031 L 307.4375 61.628906 L 310.554688 48.40625 L 311.253906 45.988281 L 311.828125 44.3125 L 312.320312 43.148438 L 312.730469 42.394531 L 313.097656 41.902344 L 313.386719 41.648438 L 313.675781 41.511719 L 313.921875 41.496094 L 314.167969 41.570312 L 314.414062 41.742188 L 314.699219 42.066406 L 314.988281 42.527344 L 315.316406 43.226562 L 315.683594 44.226562 L 316.09375 45.609375 L 316.546875 47.460938 L 317.039062 49.863281 L 317.613281 53.15625 L 318.230469 57.21875 L 318.96875 62.75 L 319.828125 69.933594 L 321.058594 81.035156 L 322.949219 98.023438 L 323.769531 104.601562 L 324.425781 109.214844 L 325 112.660156 L 325.492188 115.105469 L 325.945312 116.894531 L 326.3125 118.015625 L 326.640625 118.738281 L 326.929688 119.152344 L 327.175781 119.339844 L 327.378906 119.382812 L 327.585938 119.3125 L 327.789062 119.136719 L 328.035156 118.777344 L 328.324219 118.164062 L 328.652344 117.199219 L 329.019531 115.78125 L 329.429688 113.804688 L 329.882812 111.164062 L 330.375 107.746094 L 330.949219 103.113281 L 331.605469 97.058594 L 332.386719 89.015625 L 333.453125 76.96875 L 336.039062 47.355469 L 336.859375 39.183594 L 337.554688 33.121094 L 338.128906 28.863281 L 338.664062 25.570312 L 339.117188 23.316406 L 339.527344 21.707031 L 339.894531 20.625 L 340.183594 20.03125 L 340.429688 19.691406 L 340.632812 19.53125 L 340.839844 19.476562 L 341.042969 19.53125 L 341.25 19.695312 L 341.496094 20.027344 L 341.78125 20.609375 L 342.109375 21.515625 L 342.480469 22.832031 L 342.890625 24.648438 L 343.382812 27.285156 L 343.917969 30.648438 L 344.574219 35.410156 L 345.351562 41.769531 L 346.460938 51.652344 L 348.71875 71.976562 L 349.578125 78.855469 L 350.316406 84.058594 L 350.933594 87.804688 L 351.507812 90.773438 L 352 92.886719 L 352.453125 94.464844 L 352.863281 95.601562 L 353.230469 96.382812 L 353.558594 96.882812 L 353.847656 97.175781 L 354.09375 97.320312 L 354.339844 97.371094 L 354.585938 97.324219 L 354.832031 97.191406 L 355.117188 96.925781 L 355.449219 96.484375 L 355.816406 95.824219 L 356.226562 94.894531 L 356.71875 93.542969 L 357.292969 91.683594 L 357.992188 89.089844 L 358.894531 85.359375 L 362.136719 71.617188 L 362.914062 68.847656 L 363.613281 66.679688 L 364.230469 65.039062 L 364.804688 63.746094 L 365.335938 62.757812 L 365.828125 62.027344 L 366.28125 61.503906 L 366.730469 61.117188 L 367.140625 60.878906 L 367.550781 60.746094 L 367.964844 60.707031 L 368.375 60.757812 L 368.824219 60.910156 L 369.316406 61.175781 L 369.851562 61.570312 L 370.507812 62.171875 L 371.285156 63.019531 L 372.4375 64.417969 L 374.652344 67.140625 L 375.636719 68.191406 L 376.5 68.980469 L 377.277344 69.578125 L 378.015625 70.039062 L 378.753906 70.398438 L 379.492188 70.660156 L 380.273438 70.835938 L 381.09375 70.929688 L 381.996094 70.9375 L 383.023438 70.847656 L 384.292969 70.644531 L 386.714844 70.144531 L 388.890625 69.738281 L 390.613281 69.503906 L 392.378906 69.359375 L 394.347656 69.292969 L 396.972656 69.296875 L 409.285156 69.4375 "/>
<path fill="none" stroke-width="1.984564" stroke-linecap="square" stroke-linejoin="round" stroke="rgb(62.744141%, 85.096741%, 82.743835%)" stroke-opacity="1" stroke-miterlimit="4" d="M 155.235005 69.425781 L 157.517989 69.484375 L 160.090814 69.566406 L 160.880925 69.488281 L 161.543983 69.332031 L 162.211011 69.082031 L 162.997152 68.675781 L 164.24386 68.03125 L 164.700457 67.910156 L 165.073676 67.910156 L 165.40719 68.011719 L 165.69703 68.191406 L 166.030544 68.519531 L 166.360088 68.988281 L 166.737276 69.6875 L 167.150199 70.679688 L 167.65047 72.128906 L 168.603368 75.289062 L 169.143344 76.894531 L 169.476858 77.648438 L 169.726993 78.035156 L 169.933455 78.21875 L 170.100212 78.253906 L 170.266969 78.1875 L 170.429756 78.007812 L 170.640187 77.609375 L 170.846648 77.015625 L 171.096784 76.019531 L 171.386624 74.46875 L 171.720138 72.179688 L 172.133061 68.59375 L 172.633332 63.425781 L 174.292962 45.328125 L 174.626477 42.988281 L 174.872642 41.8125 L 175.039399 41.347656 L 175.166452 41.179688 L 175.249831 41.15625 L 175.329239 41.210938 L 175.456292 41.433594 L 175.623049 42.007812 L 175.82951 43.179688 L 176.079646 45.265625 L 176.369486 48.625 L 176.703 53.632812 L 177.115922 61.457031 L 177.655898 73.578125 L 179.069363 106.429688 L 179.442581 112.851562 L 179.732421 116.574219 L 179.982557 118.726562 L 180.149314 119.585938 L 180.272397 119.914062 L 180.355775 119.980469 L 180.439154 119.917969 L 180.562236 119.59375 L 180.728994 118.71875 L 180.935455 116.917969 L 181.18559 113.75 L 181.47543 108.738281 L 181.848649 100.445312 L 182.309216 88.078125 L 183.139031 62.472656 L 183.841793 41.902344 L 184.302361 31.195312 L 184.631904 25.296875 L 184.921744 21.644531 L 185.132176 19.953125 L 185.298933 19.164062 L 185.422016 18.90625 L 185.505394 18.890625 L 185.588773 18.996094 L 185.711855 19.386719 L 185.878612 20.332031 L 186.085074 22.152344 L 186.335209 25.222656 L 186.668724 30.632812 L 187.081646 39.082031 L 187.748675 54.851562 L 188.661868 76.277344 L 189.118465 85.015625 L 189.491684 90.617188 L 189.825198 94.261719 L 190.071363 96.136719 L 190.281795 97.132812 L 190.444581 97.574219 L 190.571635 97.699219 L 190.655013 97.6875 L 190.778096 97.535156 L 190.944853 97.089844 L 191.151314 96.171875 L 191.40145 94.59375 L 191.734964 91.8125 L 192.191561 87.085938 L 193.890895 68.488281 L 194.307788 65.269531 L 194.641303 63.304688 L 194.931142 62.035156 L 195.181278 61.277344 L 195.387739 60.871094 L 195.5942 60.652344 L 195.760958 60.605469 L 195.927715 60.660156 L 196.094472 60.808594 L 196.300933 61.113281 L 196.590773 61.726562 L 196.963991 62.75 L 197.587345 64.777344 L 198.460835 67.570312 L 198.957136 68.867188 L 199.374029 69.710938 L 199.747247 70.273438 L 200.080761 70.621094 L 200.410305 70.84375 L 200.743819 70.945312 L 201.077334 70.957031 L 201.450552 70.875 L 201.946853 70.667969 L 202.943425 70.121094 L 203.777211 69.710938 L 204.440269 69.484375 L 205.103327 69.347656 L 205.893438 69.285156 L 206.973389 69.304688 L 210.753217 69.4375 L 218.352578 69.429688 L 279.766846 69.429688 " transform="matrix(0.983841, 0, 0, 1, 0, 0)"/>
<path fill="none" stroke-width="1.984459" stroke-linecap="square" stroke-linejoin="round" stroke="rgb(62.744141%, 85.096741%, 82.743835%)" stroke-opacity="1" stroke-miterlimit="4" d="M 17.144026 69.429688 L 52.272237 69.472656 L 56.964453 69.5625 L 58.165248 69.46875 L 59.247153 69.296875 L 60.285464 69.039062 L 61.573446 68.617188 L 63.273582 68.0625 L 63.978999 67.925781 L 64.561563 67.898438 L 65.060904 67.960938 L 65.556281 68.117188 L 66.015992 68.355469 L 66.471739 68.695312 L 66.971079 69.1875 L 67.466457 69.804688 L 68.049021 70.6875 L 68.714808 71.878906 L 69.626303 73.734375 L 70.914285 76.339844 L 71.453255 77.234375 L 71.869373 77.765625 L 72.202266 78.0625 L 72.491567 78.214844 L 72.741237 78.253906 L 72.990907 78.203125 L 73.240578 78.054688 L 73.490248 77.796875 L 73.779548 77.359375 L 74.112442 76.667969 L 74.445336 75.761719 L 74.81786 74.484375 L 75.233977 72.742188 L 75.729354 70.234375 L 76.311918 66.777344 L 77.017336 61.996094 L 79.137552 47.1875 L 79.632929 44.535156 L 80.009416 42.972656 L 80.338347 41.960938 L 80.588017 41.457031 L 80.798057 41.222656 L 80.964504 41.15625 L 81.130951 41.210938 L 81.293435 41.382812 L 81.503475 41.765625 L 81.753145 42.488281 L 82.042446 43.691406 L 82.375339 45.550781 L 82.747863 48.25 L 83.16398 51.980469 L 83.663321 57.394531 L 84.241922 64.820312 L 84.990933 75.636719 L 86.857515 103.246094 L 87.400449 109.710938 L 87.856196 114.144531 L 88.22872 116.921875 L 88.521984 118.492188 L 88.767691 119.402344 L 88.977731 119.839844 L 89.144178 119.972656 L 89.267031 119.945312 L 89.393848 119.808594 L 89.556332 119.453125 L 89.766372 118.734375 L 90.016042 117.464844 L 90.305343 115.433594 L 90.638236 112.414062 L 91.01076 108.171875 L 91.466508 101.894531 L 92.009441 93.164062 L 92.754489 79.421875 L 94.708258 42.65625 L 95.286859 33.785156 L 95.74657 28.074219 L 96.158724 24 L 96.491617 21.566406 L 96.784881 20.070312 L 97.030588 19.265625 L 97.197035 18.976562 L 97.323852 18.886719 L 97.446705 18.910156 L 97.573522 19.039062 L 97.739969 19.378906 L 97.946046 20.070312 L 98.195716 21.273438 L 98.485017 23.167969 L 98.81791 25.9375 L 99.234027 30.210938 L 99.729405 36.332031 L 100.395192 45.710938 L 102.677892 79.101562 L 103.260456 85.753906 L 103.716203 90.035156 L 104.13232 93.125 L 104.504844 95.230469 L 104.798108 96.417969 L 105.047778 97.121094 L 105.253855 97.496094 L 105.420302 97.65625 L 105.586749 97.699219 L 105.753196 97.628906 L 105.919643 97.441406 L 106.12572 97.0625 L 106.37539 96.398438 L 106.66469 95.359375 L 107.037214 93.652344 L 107.496925 91.09375 L 108.075526 87.289062 L 109.15743 79.46875 L 110.152148 72.527344 L 110.774342 68.78125 L 111.317276 66.054688 L 111.773024 64.171875 L 112.189141 62.8125 L 112.561665 61.878906 L 112.894558 61.273438 L 113.183859 60.90625 L 113.473159 60.6875 L 113.72283 60.609375 L 113.9725 60.625 L 114.22217 60.726562 L 114.511471 60.941406 L 114.844364 61.304688 L 115.260481 61.898438 L 115.799452 62.851562 L 116.631686 64.539062 L 118.002891 67.320312 L 118.664716 68.460938 L 119.24728 69.289062 L 119.786251 69.90625 L 120.285591 70.339844 L 120.784932 70.652344 L 121.280309 70.847656 L 121.77965 70.945312 L 122.31862 70.957031 L 122.940815 70.871094 L 123.729456 70.664062 L 125.227477 70.148438 L 126.555089 69.734375 L 127.633031 69.496094 L 128.714935 69.351562 L 129.919693 69.289062 L 131.536606 69.296875 L 138.594745 69.4375 L 141.670048 69.433594 " transform="matrix(0.985675, 0, 0, 1, 0, 0)"/>
<path fill="none" stroke-width="0.850394" stroke-linecap="butt" stroke-linejoin="miter" stroke="rgb(50.195312%, 50.195312%, 50.195312%)" stroke-opacity="1" stroke-miterlimit="4" d="M 151.3125 124.574219 L 151.3125 127.105469 "/>
<path fill="none" stroke-width="0.850394" stroke-linecap="butt" stroke-linejoin="miter" stroke="rgb(50.195312%, 50.195312%, 50.195312%)" stroke-opacity="1" stroke-miterlimit="4" d="M 213.808594 124.574219 L 213.808594 127.105469 "/>
<path fill="none" stroke-width="0.850394" stroke-linecap="butt" stroke-linejoin="miter" stroke="rgb(50.195312%, 50.195312%, 50.195312%)" stroke-opacity="1" stroke-miterlimit="4" d="M 276.238281 124.574219 L 276.238281 127.105469 "/>
<path fill="none" stroke-width="0.850394" stroke-linecap="butt" stroke-linejoin="miter" stroke="rgb(50.195312%, 50.195312%, 50.195312%)" stroke-opacity="1" stroke-miterlimit="4" d="M 172.144531 124.574219 L 172.144531 126.300781 "/>
<path fill="none" stroke-width="0.850394" stroke-linecap="butt" stroke-linejoin="miter" stroke="rgb(50.195312%, 50.195312%, 50.195312%)" stroke-opacity="1" stroke-miterlimit="4" d="M 234.640625 124.574219 L 234.640625 126.300781 "/>
<path fill="none" stroke-width="0.850394" stroke-linecap="butt" stroke-linejoin="miter" stroke="rgb(50.195312%, 50.195312%, 50.195312%)" stroke-opacity="1" stroke-miterlimit="4" d="M 255.476562 124.574219 L 255.476562 126.300781 "/>
<path fill="none" stroke-width="0.850394" stroke-linecap="butt" stroke-linejoin="miter" stroke="rgb(50.195312%, 50.195312%, 50.195312%)" stroke-opacity="1" stroke-miterlimit="4" d="M 192.976562 124.574219 L 192.976562 126.300781 "/>
<path fill="none" stroke-width="0.850394" stroke-linecap="butt" stroke-linejoin="miter" stroke="rgb(50.195312%, 50.195312%, 50.195312%)" stroke-opacity="1" stroke-miterlimit="4" d="M 151.328125 13.25 L 148.796875 13.25 "/>
<path fill="none" stroke-width="0.850394" stroke-linecap="butt" stroke-linejoin="miter" stroke="rgb(50.195312%, 50.195312%, 50.195312%)" stroke-opacity="1" stroke-miterlimit="4" d="M 151.328125 69.28125 L 148.796875 69.28125 "/>
<path fill="none" stroke-width="0.850394" stroke-linecap="butt" stroke-linejoin="miter" stroke="rgb(50.195312%, 50.195312%, 50.195312%)" stroke-opacity="1" stroke-miterlimit="4" d="M 151.261719 124.652344 L 148.730469 124.652344 "/>
<path fill="none" stroke-width="0.850394" stroke-linecap="butt" stroke-linejoin="miter" stroke="rgb(50.195312%, 50.195312%, 50.195312%)" stroke-opacity="1" stroke-miterlimit="4" d="M 151.328125 24.988281 L 149.601562 24.988281 "/>
<path fill="none" stroke-width="0.850394" stroke-linecap="butt" stroke-linejoin="miter" stroke="rgb(50.195312%, 50.195312%, 50.195312%)" stroke-opacity="1" stroke-miterlimit="4" d="M 151.328125 47.136719 L 149.601562 47.136719 "/>
<path fill="none" stroke-width="0.850394" stroke-linecap="butt" stroke-linejoin="miter" stroke="rgb(50.195312%, 50.195312%, 50.195312%)" stroke-opacity="1" stroke-miterlimit="4" d="M 151.328125 80.355469 L 149.601562 80.355469 "/>
<path fill="none" stroke-width="0.850394" stroke-linecap="butt" stroke-linejoin="miter" stroke="rgb(50.195312%, 50.195312%, 50.195312%)" stroke-opacity="1" stroke-miterlimit="4" d="M 151.328125 91.429688 L 149.601562 91.429688 "/>
<path fill="none" stroke-width="0.850394" stroke-linecap="butt" stroke-linejoin="miter" stroke="rgb(50.195312%, 50.195312%, 50.195312%)" stroke-opacity="1" stroke-miterlimit="4" d="M 151.328125 102.503906 L 149.601562 102.503906 "/>
<path fill="none" stroke-width="0.850394" stroke-linecap="butt" stroke-linejoin="miter" stroke="rgb(50.195312%, 50.195312%, 50.195312%)" stroke-opacity="1" stroke-miterlimit="4" d="M 151.328125 113.578125 L 149.601562 113.578125 "/>
<path fill="none" stroke-width="0.850394" stroke-linecap="butt" stroke-linejoin="miter" stroke="rgb(50.195312%, 50.195312%, 50.195312%)" stroke-opacity="1" stroke-miterlimit="4" d="M 151.328125 36.0625 L 149.601562 36.0625 "/>
<path fill="none" stroke-width="0.850394" stroke-linecap="butt" stroke-linejoin="miter" stroke="rgb(50.195312%, 50.195312%, 50.195312%)" stroke-opacity="1" stroke-miterlimit="4" d="M 151.328125 58.210938 L 149.601562 58.210938 "/>
<path fill="none" stroke-width="0.850394" stroke-linecap="butt" stroke-linejoin="miter" stroke="rgb(50.195312%, 50.195312%, 50.195312%)" stroke-opacity="1" stroke-miterlimit="4" d="M 15.878906 124.574219 L 15.878906 127.105469 "/>
<path fill="none" stroke-width="0.850394" stroke-linecap="butt" stroke-linejoin="miter" stroke="rgb(50.195312%, 50.195312%, 50.195312%)" stroke-opacity="1" stroke-miterlimit="4" d="M 78.378906 124.574219 L 78.378906 127.105469 "/>
<path fill="none" stroke-width="0.850394" stroke-linecap="butt" stroke-linejoin="miter" stroke="rgb(50.195312%, 50.195312%, 50.195312%)" stroke-opacity="1" stroke-miterlimit="4" d="M 140.804688 124.574219 L 140.804688 127.105469 "/>
<path fill="none" stroke-width="0.850394" stroke-linecap="butt" stroke-linejoin="miter" stroke="rgb(50.195312%, 50.195312%, 50.195312%)" stroke-opacity="1" stroke-miterlimit="4" d="M 36.710938 124.574219 L 36.710938 126.300781 "/>
<path fill="none" stroke-width="0.850394" stroke-linecap="butt" stroke-linejoin="miter" stroke="rgb(50.195312%, 50.195312%, 50.195312%)" stroke-opacity="1" stroke-miterlimit="4" d="M 99.210938 124.574219 L 99.210938 126.300781 "/>
<path fill="none" stroke-width="0.850394" stroke-linecap="butt" stroke-linejoin="miter" stroke="rgb(50.195312%, 50.195312%, 50.195312%)" stroke-opacity="1" stroke-miterlimit="4" d="M 120.042969 124.574219 L 120.042969 126.300781 "/>
<path fill="none" stroke-width="0.850394" stroke-linecap="butt" stroke-linejoin="miter" stroke="rgb(50.195312%, 50.195312%, 50.195312%)" stroke-opacity="1" stroke-miterlimit="4" d="M 57.542969 124.574219 L 57.542969 126.300781 "/>
<path fill="none" stroke-width="0.850394" stroke-linecap="butt" stroke-linejoin="miter" stroke="rgb(50.195312%, 50.195312%, 50.195312%)" stroke-opacity="1" stroke-miterlimit="4" d="M 15.898438 13.25 L 13.367188 13.25 "/>
<path fill="none" stroke-width="0.850394" stroke-linecap="butt" stroke-linejoin="miter" stroke="rgb(50.195312%, 50.195312%, 50.195312%)" stroke-opacity="1" stroke-miterlimit="4" d="M 15.898438 69.28125 L 13.367188 69.28125 "/>
<path fill="none" stroke-width="0.850394" stroke-linecap="butt" stroke-linejoin="miter" stroke="rgb(50.195312%, 50.195312%, 50.195312%)" stroke-opacity="1" stroke-miterlimit="4" d="M 15.828125 124.652344 L 13.296875 124.652344 "/>
<path fill="none" stroke-width="0.850394" stroke-linecap="butt" stroke-linejoin="miter" stroke="rgb(50.195312%, 50.195312%, 50.195312%)" stroke-opacity="1" stroke-miterlimit="4" d="M 15.898438 24.988281 L 14.171875 24.988281 "/>
<path fill="none" stroke-width="0.850394" stroke-linecap="butt" stroke-linejoin="miter" stroke="rgb(50.195312%, 50.195312%, 50.195312%)" stroke-opacity="1" stroke-miterlimit="4" d="M 15.898438 47.136719 L 14.171875 47.136719 "/>
<path fill="none" stroke-width="0.850394" stroke-linecap="butt" stroke-linejoin="miter" stroke="rgb(50.195312%, 50.195312%, 50.195312%)" stroke-opacity="1" stroke-miterlimit="4" d="M 15.898438 80.355469 L 14.171875 80.355469 "/>
<path fill="none" stroke-width="0.850394" stroke-linecap="butt" stroke-linejoin="miter" stroke="rgb(50.195312%, 50.195312%, 50.195312%)" stroke-opacity="1" stroke-miterlimit="4" d="M 15.898438 91.429688 L 14.171875 91.429688 "/>
<path fill="none" stroke-width="0.850394" stroke-linecap="butt" stroke-linejoin="miter" stroke="rgb(50.195312%, 50.195312%, 50.195312%)" stroke-opacity="1" stroke-miterlimit="4" d="M 15.898438 102.503906 L 14.171875 102.503906 "/>
<path fill="none" stroke-width="0.850394" stroke-linecap="butt" stroke-linejoin="miter" stroke="rgb(50.195312%, 50.195312%, 50.195312%)" stroke-opacity="1" stroke-miterlimit="4" d="M 15.898438 113.578125 L 14.171875 113.578125 "/>
<path fill="none" stroke-width="0.850394" stroke-linecap="butt" stroke-linejoin="miter" stroke="rgb(50.195312%, 50.195312%, 50.195312%)" stroke-opacity="1" stroke-miterlimit="4" d="M 15.898438 36.0625 L 14.171875 36.0625 "/>
<path fill="none" stroke-width="0.850394" stroke-linecap="butt" stroke-linejoin="miter" stroke="rgb(50.195312%, 50.195312%, 50.195312%)" stroke-opacity="1" stroke-miterlimit="4" d="M 15.898438 58.210938 L 14.171875 58.210938 "/>
<path fill="none" stroke-width="0.850394" stroke-linecap="butt" stroke-linejoin="miter" stroke="rgb(50.195312%, 50.195312%, 50.195312%)" stroke-opacity="1" stroke-miterlimit="4" d="M 285.328125 124.574219 L 285.328125 127.105469 "/>
<path fill="none" stroke-width="0.850394" stroke-linecap="butt" stroke-linejoin="miter" stroke="rgb(50.195312%, 50.195312%, 50.195312%)" stroke-opacity="1" stroke-miterlimit="4" d="M 347.828125 124.574219 L 347.828125 127.105469 "/>
<path fill="none" stroke-width="0.850394" stroke-linecap="butt" stroke-linejoin="miter" stroke="rgb(50.195312%, 50.195312%, 50.195312%)" stroke-opacity="1" stroke-miterlimit="4" d="M 410.253906 124.574219 L 410.253906 127.105469 "/>
<path fill="none" stroke-width="0.850394" stroke-linecap="butt" stroke-linejoin="miter" stroke="rgb(50.195312%, 50.195312%, 50.195312%)" stroke-opacity="1" stroke-miterlimit="4" d="M 306.160156 124.574219 L 306.160156 126.300781 "/>
<path fill="none" stroke-width="0.850394" stroke-linecap="butt" stroke-linejoin="miter" stroke="rgb(50.195312%, 50.195312%, 50.195312%)" stroke-opacity="1" stroke-miterlimit="4" d="M 368.660156 124.574219 L 368.660156 126.300781 "/>
<path fill="none" stroke-width="0.850394" stroke-linecap="butt" stroke-linejoin="miter" stroke="rgb(50.195312%, 50.195312%, 50.195312%)" stroke-opacity="1" stroke-miterlimit="4" d="M 389.492188 124.574219 L 389.492188 126.300781 "/>
<path fill="none" stroke-width="0.850394" stroke-linecap="butt" stroke-linejoin="miter" stroke="rgb(50.195312%, 50.195312%, 50.195312%)" stroke-opacity="1" stroke-miterlimit="4" d="M 326.992188 124.574219 L 326.992188 126.300781 "/>
<path fill="none" stroke-width="0.850394" stroke-linecap="butt" stroke-linejoin="miter" stroke="rgb(50.195312%, 50.195312%, 50.195312%)" stroke-opacity="1" stroke-miterlimit="4" d="M 285.347656 13.25 L 282.816406 13.25 "/>
<path fill="none" stroke-width="0.850394" stroke-linecap="butt" stroke-linejoin="miter" stroke="rgb(50.195312%, 50.195312%, 50.195312%)" stroke-opacity="1" stroke-miterlimit="4" d="M 285.347656 69.28125 L 282.816406 69.28125 "/>
<path fill="none" stroke-width="0.850394" stroke-linecap="butt" stroke-linejoin="miter" stroke="rgb(50.195312%, 50.195312%, 50.195312%)" stroke-opacity="1" stroke-miterlimit="4" d="M 285.277344 124.652344 L 282.746094 124.652344 "/>
<path fill="none" stroke-width="0.850394" stroke-linecap="butt" stroke-linejoin="miter" stroke="rgb(50.195312%, 50.195312%, 50.195312%)" stroke-opacity="1" stroke-miterlimit="4" d="M 285.347656 24.988281 L 283.621094 24.988281 "/>
<path fill="none" stroke-width="0.850394" stroke-linecap="butt" stroke-linejoin="miter" stroke="rgb(50.195312%, 50.195312%, 50.195312%)" stroke-opacity="1" stroke-miterlimit="4" d="M 285.347656 47.136719 L 283.621094 47.136719 "/>
<path fill="none" stroke-width="0.850394" stroke-linecap="butt" stroke-linejoin="miter" stroke="rgb(50.195312%, 50.195312%, 50.195312%)" stroke-opacity="1" stroke-miterlimit="4" d="M 285.347656 80.355469 L 283.621094 80.355469 "/>
<path fill="none" stroke-width="0.850394" stroke-linecap="butt" stroke-linejoin="miter" stroke="rgb(50.195312%, 50.195312%, 50.195312%)" stroke-opacity="1" stroke-miterlimit="4" d="M 285.347656 91.429688 L 283.621094 91.429688 "/>
<path fill="none" stroke-width="0.850394" stroke-linecap="butt" stroke-linejoin="miter" stroke="rgb(50.195312%, 50.195312%, 50.195312%)" stroke-opacity="1" stroke-miterlimit="4" d="M 285.347656 102.503906 L 283.621094 102.503906 "/>
<path fill="none" stroke-width="0.850394" stroke-linecap="butt" stroke-linejoin="miter" stroke="rgb(50.195312%, 50.195312%, 50.195312%)" stroke-opacity="1" stroke-miterlimit="4" d="M 285.347656 113.578125 L 283.621094 113.578125 "/>
<path fill="none" stroke-width="0.850394" stroke-linecap="butt" stroke-linejoin="miter" stroke="rgb(50.195312%, 50.195312%, 50.195312%)" stroke-opacity="1" stroke-miterlimit="4" d="M 285.347656 36.0625 L 283.621094 36.0625 "/>
<path fill="none" stroke-width="0.850394" stroke-linecap="butt" stroke-linejoin="miter" stroke="rgb(50.195312%, 50.195312%, 50.195312%)" stroke-opacity="1" stroke-miterlimit="4" d="M 285.347656 58.210938 L 283.621094 58.210938 "/>
<path fill="none" stroke-width="0.850394" stroke-linecap="butt" stroke-linejoin="round" stroke="rgb(1.176453%, 0%, 0%)" stroke-opacity="1" stroke-miterlimit="4" d="M 285.347656 13.25 L 410.253906 13.25 L 410.253906 124.636719 L 285.347656 124.636719 Z M 285.347656 13.25 "/>
<path fill-rule="nonzero" fill="rgb(0%, 0%, 0%)" fill-opacity="1" d="M 373.996094 102.421875 C 373.996094 102.394531 374.027344 102.289062 374.027344 102.289062 C 374.027344 102.273438 374.027344 102.179688 373.90625 102.179688 C 373.816406 102.179688 373.800781 102.210938 373.753906 102.378906 L 373.191406 104.609375 C 371.660156 104.667969 370.234375 105.941406 370.234375 107.261719 C 370.234375 108.1875 370.917969 108.945312 372.101562 109.023438 C 372.023438 109.308594 371.949219 109.628906 371.875 109.929688 C 371.753906 110.386719 371.660156 110.75 371.660156 110.78125 C 371.660156 110.871094 371.738281 110.886719 371.78125 110.886719 C 371.828125 110.886719 371.84375 110.871094 371.875 110.839844 C 371.890625 110.828125 371.949219 110.597656 371.980469 110.460938 L 372.34375 109.023438 C 373.90625 108.960938 375.316406 107.65625 375.316406 106.367188 C 375.316406 105.59375 374.800781 104.714844 373.449219 104.609375 Z M 372.148438 108.808594 C 371.570312 108.777344 370.871094 108.429688 370.871094 107.472656 C 370.871094 106.304688 371.707031 104.957031 373.148438 104.820312 Z M 373.390625 104.820312 C 374.132812 104.867188 374.679688 105.304688 374.679688 106.15625 C 374.679688 107.308594 373.84375 108.6875 372.40625 108.808594 Z M 373.390625 104.820312 "/>
<path fill-rule="nonzero" fill="rgb(0%, 0%, 0%)" fill-opacity="1" d="M 379.015625 108.195312 C 379.015625 107.453125 378.925781 106.90625 378.621094 106.4375 C 378.410156 106.132812 377.984375 105.859375 377.453125 105.859375 C 375.875 105.859375 375.875 107.710938 375.875 108.195312 C 375.875 108.683594 375.875 110.488281 377.453125 110.488281 C 379.015625 110.488281 379.015625 108.683594 379.015625 108.195312 Z M 377.453125 110.289062 C 377.136719 110.289062 376.726562 110.109375 376.589844 109.5625 C 376.5 109.167969 376.5 108.605469 376.5 108.105469 C 376.5 107.605469 376.5 107.089844 376.589844 106.726562 C 376.742188 106.195312 377.164062 106.042969 377.453125 106.042969 C 377.816406 106.042969 378.167969 106.269531 378.289062 106.664062 C 378.394531 107.027344 378.410156 107.515625 378.410156 108.105469 C 378.410156 108.605469 378.410156 109.105469 378.316406 109.53125 C 378.183594 110.152344 377.726562 110.289062 377.453125 110.289062 Z M 377.453125 110.289062 "/>
<path fill-rule="nonzero" fill="rgb(0%, 0%, 0%)" fill-opacity="1" d="M 387.585938 105.730469 C 387.734375 105.730469 387.917969 105.730469 387.917969 105.546875 C 387.917969 105.351562 387.734375 105.351562 387.601562 105.351562 L 381.804688 105.351562 C 381.667969 105.351562 381.488281 105.351562 381.488281 105.546875 C 381.488281 105.730469 381.667969 105.730469 381.804688 105.730469 Z M 387.601562 107.609375 C 387.734375 107.609375 387.917969 107.609375 387.917969 107.414062 C 387.917969 107.230469 387.734375 107.230469 387.585938 107.230469 L 381.804688 107.230469 C 381.667969 107.230469 381.488281 107.230469 381.488281 107.414062 C 381.488281 107.609375 381.667969 107.609375 381.804688 107.609375 Z M 387.601562 107.609375 "/>
<path fill-rule="nonzero" fill="rgb(0%, 0%, 0%)" fill-opacity="1" d="M 392.34375 105.488281 C 393.132812 105.230469 393.691406 104.5625 393.691406 103.789062 C 393.691406 103 392.84375 102.453125 391.917969 102.453125 C 390.945312 102.453125 390.203125 103.03125 390.203125 103.773438 C 390.203125 104.09375 390.417969 104.273438 390.703125 104.273438 C 390.992188 104.273438 391.191406 104.0625 391.191406 103.773438 C 391.191406 103.304688 390.734375 103.304688 390.597656 103.304688 C 390.886719 102.816406 391.523438 102.695312 391.871094 102.695312 C 392.28125 102.695312 392.8125 102.910156 392.8125 103.773438 C 392.8125 103.894531 392.78125 104.457031 392.539062 104.882812 C 392.25 105.351562 391.917969 105.382812 391.675781 105.382812 C 391.597656 105.398438 391.371094 105.410156 391.296875 105.410156 C 391.21875 105.425781 391.160156 105.441406 391.160156 105.53125 C 391.160156 105.640625 391.21875 105.640625 391.386719 105.640625 L 391.8125 105.640625 C 392.601562 105.640625 392.964844 106.292969 392.964844 107.246094 C 392.964844 108.566406 392.296875 108.839844 391.871094 108.839844 C 391.449219 108.839844 390.71875 108.671875 390.386719 108.113281 C 390.71875 108.15625 391.023438 107.945312 391.023438 107.582031 C 391.023438 107.230469 390.765625 107.035156 390.492188 107.035156 C 390.25 107.035156 389.945312 107.171875 389.945312 107.597656 C 389.945312 108.476562 390.839844 109.113281 391.902344 109.113281 C 393.085938 109.113281 393.964844 108.234375 393.964844 107.246094 C 393.964844 106.457031 393.34375 105.699219 392.34375 105.488281 Z M 392.34375 105.488281 "/>
<path fill-rule="nonzero" fill="rgb(0%, 0%, 0%)" fill-opacity="1" d="M 396.222656 108.382812 C 396.222656 108.113281 395.996094 107.867188 395.722656 107.867188 C 395.433594 107.867188 395.207031 108.113281 395.207031 108.382812 C 395.207031 108.671875 395.433594 108.898438 395.722656 108.898438 C 395.996094 108.898438 396.222656 108.671875 396.222656 108.382812 Z M 396.222656 108.382812 "/>
<path fill-rule="nonzero" fill="rgb(0%, 0%, 0%)" fill-opacity="1" d="M 401.503906 105.804688 C 401.503906 105.03125 401.457031 104.257812 401.125 103.546875 C 400.683594 102.605469 399.878906 102.453125 399.484375 102.453125 C 398.894531 102.453125 398.195312 102.710938 397.785156 103.605469 C 397.484375 104.273438 397.4375 105.03125 397.4375 105.804688 C 397.4375 106.535156 397.46875 107.398438 397.878906 108.140625 C 398.289062 108.914062 399 109.113281 399.46875 109.113281 C 399.984375 109.113281 400.730469 108.914062 401.152344 107.988281 C 401.457031 107.324219 401.503906 106.5625 401.503906 105.804688 Z M 399.46875 108.898438 C 399.089844 108.898438 398.515625 108.65625 398.347656 107.730469 C 398.242188 107.15625 398.242188 106.261719 398.242188 105.683594 C 398.242188 105.0625 398.242188 104.425781 398.316406 103.910156 C 398.5 102.757812 399.226562 102.667969 399.46875 102.667969 C 399.789062 102.667969 400.425781 102.847656 400.609375 103.804688 C 400.714844 104.351562 400.714844 105.078125 400.714844 105.683594 C 400.714844 106.414062 400.714844 107.066406 400.609375 107.6875 C 400.457031 108.613281 399.910156 108.898438 399.46875 108.898438 Z M 399.46875 108.898438 "/>
<path fill-rule="nonzero" fill="rgb(0%, 0%, 0%)" fill-opacity="1" d="M 373.996094 114.027344 C 373.996094 114 374.027344 113.890625 374.027344 113.890625 C 374.027344 113.875 374.027344 113.785156 373.90625 113.785156 C 373.816406 113.785156 373.800781 113.816406 373.753906 113.984375 L 373.191406 116.210938 C 371.660156 116.273438 370.234375 117.546875 370.234375 118.867188 C 370.234375 119.792969 370.917969 120.550781 372.101562 120.625 C 372.023438 120.914062 371.949219 121.234375 371.875 121.535156 C 371.753906 121.992188 371.660156 122.355469 371.660156 122.386719 C 371.660156 122.476562 371.738281 122.492188 371.78125 122.492188 C 371.828125 122.492188 371.84375 122.476562 371.875 122.445312 C 371.890625 122.429688 371.949219 122.203125 371.980469 122.066406 L 372.34375 120.625 C 373.90625 120.566406 375.316406 119.261719 375.316406 117.972656 C 375.316406 117.199219 374.800781 116.320312 373.449219 116.210938 Z M 372.148438 120.414062 C 371.570312 120.382812 370.871094 120.035156 370.871094 119.078125 C 370.871094 117.910156 371.707031 116.5625 373.148438 116.425781 Z M 373.390625 116.425781 C 374.132812 116.46875 374.679688 116.910156 374.679688 117.757812 C 374.679688 118.914062 373.84375 120.292969 372.40625 120.414062 Z M 373.390625 116.425781 "/>
<path fill-rule="nonzero" fill="rgb(0%, 0%, 0%)" fill-opacity="1" d="M 377.789062 117.648438 C 377.789062 117.464844 377.789062 117.464844 377.589844 117.464844 C 377.152344 117.890625 376.542969 117.890625 376.269531 117.890625 L 376.269531 118.132812 C 376.421875 118.132812 376.878906 118.132812 377.242188 117.949219 L 377.242188 121.394531 C 377.242188 121.621094 377.242188 121.710938 376.574219 121.710938 L 376.316406 121.710938 L 376.316406 121.957031 C 376.4375 121.957031 377.273438 121.925781 377.515625 121.925781 C 377.726562 121.925781 378.578125 121.957031 378.726562 121.957031 L 378.726562 121.710938 L 378.46875 121.710938 C 377.789062 121.710938 377.789062 121.621094 377.789062 121.394531 Z M 377.789062 117.648438 "/>
<path fill-rule="nonzero" fill="rgb(0%, 0%, 0%)" fill-opacity="1" d="M 387.585938 117.335938 C 387.734375 117.335938 387.917969 117.335938 387.917969 117.152344 C 387.917969 116.957031 387.734375 116.957031 387.601562 116.957031 L 381.804688 116.957031 C 381.667969 116.957031 381.488281 116.957031 381.488281 117.152344 C 381.488281 117.335938 381.667969 117.335938 381.804688 117.335938 Z M 387.601562 119.214844 C 387.734375 119.214844 387.917969 119.214844 387.917969 119.019531 C 387.917969 118.835938 387.734375 118.835938 387.585938 118.835938 L 381.804688 118.835938 C 381.667969 118.835938 381.488281 118.835938 381.488281 119.019531 C 381.488281 119.214844 381.667969 119.214844 381.804688 119.214844 Z M 387.601562 119.214844 "/>
<path fill-rule="nonzero" fill="rgb(0%, 0%, 0%)" fill-opacity="1" d="M 392.386719 114.316406 C 392.386719 114.074219 392.386719 114.058594 392.160156 114.058594 C 391.554688 114.679688 390.703125 114.679688 390.402344 114.679688 L 390.402344 114.984375 C 390.597656 114.984375 391.160156 114.984375 391.660156 114.726562 L 391.660156 119.746094 C 391.660156 120.09375 391.628906 120.203125 390.765625 120.203125 L 390.460938 120.203125 L 390.460938 120.503906 C 390.796875 120.476562 391.628906 120.476562 392.023438 120.476562 C 392.402344 120.476562 393.253906 120.476562 393.585938 120.503906 L 393.585938 120.203125 L 393.28125 120.203125 C 392.402344 120.203125 392.386719 120.09375 392.386719 119.746094 Z M 392.386719 114.316406 "/>
<path fill-rule="nonzero" fill="rgb(0%, 0%, 0%)" fill-opacity="1" d="M 398.710938 118.5625 C 398.710938 117.410156 397.921875 116.441406 396.875 116.441406 C 396.417969 116.441406 395.996094 116.59375 395.644531 116.941406 L 395.644531 115.042969 C 395.84375 115.105469 396.160156 115.167969 396.464844 115.167969 C 397.664062 115.167969 398.347656 114.285156 398.347656 114.164062 C 398.347656 114.105469 398.316406 114.058594 398.238281 114.058594 C 398.238281 114.058594 398.210938 114.058594 398.164062 114.089844 C 397.964844 114.179688 397.496094 114.378906 396.84375 114.378906 C 396.464844 114.378906 396.011719 114.300781 395.554688 114.105469 C 395.480469 114.074219 395.464844 114.074219 395.449219 114.074219 C 395.34375 114.074219 395.34375 114.148438 395.34375 114.300781 L 395.34375 117.167969 C 395.34375 117.335938 395.34375 117.410156 395.480469 117.410156 C 395.554688 117.410156 395.570312 117.394531 395.617188 117.335938 C 395.722656 117.183594 396.070312 116.652344 396.859375 116.652344 C 397.359375 116.652344 397.601562 117.09375 397.679688 117.273438 C 397.832031 117.636719 397.859375 118.003906 397.859375 118.488281 C 397.859375 118.835938 397.859375 119.414062 397.617188 119.824219 C 397.390625 120.203125 397.027344 120.445312 396.585938 120.445312 C 395.890625 120.445312 395.328125 119.929688 395.160156 119.367188 C 395.191406 119.367188 395.222656 119.382812 395.328125 119.382812 C 395.644531 119.382812 395.8125 119.140625 395.8125 118.914062 C 395.8125 118.667969 395.644531 118.425781 395.328125 118.425781 C 395.191406 118.425781 394.855469 118.503906 394.855469 118.941406 C 394.855469 119.777344 395.523438 120.71875 396.601562 120.71875 C 397.722656 120.71875 398.710938 119.792969 398.710938 118.5625 Z M 398.710938 118.5625 "/>
<path fill-rule="nonzero" fill="rgb(0%, 0%, 0%)" fill-opacity="1" d="M 401.058594 119.988281 C 401.058594 119.714844 400.832031 119.472656 400.558594 119.472656 C 400.269531 119.472656 400.042969 119.714844 400.042969 119.988281 C 400.042969 120.277344 400.269531 120.503906 400.558594 120.503906 C 400.832031 120.503906 401.058594 120.277344 401.058594 119.988281 Z M 401.058594 119.988281 "/>
<path fill-rule="nonzero" fill="rgb(0%, 0%, 0%)" fill-opacity="1" d="M 406.339844 117.410156 C 406.339844 116.636719 406.292969 115.863281 405.957031 115.152344 C 405.519531 114.210938 404.714844 114.058594 404.320312 114.058594 C 403.730469 114.058594 403.03125 114.316406 402.621094 115.210938 C 402.320312 115.878906 402.273438 116.636719 402.273438 117.410156 C 402.273438 118.140625 402.304688 119.003906 402.714844 119.746094 C 403.121094 120.519531 403.835938 120.71875 404.304688 120.71875 C 404.820312 120.71875 405.566406 120.519531 405.988281 119.59375 C 406.292969 118.925781 406.339844 118.167969 406.339844 117.410156 Z M 404.304688 120.503906 C 403.925781 120.503906 403.351562 120.261719 403.183594 119.335938 C 403.078125 118.761719 403.078125 117.867188 403.078125 117.289062 C 403.078125 116.667969 403.078125 116.03125 403.152344 115.515625 C 403.335938 114.363281 404.0625 114.269531 404.304688 114.269531 C 404.625 114.269531 405.261719 114.453125 405.441406 115.410156 C 405.550781 115.953125 405.550781 116.683594 405.550781 117.289062 C 405.550781 118.019531 405.550781 118.667969 405.441406 119.292969 C 405.292969 120.21875 404.746094 120.503906 404.304688 120.503906 Z M 404.304688 120.503906 "/>
<path fill-rule="nonzero" fill="rgb(0%, 0%, 0%)" fill-opacity="1" d="M 240.734375 103.402344 C 240.734375 103.371094 240.765625 103.265625 240.765625 103.265625 C 240.765625 103.25 240.765625 103.160156 240.644531 103.160156 C 240.554688 103.160156 240.539062 103.191406 240.492188 103.359375 L 239.929688 105.585938 C 238.398438 105.648438 236.972656 106.921875 236.972656 108.242188 C 236.972656 109.167969 237.65625 109.925781 238.839844 110 C 238.761719 110.289062 238.6875 110.609375 238.613281 110.910156 C 238.492188 111.367188 238.398438 111.730469 238.398438 111.761719 C 238.398438 111.851562 238.476562 111.867188 238.519531 111.867188 C 238.566406 111.867188 238.582031 111.851562 238.613281 111.820312 C 238.625 111.804688 238.6875 111.578125 238.71875 111.441406 L 239.082031 110 C 240.644531 109.941406 242.054688 108.636719 242.054688 107.347656 C 242.054688 106.574219 241.539062 105.695312 240.1875 105.585938 Z M 238.882812 109.789062 C 238.308594 109.757812 237.609375 109.410156 237.609375 108.453125 C 237.609375 107.285156 238.445312 105.9375 239.886719 105.800781 Z M 240.128906 105.800781 C 240.871094 105.84375 241.417969 106.285156 241.417969 107.132812 C 241.417969 108.289062 240.582031 109.667969 239.144531 109.789062 Z M 240.128906 105.800781 "/>
<path fill-rule="nonzero" fill="rgb(0%, 0%, 0%)" fill-opacity="1" d="M 245.753906 109.175781 C 245.753906 108.433594 245.664062 107.886719 245.359375 107.417969 C 245.148438 107.113281 244.722656 106.839844 244.191406 106.839844 C 242.613281 106.839844 242.613281 108.691406 242.613281 109.175781 C 242.613281 109.660156 242.613281 111.464844 244.191406 111.464844 C 245.753906 111.464844 245.753906 109.660156 245.753906 109.175781 Z M 244.191406 111.269531 C 243.875 111.269531 243.464844 111.085938 243.328125 110.542969 C 243.234375 110.148438 243.234375 109.585938 243.234375 109.085938 C 243.234375 108.585938 243.234375 108.070312 243.328125 107.703125 C 243.480469 107.175781 243.902344 107.023438 244.191406 107.023438 C 244.554688 107.023438 244.90625 107.25 245.027344 107.644531 C 245.132812 108.007812 245.148438 108.492188 245.148438 109.085938 C 245.148438 109.585938 245.148438 110.085938 245.054688 110.511719 C 244.917969 111.132812 244.464844 111.269531 244.191406 111.269531 Z M 244.191406 111.269531 "/>
<path fill-rule="nonzero" fill="rgb(0%, 0%, 0%)" fill-opacity="1" d="M 254.324219 106.710938 C 254.472656 106.710938 254.65625 106.710938 254.65625 106.527344 C 254.65625 106.332031 254.472656 106.332031 254.335938 106.332031 L 248.542969 106.332031 C 248.40625 106.332031 248.226562 106.332031 248.226562 106.527344 C 248.226562 106.710938 248.40625 106.710938 248.542969 106.710938 Z M 254.335938 108.589844 C 254.472656 108.589844 254.65625 108.589844 254.65625 108.394531 C 254.65625 108.210938 254.472656 108.210938 254.324219 108.210938 L 248.542969 108.210938 C 248.40625 108.210938 248.226562 108.210938 248.226562 108.394531 C 248.226562 108.589844 248.40625 108.589844 248.542969 108.589844 Z M 254.335938 108.589844 "/>
<path fill-rule="nonzero" fill="rgb(0%, 0%, 0%)" fill-opacity="1" d="M 257.503906 109.136719 L 258.535156 108.136719 C 260.035156 106.800781 260.613281 106.285156 260.613281 105.3125 C 260.613281 104.207031 259.746094 103.433594 258.566406 103.433594 C 257.472656 103.433594 256.761719 104.328125 256.761719 105.191406 C 256.761719 105.722656 257.246094 105.722656 257.277344 105.722656 C 257.441406 105.722656 257.777344 105.617188 257.777344 105.207031 C 257.777344 104.964844 257.59375 104.707031 257.261719 104.707031 C 257.183594 104.707031 257.167969 104.707031 257.140625 104.722656 C 257.351562 104.085938 257.882812 103.738281 258.445312 103.738281 C 259.324219 103.738281 259.734375 104.527344 259.734375 105.3125 C 259.734375 106.089844 259.261719 106.847656 258.714844 107.453125 L 256.867188 109.515625 C 256.761719 109.621094 256.761719 109.652344 256.761719 109.878906 L 260.355469 109.878906 L 260.613281 108.195312 L 260.386719 108.195312 C 260.324219 108.484375 260.265625 108.910156 260.15625 109.0625 C 260.097656 109.136719 259.460938 109.136719 259.246094 109.136719 Z M 257.503906 109.136719 "/>
<path fill-rule="nonzero" fill="rgb(0%, 0%, 0%)" fill-opacity="1" d="M 265.554688 106.785156 C 265.554688 106.011719 265.507812 105.238281 265.175781 104.527344 C 264.734375 103.585938 263.929688 103.433594 263.535156 103.433594 C 262.945312 103.433594 262.246094 103.691406 261.839844 104.585938 C 261.535156 105.253906 261.488281 106.011719 261.488281 106.785156 C 261.488281 107.515625 261.519531 108.378906 261.929688 109.121094 C 262.339844 109.894531 263.050781 110.09375 263.523438 110.09375 C 264.039062 110.09375 264.78125 109.894531 265.207031 108.96875 C 265.507812 108.300781 265.554688 107.542969 265.554688 106.785156 Z M 263.523438 109.878906 C 263.140625 109.878906 262.566406 109.636719 262.398438 108.710938 C 262.292969 108.136719 262.292969 107.242188 262.292969 106.664062 C 262.292969 106.042969 262.292969 105.40625 262.367188 104.890625 C 262.550781 103.738281 263.277344 103.644531 263.523438 103.644531 C 263.839844 103.644531 264.476562 103.828125 264.660156 104.785156 C 264.765625 105.328125 264.765625 106.058594 264.765625 106.664062 C 264.765625 107.390625 264.765625 108.042969 264.660156 108.667969 C 264.507812 109.589844 263.960938 109.878906 263.523438 109.878906 Z M 263.523438 109.878906 "/>
<path fill-rule="nonzero" fill="rgb(0%, 0%, 0%)" fill-opacity="1" d="M 267.796875 109.363281 C 267.796875 109.089844 267.570312 108.847656 267.296875 108.847656 C 267.007812 108.847656 266.78125 109.089844 266.78125 109.363281 C 266.78125 109.652344 267.007812 109.878906 267.296875 109.878906 C 267.570312 109.878906 267.796875 109.652344 267.796875 109.363281 Z M 267.796875 109.363281 "/>
<path fill-rule="nonzero" fill="rgb(0%, 0%, 0%)" fill-opacity="1" d="M 273.074219 106.785156 C 273.074219 106.011719 273.03125 105.238281 272.695312 104.527344 C 272.257812 103.585938 271.453125 103.433594 271.058594 103.433594 C 270.46875 103.433594 269.769531 103.691406 269.359375 104.585938 C 269.058594 105.253906 269.011719 106.011719 269.011719 106.785156 C 269.011719 107.515625 269.042969 108.378906 269.449219 109.121094 C 269.859375 109.894531 270.574219 110.09375 271.042969 110.09375 C 271.558594 110.09375 272.300781 109.894531 272.726562 108.96875 C 273.03125 108.300781 273.074219 107.542969 273.074219 106.785156 Z M 271.042969 109.878906 C 270.664062 109.878906 270.089844 109.636719 269.921875 108.710938 C 269.816406 108.136719 269.816406 107.242188 269.816406 106.664062 C 269.816406 106.042969 269.816406 105.40625 269.890625 104.890625 C 270.074219 103.738281 270.800781 103.644531 271.042969 103.644531 C 271.363281 103.644531 272 103.828125 272.179688 104.785156 C 272.289062 105.328125 272.289062 106.058594 272.289062 106.664062 C 272.289062 107.390625 272.289062 108.042969 272.179688 108.667969 C 272.03125 109.589844 271.484375 109.878906 271.042969 109.878906 Z M 271.042969 109.878906 "/>
<path fill-rule="nonzero" fill="rgb(0%, 0%, 0%)" fill-opacity="1" d="M 240.734375 115.007812 C 240.734375 114.976562 240.765625 114.871094 240.765625 114.871094 C 240.765625 114.855469 240.765625 114.765625 240.644531 114.765625 C 240.554688 114.765625 240.539062 114.796875 240.492188 114.960938 L 239.929688 117.191406 C 238.398438 117.253906 236.972656 118.527344 236.972656 119.847656 C 236.972656 120.773438 237.65625 121.53125 238.839844 121.605469 C 238.761719 121.894531 238.6875 122.210938 238.613281 122.515625 C 238.492188 122.972656 238.398438 123.335938 238.398438 123.367188 C 238.398438 123.457031 238.476562 123.472656 238.519531 123.472656 C 238.566406 123.472656 238.582031 123.457031 238.613281 123.425781 C 238.625 123.410156 238.6875 123.183594 238.71875 123.046875 L 239.082031 121.605469 C 240.644531 121.546875 242.054688 120.242188 242.054688 118.953125 C 242.054688 118.179688 241.539062 117.296875 240.1875 117.191406 Z M 238.882812 121.394531 C 238.308594 121.363281 237.609375 121.015625 237.609375 120.058594 C 237.609375 118.890625 238.445312 117.542969 239.886719 117.40625 Z M 240.128906 117.40625 C 240.871094 117.449219 241.417969 117.890625 241.417969 118.738281 C 241.417969 119.890625 240.582031 121.273438 239.144531 121.394531 Z M 240.128906 117.40625 "/>
<path fill-rule="nonzero" fill="rgb(0%, 0%, 0%)" fill-opacity="1" d="M 244.527344 118.628906 C 244.527344 118.445312 244.527344 118.445312 244.328125 118.445312 C 243.886719 118.871094 243.28125 118.871094 243.007812 118.871094 L 243.007812 119.113281 C 243.160156 119.113281 243.617188 119.113281 243.980469 118.929688 L 243.980469 122.375 C 243.980469 122.601562 243.980469 122.691406 243.3125 122.691406 L 243.054688 122.691406 L 243.054688 122.933594 C 243.175781 122.933594 244.011719 122.90625 244.253906 122.90625 C 244.464844 122.90625 245.3125 122.933594 245.464844 122.933594 L 245.464844 122.691406 L 245.207031 122.691406 C 244.527344 122.691406 244.527344 122.601562 244.527344 122.375 Z M 244.527344 118.628906 "/>
<path fill-rule="nonzero" fill="rgb(0%, 0%, 0%)" fill-opacity="1" d="M 254.324219 118.316406 C 254.472656 118.316406 254.65625 118.316406 254.65625 118.132812 C 254.65625 117.933594 254.472656 117.933594 254.335938 117.933594 L 248.542969 117.933594 C 248.40625 117.933594 248.226562 117.933594 248.226562 118.132812 C 248.226562 118.316406 248.40625 118.316406 248.542969 118.316406 Z M 254.335938 120.195312 C 254.472656 120.195312 254.65625 120.195312 254.65625 120 C 254.65625 119.816406 254.472656 119.816406 254.324219 119.816406 L 248.542969 119.816406 C 248.40625 119.816406 248.226562 119.816406 248.226562 120 C 248.226562 120.195312 248.40625 120.195312 248.542969 120.195312 Z M 254.335938 120.195312 "/>
<path fill-rule="nonzero" fill="rgb(0%, 0%, 0%)" fill-opacity="1" d="M 259.125 119.890625 L 259.125 120.726562 C 259.125 121.074219 259.097656 121.179688 258.382812 121.179688 L 258.1875 121.179688 L 258.1875 121.484375 C 258.582031 121.453125 259.082031 121.453125 259.488281 121.453125 C 259.898438 121.453125 260.398438 121.453125 260.808594 121.484375 L 260.808594 121.179688 L 260.597656 121.179688 C 259.882812 121.179688 259.871094 121.074219 259.871094 120.726562 L 259.871094 119.890625 L 260.824219 119.890625 L 260.824219 119.589844 L 259.871094 119.589844 L 259.871094 115.191406 C 259.871094 114.992188 259.871094 114.933594 259.703125 114.933594 C 259.625 114.933594 259.597656 114.933594 259.519531 115.054688 L 256.546875 119.589844 L 256.546875 119.890625 Z M 259.171875 119.589844 L 256.820312 119.589844 L 259.171875 115.980469 Z M 259.171875 119.589844 "/>
<path fill-rule="nonzero" fill="rgb(0%, 0%, 0%)" fill-opacity="1" d="M 265.554688 118.390625 C 265.554688 117.617188 265.507812 116.84375 265.175781 116.128906 C 264.734375 115.191406 263.929688 115.039062 263.535156 115.039062 C 262.945312 115.039062 262.246094 115.296875 261.839844 116.191406 C 261.535156 116.859375 261.488281 117.617188 261.488281 118.390625 C 261.488281 119.117188 261.519531 119.984375 261.929688 120.726562 C 262.339844 121.5 263.050781 121.695312 263.523438 121.695312 C 264.039062 121.695312 264.78125 121.5 265.207031 120.574219 C 265.507812 119.90625 265.554688 119.148438 265.554688 118.390625 Z M 263.523438 121.484375 C 263.140625 121.484375 262.566406 121.242188 262.398438 120.316406 C 262.292969 119.742188 262.292969 118.84375 262.292969 118.269531 C 262.292969 117.648438 262.292969 117.011719 262.367188 116.496094 C 262.550781 115.34375 263.277344 115.25 263.523438 115.25 C 263.839844 115.25 264.476562 115.433594 264.660156 116.386719 C 264.765625 116.933594 264.765625 117.664062 264.765625 118.269531 C 264.765625 118.996094 264.765625 119.648438 264.660156 120.269531 C 264.507812 121.195312 263.960938 121.484375 263.523438 121.484375 Z M 263.523438 121.484375 "/>
<path fill-rule="nonzero" fill="rgb(0%, 0%, 0%)" fill-opacity="1" d="M 267.796875 120.96875 C 267.796875 120.695312 267.570312 120.453125 267.296875 120.453125 C 267.007812 120.453125 266.78125 120.695312 266.78125 120.96875 C 266.78125 121.257812 267.007812 121.484375 267.296875 121.484375 C 267.570312 121.484375 267.796875 121.257812 267.796875 120.96875 Z M 267.796875 120.96875 "/>
<path fill-rule="nonzero" fill="rgb(0%, 0%, 0%)" fill-opacity="1" d="M 273.074219 118.390625 C 273.074219 117.617188 273.03125 116.84375 272.695312 116.128906 C 272.257812 115.191406 271.453125 115.039062 271.058594 115.039062 C 270.46875 115.039062 269.769531 115.296875 269.359375 116.191406 C 269.058594 116.859375 269.011719 117.617188 269.011719 118.390625 C 269.011719 119.117188 269.042969 119.984375 269.449219 120.726562 C 269.859375 121.5 270.574219 121.695312 271.042969 121.695312 C 271.558594 121.695312 272.300781 121.5 272.726562 120.574219 C 273.03125 119.90625 273.074219 119.148438 273.074219 118.390625 Z M 271.042969 121.484375 C 270.664062 121.484375 270.089844 121.242188 269.921875 120.316406 C 269.816406 119.742188 269.816406 118.84375 269.816406 118.269531 C 269.816406 117.648438 269.816406 117.011719 269.890625 116.496094 C 270.074219 115.34375 270.800781 115.25 271.042969 115.25 C 271.363281 115.25 272 115.433594 272.179688 116.386719 C 272.289062 116.933594 272.289062 117.664062 272.289062 118.269531 C 272.289062 118.996094 272.289062 119.648438 272.179688 120.269531 C 272.03125 121.195312 271.484375 121.484375 271.042969 121.484375 Z M 271.042969 121.484375 "/>
<path fill-rule="nonzero" fill="rgb(0%, 0%, 0%)" fill-opacity="1" d="M 102.90625 103.078125 C 102.90625 103.046875 102.9375 102.941406 102.9375 102.941406 C 102.9375 102.925781 102.9375 102.835938 102.816406 102.835938 C 102.726562 102.835938 102.710938 102.863281 102.664062 103.03125 L 102.105469 105.261719 C 100.570312 105.320312 99.144531 106.59375 99.144531 107.914062 C 99.144531 108.839844 99.828125 109.597656 101.011719 109.675781 C 100.9375 109.960938 100.859375 110.28125 100.785156 110.585938 C 100.664062 111.039062 100.570312 111.402344 100.570312 111.433594 C 100.570312 111.523438 100.648438 111.539062 100.695312 111.539062 C 100.738281 111.539062 100.753906 111.523438 100.785156 111.496094 C 100.800781 111.480469 100.859375 111.253906 100.890625 111.117188 L 101.253906 109.675781 C 102.816406 109.613281 104.226562 108.308594 104.226562 107.019531 C 104.226562 106.246094 103.710938 105.367188 102.363281 105.261719 Z M 101.058594 109.460938 C 100.480469 109.433594 99.785156 109.082031 99.785156 108.128906 C 99.785156 106.960938 100.617188 105.609375 102.058594 105.472656 Z M 102.300781 105.472656 C 103.042969 105.519531 103.589844 105.957031 103.589844 106.808594 C 103.589844 107.960938 102.757812 109.339844 101.316406 109.460938 Z M 102.300781 105.472656 "/>
<path fill-rule="nonzero" fill="rgb(0%, 0%, 0%)" fill-opacity="1" d="M 107.925781 108.851562 C 107.925781 108.105469 107.835938 107.558594 107.53125 107.089844 C 107.320312 106.785156 106.894531 106.515625 106.363281 106.515625 C 104.789062 106.515625 104.789062 108.363281 104.789062 108.851562 C 104.789062 109.335938 104.789062 111.140625 106.363281 111.140625 C 107.925781 111.140625 107.925781 109.335938 107.925781 108.851562 Z M 106.363281 110.941406 C 106.046875 110.941406 105.636719 110.761719 105.5 110.214844 C 105.410156 109.820312 105.410156 109.257812 105.410156 108.757812 C 105.410156 108.257812 105.410156 107.742188 105.5 107.378906 C 105.652344 106.847656 106.078125 106.695312 106.363281 106.695312 C 106.730469 106.695312 107.078125 106.921875 107.199219 107.316406 C 107.304688 107.683594 107.320312 108.167969 107.320312 108.757812 C 107.320312 109.257812 107.320312 109.761719 107.230469 110.183594 C 107.09375 110.804688 106.636719 110.941406 106.363281 110.941406 Z M 106.363281 110.941406 "/>
<path fill-rule="nonzero" fill="rgb(0%, 0%, 0%)" fill-opacity="1" d="M 116.496094 106.382812 C 116.648438 106.382812 116.828125 106.382812 116.828125 106.203125 C 116.828125 106.003906 116.648438 106.003906 116.511719 106.003906 L 110.714844 106.003906 C 110.578125 106.003906 110.398438 106.003906 110.398438 106.203125 C 110.398438 106.382812 110.578125 106.382812 110.714844 106.382812 Z M 116.511719 108.265625 C 116.648438 108.265625 116.828125 108.265625 116.828125 108.066406 C 116.828125 107.886719 116.648438 107.886719 116.496094 107.886719 L 110.714844 107.886719 C 110.578125 107.886719 110.398438 107.886719 110.398438 108.066406 C 110.398438 108.265625 110.578125 108.265625 110.714844 108.265625 Z M 116.511719 108.265625 "/>
<path fill-rule="nonzero" fill="rgb(0%, 0%, 0%)" fill-opacity="1" d="M 124.816406 107.324219 C 124.984375 107.324219 125.167969 107.324219 125.167969 107.125 C 125.167969 106.945312 124.984375 106.945312 124.816406 106.945312 L 119.585938 106.945312 C 119.417969 106.945312 119.25 106.945312 119.25 107.125 C 119.25 107.324219 119.417969 107.324219 119.585938 107.324219 Z M 124.816406 107.324219 "/>
<path fill-rule="nonzero" fill="rgb(0%, 0%, 0%)" fill-opacity="1" d="M 130.308594 107.613281 C 130.308594 106.460938 129.519531 105.488281 128.472656 105.488281 C 128.015625 105.488281 127.59375 105.640625 127.242188 105.988281 L 127.242188 104.09375 C 127.441406 104.152344 127.757812 104.214844 128.0625 104.214844 C 129.261719 104.214844 129.945312 103.335938 129.945312 103.214844 C 129.945312 103.152344 129.914062 103.105469 129.835938 103.105469 C 129.835938 103.105469 129.808594 103.105469 129.761719 103.136719 C 129.5625 103.226562 129.09375 103.425781 128.441406 103.425781 C 128.0625 103.425781 127.609375 103.351562 127.152344 103.152344 C 127.078125 103.121094 127.0625 103.121094 127.046875 103.121094 C 126.941406 103.121094 126.941406 103.199219 126.941406 103.351562 L 126.941406 106.214844 C 126.941406 106.382812 126.941406 106.460938 127.078125 106.460938 C 127.152344 106.460938 127.167969 106.445312 127.214844 106.382812 C 127.320312 106.230469 127.667969 105.699219 128.457031 105.699219 C 128.957031 105.699219 129.199219 106.140625 129.277344 106.324219 C 129.429688 106.6875 129.457031 107.050781 129.457031 107.535156 C 129.457031 107.886719 129.457031 108.460938 129.214844 108.871094 C 128.988281 109.25 128.625 109.492188 128.183594 109.492188 C 127.484375 109.492188 126.925781 108.976562 126.757812 108.414062 C 126.789062 108.414062 126.820312 108.429688 126.925781 108.429688 C 127.242188 108.429688 127.410156 108.1875 127.410156 107.960938 C 127.410156 107.71875 127.242188 107.476562 126.925781 107.476562 C 126.789062 107.476562 126.453125 107.550781 126.453125 107.992188 C 126.453125 108.824219 127.121094 109.765625 128.199219 109.765625 C 129.320312 109.765625 130.308594 108.839844 130.308594 107.613281 Z M 130.308594 107.613281 "/>
<path fill-rule="nonzero" fill="rgb(0%, 0%, 0%)" fill-opacity="1" d="M 132.65625 109.039062 C 132.65625 108.765625 132.425781 108.523438 132.15625 108.523438 C 131.867188 108.523438 131.640625 108.765625 131.640625 109.039062 C 131.640625 109.324219 131.867188 109.554688 132.15625 109.554688 C 132.425781 109.554688 132.65625 109.324219 132.65625 109.039062 Z M 132.65625 109.039062 "/>
<path fill-rule="nonzero" fill="rgb(0%, 0%, 0%)" fill-opacity="1" d="M 137.9375 106.460938 C 137.9375 105.6875 137.890625 104.910156 137.554688 104.199219 C 137.117188 103.257812 136.3125 103.105469 135.917969 103.105469 C 135.328125 103.105469 134.628906 103.363281 134.21875 104.261719 C 133.917969 104.925781 133.871094 105.6875 133.871094 106.460938 C 133.871094 107.1875 133.902344 108.050781 134.3125 108.792969 C 134.71875 109.570312 135.433594 109.765625 135.902344 109.765625 C 136.417969 109.765625 137.164062 109.570312 137.585938 108.644531 C 137.890625 107.976562 137.9375 107.21875 137.9375 106.460938 Z M 135.902344 109.554688 C 135.523438 109.554688 134.949219 109.3125 134.78125 108.386719 C 134.675781 107.808594 134.675781 106.914062 134.675781 106.335938 C 134.675781 105.714844 134.675781 105.078125 134.75 104.5625 C 134.933594 103.410156 135.660156 103.320312 135.902344 103.320312 C 136.222656 103.320312 136.859375 103.5 137.039062 104.457031 C 137.148438 105.003906 137.148438 105.730469 137.148438 106.335938 C 137.148438 107.066406 137.148438 107.71875 137.039062 108.339844 C 136.890625 109.265625 136.34375 109.554688 135.902344 109.554688 Z M 135.902344 109.554688 "/>
<path fill-rule="nonzero" fill="rgb(0%, 0%, 0%)" fill-opacity="1" d="M 102.90625 114.683594 C 102.90625 114.652344 102.9375 114.546875 102.9375 114.546875 C 102.9375 114.53125 102.9375 114.4375 102.816406 114.4375 C 102.726562 114.4375 102.710938 114.46875 102.664062 114.636719 L 102.105469 116.867188 C 100.570312 116.925781 99.144531 118.199219 99.144531 119.519531 C 99.144531 120.445312 99.828125 121.203125 101.011719 121.28125 C 100.9375 121.566406 100.859375 121.886719 100.785156 122.191406 C 100.664062 122.644531 100.570312 123.007812 100.570312 123.039062 C 100.570312 123.128906 100.648438 123.144531 100.695312 123.144531 C 100.738281 123.144531 100.753906 123.128906 100.785156 123.097656 C 100.800781 123.085938 100.859375 122.855469 100.890625 122.71875 L 101.253906 121.28125 C 102.816406 121.21875 104.226562 119.914062 104.226562 118.625 C 104.226562 117.851562 103.710938 116.972656 102.363281 116.867188 Z M 101.058594 121.066406 C 100.480469 121.035156 99.785156 120.6875 99.785156 119.730469 C 99.785156 118.566406 100.617188 117.214844 102.058594 117.078125 Z M 102.300781 117.078125 C 103.042969 117.125 103.589844 117.5625 103.589844 118.414062 C 103.589844 119.566406 102.757812 120.945312 101.316406 121.066406 Z M 102.300781 117.078125 "/>
<path fill-rule="nonzero" fill="rgb(0%, 0%, 0%)" fill-opacity="1" d="M 106.699219 118.300781 C 106.699219 118.117188 106.699219 118.117188 106.5 118.117188 C 106.0625 118.542969 105.453125 118.542969 105.179688 118.542969 L 105.179688 118.785156 C 105.332031 118.785156 105.789062 118.785156 106.152344 118.605469 L 106.152344 122.046875 C 106.152344 122.273438 106.152344 122.367188 105.484375 122.367188 L 105.226562 122.367188 L 105.226562 122.609375 C 105.347656 122.609375 106.183594 122.578125 106.425781 122.578125 C 106.636719 122.578125 107.488281 122.609375 107.636719 122.609375 L 107.636719 122.367188 L 107.378906 122.367188 C 106.699219 122.367188 106.699219 122.273438 106.699219 122.046875 Z M 106.699219 118.300781 "/>
<path fill-rule="nonzero" fill="rgb(0%, 0%, 0%)" fill-opacity="1" d="M 116.496094 117.988281 C 116.648438 117.988281 116.828125 117.988281 116.828125 117.804688 C 116.828125 117.609375 116.648438 117.609375 116.511719 117.609375 L 110.714844 117.609375 C 110.578125 117.609375 110.398438 117.609375 110.398438 117.804688 C 110.398438 117.988281 110.578125 117.988281 110.714844 117.988281 Z M 116.511719 119.867188 C 116.648438 119.867188 116.828125 119.867188 116.828125 119.671875 C 116.828125 119.488281 116.648438 119.488281 116.496094 119.488281 L 110.714844 119.488281 C 110.578125 119.488281 110.398438 119.488281 110.398438 119.671875 C 110.398438 119.867188 110.578125 119.867188 110.714844 119.867188 Z M 116.511719 119.867188 "/>
<path fill-rule="nonzero" fill="rgb(0%, 0%, 0%)" fill-opacity="1" d="M 119.675781 120.414062 L 120.707031 119.414062 C 122.207031 118.078125 122.785156 117.5625 122.785156 116.59375 C 122.785156 115.484375 121.921875 114.710938 120.738281 114.710938 C 119.644531 114.710938 118.933594 115.605469 118.933594 116.472656 C 118.933594 117.003906 119.417969 117.003906 119.449219 117.003906 C 119.613281 117.003906 119.949219 116.894531 119.949219 116.488281 C 119.949219 116.242188 119.765625 115.984375 119.433594 115.984375 C 119.355469 115.984375 119.34375 115.984375 119.3125 116 C 119.523438 115.363281 120.054688 115.015625 120.617188 115.015625 C 121.496094 115.015625 121.90625 115.804688 121.90625 116.59375 C 121.90625 117.367188 121.433594 118.125 120.890625 118.730469 L 119.039062 120.792969 C 118.933594 120.898438 118.933594 120.929688 118.933594 121.15625 L 122.527344 121.15625 L 122.785156 119.472656 L 122.558594 119.472656 C 122.496094 119.761719 122.4375 120.1875 122.332031 120.339844 C 122.269531 120.414062 121.632812 120.414062 121.421875 120.414062 Z M 119.675781 120.414062 "/>
<path fill-rule="nonzero" fill="rgb(0%, 0%, 0%)" fill-opacity="1" d="M 127.621094 119.214844 C 127.621094 118.0625 126.832031 117.09375 125.785156 117.09375 C 125.332031 117.09375 124.90625 117.246094 124.558594 117.59375 L 124.558594 115.699219 C 124.753906 115.757812 125.074219 115.820312 125.375 115.820312 C 126.574219 115.820312 127.257812 114.941406 127.257812 114.816406 C 127.257812 114.757812 127.226562 114.710938 127.152344 114.710938 C 127.152344 114.710938 127.121094 114.710938 127.074219 114.742188 C 126.878906 114.832031 126.40625 115.03125 125.753906 115.03125 C 125.375 115.03125 124.921875 114.953125 124.464844 114.757812 C 124.390625 114.726562 124.375 114.726562 124.359375 114.726562 C 124.253906 114.726562 124.253906 114.804688 124.253906 114.953125 L 124.253906 117.820312 C 124.253906 117.988281 124.253906 118.0625 124.390625 118.0625 C 124.464844 118.0625 124.480469 118.046875 124.527344 117.988281 C 124.632812 117.835938 124.980469 117.304688 125.769531 117.304688 C 126.269531 117.304688 126.511719 117.746094 126.589844 117.925781 C 126.742188 118.292969 126.769531 118.65625 126.769531 119.140625 C 126.769531 119.488281 126.769531 120.066406 126.527344 120.476562 C 126.300781 120.855469 125.9375 121.097656 125.496094 121.097656 C 124.800781 121.097656 124.238281 120.582031 124.070312 120.019531 C 124.101562 120.019531 124.132812 120.035156 124.238281 120.035156 C 124.558594 120.035156 124.722656 119.792969 124.722656 119.566406 C 124.722656 119.324219 124.558594 119.082031 124.238281 119.082031 C 124.101562 119.082031 123.769531 119.15625 123.769531 119.597656 C 123.769531 120.429688 124.433594 121.371094 125.511719 121.371094 C 126.632812 121.371094 127.621094 120.445312 127.621094 119.214844 Z M 127.621094 119.214844 "/>
<path fill-rule="nonzero" fill="rgb(0%, 0%, 0%)" fill-opacity="1" d="M 129.96875 120.640625 C 129.96875 120.371094 129.742188 120.125 129.46875 120.125 C 129.179688 120.125 128.953125 120.371094 128.953125 120.640625 C 128.953125 120.929688 129.179688 121.15625 129.46875 121.15625 C 129.742188 121.15625 129.96875 120.929688 129.96875 120.640625 Z M 129.96875 120.640625 "/>
<path fill-rule="nonzero" fill="rgb(0%, 0%, 0%)" fill-opacity="1" d="M 135.25 118.0625 C 135.25 117.289062 135.203125 116.515625 134.871094 115.804688 C 134.429688 114.863281 133.625 114.710938 133.230469 114.710938 C 132.640625 114.710938 131.941406 114.96875 131.53125 115.863281 C 131.230469 116.53125 131.183594 117.289062 131.183594 118.0625 C 131.183594 118.792969 131.214844 119.65625 131.625 120.398438 C 132.035156 121.171875 132.746094 121.371094 133.214844 121.371094 C 133.730469 121.371094 134.476562 121.171875 134.898438 120.25 C 135.203125 119.582031 135.25 118.824219 135.25 118.0625 Z M 133.214844 121.15625 C 132.835938 121.15625 132.261719 120.914062 132.09375 119.988281 C 131.988281 119.414062 131.988281 118.519531 131.988281 117.941406 C 131.988281 117.320312 131.988281 116.683594 132.0625 116.167969 C 132.246094 115.015625 132.972656 114.925781 133.214844 114.925781 C 133.535156 114.925781 134.171875 115.105469 134.355469 116.0625 C 134.460938 116.609375 134.460938 117.335938 134.460938 117.941406 C 134.460938 118.671875 134.460938 119.324219 134.355469 119.945312 C 134.203125 120.871094 133.65625 121.15625 133.214844 121.15625 Z M 133.214844 121.15625 "/>
<path fill-rule="nonzero" fill="rgb(0%, 0%, 0%)" fill-opacity="1" d="M 4.75 85.546875 C 2.621094 85.546875 0.703125 86.535156 0.703125 88.855469 C 0.703125 91.125 2.675781 92.128906 4.75 92.128906 C 6.828125 92.128906 8.761719 91.109375 8.761719 88.855469 C 8.761719 86.550781 6.878906 85.546875 4.75 85.546875 Z M 4.75 86.375 C 6.316406 86.375 8.003906 87.0625 8.003906 88.855469 C 8.003906 90.617188 6.300781 91.300781 4.75 91.300781 C 3.148438 91.300781 1.460938 90.652344 1.460938 88.855469 C 1.460938 87.027344 3.132812 86.375 4.75 86.375 Z M 4.75 86.375 "/>
<path fill-rule="nonzero" fill="rgb(0%, 0%, 0%)" fill-opacity="1" d="M 8.605469 79.957031 L 3.535156 79.957031 L 3.535156 80.816406 L 6.40625 80.816406 C 7.355469 80.816406 8.003906 81.292969 8.003906 82.3125 C 8.003906 83.210938 7.441406 83.527344 6.582031 83.527344 L 3.535156 83.527344 L 3.535156 84.335938 L 6.597656 84.335938 C 7.792969 84.335938 8.746094 83.773438 8.746094 82.507812 C 8.746094 81.855469 8.375 81.1875 7.933594 80.816406 L 8.605469 80.816406 Z M 8.605469 79.957031 "/>
<path fill-rule="nonzero" fill="rgb(0%, 0%, 0%)" fill-opacity="1" d="M 8.605469 75.570312 L 7.882812 75.570312 L 7.882812 76.453125 C 7.882812 77.242188 7.6875 77.382812 6.949219 77.382812 L 4.203125 77.382812 L 4.203125 75.890625 L 3.535156 75.890625 L 3.535156 77.382812 L 2.09375 77.382812 L 2.09375 77.738281 L 3.535156 78.210938 L 3.535156 78.808594 L 4.203125 78.808594 L 4.203125 78.210938 L 6.949219 78.210938 C 8.21875 78.210938 8.605469 77.703125 8.605469 76.453125 Z M 8.605469 75.570312 "/>
<path fill-rule="nonzero" fill="rgb(0%, 0%, 0%)" fill-opacity="1" d="M 6.070312 69.890625 C 4.59375 69.890625 3.535156 70.875 3.535156 72.371094 L 3.535156 74.535156 L 11.3125 74.535156 L 11.3125 73.691406 L 8.605469 73.691406 L 8.605469 72.441406 C 8.605469 70.804688 7.582031 69.890625 6.070312 69.890625 Z M 6.070312 70.699219 C 7.074219 70.699219 7.863281 71.332031 7.863281 72.441406 L 7.863281 73.691406 L 4.277344 73.691406 L 4.277344 72.441406 C 4.277344 71.347656 4.996094 70.699219 6.070312 70.699219 Z M 6.070312 70.699219 "/>
<path fill-rule="nonzero" fill="rgb(0%, 0%, 0%)" fill-opacity="1" d="M 8.605469 64.269531 L 3.535156 64.269531 L 3.535156 65.132812 L 6.40625 65.132812 C 7.355469 65.132812 8.003906 65.609375 8.003906 66.628906 C 8.003906 67.527344 7.441406 67.84375 6.582031 67.84375 L 3.535156 67.84375 L 3.535156 68.652344 L 6.597656 68.652344 C 7.792969 68.652344 8.746094 68.089844 8.746094 66.820312 C 8.746094 66.171875 8.375 65.503906 7.933594 65.132812 L 8.605469 65.132812 Z M 8.605469 64.269531 "/>
<path fill-rule="nonzero" fill="rgb(0%, 0%, 0%)" fill-opacity="1" d="M 8.605469 59.886719 L 7.882812 59.886719 L 7.882812 60.765625 C 7.882812 61.558594 7.6875 61.699219 6.949219 61.699219 L 4.203125 61.699219 L 4.203125 60.203125 L 3.535156 60.203125 L 3.535156 61.699219 L 2.09375 61.699219 L 2.09375 62.050781 L 3.535156 62.527344 L 3.535156 63.125 L 4.203125 63.125 L 4.203125 62.527344 L 6.949219 62.527344 C 8.21875 62.527344 8.605469 62.015625 8.605469 60.765625 Z M 8.605469 59.886719 "/>
<path fill-rule="nonzero" fill="rgb(0%, 0%, 0%)" fill-opacity="1" d="M 7.460938 57.757812 L 7.460938 58.78125 L 8.234375 58.78125 C 8.375 58.707031 8.515625 58.691406 8.65625 58.691406 C 9.0625 58.691406 9.484375 58.902344 9.675781 59.203125 C 9.660156 58.621094 8.796875 57.777344 8.253906 57.757812 Z M 7.460938 57.757812 "/>
<path fill-rule="nonzero" fill="rgb(0%, 0%, 0%)" fill-opacity="1" d="M 4.328125 48.300781 C 4.167969 48.25 4.152344 48.25 4.0625 48.25 C 3.871094 48.25 3.765625 48.40625 3.765625 48.582031 C 3.765625 48.6875 3.835938 48.863281 3.992188 48.96875 C 4.0625 48.988281 4.398438 49.09375 4.609375 49.128906 C 4.890625 49.214844 5.207031 49.285156 5.507812 49.355469 L 7.53125 49.867188 C 7.6875 49.902344 8.480469 50.394531 8.480469 51.132812 C 8.480469 51.695312 7.988281 51.820312 7.566406 51.820312 C 7.054688 51.820312 6.351562 51.625 5.367188 51.257812 C 4.910156 51.082031 4.785156 51.027344 4.558594 51.027344 C 4.0625 51.027344 3.640625 51.378906 3.640625 51.941406 C 3.640625 53.015625 5.277344 53.421875 5.367188 53.421875 C 5.488281 53.421875 5.488281 53.316406 5.488281 53.296875 C 5.488281 53.175781 5.453125 53.175781 5.277344 53.121094 C 4.222656 52.804688 3.886719 52.367188 3.886719 51.976562 C 3.886719 51.890625 3.886719 51.695312 4.242188 51.695312 C 4.523438 51.695312 4.820312 51.820312 5.03125 51.890625 C 6.230469 52.347656 6.863281 52.542969 7.390625 52.542969 C 8.394531 52.542969 8.726562 51.835938 8.726562 51.167969 C 8.726562 50.730469 8.535156 50.359375 8.21875 50.042969 C 8.796875 50.183594 9.359375 50.324219 9.960938 50.765625 C 10.328125 51.0625 10.664062 51.484375 10.664062 51.996094 C 10.664062 52.15625 10.628906 52.664062 10.1875 52.859375 C 10.1875 52.683594 10.1875 52.523438 10.046875 52.382812 C 9.960938 52.261719 9.800781 52.15625 9.589844 52.15625 C 9.238281 52.15625 9.203125 52.453125 9.203125 52.558594 C 9.203125 52.824219 9.378906 53.191406 9.921875 53.191406 C 10.488281 53.191406 10.910156 52.699219 10.910156 51.996094 C 10.910156 50.851562 9.886719 49.691406 8.621094 49.375 Z M 4.328125 48.300781 "/>
<path fill-rule="nonzero" fill="rgb(0%, 0%, 0%)" fill-opacity="1" d="M 62.898438 134.214844 L 63.742188 134.214844 L 63.742188 141.976562 L 62.898438 141.976562 Z M 62.898438 134.214844 "/>
<path fill-rule="nonzero" fill="rgb(0%, 0%, 0%)" fill-opacity="1" d="M 69.652344 141.976562 L 69.652344 138.914062 C 69.652344 137.71875 69.140625 136.785156 67.839844 136.785156 C 67.1875 136.785156 66.519531 137.03125 66.113281 137.59375 L 66.113281 136.910156 L 65.285156 136.910156 L 65.285156 141.976562 L 66.113281 141.976562 L 66.113281 139.109375 C 66.148438 138.140625 66.746094 137.523438 67.644531 137.523438 C 68.523438 137.523438 68.839844 138.050781 68.839844 138.949219 L 68.839844 141.976562 Z M 69.652344 141.976562 "/>
<g clip-path="url(#clip-0)">
<path fill-rule="nonzero" fill="rgb(0%, 0%, 0%)" fill-opacity="1" d="M 75.777344 139.441406 C 75.777344 137.964844 74.792969 136.910156 73.296875 136.910156 L 71.132812 136.910156 L 71.132812 144.6875 L 71.976562 144.6875 L 71.976562 141.976562 L 73.226562 141.976562 C 74.863281 141.976562 75.777344 140.957031 75.777344 139.441406 Z M 74.96875 139.441406 C 74.96875 140.445312 74.335938 141.238281 73.226562 141.238281 L 71.976562 141.238281 L 71.976562 137.648438 L 73.226562 137.648438 C 74.316406 137.648438 74.96875 138.367188 74.96875 139.441406 Z M 74.96875 139.441406 "/>
</g>
<path fill-rule="nonzero" fill="rgb(0%, 0%, 0%)" fill-opacity="1" d="M 81.394531 141.976562 L 81.394531 136.910156 L 80.535156 136.910156 L 80.535156 139.777344 C 80.535156 140.726562 80.058594 141.378906 79.039062 141.378906 C 78.140625 141.378906 77.824219 140.816406 77.824219 139.953125 L 77.824219 136.910156 L 77.015625 136.910156 L 77.015625 139.96875 C 77.015625 141.167969 77.578125 142.117188 78.84375 142.117188 C 79.496094 142.117188 80.164062 141.746094 80.535156 141.308594 L 80.535156 141.976562 Z M 81.394531 141.976562 "/>
<path fill-rule="nonzero" fill="rgb(0%, 0%, 0%)" fill-opacity="1" d="M 85.78125 141.976562 L 85.78125 141.253906 L 84.898438 141.253906 C 84.109375 141.253906 83.96875 141.0625 83.96875 140.320312 L 83.96875 137.578125 L 85.460938 137.578125 L 85.460938 136.910156 L 83.96875 136.910156 L 83.96875 135.464844 L 83.613281 135.464844 L 83.140625 136.910156 L 82.542969 136.910156 L 82.542969 137.578125 L 83.140625 137.578125 L 83.140625 140.320312 C 83.140625 141.589844 83.648438 141.976562 84.898438 141.976562 Z M 85.78125 141.976562 "/>
<path fill-rule="nonzero" fill="rgb(0%, 0%, 0%)" fill-opacity="1" d="M 87.90625 140.832031 L 86.886719 140.832031 L 86.886719 141.605469 C 86.957031 141.746094 86.976562 141.886719 86.976562 142.027344 C 86.976562 142.433594 86.765625 142.855469 86.464844 143.050781 C 87.046875 143.03125 87.890625 142.167969 87.90625 141.625 Z M 87.90625 140.832031 "/>
<path fill-rule="nonzero" fill="rgb(0%, 0%, 0%)" fill-opacity="1" d="M 95.660156 138.582031 C 95.730469 138.296875 95.992188 137.261719 96.765625 137.261719 C 96.820312 137.261719 97.101562 137.261719 97.332031 137.402344 C 97.015625 137.472656 96.800781 137.734375 96.800781 138.015625 C 96.800781 138.191406 96.925781 138.402344 97.226562 138.402344 C 97.472656 138.402344 97.824219 138.210938 97.824219 137.753906 C 97.824219 137.171875 97.171875 137.015625 96.785156 137.015625 C 96.132812 137.015625 95.746094 137.613281 95.605469 137.859375 C 95.324219 137.121094 94.726562 137.015625 94.390625 137.015625 C 93.230469 137.015625 92.578125 138.457031 92.578125 138.738281 C 92.578125 138.863281 92.703125 138.863281 92.71875 138.863281 C 92.808594 138.863281 92.84375 138.828125 92.859375 138.738281 C 93.25 137.542969 93.988281 137.261719 94.375 137.261719 C 94.585938 137.261719 94.972656 137.367188 94.972656 138.015625 C 94.972656 138.367188 94.777344 139.109375 94.375 140.691406 C 94.199219 141.378906 93.792969 141.851562 93.300781 141.851562 C 93.230469 141.851562 92.984375 141.851562 92.738281 141.710938 C 93.019531 141.640625 93.265625 141.414062 93.265625 141.097656 C 93.265625 140.796875 93.019531 140.710938 92.859375 140.710938 C 92.507812 140.710938 92.246094 140.992188 92.246094 141.359375 C 92.246094 141.871094 92.789062 142.097656 93.285156 142.097656 C 94.039062 142.097656 94.445312 141.308594 94.460938 141.253906 C 94.601562 141.660156 95.007812 142.097656 95.675781 142.097656 C 96.835938 142.097656 97.472656 140.65625 97.472656 140.375 C 97.472656 140.25 97.382812 140.25 97.347656 140.25 C 97.242188 140.25 97.226562 140.304688 97.191406 140.375 C 96.820312 141.589844 96.0625 141.851562 95.710938 141.851562 C 95.273438 141.851562 95.097656 141.5 95.097656 141.113281 C 95.097656 140.867188 95.148438 140.621094 95.273438 140.128906 Z M 95.660156 138.582031 "/>
<path fill-rule="nonzero" fill="rgb(0%, 0%, 0%)" fill-opacity="1" d="M 197.148438 134.214844 L 197.992188 134.214844 L 197.992188 141.976562 L 197.148438 141.976562 Z M 197.148438 134.214844 "/>
<path fill-rule="nonzero" fill="rgb(0%, 0%, 0%)" fill-opacity="1" d="M 203.902344 141.976562 L 203.902344 138.914062 C 203.902344 137.71875 203.390625 136.785156 202.089844 136.785156 C 201.4375 136.785156 200.769531 137.03125 200.363281 137.59375 L 200.363281 136.910156 L 199.535156 136.910156 L 199.535156 141.976562 L 200.363281 141.976562 L 200.363281 139.109375 C 200.398438 138.140625 200.996094 137.523438 201.894531 137.523438 C 202.773438 137.523438 203.089844 138.050781 203.089844 138.949219 L 203.089844 141.976562 Z M 203.902344 141.976562 "/>
<g clip-path="url(#clip-1)">
<path fill-rule="nonzero" fill="rgb(0%, 0%, 0%)" fill-opacity="1" d="M 210.027344 139.441406 C 210.027344 137.964844 209.042969 136.910156 207.546875 136.910156 L 205.382812 136.910156 L 205.382812 144.6875 L 206.226562 144.6875 L 206.226562 141.976562 L 207.476562 141.976562 C 209.113281 141.976562 210.027344 140.957031 210.027344 139.441406 Z M 209.21875 139.441406 C 209.21875 140.445312 208.585938 141.238281 207.476562 141.238281 L 206.226562 141.238281 L 206.226562 137.648438 L 207.476562 137.648438 C 208.566406 137.648438 209.21875 138.367188 209.21875 139.441406 Z M 209.21875 139.441406 "/>
</g>
<path fill-rule="nonzero" fill="rgb(0%, 0%, 0%)" fill-opacity="1" d="M 215.644531 141.976562 L 215.644531 136.910156 L 214.785156 136.910156 L 214.785156 139.777344 C 214.785156 140.726562 214.308594 141.378906 213.289062 141.378906 C 212.390625 141.378906 212.074219 140.816406 212.074219 139.953125 L 212.074219 136.910156 L 211.265625 136.910156 L 211.265625 139.96875 C 211.265625 141.167969 211.828125 142.117188 213.09375 142.117188 C 213.746094 142.117188 214.414062 141.746094 214.785156 141.308594 L 214.785156 141.976562 Z M 215.644531 141.976562 "/>
<path fill-rule="nonzero" fill="rgb(0%, 0%, 0%)" fill-opacity="1" d="M 220.03125 141.976562 L 220.03125 141.253906 L 219.148438 141.253906 C 218.359375 141.253906 218.21875 141.0625 218.21875 140.320312 L 218.21875 137.578125 L 219.710938 137.578125 L 219.710938 136.910156 L 218.21875 136.910156 L 218.21875 135.464844 L 217.863281 135.464844 L 217.390625 136.910156 L 216.792969 136.910156 L 216.792969 137.578125 L 217.390625 137.578125 L 217.390625 140.320312 C 217.390625 141.589844 217.898438 141.976562 219.148438 141.976562 Z M 220.03125 141.976562 "/>
<path fill-rule="nonzero" fill="rgb(0%, 0%, 0%)" fill-opacity="1" d="M 222.15625 140.832031 L 221.136719 140.832031 L 221.136719 141.605469 C 221.207031 141.746094 221.226562 141.886719 221.226562 142.027344 C 221.226562 142.433594 221.015625 142.855469 220.714844 143.050781 C 221.296875 143.03125 222.140625 142.167969 222.15625 141.625 Z M 222.15625 140.832031 "/>
<path fill-rule="nonzero" fill="rgb(0%, 0%, 0%)" fill-opacity="1" d="M 229.910156 138.582031 C 229.980469 138.296875 230.242188 137.261719 231.015625 137.261719 C 231.070312 137.261719 231.351562 137.261719 231.582031 137.402344 C 231.265625 137.472656 231.050781 137.734375 231.050781 138.015625 C 231.050781 138.191406 231.175781 138.402344 231.476562 138.402344 C 231.722656 138.402344 232.074219 138.210938 232.074219 137.753906 C 232.074219 137.171875 231.421875 137.015625 231.035156 137.015625 C 230.382812 137.015625 229.996094 137.613281 229.855469 137.859375 C 229.574219 137.121094 228.976562 137.015625 228.640625 137.015625 C 227.480469 137.015625 226.828125 138.457031 226.828125 138.738281 C 226.828125 138.863281 226.953125 138.863281 226.96875 138.863281 C 227.058594 138.863281 227.09375 138.828125 227.109375 138.738281 C 227.5 137.542969 228.238281 137.261719 228.625 137.261719 C 228.835938 137.261719 229.222656 137.367188 229.222656 138.015625 C 229.222656 138.367188 229.027344 139.109375 228.625 140.691406 C 228.449219 141.378906 228.042969 141.851562 227.550781 141.851562 C 227.480469 141.851562 227.234375 141.851562 226.988281 141.710938 C 227.269531 141.640625 227.515625 141.414062 227.515625 141.097656 C 227.515625 140.796875 227.269531 140.710938 227.109375 140.710938 C 226.757812 140.710938 226.496094 140.992188 226.496094 141.359375 C 226.496094 141.871094 227.039062 142.097656 227.535156 142.097656 C 228.289062 142.097656 228.695312 141.308594 228.710938 141.253906 C 228.851562 141.660156 229.257812 142.097656 229.925781 142.097656 C 231.085938 142.097656 231.722656 140.65625 231.722656 140.375 C 231.722656 140.25 231.632812 140.25 231.597656 140.25 C 231.492188 140.25 231.476562 140.304688 231.441406 140.375 C 231.070312 141.589844 230.3125 141.851562 229.960938 141.851562 C 229.523438 141.851562 229.347656 141.5 229.347656 141.113281 C 229.347656 140.867188 229.398438 140.621094 229.523438 140.128906 Z M 229.910156 138.582031 "/>
<path fill-rule="nonzero" fill="rgb(0%, 0%, 0%)" fill-opacity="1" d="M 328.773438 134.214844 L 329.617188 134.214844 L 329.617188 141.976562 L 328.773438 141.976562 Z M 328.773438 134.214844 "/>
<path fill-rule="nonzero" fill="rgb(0%, 0%, 0%)" fill-opacity="1" d="M 335.527344 141.976562 L 335.527344 138.914062 C 335.527344 137.71875 335.015625 136.785156 333.714844 136.785156 C 333.0625 136.785156 332.394531 137.03125 331.988281 137.59375 L 331.988281 136.910156 L 331.160156 136.910156 L 331.160156 141.976562 L 331.988281 141.976562 L 331.988281 139.109375 C 332.023438 138.140625 332.621094 137.523438 333.519531 137.523438 C 334.398438 137.523438 334.714844 138.050781 334.714844 138.949219 L 334.714844 141.976562 Z M 335.527344 141.976562 "/>
<g clip-path="url(#clip-2)">
<path fill-rule="nonzero" fill="rgb(0%, 0%, 0%)" fill-opacity="1" d="M 341.652344 139.441406 C 341.652344 137.964844 340.667969 136.910156 339.171875 136.910156 L 337.007812 136.910156 L 337.007812 144.6875 L 337.851562 144.6875 L 337.851562 141.976562 L 339.101562 141.976562 C 340.738281 141.976562 341.652344 140.957031 341.652344 139.441406 Z M 340.84375 139.441406 C 340.84375 140.445312 340.210938 141.238281 339.101562 141.238281 L 337.851562 141.238281 L 337.851562 137.648438 L 339.101562 137.648438 C 340.191406 137.648438 340.84375 138.367188 340.84375 139.441406 Z M 340.84375 139.441406 "/>
</g>
<path fill-rule="nonzero" fill="rgb(0%, 0%, 0%)" fill-opacity="1" d="M 347.269531 141.976562 L 347.269531 136.910156 L 346.410156 136.910156 L 346.410156 139.777344 C 346.410156 140.726562 345.933594 141.378906 344.914062 141.378906 C 344.015625 141.378906 343.699219 140.816406 343.699219 139.953125 L 343.699219 136.910156 L 342.890625 136.910156 L 342.890625 139.96875 C 342.890625 141.167969 343.453125 142.117188 344.71875 142.117188 C 345.371094 142.117188 346.039062 141.746094 346.410156 141.308594 L 346.410156 141.976562 Z M 347.269531 141.976562 "/>
<path fill-rule="nonzero" fill="rgb(0%, 0%, 0%)" fill-opacity="1" d="M 351.65625 141.976562 L 351.65625 141.253906 L 350.773438 141.253906 C 349.984375 141.253906 349.84375 141.0625 349.84375 140.320312 L 349.84375 137.578125 L 351.335938 137.578125 L 351.335938 136.910156 L 349.84375 136.910156 L 349.84375 135.464844 L 349.488281 135.464844 L 349.015625 136.910156 L 348.417969 136.910156 L 348.417969 137.578125 L 349.015625 137.578125 L 349.015625 140.320312 C 349.015625 141.589844 349.523438 141.976562 350.773438 141.976562 Z M 351.65625 141.976562 "/>
<path fill-rule="nonzero" fill="rgb(0%, 0%, 0%)" fill-opacity="1" d="M 353.78125 140.832031 L 352.761719 140.832031 L 352.761719 141.605469 C 352.832031 141.746094 352.851562 141.886719 352.851562 142.027344 C 352.851562 142.433594 352.640625 142.855469 352.339844 143.050781 C 352.921875 143.03125 353.765625 142.167969 353.78125 141.625 Z M 353.78125 140.832031 "/>
<path fill-rule="nonzero" fill="rgb(0%, 0%, 0%)" fill-opacity="1" d="M 361.535156 138.582031 C 361.605469 138.296875 361.867188 137.261719 362.640625 137.261719 C 362.695312 137.261719 362.976562 137.261719 363.207031 137.402344 C 362.890625 137.472656 362.675781 137.734375 362.675781 138.015625 C 362.675781 138.191406 362.800781 138.402344 363.101562 138.402344 C 363.347656 138.402344 363.699219 138.210938 363.699219 137.753906 C 363.699219 137.171875 363.046875 137.015625 362.660156 137.015625 C 362.007812 137.015625 361.621094 137.613281 361.480469 137.859375 C 361.199219 137.121094 360.601562 137.015625 360.265625 137.015625 C 359.105469 137.015625 358.453125 138.457031 358.453125 138.738281 C 358.453125 138.863281 358.578125 138.863281 358.59375 138.863281 C 358.683594 138.863281 358.71875 138.828125 358.734375 138.738281 C 359.125 137.542969 359.863281 137.261719 360.25 137.261719 C 360.460938 137.261719 360.847656 137.367188 360.847656 138.015625 C 360.847656 138.367188 360.652344 139.109375 360.25 140.691406 C 360.074219 141.378906 359.667969 141.851562 359.175781 141.851562 C 359.105469 141.851562 358.859375 141.851562 358.613281 141.710938 C 358.894531 141.640625 359.140625 141.414062 359.140625 141.097656 C 359.140625 140.796875 358.894531 140.710938 358.734375 140.710938 C 358.382812 140.710938 358.121094 140.992188 358.121094 141.359375 C 358.121094 141.871094 358.664062 142.097656 359.160156 142.097656 C 359.914062 142.097656 360.320312 141.308594 360.335938 141.253906 C 360.476562 141.660156 360.882812 142.097656 361.550781 142.097656 C 362.710938 142.097656 363.347656 140.65625 363.347656 140.375 C 363.347656 140.25 363.257812 140.25 363.222656 140.25 C 363.117188 140.25 363.101562 140.304688 363.066406 140.375 C 362.695312 141.589844 361.9375 141.851562 361.585938 141.851562 C 361.148438 141.851562 360.972656 141.5 360.972656 141.113281 C 360.972656 140.867188 361.023438 140.621094 361.148438 140.128906 Z M 361.535156 138.582031 "/>
<path fill-rule="nonzero" fill="rgb(0%, 0%, 0%)" fill-opacity="1" d="M 4.617188 6.347656 C 4.617188 5.0625 3.6875 4.171875 2.519531 4.171875 C 1.707031 4.171875 1.132812 4.371094 0.539062 4.707031 L 0.617188 5.539062 C 1.273438 5.082031 1.90625 4.925781 2.519531 4.925781 C 3.113281 4.925781 3.628906 5.417969 3.628906 6.347656 L 3.628906 6.902344 C 1.726562 6.921875 0.125 7.457031 0.125 8.566406 C 0.125 9.101562 0.460938 10.128906 1.570312 10.128906 C 1.746094 10.128906 2.933594 10.109375 3.667969 9.535156 L 3.667969 9.992188 L 4.617188 9.992188 Z M 3.628906 8.328125 C 3.628906 8.566406 3.628906 8.882812 3.191406 9.121094 C 2.835938 9.335938 2.339844 9.359375 2.203125 9.359375 C 1.609375 9.359375 1.035156 9.0625 1.035156 8.546875 C 1.035156 7.65625 3.074219 7.578125 3.628906 7.535156 Z M 3.628906 8.328125 "/>
<path fill-rule="nonzero" fill="rgb(0%, 0%, 0%)" fill-opacity="1" d="M 7.121094 13.15625 C 7.515625 12.761719 8.367188 11.988281 8.941406 10.445312 C 9.453125 9.101562 9.535156 7.753906 9.535156 6.824219 C 9.535156 2.746094 7.714844 1.085938 7.121094 0.511719 L 6.347656 0.511719 C 6.941406 1.125 8.542969 2.746094 8.542969 6.824219 C 8.542969 7.535156 8.503906 9.019531 7.992188 10.503906 C 7.476562 11.96875 6.761719 12.722656 6.347656 13.15625 Z M 7.121094 13.15625 "/>
<path fill-rule="nonzero" fill="rgb(0%, 0%, 0%)" fill-opacity="1" d="M 141.3125 1.222656 L 140.363281 1.222656 L 140.363281 9.992188 L 141.351562 9.992188 L 141.351562 9.417969 C 141.648438 9.695312 142.203125 10.128906 143.054688 10.128906 C 144.300781 10.128906 145.390625 8.863281 145.390625 7.179688 C 145.390625 5.617188 144.539062 4.25 143.351562 4.25 C 142.855469 4.25 142.066406 4.371094 141.3125 4.984375 Z M 141.351562 5.753906 C 141.550781 5.457031 142.003906 5.023438 142.699219 5.023438 C 143.449219 5.023438 144.402344 5.558594 144.402344 7.179688 C 144.402344 8.824219 143.351562 9.359375 142.578125 9.359375 C 142.085938 9.359375 141.667969 9.140625 141.351562 8.546875 Z M 141.351562 5.753906 "/>
<path fill-rule="nonzero" fill="rgb(0%, 0%, 0%)" fill-opacity="1" d="M 147.339844 13.15625 C 147.734375 12.761719 148.585938 11.988281 149.160156 10.445312 C 149.675781 9.101562 149.753906 7.753906 149.753906 6.824219 C 149.753906 2.746094 147.933594 1.085938 147.339844 0.511719 L 146.566406 0.511719 C 147.160156 1.125 148.765625 2.746094 148.765625 6.824219 C 148.765625 7.535156 148.722656 9.019531 148.210938 10.503906 C 147.695312 11.96875 146.984375 12.722656 146.566406 13.15625 Z M 147.339844 13.15625 "/>
<path fill-rule="nonzero" fill="rgb(0%, 0%, 0%)" fill-opacity="1" d="M 279.402344 4.707031 C 278.652344 4.289062 278.214844 4.171875 277.445312 4.171875 C 275.703125 4.171875 274.671875 5.695312 274.671875 7.179688 C 274.671875 8.742188 275.820312 10.128906 277.402344 10.128906 C 278.078125 10.128906 278.769531 9.953125 279.460938 9.476562 L 279.382812 8.644531 C 278.730469 9.140625 278.058594 9.316406 277.402344 9.316406 C 276.355469 9.316406 275.664062 8.40625 275.664062 7.179688 C 275.664062 6.191406 276.117188 4.984375 277.464844 4.984375 C 278.117188 4.984375 278.550781 5.082031 279.246094 5.539062 Z M 279.402344 4.707031 "/>
<path fill-rule="nonzero" fill="rgb(0%, 0%, 0%)" fill-opacity="1" d="M 281.308594 13.15625 C 281.707031 12.761719 282.554688 11.988281 283.128906 10.445312 C 283.644531 9.101562 283.722656 7.753906 283.722656 6.824219 C 283.722656 2.746094 281.902344 1.085938 281.308594 0.511719 L 280.539062 0.511719 C 281.132812 1.125 282.734375 2.746094 282.734375 6.824219 C 282.734375 7.535156 282.695312 9.019531 282.179688 10.503906 C 281.664062 11.96875 280.953125 12.722656 280.539062 13.15625 Z M 281.308594 13.15625 "/>
<path fill-rule="nonzero" fill="rgb(50.195312%, 50.195312%, 50.195312%)" fill-opacity="1" d="M 215.386719 130.453125 C 215.375 131.617188 215.113281 133.300781 213.640625 133.300781 C 212.164062 133.300781 211.917969 131.59375 211.917969 130.453125 C 211.917969 129.300781 212.179688 127.628906 213.640625 127.628906 C 215.101562 127.628906 215.386719 129.300781 215.386719 130.453125 Z M 214.816406 130.453125 C 214.816406 129.695312 214.753906 128.148438 213.640625 128.148438 C 212.523438 128.148438 212.488281 129.722656 212.488281 130.453125 C 212.488281 131.195312 212.511719 132.792969 213.640625 132.792969 C 214.753906 132.792969 214.816406 131.183594 214.816406 130.453125 Z M 214.816406 130.453125 "/>
<path fill-rule="nonzero" fill="rgb(50.195312%, 50.195312%, 50.195312%)" fill-opacity="1" d="M 12.042969 15.960938 L 12.042969 10.5 L 11.382812 10.5 L 10.605469 11.132812 L 10.605469 11.75 L 11.421875 11.082031 L 11.421875 15.960938 Z M 12.042969 15.960938 "/>
<path fill-rule="nonzero" fill="rgb(50.195312%, 50.195312%, 50.195312%)" fill-opacity="1" d="M 146.507812 131.132812 L 148.304688 131.132812 L 148.304688 131.652344 L 146.507812 131.652344 Z M 146.507812 131.132812 "/>
<path fill-rule="nonzero" fill="rgb(50.195312%, 50.195312%, 50.195312%)" fill-opacity="1" d="M 150.527344 133.175781 L 150.527344 127.714844 L 149.871094 127.714844 L 149.089844 128.34375 L 149.089844 128.964844 L 149.90625 128.296875 L 149.90625 133.175781 Z M 150.527344 133.175781 "/>
<path fill-rule="nonzero" fill="rgb(50.195312%, 50.195312%, 50.195312%)" fill-opacity="1" d="M 154.710938 131.441406 C 154.699219 130.328125 154.003906 129.597656 152.890625 129.597656 C 152.742188 129.609375 152.40625 129.644531 152.210938 129.71875 L 152.40625 128.28125 L 154.339844 128.28125 L 154.339844 127.714844 L 152.011719 127.714844 L 151.675781 130.414062 C 152.109375 130.203125 152.210938 130.152344 152.765625 130.152344 C 153.570312 130.152344 154.140625 130.597656 154.140625 131.441406 C 154.140625 132.308594 153.585938 132.730469 152.765625 132.730469 C 152.222656 132.730469 151.863281 132.617188 151.464844 132.371094 L 151.464844 133.050781 C 151.824219 133.1875 152.359375 133.285156 152.777344 133.285156 C 153.957031 133.285156 154.710938 132.644531 154.710938 131.441406 Z M 154.710938 131.441406 "/>
<path fill-rule="nonzero" fill="rgb(50.195312%, 50.195312%, 50.195312%)" fill-opacity="1" d="M 273.796875 133.175781 L 273.796875 127.714844 L 273.140625 127.714844 L 272.359375 128.34375 L 272.359375 128.964844 L 273.179688 128.296875 L 273.179688 133.175781 Z M 273.796875 133.175781 "/>
<path fill-rule="nonzero" fill="rgb(50.195312%, 50.195312%, 50.195312%)" fill-opacity="1" d="M 277.980469 131.441406 C 277.96875 130.328125 277.277344 129.597656 276.160156 129.597656 C 276.011719 129.609375 275.679688 129.644531 275.480469 129.71875 L 275.679688 128.28125 L 277.609375 128.28125 L 277.609375 127.714844 L 275.28125 127.714844 L 274.945312 130.414062 C 275.378906 130.203125 275.480469 130.152344 276.035156 130.152344 C 276.84375 130.152344 277.410156 130.597656 277.410156 131.441406 C 277.410156 132.308594 276.855469 132.730469 276.035156 132.730469 C 275.492188 132.730469 275.132812 132.617188 274.738281 132.371094 L 274.738281 133.050781 C 275.09375 133.1875 275.628906 133.285156 276.050781 133.285156 C 277.226562 133.285156 277.980469 132.644531 277.980469 131.441406 Z M 277.980469 131.441406 "/>
<path fill-rule="nonzero" fill="rgb(50.195312%, 50.195312%, 50.195312%)" fill-opacity="1" d="M 7.441406 124.792969 L 9.238281 124.792969 L 9.238281 125.316406 L 7.441406 125.316406 Z M 7.441406 124.792969 "/>
<path fill-rule="nonzero" fill="rgb(50.195312%, 50.195312%, 50.195312%)" fill-opacity="1" d="M 11.460938 126.839844 L 11.460938 121.375 L 10.804688 121.375 L 10.023438 122.007812 L 10.023438 122.628906 L 10.839844 121.957031 L 10.839844 126.839844 Z M 11.460938 126.839844 "/>
<path fill="none" stroke-width="0.850394" stroke-linecap="butt" stroke-linejoin="round" stroke="rgb(1.176453%, 0%, 0%)" stroke-opacity="1" stroke-miterlimit="4" d="M 151.328125 13.25 L 276.238281 13.25 L 276.238281 124.636719 L 151.328125 124.636719 Z M 151.328125 13.25 "/>
<path fill="none" stroke-width="0.850394" stroke-linecap="butt" stroke-linejoin="round" stroke="rgb(1.176453%, 0%, 0%)" stroke-opacity="1" stroke-miterlimit="4" d="M 15.898438 13.25 L 140.804688 13.25 L 140.804688 124.636719 L 15.898438 124.636719 Z M 15.898438 13.25 "/>
<path fill-rule="nonzero" fill="rgb(50.195312%, 50.195312%, 50.195312%)" fill-opacity="1" d="M 349.582031 130.453125 C 349.570312 131.617188 349.308594 133.300781 347.835938 133.300781 C 346.363281 133.300781 346.113281 131.59375 346.113281 130.453125 C 346.113281 129.300781 346.375 127.628906 347.835938 127.628906 C 349.296875 127.628906 349.582031 129.300781 349.582031 130.453125 Z M 349.011719 130.453125 C 349.011719 129.695312 348.949219 128.148438 347.835938 128.148438 C 346.722656 128.148438 346.683594 129.722656 346.683594 130.453125 C 346.683594 131.195312 346.707031 132.792969 347.835938 132.792969 C 348.949219 132.792969 349.011719 131.183594 349.011719 130.453125 Z M 349.011719 130.453125 "/>
<path fill-rule="nonzero" fill="rgb(50.195312%, 50.195312%, 50.195312%)" fill-opacity="1" d="M 280.707031 131.132812 L 282.5 131.132812 L 282.5 131.652344 L 280.707031 131.652344 Z M 280.707031 131.132812 "/>
<path fill-rule="nonzero" fill="rgb(50.195312%, 50.195312%, 50.195312%)" fill-opacity="1" d="M 284.722656 133.175781 L 284.722656 127.714844 L 284.066406 127.714844 L 283.285156 128.34375 L 283.285156 128.964844 L 284.105469 128.296875 L 284.105469 133.175781 Z M 284.722656 133.175781 "/>
<path fill-rule="nonzero" fill="rgb(50.195312%, 50.195312%, 50.195312%)" fill-opacity="1" d="M 288.90625 131.441406 C 288.894531 130.328125 288.203125 129.597656 287.085938 129.597656 C 286.9375 129.609375 286.605469 129.644531 286.40625 129.71875 L 286.605469 128.28125 L 288.535156 128.28125 L 288.535156 127.714844 L 286.207031 127.714844 L 285.871094 130.414062 C 286.304688 130.203125 286.40625 130.152344 286.964844 130.152344 C 287.769531 130.152344 288.335938 130.597656 288.335938 131.441406 C 288.335938 132.308594 287.78125 132.730469 286.964844 132.730469 C 286.417969 132.730469 286.058594 132.617188 285.664062 132.371094 L 285.664062 133.050781 C 286.023438 133.1875 286.554688 133.285156 286.976562 133.285156 C 288.152344 133.285156 288.90625 132.644531 288.90625 131.441406 Z M 288.90625 131.441406 "/>
<path fill-rule="nonzero" fill="rgb(50.195312%, 50.195312%, 50.195312%)" fill-opacity="1" d="M 407.992188 133.175781 L 407.992188 127.714844 L 407.335938 127.714844 L 406.558594 128.34375 L 406.558594 128.964844 L 407.375 128.296875 L 407.375 133.175781 Z M 407.992188 133.175781 "/>
<path fill-rule="nonzero" fill="rgb(50.195312%, 50.195312%, 50.195312%)" fill-opacity="1" d="M 412.179688 131.441406 C 412.164062 130.328125 411.472656 129.597656 410.355469 129.597656 C 410.207031 129.609375 409.875 129.644531 409.675781 129.71875 L 409.875 128.28125 L 411.804688 128.28125 L 411.804688 127.714844 L 409.476562 127.714844 L 409.144531 130.414062 C 409.578125 130.203125 409.675781 130.152344 410.234375 130.152344 C 411.039062 130.152344 411.609375 130.597656 411.609375 131.441406 C 411.609375 132.308594 411.050781 132.730469 410.234375 132.730469 C 409.6875 132.730469 409.328125 132.617188 408.933594 132.371094 L 408.933594 133.050781 C 409.292969 133.1875 409.824219 133.285156 410.246094 133.285156 C 411.421875 133.285156 412.179688 132.644531 412.179688 131.441406 Z M 412.179688 131.441406 "/>
<path fill-rule="nonzero" fill="rgb(50.195312%, 50.195312%, 50.195312%)" fill-opacity="1" d="M 79.851562 130.453125 C 79.835938 131.617188 79.578125 133.300781 78.105469 133.300781 C 76.628906 133.300781 76.382812 131.59375 76.382812 130.453125 C 76.382812 129.300781 76.640625 127.628906 78.105469 127.628906 C 79.566406 127.628906 79.851562 129.300781 79.851562 130.453125 Z M 79.28125 130.453125 C 79.28125 129.695312 79.21875 128.148438 78.105469 128.148438 C 76.988281 128.148438 76.953125 129.722656 76.953125 130.453125 C 76.953125 131.195312 76.976562 132.792969 78.105469 132.792969 C 79.21875 132.792969 79.28125 131.183594 79.28125 130.453125 Z M 79.28125 130.453125 "/>
<path fill-rule="nonzero" fill="rgb(50.195312%, 50.195312%, 50.195312%)" fill-opacity="1" d="M 10.972656 131.132812 L 12.769531 131.132812 L 12.769531 131.652344 L 10.972656 131.652344 Z M 10.972656 131.132812 "/>
<path fill-rule="nonzero" fill="rgb(50.195312%, 50.195312%, 50.195312%)" fill-opacity="1" d="M 14.992188 133.175781 L 14.992188 127.714844 L 14.335938 127.714844 L 13.554688 128.34375 L 13.554688 128.964844 L 14.371094 128.296875 L 14.371094 133.175781 Z M 14.992188 133.175781 "/>
<path fill-rule="nonzero" fill="rgb(50.195312%, 50.195312%, 50.195312%)" fill-opacity="1" d="M 19.175781 131.441406 C 19.164062 130.328125 18.46875 129.597656 17.355469 129.597656 C 17.207031 129.609375 16.871094 129.644531 16.671875 129.71875 L 16.871094 128.28125 L 18.804688 128.28125 L 18.804688 127.714844 L 16.476562 127.714844 L 16.140625 130.414062 C 16.574219 130.203125 16.671875 130.152344 17.230469 130.152344 C 18.035156 130.152344 18.605469 130.597656 18.605469 131.441406 C 18.605469 132.308594 18.046875 132.730469 17.230469 132.730469 C 16.6875 132.730469 16.328125 132.617188 15.929688 132.371094 L 15.929688 133.050781 C 16.289062 133.1875 16.820312 133.285156 17.242188 133.285156 C 18.417969 133.285156 19.175781 132.644531 19.175781 131.441406 Z M 19.175781 131.441406 "/>
<path fill-rule="nonzero" fill="rgb(50.195312%, 50.195312%, 50.195312%)" fill-opacity="1" d="M 138.261719 133.175781 L 138.261719 127.714844 L 137.605469 127.714844 L 136.824219 128.34375 L 136.824219 128.964844 L 137.640625 128.296875 L 137.640625 133.175781 Z M 138.261719 133.175781 "/>
<path fill-rule="nonzero" fill="rgb(50.195312%, 50.195312%, 50.195312%)" fill-opacity="1" d="M 142.445312 131.441406 C 142.433594 130.328125 141.738281 129.597656 140.625 129.597656 C 140.476562 129.609375 140.140625 129.644531 139.945312 129.71875 L 140.140625 128.28125 L 142.074219 128.28125 L 142.074219 127.714844 L 139.746094 127.714844 L 139.410156 130.414062 C 139.84375 130.203125 139.945312 130.152344 140.5 130.152344 C 141.304688 130.152344 141.875 130.597656 141.875 131.441406 C 141.875 132.308594 141.320312 132.730469 140.5 132.730469 C 139.957031 132.730469 139.597656 132.617188 139.199219 132.371094 L 139.199219 133.050781 C 139.558594 133.1875 140.09375 133.285156 140.511719 133.285156 C 141.691406 133.285156 142.445312 132.644531 142.445312 131.441406 Z M 142.445312 131.441406 "/>
</svg>
