<?xml version="1.0" encoding="UTF-8"?>
<svg xmlns="http://www.w3.org/2000/svg" xmlns:xlink="http://www.w3.org/1999/xlink" width="186.644043pt" height="134.18364pt" viewBox="0 0 186.644043 134.18364">
<defs>
<clipPath id="clip-0">
<path clip-rule="nonzero" d="M 0 0 L 186.644531 0 L 186.644531 134.183594 L 0 134.183594 Z M 0 0 "/>
</clipPath>
<clipPath id="clip-1">
<path clip-rule="nonzero" d="M 90 126 L 96 126 L 96 134.183594 L 90 134.183594 Z M 90 126 "/>
</clipPath>
</defs>
<g clip-path="url(#clip-0)">
<path fill="none" stroke-width="0.435968" stroke-linecap="butt" stroke-linejoin="miter" stroke="rgb(100%, 100%, 100%)" stroke-opacity="1" stroke-miterlimit="4" d="M 0.21875 0.597656 L 186.425781 0.597656 L 186.425781 133.957031 L 0.21875 133.957031 Z M 0.21875 0.597656 "/>
</g>
<path fill="none" stroke-width="0.850394" stroke-linecap="butt" stroke-linejoin="miter" stroke="rgb(50.195312%, 50.195312%, 50.195312%)" stroke-opacity="1" stroke-miterlimit="4" d="M 36.90625 114.074219 L 36.90625 116.601562 "/>
<path fill="none" stroke-width="0.850394" stroke-linecap="butt" stroke-linejoin="miter" stroke="rgb(50.195312%, 50.195312%, 50.195312%)" stroke-opacity="1" stroke-miterlimit="4" d="M 99.402344 114.074219 L 99.402344 116.601562 "/>
<path fill="none" stroke-width="0.850394" stroke-linecap="butt" stroke-linejoin="miter" stroke="rgb(50.195312%, 50.195312%, 50.195312%)" stroke-opacity="1" stroke-miterlimit="4" d="M 161.832031 114.074219 L 161.832031 116.601562 "/>
<path fill="none" stroke-width="0.850394" stroke-linecap="butt" stroke-linejoin="miter" stroke="rgb(50.195312%, 50.195312%, 50.195312%)" stroke-opacity="1" stroke-miterlimit="4" d="M 57.738281 114.070312 L 57.738281 115.796875 "/>
<path fill="none" stroke-width="0.850394" stroke-linecap="butt" stroke-linejoin="miter" stroke="rgb(50.195312%, 50.195312%, 50.195312%)" stroke-opacity="1" stroke-miterlimit="4" d="M 120.234375 114.070312 L 120.234375 115.796875 "/>
<path fill="none" stroke-width="0.850394" stroke-linecap="butt" stroke-linejoin="miter" stroke="rgb(50.195312%, 50.195312%, 50.195312%)" stroke-opacity="1" stroke-miterlimit="4" d="M 141.070312 114.070312 L 141.070312 115.796875 "/>
<path fill="none" stroke-width="0.850394" stroke-linecap="butt" stroke-linejoin="miter" stroke="rgb(50.195312%, 50.195312%, 50.195312%)" stroke-opacity="1" stroke-miterlimit="4" d="M 78.570312 114.070312 L 78.570312 115.796875 "/>
<path fill="none" stroke-width="0.850394" stroke-linecap="butt" stroke-linejoin="miter" stroke="rgb(50.195312%, 50.195312%, 50.195312%)" stroke-opacity="1" stroke-miterlimit="4" d="M 36.921875 2.726562 L 34.390625 2.726562 "/>
<path fill="none" stroke-width="0.850394" stroke-linecap="butt" stroke-linejoin="miter" stroke="rgb(50.195312%, 50.195312%, 50.195312%)" stroke-opacity="1" stroke-miterlimit="4" d="M 36.921875 58.78125 L 34.390625 58.78125 "/>
<path fill="none" stroke-width="0.850394" stroke-linecap="butt" stroke-linejoin="miter" stroke="rgb(50.195312%, 50.195312%, 50.195312%)" stroke-opacity="1" stroke-miterlimit="4" d="M 36.855469 114.148438 L 34.324219 114.148438 "/>
<path fill="none" stroke-width="0.850394" stroke-linecap="butt" stroke-linejoin="miter" stroke="rgb(50.195312%, 50.195312%, 50.195312%)" stroke-opacity="1" stroke-miterlimit="4" d="M 36.921875 14.484375 L 35.195312 14.484375 "/>
<path fill="none" stroke-width="0.850394" stroke-linecap="butt" stroke-linejoin="miter" stroke="rgb(50.195312%, 50.195312%, 50.195312%)" stroke-opacity="1" stroke-miterlimit="4" d="M 36.921875 36.632812 L 35.195312 36.632812 "/>
<path fill="none" stroke-width="0.850394" stroke-linecap="butt" stroke-linejoin="miter" stroke="rgb(50.195312%, 50.195312%, 50.195312%)" stroke-opacity="1" stroke-miterlimit="4" d="M 36.921875 69.855469 L 35.195312 69.855469 "/>
<path fill="none" stroke-width="0.850394" stroke-linecap="butt" stroke-linejoin="miter" stroke="rgb(50.195312%, 50.195312%, 50.195312%)" stroke-opacity="1" stroke-miterlimit="4" d="M 36.921875 80.929688 L 35.195312 80.929688 "/>
<path fill="none" stroke-width="0.850394" stroke-linecap="butt" stroke-linejoin="miter" stroke="rgb(50.195312%, 50.195312%, 50.195312%)" stroke-opacity="1" stroke-miterlimit="4" d="M 36.921875 92.003906 L 35.195312 92.003906 "/>
<path fill="none" stroke-width="0.850394" stroke-linecap="butt" stroke-linejoin="miter" stroke="rgb(50.195312%, 50.195312%, 50.195312%)" stroke-opacity="1" stroke-miterlimit="4" d="M 36.921875 103.074219 L 35.195312 103.074219 "/>
<path fill="none" stroke-width="0.850394" stroke-linecap="butt" stroke-linejoin="miter" stroke="rgb(50.195312%, 50.195312%, 50.195312%)" stroke-opacity="1" stroke-miterlimit="4" d="M 36.921875 25.558594 L 35.195312 25.558594 "/>
<path fill="none" stroke-width="0.850394" stroke-linecap="butt" stroke-linejoin="miter" stroke="rgb(50.195312%, 50.195312%, 50.195312%)" stroke-opacity="1" stroke-miterlimit="4" d="M 36.921875 47.707031 L 35.195312 47.707031 "/>
<path fill-rule="nonzero" fill="rgb(81.959534%, 51.371765%, 38.430786%)" fill-opacity="1" stroke-width="0.283465" stroke-linecap="butt" stroke-linejoin="round" stroke="rgb(46.665955%, 23.529053%, 13.725281%)" stroke-opacity="1" stroke-miterlimit="4" d="M 47.535156 57.566406 C 47.535156 59.175781 46.230469 60.484375 44.617188 60.484375 C 43.007812 60.484375 41.703125 59.175781 41.703125 57.566406 C 41.703125 55.957031 43.007812 54.648438 44.617188 54.648438 C 46.230469 54.648438 47.535156 55.957031 47.535156 57.566406 Z M 47.535156 57.566406 "/>
<path fill-rule="nonzero" fill="rgb(81.959534%, 51.371765%, 38.430786%)" fill-opacity="1" stroke-width="0.283465" stroke-linecap="butt" stroke-linejoin="round" stroke="rgb(46.665955%, 23.529053%, 13.725281%)" stroke-opacity="1" stroke-miterlimit="4" d="M 49.878906 57.660156 C 49.878906 59.269531 48.574219 60.578125 46.960938 60.578125 C 45.351562 60.578125 44.046875 59.269531 44.046875 57.660156 C 44.046875 56.050781 45.351562 54.742188 46.960938 54.742188 C 48.574219 54.742188 49.878906 56.050781 49.878906 57.660156 Z M 49.878906 57.660156 "/>
<path fill-rule="nonzero" fill="rgb(81.959534%, 51.371765%, 38.430786%)" fill-opacity="1" stroke-width="0.283465" stroke-linecap="butt" stroke-linejoin="round" stroke="rgb(46.665955%, 23.529053%, 13.725281%)" stroke-opacity="1" stroke-miterlimit="4" d="M 51.472656 61.410156 C 51.472656 63.019531 50.167969 64.328125 48.554688 64.328125 C 46.945312 64.328125 45.640625 63.019531 45.640625 61.410156 C 45.640625 59.800781 46.945312 58.492188 48.554688 58.492188 C 50.167969 58.492188 51.472656 59.800781 51.472656 61.410156 Z M 51.472656 61.410156 "/>
<path fill-rule="nonzero" fill="rgb(81.959534%, 51.371765%, 38.430786%)" fill-opacity="1" stroke-width="0.283465" stroke-linecap="butt" stroke-linejoin="round" stroke="rgb(46.665955%, 23.529053%, 13.725281%)" stroke-opacity="1" stroke-miterlimit="4" d="M 52.972656 47.066406 C 52.972656 48.675781 51.667969 49.984375 50.054688 49.984375 C 48.445312 49.984375 47.140625 48.675781 47.140625 47.066406 C 47.140625 45.457031 48.445312 44.148438 50.054688 44.148438 C 51.667969 44.148438 52.972656 45.457031 52.972656 47.066406 Z M 52.972656 47.066406 "/>
<path fill-rule="nonzero" fill="rgb(81.959534%, 51.371765%, 38.430786%)" fill-opacity="1" stroke-width="0.283465" stroke-linecap="butt" stroke-linejoin="round" stroke="rgb(46.665955%, 23.529053%, 13.725281%)" stroke-opacity="1" stroke-miterlimit="4" d="M 55.503906 60.097656 C 55.503906 61.707031 54.199219 63.015625 52.585938 63.015625 C 50.976562 63.015625 49.671875 61.707031 49.671875 60.097656 C 49.671875 58.488281 50.976562 57.179688 52.585938 57.179688 C 54.199219 57.179688 55.503906 58.488281 55.503906 60.097656 Z M 55.503906 60.097656 "/>
<path fill-rule="nonzero" fill="rgb(81.959534%, 51.371765%, 38.430786%)" fill-opacity="1" stroke-width="0.283465" stroke-linecap="butt" stroke-linejoin="round" stroke="rgb(46.665955%, 23.529053%, 13.725281%)" stroke-opacity="1" stroke-miterlimit="4" d="M 56.253906 59.441406 C 56.253906 61.050781 54.949219 62.359375 53.335938 62.359375 C 51.726562 62.359375 50.421875 61.050781 50.421875 59.441406 C 50.421875 57.832031 51.726562 56.523438 53.335938 56.523438 C 54.949219 56.523438 56.253906 57.832031 56.253906 59.441406 Z M 56.253906 59.441406 "/>
<path fill-rule="nonzero" fill="rgb(81.959534%, 51.371765%, 38.430786%)" fill-opacity="1" stroke-width="0.283465" stroke-linecap="butt" stroke-linejoin="round" stroke="rgb(46.665955%, 23.529053%, 13.725281%)" stroke-opacity="1" stroke-miterlimit="4" d="M 65.253906 58.691406 C 65.253906 60.300781 63.949219 61.609375 62.335938 61.609375 C 60.726562 61.609375 59.421875 60.300781 59.421875 58.691406 C 59.421875 57.082031 60.726562 55.773438 62.335938 55.773438 C 63.949219 55.773438 65.253906 57.082031 65.253906 58.691406 Z M 65.253906 58.691406 "/>
<path fill-rule="nonzero" fill="rgb(81.959534%, 51.371765%, 38.430786%)" fill-opacity="1" stroke-width="0.283465" stroke-linecap="butt" stroke-linejoin="round" stroke="rgb(46.665955%, 23.529053%, 13.725281%)" stroke-opacity="1" stroke-miterlimit="4" d="M 67.972656 61.035156 C 67.972656 62.644531 66.667969 63.953125 65.054688 63.953125 C 63.445312 63.953125 62.140625 62.644531 62.140625 61.035156 C 62.140625 59.425781 63.445312 58.117188 65.054688 58.117188 C 66.667969 58.117188 67.972656 59.425781 67.972656 61.035156 Z M 67.972656 61.035156 "/>
<path fill-rule="nonzero" fill="rgb(81.959534%, 51.371765%, 38.430786%)" fill-opacity="1" stroke-width="0.283465" stroke-linecap="butt" stroke-linejoin="round" stroke="rgb(46.665955%, 23.529053%, 13.725281%)" stroke-opacity="1" stroke-miterlimit="4" d="M 66.472656 69.847656 C 66.472656 71.457031 65.167969 72.765625 63.554688 72.765625 C 61.945312 72.765625 60.640625 71.457031 60.640625 69.847656 C 60.640625 68.238281 61.945312 66.929688 63.554688 66.929688 C 65.167969 66.929688 66.472656 68.238281 66.472656 69.847656 Z M 66.472656 69.847656 "/>
<path fill-rule="nonzero" fill="rgb(81.959534%, 51.371765%, 38.430786%)" fill-opacity="1" stroke-width="0.283465" stroke-linecap="butt" stroke-linejoin="round" stroke="rgb(46.665955%, 23.529053%, 13.725281%)" stroke-opacity="1" stroke-miterlimit="4" d="M 62.535156 74.066406 C 62.535156 75.675781 61.230469 76.984375 59.617188 76.984375 C 58.007812 76.984375 56.703125 75.675781 56.703125 74.066406 C 56.703125 72.457031 58.007812 71.148438 59.617188 71.148438 C 61.230469 71.148438 62.535156 72.457031 62.535156 74.066406 Z M 62.535156 74.066406 "/>
<path fill-rule="nonzero" fill="rgb(81.959534%, 51.371765%, 38.430786%)" fill-opacity="1" stroke-width="0.283465" stroke-linecap="butt" stroke-linejoin="round" stroke="rgb(46.665955%, 23.529053%, 13.725281%)" stroke-opacity="1" stroke-miterlimit="4" d="M 72.941406 73.972656 C 72.941406 75.582031 71.636719 76.890625 70.023438 76.890625 C 68.414062 76.890625 67.109375 75.582031 67.109375 73.972656 C 67.109375 72.363281 68.414062 71.054688 70.023438 71.054688 C 71.636719 71.054688 72.941406 72.363281 72.941406 73.972656 Z M 72.941406 73.972656 "/>
<path fill-rule="nonzero" fill="rgb(81.959534%, 51.371765%, 38.430786%)" fill-opacity="1" stroke-width="0.283465" stroke-linecap="butt" stroke-linejoin="round" stroke="rgb(46.665955%, 23.529053%, 13.725281%)" stroke-opacity="1" stroke-miterlimit="4" d="M 77.441406 49.035156 C 77.441406 50.644531 76.136719 51.953125 74.523438 51.953125 C 72.914062 51.953125 71.609375 50.644531 71.609375 49.035156 C 71.609375 47.425781 72.914062 46.117188 74.523438 46.117188 C 76.136719 46.117188 77.441406 47.425781 77.441406 49.035156 Z M 77.441406 49.035156 "/>
<path fill-rule="nonzero" fill="rgb(81.959534%, 51.371765%, 38.430786%)" fill-opacity="1" stroke-width="0.283465" stroke-linecap="butt" stroke-linejoin="round" stroke="rgb(46.665955%, 23.529053%, 13.725281%)" stroke-opacity="1" stroke-miterlimit="4" d="M 81.097656 33.191406 C 81.097656 34.800781 79.792969 36.109375 78.179688 36.109375 C 76.570312 36.109375 75.265625 34.800781 75.265625 33.191406 C 75.265625 31.582031 76.570312 30.273438 78.179688 30.273438 C 79.792969 30.273438 81.097656 31.582031 81.097656 33.191406 Z M 81.097656 33.191406 "/>
<path fill-rule="nonzero" fill="rgb(81.959534%, 51.371765%, 38.430786%)" fill-opacity="1" stroke-width="0.283465" stroke-linecap="butt" stroke-linejoin="round" stroke="rgb(46.665955%, 23.529053%, 13.725281%)" stroke-opacity="1" stroke-miterlimit="4" d="M 83.535156 25.128906 C 83.535156 26.738281 82.230469 28.046875 80.617188 28.046875 C 79.007812 28.046875 77.703125 26.738281 77.703125 25.128906 C 77.703125 23.519531 79.007812 22.210938 80.617188 22.210938 C 82.230469 22.210938 83.535156 23.519531 83.535156 25.128906 Z M 83.535156 25.128906 "/>
<path fill-rule="nonzero" fill="rgb(81.959534%, 51.371765%, 38.430786%)" fill-opacity="1" stroke-width="0.283465" stroke-linecap="butt" stroke-linejoin="round" stroke="rgb(46.665955%, 23.529053%, 13.725281%)" stroke-opacity="1" stroke-miterlimit="4" d="M 92.441406 110.910156 C 92.441406 112.519531 91.136719 113.828125 89.523438 113.828125 C 87.914062 113.828125 86.609375 112.519531 86.609375 110.910156 C 86.609375 109.300781 87.914062 107.992188 89.523438 107.992188 C 91.136719 107.992188 92.441406 109.300781 92.441406 110.910156 Z M 92.441406 110.910156 "/>
<path fill-rule="nonzero" fill="rgb(81.959534%, 51.371765%, 38.430786%)" fill-opacity="1" stroke-width="0.283465" stroke-linecap="butt" stroke-linejoin="round" stroke="rgb(46.665955%, 23.529053%, 13.725281%)" stroke-opacity="1" stroke-miterlimit="4" d="M 93.285156 89.628906 C 93.285156 91.238281 91.980469 92.546875 90.367188 92.546875 C 88.757812 92.546875 87.453125 91.238281 87.453125 89.628906 C 87.453125 88.019531 88.757812 86.710938 90.367188 86.710938 C 91.980469 86.710938 93.285156 88.019531 93.285156 89.628906 Z M 93.285156 89.628906 "/>
<path fill-rule="nonzero" fill="rgb(81.959534%, 51.371765%, 38.430786%)" fill-opacity="1" stroke-width="0.283465" stroke-linecap="butt" stroke-linejoin="round" stroke="rgb(46.665955%, 23.529053%, 13.725281%)" stroke-opacity="1" stroke-miterlimit="4" d="M 94.222656 85.878906 C 94.222656 87.488281 92.917969 88.796875 91.304688 88.796875 C 89.695312 88.796875 88.390625 87.488281 88.390625 85.878906 C 88.390625 84.269531 89.695312 82.960938 91.304688 82.960938 C 92.917969 82.960938 94.222656 84.269531 94.222656 85.878906 Z M 94.222656 85.878906 "/>
<path fill-rule="nonzero" fill="rgb(81.959534%, 51.371765%, 38.430786%)" fill-opacity="1" stroke-width="0.283465" stroke-linecap="butt" stroke-linejoin="round" stroke="rgb(46.665955%, 23.529053%, 13.725281%)" stroke-opacity="1" stroke-miterlimit="4" d="M 101.535156 70.691406 C 101.535156 72.300781 100.230469 73.609375 98.617188 73.609375 C 97.007812 73.609375 95.703125 72.300781 95.703125 70.691406 C 95.703125 69.082031 97.007812 67.773438 98.617188 67.773438 C 100.230469 67.773438 101.535156 69.082031 101.535156 70.691406 Z M 101.535156 70.691406 "/>
<path fill-rule="nonzero" fill="rgb(81.959534%, 51.371765%, 38.430786%)" fill-opacity="1" stroke-width="0.283465" stroke-linecap="butt" stroke-linejoin="round" stroke="rgb(46.665955%, 23.529053%, 13.725281%)" stroke-opacity="1" stroke-miterlimit="4" d="M 102.847656 56.628906 C 102.847656 58.238281 101.542969 59.546875 99.929688 59.546875 C 98.320312 59.546875 97.015625 58.238281 97.015625 56.628906 C 97.015625 55.019531 98.320312 53.710938 99.929688 53.710938 C 101.542969 53.710938 102.847656 55.019531 102.847656 56.628906 Z M 102.847656 56.628906 "/>
<path fill-rule="nonzero" fill="rgb(81.959534%, 51.371765%, 38.430786%)" fill-opacity="1" stroke-width="0.283465" stroke-linecap="butt" stroke-linejoin="round" stroke="rgb(46.665955%, 23.529053%, 13.725281%)" stroke-opacity="1" stroke-miterlimit="4" d="M 117.378906 76.128906 C 117.378906 77.738281 116.074219 79.046875 114.460938 79.046875 C 112.851562 79.046875 111.546875 77.738281 111.546875 76.128906 C 111.546875 74.519531 112.851562 73.210938 114.460938 73.210938 C 116.074219 73.210938 117.378906 74.519531 117.378906 76.128906 Z M 117.378906 76.128906 "/>
<path fill-rule="nonzero" fill="rgb(81.959534%, 51.371765%, 38.430786%)" fill-opacity="1" stroke-width="0.283465" stroke-linecap="butt" stroke-linejoin="round" stroke="rgb(46.665955%, 23.529053%, 13.725281%)" stroke-opacity="1" stroke-miterlimit="4" d="M 116.535156 62.910156 C 116.535156 64.519531 115.230469 65.828125 113.617188 65.828125 C 112.007812 65.828125 110.703125 64.519531 110.703125 62.910156 C 110.703125 61.300781 112.007812 59.992188 113.617188 59.992188 C 115.230469 59.992188 116.535156 61.300781 116.535156 62.910156 Z M 116.535156 62.910156 "/>
<path fill-rule="nonzero" fill="rgb(81.959534%, 51.371765%, 38.430786%)" fill-opacity="1" stroke-width="0.283465" stroke-linecap="butt" stroke-linejoin="round" stroke="rgb(46.665955%, 23.529053%, 13.725281%)" stroke-opacity="1" stroke-miterlimit="4" d="M 114.472656 48.941406 C 114.472656 50.550781 113.167969 51.859375 111.554688 51.859375 C 109.945312 51.859375 108.640625 50.550781 108.640625 48.941406 C 108.640625 47.332031 109.945312 46.023438 111.554688 46.023438 C 113.167969 46.023438 114.472656 47.332031 114.472656 48.941406 Z M 114.472656 48.941406 "/>
<path fill-rule="nonzero" fill="rgb(81.959534%, 51.371765%, 38.430786%)" fill-opacity="1" stroke-width="0.283465" stroke-linecap="butt" stroke-linejoin="round" stroke="rgb(46.665955%, 23.529053%, 13.725281%)" stroke-opacity="1" stroke-miterlimit="4" d="M 104.160156 30.566406 C 104.160156 32.175781 102.855469 33.484375 101.242188 33.484375 C 99.632812 33.484375 98.328125 32.175781 98.328125 30.566406 C 98.328125 28.957031 99.632812 27.648438 101.242188 27.648438 C 102.855469 27.648438 104.160156 28.957031 104.160156 30.566406 Z M 104.160156 30.566406 "/>
<path fill-rule="nonzero" fill="rgb(81.959534%, 51.371765%, 38.430786%)" fill-opacity="1" stroke-width="0.283465" stroke-linecap="butt" stroke-linejoin="round" stroke="rgb(46.665955%, 23.529053%, 13.725281%)" stroke-opacity="1" stroke-miterlimit="4" d="M 105.847656 12.285156 C 105.847656 13.894531 104.542969 15.203125 102.929688 15.203125 C 101.320312 15.203125 100.015625 13.894531 100.015625 12.285156 C 100.015625 10.675781 101.320312 9.367188 102.929688 9.367188 C 104.542969 9.367188 105.847656 10.675781 105.847656 12.285156 Z M 105.847656 12.285156 "/>
<path fill-rule="nonzero" fill="rgb(81.959534%, 51.371765%, 38.430786%)" fill-opacity="1" stroke-width="0.283465" stroke-linecap="butt" stroke-linejoin="round" stroke="rgb(46.665955%, 23.529053%, 13.725281%)" stroke-opacity="1" stroke-miterlimit="4" d="M 108.285156 8.441406 C 108.285156 10.050781 106.980469 11.359375 105.367188 11.359375 C 103.757812 11.359375 102.453125 10.050781 102.453125 8.441406 C 102.453125 6.832031 103.757812 5.523438 105.367188 5.523438 C 106.980469 5.523438 108.285156 6.832031 108.285156 8.441406 Z M 108.285156 8.441406 "/>
<path fill-rule="nonzero" fill="rgb(81.959534%, 51.371765%, 38.430786%)" fill-opacity="1" stroke-width="0.283465" stroke-linecap="butt" stroke-linejoin="round" stroke="rgb(46.665955%, 23.529053%, 13.725281%)" stroke-opacity="1" stroke-miterlimit="4" d="M 137.816406 39.566406 C 137.816406 41.175781 136.511719 42.484375 134.898438 42.484375 C 133.289062 42.484375 131.984375 41.175781 131.984375 39.566406 C 131.984375 37.957031 133.289062 36.648438 134.898438 36.648438 C 136.511719 36.648438 137.816406 37.957031 137.816406 39.566406 Z M 137.816406 39.566406 "/>
<path fill-rule="nonzero" fill="rgb(81.959534%, 51.371765%, 38.430786%)" fill-opacity="1" stroke-width="0.283465" stroke-linecap="butt" stroke-linejoin="round" stroke="rgb(46.665955%, 23.529053%, 13.725281%)" stroke-opacity="1" stroke-miterlimit="4" d="M 146.066406 47.628906 C 146.066406 49.238281 144.761719 50.546875 143.148438 50.546875 C 141.539062 50.546875 140.234375 49.238281 140.234375 47.628906 C 140.234375 46.019531 141.539062 44.710938 143.148438 44.710938 C 144.761719 44.710938 146.066406 46.019531 146.066406 47.628906 Z M 146.066406 47.628906 "/>
<path fill-rule="nonzero" fill="rgb(81.959534%, 51.371765%, 38.430786%)" fill-opacity="1" stroke-width="0.283465" stroke-linecap="butt" stroke-linejoin="round" stroke="rgb(46.665955%, 23.529053%, 13.725281%)" stroke-opacity="1" stroke-miterlimit="4" d="M 145.316406 54.941406 C 145.316406 56.550781 144.011719 57.859375 142.398438 57.859375 C 140.789062 57.859375 139.484375 56.550781 139.484375 54.941406 C 139.484375 53.332031 140.789062 52.023438 142.398438 52.023438 C 144.011719 52.023438 145.316406 53.332031 145.316406 54.941406 Z M 145.316406 54.941406 "/>
<path fill-rule="nonzero" fill="rgb(100%, 100%, 100%)" fill-opacity="0.532663" d="M 115.511719 100.816406 L 128.773438 100.816406 L 128.773438 111.425781 L 115.511719 111.425781 Z M 115.511719 100.816406 "/>
<path fill-rule="nonzero" fill="rgb(0%, 0%, 0%)" fill-opacity="1" d="M 83.140625 124.449219 L 83.925781 124.449219 L 83.925781 131.664062 L 83.140625 131.664062 Z M 83.140625 124.449219 "/>
<path fill-rule="nonzero" fill="rgb(0%, 0%, 0%)" fill-opacity="1" d="M 89.417969 131.664062 L 89.417969 128.816406 C 89.417969 127.703125 88.945312 126.835938 87.734375 126.835938 C 87.128906 126.835938 86.507812 127.066406 86.132812 127.589844 L 86.132812 126.953125 L 85.363281 126.953125 L 85.363281 131.664062 L 86.132812 131.664062 L 86.132812 128.996094 C 86.164062 128.097656 86.71875 127.523438 87.554688 127.523438 C 88.371094 127.523438 88.667969 128.015625 88.667969 128.851562 L 88.667969 131.664062 Z M 89.417969 131.664062 "/>
<g clip-path="url(#clip-1)">
<path fill-rule="nonzero" fill="rgb(0%, 0%, 0%)" fill-opacity="1" d="M 95.117188 129.308594 C 95.117188 127.933594 94.199219 126.953125 92.808594 126.953125 L 90.796875 126.953125 L 90.796875 134.183594 L 91.582031 134.183594 L 91.582031 131.664062 L 92.742188 131.664062 C 94.265625 131.664062 95.117188 130.714844 95.117188 129.308594 Z M 94.363281 129.308594 C 94.363281 130.242188 93.773438 130.976562 92.742188 130.976562 L 91.582031 130.976562 L 91.582031 127.640625 L 92.742188 127.640625 C 93.757812 127.640625 94.363281 128.308594 94.363281 129.308594 Z M 94.363281 129.308594 "/>
</g>
<path fill-rule="nonzero" fill="rgb(0%, 0%, 0%)" fill-opacity="1" d="M 100.339844 131.664062 L 100.339844 126.953125 L 99.539062 126.953125 L 99.539062 129.617188 C 99.539062 130.503906 99.097656 131.109375 98.148438 131.109375 C 97.3125 131.109375 97.019531 130.585938 97.019531 129.78125 L 97.019531 126.953125 L 96.265625 126.953125 L 96.265625 129.800781 C 96.265625 130.910156 96.789062 131.796875 97.96875 131.796875 C 98.574219 131.796875 99.195312 131.453125 99.539062 131.042969 L 99.539062 131.664062 Z M 100.339844 131.664062 "/>
<path fill-rule="nonzero" fill="rgb(0%, 0%, 0%)" fill-opacity="1" d="M 104.414062 131.664062 L 104.414062 130.992188 L 103.597656 130.992188 C 102.863281 130.992188 102.730469 130.8125 102.730469 130.125 L 102.730469 127.574219 L 104.121094 127.574219 L 104.121094 126.953125 L 102.730469 126.953125 L 102.730469 125.609375 L 102.402344 125.609375 L 101.960938 126.953125 L 101.40625 126.953125 L 101.40625 127.574219 L 101.960938 127.574219 L 101.960938 130.125 C 101.960938 131.304688 102.4375 131.664062 103.597656 131.664062 Z M 104.414062 131.664062 "/>
<path fill-rule="nonzero" fill="rgb(0%, 0%, 0%)" fill-opacity="1" d="M 106.394531 130.601562 L 105.445312 130.601562 L 105.445312 131.320312 C 105.511719 131.453125 105.527344 131.582031 105.527344 131.714844 C 105.527344 132.089844 105.332031 132.480469 105.054688 132.660156 C 105.59375 132.644531 106.378906 131.84375 106.394531 131.335938 Z M 106.394531 130.601562 "/>
<path fill-rule="nonzero" fill="rgb(0%, 0%, 0%)" fill-opacity="1" d="M 113.601562 128.507812 C 113.667969 128.246094 113.914062 127.28125 114.632812 127.28125 C 114.679688 127.28125 114.941406 127.28125 115.15625 127.410156 C 114.863281 127.476562 114.664062 127.722656 114.664062 127.984375 C 114.664062 128.148438 114.78125 128.34375 115.058594 128.34375 C 115.285156 128.34375 115.613281 128.164062 115.613281 127.738281 C 115.613281 127.199219 115.007812 127.050781 114.648438 127.050781 C 114.042969 127.050781 113.683594 127.605469 113.550781 127.835938 C 113.289062 127.148438 112.734375 127.050781 112.421875 127.050781 C 111.34375 127.050781 110.738281 128.390625 110.738281 128.652344 C 110.738281 128.769531 110.851562 128.769531 110.871094 128.769531 C 110.949219 128.769531 110.984375 128.734375 111 128.652344 C 111.359375 127.542969 112.046875 127.28125 112.40625 127.28125 C 112.605469 127.28125 112.964844 127.378906 112.964844 127.984375 C 112.964844 128.308594 112.785156 128.996094 112.40625 130.46875 C 112.242188 131.109375 111.867188 131.550781 111.410156 131.550781 C 111.34375 131.550781 111.113281 131.550781 110.886719 131.417969 C 111.148438 131.351562 111.375 131.140625 111.375 130.847656 C 111.375 130.566406 111.148438 130.484375 111 130.484375 C 110.671875 130.484375 110.425781 130.746094 110.425781 131.089844 C 110.425781 131.566406 110.933594 131.777344 111.394531 131.777344 C 112.097656 131.777344 112.472656 131.042969 112.488281 130.992188 C 112.621094 131.371094 112.996094 131.777344 113.617188 131.777344 C 114.699219 131.777344 115.285156 130.4375 115.285156 130.175781 C 115.285156 130.0625 115.203125 130.0625 115.171875 130.0625 C 115.074219 130.0625 115.058594 130.109375 115.023438 130.175781 C 114.679688 131.304688 113.976562 131.550781 113.652344 131.550781 C 113.242188 131.550781 113.078125 131.222656 113.078125 130.863281 C 113.078125 130.632812 113.128906 130.40625 113.242188 129.945312 Z M 113.601562 128.507812 "/>
<path fill-rule="nonzero" fill="rgb(0%, 0%, 0%)" fill-opacity="1" d="M 25.492188 72.722656 C 23.511719 72.722656 21.730469 73.636719 21.730469 75.796875 C 21.730469 77.90625 23.5625 78.839844 25.492188 78.839844 C 27.421875 78.839844 29.222656 77.890625 29.222656 75.796875 C 29.222656 73.652344 27.472656 72.722656 25.492188 72.722656 Z M 25.492188 73.488281 C 26.949219 73.488281 28.519531 74.128906 28.519531 75.796875 C 28.519531 77.433594 26.933594 78.070312 25.492188 78.070312 C 24.003906 78.070312 22.433594 77.464844 22.433594 75.796875 C 22.433594 74.09375 23.988281 73.488281 25.492188 73.488281 Z M 25.492188 73.488281 "/>
<path fill-rule="nonzero" fill="rgb(0%, 0%, 0%)" fill-opacity="1" d="M 29.074219 67.519531 L 24.363281 67.519531 L 24.363281 68.324219 L 27.03125 68.324219 C 27.914062 68.324219 28.519531 68.765625 28.519531 69.714844 C 28.519531 70.546875 27.996094 70.84375 27.195312 70.84375 L 24.363281 70.84375 L 24.363281 71.59375 L 27.210938 71.59375 C 28.324219 71.59375 29.207031 71.070312 29.207031 69.894531 C 29.207031 69.289062 28.863281 68.667969 28.453125 68.324219 L 29.074219 68.324219 Z M 29.074219 67.519531 "/>
<path fill-rule="nonzero" fill="rgb(0%, 0%, 0%)" fill-opacity="1" d="M 29.074219 63.445312 L 28.40625 63.445312 L 28.40625 64.261719 C 28.40625 65 28.222656 65.128906 27.539062 65.128906 L 24.984375 65.128906 L 24.984375 63.738281 L 24.363281 63.738281 L 24.363281 65.128906 L 23.023438 65.128906 L 23.023438 65.457031 L 24.363281 65.898438 L 24.363281 66.457031 L 24.984375 66.457031 L 24.984375 65.898438 L 27.539062 65.898438 C 28.714844 65.898438 29.074219 65.425781 29.074219 64.261719 Z M 29.074219 63.445312 "/>
<path fill-rule="nonzero" fill="rgb(0%, 0%, 0%)" fill-opacity="1" d="M 26.71875 58.160156 C 25.34375 58.160156 24.363281 59.078125 24.363281 60.46875 L 24.363281 62.480469 L 31.59375 62.480469 L 31.59375 61.695312 L 29.074219 61.695312 L 29.074219 60.535156 C 29.074219 59.011719 28.125 58.160156 26.71875 58.160156 Z M 26.71875 58.914062 C 27.652344 58.914062 28.386719 59.503906 28.386719 60.535156 L 28.386719 61.695312 L 25.050781 61.695312 L 25.050781 60.535156 C 25.050781 59.519531 25.722656 58.914062 26.71875 58.914062 Z M 26.71875 58.914062 "/>
<path fill-rule="nonzero" fill="rgb(0%, 0%, 0%)" fill-opacity="1" d="M 29.074219 52.9375 L 24.363281 52.9375 L 24.363281 53.738281 L 27.03125 53.738281 C 27.914062 53.738281 28.519531 54.179688 28.519531 55.128906 C 28.519531 55.964844 27.996094 56.257812 27.195312 56.257812 L 24.363281 56.257812 L 24.363281 57.011719 L 27.210938 57.011719 C 28.324219 57.011719 29.207031 56.488281 29.207031 55.308594 C 29.207031 54.703125 28.863281 54.082031 28.453125 53.738281 L 29.074219 53.738281 Z M 29.074219 52.9375 "/>
<path fill-rule="nonzero" fill="rgb(0%, 0%, 0%)" fill-opacity="1" d="M 29.074219 48.863281 L 28.40625 48.863281 L 28.40625 49.679688 C 28.40625 50.417969 28.222656 50.546875 27.539062 50.546875 L 24.984375 50.546875 L 24.984375 49.15625 L 24.363281 49.15625 L 24.363281 50.546875 L 23.023438 50.546875 L 23.023438 50.875 L 24.363281 51.316406 L 24.363281 51.871094 L 24.984375 51.871094 L 24.984375 51.316406 L 27.539062 51.316406 C 28.714844 51.316406 29.074219 50.839844 29.074219 49.679688 Z M 29.074219 48.863281 "/>
<path fill-rule="nonzero" fill="rgb(0%, 0%, 0%)" fill-opacity="1" d="M 28.011719 46.882812 L 28.011719 47.832031 L 28.730469 47.832031 C 28.863281 47.765625 28.992188 47.75 29.125 47.75 C 29.5 47.75 29.894531 47.945312 30.074219 48.222656 C 30.058594 47.683594 29.253906 46.898438 28.746094 46.882812 Z M 28.011719 46.882812 "/>
<path fill-rule="nonzero" fill="rgb(0%, 0%, 0%)" fill-opacity="1" d="M 25.097656 38.089844 C 24.953125 38.039062 24.9375 38.039062 24.855469 38.039062 C 24.675781 38.039062 24.574219 38.1875 24.574219 38.351562 C 24.574219 38.449219 24.640625 38.613281 24.789062 38.710938 C 24.855469 38.726562 25.164062 38.824219 25.363281 38.859375 C 25.625 38.941406 25.917969 39.003906 26.195312 39.070312 L 28.078125 39.542969 C 28.222656 39.578125 28.960938 40.035156 28.960938 40.722656 C 28.960938 41.246094 28.503906 41.359375 28.109375 41.359375 C 27.636719 41.359375 26.980469 41.179688 26.066406 40.835938 C 25.640625 40.671875 25.523438 40.625 25.3125 40.625 C 24.855469 40.625 24.460938 40.953125 24.460938 41.476562 C 24.460938 42.472656 25.984375 42.851562 26.066406 42.851562 C 26.179688 42.851562 26.179688 42.75 26.179688 42.734375 C 26.179688 42.621094 26.148438 42.621094 25.984375 42.570312 C 25 42.277344 24.691406 41.867188 24.691406 41.507812 C 24.691406 41.425781 24.691406 41.246094 25.019531 41.246094 C 25.28125 41.246094 25.558594 41.359375 25.753906 41.425781 C 26.867188 41.851562 27.457031 42.03125 27.945312 42.03125 C 28.878906 42.03125 29.191406 41.378906 29.191406 40.753906 C 29.191406 40.347656 29.011719 40.003906 28.714844 39.707031 C 29.253906 39.839844 29.777344 39.96875 30.335938 40.378906 C 30.679688 40.65625 30.988281 41.050781 30.988281 41.523438 C 30.988281 41.671875 30.957031 42.144531 30.546875 42.324219 C 30.546875 42.164062 30.546875 42.015625 30.417969 41.882812 C 30.335938 41.769531 30.1875 41.671875 29.992188 41.671875 C 29.664062 41.671875 29.632812 41.949219 29.632812 42.046875 C 29.632812 42.292969 29.796875 42.636719 30.300781 42.636719 C 30.824219 42.636719 31.21875 42.179688 31.21875 41.523438 C 31.21875 40.460938 30.269531 39.382812 29.089844 39.085938 Z M 25.097656 38.089844 "/>
<path fill="none" stroke-width="0.850394" stroke-linecap="butt" stroke-linejoin="round" stroke="rgb(1.176453%, 0%, 0%)" stroke-opacity="1" stroke-miterlimit="4" d="M 36.921875 2.746094 L 161.832031 2.746094 L 161.832031 114.132812 L 36.921875 114.132812 Z M 36.921875 2.746094 "/>
<path fill-rule="nonzero" fill="rgb(81.959534%, 51.371765%, 38.430786%)" fill-opacity="1" stroke-width="0.283465" stroke-linecap="butt" stroke-linejoin="round" stroke="rgb(46.665955%, 23.529053%, 13.725281%)" stroke-opacity="1" stroke-miterlimit="4" d="M 43.335938 59.828125 C 43.335938 61.441406 42.03125 62.746094 40.417969 62.746094 C 38.808594 62.746094 37.503906 61.441406 37.503906 59.828125 C 37.503906 58.21875 38.808594 56.914062 40.417969 56.914062 C 42.03125 56.914062 43.335938 58.21875 43.335938 59.828125 Z M 43.335938 59.828125 "/>
<path fill-rule="nonzero" fill="rgb(50.195312%, 50.195312%, 50.195312%)" fill-opacity="1" d="M 33.253906 5.6875 L 33.253906 0.226562 L 32.597656 0.226562 L 31.816406 0.855469 L 31.816406 1.476562 L 32.632812 0.808594 L 32.632812 5.6875 Z M 33.253906 5.6875 "/>
<path fill-rule="nonzero" fill="rgb(50.195312%, 50.195312%, 50.195312%)" fill-opacity="1" d="M 29.128906 114.519531 L 30.925781 114.519531 L 30.925781 115.039062 L 29.128906 115.039062 Z M 29.128906 114.519531 "/>
<path fill-rule="nonzero" fill="rgb(50.195312%, 50.195312%, 50.195312%)" fill-opacity="1" d="M 33.144531 116.5625 L 33.144531 111.101562 L 32.488281 111.101562 L 31.710938 111.734375 L 31.710938 112.351562 L 32.527344 111.683594 L 32.527344 116.5625 Z M 33.144531 116.5625 "/>
<path fill-rule="nonzero" fill="rgb(50.195312%, 50.195312%, 50.195312%)" fill-opacity="1" d="M 101.15625 120.175781 C 101.144531 121.34375 100.886719 123.027344 99.410156 123.027344 C 97.9375 123.027344 97.6875 121.316406 97.6875 120.175781 C 97.6875 119.027344 97.949219 117.355469 99.410156 117.355469 C 100.871094 117.355469 101.15625 119.027344 101.15625 120.175781 Z M 100.585938 120.175781 C 100.585938 119.421875 100.527344 117.875 99.410156 117.875 C 98.296875 117.875 98.257812 119.445312 98.257812 120.175781 C 98.257812 120.921875 98.285156 122.519531 99.410156 122.519531 C 100.527344 122.519531 100.585938 120.910156 100.585938 120.175781 Z M 100.585938 120.175781 "/>
<path fill-rule="nonzero" fill="rgb(50.195312%, 50.195312%, 50.195312%)" fill-opacity="1" d="M 31.902344 120.855469 L 33.699219 120.855469 L 33.699219 121.378906 L 31.902344 121.378906 Z M 31.902344 120.855469 "/>
<path fill-rule="nonzero" fill="rgb(50.195312%, 50.195312%, 50.195312%)" fill-opacity="1" d="M 35.917969 122.902344 L 35.917969 117.4375 L 35.261719 117.4375 L 34.484375 118.070312 L 34.484375 118.6875 L 35.300781 118.019531 L 35.300781 122.902344 Z M 35.917969 122.902344 "/>
<path fill-rule="nonzero" fill="rgb(50.195312%, 50.195312%, 50.195312%)" fill-opacity="1" d="M 40.105469 121.167969 C 40.089844 120.050781 39.398438 119.320312 38.285156 119.320312 C 38.132812 119.332031 37.800781 119.371094 37.601562 119.445312 L 37.800781 118.007812 L 39.730469 118.007812 L 39.730469 117.4375 L 37.402344 117.4375 L 37.070312 120.136719 C 37.503906 119.929688 37.601562 119.878906 38.160156 119.878906 C 38.964844 119.878906 39.535156 120.324219 39.535156 121.167969 C 39.535156 122.035156 38.976562 122.453125 38.160156 122.453125 C 37.613281 122.453125 37.253906 122.34375 36.859375 122.09375 L 36.859375 122.777344 C 37.21875 122.914062 37.75 123.011719 38.171875 123.011719 C 39.347656 123.011719 40.105469 122.367188 40.105469 121.167969 Z M 40.105469 121.167969 "/>
<path fill-rule="nonzero" fill="rgb(50.195312%, 50.195312%, 50.195312%)" fill-opacity="1" d="M 159.949219 122.902344 L 159.949219 117.4375 L 159.292969 117.4375 L 158.511719 118.070312 L 158.511719 118.6875 L 159.328125 118.019531 L 159.328125 122.902344 Z M 159.949219 122.902344 "/>
<path fill-rule="nonzero" fill="rgb(50.195312%, 50.195312%, 50.195312%)" fill-opacity="1" d="M 164.132812 121.167969 C 164.121094 120.050781 163.425781 119.320312 162.3125 119.320312 C 162.164062 119.332031 161.828125 119.371094 161.628906 119.445312 L 161.828125 118.007812 L 163.761719 118.007812 L 163.761719 117.4375 L 161.433594 117.4375 L 161.097656 120.136719 C 161.53125 119.929688 161.628906 119.878906 162.1875 119.878906 C 162.992188 119.878906 163.5625 120.324219 163.5625 121.167969 C 163.5625 122.035156 163.003906 122.453125 162.1875 122.453125 C 161.640625 122.453125 161.285156 122.34375 160.886719 122.09375 L 160.886719 122.777344 C 161.246094 122.914062 161.777344 123.011719 162.199219 123.011719 C 163.375 123.011719 164.132812 122.367188 164.132812 121.167969 Z M 164.132812 121.167969 "/>
</svg>
