<?xml version="1.0" encoding="UTF-8"?>
<svg xmlns="http://www.w3.org/2000/svg" xmlns:xlink="http://www.w3.org/1999/xlink" width="453.28479pt" height="167.315247pt" viewBox="0 0 453.28479 167.315247">
<defs>
<clipPath id="clip-0">
<path clip-rule="nonzero" d="M 314 13 L 453.285156 13 L 453.285156 154 L 314 154 Z M 314 13 "/>
</clipPath>
<clipPath id="clip-1">
<path clip-rule="nonzero" d="M 306 36 L 453.285156 36 L 453.285156 119 L 306 119 Z M 306 36 "/>
</clipPath>
<clipPath id="clip-2">
<path clip-rule="nonzero" d="M 79 155 L 88 155 L 88 167.316406 L 79 167.316406 Z M 79 155 "/>
</clipPath>
<clipPath id="clip-3">
<path clip-rule="nonzero" d="M 230 155 L 239 155 L 239 167.316406 L 230 167.316406 Z M 230 155 "/>
</clipPath>
<clipPath id="clip-4">
<path clip-rule="nonzero" d="M 380 155 L 389 155 L 389 167.316406 L 380 167.316406 Z M 380 155 "/>
</clipPath>
</defs>
<path fill-rule="nonzero" fill="rgb(77.645874%, 80.39093%, 81.175232%)" fill-opacity="1" d="M 25.5 13.449219 L 145.398438 13.449219 L 145.398438 153.386719 L 25.5 153.386719 Z M 25.5 13.449219 "/>
<path fill="none" stroke-width="0.566929" stroke-linecap="butt" stroke-linejoin="miter" stroke="rgb(0%, 0%, 0%)" stroke-opacity="1" stroke-miterlimit="4" d="M 15.054688 13.582031 L 152.816406 13.582031 L 152.816406 153.699219 L 15.054688 153.699219 Z M 15.054688 13.582031 "/>
<path fill="none" stroke-width="0.433943" stroke-linecap="butt" stroke-linejoin="miter" stroke="rgb(0%, 0%, 0%)" stroke-opacity="1" stroke-dasharray="0.433943 1.30183" stroke-miterlimit="4" d="M 25.8125 63.292969 L 25.8125 120.832031 "/>
<path fill="none" stroke-width="0.433943" stroke-linecap="butt" stroke-linejoin="miter" stroke="rgb(0%, 0%, 0%)" stroke-opacity="1" stroke-dasharray="0.433943 1.30183" stroke-miterlimit="4" d="M 145.628906 87.929688 L 145.628906 120.832031 "/>
<path fill="none" stroke-width="1.532213" stroke-linecap="butt" stroke-linejoin="miter" stroke="rgb(0%, 0%, 0%)" stroke-opacity="1" stroke-miterlimit="4" d="M 15.300781 45.75 C 15.300781 45.75 20.324219 54.957031 23.746094 58.902344 C 28.261719 64.105469 33.160156 69.453125 39.40625 72.460938 C 45.308594 75.304688 52.363281 74.691406 58.777344 76.105469 C 63.066406 77.050781 69.152344 75.664062 71.550781 79.34375 C 74.78125 84.292969 80.433594 109.496094 84.308594 110.3125 C 87.550781 110.554688 92.972656 99.703125 102.046875 102.816406 C 107.65625 105.378906 114.601562 103.535156 120.59375 102.007812 C 128.769531 99.921875 137.667969 97.097656 143.257812 90.878906 C 149.136719 84.335938 152.117188 66.1875 152.117188 66.1875 "/>
<path fill-rule="nonzero" fill="rgb(100%, 0%, 0%)" fill-opacity="1" stroke-width="0.610186" stroke-linecap="butt" stroke-linejoin="miter" stroke="rgb(100%, 100%, 100%)" stroke-opacity="1" stroke-miterlimit="4" d="M -23.179688 61.859375 C -23.179688 63.445312 -24.46875 64.734375 -26.058594 64.734375 C -27.644531 64.734375 -28.933594 63.445312 -28.933594 61.859375 C -28.933594 60.269531 -27.644531 58.980469 -26.058594 58.980469 C -24.46875 58.980469 -23.179688 60.269531 -23.179688 61.859375 Z M -23.179688 61.859375 " transform="matrix(-1, 0, 0, 1, 0, 0)"/>
<path fill="none" stroke-width="0.433943" stroke-linecap="butt" stroke-linejoin="miter" stroke="rgb(0%, 0%, 0%)" stroke-opacity="1" stroke-dasharray="0.433943 1.30183" stroke-miterlimit="4" d="M 65.753906 77.664062 L 65.753906 120.832031 "/>
<path fill="none" stroke-width="0.433943" stroke-linecap="butt" stroke-linejoin="miter" stroke="rgb(0%, 0%, 0%)" stroke-opacity="1" stroke-dasharray="0.433943 1.30183" stroke-miterlimit="4" d="M 105.691406 104.324219 L 105.691406 120.832031 "/>
<path fill-rule="nonzero" fill="rgb(0%, 0%, 0%)" fill-opacity="1" d="M 27.742188 125.316406 L 27.722656 125.28125 L 27.699219 125.234375 L 27.6875 125.199219 L 27.617188 125.09375 L 27.582031 125.058594 L 27.535156 124.988281 L 27.511719 124.957031 L 27.394531 124.839844 L 27.359375 124.816406 L 27.324219 124.78125 L 27.253906 124.734375 L 27.21875 124.722656 L 27.148438 124.675781 L 27.113281 124.664062 L 27.066406 124.640625 L 27.03125 124.628906 L 26.984375 124.617188 L 26.949219 124.605469 L 26.902344 124.59375 L 26.855469 124.59375 L 26.808594 124.582031 L 26.761719 124.582031 L 26.714844 124.570312 L 26.667969 124.570312 L 26.679688 124.828125 C 27.441406 124.828125 27.605469 125.785156 27.605469 125.855469 C 27.605469 125.925781 27.582031 125.996094 27.570312 126.054688 L 26.984375 128.332031 C 26.925781 128.539062 26.925781 128.5625 26.75 128.761719 C 26.238281 129.40625 25.769531 129.589844 25.445312 129.589844 C 24.859375 129.589844 24.695312 128.949219 24.695312 128.492188 C 24.695312 127.910156 25.070312 126.484375 25.339844 125.949219 C 25.699219 125.257812 26.214844 124.828125 26.679688 124.828125 L 26.667969 124.570312 C 25.316406 124.570312 23.867188 126.285156 23.867188 127.980469 C 23.867188 129.078125 24.507812 129.847656 25.421875 129.847656 C 25.640625 129.847656 26.226562 129.800781 26.925781 128.972656 C 27.019531 129.464844 27.429688 129.847656 27.988281 129.847656 C 28.398438 129.847656 28.667969 129.578125 28.855469 129.207031 C 29.039062 128.785156 29.191406 128.074219 29.191406 128.050781 C 29.191406 127.933594 29.085938 127.933594 29.050781 127.933594 C 28.945312 127.933594 28.921875 127.980469 28.890625 128.144531 C 28.691406 128.902344 28.492188 129.589844 28.011719 129.589844 C 27.699219 129.589844 27.664062 129.289062 27.664062 129.054688 C 27.664062 128.796875 27.6875 128.703125 27.8125 128.191406 C 27.941406 127.699219 27.964844 127.582031 28.070312 127.152344 L 28.492188 125.515625 C 28.574219 125.1875 28.574219 125.164062 28.574219 125.117188 C 28.574219 124.921875 28.433594 124.804688 28.234375 124.804688 C 27.953125 124.804688 27.777344 125.058594 27.742188 125.316406 Z M 27.742188 125.316406 "/>
<path fill-rule="nonzero" fill="rgb(0%, 0%, 0%)" fill-opacity="1" d="M 65.855469 121.765625 L 65.855469 121.71875 L 65.84375 121.707031 L 65.84375 121.695312 L 65.832031 121.695312 L 65.832031 121.683594 L 65.820312 121.683594 L 65.820312 121.671875 L 65.808594 121.671875 L 65.808594 121.660156 L 65.785156 121.660156 L 65.785156 121.648438 L 65.75 121.648438 L 65.738281 121.636719 L 65.703125 121.636719 C 65.445312 121.636719 64.59375 121.730469 64.289062 121.753906 C 64.195312 121.765625 64.070312 121.777344 64.070312 121.988281 C 64.070312 122.128906 64.171875 122.128906 64.347656 122.128906 C 64.910156 122.128906 64.933594 122.210938 64.933594 122.328125 C 64.933594 122.410156 64.828125 122.804688 64.769531 123.050781 L 63.8125 126.847656 C 63.671875 127.417969 63.625 127.605469 63.625 128.015625 C 63.625 129.125 64.242188 129.847656 65.109375 129.847656 L 65.109375 129.589844 C 64.710938 129.589844 64.324219 129.277344 64.324219 128.410156 C 64.324219 128.191406 64.324219 127.96875 64.511719 127.234375 L 64.769531 126.167969 C 64.839844 125.914062 64.839844 125.890625 64.945312 125.761719 C 65.503906 125 66.03125 124.828125 66.335938 124.828125 C 66.753906 124.828125 67.070312 125.175781 67.070312 125.925781 C 67.070312 126.613281 66.683594 127.945312 66.472656 128.390625 C 66.089844 129.171875 65.550781 129.589844 65.109375 129.589844 L 65.109375 129.847656 C 66.472656 129.847656 67.910156 128.109375 67.910156 126.4375 C 67.910156 125.375 67.292969 124.570312 66.359375 124.570312 C 65.820312 124.570312 65.351562 124.910156 65.003906 125.269531 Z M 65.855469 121.765625 "/>
<path fill-rule="nonzero" fill="rgb(0%, 0%, 0%)" fill-opacity="1" d="M 147.011719 121.765625 L 147.011719 121.71875 L 147 121.71875 L 147 121.695312 L 146.988281 121.695312 L 146.988281 121.683594 L 146.976562 121.683594 L 146.976562 121.671875 L 146.964844 121.671875 L 146.964844 121.660156 L 146.941406 121.660156 L 146.941406 121.648438 L 146.90625 121.648438 L 146.894531 121.636719 L 146.859375 121.636719 C 146.6875 121.636719 145.589844 121.742188 145.390625 121.765625 C 145.296875 121.777344 145.226562 121.835938 145.226562 121.988281 C 145.226562 122.128906 145.332031 122.128906 145.507812 122.128906 C 146.066406 122.128906 146.089844 122.210938 146.089844 122.328125 L 146.054688 122.5625 L 145.355469 125.316406 C 145.144531 124.886719 144.804688 124.570312 144.28125 124.570312 L 144.292969 124.828125 C 145.050781 124.828125 145.214844 125.785156 145.214844 125.855469 C 145.214844 125.925781 145.191406 125.996094 145.179688 126.054688 L 144.59375 128.332031 C 144.535156 128.539062 144.535156 128.5625 144.363281 128.761719 C 143.847656 129.40625 143.378906 129.589844 143.054688 129.589844 C 142.46875 129.589844 142.304688 128.949219 142.304688 128.492188 C 142.304688 127.910156 142.679688 126.484375 142.949219 125.949219 C 143.3125 125.257812 143.824219 124.828125 144.292969 124.828125 L 144.28125 124.570312 C 142.925781 124.570312 141.476562 126.285156 141.476562 127.980469 C 141.476562 129.078125 142.121094 129.847656 143.03125 129.847656 C 143.253906 129.847656 143.835938 129.800781 144.535156 128.972656 C 144.628906 129.464844 145.039062 129.847656 145.601562 129.847656 C 146.007812 129.847656 146.277344 129.578125 146.464844 129.207031 C 146.652344 128.785156 146.800781 128.074219 146.800781 128.050781 C 146.800781 127.933594 146.699219 127.933594 146.664062 127.933594 C 146.558594 127.933594 146.535156 127.980469 146.5 128.144531 C 146.300781 128.902344 146.101562 129.589844 145.621094 129.589844 C 145.308594 129.589844 145.273438 129.289062 145.273438 129.054688 C 145.273438 128.773438 145.296875 128.691406 145.34375 128.492188 Z M 147.011719 121.765625 "/>
<path fill-rule="nonzero" fill="rgb(0%, 0%, 0%)" fill-opacity="1" d="M 106.875 125.292969 L 106.734375 125.292969 L 106.699219 125.304688 L 106.640625 125.304688 L 106.617188 125.316406 L 106.59375 125.316406 L 106.570312 125.328125 L 106.558594 125.328125 L 106.546875 125.339844 L 106.523438 125.339844 L 106.511719 125.351562 L 106.5 125.351562 L 106.476562 125.363281 L 106.453125 125.386719 L 106.429688 125.398438 L 106.394531 125.433594 L 106.371094 125.445312 L 106.359375 125.457031 C 106.175781 125.632812 106.152344 125.832031 106.152344 125.914062 C 106.152344 126.191406 106.359375 126.320312 106.582031 126.320312 C 106.921875 126.320312 107.238281 126.042969 107.238281 125.574219 C 107.238281 125 106.6875 124.570312 105.859375 124.570312 C 104.292969 124.570312 102.742188 126.238281 102.742188 127.875 C 102.742188 128.925781 103.417969 129.847656 104.632812 129.847656 C 106.292969 129.847656 107.273438 128.609375 107.273438 128.46875 C 107.273438 128.402344 107.203125 128.320312 107.132812 128.320312 C 107.074219 128.320312 107.050781 128.34375 106.980469 128.433594 C 106.058594 129.589844 104.785156 129.589844 104.65625 129.589844 C 103.921875 129.589844 103.605469 129.019531 103.605469 128.320312 C 103.605469 127.839844 103.839844 126.71875 104.234375 125.996094 C 104.597656 125.328125 105.226562 124.828125 105.871094 124.828125 C 106.269531 124.828125 106.710938 124.976562 106.875 125.292969 Z M 106.875 125.292969 "/>
<path fill-rule="nonzero" fill="rgb(77.645874%, 80.39093%, 81.175232%)" fill-opacity="1" d="M 215.832031 13.390625 L 295.984375 13.390625 L 295.984375 153.816406 L 215.832031 153.816406 Z M 215.832031 13.390625 "/>
<path fill="none" stroke-width="0.566929" stroke-linecap="butt" stroke-linejoin="miter" stroke="rgb(0%, 0%, 0%)" stroke-opacity="1" stroke-miterlimit="4" d="M 165.183594 13.390625 L 302.949219 13.390625 L 302.949219 153.507812 L 165.183594 153.507812 Z M 165.183594 13.390625 "/>
<path fill="none" stroke-width="0.433943" stroke-linecap="butt" stroke-linejoin="miter" stroke="rgb(0%, 0%, 0%)" stroke-opacity="1" stroke-dasharray="0.433943 1.30183" stroke-miterlimit="4" d="M 242.507812 103.636719 L 242.507812 120.640625 "/>
<path fill="none" stroke-width="0.433943" stroke-linecap="butt" stroke-linejoin="miter" stroke="rgb(0%, 0%, 0%)" stroke-opacity="1" stroke-dasharray="0.433943 1.30183" stroke-miterlimit="4" d="M 295.761719 87.738281 L 295.761719 120.640625 "/>
<path fill="none" stroke-width="1.532213" stroke-linecap="butt" stroke-linejoin="miter" stroke="rgb(0%, 0%, 0%)" stroke-opacity="1" stroke-miterlimit="4" d="M 165.429688 45.558594 C 165.429688 45.558594 170.457031 54.765625 173.878906 58.710938 C 178.390625 63.914062 183.289062 69.261719 189.539062 72.269531 C 195.441406 75.113281 202.492188 74.5 208.90625 75.914062 C 213.199219 76.859375 219.28125 75.472656 221.683594 79.152344 C 224.910156 84.101562 230.5625 109.304688 234.441406 110.121094 C 237.679688 110.363281 243.101562 99.511719 252.179688 102.625 C 257.789062 105.1875 264.734375 103.34375 270.722656 101.816406 C 278.898438 99.730469 287.800781 96.90625 293.386719 90.6875 C 299.265625 84.144531 302.25 65.996094 302.25 65.996094 "/>
<path fill-rule="nonzero" fill="rgb(100%, 0%, 0%)" fill-opacity="1" stroke-width="0.610186" stroke-linecap="butt" stroke-linejoin="miter" stroke="rgb(100%, 100%, 100%)" stroke-opacity="1" stroke-miterlimit="4" d="M -173.308594 61.667969 C -173.308594 63.257812 -174.597656 64.542969 -176.1875 64.542969 C -177.777344 64.542969 -179.066406 63.257812 -179.066406 61.667969 C -179.066406 60.078125 -177.777344 58.789062 -176.1875 58.789062 C -174.597656 58.789062 -173.308594 60.078125 -173.308594 61.667969 Z M -173.308594 61.667969 " transform="matrix(-1, 0, 0, 1, 0, 0)"/>
<path fill="none" stroke-width="0.433943" stroke-linecap="butt" stroke-linejoin="miter" stroke="rgb(0%, 0%, 0%)" stroke-opacity="1" stroke-dasharray="0.433943 1.30183" stroke-miterlimit="4" d="M 215.882812 77.472656 L 215.882812 120.640625 "/>
<path fill="none" stroke-width="0.433943" stroke-linecap="butt" stroke-linejoin="miter" stroke="rgb(0%, 0%, 0%)" stroke-opacity="1" stroke-dasharray="0.433943 1.30183" stroke-miterlimit="4" d="M 269.136719 103.042969 L 269.136719 120.640625 "/>
<path fill-rule="nonzero" fill="rgb(0%, 0%, 0%)" fill-opacity="1" d="M 217.539062 125.125 L 217.515625 125.089844 L 217.492188 125.042969 L 217.480469 125.007812 L 217.410156 124.902344 L 217.375 124.871094 L 217.304688 124.765625 L 217.1875 124.648438 L 217.152344 124.625 L 217.117188 124.589844 L 217.046875 124.542969 L 217.011719 124.53125 L 216.941406 124.484375 L 216.90625 124.472656 L 216.859375 124.449219 L 216.824219 124.4375 L 216.777344 124.425781 L 216.742188 124.414062 L 216.695312 124.402344 L 216.652344 124.402344 L 216.605469 124.390625 L 216.558594 124.390625 L 216.511719 124.378906 L 216.464844 124.378906 L 216.476562 124.636719 C 217.234375 124.636719 217.398438 125.59375 217.398438 125.664062 C 217.398438 125.734375 217.375 125.804688 217.363281 125.863281 L 216.777344 128.140625 C 216.71875 128.347656 216.71875 128.371094 216.546875 128.570312 C 216.03125 129.214844 215.5625 129.402344 215.238281 129.402344 C 214.652344 129.402344 214.488281 128.757812 214.488281 128.304688 C 214.488281 127.71875 214.863281 126.292969 215.132812 125.757812 C 215.496094 125.066406 216.007812 124.636719 216.476562 124.636719 L 216.464844 124.378906 C 215.109375 124.378906 213.660156 126.09375 213.660156 127.789062 C 213.660156 128.886719 214.304688 129.65625 215.214844 129.65625 C 215.4375 129.65625 216.019531 129.609375 216.71875 128.78125 C 216.8125 129.273438 217.222656 129.65625 217.785156 129.65625 C 218.191406 129.65625 218.460938 129.390625 218.648438 129.015625 C 218.835938 128.59375 218.984375 127.882812 218.984375 127.859375 C 218.984375 127.742188 218.882812 127.742188 218.847656 127.742188 C 218.742188 127.742188 218.71875 127.789062 218.683594 127.953125 C 218.484375 128.710938 218.285156 129.402344 217.808594 129.402344 C 217.492188 129.402344 217.457031 129.097656 217.457031 128.863281 C 217.457031 128.605469 217.480469 128.511719 217.609375 128 C 217.738281 127.507812 217.761719 127.390625 217.863281 126.960938 L 218.285156 125.324219 C 218.367188 124.996094 218.367188 124.972656 218.367188 124.925781 C 218.367188 124.730469 218.226562 124.613281 218.027344 124.613281 C 217.75 124.613281 217.574219 124.871094 217.539062 125.125 Z M 217.539062 125.125 "/>
<path fill-rule="nonzero" fill="rgb(0%, 0%, 0%)" fill-opacity="1" d="M 243.089844 121.574219 L 243.089844 121.527344 L 243.078125 121.515625 L 243.078125 121.503906 L 243.066406 121.503906 L 243.066406 121.492188 L 243.054688 121.492188 L 243.054688 121.480469 L 243.042969 121.480469 L 243.042969 121.46875 L 243.019531 121.46875 L 243.019531 121.457031 L 242.984375 121.457031 L 242.972656 121.449219 L 242.9375 121.449219 C 242.679688 121.449219 241.828125 121.539062 241.523438 121.5625 C 241.433594 121.574219 241.304688 121.585938 241.304688 121.796875 C 241.304688 121.9375 241.410156 121.9375 241.582031 121.9375 C 242.144531 121.9375 242.167969 122.019531 242.167969 122.136719 C 242.167969 122.21875 242.0625 122.613281 242.003906 122.859375 L 241.046875 126.65625 C 240.90625 127.226562 240.859375 127.414062 240.859375 127.824219 C 240.859375 128.933594 241.476562 129.65625 242.34375 129.65625 L 242.34375 129.402344 C 241.945312 129.402344 241.558594 129.085938 241.558594 128.222656 C 241.558594 128 241.558594 127.777344 241.746094 127.042969 L 242.003906 125.980469 C 242.074219 125.722656 242.074219 125.699219 242.179688 125.570312 C 242.738281 124.8125 243.265625 124.636719 243.570312 124.636719 C 243.988281 124.636719 244.304688 124.984375 244.304688 125.734375 C 244.304688 126.421875 243.917969 127.753906 243.710938 128.199219 C 243.324219 128.980469 242.785156 129.402344 242.34375 129.402344 L 242.34375 129.65625 C 243.710938 129.65625 245.144531 127.917969 245.144531 126.246094 C 245.144531 125.183594 244.527344 124.378906 243.59375 124.378906 C 243.054688 124.378906 242.585938 124.71875 242.238281 125.078125 Z M 243.089844 121.574219 "/>
<path fill-rule="nonzero" fill="rgb(0%, 0%, 0%)" fill-opacity="1" d="M 297.144531 121.574219 L 297.144531 121.527344 L 297.132812 121.527344 L 297.132812 121.503906 L 297.121094 121.503906 L 297.121094 121.492188 L 297.109375 121.492188 L 297.109375 121.480469 L 297.097656 121.480469 L 297.097656 121.46875 L 297.074219 121.46875 L 297.074219 121.457031 L 297.039062 121.457031 L 297.027344 121.449219 L 296.992188 121.449219 C 296.816406 121.449219 295.71875 121.550781 295.519531 121.574219 C 295.425781 121.585938 295.355469 121.644531 295.355469 121.796875 C 295.355469 121.9375 295.460938 121.9375 295.636719 121.9375 C 296.199219 121.9375 296.222656 122.019531 296.222656 122.136719 L 296.1875 122.371094 L 295.484375 125.125 C 295.273438 124.695312 294.9375 124.378906 294.410156 124.378906 L 294.421875 124.636719 C 295.179688 124.636719 295.34375 125.59375 295.34375 125.664062 C 295.34375 125.734375 295.320312 125.804688 295.308594 125.863281 L 294.726562 128.140625 C 294.667969 128.347656 294.667969 128.371094 294.492188 128.570312 C 293.976562 129.214844 293.511719 129.402344 293.183594 129.402344 C 292.601562 129.402344 292.4375 128.757812 292.4375 128.304688 C 292.4375 127.71875 292.8125 126.292969 293.078125 125.757812 C 293.441406 125.066406 293.957031 124.636719 294.421875 124.636719 L 294.410156 124.378906 C 293.054688 124.378906 291.609375 126.09375 291.609375 127.789062 C 291.609375 128.886719 292.25 129.65625 293.160156 129.65625 C 293.382812 129.65625 293.96875 129.609375 294.667969 128.78125 C 294.761719 129.273438 295.167969 129.65625 295.730469 129.65625 C 296.140625 129.65625 296.40625 129.390625 296.59375 129.015625 C 296.78125 128.59375 296.933594 127.882812 296.933594 127.859375 C 296.933594 127.742188 296.828125 127.742188 296.792969 127.742188 C 296.6875 127.742188 296.664062 127.789062 296.628906 127.953125 C 296.429688 128.710938 296.234375 129.402344 295.753906 129.402344 C 295.4375 129.402344 295.402344 129.097656 295.402344 128.863281 C 295.402344 128.582031 295.425781 128.5 295.472656 128.304688 Z M 297.144531 121.574219 "/>
<path fill-rule="nonzero" fill="rgb(0%, 0%, 0%)" fill-opacity="1" d="M 270.378906 125.101562 L 270.238281 125.101562 L 270.203125 125.113281 L 270.144531 125.113281 L 270.121094 125.125 L 270.101562 125.125 L 270.078125 125.136719 L 270.066406 125.136719 L 270.054688 125.148438 L 270.03125 125.148438 L 270.019531 125.160156 L 270.007812 125.160156 L 269.984375 125.171875 L 269.960938 125.195312 L 269.9375 125.207031 L 269.902344 125.242188 L 269.878906 125.253906 L 269.867188 125.265625 C 269.679688 125.441406 269.65625 125.640625 269.65625 125.722656 C 269.65625 126.003906 269.867188 126.128906 270.089844 126.128906 C 270.425781 126.128906 270.742188 125.851562 270.742188 125.382812 C 270.742188 124.8125 270.191406 124.378906 269.363281 124.378906 C 267.800781 124.378906 266.246094 126.046875 266.246094 127.683594 C 266.246094 128.734375 266.921875 129.65625 268.136719 129.65625 C 269.796875 129.65625 270.777344 128.417969 270.777344 128.28125 C 270.777344 128.210938 270.707031 128.128906 270.636719 128.128906 C 270.578125 128.128906 270.554688 128.152344 270.484375 128.246094 C 269.5625 129.402344 268.289062 129.402344 268.160156 129.402344 C 267.425781 129.402344 267.109375 128.828125 267.109375 128.128906 C 267.109375 127.648438 267.34375 126.527344 267.742188 125.804688 C 268.101562 125.136719 268.734375 124.636719 269.375 124.636719 C 269.773438 124.636719 270.214844 124.789062 270.378906 125.101562 Z M 270.378906 125.101562 "/>
<path fill-rule="nonzero" fill="rgb(77.645874%, 80.39093%, 81.175232%)" fill-opacity="1" d="M 366.203125 13.390625 L 418.742188 13.390625 L 418.742188 153.816406 L 366.203125 153.816406 Z M 366.203125 13.390625 "/>
<g clip-path="url(#clip-0)">
<path fill="none" stroke-width="0.566929" stroke-linecap="butt" stroke-linejoin="miter" stroke="rgb(0%, 0%, 0%)" stroke-opacity="1" stroke-miterlimit="4" d="M 315.238281 13.390625 L 453 13.390625 L 453 153.507812 L 315.238281 153.507812 Z M 315.238281 13.390625 "/>
</g>
<path fill="none" stroke-width="0.433943" stroke-linecap="butt" stroke-linejoin="miter" stroke="rgb(0%, 0%, 0%)" stroke-opacity="1" stroke-dasharray="0.433943 1.30183" stroke-miterlimit="4" d="M 383.46875 110.371094 L 383.46875 120.640625 "/>
<path fill="none" stroke-width="0.433943" stroke-linecap="butt" stroke-linejoin="miter" stroke="rgb(0%, 0%, 0%)" stroke-opacity="1" stroke-dasharray="0.433943 1.30183" stroke-miterlimit="4" d="M 418.535156 101.210938 L 418.535156 122.324219 "/>
<g clip-path="url(#clip-1)">
<path fill="none" stroke-width="1.532213" stroke-linecap="butt" stroke-linejoin="miter" stroke="rgb(0%, 0%, 0%)" stroke-opacity="1" stroke-miterlimit="4" d="M 315.484375 45.558594 C 315.484375 45.558594 320.507812 54.765625 323.929688 58.710938 C 328.441406 63.914062 333.34375 69.261719 339.589844 72.269531 C 345.492188 75.113281 352.546875 74.5 358.960938 75.914062 C 363.25 76.859375 369.335938 75.472656 371.734375 79.152344 C 374.964844 84.101562 380.617188 109.304688 384.492188 110.121094 C 387.734375 110.363281 393.15625 99.511719 402.230469 102.625 C 407.839844 105.1875 414.785156 103.34375 420.777344 101.816406 C 428.953125 99.730469 437.851562 96.90625 443.441406 90.6875 C 449.320312 84.144531 452.300781 65.996094 452.300781 65.996094 "/>
</g>
<path fill-rule="nonzero" fill="rgb(100%, 0%, 0%)" fill-opacity="1" stroke-width="0.610186" stroke-linecap="butt" stroke-linejoin="miter" stroke="rgb(100%, 100%, 100%)" stroke-opacity="1" stroke-miterlimit="4" d="M -323.363281 61.667969 C -323.363281 63.257812 -324.652344 64.542969 -326.242188 64.542969 C -327.828125 64.542969 -329.117188 63.257812 -329.117188 61.667969 C -329.117188 60.078125 -327.828125 58.789062 -326.242188 58.789062 C -324.652344 58.789062 -323.363281 60.078125 -323.363281 61.667969 Z M -323.363281 61.667969 " transform="matrix(-1, 0, 0, 1, 0, 0)"/>
<path fill="none" stroke-width="0.433943" stroke-linecap="butt" stroke-linejoin="miter" stroke="rgb(0%, 0%, 0%)" stroke-opacity="1" stroke-dasharray="0.433943 1.30183" stroke-miterlimit="4" d="M 365.9375 77.472656 L 365.9375 120.640625 "/>
<path fill="none" stroke-width="0.433943" stroke-linecap="butt" stroke-linejoin="miter" stroke="rgb(0%, 0%, 0%)" stroke-opacity="1" stroke-dasharray="0.433943 1.30183" stroke-miterlimit="4" d="M 401 103.042969 L 401 120.640625 "/>
<path fill-rule="nonzero" fill="rgb(0%, 0%, 0%)" fill-opacity="1" d="M 367.589844 125.125 L 367.566406 125.089844 L 367.542969 125.042969 L 367.53125 125.007812 L 367.484375 124.9375 L 367.460938 124.90625 L 367.425781 124.871094 L 367.355469 124.765625 L 367.320312 124.730469 L 367.300781 124.707031 L 367.242188 124.648438 L 367.207031 124.625 L 367.171875 124.589844 L 367.101562 124.542969 L 367.066406 124.53125 L 366.996094 124.484375 L 366.960938 124.472656 L 366.914062 124.449219 L 366.878906 124.4375 L 366.832031 124.425781 L 366.796875 124.414062 L 366.75 124.402344 L 366.703125 124.402344 L 366.65625 124.390625 L 366.609375 124.390625 L 366.5625 124.378906 L 366.515625 124.378906 L 366.527344 124.636719 C 367.289062 124.636719 367.449219 125.59375 367.449219 125.664062 C 367.449219 125.734375 367.425781 125.804688 367.414062 125.863281 L 366.832031 128.140625 C 366.773438 128.351562 366.773438 128.371094 366.597656 128.570312 C 366.085938 129.214844 365.617188 129.402344 365.289062 129.402344 C 364.707031 129.402344 364.542969 128.757812 364.542969 128.304688 C 364.542969 127.71875 364.917969 126.292969 365.183594 125.757812 C 365.546875 125.066406 366.0625 124.636719 366.527344 124.636719 L 366.515625 124.378906 C 365.160156 124.378906 363.714844 126.09375 363.714844 127.789062 C 363.714844 128.886719 364.355469 129.65625 365.265625 129.65625 C 365.488281 129.65625 366.074219 129.609375 366.773438 128.78125 C 366.867188 129.273438 367.277344 129.65625 367.835938 129.65625 C 368.246094 129.65625 368.511719 129.390625 368.699219 129.015625 C 368.886719 128.59375 369.039062 127.882812 369.039062 127.859375 C 369.039062 127.742188 368.933594 127.742188 368.898438 127.742188 C 368.792969 127.742188 368.769531 127.789062 368.734375 127.953125 C 368.535156 128.710938 368.339844 129.402344 367.859375 129.402344 C 367.542969 129.402344 367.507812 129.097656 367.507812 128.863281 C 367.507812 128.605469 367.53125 128.511719 367.660156 128 C 367.789062 127.507812 367.8125 127.390625 367.917969 126.960938 L 368.339844 125.324219 C 368.421875 124.996094 368.421875 124.972656 368.421875 124.925781 C 368.421875 124.730469 368.28125 124.613281 368.082031 124.613281 C 367.800781 124.613281 367.625 124.871094 367.589844 125.125 Z M 367.589844 125.125 "/>
<path fill-rule="nonzero" fill="rgb(0%, 0%, 0%)" fill-opacity="1" d="M 383.800781 121.574219 L 383.800781 121.527344 L 383.789062 121.515625 L 383.789062 121.503906 L 383.777344 121.503906 L 383.777344 121.492188 L 383.765625 121.492188 L 383.765625 121.480469 L 383.753906 121.480469 L 383.753906 121.472656 L 383.730469 121.472656 L 383.730469 121.460938 L 383.695312 121.460938 L 383.6875 121.449219 L 383.652344 121.449219 C 383.394531 121.449219 382.542969 121.539062 382.238281 121.5625 C 382.144531 121.574219 382.015625 121.585938 382.015625 121.796875 C 382.015625 121.9375 382.121094 121.9375 382.296875 121.9375 C 382.855469 121.9375 382.878906 122.019531 382.878906 122.136719 C 382.878906 122.21875 382.773438 122.617188 382.714844 122.859375 L 381.757812 126.65625 C 381.617188 127.226562 381.570312 127.414062 381.570312 127.824219 C 381.570312 128.933594 382.191406 129.65625 383.054688 129.65625 L 383.054688 129.402344 C 382.65625 129.402344 382.273438 129.085938 382.273438 128.222656 C 382.273438 128 382.273438 127.777344 382.460938 127.042969 L 382.714844 125.980469 C 382.785156 125.722656 382.785156 125.699219 382.890625 125.570312 C 383.453125 124.8125 383.976562 124.636719 384.28125 124.636719 C 384.703125 124.636719 385.015625 124.984375 385.015625 125.734375 C 385.015625 126.421875 384.632812 127.753906 384.421875 128.199219 C 384.035156 128.980469 383.5 129.402344 383.054688 129.402344 L 383.054688 129.65625 C 384.421875 129.65625 385.859375 127.917969 385.859375 126.246094 C 385.859375 125.183594 385.238281 124.378906 384.304688 124.378906 C 383.765625 124.378906 383.300781 124.71875 382.949219 125.078125 Z M 383.800781 121.574219 "/>
<path fill-rule="nonzero" fill="rgb(0%, 0%, 0%)" fill-opacity="1" d="M 421.160156 121.574219 L 421.160156 121.527344 L 421.148438 121.527344 L 421.148438 121.503906 L 421.136719 121.503906 L 421.136719 121.492188 L 421.125 121.492188 L 421.125 121.480469 L 421.113281 121.480469 L 421.113281 121.472656 L 421.089844 121.472656 L 421.089844 121.460938 L 421.054688 121.460938 L 421.042969 121.449219 L 421.007812 121.449219 C 420.832031 121.449219 419.734375 121.550781 419.535156 121.574219 C 419.441406 121.585938 419.371094 121.644531 419.371094 121.796875 C 419.371094 121.9375 419.476562 121.9375 419.652344 121.9375 C 420.214844 121.9375 420.238281 122.019531 420.238281 122.136719 L 420.203125 122.371094 L 419.5 125.125 C 419.292969 124.695312 418.953125 124.378906 418.425781 124.378906 L 418.4375 124.636719 C 419.199219 124.636719 419.359375 125.59375 419.359375 125.664062 C 419.359375 125.734375 419.335938 125.804688 419.324219 125.863281 L 418.742188 128.140625 C 418.683594 128.351562 418.683594 128.371094 418.507812 128.570312 C 417.996094 129.214844 417.527344 129.402344 417.199219 129.402344 C 416.617188 129.402344 416.453125 128.757812 416.453125 128.304688 C 416.453125 127.71875 416.828125 126.292969 417.09375 125.757812 C 417.457031 125.066406 417.972656 124.636719 418.4375 124.636719 L 418.425781 124.378906 C 417.070312 124.378906 415.625 126.09375 415.625 127.789062 C 415.625 128.886719 416.265625 129.65625 417.175781 129.65625 C 417.398438 129.65625 417.984375 129.609375 418.683594 128.78125 C 418.777344 129.273438 419.1875 129.65625 419.746094 129.65625 C 420.15625 129.65625 420.425781 129.390625 420.609375 129.015625 C 420.796875 128.59375 420.949219 127.882812 420.949219 127.859375 C 420.949219 127.742188 420.84375 127.742188 420.808594 127.742188 C 420.703125 127.742188 420.679688 127.789062 420.644531 127.953125 C 420.449219 128.710938 420.25 129.402344 419.769531 129.402344 C 419.453125 129.402344 419.417969 129.097656 419.417969 128.863281 C 419.417969 128.582031 419.441406 128.5 419.488281 128.304688 Z M 421.160156 121.574219 "/>
<path fill-rule="nonzero" fill="rgb(0%, 0%, 0%)" fill-opacity="1" d="M 402.921875 125.101562 L 402.78125 125.101562 L 402.746094 125.113281 L 402.6875 125.113281 L 402.664062 125.125 L 402.640625 125.125 L 402.617188 125.136719 L 402.605469 125.136719 L 402.59375 125.148438 L 402.570312 125.148438 L 402.558594 125.160156 L 402.546875 125.160156 L 402.523438 125.171875 L 402.5 125.195312 L 402.476562 125.207031 L 402.441406 125.242188 L 402.417969 125.253906 L 402.40625 125.265625 C 402.222656 125.441406 402.199219 125.640625 402.199219 125.722656 C 402.199219 126.003906 402.40625 126.128906 402.628906 126.128906 C 402.96875 126.128906 403.285156 125.851562 403.285156 125.382812 C 403.285156 124.8125 402.734375 124.378906 401.90625 124.378906 C 400.339844 124.378906 398.789062 126.050781 398.789062 127.683594 C 398.789062 128.734375 399.464844 129.65625 400.679688 129.65625 C 402.339844 129.65625 403.320312 128.417969 403.320312 128.28125 C 403.320312 128.210938 403.25 128.128906 403.179688 128.128906 C 403.121094 128.128906 403.097656 128.152344 403.027344 128.246094 C 402.105469 129.402344 400.832031 129.402344 400.703125 129.402344 C 399.96875 129.402344 399.652344 128.828125 399.652344 128.128906 C 399.652344 127.648438 399.886719 126.527344 400.28125 125.804688 C 400.644531 125.136719 401.273438 124.636719 401.917969 124.636719 C 402.316406 124.636719 402.757812 124.789062 402.921875 125.101562 Z M 402.921875 125.101562 "/>
<path fill-rule="nonzero" fill="rgb(81.959534%, 51.371765%, 38.430786%)" fill-opacity="1" stroke-width="0.450709" stroke-linecap="butt" stroke-linejoin="round" stroke="rgb(46.665955%, 23.529053%, 13.725281%)" stroke-opacity="1" stroke-miterlimit="4" d="M 329.15625 61.667969 C 329.15625 63.277344 327.851562 64.582031 326.242188 64.582031 C 324.628906 64.582031 323.324219 63.277344 323.324219 61.667969 C 323.324219 60.054688 324.628906 58.75 326.242188 58.75 C 327.851562 58.75 329.15625 60.054688 329.15625 61.667969 Z M 329.15625 61.667969 "/>
<path fill-rule="nonzero" fill="rgb(81.959534%, 51.371765%, 38.430786%)" fill-opacity="1" stroke-width="0.450709" stroke-linecap="butt" stroke-linejoin="round" stroke="rgb(46.665955%, 23.529053%, 13.725281%)" stroke-opacity="1" stroke-miterlimit="4" d="M 28.972656 61.859375 C 28.972656 63.46875 27.667969 64.773438 26.058594 64.773438 C 24.445312 64.773438 23.140625 63.46875 23.140625 61.859375 C 23.140625 60.246094 24.445312 58.941406 26.058594 58.941406 C 27.667969 58.941406 28.972656 60.246094 28.972656 61.859375 Z M 28.972656 61.859375 "/>
<path fill-rule="nonzero" fill="rgb(81.959534%, 51.371765%, 38.430786%)" fill-opacity="1" stroke-width="0.450709" stroke-linecap="butt" stroke-linejoin="round" stroke="rgb(46.665955%, 23.529053%, 13.725281%)" stroke-opacity="1" stroke-miterlimit="4" d="M 179.105469 61.667969 C 179.105469 63.277344 177.796875 64.582031 176.1875 64.582031 C 174.578125 64.582031 173.269531 63.277344 173.269531 61.667969 C 173.269531 60.054688 174.578125 58.75 176.1875 58.75 C 177.796875 58.75 179.105469 60.054688 179.105469 61.667969 Z M 179.105469 61.667969 "/>
<path fill-rule="nonzero" fill="rgb(0%, 0%, 0%)" fill-opacity="1" d="M 9.480469 105.886719 L 8.570312 105.886719 L 8.570312 109.925781 L 0.753906 109.925781 L 0.753906 110.894531 L 9.480469 110.894531 Z M 9.480469 105.886719 "/>
<path fill-rule="nonzero" fill="rgb(0%, 0%, 0%)" fill-opacity="1" d="M 6.628906 99.898438 C 5.1875 99.898438 3.640625 100.667969 3.640625 102.570312 C 3.640625 104.289062 4.96875 105.261719 6.628906 105.261719 C 8.195312 105.261719 9.597656 104.25 9.640625 102.570312 C 9.597656 100.867188 8.234375 99.898438 6.628906 99.898438 Z M 6.628906 100.828125 C 7.757812 100.828125 8.769531 101.519531 8.769531 102.570312 C 8.75 103.992188 7.480469 104.3125 6.609375 104.3125 C 5.460938 104.3125 4.511719 103.757812 4.492188 102.570312 C 4.511719 101.460938 5.542969 100.828125 6.628906 100.828125 Z M 6.628906 100.828125 "/>
<path fill-rule="nonzero" fill="rgb(0%, 0%, 0%)" fill-opacity="1" d="M 7.898438 94.238281 C 6.769531 94.238281 6.414062 95.011719 6.214844 96.039062 L 6.136719 96.433594 C 6.015625 96.988281 5.898438 97.800781 5.285156 97.800781 C 4.570312 97.761719 4.433594 96.929688 4.433594 96.296875 C 4.472656 95.285156 4.53125 95.367188 4.890625 94.515625 L 3.957031 94.515625 C 3.742188 95.050781 3.640625 95.722656 3.640625 96.414062 C 3.640625 97.542969 4.058594 98.652344 5.324219 98.652344 C 6.351562 98.632812 6.75 97.9375 6.925781 96.988281 L 7.007812 96.632812 C 7.164062 95.941406 7.242188 95.148438 7.976562 95.148438 C 8.6875 95.1875 8.828125 96 8.828125 96.632812 C 8.808594 97.683594 8.6875 97.839844 8.253906 98.75 L 9.28125 98.75 C 9.421875 98.214844 9.640625 97.285156 9.640625 96.652344 C 9.640625 95.542969 9.222656 94.238281 7.898438 94.238281 Z M 7.898438 94.238281 "/>
<path fill-rule="nonzero" fill="rgb(0%, 0%, 0%)" fill-opacity="1" d="M 7.898438 88.824219 C 6.769531 88.824219 6.414062 89.597656 6.214844 90.625 L 6.136719 91.019531 C 6.015625 91.574219 5.898438 92.386719 5.285156 92.386719 C 4.570312 92.347656 4.433594 91.515625 4.433594 90.882812 C 4.472656 89.871094 4.53125 89.953125 4.890625 89.101562 L 3.957031 89.101562 C 3.742188 89.636719 3.640625 90.308594 3.640625 91 C 3.640625 92.128906 4.058594 93.238281 5.324219 93.238281 C 6.351562 93.21875 6.75 92.523438 6.925781 91.574219 L 7.007812 91.21875 C 7.164062 90.527344 7.242188 89.734375 7.976562 89.734375 C 8.6875 89.773438 8.828125 90.585938 8.828125 91.21875 C 8.808594 92.269531 8.6875 92.425781 8.253906 93.335938 L 9.28125 93.335938 C 9.421875 92.800781 9.640625 91.871094 9.640625 91.238281 C 9.640625 90.128906 9.222656 88.824219 7.898438 88.824219 Z M 7.898438 88.824219 "/>
<path fill-rule="nonzero" fill="rgb(0%, 0%, 0%)" fill-opacity="1" d="M 8.195312 86.207031 L 8.195312 87.355469 L 9.066406 87.355469 C 9.222656 87.277344 9.382812 87.257812 9.539062 87.257812 C 9.996094 87.257812 10.46875 87.496094 10.6875 87.832031 C 10.667969 87.175781 9.699219 86.226562 9.085938 86.207031 Z M 8.195312 86.207031 "/>
<path fill-rule="nonzero" fill="rgb(0%, 0%, 0%)" fill-opacity="1" d="M 1.839844 76.976562 C 1.386719 76.875 1.246094 76.835938 1.246094 75.648438 C 1.246094 75.273438 1.246094 75.175781 1.007812 75.175781 C 0.851562 75.175781 0.851562 75.3125 0.851562 75.371094 C 0.851562 75.789062 0.890625 76.816406 0.890625 77.230469 C 0.890625 77.609375 0.851562 78.539062 0.851562 78.914062 C 0.851562 78.992188 0.851562 79.152344 1.109375 79.152344 C 1.246094 79.152344 1.246094 79.035156 1.246094 78.796875 C 1.246094 78.777344 1.246094 78.539062 1.265625 78.320312 C 1.304688 78.101562 1.304688 77.984375 1.484375 77.984375 C 1.523438 77.984375 1.5625 77.984375 1.722656 78.023438 L 8.492188 79.726562 C 8.984375 79.84375 9.085938 79.863281 9.085938 80.875 C 9.085938 81.09375 9.085938 81.210938 9.34375 81.210938 C 9.480469 81.210938 9.480469 81.09375 9.480469 80.875 L 9.480469 75.015625 C 9.480469 74.71875 9.480469 74.71875 9.261719 74.640625 L 6.53125 73.628906 C 6.394531 73.589844 6.375 73.589844 6.351562 73.589844 C 6.3125 73.589844 6.214844 73.628906 6.214844 73.730469 C 6.214844 73.847656 6.292969 73.867188 6.492188 73.945312 C 7.640625 74.382812 9.085938 74.9375 9.085938 77.113281 L 9.085938 78.300781 C 9.085938 78.480469 9.085938 78.519531 9.085938 78.578125 C 9.066406 78.714844 9.046875 78.757812 8.945312 78.757812 C 8.90625 78.757812 8.886719 78.757812 8.667969 78.695312 Z M 1.839844 76.976562 "/>
<path fill-rule="nonzero" fill="rgb(0%, 0%, 0%)" fill-opacity="1" d="M 12.648438 69.890625 L 12.132812 69.890625 L 12.132812 71.117188 L 0.515625 71.117188 L 0.515625 69.890625 L 0 69.890625 L 0 71.632812 L 12.648438 71.632812 Z M 12.648438 69.890625 "/>
<path fill-rule="nonzero" fill="rgb(0%, 0%, 0%)" fill-opacity="1" d="M 1.089844 63.21875 C 0.929688 63.179688 0.910156 63.179688 0.890625 63.179688 C 0.710938 63.179688 0.710938 63.355469 0.710938 63.476562 C 0.710938 63.730469 0.753906 63.730469 1.007812 63.8125 L 3.503906 64.425781 C 3.679688 64.484375 3.679688 64.484375 3.703125 64.503906 C 3.703125 64.523438 3.722656 64.542969 3.742188 64.742188 C 3.878906 67.355469 5.679688 68.898438 7.285156 68.898438 C 8.628906 68.898438 9.558594 67.808594 9.621094 65.96875 L 11.855469 66.503906 C 12.035156 66.503906 12.035156 66.324219 12.035156 66.207031 C 12.035156 66.007812 12.015625 65.949219 11.796875 65.890625 L 10.035156 65.453125 C 9.679688 65.375 9.660156 65.355469 9.640625 65.335938 C 9.640625 65.316406 9.640625 65.296875 9.621094 65.097656 C 9.460938 62.523438 7.699219 60.941406 6.078125 60.941406 C 4.710938 60.941406 3.800781 62.03125 3.742188 63.871094 Z M 9.164062 65.851562 C 9.105469 66.9375 8.628906 67.613281 7.621094 67.613281 C 7.265625 67.613281 6.097656 67.472656 5.265625 66.800781 C 4.710938 66.363281 4.273438 65.632812 4.195312 64.601562 Z M 4.195312 63.988281 C 4.253906 62.902344 4.710938 62.226562 5.738281 62.226562 C 6.097656 62.226562 7.265625 62.367188 8.09375 63.039062 C 8.648438 63.476562 9.085938 64.207031 9.164062 65.238281 Z M 4.195312 63.988281 "/>
<path fill-rule="nonzero" fill="rgb(0%, 0%, 0%)" fill-opacity="1" d="M 0 58.621094 L 0 60.34375 L 0.515625 60.34375 L 0.515625 59.117188 L 12.132812 59.117188 L 12.132812 60.34375 L 12.648438 60.34375 L 12.648438 58.621094 Z M 0 58.621094 "/>
<g clip-path="url(#clip-2)">
<path fill-rule="nonzero" fill="rgb(0%, 0%, 0%)" fill-opacity="1" d="M 85.636719 156.371094 C 85.675781 156.210938 85.675781 156.191406 85.675781 156.171875 C 85.675781 155.992188 85.5 155.992188 85.378906 155.992188 C 85.121094 155.992188 85.121094 156.035156 85.042969 156.289062 L 84.429688 158.785156 C 84.371094 158.960938 84.371094 158.960938 84.351562 158.984375 C 84.332031 158.984375 84.3125 159.003906 84.113281 159.023438 C 81.5 159.160156 79.957031 160.960938 79.957031 162.566406 C 79.957031 163.910156 81.046875 164.839844 82.886719 164.902344 L 82.351562 167.136719 C 82.351562 167.316406 82.53125 167.316406 82.648438 167.316406 C 82.847656 167.316406 82.90625 167.296875 82.964844 167.078125 L 83.402344 165.316406 C 83.480469 164.960938 83.5 164.941406 83.519531 164.921875 C 83.539062 164.921875 83.558594 164.921875 83.757812 164.902344 C 86.332031 164.742188 87.914062 162.980469 87.914062 161.359375 C 87.914062 159.992188 86.824219 159.082031 84.984375 159.023438 Z M 83.003906 164.445312 C 81.917969 164.386719 81.242188 163.910156 81.242188 162.902344 C 81.242188 162.546875 81.382812 161.378906 82.054688 160.546875 C 82.492188 159.992188 83.222656 159.554688 84.253906 159.476562 Z M 84.867188 159.476562 C 85.953125 159.535156 86.628906 159.992188 86.628906 161.019531 C 86.628906 161.378906 86.488281 162.546875 85.816406 163.375 C 85.378906 163.929688 84.648438 164.367188 83.617188 164.445312 Z M 84.867188 159.476562 "/>
</g>
<g clip-path="url(#clip-3)">
<path fill-rule="nonzero" fill="rgb(0%, 0%, 0%)" fill-opacity="1" d="M 235.769531 156.371094 C 235.808594 156.210938 235.808594 156.191406 235.808594 156.171875 C 235.808594 155.992188 235.628906 155.992188 235.511719 155.992188 C 235.253906 155.992188 235.253906 156.035156 235.175781 156.289062 L 234.5625 158.785156 C 234.5 158.960938 234.5 158.960938 234.480469 158.984375 C 234.460938 158.984375 234.441406 159.003906 234.246094 159.023438 C 231.632812 159.160156 230.085938 160.960938 230.085938 162.566406 C 230.085938 163.910156 231.175781 164.839844 233.015625 164.902344 L 232.484375 167.136719 C 232.484375 167.316406 232.660156 167.316406 232.78125 167.316406 C 232.976562 167.316406 233.035156 167.296875 233.097656 167.078125 L 233.53125 165.316406 C 233.609375 164.960938 233.628906 164.941406 233.652344 164.921875 C 233.671875 164.921875 233.691406 164.921875 233.886719 164.902344 C 236.460938 164.742188 238.042969 162.980469 238.042969 161.359375 C 238.042969 159.992188 236.957031 159.082031 235.113281 159.023438 Z M 233.136719 164.445312 C 232.046875 164.386719 231.375 163.910156 231.375 162.902344 C 231.375 162.546875 231.511719 161.378906 232.1875 160.546875 C 232.621094 159.992188 233.355469 159.554688 234.382812 159.476562 Z M 234.996094 159.476562 C 236.085938 159.535156 236.757812 159.992188 236.757812 161.019531 C 236.757812 161.378906 236.621094 162.546875 235.945312 163.375 C 235.511719 163.929688 234.777344 164.367188 233.75 164.445312 Z M 234.996094 159.476562 "/>
</g>
<g clip-path="url(#clip-4)">
<path fill-rule="nonzero" fill="rgb(0%, 0%, 0%)" fill-opacity="1" d="M 385.820312 156.371094 C 385.859375 156.210938 385.859375 156.191406 385.859375 156.171875 C 385.859375 155.992188 385.683594 155.992188 385.5625 155.992188 C 385.304688 155.992188 385.304688 156.035156 385.226562 156.289062 L 384.613281 158.785156 C 384.554688 158.960938 384.554688 158.960938 384.535156 158.984375 C 384.515625 158.984375 384.496094 159.003906 384.296875 159.023438 C 381.683594 159.160156 380.140625 160.960938 380.140625 162.566406 C 380.140625 163.910156 381.230469 164.839844 383.070312 164.902344 L 382.535156 167.136719 C 382.535156 167.316406 382.714844 167.316406 382.832031 167.316406 C 383.03125 167.316406 383.089844 167.296875 383.148438 167.078125 L 383.585938 165.316406 C 383.664062 164.960938 383.683594 164.941406 383.703125 164.921875 C 383.722656 164.921875 383.742188 164.921875 383.941406 164.902344 C 386.515625 164.742188 388.097656 162.980469 388.097656 161.359375 C 388.097656 159.992188 387.007812 159.082031 385.167969 159.023438 Z M 383.1875 164.445312 C 382.101562 164.386719 381.425781 163.910156 381.425781 162.902344 C 381.425781 162.546875 381.566406 161.378906 382.238281 160.546875 C 382.675781 159.992188 383.40625 159.554688 384.433594 159.476562 Z M 385.050781 159.476562 C 386.136719 159.535156 386.8125 159.992188 386.8125 161.019531 C 386.8125 161.378906 386.671875 162.546875 386 163.375 C 385.5625 163.929688 384.832031 164.367188 383.800781 164.445312 Z M 385.050781 159.476562 "/>
</g>
<path fill-rule="nonzero" fill="rgb(0%, 0%, 0%)" fill-opacity="1" d="M 8.480469 5.839844 C 8.480469 4.550781 7.550781 3.660156 6.382812 3.660156 C 5.574219 3.660156 5 3.859375 4.40625 4.195312 L 4.484375 5.027344 C 5.136719 4.570312 5.769531 4.414062 6.382812 4.414062 C 6.976562 4.414062 7.492188 4.910156 7.492188 5.839844 L 7.492188 6.394531 C 5.59375 6.414062 3.988281 6.945312 3.988281 8.054688 C 3.988281 8.589844 4.324219 9.621094 5.433594 9.621094 C 5.613281 9.621094 6.800781 9.597656 7.53125 9.027344 L 7.53125 9.480469 L 8.480469 9.480469 Z M 7.492188 7.816406 C 7.492188 8.054688 7.492188 8.371094 7.058594 8.609375 C 6.699219 8.828125 6.207031 8.847656 6.066406 8.847656 C 5.472656 8.847656 4.898438 8.550781 4.898438 8.035156 C 4.898438 7.144531 6.9375 7.066406 7.492188 7.027344 Z M 7.492188 7.816406 "/>
<path fill-rule="nonzero" fill="rgb(0%, 0%, 0%)" fill-opacity="1" d="M 10.984375 12.648438 C 11.378906 12.25 12.230469 11.480469 12.804688 9.9375 C 13.320312 8.589844 13.398438 7.242188 13.398438 6.3125 C 13.398438 2.238281 11.578125 0.574219 10.984375 0 L 10.210938 0 C 10.804688 0.613281 12.410156 2.238281 12.410156 6.3125 C 12.410156 7.027344 12.371094 8.511719 11.855469 9.996094 C 11.339844 11.460938 10.628906 12.210938 10.210938 12.648438 Z M 10.984375 12.648438 "/>
<path fill-rule="nonzero" fill="rgb(0%, 0%, 0%)" fill-opacity="1" d="M 156.109375 0.710938 L 155.15625 0.710938 L 155.15625 9.480469 L 156.148438 9.480469 L 156.148438 8.90625 C 156.445312 9.183594 157 9.621094 157.851562 9.621094 C 159.097656 9.621094 160.183594 8.351562 160.183594 6.671875 C 160.183594 5.105469 159.335938 3.742188 158.148438 3.742188 C 157.652344 3.742188 156.859375 3.859375 156.109375 4.472656 Z M 156.148438 5.246094 C 156.34375 4.949219 156.800781 4.511719 157.492188 4.511719 C 158.246094 4.511719 159.195312 5.046875 159.195312 6.671875 C 159.195312 8.3125 158.148438 8.847656 157.375 8.847656 C 156.878906 8.847656 156.464844 8.628906 156.148438 8.035156 Z M 156.148438 5.246094 "/>
<path fill-rule="nonzero" fill="rgb(0%, 0%, 0%)" fill-opacity="1" d="M 162.132812 12.648438 C 162.53125 12.25 163.382812 11.480469 163.957031 9.9375 C 164.46875 8.589844 164.550781 7.242188 164.550781 6.3125 C 164.550781 2.238281 162.726562 0.574219 162.132812 0 L 161.363281 0 C 161.957031 0.613281 163.558594 2.238281 163.558594 6.3125 C 163.558594 7.027344 163.519531 8.511719 163.003906 9.996094 C 162.492188 11.460938 161.777344 12.210938 161.363281 12.648438 Z M 162.132812 12.648438 "/>
<path fill-rule="nonzero" fill="rgb(0%, 0%, 0%)" fill-opacity="1" d="M 310.058594 4.195312 C 309.304688 3.78125 308.871094 3.660156 308.097656 3.660156 C 306.355469 3.660156 305.328125 5.1875 305.328125 6.671875 C 305.328125 8.234375 306.476562 9.621094 308.058594 9.621094 C 308.730469 9.621094 309.425781 9.441406 310.117188 8.964844 L 310.039062 8.132812 C 309.386719 8.628906 308.710938 8.808594 308.058594 8.808594 C 307.011719 8.808594 306.316406 7.898438 306.316406 6.671875 C 306.316406 5.679688 306.773438 4.472656 308.117188 4.472656 C 308.769531 4.472656 309.207031 4.570312 309.898438 5.027344 Z M 310.058594 4.195312 "/>
<path fill-rule="nonzero" fill="rgb(0%, 0%, 0%)" fill-opacity="1" d="M 311.964844 12.648438 C 312.359375 12.25 313.210938 11.480469 313.785156 9.9375 C 314.300781 8.589844 314.378906 7.242188 314.378906 6.3125 C 314.378906 2.238281 312.558594 0.574219 311.964844 0 L 311.191406 0 C 311.785156 0.613281 313.390625 2.238281 313.390625 6.3125 C 313.390625 7.027344 313.351562 8.511719 312.835938 9.996094 C 312.320312 11.460938 311.609375 12.210938 311.191406 12.648438 Z M 311.964844 12.648438 "/>
</svg>
