<?xml version="1.0" encoding="UTF-8"?>
<svg xmlns="http://www.w3.org/2000/svg" xmlns:xlink="http://www.w3.org/1999/xlink" width="219.035187pt" height="142.868576pt" viewBox="0 0 219.035187 142.868576">
<defs>
<clipPath id="clip-0">
<path clip-rule="nonzero" d="M 27.535156 5 L 200.148438 5 L 200.148438 96 L 27.535156 96 Z M 27.535156 5 "/>
</clipPath>
<clipPath id="clip-1">
<path clip-rule="nonzero" d="M 104 134 L 110 134 L 110 142.867188 L 104 142.867188 Z M 104 134 "/>
</clipPath>
<clipPath id="clip-2">
<path clip-rule="nonzero" d="M 27.535156 44 L 200.152344 44 L 200.152344 127.609375 L 27.535156 127.609375 Z M 27.535156 44 "/>
</clipPath>
</defs>
<g clip-path="url(#clip-0)">
<path fill="none" stroke-width="1.566136" stroke-linecap="square" stroke-linejoin="round" stroke="rgb(62.744141%, 85.096741%, 82.743835%)" stroke-opacity="1" stroke-miterlimit="4" d="M 30.911005 -14.988281 L 30.957847 -13.578125 L 31.42626 -5.320312 L 31.898931 0.539062 L 32.367344 5.085938 L 32.840015 8.800781 L 33.7811 14.660156 L 34.722184 19.203125 L 35.663269 22.917969 L 36.604353 26.058594 L 37.541179 28.777344 L 38.482264 31.175781 L 39.423348 33.324219 L 40.837104 36.167969 L 42.246602 38.667969 L 43.660358 40.890625 L 45.069855 42.894531 L 46.479353 44.722656 L 48.361522 46.925781 L 50.243691 48.914062 L 52.12586 50.726562 L 54.008028 52.390625 L 56.358611 54.292969 L 58.713451 56.035156 L 61.536704 57.945312 L 64.355699 59.695312 L 67.178953 61.304688 L 70.474878 63.03125 L 73.766544 64.625 L 77.530882 66.308594 L 81.763633 68.046875 L 85.996384 69.648438 L 90.701806 71.289062 L 95.875642 72.957031 L 101.522148 74.632812 L 107.637068 76.304688 L 114.224659 77.964844 L 121.280664 79.601562 L 128.805081 81.214844 L 136.80217 82.800781 L 145.27193 84.355469 L 154.678517 85.953125 L 164.557774 87.507812 L 175.378117 89.082031 L 187.139543 90.667969 L 199.842055 92.25 L 213.48565 93.824219 L 217.718401 94.289062 " transform="matrix(0.917326, 0, 0, 1, 0, 0)"/>
</g>
<path fill="none" stroke-width="0.850394" stroke-linecap="butt" stroke-linejoin="miter" stroke="rgb(50.195312%, 50.195312%, 50.195312%)" stroke-opacity="1" stroke-miterlimit="4" d="M 27.050781 128.171875 L 27.050781 130.054688 "/>
<path fill="none" stroke-width="0.850394" stroke-linecap="butt" stroke-linejoin="miter" stroke="rgb(50.195312%, 50.195312%, 50.195312%)" stroke-opacity="1" stroke-miterlimit="4" d="M 70.328125 128.171875 L 70.328125 130.054688 "/>
<path fill="none" stroke-width="0.850394" stroke-linecap="butt" stroke-linejoin="miter" stroke="rgb(50.195312%, 50.195312%, 50.195312%)" stroke-opacity="1" stroke-miterlimit="4" d="M 156.886719 128.171875 L 156.886719 130.054688 "/>
<path fill="none" stroke-width="0.850394" stroke-linecap="butt" stroke-linejoin="miter" stroke="rgb(50.195312%, 50.195312%, 50.195312%)" stroke-opacity="1" stroke-miterlimit="4" d="M 48.6875 129.457031 L 48.6875 128.171875 "/>
<path fill="none" stroke-width="0.850394" stroke-linecap="butt" stroke-linejoin="miter" stroke="rgb(50.195312%, 50.195312%, 50.195312%)" stroke-opacity="1" stroke-miterlimit="4" d="M 91.96875 129.457031 L 91.96875 128.171875 "/>
<path fill="none" stroke-width="0.850394" stroke-linecap="butt" stroke-linejoin="miter" stroke="rgb(50.195312%, 50.195312%, 50.195312%)" stroke-opacity="1" stroke-miterlimit="4" d="M 135.25 129.457031 L 135.25 128.171875 "/>
<path fill="none" stroke-width="0.850394" stroke-linecap="butt" stroke-linejoin="miter" stroke="rgb(50.195312%, 50.195312%, 50.195312%)" stroke-opacity="1" stroke-miterlimit="4" d="M 200.167969 128.171875 L 200.167969 130.054688 "/>
<path fill="none" stroke-width="0.850394" stroke-linecap="butt" stroke-linejoin="miter" stroke="rgb(50.195312%, 50.195312%, 50.195312%)" stroke-opacity="1" stroke-miterlimit="4" d="M 178.527344 129.457031 L 178.527344 128.171875 "/>
<path fill="none" stroke-width="0.850394" stroke-linecap="butt" stroke-linejoin="miter" stroke="rgb(50.195312%, 50.195312%, 50.195312%)" stroke-opacity="1" stroke-miterlimit="4" d="M 113.609375 128.171875 L 113.609375 130.054688 "/>
<path fill="none" stroke-width="1.00912" stroke-linecap="butt" stroke-linejoin="miter" stroke="rgb(50.195312%, 50.195312%, 50.195312%)" stroke-opacity="1" stroke-miterlimit="4" d="M 6.589671 -26.828125 L 6.589671 -24.945312 " transform="matrix(0, 0.710155, -1, 0, 0, 0)"/>
<path fill="none" stroke-width="1.00912" stroke-linecap="butt" stroke-linejoin="miter" stroke="rgb(50.195312%, 50.195312%, 50.195312%)" stroke-opacity="1" stroke-miterlimit="4" d="M 93.151979 -26.828125 L 93.151979 -24.945312 " transform="matrix(0, 0.710155, -1, 0, 0, 0)"/>
<path fill="none" stroke-width="1.00912" stroke-linecap="butt" stroke-linejoin="miter" stroke="rgb(50.195312%, 50.195312%, 50.195312%)" stroke-opacity="1" stroke-miterlimit="4" d="M 35.445607 -25.542969 L 35.445607 -26.828125 " transform="matrix(0, 0.710155, -1, 0, 0, 0)"/>
<path fill="none" stroke-width="1.00912" stroke-linecap="butt" stroke-linejoin="miter" stroke="rgb(50.195312%, 50.195312%, 50.195312%)" stroke-opacity="1" stroke-miterlimit="4" d="M 64.296043 -25.542969 L 64.296043 -26.828125 " transform="matrix(0, 0.710155, -1, 0, 0, 0)"/>
<path fill="none" stroke-width="1.00912" stroke-linecap="butt" stroke-linejoin="miter" stroke="rgb(50.195312%, 50.195312%, 50.195312%)" stroke-opacity="1" stroke-miterlimit="4" d="M 122.002415 -25.542969 L 122.002415 -26.828125 " transform="matrix(0, 0.710155, -1, 0, 0, 0)"/>
<path fill="none" stroke-width="1.00912" stroke-linecap="butt" stroke-linejoin="miter" stroke="rgb(50.195312%, 50.195312%, 50.195312%)" stroke-opacity="1" stroke-miterlimit="4" d="M 150.858351 -25.542969 L 150.858351 -26.828125 " transform="matrix(0, 0.710155, -1, 0, 0, 0)"/>
<path fill="none" stroke-width="1.00912" stroke-linecap="butt" stroke-linejoin="miter" stroke="rgb(50.195312%, 50.195312%, 50.195312%)" stroke-opacity="1" stroke-miterlimit="4" d="M 179.708787 -26.828125 L 179.708787 -24.945312 " transform="matrix(0, 0.710155, -1, 0, 0, 0)"/>
<path fill="none" stroke-width="0.850394" stroke-linecap="round" stroke-linejoin="round" stroke="rgb(0%, 0%, 0%)" stroke-opacity="1" stroke-miterlimit="3" d="M 27.050781 4.75 L 200.167969 4.75 L 200.167969 127.808594 L 27.050781 127.808594 Z M 27.050781 4.75 "/>
<path fill-rule="nonzero" fill="rgb(0%, 0%, 0%)" fill-opacity="1" d="M 6.964844 75.761719 C 4.851562 75.761719 2.945312 76.742188 2.945312 79.050781 C 2.945312 81.308594 4.902344 82.304688 6.964844 82.304688 C 9.03125 82.304688 10.957031 81.289062 10.957031 79.050781 C 10.957031 76.761719 9.082031 75.761719 6.964844 75.761719 Z M 6.964844 76.585938 C 8.523438 76.585938 10.203125 77.265625 10.203125 79.050781 C 10.203125 80.800781 8.507812 81.484375 6.964844 81.484375 C 5.375 81.484375 3.695312 80.835938 3.695312 79.050781 C 3.695312 77.234375 5.355469 76.585938 6.964844 76.585938 Z M 6.964844 76.585938 "/>
<path fill-rule="nonzero" fill="rgb(0%, 0%, 0%)" fill-opacity="1" d="M 10.796875 70.203125 L 5.757812 70.203125 L 5.757812 71.058594 L 8.609375 71.058594 C 9.554688 71.058594 10.203125 71.53125 10.203125 72.546875 C 10.203125 73.441406 9.644531 73.753906 8.785156 73.753906 L 5.757812 73.753906 L 5.757812 74.558594 L 8.804688 74.558594 C 9.992188 74.558594 10.9375 74 10.9375 72.738281 C 10.9375 72.09375 10.570312 71.429688 10.132812 71.058594 L 10.796875 71.058594 Z M 10.796875 70.203125 "/>
<path fill-rule="nonzero" fill="rgb(0%, 0%, 0%)" fill-opacity="1" d="M 10.796875 65.84375 L 10.082031 65.84375 L 10.082031 66.71875 C 10.082031 67.507812 9.886719 67.648438 9.152344 67.648438 L 6.425781 67.648438 L 6.425781 66.160156 L 5.757812 66.160156 L 5.757812 67.648438 L 4.324219 67.648438 L 4.324219 67.996094 L 5.757812 68.46875 L 5.757812 69.0625 L 6.425781 69.0625 L 6.425781 68.46875 L 9.152344 68.46875 C 10.414062 68.46875 10.796875 67.960938 10.796875 66.71875 Z M 10.796875 65.84375 "/>
<path fill-rule="nonzero" fill="rgb(0%, 0%, 0%)" fill-opacity="1" d="M 8.277344 60.195312 C 6.808594 60.195312 5.757812 61.175781 5.757812 62.664062 L 5.757812 64.8125 L 13.492188 64.8125 L 13.492188 63.972656 L 10.796875 63.972656 L 10.796875 62.730469 C 10.796875 61.105469 9.78125 60.195312 8.277344 60.195312 Z M 8.277344 61 C 9.277344 61 10.0625 61.628906 10.0625 62.730469 L 10.0625 63.972656 L 6.496094 63.972656 L 6.496094 62.730469 C 6.496094 61.648438 7.210938 61 8.277344 61 Z M 8.277344 61 "/>
<path fill-rule="nonzero" fill="rgb(0%, 0%, 0%)" fill-opacity="1" d="M 10.796875 54.609375 L 5.757812 54.609375 L 5.757812 55.46875 L 8.609375 55.46875 C 9.554688 55.46875 10.203125 55.941406 10.203125 56.953125 C 10.203125 57.847656 9.644531 58.160156 8.785156 58.160156 L 5.757812 58.160156 L 5.757812 58.964844 L 8.804688 58.964844 C 9.992188 58.964844 10.9375 58.40625 10.9375 57.148438 C 10.9375 56.5 10.570312 55.835938 10.132812 55.46875 L 10.796875 55.46875 Z M 10.796875 54.609375 "/>
<path fill-rule="nonzero" fill="rgb(0%, 0%, 0%)" fill-opacity="1" d="M 10.796875 50.253906 L 10.082031 50.253906 L 10.082031 51.128906 C 10.082031 51.914062 9.886719 52.054688 9.152344 52.054688 L 6.425781 52.054688 L 6.425781 50.566406 L 5.757812 50.566406 L 5.757812 52.054688 L 4.324219 52.054688 L 4.324219 52.40625 L 5.757812 52.875 L 5.757812 53.472656 L 6.425781 53.472656 L 6.425781 52.875 L 9.152344 52.875 C 10.414062 52.875 10.796875 52.371094 10.796875 51.128906 Z M 10.796875 50.253906 "/>
<path fill-rule="nonzero" fill="rgb(0%, 0%, 0%)" fill-opacity="1" d="M 96.449219 131.949219 L 97.289062 131.949219 L 97.289062 139.664062 L 96.449219 139.664062 Z M 96.449219 131.949219 "/>
<path fill-rule="nonzero" fill="rgb(0%, 0%, 0%)" fill-opacity="1" d="M 103.164062 139.664062 L 103.164062 136.621094 C 103.164062 135.429688 102.65625 134.503906 101.363281 134.503906 C 100.714844 134.503906 100.050781 134.75 99.648438 135.308594 L 99.648438 134.625 L 98.824219 134.625 L 98.824219 139.664062 L 99.648438 139.664062 L 99.648438 136.8125 C 99.683594 135.851562 100.277344 135.238281 101.167969 135.238281 C 102.042969 135.238281 102.359375 135.765625 102.359375 136.65625 L 102.359375 139.664062 Z M 103.164062 139.664062 "/>
<g clip-path="url(#clip-1)">
<path fill-rule="nonzero" fill="rgb(0%, 0%, 0%)" fill-opacity="1" d="M 109.253906 137.144531 C 109.253906 135.675781 108.273438 134.625 106.789062 134.625 L 104.636719 134.625 L 104.636719 142.359375 L 105.476562 142.359375 L 105.476562 139.664062 L 106.71875 139.664062 C 108.34375 139.664062 109.253906 138.648438 109.253906 137.144531 Z M 108.449219 137.144531 C 108.449219 138.144531 107.820312 138.929688 106.71875 138.929688 L 105.476562 138.929688 L 105.476562 135.363281 L 106.71875 135.363281 C 107.800781 135.363281 108.449219 136.078125 108.449219 137.144531 Z M 108.449219 137.144531 "/>
</g>
<path fill-rule="nonzero" fill="rgb(0%, 0%, 0%)" fill-opacity="1" d="M 114.839844 139.664062 L 114.839844 134.625 L 113.984375 134.625 L 113.984375 137.476562 C 113.984375 138.421875 113.511719 139.070312 112.496094 139.070312 C 111.605469 139.070312 111.289062 138.511719 111.289062 137.652344 L 111.289062 134.625 L 110.484375 134.625 L 110.484375 137.671875 C 110.484375 138.859375 111.042969 139.804688 112.304688 139.804688 C 112.949219 139.804688 113.613281 139.4375 113.984375 139 L 113.984375 139.664062 Z M 114.839844 139.664062 "/>
<path fill-rule="nonzero" fill="rgb(0%, 0%, 0%)" fill-opacity="1" d="M 119.199219 139.664062 L 119.199219 138.949219 L 118.324219 138.949219 C 117.535156 138.949219 117.394531 138.753906 117.394531 138.019531 L 117.394531 135.292969 L 118.882812 135.292969 L 118.882812 134.625 L 117.394531 134.625 L 117.394531 133.191406 L 117.046875 133.191406 L 116.574219 134.625 L 115.980469 134.625 L 115.980469 135.292969 L 116.574219 135.292969 L 116.574219 138.019531 C 116.574219 139.28125 117.082031 139.664062 118.324219 139.664062 Z M 119.199219 139.664062 "/>
<path fill-rule="nonzero" fill="rgb(0%, 0%, 0%)" fill-opacity="1" d="M 121.3125 138.527344 L 120.300781 138.527344 L 120.300781 139.296875 C 120.367188 139.4375 120.386719 139.578125 120.386719 139.71875 C 120.386719 140.121094 120.175781 140.539062 119.878906 140.730469 C 120.457031 140.714844 121.296875 139.855469 121.3125 139.316406 Z M 121.3125 138.527344 "/>
<path fill-rule="nonzero" fill="rgb(0%, 0%, 0%)" fill-opacity="1" d="M 130.714844 135.414062 C 130.769531 135.257812 130.769531 135.238281 130.769531 135.152344 C 130.769531 134.960938 130.609375 134.855469 130.4375 134.855469 C 130.332031 134.855469 130.15625 134.925781 130.050781 135.082031 C 130.035156 135.152344 129.929688 135.484375 129.894531 135.695312 C 129.804688 135.972656 129.734375 136.289062 129.667969 136.585938 L 129.160156 138.597656 C 129.125 138.753906 128.632812 139.542969 127.898438 139.542969 C 127.339844 139.542969 127.21875 139.050781 127.21875 138.632812 C 127.21875 138.125 127.410156 137.425781 127.777344 136.445312 C 127.953125 135.992188 128.003906 135.867188 128.003906 135.640625 C 128.003906 135.152344 127.65625 134.730469 127.09375 134.730469 C 126.027344 134.730469 125.625 136.359375 125.625 136.445312 C 125.625 136.570312 125.730469 136.570312 125.746094 136.570312 C 125.871094 136.570312 125.871094 136.535156 125.921875 136.359375 C 126.238281 135.308594 126.675781 134.976562 127.058594 134.976562 C 127.148438 134.976562 127.339844 134.976562 127.339844 135.328125 C 127.339844 135.605469 127.21875 135.902344 127.148438 136.113281 C 126.691406 137.304688 126.5 137.933594 126.5 138.457031 C 126.5 139.453125 127.199219 139.789062 127.863281 139.789062 C 128.300781 139.789062 128.667969 139.59375 128.984375 139.28125 C 128.84375 139.855469 128.703125 140.417969 128.265625 141.011719 C 127.96875 141.378906 127.550781 141.710938 127.042969 141.710938 C 126.882812 141.710938 126.378906 141.675781 126.183594 141.238281 C 126.359375 141.238281 126.515625 141.238281 126.65625 141.097656 C 126.78125 141.011719 126.882812 140.855469 126.882812 140.644531 C 126.882812 140.292969 126.585938 140.257812 126.480469 140.257812 C 126.21875 140.257812 125.851562 140.433594 125.851562 140.976562 C 125.851562 141.535156 126.34375 141.957031 127.042969 141.957031 C 128.179688 141.957031 129.332031 140.941406 129.648438 139.683594 Z M 130.714844 135.414062 "/>
<path fill-rule="nonzero" fill="rgb(50.195312%, 50.195312%, 50.195312%)" fill-opacity="1" d="M 25.75 134.707031 C 25.738281 133.542969 25.476562 131.859375 24.003906 131.859375 C 22.53125 131.859375 22.28125 133.566406 22.28125 134.707031 C 22.28125 135.859375 22.542969 137.53125 24.003906 137.53125 C 25.464844 137.53125 25.75 135.859375 25.75 134.707031 Z M 25.179688 134.707031 C 25.179688 135.460938 25.121094 137.011719 24.003906 137.011719 C 22.890625 137.011719 22.851562 135.4375 22.851562 134.707031 C 22.851562 133.964844 22.878906 132.367188 24.003906 132.367188 C 25.121094 132.367188 25.179688 133.976562 25.179688 134.707031 Z M 25.179688 134.707031 "/>
<path fill-rule="nonzero" fill="rgb(50.195312%, 50.195312%, 50.195312%)" fill-opacity="1" d="M 26.765625 136.613281 L 27.519531 136.613281 L 27.519531 137.417969 L 26.765625 137.417969 Z M 26.765625 136.613281 "/>
<path fill-rule="nonzero" fill="rgb(50.195312%, 50.195312%, 50.195312%)" fill-opacity="1" d="M 31.996094 134.707031 C 31.984375 133.542969 31.726562 131.859375 30.25 131.859375 C 28.777344 131.859375 28.53125 133.566406 28.53125 134.707031 C 28.53125 135.859375 28.789062 137.53125 30.25 137.53125 C 31.714844 137.53125 31.996094 135.859375 31.996094 134.707031 Z M 31.429688 134.707031 C 31.429688 135.460938 31.367188 137.011719 30.25 137.011719 C 29.136719 137.011719 29.097656 135.4375 29.097656 134.707031 C 29.097656 133.964844 29.125 132.367188 30.25 132.367188 C 31.367188 132.367188 31.429688 133.976562 31.429688 134.707031 Z M 31.429688 134.707031 "/>
<path fill-rule="nonzero" fill="rgb(50.195312%, 50.195312%, 50.195312%)" fill-opacity="1" d="M 11.433594 128.15625 L 13.226562 128.15625 L 13.226562 128.675781 L 11.433594 128.675781 Z M 11.433594 128.15625 "/>
<path fill-rule="nonzero" fill="rgb(50.195312%, 50.195312%, 50.195312%)" fill-opacity="1" d="M 17.320312 128.613281 C 17.320312 128.007812 16.949219 127.449219 16.253906 127.25 C 16.847656 127.027344 17.195312 126.59375 17.195312 126.023438 C 17.195312 125.070312 16.402344 124.636719 15.535156 124.636719 C 15.101562 124.636719 14.570312 124.738281 14.1875 124.859375 L 14.1875 125.46875 C 14.605469 125.320312 14.964844 125.195312 15.472656 125.195312 C 16.117188 125.195312 16.636719 125.429688 16.636719 126.125 C 16.625 126.753906 16.117188 127.015625 15.5 127.015625 L 14.917969 127.015625 L 14.917969 127.546875 L 15.472656 127.546875 C 16.191406 127.546875 16.761719 127.859375 16.761719 128.613281 C 16.761719 129.503906 16.144531 129.753906 15.339844 129.753906 C 14.769531 129.753906 14.421875 129.652344 14.023438 129.382812 L 14.023438 130.050781 C 14.421875 130.1875 14.878906 130.3125 15.351562 130.3125 C 16.453125 130.3125 17.320312 129.816406 17.320312 128.613281 Z M 17.320312 128.613281 "/>
<path fill-rule="nonzero" fill="rgb(50.195312%, 50.195312%, 50.195312%)" fill-opacity="1" d="M 18.292969 129.394531 L 19.050781 129.394531 L 19.050781 130.199219 L 18.292969 130.199219 Z M 18.292969 129.394531 "/>
<path fill-rule="nonzero" fill="rgb(50.195312%, 50.195312%, 50.195312%)" fill-opacity="1" d="M 23.527344 127.488281 C 23.515625 126.324219 23.257812 124.636719 21.78125 124.636719 C 20.308594 124.636719 20.0625 126.347656 20.0625 127.488281 C 20.0625 128.636719 20.320312 130.3125 21.78125 130.3125 C 23.242188 130.3125 23.527344 128.636719 23.527344 127.488281 Z M 22.960938 127.488281 C 22.960938 128.242188 22.898438 129.789062 21.78125 129.789062 C 20.667969 129.789062 20.628906 128.21875 20.628906 127.488281 C 20.628906 126.742188 20.65625 125.144531 21.78125 125.144531 C 22.898438 125.144531 22.960938 126.753906 22.960938 127.488281 Z M 22.960938 127.488281 "/>
<path fill-rule="nonzero" fill="rgb(50.195312%, 50.195312%, 50.195312%)" fill-opacity="1" d="M 17.320312 5.570312 C 17.320312 4.960938 16.949219 4.402344 16.253906 4.207031 C 16.847656 3.984375 17.195312 3.550781 17.195312 2.980469 C 17.195312 2.027344 16.402344 1.59375 15.535156 1.59375 C 15.101562 1.59375 14.570312 1.691406 14.1875 1.816406 L 14.1875 2.421875 C 14.605469 2.273438 14.964844 2.148438 15.472656 2.148438 C 16.117188 2.148438 16.636719 2.386719 16.636719 3.078125 C 16.625 3.710938 16.117188 3.96875 15.5 3.96875 L 14.917969 3.96875 L 14.917969 4.503906 L 15.472656 4.503906 C 16.191406 4.503906 16.761719 4.8125 16.761719 5.570312 C 16.761719 6.460938 16.144531 6.707031 15.339844 6.707031 C 14.769531 6.707031 14.421875 6.609375 14.023438 6.335938 L 14.023438 7.003906 C 14.421875 7.140625 14.878906 7.265625 15.351562 7.265625 C 16.453125 7.265625 17.320312 6.769531 17.320312 5.570312 Z M 17.320312 5.570312 "/>
<path fill-rule="nonzero" fill="rgb(50.195312%, 50.195312%, 50.195312%)" fill-opacity="1" d="M 18.292969 6.347656 L 19.050781 6.347656 L 19.050781 7.152344 L 18.292969 7.152344 Z M 18.292969 6.347656 "/>
<path fill-rule="nonzero" fill="rgb(50.195312%, 50.195312%, 50.195312%)" fill-opacity="1" d="M 23.527344 4.441406 C 23.515625 3.277344 23.257812 1.59375 21.78125 1.59375 C 20.308594 1.59375 20.0625 3.300781 20.0625 4.441406 C 20.0625 5.59375 20.320312 7.265625 21.78125 7.265625 C 23.242188 7.265625 23.527344 5.59375 23.527344 4.441406 Z M 22.960938 4.441406 C 22.960938 5.195312 22.898438 6.746094 21.78125 6.746094 C 20.667969 6.746094 20.628906 5.171875 20.628906 4.441406 C 20.628906 3.699219 20.65625 2.101562 21.78125 2.101562 C 22.898438 2.101562 22.960938 3.710938 22.960938 4.441406 Z M 22.960938 4.441406 "/>
<path fill-rule="nonzero" fill="rgb(50.195312%, 50.195312%, 50.195312%)" fill-opacity="1" d="M 198.535156 136.15625 L 198.535156 135.585938 L 197.789062 135.585938 L 197.789062 131.992188 L 196.996094 131.992188 L 194.878906 135.460938 L 194.878906 136.15625 L 197.195312 136.15625 L 197.195312 137.457031 L 197.789062 137.457031 L 197.789062 136.15625 Z M 197.195312 135.585938 L 195.324219 135.585938 L 197.195312 132.574219 Z M 197.195312 135.585938 "/>
<path fill-rule="nonzero" fill="rgb(50.195312%, 50.195312%, 50.195312%)" fill-opacity="1" d="M 199.265625 136.652344 L 200.019531 136.652344 L 200.019531 137.457031 L 199.265625 137.457031 Z M 199.265625 136.652344 "/>
<path fill-rule="nonzero" fill="rgb(50.195312%, 50.195312%, 50.195312%)" fill-opacity="1" d="M 204.5 134.742188 C 204.488281 133.578125 204.226562 131.894531 202.753906 131.894531 C 201.277344 131.894531 201.03125 133.605469 201.03125 134.742188 C 201.03125 135.894531 201.292969 137.566406 202.753906 137.566406 C 204.214844 137.566406 204.5 135.894531 204.5 134.742188 Z M 203.929688 134.742188 C 203.929688 135.5 203.867188 137.046875 202.753906 137.046875 C 201.636719 137.046875 201.601562 135.472656 201.601562 134.742188 C 201.601562 134 201.625 132.402344 202.753906 132.402344 C 203.867188 132.402344 203.929688 134.011719 203.929688 134.742188 Z M 203.929688 134.742188 "/>
<path fill-rule="nonzero" fill="rgb(20.391846%, 51.371765%, 47.842407%)" fill-opacity="1" d="M 143.414062 80.457031 C 143.605469 80.457031 143.816406 80.457031 143.816406 80.230469 C 143.816406 80.019531 143.605469 80.019531 143.414062 80.019531 L 137.378906 80.019531 C 137.183594 80.019531 136.992188 80.019531 136.992188 80.230469 C 136.992188 80.457031 137.183594 80.457031 137.378906 80.457031 Z M 143.414062 80.457031 "/>
<path fill-rule="nonzero" fill="rgb(20.391846%, 51.371765%, 47.842407%)" fill-opacity="1" d="M 148.578125 75.28125 L 146.96875 75.402344 L 146.96875 75.753906 C 147.753906 75.753906 147.839844 75.824219 147.839844 76.382812 L 147.839844 82.191406 C 147.839844 82.679688 147.71875 82.679688 146.96875 82.679688 L 146.96875 83.03125 C 147.335938 83.011719 147.929688 82.996094 148.207031 82.996094 C 148.488281 82.996094 149.03125 83.011719 149.449219 83.03125 L 149.449219 82.679688 C 148.699219 82.679688 148.578125 82.679688 148.578125 82.191406 Z M 148.578125 75.28125 "/>
<path fill-rule="nonzero" fill="rgb(20.391846%, 51.371765%, 47.842407%)" fill-opacity="1" d="M 154.945312 80.632812 C 154.945312 79.214844 153.84375 78.027344 152.496094 78.027344 C 151.097656 78.027344 150.011719 79.25 150.011719 80.632812 C 150.011719 82.085938 151.167969 83.152344 152.480469 83.152344 C 153.828125 83.152344 154.945312 82.050781 154.945312 80.632812 Z M 152.496094 82.871094 C 152.007812 82.871094 151.515625 82.644531 151.21875 82.121094 C 150.941406 81.628906 150.941406 80.949219 150.941406 80.546875 C 150.941406 80.109375 150.941406 79.511719 151.203125 79.023438 C 151.5 78.515625 152.023438 78.269531 152.480469 78.269531 C 152.96875 78.269531 153.441406 78.515625 153.738281 79.007812 C 154.035156 79.476562 154.035156 80.125 154.035156 80.546875 C 154.035156 80.949219 154.035156 81.558594 153.792969 82.050781 C 153.527344 82.558594 153.039062 82.871094 152.496094 82.871094 Z M 152.496094 82.871094 "/>
<path fill-rule="nonzero" fill="rgb(20.391846%, 51.371765%, 47.842407%)" fill-opacity="1" d="M 157.757812 81.105469 C 156.777344 81.105469 156.777344 79.984375 156.777344 79.742188 C 156.777344 79.441406 156.796875 79.074219 156.953125 78.796875 C 157.042969 78.671875 157.304688 78.359375 157.757812 78.359375 C 158.722656 78.359375 158.722656 79.460938 158.722656 79.722656 C 158.722656 80.019531 158.722656 80.386719 158.546875 80.667969 C 158.457031 80.789062 158.195312 81.105469 157.757812 81.105469 Z M 156.464844 81.542969 C 156.464844 81.507812 156.464844 81.246094 156.640625 81.019531 C 157.078125 81.332031 157.550781 81.367188 157.757812 81.367188 C 158.789062 81.367188 159.5625 80.597656 159.5625 79.742188 C 159.5625 79.320312 159.386719 78.917969 159.105469 78.65625 C 159.507812 78.269531 159.910156 78.21875 160.101562 78.21875 C 160.136719 78.21875 160.191406 78.21875 160.226562 78.234375 C 160.101562 78.269531 160.03125 78.394531 160.03125 78.535156 C 160.03125 78.726562 160.191406 78.847656 160.363281 78.847656 C 160.46875 78.847656 160.679688 78.777344 160.679688 78.515625 C 160.679688 78.324219 160.558594 77.972656 160.121094 77.972656 C 159.894531 77.972656 159.402344 78.042969 158.929688 78.5 C 158.457031 78.132812 158.003906 78.097656 157.757812 78.097656 C 156.710938 78.097656 155.941406 78.867188 155.941406 79.722656 C 155.941406 80.214844 156.183594 80.632812 156.464844 80.878906 C 156.324219 81.035156 156.113281 81.402344 156.113281 81.804688 C 156.113281 82.15625 156.273438 82.574219 156.621094 82.800781 C 155.941406 82.976562 155.589844 83.464844 155.589844 83.902344 C 155.589844 84.707031 156.691406 85.320312 158.054688 85.320312 C 159.367188 85.320312 160.523438 84.761719 160.523438 83.886719 C 160.523438 83.5 160.382812 82.925781 159.804688 82.609375 C 159.210938 82.3125 158.5625 82.3125 157.882812 82.3125 C 157.601562 82.3125 157.128906 82.3125 157.042969 82.292969 C 156.691406 82.242188 156.464844 81.910156 156.464844 81.542969 Z M 158.074219 85.074219 C 156.9375 85.074219 156.167969 84.5 156.167969 83.902344 C 156.167969 83.398438 156.585938 82.976562 157.078125 82.960938 L 157.742188 82.960938 C 158.703125 82.960938 159.945312 82.960938 159.945312 83.902344 C 159.945312 84.515625 159.160156 85.074219 158.074219 85.074219 Z M 158.074219 85.074219 "/>
<path fill-rule="nonzero" fill="rgb(20.391846%, 51.371765%, 47.842407%)" fill-opacity="1" d="M 163.859375 85.828125 L 163.859375 85.375 L 162.773438 85.375 L 162.773438 75.105469 L 163.859375 75.105469 L 163.859375 74.648438 L 162.320312 74.648438 L 162.320312 85.828125 Z M 163.859375 85.828125 "/>
<path fill-rule="nonzero" fill="rgb(20.391846%, 51.371765%, 47.842407%)" fill-opacity="1" d="M 169.527344 78.777344 C 169.578125 78.621094 169.578125 78.605469 169.578125 78.515625 C 169.578125 78.324219 169.421875 78.21875 169.246094 78.21875 C 169.144531 78.21875 168.96875 78.289062 168.863281 78.445312 C 168.84375 78.515625 168.742188 78.847656 168.707031 79.058594 C 168.617188 79.339844 168.546875 79.652344 168.476562 79.949219 L 167.96875 81.960938 C 167.9375 82.121094 167.445312 82.90625 166.710938 82.90625 C 166.152344 82.90625 166.027344 82.417969 166.027344 81.996094 C 166.027344 81.488281 166.222656 80.789062 166.589844 79.8125 C 166.765625 79.355469 166.816406 79.234375 166.816406 79.007812 C 166.816406 78.515625 166.464844 78.097656 165.90625 78.097656 C 164.839844 78.097656 164.4375 79.722656 164.4375 79.8125 C 164.4375 79.933594 164.542969 79.933594 164.558594 79.933594 C 164.683594 79.933594 164.683594 79.898438 164.734375 79.722656 C 165.050781 78.671875 165.488281 78.339844 165.871094 78.339844 C 165.960938 78.339844 166.152344 78.339844 166.152344 78.691406 C 166.152344 78.972656 166.027344 79.269531 165.960938 79.476562 C 165.503906 80.667969 165.3125 81.296875 165.3125 81.824219 C 165.3125 82.820312 166.011719 83.152344 166.675781 83.152344 C 167.113281 83.152344 167.480469 82.960938 167.796875 82.644531 C 167.65625 83.222656 167.515625 83.78125 167.078125 84.375 C 166.78125 84.742188 166.363281 85.074219 165.855469 85.074219 C 165.695312 85.074219 165.1875 85.042969 164.996094 84.605469 C 165.171875 84.605469 165.328125 84.605469 165.46875 84.464844 C 165.589844 84.375 165.695312 84.21875 165.695312 84.007812 C 165.695312 83.660156 165.398438 83.625 165.292969 83.625 C 165.03125 83.625 164.664062 83.800781 164.664062 84.339844 C 164.664062 84.902344 165.15625 85.320312 165.855469 85.320312 C 166.992188 85.320312 168.144531 84.304688 168.460938 83.046875 Z M 169.527344 78.777344 "/>
<path fill-rule="nonzero" fill="rgb(20.391846%, 51.371765%, 47.842407%)" fill-opacity="1" d="M 171.738281 74.648438 L 170.21875 74.648438 L 170.21875 75.105469 L 171.304688 75.105469 L 171.304688 85.375 L 170.21875 85.375 L 170.21875 85.828125 L 171.738281 85.828125 Z M 171.738281 74.648438 "/>
<path fill-rule="nonzero" fill="rgb(66.273499%, 33.332825%, 19.607544%)" fill-opacity="1" d="M 144.8125 112.636719 C 144.8125 112.355469 144.8125 112.335938 144.550781 112.335938 C 143.851562 113.054688 142.871094 113.054688 142.523438 113.054688 L 142.523438 113.40625 C 142.75 113.40625 143.398438 113.40625 143.976562 113.109375 L 143.976562 118.898438 C 143.976562 119.300781 143.941406 119.421875 142.941406 119.421875 L 142.59375 119.421875 L 142.59375 119.773438 C 142.976562 119.738281 143.941406 119.738281 144.394531 119.738281 C 144.832031 119.738281 145.8125 119.738281 146.195312 119.773438 L 146.195312 119.421875 L 145.847656 119.421875 C 144.832031 119.421875 144.8125 119.300781 144.8125 118.898438 Z M 144.8125 112.636719 "/>
<path fill-rule="nonzero" fill="rgb(66.273499%, 33.332825%, 19.607544%)" fill-opacity="1" d="M 156.929688 117.199219 C 157.121094 117.199219 157.332031 117.199219 157.332031 116.972656 C 157.332031 116.761719 157.121094 116.761719 156.929688 116.761719 L 150.894531 116.761719 C 150.703125 116.761719 150.507812 116.761719 150.507812 116.972656 C 150.507812 117.199219 150.703125 117.199219 150.894531 117.199219 Z M 156.929688 117.199219 "/>
<path fill-rule="nonzero" fill="rgb(66.273499%, 33.332825%, 19.607544%)" fill-opacity="1" d="M 166.15625 115.523438 C 166.210938 115.363281 166.210938 115.347656 166.210938 115.257812 C 166.210938 115.066406 166.054688 114.960938 165.878906 114.960938 C 165.773438 114.960938 165.597656 115.03125 165.492188 115.1875 C 165.476562 115.257812 165.371094 115.589844 165.335938 115.800781 C 165.25 116.082031 165.179688 116.394531 165.109375 116.695312 L 164.601562 118.707031 C 164.566406 118.863281 164.074219 119.648438 163.339844 119.648438 C 162.78125 119.648438 162.660156 119.160156 162.660156 118.742188 C 162.660156 118.234375 162.851562 117.535156 163.21875 116.554688 C 163.394531 116.097656 163.445312 115.976562 163.445312 115.75 C 163.445312 115.257812 163.097656 114.839844 162.535156 114.839844 C 161.46875 114.839844 161.066406 116.464844 161.066406 116.554688 C 161.066406 116.675781 161.171875 116.675781 161.191406 116.675781 C 161.3125 116.675781 161.3125 116.640625 161.363281 116.464844 C 161.679688 115.417969 162.117188 115.085938 162.5 115.085938 C 162.589844 115.085938 162.78125 115.085938 162.78125 115.433594 C 162.78125 115.714844 162.660156 116.011719 162.589844 116.222656 C 162.132812 117.410156 161.941406 118.039062 161.941406 118.566406 C 161.941406 119.5625 162.640625 119.894531 163.304688 119.894531 C 163.742188 119.894531 164.109375 119.703125 164.425781 119.386719 C 164.285156 119.964844 164.144531 120.523438 163.707031 121.121094 C 163.410156 121.488281 162.992188 121.820312 162.484375 121.820312 C 162.328125 121.820312 161.820312 121.785156 161.628906 121.347656 C 161.800781 121.347656 161.960938 121.347656 162.097656 121.207031 C 162.222656 121.121094 162.328125 120.960938 162.328125 120.75 C 162.328125 120.402344 162.03125 120.367188 161.925781 120.367188 C 161.660156 120.367188 161.292969 120.542969 161.292969 121.085938 C 161.292969 121.644531 161.785156 122.0625 162.484375 122.0625 C 163.621094 122.0625 164.777344 121.050781 165.089844 119.789062 Z M 166.15625 115.523438 "/>
<g clip-path="url(#clip-2)">
<path fill="none" stroke-width="1.569927" stroke-linecap="square" stroke-linejoin="round" stroke="rgb(81.959534%, 51.371765%, 38.430786%)" stroke-opacity="1" stroke-miterlimit="4" d="M 30.632976 45.941406 L 218.773962 127.402344 " transform="matrix(0.9129, 0, 0, 1, 0, 0)"/>
</g>
</svg>
