<?xml version="1.0" encoding="UTF-8"?>
<svg xmlns="http://www.w3.org/2000/svg" xmlns:xlink="http://www.w3.org/1999/xlink" width="409.924133pt" height="115.004967pt" viewBox="0 0 409.924133 115.004967">
<defs>
<clipPath id="clip-0">
<path clip-rule="nonzero" d="M 301.765625 11 L 407.132812 11 L 407.132812 100 L 301.765625 100 Z M 301.765625 11 "/>
</clipPath>
<clipPath id="clip-1">
<path clip-rule="nonzero" d="M 24.054688 7.769531 L 129.871094 7.769531 L 129.871094 103 L 24.054688 103 Z M 24.054688 7.769531 "/>
</clipPath>
<clipPath id="clip-2">
<path clip-rule="nonzero" d="M 163.136719 32 L 269.046875 32 L 269.046875 103.246094 L 163.136719 103.246094 Z M 163.136719 32 "/>
</clipPath>
<clipPath id="clip-3">
<path clip-rule="nonzero" d="M 74 109 L 81 109 L 81 115.003906 L 74 115.003906 Z M 74 109 "/>
</clipPath>
<clipPath id="clip-4">
<path clip-rule="nonzero" d="M 213 109 L 219 109 L 219 115.003906 L 213 115.003906 Z M 213 109 "/>
</clipPath>
<clipPath id="clip-5">
<path clip-rule="nonzero" d="M 351 109 L 358 109 L 358 115.003906 L 351 115.003906 Z M 351 109 "/>
</clipPath>
<clipPath id="clip-6">
<path clip-rule="nonzero" d="M 402 98 L 409.925781 98 L 409.925781 111 L 402 111 Z M 402 98 "/>
</clipPath>
<clipPath id="clip-7">
<path clip-rule="nonzero" d="M 406 106 L 409.925781 106 L 409.925781 113 L 406 113 Z M 406 106 "/>
</clipPath>
</defs>
<g clip-path="url(#clip-0)">
<path fill="none" stroke-width="1.766502" stroke-linecap="square" stroke-linejoin="round" stroke="rgb(81.959534%, 51.371765%, 38.430786%)" stroke-opacity="1" stroke-miterlimit="4" d="M 418.519046 98.691406 L 426.802529 98.371094 L 434.593012 97.976562 L 441.90133 97.511719 L 448.722066 96.976562 L 455.055219 96.382812 L 460.90079 95.730469 L 466.258779 95.035156 L 471.129185 94.304688 L 475.512009 93.554688 L 479.894833 92.710938 L 483.795492 91.867188 L 487.690734 90.925781 L 491.098393 90.011719 L 494.511469 89 L 497.919128 87.886719 L 500.844623 86.839844 L 503.764699 85.695312 L 506.690194 84.453125 L 509.61027 83.09375 L 512.530347 81.613281 L 514.968259 80.273438 L 517.406171 78.832031 L 519.838665 77.28125 L 522.276577 75.605469 L 524.709072 73.800781 L 527.146983 71.855469 L 529.097313 70.1875 L 531.042225 68.417969 L 532.992554 66.53125 L 534.942884 64.527344 L 536.887796 62.398438 L 538.838125 60.128906 L 540.783037 57.710938 L 542.733367 55.140625 L 544.683696 52.402344 L 546.628608 49.480469 L 548.578938 46.371094 L 550.529267 43.054688 L 552.474179 39.519531 L 554.424509 35.75 L 556.374838 31.726562 L 558.31975 27.4375 L 560.27008 22.855469 L 562.220409 17.960938 L 564.165321 12.738281 " transform="matrix(0.721032, 0, 0, 1, 0, 0)"/>
</g>
<path fill="none" stroke-width="0.850394" stroke-linecap="butt" stroke-linejoin="miter" stroke="rgb(50.195312%, 50.195312%, 50.195312%)" stroke-opacity="1" stroke-miterlimit="4" d="M 77.285156 103.40625 L 77.285156 105.292969 "/>
<path fill="none" stroke-width="0.850394" stroke-linecap="butt" stroke-linejoin="miter" stroke="rgb(77.645874%, 80.39093%, 81.175232%)" stroke-opacity="1" stroke-dasharray="1.700787 0.850394" stroke-miterlimit="4" d="M -102.730469 77.253906 L -7.386719 77.253906 " transform="matrix(0, -1, 1, 0, 0, 0)"/>
<path fill="none" stroke-width="0.89932" stroke-linecap="butt" stroke-linejoin="miter" stroke="rgb(77.645874%, 80.39093%, 81.175232%)" stroke-opacity="1" stroke-dasharray="1.798641 0.89932" stroke-miterlimit="4" d="M 183.243628 55.230469 C 222.522289 55.230469 261.805319 55.230469 301.083981 55.230469 " transform="matrix(0.894152, 0, 0, 1, 0, 0)"/>
<path fill="none" stroke-width="0.850394" stroke-linecap="butt" stroke-linejoin="miter" stroke="rgb(50.195312%, 50.195312%, 50.195312%)" stroke-opacity="1" stroke-miterlimit="4" d="M 24.328125 7.4375 C 23.699219 7.4375 23.070312 7.4375 22.445312 7.4375 "/>
<path fill="none" stroke-width="0.850394" stroke-linecap="butt" stroke-linejoin="miter" stroke="rgb(50.195312%, 50.195312%, 50.195312%)" stroke-opacity="1" stroke-miterlimit="4" d="M 24.425781 103.40625 C 24.425781 104.035156 24.425781 104.664062 24.425781 105.292969 "/>
<path fill-rule="nonzero" fill="rgb(0%, 0%, 0%)" fill-opacity="1" d="M 4.492188 5.839844 C 4.492188 4.550781 3.5625 3.660156 2.394531 3.660156 C 1.582031 3.660156 1.007812 3.859375 0.414062 4.195312 L 0.496094 5.027344 C 1.148438 4.570312 1.78125 4.414062 2.394531 4.414062 C 2.988281 4.414062 3.503906 4.910156 3.503906 5.839844 L 3.503906 6.394531 C 1.601562 6.414062 0 6.945312 0 8.054688 C 0 8.589844 0.335938 9.621094 1.445312 9.621094 C 1.621094 9.621094 2.808594 9.597656 3.542969 9.027344 L 3.542969 9.480469 L 4.492188 9.480469 Z M 3.503906 7.816406 C 3.503906 8.054688 3.503906 8.371094 3.066406 8.609375 C 2.710938 8.828125 2.214844 8.847656 2.078125 8.847656 C 1.484375 8.847656 0.910156 8.550781 0.910156 8.035156 C 0.910156 7.144531 2.949219 7.066406 3.503906 7.027344 Z M 3.503906 7.816406 "/>
<path fill-rule="nonzero" fill="rgb(0%, 0%, 0%)" fill-opacity="1" d="M 6.996094 12.648438 C 7.390625 12.25 8.242188 11.480469 8.816406 9.9375 C 9.332031 8.589844 9.410156 7.242188 9.410156 6.3125 C 9.410156 2.238281 7.589844 0.574219 6.996094 0 L 6.222656 0 C 6.816406 0.613281 8.421875 2.238281 8.421875 6.3125 C 8.421875 7.027344 8.378906 8.511719 7.867188 9.996094 C 7.351562 11.460938 6.640625 12.210938 6.222656 12.648438 Z M 6.996094 12.648438 "/>
<g clip-path="url(#clip-1)">
<path fill="none" stroke-width="1.672428" stroke-linecap="square" stroke-linejoin="round" stroke="rgb(81.959534%, 51.371765%, 38.430786%)" stroke-opacity="1" stroke-miterlimit="4" d="M 33.493254 101.304688 L 41.227487 100.796875 L 48.227457 100.242188 L 54.487726 99.644531 L 60.378144 98.980469 L 65.539739 98.308594 L 70.695894 97.535156 L 75.482198 96.710938 L 79.904091 95.851562 L 83.956133 94.96875 L 88.008175 93.980469 L 91.690366 92.980469 L 95.372557 91.878906 L 98.690337 90.789062 L 102.002677 89.597656 L 105.320456 88.289062 L 108.262946 87.027344 L 111.210874 85.660156 L 114.158803 84.175781 L 116.73688 82.777344 L 119.314958 81.277344 L 121.893036 79.667969 L 124.471113 77.945312 L 127.049191 76.09375 L 129.627269 74.109375 L 131.840935 72.292969 L 134.049161 70.367188 L 136.257388 68.320312 L 138.471054 66.148438 L 140.679281 63.839844 L 142.887508 61.390625 L 145.101174 58.789062 L 147.309401 56.027344 L 149.517628 53.09375 L 151.731293 49.976562 L 153.93952 46.671875 L 156.153186 43.160156 L 158.361413 39.429688 L 160.56964 35.472656 L 162.413455 31.984375 L 164.251831 28.320312 L 166.095646 24.46875 L 167.939461 20.417969 L 169.777837 16.160156 L 171.621652 11.683594 L 173.465467 6.980469 L 175.303843 2.03125 L 177.147658 -3.167969 L 178.735841 -7.878906 " transform="matrix(0.718195, 0, 0, 1, 0, 0)"/>
</g>
<g clip-path="url(#clip-2)">
<path fill="none" stroke-width="1.670961" stroke-linecap="square" stroke-linejoin="round" stroke="rgb(81.959534%, 51.371765%, 38.430786%)" stroke-opacity="1" stroke-miterlimit="4" d="M 227.428463 119.515625 L 227.482758 117.777344 L 227.85196 111.316406 L 228.221162 106.734375 L 228.590364 103.175781 L 228.954137 100.273438 L 229.692541 95.6875 L 230.425515 92.132812 L 231.163919 89.226562 L 231.902324 86.769531 L 232.635298 84.644531 L 233.373702 82.765625 L 234.106677 81.089844 L 235.214283 78.859375 L 236.31646 76.90625 L 237.418637 75.167969 L 238.526243 73.597656 L 239.628419 72.171875 L 241.099798 70.445312 L 242.571177 68.890625 L 244.042556 67.472656 L 245.519364 66.171875 L 247.354515 64.679688 L 249.195096 63.320312 L 251.404879 61.824219 L 253.614662 60.457031 L 255.819015 59.199219 L 258.398 57.847656 L 260.971556 56.597656 L 263.919743 55.285156 L 267.231702 53.925781 L 270.543662 52.671875 L 274.224823 51.386719 L 278.269758 50.082031 L 282.689323 48.769531 L 287.472662 47.464844 L 292.625202 46.164062 L 298.141515 44.882812 L 304.03246 43.621094 L 310.287177 42.378906 L 316.911096 41.164062 L 324.273419 39.914062 L 331.999515 38.699219 L 340.464015 37.464844 L 349.666919 36.226562 L 359.602798 34.988281 L 370.27708 33.757812 L 373.58904 33.394531 " transform="matrix(0.719457, 0, 0, 1, 0, 0)"/>
</g>
<path fill-rule="nonzero" fill="rgb(50.195312%, 50.195312%, 50.195312%)" fill-opacity="1" d="M 14.707031 102.832031 C 14.695312 101.667969 14.433594 99.984375 12.960938 99.984375 C 11.488281 99.984375 11.238281 101.691406 11.238281 102.832031 C 11.238281 103.984375 11.5 105.65625 12.960938 105.65625 C 14.421875 105.65625 14.707031 103.984375 14.707031 102.832031 Z M 14.136719 102.832031 C 14.136719 103.585938 14.074219 105.136719 12.960938 105.136719 C 11.847656 105.136719 11.808594 103.5625 11.808594 102.832031 C 11.808594 102.089844 11.835938 100.492188 12.960938 100.492188 C 14.074219 100.492188 14.136719 102.101562 14.136719 102.832031 Z M 14.136719 102.832031 "/>
<path fill-rule="nonzero" fill="rgb(50.195312%, 50.195312%, 50.195312%)" fill-opacity="1" d="M 15.722656 104.738281 L 16.476562 104.738281 L 16.476562 105.542969 L 15.722656 105.542969 Z M 15.722656 104.738281 "/>
<path fill-rule="nonzero" fill="rgb(50.195312%, 50.195312%, 50.195312%)" fill-opacity="1" d="M 20.953125 102.832031 C 20.941406 101.667969 20.683594 99.984375 19.207031 99.984375 C 17.734375 99.984375 17.488281 101.691406 17.488281 102.832031 C 17.488281 103.984375 17.746094 105.65625 19.207031 105.65625 C 20.667969 105.65625 20.953125 103.984375 20.953125 102.832031 Z M 20.386719 102.832031 C 20.386719 103.585938 20.324219 105.136719 19.207031 105.136719 C 18.09375 105.136719 18.054688 103.5625 18.054688 102.832031 C 18.054688 102.089844 18.082031 100.492188 19.207031 100.492188 C 20.324219 100.492188 20.386719 102.101562 20.386719 102.832031 Z M 20.386719 102.832031 "/>
<path fill-rule="nonzero" fill="rgb(50.195312%, 50.195312%, 50.195312%)" fill-opacity="1" d="M 11.375 7.488281 L 11.375 7.574219 C 11.375 9.195312 11.820312 10.039062 13.183594 10.039062 C 14.113281 10.027344 14.84375 9.332031 14.84375 8.292969 C 14.84375 7.25 14.3125 6.445312 13.222656 6.445312 C 12.714844 6.472656 12.355469 6.558594 11.984375 6.992188 C 11.996094 5.457031 13.074219 4.875 14.152344 4.875 L 14.1875 4.875 L 14.199219 4.367188 C 12.863281 4.378906 11.375 5.082031 11.375 7.488281 Z M 11.996094 8.292969 C 12.019531 7.535156 12.417969 6.964844 13.183594 6.964844 C 13.929688 6.964844 14.273438 7.5625 14.273438 8.292969 C 14.273438 9.023438 13.929688 9.519531 13.183594 9.519531 C 12.441406 9.519531 11.996094 9.046875 11.996094 8.292969 Z M 11.996094 8.292969 "/>
<path fill-rule="nonzero" fill="rgb(50.195312%, 50.195312%, 50.195312%)" fill-opacity="1" d="M 15.722656 9.121094 L 16.476562 9.121094 L 16.476562 9.925781 L 15.722656 9.925781 Z M 15.722656 9.121094 "/>
<path fill-rule="nonzero" fill="rgb(50.195312%, 50.195312%, 50.195312%)" fill-opacity="1" d="M 20.953125 7.214844 C 20.941406 6.050781 20.683594 4.367188 19.207031 4.367188 C 17.734375 4.367188 17.488281 6.074219 17.488281 7.214844 C 17.488281 8.367188 17.746094 10.039062 19.207031 10.039062 C 20.667969 10.039062 20.953125 8.367188 20.953125 7.214844 Z M 20.386719 7.214844 C 20.386719 7.96875 20.324219 9.519531 19.207031 9.519531 C 18.09375 9.519531 18.054688 7.945312 18.054688 7.214844 C 18.054688 6.472656 18.082031 4.875 19.207031 4.875 C 20.324219 4.875 20.386719 6.484375 20.386719 7.214844 Z M 20.386719 7.214844 "/>
<path fill="none" stroke-width="0.850394" stroke-linecap="butt" stroke-linejoin="miter" stroke="rgb(50.195312%, 50.195312%, 50.195312%)" stroke-opacity="1" stroke-miterlimit="4" d="M 24.328125 23.367188 C 23.699219 23.367188 23.070312 23.367188 22.445312 23.367188 "/>
<path fill="none" stroke-width="0.850394" stroke-linecap="butt" stroke-linejoin="miter" stroke="rgb(50.195312%, 50.195312%, 50.195312%)" stroke-opacity="1" stroke-miterlimit="4" d="M 24.328125 39.300781 C 23.699219 39.300781 23.070312 39.300781 22.445312 39.300781 "/>
<path fill="none" stroke-width="0.850394" stroke-linecap="butt" stroke-linejoin="miter" stroke="rgb(50.195312%, 50.195312%, 50.195312%)" stroke-opacity="1" stroke-miterlimit="4" d="M 24.328125 55.230469 C 23.699219 55.230469 23.070312 55.230469 22.445312 55.230469 "/>
<path fill="none" stroke-width="0.850394" stroke-linecap="butt" stroke-linejoin="miter" stroke="rgb(50.195312%, 50.195312%, 50.195312%)" stroke-opacity="1" stroke-miterlimit="4" d="M 24.328125 71.164062 C 23.699219 71.164062 23.070312 71.164062 22.445312 71.164062 "/>
<path fill="none" stroke-width="0.850394" stroke-linecap="butt" stroke-linejoin="miter" stroke="rgb(50.195312%, 50.195312%, 50.195312%)" stroke-opacity="1" stroke-miterlimit="4" d="M 24.328125 87.09375 C 23.699219 87.09375 23.070312 87.09375 22.445312 87.09375 "/>
<path fill="none" stroke-width="0.850394" stroke-linecap="butt" stroke-linejoin="miter" stroke="rgb(50.195312%, 50.195312%, 50.195312%)" stroke-opacity="1" stroke-miterlimit="4" d="M 24.328125 103.023438 C 23.699219 103.023438 23.070312 103.023438 22.445312 103.023438 "/>
<path fill="none" stroke-width="0.89932" stroke-linecap="butt" stroke-linejoin="round" stroke="rgb(1.176453%, 0%, 0%)" stroke-opacity="1" stroke-miterlimit="4" d="M 27.269203 7.4375 L 145.524579 7.4375 L 145.524579 103.023438 L 27.269203 103.023438 Z M 27.269203 7.4375 " transform="matrix(0.894152, 0, 0, 1, 0, 0)"/>
<path fill-rule="nonzero" fill="rgb(0%, 0%, 0%)" fill-opacity="1" d="M 11.5 68.285156 C 9.835938 68.214844 9.558594 67.273438 9.558594 66.886719 C 9.558594 65.75 11.0625 65.628906 11.5 65.628906 Z M 11.746094 68.285156 L 11.746094 65.171875 C 11.746094 64.925781 11.746094 64.890625 11.5 64.890625 C 10.398438 64.890625 9.3125 65.503906 9.3125 66.886719 C 9.3125 68.179688 10.46875 69.214844 11.867188 69.214844 C 13.355469 69.214844 14.4375 68.042969 14.4375 66.765625 C 14.4375 65.398438 13.195312 64.890625 12.984375 64.890625 C 12.882812 64.890625 12.847656 64.980469 12.847656 65.050781 C 12.847656 65.136719 12.917969 65.171875 13.003906 65.191406 C 14.160156 65.574219 14.160156 66.589844 14.160156 66.695312 C 14.160156 67.253906 13.824219 67.691406 13.40625 67.953125 C 12.882812 68.285156 12.148438 68.285156 11.746094 68.285156 Z M 11.746094 68.285156 "/>
<path fill-rule="nonzero" fill="rgb(0%, 0%, 0%)" fill-opacity="1" d="M 11.691406 61.371094 C 11.273438 61.039062 10.730469 60.617188 10.433594 60.339844 C 10.03125 59.988281 9.855469 59.535156 9.855469 59.007812 L 9.503906 59.007812 C 9.523438 59.304688 9.539062 59.636719 9.539062 59.9375 C 9.539062 60.269531 9.523438 60.863281 9.503906 61.003906 L 9.855469 61.003906 C 9.871094 60.757812 10.011719 60.671875 10.203125 60.671875 C 10.378906 60.671875 10.519531 60.792969 10.589844 60.84375 L 11.464844 61.527344 L 10.328125 62.402344 C 10.222656 62.507812 10.203125 62.507812 10.136719 62.507812 C 9.960938 62.507812 9.855469 62.332031 9.855469 62.121094 L 9.503906 62.121094 C 9.523438 62.402344 9.539062 63.136719 9.539062 63.328125 C 9.539062 63.558594 9.523438 64.082031 9.503906 64.378906 L 9.855469 64.378906 C 9.855469 63.59375 9.855469 63.59375 10.539062 63.066406 L 11.972656 61.964844 L 13.300781 63.015625 C 13.949219 63.539062 13.964844 64.203125 13.964844 64.429688 L 14.316406 64.429688 C 14.296875 64.152344 14.28125 63.800781 14.28125 63.503906 C 14.28125 63.191406 14.296875 62.71875 14.316406 62.453125 L 13.964844 62.453125 C 13.929688 62.699219 13.789062 62.769531 13.617188 62.769531 C 13.371094 62.769531 13.003906 62.453125 12.199219 61.773438 L 13.320312 60.914062 C 13.441406 60.828125 13.617188 60.6875 13.6875 60.6875 C 13.789062 60.6875 13.964844 60.792969 13.964844 61.089844 L 14.316406 61.089844 C 14.296875 60.757812 14.28125 60.128906 14.28125 59.882812 C 14.28125 59.585938 14.296875 59.148438 14.316406 58.816406 L 13.964844 58.816406 C 13.964844 59.410156 13.949219 59.621094 13.617188 59.867188 Z M 11.691406 61.371094 "/>
<path fill-rule="nonzero" fill="rgb(0%, 0%, 0%)" fill-opacity="1" d="M 10.117188 56.761719 L 9.382812 56.761719 L 9.503906 58.371094 L 9.855469 58.371094 C 9.855469 57.582031 9.925781 57.496094 10.414062 57.496094 L 15.628906 57.496094 C 16.136719 57.496094 16.136719 57.617188 16.136719 58.371094 L 16.484375 58.371094 C 16.46875 57.984375 16.449219 57.40625 16.449219 57.128906 C 16.449219 56.8125 16.46875 56.253906 16.484375 55.867188 L 16.136719 55.867188 C 16.136719 56.601562 16.136719 56.726562 15.628906 56.726562 L 13.652344 56.726562 C 13.84375 56.671875 14.4375 56.199219 14.4375 55.359375 C 14.4375 54.03125 13.335938 52.878906 11.902344 52.878906 C 10.484375 52.878906 9.382812 53.945312 9.382812 55.203125 C 9.382812 56.078125 9.871094 56.550781 10.117188 56.761719 Z M 13.039062 56.726562 L 10.554688 56.726562 C 9.976562 56.410156 9.664062 55.867188 9.664062 55.292969 C 9.664062 54.46875 10.640625 53.804688 11.902344 53.804688 C 13.25 53.804688 14.191406 54.574219 14.191406 55.394531 C 14.191406 55.851562 13.964844 56.269531 13.511719 56.566406 C 13.285156 56.726562 13.265625 56.726562 13.039062 56.726562 Z M 13.039062 56.726562 "/>
<path fill-rule="nonzero" fill="rgb(0%, 0%, 0%)" fill-opacity="1" d="M 17.113281 49.636719 L 16.660156 49.636719 L 16.660156 50.722656 L 6.390625 50.722656 L 6.390625 49.636719 L 5.9375 49.636719 L 5.9375 51.175781 L 17.113281 51.175781 Z M 17.113281 49.636719 "/>
<path fill-rule="nonzero" fill="rgb(0%, 0%, 0%)" fill-opacity="1" d="M 10.941406 45.664062 C 10.660156 45.59375 9.628906 45.332031 9.628906 44.5625 C 9.628906 44.507812 9.628906 44.230469 9.769531 44.003906 C 9.835938 44.316406 10.101562 44.527344 10.378906 44.527344 C 10.554688 44.527344 10.765625 44.40625 10.765625 44.105469 C 10.765625 43.863281 10.574219 43.511719 10.117188 43.511719 C 9.539062 43.511719 9.382812 44.160156 9.382812 44.542969 C 9.382812 45.191406 9.976562 45.578125 10.222656 45.714844 C 9.488281 45.996094 9.382812 46.589844 9.382812 46.921875 C 9.382812 48.078125 10.816406 48.726562 11.097656 48.726562 C 11.21875 48.726562 11.21875 48.601562 11.21875 48.585938 C 11.21875 48.496094 11.183594 48.460938 11.097656 48.445312 C 9.90625 48.058594 9.628906 47.324219 9.628906 46.941406 C 9.628906 46.730469 9.734375 46.347656 10.378906 46.347656 C 10.730469 46.347656 11.464844 46.539062 13.039062 46.941406 C 13.722656 47.117188 14.191406 47.519531 14.191406 48.007812 C 14.191406 48.078125 14.191406 48.324219 14.054688 48.566406 C 13.984375 48.289062 13.757812 48.042969 13.441406 48.042969 C 13.144531 48.042969 13.054688 48.289062 13.054688 48.445312 C 13.054688 48.796875 13.335938 49.058594 13.703125 49.058594 C 14.210938 49.058594 14.4375 48.515625 14.4375 48.023438 C 14.4375 47.273438 13.652344 46.871094 13.597656 46.851562 C 14 46.714844 14.4375 46.3125 14.4375 45.644531 C 14.4375 44.492188 13.003906 43.863281 12.722656 43.863281 C 12.601562 43.863281 12.601562 43.949219 12.601562 43.984375 C 12.601562 44.089844 12.652344 44.105469 12.722656 44.140625 C 13.929688 44.507812 14.191406 45.261719 14.191406 45.613281 C 14.191406 46.046875 13.84375 46.222656 13.457031 46.222656 C 13.214844 46.222656 12.96875 46.171875 12.480469 46.046875 Z M 10.941406 45.664062 "/>
<path fill-rule="nonzero" fill="rgb(0%, 0%, 0%)" fill-opacity="1" d="M 5.9375 41.25 L 5.9375 42.769531 L 6.390625 42.769531 L 6.390625 41.6875 L 16.660156 41.6875 L 16.660156 42.769531 L 17.113281 42.769531 L 17.113281 41.25 Z M 5.9375 41.25 "/>
<g clip-path="url(#clip-3)">
<path fill-rule="nonzero" fill="rgb(0%, 0%, 0%)" fill-opacity="1" d="M 77.871094 111.507812 C 77.941406 111.226562 78.207031 110.195312 78.976562 110.195312 C 79.027344 110.195312 79.308594 110.195312 79.535156 110.335938 C 79.21875 110.40625 79.011719 110.667969 79.011719 110.945312 C 79.011719 111.121094 79.132812 111.332031 79.429688 111.332031 C 79.675781 111.332031 80.023438 111.140625 80.023438 110.683594 C 80.023438 110.105469 79.378906 109.949219 78.992188 109.949219 C 78.34375 109.949219 77.960938 110.542969 77.820312 110.789062 C 77.539062 110.054688 76.945312 109.949219 76.613281 109.949219 C 75.457031 109.949219 74.8125 111.382812 74.8125 111.664062 C 74.8125 111.785156 74.933594 111.785156 74.953125 111.785156 C 75.039062 111.785156 75.074219 111.75 75.089844 111.664062 C 75.476562 110.472656 76.210938 110.195312 76.597656 110.195312 C 76.804688 110.195312 77.191406 110.300781 77.191406 110.945312 C 77.191406 111.296875 77 112.03125 76.597656 113.605469 C 76.421875 114.289062 76.019531 114.761719 75.527344 114.761719 C 75.457031 114.761719 75.214844 114.761719 74.96875 114.621094 C 75.25 114.550781 75.492188 114.324219 75.492188 114.007812 C 75.492188 113.710938 75.25 113.621094 75.089844 113.621094 C 74.742188 113.621094 74.480469 113.902344 74.480469 114.269531 C 74.480469 114.777344 75.023438 115.003906 75.511719 115.003906 C 76.261719 115.003906 76.664062 114.21875 76.683594 114.164062 C 76.824219 114.566406 77.226562 115.003906 77.890625 115.003906 C 79.046875 115.003906 79.675781 113.570312 79.675781 113.289062 C 79.675781 113.167969 79.585938 113.167969 79.550781 113.167969 C 79.449219 113.167969 79.429688 113.21875 79.394531 113.289062 C 79.027344 114.496094 78.273438 114.761719 77.925781 114.761719 C 77.488281 114.761719 77.3125 114.410156 77.3125 114.023438 C 77.3125 113.78125 77.367188 113.535156 77.488281 113.046875 Z M 77.871094 111.507812 "/>
</g>
<path fill="none" stroke-width="0.850394" stroke-linecap="butt" stroke-linejoin="miter" stroke="rgb(50.195312%, 50.195312%, 50.195312%)" stroke-opacity="1" stroke-miterlimit="4" d="M 50.855469 103.40625 C 50.855469 104.035156 50.855469 104.664062 50.855469 105.292969 "/>
<path fill="none" stroke-width="0.850394" stroke-linecap="butt" stroke-linejoin="miter" stroke="rgb(50.195312%, 50.195312%, 50.195312%)" stroke-opacity="1" stroke-miterlimit="4" d="M 37.640625 104.691406 C 37.640625 104.265625 37.640625 103.835938 37.640625 103.40625 "/>
<path fill="none" stroke-width="0.850394" stroke-linecap="butt" stroke-linejoin="miter" stroke="rgb(50.195312%, 50.195312%, 50.195312%)" stroke-opacity="1" stroke-miterlimit="4" d="M 64.070312 104.691406 C 64.070312 104.265625 64.070312 103.835938 64.070312 103.40625 "/>
<path fill="none" stroke-width="0.850394" stroke-linecap="butt" stroke-linejoin="miter" stroke="rgb(50.195312%, 50.195312%, 50.195312%)" stroke-opacity="1" stroke-miterlimit="4" d="M 103.714844 103.40625 C 103.714844 104.035156 103.714844 104.664062 103.714844 105.292969 "/>
<path fill="none" stroke-width="0.850394" stroke-linecap="butt" stroke-linejoin="miter" stroke="rgb(50.195312%, 50.195312%, 50.195312%)" stroke-opacity="1" stroke-miterlimit="4" d="M 90.5 104.691406 C 90.5 104.265625 90.5 103.835938 90.5 103.40625 "/>
<path fill="none" stroke-width="0.850394" stroke-linecap="butt" stroke-linejoin="miter" stroke="rgb(50.195312%, 50.195312%, 50.195312%)" stroke-opacity="1" stroke-miterlimit="4" d="M 130.144531 103.40625 C 130.144531 104.035156 130.144531 104.664062 130.144531 105.292969 "/>
<path fill="none" stroke-width="0.850394" stroke-linecap="butt" stroke-linejoin="miter" stroke="rgb(50.195312%, 50.195312%, 50.195312%)" stroke-opacity="1" stroke-miterlimit="4" d="M 116.929688 104.691406 C 116.929688 104.265625 116.929688 103.835938 116.929688 103.40625 "/>
<path fill-rule="nonzero" fill="rgb(50.195312%, 50.195312%, 50.195312%)" fill-opacity="1" d="M 15.820312 110.050781 L 17.617188 110.050781 L 17.617188 110.570312 L 15.820312 110.570312 Z M 15.820312 110.050781 "/>
<path fill-rule="nonzero" fill="rgb(50.195312%, 50.195312%, 50.195312%)" fill-opacity="1" d="M 21.644531 112.09375 L 21.644531 111.523438 L 19.191406 111.523438 L 21.0625 109.417969 C 21.375 108.984375 21.609375 108.652344 21.609375 108.082031 C 21.609375 107.066406 20.867188 106.535156 19.925781 106.535156 C 19.390625 106.535156 18.945312 106.695312 18.5 106.878906 L 18.5 107.585938 C 18.945312 107.300781 19.390625 107.089844 19.9375 107.089844 C 20.554688 107.089844 21.039062 107.472656 21.039062 108.117188 C 21.039062 108.550781 20.691406 109.085938 20.40625 109.382812 C 20.320312 109.507812 18.597656 111.386719 18.460938 111.523438 L 18.460938 112.09375 Z M 21.644531 112.09375 "/>
<path fill-rule="nonzero" fill="rgb(50.195312%, 50.195312%, 50.195312%)" fill-opacity="1" d="M 22.554688 111.289062 L 23.3125 111.289062 L 23.3125 112.09375 L 22.554688 112.09375 Z M 22.554688 111.289062 "/>
<path fill-rule="nonzero" fill="rgb(50.195312%, 50.195312%, 50.195312%)" fill-opacity="1" d="M 27.789062 109.382812 C 27.777344 108.21875 27.519531 106.535156 26.042969 106.535156 C 24.570312 106.535156 24.320312 108.242188 24.320312 109.382812 C 24.320312 110.535156 24.582031 112.207031 26.042969 112.207031 C 27.503906 112.207031 27.789062 110.535156 27.789062 109.382812 Z M 27.21875 109.382812 C 27.21875 110.136719 27.160156 111.6875 26.042969 111.6875 C 24.929688 111.6875 24.890625 110.113281 24.890625 109.382812 C 24.890625 108.640625 24.917969 107.042969 26.042969 107.042969 C 27.160156 107.042969 27.21875 108.652344 27.21875 109.382812 Z M 27.21875 109.382812 "/>
<path fill-rule="nonzero" fill="rgb(50.195312%, 50.195312%, 50.195312%)" fill-opacity="1" d="M 128.304688 112.09375 L 128.304688 111.523438 L 125.851562 111.523438 L 127.722656 109.417969 C 128.035156 108.984375 128.269531 108.652344 128.269531 108.082031 C 128.269531 107.066406 127.527344 106.535156 126.585938 106.535156 C 126.050781 106.535156 125.605469 106.695312 125.160156 106.878906 L 125.160156 107.585938 C 125.605469 107.300781 126.050781 107.089844 126.597656 107.089844 C 127.214844 107.089844 127.699219 107.472656 127.699219 108.117188 C 127.699219 108.550781 127.351562 109.085938 127.066406 109.382812 C 126.980469 109.507812 125.257812 111.386719 125.121094 111.523438 L 125.121094 112.09375 Z M 128.304688 112.09375 "/>
<path fill-rule="nonzero" fill="rgb(50.195312%, 50.195312%, 50.195312%)" fill-opacity="1" d="M 129.214844 111.289062 L 129.972656 111.289062 L 129.972656 112.09375 L 129.214844 112.09375 Z M 129.214844 111.289062 "/>
<path fill-rule="nonzero" fill="rgb(50.195312%, 50.195312%, 50.195312%)" fill-opacity="1" d="M 134.449219 109.382812 C 134.4375 108.21875 134.179688 106.535156 132.703125 106.535156 C 131.230469 106.535156 130.980469 108.242188 130.980469 109.382812 C 130.980469 110.535156 131.242188 112.207031 132.703125 112.207031 C 134.164062 112.207031 134.449219 110.535156 134.449219 109.382812 Z M 133.878906 109.382812 C 133.878906 110.136719 133.820312 111.6875 132.703125 111.6875 C 131.589844 111.6875 131.550781 110.113281 131.550781 109.382812 C 131.550781 108.640625 131.578125 107.042969 132.703125 107.042969 C 133.820312 107.042969 133.878906 108.652344 133.878906 109.382812 Z M 133.878906 109.382812 "/>
<path fill-rule="nonzero" fill="rgb(0%, 0%, 0%)" fill-opacity="1" d="M 138.902344 0.710938 L 137.953125 0.710938 L 137.953125 9.480469 L 138.945312 9.480469 L 138.945312 8.90625 C 139.242188 9.183594 139.792969 9.621094 140.644531 9.621094 C 141.890625 9.621094 142.980469 8.351562 142.980469 6.671875 C 142.980469 5.105469 142.128906 3.742188 140.941406 3.742188 C 140.449219 3.742188 139.65625 3.859375 138.902344 4.472656 Z M 138.945312 5.246094 C 139.140625 4.949219 139.597656 4.511719 140.289062 4.511719 C 141.042969 4.511719 141.992188 5.046875 141.992188 6.671875 C 141.992188 8.3125 140.941406 8.847656 140.171875 8.847656 C 139.675781 8.847656 139.261719 8.628906 138.945312 8.035156 Z M 138.945312 5.246094 "/>
<path fill-rule="nonzero" fill="rgb(0%, 0%, 0%)" fill-opacity="1" d="M 144.929688 12.648438 C 145.324219 12.25 146.175781 11.480469 146.75 9.9375 C 147.265625 8.589844 147.34375 7.242188 147.34375 6.3125 C 147.34375 2.238281 145.523438 0.574219 144.929688 0 L 144.160156 0 C 144.753906 0.613281 146.355469 2.238281 146.355469 6.3125 C 146.355469 7.027344 146.316406 8.511719 145.800781 9.996094 C 145.285156 11.460938 144.574219 12.210938 144.160156 12.648438 Z M 144.929688 12.648438 "/>
<path fill="none" stroke-width="0.850394" stroke-linecap="butt" stroke-linejoin="miter" stroke="rgb(50.195312%, 50.195312%, 50.195312%)" stroke-opacity="1" stroke-miterlimit="4" d="M 163.082031 7.4375 C 162.457031 7.4375 161.828125 7.4375 161.199219 7.4375 "/>
<path fill="none" stroke-width="0.850394" stroke-linecap="butt" stroke-linejoin="miter" stroke="rgb(50.195312%, 50.195312%, 50.195312%)" stroke-opacity="1" stroke-miterlimit="4" d="M 163.183594 103.40625 C 163.183594 104.035156 163.183594 104.664062 163.183594 105.292969 "/>
<path fill="none" stroke-width="0.850394" stroke-linecap="butt" stroke-linejoin="miter" stroke="rgb(50.195312%, 50.195312%, 50.195312%)" stroke-opacity="1" stroke-miterlimit="4" d="M 163.082031 23.367188 C 162.457031 23.367188 161.828125 23.367188 161.199219 23.367188 "/>
<path fill="none" stroke-width="0.850394" stroke-linecap="butt" stroke-linejoin="miter" stroke="rgb(50.195312%, 50.195312%, 50.195312%)" stroke-opacity="1" stroke-miterlimit="4" d="M 163.082031 39.300781 C 162.457031 39.300781 161.828125 39.300781 161.199219 39.300781 "/>
<path fill="none" stroke-width="0.850394" stroke-linecap="butt" stroke-linejoin="miter" stroke="rgb(50.195312%, 50.195312%, 50.195312%)" stroke-opacity="1" stroke-miterlimit="4" d="M 163.082031 55.230469 C 162.457031 55.230469 161.828125 55.230469 161.199219 55.230469 "/>
<path fill="none" stroke-width="0.850394" stroke-linecap="butt" stroke-linejoin="miter" stroke="rgb(50.195312%, 50.195312%, 50.195312%)" stroke-opacity="1" stroke-miterlimit="4" d="M 163.082031 71.164062 C 162.457031 71.164062 161.828125 71.164062 161.199219 71.164062 "/>
<path fill="none" stroke-width="0.850394" stroke-linecap="butt" stroke-linejoin="miter" stroke="rgb(50.195312%, 50.195312%, 50.195312%)" stroke-opacity="1" stroke-miterlimit="4" d="M 163.082031 87.09375 C 162.457031 87.09375 161.828125 87.09375 161.199219 87.09375 "/>
<path fill="none" stroke-width="0.850394" stroke-linecap="butt" stroke-linejoin="miter" stroke="rgb(50.195312%, 50.195312%, 50.195312%)" stroke-opacity="1" stroke-miterlimit="4" d="M 163.082031 103.023438 C 162.457031 103.023438 161.828125 103.023438 161.199219 103.023438 "/>
<path fill="none" stroke-width="0.89932" stroke-linecap="butt" stroke-linejoin="round" stroke="rgb(1.176453%, 0%, 0%)" stroke-opacity="1" stroke-miterlimit="4" d="M 182.247572 7.4375 L 300.507317 7.4375 L 300.507317 103.023438 L 182.247572 103.023438 Z M 182.247572 7.4375 " transform="matrix(0.894152, 0, 0, 1, 0, 0)"/>
<g clip-path="url(#clip-4)">
<path fill-rule="nonzero" fill="rgb(0%, 0%, 0%)" fill-opacity="1" d="M 216.746094 111.507812 C 216.816406 111.226562 217.078125 110.195312 217.847656 110.195312 C 217.898438 110.195312 218.179688 110.195312 218.40625 110.335938 C 218.09375 110.40625 217.882812 110.667969 217.882812 110.945312 C 217.882812 111.121094 218.003906 111.332031 218.300781 111.332031 C 218.546875 111.332031 218.898438 111.140625 218.898438 110.683594 C 218.898438 110.105469 218.25 109.949219 217.863281 109.949219 C 217.21875 109.949219 216.832031 110.542969 216.691406 110.789062 C 216.414062 110.054688 215.816406 109.949219 215.484375 109.949219 C 214.332031 109.949219 213.683594 111.382812 213.683594 111.664062 C 213.683594 111.785156 213.804688 111.785156 213.824219 111.785156 C 213.910156 111.785156 213.945312 111.75 213.964844 111.664062 C 214.347656 110.472656 215.082031 110.195312 215.46875 110.195312 C 215.679688 110.195312 216.0625 110.300781 216.0625 110.945312 C 216.0625 111.296875 215.871094 112.03125 215.46875 113.605469 C 215.292969 114.289062 214.890625 114.761719 214.402344 114.761719 C 214.332031 114.761719 214.085938 114.761719 213.839844 114.621094 C 214.121094 114.550781 214.367188 114.324219 214.367188 114.007812 C 214.367188 113.710938 214.121094 113.621094 213.964844 113.621094 C 213.613281 113.621094 213.351562 113.902344 213.351562 114.269531 C 213.351562 114.777344 213.894531 115.003906 214.382812 115.003906 C 215.136719 115.003906 215.539062 114.21875 215.554688 114.164062 C 215.695312 114.566406 216.097656 115.003906 216.761719 115.003906 C 217.917969 115.003906 218.546875 113.570312 218.546875 113.289062 C 218.546875 113.167969 218.460938 113.167969 218.425781 113.167969 C 218.320312 113.167969 218.300781 113.21875 218.265625 113.289062 C 217.898438 114.496094 217.148438 114.761719 216.796875 114.761719 C 216.359375 114.761719 216.1875 114.410156 216.1875 114.023438 C 216.1875 113.78125 216.238281 113.535156 216.359375 113.046875 Z M 216.746094 111.507812 "/>
</g>
<path fill="none" stroke-width="0.850394" stroke-linecap="butt" stroke-linejoin="miter" stroke="rgb(50.195312%, 50.195312%, 50.195312%)" stroke-opacity="1" stroke-miterlimit="4" d="M 189.589844 103.40625 C 189.589844 104.035156 189.589844 104.664062 189.589844 105.292969 "/>
<path fill="none" stroke-width="0.850394" stroke-linecap="butt" stroke-linejoin="miter" stroke="rgb(50.195312%, 50.195312%, 50.195312%)" stroke-opacity="1" stroke-miterlimit="4" d="M 176.386719 104.691406 C 176.386719 104.265625 176.386719 103.835938 176.386719 103.40625 "/>
<path fill="none" stroke-width="0.850394" stroke-linecap="butt" stroke-linejoin="miter" stroke="rgb(50.195312%, 50.195312%, 50.195312%)" stroke-opacity="1" stroke-miterlimit="4" d="M 215.996094 103.40625 C 215.996094 104.035156 215.996094 104.664062 215.996094 105.292969 "/>
<path fill="none" stroke-width="0.850394" stroke-linecap="butt" stroke-linejoin="miter" stroke="rgb(50.195312%, 50.195312%, 50.195312%)" stroke-opacity="1" stroke-miterlimit="4" d="M 202.792969 104.691406 C 202.792969 104.265625 202.792969 103.835938 202.792969 103.40625 "/>
<path fill="none" stroke-width="0.850394" stroke-linecap="butt" stroke-linejoin="miter" stroke="rgb(50.195312%, 50.195312%, 50.195312%)" stroke-opacity="1" stroke-miterlimit="4" d="M 242.398438 103.40625 C 242.398438 104.035156 242.398438 104.664062 242.398438 105.292969 "/>
<path fill="none" stroke-width="0.850394" stroke-linecap="butt" stroke-linejoin="miter" stroke="rgb(50.195312%, 50.195312%, 50.195312%)" stroke-opacity="1" stroke-miterlimit="4" d="M 229.195312 104.691406 C 229.195312 104.265625 229.195312 103.835938 229.195312 103.40625 "/>
<path fill="none" stroke-width="0.850394" stroke-linecap="butt" stroke-linejoin="miter" stroke="rgb(50.195312%, 50.195312%, 50.195312%)" stroke-opacity="1" stroke-miterlimit="4" d="M 268.804688 103.40625 C 268.804688 104.035156 268.804688 104.664062 268.804688 105.292969 "/>
<path fill="none" stroke-width="0.850394" stroke-linecap="butt" stroke-linejoin="miter" stroke="rgb(50.195312%, 50.195312%, 50.195312%)" stroke-opacity="1" stroke-miterlimit="4" d="M 255.601562 104.691406 C 255.601562 104.265625 255.601562 103.835938 255.601562 103.40625 "/>
<path fill-rule="nonzero" fill="rgb(50.195312%, 50.195312%, 50.195312%)" fill-opacity="1" d="M 153.464844 8.339844 C 153.464844 7.734375 153.09375 7.175781 152.398438 6.980469 C 152.992188 6.753906 153.339844 6.324219 153.339844 5.753906 C 153.339844 4.796875 152.546875 4.367188 151.679688 4.367188 C 151.246094 4.367188 150.714844 4.464844 150.332031 4.589844 L 150.332031 5.195312 C 150.75 5.046875 151.109375 4.921875 151.617188 4.921875 C 152.261719 4.921875 152.78125 5.15625 152.78125 5.851562 C 152.769531 6.484375 152.261719 6.742188 151.644531 6.742188 L 151.0625 6.742188 L 151.0625 7.277344 L 151.617188 7.277344 C 152.335938 7.277344 152.90625 7.585938 152.90625 8.339844 C 152.90625 9.234375 152.289062 9.480469 151.480469 9.480469 C 150.914062 9.480469 150.566406 9.382812 150.167969 9.109375 L 150.167969 9.777344 C 150.566406 9.914062 151.023438 10.039062 151.496094 10.039062 C 152.597656 10.039062 153.464844 9.542969 153.464844 8.339844 Z M 153.464844 8.339844 "/>
<path fill-rule="nonzero" fill="rgb(50.195312%, 50.195312%, 50.195312%)" fill-opacity="1" d="M 154.4375 9.121094 L 155.195312 9.121094 L 155.195312 9.925781 L 154.4375 9.925781 Z M 154.4375 9.121094 "/>
<path fill-rule="nonzero" fill="rgb(50.195312%, 50.195312%, 50.195312%)" fill-opacity="1" d="M 159.671875 7.214844 C 159.660156 6.050781 159.402344 4.367188 157.925781 4.367188 C 156.453125 4.367188 156.203125 6.074219 156.203125 7.214844 C 156.203125 8.367188 156.464844 10.039062 157.925781 10.039062 C 159.386719 10.039062 159.671875 8.367188 159.671875 7.214844 Z M 159.101562 7.214844 C 159.101562 7.96875 159.042969 9.519531 157.925781 9.519531 C 156.8125 9.519531 156.773438 7.945312 156.773438 7.214844 C 156.773438 6.472656 156.800781 4.875 157.925781 4.875 C 159.042969 4.875 159.101562 6.484375 159.101562 7.214844 Z M 159.101562 7.214844 "/>
<path fill-rule="nonzero" fill="rgb(50.195312%, 50.195312%, 50.195312%)" fill-opacity="1" d="M 147.578125 103.5 L 149.371094 103.5 L 149.371094 104.019531 L 147.578125 104.019531 Z M 147.578125 103.5 "/>
<path fill-rule="nonzero" fill="rgb(50.195312%, 50.195312%, 50.195312%)" fill-opacity="1" d="M 153.464844 103.960938 C 153.464844 103.351562 153.09375 102.792969 152.398438 102.597656 C 152.992188 102.375 153.339844 101.941406 153.339844 101.371094 C 153.339844 100.417969 152.546875 99.984375 151.679688 99.984375 C 151.246094 99.984375 150.714844 100.082031 150.332031 100.207031 L 150.332031 100.8125 C 150.75 100.664062 151.109375 100.539062 151.617188 100.539062 C 152.261719 100.539062 152.78125 100.777344 152.78125 101.46875 C 152.769531 102.101562 152.261719 102.363281 151.644531 102.363281 L 151.0625 102.363281 L 151.0625 102.894531 L 151.617188 102.894531 C 152.335938 102.894531 152.90625 103.203125 152.90625 103.960938 C 152.90625 104.851562 152.289062 105.097656 151.480469 105.097656 C 150.914062 105.097656 150.566406 105 150.167969 104.726562 L 150.167969 105.394531 C 150.566406 105.53125 151.023438 105.65625 151.496094 105.65625 C 152.597656 105.65625 153.464844 105.160156 153.464844 103.960938 Z M 153.464844 103.960938 "/>
<path fill-rule="nonzero" fill="rgb(50.195312%, 50.195312%, 50.195312%)" fill-opacity="1" d="M 154.4375 104.738281 L 155.195312 104.738281 L 155.195312 105.542969 L 154.4375 105.542969 Z M 154.4375 104.738281 "/>
<path fill-rule="nonzero" fill="rgb(50.195312%, 50.195312%, 50.195312%)" fill-opacity="1" d="M 159.671875 102.832031 C 159.660156 101.667969 159.402344 99.984375 157.925781 99.984375 C 156.453125 99.984375 156.203125 101.691406 156.203125 102.832031 C 156.203125 103.984375 156.464844 105.65625 157.925781 105.65625 C 159.386719 105.65625 159.671875 103.984375 159.671875 102.832031 Z M 159.101562 102.832031 C 159.101562 103.585938 159.042969 105.136719 157.925781 105.136719 C 156.8125 105.136719 156.773438 103.5625 156.773438 102.832031 C 156.773438 102.089844 156.800781 100.492188 157.925781 100.492188 C 159.042969 100.492188 159.101562 102.101562 159.101562 102.832031 Z M 159.101562 102.832031 "/>
<path fill-rule="nonzero" fill="rgb(50.195312%, 50.195312%, 50.195312%)" fill-opacity="1" d="M 161.136719 109.382812 C 161.125 108.21875 160.863281 106.535156 159.390625 106.535156 C 157.917969 106.535156 157.667969 108.242188 157.667969 109.382812 C 157.667969 110.535156 157.929688 112.207031 159.390625 112.207031 C 160.851562 112.207031 161.136719 110.535156 161.136719 109.382812 Z M 160.566406 109.382812 C 160.566406 110.136719 160.503906 111.6875 159.390625 111.6875 C 158.273438 111.6875 158.238281 110.113281 158.238281 109.382812 C 158.238281 108.640625 158.261719 107.042969 159.390625 107.042969 C 160.503906 107.042969 160.566406 108.652344 160.566406 109.382812 Z M 160.566406 109.382812 "/>
<path fill-rule="nonzero" fill="rgb(50.195312%, 50.195312%, 50.195312%)" fill-opacity="1" d="M 162.148438 111.289062 L 162.90625 111.289062 L 162.90625 112.09375 L 162.148438 112.09375 Z M 162.148438 111.289062 "/>
<path fill-rule="nonzero" fill="rgb(50.195312%, 50.195312%, 50.195312%)" fill-opacity="1" d="M 167.382812 109.382812 C 167.371094 108.21875 167.109375 106.535156 165.636719 106.535156 C 164.164062 106.535156 163.914062 108.242188 163.914062 109.382812 C 163.914062 110.535156 164.175781 112.207031 165.636719 112.207031 C 167.097656 112.207031 167.382812 110.535156 167.382812 109.382812 Z M 166.8125 109.382812 C 166.8125 110.136719 166.75 111.6875 165.636719 111.6875 C 164.523438 111.6875 164.484375 110.113281 164.484375 109.382812 C 164.484375 108.640625 164.511719 107.042969 165.636719 107.042969 C 166.75 107.042969 166.8125 108.652344 166.8125 109.382812 Z M 166.8125 109.382812 "/>
<path fill-rule="nonzero" fill="rgb(50.195312%, 50.195312%, 50.195312%)" fill-opacity="1" d="M 267.480469 110.792969 L 267.480469 110.222656 L 266.738281 110.222656 L 266.738281 106.632812 L 265.945312 106.632812 L 263.824219 110.101562 L 263.824219 110.792969 L 266.140625 110.792969 L 266.140625 112.09375 L 266.738281 112.09375 L 266.738281 110.792969 Z M 266.140625 110.222656 L 264.273438 110.222656 L 266.140625 107.214844 Z M 266.140625 110.222656 "/>
<path fill-rule="nonzero" fill="rgb(50.195312%, 50.195312%, 50.195312%)" fill-opacity="1" d="M 268.210938 111.289062 L 268.96875 111.289062 L 268.96875 112.09375 L 268.210938 112.09375 Z M 268.210938 111.289062 "/>
<path fill-rule="nonzero" fill="rgb(50.195312%, 50.195312%, 50.195312%)" fill-opacity="1" d="M 273.445312 109.382812 C 273.433594 108.21875 273.171875 106.535156 271.699219 106.535156 C 270.226562 106.535156 269.976562 108.242188 269.976562 109.382812 C 269.976562 110.535156 270.238281 112.207031 271.699219 112.207031 C 273.160156 112.207031 273.445312 110.535156 273.445312 109.382812 Z M 272.875 109.382812 C 272.875 110.136719 272.8125 111.6875 271.699219 111.6875 C 270.585938 111.6875 270.546875 110.113281 270.546875 109.382812 C 270.546875 108.640625 270.574219 107.042969 271.699219 107.042969 C 272.8125 107.042969 272.875 108.652344 272.875 109.382812 Z M 272.875 109.382812 "/>
<path fill-rule="nonzero" fill="rgb(0%, 0%, 0%)" fill-opacity="1" d="M 149.066406 66.261719 L 149.1875 67.871094 L 149.539062 67.871094 C 149.539062 67.082031 149.605469 66.996094 150.167969 66.996094 L 155.976562 66.996094 C 156.464844 66.996094 156.464844 67.117188 156.464844 67.871094 L 156.8125 67.871094 C 156.796875 67.503906 156.78125 66.910156 156.78125 66.628906 C 156.78125 66.347656 156.796875 65.804688 156.8125 65.386719 L 156.464844 65.386719 C 156.464844 66.140625 156.464844 66.261719 155.976562 66.261719 Z M 149.066406 66.261719 "/>
<path fill-rule="nonzero" fill="rgb(0%, 0%, 0%)" fill-opacity="1" d="M 154.417969 59.890625 C 153 59.890625 151.8125 60.992188 151.8125 62.339844 C 151.8125 63.738281 153.035156 64.824219 154.417969 64.824219 C 155.871094 64.824219 156.9375 63.671875 156.9375 62.359375 C 156.9375 61.011719 155.835938 59.890625 154.417969 59.890625 Z M 156.65625 62.339844 C 156.65625 62.832031 156.429688 63.320312 155.90625 63.617188 C 155.414062 63.898438 154.734375 63.898438 154.332031 63.898438 C 153.894531 63.898438 153.296875 63.898438 152.808594 63.636719 C 152.300781 63.335938 152.054688 62.8125 152.054688 62.359375 C 152.054688 61.867188 152.300781 61.394531 152.792969 61.097656 C 153.261719 60.800781 153.910156 60.800781 154.332031 60.800781 C 154.734375 60.800781 155.34375 60.800781 155.835938 61.046875 C 156.34375 61.308594 156.65625 61.796875 156.65625 62.339844 Z M 156.65625 62.339844 "/>
<path fill-rule="nonzero" fill="rgb(0%, 0%, 0%)" fill-opacity="1" d="M 154.890625 57.078125 C 154.890625 58.058594 153.769531 58.058594 153.527344 58.058594 C 153.226562 58.058594 152.859375 58.039062 152.582031 57.882812 C 152.457031 57.796875 152.144531 57.535156 152.144531 57.078125 C 152.144531 56.117188 153.246094 56.117188 153.507812 56.117188 C 153.804688 56.117188 154.171875 56.117188 154.453125 56.292969 C 154.574219 56.378906 154.890625 56.640625 154.890625 57.078125 Z M 155.328125 58.375 C 155.292969 58.375 155.03125 58.375 154.804688 58.199219 C 155.117188 57.761719 155.152344 57.289062 155.152344 57.078125 C 155.152344 56.046875 154.382812 55.277344 153.527344 55.277344 C 153.105469 55.277344 152.703125 55.453125 152.441406 55.730469 C 152.054688 55.328125 152.003906 54.925781 152.003906 54.734375 C 152.003906 54.699219 152.003906 54.648438 152.019531 54.613281 C 152.054688 54.734375 152.179688 54.804688 152.320312 54.804688 C 152.511719 54.804688 152.632812 54.648438 152.632812 54.472656 C 152.632812 54.367188 152.5625 54.15625 152.300781 54.15625 C 152.109375 54.15625 151.757812 54.28125 151.757812 54.71875 C 151.757812 54.945312 151.828125 55.433594 152.285156 55.90625 C 151.917969 56.378906 151.882812 56.832031 151.882812 57.078125 C 151.882812 58.128906 152.652344 58.898438 153.507812 58.898438 C 154 58.898438 154.417969 58.652344 154.664062 58.375 C 154.820312 58.511719 155.1875 58.722656 155.589844 58.722656 C 155.941406 58.722656 156.359375 58.566406 156.585938 58.214844 C 156.761719 58.898438 157.25 59.246094 157.6875 59.246094 C 158.492188 59.246094 159.105469 58.144531 159.105469 56.78125 C 159.105469 55.46875 158.546875 54.316406 157.671875 54.316406 C 157.285156 54.316406 156.710938 54.453125 156.394531 55.03125 C 156.097656 55.625 156.097656 56.273438 156.097656 56.957031 C 156.097656 57.234375 156.097656 57.707031 156.078125 57.796875 C 156.027344 58.144531 155.695312 58.375 155.328125 58.375 Z M 158.859375 56.765625 C 158.859375 57.902344 158.285156 58.671875 157.6875 58.671875 C 157.183594 58.671875 156.761719 58.25 156.746094 57.761719 L 156.746094 57.097656 C 156.746094 56.132812 156.746094 54.890625 157.6875 54.890625 C 158.300781 54.890625 158.859375 55.679688 158.859375 56.765625 Z M 158.859375 56.765625 "/>
<path fill-rule="nonzero" fill="rgb(0%, 0%, 0%)" fill-opacity="1" d="M 159.613281 50.976562 L 159.160156 50.976562 L 159.160156 52.0625 L 148.890625 52.0625 L 148.890625 50.976562 L 148.433594 50.976562 L 148.433594 52.519531 L 159.613281 52.519531 Z M 159.613281 50.976562 "/>
<path fill-rule="nonzero" fill="rgb(0%, 0%, 0%)" fill-opacity="1" d="M 153.4375 47.007812 C 153.160156 46.9375 152.125 46.675781 152.125 45.90625 C 152.125 45.851562 152.125 45.570312 152.265625 45.34375 C 152.335938 45.660156 152.597656 45.871094 152.878906 45.871094 C 153.054688 45.871094 153.261719 45.746094 153.261719 45.449219 C 153.261719 45.203125 153.070312 44.855469 152.617188 44.855469 C 152.039062 44.855469 151.882812 45.503906 151.882812 45.886719 C 151.882812 46.535156 152.476562 46.917969 152.722656 47.058594 C 151.988281 47.339844 151.882812 47.933594 151.882812 48.265625 C 151.882812 49.421875 153.316406 50.066406 153.597656 50.066406 C 153.71875 50.066406 153.71875 49.945312 153.71875 49.929688 C 153.71875 49.839844 153.683594 49.804688 153.597656 49.789062 C 152.40625 49.402344 152.125 48.667969 152.125 48.285156 C 152.125 48.074219 152.230469 47.6875 152.878906 47.6875 C 153.226562 47.6875 153.964844 47.882812 155.539062 48.285156 C 156.21875 48.457031 156.691406 48.859375 156.691406 49.351562 C 156.691406 49.421875 156.691406 49.664062 156.550781 49.910156 C 156.480469 49.628906 156.253906 49.386719 155.941406 49.386719 C 155.640625 49.386719 155.554688 49.628906 155.554688 49.789062 C 155.554688 50.136719 155.835938 50.398438 156.203125 50.398438 C 156.710938 50.398438 156.9375 49.859375 156.9375 49.367188 C 156.9375 48.617188 156.148438 48.214844 156.097656 48.195312 C 156.5 48.054688 156.9375 47.652344 156.9375 46.988281 C 156.9375 45.835938 155.503906 45.203125 155.222656 45.203125 C 155.101562 45.203125 155.101562 45.292969 155.101562 45.328125 C 155.101562 45.433594 155.152344 45.449219 155.222656 45.484375 C 156.429688 45.851562 156.691406 46.605469 156.691406 46.953125 C 156.691406 47.390625 156.34375 47.566406 155.957031 47.566406 C 155.710938 47.566406 155.46875 47.515625 154.976562 47.390625 Z M 153.4375 47.007812 "/>
<path fill-rule="nonzero" fill="rgb(0%, 0%, 0%)" fill-opacity="1" d="M 148.433594 42.589844 L 148.433594 44.113281 L 148.890625 44.113281 L 148.890625 43.027344 L 159.160156 43.027344 L 159.160156 44.113281 L 159.613281 44.113281 L 159.613281 42.589844 Z M 148.433594 42.589844 "/>
<path fill-rule="nonzero" fill="rgb(0%, 0%, 0%)" fill-opacity="1" d="M 278.527344 4.195312 C 277.777344 3.78125 277.339844 3.660156 276.570312 3.660156 C 274.828125 3.660156 273.796875 5.1875 273.796875 6.671875 C 273.796875 8.234375 274.945312 9.621094 276.53125 9.621094 C 277.203125 9.621094 277.894531 9.441406 278.589844 8.964844 L 278.507812 8.132812 C 277.855469 8.628906 277.183594 8.808594 276.53125 8.808594 C 275.480469 8.808594 274.789062 7.898438 274.789062 6.671875 C 274.789062 5.679688 275.242188 4.472656 276.589844 4.472656 C 277.242188 4.472656 277.679688 4.570312 278.371094 5.027344 Z M 278.527344 4.195312 "/>
<path fill-rule="nonzero" fill="rgb(0%, 0%, 0%)" fill-opacity="1" d="M 280.4375 12.648438 C 280.832031 12.25 281.683594 11.480469 282.257812 9.9375 C 282.769531 8.589844 282.851562 7.242188 282.851562 6.3125 C 282.851562 2.238281 281.03125 0.574219 280.4375 0 L 279.664062 0 C 280.257812 0.613281 281.859375 2.238281 281.859375 6.3125 C 281.859375 7.027344 281.820312 8.511719 281.304688 9.996094 C 280.792969 11.460938 280.078125 12.210938 279.664062 12.648438 Z M 280.4375 12.648438 "/>
<path fill="none" stroke-width="0.850394" stroke-linecap="butt" stroke-linejoin="miter" stroke="rgb(50.195312%, 50.195312%, 50.195312%)" stroke-opacity="1" stroke-miterlimit="4" d="M 301.441406 7.4375 C 300.816406 7.4375 300.1875 7.4375 299.558594 7.4375 "/>
<path fill="none" stroke-width="0.850394" stroke-linecap="butt" stroke-linejoin="miter" stroke="rgb(50.195312%, 50.195312%, 50.195312%)" stroke-opacity="1" stroke-miterlimit="4" d="M 301.554688 103.40625 C 301.554688 104.035156 301.554688 104.664062 301.554688 105.292969 "/>
<path fill="none" stroke-width="0.850394" stroke-linecap="butt" stroke-linejoin="miter" stroke="rgb(50.195312%, 50.195312%, 50.195312%)" stroke-opacity="1" stroke-miterlimit="4" d="M 301.441406 26.554688 C 300.816406 26.554688 300.1875 26.554688 299.558594 26.554688 "/>
<path fill="none" stroke-width="0.850394" stroke-linecap="butt" stroke-linejoin="miter" stroke="rgb(50.195312%, 50.195312%, 50.195312%)" stroke-opacity="1" stroke-miterlimit="4" d="M 301.441406 45.671875 C 300.816406 45.671875 300.1875 45.671875 299.558594 45.671875 "/>
<path fill="none" stroke-width="0.850394" stroke-linecap="butt" stroke-linejoin="miter" stroke="rgb(50.195312%, 50.195312%, 50.195312%)" stroke-opacity="1" stroke-miterlimit="4" d="M 301.441406 64.789062 C 300.816406 64.789062 300.1875 64.789062 299.558594 64.789062 "/>
<path fill="none" stroke-width="0.850394" stroke-linecap="butt" stroke-linejoin="miter" stroke="rgb(50.195312%, 50.195312%, 50.195312%)" stroke-opacity="1" stroke-miterlimit="4" d="M 301.441406 83.90625 C 300.816406 83.90625 300.1875 83.90625 299.558594 83.90625 "/>
<path fill="none" stroke-width="0.850394" stroke-linecap="butt" stroke-linejoin="miter" stroke="rgb(50.195312%, 50.195312%, 50.195312%)" stroke-opacity="1" stroke-miterlimit="4" d="M 301.441406 103.023438 C 300.816406 103.023438 300.1875 103.023438 299.558594 103.023438 "/>
<path fill="none" stroke-width="0.89932" stroke-linecap="butt" stroke-linejoin="round" stroke="rgb(1.176453%, 0%, 0%)" stroke-opacity="1" stroke-miterlimit="4" d="M 337.23031 7.4375 L 455.485686 7.4375 L 455.485686 103.023438 L 337.23031 103.023438 Z M 337.23031 7.4375 " transform="matrix(0.894152, 0, 0, 1, 0, 0)"/>
<g clip-path="url(#clip-5)">
<path fill-rule="nonzero" fill="rgb(0%, 0%, 0%)" fill-opacity="1" d="M 355.023438 111.507812 C 355.09375 111.226562 355.355469 110.195312 356.125 110.195312 C 356.179688 110.195312 356.460938 110.195312 356.6875 110.335938 C 356.371094 110.40625 356.160156 110.667969 356.160156 110.945312 C 356.160156 111.121094 356.285156 111.332031 356.582031 111.332031 C 356.828125 111.332031 357.175781 111.140625 357.175781 110.683594 C 357.175781 110.105469 356.527344 109.949219 356.144531 109.949219 C 355.496094 109.949219 355.113281 110.542969 354.972656 110.789062 C 354.691406 110.054688 354.097656 109.949219 353.765625 109.949219 C 352.609375 109.949219 351.964844 111.382812 351.964844 111.664062 C 351.964844 111.785156 352.085938 111.785156 352.101562 111.785156 C 352.191406 111.785156 352.226562 111.75 352.242188 111.664062 C 352.628906 110.472656 353.363281 110.195312 353.746094 110.195312 C 353.957031 110.195312 354.34375 110.300781 354.34375 110.945312 C 354.34375 111.296875 354.148438 112.03125 353.746094 113.605469 C 353.574219 114.289062 353.171875 114.761719 352.679688 114.761719 C 352.609375 114.761719 352.367188 114.761719 352.121094 114.621094 C 352.402344 114.550781 352.644531 114.324219 352.644531 114.007812 C 352.644531 113.710938 352.402344 113.621094 352.242188 113.621094 C 351.894531 113.621094 351.632812 113.902344 351.632812 114.269531 C 351.632812 114.777344 352.171875 115.003906 352.664062 115.003906 C 353.414062 115.003906 353.816406 114.21875 353.835938 114.164062 C 353.976562 114.566406 354.378906 115.003906 355.042969 115.003906 C 356.195312 115.003906 356.828125 113.570312 356.828125 113.289062 C 356.828125 113.167969 356.738281 113.167969 356.703125 113.167969 C 356.597656 113.167969 356.582031 113.21875 356.546875 113.289062 C 356.179688 114.496094 355.425781 114.761719 355.078125 114.761719 C 354.640625 114.761719 354.464844 114.410156 354.464844 114.023438 C 354.464844 113.78125 354.515625 113.535156 354.640625 113.046875 Z M 355.023438 111.507812 "/>
</g>
<path fill="none" stroke-width="0.850394" stroke-linecap="butt" stroke-linejoin="miter" stroke="rgb(50.195312%, 50.195312%, 50.195312%)" stroke-opacity="1" stroke-miterlimit="4" d="M 336.789062 103.40625 C 336.789062 104.035156 336.789062 104.664062 336.789062 105.292969 "/>
<path fill="none" stroke-width="0.850394" stroke-linecap="butt" stroke-linejoin="miter" stroke="rgb(50.195312%, 50.195312%, 50.195312%)" stroke-opacity="1" stroke-miterlimit="4" d="M 319.171875 104.691406 C 319.171875 104.265625 319.171875 103.835938 319.171875 103.40625 "/>
<path fill="none" stroke-width="0.850394" stroke-linecap="butt" stroke-linejoin="miter" stroke="rgb(50.195312%, 50.195312%, 50.195312%)" stroke-opacity="1" stroke-miterlimit="4" d="M 372.019531 103.40625 C 372.019531 104.035156 372.019531 104.664062 372.019531 105.292969 "/>
<path fill="none" stroke-width="0.850394" stroke-linecap="butt" stroke-linejoin="miter" stroke="rgb(50.195312%, 50.195312%, 50.195312%)" stroke-opacity="1" stroke-miterlimit="4" d="M 354.402344 104.691406 C 354.402344 104.265625 354.402344 103.835938 354.402344 103.40625 "/>
<path fill="none" stroke-width="0.850394" stroke-linecap="butt" stroke-linejoin="miter" stroke="rgb(50.195312%, 50.195312%, 50.195312%)" stroke-opacity="1" stroke-miterlimit="4" d="M 389.636719 104.691406 C 389.636719 104.265625 389.636719 103.835938 389.636719 103.40625 "/>
<g clip-path="url(#clip-6)">
<path fill="none" stroke-width="0.850394" stroke-linecap="butt" stroke-linejoin="miter" stroke="rgb(50.195312%, 50.195312%, 50.195312%)" stroke-opacity="1" stroke-miterlimit="4" d="M 407.25 103.40625 C 407.25 104.035156 407.25 104.664062 407.25 105.292969 "/>
</g>
<path fill-rule="nonzero" fill="rgb(0%, 0%, 0%)" fill-opacity="1" d="M 284.027344 58.34375 L 284.027344 64.152344 L 284.375 64.152344 L 284.375 63.890625 C 284.375 63.03125 284.5 62.996094 284.902344 62.996094 L 290.742188 62.996094 C 291.144531 62.996094 291.269531 63.03125 291.269531 63.890625 L 291.269531 64.152344 L 291.617188 64.152344 C 291.582031 63.769531 291.582031 62.894531 291.582031 62.457031 C 291.582031 62 291.582031 60.984375 291.617188 60.582031 L 291.269531 60.582031 L 291.269531 60.953125 C 291.269531 62 291.128906 62 290.742188 62 L 284.8125 62 C 284.445312 62 284.375 61.984375 284.375 61.457031 L 284.375 60.304688 C 284.375 58.710938 285.039062 58.484375 286.546875 58.308594 L 286.546875 58.03125 Z M 284.027344 58.34375 "/>
<path fill-rule="nonzero" fill="rgb(0%, 0%, 0%)" fill-opacity="1" d="M 294.417969 54.699219 L 293.960938 54.699219 L 293.960938 55.78125 L 283.695312 55.78125 L 283.695312 54.699219 L 283.238281 54.699219 L 283.238281 56.238281 L 294.417969 56.238281 Z M 294.417969 54.699219 "/>
<path fill-rule="nonzero" fill="rgb(0%, 0%, 0%)" fill-opacity="1" d="M 288.242188 50.726562 C 287.960938 50.65625 286.929688 50.390625 286.929688 49.621094 C 286.929688 49.570312 286.929688 49.289062 287.070312 49.0625 C 287.140625 49.378906 287.402344 49.585938 287.683594 49.585938 C 287.855469 49.585938 288.066406 49.464844 288.066406 49.167969 C 288.066406 48.921875 287.875 48.574219 287.421875 48.574219 C 286.84375 48.574219 286.683594 49.21875 286.683594 49.605469 C 286.683594 50.253906 287.28125 50.636719 287.523438 50.777344 C 286.789062 51.058594 286.683594 51.652344 286.683594 51.984375 C 286.683594 53.136719 288.121094 53.785156 288.398438 53.785156 C 288.523438 53.785156 288.523438 53.664062 288.523438 53.644531 C 288.523438 53.558594 288.488281 53.523438 288.398438 53.507812 C 287.210938 53.121094 286.929688 52.386719 286.929688 52 C 286.929688 51.792969 287.035156 51.40625 287.683594 51.40625 C 288.03125 51.40625 288.765625 51.597656 290.339844 52 C 291.023438 52.175781 291.496094 52.578125 291.496094 53.070312 C 291.496094 53.136719 291.496094 53.382812 291.355469 53.628906 C 291.285156 53.347656 291.058594 53.105469 290.742188 53.105469 C 290.445312 53.105469 290.359375 53.347656 290.359375 53.507812 C 290.359375 53.855469 290.640625 54.117188 291.007812 54.117188 C 291.511719 54.117188 291.742188 53.574219 291.742188 53.085938 C 291.742188 52.335938 290.953125 51.933594 290.902344 51.914062 C 291.304688 51.773438 291.742188 51.371094 291.742188 50.707031 C 291.742188 49.550781 290.304688 48.921875 290.027344 48.921875 C 289.902344 48.921875 289.902344 49.011719 289.902344 49.046875 C 289.902344 49.148438 289.957031 49.167969 290.027344 49.203125 C 291.234375 49.570312 291.496094 50.324219 291.496094 50.671875 C 291.496094 51.109375 291.144531 51.285156 290.761719 51.285156 C 290.515625 51.285156 290.269531 51.230469 289.78125 51.109375 Z M 288.242188 50.726562 "/>
<path fill-rule="nonzero" fill="rgb(0%, 0%, 0%)" fill-opacity="1" d="M 283.238281 46.308594 L 283.238281 47.832031 L 283.695312 47.832031 L 283.695312 46.746094 L 293.960938 46.746094 L 293.960938 47.832031 L 294.417969 47.832031 L 294.417969 46.308594 Z M 283.238281 46.308594 "/>
<path fill-rule="nonzero" fill="rgb(50.195312%, 50.195312%, 50.195312%)" fill-opacity="1" d="M 300.246094 112.09375 L 300.246094 111.523438 L 297.792969 111.523438 L 299.664062 109.417969 C 299.972656 108.984375 300.210938 108.652344 300.210938 108.082031 C 300.210938 107.066406 299.464844 106.535156 298.523438 106.535156 C 297.992188 106.535156 297.546875 106.695312 297.101562 106.878906 L 297.101562 107.585938 C 297.546875 107.300781 297.992188 107.089844 298.539062 107.089844 C 299.15625 107.089844 299.640625 107.472656 299.640625 108.117188 C 299.640625 108.550781 299.292969 109.085938 299.007812 109.382812 C 298.921875 109.507812 297.199219 111.386719 297.0625 111.523438 L 297.0625 112.09375 Z M 300.246094 112.09375 "/>
<path fill-rule="nonzero" fill="rgb(50.195312%, 50.195312%, 50.195312%)" fill-opacity="1" d="M 301.15625 111.289062 L 301.914062 111.289062 L 301.914062 112.09375 L 301.15625 112.09375 Z M 301.15625 111.289062 "/>
<path fill-rule="nonzero" fill="rgb(50.195312%, 50.195312%, 50.195312%)" fill-opacity="1" d="M 306.390625 109.382812 C 306.378906 108.21875 306.117188 106.535156 304.644531 106.535156 C 303.171875 106.535156 302.921875 108.242188 302.921875 109.382812 C 302.921875 110.535156 303.183594 112.207031 304.644531 112.207031 C 306.105469 112.207031 306.390625 110.535156 306.390625 109.382812 Z M 305.820312 109.382812 C 305.820312 110.136719 305.757812 111.6875 304.644531 111.6875 C 303.53125 111.6875 303.492188 110.113281 303.492188 109.382812 C 303.492188 108.640625 303.519531 107.042969 304.644531 107.042969 C 305.757812 107.042969 305.820312 108.652344 305.820312 109.382812 Z M 305.820312 109.382812 "/>
<path fill-rule="nonzero" fill="rgb(50.195312%, 50.195312%, 50.195312%)" fill-opacity="1" d="M 403.792969 110.359375 C 403.78125 109.246094 403.089844 108.515625 401.972656 108.515625 C 401.824219 108.527344 401.492188 108.566406 401.292969 108.640625 L 401.492188 107.203125 L 403.421875 107.203125 L 403.421875 106.632812 L 401.09375 106.632812 L 400.757812 109.332031 C 401.191406 109.121094 401.292969 109.074219 401.847656 109.074219 C 402.65625 109.074219 403.222656 109.519531 403.222656 110.359375 C 403.222656 111.226562 402.667969 111.648438 401.847656 111.648438 C 401.304688 111.648438 400.945312 111.539062 400.550781 111.289062 L 400.550781 111.972656 C 400.90625 112.105469 401.441406 112.207031 401.863281 112.207031 C 403.039062 112.207031 403.792969 111.5625 403.792969 110.359375 Z M 403.792969 110.359375 "/>
<path fill-rule="nonzero" fill="rgb(50.195312%, 50.195312%, 50.195312%)" fill-opacity="1" d="M 404.691406 111.289062 L 405.445312 111.289062 L 405.445312 112.09375 L 404.691406 112.09375 Z M 404.691406 111.289062 "/>
<g clip-path="url(#clip-7)">
<path fill-rule="nonzero" fill="rgb(50.195312%, 50.195312%, 50.195312%)" fill-opacity="1" d="M 409.925781 109.382812 C 409.910156 108.21875 409.652344 106.535156 408.175781 106.535156 C 406.703125 106.535156 406.457031 108.242188 406.457031 109.382812 C 406.457031 110.535156 406.714844 112.207031 408.175781 112.207031 C 409.640625 112.207031 409.925781 110.535156 409.925781 109.382812 Z M 409.355469 109.382812 C 409.355469 110.136719 409.292969 111.6875 408.175781 111.6875 C 407.0625 111.6875 407.027344 110.113281 407.027344 109.382812 C 407.027344 108.640625 407.050781 107.042969 408.175781 107.042969 C 409.292969 107.042969 409.355469 108.652344 409.355469 109.382812 Z M 409.355469 109.382812 "/>
</g>
<path fill-rule="nonzero" fill="rgb(50.195312%, 50.195312%, 50.195312%)" fill-opacity="1" d="M 292.558594 102.832031 C 292.542969 101.667969 292.285156 99.984375 290.8125 99.984375 C 289.335938 99.984375 289.089844 101.691406 289.089844 102.832031 C 289.089844 103.984375 289.347656 105.65625 290.8125 105.65625 C 292.273438 105.65625 292.558594 103.984375 292.558594 102.832031 Z M 291.988281 102.832031 C 291.988281 103.585938 291.925781 105.136719 290.8125 105.136719 C 289.695312 105.136719 289.660156 103.5625 289.660156 102.832031 C 289.660156 102.089844 289.683594 100.492188 290.8125 100.492188 C 291.925781 100.492188 291.988281 102.101562 291.988281 102.832031 Z M 291.988281 102.832031 "/>
<path fill-rule="nonzero" fill="rgb(50.195312%, 50.195312%, 50.195312%)" fill-opacity="1" d="M 293.570312 104.738281 L 294.324219 104.738281 L 294.324219 105.542969 L 293.570312 105.542969 Z M 293.570312 104.738281 "/>
<path fill-rule="nonzero" fill="rgb(50.195312%, 50.195312%, 50.195312%)" fill-opacity="1" d="M 298.804688 102.832031 C 298.792969 101.667969 298.53125 99.984375 297.058594 99.984375 C 295.582031 99.984375 295.335938 101.691406 295.335938 102.832031 C 295.335938 103.984375 295.597656 105.65625 297.058594 105.65625 C 298.519531 105.65625 298.804688 103.984375 298.804688 102.832031 Z M 298.234375 102.832031 C 298.234375 103.585938 298.171875 105.136719 297.058594 105.136719 C 295.941406 105.136719 295.90625 103.5625 295.90625 102.832031 C 295.90625 102.089844 295.929688 100.492188 297.058594 100.492188 C 298.171875 100.492188 298.234375 102.101562 298.234375 102.832031 Z M 298.234375 102.832031 "/>
<path fill-rule="nonzero" fill="rgb(50.195312%, 50.195312%, 50.195312%)" fill-opacity="1" d="M 288.457031 9.925781 L 288.457031 9.355469 L 286.003906 9.355469 L 287.875 7.25 C 288.1875 6.816406 288.421875 6.484375 288.421875 5.914062 C 288.421875 4.898438 287.679688 4.367188 286.738281 4.367188 C 286.203125 4.367188 285.757812 4.527344 285.3125 4.710938 L 285.3125 5.417969 C 285.757812 5.132812 286.203125 4.921875 286.75 4.921875 C 287.367188 4.921875 287.851562 5.308594 287.851562 5.949219 C 287.851562 6.382812 287.503906 6.917969 287.21875 7.214844 C 287.132812 7.339844 285.410156 9.21875 285.273438 9.355469 L 285.273438 9.925781 Z M 288.457031 9.925781 "/>
<path fill-rule="nonzero" fill="rgb(50.195312%, 50.195312%, 50.195312%)" fill-opacity="1" d="M 292.367188 8.191406 C 292.355469 7.078125 291.660156 6.347656 290.546875 6.347656 C 290.398438 6.359375 290.0625 6.398438 289.863281 6.472656 L 290.0625 5.035156 L 291.996094 5.035156 L 291.996094 4.464844 L 289.667969 4.464844 L 289.332031 7.164062 C 289.765625 6.953125 289.863281 6.90625 290.421875 6.90625 C 291.226562 6.90625 291.796875 7.351562 291.796875 8.191406 C 291.796875 9.058594 291.238281 9.480469 290.421875 9.480469 C 289.875 9.480469 289.515625 9.371094 289.121094 9.121094 L 289.121094 9.804688 C 289.480469 9.9375 290.011719 10.039062 290.433594 10.039062 C 291.609375 10.039062 292.367188 9.394531 292.367188 8.191406 Z M 292.367188 8.191406 "/>
<path fill-rule="nonzero" fill="rgb(50.195312%, 50.195312%, 50.195312%)" fill-opacity="1" d="M 293.261719 9.121094 L 294.019531 9.121094 L 294.019531 9.925781 L 293.261719 9.925781 Z M 293.261719 9.121094 "/>
<path fill-rule="nonzero" fill="rgb(50.195312%, 50.195312%, 50.195312%)" fill-opacity="1" d="M 298.496094 7.214844 C 298.484375 6.050781 298.222656 4.367188 296.75 4.367188 C 295.277344 4.367188 295.027344 6.074219 295.027344 7.214844 C 295.027344 8.367188 295.289062 10.039062 296.75 10.039062 C 298.210938 10.039062 298.496094 8.367188 298.496094 7.214844 Z M 297.925781 7.214844 C 297.925781 7.96875 297.863281 9.519531 296.75 9.519531 C 295.636719 9.519531 295.597656 7.945312 295.597656 7.214844 C 295.597656 6.472656 295.621094 4.875 296.75 4.875 C 297.863281 4.875 297.925781 6.484375 297.925781 7.214844 Z M 297.925781 7.214844 "/>
</svg>
