<?xml version="1.0" encoding="UTF-8"?>
<svg xmlns="http://www.w3.org/2000/svg" xmlns:xlink="http://www.w3.org/1999/xlink" width="219.035187pt" height="132.897018pt" viewBox="0 0 219.035187 132.897018">
<defs>
<clipPath id="clip-0">
<path clip-rule="nonzero" d="M 110 127 L 116 127 L 116 132.898438 L 110 132.898438 Z M 110 127 "/>
</clipPath>
<clipPath id="clip-1">
<path clip-rule="nonzero" d="M 48.3125 3.554688 L 162 3.554688 L 162 120.199219 L 48.3125 120.199219 Z M 48.3125 3.554688 "/>
</clipPath>
<clipPath id="clip-2">
<path clip-rule="nonzero" d="M 69 118 L 71 118 L 71 120.199219 L 69 120.199219 Z M 69 118 "/>
</clipPath>
<clipPath id="clip-3">
<path clip-rule="nonzero" d="M 68 118 L 71 118 L 71 120.199219 L 68 120.199219 Z M 68 118 "/>
</clipPath>
</defs>
<path fill="none" stroke-width="0.850394" stroke-linecap="butt" stroke-linejoin="miter" stroke="rgb(50.195312%, 50.195312%, 50.195312%)" stroke-opacity="1" stroke-miterlimit="4" d="M 48.296875 3.585938 C 47.667969 3.585938 47.039062 3.585938 46.414062 3.585938 "/>
<path fill="none" stroke-width="0.850394" stroke-linecap="butt" stroke-linejoin="miter" stroke="rgb(50.195312%, 50.195312%, 50.195312%)" stroke-opacity="1" stroke-miterlimit="4" d="M 48.410156 120.765625 C 48.410156 121.394531 48.410156 122.019531 48.410156 122.648438 "/>
<path fill="none" stroke-width="0.850394" stroke-linecap="butt" stroke-linejoin="miter" stroke="rgb(50.195312%, 50.195312%, 50.195312%)" stroke-opacity="1" stroke-miterlimit="4" d="M 48.296875 42.519531 C 47.667969 42.519531 47.039062 42.519531 46.414062 42.519531 "/>
<path fill="none" stroke-width="0.850394" stroke-linecap="butt" stroke-linejoin="miter" stroke="rgb(50.195312%, 50.195312%, 50.195312%)" stroke-opacity="1" stroke-miterlimit="4" d="M 48.296875 81.449219 C 47.667969 81.449219 47.039062 81.449219 46.414062 81.449219 "/>
<path fill="none" stroke-width="0.850394" stroke-linecap="butt" stroke-linejoin="miter" stroke="rgb(50.195312%, 50.195312%, 50.195312%)" stroke-opacity="1" stroke-miterlimit="4" d="M 48.296875 120.382812 C 47.667969 120.382812 47.039062 120.382812 46.414062 120.382812 "/>
<g clip-path="url(#clip-0)">
<path fill-rule="nonzero" fill="rgb(0%, 0%, 0%)" fill-opacity="1" d="M 113.648438 128.863281 C 113.71875 128.585938 113.984375 127.550781 114.753906 127.550781 C 114.804688 127.550781 115.085938 127.550781 115.3125 127.691406 C 114.996094 127.761719 114.789062 128.023438 114.789062 128.304688 C 114.789062 128.480469 114.910156 128.691406 115.207031 128.691406 C 115.453125 128.691406 115.800781 128.496094 115.800781 128.042969 C 115.800781 127.464844 115.15625 127.308594 114.769531 127.308594 C 114.121094 127.308594 113.738281 127.902344 113.597656 128.148438 C 113.316406 127.414062 112.722656 127.308594 112.390625 127.308594 C 111.234375 127.308594 110.589844 128.742188 110.589844 129.023438 C 110.589844 129.144531 110.710938 129.144531 110.730469 129.144531 C 110.816406 129.144531 110.851562 129.109375 110.867188 129.023438 C 111.253906 127.832031 111.988281 127.550781 112.375 127.550781 C 112.582031 127.550781 112.96875 127.65625 112.96875 128.304688 C 112.96875 128.65625 112.777344 129.390625 112.375 130.964844 C 112.199219 131.644531 111.796875 132.117188 111.304688 132.117188 C 111.234375 132.117188 110.992188 132.117188 110.746094 131.976562 C 111.027344 131.910156 111.269531 131.679688 111.269531 131.367188 C 111.269531 131.070312 111.027344 130.980469 110.867188 130.980469 C 110.519531 130.980469 110.257812 131.261719 110.257812 131.628906 C 110.257812 132.136719 110.800781 132.363281 111.289062 132.363281 C 112.039062 132.363281 112.441406 131.574219 112.460938 131.523438 C 112.601562 131.925781 113.003906 132.363281 113.667969 132.363281 C 114.824219 132.363281 115.453125 130.929688 115.453125 130.648438 C 115.453125 130.527344 115.363281 130.527344 115.328125 130.527344 C 115.226562 130.527344 115.207031 130.578125 115.171875 130.648438 C 114.804688 131.855469 114.050781 132.117188 113.703125 132.117188 C 113.265625 132.117188 113.089844 131.769531 113.089844 131.382812 C 113.089844 131.136719 113.144531 130.894531 113.265625 130.402344 Z M 113.648438 128.863281 "/>
</g>
<path fill="none" stroke-width="0.850394" stroke-linecap="butt" stroke-linejoin="miter" stroke="rgb(50.195312%, 50.195312%, 50.195312%)" stroke-opacity="1" stroke-miterlimit="4" d="M 69.9375 122.050781 C 69.9375 121.621094 69.9375 121.195312 69.9375 120.765625 "/>
<path fill="none" stroke-width="0.850394" stroke-linecap="butt" stroke-linejoin="miter" stroke="rgb(50.195312%, 50.195312%, 50.195312%)" stroke-opacity="1" stroke-miterlimit="4" d="M 91.464844 122.050781 C 91.464844 121.621094 91.464844 121.195312 91.464844 120.765625 "/>
<path fill="none" stroke-width="0.850394" stroke-linecap="butt" stroke-linejoin="miter" stroke="rgb(50.195312%, 50.195312%, 50.195312%)" stroke-opacity="1" stroke-miterlimit="4" d="M 134.523438 122.050781 C 134.523438 121.621094 134.523438 121.195312 134.523438 120.765625 "/>
<path fill="none" stroke-width="0.850394" stroke-linecap="butt" stroke-linejoin="miter" stroke="rgb(50.195312%, 50.195312%, 50.195312%)" stroke-opacity="1" stroke-miterlimit="4" d="M 177.578125 120.765625 C 177.578125 121.394531 177.578125 122.019531 177.578125 122.648438 "/>
<path fill-rule="nonzero" fill="rgb(50.195312%, 50.195312%, 50.195312%)" fill-opacity="1" d="M 39.410156 120.191406 C 39.398438 119.027344 39.136719 117.339844 37.664062 117.339844 C 36.191406 117.339844 35.941406 119.050781 35.941406 120.191406 C 35.941406 121.34375 36.203125 123.015625 37.664062 123.015625 C 39.125 123.015625 39.410156 121.34375 39.410156 120.191406 Z M 38.839844 120.191406 C 38.839844 120.945312 38.777344 122.492188 37.664062 122.492188 C 36.546875 122.492188 36.511719 120.921875 36.511719 120.191406 C 36.511719 119.445312 36.535156 117.847656 37.664062 117.847656 C 38.777344 117.847656 38.839844 119.460938 38.839844 120.191406 Z M 38.839844 120.191406 "/>
<path fill-rule="nonzero" fill="rgb(50.195312%, 50.195312%, 50.195312%)" fill-opacity="1" d="M 40.421875 122.097656 L 41.179688 122.097656 L 41.179688 122.902344 L 40.421875 122.902344 Z M 40.421875 122.097656 "/>
<path fill-rule="nonzero" fill="rgb(50.195312%, 50.195312%, 50.195312%)" fill-opacity="1" d="M 45.65625 120.191406 C 45.644531 119.027344 45.382812 117.339844 43.910156 117.339844 C 42.4375 117.339844 42.1875 119.050781 42.1875 120.191406 C 42.1875 121.34375 42.449219 123.015625 43.910156 123.015625 C 45.371094 123.015625 45.65625 121.34375 45.65625 120.191406 Z M 45.085938 120.191406 C 45.085938 120.945312 45.023438 122.492188 43.910156 122.492188 C 42.796875 122.492188 42.757812 120.921875 42.757812 120.191406 C 42.757812 119.445312 42.785156 117.847656 43.910156 117.847656 C 45.023438 117.847656 45.085938 119.460938 45.085938 120.191406 Z M 45.085938 120.191406 "/>
<path fill-rule="nonzero" fill="rgb(50.195312%, 50.195312%, 50.195312%)" fill-opacity="1" d="M 47.191406 126.738281 C 47.179688 125.574219 46.917969 123.890625 45.445312 123.890625 C 43.96875 123.890625 43.722656 125.601562 43.722656 126.738281 C 43.722656 127.890625 43.984375 129.5625 45.445312 129.5625 C 46.90625 129.5625 47.191406 127.890625 47.191406 126.738281 Z M 46.621094 126.738281 C 46.621094 127.496094 46.558594 129.042969 45.445312 129.042969 C 44.328125 129.042969 44.292969 127.472656 44.292969 126.738281 C 44.292969 125.996094 44.316406 124.398438 45.445312 124.398438 C 46.558594 124.398438 46.621094 126.007812 46.621094 126.738281 Z M 46.621094 126.738281 "/>
<path fill-rule="nonzero" fill="rgb(50.195312%, 50.195312%, 50.195312%)" fill-opacity="1" d="M 48.203125 128.648438 L 48.960938 128.648438 L 48.960938 129.453125 L 48.203125 129.453125 Z M 48.203125 128.648438 "/>
<path fill-rule="nonzero" fill="rgb(50.195312%, 50.195312%, 50.195312%)" fill-opacity="1" d="M 53.4375 126.738281 C 53.425781 125.574219 53.164062 123.890625 51.691406 123.890625 C 50.21875 123.890625 49.96875 125.601562 49.96875 126.738281 C 49.96875 127.890625 50.230469 129.5625 51.691406 129.5625 C 53.152344 129.5625 53.4375 127.890625 53.4375 126.738281 Z M 52.867188 126.738281 C 52.867188 127.496094 52.804688 129.042969 51.691406 129.042969 C 50.578125 129.042969 50.539062 127.472656 50.539062 126.738281 C 50.539062 125.996094 50.5625 124.398438 51.691406 124.398438 C 52.804688 124.398438 52.867188 126.007812 52.867188 126.738281 Z M 52.867188 126.738281 "/>
<path fill="none" stroke-width="0.850394" stroke-linecap="butt" stroke-linejoin="miter" stroke="rgb(50.195312%, 50.195312%, 50.195312%)" stroke-opacity="1" stroke-miterlimit="4" d="M 112.992188 122.050781 C 112.992188 121.621094 112.992188 121.195312 112.992188 120.765625 "/>
<path fill="none" stroke-width="0.850394" stroke-linecap="butt" stroke-linejoin="miter" stroke="rgb(50.195312%, 50.195312%, 50.195312%)" stroke-opacity="1" stroke-miterlimit="4" d="M 156.050781 122.050781 C 156.050781 121.621094 156.050781 121.195312 156.050781 120.765625 "/>
<g clip-path="url(#clip-1)">
<path fill="none" stroke-width="1.559786" stroke-linecap="square" stroke-linejoin="round" stroke="rgb(81.959534%, 51.371765%, 38.430786%)" stroke-opacity="1" stroke-miterlimit="4" d="M 58.512945 120.199219 L 58.77788 120.011719 L 59.29829 119.902344 L 60.339109 119.796875 L 62.430208 119.707031 L 66.863151 119.640625 L 90.343078 119.386719 L 99.473898 119.164062 L 106.778554 118.898438 L 113.042392 118.570312 L 118.260679 118.207031 L 122.953826 117.78125 L 126.866359 117.332031 L 130.518687 116.820312 L 133.91081 116.242188 L 136.782524 115.660156 L 139.389302 115.039062 L 142.000811 114.320312 L 144.347385 113.574219 L 146.433753 112.816406 L 148.520122 111.957031 L 150.606491 110.984375 L 152.432655 110.03125 L 154.258819 108.960938 L 156.084983 107.765625 L 157.650942 106.625 L 159.216902 105.371094 L 160.782861 103.988281 L 162.34882 102.460938 L 163.914779 100.777344 L 165.220534 99.238281 L 166.521558 97.5625 L 167.827312 95.742188 L 169.133067 93.761719 L 170.43409 91.609375 L 171.739845 89.261719 L 173.0456 86.703125 L 174.351354 83.917969 L 175.652378 80.878906 L 176.958132 77.566406 L 178.263887 73.953125 L 179.56491 70.003906 L 180.870665 65.695312 L 182.17642 60.988281 L 183.482174 55.847656 L 184.783198 50.222656 L 186.088952 44.070312 L 187.394707 37.34375 L 188.700462 29.976562 L 190.001485 21.914062 L 191.30724 13.082031 L 192.612994 3.40625 L 193.653813 -5.003906 L 194.808176 -15.0625 " transform="matrix(0.825672, 0, 0, 1, 0, 0)"/>
</g>
<g clip-path="url(#clip-2)">
<path fill-rule="nonzero" fill="rgb(100%, 0%, 0%)" fill-opacity="1" d="M 69.855469 120.078125 C 70 120.078125 70.136719 120.007812 70.238281 119.886719 C 70.339844 119.761719 70.398438 119.59375 70.398438 119.417969 C 70.398438 119.246094 70.339844 119.078125 70.238281 118.953125 C 70.136719 118.832031 70 118.761719 69.855469 118.761719 C 69.710938 118.761719 69.574219 118.832031 69.472656 118.953125 C 69.371094 119.078125 69.3125 119.246094 69.3125 119.417969 C 69.3125 119.59375 69.371094 119.761719 69.472656 119.886719 C 69.574219 120.007812 69.710938 120.078125 69.855469 120.078125 Z M 69.855469 120.078125 "/>
</g>
<g clip-path="url(#clip-3)">
<path fill="none" stroke-width="1.10052" stroke-linecap="butt" stroke-linejoin="round" stroke="rgb(100%, 0%, 0%)" stroke-opacity="1" stroke-miterlimit="4" d="M 84.604381 120.078125 C 84.779428 120.078125 84.945013 120.007812 85.068019 119.886719 C 85.191025 119.761719 85.26199 119.59375 85.26199 119.417969 C 85.26199 119.246094 85.191025 119.078125 85.068019 118.953125 C 84.945013 118.832031 84.779428 118.761719 84.604381 118.761719 C 84.429335 118.761719 84.26375 118.832031 84.140744 118.953125 C 84.017738 119.078125 83.946773 119.246094 83.946773 119.417969 C 83.946773 119.59375 84.017738 119.761719 84.140744 119.886719 C 84.26375 120.007812 84.429335 120.078125 84.604381 120.078125 Z M 84.604381 120.078125 " transform="matrix(0.825672, 0, 0, 1, 0, 0)"/>
</g>
<path fill-rule="nonzero" fill="rgb(100%, 0%, 0%)" fill-opacity="1" stroke-width="1.10052" stroke-linecap="butt" stroke-linejoin="round" stroke="rgb(100%, 0%, 0%)" stroke-opacity="1" stroke-miterlimit="4" d="M 110.691087 119.300781 C 110.866134 119.300781 111.03645 119.230469 111.159456 119.105469 C 111.282461 118.984375 111.348695 118.816406 111.348695 118.640625 C 111.348695 118.46875 111.282461 118.300781 111.159456 118.175781 C 111.03645 118.054688 110.866134 117.984375 110.691087 117.984375 C 110.51604 117.984375 110.350455 118.054688 110.22745 118.175781 C 110.104444 118.300781 110.033479 118.46875 110.033479 118.640625 C 110.033479 118.816406 110.104444 118.984375 110.22745 119.105469 C 110.350455 119.230469 110.51604 119.300781 110.691087 119.300781 Z M 110.691087 119.300781 " transform="matrix(0.825672, 0, 0, 1, 0, 0)"/>
<path fill-rule="nonzero" fill="rgb(100%, 0%, 0%)" fill-opacity="1" stroke-width="1.10052" stroke-linecap="butt" stroke-linejoin="round" stroke="rgb(100%, 0%, 0%)" stroke-opacity="1" stroke-miterlimit="4" d="M 136.782524 116.1875 C 136.957571 116.1875 137.123155 116.121094 137.246161 115.996094 C 137.369167 115.875 137.440132 115.707031 137.440132 115.53125 C 137.440132 115.359375 137.369167 115.191406 137.246161 115.066406 C 137.123155 114.945312 136.957571 114.875 136.782524 114.875 C 136.607477 114.875 136.441892 114.945312 136.318886 115.066406 C 136.191149 115.191406 136.124916 115.359375 136.124916 115.53125 C 136.124916 115.707031 136.191149 115.875 136.318886 115.996094 C 136.441892 116.121094 136.607477 116.1875 136.782524 116.1875 Z M 136.782524 116.1875 " transform="matrix(0.825672, 0, 0, 1, 0, 0)"/>
<path fill-rule="nonzero" fill="rgb(100%, 0%, 0%)" fill-opacity="1" stroke-width="1.10052" stroke-linecap="butt" stroke-linejoin="round" stroke="rgb(100%, 0%, 0%)" stroke-opacity="1" stroke-miterlimit="4" d="M 162.86923 102.191406 C 163.044276 102.191406 163.209861 102.121094 163.337598 102 C 163.460604 101.875 163.526838 101.710938 163.526838 101.535156 C 163.526838 101.359375 163.460604 101.191406 163.337598 101.070312 C 163.209861 100.945312 163.044276 100.878906 162.86923 100.878906 C 162.694183 100.878906 162.528598 100.945312 162.405592 101.070312 C 162.282586 101.191406 162.211621 101.359375 162.211621 101.535156 C 162.211621 101.710938 162.282586 101.875 162.405592 102 C 162.528598 102.121094 162.694183 102.191406 162.86923 102.191406 Z M 162.86923 102.191406 " transform="matrix(0.825672, 0, 0, 1, 0, 0)"/>
<path fill-rule="nonzero" fill="rgb(100%, 0%, 0%)" fill-opacity="1" stroke-width="1.10052" stroke-linecap="butt" stroke-linejoin="round" stroke="rgb(100%, 0%, 0%)" stroke-opacity="1" stroke-miterlimit="4" d="M 188.960666 27.539062 C 189.135713 27.539062 189.301298 27.472656 189.424304 27.347656 C 189.54731 27.226562 189.618275 27.058594 189.618275 26.882812 C 189.618275 26.710938 189.54731 26.542969 189.424304 26.417969 C 189.301298 26.296875 189.135713 26.226562 188.960666 26.226562 C 188.785619 26.226562 188.615304 26.296875 188.492298 26.417969 C 188.369292 26.542969 188.303058 26.710938 188.303058 26.882812 C 188.303058 27.058594 188.369292 27.226562 188.492298 27.347656 C 188.615304 27.472656 188.785619 27.539062 188.960666 27.539062 Z M 188.960666 27.539062 " transform="matrix(0.825672, 0, 0, 1, 0, 0)"/>
<path fill-rule="nonzero" fill="rgb(0%, 0%, 0%)" fill-opacity="1" d="M 31.039062 70.957031 C 30.667969 71.570312 30.476562 72.199219 30.476562 73.003906 C 30.476562 74.558594 31.578125 75.523438 32.679688 75.523438 C 33.152344 75.523438 33.625 75.363281 34.097656 74.925781 C 34.605469 74.453125 34.726562 73.964844 34.886719 73.300781 C 35.128906 72.355469 35.164062 72.25 35.429688 71.9375 C 35.621094 71.707031 35.988281 71.464844 36.476562 71.464844 C 37.210938 71.464844 37.945312 72.074219 37.945312 73.089844 C 37.945312 73.546875 37.84375 74.558594 37.039062 75.488281 L 37.945312 75.660156 C 38.558594 74.683594 38.714844 73.789062 38.714844 73.089844 C 38.714844 71.605469 37.597656 70.589844 36.355469 70.589844 C 35.636719 70.589844 35.09375 70.921875 34.832031 71.167969 C 34.273438 71.691406 34.167969 72.058594 33.921875 73.089844 C 33.765625 73.738281 33.714844 73.914062 33.433594 74.261719 C 33.363281 74.332031 33.03125 74.648438 32.542969 74.648438 C 31.894531 74.648438 31.210938 74.035156 31.210938 73.019531 C 31.210938 72.074219 31.578125 71.550781 31.929688 71.132812 Z M 31.039062 70.957031 "/>
<path fill-rule="nonzero" fill="rgb(0%, 0%, 0%)" fill-opacity="1" d="M 34.167969 67.996094 L 34.167969 66.421875 L 33.519531 66.421875 L 33.519531 67.996094 L 32.105469 67.996094 L 32.105469 68.765625 L 33.519531 68.765625 L 33.519531 69.746094 L 34.167969 69.746094 L 34.167969 68.800781 L 37.140625 68.800781 C 37.808594 68.800781 38.59375 68.644531 38.59375 67.875 C 38.59375 67.105469 38.3125 66.527344 38.175781 66.246094 L 37.507812 66.421875 C 37.753906 66.71875 37.875 67.070312 37.875 67.4375 C 37.875 67.839844 37.542969 67.996094 36.949219 67.996094 Z M 34.167969 67.996094 "/>
<path fill-rule="nonzero" fill="rgb(0%, 0%, 0%)" fill-opacity="1" d="M 30.878906 64.109375 L 30.878906 65.105469 L 31.875 65.105469 L 31.875 64.109375 Z M 33.519531 64.175781 L 33.519531 65.015625 L 38.472656 65.015625 L 38.472656 64.175781 Z M 33.519531 64.175781 "/>
<path fill-rule="nonzero" fill="rgb(0%, 0%, 0%)" fill-opacity="1" d="M 36.074219 61.511719 C 34.972656 61.511719 34.167969 60.707031 34.132812 59.605469 L 33.398438 59.605469 C 33.398438 60.605469 33.957031 61.214844 34.464844 61.566406 L 33.453125 61.566406 L 33.453125 62.351562 L 38.472656 62.351562 L 38.472656 61.511719 Z M 36.074219 61.511719 "/>
<path fill-rule="nonzero" fill="rgb(0%, 0%, 0%)" fill-opacity="1" d="M 41.269531 56.601562 L 40.816406 56.601562 L 40.816406 57.683594 L 30.546875 57.683594 L 30.546875 56.601562 L 30.09375 56.601562 L 30.09375 58.140625 L 41.269531 58.140625 Z M 41.269531 56.601562 "/>
<path fill-rule="nonzero" fill="rgb(0%, 0%, 0%)" fill-opacity="1" d="M 35.09375 52.628906 C 34.816406 52.558594 33.785156 52.296875 33.785156 51.527344 C 33.785156 51.472656 33.785156 51.195312 33.921875 50.964844 C 33.992188 51.28125 34.253906 51.492188 34.535156 51.492188 C 34.710938 51.492188 34.921875 51.367188 34.921875 51.070312 C 34.921875 50.824219 34.726562 50.476562 34.273438 50.476562 C 33.695312 50.476562 33.539062 51.125 33.539062 51.507812 C 33.539062 52.15625 34.132812 52.539062 34.378906 52.679688 C 33.644531 52.960938 33.539062 53.554688 33.539062 53.886719 C 33.539062 55.042969 34.972656 55.6875 35.253906 55.6875 C 35.375 55.6875 35.375 55.566406 35.375 55.550781 C 35.375 55.460938 35.339844 55.425781 35.253906 55.410156 C 34.0625 55.023438 33.785156 54.289062 33.785156 53.90625 C 33.785156 53.695312 33.886719 53.308594 34.535156 53.308594 C 34.886719 53.308594 35.621094 53.503906 37.195312 53.90625 C 37.875 54.078125 38.347656 54.480469 38.347656 54.972656 C 38.347656 55.042969 38.347656 55.285156 38.210938 55.53125 C 38.140625 55.25 37.910156 55.007812 37.597656 55.007812 C 37.300781 55.007812 37.210938 55.25 37.210938 55.410156 C 37.210938 55.757812 37.492188 56.019531 37.859375 56.019531 C 38.367188 56.019531 38.59375 55.480469 38.59375 54.988281 C 38.59375 54.238281 37.808594 53.835938 37.753906 53.816406 C 38.15625 53.675781 38.59375 53.273438 38.59375 52.609375 C 38.59375 51.457031 37.160156 50.824219 36.878906 50.824219 C 36.757812 50.824219 36.757812 50.914062 36.757812 50.949219 C 36.757812 51.054688 36.808594 51.070312 36.878906 51.105469 C 38.085938 51.472656 38.347656 52.226562 38.347656 52.574219 C 38.347656 53.011719 38 53.1875 37.613281 53.1875 C 37.371094 53.1875 37.125 53.136719 36.636719 53.011719 Z M 35.09375 52.628906 "/>
<path fill-rule="nonzero" fill="rgb(0%, 0%, 0%)" fill-opacity="1" d="M 30.09375 48.210938 L 30.09375 49.734375 L 30.546875 49.734375 L 30.546875 48.648438 L 40.816406 48.648438 L 40.816406 49.734375 L 41.269531 49.734375 L 41.269531 48.210938 Z M 30.09375 48.210938 "/>
<path fill-rule="nonzero" fill="rgb(81.959534%, 51.371765%, 38.430786%)" fill-opacity="1" stroke-width="1.41732" stroke-linecap="butt" stroke-linejoin="round" stroke="rgb(81.959534%, 51.371765%, 38.430786%)" stroke-opacity="1" stroke-miterlimit="4" d="M 92.339844 118.640625 C 92.339844 119.164062 91.917969 119.589844 91.394531 119.589844 C 90.875 119.589844 90.449219 119.164062 90.449219 118.640625 C 90.449219 118.121094 90.875 117.695312 91.394531 117.695312 C 91.917969 117.695312 92.339844 118.121094 92.339844 118.640625 Z M 92.339844 118.640625 "/>
<path fill-rule="nonzero" fill="rgb(81.959534%, 51.371765%, 38.430786%)" fill-opacity="1" stroke-width="1.41732" stroke-linecap="butt" stroke-linejoin="round" stroke="rgb(81.959534%, 51.371765%, 38.430786%)" stroke-opacity="1" stroke-miterlimit="4" d="M 113.882812 115.53125 C 113.882812 116.054688 113.457031 116.476562 112.9375 116.476562 C 112.414062 116.476562 111.992188 116.054688 111.992188 115.53125 C 111.992188 115.007812 112.414062 114.585938 112.9375 114.585938 C 113.457031 114.585938 113.882812 115.007812 113.882812 115.53125 Z M 113.882812 115.53125 "/>
<path fill-rule="nonzero" fill="rgb(81.959534%, 51.371765%, 38.430786%)" fill-opacity="1" stroke-width="1.41732" stroke-linecap="butt" stroke-linejoin="round" stroke="rgb(81.959534%, 51.371765%, 38.430786%)" stroke-opacity="1" stroke-miterlimit="4" d="M 135.421875 101.535156 C 135.421875 102.058594 135 102.480469 134.476562 102.480469 C 133.957031 102.480469 133.53125 102.058594 133.53125 101.535156 C 133.53125 101.011719 133.957031 100.589844 134.476562 100.589844 C 135 100.589844 135.421875 101.011719 135.421875 101.535156 Z M 135.421875 101.535156 "/>
<path fill-rule="nonzero" fill="rgb(81.959534%, 51.371765%, 38.430786%)" fill-opacity="1" stroke-width="1.41732" stroke-linecap="butt" stroke-linejoin="round" stroke="rgb(81.959534%, 51.371765%, 38.430786%)" stroke-opacity="1" stroke-miterlimit="4" d="M 156.964844 26.882812 C 156.964844 27.40625 156.539062 27.828125 156.019531 27.828125 C 155.496094 27.828125 155.074219 27.40625 155.074219 26.882812 C 155.074219 26.359375 155.496094 25.9375 156.019531 25.9375 C 156.539062 25.9375 156.964844 26.359375 156.964844 26.882812 Z M 156.964844 26.882812 "/>
<path fill-rule="nonzero" fill="rgb(81.959534%, 51.371765%, 38.430786%)" fill-opacity="1" stroke-width="1.41732" stroke-linecap="butt" stroke-linejoin="round" stroke="rgb(81.959534%, 51.371765%, 38.430786%)" stroke-opacity="1" stroke-miterlimit="4" d="M 70.800781 118.996094 C 70.800781 119.519531 70.378906 119.945312 69.855469 119.945312 C 69.332031 119.945312 68.910156 119.519531 68.910156 118.996094 C 68.910156 118.476562 69.332031 118.050781 69.855469 118.050781 C 70.378906 118.050781 70.800781 118.476562 70.800781 118.996094 Z M 70.800781 118.996094 "/>
<path fill="none" stroke-width="0.850394" stroke-linecap="butt" stroke-linejoin="round" stroke="rgb(1.176453%, 0%, 0%)" stroke-opacity="1" stroke-miterlimit="4" d="M 48.480469 3.585938 L 177.578125 3.585938 L 177.578125 120.289062 L 48.480469 120.289062 Z M 48.480469 3.585938 "/>
<path fill-rule="nonzero" fill="rgb(50.195312%, 50.195312%, 50.195312%)" fill-opacity="1" d="M 30.597656 6.3125 L 30.597656 0.847656 L 29.941406 0.847656 L 29.160156 1.480469 L 29.160156 2.097656 L 29.976562 1.429688 L 29.976562 6.3125 Z M 30.597656 6.3125 "/>
<path fill-rule="nonzero" fill="rgb(50.195312%, 50.195312%, 50.195312%)" fill-opacity="1" d="M 34.78125 4.578125 C 34.769531 3.460938 34.074219 2.730469 32.960938 2.730469 C 32.8125 2.742188 32.476562 2.78125 32.277344 2.855469 L 32.476562 1.417969 L 34.410156 1.417969 L 34.410156 0.847656 L 32.082031 0.847656 L 31.746094 3.546875 C 32.179688 3.339844 32.277344 3.289062 32.835938 3.289062 C 33.640625 3.289062 34.210938 3.734375 34.210938 4.578125 C 34.210938 5.445312 33.652344 5.863281 32.835938 5.863281 C 32.292969 5.863281 31.933594 5.753906 31.535156 5.503906 L 31.535156 6.1875 C 31.894531 6.324219 32.425781 6.421875 32.847656 6.421875 C 34.027344 6.421875 34.78125 5.777344 34.78125 4.578125 Z M 34.78125 4.578125 "/>
<path fill-rule="nonzero" fill="rgb(50.195312%, 50.195312%, 50.195312%)" fill-opacity="1" d="M 39.070312 3.597656 C 39.058594 2.433594 38.796875 0.75 37.324219 0.75 C 35.851562 0.75 35.601562 2.457031 35.601562 3.597656 C 35.601562 4.75 35.863281 6.421875 37.324219 6.421875 C 38.785156 6.421875 39.070312 4.75 39.070312 3.597656 Z M 38.5 3.597656 C 38.5 4.355469 38.4375 5.902344 37.324219 5.902344 C 36.210938 5.902344 36.171875 4.328125 36.171875 3.597656 C 36.171875 2.855469 36.199219 1.257812 37.324219 1.257812 C 38.4375 1.257812 38.5 2.867188 38.5 3.597656 Z M 38.5 3.597656 "/>
<path fill-rule="nonzero" fill="rgb(50.195312%, 50.195312%, 50.195312%)" fill-opacity="1" d="M 40.082031 5.503906 L 40.839844 5.503906 L 40.839844 6.3125 L 40.082031 6.3125 Z M 40.082031 5.503906 "/>
<path fill-rule="nonzero" fill="rgb(50.195312%, 50.195312%, 50.195312%)" fill-opacity="1" d="M 45.316406 3.597656 C 45.304688 2.433594 45.046875 0.75 43.570312 0.75 C 42.097656 0.75 41.851562 2.457031 41.851562 3.597656 C 41.851562 4.75 42.109375 6.421875 43.570312 6.421875 C 45.03125 6.421875 45.316406 4.75 45.316406 3.597656 Z M 44.75 3.597656 C 44.75 4.355469 44.6875 5.902344 43.570312 5.902344 C 42.457031 5.902344 42.417969 4.328125 42.417969 3.597656 C 42.417969 2.855469 42.445312 1.257812 43.570312 1.257812 C 44.6875 1.257812 44.75 2.867188 44.75 3.597656 Z M 44.75 3.597656 "/>
<path fill-rule="nonzero" fill="rgb(50.195312%, 50.195312%, 50.195312%)" fill-opacity="1" d="M 172.789062 127.011719 L 172.789062 127.097656 C 172.789062 128.722656 173.234375 129.5625 174.597656 129.5625 C 175.527344 129.550781 176.257812 128.859375 176.257812 127.816406 C 176.257812 126.777344 175.726562 125.972656 174.632812 125.972656 C 174.125 125.996094 173.769531 126.082031 173.394531 126.515625 C 173.410156 124.980469 174.484375 124.398438 175.5625 124.398438 L 175.601562 124.398438 L 175.613281 123.890625 C 174.277344 123.902344 172.789062 124.609375 172.789062 127.011719 Z M 173.410156 127.816406 C 173.433594 127.0625 173.828125 126.492188 174.597656 126.492188 C 175.339844 126.492188 175.6875 127.085938 175.6875 127.816406 C 175.6875 128.546875 175.339844 129.042969 174.597656 129.042969 C 173.855469 129.042969 173.410156 128.574219 173.410156 127.816406 Z M 173.410156 127.816406 "/>
<path fill-rule="nonzero" fill="rgb(50.195312%, 50.195312%, 50.195312%)" fill-opacity="1" d="M 177.132812 128.648438 L 177.890625 128.648438 L 177.890625 129.453125 L 177.132812 129.453125 Z M 177.132812 128.648438 "/>
<path fill-rule="nonzero" fill="rgb(50.195312%, 50.195312%, 50.195312%)" fill-opacity="1" d="M 182.367188 126.738281 C 182.355469 125.574219 182.09375 123.890625 180.621094 123.890625 C 179.148438 123.890625 178.898438 125.601562 178.898438 126.738281 C 178.898438 127.890625 179.160156 129.5625 180.621094 129.5625 C 182.082031 129.5625 182.367188 127.890625 182.367188 126.738281 Z M 181.796875 126.738281 C 181.796875 127.496094 181.734375 129.042969 180.621094 129.042969 C 179.507812 129.042969 179.46875 127.472656 179.46875 126.738281 C 179.46875 125.996094 179.492188 124.398438 180.621094 124.398438 C 181.734375 124.398438 181.796875 126.007812 181.796875 126.738281 Z M 181.796875 126.738281 "/>
<path fill-rule="nonzero" fill="rgb(0%, 0%, 0%)" fill-opacity="1" d="M 68.703125 107.023438 C 68.703125 106.742188 68.703125 106.722656 68.4375 106.722656 C 67.738281 107.441406 66.757812 107.441406 66.410156 107.441406 L 66.410156 107.792969 C 66.636719 107.792969 67.285156 107.792969 67.863281 107.496094 L 67.863281 113.285156 C 67.863281 113.6875 67.828125 113.808594 66.828125 113.808594 L 66.480469 113.808594 L 66.480469 114.160156 C 66.863281 114.125 67.828125 114.125 68.28125 114.125 C 68.71875 114.125 69.699219 114.125 70.082031 114.160156 L 70.082031 113.808594 L 69.734375 113.808594 C 68.71875 113.808594 68.703125 113.6875 68.703125 113.285156 Z M 68.703125 107.023438 "/>
<path fill-rule="nonzero" fill="rgb(0%, 0%, 0%)" fill-opacity="1" d="M 72.703125 111.832031 L 73.125 106.742188 C 73.125 106.375 72.828125 106.164062 72.546875 106.164062 C 72.25 106.164062 71.953125 106.375 71.953125 106.742188 L 72.390625 111.816406 C 72.390625 111.988281 72.40625 112.078125 72.546875 112.078125 C 72.652344 112.078125 72.6875 112.023438 72.703125 111.832031 Z M 73.125 113.5625 C 73.125 113.25 72.859375 112.96875 72.546875 112.96875 C 72.214844 112.96875 71.953125 113.25 71.953125 113.5625 C 71.953125 113.898438 72.214844 114.160156 72.546875 114.160156 C 72.859375 114.160156 73.125 113.898438 73.125 113.5625 Z M 73.125 113.5625 "/>
<path fill-rule="nonzero" fill="rgb(0%, 0%, 0%)" fill-opacity="1" d="M 89.023438 112.179688 L 90.214844 111.027344 C 91.945312 109.484375 92.609375 108.890625 92.609375 107.773438 C 92.609375 106.496094 91.613281 105.601562 90.25 105.601562 C 88.992188 105.601562 88.167969 106.636719 88.167969 107.632812 C 88.167969 108.246094 88.726562 108.246094 88.761719 108.246094 C 88.957031 108.246094 89.339844 108.121094 89.339844 107.648438 C 89.339844 107.371094 89.128906 107.070312 88.746094 107.070312 C 88.65625 107.070312 88.640625 107.070312 88.605469 107.089844 C 88.851562 106.355469 89.460938 105.953125 90.109375 105.953125 C 91.125 105.953125 91.597656 106.863281 91.597656 107.773438 C 91.597656 108.664062 91.054688 109.539062 90.425781 110.238281 L 88.289062 112.617188 C 88.167969 112.738281 88.167969 112.773438 88.167969 113.039062 L 92.3125 113.039062 L 92.609375 111.09375 L 92.347656 111.09375 C 92.277344 111.429688 92.207031 111.917969 92.085938 112.09375 C 92.015625 112.179688 91.28125 112.179688 91.035156 112.179688 Z M 89.023438 112.179688 "/>
<path fill-rule="nonzero" fill="rgb(0%, 0%, 0%)" fill-opacity="1" d="M 94.898438 110.710938 L 95.320312 105.621094 C 95.320312 105.253906 95.023438 105.042969 94.742188 105.042969 C 94.445312 105.042969 94.148438 105.253906 94.148438 105.621094 L 94.585938 110.691406 C 94.585938 110.867188 94.601562 110.957031 94.742188 110.957031 C 94.847656 110.957031 94.882812 110.902344 94.898438 110.710938 Z M 95.320312 112.441406 C 95.320312 112.128906 95.058594 111.847656 94.742188 111.847656 C 94.410156 111.847656 94.148438 112.128906 94.148438 112.441406 C 94.148438 112.773438 94.410156 113.039062 94.742188 113.039062 C 95.058594 113.039062 95.320312 112.773438 95.320312 112.441406 Z M 95.320312 112.441406 "/>
<path fill-rule="nonzero" fill="rgb(0%, 0%, 0%)" fill-opacity="1" d="M 111.035156 105.789062 C 111.945312 105.492188 112.59375 104.722656 112.59375 103.832031 C 112.59375 102.921875 111.613281 102.289062 110.546875 102.289062 C 109.425781 102.289062 108.570312 102.957031 108.570312 103.8125 C 108.570312 104.179688 108.8125 104.390625 109.144531 104.390625 C 109.476562 104.390625 109.707031 104.144531 109.707031 103.8125 C 109.707031 103.269531 109.179688 103.269531 109.023438 103.269531 C 109.355469 102.710938 110.089844 102.570312 110.492188 102.570312 C 110.964844 102.570312 111.578125 102.816406 111.578125 103.8125 C 111.578125 103.953125 111.542969 104.601562 111.261719 105.089844 C 110.929688 105.632812 110.546875 105.667969 110.265625 105.667969 C 110.179688 105.683594 109.914062 105.703125 109.828125 105.703125 C 109.742188 105.71875 109.671875 105.738281 109.671875 105.84375 C 109.671875 105.964844 109.742188 105.964844 109.933594 105.964844 L 110.421875 105.964844 C 111.332031 105.964844 111.753906 106.714844 111.753906 107.820312 C 111.753906 109.339844 110.984375 109.65625 110.492188 109.65625 C 110.003906 109.65625 109.164062 109.464844 108.777344 108.816406 C 109.164062 108.867188 109.511719 108.625 109.511719 108.203125 C 109.511719 107.800781 109.214844 107.574219 108.902344 107.574219 C 108.621094 107.574219 108.269531 107.730469 108.269531 108.222656 C 108.269531 109.234375 109.304688 109.96875 110.527344 109.96875 C 111.890625 109.96875 112.90625 108.957031 112.90625 107.820312 C 112.90625 106.910156 112.191406 106.035156 111.035156 105.789062 Z M 111.035156 105.789062 "/>
<path fill-rule="nonzero" fill="rgb(0%, 0%, 0%)" fill-opacity="1" d="M 115.089844 107.398438 L 115.507812 102.308594 C 115.507812 101.941406 115.210938 101.730469 114.933594 101.730469 C 114.636719 101.730469 114.335938 101.941406 114.335938 102.308594 L 114.773438 107.382812 C 114.773438 107.554688 114.792969 107.644531 114.933594 107.644531 C 115.039062 107.644531 115.074219 107.589844 115.089844 107.398438 Z M 115.507812 109.128906 C 115.507812 108.816406 115.246094 108.535156 114.933594 108.535156 C 114.601562 108.535156 114.335938 108.816406 114.335938 109.128906 C 114.335938 109.464844 114.601562 109.726562 114.933594 109.726562 C 115.246094 109.726562 115.507812 109.464844 115.507812 109.128906 Z M 115.507812 109.128906 "/>
<path fill-rule="nonzero" fill="rgb(0%, 0%, 0%)" fill-opacity="1" d="M 130.601562 94.71875 L 130.601562 95.679688 C 130.601562 96.082031 130.566406 96.207031 129.746094 96.207031 L 129.519531 96.207031 L 129.519531 96.554688 C 129.972656 96.519531 130.550781 96.519531 131.023438 96.519531 C 131.496094 96.519531 132.070312 96.519531 132.542969 96.554688 L 132.542969 96.207031 L 132.300781 96.207031 C 131.476562 96.207031 131.460938 96.082031 131.460938 95.679688 L 131.460938 94.71875 L 132.5625 94.71875 L 132.5625 94.367188 L 131.460938 94.367188 L 131.460938 89.296875 C 131.460938 89.070312 131.460938 89 131.265625 89 C 131.179688 89 131.144531 89 131.058594 89.140625 L 127.628906 94.367188 L 127.628906 94.71875 Z M 130.65625 94.367188 L 127.945312 94.367188 L 130.65625 90.207031 Z M 130.65625 94.367188 "/>
<path fill-rule="nonzero" fill="rgb(0%, 0%, 0%)" fill-opacity="1" d="M 134.605469 94.230469 L 135.023438 89.140625 C 135.023438 88.769531 134.726562 88.5625 134.449219 88.5625 C 134.148438 88.5625 133.851562 88.769531 133.851562 89.140625 L 134.289062 94.210938 C 134.289062 94.386719 134.308594 94.472656 134.449219 94.472656 C 134.550781 94.472656 134.585938 94.421875 134.605469 94.230469 Z M 135.023438 95.960938 C 135.023438 95.644531 134.761719 95.367188 134.449219 95.367188 C 134.117188 95.367188 133.851562 95.644531 133.851562 95.960938 C 133.851562 96.292969 134.117188 96.554688 134.449219 96.554688 C 134.761719 96.554688 135.023438 96.292969 135.023438 95.960938 Z M 135.023438 95.960938 "/>
<path fill-rule="nonzero" fill="rgb(0%, 0%, 0%)" fill-opacity="1" d="M 152.53125 19.949219 C 152.53125 18.621094 151.621094 17.5 150.414062 17.5 C 149.890625 17.5 149.402344 17.675781 149 18.078125 L 149 15.890625 C 149.226562 15.960938 149.59375 16.03125 149.941406 16.03125 C 151.324219 16.03125 152.113281 15.015625 152.113281 14.878906 C 152.113281 14.808594 152.078125 14.753906 151.988281 14.753906 C 151.988281 14.753906 151.953125 14.753906 151.902344 14.789062 C 151.675781 14.894531 151.132812 15.121094 150.378906 15.121094 C 149.941406 15.121094 149.417969 15.035156 148.894531 14.808594 C 148.804688 14.773438 148.789062 14.773438 148.769531 14.773438 C 148.648438 14.773438 148.648438 14.859375 148.648438 15.035156 L 148.648438 18.339844 C 148.648438 18.535156 148.648438 18.621094 148.804688 18.621094 C 148.894531 18.621094 148.910156 18.605469 148.964844 18.535156 C 149.085938 18.359375 149.488281 17.746094 150.398438 17.746094 C 150.976562 17.746094 151.253906 18.253906 151.34375 18.464844 C 151.515625 18.882812 151.550781 19.304688 151.550781 19.863281 C 151.550781 20.265625 151.550781 20.929688 151.273438 21.402344 C 151.011719 21.839844 150.589844 22.121094 150.082031 22.121094 C 149.277344 22.121094 148.628906 21.523438 148.4375 20.878906 C 148.472656 20.878906 148.507812 20.894531 148.628906 20.894531 C 149 20.894531 149.191406 20.617188 149.191406 20.351562 C 149.191406 20.074219 149 19.792969 148.628906 19.792969 C 148.472656 19.792969 148.089844 19.878906 148.089844 20.386719 C 148.089844 21.351562 148.859375 22.433594 150.101562 22.433594 C 151.394531 22.433594 152.53125 21.367188 152.53125 19.949219 Z M 152.53125 19.949219 "/>
<path fill-rule="nonzero" fill="rgb(0%, 0%, 0%)" fill-opacity="1" d="M 154.820312 19.863281 L 155.238281 14.773438 C 155.238281 14.40625 154.941406 14.195312 154.664062 14.195312 C 154.363281 14.195312 154.066406 14.40625 154.066406 14.773438 L 154.503906 19.84375 C 154.503906 20.019531 154.523438 20.109375 154.664062 20.109375 C 154.765625 20.109375 154.800781 20.054688 154.820312 19.863281 Z M 155.238281 21.59375 C 155.238281 21.28125 154.976562 21 154.664062 21 C 154.332031 21 154.066406 21.28125 154.066406 21.59375 C 154.066406 21.925781 154.332031 22.191406 154.664062 22.191406 C 154.976562 22.191406 155.238281 21.925781 155.238281 21.59375 Z M 155.238281 21.59375 "/>
</svg>
